<?xml version="1.0" encoding="UTF-8"?><svg id="a" xmlns="http://www.w3.org/2000/svg" viewBox="0 0 36 36"><title>Acorn icon - Black</title>
<desc>tree, oak, nut, raleigh, earth, natural, science and nature</desc>
<metadata><?xpacket begin="﻿" id="W5M0MpCehiHzreSzNTczkc9d"?>
<x:xmpmeta xmlns:x="adobe:ns:meta/" x:xmptk="Adobe XMP Core 8.0-c001 1.000000, 0000/00/00-00:00:00        ">
   <rdf:RDF xmlns:rdf="http://www.w3.org/1999/02/22-rdf-syntax-ns#">
      <rdf:Description rdf:about=""
            xmlns:xmp="http://ns.adobe.com/xap/1.0/"
            xmlns:dc="http://purl.org/dc/elements/1.1/"
            xmlns:cq="http://www.day.com/jcr/cq/1.0"
            xmlns:tiff="http://ns.adobe.com/tiff/1.0/">
         <xmp:rhcc-effective-on>2023-12-08T17:40:52.274Z</xmp:rhcc-effective-on>
         <xmp:rhcc-metadata-complete-moderator>pending</xmp:rhcc-metadata-complete-moderator>
         <xmp:rhcc-translation-id>TRA3b6f06b6-2168-44e2-928e-91e83cb86e6f</xmp:rhcc-translation-id>
         <xmp:brand-content-type>Icon</xmp:brand-content-type>
         <xmp:CreateDate>2023-12-08T17:40:52.274Z</xmp:CreateDate>
         <xmp:rhcc-effective-on-set-on-upload>true</xmp:rhcc-effective-on-set-on-upload>
         <xmp:rhcc-metadata-complete-uploader>pending</xmp:rhcc-metadata-complete-uploader>
         <xmp:rhcc-file-last-modified>2023-12-08T17:42:22.400Z</xmp:rhcc-file-last-modified>
         <xmp:rhcc-audience>rhcc-audience:internal</xmp:rhcc-audience>
         <xmp:rhcc-rights-restricted>no</xmp:rhcc-rights-restricted>
         <xmp:brand-content-subtype>Icon</xmp:brand-content-subtype>
         <xmp:rhcc-derivative-id>DER3b6f06b6-2168-44e2-928e-91e83cb86e6f</xmp:rhcc-derivative-id>
         <xmp:brand-logo-color>Black</xmp:brand-logo-color>
         <xmp:rhcc-notify-portal-subscribers-on-change>yes</xmp:rhcc-notify-portal-subscribers-on-change>
         <dc:format>image/svg+xml</dc:format>
         <dc:modified>2024-02-09T20:25:38.207Z</dc:modified>
         <dc:title>
            <rdf:Alt>
               <rdf:li xml:lang="x-default">Acorn icon - Black</rdf:li>
            </rdf:Alt>
         </dc:title>
         <dc:description>
            <rdf:Alt>
               <rdf:li xml:lang="x-default">tree, oak, nut, raleigh, earth, natural, science and nature</rdf:li>
            </rdf:Alt>
         </dc:description>
         <cq:lastReplicationAction_scene7>Activate</cq:lastReplicationAction_scene7>
         <cq:lastReplicationAction_publish>Activate</cq:lastReplicationAction_publish>
         <cq:lastReplicated_publish>2024-02-09T22:09:34.448Z</cq:lastReplicated_publish>
         <cq:lastReplicatedBy>workflow-process-service</cq:lastReplicatedBy>
         <cq:lastReplicationAction>Activate</cq:lastReplicationAction>
         <cq:lastReplicatedBy_publish>workflow-process-service</cq:lastReplicatedBy_publish>
         <cq:isDelivered>true</cq:isDelivered>
         <cq:lastReplicated>2024-02-09T22:09:34.448Z</cq:lastReplicated>
         <cq:lastReplicatedBy_scene7>workflow-process-service</cq:lastReplicatedBy_scene7>
         <cq:lastReplicated_scene7>2024-02-09T22:09:34.448Z</cq:lastReplicated_scene7>
         <tiff:ImageLength>36</tiff:ImageLength>
         <tiff:ImageWidth>36</tiff:ImageWidth>
      </rdf:Description>
   </rdf:RDF>
</x:xmpmeta>
                                                                                                    
                                                                                                    
                                                                                                    
                                                                                                    
                                                                                                    
                                                                                                    
                                                                                                    
                                                                                                    
                                                                                                    
                                                                                                    
                                 
<?xpacket end="w"?></metadata>
<path d="m28.2559,13.2295c-.2529-.2529-.5156-.4902-.7871-.7129-.2671-.2178-.6602-.1797-.8794.0869s-.1802.6611.0864.8799c.2402.1973.4727.4072.6968.6309,3.6553,3.6553,3.6553,9.6025,0,13.2578-3.6553,3.6562-9.6025,3.6562-13.2588,0-.2236-.2236-.4336-.4561-.6304-.6953-.2178-.2676-.6118-.3076-.8794-.0879-.2671.2188-.3062.6123-.0874.8789.2222.2725.4604.5361.7139.7891,2.0713,2.0713,4.792,3.1064,7.5132,3.1064s5.4414-1.0352,7.5127-3.1064c4.1431-4.1436,4.1431-10.8838-.0005-15.0273Z"/><path d="m26.9272,9.0723l-1.4141-1.4141c-2.3848-2.3838-5.5552-3.6973-8.9272-3.6973-3.1624,0-6.1384,1.1675-8.4638,3.2769l-1.6802-1.6802c-.2441-.2441-.6396-.2441-.8838,0s-.2441.6406,0,.8848l1.6807,1.6807c-4.4835,4.9496-4.3531,12.6171.4199,17.3906l1.4141,1.4141c.1221.1221.2817.1826.4419.1826s.3198-.0605.4419-.1826L26.9272,9.957c.2441-.2441.2441-.6406,0-.8848ZM9.5146,25.6016l-.9722-.9727c-4.4351-4.4346-4.4351-11.6514,0-16.0859,2.1484-2.1494,5.0049-3.332,8.0435-3.332s5.895,1.1826,8.0435,3.332l.9722.9717L9.5146,25.6016Z"/><path d="m29.8599,29.04c-.2202-.0898-.5-.04-.6802.1396-.1196.1201-.1797.2705-.1797.4404s.0601.3301.1797.4395c.1201.1201.2803.1904.4399.1904.0903,0,.1704-.0205.2402-.0498.0801-.0303.1401-.0801.2002-.1406.1196-.1094.1899-.2695.1899-.4395,0-.1602-.0703-.3203-.1899-.4404-.0601-.0596-.1201-.0996-.2002-.1396Z"/><path d="m22.4419,8.5576c-.2441-.2441-.6396-.2441-.8838,0l-.5581.5581-2.5581-2.5581c-.2441-.2441-.6396-.2441-.8838,0s-.2441.6406,0,.8848l.5576.5576-2.1157,2.1157-.5581-.5581c-.2441-.2441-.6396-.2441-.8838,0s-.2441.6406,0,.8848l.5576.5576-1.5576,1.5576c-.2441.2441-.2441.6406,0,.8848.1221.1221.2817.1826.4419.1826s.3198-.0605.4419-.1826l1.5581-1.5581,1.1157,1.1157-2.5576,2.5576c-.2441.2441-.2441.6406,0,.8848.1221.1221.2817.1826.4419.1826s.3198-.0605.4419-.1826l2.5581-2.5581.5581.5581c.1221.1221.2817.1826.4419.1826s.3198-.0605.4419-.1826c.2441-.2441.2441-.6406,0-.8848l-.5576-.5576,2.1157-2.1157.5581.5581c.1221.1221.2817.1826.4419.1826s.3198-.0605.4419-.1826c.2441-.2441.2441-.6406,0-.8848l-.5576-.5576.5576-.5576c.2441-.2441.2441-.6406,0-.8848Zm-4.4419,3.5581l-1.1157-1.1157,2.1157-2.1157,1.1157,1.1157-2.1157,2.1157Z"/></svg>