<svg id="uuid-94335386-6e94-4411-bcad-f6c7e6a74fd1" xmlns="http://www.w3.org/2000/svg" viewBox="0 0 36 36">
  <defs>
    <style>
      .uuid-6f6f1d8a-48a1-4c44-99c5-1be824e77c86{fill:#000;stroke-width:0}
    </style>
  </defs>
  <path class="uuid-6f6f1d8a-48a1-4c44-99c5-1be824e77c86" d="M18 26.375a.625.625 0 0 0-.625.625v3.878a3.849 3.849 0 0 1-1.875.497c-1.66 0-3.114-1.062-3.647-2.647V26c0-.758.616-1.375 1.374-1.375a.625.625 0 0 0 0-1.25A2.628 2.628 0 0 0 10.602 26v1.985A4.847 4.847 0 0 1 7.625 23.5c0-.727.162-1.433.48-2.099a.624.624 0 0 0-.226-.796 4.854 4.854 0 0 1-2.246-3.98H8A2.378 2.378 0 0 1 10.375 19a.625.625 0 0 0 1.25 0 3.6 3.6 0 0 0-.962-2.44A3.625 3.625 0 0 0 13.65 13a.625.625 0 0 0-1.25 0 2.378 2.378 0 0 1-2.375 2.375H5.769a4.872 4.872 0 0 1 2.77-3.336.626.626 0 0 0 .329-.803A3.345 3.345 0 0 1 8.625 10 3.379 3.379 0 0 1 12 6.625c.042 0 .081.007.122.013l.158.018a.614.614 0 0 0 .618-.36 2.884 2.884 0 0 1 2.602-1.67c.699 0 1.351.26 1.875.717v4.938a2.372 2.372 0 0 1-1.75-2.28.625.625 0 0 0-1.25 0c0 1.784 1.3 3.263 3 3.56v1.44a.625.625 0 0 0 1.25 0V5.342a2.836 2.836 0 0 1 1.875-.718 2.88 2.88 0 0 1 2.547 1.573A2.38 2.38 0 0 1 21 7.375a.625.625 0 0 0 0 1.25c1.37 0 2.609-.78 3.223-1.977 1.755.117 3.152 1.567 3.152 3.352a.625.625 0 0 0 1.25 0 4.63 4.63 0 0 0-4.6-4.625 4.136 4.136 0 0 0-3.525-2c-.916 0-1.785.298-2.5.847a4.082 4.082 0 0 0-2.5-.847 4.136 4.136 0 0 0-3.525 2A4.63 4.63 0 0 0 7.375 10c0 .385.05.77.15 1.149a6.121 6.121 0 0 0-3.111 4.777c-.003.025-.015.048-.015.074 0 .013.007.024.007.037-.011.154-.031.307-.031.463 0 1.917.886 3.694 2.394 4.852a6.038 6.038 0 0 0-.394 2.148 6.094 6.094 0 0 0 4.373 5.864 5.103 5.103 0 0 0 7.6 2.395c.017-.01.026-.029.042-.042a.609.609 0 0 0 .198-.295.6.6 0 0 0 .025-.124c.002-.02.012-.037.012-.058V27a.625.625 0 0 0-.625-.625Zm11-7c-1.23 0-2.26.855-2.542 2H24a.625.625 0 0 0-.625.625v4.458a2.625 2.625 0 0 0-2 2.542c0 1.447 1.178 2.625 2.625 2.625s2.625-1.178 2.625-2.625c0-1.23-.855-2.26-2-2.542v-3.833h1.833a2.625 2.625 0 0 0 2.542 2c1.447 0 2.625-1.178 2.625-2.625S30.447 19.375 29 19.375ZM25.375 29c0 .758-.617 1.375-1.375 1.375s-1.375-.617-1.375-1.375.617-1.375 1.375-1.375 1.375.617 1.375 1.375ZM29 23.375c-.758 0-1.375-.617-1.375-1.375s.617-1.375 1.375-1.375 1.375.617 1.375 1.375-.617 1.375-1.375 1.375Z"/>
  <path class="uuid-6f6f1d8a-48a1-4c44-99c5-1be824e77c86" d="m19.843 19.135 1.563-3.51h4.053c.282 1.145 1.31 2 2.541 2 1.447 0 2.625-1.178 2.625-2.625S29.447 12.375 28 12.375c-1.23 0-2.26.855-2.542 2H21c-.209.02-.427.11-.526.308-.016.025-.04.045-.05.075L18.758 18.5a2.587 2.587 0 0 0-.758-.125c-1.447 0-2.625 1.178-2.625 2.625s1.178 2.625 2.625 2.625 2.625-1.178 2.625-2.625c0-.73-.3-1.389-.782-1.865ZM28 13.625c.758 0 1.375.617 1.375 1.375s-.617 1.375-1.375 1.375-1.375-.617-1.375-1.375.617-1.375 1.375-1.375Zm-10 8.75c-.758 0-1.375-.617-1.375-1.375s.617-1.375 1.375-1.375 1.375.617 1.375 1.375-.617 1.375-1.375 1.375Z"/>
</svg>
