<?xml version="1.0" encoding="UTF-8"?><svg id="a" xmlns="http://www.w3.org/2000/svg" viewBox="0 0 36 36"><title>Anchor icon - Black</title>
<desc>nautical, boat, ship, sail, ocean, sea, water, industry, shipping, logistics, weight, heavy, navigate, objects</desc>
<metadata><?xpacket begin="﻿" id="W5M0MpCehiHzreSzNTczkc9d"?>
<x:xmpmeta xmlns:x="adobe:ns:meta/" x:xmptk="Adobe XMP Core 8.0-c001 1.000000, 0000/00/00-00:00:00        ">
   <rdf:RDF xmlns:rdf="http://www.w3.org/1999/02/22-rdf-syntax-ns#">
      <rdf:Description rdf:about=""
            xmlns:xmp="http://ns.adobe.com/xap/1.0/"
            xmlns:dc="http://purl.org/dc/elements/1.1/"
            xmlns:cq="http://www.day.com/jcr/cq/1.0"
            xmlns:tiff="http://ns.adobe.com/tiff/1.0/">
         <xmp:rhcc-effective-on>2023-12-08T17:35:19.625Z</xmp:rhcc-effective-on>
         <xmp:rhcc-metadata-complete-moderator>pending</xmp:rhcc-metadata-complete-moderator>
         <xmp:rhcc-translation-id>TRA52ede326-8e4d-4976-9bee-5cc548f9cd99</xmp:rhcc-translation-id>
         <xmp:brand-content-type>Icon</xmp:brand-content-type>
         <xmp:CreateDate>2023-12-08T17:35:19.625Z</xmp:CreateDate>
         <xmp:rhcc-effective-on-set-on-upload>true</xmp:rhcc-effective-on-set-on-upload>
         <xmp:rhcc-metadata-complete-uploader>pending</xmp:rhcc-metadata-complete-uploader>
         <xmp:rhcc-file-last-modified>2023-12-08T17:35:32.051Z</xmp:rhcc-file-last-modified>
         <xmp:rhcc-audience>rhcc-audience:internal</xmp:rhcc-audience>
         <xmp:rhcc-rights-restricted>no</xmp:rhcc-rights-restricted>
         <xmp:brand-content-subtype>Icon</xmp:brand-content-subtype>
         <xmp:rhcc-derivative-id>DER52ede326-8e4d-4976-9bee-5cc548f9cd99</xmp:rhcc-derivative-id>
         <xmp:brand-logo-color>Black</xmp:brand-logo-color>
         <xmp:rhcc-notify-portal-subscribers-on-change>yes</xmp:rhcc-notify-portal-subscribers-on-change>
         <dc:format>image/svg+xml</dc:format>
         <dc:modified>2024-02-09T20:29:19.098Z</dc:modified>
         <dc:title>
            <rdf:Alt>
               <rdf:li xml:lang="x-default">Anchor icon - Black</rdf:li>
            </rdf:Alt>
         </dc:title>
         <dc:description>
            <rdf:Alt>
               <rdf:li xml:lang="x-default">nautical, boat, ship, sail, ocean, sea, water, industry, shipping, logistics, weight, heavy, navigate, objects</rdf:li>
            </rdf:Alt>
         </dc:description>
         <cq:lastReplicationAction_scene7>Activate</cq:lastReplicationAction_scene7>
         <cq:lastReplicationAction_publish>Activate</cq:lastReplicationAction_publish>
         <cq:lastReplicated_publish>2024-02-09T22:16:11.362Z</cq:lastReplicated_publish>
         <cq:lastReplicatedBy>workflow-process-service</cq:lastReplicatedBy>
         <cq:lastReplicationAction>Activate</cq:lastReplicationAction>
         <cq:lastReplicatedBy_publish>workflow-process-service</cq:lastReplicatedBy_publish>
         <cq:isDelivered>true</cq:isDelivered>
         <cq:lastReplicated>2024-02-09T22:16:11.362Z</cq:lastReplicated>
         <cq:lastReplicatedBy_scene7>workflow-process-service</cq:lastReplicatedBy_scene7>
         <cq:lastReplicated_scene7>2024-02-09T22:16:11.362Z</cq:lastReplicated_scene7>
         <tiff:ImageLength>36</tiff:ImageLength>
         <tiff:ImageWidth>36</tiff:ImageWidth>
      </rdf:Description>
   </rdf:RDF>
</x:xmpmeta>
                                                                                                    
                                                                                                    
                                                                                                    
                                                                                                    
                                                                                                    
                                                                                                    
                                                                                                    
                                                                                                    
                                                                                                    
                                                                                                    
                                 
<?xpacket end="w"?></metadata>
<defs><style>.b{fill:none;}.c{fill:#231f20;}</style></defs><path class="b" d="M19.88,7.5c-.06-2.47-3.69-2.47-3.75,0,.06,2.47,3.69,2.47,3.75,0Z"/><path class="c" d="M28.96,22.5l-1.39-2.77s-.04-.05-.06-.07c-.29-.46-1.06-.28-1.11,.26,0,4.44-3.39,8.13-7.78,8.45V13.62h5.38c.35,0,.62-.28,.62-.62s-.28-.62-.62-.62h-5.38v-1.81c3.63-.79,3.13-6.13-.63-6.19-3.75,.06-4.25,5.4-.62,6.19v1.81h-5.38c-.35,0-.62,.28-.62,.62s.28,.62,.62,.62h5.38v14.73c-4.34-.32-7.77-3.94-7.77-8.36-.02-.24-.15-.46-.36-.56-.31-.14-.66,0-.82,.28l-1.39,2.77c-.36,.73,.75,1.29,1.12,.56l.45-.91c.93,4.09,4.47,7.18,8.77,7.46v1.39c0,.34,.28,.62,.62,.62s.62-.28,.62-.62v-1.39c4.3-.28,7.83-3.37,8.77-7.46l.45,.91c.37,.73,1.48,.17,1.12-.56ZM16.12,7.5c.06-2.47,3.69-2.47,3.75,0-.06,2.47-3.69,2.47-3.75,0Z"/></svg>