<svg id="b11ff026-d9c7-4d9c-84b8-3c8cc6897abf" data-name="Icon" xmlns="http://www.w3.org/2000/svg" viewBox="0 0 36 36">
  <title>API icon - Black</title>
<desc>application, code, developer, development, platform, interface, connection, communication, communicate, software and technologies</desc>
<metadata><?xpacket begin="﻿" id="W5M0MpCehiHzreSzNTczkc9d"?>
<x:xmpmeta xmlns:x="adobe:ns:meta/" x:xmptk="Adobe XMP Core 8.0-c001 1.000000, 0000/00/00-00:00:00        ">
   <rdf:RDF xmlns:rdf="http://www.w3.org/1999/02/22-rdf-syntax-ns#">
      <rdf:Description rdf:about=""
            xmlns:xmp="http://ns.adobe.com/xap/1.0/"
            xmlns:dc="http://purl.org/dc/elements/1.1/"
            xmlns:cq="http://www.day.com/jcr/cq/1.0"
            xmlns:tiff="http://ns.adobe.com/tiff/1.0/">
         <xmp:rhcc-effective-on>2023-12-08T17:41:47.725Z</xmp:rhcc-effective-on>
         <xmp:rhcc-metadata-complete-moderator>pending</xmp:rhcc-metadata-complete-moderator>
         <xmp:rhcc-translation-id>TRAc8d95d28-1eac-4936-a896-4f7a4f503547</xmp:rhcc-translation-id>
         <xmp:brand-content-type>Icon</xmp:brand-content-type>
         <xmp:CreateDate>2023-12-08T17:41:47.725Z</xmp:CreateDate>
         <xmp:rhcc-effective-on-set-on-upload>true</xmp:rhcc-effective-on-set-on-upload>
         <xmp:rhcc-metadata-complete-uploader>pending</xmp:rhcc-metadata-complete-uploader>
         <xmp:rhcc-file-last-modified>2023-12-08T17:42:22.202Z</xmp:rhcc-file-last-modified>
         <xmp:rhcc-audience>rhcc-audience:internal</xmp:rhcc-audience>
         <xmp:rhcc-rights-restricted>no</xmp:rhcc-rights-restricted>
         <xmp:brand-content-subtype>Icon</xmp:brand-content-subtype>
         <xmp:rhcc-derivative-id>DERc8d95d28-1eac-4936-a896-4f7a4f503547</xmp:rhcc-derivative-id>
         <xmp:brand-logo-color>Black</xmp:brand-logo-color>
         <xmp:rhcc-notify-portal-subscribers-on-change>yes</xmp:rhcc-notify-portal-subscribers-on-change>
         <dc:format>image/svg+xml</dc:format>
         <dc:modified>2024-02-09T20:14:05.150Z</dc:modified>
         <dc:title>
            <rdf:Alt>
               <rdf:li xml:lang="x-default">API icon - Black</rdf:li>
            </rdf:Alt>
         </dc:title>
         <dc:description>
            <rdf:Alt>
               <rdf:li xml:lang="x-default">application, code, developer, development, platform, interface, connection, communication, communicate, software and technologies</rdf:li>
            </rdf:Alt>
         </dc:description>
         <cq:lastReplicationAction_scene7>Activate</cq:lastReplicationAction_scene7>
         <cq:lastReplicationAction_publish>Activate</cq:lastReplicationAction_publish>
         <cq:lastReplicated_publish>2024-02-09T21:50:39.574Z</cq:lastReplicated_publish>
         <cq:lastReplicatedBy>workflow-process-service</cq:lastReplicatedBy>
         <cq:lastReplicationAction>Activate</cq:lastReplicationAction>
         <cq:lastReplicatedBy_publish>workflow-process-service</cq:lastReplicatedBy_publish>
         <cq:isDelivered>true</cq:isDelivered>
         <cq:lastReplicated>2024-02-09T21:50:39.574Z</cq:lastReplicated>
         <cq:lastReplicatedBy_scene7>workflow-process-service</cq:lastReplicatedBy_scene7>
         <cq:lastReplicated_scene7>2024-02-09T21:50:39.574Z</cq:lastReplicated_scene7>
         <tiff:ImageLength>36</tiff:ImageLength>
         <tiff:ImageWidth>36</tiff:ImageWidth>
      </rdf:Description>
   </rdf:RDF>
</x:xmpmeta>
                                                                                                    
                                                                                                    
                                                                                                    
                                                                                                    
                                                                                                    
                                                                                                    
                                                                                                    
                                                                                                    
                                                                                                    
                                                                                                    
                                 
<?xpacket end="w"?></metadata>
<g>
    <path d="M29,23.38a2.62,2.62,0,0,0-2.54,2h-1.2l-1.82-1.82c-.56-.58-1.46.32-.88.88l2,2a.6.6,0,0,0,.44.18h1.46A2.62,2.62,0,1,0,29,23.38Zm0,4a1.38,1.38,0,0,1,0-2.75A1.38,1.38,0,0,1,29,27.38Z"/>
    <path d="M22.62,22V14a.61.61,0,0,0-.62-.62H14a.61.61,0,0,0-.62.62v8a.61.61,0,0,0,.62.62h8A.61.61,0,0,0,22.62,22Zm-1.24-.62H14.62V14.62h6.76Z"/>
    <path d="M31,15.38H27a.61.61,0,0,0-.62.62v1.38H24a.62.62,0,0,0,0,1.24h2.38V20a.61.61,0,0,0,.62.62h4a.61.61,0,0,0,.62-.62V16A.61.61,0,0,0,31,15.38Zm-.62,4H27.62V16.62h2.76Z"/>
    <path d="M23,12.62a.62.62,0,0,0,.44-.18l1.82-1.82h1.2a2.62,2.62,0,1,0,0-1.24H25a.6.6,0,0,0-.44.18l-2,2A.62.62,0,0,0,23,12.62Zm6-4a1.38,1.38,0,0,1,0,2.75A1.38,1.38,0,0,1,29,8.62Z"/>
    <path d="M7,12.62a2.62,2.62,0,0,0,2.54-2h1.2l1.82,1.82a.62.62,0,0,0,.88-.88l-2-2A.6.6,0,0,0,11,9.38H9.54A2.62,2.62,0,1,0,7,12.62Zm0-4a1.38,1.38,0,0,1,0,2.75A1.38,1.38,0,0,1,7,8.62Z"/>
    <path d="M5,20.62H9A.61.61,0,0,0,9.62,20V18.62H12a.62.62,0,0,0,0-1.24H9.62V16A.61.61,0,0,0,9,15.38H5a.61.61,0,0,0-.62.62v4A.61.61,0,0,0,5,20.62Zm.62-4H8.38v2.76H5.62Z"/>
    <path d="M12.56,23.56l-1.82,1.82H9.54a2.62,2.62,0,1,0,0,1.24H11a.6.6,0,0,0,.44-.18l2-2C14,23.88,13.12,23,12.56,23.56ZM7,27.38a1.38,1.38,0,0,1,0-2.75A1.38,1.38,0,0,1,7,27.38Z"/>
  </g>
</svg>
