<svg id="b63f06e1-c37b-4332-9ce2-b5df3c7e3a63" data-name="Icon" xmlns="http://www.w3.org/2000/svg" viewBox="0 0 36 36">
  <title>Award ribbon icon - Black</title>
<desc>recognition, certificate, winner, blue, bow, won, best, trophy, number one, prize, objects</desc>
<metadata><?xpacket begin="﻿" id="W5M0MpCehiHzreSzNTczkc9d"?>
<x:xmpmeta xmlns:x="adobe:ns:meta/" x:xmptk="Adobe XMP Core 8.0-c001 1.000000, 0000/00/00-00:00:00        ">
   <rdf:RDF xmlns:rdf="http://www.w3.org/1999/02/22-rdf-syntax-ns#">
      <rdf:Description rdf:about=""
            xmlns:xmp="http://ns.adobe.com/xap/1.0/"
            xmlns:dc="http://purl.org/dc/elements/1.1/"
            xmlns:cq="http://www.day.com/jcr/cq/1.0"
            xmlns:tiff="http://ns.adobe.com/tiff/1.0/">
         <xmp:rhcc-effective-on>2023-12-08T17:35:20.410Z</xmp:rhcc-effective-on>
         <xmp:rhcc-metadata-complete-moderator>pending</xmp:rhcc-metadata-complete-moderator>
         <xmp:rhcc-translation-id>TRA986bd406-f5db-4f4b-80ae-bb948f459734</xmp:rhcc-translation-id>
         <xmp:brand-content-type>Icon</xmp:brand-content-type>
         <xmp:CreateDate>2023-12-08T17:35:20.410Z</xmp:CreateDate>
         <xmp:rhcc-effective-on-set-on-upload>true</xmp:rhcc-effective-on-set-on-upload>
         <xmp:rhcc-metadata-complete-uploader>pending</xmp:rhcc-metadata-complete-uploader>
         <xmp:rhcc-file-last-modified>2023-12-08T17:35:32.126Z</xmp:rhcc-file-last-modified>
         <xmp:rhcc-audience>rhcc-audience:internal</xmp:rhcc-audience>
         <xmp:rhcc-rights-restricted>no</xmp:rhcc-rights-restricted>
         <xmp:brand-content-subtype>Icon</xmp:brand-content-subtype>
         <xmp:rhcc-derivative-id>DER986bd406-f5db-4f4b-80ae-bb948f459734</xmp:rhcc-derivative-id>
         <xmp:brand-logo-color>Black</xmp:brand-logo-color>
         <xmp:rhcc-notify-portal-subscribers-on-change>yes</xmp:rhcc-notify-portal-subscribers-on-change>
         <dc:format>image/svg+xml</dc:format>
         <dc:modified>2024-02-09T20:29:25.172Z</dc:modified>
         <dc:title>
            <rdf:Alt>
               <rdf:li xml:lang="x-default">Award ribbon icon - Black</rdf:li>
            </rdf:Alt>
         </dc:title>
         <dc:description>
            <rdf:Alt>
               <rdf:li xml:lang="x-default">recognition, certificate, winner, blue, bow, won, best, trophy, number one, prize, objects</rdf:li>
            </rdf:Alt>
         </dc:description>
         <cq:lastReplicationAction_scene7>Activate</cq:lastReplicationAction_scene7>
         <cq:lastReplicationAction_publish>Activate</cq:lastReplicationAction_publish>
         <cq:lastReplicated_publish>2024-02-09T22:16:15.578Z</cq:lastReplicated_publish>
         <cq:lastReplicatedBy>workflow-process-service</cq:lastReplicatedBy>
         <cq:lastReplicationAction>Activate</cq:lastReplicationAction>
         <cq:lastReplicatedBy_publish>workflow-process-service</cq:lastReplicatedBy_publish>
         <cq:isDelivered>true</cq:isDelivered>
         <cq:lastReplicated>2024-02-09T22:16:15.578Z</cq:lastReplicated>
         <cq:lastReplicatedBy_scene7>workflow-process-service</cq:lastReplicatedBy_scene7>
         <cq:lastReplicated_scene7>2024-02-09T22:16:15.578Z</cq:lastReplicated_scene7>
         <tiff:ImageLength>36</tiff:ImageLength>
         <tiff:ImageWidth>36</tiff:ImageWidth>
      </rdf:Description>
   </rdf:RDF>
</x:xmpmeta>
                                                                                                    
                                                                                                    
                                                                                                    
                                                                                                    
                                                                                                    
                                                                                                    
                                                                                                    
                                                                                                    
                                                                                                    
                                                                                                    
                                 
<?xpacket end="w"?></metadata>
<g>
    <path d="M18,19.52c6.11-.19,6.11-9,0-9.25C11.89,10.47,11.89,19.33,18,19.52Zm0-8a3.38,3.38,0,0,1,0,6.75A3.38,3.38,0,0,1,18,11.52Z"/>
    <path d="M28.44,26.56l-4-4c.5,0,1.2.07,1.21-.62V18.06l2.72-2.72a.61.61,0,0,0,0-.88l-2.72-2.72V7.9A.62.62,0,0,0,25,7.27H21.16L18.44,4.56a.61.61,0,0,0-.88,0L14.84,7.27H11a.62.62,0,0,0-.62.63v3.84L7.66,14.46a.61.61,0,0,0,0,.88l2.72,2.72V21.9c0,.69.71.64,1.21.62l-4,4A.62.62,0,0,0,8,27.62h3.38V31a.62.62,0,0,0,1.06.44L18,25.88l5.56,5.56A.62.62,0,0,0,24.62,31V27.62H28A.62.62,0,0,0,28.44,26.56ZM9,14.9l2.46-2.46a.59.59,0,0,0,.18-.44V8.52H15.1a.59.59,0,0,0,.44-.18L18,5.88l2.46,2.46a.59.59,0,0,0,.44.18h3.48V12a.59.59,0,0,0,.18.44L27,14.9l-2.46,2.46a.59.59,0,0,0-.18.44v3.47H20.9a.6.6,0,0,0-.44.19L18,23.92l-2.46-2.46a.6.6,0,0,0-.44-.19H11.62V17.8a.59.59,0,0,0-.18-.44Zm3,11.48H9.51l3.85-3.86h1.48l2.38,2.38-4.6,4.59V27A.62.62,0,0,0,12,26.38Zm12,0a.62.62,0,0,0-.62.62v2.49l-4.6-4.59,2.38-2.38h1.48l3.85,3.86Z"/>
  </g>
</svg>
