<?xml version="1.0" encoding="UTF-8"?><svg id="uuid-977bfe8e-13b1-4f6e-872a-870b7cd0e2b3" xmlns="http://www.w3.org/2000/svg" viewBox="0 0 36 36"><title>Backup recovery icon</title>
<metadata><?xpacket begin="﻿" id="W5M0MpCehiHzreSzNTczkc9d"?>
<x:xmpmeta xmlns:x="adobe:ns:meta/" x:xmptk="Adobe XMP Core 8.0-c001 1.000000, 0000/00/00-00:00:00        ">
   <rdf:RDF xmlns:rdf="http://www.w3.org/1999/02/22-rdf-syntax-ns#">
      <rdf:Description rdf:about=""
            xmlns:xmp="http://ns.adobe.com/xap/1.0/"
            xmlns:tiff="http://ns.adobe.com/tiff/1.0/"
            xmlns:dc="http://purl.org/dc/elements/1.1/">
         <xmp:rhcc-effective-on>2024-04-03T14:59:21.936Z</xmp:rhcc-effective-on>
         <xmp:rhcc-rights-restricted>no</xmp:rhcc-rights-restricted>
         <xmp:brand-content-subtype>Icon</xmp:brand-content-subtype>
         <xmp:rhcc-metadata-complete-moderator>pending</xmp:rhcc-metadata-complete-moderator>
         <xmp:rhcc-translation-id>TRA6299099a-e719-4375-b652-70478de5566c</xmp:rhcc-translation-id>
         <xmp:brand-content-type>Icon</xmp:brand-content-type>
         <xmp:CreateDate>2024-04-03T14:59:21.936Z</xmp:CreateDate>
         <xmp:rhcc-derivative-id>DER6299099a-e719-4375-b652-70478de5566c</xmp:rhcc-derivative-id>
         <xmp:rhcc-effective-on-set-on-upload>true</xmp:rhcc-effective-on-set-on-upload>
         <xmp:brand-logo-color>Black</xmp:brand-logo-color>
         <xmp:rhcc-metadata-complete-uploader>pending</xmp:rhcc-metadata-complete-uploader>
         <xmp:rhcc-file-last-modified>2024-04-03T14:59:31.800Z</xmp:rhcc-file-last-modified>
         <xmp:rhcc-audience>rhcc-audience:internal</xmp:rhcc-audience>
         <xmp:rhcc-notify-portal-subscribers-on-change>yes</xmp:rhcc-notify-portal-subscribers-on-change>
         <xmp:brand-colorway>Black</xmp:brand-colorway>
         <tiff:ImageLength>36</tiff:ImageLength>
         <tiff:ImageWidth>36</tiff:ImageWidth>
         <dc:format>image/svg+xml</dc:format>
         <dc:modified>2024-04-03T15:53:50.525Z</dc:modified>
         <dc:title>
            <rdf:Alt>
               <rdf:li xml:lang="x-default">Backup recovery icon</rdf:li>
            </rdf:Alt>
         </dc:title>
      </rdf:Description>
   </rdf:RDF>
</x:xmpmeta>
                                                                                                    
                                                                                                    
                                                                                                    
                                                                                                    
                                                                                                    
                                                                                                    
                                                                                                    
                                                                                                    
                                                                                                    
                                                                                                    
                                                                                                    
                                                                                                    
                                                                                                    
                                                                                                    
                                                                                                    
                                                                                                    
                                                                                                    
                                                               
<?xpacket end="w"?></metadata>
<defs><style>.uuid-1237d834-6d9f-461d-b34a-5cb137738008{stroke-width:0px;}</style></defs><path class="uuid-1237d834-6d9f-461d-b34a-5cb137738008" d="M20,30.375H5.625V5.625h24.75v14.375c0,.3447.2798.625.625.625s.625-.2803.625-.625V5c0-.3452-.2798-.625-.625-.625H5c-.3452,0-.625.2798-.625.625v26c0,.3447.2798.625.625.625h15c.3452,0,.625-.2803.625-.625s-.2798-.625-.625-.625Z"/><path class="uuid-1237d834-6d9f-461d-b34a-5cb137738008" d="M15,9.375h-6c-.3452,0-.625.2803-.625.625s.2798.625.625.625h6c.3452,0,.625-.2803.625-.625s-.2798-.625-.625-.625Z"/><path class="uuid-1237d834-6d9f-461d-b34a-5cb137738008" d="M27.5796,9.7598c-.0298-.0703-.0796-.1396-.1396-.2002-.0503-.0596-.1201-.0996-.2002-.1396-.23-.0898-.5098-.04-.6797.1396-.0601.0605-.1001.1299-.1401.2002-.0303.0801-.04.1602-.04.2402,0,.1699.0601.3301.1802.4395.1196.1201.2798.1904.4399.1904.0796,0,.1597-.0205.2397-.0498.0801-.0303.1499-.0801.2002-.1406.1201-.1094.1899-.2695.1899-.4395,0-.0801-.02-.1602-.0503-.2402Z"/><path class="uuid-1237d834-6d9f-461d-b34a-5cb137738008" d="M15,25.375h-6c-.3452,0-.625.2803-.625.625s.2798.625.625.625h6c.3452,0,.625-.2803.625-.625s-.2798-.625-.625-.625Z"/><path class="uuid-1237d834-6d9f-461d-b34a-5cb137738008" d="M15,17.375h-6c-.3452,0-.625.2803-.625.625s.2798.625.625.625h6c.3452,0,.625-.2803.625-.625s-.2798-.625-.625-.625Z"/><path class="uuid-1237d834-6d9f-461d-b34a-5cb137738008" d="M27.2397,17.4199c-.1499-.0605-.3198-.0605-.48,0-.0698.0303-.1401.0801-.1997.1396-.0601.0605-.1001.1299-.1401.2002-.0303.0801-.0503.1602-.0503.2402s.02.1602.0503.2402c.04.0693.0801.1396.1401.1992.1196.1201.2798.1904.4399.1904.1597,0,.3296-.0703.4399-.1904.0601-.0596.1099-.1201.1396-.1992.0303-.0801.0503-.1602.0503-.2402s-.02-.1602-.0503-.2402c-.0298-.0703-.0796-.1504-.1396-.2002-.0601-.0596-.1201-.1094-.2002-.1396Z"/><path class="uuid-1237d834-6d9f-461d-b34a-5cb137738008" d="M27.5,22.375c-1.5204,0-2.9194.6849-3.875,1.7928v-1.1678c0-.3447-.2798-.625-.625-.625s-.625.2803-.625.625v3c0,.3447.2798.625.625.625h3c.3452,0,.625-.2803.625-.625s-.2798-.625-.625-.625h-1.7278c.7062-1.0695,1.907-1.75,3.2278-1.75,2.1367,0,3.875,1.7383,3.875,3.875s-1.7383,3.875-3.875,3.875c-1.6396,0-3.1084-1.0381-3.6548-2.583-.1152-.3262-.4741-.4971-.7979-.3809-.3252.1143-.4956.4717-.3809.7969.7227,2.0439,2.665,3.417,4.8335,3.417,2.8262,0,5.125-2.2988,5.125-5.125s-2.2988-5.125-5.125-5.125Z"/></svg>