<?xml version="1.0" encoding="UTF-8"?><svg id="a" xmlns="http://www.w3.org/2000/svg" viewBox="0 0 36 36"><title>Barn icon - Black</title>
<desc>farming, agriculture, grow, industry, farmer, horses, cows, hay, buildings and industries</desc>
<metadata><?xpacket begin="﻿" id="W5M0MpCehiHzreSzNTczkc9d"?>
<x:xmpmeta xmlns:x="adobe:ns:meta/" x:xmptk="Adobe XMP Core 8.0-c001 1.000000, 0000/00/00-00:00:00        ">
   <rdf:RDF xmlns:rdf="http://www.w3.org/1999/02/22-rdf-syntax-ns#">
      <rdf:Description rdf:about=""
            xmlns:xmp="http://ns.adobe.com/xap/1.0/"
            xmlns:dc="http://purl.org/dc/elements/1.1/"
            xmlns:cq="http://www.day.com/jcr/cq/1.0"
            xmlns:tiff="http://ns.adobe.com/tiff/1.0/">
         <xmp:rhcc-effective-on>2023-12-08T17:47:21.412Z</xmp:rhcc-effective-on>
         <xmp:rhcc-metadata-complete-moderator>pending</xmp:rhcc-metadata-complete-moderator>
         <xmp:rhcc-translation-id>TRAca2ce36a-383c-46d3-8b28-d55884406ed0</xmp:rhcc-translation-id>
         <xmp:brand-content-type>Icon</xmp:brand-content-type>
         <xmp:CreateDate>2023-12-08T17:47:21.412Z</xmp:CreateDate>
         <xmp:rhcc-effective-on-set-on-upload>true</xmp:rhcc-effective-on-set-on-upload>
         <xmp:rhcc-metadata-complete-uploader>pending</xmp:rhcc-metadata-complete-uploader>
         <xmp:rhcc-file-last-modified>2023-12-08T17:48:03.550Z</xmp:rhcc-file-last-modified>
         <xmp:rhcc-audience>rhcc-audience:internal</xmp:rhcc-audience>
         <xmp:rhcc-rights-restricted>no</xmp:rhcc-rights-restricted>
         <xmp:brand-content-subtype>Icon</xmp:brand-content-subtype>
         <xmp:rhcc-derivative-id>DERca2ce36a-383c-46d3-8b28-d55884406ed0</xmp:rhcc-derivative-id>
         <xmp:brand-logo-color>Black</xmp:brand-logo-color>
         <xmp:rhcc-notify-portal-subscribers-on-change>yes</xmp:rhcc-notify-portal-subscribers-on-change>
         <dc:format>image/svg+xml</dc:format>
         <dc:modified>2024-02-09T20:24:05.808Z</dc:modified>
         <dc:title>
            <rdf:Alt>
               <rdf:li xml:lang="x-default">Barn icon - Black</rdf:li>
            </rdf:Alt>
         </dc:title>
         <dc:description>
            <rdf:Alt>
               <rdf:li xml:lang="x-default">farming, agriculture, grow, industry, farmer, horses, cows, hay, buildings and industries</rdf:li>
            </rdf:Alt>
         </dc:description>
         <cq:lastReplicationAction_scene7>Activate</cq:lastReplicationAction_scene7>
         <cq:lastReplicationAction_publish>Activate</cq:lastReplicationAction_publish>
         <cq:lastReplicated_publish>2024-02-09T22:06:10.288Z</cq:lastReplicated_publish>
         <cq:lastReplicatedBy>workflow-process-service</cq:lastReplicatedBy>
         <cq:lastReplicationAction>Activate</cq:lastReplicationAction>
         <cq:lastReplicatedBy_publish>workflow-process-service</cq:lastReplicatedBy_publish>
         <cq:isDelivered>true</cq:isDelivered>
         <cq:lastReplicated>2024-02-09T22:06:10.288Z</cq:lastReplicated>
         <cq:lastReplicatedBy_scene7>workflow-process-service</cq:lastReplicatedBy_scene7>
         <cq:lastReplicated_scene7>2024-02-09T22:06:10.288Z</cq:lastReplicated_scene7>
         <tiff:ImageLength>36</tiff:ImageLength>
         <tiff:ImageWidth>36</tiff:ImageWidth>
      </rdf:Description>
   </rdf:RDF>
</x:xmpmeta>
                                                                                                    
                                                                                                    
                                                                                                    
                                                                                                    
                                                                                                    
                                                                                                    
                                                                                                    
                                                                                                    
                                                                                                    
                                                                                                    
                                 
<?xpacket end="w"?></metadata>
<path d="m31,30.375h-2.375v-11.375c0-.3447-.2798-.625-.625-.625s-.625.2803-.625.625v11.375h-3.75v-9.375c0-.0816-.0167-.1628-.0484-.2394-.0264-.0635-.0674-.1182-.1122-.1691-.0092-.0105-.0125-.0239-.0225-.0339-.0162-.0162-.0375-.0225-.055-.0366-.0458-.037-.0916-.0745-.1469-.0975-.0776-.0323-.1599-.0489-.2426-.0485h-9.995c-.0827-.0004-.1649.0162-.2425.0485-.0556.0232-.1019.0609-.1479.0983-.0172.0139-.038.0199-.054.0358-.01.01-.0133.0234-.0225.0339-.0447.0509-.0858.1056-.1122.1691-.0317.0765-.0484.1578-.0484.2394v9.375h-3.75v-11.375c0-.3447-.2798-.625-.625-.625s-.625.2803-.625.625v11.375h-2.375c-.3452,0-.625.2803-.625.625s.2798.625.625.625h26c.3452,0,.625-.2803.625-.625s-.2798-.625-.625-.625Zm-13-5.2593l-3.4907-3.4907h6.9814l-3.4907,3.4907Zm4.375-2.6064v6.9814l-3.4907-3.4907,3.4907-3.4907Zm-5.2593,3.4907l-3.4907,3.4907v-6.9814l3.4907,3.4907Zm.8843.8843l3.4907,3.4907h-6.9814l3.4907-3.4907Z"/><path d="m4.8701,20.6113c.0439.0098.0874.0137.1304.0137.2891,0,.5483-.2012.6108-.4951l1.8601-8.7504,10.5286-5.6696,10.5286,5.6696,1.8601,8.7504c.0625.2939.3218.4951.6108.4951.043,0,.0864-.0039.1304-.0137.3379-.0713.5532-.4033.4814-.7412l-1.9204-9.0342c-.0018-.0087-.0079-.015-.0101-.0235-.0109-.0427-.032-.0802-.0516-.1198-.0172-.0348-.0305-.0709-.0532-.1014-.019-.0254-.0453-.0442-.0684-.0667-.0367-.0359-.0722-.071-.1163-.0969-.0059-.0034-.0092-.0094-.0153-.0127l-11.0796-5.9658c-.1855-.0996-.4072-.0996-.5928,0l-11.0796,5.9658c-.0065.0035-.01.0098-.0163.0135-.0429.0251-.0773.0595-.1132.0942-.0239.0231-.051.0424-.0706.0687-.0228.0305-.0359.0665-.0531.1012-.0196.0396-.0408.0771-.0516.1198-.0022.0085-.0083.0148-.0101.0235l-1.9204,9.0342c-.0718.3379.1436.6699.4814.7412Z"/><path d="m16,11.375c-.3452,0-.625.2803-.625.625v4c0,.3447.2798.625.625.625h4c.3452,0,.625-.2803.625-.625v-4c0-.3447-.2798-.625-.625-.625h-4Zm3.375,4h-2.75v-2.75h2.75v2.75Z"/></svg>