<?xml version="1.0" encoding="UTF-8"?><svg id="uuid-99f0b048-726f-4e5e-83f6-cd14d5e24059" xmlns="http://www.w3.org/2000/svg" viewBox="0 0 36 36"><title>Battery icon - Black</title>
<desc>charge, power, electricity, energy, toy, cell, lithium ion, objects</desc>
<metadata><?xpacket begin="﻿" id="W5M0MpCehiHzreSzNTczkc9d"?>
<x:xmpmeta xmlns:x="adobe:ns:meta/" x:xmptk="Adobe XMP Core 8.0-c001 1.000000, 0000/00/00-00:00:00        ">
   <rdf:RDF xmlns:rdf="http://www.w3.org/1999/02/22-rdf-syntax-ns#">
      <rdf:Description rdf:about=""
            xmlns:xmp="http://ns.adobe.com/xap/1.0/"
            xmlns:dc="http://purl.org/dc/elements/1.1/"
            xmlns:cq="http://www.day.com/jcr/cq/1.0"
            xmlns:tiff="http://ns.adobe.com/tiff/1.0/">
         <xmp:rhcc-effective-on>2023-12-08T17:35:23.261Z</xmp:rhcc-effective-on>
         <xmp:rhcc-metadata-complete-moderator>pending</xmp:rhcc-metadata-complete-moderator>
         <xmp:rhcc-translation-id>TRAd183e067-6ac9-4f13-a39a-735b384acd67</xmp:rhcc-translation-id>
         <xmp:brand-content-type>Icon</xmp:brand-content-type>
         <xmp:CreateDate>2023-12-08T17:35:23.261Z</xmp:CreateDate>
         <xmp:rhcc-effective-on-set-on-upload>true</xmp:rhcc-effective-on-set-on-upload>
         <xmp:rhcc-metadata-complete-uploader>pending</xmp:rhcc-metadata-complete-uploader>
         <xmp:rhcc-file-last-modified>2023-12-08T17:35:31.934Z</xmp:rhcc-file-last-modified>
         <xmp:rhcc-audience>rhcc-audience:internal</xmp:rhcc-audience>
         <xmp:rhcc-rights-restricted>no</xmp:rhcc-rights-restricted>
         <xmp:brand-content-subtype>Icon</xmp:brand-content-subtype>
         <xmp:rhcc-derivative-id>DERd183e067-6ac9-4f13-a39a-735b384acd67</xmp:rhcc-derivative-id>
         <xmp:brand-logo-color>Black</xmp:brand-logo-color>
         <xmp:rhcc-notify-portal-subscribers-on-change>yes</xmp:rhcc-notify-portal-subscribers-on-change>
         <dc:format>image/svg+xml</dc:format>
         <dc:modified>2024-02-09T20:29:44.863Z</dc:modified>
         <dc:title>
            <rdf:Alt>
               <rdf:li xml:lang="x-default">Battery icon - Black</rdf:li>
            </rdf:Alt>
         </dc:title>
         <dc:description>
            <rdf:Alt>
               <rdf:li xml:lang="x-default">charge, power, electricity, energy, toy, cell, lithium ion, objects</rdf:li>
            </rdf:Alt>
         </dc:description>
         <cq:lastReplicationAction_scene7>Activate</cq:lastReplicationAction_scene7>
         <cq:lastReplicationAction_publish>Activate</cq:lastReplicationAction_publish>
         <cq:lastReplicated_publish>2024-02-09T22:16:31.955Z</cq:lastReplicated_publish>
         <cq:lastReplicatedBy>workflow-process-service</cq:lastReplicatedBy>
         <cq:lastReplicationAction>Activate</cq:lastReplicationAction>
         <cq:lastReplicatedBy_publish>workflow-process-service</cq:lastReplicatedBy_publish>
         <cq:isDelivered>true</cq:isDelivered>
         <cq:lastReplicated>2024-02-09T22:16:31.955Z</cq:lastReplicated>
         <cq:lastReplicatedBy_scene7>workflow-process-service</cq:lastReplicatedBy_scene7>
         <cq:lastReplicated_scene7>2024-02-09T22:16:31.955Z</cq:lastReplicated_scene7>
         <tiff:ImageLength>36</tiff:ImageLength>
         <tiff:ImageWidth>36</tiff:ImageWidth>
      </rdf:Description>
   </rdf:RDF>
</x:xmpmeta>
                                                                                                    
                                                                                                    
                                                                                                    
                                                                                                    
                                                                                                    
                                                                                                    
                                                                                                    
                                                                                                    
                                                                                                    
                                                                                                    
                                 
<?xpacket end="w"?></metadata>
<path d="m31,14.375h-1.375v-2.375c0-.3447266-.2797852-.625-.625-.625H5c-.3452148,0-.625.2802734-.625.625v12c0,.3447266.2797852.625.625.625h24c.3452148,0,.625-.2802734.625-.625v-2.375h1.375c.3452148,0,.625-.2802734.625-.625v-6c0-.3447266-.2797852-.625-.625-.625Zm-2.625,9H5.625v-10.75h22.75v10.75Zm2-3h-.75v-4.75h.75v4.75Z"/><path d="m25,17.375h-1.375v-1.375c0-.3447266-.2797852-.625-.625-.625s-.625.2802734-.625.625v1.375h-1.375c-.3452148,0-.625.2802734-.625.625s.2797852.625.625.625h1.375v1.375c0,.3447266.2797852.625.625.625s.625-.2802734.625-.625v-1.375h1.375c.3452148,0,.625-.2802734.625-.625s-.2797852-.625-.625-.625Z"/><path d="m13,17.375h-4c-.3452148,0-.625.2802734-.625.625s.2797852.625.625.625h4c.3452148,0,.625-.2802734.625-.625s-.2797852-.625-.625-.625Z"/></svg>