<?xml version="1.0" encoding="UTF-8"?>
<svg id="uuid-58748789-933f-4fc3-8f69-2093c5f63e19" data-name="Icon" xmlns="http://www.w3.org/2000/svg" viewBox="0 0 36 36">
  <title>Bee hive icon - Black</title>
<desc>honey, insect, bug, collaboration, communication, working, together, community, science and nature</desc>
<metadata><?xpacket begin="﻿" id="W5M0MpCehiHzreSzNTczkc9d"?>
<x:xmpmeta xmlns:x="adobe:ns:meta/" x:xmptk="Adobe XMP Core 8.0-c001 1.000000, 0000/00/00-00:00:00        ">
   <rdf:RDF xmlns:rdf="http://www.w3.org/1999/02/22-rdf-syntax-ns#">
      <rdf:Description rdf:about=""
            xmlns:xmp="http://ns.adobe.com/xap/1.0/"
            xmlns:dc="http://purl.org/dc/elements/1.1/"
            xmlns:cq="http://www.day.com/jcr/cq/1.0"
            xmlns:tiff="http://ns.adobe.com/tiff/1.0/">
         <xmp:rhcc-effective-on>2023-12-08T17:40:58.138Z</xmp:rhcc-effective-on>
         <xmp:rhcc-metadata-complete-moderator>pending</xmp:rhcc-metadata-complete-moderator>
         <xmp:rhcc-translation-id>TRAbd7657cf-5ac2-4ff8-993e-a23debc33682</xmp:rhcc-translation-id>
         <xmp:brand-content-type>Icon</xmp:brand-content-type>
         <xmp:CreateDate>2023-12-08T17:40:58.138Z</xmp:CreateDate>
         <xmp:rhcc-effective-on-set-on-upload>true</xmp:rhcc-effective-on-set-on-upload>
         <xmp:rhcc-metadata-complete-uploader>pending</xmp:rhcc-metadata-complete-uploader>
         <xmp:rhcc-file-last-modified>2023-12-08T17:42:23.692Z</xmp:rhcc-file-last-modified>
         <xmp:rhcc-audience>rhcc-audience:internal</xmp:rhcc-audience>
         <xmp:rhcc-rights-restricted>no</xmp:rhcc-rights-restricted>
         <xmp:brand-content-subtype>Icon</xmp:brand-content-subtype>
         <xmp:rhcc-derivative-id>DERbd7657cf-5ac2-4ff8-993e-a23debc33682</xmp:rhcc-derivative-id>
         <xmp:brand-logo-color>Black</xmp:brand-logo-color>
         <xmp:rhcc-notify-portal-subscribers-on-change>yes</xmp:rhcc-notify-portal-subscribers-on-change>
         <dc:format>image/svg+xml</dc:format>
         <dc:modified>2024-02-09T20:25:58.665Z</dc:modified>
         <dc:title>
            <rdf:Alt>
               <rdf:li xml:lang="x-default">Bee hive icon - Black</rdf:li>
            </rdf:Alt>
         </dc:title>
         <dc:description>
            <rdf:Alt>
               <rdf:li xml:lang="x-default">honey, insect, bug, collaboration, communication, working, together, community, science and nature</rdf:li>
            </rdf:Alt>
         </dc:description>
         <cq:lastReplicationAction_scene7>Activate</cq:lastReplicationAction_scene7>
         <cq:lastReplicationAction_publish>Activate</cq:lastReplicationAction_publish>
         <cq:lastReplicated_publish>2024-02-09T22:10:27.028Z</cq:lastReplicated_publish>
         <cq:lastReplicatedBy>workflow-process-service</cq:lastReplicatedBy>
         <cq:lastReplicationAction>Activate</cq:lastReplicationAction>
         <cq:lastReplicatedBy_publish>workflow-process-service</cq:lastReplicatedBy_publish>
         <cq:isDelivered>true</cq:isDelivered>
         <cq:lastReplicated>2024-02-09T22:10:27.028Z</cq:lastReplicated>
         <cq:lastReplicatedBy_scene7>workflow-process-service</cq:lastReplicatedBy_scene7>
         <cq:lastReplicated_scene7>2024-02-09T22:10:27.028Z</cq:lastReplicated_scene7>
         <tiff:ImageLength>36</tiff:ImageLength>
         <tiff:ImageWidth>36</tiff:ImageWidth>
      </rdf:Description>
   </rdf:RDF>
</x:xmpmeta>
                                                                                                    
                                                                                                    
                                                                                                    
                                                                                                    
                                                                                                    
                                                                                                    
                                                                                                    
                                                                                                    
                                                                                                    
                                                                                                    
                                 
<?xpacket end="w"?></metadata>
<path d="m28.62,25c0-.81-.36-1.52-.93-2,.57-.48.93-1.19.93-2,0-1.38-1.06-2.51-2.41-2.61.26-.4.41-.88.41-1.39,0-1.38-1.06-2.51-2.41-2.61.26-.4.41-.88.41-1.39,0-1.45-1.17-2.62-2.62-2.62h-3.38v-2.76h12.38c.34,0,.62-.28.62-.62s-.28-.62-.62-.62h-4.74l-1.82-1.82c-.24-.24-.64-.24-.88,0-.24.24-.24.64,0,.88l.93.93H5c-.34,0-.62.28-.62.62s.28.62.62.62h3.49l-.93.93c-.24.24-.24.64,0,.88.12.12.28.18.44.18s.32-.06.44-.18l1.82-1.82h7.12v2.76h-3.38c-1.45,0-2.62,1.17-2.62,2.62,0,.51.15.99.41,1.39-1.35.1-2.41,1.23-2.41,2.61,0,.51.15.99.41,1.39-1.35.1-2.41,1.23-2.41,2.61,0,.81.36,1.52.93,2-.57.48-.93,1.19-.93,2,0,1.38,1.06,2.51,2.41,2.61-.26.4-.41.88-.41,1.39,0,1.45,1.17,2.62,2.62,2.62h12c1.45,0,2.62-1.17,2.62-2.62,0-.51-.15-.99-.41-1.39,1.35-.1,2.41-1.23,2.41-2.61Zm-1.24-4c0,.76-.62,1.38-1.38,1.38h-3.42c-.15-1.09-.67-2.05-1.43-2.76h4.85c.76,0,1.38.62,1.38,1.38Zm-6,2c0,.21-.02.42-.06.62-.29,1.57-1.67,2.76-3.32,2.76s-3.03-1.19-3.32-2.76c-.04-.2-.06-.41-.06-.62s.02-.42.06-.62c.29-1.57,1.67-2.76,3.32-2.76s3.03,1.19,3.32,2.76c.04.2.06.41.06.62Zm-7.38-11.38h3.98s.02,0,.02,0,.02,0,.02,0h3.98c.76,0,1.38.62,1.38,1.38s-.62,1.38-1.38,1.38h-8c-.76,0-1.38-.62-1.38-1.38s.62-1.38,1.38-1.38Zm-2,4h12c.76,0,1.38.62,1.38,1.38s-.62,1.38-1.38,1.38h-12c-.76,0-1.38-.62-1.38-1.38s.62-1.38,1.38-1.38Zm-3.38,5.38c0-.76.62-1.38,1.38-1.38h4.85c-.76.71-1.28,1.67-1.43,2.76h-3.42c-.76,0-1.38-.62-1.38-1.38Zm0,4c0-.76.62-1.38,1.38-1.38h3.42c.15,1.09.67,2.05,1.43,2.76h-4.85c-.76,0-1.38-.62-1.38-1.38Zm15.38,5.38h-12c-.76,0-1.38-.62-1.38-1.38s.62-1.38,1.38-1.38h12c.76,0,1.38.62,1.38,1.38s-.62,1.38-1.38,1.38Zm2-4h-4.85c.76-.71,1.28-1.67,1.43-2.76h3.42c.76,0,1.38.62,1.38,1.38s-.62,1.38-1.38,1.38Z"/>
  <path d="m8,12.62c.35,0,.62-.27.62-.62s-.27-.62-.62-.62-.62.27-.62.62.27.62.62.62Z"/>
  <path d="m6,15.63c.35,0,.62-.27.62-.62s-.27-.62-.62-.62-.62.27-.62.62.27.62.62.62Z"/>
  <path d="m30,24.62c.35,0,.62-.27.62-.62s-.27-.62-.62-.62-.62.27-.62.62.27.62.62.62Z"/>
  <path d="m29.01,28.62c.35,0,.62-.27.62-.62s-.27-.62-.62-.62-.62.27-.62.62.27.62.62.62Z"/>
  <path d="m31,31.63c.35,0,.62-.27.62-.62s-.27-.62-.62-.62-.62.27-.62.62.27.62.62.62Z"/>
</svg>