<svg id="bd98f89f-682f-485b-be9c-b513f36f7418" data-name="Icon" xmlns="http://www.w3.org/2000/svg" viewBox="0 0 36 36">
  <title>Binoculars icon - Black</title>
<desc>look, view, zoom, watch, hunt, observe, see, spy, focus, eyes, objects</desc>
<metadata><?xpacket begin="﻿" id="W5M0MpCehiHzreSzNTczkc9d"?>
<x:xmpmeta xmlns:x="adobe:ns:meta/" x:xmptk="Adobe XMP Core 8.0-c001 1.000000, 0000/00/00-00:00:00        ">
   <rdf:RDF xmlns:rdf="http://www.w3.org/1999/02/22-rdf-syntax-ns#">
      <rdf:Description rdf:about=""
            xmlns:xmp="http://ns.adobe.com/xap/1.0/"
            xmlns:dc="http://purl.org/dc/elements/1.1/"
            xmlns:cq="http://www.day.com/jcr/cq/1.0"
            xmlns:tiff="http://ns.adobe.com/tiff/1.0/">
         <xmp:rhcc-effective-on>2023-12-08T17:35:24.061Z</xmp:rhcc-effective-on>
         <xmp:rhcc-metadata-complete-moderator>pending</xmp:rhcc-metadata-complete-moderator>
         <xmp:rhcc-translation-id>TRAd8a51f99-a4b8-44a8-8b65-1d16eba81164</xmp:rhcc-translation-id>
         <xmp:brand-content-type>Icon</xmp:brand-content-type>
         <xmp:CreateDate>2023-12-08T17:35:24.061Z</xmp:CreateDate>
         <xmp:rhcc-effective-on-set-on-upload>true</xmp:rhcc-effective-on-set-on-upload>
         <xmp:rhcc-metadata-complete-uploader>pending</xmp:rhcc-metadata-complete-uploader>
         <xmp:rhcc-file-last-modified>2023-12-08T17:35:31.910Z</xmp:rhcc-file-last-modified>
         <xmp:rhcc-audience>rhcc-audience:internal</xmp:rhcc-audience>
         <xmp:rhcc-rights-restricted>no</xmp:rhcc-rights-restricted>
         <xmp:brand-content-subtype>Icon</xmp:brand-content-subtype>
         <xmp:rhcc-derivative-id>DERd8a51f99-a4b8-44a8-8b65-1d16eba81164</xmp:rhcc-derivative-id>
         <xmp:brand-logo-color>Black</xmp:brand-logo-color>
         <xmp:rhcc-notify-portal-subscribers-on-change>yes</xmp:rhcc-notify-portal-subscribers-on-change>
         <dc:format>image/svg+xml</dc:format>
         <dc:modified>2024-02-09T20:29:45.329Z</dc:modified>
         <dc:title>
            <rdf:Alt>
               <rdf:li xml:lang="x-default">Binoculars icon - Black</rdf:li>
            </rdf:Alt>
         </dc:title>
         <dc:description>
            <rdf:Alt>
               <rdf:li xml:lang="x-default">look, view, zoom, watch, hunt, observe, see, spy, focus, eyes, objects</rdf:li>
            </rdf:Alt>
         </dc:description>
         <cq:lastReplicationAction_scene7>Activate</cq:lastReplicationAction_scene7>
         <cq:lastReplicationAction_publish>Activate</cq:lastReplicationAction_publish>
         <cq:lastReplicated_publish>2024-02-09T22:16:33.625Z</cq:lastReplicated_publish>
         <cq:lastReplicatedBy>workflow-process-service</cq:lastReplicatedBy>
         <cq:lastReplicationAction>Activate</cq:lastReplicationAction>
         <cq:lastReplicatedBy_publish>workflow-process-service</cq:lastReplicatedBy_publish>
         <cq:isDelivered>true</cq:isDelivered>
         <cq:lastReplicated>2024-02-09T22:16:33.625Z</cq:lastReplicated>
         <cq:lastReplicatedBy_scene7>workflow-process-service</cq:lastReplicatedBy_scene7>
         <cq:lastReplicated_scene7>2024-02-09T22:16:33.625Z</cq:lastReplicated_scene7>
         <tiff:ImageLength>36</tiff:ImageLength>
         <tiff:ImageWidth>36</tiff:ImageWidth>
      </rdf:Description>
   </rdf:RDF>
</x:xmpmeta>
                                                                                                    
                                                                                                    
                                                                                                    
                                                                                                    
                                                                                                    
                                                                                                    
                                                                                                    
                                                                                                    
                                                                                                    
                                                                                                    
                                 
<?xpacket end="w"?></metadata>
<g>
    <path d="M26,13.38A5.62,5.62,0,1,0,31.62,19,5.62,5.62,0,0,0,26,13.38Zm0,10A4.38,4.38,0,1,1,30.38,19,4.39,4.39,0,0,1,26,23.38Z"/>
    <path d="M10,13.38A5.62,5.62,0,1,0,15.62,19,5.62,5.62,0,0,0,10,13.38Zm0,10A4.38,4.38,0,1,1,14.38,19,4.39,4.39,0,0,1,10,23.38Z"/>
    <path d="M20,21.38H16a.62.62,0,1,0,0,1.24h4a.62.62,0,0,0,0-1.24Z"/>
    <path d="M13,13.62h3a.62.62,0,0,0,.62-.62,1.38,1.38,0,1,1,2.76,0,.62.62,0,0,0,.62.62h3a.62.62,0,1,0,0-1.24H20.55a2.63,2.63,0,0,0-5.1,0H13a.62.62,0,0,0,0,1.24Z"/>
    <path d="M10,15.38A3.62,3.62,0,0,0,6.38,19a.62.62,0,0,0,1.24,0A2.39,2.39,0,0,1,10,16.62a.62.62,0,0,0,0-1.24Z"/>
    <path d="M26,15.38A3.62,3.62,0,0,0,22.38,19a.62.62,0,0,0,1.24,0A2.39,2.39,0,0,1,26,16.62a.62.62,0,1,0,0-1.24Z"/>
  </g>
</svg>
