<svg id="ed7a0e96-347d-4329-85e9-3f6bcfa8b858" data-name="Icon" xmlns="http://www.w3.org/2000/svg" viewBox="0 0 36 36">
  <title>Bird icon - Black</title>
<desc>fly, animal, wing, birb, beak, nest, migrate, science and nature</desc>
<metadata><?xpacket begin="﻿" id="W5M0MpCehiHzreSzNTczkc9d"?>
<x:xmpmeta xmlns:x="adobe:ns:meta/" x:xmptk="Adobe XMP Core 8.0-c001 1.000000, 0000/00/00-00:00:00        ">
   <rdf:RDF xmlns:rdf="http://www.w3.org/1999/02/22-rdf-syntax-ns#">
      <rdf:Description rdf:about=""
            xmlns:xmp="http://ns.adobe.com/xap/1.0/"
            xmlns:dc="http://purl.org/dc/elements/1.1/"
            xmlns:cq="http://www.day.com/jcr/cq/1.0"
            xmlns:tiff="http://ns.adobe.com/tiff/1.0/">
         <xmp:rhcc-effective-on>2023-12-08T17:40:56.551Z</xmp:rhcc-effective-on>
         <xmp:rhcc-metadata-complete-moderator>pending</xmp:rhcc-metadata-complete-moderator>
         <xmp:rhcc-translation-id>TRAe83aa71f-3222-4ae3-9092-bb3fbdc489bc</xmp:rhcc-translation-id>
         <xmp:brand-content-type>Icon</xmp:brand-content-type>
         <xmp:CreateDate>2023-12-08T17:40:56.551Z</xmp:CreateDate>
         <xmp:rhcc-effective-on-set-on-upload>true</xmp:rhcc-effective-on-set-on-upload>
         <xmp:rhcc-metadata-complete-uploader>pending</xmp:rhcc-metadata-complete-uploader>
         <xmp:rhcc-file-last-modified>2023-12-08T17:42:21.200Z</xmp:rhcc-file-last-modified>
         <xmp:rhcc-audience>rhcc-audience:internal</xmp:rhcc-audience>
         <xmp:rhcc-rights-restricted>no</xmp:rhcc-rights-restricted>
         <xmp:brand-content-subtype>Icon</xmp:brand-content-subtype>
         <xmp:rhcc-derivative-id>DERe83aa71f-3222-4ae3-9092-bb3fbdc489bc</xmp:rhcc-derivative-id>
         <xmp:brand-logo-color>Black</xmp:brand-logo-color>
         <xmp:rhcc-notify-portal-subscribers-on-change>yes</xmp:rhcc-notify-portal-subscribers-on-change>
         <dc:format>image/svg+xml</dc:format>
         <dc:modified>2024-02-09T20:25:51.959Z</dc:modified>
         <dc:title>
            <rdf:Alt>
               <rdf:li xml:lang="x-default">Bird icon - Black</rdf:li>
            </rdf:Alt>
         </dc:title>
         <dc:description>
            <rdf:Alt>
               <rdf:li xml:lang="x-default">fly, animal, wing, birb, beak, nest, migrate, science and nature</rdf:li>
            </rdf:Alt>
         </dc:description>
         <cq:lastReplicationAction_scene7>Activate</cq:lastReplicationAction_scene7>
         <cq:lastReplicationAction_publish>Activate</cq:lastReplicationAction_publish>
         <cq:lastReplicated_publish>2024-02-09T22:10:11.686Z</cq:lastReplicated_publish>
         <cq:lastReplicatedBy>workflow-process-service</cq:lastReplicatedBy>
         <cq:lastReplicationAction>Activate</cq:lastReplicationAction>
         <cq:lastReplicatedBy_publish>workflow-process-service</cq:lastReplicatedBy_publish>
         <cq:isDelivered>true</cq:isDelivered>
         <cq:lastReplicated>2024-02-09T22:10:11.686Z</cq:lastReplicated>
         <cq:lastReplicatedBy_scene7>workflow-process-service</cq:lastReplicatedBy_scene7>
         <cq:lastReplicated_scene7>2024-02-09T22:10:11.686Z</cq:lastReplicated_scene7>
         <tiff:ImageLength>36</tiff:ImageLength>
         <tiff:ImageWidth>36</tiff:ImageWidth>
      </rdf:Description>
   </rdf:RDF>
</x:xmpmeta>
                                                                                                    
                                                                                                    
                                                                                                    
                                                                                                    
                                                                                                    
                                                                                                    
                                                                                                    
                                                                                                    
                                                                                                    
                                                                                                    
                                 
<?xpacket end="w"?></metadata>
<g>
    <path d="M26.24,15.42A.63.63,0,1,0,26,16.63.63.63,0,0,0,26.24,15.42Z"/>
    <path d="M30.49,15.43a7,7,0,0,0-10.4-3.22L14.44,6.56a.62.62,0,0,0-.88.88L19.12,13l-.06.06L18,14.12C15.82,12,11.22,7.33,9.08,5.19a.64.64,0,0,0-.89,0C3.36,9.73,5.1,18.48,11.25,20.87L3.56,28.56a.63.63,0,0,0,0,.88,6.26,6.26,0,0,0,8.51.31,13.31,13.31,0,0,0,13.37-3.31c1.8-1.94,5.24-4.47,5.46-7.34a.67.67,0,0,0-.52-.72s-1.35,0-1.38,0a.63.63,0,0,0,0,1.25h.49c-.37,2-3.67,4.53-4.93,5.94A12.12,12.12,0,0,1,7.9,26l4.67-4.68c.88.27,5.26.81,5-.67a.62.62,0,0,0-.75-.47A8.44,8.44,0,0,1,12.62,20a7.39,7.39,0,0,1-.26-9.78l5.2,5.19,4,4a.62.62,0,0,0,.88-.88L18.88,15l1.06-1.06a5.86,5.86,0,0,1,9.69,2.52.65.65,0,0,0,.4.16A1.4,1.4,0,0,1,31.38,18a.62.62,0,0,0,1.24,0A2.63,2.63,0,0,0,30.49,15.43ZM10.69,29.24A5.06,5.06,0,0,1,4.91,29L7,26.86A13.2,13.2,0,0,0,10.69,29.24ZM9.38,15a8.66,8.66,0,0,0,.94,3.93A8.39,8.39,0,0,1,8.66,6.54l2.82,2.82A8.57,8.57,0,0,0,9.38,15Z"/>
  </g>
</svg>
