<?xml version="1.0" encoding="UTF-8"?><svg id="Icon" xmlns="http://www.w3.org/2000/svg" viewBox="0 0 36 36"><title>Plastic bottle icon - Black</title>
<desc>recyclable, drink, sustainable, plastic, soda, water, beverage, food and drink</desc>
<metadata><?xpacket begin="﻿" id="W5M0MpCehiHzreSzNTczkc9d"?>
<x:xmpmeta xmlns:x="adobe:ns:meta/" x:xmptk="Adobe XMP Core 8.0-c001 1.000000, 0000/00/00-00:00:00        ">
   <rdf:RDF xmlns:rdf="http://www.w3.org/1999/02/22-rdf-syntax-ns#">
      <rdf:Description rdf:about=""
            xmlns:xmp="http://ns.adobe.com/xap/1.0/"
            xmlns:dc="http://purl.org/dc/elements/1.1/"
            xmlns:cq="http://www.day.com/jcr/cq/1.0"
            xmlns:tiff="http://ns.adobe.com/tiff/1.0/">
         <xmp:rhcc-effective-on>2023-12-08T17:45:21.823Z</xmp:rhcc-effective-on>
         <xmp:rhcc-metadata-complete-moderator>pending</xmp:rhcc-metadata-complete-moderator>
         <xmp:rhcc-translation-id>TRAbc4e25f9-e301-48ac-97a7-eb7d60ee0460</xmp:rhcc-translation-id>
         <xmp:brand-content-type>Icon</xmp:brand-content-type>
         <xmp:CreateDate>2023-12-08T17:45:21.823Z</xmp:CreateDate>
         <xmp:rhcc-effective-on-set-on-upload>true</xmp:rhcc-effective-on-set-on-upload>
         <xmp:rhcc-metadata-complete-uploader>pending</xmp:rhcc-metadata-complete-uploader>
         <xmp:rhcc-file-last-modified>2023-12-08T17:45:38.883Z</xmp:rhcc-file-last-modified>
         <xmp:rhcc-audience>rhcc-audience:internal</xmp:rhcc-audience>
         <xmp:rhcc-rights-restricted>no</xmp:rhcc-rights-restricted>
         <xmp:brand-content-subtype>Icon</xmp:brand-content-subtype>
         <xmp:rhcc-derivative-id>DERbc4e25f9-e301-48ac-97a7-eb7d60ee0460</xmp:rhcc-derivative-id>
         <xmp:brand-logo-color>Black</xmp:brand-logo-color>
         <xmp:rhcc-notify-portal-subscribers-on-change>yes</xmp:rhcc-notify-portal-subscribers-on-change>
         <dc:format>image/svg+xml</dc:format>
         <dc:modified>2024-02-09T20:36:14.928Z</dc:modified>
         <dc:title>
            <rdf:Alt>
               <rdf:li xml:lang="x-default">Plastic bottle icon - Black</rdf:li>
            </rdf:Alt>
         </dc:title>
         <dc:description>
            <rdf:Alt>
               <rdf:li xml:lang="x-default">recyclable, drink, sustainable, plastic, soda, water, beverage, food and drink</rdf:li>
            </rdf:Alt>
         </dc:description>
         <cq:lastReplicationAction_scene7>Activate</cq:lastReplicationAction_scene7>
         <cq:lastReplicationAction_publish>Activate</cq:lastReplicationAction_publish>
         <cq:lastReplicated_publish>2024-02-09T22:23:48.728Z</cq:lastReplicated_publish>
         <cq:lastReplicatedBy>workflow-process-service</cq:lastReplicatedBy>
         <cq:lastReplicationAction>Activate</cq:lastReplicationAction>
         <cq:lastReplicatedBy_publish>workflow-process-service</cq:lastReplicatedBy_publish>
         <cq:isDelivered>true</cq:isDelivered>
         <cq:lastReplicated>2024-02-09T22:23:48.728Z</cq:lastReplicated>
         <cq:lastReplicatedBy_scene7>workflow-process-service</cq:lastReplicatedBy_scene7>
         <cq:lastReplicated_scene7>2024-02-09T22:23:48.728Z</cq:lastReplicated_scene7>
         <tiff:ImageLength>36</tiff:ImageLength>
         <tiff:ImageWidth>36</tiff:ImageWidth>
      </rdf:Description>
   </rdf:RDF>
</x:xmpmeta>
                                                                                                    
                                                                                                    
                                                                                                    
                                                                                                    
                                                                                                    
                                                                                                    
                                                                                                    
                                                                                                    
                                                                                                    
                                                                                                    
                                 
<?xpacket end="w"?></metadata>
<path d="M24.62,15v-2c0-2.55-2.07-4.62-4.62-4.62h-4c-2.55,0-4.62,2.08-4.62,4.62v2c0,1.23,.85,2.26,2,2.54v1.92c-1.15,.28-2,1.31-2,2.54v7c0,1.45,1.18,2.62,2.62,2.62h8c1.45,0,2.62-1.18,2.62-2.62v-7c0-1.23-.85-2.26-2-2.54v-1.92c1.15-.28,2-1.31,2-2.54Zm-12,0v-2c0-1.86,1.51-3.38,3.38-3.38h4c1.86,0,3.38,1.51,3.38,3.38v2c0,.76-.62,1.38-1.38,1.38H14c-.76,0-1.38-.62-1.38-1.38Zm2,4.38v-1.75h6.75v1.75h-6.75Zm8.75,2.62v7c0,.76-.62,1.38-1.38,1.38H14c-.76,0-1.38-.62-1.38-1.38v-7c0-.76,.62-1.38,1.38-1.38h8c.76,0,1.38,.62,1.38,1.38Z"/><path d="M15,7.62h6c.35,0,.62-.28,.62-.62v-2c0-.34-.28-.62-.62-.62h-6c-.35,0-.62,.28-.62,.62v2c0,.34,.28,.62,.62,.62Zm.62-2h4.75v.75h-4.75v-.75Z"/><path d="M21,23.38h-6c-.82,0-.82,1.25,0,1.25h6c.82,0,.82-1.25,0-1.25Z"/><path d="M21,26.38h-6c-.82,0-.82,1.25,0,1.25h6c.82,0,.82-1.25,0-1.25Z"/></svg>