<?xml version="1.0" encoding="UTF-8"?>
<svg id="uuid-80c2d3cc-4342-475e-8516-d0210b949722" data-name="Icon" xmlns="http://www.w3.org/2000/svg" viewBox="0 0 36 36">
  <metadata><?xpacket begin="﻿" id="W5M0MpCehiHzreSzNTczkc9d"?>
<x:xmpmeta xmlns:x="adobe:ns:meta/" x:xmptk="Adobe XMP Core 8.0-c001 1.000000, 0000/00/00-00:00:00        ">
   <rdf:RDF xmlns:rdf="http://www.w3.org/1999/02/22-rdf-syntax-ns#">
      <rdf:Description rdf:about=""
            xmlns:xmp="http://ns.adobe.com/xap/1.0/"
            xmlns:dc="http://purl.org/dc/elements/1.1/"
            xmlns:cq="http://www.day.com/jcr/cq/1.0"
            xmlns:tiff="http://ns.adobe.com/tiff/1.0/">
         <xmp:rhcc-effective-on>2023-12-08T17:35:24.905Z</xmp:rhcc-effective-on>
         <xmp:rhcc-metadata-complete-moderator>pending</xmp:rhcc-metadata-complete-moderator>
         <xmp:rhcc-translation-id>TRA53ab4271-f6e7-4257-9335-41a69fb1a196</xmp:rhcc-translation-id>
         <xmp:CreateDate>2023-12-08T17:35:24.905Z</xmp:CreateDate>
         <xmp:rhcc-effective-on-set-on-upload>true</xmp:rhcc-effective-on-set-on-upload>
         <xmp:rhcc-metadata-complete-uploader>pending</xmp:rhcc-metadata-complete-uploader>
         <xmp:rhcc-file-last-modified>2023-12-08T17:36:32.293Z</xmp:rhcc-file-last-modified>
         <xmp:rhcc-audience>rhcc-audience:internal</xmp:rhcc-audience>
         <xmp:rhcc-rights-restricted>no</xmp:rhcc-rights-restricted>
         <xmp:rhcc-derivative-id>DER53ab4271-f6e7-4257-9335-41a69fb1a196</xmp:rhcc-derivative-id>
         <xmp:rhcc-notify-portal-subscribers-on-change>yes</xmp:rhcc-notify-portal-subscribers-on-change>
         <dc:format>image/svg+xml</dc:format>
         <dc:modified>2024-02-09T20:29:43.378Z</dc:modified>
         <cq:lastReplicationAction_scene7>Activate</cq:lastReplicationAction_scene7>
         <cq:lastReplicationAction_publish>Activate</cq:lastReplicationAction_publish>
         <cq:lastReplicated_publish>2024-02-09T22:16:28.854Z</cq:lastReplicated_publish>
         <cq:lastReplicatedBy>workflow-process-service</cq:lastReplicatedBy>
         <cq:lastReplicationAction>Activate</cq:lastReplicationAction>
         <cq:lastReplicatedBy_publish>workflow-process-service</cq:lastReplicatedBy_publish>
         <cq:isDelivered>true</cq:isDelivered>
         <cq:lastReplicated>2024-02-09T22:16:28.854Z</cq:lastReplicated>
         <cq:lastReplicatedBy_scene7>workflow-process-service</cq:lastReplicatedBy_scene7>
         <cq:lastReplicated_scene7>2024-02-09T22:16:28.854Z</cq:lastReplicated_scene7>
         <tiff:ImageLength>36</tiff:ImageLength>
         <tiff:ImageWidth>36</tiff:ImageWidth>
      </rdf:Description>
   </rdf:RDF>
</x:xmpmeta>
                                                                                                    
                                                                                                    
                                                                                                    
                                                                                                    
                                                                                                    
                                                                                                    
                                                                                                    
                                                                                                    
                                                                                                    
                                                                                                    
                                 
<?xpacket end="w"?></metadata>
<path d="M26,4.38H11.5c-2.27,0-4.12,1.85-4.12,4.12,0,1.47,.78,2.77,1.94,3.5-1.17,.73-1.94,2.03-1.94,3.5v6c0,2.23,1.78,4.04,4,4.11v5.39c0,.34,.28,.62,.62,.62h13c.35,0,.62-.28,.62-.62v-5.55c1.73-.49,3-2.07,3-3.95V7c0-1.45-1.18-2.62-2.62-2.62Zm-1.62,23H12.62v-1.75h11.75v1.75Zm0,3H12.62v-1.75h11.75v1.75Zm3-8.88c0,1.58-1.29,2.88-2.88,2.88H11.5c-1.59,0-2.88-1.29-2.88-2.88v-6c0-1.58,1.29-2.88,2.88-2.88h6c1.59,0,2.88,1.29,2.88,2.88s-1.29,2.88-2.88,2.88h-4.5c-.35,0-.62,.28-.62,.62s.28,.62,.62,.62h4.5c2.27,0,4.12-1.85,4.12-4.12,0-1.12-.45-2.13-1.17-2.88h1.04c2.27,0,4.12-1.85,4.12-4.12,0-.34-.28-.62-.62-.62s-.62,.28-.62,.62c0,1.58-1.29,2.88-2.88,2.88H11.5c-1.59,0-2.88-1.29-2.88-2.88s1.29-2.88,2.88-2.88h14.5c.76,0,1.38,.62,1.38,1.38v14.5Z"/>
</svg>