<?xml version="1.0" encoding="UTF-8"?><svg id="uuid-5300eb27-0db4-40f4-b403-026afe7f86ff" xmlns="http://www.w3.org/2000/svg" width="36" height="36" viewBox="0 0 36 36"><metadata><?xpacket begin="﻿" id="W5M0MpCehiHzreSzNTczkc9d"?>
<x:xmpmeta xmlns:x="adobe:ns:meta/" x:xmptk="Adobe XMP Core 8.0-c001 1.000000, 0000/00/00-00:00:00        ">
   <rdf:RDF xmlns:rdf="http://www.w3.org/1999/02/22-rdf-syntax-ns#">
      <rdf:Description rdf:about=""
            xmlns:xmp="http://ns.adobe.com/xap/1.0/"
            xmlns:dc="http://purl.org/dc/elements/1.1/"
            xmlns:cq="http://www.day.com/jcr/cq/1.0"
            xmlns:tiff="http://ns.adobe.com/tiff/1.0/">
         <xmp:rhcc-effective-on>2023-12-08T17:44:43.793Z</xmp:rhcc-effective-on>
         <xmp:rhcc-metadata-complete-moderator>pending</xmp:rhcc-metadata-complete-moderator>
         <xmp:rhcc-translation-id>TRAae45740b-a5f0-47ec-9825-65e7510ab649</xmp:rhcc-translation-id>
         <xmp:CreateDate>2023-12-08T17:44:43.793Z</xmp:CreateDate>
         <xmp:rhcc-effective-on-set-on-upload>true</xmp:rhcc-effective-on-set-on-upload>
         <xmp:rhcc-metadata-complete-uploader>pending</xmp:rhcc-metadata-complete-uploader>
         <xmp:rhcc-file-last-modified>2023-12-08T17:45:17.793Z</xmp:rhcc-file-last-modified>
         <xmp:rhcc-audience>rhcc-audience:internal</xmp:rhcc-audience>
         <xmp:rhcc-rights-restricted>no</xmp:rhcc-rights-restricted>
         <xmp:rhcc-derivative-id>DERae45740b-a5f0-47ec-9825-65e7510ab649</xmp:rhcc-derivative-id>
         <xmp:rhcc-notify-portal-subscribers-on-change>yes</xmp:rhcc-notify-portal-subscribers-on-change>
         <dc:format>image/svg+xml</dc:format>
         <dc:modified>2024-02-09T20:36:57.903Z</dc:modified>
         <cq:lastReplicationAction_scene7>Activate</cq:lastReplicationAction_scene7>
         <cq:lastReplicationAction_publish>Activate</cq:lastReplicationAction_publish>
         <cq:lastReplicated_publish>2024-02-09T22:24:31.505Z</cq:lastReplicated_publish>
         <cq:lastReplicatedBy>workflow-process-service</cq:lastReplicatedBy>
         <cq:lastReplicationAction>Activate</cq:lastReplicationAction>
         <cq:lastReplicatedBy_publish>workflow-process-service</cq:lastReplicatedBy_publish>
         <cq:isDelivered>true</cq:isDelivered>
         <cq:lastReplicated>2024-02-09T22:24:31.505Z</cq:lastReplicated>
         <cq:lastReplicatedBy_scene7>workflow-process-service</cq:lastReplicatedBy_scene7>
         <cq:lastReplicated_scene7>2024-02-09T22:24:31.505Z</cq:lastReplicated_scene7>
         <tiff:ImageLength>36</tiff:ImageLength>
         <tiff:ImageWidth>36</tiff:ImageWidth>
      </rdf:Description>
   </rdf:RDF>
</x:xmpmeta>
                                                                                                    
                                                                                                    
                                                                                                    
                                                                                                    
                                                                                                    
                                                                                                    
                                                                                                    
                                                                                                    
                                                                                                    
                                                                                                    
                                 
<?xpacket end="w"?></metadata>
<path d="m25,27.375h-12.77454c.24866-.40106.39905-.86945.39905-1.375v-5.375h9.37549c.34521,0,.625-.28027.625-.625s-.27979-.625-.625-.625h-9.37549v-1.10449c0-3.58203,2.79053-6.5625,6.22021-6.64355,2.26709-.04199,4.43994,1.12891,5.62012,3.08789.17871.29688.5625.3916.85791.21289.29541-.17773.39062-.56152.2124-.85742-1.41064-2.3418-4.00146-3.74219-6.71973-3.69336-.06427.00153-.12653.01129-.19043.01447v-3.88245l.93311.93341c.12207.12207.28174.18262.44189.18262s.31982-.06055.44189-.18262c.24414-.24414.24414-.64062,0-.88477l-2-2c-.24414-.24414-.63965-.24414-.88379,0l-2,2c-.24414.24414-.24414.64062,0,.88477s.63965.24414.88379,0l.93311-.93341v4.04993c-3.41559.77863-6.00049,3.9671-6.00049,7.71161v1.10449h-1.37451c-.34521,0-.625.28027-.625.625s.27979.625.625.625h1.37451v5.375c0,.75781-.6167,1.375-1.37451,1.375-.34521,0-.625.28027-.625.625s.27979.625.625.625h7.375v2.375c0,.34473.27979.625.625.625s.625-.28027.625-.625v-2.375h6.375c.34521,0,.625-.28027.625-.625s-.27979-.625-.625-.625Z" stroke-width="0"/></svg>