<?xml version="1.0" encoding="UTF-8"?><svg id="uuid-f1209c94-51e7-4377-a52c-2206e7b6de9d" xmlns="http://www.w3.org/2000/svg" width="36" height="36" viewBox="0 0 36 36"><metadata><?xpacket begin="﻿" id="W5M0MpCehiHzreSzNTczkc9d"?>
<x:xmpmeta xmlns:x="adobe:ns:meta/" x:xmptk="Adobe XMP Core 8.0-c001 1.000000, 0000/00/00-00:00:00        ">
   <rdf:RDF xmlns:rdf="http://www.w3.org/1999/02/22-rdf-syntax-ns#">
      <rdf:Description rdf:about=""
            xmlns:xmp="http://ns.adobe.com/xap/1.0/"
            xmlns:dc="http://purl.org/dc/elements/1.1/"
            xmlns:cq="http://www.day.com/jcr/cq/1.0"
            xmlns:tiff="http://ns.adobe.com/tiff/1.0/">
         <xmp:rhcc-effective-on>2023-12-08T17:44:41.445Z</xmp:rhcc-effective-on>
         <xmp:rhcc-metadata-complete-moderator>pending</xmp:rhcc-metadata-complete-moderator>
         <xmp:rhcc-translation-id>TRAc5fe9d1c-2d59-49bd-9020-a16505d6a434</xmp:rhcc-translation-id>
         <xmp:CreateDate>2023-12-08T17:44:41.445Z</xmp:CreateDate>
         <xmp:rhcc-effective-on-set-on-upload>true</xmp:rhcc-effective-on-set-on-upload>
         <xmp:rhcc-metadata-complete-uploader>pending</xmp:rhcc-metadata-complete-uploader>
         <xmp:rhcc-file-last-modified>2023-12-08T17:45:17.197Z</xmp:rhcc-file-last-modified>
         <xmp:rhcc-audience>rhcc-audience:internal</xmp:rhcc-audience>
         <xmp:rhcc-rights-restricted>no</xmp:rhcc-rights-restricted>
         <xmp:rhcc-derivative-id>DERc5fe9d1c-2d59-49bd-9020-a16505d6a434</xmp:rhcc-derivative-id>
         <xmp:rhcc-notify-portal-subscribers-on-change>yes</xmp:rhcc-notify-portal-subscribers-on-change>
         <dc:format>image/svg+xml</dc:format>
         <dc:modified>2024-02-09T20:36:54.671Z</dc:modified>
         <cq:lastReplicationAction_scene7>Activate</cq:lastReplicationAction_scene7>
         <cq:lastReplicationAction_publish>Activate</cq:lastReplicationAction_publish>
         <cq:lastReplicated_publish>2024-02-09T22:24:28.865Z</cq:lastReplicated_publish>
         <cq:lastReplicatedBy>workflow-process-service</cq:lastReplicatedBy>
         <cq:lastReplicationAction>Activate</cq:lastReplicationAction>
         <cq:lastReplicatedBy_publish>workflow-process-service</cq:lastReplicatedBy_publish>
         <cq:isDelivered>true</cq:isDelivered>
         <cq:lastReplicated>2024-02-09T22:24:28.865Z</cq:lastReplicated>
         <cq:lastReplicatedBy_scene7>workflow-process-service</cq:lastReplicatedBy_scene7>
         <cq:lastReplicated_scene7>2024-02-09T22:24:28.865Z</cq:lastReplicated_scene7>
         <tiff:ImageLength>36</tiff:ImageLength>
         <tiff:ImageWidth>36</tiff:ImageWidth>
      </rdf:Description>
   </rdf:RDF>
</x:xmpmeta>
                                                                                                    
                                                                                                    
                                                                                                    
                                                                                                    
                                                                                                    
                                                                                                    
                                                                                                    
                                                                                                    
                                                                                                    
                                                                                                    
                                 
<?xpacket end="w"?></metadata>
<path d="m28.9707,30.375H8.71661c.55829-.63782.90839-1.46265.90839-2.375v-8.375h14.75732c.34521,0,.625-.28027.625-.625s-.27979-.625-.625-.625h-14.75732v-2.00098c0-2.90723,1.20557-5.75195,3.30762-7.80371,2.01172-1.96387,4.60059-3.01172,7.3252-2.94238,3.26758.0791,6.34473,1.72656,8.23096,4.40527.19922.28223.58936.35059.87109.15137.28223-.19824.3501-.58789.15137-.87012-2.11377-3.00195-5.56152-4.84668-9.22314-4.93652-3.02979-.06055-5.97314,1.09766-8.22852,3.29785-2.3418,2.28613-3.68457,5.45605-3.68457,8.69824v2.00098h-2.3457c-.34521,0-.625.28027-.625.625s.27979.625.625.625h2.3457v8.375c0,1.30957-1.06543,2.375-2.375,2.375-.34521,0-.625.28027-.625.625s.27979.625.625.625c.00671,0,.01288-.00189.01953-.00195.00348.00006.00629.00195.00977.00195h22.94141c.34521,0,.625-.28027.625-.625s-.27979-.625-.625-.625Z" stroke-width="0"/></svg>