<svg id="f4de47a5-adf0-47b4-a408-2f7b4d815975" data-name="Icon" xmlns="http://www.w3.org/2000/svg" viewBox="0 0 36 36">
  <title>Camera icon - Black</title>
<desc>photography, film, capture, scan, portrait, picture, lens, focus, aperture, objects</desc>
<metadata><?xpacket begin="﻿" id="W5M0MpCehiHzreSzNTczkc9d"?>
<x:xmpmeta xmlns:x="adobe:ns:meta/" x:xmptk="Adobe XMP Core 8.0-c001 1.000000, 0000/00/00-00:00:00        ">
   <rdf:RDF xmlns:rdf="http://www.w3.org/1999/02/22-rdf-syntax-ns#">
      <rdf:Description rdf:about=""
            xmlns:xmp="http://ns.adobe.com/xap/1.0/"
            xmlns:dc="http://purl.org/dc/elements/1.1/"
            xmlns:cq="http://www.day.com/jcr/cq/1.0"
            xmlns:tiff="http://ns.adobe.com/tiff/1.0/">
         <xmp:rhcc-effective-on>2023-12-08T17:35:27.642Z</xmp:rhcc-effective-on>
         <xmp:rhcc-metadata-complete-moderator>pending</xmp:rhcc-metadata-complete-moderator>
         <xmp:rhcc-translation-id>TRAe22b859c-bb5a-47a5-8f73-2f40d13f29a6</xmp:rhcc-translation-id>
         <xmp:brand-content-type>Icon</xmp:brand-content-type>
         <xmp:CreateDate>2023-12-08T17:35:27.642Z</xmp:CreateDate>
         <xmp:rhcc-effective-on-set-on-upload>true</xmp:rhcc-effective-on-set-on-upload>
         <xmp:rhcc-metadata-complete-uploader>pending</xmp:rhcc-metadata-complete-uploader>
         <xmp:rhcc-file-last-modified>2023-12-08T17:36:28.597Z</xmp:rhcc-file-last-modified>
         <xmp:rhcc-audience>rhcc-audience:internal</xmp:rhcc-audience>
         <xmp:rhcc-rights-restricted>no</xmp:rhcc-rights-restricted>
         <xmp:brand-content-subtype>Icon</xmp:brand-content-subtype>
         <xmp:rhcc-derivative-id>DERe22b859c-bb5a-47a5-8f73-2f40d13f29a6</xmp:rhcc-derivative-id>
         <xmp:brand-logo-color>Black</xmp:brand-logo-color>
         <xmp:rhcc-notify-portal-subscribers-on-change>yes</xmp:rhcc-notify-portal-subscribers-on-change>
         <dc:format>image/svg+xml</dc:format>
         <dc:modified>2024-02-09T20:29:38.055Z</dc:modified>
         <dc:title>
            <rdf:Alt>
               <rdf:li xml:lang="x-default">Camera icon - Black</rdf:li>
            </rdf:Alt>
         </dc:title>
         <dc:description>
            <rdf:Alt>
               <rdf:li xml:lang="x-default">photography, film, capture, scan, portrait, picture, lens, focus, aperture, objects</rdf:li>
            </rdf:Alt>
         </dc:description>
         <cq:lastReplicationAction_scene7>Activate</cq:lastReplicationAction_scene7>
         <cq:lastReplicationAction_publish>Activate</cq:lastReplicationAction_publish>
         <cq:lastReplicated_publish>2024-02-09T22:16:21.180Z</cq:lastReplicated_publish>
         <cq:lastReplicatedBy>workflow-process-service</cq:lastReplicatedBy>
         <cq:lastReplicationAction>Activate</cq:lastReplicationAction>
         <cq:lastReplicatedBy_publish>workflow-process-service</cq:lastReplicatedBy_publish>
         <cq:isDelivered>true</cq:isDelivered>
         <cq:lastReplicated>2024-02-09T22:16:21.180Z</cq:lastReplicated>
         <cq:lastReplicatedBy_scene7>workflow-process-service</cq:lastReplicatedBy_scene7>
         <cq:lastReplicated_scene7>2024-02-09T22:16:21.180Z</cq:lastReplicated_scene7>
         <tiff:ImageLength>36</tiff:ImageLength>
         <tiff:ImageWidth>36</tiff:ImageWidth>
      </rdf:Description>
   </rdf:RDF>
</x:xmpmeta>
                                                                                                    
                                                                                                    
                                                                                                    
                                                                                                    
                                                                                                    
                                                                                                    
                                                                                                    
                                                                                                    
                                                                                                    
                                                                                                    
                                 
<?xpacket end="w"?></metadata>
<g>
    <path d="M31,9.38H24.26L21.44,6.56A.6.6,0,0,0,21,6.38H15a.6.6,0,0,0-.44.18L11.74,9.38H5a.62.62,0,0,0-.62.62V29a.62.62,0,0,0,.62.62H31a.62.62,0,0,0,.62-.62V10A.62.62,0,0,0,31,9.38ZM12,10.62a.6.6,0,0,0,.44-.18l2.82-2.82h5.48l2.82,2.82a.6.6,0,0,0,.44.18h6.38v4.76H22.73a6.59,6.59,0,0,0-9.46,0H5.62V10.62Zm6,4A5.38,5.38,0,1,1,12.62,20,5.39,5.39,0,0,1,18,14.62ZM5.62,28.38V16.62h6.69a6.62,6.62,0,1,0,11.38,0h6.69V28.38Z"/>
    <path d="M8,8.62h2a.62.62,0,0,0,0-1.24H8A.62.62,0,1,0,8,8.62Z"/>
    <path d="M26,13.62h2a.62.62,0,1,0,0-1.24H26a.62.62,0,0,0,0,1.24Z"/>
    <path d="M15,20.62a.62.62,0,0,0,.62-.62A2.39,2.39,0,0,1,18,17.62a.62.62,0,0,0,0-1.24A3.62,3.62,0,0,0,14.38,20,.62.62,0,0,0,15,20.62Z"/>
  </g>
</svg>
