<?xml version="1.0" encoding="UTF-8"?>
<svg id="uuid-0254c131-eaa4-492f-94bd-e762f001e53b" data-name="Icon" xmlns="http://www.w3.org/2000/svg" viewBox="0 0 36 36">
  <metadata><?xpacket begin="﻿" id="W5M0MpCehiHzreSzNTczkc9d"?>
<x:xmpmeta xmlns:x="adobe:ns:meta/" x:xmptk="Adobe XMP Core 8.0-c001 1.000000, 0000/00/00-00:00:00        ">
   <rdf:RDF xmlns:rdf="http://www.w3.org/1999/02/22-rdf-syntax-ns#">
      <rdf:Description rdf:about=""
            xmlns:xmp="http://ns.adobe.com/xap/1.0/"
            xmlns:dc="http://purl.org/dc/elements/1.1/"
            xmlns:cq="http://www.day.com/jcr/cq/1.0"
            xmlns:tiff="http://ns.adobe.com/tiff/1.0/">
         <xmp:rhcc-effective-on>2023-12-08T17:35:28.555Z</xmp:rhcc-effective-on>
         <xmp:rhcc-metadata-complete-moderator>pending</xmp:rhcc-metadata-complete-moderator>
         <xmp:rhcc-translation-id>TRA9e17509a-6c84-4122-be01-6aff0ffa5f46</xmp:rhcc-translation-id>
         <xmp:CreateDate>2023-12-08T17:35:28.555Z</xmp:CreateDate>
         <xmp:rhcc-effective-on-set-on-upload>true</xmp:rhcc-effective-on-set-on-upload>
         <xmp:rhcc-metadata-complete-uploader>pending</xmp:rhcc-metadata-complete-uploader>
         <xmp:rhcc-file-last-modified>2023-12-08T17:36:27.301Z</xmp:rhcc-file-last-modified>
         <xmp:rhcc-audience>rhcc-audience:internal</xmp:rhcc-audience>
         <xmp:rhcc-rights-restricted>no</xmp:rhcc-rights-restricted>
         <xmp:rhcc-derivative-id>DER9e17509a-6c84-4122-be01-6aff0ffa5f46</xmp:rhcc-derivative-id>
         <xmp:rhcc-notify-portal-subscribers-on-change>yes</xmp:rhcc-notify-portal-subscribers-on-change>
         <dc:format>image/svg+xml</dc:format>
         <dc:modified>2024-02-09T20:30:04.115Z</dc:modified>
         <cq:lastReplicationAction_scene7>Activate</cq:lastReplicationAction_scene7>
         <cq:lastReplicationAction_publish>Activate</cq:lastReplicationAction_publish>
         <cq:lastReplicated_publish>2024-02-09T22:16:54.865Z</cq:lastReplicated_publish>
         <cq:lastReplicatedBy>workflow-process-service</cq:lastReplicatedBy>
         <cq:lastReplicationAction>Activate</cq:lastReplicationAction>
         <cq:lastReplicatedBy_publish>workflow-process-service</cq:lastReplicatedBy_publish>
         <cq:isDelivered>true</cq:isDelivered>
         <cq:lastReplicated>2024-02-09T22:16:54.865Z</cq:lastReplicated>
         <cq:lastReplicatedBy_scene7>workflow-process-service</cq:lastReplicatedBy_scene7>
         <cq:lastReplicated_scene7>2024-02-09T22:16:54.865Z</cq:lastReplicated_scene7>
         <tiff:ImageLength>36</tiff:ImageLength>
         <tiff:ImageWidth>36</tiff:ImageWidth>
      </rdf:Description>
   </rdf:RDF>
</x:xmpmeta>
                                                                                                    
                                                                                                    
                                                                                                    
                                                                                                    
                                                                                                    
                                                                                                    
                                                                                                    
                                                                                                    
                                                                                                    
                                                                                                    
                                 
<?xpacket end="w"?></metadata>
<path d="M14,29.62h8c.35,0,.62-.28,.62-.62V11c0-.34-.28-.62-.62-.62H14c-.35,0-.62,.28-.62,.62V29c0,.34,.28,.62,.62,.62Zm.62-1.25v-8.75h1.38c1.45,0,2.62-1.18,2.62-2.62,0-.76,.62-1.38,1.38-1.38h1.38v12.75h-6.75Zm6.75-16.75v2.75h-1.38c-1.45,0-2.62,1.18-2.62,2.62,0,.76-.62,1.38-1.38,1.38h-1.38v-6.75h6.75Z"/>
  <path d="M27,30.38H9c-.35,0-.62,.28-.62,.62s.28,.62,.62,.62H27c.35,0,.62-.28,.62-.62s-.28-.62-.62-.62Z"/>
  <path d="M18,9.62c.15,0,.3-.05,.42-.16,.85-.76,1.33-1.84,1.33-2.96s-.49-2.2-1.33-2.96c-.24-.21-.6-.21-.84,0-.85,.76-1.33,1.84-1.33,2.96s.49,2.2,1.33,2.96c.12,.11,.27,.16,.42,.16Zm0-4.69c.33,.46,.5,1,.5,1.57s-.17,1.11-.5,1.57c-.33-.46-.5-1-.5-1.57s.17-1.11,.5-1.57Z"/>
</svg>