<svg id="a9493bdd-a3a8-4d57-8e16-aa5aaa3ecda9" data-name="Icon" xmlns="http://www.w3.org/2000/svg" viewBox="0 0 36 36">
  <title>Capitol building icon - Black</title>
<desc>Washington, capital, government, laws, congress, parliament, buildings and industries</desc>
<metadata><?xpacket begin="﻿" id="W5M0MpCehiHzreSzNTczkc9d"?>
<x:xmpmeta xmlns:x="adobe:ns:meta/" x:xmptk="Adobe XMP Core 8.0-c001 1.000000, 0000/00/00-00:00:00        ">
   <rdf:RDF xmlns:rdf="http://www.w3.org/1999/02/22-rdf-syntax-ns#">
      <rdf:Description rdf:about=""
            xmlns:xmp="http://ns.adobe.com/xap/1.0/"
            xmlns:dc="http://purl.org/dc/elements/1.1/"
            xmlns:cq="http://www.day.com/jcr/cq/1.0"
            xmlns:tiff="http://ns.adobe.com/tiff/1.0/">
         <xmp:rhcc-effective-on>2023-12-08T17:47:23.529Z</xmp:rhcc-effective-on>
         <xmp:rhcc-metadata-complete-moderator>pending</xmp:rhcc-metadata-complete-moderator>
         <xmp:rhcc-translation-id>TRA766bf5c6-5678-4b48-9d7e-627508e4b536</xmp:rhcc-translation-id>
         <xmp:brand-content-type>Icon</xmp:brand-content-type>
         <xmp:CreateDate>2023-12-08T17:47:23.529Z</xmp:CreateDate>
         <xmp:rhcc-effective-on-set-on-upload>true</xmp:rhcc-effective-on-set-on-upload>
         <xmp:rhcc-metadata-complete-uploader>pending</xmp:rhcc-metadata-complete-uploader>
         <xmp:rhcc-file-last-modified>2023-12-08T17:48:03.697Z</xmp:rhcc-file-last-modified>
         <xmp:rhcc-audience>rhcc-audience:internal</xmp:rhcc-audience>
         <xmp:rhcc-rights-restricted>no</xmp:rhcc-rights-restricted>
         <xmp:brand-content-subtype>Icon</xmp:brand-content-subtype>
         <xmp:rhcc-derivative-id>DER766bf5c6-5678-4b48-9d7e-627508e4b536</xmp:rhcc-derivative-id>
         <xmp:brand-logo-color>Black</xmp:brand-logo-color>
         <xmp:rhcc-notify-portal-subscribers-on-change>yes</xmp:rhcc-notify-portal-subscribers-on-change>
         <dc:format>image/svg+xml</dc:format>
         <dc:modified>2024-02-09T20:24:08.149Z</dc:modified>
         <dc:title>
            <rdf:Alt>
               <rdf:li xml:lang="x-default">Capitol building icon - Black</rdf:li>
            </rdf:Alt>
         </dc:title>
         <dc:description>
            <rdf:Alt>
               <rdf:li xml:lang="x-default">Washington, capital, government, laws, congress, parliament, buildings and industries</rdf:li>
            </rdf:Alt>
         </dc:description>
         <cq:lastReplicationAction_scene7>Activate</cq:lastReplicationAction_scene7>
         <cq:lastReplicationAction_publish>Activate</cq:lastReplicationAction_publish>
         <cq:lastReplicated_publish>2024-02-09T22:06:15.869Z</cq:lastReplicated_publish>
         <cq:lastReplicatedBy>workflow-process-service</cq:lastReplicatedBy>
         <cq:lastReplicationAction>Activate</cq:lastReplicationAction>
         <cq:lastReplicatedBy_publish>workflow-process-service</cq:lastReplicatedBy_publish>
         <cq:isDelivered>true</cq:isDelivered>
         <cq:lastReplicated>2024-02-09T22:06:15.869Z</cq:lastReplicated>
         <cq:lastReplicatedBy_scene7>workflow-process-service</cq:lastReplicatedBy_scene7>
         <cq:lastReplicated_scene7>2024-02-09T22:06:15.869Z</cq:lastReplicated_scene7>
         <tiff:ImageLength>36</tiff:ImageLength>
         <tiff:ImageWidth>36</tiff:ImageWidth>
      </rdf:Description>
   </rdf:RDF>
</x:xmpmeta>
                                                                                                    
                                                                                                    
                                                                                                    
                                                                                                    
                                                                                                    
                                                                                                    
                                                                                                    
                                                                                                    
                                                                                                    
                                                                                                    
                                 
<?xpacket end="w"?></metadata>
<g>
    <path d="M9,20.58H27a.63.63,0,0,0,0-1.25H25.62V19a7.62,7.62,0,0,0-5-7.15V8A.61.61,0,0,0,20,7.38H18.62V4a.62.62,0,0,0-1.24,0V7.38H16a.61.61,0,0,0-.62.62v3.81a7.62,7.62,0,0,0-5,7.15v.37H9a.63.63,0,0,0,0,1.25Zm7.62-9.25V8.62h2.76v2.71ZM18,12.58A6.38,6.38,0,0,1,24.38,19v.37H11.62V19A6.38,6.38,0,0,1,18,12.58Z"/>
    <path d="M31,30.38H29.62V27a.62.62,0,0,0-.62-.63H7a.62.62,0,0,0-.62.63v3.42H5a.62.62,0,1,0,0,1.24H31a.62.62,0,0,0,0-1.24ZM7.62,27.58H28.38v2.8H7.62Z"/>
    <path d="M9.38,22v3a.62.62,0,0,0,1.24,0V22a.62.62,0,1,0-1.24,0Z"/>
    <path d="M13.38,22v3a.62.62,0,0,0,1.24,0V22a.62.62,0,1,0-1.24,0Z"/>
    <path d="M17.38,22v3a.62.62,0,0,0,1.24,0V22a.62.62,0,0,0-1.24,0Z"/>
    <path d="M21.38,22v3a.62.62,0,0,0,1.24,0V22a.62.62,0,0,0-1.24,0Z"/>
    <path d="M25.38,22v3a.62.62,0,0,0,1.24,0V22a.62.62,0,0,0-1.24,0Z"/>
    <path d="M14,18.63a.63.63,0,1,0-.62-.62A.62.62,0,0,0,14,18.63Z"/>
    <path d="M18,18.63a.63.63,0,1,0-.62-.63A.63.63,0,0,0,18,18.63Z"/>
    <path d="M22,18.63a.63.63,0,1,0-.62-.63A.63.63,0,0,0,22,18.63Z"/>
    <path d="M14,28.38a.63.63,0,1,0,.62.62A.62.62,0,0,0,14,28.38Z"/>
    <path d="M10,28.38a.63.63,0,1,0,.63.62A.62.62,0,0,0,10,28.38Z"/>
    <path d="M18,28.38a.63.63,0,1,0,.62.62A.62.62,0,0,0,18,28.38Z"/>
    <path d="M22,28.38a.63.63,0,1,0,.63.62A.62.62,0,0,0,22,28.38Z"/>
    <path d="M26,28.38a.63.63,0,1,0,.62.62A.62.62,0,0,0,26,28.38Z"/>
  </g>
</svg>
