<?xml version="1.0" encoding="UTF-8"?><svg id="uuid-1ee1bd20-3fb5-4b5b-b850-d68007c47589" xmlns="http://www.w3.org/2000/svg" width="36" height="36" viewBox="0 0 36 36"><metadata><?xpacket begin="﻿" id="W5M0MpCehiHzreSzNTczkc9d"?>
<x:xmpmeta xmlns:x="adobe:ns:meta/" x:xmptk="Adobe XMP Core 8.0-c001 1.000000, 0000/00/00-00:00:00        ">
   <rdf:RDF xmlns:rdf="http://www.w3.org/1999/02/22-rdf-syntax-ns#">
      <rdf:Description rdf:about=""
            xmlns:xmp="http://ns.adobe.com/xap/1.0/"
            xmlns:dc="http://purl.org/dc/elements/1.1/"
            xmlns:cq="http://www.day.com/jcr/cq/1.0"
            xmlns:tiff="http://ns.adobe.com/tiff/1.0/">
         <xmp:rhcc-effective-on>2023-12-08T17:44:46.316Z</xmp:rhcc-effective-on>
         <xmp:rhcc-metadata-complete-moderator>pending</xmp:rhcc-metadata-complete-moderator>
         <xmp:rhcc-translation-id>TRA93c3c477-cb12-4d24-84d1-7228bcb2a9f2</xmp:rhcc-translation-id>
         <xmp:CreateDate>2023-12-08T17:44:46.316Z</xmp:CreateDate>
         <xmp:rhcc-effective-on-set-on-upload>true</xmp:rhcc-effective-on-set-on-upload>
         <xmp:rhcc-metadata-complete-uploader>pending</xmp:rhcc-metadata-complete-uploader>
         <xmp:rhcc-file-last-modified>2023-12-08T17:45:17.800Z</xmp:rhcc-file-last-modified>
         <xmp:rhcc-audience>rhcc-audience:internal</xmp:rhcc-audience>
         <xmp:rhcc-rights-restricted>no</xmp:rhcc-rights-restricted>
         <xmp:rhcc-derivative-id>DER93c3c477-cb12-4d24-84d1-7228bcb2a9f2</xmp:rhcc-derivative-id>
         <xmp:rhcc-notify-portal-subscribers-on-change>yes</xmp:rhcc-notify-portal-subscribers-on-change>
         <dc:format>image/svg+xml</dc:format>
         <dc:modified>2024-02-09T20:36:51.439Z</dc:modified>
         <cq:lastReplicationAction_scene7>Activate</cq:lastReplicationAction_scene7>
         <cq:lastReplicationAction_publish>Activate</cq:lastReplicationAction_publish>
         <cq:lastReplicated_publish>2024-02-09T22:24:25.247Z</cq:lastReplicated_publish>
         <cq:lastReplicatedBy>workflow-process-service</cq:lastReplicatedBy>
         <cq:lastReplicationAction>Activate</cq:lastReplicationAction>
         <cq:lastReplicatedBy_publish>workflow-process-service</cq:lastReplicatedBy_publish>
         <cq:isDelivered>true</cq:isDelivered>
         <cq:lastReplicated>2024-02-09T22:24:25.247Z</cq:lastReplicated>
         <cq:lastReplicatedBy_scene7>workflow-process-service</cq:lastReplicatedBy_scene7>
         <cq:lastReplicated_scene7>2024-02-09T22:24:25.247Z</cq:lastReplicated_scene7>
         <tiff:ImageLength>36</tiff:ImageLength>
         <tiff:ImageWidth>36</tiff:ImageWidth>
      </rdf:Description>
   </rdf:RDF>
</x:xmpmeta>
                                                                                                    
                                                                                                    
                                                                                                    
                                                                                                    
                                                                                                    
                                                                                                    
                                                                                                    
                                                                                                    
                                                                                                    
                                                                                                    
                                 
<?xpacket end="w"?></metadata>
<path d="m31,27.375H5c-.34521,0-.625.28027-.625.625s.27979.625.625.625h26c.34521,0,.625-.28027.625-.625s-.27979-.625-.625-.625Z" stroke-width="0"/><path d="m13.5,19.375c-.90045,0-1.70679.38855-2.27759,1h-6.22241c-.34521,0-.625.28027-.625.625s.27979.625.625.625h5.5152c-.08228.27954-.1402.56921-.1402.875,0,1.72266,1.40186,3.125,3.125,3.125s3.125-1.40234,3.125-3.125c0-.30579-.05792-.59546-.1402-.875h2.5152c.34521,0,.625-.28027.625-.625v-3c0-1.99902-1.62598-3.625-3.625-3.625H5c-.34521,0-.625.28027-.625.625s.27979.625.625.625h11c1.30957,0,2.375,1.06543,2.375,2.375v2.375h-2.59741c-.5708-.61145-1.37714-1-2.27759-1Zm0,5c-1.03369,0-1.875-.84082-1.875-1.875s.84131-1.875,1.875-1.875,1.875.84082,1.875,1.875-.84131,1.875-1.875,1.875Z" stroke-width="0"/><path d="m16.75977,18.58008c.08008.0293.16016.0498.24023.0498.07959,0,.15967-.02051.23975-.0498.08008-.03027.1499-.08008.2002-.14062.06006-.05957.10986-.12012.13965-.19922.03027-.08008.05029-.16016.05029-.24023s-.02002-.16016-.05029-.24023c-.02979-.07031-.07959-.15039-.13965-.2002-.05029-.05957-.12012-.09961-.2002-.13965-.1499-.06055-.33008-.06055-.47998,0-.08008.04004-.14014.08008-.19971.13965-.06006.0498-.11035.12988-.14014.2002-.03027.08008-.04004.16016-.04004.24023s.00977.16016.04004.24023c.02979.0791.08008.13965.14014.19922.05957.06055.12988.11035.19971.14062Z" stroke-width="0"/><path d="m4.375,13c0,.34473.27979.625.625.625h7c.25293,0,.48047-.15234.57764-.38574.09668-.2334.04297-.50293-.13574-.68164l-4-4c-.11719-.11719-.27637-.18262-.44189-.18262h-3c-.34521,0-.625.28027-.625.625s.27979.625.625.625h2.74121l2.75,2.75h-5.49121c-.34521,0-.625.28027-.625.625Z" stroke-width="0"/><path d="m19,12.625c.34521,0,.625-.28027.625-.625v-3c0-.34473-.27979-.625-.625-.625s-.625.28027-.625.625v3c0,.34473.27979.625.625.625Z" stroke-width="0"/><path d="m21,12.625c.16016,0,.31982-.06055.44189-.18262l2-2c.24414-.24414.24414-.64062,0-.88477s-.63965-.24414-.88379,0l-2,2c-.24414.24414-.24414.64062,0,.88477.12207.12207.28174.18262.44189.18262Z" stroke-width="0"/><path d="m16.55811,12.44238c.12207.12207.28174.18262.44189.18262s.31982-.06055.44189-.18262c.24414-.24414.24414-.64062,0-.88477l-2-2c-.24414-.24414-.63965-.24414-.88379,0s-.24414.64062,0,.88477l2,2Z" stroke-width="0"/><path d="m31,12.375h-4.22803l.58447-2.75h3.64355c.34521,0,.625-.28027.625-.625s-.27979-.625-.625-.625h-4.1499c-.29492,0-.5498.20605-.61133.49512l-.8501,4c-.03906.18457.00684.37695.12549.52344s.29736.23145.48584.23145h5c.34521,0,.625-.28027.625-.625s-.27979-.625-.625-.625Z" stroke-width="0"/><path d="m31,14.375h-6c-1.99902,0-3.625,1.62598-3.625,3.625v3c0,.34473.27979.625.625.625h2.5152c-.08228.27954-.1402.56921-.1402.875,0,1.72266,1.40186,3.125,3.125,3.125s3.125-1.40234,3.125-3.125-1.40186-3.125-3.125-3.125c-.90045,0-1.70679.38855-2.27759,1h-2.59741v-2.375c0-1.30957,1.06543-2.375,2.375-2.375h6c.34521,0,.625-.28027.625-.625s-.27979-.625-.625-.625Zm-3.5,6.25c1.03369,0,1.875.84082,1.875,1.875s-.84131,1.875-1.875,1.875-1.875-.84082-1.875-1.875.84131-1.875,1.875-1.875Z" stroke-width="0"/></svg>