<svg id="f464f511-2bc0-4461-9523-3ab124b6ad1a" data-name="Icon" xmlns="http://www.w3.org/2000/svg" viewBox="0 0 36 36">
  <title>Catalog icon - Black</title>
<desc>applications, download, purchase, store, buy, list, choices, choose, sort, marketplace, software and technologies</desc>
<metadata><?xpacket begin="﻿" id="W5M0MpCehiHzreSzNTczkc9d"?>
<x:xmpmeta xmlns:x="adobe:ns:meta/" x:xmptk="Adobe XMP Core 8.0-c001 1.000000, 0000/00/00-00:00:00        ">
   <rdf:RDF xmlns:rdf="http://www.w3.org/1999/02/22-rdf-syntax-ns#">
      <rdf:Description rdf:about=""
            xmlns:xmp="http://ns.adobe.com/xap/1.0/"
            xmlns:dc="http://purl.org/dc/elements/1.1/"
            xmlns:cq="http://www.day.com/jcr/cq/1.0"
            xmlns:tiff="http://ns.adobe.com/tiff/1.0/">
         <xmp:rhcc-effective-on>2023-12-08T17:42:08.965Z</xmp:rhcc-effective-on>
         <xmp:rhcc-metadata-complete-moderator>pending</xmp:rhcc-metadata-complete-moderator>
         <xmp:rhcc-translation-id>TRAb27352c2-be02-47fb-9ed3-d9b193f46f08</xmp:rhcc-translation-id>
         <xmp:brand-content-type>Icon</xmp:brand-content-type>
         <xmp:CreateDate>2023-12-08T17:42:08.965Z</xmp:CreateDate>
         <xmp:rhcc-effective-on-set-on-upload>true</xmp:rhcc-effective-on-set-on-upload>
         <xmp:rhcc-metadata-complete-uploader>pending</xmp:rhcc-metadata-complete-uploader>
         <xmp:rhcc-file-last-modified>2023-12-08T17:42:22.601Z</xmp:rhcc-file-last-modified>
         <xmp:rhcc-audience>rhcc-audience:internal</xmp:rhcc-audience>
         <xmp:rhcc-rights-restricted>no</xmp:rhcc-rights-restricted>
         <xmp:brand-content-subtype>Icon</xmp:brand-content-subtype>
         <xmp:rhcc-derivative-id>DERb27352c2-be02-47fb-9ed3-d9b193f46f08</xmp:rhcc-derivative-id>
         <xmp:brand-logo-color>Black</xmp:brand-logo-color>
         <xmp:rhcc-notify-portal-subscribers-on-change>yes</xmp:rhcc-notify-portal-subscribers-on-change>
         <dc:format>image/svg+xml</dc:format>
         <dc:modified>2024-02-09T20:15:01.993Z</dc:modified>
         <dc:title>
            <rdf:Alt>
               <rdf:li xml:lang="x-default">Catalog icon - Black</rdf:li>
            </rdf:Alt>
         </dc:title>
         <dc:description>
            <rdf:Alt>
               <rdf:li xml:lang="x-default">applications, download, purchase, store, buy, list, choices, choose, sort, marketplace, software and technologies</rdf:li>
            </rdf:Alt>
         </dc:description>
         <cq:lastReplicationAction_scene7>Activate</cq:lastReplicationAction_scene7>
         <cq:lastReplicationAction_publish>Activate</cq:lastReplicationAction_publish>
         <cq:lastReplicated_publish>2024-02-09T21:51:39.059Z</cq:lastReplicated_publish>
         <cq:lastReplicatedBy>workflow-process-service</cq:lastReplicatedBy>
         <cq:lastReplicationAction>Activate</cq:lastReplicationAction>
         <cq:lastReplicatedBy_publish>workflow-process-service</cq:lastReplicatedBy_publish>
         <cq:isDelivered>true</cq:isDelivered>
         <cq:lastReplicated>2024-02-09T21:51:39.059Z</cq:lastReplicated>
         <cq:lastReplicatedBy_scene7>workflow-process-service</cq:lastReplicatedBy_scene7>
         <cq:lastReplicated_scene7>2024-02-09T21:51:39.059Z</cq:lastReplicated_scene7>
         <tiff:ImageLength>36</tiff:ImageLength>
         <tiff:ImageWidth>36</tiff:ImageWidth>
      </rdf:Description>
   </rdf:RDF>
</x:xmpmeta>
                                                                                                    
                                                                                                    
                                                                                                    
                                                                                                    
                                                                                                    
                                                                                                    
                                                                                                    
                                                                                                    
                                                                                                    
                                                                                                    
                                 
<?xpacket end="w"?></metadata>
<g>
    <path d="M31,4.38H5A.62.62,0,0,0,4.38,5v6a.62.62,0,0,0,.62.62h8a.62.62,0,0,0,0-1.24H5.62V5.62H30.38v4.76H22a.62.62,0,0,0,0,1.24h9a.62.62,0,0,0,.62-.62V5A.62.62,0,0,0,31,4.38Z"/>
    <path d="M6.94,19.38H5.62V14.62H13a.62.62,0,0,0,0-1.24H5a.62.62,0,0,0-.62.62v6a.62.62,0,0,0,.62.62H6.94A.62.62,0,0,0,6.94,19.38Z"/>
    <path d="M31,13.38H22a.62.62,0,0,0,0,1.24h9A.62.62,0,0,0,31,13.38Z"/>
    <path d="M28.14,18.39,19.62,16.5v-6a2.12,2.12,0,0,0-4.24,0V21c-1.11-1.41-2.54-2.81-3.88-2.81a2.12,2.12,0,0,0-1.22,3.86,2.84,2.84,0,0,1,1.1,2C13,34.67,28.33,33.78,28.62,23V19A.62.62,0,0,0,28.14,18.39ZM27.38,23c-.23,9.21-13.4,10-14.76.92A4.1,4.1,0,0,0,11,21.05a.87.87,0,0,1,.5-1.58c.89,0,2.49,1.55,4,3.87A.63.63,0,0,0,16.62,23V10.5a.88.88,0,0,1,1.76,0V17a.62.62,0,0,0,.48.61l8.52,1.89Z"/>
  </g>
</svg>
