<?xml version="1.0" encoding="UTF-8"?>
<svg id="uuid-231c7941-23d4-4fa3-b400-ab59c7b58ffd" data-name="Icon" xmlns="http://www.w3.org/2000/svg" viewBox="0 0 36 36">
  <title>Certification icon - Black</title>
<desc>verified, earned, credly, badge, credential, professional, media and documents</desc>
<metadata><?xpacket begin="﻿" id="W5M0MpCehiHzreSzNTczkc9d"?>
<x:xmpmeta xmlns:x="adobe:ns:meta/" x:xmptk="Adobe XMP Core 8.0-c001 1.000000, 0000/00/00-00:00:00        ">
   <rdf:RDF xmlns:rdf="http://www.w3.org/1999/02/22-rdf-syntax-ns#">
      <rdf:Description rdf:about=""
            xmlns:xmp="http://ns.adobe.com/xap/1.0/"
            xmlns:dc="http://purl.org/dc/elements/1.1/"
            xmlns:cq="http://www.day.com/jcr/cq/1.0"
            xmlns:tiff="http://ns.adobe.com/tiff/1.0/">
         <xmp:rhcc-effective-on>2023-12-08T17:36:51.925Z</xmp:rhcc-effective-on>
         <xmp:rhcc-metadata-complete-moderator>pending</xmp:rhcc-metadata-complete-moderator>
         <xmp:rhcc-translation-id>TRA4980faaa-cced-4f5c-813b-de6c14793e93</xmp:rhcc-translation-id>
         <xmp:brand-content-type>Icon</xmp:brand-content-type>
         <xmp:CreateDate>2023-12-08T17:36:51.925Z</xmp:CreateDate>
         <xmp:rhcc-effective-on-set-on-upload>true</xmp:rhcc-effective-on-set-on-upload>
         <xmp:rhcc-metadata-complete-uploader>pending</xmp:rhcc-metadata-complete-uploader>
         <xmp:rhcc-file-last-modified>2023-12-08T17:38:18.231Z</xmp:rhcc-file-last-modified>
         <xmp:rhcc-audience>rhcc-audience:internal</xmp:rhcc-audience>
         <xmp:rhcc-rights-restricted>no</xmp:rhcc-rights-restricted>
         <xmp:brand-content-subtype>Icon</xmp:brand-content-subtype>
         <xmp:rhcc-derivative-id>DER4980faaa-cced-4f5c-813b-de6c14793e93</xmp:rhcc-derivative-id>
         <xmp:brand-logo-color>Black</xmp:brand-logo-color>
         <xmp:rhcc-notify-portal-subscribers-on-change>yes</xmp:rhcc-notify-portal-subscribers-on-change>
         <dc:format>image/svg+xml</dc:format>
         <dc:modified>2024-02-09T20:19:33.604Z</dc:modified>
         <dc:title>
            <rdf:Alt>
               <rdf:li xml:lang="x-default">Certification icon - Black</rdf:li>
            </rdf:Alt>
         </dc:title>
         <dc:description>
            <rdf:Alt>
               <rdf:li xml:lang="x-default">verified, earned, credly, badge, credential, professional, media and documents</rdf:li>
            </rdf:Alt>
         </dc:description>
         <cq:lastReplicationAction_scene7>Activate</cq:lastReplicationAction_scene7>
         <cq:lastReplicationAction_publish>Activate</cq:lastReplicationAction_publish>
         <cq:lastReplicated_publish>2024-02-09T21:56:54.485Z</cq:lastReplicated_publish>
         <cq:lastReplicatedBy>workflow-process-service</cq:lastReplicatedBy>
         <cq:lastReplicationAction>Activate</cq:lastReplicationAction>
         <cq:lastReplicatedBy_publish>workflow-process-service</cq:lastReplicatedBy_publish>
         <cq:isDelivered>true</cq:isDelivered>
         <cq:lastReplicated>2024-02-09T21:56:54.485Z</cq:lastReplicated>
         <cq:lastReplicatedBy_scene7>workflow-process-service</cq:lastReplicatedBy_scene7>
         <cq:lastReplicated_scene7>2024-02-09T21:56:54.485Z</cq:lastReplicated_scene7>
         <tiff:ImageLength>36</tiff:ImageLength>
         <tiff:ImageWidth>36</tiff:ImageWidth>
      </rdf:Description>
   </rdf:RDF>
</x:xmpmeta>
                                                                                                    
                                                                                                    
                                                                                                    
                                                                                                    
                                                                                                    
                                                                                                    
                                                                                                    
                                                                                                    
                                                                                                    
                                                                                                    
                                 
<?xpacket end="w"?></metadata>
<path d="M23,24.38H5.62V11.62h3.38c.35,0,.62-.28,.62-.62v-3.38H28.38v6.38c0,.82,1.25,.82,1.25,0V7c0-.34-.28-.62-.62-.62H9s-.05,.01-.08,.02c-.03,0-.05,0-.08,.02-.11,.03-.2,.07-.28,.15h0l-4,4h0c-.07,.08-.12,.18-.15,.28,0,.03-.01,.05-.02,.08,0,.03-.02,.05-.02,.08v14c0,.34,.28,.62,.62,.62H23c.82,0,.82-1.25,0-1.25ZM8.38,8.51v1.87h-1.87l1.87-1.87Z"/>
  <path d="M31.62,20.11c0-2-1.63-3.62-3.62-3.62-3.13-.07-4.82,3.93-2.62,6.11v6.4c0,.25,.15,.48,.39,.58,.23,.1,.5,.04,.68-.13l1.56-1.56,1.56,1.56c.18,.18,.45,.23,.68,.13,.23-.1,.39-.32,.39-.58v-6.4c.62-.65,1-1.52,1-2.49Zm-3.62-2.38c3.13,.08,3.13,4.67,0,4.75-3.13-.08-3.13-4.67,0-4.75Zm.44,8.82c-.24-.24-.64-.24-.88,0l-.93,.93v-4.03c.84,.36,1.91,.36,2.75,0v4.03l-.93-.93Z"/>
  <path d="M19.62,18c0-.34-.28-.62-.62-.62H9c-.82,0-.82,1.25,0,1.25h10c.35,0,.62-.28,.62-.62Z"/>
  <path d="M9,20.38c-.82,0-.82,1.25,0,1.25h6c.82,0,.82-1.25,0-1.25h-6Z"/>
</svg>