<svg id="e658c004-5f3b-4ef6-86e1-5a1edf88859f" data-name="Icon" xmlns="http://www.w3.org/2000/svg" viewBox="0 0 36 36">
  <title>City icon - Black</title>
<desc>skyscraper, apartment, downtown, street, place, area, buildings and industries</desc>
<metadata><?xpacket begin="﻿" id="W5M0MpCehiHzreSzNTczkc9d"?>
<x:xmpmeta xmlns:x="adobe:ns:meta/" x:xmptk="Adobe XMP Core 8.0-c001 1.000000, 0000/00/00-00:00:00        ">
   <rdf:RDF xmlns:rdf="http://www.w3.org/1999/02/22-rdf-syntax-ns#">
      <rdf:Description rdf:about=""
            xmlns:xmp="http://ns.adobe.com/xap/1.0/"
            xmlns:dc="http://purl.org/dc/elements/1.1/"
            xmlns:cq="http://www.day.com/jcr/cq/1.0"
            xmlns:tiff="http://ns.adobe.com/tiff/1.0/">
         <xmp:rhcc-effective-on>2023-12-08T17:47:25.233Z</xmp:rhcc-effective-on>
         <xmp:rhcc-metadata-complete-moderator>pending</xmp:rhcc-metadata-complete-moderator>
         <xmp:rhcc-translation-id>TRA3021de87-e970-439a-bb7c-971bb2590fdb</xmp:rhcc-translation-id>
         <xmp:brand-content-type>Icon</xmp:brand-content-type>
         <xmp:CreateDate>2023-12-08T17:47:25.233Z</xmp:CreateDate>
         <xmp:rhcc-effective-on-set-on-upload>true</xmp:rhcc-effective-on-set-on-upload>
         <xmp:rhcc-metadata-complete-uploader>pending</xmp:rhcc-metadata-complete-uploader>
         <xmp:rhcc-file-last-modified>2023-12-08T17:48:04.995Z</xmp:rhcc-file-last-modified>
         <xmp:rhcc-audience>rhcc-audience:internal</xmp:rhcc-audience>
         <xmp:rhcc-rights-restricted>no</xmp:rhcc-rights-restricted>
         <xmp:brand-content-subtype>Icon</xmp:brand-content-subtype>
         <xmp:rhcc-derivative-id>DER3021de87-e970-439a-bb7c-971bb2590fdb</xmp:rhcc-derivative-id>
         <xmp:brand-logo-color>Black</xmp:brand-logo-color>
         <xmp:rhcc-notify-portal-subscribers-on-change>yes</xmp:rhcc-notify-portal-subscribers-on-change>
         <dc:format>image/svg+xml</dc:format>
         <dc:modified>2024-02-09T20:23:59.833Z</dc:modified>
         <dc:title>
            <rdf:Alt>
               <rdf:li xml:lang="x-default">City icon - Black</rdf:li>
            </rdf:Alt>
         </dc:title>
         <dc:description>
            <rdf:Alt>
               <rdf:li xml:lang="x-default">skyscraper, apartment, downtown, street, place, area, buildings and industries</rdf:li>
            </rdf:Alt>
         </dc:description>
         <cq:lastReplicationAction_scene7>Activate</cq:lastReplicationAction_scene7>
         <cq:lastReplicationAction_publish>Activate</cq:lastReplicationAction_publish>
         <cq:lastReplicated_publish>2024-02-09T22:05:59.010Z</cq:lastReplicated_publish>
         <cq:lastReplicatedBy>workflow-process-service</cq:lastReplicatedBy>
         <cq:lastReplicationAction>Activate</cq:lastReplicationAction>
         <cq:lastReplicatedBy_publish>workflow-process-service</cq:lastReplicatedBy_publish>
         <cq:isDelivered>true</cq:isDelivered>
         <cq:lastReplicated>2024-02-09T22:05:59.010Z</cq:lastReplicated>
         <cq:lastReplicatedBy_scene7>workflow-process-service</cq:lastReplicatedBy_scene7>
         <cq:lastReplicated_scene7>2024-02-09T22:05:59.010Z</cq:lastReplicated_scene7>
         <tiff:ImageLength>36</tiff:ImageLength>
         <tiff:ImageWidth>36</tiff:ImageWidth>
      </rdf:Description>
   </rdf:RDF>
</x:xmpmeta>
                                                                                                    
                                                                                                    
                                                                                                    
                                                                                                    
                                                                                                    
                                                                                                    
                                                                                                    
                                                                                                    
                                                                                                    
                                                                                                    
                                 
<?xpacket end="w"?></metadata>
<g>
    <path d="M31,30.38h-.38V26a.61.61,0,0,0-.62-.62H26a.61.61,0,0,0-.62.62v4.38h-.76V29a.61.61,0,0,0-.62-.62H20a.61.61,0,0,0-.62.62v1.38H16.62V18a.61.61,0,0,0-.62-.62H6a.61.61,0,0,0-.62.62V30.38H5a.62.62,0,1,0,0,1.24H31a.62.62,0,0,0,0-1.24Zm-24.38,0V18.62h8.76V30.38Zm14,0v-.76h2.76v.76Zm6,0V26.62h2.76v3.76Z"/>
    <path d="M13,16.62a.61.61,0,0,0,.62-.62V8.62h7.76V20a.61.61,0,0,0,.62.62h5.38V24a.62.62,0,0,0,1.24,0V20a.61.61,0,0,0-.62-.62H22.62V8A.61.61,0,0,0,22,7.38H19.62V4a.62.62,0,0,0-1.24,0V7.38H16.62V5a.62.62,0,0,0-1.24,0V7.38H13a.61.61,0,0,0-.62.62v8A.61.61,0,0,0,13,16.62Z"/>
    <path d="M16,10.38a.63.63,0,1,0,.63.63A.63.63,0,0,0,16,10.38Z"/>
    <path d="M19,10.38a.63.63,0,1,0,.63.63A.63.63,0,0,0,19,10.38Z"/>
    <path d="M16,13.38a.63.63,0,1,0,.63.62A.62.62,0,0,0,16,13.38Z"/>
    <path d="M19,13.38a.63.63,0,1,0,.63.62A.62.62,0,0,0,19,13.38Z"/>
    <path d="M19,16.37a.63.63,0,1,0,.63.63A.63.63,0,0,0,19,16.37Z"/>
    <path d="M19,25.38a.63.63,0,1,0,.63.63A.63.63,0,0,0,19,25.38Z"/>
    <path d="M19,22.38a.63.63,0,1,0,.63.63A.63.63,0,0,0,19,22.38Z"/>
    <path d="M22,25.38a.63.63,0,1,0,.63.63A.63.63,0,0,0,22,25.38Z"/>
    <path d="M22,22.38a.63.63,0,1,0,.63.63A.63.63,0,0,0,22,22.38Z"/>
    <path d="M24.38,23a.62.62,0,1,0,.62-.63A.62.62,0,0,0,24.38,23Z"/>
    <path d="M19,19.38a.63.63,0,1,0,.63.62A.62.62,0,0,0,19,19.38Z"/>
  </g>
</svg>
