<svg id="bea2370b-83e4-418f-9f45-1b1d9a276a53" data-name="Layer 1" xmlns="http://www.w3.org/2000/svg" viewBox="0 0 36 36">
  <title>Click icon - Black</title>
<desc>type, computer, keyboard, mouse, control, point, select, software and technologies</desc>
<metadata><?xpacket begin="﻿" id="W5M0MpCehiHzreSzNTczkc9d"?>
<x:xmpmeta xmlns:x="adobe:ns:meta/" x:xmptk="Adobe XMP Core 8.0-c001 1.000000, 0000/00/00-00:00:00        ">
   <rdf:RDF xmlns:rdf="http://www.w3.org/1999/02/22-rdf-syntax-ns#">
      <rdf:Description rdf:about=""
            xmlns:xmp="http://ns.adobe.com/xap/1.0/"
            xmlns:dc="http://purl.org/dc/elements/1.1/"
            xmlns:cq="http://www.day.com/jcr/cq/1.0"
            xmlns:tiff="http://ns.adobe.com/tiff/1.0/">
         <xmp:rhcc-effective-on>2023-12-08T17:42:14.942Z</xmp:rhcc-effective-on>
         <xmp:rhcc-metadata-complete-moderator>pending</xmp:rhcc-metadata-complete-moderator>
         <xmp:rhcc-translation-id>TRA757f7c9e-b0ac-41a9-b52a-ff4dc0d3adb6</xmp:rhcc-translation-id>
         <xmp:brand-content-type>Icon</xmp:brand-content-type>
         <xmp:CreateDate>2023-12-08T17:42:14.942Z</xmp:CreateDate>
         <xmp:rhcc-effective-on-set-on-upload>true</xmp:rhcc-effective-on-set-on-upload>
         <xmp:rhcc-metadata-complete-uploader>pending</xmp:rhcc-metadata-complete-uploader>
         <xmp:rhcc-file-last-modified>2023-12-08T17:42:29.076Z</xmp:rhcc-file-last-modified>
         <xmp:rhcc-audience>rhcc-audience:internal</xmp:rhcc-audience>
         <xmp:rhcc-rights-restricted>no</xmp:rhcc-rights-restricted>
         <xmp:brand-content-subtype>Icon</xmp:brand-content-subtype>
         <xmp:rhcc-derivative-id>DER757f7c9e-b0ac-41a9-b52a-ff4dc0d3adb6</xmp:rhcc-derivative-id>
         <xmp:brand-logo-color>Black</xmp:brand-logo-color>
         <xmp:rhcc-notify-portal-subscribers-on-change>yes</xmp:rhcc-notify-portal-subscribers-on-change>
         <dc:format>image/svg+xml</dc:format>
         <dc:modified>2024-02-09T20:14:56.669Z</dc:modified>
         <dc:title>
            <rdf:Alt>
               <rdf:li xml:lang="x-default">Click icon - Black</rdf:li>
            </rdf:Alt>
         </dc:title>
         <dc:description>
            <rdf:Alt>
               <rdf:li xml:lang="x-default">type, computer, keyboard, mouse, control, point, select, software and technologies</rdf:li>
            </rdf:Alt>
         </dc:description>
         <cq:lastReplicationAction_scene7>Activate</cq:lastReplicationAction_scene7>
         <cq:lastReplicationAction_publish>Activate</cq:lastReplicationAction_publish>
         <cq:lastReplicated_publish>2024-02-09T21:51:31.034Z</cq:lastReplicated_publish>
         <cq:lastReplicatedBy>workflow-process-service</cq:lastReplicatedBy>
         <cq:lastReplicationAction>Activate</cq:lastReplicationAction>
         <cq:lastReplicatedBy_publish>workflow-process-service</cq:lastReplicatedBy_publish>
         <cq:isDelivered>true</cq:isDelivered>
         <cq:lastReplicated>2024-02-09T21:51:31.034Z</cq:lastReplicated>
         <cq:lastReplicatedBy_scene7>workflow-process-service</cq:lastReplicatedBy_scene7>
         <cq:lastReplicated_scene7>2024-02-09T21:51:31.034Z</cq:lastReplicated_scene7>
         <tiff:ImageLength>36</tiff:ImageLength>
         <tiff:ImageWidth>36</tiff:ImageWidth>
      </rdf:Description>
   </rdf:RDF>
</x:xmpmeta>
                                                                                                    
                                                                                                    
                                                                                                    
                                                                                                    
                                                                                                    
                                                                                                    
                                                                                                    
                                                                                                    
                                                                                                    
                                                                                                    
                                 
<?xpacket end="w"?></metadata>
<g>
    <path d="M31.62,19a.59.59,0,0,0,0-.13.22.22,0,0,0,0-.08s0,0,0,0l-.07-.11-.07-.09a.27.27,0,0,0-.08-.07l-.12-.07,0,0-19-7h-.1l-.12,0-.13,0h-.09l0,0a.33.33,0,0,0-.1.06l-.1.07-.06.09a.26.26,0,0,0-.07.11l0,0s0,.06,0,.09a.43.43,0,0,0,0,.26s0,.06,0,.09l7,19s0,0,0,0a.43.43,0,0,1,0,.07l.09.12.05,0a.42.42,0,0,0,.17.1h0a.58.58,0,0,0,.19,0,.64.64,0,0,0,.2,0h0l0,0a.46.46,0,0,0,.15-.09s0,0,.05,0a.38.38,0,0,0,.09-.12l0-.07s0,0,0,0l2.9-8.71,8.71-2.9h0a.42.42,0,0,0,.17-.1l.05,0,.09-.12a.43.43,0,0,1,0-.07s0,0,0,0,0-.06,0-.09A.5.5,0,0,0,31.62,19Zm-9.82,2.4,0,0a.37.37,0,0,0-.12.07l-.09.06a.86.86,0,0,0-.07.1.39.39,0,0,0-.06.11s0,0,0,0L19,29.11,13.06,13.05l16,5.92Z"/>
    <path d="M9.43,10.33a.63.63,0,0,0,.88,0,.63.63,0,0,0,0-.88L7.48,6.62a.62.62,0,0,0-.88.88Z"/>
    <path d="M12,9.62A.62.62,0,0,0,12.62,9V5a.62.62,0,1,0-1.24,0V9A.62.62,0,0,0,12,9.62Z"/>
    <path d="M9.62,12A.62.62,0,0,0,9,11.38H5a.62.62,0,0,0,0,1.24H9A.62.62,0,0,0,9.62,12Z"/>
    <path d="M9.58,13.81,6.75,16.64a.63.63,0,0,0,0,.88.59.59,0,0,0,.44.19.63.63,0,0,0,.45-.19l2.83-2.83a.63.63,0,0,0,0-.88A.64.64,0,0,0,9.58,13.81Z"/>
    <path d="M14.25,10.65a.64.64,0,0,0,.45-.19l2.83-2.83a.63.63,0,1,0-.89-.88L13.81,9.58a.63.63,0,0,0,.44,1.07Z"/>
  </g>
</svg>
