<svg id="aec3a132-0036-4f01-a979-aab95a3db394" data-name="Icon" xmlns="http://www.w3.org/2000/svg" viewBox="0 0 36 36"><title>Cloud automation icon - Black</title>
<metadata><?xpacket begin="﻿" id="W5M0MpCehiHzreSzNTczkc9d"?>
<x:xmpmeta xmlns:x="adobe:ns:meta/" x:xmptk="Adobe XMP Core 8.0-c001 1.000000, 0000/00/00-00:00:00        ">
   <rdf:RDF xmlns:rdf="http://www.w3.org/1999/02/22-rdf-syntax-ns#">
      <rdf:Description rdf:about=""
            xmlns:xmp="http://ns.adobe.com/xap/1.0/"
            xmlns:dc="http://purl.org/dc/elements/1.1/"
            xmlns:cq="http://www.day.com/jcr/cq/1.0"
            xmlns:tiff="http://ns.adobe.com/tiff/1.0/">
         <xmp:rhcc-effective-on>2023-12-08T17:42:33.994Z</xmp:rhcc-effective-on>
         <xmp:rhcc-metadata-complete-moderator>pending</xmp:rhcc-metadata-complete-moderator>
         <xmp:rhcc-translation-id>TRA36aba550-167b-4f6f-b258-0732afd2d4c7</xmp:rhcc-translation-id>
         <xmp:brand-content-type>Icon</xmp:brand-content-type>
         <xmp:CreateDate>2023-12-08T17:42:33.994Z</xmp:CreateDate>
         <xmp:rhcc-effective-on-set-on-upload>true</xmp:rhcc-effective-on-set-on-upload>
         <xmp:rhcc-metadata-complete-uploader>pending</xmp:rhcc-metadata-complete-uploader>
         <xmp:rhcc-file-last-modified>2023-12-08T17:42:54.037Z</xmp:rhcc-file-last-modified>
         <xmp:rhcc-audience>rhcc-audience:internal</xmp:rhcc-audience>
         <xmp:rhcc-rights-restricted>no</xmp:rhcc-rights-restricted>
         <xmp:brand-content-subtype>Icon</xmp:brand-content-subtype>
         <xmp:rhcc-derivative-id>DER36aba550-167b-4f6f-b258-0732afd2d4c7</xmp:rhcc-derivative-id>
         <xmp:brand-logo-color>Black</xmp:brand-logo-color>
         <xmp:rhcc-notify-portal-subscribers-on-change>yes</xmp:rhcc-notify-portal-subscribers-on-change>
         <dc:format>image/svg+xml</dc:format>
         <dc:modified>2024-02-09T20:15:16.898Z</dc:modified>
         <dc:title>
            <rdf:Alt>
               <rdf:li xml:lang="x-default">Cloud automation icon - Black</rdf:li>
            </rdf:Alt>
         </dc:title>
         <cq:lastReplicationAction_scene7>Activate</cq:lastReplicationAction_scene7>
         <cq:lastReplicationAction_publish>Activate</cq:lastReplicationAction_publish>
         <cq:lastReplicated_publish>2024-02-09T21:52:01.097Z</cq:lastReplicated_publish>
         <cq:lastReplicatedBy>workflow-process-service</cq:lastReplicatedBy>
         <cq:lastReplicationAction>Activate</cq:lastReplicationAction>
         <cq:lastReplicatedBy_publish>workflow-process-service</cq:lastReplicatedBy_publish>
         <cq:isDelivered>true</cq:isDelivered>
         <cq:lastReplicated>2024-02-09T21:52:01.097Z</cq:lastReplicated>
         <cq:lastReplicatedBy_scene7>workflow-process-service</cq:lastReplicatedBy_scene7>
         <cq:lastReplicated_scene7>2024-02-09T21:52:01.097Z</cq:lastReplicated_scene7>
         <tiff:ImageLength>36</tiff:ImageLength>
         <tiff:ImageWidth>36</tiff:ImageWidth>
      </rdf:Description>
   </rdf:RDF>
</x:xmpmeta>
                                                                                                    
                                                                                                    
                                                                                                    
                                                                                                    
                                                                                                    
                                                                                                    
                                                                                                    
                                                                                                    
                                                                                                    
                                                                                                    
                                 
<?xpacket end="w"?></metadata>
<path d="M28.62,15.52c-.05-9.6-12.95-12.64-17.28-4.09a7.12,7.12,0,1,0-.84,14.19H11a.62.62,0,0,0,0-1.24h-.5C2,23.92,3.15,11.59,11.59,12.73a.64.64,0,0,0,.69-.36c3.59-8,15.4-5.21,15.08,3.52V16a.63.63,0,0,0,.56.66,3.87,3.87,0,0,1-.41,7.71H27a.62.62,0,0,0,0,1.24h.5A5.12,5.12,0,0,0,28.62,15.52Z"/><path d="M24,24.38H22.9a4,4,0,0,0-.7-1.69l.78-.78a.63.63,0,0,0-.89-.89l-.78.78a4,4,0,0,0-1.69-.69V20a.62.62,0,0,0-1.24,0v1.11a4,4,0,0,0-1.69.69L15.91,21a.63.63,0,0,0-.89.89l.78.78a4,4,0,0,0-.7,1.69H14a.62.62,0,0,0,0,1.24h1.1a4,4,0,0,0,.7,1.69l-.78.78a.63.63,0,0,0,.89.89l.78-.78a4,4,0,0,0,1.69.69V30a.62.62,0,0,0,1.24,0V28.89a4,4,0,0,0,1.69-.69l.78.78a.63.63,0,0,0,.89-.89l-.78-.78a4,4,0,0,0,.7-1.69H24A.62.62,0,0,0,24,24.38Zm-5,3.33a2.71,2.71,0,0,1,0-5.42A2.71,2.71,0,0,1,19,27.71Z"/></svg>