<?xml version="1.0" encoding="UTF-8"?><svg id="uuid-2be4bfd2-5426-4cf9-9b37-32d84b680ac2" xmlns="http://www.w3.org/2000/svg" viewBox="0 0 36 36"><metadata><?xpacket begin="﻿" id="W5M0MpCehiHzreSzNTczkc9d"?>
<x:xmpmeta xmlns:x="adobe:ns:meta/" x:xmptk="Adobe XMP Core 8.0-c001 1.000000, 0000/00/00-00:00:00        ">
   <rdf:RDF xmlns:rdf="http://www.w3.org/1999/02/22-rdf-syntax-ns#">
      <rdf:Description rdf:about=""
            xmlns:xmp="http://ns.adobe.com/xap/1.0/"
            xmlns:dc="http://purl.org/dc/elements/1.1/"
            xmlns:cq="http://www.day.com/jcr/cq/1.0"
            xmlns:tiff="http://ns.adobe.com/tiff/1.0/">
         <xmp:rhcc-effective-on>2023-12-08T17:42:42.827Z</xmp:rhcc-effective-on>
         <xmp:rhcc-metadata-complete-moderator>pending</xmp:rhcc-metadata-complete-moderator>
         <xmp:rhcc-translation-id>TRA1b6f3050-fc9c-4c3d-b3f2-0261095f014f</xmp:rhcc-translation-id>
         <xmp:CreateDate>2023-12-08T17:42:42.827Z</xmp:CreateDate>
         <xmp:rhcc-effective-on-set-on-upload>true</xmp:rhcc-effective-on-set-on-upload>
         <xmp:rhcc-metadata-complete-uploader>pending</xmp:rhcc-metadata-complete-uploader>
         <xmp:rhcc-file-last-modified>2023-12-08T17:43:01.785Z</xmp:rhcc-file-last-modified>
         <xmp:rhcc-audience>rhcc-audience:internal</xmp:rhcc-audience>
         <xmp:rhcc-rights-restricted>no</xmp:rhcc-rights-restricted>
         <xmp:rhcc-derivative-id>DER1b6f3050-fc9c-4c3d-b3f2-0261095f014f</xmp:rhcc-derivative-id>
         <xmp:rhcc-notify-portal-subscribers-on-change>yes</xmp:rhcc-notify-portal-subscribers-on-change>
         <dc:format>image/svg+xml</dc:format>
         <dc:modified>2024-02-09T20:15:54.385Z</dc:modified>
         <cq:lastReplicationAction_scene7>Activate</cq:lastReplicationAction_scene7>
         <cq:lastReplicationAction_publish>Activate</cq:lastReplicationAction_publish>
         <cq:lastReplicated_publish>2024-02-09T21:52:54.450Z</cq:lastReplicated_publish>
         <cq:lastReplicatedBy>workflow-process-service</cq:lastReplicatedBy>
         <cq:lastReplicationAction>Activate</cq:lastReplicationAction>
         <cq:lastReplicatedBy_publish>workflow-process-service</cq:lastReplicatedBy_publish>
         <cq:isDelivered>false</cq:isDelivered>
         <cq:lastReplicated>2024-02-09T21:52:54.450Z</cq:lastReplicated>
         <cq:lastReplicatedBy_scene7>workflow-process-service</cq:lastReplicatedBy_scene7>
         <cq:lastReplicated_scene7>2024-02-09T21:52:54.450Z</cq:lastReplicated_scene7>
         <tiff:ImageLength>36</tiff:ImageLength>
         <tiff:ImageWidth>36</tiff:ImageWidth>
      </rdf:Description>
   </rdf:RDF>
</x:xmpmeta>
                                                                                                    
                                                                                                    
                                                                                                    
                                                                                                    
                                                                                                    
                                                                                                    
                                                                                                    
                                                                                                    
                                                                                                    
                                                                                                    
                                
<?xpacket end="w"?></metadata>
<path d="m28.625,12.52246v-.02246c0-5.03125-4.09326-9.125-9.125-9.125-3.47119,0-6.62451,1.96777-8.16406,5.05176-.28369-.03418-.56348-.05176-.83594-.05176-3.92871,0-7.125,3.19629-7.125,7.125,0,3.32031,2.25391,6.17188,5.48096,6.93457.34375.08301.67285-.12793.75244-.46484.0791-.33594-.12891-.67285-.46436-.75195-2.66064-.62891-4.51904-2.98047-4.51904-5.71777,0-3.23926,2.63574-5.875,5.875-5.875.354,0,.71045.03418,1.08887.10547.2832.05176.57227-.09766.68848-.36523,1.25195-2.87988,4.08691-4.74023,7.22266-4.74023,4.34229,0,7.875,3.53223,7.875,7.875,0,.12988-.00928.25781-.01807.38574l-.0083.12207c-.02148.33398.22461.62598.55762.66113,1.97754.20996,3.46875,1.85645,3.46875,3.83105,0,2.13672-1.73828,3.875-3.875,3.875h-.5c-.34521,0-.625.28027-.625.625s.27979.625.625.625h.5c2.82617,0,5.125-2.29883,5.125-5.125,0-2.41602-1.68262-4.46094-4-4.97754Z"/><path d="m28,24.375c-1.23083,0-2.25922.85498-2.5415,2h-.4585c-.7583,0-1.375-.61719-1.375-1.375v-6.49103l.93311.93341c.12207.12207.28174.18262.44189.18262s.31982-.06055.44189-.18262c.24414-.24414.24414-.64062,0-.88477l-2-2c-.01624-.01624-.03748-.02246-.05499-.03656-.04584-.03705-.09161-.07452-.14685-.09753-.15356-.06396-.32648-.06396-.48004,0-.0556.02319-.10187.06085-.14795.09827-.01715.01385-.03802.0199-.05396.03583l-2,2c-.24414.24414-.24414.64062,0,.88477s.63965.24414.88379,0l.93311-.93341v6.49103c0,1.44727,1.17773,2.625,2.625,2.625h.4585c.28229,1.14502,1.31067,2,2.5415,2,1.44727,0,2.625-1.17773,2.625-2.625s-1.17773-2.625-2.625-2.625Zm0,4c-.7583,0-1.375-.61719-1.375-1.375s.6167-1.375,1.375-1.375,1.375.61719,1.375,1.375-.6167,1.375-1.375,1.375Z"/><path d="m19.55811,29.55762l-.93311.93341v-14.94952c1.14502-.28229,2-1.31067,2-2.5415,0-1.44727-1.17773-2.625-2.625-2.625s-2.625,1.17773-2.625,2.625c0,1.23083.85498,2.25922,2,2.5415v14.94952l-.93311-.93341c-.24414-.24414-.63965-.24414-.88379,0s-.24414.64062,0,.88477l2,2c.01483.01483.03436.02032.05023.03333.04712.03882.09485.07703.15204.10083.0766.03168.15784.04846.23962.04846s.16302-.01678.23962-.04846c.05719-.0238.10492-.06201.15204-.10083.01587-.013.0354-.01849.05023-.03333l2-2c.24414-.24414.24414-.64062,0-.88477s-.63965-.24414-.88379,0Zm-2.93311-16.55762c0-.75781.6167-1.375,1.375-1.375s1.375.61719,1.375,1.375-.6167,1.375-1.375,1.375-1.375-.61719-1.375-1.375Z"/><path d="m15.44189,18.55762l-2-2c-.01624-.01624-.03748-.02246-.05499-.03656-.04584-.03705-.09161-.07452-.14685-.09753-.15356-.06396-.32648-.06396-.48004,0-.0556.02319-.10187.06085-.14795.09827-.01715.01385-.03802.0199-.05396.03583l-2,2c-.24414.24414-.24414.64062,0,.88477s.63965.24414.88379,0l.93311-.93341v6.49103c0,.75781-.6167,1.375-1.375,1.375h-.4585c-.28229-1.14502-1.31067-2-2.5415-2-1.44727,0-2.625,1.17773-2.625,2.625s1.17773,2.625,2.625,2.625c1.23083,0,2.25922-.85498,2.5415-2h.4585c1.44727,0,2.625-1.17773,2.625-2.625v-6.49103l.93311.93341c.12207.12207.28174.18262.44189.18262s.31982-.06055.44189-.18262c.24414-.24414.24414-.64062,0-.88477Zm-7.44189,9.81738c-.7583,0-1.375-.61719-1.375-1.375s.6167-1.375,1.375-1.375,1.375.61719,1.375,1.375-.6167,1.375-1.375,1.375Z"/></svg>