<svg id="ec487ee7-f943-4b3c-ab43-e2a08b7bb5b6" data-name="Icon" xmlns="http://www.w3.org/2000/svg" viewBox="0 0 36 36">
  <title>Cluster icon - Black</title>
<desc>SaaS, service, access, drive, storage, connection, open, code, development, private, public, upload, download, internet, online, software and technologies</desc>
<metadata><?xpacket begin="﻿" id="W5M0MpCehiHzreSzNTczkc9d"?>
<x:xmpmeta xmlns:x="adobe:ns:meta/" x:xmptk="Adobe XMP Core 8.0-c001 1.000000, 0000/00/00-00:00:00        ">
   <rdf:RDF xmlns:rdf="http://www.w3.org/1999/02/22-rdf-syntax-ns#">
      <rdf:Description rdf:about=""
            xmlns:xmp="http://ns.adobe.com/xap/1.0/"
            xmlns:dc="http://purl.org/dc/elements/1.1/"
            xmlns:cq="http://www.day.com/jcr/cq/1.0"
            xmlns:tiff="http://ns.adobe.com/tiff/1.0/">
         <xmp:rhcc-effective-on>2023-12-08T17:42:44.917Z</xmp:rhcc-effective-on>
         <xmp:rhcc-metadata-complete-moderator>pending</xmp:rhcc-metadata-complete-moderator>
         <xmp:rhcc-translation-id>TRA5b31ddb4-e5df-4ae9-b615-9de4d7733bf5</xmp:rhcc-translation-id>
         <xmp:brand-content-type>Icon</xmp:brand-content-type>
         <xmp:CreateDate>2023-12-08T17:42:44.917Z</xmp:CreateDate>
         <xmp:rhcc-effective-on-set-on-upload>true</xmp:rhcc-effective-on-set-on-upload>
         <xmp:rhcc-metadata-complete-uploader>pending</xmp:rhcc-metadata-complete-uploader>
         <xmp:rhcc-file-last-modified>2023-12-08T17:43:01.785Z</xmp:rhcc-file-last-modified>
         <xmp:rhcc-audience>rhcc-audience:internal</xmp:rhcc-audience>
         <xmp:rhcc-rights-restricted>no</xmp:rhcc-rights-restricted>
         <xmp:brand-content-subtype>Icon</xmp:brand-content-subtype>
         <xmp:rhcc-derivative-id>DER5b31ddb4-e5df-4ae9-b615-9de4d7733bf5</xmp:rhcc-derivative-id>
         <xmp:brand-logo-color>Black</xmp:brand-logo-color>
         <xmp:rhcc-notify-portal-subscribers-on-change>yes</xmp:rhcc-notify-portal-subscribers-on-change>
         <dc:format>image/svg+xml</dc:format>
         <dc:modified>2024-02-09T20:15:59.886Z</dc:modified>
         <dc:title>
            <rdf:Alt>
               <rdf:li xml:lang="x-default">Cluster icon - Black</rdf:li>
            </rdf:Alt>
         </dc:title>
         <dc:description>
            <rdf:Alt>
               <rdf:li xml:lang="x-default">SaaS, service, access, drive, storage, connection, open, code, development, private, public, upload, download, internet, online, software and technologies</rdf:li>
            </rdf:Alt>
         </dc:description>
         <cq:lastReplicationAction_scene7>Activate</cq:lastReplicationAction_scene7>
         <cq:lastReplicationAction_publish>Activate</cq:lastReplicationAction_publish>
         <cq:lastReplicated_publish>2024-02-09T21:53:01.199Z</cq:lastReplicated_publish>
         <cq:lastReplicatedBy>workflow-process-service</cq:lastReplicatedBy>
         <cq:lastReplicationAction>Activate</cq:lastReplicationAction>
         <cq:lastReplicatedBy_publish>workflow-process-service</cq:lastReplicatedBy_publish>
         <cq:isDelivered>true</cq:isDelivered>
         <cq:lastReplicated>2024-02-09T21:53:01.199Z</cq:lastReplicated>
         <cq:lastReplicatedBy_scene7>workflow-process-service</cq:lastReplicatedBy_scene7>
         <cq:lastReplicated_scene7>2024-02-09T21:53:01.199Z</cq:lastReplicated_scene7>
         <tiff:ImageLength>36</tiff:ImageLength>
         <tiff:ImageWidth>36</tiff:ImageWidth>
      </rdf:Description>
   </rdf:RDF>
</x:xmpmeta>
                                                                                                    
                                                                                                    
                                                                                                    
                                                                                                    
                                                                                                    
                                                                                                    
                                                                                                    
                                                                                                    
                                                                                                    
                                                                                                    
                                 
<?xpacket end="w"?></metadata>
<path d="M26.46,18.62a2.62,2.62,0,1,0,0-1.24h-4.9a3.56,3.56,0,0,0-.6-1.46l6.69-6.68A2.56,2.56,0,0,0,29,9.62,2.62,2.62,0,1,0,26.38,7a2.56,2.56,0,0,0,.38,1.35L20.08,15a3.56,3.56,0,0,0-1.46-.6V9.54a2.62,2.62,0,1,0-1.24,0v4.9a3.56,3.56,0,0,0-1.46.6L9.24,8.35A2.56,2.56,0,0,0,9.62,7,2.62,2.62,0,1,0,7,9.62a2.56,2.56,0,0,0,1.35-.38L15,15.92a3.56,3.56,0,0,0-.6,1.46H9.54a2.62,2.62,0,1,0,0,1.24h4.9a3.56,3.56,0,0,0,.6,1.46L8.35,26.76A2.56,2.56,0,0,0,7,26.38,2.62,2.62,0,1,0,9.62,29a2.56,2.56,0,0,0-.38-1.35L15.92,21a3.56,3.56,0,0,0,1.46.6v4.9a2.62,2.62,0,1,0,1.24,0v-4.9a3.56,3.56,0,0,0,1.46-.6l6.68,6.69A2.56,2.56,0,0,0,26.38,29,2.62,2.62,0,1,0,29,26.38a2.56,2.56,0,0,0-1.35.38L21,20.08a3.56,3.56,0,0,0,.6-1.46Zm2.54-2A1.38,1.38,0,1,1,27.62,18,1.38,1.38,0,0,1,29,16.62Zm0-11A1.38,1.38,0,1,1,27.62,7,1.38,1.38,0,0,1,29,5.62ZM5.62,7A1.38,1.38,0,1,1,7,8.38,1.38,1.38,0,0,1,5.62,7ZM7,19.38A1.38,1.38,0,1,1,8.38,18,1.38,1.38,0,0,1,7,19.38Zm0,11A1.38,1.38,0,1,1,8.38,29,1.38,1.38,0,0,1,7,30.38ZM30.38,29A1.38,1.38,0,1,1,29,27.62,1.38,1.38,0,0,1,30.38,29ZM16.62,7A1.38,1.38,0,1,1,18,8.38,1.38,1.38,0,0,1,16.62,7Zm2.76,22A1.38,1.38,0,1,1,18,27.62,1.38,1.38,0,0,1,19.38,29ZM18,20.38A2.38,2.38,0,1,1,20.38,18,2.39,2.39,0,0,1,18,20.38Z"/>
</svg>
