<?xml version="1.0" encoding="UTF-8"?><svg id="uuid-34afd0e2-7f6a-4a2b-a282-980a70448d75" xmlns="http://www.w3.org/2000/svg" viewBox="0 0 36 36"><title>Coaxial cable icon - Black</title>
<desc>cable, television, TV, watch, stream, TME, antenna, cord, plug, data, video, hardware</desc>
<metadata><?xpacket begin="﻿" id="W5M0MpCehiHzreSzNTczkc9d"?>
<x:xmpmeta xmlns:x="adobe:ns:meta/" x:xmptk="Adobe XMP Core 8.0-c001 1.000000, 0000/00/00-00:00:00        ">
   <rdf:RDF xmlns:rdf="http://www.w3.org/1999/02/22-rdf-syntax-ns#">
      <rdf:Description rdf:about=""
            xmlns:xmp="http://ns.adobe.com/xap/1.0/"
            xmlns:dc="http://purl.org/dc/elements/1.1/"
            xmlns:cq="http://www.day.com/jcr/cq/1.0"
            xmlns:tiff="http://ns.adobe.com/tiff/1.0/">
         <xmp:rhcc-effective-on>2023-12-08T17:34:10.155Z</xmp:rhcc-effective-on>
         <xmp:rhcc-metadata-complete-moderator>pending</xmp:rhcc-metadata-complete-moderator>
         <xmp:rhcc-translation-id>TRA3d777e77-bb17-441b-b1fe-b939c3ecef76</xmp:rhcc-translation-id>
         <xmp:brand-content-type>Icon</xmp:brand-content-type>
         <xmp:CreateDate>2023-12-08T17:34:10.155Z</xmp:CreateDate>
         <xmp:rhcc-effective-on-set-on-upload>true</xmp:rhcc-effective-on-set-on-upload>
         <xmp:rhcc-metadata-complete-uploader>pending</xmp:rhcc-metadata-complete-uploader>
         <xmp:rhcc-file-last-modified>2023-12-08T17:34:20.156Z</xmp:rhcc-file-last-modified>
         <xmp:rhcc-audience>rhcc-audience:internal</xmp:rhcc-audience>
         <xmp:rhcc-rights-restricted>no</xmp:rhcc-rights-restricted>
         <xmp:brand-content-subtype>Icon</xmp:brand-content-subtype>
         <xmp:rhcc-derivative-id>DER3d777e77-bb17-441b-b1fe-b939c3ecef76</xmp:rhcc-derivative-id>
         <xmp:brand-logo-color>Black</xmp:brand-logo-color>
         <xmp:rhcc-notify-portal-subscribers-on-change>yes</xmp:rhcc-notify-portal-subscribers-on-change>
         <dc:format>image/svg+xml</dc:format>
         <dc:modified>2024-02-09T20:11:06.672Z</dc:modified>
         <dc:title>
            <rdf:Alt>
               <rdf:li xml:lang="x-default">Coaxial cable icon - Black</rdf:li>
            </rdf:Alt>
         </dc:title>
         <dc:description>
            <rdf:Alt>
               <rdf:li xml:lang="x-default">cable, television, TV, watch, stream, TME, antenna, cord, plug, data, video, hardware</rdf:li>
            </rdf:Alt>
         </dc:description>
         <cq:lastReplicationAction_scene7>Activate</cq:lastReplicationAction_scene7>
         <cq:lastReplicationAction_publish>Activate</cq:lastReplicationAction_publish>
         <cq:lastReplicated_publish>2024-02-09T21:46:17.580Z</cq:lastReplicated_publish>
         <cq:lastReplicatedBy>workflow-process-service</cq:lastReplicatedBy>
         <cq:lastReplicationAction>Activate</cq:lastReplicationAction>
         <cq:lastReplicatedBy_publish>workflow-process-service</cq:lastReplicatedBy_publish>
         <cq:isDelivered>true</cq:isDelivered>
         <cq:lastReplicated>2024-02-09T21:46:17.580Z</cq:lastReplicated>
         <cq:lastReplicatedBy_scene7>workflow-process-service</cq:lastReplicatedBy_scene7>
         <cq:lastReplicated_scene7>2024-02-09T21:46:17.580Z</cq:lastReplicated_scene7>
         <tiff:ImageLength>36</tiff:ImageLength>
         <tiff:ImageWidth>36</tiff:ImageWidth>
      </rdf:Description>
   </rdf:RDF>
</x:xmpmeta>
                                                                                                    
                                                                                                    
                                                                                                    
                                                                                                    
                                                                                                    
                                                                                                    
                                                                                                    
                                                                                                    
                                                                                                    
                                                                                                    
                                 
<?xpacket end="w"?></metadata>
<path d="M25.5,18.88H10.5c-6.44-.21-6.44-9.55,0-9.75h2c.25,.59,.82,1,1.5,1h1.38v1.38c0,.34,.28,.62,.62,.62h8c.35,0,.62-.28,.62-.62v-.38h1.38c.35,0,.62-.28,.62-.62v-1.38h2.38c.82,0,.82-1.25,0-1.25h-2.38v-1.38c0-.34-.28-.62-.62-.62h-1.38v-.38c0-.34-.28-.62-.62-.62h-8c-.35,0-.62,.28-.62,.62v1.38h-1.38c-.67,0-1.25,.41-1.5,1h-2c-8.11,.29-8.1,11.96,0,12.25h15c6.44,.21,6.44,9.55,0,9.75H9c-.82,0-.82,1.25,0,1.25H25.5c8.11-.29,8.1-11.96,0-12.25Zm-.12-11.75v2.75h-.75v-2.75h.75Zm-8.75-1h6.75v4.75h-6.75V6.12Zm-2.62,2h1.38v.75h-1.38c-.49,0-.49-.76,0-.75Z"/></svg>