<?xml version="1.0" encoding="UTF-8"?>
<svg id="uuid-8fe26cbf-8316-4030-925b-02928ae6bb0c" data-name="Icon" xmlns="http://www.w3.org/2000/svg" viewBox="0 0 36 36">
  <title>Coffee beans icon - Black</title>
<desc>drink, breakfast, mug, break room, office, bag, cafe, latte, americano, brew, pot, food and drink</desc>
<metadata><?xpacket begin="﻿" id="W5M0MpCehiHzreSzNTczkc9d"?>
<x:xmpmeta xmlns:x="adobe:ns:meta/" x:xmptk="Adobe XMP Core 8.0-c001 1.000000, 0000/00/00-00:00:00        ">
   <rdf:RDF xmlns:rdf="http://www.w3.org/1999/02/22-rdf-syntax-ns#">
      <rdf:Description rdf:about=""
            xmlns:xmp="http://ns.adobe.com/xap/1.0/"
            xmlns:dc="http://purl.org/dc/elements/1.1/"
            xmlns:cq="http://www.day.com/jcr/cq/1.0"
            xmlns:tiff="http://ns.adobe.com/tiff/1.0/">
         <xmp:rhcc-effective-on>2023-12-08T17:45:30.830Z</xmp:rhcc-effective-on>
         <xmp:rhcc-metadata-complete-moderator>pending</xmp:rhcc-metadata-complete-moderator>
         <xmp:rhcc-translation-id>TRAa06926f3-670e-4b6e-bf2c-c4e9b7006c0d</xmp:rhcc-translation-id>
         <xmp:brand-content-type>Icon</xmp:brand-content-type>
         <xmp:CreateDate>2023-12-08T17:45:30.830Z</xmp:CreateDate>
         <xmp:rhcc-effective-on-set-on-upload>true</xmp:rhcc-effective-on-set-on-upload>
         <xmp:rhcc-metadata-complete-uploader>pending</xmp:rhcc-metadata-complete-uploader>
         <xmp:rhcc-file-last-modified>2023-12-08T17:45:40.636Z</xmp:rhcc-file-last-modified>
         <xmp:rhcc-audience>rhcc-audience:internal</xmp:rhcc-audience>
         <xmp:rhcc-rights-restricted>no</xmp:rhcc-rights-restricted>
         <xmp:brand-content-subtype>Icon</xmp:brand-content-subtype>
         <xmp:rhcc-derivative-id>DERa06926f3-670e-4b6e-bf2c-c4e9b7006c0d</xmp:rhcc-derivative-id>
         <xmp:brand-logo-color>Black</xmp:brand-logo-color>
         <xmp:rhcc-notify-portal-subscribers-on-change>yes</xmp:rhcc-notify-portal-subscribers-on-change>
         <dc:format>image/svg+xml</dc:format>
         <dc:modified>2024-02-09T20:36:12.970Z</dc:modified>
         <dc:title>
            <rdf:Alt>
               <rdf:li xml:lang="x-default">Coffee beans icon - Black</rdf:li>
            </rdf:Alt>
         </dc:title>
         <dc:description>
            <rdf:Alt>
               <rdf:li xml:lang="x-default">drink, breakfast, mug, break room, office, bag, cafe, latte, americano, brew, pot, food and drink</rdf:li>
            </rdf:Alt>
         </dc:description>
         <cq:lastReplicationAction_scene7>Activate</cq:lastReplicationAction_scene7>
         <cq:lastReplicationAction_publish>Activate</cq:lastReplicationAction_publish>
         <cq:lastReplicated_publish>2024-02-09T22:23:45.580Z</cq:lastReplicated_publish>
         <cq:lastReplicatedBy>workflow-process-service</cq:lastReplicatedBy>
         <cq:lastReplicationAction>Activate</cq:lastReplicationAction>
         <cq:lastReplicatedBy_publish>workflow-process-service</cq:lastReplicatedBy_publish>
         <cq:isDelivered>true</cq:isDelivered>
         <cq:lastReplicated>2024-02-09T22:23:45.580Z</cq:lastReplicated>
         <cq:lastReplicatedBy_scene7>workflow-process-service</cq:lastReplicatedBy_scene7>
         <cq:lastReplicated_scene7>2024-02-09T22:23:45.580Z</cq:lastReplicated_scene7>
         <tiff:ImageLength>36</tiff:ImageLength>
         <tiff:ImageWidth>36</tiff:ImageWidth>
      </rdf:Description>
   </rdf:RDF>
</x:xmpmeta>
                                                                                                    
                                                                                                    
                                                                                                    
                                                                                                    
                                                                                                    
                                                                                                    
                                                                                                    
                                                                                                    
                                                                                                    
                                                                                                    
                                 
<?xpacket end="w"?></metadata>
<path d="m28.61,12.94s0-.04,0-.07l-.84-3.94v-3.93c0-.34-.28-.62-.62-.62H9s-.05.01-.07.02c-.03,0-.05-.02-.07-.02-.34,0-.62.28-.62.62v3.93l-.84,3.94s0,.04,0,.07c0,.02-.01.04-.01.06v18c0,.34.28.62.62.62h20c.34,0,.62-.28.62-.62V13s-.01-.04-.01-.06Zm-6.99-7.31h4.9v2.75h-4.9v-2.75Zm-1.25,0v7.75h-4.75v-7.75h4.75Zm-10.9,0h4.9v2.75h-4.9v-2.75Zm-.85,24.75V13.07l.73-3.44h5.02v4.38c0,.34.28.62.62.62h6c.34,0,.62-.28.62-.62v-4.38h5.02l.73,3.44v17.31H8.62Z"/>
  <path d="m14.74,18.24c-1.39,1.39-1.06,3.98.73,5.78t0,0c1.05,1.04,2.36,1.59,3.55,1.59.85,0,1.64-.28,2.22-.86,1.39-1.39,1.06-3.98-.73-5.78-1.79-1.79-4.39-2.12-5.78-.73Zm1.62,4.9c-1.06-1.06-1.46-2.5-1.07-3.47l4.54,4.54c-.97.39-2.4,0-3.47-1.07Zm4.35.19l-4.54-4.54c.97-.39,2.4,0,3.47,1.07,1.06,1.06,1.46,2.5,1.07,3.47Z"/>
</svg>