<?xml version="1.0" encoding="UTF-8"?><svg id="uuid-1bce0e04-bd4b-488e-9a67-dce9dd302507" xmlns="http://www.w3.org/2000/svg" viewBox="0 0 36 36"><title>Combustible icon - Black</title>
<desc>fire, trash, burn, ember, flame, hot, smoke, danger, shapes and signage</desc>
<metadata><?xpacket begin="﻿" id="W5M0MpCehiHzreSzNTczkc9d"?>
<x:xmpmeta xmlns:x="adobe:ns:meta/" x:xmptk="Adobe XMP Core 8.0-c001 1.000000, 0000/00/00-00:00:00        ">
   <rdf:RDF xmlns:rdf="http://www.w3.org/1999/02/22-rdf-syntax-ns#">
      <rdf:Description rdf:about=""
            xmlns:xmp="http://ns.adobe.com/xap/1.0/"
            xmlns:dc="http://purl.org/dc/elements/1.1/"
            xmlns:cq="http://www.day.com/jcr/cq/1.0"
            xmlns:tiff="http://ns.adobe.com/tiff/1.0/">
         <xmp:rhcc-effective-on>2023-12-08T17:37:49.652Z</xmp:rhcc-effective-on>
         <xmp:rhcc-metadata-complete-moderator>pending</xmp:rhcc-metadata-complete-moderator>
         <xmp:rhcc-translation-id>TRA7105d801-ab19-499c-b185-c46ed8749ab8</xmp:rhcc-translation-id>
         <xmp:brand-content-type>Icon</xmp:brand-content-type>
         <xmp:CreateDate>2023-12-08T17:37:49.652Z</xmp:CreateDate>
         <xmp:rhcc-effective-on-set-on-upload>true</xmp:rhcc-effective-on-set-on-upload>
         <xmp:rhcc-metadata-complete-uploader>pending</xmp:rhcc-metadata-complete-uploader>
         <xmp:rhcc-file-last-modified>2023-12-08T17:40:51.875Z</xmp:rhcc-file-last-modified>
         <xmp:rhcc-audience>rhcc-audience:internal</xmp:rhcc-audience>
         <xmp:rhcc-rights-restricted>no</xmp:rhcc-rights-restricted>
         <xmp:brand-content-subtype>Icon</xmp:brand-content-subtype>
         <xmp:rhcc-derivative-id>DER7105d801-ab19-499c-b185-c46ed8749ab8</xmp:rhcc-derivative-id>
         <xmp:brand-logo-color>Black</xmp:brand-logo-color>
         <xmp:rhcc-notify-portal-subscribers-on-change>yes</xmp:rhcc-notify-portal-subscribers-on-change>
         <dc:format>image/svg+xml</dc:format>
         <dc:modified>2024-02-09T20:27:47.423Z</dc:modified>
         <dc:title>
            <rdf:Alt>
               <rdf:li xml:lang="x-default">Combustible icon - Black</rdf:li>
            </rdf:Alt>
         </dc:title>
         <dc:description>
            <rdf:Alt>
               <rdf:li xml:lang="x-default">fire, trash, burn, ember, flame, hot, smoke, danger, shapes and signage</rdf:li>
            </rdf:Alt>
         </dc:description>
         <cq:lastReplicationAction_scene7>Activate</cq:lastReplicationAction_scene7>
         <cq:lastReplicationAction_publish>Activate</cq:lastReplicationAction_publish>
         <cq:lastReplicated_publish>2024-02-09T22:14:38.819Z</cq:lastReplicated_publish>
         <cq:lastReplicatedBy>workflow-process-service</cq:lastReplicatedBy>
         <cq:lastReplicationAction>Activate</cq:lastReplicationAction>
         <cq:lastReplicatedBy_publish>workflow-process-service</cq:lastReplicatedBy_publish>
         <cq:isDelivered>true</cq:isDelivered>
         <cq:lastReplicated>2024-02-09T22:14:38.819Z</cq:lastReplicated>
         <cq:lastReplicatedBy_scene7>workflow-process-service</cq:lastReplicatedBy_scene7>
         <cq:lastReplicated_scene7>2024-02-09T22:14:38.819Z</cq:lastReplicated_scene7>
         <tiff:ImageLength>36</tiff:ImageLength>
         <tiff:ImageWidth>36</tiff:ImageWidth>
      </rdf:Description>
   </rdf:RDF>
</x:xmpmeta>
                                                                                                    
                                                                                                    
                                                                                                    
                                                                                                    
                                                                                                    
                                                                                                    
                                                                                                    
                                                                                                    
                                                                                                    
                                                                                                    
                                 
<?xpacket end="w"?></metadata>
<path d="M24.38,13.5c-.19-.14-.44-.16-.65-.06-.21,.11-.35,.32-.35,.56,0,1.33-1.09,2.45-2.44,2.37,2.4-5.39-1.65-11.88-7.58-11.99-.1-.01-.2,0-.3,.03-.22,.08-.38,.28-.41,.52-.02,.17,.03,.35,.15,.48,.03,.03,.06,.06,.09,.09,1.66,1.56,1.96,4.27,.69,6.16-.19,.29-.11,.68,.18,.87,.29,.19,.68,.11,.86-.18,1.28-1.91,1.31-4.56,.1-6.51,4.57,.94,7.11,6.6,4.74,10.71-.19,.32-.01,.78,.35,.89,1.86,.68,4.03-.43,4.61-2.25,5.08,4.58,3.21,13.39-3.19,15.62,1.08-3.04-.16-6.58-2.9-8.29-.21-.13-.47-.13-.67,0-2.74,1.71-3.98,5.25-2.9,8.29-6.32-2.21-8.26-10.85-3.32-15.49,.25-.24,.25-.64,0-.88-.24-.25-.64-.25-.88,0-6.05,5.77-2.96,16.29,5.2,17.97,.24,.05,.49-.04,.64-.25,.15-.2,.16-.47,.03-.68-1.53-2.5-.81-5.97,1.57-7.67,2.37,1.7,3.09,5.17,1.57,7.67-.13,.21-.11,.48,.03,.68,.15,.2,.4,.3,.64,.25,8.81-1.87,11.41-13.52,4.14-18.88Z"/></svg>