<svg id="a1d9e491-5dbf-4c74-aaab-36ce213e1d46" data-name="Icon" xmlns="http://www.w3.org/2000/svg" viewBox="0 0 36 36">
  <title>Compass icon - Black</title>
<desc>location, survey, lost, found, search, north, south, east, west, camp, explore, hike, wilderness, directions, objects</desc>
<metadata><?xpacket begin="﻿" id="W5M0MpCehiHzreSzNTczkc9d"?>
<x:xmpmeta xmlns:x="adobe:ns:meta/" x:xmptk="Adobe XMP Core 8.0-c001 1.000000, 0000/00/00-00:00:00        ">
   <rdf:RDF xmlns:rdf="http://www.w3.org/1999/02/22-rdf-syntax-ns#">
      <rdf:Description rdf:about=""
            xmlns:xmp="http://ns.adobe.com/xap/1.0/"
            xmlns:dc="http://purl.org/dc/elements/1.1/"
            xmlns:cq="http://www.day.com/jcr/cq/1.0"
            xmlns:tiff="http://ns.adobe.com/tiff/1.0/">
         <xmp:rhcc-effective-on>2023-12-08T17:35:31.452Z</xmp:rhcc-effective-on>
         <xmp:rhcc-metadata-complete-moderator>pending</xmp:rhcc-metadata-complete-moderator>
         <xmp:rhcc-translation-id>TRA9349b23d-9094-4318-9781-d6a3df268c55</xmp:rhcc-translation-id>
         <xmp:brand-content-type>Icon</xmp:brand-content-type>
         <xmp:CreateDate>2023-12-08T17:35:31.452Z</xmp:CreateDate>
         <xmp:rhcc-effective-on-set-on-upload>true</xmp:rhcc-effective-on-set-on-upload>
         <xmp:rhcc-metadata-complete-uploader>pending</xmp:rhcc-metadata-complete-uploader>
         <xmp:rhcc-file-last-modified>2023-12-08T17:36:28.602Z</xmp:rhcc-file-last-modified>
         <xmp:rhcc-audience>rhcc-audience:internal</xmp:rhcc-audience>
         <xmp:rhcc-rights-restricted>no</xmp:rhcc-rights-restricted>
         <xmp:brand-content-subtype>Icon</xmp:brand-content-subtype>
         <xmp:rhcc-derivative-id>DER9349b23d-9094-4318-9781-d6a3df268c55</xmp:rhcc-derivative-id>
         <xmp:brand-logo-color>Black</xmp:brand-logo-color>
         <xmp:rhcc-notify-portal-subscribers-on-change>yes</xmp:rhcc-notify-portal-subscribers-on-change>
         <dc:format>image/svg+xml</dc:format>
         <dc:modified>2024-02-09T20:30:07.981Z</dc:modified>
         <dc:title>
            <rdf:Alt>
               <rdf:li xml:lang="x-default">Compass icon - Black</rdf:li>
            </rdf:Alt>
         </dc:title>
         <dc:description>
            <rdf:Alt>
               <rdf:li xml:lang="x-default">location, survey, lost, found, search, north, south, east, west, camp, explore, hike, wilderness, directions, objects</rdf:li>
            </rdf:Alt>
         </dc:description>
         <cq:lastReplicationAction_scene7>Activate</cq:lastReplicationAction_scene7>
         <cq:lastReplicationAction_publish>Activate</cq:lastReplicationAction_publish>
         <cq:lastReplicated_publish>2024-02-09T22:16:58.603Z</cq:lastReplicated_publish>
         <cq:lastReplicatedBy>workflow-process-service</cq:lastReplicatedBy>
         <cq:lastReplicationAction>Activate</cq:lastReplicationAction>
         <cq:lastReplicatedBy_publish>workflow-process-service</cq:lastReplicatedBy_publish>
         <cq:isDelivered>true</cq:isDelivered>
         <cq:lastReplicated>2024-02-09T22:16:58.603Z</cq:lastReplicated>
         <cq:lastReplicatedBy_scene7>workflow-process-service</cq:lastReplicatedBy_scene7>
         <cq:lastReplicated_scene7>2024-02-09T22:16:58.603Z</cq:lastReplicated_scene7>
         <tiff:ImageLength>36</tiff:ImageLength>
         <tiff:ImageWidth>36</tiff:ImageWidth>
      </rdf:Description>
   </rdf:RDF>
</x:xmpmeta>
                                                                                                    
                                                                                                    
                                                                                                    
                                                                                                    
                                                                                                    
                                                                                                    
                                                                                                    
                                                                                                    
                                                                                                    
                                                                                                    
                                 
<?xpacket end="w"?></metadata>
<g>
    <path d="M18,3.38A14.62,14.62,0,1,0,32.62,18,14.64,14.64,0,0,0,18,3.38Zm.62,28V29.85a.62.62,0,1,0-1.24,0v1.49A13.37,13.37,0,0,1,4.66,18.62H6.15a.62.62,0,1,0,0-1.24H4.66A13.37,13.37,0,0,1,17.38,4.66V6.15a.62.62,0,1,0,1.24,0V4.66A13.37,13.37,0,0,1,31.34,17.38H29.85a.62.62,0,1,0,0,1.24h1.49A13.37,13.37,0,0,1,18.62,31.34Z"/>
    <path d="M26.44,9.56a.62.62,0,0,0-.78-.08L16,15.78a.52.52,0,0,0-.18.18l-6.3,9.7a.62.62,0,0,0,.86.86l9.7-6.3a.52.52,0,0,0,.18-.18l6.3-9.7A.62.62,0,0,0,26.44,9.56Zm-7.19,9.69-7.12,4.62,4.62-7.12,7.12-4.62Z"/>
    <path d="M18,18.75a.62.62,0,0,0,.62-.62.63.63,0,0,0-1.25,0A.63.63,0,0,0,18,18.75Z"/>
    <circle cx="10" cy="10" r="0.62"/>
    <path d="M26,25.38a.62.62,0,1,0,.62.62A.62.62,0,0,0,26,25.38Z"/>
  </g>
</svg>
