<svg id="b879a985-db31-41b5-86d3-295c5144b69c" data-name="Icon" xmlns="http://www.w3.org/2000/svg" viewBox="0 0 36 36">
  <title>Container microservices icon - Black</title>
<desc>cube, kubernetes, K8s, code, application, development, developer, OpenShift, platform, hexagon, cloud, connection, software and technologies</desc>
<metadata><?xpacket begin="﻿" id="W5M0MpCehiHzreSzNTczkc9d"?>
<x:xmpmeta xmlns:x="adobe:ns:meta/" x:xmptk="Adobe XMP Core 8.0-c001 1.000000, 0000/00/00-00:00:00        ">
   <rdf:RDF xmlns:rdf="http://www.w3.org/1999/02/22-rdf-syntax-ns#">
      <rdf:Description rdf:about=""
            xmlns:xmp="http://ns.adobe.com/xap/1.0/"
            xmlns:dc="http://purl.org/dc/elements/1.1/"
            xmlns:cq="http://www.day.com/jcr/cq/1.0"
            xmlns:tiff="http://ns.adobe.com/tiff/1.0/">
         <xmp:rhcc-effective-on>2023-12-08T17:43:07.670Z</xmp:rhcc-effective-on>
         <xmp:rhcc-metadata-complete-moderator>pending</xmp:rhcc-metadata-complete-moderator>
         <xmp:rhcc-translation-id>TRAbdfe2fc5-d658-4b9c-a0cd-5e272787cfd5</xmp:rhcc-translation-id>
         <xmp:brand-content-type>Icon</xmp:brand-content-type>
         <xmp:CreateDate>2023-12-08T17:43:07.670Z</xmp:CreateDate>
         <xmp:rhcc-effective-on-set-on-upload>true</xmp:rhcc-effective-on-set-on-upload>
         <xmp:rhcc-metadata-complete-uploader>pending</xmp:rhcc-metadata-complete-uploader>
         <xmp:rhcc-file-last-modified>2023-12-08T17:44:11.899Z</xmp:rhcc-file-last-modified>
         <xmp:rhcc-audience>rhcc-audience:internal</xmp:rhcc-audience>
         <xmp:rhcc-rights-restricted>no</xmp:rhcc-rights-restricted>
         <xmp:brand-content-subtype>Icon</xmp:brand-content-subtype>
         <xmp:rhcc-derivative-id>DERbdfe2fc5-d658-4b9c-a0cd-5e272787cfd5</xmp:rhcc-derivative-id>
         <xmp:brand-logo-color>Black</xmp:brand-logo-color>
         <xmp:rhcc-notify-portal-subscribers-on-change>yes</xmp:rhcc-notify-portal-subscribers-on-change>
         <dc:format>image/svg+xml</dc:format>
         <dc:modified>2024-02-09T20:16:16.206Z</dc:modified>
         <dc:title>
            <rdf:Alt>
               <rdf:li xml:lang="x-default">Container microservices icon - Black</rdf:li>
            </rdf:Alt>
         </dc:title>
         <dc:description>
            <rdf:Alt>
               <rdf:li xml:lang="x-default">cube, kubernetes, K8s, code, application, development, developer, OpenShift, platform, hexagon, cloud, connection, software and technologies</rdf:li>
            </rdf:Alt>
         </dc:description>
         <cq:lastReplicationAction_scene7>Activate</cq:lastReplicationAction_scene7>
         <cq:lastReplicationAction_publish>Activate</cq:lastReplicationAction_publish>
         <cq:lastReplicated_publish>2024-02-09T21:53:15.901Z</cq:lastReplicated_publish>
         <cq:lastReplicatedBy>workflow-process-service</cq:lastReplicatedBy>
         <cq:lastReplicationAction>Activate</cq:lastReplicationAction>
         <cq:lastReplicatedBy_publish>workflow-process-service</cq:lastReplicatedBy_publish>
         <cq:isDelivered>true</cq:isDelivered>
         <cq:lastReplicated>2024-02-09T21:53:15.901Z</cq:lastReplicated>
         <cq:lastReplicatedBy_scene7>workflow-process-service</cq:lastReplicatedBy_scene7>
         <cq:lastReplicated_scene7>2024-02-09T21:53:15.901Z</cq:lastReplicated_scene7>
         <tiff:ImageLength>36</tiff:ImageLength>
         <tiff:ImageWidth>36</tiff:ImageWidth>
      </rdf:Description>
   </rdf:RDF>
</x:xmpmeta>
                                                                                                    
                                                                                                    
                                                                                                    
                                                                                                    
                                                                                                    
                                                                                                    
                                                                                                    
                                                                                                    
                                                                                                    
                                                                                                    
                                 
<?xpacket end="w"?></metadata>
<g>
    <path d="M26.42,11.86a.63.63,0,0,0-.62.63.63.63,0,0,0,1.25,0A.63.63,0,0,0,26.42,11.86Z"/>
    <path d="M28.25,11.86a.63.63,0,0,0-.62.63.63.63,0,0,0,1.25,0A.63.63,0,0,0,28.25,11.86Z"/>
    <path d="M31,9.5H15.29a.63.63,0,0,0-.62.63v2.94H11.52V11.76a.65.65,0,0,0-.31-.55l-3-1.7a.64.64,0,0,0-.63,0l-2.95,1.7a.65.65,0,0,0-.31.55v3.4a.63.63,0,0,0,.31.54l3,1.71a.71.71,0,0,0,.31.08.72.72,0,0,0,.32-.08l3-1.71a.63.63,0,0,0,.31-.54v-.84h3.15v7.33H11.52v-.81a.63.63,0,0,0-.31-.54l-3-1.71a.64.64,0,0,0-.63,0L4.68,20.3a.63.63,0,0,0-.31.54v3.4a.65.65,0,0,0,.31.55l3,1.7a.71.71,0,0,0,.31.08.72.72,0,0,0,.32-.08l3-1.7a.65.65,0,0,0,.31-.55V22.9h3.15v2.94a.63.63,0,0,0,.62.63H31a.63.63,0,0,0,.63-.63V10.13A.63.63,0,0,0,31,9.5ZM10.27,14.8,7.94,16.14,5.62,14.8V12.12l2.32-1.34,2.33,1.34Zm0,9.08L7.94,25.22,5.62,23.88V21.2l2.32-1.34,2.33,1.34Zm20.11,1.34H15.92V10.75H30.38Z"/>
  </g>
</svg>
