<svg id="a156f7ce-fe45-4645-b3ad-ae2b12110a56" data-name="Icon" xmlns="http://www.w3.org/2000/svg" viewBox="0 0 36 36">
  <title>Container registry icon - Black</title>
<desc>cube, kubernetes, K8s, code, application, development, developer, OpenShift, platform, hexagon, cloud, connection, software and technologies</desc>
<metadata><?xpacket begin="﻿" id="W5M0MpCehiHzreSzNTczkc9d"?>
<x:xmpmeta xmlns:x="adobe:ns:meta/" x:xmptk="Adobe XMP Core 8.0-c001 1.000000, 0000/00/00-00:00:00        ">
   <rdf:RDF xmlns:rdf="http://www.w3.org/1999/02/22-rdf-syntax-ns#">
      <rdf:Description rdf:about=""
            xmlns:xmp="http://ns.adobe.com/xap/1.0/"
            xmlns:dc="http://purl.org/dc/elements/1.1/"
            xmlns:cq="http://www.day.com/jcr/cq/1.0"
            xmlns:tiff="http://ns.adobe.com/tiff/1.0/">
         <xmp:rhcc-effective-on>2023-12-08T17:43:08.999Z</xmp:rhcc-effective-on>
         <xmp:rhcc-metadata-complete-moderator>pending</xmp:rhcc-metadata-complete-moderator>
         <xmp:rhcc-translation-id>TRA61fd0d3d-6882-40aa-ba9e-18cbcb581d39</xmp:rhcc-translation-id>
         <xmp:brand-content-type>Icon</xmp:brand-content-type>
         <xmp:CreateDate>2023-12-08T17:43:08.999Z</xmp:CreateDate>
         <xmp:rhcc-effective-on-set-on-upload>true</xmp:rhcc-effective-on-set-on-upload>
         <xmp:rhcc-metadata-complete-uploader>pending</xmp:rhcc-metadata-complete-uploader>
         <xmp:rhcc-file-last-modified>2023-12-08T17:44:11.199Z</xmp:rhcc-file-last-modified>
         <xmp:rhcc-audience>rhcc-audience:internal</xmp:rhcc-audience>
         <xmp:rhcc-rights-restricted>no</xmp:rhcc-rights-restricted>
         <xmp:brand-content-subtype>Icon</xmp:brand-content-subtype>
         <xmp:rhcc-derivative-id>DER61fd0d3d-6882-40aa-ba9e-18cbcb581d39</xmp:rhcc-derivative-id>
         <xmp:brand-logo-color>Black</xmp:brand-logo-color>
         <xmp:rhcc-notify-portal-subscribers-on-change>yes</xmp:rhcc-notify-portal-subscribers-on-change>
         <dc:format>image/svg+xml</dc:format>
         <dc:modified>2024-02-09T20:16:50.059Z</dc:modified>
         <dc:title>
            <rdf:Alt>
               <rdf:li xml:lang="x-default">Container registry icon - Black</rdf:li>
            </rdf:Alt>
         </dc:title>
         <dc:description>
            <rdf:Alt>
               <rdf:li xml:lang="x-default">cube, kubernetes, K8s, code, application, development, developer, OpenShift, platform, hexagon, cloud, connection, software and technologies</rdf:li>
            </rdf:Alt>
         </dc:description>
         <cq:lastReplicationAction_scene7>Activate</cq:lastReplicationAction_scene7>
         <cq:lastReplicationAction_publish>Activate</cq:lastReplicationAction_publish>
         <cq:lastReplicated_publish>2024-02-09T21:53:57.671Z</cq:lastReplicated_publish>
         <cq:lastReplicatedBy>workflow-process-service</cq:lastReplicatedBy>
         <cq:lastReplicationAction>Activate</cq:lastReplicationAction>
         <cq:lastReplicatedBy_publish>workflow-process-service</cq:lastReplicatedBy_publish>
         <cq:isDelivered>true</cq:isDelivered>
         <cq:lastReplicated>2024-02-09T21:53:57.671Z</cq:lastReplicated>
         <cq:lastReplicatedBy_scene7>workflow-process-service</cq:lastReplicatedBy_scene7>
         <cq:lastReplicated_scene7>2024-02-09T21:53:57.671Z</cq:lastReplicated_scene7>
         <tiff:ImageLength>36</tiff:ImageLength>
         <tiff:ImageWidth>36</tiff:ImageWidth>
      </rdf:Description>
   </rdf:RDF>
</x:xmpmeta>
                                                                                                    
                                                                                                    
                                                                                                    
                                                                                                    
                                                                                                    
                                                                                                    
                                                                                                    
                                                                                                    
                                                                                                    
                                                                                                    
                                 
<?xpacket end="w"?></metadata>
<g>
    <path d="M22.85,16.39a.63.63,0,0,0,.31-.54V10.62a.62.62,0,0,0-.31-.54L18.31,7.46a.62.62,0,0,0-.62,0l-4.54,2.62a.62.62,0,0,0-.31.54v5.23a.63.63,0,0,0,.31.54L17.69,19a.64.64,0,0,0,.62,0Zm-8.76-.9V11L18,8.72,21.91,11v4.51L18,17.75Z"/>
    <path d="M23.78,28.54l4.54-2.62a.62.62,0,0,0,.31-.54V20.15a.63.63,0,0,0-.31-.54L23.78,17a.62.62,0,0,0-.62,0l-4.54,2.62a.63.63,0,0,0-.31.54v5.23a.62.62,0,0,0,.31.54l4.54,2.62a.64.64,0,0,0,.62,0ZM19.56,25V20.51l3.91-2.26,3.91,2.26V25l-3.91,2.26Z"/>
    <path d="M12.84,17a.62.62,0,0,0-.62,0L7.68,19.61a.63.63,0,0,0-.31.54v5.23a.62.62,0,0,0,.31.54l4.54,2.62a.64.64,0,0,0,.62,0l4.54-2.62a.62.62,0,0,0,.31-.54V20.15a.63.63,0,0,0-.31-.54Zm3.6,8-3.91,2.26L8.62,25V20.51l3.91-2.26,3.91,2.26Z"/>
    <path d="M12,30.38H5.62V5.62H12a.62.62,0,0,0,0-1.24H5A.61.61,0,0,0,4.38,5V31a.61.61,0,0,0,.62.62h7a.62.62,0,0,0,0-1.24Z"/>
    <path d="M31,4.38H24a.62.62,0,0,0,0,1.24h6.38V30.38H24a.62.62,0,0,0,0,1.24h7a.61.61,0,0,0,.62-.62V5A.61.61,0,0,0,31,4.38Z"/>
  </g>
</svg>
