<?xml version="1.0" encoding="UTF-8"?>
<svg id="uuid-b31c3ab1-513a-4a5d-a5b0-9fa5cb024edd" data-name="Icon" xmlns="http://www.w3.org/2000/svg" viewBox="0 0 36 36">
  <metadata><?xpacket begin="﻿" id="W5M0MpCehiHzreSzNTczkc9d"?>
<x:xmpmeta xmlns:x="adobe:ns:meta/" x:xmptk="Adobe XMP Core 8.0-c001 1.000000, 0000/00/00-00:00:00        ">
   <rdf:RDF xmlns:rdf="http://www.w3.org/1999/02/22-rdf-syntax-ns#">
      <rdf:Description rdf:about=""
            xmlns:xmp="http://ns.adobe.com/xap/1.0/"
            xmlns:dc="http://purl.org/dc/elements/1.1/"
            xmlns:cq="http://www.day.com/jcr/cq/1.0"
            xmlns:tiff="http://ns.adobe.com/tiff/1.0/">
         <xmp:rhcc-effective-on>2023-12-08T17:41:00.515Z</xmp:rhcc-effective-on>
         <xmp:rhcc-metadata-complete-moderator>pending</xmp:rhcc-metadata-complete-moderator>
         <xmp:rhcc-translation-id>TRAd9f96020-77f0-4ef5-ba88-3063fa936f77</xmp:rhcc-translation-id>
         <xmp:CreateDate>2023-12-08T17:41:00.515Z</xmp:CreateDate>
         <xmp:rhcc-effective-on-set-on-upload>true</xmp:rhcc-effective-on-set-on-upload>
         <xmp:rhcc-metadata-complete-uploader>pending</xmp:rhcc-metadata-complete-uploader>
         <xmp:rhcc-file-last-modified>2023-12-08T17:42:21.397Z</xmp:rhcc-file-last-modified>
         <xmp:rhcc-audience>rhcc-audience:internal</xmp:rhcc-audience>
         <xmp:rhcc-rights-restricted>no</xmp:rhcc-rights-restricted>
         <xmp:rhcc-derivative-id>DERd9f96020-77f0-4ef5-ba88-3063fa936f77</xmp:rhcc-derivative-id>
         <xmp:rhcc-notify-portal-subscribers-on-change>yes</xmp:rhcc-notify-portal-subscribers-on-change>
         <dc:format>image/svg+xml</dc:format>
         <dc:modified>2024-02-09T20:26:12.484Z</dc:modified>
         <cq:lastReplicationAction_scene7>Activate</cq:lastReplicationAction_scene7>
         <cq:lastReplicationAction_publish>Activate</cq:lastReplicationAction_publish>
         <cq:lastReplicated_publish>2024-02-09T22:10:54.408Z</cq:lastReplicated_publish>
         <cq:lastReplicatedBy>workflow-process-service</cq:lastReplicatedBy>
         <cq:lastReplicationAction>Activate</cq:lastReplicationAction>
         <cq:lastReplicatedBy_publish>workflow-process-service</cq:lastReplicatedBy_publish>
         <cq:isDelivered>true</cq:isDelivered>
         <cq:lastReplicated>2024-02-09T22:10:54.408Z</cq:lastReplicated>
         <cq:lastReplicatedBy_scene7>workflow-process-service</cq:lastReplicatedBy_scene7>
         <cq:lastReplicated_scene7>2024-02-09T22:10:54.408Z</cq:lastReplicated_scene7>
         <tiff:ImageLength>36</tiff:ImageLength>
         <tiff:ImageWidth>36</tiff:ImageWidth>
      </rdf:Description>
   </rdf:RDF>
</x:xmpmeta>
                                                                                                    
                                                                                                    
                                                                                                    
                                                                                                    
                                                                                                    
                                                                                                    
                                                                                                    
                                                                                                    
                                                                                                    
                                                                                                    
                                 
<?xpacket end="w"?></metadata>
<path d="M15.56,11.44c.18,.18,.44,.24,.68,.14,.15-.06,.28-.2,.34-.34,.26-.61-.56-1.16-1.02-.68-.18,.17-.22,.45-.14,.68,.03,.07,.08,.14,.14,.2Z"/>
  <path d="M19.56,11.44c.3,.33,.86,.2,1.02-.2,.33-1.13-1.49-1.13-1.16,0,.03,.07,.08,.14,.14,.2Z"/>
  <path d="M31.44,22.56l-2-2c-.12-.12-.28-.18-.44-.18h-2.41c-.11-1.49-.59-2.87-1.36-4.06,.83-.44,1.39-1.32,1.39-2.32v-.44c4.3-.81,3.78-7.11-.63-7.19-.35,0-.62,.28-.62,.62v2.27l-2.19-.46c-.16-.03-.33,0-.47,.09-.14,.09-.24,.24-.27,.4-.42,1.98,.98,3.95,2.93,4.27v.44c0,.6-.39,1.09-.94,1.28-3.14-3.82-9.73-3.82-12.88,0-.54-.19-.94-.68-.94-1.28v-.44c1.95-.32,3.35-2.29,2.93-4.27-.03-.16-.13-.31-.27-.4-.14-.09-.31-.12-.47-.09l-2.19,.46v-2.27c0-.34-.28-.62-.62-.62-4.41,.08-4.92,6.38-.62,7.19v.44c0,.99,.56,1.87,1.39,2.32-.77,1.18-1.25,2.57-1.36,4.06h-2.41c-.17,0-.32,.07-.44,.18l-2,2c-.58,.58,.3,1.46,.88,.88l1.82-1.82h2.15c.07,.97,.29,1.9,.66,2.75h-2.06c-.17,0-.32,.07-.44,.18l-2,2c-.58,.58,.3,1.46,.88,.88l1.82-1.82h2.47c.41,.65,.91,1.23,1.48,1.75h-1.21c-.17,0-.32,.07-.44,.18l-2,2c-.58,.58,.3,1.46,.88,.88l1.82-1.82h2.72c2.37,1.32,5.67,1.32,8.04,0h2.72l1.82,1.82c.58,.58,1.46-.3,.88-.88l-2-2c-.12-.12-.28-.18-.44-.18h-1.21c.57-.52,1.07-1.1,1.48-1.75h2.47l1.82,1.82c.58,.58,1.46-.3,.88-.88l-2-2c-.12-.12-.28-.18-.44-.18h-2.06c.36-.85,.59-1.78,.66-2.75h2.15l1.82,1.82c.58,.58,1.46-.3,.88-.88Zm-7.81-12.38l2.24,.48c.18,.04,.38,0,.52-.13,.15-.12,.23-.3,.23-.49v-2.33c2.62,.72,2.13,4.66-.63,4.67-1.25,0-2.28-.97-2.37-2.2Zm-16.01-.17c0-1.09,.74-2.02,1.75-2.29v2.33c0,.19,.08,.37,.23,.49,.15,.12,.34,.17,.52,.13l2.24-.48c-.28,3-4.68,2.85-4.74-.17Zm10.38,18.38c-4.07,0-7.38-3.31-7.38-7.38,.39-9.78,14.36-9.77,14.75,0,0,4.07-3.31,7.37-7.38,7.37Z"/>
</svg>