<?xml version="1.0" encoding="UTF-8"?><svg id="uuid-e2564ffc-8b9c-461f-a216-1c0e15b215de" xmlns="http://www.w3.org/2000/svg" width="36" height="36" viewBox="0 0 36 36"><title>Credit card icon - Black</title>
<desc>payment, debit, bank, account, money, profit, charge, buy, purchase, interest, finance, financial, objects</desc>
<metadata><?xpacket begin="﻿" id="W5M0MpCehiHzreSzNTczkc9d"?>
<x:xmpmeta xmlns:x="adobe:ns:meta/" x:xmptk="Adobe XMP Core 8.0-c001 1.000000, 0000/00/00-00:00:00        ">
   <rdf:RDF xmlns:rdf="http://www.w3.org/1999/02/22-rdf-syntax-ns#">
      <rdf:Description rdf:about=""
            xmlns:xmp="http://ns.adobe.com/xap/1.0/"
            xmlns:dc="http://purl.org/dc/elements/1.1/"
            xmlns:cq="http://www.day.com/jcr/cq/1.0"
            xmlns:tiff="http://ns.adobe.com/tiff/1.0/">
         <xmp:rhcc-effective-on>2023-12-08T17:35:32.719Z</xmp:rhcc-effective-on>
         <xmp:rhcc-metadata-complete-moderator>pending</xmp:rhcc-metadata-complete-moderator>
         <xmp:rhcc-translation-id>TRAb8139a8f-3130-41bc-b382-fe97939995c7</xmp:rhcc-translation-id>
         <xmp:brand-content-type>Icon</xmp:brand-content-type>
         <xmp:CreateDate>2023-12-08T17:35:32.719Z</xmp:CreateDate>
         <xmp:rhcc-effective-on-set-on-upload>true</xmp:rhcc-effective-on-set-on-upload>
         <xmp:rhcc-metadata-complete-uploader>pending</xmp:rhcc-metadata-complete-uploader>
         <xmp:rhcc-file-last-modified>2023-12-08T17:36:27.500Z</xmp:rhcc-file-last-modified>
         <xmp:rhcc-audience>rhcc-audience:internal</xmp:rhcc-audience>
         <xmp:rhcc-rights-restricted>no</xmp:rhcc-rights-restricted>
         <xmp:brand-content-subtype>Icon</xmp:brand-content-subtype>
         <xmp:rhcc-derivative-id>DERb8139a8f-3130-41bc-b382-fe97939995c7</xmp:rhcc-derivative-id>
         <xmp:brand-logo-color>Black</xmp:brand-logo-color>
         <xmp:rhcc-notify-portal-subscribers-on-change>yes</xmp:rhcc-notify-portal-subscribers-on-change>
         <dc:format>image/svg+xml</dc:format>
         <dc:modified>2024-02-09T20:30:00.853Z</dc:modified>
         <dc:title>
            <rdf:Alt>
               <rdf:li xml:lang="x-default">Credit card icon - Black</rdf:li>
            </rdf:Alt>
         </dc:title>
         <dc:description>
            <rdf:Alt>
               <rdf:li xml:lang="x-default">payment, debit, bank, account, money, profit, charge, buy, purchase, interest, finance, financial, objects</rdf:li>
            </rdf:Alt>
         </dc:description>
         <cq:lastReplicationAction_scene7>Activate</cq:lastReplicationAction_scene7>
         <cq:lastReplicationAction_publish>Activate</cq:lastReplicationAction_publish>
         <cq:lastReplicated_publish>2024-02-09T22:16:50.483Z</cq:lastReplicated_publish>
         <cq:lastReplicatedBy>workflow-process-service</cq:lastReplicatedBy>
         <cq:lastReplicationAction>Activate</cq:lastReplicationAction>
         <cq:lastReplicatedBy_publish>workflow-process-service</cq:lastReplicatedBy_publish>
         <cq:isDelivered>true</cq:isDelivered>
         <cq:lastReplicated>2024-02-09T22:16:50.483Z</cq:lastReplicated>
         <cq:lastReplicatedBy_scene7>workflow-process-service</cq:lastReplicatedBy_scene7>
         <cq:lastReplicated_scene7>2024-02-09T22:16:50.483Z</cq:lastReplicated_scene7>
         <tiff:ImageLength>36</tiff:ImageLength>
         <tiff:ImageWidth>36</tiff:ImageWidth>
      </rdf:Description>
   </rdf:RDF>
</x:xmpmeta>
                                                                                                    
                                                                                                    
                                                                                                    
                                                                                                    
                                                                                                    
                                                                                                    
                                                                                                    
                                                                                                    
                                                                                                    
                                                                                                    
                                 
<?xpacket end="w"?></metadata>
<path d="m29,9.375H7c-1.44727,0-2.625,1.17773-2.625,2.625v12c0,1.44727,1.17773,2.625,2.625,2.625h22c1.44727,0,2.625-1.17773,2.625-2.625v-12c0-1.44727-1.17773-2.625-2.625-2.625ZM5.625,13.625h24.75v1.75H5.625v-1.75Zm1.375-3h22c.7583,0,1.375.61719,1.375,1.375v.375H5.625v-.375c0-.75781.6167-1.375,1.375-1.375Zm22,14.75H7c-.7583,0-1.375-.61719-1.375-1.375v-7.375h24.75v7.375c0,.75781-.6167,1.375-1.375,1.375Z" stroke-width="0"/><path d="m15.625,20c0-.34473-.27979-.625-.625-.625h-7c-.34521,0-.625.28027-.625.625s.27979.625.625.625h7c.34521,0,.625-.28027.625-.625Z" stroke-width="0"/><path d="m10,22.375h-2c-.34521,0-.625.28027-.625.625s.27979.625.625.625h2c.34521,0,.625-.28027.625-.625s-.27979-.625-.625-.625Z" stroke-width="0"/><path d="m14,22.375h-2c-.34521,0-.625.28027-.625.625s.27979.625.625.625h2c.34521,0,.625-.28027.625-.625s-.27979-.625-.625-.625Z" stroke-width="0"/><path d="m18,22.375h-2c-.34521,0-.625.28027-.625.625s.27979.625.625.625h2c.34521,0,.625-.28027.625-.625s-.27979-.625-.625-.625Z" stroke-width="0"/><path d="m22,22.375h-2c-.34521,0-.625.28027-.625.625s.27979.625.625.625h2c.34521,0,.625-.28027.625-.625s-.27979-.625-.625-.625Z" stroke-width="0"/></svg>