<?xml version="1.0" encoding="UTF-8"?>
<svg id="uuid-3b74f4f4-ea57-4451-82ab-b87145a4362e" data-name="Icon" xmlns="http://www.w3.org/2000/svg" viewBox="0 0 36 36">
  <metadata><?xpacket begin="﻿" id="W5M0MpCehiHzreSzNTczkc9d"?>
<x:xmpmeta xmlns:x="adobe:ns:meta/" x:xmptk="Adobe XMP Core 8.0-c001 1.000000, 0000/00/00-00:00:00        ">
   <rdf:RDF xmlns:rdf="http://www.w3.org/1999/02/22-rdf-syntax-ns#">
      <rdf:Description rdf:about=""
            xmlns:xmp="http://ns.adobe.com/xap/1.0/"
            xmlns:dc="http://purl.org/dc/elements/1.1/"
            xmlns:cq="http://www.day.com/jcr/cq/1.0"
            xmlns:tiff="http://ns.adobe.com/tiff/1.0/">
         <xmp:rhcc-effective-on>2023-12-08T17:35:33.565Z</xmp:rhcc-effective-on>
         <xmp:rhcc-metadata-complete-moderator>pending</xmp:rhcc-metadata-complete-moderator>
         <xmp:rhcc-translation-id>TRA83e7e3ad-d728-43b5-8cc9-4b532cea24ca</xmp:rhcc-translation-id>
         <xmp:CreateDate>2023-12-08T17:35:33.565Z</xmp:CreateDate>
         <xmp:rhcc-effective-on-set-on-upload>true</xmp:rhcc-effective-on-set-on-upload>
         <xmp:rhcc-metadata-complete-uploader>pending</xmp:rhcc-metadata-complete-uploader>
         <xmp:rhcc-file-last-modified>2023-12-08T17:36:32.197Z</xmp:rhcc-file-last-modified>
         <xmp:rhcc-audience>rhcc-audience:internal</xmp:rhcc-audience>
         <xmp:rhcc-rights-restricted>no</xmp:rhcc-rights-restricted>
         <xmp:rhcc-derivative-id>DER83e7e3ad-d728-43b5-8cc9-4b532cea24ca</xmp:rhcc-derivative-id>
         <xmp:rhcc-notify-portal-subscribers-on-change>yes</xmp:rhcc-notify-portal-subscribers-on-change>
         <dc:format>image/svg+xml</dc:format>
         <dc:modified>2024-02-09T20:30:27.384Z</dc:modified>
         <cq:lastReplicationAction_scene7>Activate</cq:lastReplicationAction_scene7>
         <cq:lastReplicationAction_publish>Activate</cq:lastReplicationAction_publish>
         <cq:lastReplicated_publish>2024-02-09T22:17:23.195Z</cq:lastReplicated_publish>
         <cq:lastReplicatedBy>workflow-process-service</cq:lastReplicatedBy>
         <cq:lastReplicationAction>Activate</cq:lastReplicationAction>
         <cq:lastReplicatedBy_publish>workflow-process-service</cq:lastReplicatedBy_publish>
         <cq:isDelivered>true</cq:isDelivered>
         <cq:lastReplicated>2024-02-09T22:17:23.195Z</cq:lastReplicated>
         <cq:lastReplicatedBy_scene7>workflow-process-service</cq:lastReplicatedBy_scene7>
         <cq:lastReplicated_scene7>2024-02-09T22:17:23.195Z</cq:lastReplicated_scene7>
         <tiff:ImageLength>36</tiff:ImageLength>
         <tiff:ImageWidth>36</tiff:ImageWidth>
      </rdf:Description>
   </rdf:RDF>
</x:xmpmeta>
                                                                                                    
                                                                                                    
                                                                                                    
                                                                                                    
                                                                                                    
                                                                                                    
                                                                                                    
                                                                                                    
                                                                                                    
                                                                                                    
                                 
<?xpacket end="w"?></metadata>
<path d="M26.44,25.56c-.86-.86-.86-2.26,0-3.12,.24-.24,.24-.64,0-.88l-2-2c-.58-.58-1.46,.3-.88,.88l1.6,1.6c-.53,.76-.7,1.69-.54,2.58-.88-.16-1.81,.01-2.58,.54l-1.6-1.6c-.58-.58-1.46,.3-.88,.88l2,2c.24,.24,.64,.24,.88,0,.86-.86,2.26-.86,3.12,0l5,5c.58,.58,1.46-.3,.88-.88l-5-5Z"/>
  <path d="M11.56,16.44c.58,.58,1.46-.3,.88-.88l-6.56-6.56,3.12-3.12,6.56,6.56c.58,.58,1.46-.3,.88-.88l-7-7c-.24-.24-.64-.24-.88,0l-4,4c-.24,.24-.24,.64,0,.88l7,7Z"/>
  <path d="M31.44,8.56l-4-4c-.24-.24-.64-.24-.88,0L9.56,21.56c-.24,.24-.24,.64,0,.88,.85,.82,.85,2.3,0,3.12l-5,5c-.58,.58,.3,1.46,.88,.88l5-5c.83-.83,2.28-.83,3.12,0,.24,.24,.64,.24,.88,0L31.44,9.44c.24-.24,.24-.64,0-.88ZM13.96,25.16c-.76-.52-1.67-.71-2.56-.56,.15-.88-.03-1.8-.56-2.56L27,5.88l3.12,3.12L13.96,25.16Z"/>
  <path d="M18,26.38c-3.46,.09-3.46,5.16,0,5.25,3.46-.09,3.46-5.16,0-5.25Zm0,4c-1.81-.03-1.81-2.72,0-2.75,1.81,.03,1.81,2.72,0,2.75Z"/>
  <path d="M19.56,15.56l-3.5,3.5c-.58,.58,.3,1.46,.88,.88l3.5-3.5c.58-.58-.3-1.46-.88-.88Z"/>
  <path d="M22.44,13.56c-.3-.32-.86-.2-1.02,.2-.1,.24-.04,.5,.14,.68,.06,.06,.13,.11,.2,.14,.49,.22,1.05-.33,.82-.82-.03-.08-.08-.14-.14-.2Z"/>
  <path d="M13.76,13.42c-.15,.06-.28,.19-.34,.34-.1,.24-.04,.5,.14,.68,.06,.06,.13,.11,.2,.14,.49,.22,1.05-.33,.82-.82-.03-.08-.08-.14-.14-.2-.17-.18-.45-.23-.68-.14Z"/>
</svg>