<svg id="f48a7b70-245f-4cef-a720-3f68497f6d78" data-name="Layer 1" xmlns="http://www.w3.org/2000/svg" viewBox="0 0 36 36">
  <title>DDR memory icon - Black</title>
<desc>RAM, double data rate, fast, storage, computing, flash, chip, hardware</desc>
<metadata><?xpacket begin="﻿" id="W5M0MpCehiHzreSzNTczkc9d"?>
<x:xmpmeta xmlns:x="adobe:ns:meta/" x:xmptk="Adobe XMP Core 8.0-c001 1.000000, 0000/00/00-00:00:00        ">
   <rdf:RDF xmlns:rdf="http://www.w3.org/1999/02/22-rdf-syntax-ns#">
      <rdf:Description rdf:about=""
            xmlns:xmp="http://ns.adobe.com/xap/1.0/"
            xmlns:dc="http://purl.org/dc/elements/1.1/"
            xmlns:cq="http://www.day.com/jcr/cq/1.0"
            xmlns:tiff="http://ns.adobe.com/tiff/1.0/">
         <xmp:rhcc-effective-on>2023-12-08T17:34:12.657Z</xmp:rhcc-effective-on>
         <xmp:rhcc-metadata-complete-moderator>pending</xmp:rhcc-metadata-complete-moderator>
         <xmp:rhcc-translation-id>TRA89e3fd77-6681-4e9c-b91d-ee90d291d66c</xmp:rhcc-translation-id>
         <xmp:brand-content-type>Icon</xmp:brand-content-type>
         <xmp:CreateDate>2023-12-08T17:34:12.657Z</xmp:CreateDate>
         <xmp:rhcc-effective-on-set-on-upload>true</xmp:rhcc-effective-on-set-on-upload>
         <xmp:rhcc-metadata-complete-uploader>pending</xmp:rhcc-metadata-complete-uploader>
         <xmp:rhcc-file-last-modified>2023-12-08T17:34:19.986Z</xmp:rhcc-file-last-modified>
         <xmp:rhcc-audience>rhcc-audience:internal</xmp:rhcc-audience>
         <xmp:rhcc-rights-restricted>no</xmp:rhcc-rights-restricted>
         <xmp:brand-content-subtype>Icon</xmp:brand-content-subtype>
         <xmp:rhcc-derivative-id>DER89e3fd77-6681-4e9c-b91d-ee90d291d66c</xmp:rhcc-derivative-id>
         <xmp:brand-logo-color>Black</xmp:brand-logo-color>
         <xmp:rhcc-notify-portal-subscribers-on-change>yes</xmp:rhcc-notify-portal-subscribers-on-change>
         <dc:format>image/svg+xml</dc:format>
         <dc:modified>2024-02-09T20:11:48.615Z</dc:modified>
         <dc:title>
            <rdf:Alt>
               <rdf:li xml:lang="x-default">DDR memory icon - Black</rdf:li>
            </rdf:Alt>
         </dc:title>
         <dc:description>
            <rdf:Alt>
               <rdf:li xml:lang="x-default">RAM, double data rate, fast, storage, computing, flash, chip, hardware</rdf:li>
            </rdf:Alt>
         </dc:description>
         <cq:lastReplicationAction_scene7>Activate</cq:lastReplicationAction_scene7>
         <cq:lastReplicationAction_publish>Activate</cq:lastReplicationAction_publish>
         <cq:lastReplicated_publish>2024-02-09T21:47:15.482Z</cq:lastReplicated_publish>
         <cq:lastReplicatedBy>workflow-process-service</cq:lastReplicatedBy>
         <cq:lastReplicationAction>Activate</cq:lastReplicationAction>
         <cq:lastReplicatedBy_publish>workflow-process-service</cq:lastReplicatedBy_publish>
         <cq:isDelivered>true</cq:isDelivered>
         <cq:lastReplicated>2024-02-09T21:47:15.482Z</cq:lastReplicated>
         <cq:lastReplicatedBy_scene7>workflow-process-service</cq:lastReplicatedBy_scene7>
         <cq:lastReplicated_scene7>2024-02-09T21:47:15.482Z</cq:lastReplicated_scene7>
         <tiff:ImageLength>36</tiff:ImageLength>
         <tiff:ImageWidth>36</tiff:ImageWidth>
      </rdf:Description>
   </rdf:RDF>
</x:xmpmeta>
                                                                                                    
                                                                                                    
                                                                                                    
                                                                                                    
                                                                                                    
                                                                                                    
                                                                                                    
                                                                                                    
                                                                                                    
                                                                                                    
                                 
<?xpacket end="w"?></metadata>
<g>
    <path d="M31,12.625a.625.625,0,0,0,0-1.25H27.625V9.625H31a.625.625,0,0,0,0-1.25H27.625V5A.625.625,0,0,0,27,4.375H9A.625.625,0,0,0,8.375,5V8.375H5a.625.625,0,0,0,0,1.25H8.375v1.75H5a.625.625,0,0,0,0,1.25H8.375v1.75H5a.625.625,0,0,0,0,1.25H8.375v1.75H5a.625.625,0,0,0,0,1.25H8.375v1.75H5a.625.625,0,0,0,0,1.25H8.375v1.75H5a.625.625,0,0,0,0,1.25H8.375v1.75H5a.625.625,0,0,0,0,1.25H8.375V31A.625.625,0,0,0,9,31.625H27A.625.625,0,0,0,27.625,31V27.625H31a.625.625,0,0,0,0-1.25H27.625v-1.75H31a.625.625,0,0,0,0-1.25H27.625v-1.75H31a.625.625,0,0,0,0-1.25H27.625v-1.75H31a.625.625,0,0,0,0-1.25H27.625v-1.75H31a.625.625,0,0,0,0-1.25H27.625v-1.75Zm-4.625,17.75H9.625V5.625h16.75v24.75Z"/>
    <path d="M23,8.375H13A.625.625,0,0,0,12.375,9V27a.625.625,0,0,0,.625.625H23A.625.625,0,0,0,23.625,27V9A.625.625,0,0,0,23,8.375Zm-.625,18h-8.75V9.625h8.75Z"/>
  </g>
</svg>
