<svg id="bca109ba-c232-48f3-b521-098277ecfc59" data-name="Icon" xmlns="http://www.w3.org/2000/svg" viewBox="0 0 36 36">
  <title>Development model icon - Black</title>
<desc>open source, collaboration, upstream, downstream, contribute, contribution, connect, github, support, diagrams and graphs</desc>
<metadata><?xpacket begin="﻿" id="W5M0MpCehiHzreSzNTczkc9d"?>
<x:xmpmeta xmlns:x="adobe:ns:meta/" x:xmptk="Adobe XMP Core 8.0-c001 1.000000, 0000/00/00-00:00:00        ">
   <rdf:RDF xmlns:rdf="http://www.w3.org/1999/02/22-rdf-syntax-ns#">
      <rdf:Description rdf:about=""
            xmlns:xmp="http://ns.adobe.com/xap/1.0/"
            xmlns:dc="http://purl.org/dc/elements/1.1/"
            xmlns:cq="http://www.day.com/jcr/cq/1.0"
            xmlns:tiff="http://ns.adobe.com/tiff/1.0/">
         <xmp:rhcc-effective-on>2023-12-08T17:34:48.939Z</xmp:rhcc-effective-on>
         <xmp:rhcc-metadata-complete-moderator>pending</xmp:rhcc-metadata-complete-moderator>
         <xmp:rhcc-translation-id>TRAf7e1b14d-9b3a-4f24-84e3-36dcfa89df7b</xmp:rhcc-translation-id>
         <xmp:brand-content-type>Icon</xmp:brand-content-type>
         <xmp:CreateDate>2023-12-08T17:34:48.939Z</xmp:CreateDate>
         <xmp:rhcc-effective-on-set-on-upload>true</xmp:rhcc-effective-on-set-on-upload>
         <xmp:rhcc-metadata-complete-uploader>pending</xmp:rhcc-metadata-complete-uploader>
         <xmp:rhcc-file-last-modified>2023-12-08T17:35:19.995Z</xmp:rhcc-file-last-modified>
         <xmp:rhcc-audience>rhcc-audience:internal</xmp:rhcc-audience>
         <xmp:rhcc-rights-restricted>no</xmp:rhcc-rights-restricted>
         <xmp:brand-content-subtype>Icon</xmp:brand-content-subtype>
         <xmp:rhcc-derivative-id>DERf7e1b14d-9b3a-4f24-84e3-36dcfa89df7b</xmp:rhcc-derivative-id>
         <xmp:brand-logo-color>Black</xmp:brand-logo-color>
         <xmp:rhcc-notify-portal-subscribers-on-change>yes</xmp:rhcc-notify-portal-subscribers-on-change>
         <dc:format>image/svg+xml</dc:format>
         <dc:modified>2024-02-09T20:34:06.031Z</dc:modified>
         <dc:title>
            <rdf:Alt>
               <rdf:li xml:lang="x-default">Development model icon - Black</rdf:li>
            </rdf:Alt>
         </dc:title>
         <dc:description>
            <rdf:Alt>
               <rdf:li xml:lang="x-default">open source, collaboration, upstream, downstream, contribute, contribution, connect, github, support, diagrams and graphs</rdf:li>
            </rdf:Alt>
         </dc:description>
         <cq:lastReplicationAction_scene7>Activate</cq:lastReplicationAction_scene7>
         <cq:lastReplicationAction_publish>Activate</cq:lastReplicationAction_publish>
         <cq:lastReplicated_publish>2024-02-09T22:21:36.886Z</cq:lastReplicated_publish>
         <cq:lastReplicatedBy>workflow-process-service</cq:lastReplicatedBy>
         <cq:lastReplicationAction>Activate</cq:lastReplicationAction>
         <cq:lastReplicatedBy_publish>workflow-process-service</cq:lastReplicatedBy_publish>
         <cq:isDelivered>true</cq:isDelivered>
         <cq:lastReplicated>2024-02-09T22:21:36.886Z</cq:lastReplicated>
         <cq:lastReplicatedBy_scene7>workflow-process-service</cq:lastReplicatedBy_scene7>
         <cq:lastReplicated_scene7>2024-02-09T22:21:36.886Z</cq:lastReplicated_scene7>
         <tiff:ImageLength>36</tiff:ImageLength>
         <tiff:ImageWidth>36</tiff:ImageWidth>
      </rdf:Description>
   </rdf:RDF>
</x:xmpmeta>
                                                                                                    
                                                                                                    
                                                                                                    
                                                                                                    
                                                                                                    
                                                                                                    
                                                                                                    
                                                                                                    
                                                                                                    
                                                                                                    
                                 
<?xpacket end="w"?></metadata>
<g>
    <path d="M27,12.38c-7.43.23-7.43,11,0,11.25C34.43,23.39,34.43,12.61,27,12.38Zm0,10a4.38,4.38,0,0,1,0-8.76A4.38,4.38,0,0,1,27,22.38Z"/>
    <path d="M6,14.38a2.62,2.62,0,0,0,0,5.24A2.62,2.62,0,0,0,6,14.38Zm0,4a1.38,1.38,0,0,1,0-2.75A1.38,1.38,0,0,1,6,18.38Z"/>
    <path d="M12,17.62a2.62,2.62,0,0,0,0-5.24A2.62,2.62,0,0,0,12,17.62Zm0-4a1.38,1.38,0,0,1,0,2.75A1.38,1.38,0,0,1,12,13.62Z"/>
    <path d="M13.62,21a2.62,2.62,0,0,0-5.24,0A2.62,2.62,0,0,0,13.62,21Zm-4,0a1.38,1.38,0,0,1,2.75,0A1.38,1.38,0,0,1,9.62,21Z"/>
    <path d="M15.24,17.42A.63.63,0,1,0,15,18.63.63.63,0,0,0,15.24,17.42Z"/>
    <path d="M7.76,13.58a.63.63,0,0,0,.48-1.16A.63.63,0,0,0,7.76,13.58Z"/>
    <path d="M5.56,21.56c-.6.56.32,1.46.88.88S6.13,21,5.56,21.56Z"/>
    <path d="M10.45,10.88a10.43,10.43,0,0,1,15.1,0c.54.6,1.47-.28.9-.86a11.67,11.67,0,0,0-16.9,0C9,10.6,9.9,11.48,10.45,10.88Z"/>
    <path d="M25.55,25.12a10.43,10.43,0,0,1-15.1,0c-.54-.6-1.47.28-.9.86a11.67,11.67,0,0,0,16.9,0C27,25.4,26.1,24.52,25.55,25.12Z"/>
  </g>
</svg>
