<?xml version="1.0" encoding="UTF-8"?><svg id="uuid-d347d1fc-88c0-449b-8ce4-03cd91261b1f" xmlns="http://www.w3.org/2000/svg" viewBox="0 0 36 36"><title>DevOps icon - Black</title>
<desc>infinity, arrows, contribute, integration, development, continuous, operations, connect, diagrams and graphs</desc>
<metadata><?xpacket begin="﻿" id="W5M0MpCehiHzreSzNTczkc9d"?>
<x:xmpmeta xmlns:x="adobe:ns:meta/" x:xmptk="Adobe XMP Core 8.0-c001 1.000000, 0000/00/00-00:00:00        ">
   <rdf:RDF xmlns:rdf="http://www.w3.org/1999/02/22-rdf-syntax-ns#">
      <rdf:Description rdf:about=""
            xmlns:xmp="http://ns.adobe.com/xap/1.0/"
            xmlns:dc="http://purl.org/dc/elements/1.1/"
            xmlns:cq="http://www.day.com/jcr/cq/1.0"
            xmlns:tiff="http://ns.adobe.com/tiff/1.0/">
         <xmp:rhcc-effective-on>2023-12-08T17:34:48.146Z</xmp:rhcc-effective-on>
         <xmp:rhcc-metadata-complete-moderator>pending</xmp:rhcc-metadata-complete-moderator>
         <xmp:rhcc-translation-id>TRAc91f2dea-b7dc-4cf8-bb17-59bd78064d43</xmp:rhcc-translation-id>
         <xmp:brand-content-type>Icon</xmp:brand-content-type>
         <xmp:CreateDate>2023-12-08T17:34:48.146Z</xmp:CreateDate>
         <xmp:rhcc-effective-on-set-on-upload>true</xmp:rhcc-effective-on-set-on-upload>
         <xmp:rhcc-metadata-complete-uploader>pending</xmp:rhcc-metadata-complete-uploader>
         <xmp:rhcc-file-last-modified>2023-12-08T17:35:17.124Z</xmp:rhcc-file-last-modified>
         <xmp:rhcc-audience>rhcc-audience:internal</xmp:rhcc-audience>
         <xmp:rhcc-rights-restricted>no</xmp:rhcc-rights-restricted>
         <xmp:brand-content-subtype>Icon</xmp:brand-content-subtype>
         <xmp:rhcc-derivative-id>DERc91f2dea-b7dc-4cf8-bb17-59bd78064d43</xmp:rhcc-derivative-id>
         <xmp:brand-logo-color>Black</xmp:brand-logo-color>
         <xmp:rhcc-notify-portal-subscribers-on-change>yes</xmp:rhcc-notify-portal-subscribers-on-change>
         <dc:format>image/svg+xml</dc:format>
         <dc:modified>2024-02-09T20:33:55.639Z</dc:modified>
         <dc:title>
            <rdf:Alt>
               <rdf:li xml:lang="x-default">DevOps icon - Black</rdf:li>
            </rdf:Alt>
         </dc:title>
         <dc:description>
            <rdf:Alt>
               <rdf:li xml:lang="x-default">infinity, arrows, contribute, integration, development, continuous, operations, connect, diagrams and graphs</rdf:li>
            </rdf:Alt>
         </dc:description>
         <cq:lastReplicationAction_scene7>Activate</cq:lastReplicationAction_scene7>
         <cq:lastReplicationAction_publish>Activate</cq:lastReplicationAction_publish>
         <cq:lastReplicated_publish>2024-02-09T22:21:26.282Z</cq:lastReplicated_publish>
         <cq:lastReplicatedBy>workflow-process-service</cq:lastReplicatedBy>
         <cq:lastReplicationAction>Activate</cq:lastReplicationAction>
         <cq:lastReplicatedBy_publish>workflow-process-service</cq:lastReplicatedBy_publish>
         <cq:isDelivered>true</cq:isDelivered>
         <cq:lastReplicated>2024-02-09T22:21:26.282Z</cq:lastReplicated>
         <cq:lastReplicatedBy_scene7>workflow-process-service</cq:lastReplicatedBy_scene7>
         <cq:lastReplicated_scene7>2024-02-09T22:21:26.282Z</cq:lastReplicated_scene7>
         <tiff:ImageLength>36</tiff:ImageLength>
         <tiff:ImageWidth>36</tiff:ImageWidth>
      </rdf:Description>
   </rdf:RDF>
</x:xmpmeta>
                                                                                                    
                                                                                                    
                                                                                                    
                                                                                                    
                                                                                                    
                                                                                                    
                                                                                                    
                                                                                                    
                                                                                                    
                                                                                                    
                                 
<?xpacket end="w"?></metadata>
<path d="M30.73,13.44c-2.4-2.5-6.72-2.5-9.13,0l-8.17,8.24c-1.94,2.02-5.42,2.02-7.36,0-2.03-2.03-2.03-5.33,0-7.36,1.94-2.02,5.42-2.02,7.36,0l1.05,1.05h-1.49c-.82,0-.82,1.25,0,1.25h3c.08,0,.16-.02,.24-.05,.06-.02,.1-.06,.15-.1,.03-.02,.06-.04,.08-.07,.04-.05,.09-.11,.11-.17,.03-.08,.05-.16,.05-.24v-3c0-.82-1.25-.82-1.25,0v1.49l-1.05-1.05c-2.4-2.5-6.72-2.5-9.13,0-2.5,2.4-2.5,6.72,0,9.13,2.4,2.5,6.72,2.5,9.13,0l8.17-8.24c1.94-2.02,5.42-2.02,7.36,0,2.03,2.03,2.03,5.33,0,7.36-1.94,2.02-5.42,2.02-7.36,0l-2.09-2.09c-.58-.58-1.46,.3-.88,.88l2.09,2.09c2.4,2.5,6.72,2.5,9.13,0,2.52-2.52,2.52-6.61,0-9.13Z"/></svg>