<svg xmlns="http://www.w3.org/2000/svg" viewBox="0 0 36 36">
  <title>Digital transformation icon - Black</title>
<metadata><?xpacket begin="﻿" id="W5M0MpCehiHzreSzNTczkc9d"?>
<x:xmpmeta xmlns:x="adobe:ns:meta/" x:xmptk="Adobe XMP Core 8.0-c001 1.000000, 0000/00/00-00:00:00        ">
   <rdf:RDF xmlns:rdf="http://www.w3.org/1999/02/22-rdf-syntax-ns#">
      <rdf:Description rdf:about=""
            xmlns:xmp="http://ns.adobe.com/xap/1.0/"
            xmlns:dc="http://purl.org/dc/elements/1.1/"
            xmlns:cq="http://www.day.com/jcr/cq/1.0"
            xmlns:tiff="http://ns.adobe.com/tiff/1.0/">
         <xmp:rhcc-effective-on>2023-12-08T17:43:16.183Z</xmp:rhcc-effective-on>
         <xmp:rhcc-metadata-complete-moderator>pending</xmp:rhcc-metadata-complete-moderator>
         <xmp:rhcc-translation-id>TRAb6d12d3d-6878-41b4-b063-72ae35b739ea</xmp:rhcc-translation-id>
         <xmp:brand-content-type>Icon</xmp:brand-content-type>
         <xmp:CreateDate>2023-12-08T17:43:16.183Z</xmp:CreateDate>
         <xmp:rhcc-effective-on-set-on-upload>true</xmp:rhcc-effective-on-set-on-upload>
         <xmp:rhcc-metadata-complete-uploader>pending</xmp:rhcc-metadata-complete-uploader>
         <xmp:rhcc-file-last-modified>2023-12-08T17:44:12.198Z</xmp:rhcc-file-last-modified>
         <xmp:rhcc-audience>rhcc-audience:internal</xmp:rhcc-audience>
         <xmp:rhcc-rights-restricted>no</xmp:rhcc-rights-restricted>
         <xmp:brand-content-subtype>Icon</xmp:brand-content-subtype>
         <xmp:rhcc-derivative-id>DERb6d12d3d-6878-41b4-b063-72ae35b739ea</xmp:rhcc-derivative-id>
         <xmp:brand-logo-color>Black</xmp:brand-logo-color>
         <xmp:rhcc-notify-portal-subscribers-on-change>yes</xmp:rhcc-notify-portal-subscribers-on-change>
         <dc:format>image/svg+xml</dc:format>
         <dc:modified>2024-02-09T20:16:39.697Z</dc:modified>
         <dc:title>
            <rdf:Alt>
               <rdf:li xml:lang="x-default">Digital transformation icon - Black</rdf:li>
            </rdf:Alt>
         </dc:title>
         <cq:lastReplicationAction_scene7>Activate</cq:lastReplicationAction_scene7>
         <cq:lastReplicationAction_publish>Activate</cq:lastReplicationAction_publish>
         <cq:lastReplicated_publish>2024-02-09T21:53:45.790Z</cq:lastReplicated_publish>
         <cq:lastReplicatedBy>workflow-process-service</cq:lastReplicatedBy>
         <cq:lastReplicationAction>Activate</cq:lastReplicationAction>
         <cq:lastReplicatedBy_publish>workflow-process-service</cq:lastReplicatedBy_publish>
         <cq:isDelivered>true</cq:isDelivered>
         <cq:lastReplicated>2024-02-09T21:53:45.790Z</cq:lastReplicated>
         <cq:lastReplicatedBy_scene7>workflow-process-service</cq:lastReplicatedBy_scene7>
         <cq:lastReplicated_scene7>2024-02-09T21:53:45.790Z</cq:lastReplicated_scene7>
         <tiff:ImageLength>36</tiff:ImageLength>
         <tiff:ImageWidth>36</tiff:ImageWidth>
      </rdf:Description>
   </rdf:RDF>
</x:xmpmeta>
                                                                                                    
                                                                                                    
                                                                                                    
                                                                                                    
                                                                                                    
                                                                                                    
                                                                                                    
                                                                                                    
                                                                                                    
                                                                                                    
                                 
<?xpacket end="w"?></metadata>
<g id="b70fb6a7-28f0-4906-998a-89128ee06abb" data-name="Guidelines">
    <g>
      <path d="M28.5,5.625A1.875,1.875,0,1,1,26.625,7.5,1.877,1.877,0,0,1,28.5,5.625Zm0,5A3.125,3.125,0,1,0,25.375,7.5,3.129,3.129,0,0,0,28.5,10.625Z"/>
      <path d="M25.5,30.375A4.875,4.875,0,1,1,30.375,25.5,4.881,4.881,0,0,1,25.5,30.375Zm0-11A6.125,6.125,0,1,0,31.625,25.5,6.132,6.132,0,0,0,25.5,19.375Z"/>
      <path d="M8.375,7.625v.04a.456.456,0,0,0-.061-.04Zm8.536,17.65a10.014,10.014,0,0,1-1.411.1A9.87,9.87,0,0,1,8.375,8.669V10a.625.625,0,0,0,1.25,0V7A.625.625,0,0,0,9,6.375H6a.625.625,0,0,0,0,1.25H7.685a.582.582,0,0,0-.131.089A11.125,11.125,0,0,0,15.5,26.625a11.2,11.2,0,0,0,1.589-.113.625.625,0,1,0-.178-1.237Z"/>
      <path d="M11.994,4.977a.631.631,0,0,0-.619.63.625.625,0,0,0,1.25,0,.634.634,0,0,0-.631-.63Z"/>
      <path d="M14.329,4.438a.632.632,0,0,0-.62.63.625.625,0,0,0,1.25,0,.634.634,0,0,0-.63-.63Z"/>
      <path d="M16.714,4.438a.631.631,0,0,0-.619.63.625.625,0,0,0,1.25,0,.635.635,0,0,0-.631-.63Z"/>
      <path d="M19.044,4.99a.632.632,0,0,0-.619.631.625.625,0,0,0,1.25,0,.634.634,0,0,0-.631-.631Z"/>
      <path d="M21.186,6.05a.632.632,0,0,0-.62.63.625.625,0,0,0,1.25,0,.634.634,0,0,0-.63-.63Z"/>
      <path d="M23.034,7.568a.632.632,0,0,0-.62.63.625.625,0,0,0,1.25,0,.634.634,0,0,0-.63-.63Z"/>
      <path d="M24.491,9.458a.633.633,0,0,0-.62.631.625.625,0,0,0,1.25,0,.635.635,0,0,0-.63-.631Z"/>
      <path d="M25.484,11.63a.632.632,0,0,0-.619.631.625.625,0,0,0,1.25,0,.634.634,0,0,0-.631-.631Z"/>
      <path d="M25.955,13.974a.632.632,0,0,0-.62.63.625.625,0,0,0,1.25,0,.634.634,0,0,0-.63-.63Z"/>
      <path d="M25.89,16.378a.633.633,0,0,0-.62.631.625.625,0,0,0,1.25,0,.635.635,0,0,0-.63-.631Z"/>
    </g>
    <path d="M11,14.625A.625.625,0,0,1,10.375,14V11a.625.625,0,0,1,1.25,0v3A.625.625,0,0,1,11,14.625Z"/>
    <path d="M20,14.625A.625.625,0,0,1,19.375,14V11a.625.625,0,0,1,1.25,0v3A.625.625,0,0,1,20,14.625Z"/>
    <path d="M16,20.625A.625.625,0,0,1,15.375,20V17a.625.625,0,0,1,1.25,0v3A.625.625,0,0,1,16,20.625Z"/>
    <path d="M20,20.625A.625.625,0,0,1,19.375,20V17a.625.625,0,0,1,1.25,0v3A.625.625,0,0,1,20,20.625Z"/>
    <path d="M15.5,14.625A2.125,2.125,0,1,1,17.625,12.5,2.127,2.127,0,0,1,15.5,14.625Zm0-3a.875.875,0,1,0,.875.875A.877.877,0,0,0,15.5,11.625Z"/>
    <path d="M11.5,20.625A2.125,2.125,0,1,1,13.625,18.5,2.127,2.127,0,0,1,11.5,20.625Zm0-3a.875.875,0,1,0,.875.875A.877.877,0,0,0,11.5,17.625Z"/>
  </g>
</svg>
