<?xml version="1.0" encoding="UTF-8"?>
<svg id="uuid-db86fd9f-69bd-4b59-8826-2106468a087e" data-name="Icon" xmlns="http://www.w3.org/2000/svg" viewBox="0 0 36 36">
  <title>Dishes icon - Black</title>
<desc>plates, cups, silverware, bowls, cabinet, mug, food, eat, break, kitchen, dishwasher, food and drink</desc>
<metadata><?xpacket begin="﻿" id="W5M0MpCehiHzreSzNTczkc9d"?>
<x:xmpmeta xmlns:x="adobe:ns:meta/" x:xmptk="Adobe XMP Core 8.0-c001 1.000000, 0000/00/00-00:00:00        ">
   <rdf:RDF xmlns:rdf="http://www.w3.org/1999/02/22-rdf-syntax-ns#">
      <rdf:Description rdf:about=""
            xmlns:xmp="http://ns.adobe.com/xap/1.0/"
            xmlns:dc="http://purl.org/dc/elements/1.1/"
            xmlns:cq="http://www.day.com/jcr/cq/1.0"
            xmlns:tiff="http://ns.adobe.com/tiff/1.0/">
         <xmp:rhcc-effective-on>2023-12-08T17:45:36.240Z</xmp:rhcc-effective-on>
         <xmp:rhcc-metadata-complete-moderator>pending</xmp:rhcc-metadata-complete-moderator>
         <xmp:rhcc-translation-id>TRAb0887930-b99e-44f5-9f68-2c4b9bd95c08</xmp:rhcc-translation-id>
         <xmp:brand-content-type>Icon</xmp:brand-content-type>
         <xmp:CreateDate>2023-12-08T17:45:36.240Z</xmp:CreateDate>
         <xmp:rhcc-effective-on-set-on-upload>true</xmp:rhcc-effective-on-set-on-upload>
         <xmp:rhcc-metadata-complete-uploader>pending</xmp:rhcc-metadata-complete-uploader>
         <xmp:rhcc-file-last-modified>2023-12-08T17:46:29.393Z</xmp:rhcc-file-last-modified>
         <xmp:rhcc-audience>rhcc-audience:internal</xmp:rhcc-audience>
         <xmp:rhcc-rights-restricted>no</xmp:rhcc-rights-restricted>
         <xmp:brand-content-subtype>Icon</xmp:brand-content-subtype>
         <xmp:rhcc-derivative-id>DERb0887930-b99e-44f5-9f68-2c4b9bd95c08</xmp:rhcc-derivative-id>
         <xmp:brand-logo-color>Black</xmp:brand-logo-color>
         <xmp:rhcc-notify-portal-subscribers-on-change>yes</xmp:rhcc-notify-portal-subscribers-on-change>
         <dc:format>image/svg+xml</dc:format>
         <dc:modified>2024-02-09T20:36:21.618Z</dc:modified>
         <dc:title>
            <rdf:Alt>
               <rdf:li xml:lang="x-default">Dishes icon - Black</rdf:li>
            </rdf:Alt>
         </dc:title>
         <dc:description>
            <rdf:Alt>
               <rdf:li xml:lang="x-default">plates, cups, silverware, bowls, cabinet, mug, food, eat, break, kitchen, dishwasher, food and drink</rdf:li>
            </rdf:Alt>
         </dc:description>
         <cq:lastReplicationAction_scene7>Activate</cq:lastReplicationAction_scene7>
         <cq:lastReplicationAction_publish>Activate</cq:lastReplicationAction_publish>
         <cq:lastReplicated_publish>2024-02-09T22:23:56.357Z</cq:lastReplicated_publish>
         <cq:lastReplicatedBy>workflow-process-service</cq:lastReplicatedBy>
         <cq:lastReplicationAction>Activate</cq:lastReplicationAction>
         <cq:lastReplicatedBy_publish>workflow-process-service</cq:lastReplicatedBy_publish>
         <cq:isDelivered>true</cq:isDelivered>
         <cq:lastReplicated>2024-02-09T22:23:56.357Z</cq:lastReplicated>
         <cq:lastReplicatedBy_scene7>workflow-process-service</cq:lastReplicatedBy_scene7>
         <cq:lastReplicated_scene7>2024-02-09T22:23:56.357Z</cq:lastReplicated_scene7>
         <tiff:ImageLength>36</tiff:ImageLength>
         <tiff:ImageWidth>36</tiff:ImageWidth>
      </rdf:Description>
   </rdf:RDF>
</x:xmpmeta>
                                                                                                    
                                                                                                    
                                                                                                    
                                                                                                    
                                                                                                    
                                                                                                    
                                                                                                    
                                                                                                    
                                                                                                    
                                                                                                    
                                 
<?xpacket end="w"?></metadata>
<path d="m31,25.38h-2.77c.25-.4.4-.87.4-1.38v-.46c1.15-.28,2-1.31,2-2.54s-.85-2.26-2-2.54v-.46c0-.35-.28-.62-.62-.62h-8c-.34,0-.62.28-.62.62v6c0,.51.15.97.4,1.38h-2.77c-.34,0-.62.28-.62.62s.28.62.62.62h.44c.31,2.25,2.23,4,4.56,4h4c2.34,0,4.25-1.75,4.56-4h.44c.34,0,.62-.28.62-.62s-.28-.62-.62-.62Zm-1.62-4.38c0,.53-.31.99-.75,1.22v-2.44c.44.23.75.69.75,1.22Zm-8.75,3v-5.38h6.75v5.38c0,.76-.62,1.38-1.38,1.38h-4c-.76,0-1.38-.62-1.38-1.38Zm5.38,5.38h-4c-1.65,0-3.02-1.19-3.31-2.75h10.62c-.29,1.56-1.66,2.75-3.31,2.75Z"/>
  <path d="m22.84,15.23c.31.76,1.46.29,1.16-.47-1.68-4.37-6.93-6.57-11.23-4.76-.75.31-.29,1.46.47,1.16,3.68-1.54,8.17.34,9.6,4.07Z"/>
  <path d="m9.38,13.46c-.3-.17-.68-.07-.85.23-2.91,4.77-.04,11.57,5.47,12.69.71,0,.86-1.05.16-1.23-4.63-1.08-7-6.77-4.54-10.83.17-.3.07-.68-.23-.85Z"/>
  <path d="m15.05,29.34c-5.85-.48-10.43-5.46-10.43-11.34,0-6.27,5.1-11.38,11.38-11.38,5.19,0,9.72,3.51,11.02,8.53.09.33.42.54.76.45.33-.09.54-.43.45-.76-1.43-5.58-6.46-9.47-12.23-9.47-6.96,0-12.62,5.66-12.62,12.62,0,6.52,5.08,12.05,11.57,12.58.02,0,.04,0,.05,0,.32,0,.59-.25.62-.57.03-.34-.23-.65-.57-.67Z"/>
  <path d="m11,12.62c.35,0,.62-.27.62-.62s-.27-.62-.62-.62-.62.27-.62.62.27.62.62.62Z"/>
</svg>