<svg id="b3949435-9f22-4022-8566-8b3f44e9a563" data-name="Layer 1" xmlns="http://www.w3.org/2000/svg" viewBox="0 0 36 36">
  <title>Dishwasher icon - Black</title>
<desc>dishes, cleaner, washer, dish washer, GWS, office and work</desc>
<metadata><?xpacket begin="﻿" id="W5M0MpCehiHzreSzNTczkc9d"?>
<x:xmpmeta xmlns:x="adobe:ns:meta/" x:xmptk="Adobe XMP Core 8.0-c001 1.000000, 0000/00/00-00:00:00        ">
   <rdf:RDF xmlns:rdf="http://www.w3.org/1999/02/22-rdf-syntax-ns#">
      <rdf:Description rdf:about=""
            xmlns:xmp="http://ns.adobe.com/xap/1.0/"
            xmlns:dc="http://purl.org/dc/elements/1.1/"
            xmlns:cq="http://www.day.com/jcr/cq/1.0"
            xmlns:tiff="http://ns.adobe.com/tiff/1.0/">
         <xmp:rhcc-effective-on>2023-12-08T17:46:42.938Z</xmp:rhcc-effective-on>
         <xmp:rhcc-metadata-complete-moderator>pending</xmp:rhcc-metadata-complete-moderator>
         <xmp:rhcc-translation-id>TRA4f758f4f-6494-4d97-bc90-a1139a121667</xmp:rhcc-translation-id>
         <xmp:brand-content-type>Icon</xmp:brand-content-type>
         <xmp:CreateDate>2023-12-08T17:46:42.938Z</xmp:CreateDate>
         <xmp:rhcc-effective-on-set-on-upload>true</xmp:rhcc-effective-on-set-on-upload>
         <xmp:rhcc-metadata-complete-uploader>pending</xmp:rhcc-metadata-complete-uploader>
         <xmp:rhcc-file-last-modified>2023-12-08T17:46:55.897Z</xmp:rhcc-file-last-modified>
         <xmp:rhcc-audience>rhcc-audience:internal</xmp:rhcc-audience>
         <xmp:rhcc-rights-restricted>no</xmp:rhcc-rights-restricted>
         <xmp:brand-content-subtype>Icon</xmp:brand-content-subtype>
         <xmp:rhcc-derivative-id>DER4f758f4f-6494-4d97-bc90-a1139a121667</xmp:rhcc-derivative-id>
         <xmp:brand-logo-color>Black</xmp:brand-logo-color>
         <xmp:rhcc-notify-portal-subscribers-on-change>yes</xmp:rhcc-notify-portal-subscribers-on-change>
         <dc:format>image/svg+xml</dc:format>
         <dc:modified>2024-02-09T20:23:06.983Z</dc:modified>
         <dc:title>
            <rdf:Alt>
               <rdf:li xml:lang="x-default">Dishwasher icon - Black</rdf:li>
            </rdf:Alt>
         </dc:title>
         <dc:description>
            <rdf:Alt>
               <rdf:li xml:lang="x-default">dishes, cleaner, washer, dish washer, GWS, office and work</rdf:li>
            </rdf:Alt>
         </dc:description>
         <cq:lastReplicationAction_scene7>Activate</cq:lastReplicationAction_scene7>
         <cq:lastReplicationAction_publish>Activate</cq:lastReplicationAction_publish>
         <cq:lastReplicated_publish>2024-02-09T22:03:35.264Z</cq:lastReplicated_publish>
         <cq:lastReplicatedBy>workflow-process-service</cq:lastReplicatedBy>
         <cq:lastReplicationAction>Activate</cq:lastReplicationAction>
         <cq:lastReplicatedBy_publish>workflow-process-service</cq:lastReplicatedBy_publish>
         <cq:isDelivered>true</cq:isDelivered>
         <cq:lastReplicated>2024-02-09T22:03:35.264Z</cq:lastReplicated>
         <cq:lastReplicatedBy_scene7>workflow-process-service</cq:lastReplicatedBy_scene7>
         <cq:lastReplicated_scene7>2024-02-09T22:03:35.264Z</cq:lastReplicated_scene7>
         <tiff:ImageLength>36</tiff:ImageLength>
         <tiff:ImageWidth>36</tiff:ImageWidth>
      </rdf:Description>
   </rdf:RDF>
</x:xmpmeta>
                                                                                                    
                                                                                                    
                                                                                                    
                                                                                                    
                                                                                                    
                                                                                                    
                                                                                                    
                                                                                                    
                                                                                                    
                                                                                                    
                                 
<?xpacket end="w"?></metadata>
<g>
    <path d="M31,4.375H5A.625.625,0,0,0,4.375,5V31A.625.625,0,0,0,5,31.625H31A.625.625,0,0,0,31.625,31V5A.625.625,0,0,0,31,4.375Zm-.625,1.25v4.75H5.625V5.625ZM5.625,30.375V11.625h24.75v18.75Z"/>
    <path d="M16,14.375H10A.625.625,0,0,0,9.375,15v4a3.624,3.624,0,0,0,3,3.562v3.813H11a.625.625,0,0,0,0,1.25h4a.625.625,0,0,0,0-1.25H13.625V22.562a3.624,3.624,0,0,0,3-3.562V15A.625.625,0,0,0,16,14.375ZM15.375,19a2.375,2.375,0,0,1-4.75,0V15.625h4.75Z"/>
    <path d="M14,8.625h8a.625.625,0,0,0,0-1.25H14a.625.625,0,0,0,0,1.25Z"/>
    <path d="M24.56,8.44a.588.588,0,0,0,.44.18.672.672,0,0,0,.24-.04.874.874,0,0,0,.2-.14.548.548,0,0,0,.141-.2A.711.711,0,0,0,25.63,8a.61.61,0,0,0-.191-.44.874.874,0,0,0-.2-.14.638.638,0,0,0-.87.58.687.687,0,0,0,.05.24A.661.661,0,0,0,24.56,8.44Z"/>
    <path d="M27,8.63a.687.687,0,0,0,.24-.05.645.645,0,0,0,.2-.14A.617.617,0,0,0,27.62,8a.7.7,0,0,0-.04-.24.875.875,0,0,0-.141-.2.713.713,0,0,0-.2-.14.632.632,0,0,0-.68.14.661.661,0,0,0-.14.2.687.687,0,0,0-.05.24.65.65,0,0,0,.63.63Z"/>
    <path d="M9,8.63a.629.629,0,0,0,.439-.19A.585.585,0,0,0,9.62,8a.7.7,0,0,0-.04-.24.548.548,0,0,0-.141-.2.646.646,0,0,0-.879,0,.483.483,0,0,0-.14.2A.687.687,0,0,0,8.37,8a.593.593,0,0,0,.19.44A.613.613,0,0,0,9,8.63Z"/>
    <path d="M11,8.63a.629.629,0,0,0,.439-.19A.6.6,0,0,0,11.62,8a.585.585,0,0,0-.181-.44.636.636,0,0,0-.879,0,.628.628,0,0,0,0,.88A.613.613,0,0,0,11,8.63Z"/>
    <path d="M22,14.375H20a.625.625,0,0,0-.625.625V27a.625.625,0,0,0,.625.625h2A5.631,5.631,0,0,0,27.625,22V20A5.631,5.631,0,0,0,22,14.375ZM26.375,22A4.38,4.38,0,0,1,22,26.375H20.625V15.625H22A4.38,4.38,0,0,1,26.375,20Z"/>
  </g>
</svg>
