<svg id="a689354d-396e-4f94-bc3a-e14d60e6d1fb" data-name="Icon" xmlns="http://www.w3.org/2000/svg" viewBox="0 0 36 36">
  <title>Disruption icon - Black</title>
<desc>waves, radio, connect, crash, clash, cut, radiate, interfere, NFC, RFID, communication, communicate, telco, telecommunication, diagrams and graphs</desc>
<metadata><?xpacket begin="﻿" id="W5M0MpCehiHzreSzNTczkc9d"?>
<x:xmpmeta xmlns:x="adobe:ns:meta/" x:xmptk="Adobe XMP Core 8.0-c001 1.000000, 0000/00/00-00:00:00        ">
   <rdf:RDF xmlns:rdf="http://www.w3.org/1999/02/22-rdf-syntax-ns#">
      <rdf:Description rdf:about=""
            xmlns:xmp="http://ns.adobe.com/xap/1.0/"
            xmlns:dc="http://purl.org/dc/elements/1.1/"
            xmlns:cq="http://www.day.com/jcr/cq/1.0"
            xmlns:tiff="http://ns.adobe.com/tiff/1.0/">
         <xmp:rhcc-effective-on>2023-12-08T17:34:49.712Z</xmp:rhcc-effective-on>
         <xmp:rhcc-metadata-complete-moderator>pending</xmp:rhcc-metadata-complete-moderator>
         <xmp:rhcc-translation-id>TRA5e5dee47-6c2b-44ac-a860-c9f7b877b704</xmp:rhcc-translation-id>
         <xmp:brand-content-type>Icon</xmp:brand-content-type>
         <xmp:CreateDate>2023-12-08T17:34:49.712Z</xmp:CreateDate>
         <xmp:rhcc-effective-on-set-on-upload>true</xmp:rhcc-effective-on-set-on-upload>
         <xmp:rhcc-metadata-complete-uploader>pending</xmp:rhcc-metadata-complete-uploader>
         <xmp:rhcc-file-last-modified>2023-12-08T17:35:25.806Z</xmp:rhcc-file-last-modified>
         <xmp:rhcc-audience>rhcc-audience:internal</xmp:rhcc-audience>
         <xmp:rhcc-rights-restricted>no</xmp:rhcc-rights-restricted>
         <xmp:brand-content-subtype>Icon</xmp:brand-content-subtype>
         <xmp:rhcc-derivative-id>DER5e5dee47-6c2b-44ac-a860-c9f7b877b704</xmp:rhcc-derivative-id>
         <xmp:brand-logo-color>Black</xmp:brand-logo-color>
         <xmp:rhcc-notify-portal-subscribers-on-change>yes</xmp:rhcc-notify-portal-subscribers-on-change>
         <dc:format>image/svg+xml</dc:format>
         <dc:modified>2024-02-09T20:34:18.313Z</dc:modified>
         <dc:title>
            <rdf:Alt>
               <rdf:li xml:lang="x-default">Disruption icon - Black</rdf:li>
            </rdf:Alt>
         </dc:title>
         <dc:description>
            <rdf:Alt>
               <rdf:li xml:lang="x-default">waves, radio, connect, crash, clash, cut, radiate, interfere, NFC, RFID, communication, communicate, telco, telecommunication, diagrams and graphs</rdf:li>
            </rdf:Alt>
         </dc:description>
         <cq:lastReplicationAction_scene7>Activate</cq:lastReplicationAction_scene7>
         <cq:lastReplicationAction_publish>Activate</cq:lastReplicationAction_publish>
         <cq:lastReplicated_publish>2024-02-09T22:21:47.289Z</cq:lastReplicated_publish>
         <cq:lastReplicatedBy>workflow-process-service</cq:lastReplicatedBy>
         <cq:lastReplicationAction>Activate</cq:lastReplicationAction>
         <cq:lastReplicatedBy_publish>workflow-process-service</cq:lastReplicatedBy_publish>
         <cq:isDelivered>true</cq:isDelivered>
         <cq:lastReplicated>2024-02-09T22:21:47.289Z</cq:lastReplicated>
         <cq:lastReplicatedBy_scene7>workflow-process-service</cq:lastReplicatedBy_scene7>
         <cq:lastReplicated_scene7>2024-02-09T22:21:47.289Z</cq:lastReplicated_scene7>
         <tiff:ImageLength>36</tiff:ImageLength>
         <tiff:ImageWidth>36</tiff:ImageWidth>
      </rdf:Description>
   </rdf:RDF>
</x:xmpmeta>
                                                                                                    
                                                                                                    
                                                                                                    
                                                                                                    
                                                                                                    
                                                                                                    
                                                                                                    
                                                                                                    
                                                                                                    
                                                                                                    
                                 
<?xpacket end="w"?></metadata>
<g>
    <path d="M10.62,18A6.59,6.59,0,0,0,5.1,11.47a.62.62,0,0,0-.2,1.23c5.92,1,5.91,9.58,0,10.6A.62.62,0,0,0,5,24.54,6.57,6.57,0,0,0,10.62,18Z"/>
    <path d="M14.62,18A10.62,10.62,0,0,0,8.25,8.26a.62.62,0,0,0-.5,1.14c7.44,3.18,7.44,14,0,17.2a.62.62,0,0,0,.5,1.14A10.62,10.62,0,0,0,14.62,18Z"/>
    <path d="M31.1,23.3c-5.92-1-5.91-9.58,0-10.6a.64.64,0,0,0,.52-.72.63.63,0,0,0-.72-.51c-7.3,1.26-7.3,11.8,0,13.06A.62.62,0,0,0,31.1,23.3Z"/>
    <path d="M28.25,26.6c-7.44-3.18-7.44-14,0-17.2a.62.62,0,0,0-.5-1.14c-8.43,3.59-8.43,15.89,0,19.48A.62.62,0,0,0,28.25,26.6Z"/>
    <path d="M25.31,29.59c-8.85-5-8.84-18.19,0-23.18a.62.62,0,0,0-.62-1.08A14.68,14.68,0,0,0,18,13.81a14.68,14.68,0,0,0-6.69-8.48.62.62,0,0,0-.62,1.08c8.85,5,8.84,18.19,0,23.18a.62.62,0,0,0,.62,1.08A14.68,14.68,0,0,0,18,22.19a14.68,14.68,0,0,0,6.69,8.48A.62.62,0,0,0,25.31,29.59Z"/>
  </g>
</svg>
