<?xml version="1.0" encoding="UTF-8"?><svg id="uuid-2bfc586e-dbcc-4dc8-8289-aefca010741a" xmlns="http://www.w3.org/2000/svg" width="36" height="36" viewBox="0 0 36 36"><title>Lower cost dollar icon - Black</title>
<desc>reduce, less, loss, bank, finance, money, financial, American, US, amount, drop, down, diagrams and graphs</desc>
<metadata><?xpacket begin="﻿" id="W5M0MpCehiHzreSzNTczkc9d"?>
<x:xmpmeta xmlns:x="adobe:ns:meta/" x:xmptk="Adobe XMP Core 8.0-c001 1.000000, 0000/00/00-00:00:00        ">
   <rdf:RDF xmlns:rdf="http://www.w3.org/1999/02/22-rdf-syntax-ns#">
      <rdf:Description rdf:about=""
            xmlns:xmp="http://ns.adobe.com/xap/1.0/"
            xmlns:dc="http://purl.org/dc/elements/1.1/"
            xmlns:cq="http://www.day.com/jcr/cq/1.0"
            xmlns:tiff="http://ns.adobe.com/tiff/1.0/">
         <xmp:rhcc-effective-on>2023-12-08T17:35:02.052Z</xmp:rhcc-effective-on>
         <xmp:rhcc-metadata-complete-moderator>pending</xmp:rhcc-metadata-complete-moderator>
         <xmp:rhcc-translation-id>TRAa18ae703-cfb6-41d6-9eb1-1ad191f0db17</xmp:rhcc-translation-id>
         <xmp:brand-content-type>Icon</xmp:brand-content-type>
         <xmp:CreateDate>2023-12-08T17:35:02.052Z</xmp:CreateDate>
         <xmp:rhcc-effective-on-set-on-upload>true</xmp:rhcc-effective-on-set-on-upload>
         <xmp:rhcc-metadata-complete-uploader>pending</xmp:rhcc-metadata-complete-uploader>
         <xmp:rhcc-file-last-modified>2023-12-08T17:35:17.026Z</xmp:rhcc-file-last-modified>
         <xmp:rhcc-audience>rhcc-audience:internal</xmp:rhcc-audience>
         <xmp:rhcc-rights-restricted>no</xmp:rhcc-rights-restricted>
         <xmp:brand-content-subtype>Icon</xmp:brand-content-subtype>
         <xmp:rhcc-derivative-id>DERa18ae703-cfb6-41d6-9eb1-1ad191f0db17</xmp:rhcc-derivative-id>
         <xmp:brand-logo-color>Black</xmp:brand-logo-color>
         <xmp:rhcc-notify-portal-subscribers-on-change>yes</xmp:rhcc-notify-portal-subscribers-on-change>
         <dc:format>image/svg+xml</dc:format>
         <dc:modified>2024-02-09T20:35:00.517Z</dc:modified>
         <dc:title>
            <rdf:Alt>
               <rdf:li xml:lang="x-default">Lower cost dollar icon - Black</rdf:li>
            </rdf:Alt>
         </dc:title>
         <dc:description>
            <rdf:Alt>
               <rdf:li xml:lang="x-default">reduce, less, loss, bank, finance, money, financial, American, US, amount, drop, down, diagrams and graphs</rdf:li>
            </rdf:Alt>
         </dc:description>
         <cq:lastReplicationAction_scene7>Activate</cq:lastReplicationAction_scene7>
         <cq:lastReplicationAction_publish>Activate</cq:lastReplicationAction_publish>
         <cq:lastReplicated_publish>2024-02-09T22:22:32.453Z</cq:lastReplicated_publish>
         <cq:lastReplicatedBy>workflow-process-service</cq:lastReplicatedBy>
         <cq:lastReplicationAction>Activate</cq:lastReplicationAction>
         <cq:lastReplicatedBy_publish>workflow-process-service</cq:lastReplicatedBy_publish>
         <cq:isDelivered>true</cq:isDelivered>
         <cq:lastReplicated>2024-02-09T22:22:32.453Z</cq:lastReplicated>
         <cq:lastReplicatedBy_scene7>workflow-process-service</cq:lastReplicatedBy_scene7>
         <cq:lastReplicated_scene7>2024-02-09T22:22:32.453Z</cq:lastReplicated_scene7>
         <tiff:ImageLength>36</tiff:ImageLength>
         <tiff:ImageWidth>36</tiff:ImageWidth>
      </rdf:Description>
   </rdf:RDF>
</x:xmpmeta>
                                                                                                    
                                                                                                    
                                                                                                    
                                                                                                    
                                                                                                    
                                                                                                    
                                                                                                    
                                                                                                    
                                                                                                    
                                                                                                    
                                 
<?xpacket end="w"?></metadata>
<path d="m24.19141,17.54688c-1.13135-1.29199-2.81641-1.60352-4.30322-1.87793-.28125-.05273-.55957-.10352-.83057-.16113l-.43262-.09155v-7.7691c.82013.02545,1.63794.11761,2.42969.30597.0083.00195.01611.00293.0249.00488.97998.28223,1.90576.71289,2.75342,1.27832.2876.19238.67578.11426.8667-.17285.19189-.28711.11475-.6748-.17236-.86621-.96826-.64648-2.02783-1.13574-3.14893-1.45361-.02197-.00635-.04541-.01123-.06982-.01514-.87756-.20599-1.77777-.30768-2.68359-.33331v-1.3952c0-.34521-.27979-.625-.625-.625s-.625.27979-.625.625v1.42407c-.7251.04694-1.45032.13129-2.16895.29712-1.93945.54346-3.19238,1.63037-3.72412,3.22998-.1543.46484-.23291.95215-.23291,1.44629,0,1.15234.45361,2.29785,1.24463,3.14453,1,1.06934,2.34082,1.35156,3.41748,1.57715l1.46387.30988v7.89575c-.62158-.04211-1.23584-.11292-1.8208-.24567-.96094-.28223-1.86963-.70508-2.7002-1.25781-.40381-.26855-.78906-.56738-1.14551-.88867-.25635-.23145-.65234-.21191-.88232.04688-.23096.25684-.21045.65137.04639.88281.40088.36035.83447.69727,1.28857,1,.93652.62207,1.95947,1.09863,3.07812,1.42578.69958.15973,1.41608.24249,2.13574.28857v3.91437l-.93311-.93341c-.24414-.24414-.63965-.24414-.88379,0s-.24414.64062,0,.88477l2,2c.01483.01483.03436.02032.05023.03333.04712.03882.09485.07703.15204.10083.0766.03168.15784.04846.23962.04846s.16302-.01678.23962-.04846c.05719-.0238.10492-.06201.15204-.10083.01587-.013.0354-.01849.05023-.03333l2-2c.24414-.24414.24414-.64062,0-.88477s-.63965-.24414-.88379,0l-.93311.93341v-3.88861c.92145-.02637,1.84045-.12994,2.75244-.34753,1.93945-.54297,3.19238-1.62988,3.72412-3.23047.1543-.46484.23291-.95117.23291-1.44531,0-1.11426-.40625-2.19141-1.14307-3.03223Zm-8.02295-2.65039c-1.18945-.25-2.0835-.4834-2.76172-1.20801-.57666-.61719-.90771-1.45215-.90771-2.29102,0-.36035.05713-.71387.16943-1.05176.39258-1.18164,1.35986-1.99609,2.8457-2.41406.60876-.13922,1.23322-.21301,1.86084-.2569v7.47705l-1.20654-.25531Zm7.74658,6.7334c-.39258,1.18262-1.35986,1.99707-2.85059,2.41504-.79327.18829-1.61749.27954-2.43945.30536v-7.65662l.17383.0368c.28125.05957.57031.11328.8623.16699,1.34912.25,2.74463.50781,3.58984,1.47363.5376.61328.8335,1.39746.8335,2.20801,0,.35938-.05713.71289-.16943,1.05078Z" stroke-width="0"/></svg>