<?xml version="1.0" encoding="UTF-8"?><svg id="uuid-2c0a681d-10f4-4043-a773-3facc319c397" xmlns="http://www.w3.org/2000/svg" width="36" height="36" viewBox="0 0 36 36"><title>Dollar sign icon - Black</title>
<desc>US, money, finance, earn, growth, s, $, shapes and signage</desc>
<metadata><?xpacket begin="﻿" id="W5M0MpCehiHzreSzNTczkc9d"?>
<x:xmpmeta xmlns:x="adobe:ns:meta/" x:xmptk="Adobe XMP Core 8.0-c001 1.000000, 0000/00/00-00:00:00        ">
   <rdf:RDF xmlns:rdf="http://www.w3.org/1999/02/22-rdf-syntax-ns#">
      <rdf:Description rdf:about=""
            xmlns:xmp="http://ns.adobe.com/xap/1.0/"
            xmlns:dc="http://purl.org/dc/elements/1.1/"
            xmlns:cq="http://www.day.com/jcr/cq/1.0"
            xmlns:tiff="http://ns.adobe.com/tiff/1.0/">
         <xmp:rhcc-effective-on>2023-12-08T17:37:54.134Z</xmp:rhcc-effective-on>
         <xmp:rhcc-metadata-complete-moderator>pending</xmp:rhcc-metadata-complete-moderator>
         <xmp:rhcc-translation-id>TRA30761e30-ac2f-4bce-a0c4-e123a06c6677</xmp:rhcc-translation-id>
         <xmp:brand-content-type>Icon</xmp:brand-content-type>
         <xmp:CreateDate>2023-12-08T17:37:54.134Z</xmp:CreateDate>
         <xmp:rhcc-effective-on-set-on-upload>true</xmp:rhcc-effective-on-set-on-upload>
         <xmp:rhcc-metadata-complete-uploader>pending</xmp:rhcc-metadata-complete-uploader>
         <xmp:rhcc-file-last-modified>2023-12-08T17:40:49.401Z</xmp:rhcc-file-last-modified>
         <xmp:rhcc-audience>rhcc-audience:internal</xmp:rhcc-audience>
         <xmp:rhcc-rights-restricted>no</xmp:rhcc-rights-restricted>
         <xmp:brand-content-subtype>Icon</xmp:brand-content-subtype>
         <xmp:rhcc-derivative-id>DER30761e30-ac2f-4bce-a0c4-e123a06c6677</xmp:rhcc-derivative-id>
         <xmp:brand-logo-color>Black</xmp:brand-logo-color>
         <xmp:rhcc-notify-portal-subscribers-on-change>yes</xmp:rhcc-notify-portal-subscribers-on-change>
         <dc:format>image/svg+xml</dc:format>
         <dc:modified>2024-02-09T20:27:56.500Z</dc:modified>
         <dc:title>
            <rdf:Alt>
               <rdf:li xml:lang="x-default">Dollar sign icon - Black</rdf:li>
            </rdf:Alt>
         </dc:title>
         <dc:description>
            <rdf:Alt>
               <rdf:li xml:lang="x-default">US, money, finance, earn, growth, s, $, shapes and signage</rdf:li>
            </rdf:Alt>
         </dc:description>
         <cq:lastReplicationAction_scene7>Activate</cq:lastReplicationAction_scene7>
         <cq:lastReplicationAction_publish>Activate</cq:lastReplicationAction_publish>
         <cq:lastReplicated_publish>2024-02-09T22:14:44.199Z</cq:lastReplicated_publish>
         <cq:lastReplicatedBy>workflow-process-service</cq:lastReplicatedBy>
         <cq:lastReplicationAction>Activate</cq:lastReplicationAction>
         <cq:lastReplicatedBy_publish>workflow-process-service</cq:lastReplicatedBy_publish>
         <cq:isDelivered>true</cq:isDelivered>
         <cq:lastReplicated>2024-02-09T22:14:44.199Z</cq:lastReplicated>
         <cq:lastReplicatedBy_scene7>workflow-process-service</cq:lastReplicatedBy_scene7>
         <cq:lastReplicated_scene7>2024-02-09T22:14:44.199Z</cq:lastReplicated_scene7>
         <tiff:ImageLength>36</tiff:ImageLength>
         <tiff:ImageWidth>36</tiff:ImageWidth>
      </rdf:Description>
   </rdf:RDF>
</x:xmpmeta>
                                                                                                    
                                                                                                    
                                                                                                    
                                                                                                    
                                                                                                    
                                                                                                    
                                                                                                    
                                                                                                    
                                                                                                    
                                                                                                    
                                 
<?xpacket end="w"?></metadata>
<path d="m26.14453,20.21484c-1.46826-1.67676-3.68945-2.08691-5.64941-2.44922-.37939-.07031-.75488-.13965-1.12061-.2168l-.74951-.15863V6.5694c1.18903.02148,2.37524.15662,3.52197.42865.01025.00293.021.00488.03223.00684,1.33887.38477,2.60449.97168,3.76318,1.74512.2876.19238.67529.11426.8667-.17285.19189-.28711.11475-.6748-.17236-.86621-1.28076-.85547-2.68164-1.50195-4.16309-1.92188-.02344-.00684-.04932-.01221-.07568-.01611-1.23206-.28949-2.49854-.44122-3.77295-.4624v-2.31055c0-.34521-.27979-.625-.625-.625s-.625.27979-.625.625v2.32849c-1.02631.05457-2.05255.19708-3.06543.4303-2.52881.70801-4.16064,2.11914-4.85059,4.19531-.19971.60254-.30127,1.23242-.30127,1.87207,0,1.49121.5874,2.97559,1.6123,4.07227,1.29492,1.38477,3.05664,1.75488,4.47168,2.05273l2.1333.45172v10.98834c-.92578-.05078-1.8421-.15063-2.71533-.34924-1.30908-.38379-2.54785-.96094-3.68115-1.71484-.54785-.36426-1.07275-.77148-1.56006-1.21094-.25732-.23047-.65234-.21094-.88281.04688-.23096.25586-.21045.65137.0459.88281.5332.47949,1.10645.9248,1.70459,1.32227,1.23877.82324,2.5918,1.4541,4.05859,1.88281.98981.2262,2.0072.33948,3.03027.39343v2.35559c0,.34473.27979.625.625.625s.625-.28027.625-.625v-2.31165c1.29077-.02197,2.57758-.177,3.84863-.47937,2.52881-.70898,4.16064-2.12109,4.84961-4.19531.2002-.60254.30176-1.23242.30176-1.87207,0-1.44238-.52588-2.83691-1.48047-3.92676Zm-10.64551-3.48633c-1.58105-.33301-2.86621-.66797-3.81592-1.68359-.81055-.86719-1.27539-2.04102-1.27539-3.21875,0-.50488.08008-1.00293.23779-1.47754.55078-1.65723,1.89697-2.79688,3.97168-3.37939.90216-.20636,1.82819-.30884,2.75781-.36108v10.51746l-1.87598-.39709Zm10.6377,8.89062c-.55029,1.65723-1.896,2.7959-3.97656,3.37988-1.15051.27362-2.34564.4071-3.53516.42902v-10.76044l.49072.10388c.37598.08008.76221.15137,1.15234.22363,1.8457.34082,3.75391.69336,4.93604,2.04395.75488.86133,1.1709,1.96387,1.1709,3.10254,0,.50586-.08008,1.00293-.23828,1.47754Z" stroke-width="0"/></svg>