<svg id="b3f14473-8d03-44d1-a73c-8e70d947dba2" data-name="Icon" xmlns="http://www.w3.org/2000/svg" viewBox="0 0 36 36">
  <title>Donut Icon - Black</title>
<desc>food, cook, eat, sweet, donut, dessert, breakfast, food and drink</desc>
<metadata><?xpacket begin="﻿" id="W5M0MpCehiHzreSzNTczkc9d"?>
<x:xmpmeta xmlns:x="adobe:ns:meta/" x:xmptk="Adobe XMP Core 8.0-c001 1.000000, 0000/00/00-00:00:00        ">
   <rdf:RDF xmlns:rdf="http://www.w3.org/1999/02/22-rdf-syntax-ns#">
      <rdf:Description rdf:about=""
            xmlns:xmp="http://ns.adobe.com/xap/1.0/"
            xmlns:dc="http://purl.org/dc/elements/1.1/"
            xmlns:cq="http://www.day.com/jcr/cq/1.0"
            xmlns:tiff="http://ns.adobe.com/tiff/1.0/">
         <xmp:rhcc-effective-on>2023-12-08T17:45:39.144Z</xmp:rhcc-effective-on>
         <xmp:rhcc-metadata-complete-moderator>pending</xmp:rhcc-metadata-complete-moderator>
         <xmp:rhcc-translation-id>TRAff2f05b6-e2b7-45b7-911d-cc5f8c2bf464</xmp:rhcc-translation-id>
         <xmp:brand-content-type>Icon</xmp:brand-content-type>
         <xmp:CreateDate>2023-12-08T17:45:39.144Z</xmp:CreateDate>
         <xmp:rhcc-effective-on-set-on-upload>true</xmp:rhcc-effective-on-set-on-upload>
         <xmp:rhcc-metadata-complete-uploader>pending</xmp:rhcc-metadata-complete-uploader>
         <xmp:rhcc-file-last-modified>2023-12-08T17:46:28.394Z</xmp:rhcc-file-last-modified>
         <xmp:rhcc-audience>rhcc-audience:internal</xmp:rhcc-audience>
         <xmp:rhcc-rights-restricted>no</xmp:rhcc-rights-restricted>
         <xmp:brand-content-subtype>Icon</xmp:brand-content-subtype>
         <xmp:rhcc-derivative-id>DERff2f05b6-e2b7-45b7-911d-cc5f8c2bf464</xmp:rhcc-derivative-id>
         <xmp:brand-logo-color>Black</xmp:brand-logo-color>
         <xmp:rhcc-notify-portal-subscribers-on-change>yes</xmp:rhcc-notify-portal-subscribers-on-change>
         <dc:format>image/svg+xml</dc:format>
         <dc:modified>2024-02-09T20:36:29.885Z</dc:modified>
         <dc:title>
            <rdf:Alt>
               <rdf:li xml:lang="x-default">Donut Icon - Black</rdf:li>
            </rdf:Alt>
         </dc:title>
         <dc:description>
            <rdf:Alt>
               <rdf:li xml:lang="x-default">food, cook, eat, sweet, donut, dessert, breakfast, food and drink</rdf:li>
            </rdf:Alt>
         </dc:description>
         <cq:lastReplicationAction_scene7>Activate</cq:lastReplicationAction_scene7>
         <cq:lastReplicationAction_publish>Activate</cq:lastReplicationAction_publish>
         <cq:lastReplicated_publish>2024-02-09T22:24:01.399Z</cq:lastReplicated_publish>
         <cq:lastReplicatedBy>workflow-process-service</cq:lastReplicatedBy>
         <cq:lastReplicationAction>Activate</cq:lastReplicationAction>
         <cq:lastReplicatedBy_publish>workflow-process-service</cq:lastReplicatedBy_publish>
         <cq:isDelivered>true</cq:isDelivered>
         <cq:lastReplicated>2024-02-09T22:24:01.399Z</cq:lastReplicated>
         <cq:lastReplicatedBy_scene7>workflow-process-service</cq:lastReplicatedBy_scene7>
         <cq:lastReplicated_scene7>2024-02-09T22:24:01.399Z</cq:lastReplicated_scene7>
         <tiff:ImageLength>36</tiff:ImageLength>
         <tiff:ImageWidth>36</tiff:ImageWidth>
      </rdf:Description>
   </rdf:RDF>
</x:xmpmeta>
                                                                                                    
                                                                                                    
                                                                                                    
                                                                                                    
                                                                                                    
                                                                                                    
                                                                                                    
                                                                                                    
                                                                                                    
                                                                                                    
                                 
<?xpacket end="w"?></metadata>
<g>
    <path d="M32,21.38a.62.62,0,0,0-.62.62v4A2.18,2.18,0,0,1,27,26a3.43,3.43,0,1,0-6.85,0,2.17,2.17,0,0,1-4.34,0A3.43,3.43,0,1,0,9,26a2.18,2.18,0,0,1-4.35,0V18C5.36.26,30.64.26,31.38,18a.62.62,0,0,0,1.24,0C31.82-1.4,4.18-1.4,3.37,18v8a3.42,3.42,0,0,0,5,3,14.66,14.66,0,0,0,19.26,0,3.42,3.42,0,0,0,5-3V22A.62.62,0,0,0,32,21.38ZM9.37,28.2A3.35,3.35,0,0,0,10.23,26a2.18,2.18,0,0,1,4.35,0,3.42,3.42,0,0,0,6.84,0,2.18,2.18,0,0,1,4.35,0,3.35,3.35,0,0,0,.86,2.23A13.4,13.4,0,0,1,9.37,28.2Z"/>
    <path d="M13.38,18c.19,6.11,9,6.11,9.25,0C22.43,11.89,13.57,11.89,13.38,18ZM18,14.62a3.38,3.38,0,0,1,0,6.75A3.38,3.38,0,0,1,18,14.62Z"/>
    <path d="M7.68,18v2.15a.63.63,0,1,0,1.25,0V18A.63.63,0,0,0,7.68,18Z"/>
    <path d="M10.78,11.51,9.26,13A.63.63,0,0,0,9.7,14.1c.36.1,1.48-1.3,2-1.71C12.25,11.83,11.35,10.92,10.78,11.51Z"/>
    <path d="M27.38,15.4l-1.52,1.53A.62.62,0,0,0,26.3,18c.36.11,1.48-1.29,2-1.7A.63.63,0,0,0,27.38,15.4Z"/>
    <path d="M17,10.53a.62.62,0,0,0,.61-.75l-.45-2.11a.61.61,0,0,0-.74-.48.62.62,0,0,0-.48.74L16.42,10A.62.62,0,0,0,17,10.53Z"/>
    <path d="M22.9,12.13a.64.64,0,0,0,.74-.49l.44-2.1a.62.62,0,0,0-1.22-.26l-.45,2.1A.64.64,0,0,0,22.9,12.13Z"/>
  </g>
</svg>
