<?xml version="1.0" encoding="UTF-8"?><svg id="a" xmlns="http://www.w3.org/2000/svg" viewBox="0 0 36 36"><title>Drone icon - Black</title>
<desc>fly, delivery, air, buzz, hum, flight, aircraft, edge, objects</desc>
<metadata><?xpacket begin="﻿" id="W5M0MpCehiHzreSzNTczkc9d"?>
<x:xmpmeta xmlns:x="adobe:ns:meta/" x:xmptk="Adobe XMP Core 8.0-c001 1.000000, 0000/00/00-00:00:00        ">
   <rdf:RDF xmlns:rdf="http://www.w3.org/1999/02/22-rdf-syntax-ns#">
      <rdf:Description rdf:about=""
            xmlns:xmp="http://ns.adobe.com/xap/1.0/"
            xmlns:dc="http://purl.org/dc/elements/1.1/"
            xmlns:cq="http://www.day.com/jcr/cq/1.0"
            xmlns:tiff="http://ns.adobe.com/tiff/1.0/">
         <xmp:rhcc-effective-on>2023-12-08T17:35:34.319Z</xmp:rhcc-effective-on>
         <xmp:rhcc-metadata-complete-moderator>pending</xmp:rhcc-metadata-complete-moderator>
         <xmp:rhcc-translation-id>TRAf529e28b-b1bb-4662-b2b4-cd26cf8f0e2d</xmp:rhcc-translation-id>
         <xmp:brand-content-type>Icon</xmp:brand-content-type>
         <xmp:CreateDate>2023-12-08T17:35:34.319Z</xmp:CreateDate>
         <xmp:rhcc-effective-on-set-on-upload>true</xmp:rhcc-effective-on-set-on-upload>
         <xmp:rhcc-metadata-complete-uploader>pending</xmp:rhcc-metadata-complete-uploader>
         <xmp:rhcc-file-last-modified>2023-12-08T17:36:26.706Z</xmp:rhcc-file-last-modified>
         <xmp:rhcc-audience>rhcc-audience:internal</xmp:rhcc-audience>
         <xmp:rhcc-rights-restricted>no</xmp:rhcc-rights-restricted>
         <xmp:brand-content-subtype>Icon</xmp:brand-content-subtype>
         <xmp:rhcc-derivative-id>DERf529e28b-b1bb-4662-b2b4-cd26cf8f0e2d</xmp:rhcc-derivative-id>
         <xmp:brand-logo-color>Black</xmp:brand-logo-color>
         <xmp:rhcc-notify-portal-subscribers-on-change>yes</xmp:rhcc-notify-portal-subscribers-on-change>
         <dc:format>image/svg+xml</dc:format>
         <dc:modified>2024-02-09T20:30:14.938Z</dc:modified>
         <dc:title>
            <rdf:Alt>
               <rdf:li xml:lang="x-default">Drone icon - Black</rdf:li>
            </rdf:Alt>
         </dc:title>
         <dc:description>
            <rdf:Alt>
               <rdf:li xml:lang="x-default">fly, delivery, air, buzz, hum, flight, aircraft, edge, objects</rdf:li>
            </rdf:Alt>
         </dc:description>
         <cq:lastReplicationAction_scene7>Activate</cq:lastReplicationAction_scene7>
         <cq:lastReplicationAction_publish>Activate</cq:lastReplicationAction_publish>
         <cq:lastReplicated_publish>2024-02-09T22:17:04.522Z</cq:lastReplicated_publish>
         <cq:lastReplicatedBy>workflow-process-service</cq:lastReplicatedBy>
         <cq:lastReplicationAction>Activate</cq:lastReplicationAction>
         <cq:lastReplicatedBy_publish>workflow-process-service</cq:lastReplicatedBy_publish>
         <cq:isDelivered>true</cq:isDelivered>
         <cq:lastReplicated>2024-02-09T22:17:04.522Z</cq:lastReplicated>
         <cq:lastReplicatedBy_scene7>workflow-process-service</cq:lastReplicatedBy_scene7>
         <cq:lastReplicated_scene7>2024-02-09T22:17:04.522Z</cq:lastReplicated_scene7>
         <tiff:ImageLength>36</tiff:ImageLength>
         <tiff:ImageWidth>36</tiff:ImageWidth>
      </rdf:Description>
   </rdf:RDF>
</x:xmpmeta>
                                                                                                    
                                                                                                    
                                                                                                    
                                                                                                    
                                                                                                    
                                                                                                    
                                                                                                    
                                                                                                    
                                                                                                    
                                                                                                    
                                 
<?xpacket end="w"?></metadata>
<defs><style>.b{fill:none;}</style></defs><path class="b" d="M18,12.88c-.45,0-.81,.35-.86,.79h1.72c-.04-.44-.41-.79-.86-.79Z"/><rect class="b" x="13.62" y="14.92" width="8.75" height="4.21"/><path d="M28.02,15.93c-.87,.03-.58,1.14-.62,1.7h-3.77v-3.33c0-.34-.28-.62-.62-.62h-2.88c-.16-2.69-4.07-2.69-4.23,0h-2.88c-.35,0-.62,.28-.62,.62v3.33h-3.77v-1.41c0-.34-.28-.62-.62-.62s-.62,.28-.62,.62v4c0,.82,1.25,.82,1.25,0v-1.34h3.77v.88c.02,.83,1.02,.6,1.56,.62l-1.28,.85c-.17,.12-.28,.31-.28,.52v2c0,.82,1.25,.82,1.25,0v-1.66l2.56-1.71h3.62l2.56,1.71v1.67c0,.82,1.25,.82,1.25,0v-2c0-.21-.1-.4-.28-.52l-1.28-.85c.54-.03,1.54,.2,1.56-.63v-.87h3.77v1.68c0,.82,1.25,.82,1.25,0v-4c0-.34-.28-.62-.62-.62Zm-10.02-3.05c.45,0,.81,.35,.86,.79h-1.72c.04-.44,.41-.79,.86-.79Zm4.38,6.25H13.62v-4.21h8.75v4.21Z"/><path d="M31,13.62h-6c-.82,0-.82,1.25,0,1.25h6c.82,0,.82-1.25,0-1.25Z"/><path d="M11,14.88c.81,0,.82-1.24,0-1.25l-6-.07c-.82-.04-.83,1.25-.01,1.25l6.01,.07Z"/></svg>