<?xml version="1.0" encoding="UTF-8"?><svg id="uuid-c41ed87e-983c-4663-a2e8-ea51a2f72c5a" xmlns="http://www.w3.org/2000/svg" viewBox="0 0 36 36"><title>Edge icon - Black</title>
<desc>cloud, internet of things, 5G, connection, hybrid, public, private, consumer, individual, devices, endpoint, software and technologies, RHEL, Linux, operating system, OS</desc>
<metadata><?xpacket begin="﻿" id="W5M0MpCehiHzreSzNTczkc9d"?>
<x:xmpmeta xmlns:x="adobe:ns:meta/" x:xmptk="Adobe XMP Core 8.0-c001 1.000000, 0000/00/00-00:00:00        ">
   <rdf:RDF xmlns:rdf="http://www.w3.org/1999/02/22-rdf-syntax-ns#">
      <rdf:Description rdf:about=""
            xmlns:xmp="http://ns.adobe.com/xap/1.0/"
            xmlns:dc="http://purl.org/dc/elements/1.1/"
            xmlns:cq="http://www.day.com/jcr/cq/1.0"
            xmlns:tiff="http://ns.adobe.com/tiff/1.0/">
         <xmp:rhcc-effective-on>2023-12-08T17:43:18.639Z</xmp:rhcc-effective-on>
         <xmp:rhcc-metadata-complete-moderator>pending</xmp:rhcc-metadata-complete-moderator>
         <xmp:rhcc-translation-id>TRA54263d2e-a132-4e35-b170-362a9a93cd6b</xmp:rhcc-translation-id>
         <xmp:brand-content-type>Icon</xmp:brand-content-type>
         <xmp:CreateDate>2023-12-08T17:43:18.639Z</xmp:CreateDate>
         <xmp:rhcc-effective-on-set-on-upload>true</xmp:rhcc-effective-on-set-on-upload>
         <xmp:rhcc-metadata-complete-uploader>pending</xmp:rhcc-metadata-complete-uploader>
         <xmp:rhcc-file-last-modified>2023-12-08T17:44:11.516Z</xmp:rhcc-file-last-modified>
         <xmp:rhcc-audience>rhcc-audience:internal</xmp:rhcc-audience>
         <xmp:rhcc-rights-restricted>no</xmp:rhcc-rights-restricted>
         <xmp:brand-content-subtype>Icon</xmp:brand-content-subtype>
         <xmp:rhcc-derivative-id>DER54263d2e-a132-4e35-b170-362a9a93cd6b</xmp:rhcc-derivative-id>
         <xmp:brand-logo-color>Black</xmp:brand-logo-color>
         <xmp:rhcc-notify-portal-subscribers-on-change>yes</xmp:rhcc-notify-portal-subscribers-on-change>
         <dc:format>image/svg+xml</dc:format>
         <dc:modified>2024-02-09T20:16:47.998Z</dc:modified>
         <dc:title>
            <rdf:Alt>
               <rdf:li xml:lang="x-default">Edge icon - Black</rdf:li>
            </rdf:Alt>
         </dc:title>
         <dc:description>
            <rdf:Alt>
               <rdf:li xml:lang="x-default">cloud, internet of things, 5G, connection, hybrid, public, private, consumer, individual, devices, endpoint, software and technologies, RHEL, Linux, operating system, OS</rdf:li>
            </rdf:Alt>
         </dc:description>
         <cq:lastReplicationAction_scene7>Activate</cq:lastReplicationAction_scene7>
         <cq:lastReplicationAction_publish>Activate</cq:lastReplicationAction_publish>
         <cq:lastReplicated_publish>2024-02-09T21:53:54.146Z</cq:lastReplicated_publish>
         <cq:lastReplicatedBy>workflow-process-service</cq:lastReplicatedBy>
         <cq:lastReplicationAction>Activate</cq:lastReplicationAction>
         <cq:lastReplicatedBy_publish>workflow-process-service</cq:lastReplicatedBy_publish>
         <cq:isDelivered>true</cq:isDelivered>
         <cq:lastReplicated>2024-02-09T21:53:54.146Z</cq:lastReplicated>
         <cq:lastReplicatedBy_scene7>workflow-process-service</cq:lastReplicatedBy_scene7>
         <cq:lastReplicated_scene7>2024-02-09T21:53:54.146Z</cq:lastReplicated_scene7>
         <tiff:ImageLength>36</tiff:ImageLength>
         <tiff:ImageWidth>36</tiff:ImageWidth>
      </rdf:Description>
   </rdf:RDF>
</x:xmpmeta>
                                                                                                    
                                                                                                    
                                                                                                    
                                                                                                    
                                                                                                    
                                                                                                    
                                                                                                    
                                                                                                    
                                                                                                    
                                                                                                    
                                 
<?xpacket end="w"?></metadata>
<path d="M24.34,16.52c-.2-5.53-7.67-7.28-10.3-2.42-2.56-.21-4.66,1.83-4.66,4.33,0,2.39,1.95,4.34,4.34,4.34h10c.08,0,.15-.01,.22-.04,3.32-.54,3.64-5.26,.4-6.21Zm-.91,5H13.71c-4.46-.2-3.84-6.76,.57-6.12,.29,.05,.57-.1,.69-.37,1.9-4.3,8.39-2.74,8.1,1.96-.02,.33,.23,.62,.56,.66,2.42,.28,2.22,3.84-.2,3.87Z"/><path d="M4.63,18.03c-.01-.35-.29-.63-.63-.63-.34,.01-.63,.29-.63,.63,.02,.81,1.25,.81,1.26,0Z"/><path d="M4.63,22.23c-.32,.12-.49,.48-.37,.8,.11,.32,.49,.49,.8,.37,.33-.12,.49-.48,.38-.8-.12-.33-.48-.49-.81-.37Z"/><path d="M7.25,9.65c.18,0,.36-.08,.48-.22,.23-.27,.19-.66-.08-.88-.26-.22-.65-.19-.87,.08-.23,.26-.19,.66,.07,.88,.12,.09,.26,.14,.4,.14Z"/><path d="M4.62,13.83c.32,.1,.69-.04,.8-.38,.12-.32-.05-.68-.38-.8-.32-.12-.68,.05-.8,.38-.12,.32,.05,.68,.38,.8Z"/><path d="M10.97,6.52c.11,0,.21-.03,.31-.09,.3-.17,.4-.55,.23-.85-.18-.3-.56-.4-.86-.23-.29,.18-.4,.56-.22,.86,.11,.2,.32,.31,.54,.31Z"/><path d="M20.28,4.82c.33,.06,.66-.17,.73-.51,.12-.8-1.09-1.02-1.24-.21-.06,.34,.17,.66,.51,.72Z"/><path d="M24.65,6.39c.29,.19,.69,.07,.85-.23,.17-.3,.07-.68-.23-.85-.3-.17-.68-.07-.85,.23-.17,.3-.07,.68,.23,.85Z"/><path d="M15.53,4.84s.07,0,.11-.01c.8-.14,.58-1.37-.22-1.23-.34,.06-.57,.39-.51,.73,.06,.3,.32,.51,.62,.51Z"/><path d="M6.89,26.54c-.27,.22-.3,.61-.08,.88,.22,.26,.62,.3,.88,.07,.27-.22,.3-.61,.08-.88-.23-.26-.62-.3-.88-.07Z"/><path d="M31.37,22.2c-.32-.12-.68,.05-.8,.38-.12,.32,.05,.68,.38,.8,.32,.1,.69-.04,.8-.38,.12-.32-.05-.68-.38-.8Z"/><path d="M30.55,13.38c.13,.33,.49,.49,.81,.37,.32-.12,.49-.48,.37-.81-.12-.32-.48-.49-.81-.36-.32,.11-.48,.47-.36,.8h-.01Z"/><path d="M28.25,26.59h0c-.22,.27-.19,.66,.08,.88,.26,.23,.65,.19,.88-.07,.22-.27,.18-.66-.08-.88-.26-.23-.66-.19-.88,.07Z"/><path d="M32,17.32c-.35,0-.63,.28-.63,.63-.03,.89,1.31,.9,1.26-.01-.01-.34-.29-.62-.63-.62Z"/><path d="M11.33,29.6h0c-.3-.18-.69-.08-.86,.22-.17,.3-.07,.69,.23,.86,.3,.16,.68,.07,.86-.23,.17-.3,.07-.68-.23-.85Z"/><path d="M15.69,31.18c-.34-.06-.66,.17-.72,.51-.06,.33,.17,.66,.51,.72,.33,.06,.67-.18,.72-.51,.06-.34-.17-.67-.51-.72Z"/><path d="M20.33,31.17c-.34,.06-.56,.39-.5,.73,.05,.34,.39,.57,.72,.5,.34-.05,.57-.38,.51-.72-.06-.34-.38-.57-.73-.51Z"/><path d="M28.69,9.59c.15,0,.29-.05,.41-.15,.26-.22,.29-.62,.07-.88-.22-.26-.62-.3-.88-.07-.26,.22-.3,.61-.07,.88,.12,.14,.3,.22,.47,.22Z"/><path d="M24.7,29.58h0c-.29,.17-.4,.56-.22,.86,.16,.3,.56,.4,.85,.22,.71-.41,.08-1.48-.62-1.08Z"/></svg>