<?xml version="1.0" encoding="UTF-8"?><svg id="uuid-af18984e-407d-429a-a452-a92e1bb7e2d7" xmlns="http://www.w3.org/2000/svg" viewBox="0 0 36 36"><title>Embedded icon</title>
<metadata><?xpacket begin="﻿" id="W5M0MpCehiHzreSzNTczkc9d"?>
<x:xmpmeta xmlns:x="adobe:ns:meta/" x:xmptk="Adobe XMP Core 8.0-c001 1.000000, 0000/00/00-00:00:00        ">
   <rdf:RDF xmlns:rdf="http://www.w3.org/1999/02/22-rdf-syntax-ns#">
      <rdf:Description rdf:about=""
            xmlns:xmp="http://ns.adobe.com/xap/1.0/"
            xmlns:tiff="http://ns.adobe.com/tiff/1.0/"
            xmlns:dc="http://purl.org/dc/elements/1.1/">
         <xmp:rhcc-effective-on>2024-04-03T15:42:15.082Z</xmp:rhcc-effective-on>
         <xmp:rhcc-rights-restricted>no</xmp:rhcc-rights-restricted>
         <xmp:brand-content-subtype>Icon</xmp:brand-content-subtype>
         <xmp:rhcc-metadata-complete-moderator>pending</xmp:rhcc-metadata-complete-moderator>
         <xmp:rhcc-translation-id>TRA12b99d7c-87db-41e3-b097-3acd0c4cc889</xmp:rhcc-translation-id>
         <xmp:brand-content-type>Icon</xmp:brand-content-type>
         <xmp:CreateDate>2024-04-03T15:42:15.082Z</xmp:CreateDate>
         <xmp:rhcc-derivative-id>DER12b99d7c-87db-41e3-b097-3acd0c4cc889</xmp:rhcc-derivative-id>
         <xmp:rhcc-effective-on-set-on-upload>true</xmp:rhcc-effective-on-set-on-upload>
         <xmp:brand-logo-color>Black</xmp:brand-logo-color>
         <xmp:rhcc-metadata-complete-uploader>pending</xmp:rhcc-metadata-complete-uploader>
         <xmp:rhcc-file-last-modified>2024-04-03T15:42:22.704Z</xmp:rhcc-file-last-modified>
         <xmp:rhcc-audience>rhcc-audience:internal</xmp:rhcc-audience>
         <xmp:rhcc-notify-portal-subscribers-on-change>yes</xmp:rhcc-notify-portal-subscribers-on-change>
         <xmp:brand-colorway>Black</xmp:brand-colorway>
         <tiff:ImageLength>36</tiff:ImageLength>
         <tiff:ImageWidth>36</tiff:ImageWidth>
         <dc:format>image/svg+xml</dc:format>
         <dc:modified>2024-04-03T15:42:56.841Z</dc:modified>
         <dc:title>
            <rdf:Alt>
               <rdf:li xml:lang="x-default">Embedded icon</rdf:li>
            </rdf:Alt>
         </dc:title>
      </rdf:Description>
   </rdf:RDF>
</x:xmpmeta>
                                                                                                    
                                                                                                    
                                                                                                    
                                                                                                    
                                                                                                    
                                                                                                    
                                                                                                    
                                                                                                    
                                                                                                    
                                                                                                    
                                                                                                    
                                                                                                    
                                                                                                    
                                                                                                    
                                                                                                    
                                                                                                    
                                                                                                    
                                                               
<?xpacket end="w"?></metadata>
<defs><style>.uuid-ec19be92-5202-4db9-a3da-d7e4dc0fb984{stroke-width:0px;}</style></defs><path class="uuid-ec19be92-5202-4db9-a3da-d7e4dc0fb984" d="M2.7397,21.6699c-.23-.0898-.5-.04-.6797.1396-.1201.1104-.1904.2705-.1904.4404,0,.0801.02.1602.0503.2402.0298.0693.0801.1396.1401.1992.1099.1201.2798.1807.4399.1807.1699,0,.3296-.0605.4399-.1807.1201-.1201.1899-.2793.1899-.4395,0-.1699-.0698-.3301-.1899-.4404-.0503-.0596-.1201-.1094-.2002-.1396Z"/><path class="uuid-ec19be92-5202-4db9-a3da-d7e4dc0fb984" d="M2.5,15.8096c-.3403,0-.6201.2803-.6201.6299,0,.3408.2798.6201.6201.6201.3496,0,.6299-.2793.6299-.6201,0-.3496-.2803-.6299-.6299-.6299Z"/><path class="uuid-ec19be92-5202-4db9-a3da-d7e4dc0fb984" d="M2.5,18.7197c-.3403,0-.6201.2803-.6201.6201,0,.3496.2798.6299.6201.6299.3496,0,.6299-.2803.6299-.6299,0-.3398-.2803-.6201-.6299-.6201Z"/><path class="uuid-ec19be92-5202-4db9-a3da-d7e4dc0fb984" d="M2.2598,14.1094c.0801.0303.1602.0508.2402.0508.1597,0,.3198-.0703.4399-.1904.1201-.1104.1797-.2803.1797-.4395,0-.1709-.0596-.3301-.1797-.4404-.1699-.1797-.4502-.2305-.6802-.1396-.0698.0293-.1401.0801-.1997.1396-.1201.1201-.1904.2803-.1904.4404,0,.1592.0703.3193.1904.4395.0596.0605.1299.1104.1997.1396Z"/><path class="uuid-ec19be92-5202-4db9-a3da-d7e4dc0fb984" d="M7.6699,11.2803c.1001,0,.1997-.0205.2998-.0801.3003-.1602.4102-.54.2402-.8506-.1602-.2998-.54-.3994-.8501-.2402-.2998.1709-.4102.5508-.2402.8506.1201.21.3301.3203.5503.3203Z"/><path class="uuid-ec19be92-5202-4db9-a3da-d7e4dc0fb984" d="M15.4199,6.9795c.1001,0,.1997-.0293.2998-.0801.3003-.1699.4102-.5498.2402-.8496-.1602-.2998-.54-.4102-.8501-.2402-.2998.1602-.4102.54-.2402.8506.1104.1992.3301.3193.5503.3193Z"/><path class="uuid-ec19be92-5202-4db9-a3da-d7e4dc0fb984" d="M10.25,9.8496c.0996,0,.21-.0303.2998-.0801.3101-.1699.4102-.5498.25-.8496-.1699-.2998-.5498-.4102-.8501-.2402-.3101.1699-.4097.5498-.25.8506.1201.1992.3301.3193.5503.3193Z"/><path class="uuid-ec19be92-5202-4db9-a3da-d7e4dc0fb984" d="M12.8296,8.4102c.1104,0,.2104-.0205.3101-.0703.3003-.1699.4102-.5498.2402-.8604-.1699-.2998-.5503-.4102-.8501-.2393-.2998.1699-.4102.5498-.2397.8496.1099.21.3198.3203.5396.3203Z"/><path class="uuid-ec19be92-5202-4db9-a3da-d7e4dc0fb984" d="M5.0796,12.7197c.1104,0,.2104-.0303.3101-.0801.3003-.1699.4102-.5498.2402-.8496s-.5503-.4102-.8501-.2402c-.2998.1602-.4102.5498-.2397.8496.1099.2002.3198.3203.5396.3203Z"/><path class="uuid-ec19be92-5202-4db9-a3da-d7e4dc0fb984" d="M18,5.54c.1699,0,.3198-.0605.4399-.1807.1201-.1191.1797-.2793.1797-.4395,0-.0801-.0098-.1699-.04-.2402-.0298-.0801-.0796-.1494-.1396-.2002-.0601-.0596-.1201-.1094-.2002-.1396-.23-.0898-.5098-.04-.6797.1396-.0601.0508-.1104.1201-.1401.2002-.0303.0703-.0503.1602-.0503.2402,0,.1699.0703.3203.1904.4395.1196.1201.2695.1807.4399.1807Z"/><path class="uuid-ec19be92-5202-4db9-a3da-d7e4dc0fb984" d="M25.4497,9.7695c.0903.0498.2002.0801.3003.0801.2197,0,.4297-.1201.5498-.3193.1699-.3008.0498-.6807-.25-.8506s-.6802-.0596-.8501.2402c-.1597.2998-.0498.6797.25.8496Z"/><path class="uuid-ec19be92-5202-4db9-a3da-d7e4dc0fb984" d="M28.0298,11.2002c.1001.0596.2002.0801.2998.0801.2202,0,.4404-.1104.5503-.3203.1699-.2998.0601-.6797-.2402-.8506-.2998-.1592-.6797-.0596-.8496.2402-.1704.3105-.0601.6904.2397.8506Z"/><path class="uuid-ec19be92-5202-4db9-a3da-d7e4dc0fb984" d="M22.8599,8.3398c.1001.0498.2002.0703.3101.0703.2197,0,.4297-.1104.54-.3203.1699-.2998.0601-.6797-.2402-.8496-.2998-.1709-.6797-.0605-.8501.2393-.1699.3105-.0596.6904.2402.8604Z"/><path class="uuid-ec19be92-5202-4db9-a3da-d7e4dc0fb984" d="M20.2798,6.8994c.1001.0508.2002.0801.2998.0801.2202,0,.4404-.1201.5503-.3193.1699-.3105.0601-.6904-.2402-.8506-.2998-.1699-.6797-.0596-.8496.2402-.1704.2998-.0601.6797.2397.8496Z"/><path class="uuid-ec19be92-5202-4db9-a3da-d7e4dc0fb984" d="M30.6099,12.6396c.1001.0498.2002.0801.3101.0801.2197,0,.4297-.1201.54-.3203.1699-.2998.0601-.6895-.2402-.8496-.2998-.1699-.6797-.0596-.8501.2402-.1699.2998-.0596.6797.2402.8496Z"/><path class="uuid-ec19be92-5202-4db9-a3da-d7e4dc0fb984" d="M33.5,14.1602c.1597,0,.3198-.0703.4399-.1904s.1899-.2803.1899-.4395c0-.1602-.0698-.3203-.1899-.4404-.23-.2402-.6499-.2402-.8799,0-.1201.1201-.1904.2803-.1904.4404,0,.1592.0703.3193.1904.4395.1196.1201.2798.1904.4399.1904Z"/><path class="uuid-ec19be92-5202-4db9-a3da-d7e4dc0fb984" d="M33.5,18.7197c-.3501,0-.6201.2803-.6201.6201,0,.3496.27.6299.6201.6299.3496,0,.6196-.2803.6196-.6299,0-.3398-.27-.6201-.6196-.6201Z"/><path class="uuid-ec19be92-5202-4db9-a3da-d7e4dc0fb984" d="M33.5,15.8096c-.3501,0-.6201.2803-.6201.6299,0,.3408.27.6201.6201.6201.3496,0,.6196-.2793.6196-.6201,0-.3496-.27-.6299-.6196-.6299Z"/><path class="uuid-ec19be92-5202-4db9-a3da-d7e4dc0fb984" d="M33.0601,21.8096c-.1201.1104-.1904.2803-.1904.4404s.0703.3193.1904.4395c.1099.1201.2798.1807.4399.1807.1699,0,.3296-.0605.4399-.1807.1201-.1201.1899-.2793.1899-.4395s-.0698-.3301-.1899-.4404c-.23-.2402-.6499-.2402-.8799,0Z"/><path class="uuid-ec19be92-5202-4db9-a3da-d7e4dc0fb984" d="M28.0298,24.5693c-.2998.1709-.4102.5508-.2397.8506.1099.21.3198.3203.5396.3203.1104,0,.2104-.0205.3101-.0703.3003-.1699.4102-.5498.2402-.8604-.1699-.2998-.5503-.3994-.8501-.2402Z"/><path class="uuid-ec19be92-5202-4db9-a3da-d7e4dc0fb984" d="M22.8599,27.4395c-.2998.1699-.4102.5508-.2402.8506.1104.21.3301.3301.5503.3301.1001,0,.1997-.0303.2998-.0801.3003-.1699.4102-.5498.2402-.8506-.1602-.2998-.5503-.4199-.8501-.25Z"/><path class="uuid-ec19be92-5202-4db9-a3da-d7e4dc0fb984" d="M20.2798,28.8799c-.2998.1699-.4102.5498-.2397.8496.1099.21.3198.3203.5396.3203.1104,0,.2104-.0195.3101-.0801.3003-.1699.4102-.5498.2402-.8496-.1699-.3008-.5503-.4102-.8501-.2402Z"/><path class="uuid-ec19be92-5202-4db9-a3da-d7e4dc0fb984" d="M25.4497,26.0098c-.2998.1699-.4097.5498-.25.8496.1201.2002.3301.3203.5503.3203.0996,0,.21-.0303.2998-.0801.3101-.1699.4102-.5498.25-.8496-.1699-.2998-.5498-.4102-.8501-.2402Z"/><path class="uuid-ec19be92-5202-4db9-a3da-d7e4dc0fb984" d="M30.6099,23.1396c-.2998.1699-.4102.5498-.2402.8506.1104.1992.3301.3193.5503.3193.1001,0,.1997-.0293.2998-.0801.3003-.1699.4102-.5498.2402-.8496-.1602-.2998-.54-.4102-.8501-.2402Z"/><path class="uuid-ec19be92-5202-4db9-a3da-d7e4dc0fb984" d="M17.5601,30.4199c-.1201.1201-.1904.2695-.1904.4395,0,.1709.0703.3301.1904.4404.1099.1201.2695.1904.4399.1904.1699,0,.3198-.0703.4399-.1904.1201-.1104.1797-.2695.1797-.4404,0-.1699-.0596-.3291-.1797-.4395-.23-.2402-.6499-.2305-.8799,0Z"/><path class="uuid-ec19be92-5202-4db9-a3da-d7e4dc0fb984" d="M7.9697,24.5693c-.2998-.1592-.6797-.0596-.8501.2402-.1699.3105-.0596.6904.2402.8604.1001.0498.2002.0703.3101.0703.2197,0,.4297-.1104.54-.3203.1699-.2998.0601-.6797-.2402-.8506Z"/><path class="uuid-ec19be92-5202-4db9-a3da-d7e4dc0fb984" d="M10.5498,26.0098c-.2998-.1699-.6802-.0596-.8501.2402-.1597.2998-.0601.6797.25.8496.0903.0498.2002.0801.3003.0801.2197,0,.4297-.1201.5498-.3203.1602-.2998.0601-.6895-.25-.8496Z"/><path class="uuid-ec19be92-5202-4db9-a3da-d7e4dc0fb984" d="M13.1396,27.4395c-.2998-.1699-.6899-.0498-.8496.25-.1704.3008-.0601.6807.2397.8506.1001.0498.2002.0801.2998.0801.2202,0,.4404-.1201.5503-.3301.1699-.2998.0601-.6807-.2402-.8506Z"/><path class="uuid-ec19be92-5202-4db9-a3da-d7e4dc0fb984" d="M15.7197,28.8799c-.2998-.1699-.6797-.0605-.8501.2402-.1699.2998-.0596.6797.2402.8496.1001.0605.2002.0801.3101.0801.2197,0,.4297-.1104.54-.3203.1699-.2998.0601-.6797-.2402-.8496Z"/><path class="uuid-ec19be92-5202-4db9-a3da-d7e4dc0fb984" d="M5.3896,23.1396c-.2998-.1699-.6899-.0596-.8496.2402-.1704.2998-.0601.6797.2397.8496.1001.0508.2002.0801.2998.0801.2202,0,.4404-.1201.5503-.3193.1699-.3008.0601-.6807-.2402-.8506Z"/><path class="uuid-ec19be92-5202-4db9-a3da-d7e4dc0fb984" d="M31.3037,14.4541l-13-7.2227c-.1895-.1055-.418-.1055-.6074,0l-13,7.2227c-.1982.1094-.3213.3193-.3213.5459s.123.4365.3213.5459l13,7.2227c.0947.0527.1992.0791.3037.0791s.209-.0264.3037-.0791l13-7.2227c.1982-.1094.3213-.3193.3213-.5459s-.123-.4365-.3213-.5459ZM18,21.5078l-11.7129-6.5078,11.7129-6.5078,11.7129,6.5078-11.7129,6.5078Z"/><path class="uuid-ec19be92-5202-4db9-a3da-d7e4dc0fb984" d="M30.6963,20.2314l-12.6963,7.0537-12.6963-7.0537c-.3008-.168-.6821-.0586-.8501.2422-.1675.3018-.0591.6826.2427.8496l13,7.2227c.0947.0527.1992.0791.3037.0791s.209-.0264.3037-.0791l13-7.2227c.3018-.167.4102-.5479.2427-.8496-.1675-.3008-.5479-.4111-.8501-.2422Z"/></svg>