<?xml version="1.0" encoding="UTF-8"?><svg id="uuid-53c50706-bf6a-4515-ba2d-18d7fa673eb7" xmlns="http://www.w3.org/2000/svg" viewBox="0 0 36 36"><title>Escalator (up) icon - Black</title>
<desc>escalator, stairs, signage, up, ascending, going up, arrow</desc>
<metadata><?xpacket begin="﻿" id="W5M0MpCehiHzreSzNTczkc9d"?>
<x:xmpmeta xmlns:x="adobe:ns:meta/" x:xmptk="Adobe XMP Core 8.0-c001 1.000000, 0000/00/00-00:00:00        ">
   <rdf:RDF xmlns:rdf="http://www.w3.org/1999/02/22-rdf-syntax-ns#">
      <rdf:Description rdf:about=""
            xmlns:xmp="http://ns.adobe.com/xap/1.0/"
            xmlns:tiff="http://ns.adobe.com/tiff/1.0/"
            xmlns:dc="http://purl.org/dc/elements/1.1/">
         <xmp:rhcc-effective-on>2024-03-13T14:21:03.293Z</xmp:rhcc-effective-on>
         <xmp:rhcc-rights-restricted>no</xmp:rhcc-rights-restricted>
         <xmp:brand-content-subtype>Icon</xmp:brand-content-subtype>
         <xmp:rhcc-metadata-complete-moderator>pending</xmp:rhcc-metadata-complete-moderator>
         <xmp:rhcc-translation-id>TRA123dc967-faaa-4d2b-8f24-38605a074e05</xmp:rhcc-translation-id>
         <xmp:brand-content-type>Icon</xmp:brand-content-type>
         <xmp:CreateDate>2024-03-13T14:21:03.293Z</xmp:CreateDate>
         <xmp:rhcc-derivative-id>DER123dc967-faaa-4d2b-8f24-38605a074e05</xmp:rhcc-derivative-id>
         <xmp:rhcc-effective-on-set-on-upload>true</xmp:rhcc-effective-on-set-on-upload>
         <xmp:brand-logo-color>Black</xmp:brand-logo-color>
         <xmp:rhcc-metadata-complete-uploader>pending</xmp:rhcc-metadata-complete-uploader>
         <xmp:rhcc-file-last-modified>2024-03-13T14:21:16.484Z</xmp:rhcc-file-last-modified>
         <xmp:rhcc-audience>rhcc-audience:internal</xmp:rhcc-audience>
         <xmp:rhcc-notify-portal-subscribers-on-change>yes</xmp:rhcc-notify-portal-subscribers-on-change>
         <tiff:ImageLength>36</tiff:ImageLength>
         <tiff:ImageWidth>36</tiff:ImageWidth>
         <dc:format>image/svg+xml</dc:format>
         <dc:modified>2024-03-13T14:21:57.582Z</dc:modified>
         <dc:description>
            <rdf:Alt>
               <rdf:li xml:lang="x-default">escalator, stairs, signage, up, ascending, going up, arrow</rdf:li>
            </rdf:Alt>
         </dc:description>
         <dc:title>
            <rdf:Alt>
               <rdf:li xml:lang="x-default">Escalator (up) icon - Black</rdf:li>
            </rdf:Alt>
         </dc:title>
      </rdf:Description>
   </rdf:RDF>
</x:xmpmeta>
                                                                                                    
                                                                                                    
                                                                                                    
                                                                                                    
                                                                                                    
                                                                                                    
                                                                                                    
                                                                                                    
                                                                                                    
                                                                                                    
                                                                                                    
                                                                                                    
                                                                                                    
                                                                                                    
                                                                                                    
                                                                                                    
                                              
<?xpacket end="w"?></metadata>
<defs><style>.uuid-7a9b7a6d-a24d-49a2-90fb-630100018ec5{stroke-width:0px;}</style></defs><path class="uuid-7a9b7a6d-a24d-49a2-90fb-630100018ec5" d="M29,23.375h-2.1714c-.3672,0-.7129-.1436-.9727-.4033l-12.8281-12.8281c-.4961-.4951-1.1553-.7686-1.8564-.7686h-4.1714c-1.999,0-3.625,1.626-3.625,3.625s1.626,3.625,3.625,3.625h2.7412l13.8169,13.8174c.1172.1172.2764.1826.4419.1826h5c1.999,0,3.625-1.626,3.625-3.625s-1.626-3.625-3.625-3.625ZM29,29.375h-4.7412l-13.8169-13.8174c-.1172-.1172-.2764-.1826-.4419-.1826h-3c-1.3096,0-2.375-1.0654-2.375-2.375s1.0654-2.375,2.375-2.375h4.1714c.3672,0,.7129.1436.9727.4033l12.8281,12.8281c.4961.4951,1.1553.7686,1.8564.7686h2.1714c1.3096,0,2.375,1.0654,2.375,2.375s-1.0654,2.375-2.375,2.375Z"/><path class="uuid-7a9b7a6d-a24d-49a2-90fb-630100018ec5" d="M7.5093,25.625h2.4907c.3452,0,.625-.2803.625-.625s-.2798-.625-.625-.625h-3.9975c-.0827-.0004-.1649.0162-.2425.0485-.0556.0232-.1019.0609-.1479.0983-.0172.0139-.038.0199-.054.0358-.01.01-.0133.0234-.0225.0339-.0447.0509-.0858.1056-.1122.1691-.0317.0765-.0484.1578-.0484.2394v4c0,.3447.2798.625.625.625s.625-.2803.625-.625v-2.4907l3.9331,3.9331c.1221.1221.2817.1826.4419.1826s.3198-.0605.4419-.1826c.2441-.2441.2441-.6406,0-.8848l-3.9326-3.9326Z"/><path class="uuid-7a9b7a6d-a24d-49a2-90fb-630100018ec5" d="M11,6.625h1.7412l13.8169,13.8174c.1172.1172.2764.1826.4419.1826h2c.3452,0,.625-.2803.625-.625s-.2798-.625-.625-.625h-1.7412L13.4419,5.5581c-.1172-.1172-.2764-.1831-.4419-.1831h-2c-.3452,0-.625.2798-.625.625s.2798.625.625.625Z"/></svg>