<?xml version="1.0" encoding="UTF-8"?><svg id="uuid-95b99b1c-7bac-457e-bfcf-f0394432e6fb" xmlns="http://www.w3.org/2000/svg" viewBox="0 0 36 36"><title>Escalator (down) icon - Black</title>
<desc>escalator, stairs, signage, down, ascending, going down, arrow</desc>
<metadata><?xpacket begin="﻿" id="W5M0MpCehiHzreSzNTczkc9d"?>
<x:xmpmeta xmlns:x="adobe:ns:meta/" x:xmptk="Adobe XMP Core 8.0-c001 1.000000, 0000/00/00-00:00:00        ">
   <rdf:RDF xmlns:rdf="http://www.w3.org/1999/02/22-rdf-syntax-ns#">
      <rdf:Description rdf:about=""
            xmlns:xmp="http://ns.adobe.com/xap/1.0/"
            xmlns:tiff="http://ns.adobe.com/tiff/1.0/"
            xmlns:dc="http://purl.org/dc/elements/1.1/">
         <xmp:rhcc-effective-on>2024-03-13T14:25:47.237Z</xmp:rhcc-effective-on>
         <xmp:rhcc-rights-restricted>no</xmp:rhcc-rights-restricted>
         <xmp:brand-content-subtype>Icon</xmp:brand-content-subtype>
         <xmp:rhcc-metadata-complete-moderator>pending</xmp:rhcc-metadata-complete-moderator>
         <xmp:rhcc-translation-id>TRAb3104440-72ad-4cc0-a90d-91efba13baed</xmp:rhcc-translation-id>
         <xmp:brand-content-type>Icon</xmp:brand-content-type>
         <xmp:CreateDate>2024-03-13T14:25:47.237Z</xmp:CreateDate>
         <xmp:rhcc-derivative-id>DERb3104440-72ad-4cc0-a90d-91efba13baed</xmp:rhcc-derivative-id>
         <xmp:rhcc-effective-on-set-on-upload>true</xmp:rhcc-effective-on-set-on-upload>
         <xmp:brand-logo-color>Black</xmp:brand-logo-color>
         <xmp:rhcc-metadata-complete-uploader>pending</xmp:rhcc-metadata-complete-uploader>
         <xmp:rhcc-file-last-modified>2024-03-13T14:25:55.545Z</xmp:rhcc-file-last-modified>
         <xmp:rhcc-audience>rhcc-audience:internal</xmp:rhcc-audience>
         <xmp:rhcc-notify-portal-subscribers-on-change>yes</xmp:rhcc-notify-portal-subscribers-on-change>
         <tiff:ImageLength>36</tiff:ImageLength>
         <tiff:ImageWidth>36</tiff:ImageWidth>
         <dc:format>image/svg+xml</dc:format>
         <dc:modified>2024-03-13T14:26:12.160Z</dc:modified>
         <dc:description>
            <rdf:Alt>
               <rdf:li xml:lang="x-default">escalator, stairs, signage, down, ascending, going down, arrow</rdf:li>
            </rdf:Alt>
         </dc:description>
         <dc:title>
            <rdf:Alt>
               <rdf:li xml:lang="x-default">Escalator (down) icon - Black</rdf:li>
            </rdf:Alt>
         </dc:title>
      </rdf:Description>
   </rdf:RDF>
</x:xmpmeta>
                                                                                                    
                                                                                                    
                                                                                                    
                                                                                                    
                                                                                                    
                                                                                                    
                                                                                                    
                                                                                                    
                                                                                                    
                                                                                                    
                                                                                                    
                                                                                                    
                                                                                                    
                                                                                                    
                                                                                                    
                                                                                                    
                                                   
<?xpacket end="w"?></metadata>
<defs><style>.uuid-aae565ba-c000-421b-b29c-8d7b59f52d1a{stroke-width:0px;}</style></defs><path class="uuid-aae565ba-c000-421b-b29c-8d7b59f52d1a" d="M29,23.375h-2.1714c-.3672,0-.7129-.1436-.9727-.4033l-12.8281-12.8281c-.4961-.4951-1.1553-.7686-1.8564-.7686h-4.1714c-1.999,0-3.625,1.626-3.625,3.625s1.626,3.625,3.625,3.625h2.7412l13.8169,13.8174c.1172.1172.2764.1826.4419.1826h5c1.999,0,3.625-1.626,3.625-3.625s-1.626-3.625-3.625-3.625ZM29,29.375h-4.7412l-13.8169-13.8174c-.1172-.1172-.2764-.1826-.4419-.1826h-3c-1.3096,0-2.375-1.0654-2.375-2.375s1.0654-2.375,2.375-2.375h4.1714c.3672,0,.7129.1436.9727.4033l12.8281,12.8281c.4961.4951,1.1553.7686,1.8564.7686h2.1714c1.3096,0,2.375,1.0654,2.375,2.375s-1.0654,2.375-2.375,2.375Z"/><path class="uuid-aae565ba-c000-421b-b29c-8d7b59f52d1a" d="M11,25.375c-.3452,0-.625.2803-.625.625v2.4907l-3.9331-3.9331c-.2441-.2441-.6396-.2441-.8838,0s-.2441.6406,0,.8848l3.9326,3.9326h-2.4907c-.3452,0-.625.2803-.625.625s.2798.625.625.625h4c.0818,0,.163-.0168.2396-.0485.0572-.0238.1049-.062.152-.1008.0159-.013.0354-.0185.0502-.0333.01-.01.0133-.0234.0225-.0339.0447-.0509.0858-.1056.1122-.1691.0317-.0765.0484-.1578.0484-.2394v-4c0-.3447-.2798-.625-.625-.625Z"/><path class="uuid-aae565ba-c000-421b-b29c-8d7b59f52d1a" d="M11,6.625h1.7412l13.8169,13.8174c.1172.1172.2764.1826.4419.1826h2c.3452,0,.625-.2803.625-.625s-.2798-.625-.625-.625h-1.7412L13.4419,5.5576c-.1172-.1172-.2764-.1826-.4419-.1826h-2c-.3452,0-.625.2803-.625.625s.2798.625.625.625Z"/></svg>