<?xml version="1.0" encoding="UTF-8"?><svg id="uuid-b7af0f95-2dba-4823-9d97-4ec43bb3e343" xmlns="http://www.w3.org/2000/svg" width="36" height="36" viewBox="0 0 36 36"><title>Lower cost euro icon - Black</title>
<desc>reduce, less, loss, bank, finance, money, financial, Europe, amount, drop, down, European Union, diagrams and graphs</desc>
<metadata><?xpacket begin="﻿" id="W5M0MpCehiHzreSzNTczkc9d"?>
<x:xmpmeta xmlns:x="adobe:ns:meta/" x:xmptk="Adobe XMP Core 8.0-c001 1.000000, 0000/00/00-00:00:00        ">
   <rdf:RDF xmlns:rdf="http://www.w3.org/1999/02/22-rdf-syntax-ns#">
      <rdf:Description rdf:about=""
            xmlns:xmp="http://ns.adobe.com/xap/1.0/"
            xmlns:dc="http://purl.org/dc/elements/1.1/"
            xmlns:cq="http://www.day.com/jcr/cq/1.0"
            xmlns:tiff="http://ns.adobe.com/tiff/1.0/">
         <xmp:rhcc-effective-on>2023-12-08T17:35:02.756Z</xmp:rhcc-effective-on>
         <xmp:rhcc-metadata-complete-moderator>pending</xmp:rhcc-metadata-complete-moderator>
         <xmp:rhcc-translation-id>TRA076f36a5-393b-4310-a1fe-66381b5b60b5</xmp:rhcc-translation-id>
         <xmp:brand-content-type>Icon</xmp:brand-content-type>
         <xmp:CreateDate>2023-12-08T17:35:02.756Z</xmp:CreateDate>
         <xmp:rhcc-effective-on-set-on-upload>true</xmp:rhcc-effective-on-set-on-upload>
         <xmp:rhcc-metadata-complete-uploader>pending</xmp:rhcc-metadata-complete-uploader>
         <xmp:rhcc-file-last-modified>2023-12-08T17:35:16.857Z</xmp:rhcc-file-last-modified>
         <xmp:rhcc-audience>rhcc-audience:internal</xmp:rhcc-audience>
         <xmp:rhcc-rights-restricted>no</xmp:rhcc-rights-restricted>
         <xmp:brand-content-subtype>Icon</xmp:brand-content-subtype>
         <xmp:rhcc-derivative-id>DER076f36a5-393b-4310-a1fe-66381b5b60b5</xmp:rhcc-derivative-id>
         <xmp:brand-logo-color>Black</xmp:brand-logo-color>
         <xmp:rhcc-notify-portal-subscribers-on-change>yes</xmp:rhcc-notify-portal-subscribers-on-change>
         <dc:format>image/svg+xml</dc:format>
         <dc:modified>2024-02-09T20:35:07.436Z</dc:modified>
         <dc:title>
            <rdf:Alt>
               <rdf:li xml:lang="x-default">Lower cost euro icon - Black</rdf:li>
            </rdf:Alt>
         </dc:title>
         <dc:description>
            <rdf:Alt>
               <rdf:li xml:lang="x-default">reduce, less, loss, bank, finance, money, financial, Europe, amount, drop, down, European Union, diagrams and graphs</rdf:li>
            </rdf:Alt>
         </dc:description>
         <cq:lastReplicationAction_scene7>Activate</cq:lastReplicationAction_scene7>
         <cq:lastReplicationAction_publish>Activate</cq:lastReplicationAction_publish>
         <cq:lastReplicated_publish>2024-02-09T22:22:44.237Z</cq:lastReplicated_publish>
         <cq:lastReplicatedBy>workflow-process-service</cq:lastReplicatedBy>
         <cq:lastReplicationAction>Activate</cq:lastReplicationAction>
         <cq:lastReplicatedBy_publish>workflow-process-service</cq:lastReplicatedBy_publish>
         <cq:isDelivered>true</cq:isDelivered>
         <cq:lastReplicated>2024-02-09T22:22:44.237Z</cq:lastReplicated>
         <cq:lastReplicatedBy_scene7>workflow-process-service</cq:lastReplicatedBy_scene7>
         <cq:lastReplicated_scene7>2024-02-09T22:22:44.237Z</cq:lastReplicated_scene7>
         <tiff:ImageLength>36</tiff:ImageLength>
         <tiff:ImageWidth>36</tiff:ImageWidth>
      </rdf:Description>
   </rdf:RDF>
</x:xmpmeta>
                                                                                                    
                                                                                                    
                                                                                                    
                                                                                                    
                                                                                                    
                                                                                                    
                                                                                                    
                                                                                                    
                                                                                                    
                                                                                                    
                                 
<?xpacket end="w"?></metadata>
<path d="m24.625,18c0-.34473-.27979-.625-.625-.625h-12.32343c-.03198-.28766-.05157-.57892-.05157-.875,0-.64716.0871-1.27289.23499-1.875h12.14001c.34521,0,.625-.28027.625-.625s-.27979-.625-.625-.625h-11.7251c1.2121-2.79156,3.99298-4.75,7.2251-4.75,1.47949,0,2.92139.41211,4.16895,1.19336.29199.18359.67822.09473.86133-.19922.18311-.29199.09424-.67773-.19824-.86133-1.44678-.9043-3.11768-1.38281-4.83203-1.38281-.29535,0-.58679.01672-.875.04431v-2.41931c0-.34473-.27979-.625-.625-.625s-.625.28027-.625.625v2.63501c-2.98364.7157-5.39563,2.89655-6.43707,5.73999h-1.93793c-.34521,0-.625.28027-.625.625s.27979.625.625.625h1.57062c-.12701.60553-.19562,1.2323-.19562,1.875,0,.29535.01672.58673.04431.875h-1.41931c-.34521,0-.625.28027-.625.625s.27979.625.625.625h1.63507c.79755,3.32501,3.41479,5.94238,6.73993,6.73999v4.12604l-.93311-.93341c-.24414-.24414-.63965-.24414-.88379,0s-.24414.64062,0,.88477l2,2c.01483.01483.03436.02032.05023.03333.04712.03882.09485.07703.15204.10083.0766.03168.15784.04846.23962.04846s.16302-.01678.23962-.04846c.05719-.0238.10492-.06201.15204-.10083.01587-.013.0354-.01849.05023-.03333l2-2c.24414-.24414.24414-.64062,0-.88477s-.63965-.24414-.88379,0l-.93311.93341v-3.91034c.28821.02759.57965.04431.875.04431,1.71436,0,3.38525-.47852,4.83203-1.38281.29248-.18359.38135-.56934.19824-.86133-.18311-.29395-.56934-.38184-.86133-.19922-1.24756.78125-2.68945,1.19336-4.16895,1.19336-3.60522,0-6.64502-2.43787-7.57562-5.75h12.07562c.34521,0,.625-.28027.625-.625Z" stroke-width="0"/></svg>