<?xml version="1.0" encoding="UTF-8"?><svg id="a" xmlns="http://www.w3.org/2000/svg" viewBox="0 0 36 36"><title>Farm tools icon - Black</title>
<desc>farming, agriculture, dig, scoop, rake, till, pitchfork, hay, grow, objects</desc>
<metadata><?xpacket begin="﻿" id="W5M0MpCehiHzreSzNTczkc9d"?>
<x:xmpmeta xmlns:x="adobe:ns:meta/" x:xmptk="Adobe XMP Core 8.0-c001 1.000000, 0000/00/00-00:00:00        ">
   <rdf:RDF xmlns:rdf="http://www.w3.org/1999/02/22-rdf-syntax-ns#">
      <rdf:Description rdf:about=""
            xmlns:xmp="http://ns.adobe.com/xap/1.0/"
            xmlns:dc="http://purl.org/dc/elements/1.1/"
            xmlns:cq="http://www.day.com/jcr/cq/1.0"
            xmlns:tiff="http://ns.adobe.com/tiff/1.0/">
         <xmp:rhcc-effective-on>2023-12-08T17:35:36.578Z</xmp:rhcc-effective-on>
         <xmp:rhcc-metadata-complete-moderator>pending</xmp:rhcc-metadata-complete-moderator>
         <xmp:rhcc-translation-id>TRA70c2b619-0e7e-4887-b5aa-c9e777c13f76</xmp:rhcc-translation-id>
         <xmp:brand-content-type>Icon</xmp:brand-content-type>
         <xmp:CreateDate>2023-12-08T17:35:36.578Z</xmp:CreateDate>
         <xmp:rhcc-effective-on-set-on-upload>true</xmp:rhcc-effective-on-set-on-upload>
         <xmp:rhcc-metadata-complete-uploader>pending</xmp:rhcc-metadata-complete-uploader>
         <xmp:rhcc-file-last-modified>2023-12-08T17:36:26.701Z</xmp:rhcc-file-last-modified>
         <xmp:rhcc-audience>rhcc-audience:internal</xmp:rhcc-audience>
         <xmp:rhcc-rights-restricted>no</xmp:rhcc-rights-restricted>
         <xmp:brand-content-subtype>Icon</xmp:brand-content-subtype>
         <xmp:rhcc-derivative-id>DER70c2b619-0e7e-4887-b5aa-c9e777c13f76</xmp:rhcc-derivative-id>
         <xmp:brand-logo-color>Black</xmp:brand-logo-color>
         <xmp:rhcc-notify-portal-subscribers-on-change>yes</xmp:rhcc-notify-portal-subscribers-on-change>
         <dc:format>image/svg+xml</dc:format>
         <dc:modified>2024-02-09T20:30:18.675Z</dc:modified>
         <dc:title>
            <rdf:Alt>
               <rdf:li xml:lang="x-default">Farm tools icon - Black</rdf:li>
            </rdf:Alt>
         </dc:title>
         <dc:description>
            <rdf:Alt>
               <rdf:li xml:lang="x-default">farming, agriculture, dig, scoop, rake, till, pitchfork, hay, grow, objects</rdf:li>
            </rdf:Alt>
         </dc:description>
         <cq:lastReplicationAction_scene7>Activate</cq:lastReplicationAction_scene7>
         <cq:lastReplicationAction_publish>Activate</cq:lastReplicationAction_publish>
         <cq:lastReplicated_publish>2024-02-09T22:17:09.858Z</cq:lastReplicated_publish>
         <cq:lastReplicatedBy>workflow-process-service</cq:lastReplicatedBy>
         <cq:lastReplicationAction>Activate</cq:lastReplicationAction>
         <cq:lastReplicatedBy_publish>workflow-process-service</cq:lastReplicatedBy_publish>
         <cq:isDelivered>true</cq:isDelivered>
         <cq:lastReplicated>2024-02-09T22:17:09.858Z</cq:lastReplicated>
         <cq:lastReplicatedBy_scene7>workflow-process-service</cq:lastReplicatedBy_scene7>
         <cq:lastReplicated_scene7>2024-02-09T22:17:09.858Z</cq:lastReplicated_scene7>
         <tiff:ImageLength>36</tiff:ImageLength>
         <tiff:ImageWidth>36</tiff:ImageWidth>
      </rdf:Description>
   </rdf:RDF>
</x:xmpmeta>
                                                                                                    
                                                                                                    
                                                                                                    
                                                                                                    
                                                                                                    
                                                                                                    
                                                                                                    
                                                                                                    
                                                                                                    
                                                                                                    
                                 
<?xpacket end="w"?></metadata>
<path d="m16,17.375h-3c-.3452,0-.625.2803-.625.625s.2798.625.625.625h2.375v5.6689c0,2.7344-1.7896,5.1963-4.375,6.0508-2.5854-.8545-4.375-3.3164-4.375-6.0508v-5.6689h2.375c.3452,0,.625-.2803.625-.625s-.2798-.625-.625-.625h-3c-.3452,0-.625.2803-.625.625v6.2939c0,3.3457,2.2397,6.3496,5.4463,7.3047.0586.0176.1187.0264.1787.0264s.1201-.0088.1787-.0264c3.2065-.9551,5.4463-3.959,5.4463-7.3047v-6.2939c0-.3447-.2798-.625-.625-.625Z"/><path d="m8,7.625h2.375v11.375c0,.3447.2798.625.625.625s.625-.2803.625-.625V7.625h2.375c.3452,0,.625-.2803.625-.625v-2c0-.3447-.2798-.625-.625-.625h-6c-.3452,0-.625.2803-.625.625v2c0,.3447.2798.625.625.625Zm.625-2h4.75v.75h-4.75v-.75Z"/><path d="m30,4.375c-.3452,0-.625.2803-.625.625v8c0,2.4121-1.9624,4.375-4.375,4.375s-4.375-1.9629-4.375-4.375V5c0-.3447-.2798-.625-.625-.625s-.625.2803-.625.625v8c0,2.8901,2.1918,5.2759,5,5.5881v9.7869h-2.375c-.3452,0-.625.2803-.625.625v2c0,.3447.2798.625.625.625h6c.3452,0,.625-.2803.625-.625v-2c0-.3447-.2798-.625-.625-.625h-2.375v-9.7869c2.8082-.3123,5-2.6981,5-5.5881V5c0-.3447-.2798-.625-.625-.625Zm-2.625,26h-4.75v-.75h4.75v.75Z"/><path d="m25,16.625c.3452,0,.625-.2803.625-.625V5c0-.3447-.2798-.625-.625-.625s-.625.2803-.625.625v11c0,.3447.2798.625.625.625Z"/></svg>