<?xml version="1.0" encoding="UTF-8"?><svg id="uuid-fce682f2-1efa-4b4f-86a6-95edd476c96b" xmlns="http://www.w3.org/2000/svg" width="36" height="36" viewBox="0 0 36 36"><metadata><?xpacket begin="﻿" id="W5M0MpCehiHzreSzNTczkc9d"?>
<x:xmpmeta xmlns:x="adobe:ns:meta/" x:xmptk="Adobe XMP Core 8.0-c001 1.000000, 0000/00/00-00:00:00        ">
   <rdf:RDF xmlns:rdf="http://www.w3.org/1999/02/22-rdf-syntax-ns#">
      <rdf:Description rdf:about=""
            xmlns:xmp="http://ns.adobe.com/xap/1.0/"
            xmlns:dc="http://purl.org/dc/elements/1.1/"
            xmlns:cq="http://www.day.com/jcr/cq/1.0"
            xmlns:tiff="http://ns.adobe.com/tiff/1.0/">
         <xmp:rhcc-effective-on>2023-12-08T17:33:55.741Z</xmp:rhcc-effective-on>
         <xmp:rhcc-metadata-complete-moderator>pending</xmp:rhcc-metadata-complete-moderator>
         <xmp:rhcc-translation-id>TRAa496c148-188a-4cd4-84e0-4fadd0bcb4a5</xmp:rhcc-translation-id>
         <xmp:CreateDate>2023-12-08T17:33:55.741Z</xmp:CreateDate>
         <xmp:rhcc-effective-on-set-on-upload>true</xmp:rhcc-effective-on-set-on-upload>
         <xmp:rhcc-metadata-complete-uploader>pending</xmp:rhcc-metadata-complete-uploader>
         <xmp:rhcc-file-last-modified>2023-12-08T17:34:04.954Z</xmp:rhcc-file-last-modified>
         <xmp:rhcc-audience>rhcc-audience:internal</xmp:rhcc-audience>
         <xmp:rhcc-rights-restricted>no</xmp:rhcc-rights-restricted>
         <xmp:rhcc-derivative-id>DERa496c148-188a-4cd4-84e0-4fadd0bcb4a5</xmp:rhcc-derivative-id>
         <xmp:rhcc-notify-portal-subscribers-on-change>yes</xmp:rhcc-notify-portal-subscribers-on-change>
         <dc:format>image/svg+xml</dc:format>
         <dc:modified>2024-02-09T20:22:25.514Z</dc:modified>
         <cq:lastReplicationAction_scene7>Activate</cq:lastReplicationAction_scene7>
         <cq:lastReplicationAction_publish>Activate</cq:lastReplicationAction_publish>
         <cq:lastReplicated_publish>2024-02-09T22:01:57.707Z</cq:lastReplicated_publish>
         <cq:lastReplicatedBy>workflow-process-service</cq:lastReplicatedBy>
         <cq:lastReplicationAction>Activate</cq:lastReplicationAction>
         <cq:lastReplicatedBy_publish>workflow-process-service</cq:lastReplicatedBy_publish>
         <cq:isDelivered>true</cq:isDelivered>
         <cq:lastReplicated>2024-02-09T22:01:57.707Z</cq:lastReplicated>
         <cq:lastReplicatedBy_scene7>workflow-process-service</cq:lastReplicatedBy_scene7>
         <cq:lastReplicated_scene7>2024-02-09T22:01:57.707Z</cq:lastReplicated_scene7>
         <tiff:ImageLength>36</tiff:ImageLength>
         <tiff:ImageWidth>36</tiff:ImageWidth>
      </rdf:Description>
   </rdf:RDF>
</x:xmpmeta>
                                                                                                    
                                                                                                    
                                                                                                    
                                                                                                    
                                                                                                    
                                                                                                    
                                                                                                    
                                                                                                    
                                                                                                    
                                                                                                    
                                 
<?xpacket end="w"?></metadata>
<path d="m27,24.375h-2.99805c-1.8623,0-3.37695-1.51465-3.37695-3.37695v-2.89062c0-1.33398-.94092-2.49414-2.18848-2.69727-.76953-.12695-1.54834.08984-2.13623.58887-.58789.5-.92529,1.22949-.92529,2.00098v1c0,.34473.27979.625.625.625s.625-.28027.625-.625v-1c0-.4043.17676-.78613.48486-1.04883.31299-.26562.71289-.37695,1.12549-.30664.6499.10547,1.13965.73438,1.13965,1.46289v2.89062c0,2.55176,2.07568,4.62695,4.62695,4.62695h2.99805c.34521,0,.625-.28027.625-.625s-.27979-.625-.625-.625Z" stroke-width="0"/><path d="m27,20.375c-1.30957,0-2.375-1.06543-2.375-2.375,0-1.80762-.71436-3.49609-2.01221-4.75488-1.29688-1.25879-3.02441-1.91895-4.81592-1.86719-3.54102.10645-6.42188,3.19043-6.42188,6.87402v3.74805c0,.34473.27979.625.625.625s.625-.28027.625-.625v-3.74805c0-3.01465,2.33691-5.53809,5.20947-5.62402,1.46729-.0459,2.85645.49316,3.9082,1.51367,1.05273,1.02148,1.63232,2.3916,1.63232,3.8584,0,1.99902,1.62598,3.625,3.625,3.625.34521,0,.625-.28027.625-.625s-.27979-.625-.625-.625Z" stroke-width="0"/><path d="m9.65088,12.45898c-.29932-.17188-.68164-.07129-.854.22754-.93018,1.6084-1.42188,3.44531-1.42188,5.31348v2c0,.34473.27979.625.625.625s.625-.28027.625-.625v-2c0-1.64844.43359-3.26953,1.25391-4.68652.17285-.29883.0708-.68164-.22803-.85449Z" stroke-width="0"/><path d="m18,7.375c-2.31982,0-4.52441.73438-6.37549,2.12402-.27588.20703-.33154.59961-.12451.875.20654.27637.59814.33105.87549.125,1.63232-1.22559,3.57764-1.87402,5.62451-1.87402,4.84033,0,8.85107,3.62695,9.32861,8.43652.03223.32227.30371.56348.62109.56348.021,0,.04199-.00098.06299-.00293.34326-.03418.59424-.34082.56006-.68359-.5415-5.45215-5.08691-9.56348-10.57275-9.56348Z" stroke-width="0"/><path d="m18,4.625c1.64697,0,3.25391.29541,4.77637.87793.32471.12402.68408-.0376.80713-.36035.12354-.32227-.0376-.68359-.36035-.80664-1.66553-.6377-3.42285-.96094-5.22314-.96094-4.33105,0-8.41406,1.90381-11.20264,5.22266-.22217.26465-.18799.65918.07666.88086.11719.09863.25977.14648.40137.14648.17822,0,.35547-.07617.479-.22266,2.55029-3.03613,6.28467-4.77734,10.24561-4.77734Z" stroke-width="0"/><path d="m23,29.375c-3.51514,0-6.375-2.85938-6.375-6.375,0-.34473-.27979-.625-.625-.625s-.625.28027-.625.625c0,4.2041,3.42041,7.625,7.625,7.625.34521,0,.625-.28027.625-.625s-.27979-.625-.625-.625Z" stroke-width="0"/><path d="m12.625,25c0-.34473-.27979-.625-.625-.625s-.625.28027-.625.625c0,2.37207.87061,4.65137,2.45117,6.41699.12354.1377.29443.20801.46582.20801.14844,0,.29785-.05273.41699-.15918.25732-.23047.27881-.62598.04883-.88281-1.37549-1.53613-2.13281-3.51855-2.13281-5.58301Z" stroke-width="0"/></svg>