<svg id="f2a23b20-9d44-4ea5-8eec-726c00ea6153" data-name="Icon" xmlns="http://www.w3.org/2000/svg" viewBox="0 0 36 36">
  <title>Flag icon - Black</title>
<desc>patriotic, fly, nation, symbol, wave, wind, pole, pride, anthem, country, objects</desc>
<metadata><?xpacket begin="﻿" id="W5M0MpCehiHzreSzNTczkc9d"?>
<x:xmpmeta xmlns:x="adobe:ns:meta/" x:xmptk="Adobe XMP Core 8.0-c001 1.000000, 0000/00/00-00:00:00        ">
   <rdf:RDF xmlns:rdf="http://www.w3.org/1999/02/22-rdf-syntax-ns#">
      <rdf:Description rdf:about=""
            xmlns:xmp="http://ns.adobe.com/xap/1.0/"
            xmlns:dc="http://purl.org/dc/elements/1.1/"
            xmlns:cq="http://www.day.com/jcr/cq/1.0"
            xmlns:tiff="http://ns.adobe.com/tiff/1.0/">
         <xmp:rhcc-effective-on>2023-12-08T17:35:38.120Z</xmp:rhcc-effective-on>
         <xmp:rhcc-metadata-complete-moderator>pending</xmp:rhcc-metadata-complete-moderator>
         <xmp:rhcc-translation-id>TRA38a7f56c-4afb-41a9-b7c2-4c57bb79bc3f</xmp:rhcc-translation-id>
         <xmp:brand-content-type>Icon</xmp:brand-content-type>
         <xmp:CreateDate>2023-12-08T17:35:38.120Z</xmp:CreateDate>
         <xmp:rhcc-effective-on-set-on-upload>true</xmp:rhcc-effective-on-set-on-upload>
         <xmp:rhcc-metadata-complete-uploader>pending</xmp:rhcc-metadata-complete-uploader>
         <xmp:rhcc-file-last-modified>2023-12-08T17:36:28.001Z</xmp:rhcc-file-last-modified>
         <xmp:rhcc-audience>rhcc-audience:internal</xmp:rhcc-audience>
         <xmp:rhcc-rights-restricted>no</xmp:rhcc-rights-restricted>
         <xmp:brand-content-subtype>Icon</xmp:brand-content-subtype>
         <xmp:rhcc-derivative-id>DER38a7f56c-4afb-41a9-b7c2-4c57bb79bc3f</xmp:rhcc-derivative-id>
         <xmp:brand-logo-color>Black</xmp:brand-logo-color>
         <xmp:rhcc-notify-portal-subscribers-on-change>yes</xmp:rhcc-notify-portal-subscribers-on-change>
         <dc:format>image/svg+xml</dc:format>
         <dc:modified>2024-02-09T20:30:31.724Z</dc:modified>
         <dc:title>
            <rdf:Alt>
               <rdf:li xml:lang="x-default">Flag icon - Black</rdf:li>
            </rdf:Alt>
         </dc:title>
         <dc:description>
            <rdf:Alt>
               <rdf:li xml:lang="x-default">patriotic, fly, nation, symbol, wave, wind, pole, pride, anthem, country, objects</rdf:li>
            </rdf:Alt>
         </dc:description>
         <cq:lastReplicationAction_scene7>Activate</cq:lastReplicationAction_scene7>
         <cq:lastReplicationAction_publish>Activate</cq:lastReplicationAction_publish>
         <cq:lastReplicated_publish>2024-02-09T22:17:24.034Z</cq:lastReplicated_publish>
         <cq:lastReplicatedBy>workflow-process-service</cq:lastReplicatedBy>
         <cq:lastReplicationAction>Activate</cq:lastReplicationAction>
         <cq:lastReplicatedBy_publish>workflow-process-service</cq:lastReplicatedBy_publish>
         <cq:isDelivered>true</cq:isDelivered>
         <cq:lastReplicated>2024-02-09T22:17:24.034Z</cq:lastReplicated>
         <cq:lastReplicatedBy_scene7>workflow-process-service</cq:lastReplicatedBy_scene7>
         <cq:lastReplicated_scene7>2024-02-09T22:17:24.034Z</cq:lastReplicated_scene7>
         <tiff:ImageLength>36</tiff:ImageLength>
         <tiff:ImageWidth>36</tiff:ImageWidth>
      </rdf:Description>
   </rdf:RDF>
</x:xmpmeta>
                                                                                                    
                                                                                                    
                                                                                                    
                                                                                                    
                                                                                                    
                                                                                                    
                                                                                                    
                                                                                                    
                                                                                                    
                                                                                                    
                                 
<?xpacket end="w"?></metadata>
<path d="M25.27,7.44a5.74,5.74,0,0,0-4.72,1.11c-1.43,1-2.86,2-4.67,1.57a4.56,4.56,0,0,1-2.32-1.3A2.59,2.59,0,0,0,14.3,7a2.63,2.63,0,1,0-3.75,2.36L8.63,18.54a.7.7,0,0,0,0,.25L6.07,30.87a.62.62,0,0,0,1.22.26L9.5,20.74a5.85,5.85,0,0,0,3.63,2.48c2.33.5,4.08-.61,5.68-1.79a4.59,4.59,0,0,1,3.09-1l-1.06,5.09a.63.63,0,0,0,.41.72,7.17,7.17,0,0,0,2.18.34,4.52,4.52,0,0,0,3.78-1.74A5.32,5.32,0,0,0,28,23.19l1.8-8.63A6,6,0,0,0,25.27,7.44ZM11.68,5.62A1.38,1.38,0,1,1,10.3,7,1.37,1.37,0,0,1,11.68,5.62ZM22.19,25.23l.94-4.51a4.49,4.49,0,0,1,2.73,2.64,3.5,3.5,0,0,1,.2.93A4,4,0,0,1,22.19,25.23Zm6.4-10.93-1.72,8.25a5.78,5.78,0,0,0-4.08-3.23,5.27,5.27,0,0,0-1.18-.13,6,6,0,0,0-3.54,1.23c-1.43,1-2.86,2-4.67,1.58a4.67,4.67,0,0,1-3.48-3.25l1.91-9a2.52,2.52,0,0,0,.72-.17,5.87,5.87,0,0,0,3.06,1.74c2.32.5,4.08-.6,5.68-1.79A4.49,4.49,0,0,1,25,8.67,4.74,4.74,0,0,1,28.59,14.3Z"/>
</svg>
