<?xml version="1.0" encoding="UTF-8"?><svg id="uuid-9840808c-c631-4ada-8bef-9ae3428a39f3" xmlns="http://www.w3.org/2000/svg" width="36" height="36" viewBox="0 0 36 36"><metadata><?xpacket begin="﻿" id="W5M0MpCehiHzreSzNTczkc9d"?>
<x:xmpmeta xmlns:x="adobe:ns:meta/" x:xmptk="Adobe XMP Core 8.0-c001 1.000000, 0000/00/00-00:00:00        ">
   <rdf:RDF xmlns:rdf="http://www.w3.org/1999/02/22-rdf-syntax-ns#">
      <rdf:Description rdf:about=""
            xmlns:xmp="http://ns.adobe.com/xap/1.0/"
            xmlns:dc="http://purl.org/dc/elements/1.1/"
            xmlns:cq="http://www.day.com/jcr/cq/1.0"
            xmlns:tiff="http://ns.adobe.com/tiff/1.0/">
         <xmp:rhcc-effective-on>2023-12-08T17:35:38.806Z</xmp:rhcc-effective-on>
         <xmp:rhcc-metadata-complete-moderator>pending</xmp:rhcc-metadata-complete-moderator>
         <xmp:rhcc-translation-id>TRA820d7514-582e-43be-ad32-70c71b459783</xmp:rhcc-translation-id>
         <xmp:CreateDate>2023-12-08T17:35:38.806Z</xmp:CreateDate>
         <xmp:rhcc-effective-on-set-on-upload>true</xmp:rhcc-effective-on-set-on-upload>
         <xmp:rhcc-metadata-complete-uploader>pending</xmp:rhcc-metadata-complete-uploader>
         <xmp:rhcc-file-last-modified>2023-12-08T17:36:31.629Z</xmp:rhcc-file-last-modified>
         <xmp:rhcc-audience>rhcc-audience:internal</xmp:rhcc-audience>
         <xmp:rhcc-rights-restricted>no</xmp:rhcc-rights-restricted>
         <xmp:rhcc-derivative-id>DER820d7514-582e-43be-ad32-70c71b459783</xmp:rhcc-derivative-id>
         <xmp:rhcc-notify-portal-subscribers-on-change>yes</xmp:rhcc-notify-portal-subscribers-on-change>
         <dc:format>image/svg+xml</dc:format>
         <dc:modified>2024-02-09T20:30:42.983Z</dc:modified>
         <cq:lastReplicationAction_scene7>Activate</cq:lastReplicationAction_scene7>
         <cq:lastReplicationAction_publish>Activate</cq:lastReplicationAction_publish>
         <cq:lastReplicated_publish>2024-02-09T22:17:39.096Z</cq:lastReplicated_publish>
         <cq:lastReplicatedBy>workflow-process-service</cq:lastReplicatedBy>
         <cq:lastReplicationAction>Activate</cq:lastReplicationAction>
         <cq:lastReplicatedBy_publish>workflow-process-service</cq:lastReplicatedBy_publish>
         <cq:isDelivered>true</cq:isDelivered>
         <cq:lastReplicated>2024-02-09T22:17:39.096Z</cq:lastReplicated>
         <cq:lastReplicatedBy_scene7>workflow-process-service</cq:lastReplicatedBy_scene7>
         <cq:lastReplicated_scene7>2024-02-09T22:17:39.096Z</cq:lastReplicated_scene7>
         <tiff:ImageLength>36</tiff:ImageLength>
         <tiff:ImageWidth>36</tiff:ImageWidth>
      </rdf:Description>
   </rdf:RDF>
</x:xmpmeta>
                                                                                                    
                                                                                                    
                                                                                                    
                                                                                                    
                                                                                                    
                                                                                                    
                                                                                                    
                                                                                                    
                                                                                                    
                                                                                                    
                                 
<?xpacket end="w"?></metadata>
<path d="m31.625,13.5c0-1.72266-1.40186-3.125-3.125-3.125-.17212,0-.34113.01935-.50836.04675-1.47363-4.10065-5.39014-7.04675-9.99164-7.04675s-8.51801,2.94611-9.99164,7.04675c-.16724-.0274-.33624-.04675-.50836-.04675-1.72314,0-3.125,1.40234-3.125,3.125,0,1.30341.81604,2.45593,2,2.91394v9.58606c0,1.99902,1.62598,3.625,3.625,3.625h5.375v1.375c0,.34473.27979.625.625.625h3c1.44727,0,2.625-1.17773,2.625-2.625s-1.17773-2.625-2.625-2.625h-3c-.34521,0-.625.28027-.625.625v1.375h-5.375c-1.30957,0-2.375-1.06543-2.375-2.375v-5.22827l7.26416,1.5437c.33105.07031.67139-.23145.75342-.55762.11182-1.21582,1.12549-2.13281,2.35742-2.13281,1.22168,0,2.229.90625,2.35498,2.11426.00146.02832.00488.05762.01074.08594.05518.29492.31348.50977.61377.50977.01904,0,.03857-.00098.05811-.00293.05176-.00488.10205-.01562.14941-.03223l7.94287-1.68848c.28857-.06152.49512-.31641.49512-.61133v-3.58606c1.18396-.45801,2-1.61053,2-2.91394Zm-15,14.125h2.375c.7583,0,1.375.61719,1.375,1.375s-.6167,1.375-1.375,1.375h-2.375v-2.75Zm1.375-23c4.95844,0,9.01923,3.8725,9.34332,8.75H8.65668c.3241-4.8775,4.38489-8.75,9.34332-8.75ZM5.625,13.5c0-1.03418.84131-1.875,1.875-1.875.05048,0,.09894.0097.14868.01361-.12854.56317-.20728,1.14343-.242,1.73639h-.40668c-.34521,0-.625.28027-.625.625v.99188c-.45667-.34631-.75-.88989-.75-1.49188Zm22.75,5.99414l-6.90381,1.46777c-.44189-1.51465-1.83008-2.58691-3.47119-2.58691-1.66602,0-3.07129,1.10156-3.47998,2.58398l-6.89502-1.46484v-4.86914h20.75v4.86914Zm1.25-4.50226v-.99188c0-.34473-.27979-.625-.625-.625h-.40668c-.03473-.59296-.11346-1.17322-.242-1.73639.04974-.00391.09821-.01361.14868-.01361,1.03369,0,1.875.84082,1.875,1.875,0,.60199-.29333,1.14557-.75,1.49188Z" stroke-width="0"/><path d="m16.12988,9.03613l1.87012-.39746,1.87012.39746c.04395.00977.0874.01367.13037.01367.28906,0,.54834-.20117.61084-.49512.07178-.33789-.14404-.66992-.48145-.74121l-2-.4248c-.08594-.01758-.17383-.01758-.25977,0l-2,.4248c-.3374.07129-.55322.40332-.48145.74121.07178.33691.39893.55566.74121.48145Z" stroke-width="0"/><path d="m16.12988,11.39844l1.87012-.39746,1.87012.39746c.04395.00977.0874.01367.13037.01367.28906,0,.54834-.20117.61084-.49512.07178-.33789-.14404-.66992-.48145-.74121l-2-.4248c-.08594-.01758-.17383-.01758-.25977,0l-2,.4248c-.3374.07129-.55322.40332-.48145.74121.07178.33691.39893.55566.74121.48145Z" stroke-width="0"/></svg>