<?xml version="1.0" encoding="UTF-8"?><svg id="uuid-15ac8118-7d42-42b6-8756-82d1ed39b220" xmlns="http://www.w3.org/2000/svg" viewBox="0 0 36 36"><title>Flowchart icon - Black</title>
<desc>layers, plan, progression, structure, sort, diagrams and graphs</desc>
<metadata><?xpacket begin="﻿" id="W5M0MpCehiHzreSzNTczkc9d"?>
<x:xmpmeta xmlns:x="adobe:ns:meta/" x:xmptk="Adobe XMP Core 8.0-c001 1.000000, 0000/00/00-00:00:00        ">
   <rdf:RDF xmlns:rdf="http://www.w3.org/1999/02/22-rdf-syntax-ns#">
      <rdf:Description rdf:about=""
            xmlns:xmp="http://ns.adobe.com/xap/1.0/"
            xmlns:dc="http://purl.org/dc/elements/1.1/"
            xmlns:cq="http://www.day.com/jcr/cq/1.0"
            xmlns:tiff="http://ns.adobe.com/tiff/1.0/">
         <xmp:rhcc-effective-on>2023-12-08T17:34:50.584Z</xmp:rhcc-effective-on>
         <xmp:rhcc-metadata-complete-moderator>pending</xmp:rhcc-metadata-complete-moderator>
         <xmp:rhcc-translation-id>TRA58e6c090-94dc-4bae-9f63-03fe56d9a389</xmp:rhcc-translation-id>
         <xmp:brand-content-type>Icon</xmp:brand-content-type>
         <xmp:CreateDate>2023-12-08T17:34:50.584Z</xmp:CreateDate>
         <xmp:rhcc-effective-on-set-on-upload>true</xmp:rhcc-effective-on-set-on-upload>
         <xmp:rhcc-metadata-complete-uploader>pending</xmp:rhcc-metadata-complete-uploader>
         <xmp:rhcc-file-last-modified>2023-12-08T17:35:17.490Z</xmp:rhcc-file-last-modified>
         <xmp:rhcc-audience>rhcc-audience:internal</xmp:rhcc-audience>
         <xmp:rhcc-rights-restricted>no</xmp:rhcc-rights-restricted>
         <xmp:brand-content-subtype>Icon</xmp:brand-content-subtype>
         <xmp:rhcc-derivative-id>DER58e6c090-94dc-4bae-9f63-03fe56d9a389</xmp:rhcc-derivative-id>
         <xmp:brand-logo-color>Black</xmp:brand-logo-color>
         <xmp:rhcc-notify-portal-subscribers-on-change>yes</xmp:rhcc-notify-portal-subscribers-on-change>
         <dc:format>image/svg+xml</dc:format>
         <dc:modified>2024-02-09T20:34:29.438Z</dc:modified>
         <dc:title>
            <rdf:Alt>
               <rdf:li xml:lang="x-default">Flowchart icon - Black</rdf:li>
            </rdf:Alt>
         </dc:title>
         <dc:description>
            <rdf:Alt>
               <rdf:li xml:lang="x-default">layers, plan, progression, structure, sort, diagrams and graphs</rdf:li>
            </rdf:Alt>
         </dc:description>
         <cq:lastReplicationAction_scene7>Activate</cq:lastReplicationAction_scene7>
         <cq:lastReplicationAction_publish>Activate</cq:lastReplicationAction_publish>
         <cq:lastReplicated_publish>2024-02-09T22:21:59.928Z</cq:lastReplicated_publish>
         <cq:lastReplicatedBy>workflow-process-service</cq:lastReplicatedBy>
         <cq:lastReplicationAction>Activate</cq:lastReplicationAction>
         <cq:lastReplicatedBy_publish>workflow-process-service</cq:lastReplicatedBy_publish>
         <cq:isDelivered>true</cq:isDelivered>
         <cq:lastReplicated>2024-02-09T22:21:59.928Z</cq:lastReplicated>
         <cq:lastReplicatedBy_scene7>workflow-process-service</cq:lastReplicatedBy_scene7>
         <cq:lastReplicated_scene7>2024-02-09T22:21:59.928Z</cq:lastReplicated_scene7>
         <tiff:ImageLength>36</tiff:ImageLength>
         <tiff:ImageWidth>36</tiff:ImageWidth>
      </rdf:Description>
   </rdf:RDF>
</x:xmpmeta>
                                                                                                    
                                                                                                    
                                                                                                    
                                                                                                    
                                                                                                    
                                                                                                    
                                                                                                    
                                                                                                    
                                                                                                    
                                                                                                    
                                 
<?xpacket end="w"?></metadata>
<path d="M9.62,15c-.09-3.46-5.16-3.46-5.25,0,.09,3.46,5.16,3.46,5.25,0Zm-4,0c.03-1.81,2.72-1.81,2.75,0-.03,1.81-2.72,1.81-2.75,0Z"/><path d="M14,9.62h4c.35,0,.62-.28,.62-.62V5c0-.35-.28-.62-.62-.62h-4c-.35,0-.62,.28-.62,.62v4c0,.34,.28,.62,.62,.62Zm.62-4h2.75v2.75h-2.75v-2.75Z"/><path d="M22,9.62h4c.35,0,.62-.28,.62-.62V5c0-.35-.28-.62-.62-.62h-4c-.35,0-.62,.28-.62,.62v4c0,.34,.28,.62,.62,.62Zm.62-4h2.75v2.75h-2.75v-2.75Z"/><path d="M15,19.62h10c3.46-.09,3.46-5.16,0-5.25H15c-3.46,.09-3.46,5.16,0,5.25Zm0-4h10c1.81,.03,1.81,2.72,0,2.75H15c-1.81-.03-1.81-2.72,0-2.75Z"/><path d="M15.38,11v2c0,.82,1.25,.82,1.25,0v-2c0-.82-1.25-.82-1.25,0Z"/><path d="M23.38,11v2c0,.82,1.25,.82,1.25,0v-2c0-.82-1.25-.82-1.25,0Z"/><path d="M16.44,24.56c-.24-.24-.64-.24-.88,0l-3,3c-.24,.24-.24,.64,0,.88l3,3c.24,.24,.64,.24,.88,0l3-3c.24-.24,.24-.64,0-.88l-3-3Zm-.44,5.56l-2.12-2.12,2.12-2.12,2.12,2.12-2.12,2.12Z"/><path d="M31,16.38h-2c-.82,0-.82,1.25,0,1.25h1.38v9.75h-9.38c-.82,0-.82,1.25,0,1.25h10c.35,0,.62-.28,.62-.62v-11c0-.34-.28-.62-.62-.62Z"/><path d="M11,27.38h-3.38v-8.38c0-.82-1.25-.82-1.25,0v9c0,.34,.28,.62,.62,.62h4c.82,0,.82-1.25,0-1.25Z"/><path d="M15.38,21v2c0,.82,1.25,.82,1.25,0v-2c0-.82-1.25-.82-1.25,0Z"/></svg>