<svg id="b1a9cd7b-f561-43ff-9d31-d37c2185b9c5" data-name="Layer 1" xmlns="http://www.w3.org/2000/svg" viewBox="0 0 36 36">
  <title>Freezer icon - Black</title>
<desc>ice, cold, fridge, GWS, frozen, office and work</desc>
<metadata><?xpacket begin="﻿" id="W5M0MpCehiHzreSzNTczkc9d"?>
<x:xmpmeta xmlns:x="adobe:ns:meta/" x:xmptk="Adobe XMP Core 8.0-c001 1.000000, 0000/00/00-00:00:00        ">
   <rdf:RDF xmlns:rdf="http://www.w3.org/1999/02/22-rdf-syntax-ns#">
      <rdf:Description rdf:about=""
            xmlns:xmp="http://ns.adobe.com/xap/1.0/"
            xmlns:dc="http://purl.org/dc/elements/1.1/"
            xmlns:cq="http://www.day.com/jcr/cq/1.0"
            xmlns:tiff="http://ns.adobe.com/tiff/1.0/">
         <xmp:rhcc-effective-on>2023-12-08T17:46:47.244Z</xmp:rhcc-effective-on>
         <xmp:rhcc-metadata-complete-moderator>pending</xmp:rhcc-metadata-complete-moderator>
         <xmp:rhcc-translation-id>TRAe4b72de3-d774-4dc7-b92b-c15c9b7ec638</xmp:rhcc-translation-id>
         <xmp:brand-content-type>Icon</xmp:brand-content-type>
         <xmp:CreateDate>2023-12-08T17:46:47.244Z</xmp:CreateDate>
         <xmp:rhcc-effective-on-set-on-upload>true</xmp:rhcc-effective-on-set-on-upload>
         <xmp:rhcc-metadata-complete-uploader>pending</xmp:rhcc-metadata-complete-uploader>
         <xmp:rhcc-file-last-modified>2023-12-08T17:46:56.212Z</xmp:rhcc-file-last-modified>
         <xmp:rhcc-audience>rhcc-audience:internal</xmp:rhcc-audience>
         <xmp:rhcc-rights-restricted>no</xmp:rhcc-rights-restricted>
         <xmp:brand-content-subtype>Icon</xmp:brand-content-subtype>
         <xmp:rhcc-derivative-id>DERe4b72de3-d774-4dc7-b92b-c15c9b7ec638</xmp:rhcc-derivative-id>
         <xmp:brand-logo-color>Black</xmp:brand-logo-color>
         <xmp:rhcc-notify-portal-subscribers-on-change>yes</xmp:rhcc-notify-portal-subscribers-on-change>
         <dc:format>image/svg+xml</dc:format>
         <dc:modified>2024-02-09T20:23:34.203Z</dc:modified>
         <dc:title>
            <rdf:Alt>
               <rdf:li xml:lang="x-default">Freezer icon - Black</rdf:li>
            </rdf:Alt>
         </dc:title>
         <dc:description>
            <rdf:Alt>
               <rdf:li xml:lang="x-default">ice, cold, fridge, GWS, frozen, office and work</rdf:li>
            </rdf:Alt>
         </dc:description>
         <cq:lastReplicationAction_scene7>Activate</cq:lastReplicationAction_scene7>
         <cq:lastReplicationAction_publish>Activate</cq:lastReplicationAction_publish>
         <cq:lastReplicated_publish>2024-02-09T22:05:04.420Z</cq:lastReplicated_publish>
         <cq:lastReplicatedBy>workflow-process-service</cq:lastReplicatedBy>
         <cq:lastReplicationAction>Activate</cq:lastReplicationAction>
         <cq:lastReplicatedBy_publish>workflow-process-service</cq:lastReplicatedBy_publish>
         <cq:isDelivered>true</cq:isDelivered>
         <cq:lastReplicated>2024-02-09T22:05:04.420Z</cq:lastReplicated>
         <cq:lastReplicatedBy_scene7>workflow-process-service</cq:lastReplicatedBy_scene7>
         <cq:lastReplicated_scene7>2024-02-09T22:05:04.420Z</cq:lastReplicated_scene7>
         <tiff:ImageLength>36</tiff:ImageLength>
         <tiff:ImageWidth>36</tiff:ImageWidth>
      </rdf:Description>
   </rdf:RDF>
</x:xmpmeta>
                                                                                                    
                                                                                                    
                                                                                                    
                                                                                                    
                                                                                                    
                                                                                                    
                                                                                                    
                                                                                                    
                                                                                                    
                                                                                                    
                                 
<?xpacket end="w"?></metadata>
<g>
    <path d="M30,4.375H6A1.627,1.627,0,0,0,4.375,6V31A.625.625,0,0,0,5,31.625H31A.625.625,0,0,0,31.625,31V6A1.627,1.627,0,0,0,30,4.375ZM6,5.625H30A.375.375,0,0,1,30.375,6V8.35H5.625V6A.375.375,0,0,1,6,5.625Zm-.375,24.75V9.625h24.75v20.75Z"/>
    <path d="M21.552,18.671l2.482.664a.623.623,0,0,0,.766-.441.625.625,0,0,0-.442-.766l-2.129-.57L22.8,15.43a.625.625,0,0,0-1.207-.324l-.666,2.482-2.3,1.329V16.259l1.817-1.817a.625.625,0,0,0-.884-.884L18,15.116l-1.558-1.558a.625.625,0,0,0-.884.884l1.817,1.817v2.658l-2.3-1.329-.666-2.482a.618.618,0,0,0-.765-.441.624.624,0,0,0-.442.765l.571,2.128-2.129.57a.625.625,0,0,0,.162,1.229.619.619,0,0,0,.162-.022l2.482-.664L16.75,20l-2.3,1.329-2.482-.664a.625.625,0,1,0-.324,1.207l2.129.57L13.2,24.57a.624.624,0,0,0,.442.765.608.608,0,0,0,.162.022.624.624,0,0,0,.6-.463l.666-2.482,2.3-1.329v2.658l-1.817,1.817a.625.625,0,0,0,.884.884L18,24.884l1.558,1.558a.625.625,0,0,0,.884-.884l-1.817-1.817V21.083l2.3,1.329.666,2.482a.624.624,0,0,0,.6.463.608.608,0,0,0,.162-.022.624.624,0,0,0,.442-.765l-.571-2.128,2.129-.57a.625.625,0,0,0,.442-.766.619.619,0,0,0-.766-.441l-2.482.664L19.25,20Z"/>
  </g>
</svg>
