<?xml version="1.0" encoding="UTF-8"?><svg id="uuid-28043352-ea3f-4f54-b77e-596c6c1d1792" xmlns="http://www.w3.org/2000/svg" viewBox="0 0 36 36"><title>Streaming games icon - Black</title>
<desc>play, gaming, stadia, Xbox, playstation, TME, data, wireless, connection, nintendo, controller, internet, twitch, media and documents</desc>
<metadata><?xpacket begin="﻿" id="W5M0MpCehiHzreSzNTczkc9d"?>
<x:xmpmeta xmlns:x="adobe:ns:meta/" x:xmptk="Adobe XMP Core 8.0-c001 1.000000, 0000/00/00-00:00:00        ">
   <rdf:RDF xmlns:rdf="http://www.w3.org/1999/02/22-rdf-syntax-ns#">
      <rdf:Description rdf:about=""
            xmlns:xmp="http://ns.adobe.com/xap/1.0/"
            xmlns:dc="http://purl.org/dc/elements/1.1/"
            xmlns:cq="http://www.day.com/jcr/cq/1.0"
            xmlns:tiff="http://ns.adobe.com/tiff/1.0/">
         <xmp:rhcc-effective-on>2023-12-08T17:37:04.948Z</xmp:rhcc-effective-on>
         <xmp:rhcc-metadata-complete-moderator>pending</xmp:rhcc-metadata-complete-moderator>
         <xmp:rhcc-translation-id>TRAdbc7e41e-a92a-422c-98ab-408df1d5988d</xmp:rhcc-translation-id>
         <xmp:brand-content-type>Icon</xmp:brand-content-type>
         <xmp:CreateDate>2023-12-08T17:37:04.948Z</xmp:CreateDate>
         <xmp:rhcc-effective-on-set-on-upload>true</xmp:rhcc-effective-on-set-on-upload>
         <xmp:rhcc-metadata-complete-uploader>pending</xmp:rhcc-metadata-complete-uploader>
         <xmp:rhcc-file-last-modified>2023-12-08T17:38:14.109Z</xmp:rhcc-file-last-modified>
         <xmp:rhcc-audience>rhcc-audience:internal</xmp:rhcc-audience>
         <xmp:rhcc-rights-restricted>no</xmp:rhcc-rights-restricted>
         <xmp:brand-content-subtype>Icon</xmp:brand-content-subtype>
         <xmp:rhcc-derivative-id>DERdbc7e41e-a92a-422c-98ab-408df1d5988d</xmp:rhcc-derivative-id>
         <xmp:brand-logo-color>Black</xmp:brand-logo-color>
         <xmp:rhcc-notify-portal-subscribers-on-change>yes</xmp:rhcc-notify-portal-subscribers-on-change>
         <dc:format>image/svg+xml</dc:format>
         <dc:modified>2024-02-09T20:20:23.821Z</dc:modified>
         <dc:title>
            <rdf:Alt>
               <rdf:li xml:lang="x-default">Streaming games icon - Black</rdf:li>
            </rdf:Alt>
         </dc:title>
         <dc:description>
            <rdf:Alt>
               <rdf:li xml:lang="x-default">play, gaming, stadia, Xbox, playstation, TME, data, wireless, connection, nintendo, controller, internet, twitch, media and documents</rdf:li>
            </rdf:Alt>
         </dc:description>
         <cq:lastReplicationAction_scene7>Activate</cq:lastReplicationAction_scene7>
         <cq:lastReplicationAction_publish>Activate</cq:lastReplicationAction_publish>
         <cq:lastReplicated_publish>2024-02-09T21:58:17.681Z</cq:lastReplicated_publish>
         <cq:lastReplicatedBy>workflow-process-service</cq:lastReplicatedBy>
         <cq:lastReplicationAction>Activate</cq:lastReplicationAction>
         <cq:lastReplicatedBy_publish>workflow-process-service</cq:lastReplicatedBy_publish>
         <cq:isDelivered>true</cq:isDelivered>
         <cq:lastReplicated>2024-02-09T21:58:17.681Z</cq:lastReplicated>
         <cq:lastReplicatedBy_scene7>workflow-process-service</cq:lastReplicatedBy_scene7>
         <cq:lastReplicated_scene7>2024-02-09T21:58:17.681Z</cq:lastReplicated_scene7>
         <tiff:ImageLength>36</tiff:ImageLength>
         <tiff:ImageWidth>36</tiff:ImageWidth>
      </rdf:Description>
   </rdf:RDF>
</x:xmpmeta>
                                                                                                    
                                                                                                    
                                                                                                    
                                                                                                    
                                                                                                    
                                                                                                    
                                                                                                    
                                                                                                    
                                                                                                    
                                                                                                    
                                 
<?xpacket end="w"?></metadata>
<path d="M5.68,23.21c-1.4-3.27-1.4-7.14,0-10.41,.67-1.59,1.64-3.02,2.87-4.25,.58-.58-.3-1.46-.88-.88-1.34,1.34-2.4,2.91-3.13,4.65-1.53,3.58-1.53,7.81,0,11.38,.74,1.74,1.79,3.31,3.13,4.65,.58,.57,1.46-.3,.88-.88-1.23-1.23-2.19-2.66-2.87-4.25Z"/><path d="M31.48,12.31c-.74-1.74-1.79-3.31-3.13-4.65-.58-.58-1.46,.3-.88,.88,1.23,1.23,2.19,2.66,2.87,4.25,1.4,3.27,1.4,7.14,0,10.41-.67,1.59-1.64,3.02-2.87,4.25-.58,.58,.3,1.46,.88,.88,1.34-1.34,2.4-2.91,3.13-4.65,1.53-3.58,1.53-7.81,0-11.38Z"/><path d="M10.66,10.66c.58-.58-.3-1.46-.88-.88-1.07,1.07-1.91,2.31-2.49,3.7-1.22,2.84-1.22,6.21,0,9.05,.59,1.38,1.42,2.63,2.49,3.7,.58,.58,1.46-.3,.88-.88-.95-.95-1.7-2.06-2.22-3.3-1.09-2.54-1.09-5.54,0-8.08,.52-1.24,1.27-2.35,2.22-3.3Z"/><path d="M29.62,18c0-1.57-.31-3.09-.91-4.52-.59-1.38-1.42-2.63-2.49-3.7-.58-.58-1.46,.3-.88,.88,.95,.95,1.7,2.06,2.22,3.3,1.09,2.54,1.09,5.54,0,8.08-.52,1.24-1.27,2.35-2.22,3.3-.58,.58,.3,1.46,.88,.88,1.07-1.07,1.91-2.31,2.49-3.7,.61-1.43,.91-2.96,.91-4.52Z"/><path d="M23.88,15.38c-.25-1.17-1.28-2-2.47-2-.02,0-.05,0-.07,0h-6.66s-.05,0-.08,0c-1.19,0-2.22,.83-2.47,2l-.89,4.19c-.29,1.36,.58,2.71,1.95,3,1.36,.29,2.71-.58,3-1.95l.16-.76h3.31l.16,.76c.14,.66,.53,1.23,1.1,1.6,.57,.37,1.25,.49,1.9,.35,1.36-.29,2.24-1.64,1.95-3l-.89-4.19Zm-1.32,5.97c-.33,.07-.68,0-.96-.18-.29-.19-.48-.47-.55-.81l-.27-1.25c-.06-.29-.32-.5-.61-.5h-4.33c-.29,0-.55,.21-.61,.5l-.27,1.25c-.15,.69-.83,1.13-1.52,.99-.69-.15-1.13-.83-.99-1.52l.89-4.19c.13-.61,.68-1.02,1.3-1.01,.04,0,.08,0,.11,0h6.5s.07,0,.1,0c.62-.04,1.16,.4,1.29,1.01l.89,4.19c.15,.69-.3,1.37-.99,1.52Z"/><path d="M14.56,16.56c-.25,.22-.25,.66,0,.88,.24,.25,.65,.25,.88,0,.24-.22,.24-.66,0-.88-.23-.24-.65-.24-.88,0Z"/><path d="M20.56,16.56c-.25,.22-.25,.66,0,.88,.24,.25,.65,.25,.88,0,.25-.22,.25-.66,0-.88-.23-.24-.64-.24-.88,0Z"/></svg>