<svg id="a7be65da-98cf-453c-92ed-8edc9ffd0808" data-name="Icon" xmlns="http://www.w3.org/2000/svg" viewBox="0 0 36 36">
  <title>Game plan icon - Black</title>
<desc>sports, play, goal, target, move, opportunity, gameplan, clipboard, layout, action, diagrams and graphs</desc>
<metadata><?xpacket begin="﻿" id="W5M0MpCehiHzreSzNTczkc9d"?>
<x:xmpmeta xmlns:x="adobe:ns:meta/" x:xmptk="Adobe XMP Core 8.0-c001 1.000000, 0000/00/00-00:00:00        ">
   <rdf:RDF xmlns:rdf="http://www.w3.org/1999/02/22-rdf-syntax-ns#">
      <rdf:Description rdf:about=""
            xmlns:xmp="http://ns.adobe.com/xap/1.0/"
            xmlns:dc="http://purl.org/dc/elements/1.1/"
            xmlns:cq="http://www.day.com/jcr/cq/1.0"
            xmlns:tiff="http://ns.adobe.com/tiff/1.0/">
         <xmp:rhcc-effective-on>2023-12-08T17:34:52.076Z</xmp:rhcc-effective-on>
         <xmp:rhcc-metadata-complete-moderator>pending</xmp:rhcc-metadata-complete-moderator>
         <xmp:rhcc-translation-id>TRAb8c2368c-7a48-46da-a263-e44d689ef550</xmp:rhcc-translation-id>
         <xmp:brand-content-type>Icon</xmp:brand-content-type>
         <xmp:CreateDate>2023-12-08T17:34:52.076Z</xmp:CreateDate>
         <xmp:rhcc-effective-on-set-on-upload>true</xmp:rhcc-effective-on-set-on-upload>
         <xmp:rhcc-metadata-complete-uploader>pending</xmp:rhcc-metadata-complete-uploader>
         <xmp:rhcc-file-last-modified>2023-12-08T17:35:17.195Z</xmp:rhcc-file-last-modified>
         <xmp:rhcc-audience>rhcc-audience:internal</xmp:rhcc-audience>
         <xmp:rhcc-rights-restricted>no</xmp:rhcc-rights-restricted>
         <xmp:brand-content-subtype>Icon</xmp:brand-content-subtype>
         <xmp:rhcc-derivative-id>DERb8c2368c-7a48-46da-a263-e44d689ef550</xmp:rhcc-derivative-id>
         <xmp:brand-logo-color>Black</xmp:brand-logo-color>
         <xmp:rhcc-notify-portal-subscribers-on-change>yes</xmp:rhcc-notify-portal-subscribers-on-change>
         <dc:format>image/svg+xml</dc:format>
         <dc:modified>2024-02-09T20:34:25.244Z</dc:modified>
         <dc:title>
            <rdf:Alt>
               <rdf:li xml:lang="x-default">Game plan icon - Black</rdf:li>
            </rdf:Alt>
         </dc:title>
         <dc:description>
            <rdf:Alt>
               <rdf:li xml:lang="x-default">sports, play, goal, target, move, opportunity, gameplan, clipboard, layout, action, diagrams and graphs</rdf:li>
            </rdf:Alt>
         </dc:description>
         <cq:lastReplicationAction_scene7>Activate</cq:lastReplicationAction_scene7>
         <cq:lastReplicationAction_publish>Activate</cq:lastReplicationAction_publish>
         <cq:lastReplicated_publish>2024-02-09T22:21:55.724Z</cq:lastReplicated_publish>
         <cq:lastReplicatedBy>workflow-process-service</cq:lastReplicatedBy>
         <cq:lastReplicationAction>Activate</cq:lastReplicationAction>
         <cq:lastReplicatedBy_publish>workflow-process-service</cq:lastReplicatedBy_publish>
         <cq:isDelivered>true</cq:isDelivered>
         <cq:lastReplicated>2024-02-09T22:21:55.724Z</cq:lastReplicated>
         <cq:lastReplicatedBy_scene7>workflow-process-service</cq:lastReplicatedBy_scene7>
         <cq:lastReplicated_scene7>2024-02-09T22:21:55.724Z</cq:lastReplicated_scene7>
         <tiff:ImageLength>36</tiff:ImageLength>
         <tiff:ImageWidth>36</tiff:ImageWidth>
      </rdf:Description>
   </rdf:RDF>
</x:xmpmeta>
                                                                                                    
                                                                                                    
                                                                                                    
                                                                                                    
                                                                                                    
                                                                                                    
                                                                                                    
                                                                                                    
                                                                                                    
                                                                                                    
                                 
<?xpacket end="w"?></metadata>
<g>
    <path d="M31,7.38H9a.8.8,0,0,0-.44.17l-4,4a.78.78,0,0,0-.18.44V28a.62.62,0,0,0,.62.62H31a.62.62,0,0,0,.62-.62V8A.62.62,0,0,0,31,7.38ZM8.38,9.51v1.87H6.51Zm22,17.87H5.62V12.62H9A.62.62,0,0,0,9.62,12V8.62H30.38Z"/>
    <path d="M13.56,16.44a.61.61,0,0,0,.88,0L16,14.88l1.56,1.56a.62.62,0,0,0,.88-.88L16.88,14l1.56-1.56a.62.62,0,0,0-.88-.88L16,13.12l-1.56-1.56a.62.62,0,0,0-.88.88L15.12,14l-1.56,1.56A.61.61,0,0,0,13.56,16.44Z"/>
    <path d="M8.38,22a2.62,2.62,0,0,0,5.24,0A2.62,2.62,0,0,0,8.38,22Zm4,0a1.38,1.38,0,0,1-2.75,0A1.38,1.38,0,0,1,12.38,22Z"/>
    <path d="M22,21.38H16a.62.62,0,0,0,0,1.24h6A3.62,3.62,0,0,0,25.62,19V16.51l.94.93a.62.62,0,0,0,.88-.88l-2-2a.64.64,0,0,0-.88,0l-2,2c-.58.56.32,1.46.88.88l.94-.93V19A2.39,2.39,0,0,1,22,21.38Z"/>
  </g>
</svg>
