<svg id="e8d743f4-e4ed-473e-9cca-d1f863b2efec" data-name="Icon" xmlns="http://www.w3.org/2000/svg" viewBox="0 0 36 36">
  <title>Game controller icon - Black</title>
<desc>video game, play, play station, switch, xbox, buttons, hand, esports, computer, TV, streaming, gaming, objects</desc>
<metadata><?xpacket begin="﻿" id="W5M0MpCehiHzreSzNTczkc9d"?>
<x:xmpmeta xmlns:x="adobe:ns:meta/" x:xmptk="Adobe XMP Core 8.0-c001 1.000000, 0000/00/00-00:00:00        ">
   <rdf:RDF xmlns:rdf="http://www.w3.org/1999/02/22-rdf-syntax-ns#">
      <rdf:Description rdf:about=""
            xmlns:xmp="http://ns.adobe.com/xap/1.0/"
            xmlns:dc="http://purl.org/dc/elements/1.1/"
            xmlns:cq="http://www.day.com/jcr/cq/1.0"
            xmlns:tiff="http://ns.adobe.com/tiff/1.0/">
         <xmp:rhcc-effective-on>2023-12-08T17:35:39.550Z</xmp:rhcc-effective-on>
         <xmp:rhcc-metadata-complete-moderator>pending</xmp:rhcc-metadata-complete-moderator>
         <xmp:rhcc-translation-id>TRA79750514-2587-4c4b-9478-83b98c5017f2</xmp:rhcc-translation-id>
         <xmp:brand-content-type>Icon</xmp:brand-content-type>
         <xmp:CreateDate>2023-12-08T17:35:39.550Z</xmp:CreateDate>
         <xmp:rhcc-effective-on-set-on-upload>true</xmp:rhcc-effective-on-set-on-upload>
         <xmp:rhcc-metadata-complete-uploader>pending</xmp:rhcc-metadata-complete-uploader>
         <xmp:rhcc-file-last-modified>2023-12-08T17:36:28.203Z</xmp:rhcc-file-last-modified>
         <xmp:rhcc-audience>rhcc-audience:internal</xmp:rhcc-audience>
         <xmp:rhcc-rights-restricted>no</xmp:rhcc-rights-restricted>
         <xmp:brand-content-subtype>Icon</xmp:brand-content-subtype>
         <xmp:rhcc-derivative-id>DER79750514-2587-4c4b-9478-83b98c5017f2</xmp:rhcc-derivative-id>
         <xmp:brand-logo-color>Black</xmp:brand-logo-color>
         <xmp:rhcc-notify-portal-subscribers-on-change>yes</xmp:rhcc-notify-portal-subscribers-on-change>
         <dc:format>image/svg+xml</dc:format>
         <dc:modified>2024-02-09T20:30:45.530Z</dc:modified>
         <dc:title>
            <rdf:Alt>
               <rdf:li xml:lang="x-default">Game controller icon - Black</rdf:li>
            </rdf:Alt>
         </dc:title>
         <dc:description>
            <rdf:Alt>
               <rdf:li xml:lang="x-default">video game, play, play station, switch, xbox, buttons, hand, esports, computer, TV, streaming, gaming, objects</rdf:li>
            </rdf:Alt>
         </dc:description>
         <cq:lastReplicationAction_scene7>Activate</cq:lastReplicationAction_scene7>
         <cq:lastReplicationAction_publish>Activate</cq:lastReplicationAction_publish>
         <cq:lastReplicated_publish>2024-02-09T22:17:42.844Z</cq:lastReplicated_publish>
         <cq:lastReplicatedBy>workflow-process-service</cq:lastReplicatedBy>
         <cq:lastReplicationAction>Activate</cq:lastReplicationAction>
         <cq:lastReplicatedBy_publish>workflow-process-service</cq:lastReplicatedBy_publish>
         <cq:isDelivered>true</cq:isDelivered>
         <cq:lastReplicated>2024-02-09T22:17:42.844Z</cq:lastReplicated>
         <cq:lastReplicatedBy_scene7>workflow-process-service</cq:lastReplicatedBy_scene7>
         <cq:lastReplicated_scene7>2024-02-09T22:17:42.844Z</cq:lastReplicated_scene7>
         <tiff:ImageLength>36</tiff:ImageLength>
         <tiff:ImageWidth>36</tiff:ImageWidth>
      </rdf:Description>
   </rdf:RDF>
</x:xmpmeta>
                                                                                                    
                                                                                                    
                                                                                                    
                                                                                                    
                                                                                                    
                                                                                                    
                                                                                                    
                                                                                                    
                                                                                                    
                                                                                                    
                                 
<?xpacket end="w"?></metadata>
<g>
    <path d="M31.5229,23.0381l-1.871-8.8037a4.6138,4.6138,0,0,0-4.5176-3.6553h-.03A.6023.6023,0,0,0,25,10.57H18.625V8a.625.625,0,0,0-1.25,0v2.57H11a.5746.5746,0,0,0-.1167.0117,4.5748,4.5748,0,0,0-4.5688,3.6524L4.4429,23.0381a4.6249,4.6249,0,1,0,9.0478,1.9228l.4551-2.1406H22.02l.4551,2.1406a4.6249,4.6249,0,1,0,9.0478-1.9228Zm-3.8217,4.2627a3.3829,3.3829,0,0,1-4.0034-2.6l-.56-2.6358a.6249.6249,0,0,0-.6113-.4951H13.44a.6249.6249,0,0,0-.6113.4951l-.56,2.6358a3.375,3.375,0,0,1-6.6026-1.4033l1.8716-8.8038a3.3576,3.3576,0,0,1,3.294-2.663c.0473,0,.0952.0009.143.0029a.4055.4055,0,0,0,.1529-.0137H24.8848a1.0149,1.0149,0,0,0,.1357.0108,3.3414,3.3414,0,0,1,3.4087,2.663L30.3,23.2979A3.3792,3.3792,0,0,1,27.7012,27.3008Z"/>
    <path d="M14,16.375H12.625V15a.625.625,0,0,0-1.25,0v1.375H10a.625.625,0,0,0,0,1.25h1.375V19a.625.625,0,0,0,1.25,0V17.625H14a.625.625,0,0,0,0-1.25Z"/>
    <path d="M21,15.375A1.625,1.625,0,1,0,22.625,17,1.6266,1.6266,0,0,0,21,15.375Zm0,2A.375.375,0,1,1,21.375,17,.3755.3755,0,0,1,21,17.375Z"/>
    <path d="M25,15.375A1.625,1.625,0,1,0,26.625,17,1.6266,1.6266,0,0,0,25,15.375Zm0,2A.375.375,0,1,1,25.375,17,.3755.3755,0,0,1,25,17.375Z"/>
  </g>
</svg>
