<svg id="b6d35e31-1424-4118-8cad-dd829b1ecbf4" data-name="Icon" xmlns="http://www.w3.org/2000/svg" viewBox="0 0 36 36">
  <title>Group of gears icon - Black</title>
<desc>cog, machine, operation, automation, factory, industry, automate, function, teeth, spin, objects</desc>
<metadata><?xpacket begin="﻿" id="W5M0MpCehiHzreSzNTczkc9d"?>
<x:xmpmeta xmlns:x="adobe:ns:meta/" x:xmptk="Adobe XMP Core 8.0-c001 1.000000, 0000/00/00-00:00:00        ">
   <rdf:RDF xmlns:rdf="http://www.w3.org/1999/02/22-rdf-syntax-ns#">
      <rdf:Description rdf:about=""
            xmlns:xmp="http://ns.adobe.com/xap/1.0/"
            xmlns:dc="http://purl.org/dc/elements/1.1/"
            xmlns:cq="http://www.day.com/jcr/cq/1.0"
            xmlns:tiff="http://ns.adobe.com/tiff/1.0/">
         <xmp:rhcc-effective-on>2023-12-08T17:35:41.453Z</xmp:rhcc-effective-on>
         <xmp:rhcc-metadata-complete-moderator>pending</xmp:rhcc-metadata-complete-moderator>
         <xmp:rhcc-translation-id>TRA3276237f-2810-40f3-93c0-150c29ae2906</xmp:rhcc-translation-id>
         <xmp:brand-content-type>Icon</xmp:brand-content-type>
         <xmp:CreateDate>2023-12-08T17:35:41.453Z</xmp:CreateDate>
         <xmp:rhcc-effective-on-set-on-upload>true</xmp:rhcc-effective-on-set-on-upload>
         <xmp:rhcc-metadata-complete-uploader>pending</xmp:rhcc-metadata-complete-uploader>
         <xmp:rhcc-file-last-modified>2023-12-08T17:36:32.134Z</xmp:rhcc-file-last-modified>
         <xmp:rhcc-audience>rhcc-audience:internal</xmp:rhcc-audience>
         <xmp:rhcc-rights-restricted>no</xmp:rhcc-rights-restricted>
         <xmp:brand-content-subtype>Icon</xmp:brand-content-subtype>
         <xmp:rhcc-derivative-id>DER3276237f-2810-40f3-93c0-150c29ae2906</xmp:rhcc-derivative-id>
         <xmp:brand-logo-color>Black</xmp:brand-logo-color>
         <xmp:rhcc-notify-portal-subscribers-on-change>yes</xmp:rhcc-notify-portal-subscribers-on-change>
         <dc:format>image/svg+xml</dc:format>
         <dc:modified>2024-02-09T20:30:41.611Z</dc:modified>
         <dc:title>
            <rdf:Alt>
               <rdf:li xml:lang="x-default">Group of gears icon - Black</rdf:li>
            </rdf:Alt>
         </dc:title>
         <dc:description>
            <rdf:Alt>
               <rdf:li xml:lang="x-default">cog, machine, operation, automation, factory, industry, automate, function, teeth, spin, objects</rdf:li>
            </rdf:Alt>
         </dc:description>
         <cq:lastReplicationAction_scene7>Activate</cq:lastReplicationAction_scene7>
         <cq:lastReplicationAction_publish>Activate</cq:lastReplicationAction_publish>
         <cq:lastReplicated_publish>2024-02-09T22:17:38.063Z</cq:lastReplicated_publish>
         <cq:lastReplicatedBy>workflow-process-service</cq:lastReplicatedBy>
         <cq:lastReplicationAction>Activate</cq:lastReplicationAction>
         <cq:lastReplicatedBy_publish>workflow-process-service</cq:lastReplicatedBy_publish>
         <cq:isDelivered>true</cq:isDelivered>
         <cq:lastReplicated>2024-02-09T22:17:38.063Z</cq:lastReplicated>
         <cq:lastReplicatedBy_scene7>workflow-process-service</cq:lastReplicatedBy_scene7>
         <cq:lastReplicated_scene7>2024-02-09T22:17:38.063Z</cq:lastReplicated_scene7>
         <tiff:ImageLength>36</tiff:ImageLength>
         <tiff:ImageWidth>36</tiff:ImageWidth>
      </rdf:Description>
   </rdf:RDF>
</x:xmpmeta>
                                                                                                    
                                                                                                    
                                                                                                    
                                                                                                    
                                                                                                    
                                                                                                    
                                                                                                    
                                                                                                    
                                                                                                    
                                                                                                    
                                 
<?xpacket end="w"?></metadata>
<g>
    <path d="M23.82,19.52H21.57a8.43,8.43,0,0,0-.44-1.08l1.6-1.6a.62.62,0,0,0,.07-.79A10.65,10.65,0,0,0,20,13.26a.62.62,0,0,0-.8.07l-1.59,1.59a8.27,8.27,0,0,0-1.1-.47V12.19a.61.61,0,0,0-.5-.61,10.22,10.22,0,0,0-3.94,0,.63.63,0,0,0-.51.62v2.24a8.89,8.89,0,0,0-1.15.46l-1.6-1.6a.62.62,0,0,0-.79-.07A10.65,10.65,0,0,0,5.26,16a.62.62,0,0,0,.07.8l1.59,1.59a7.91,7.91,0,0,0-.49,1.16H4.18a.64.64,0,0,0-.62.51,10.87,10.87,0,0,0,0,3.94.64.64,0,0,0,.62.51H6.43a7.91,7.91,0,0,0,.49,1.16L5.33,27.23a.62.62,0,0,0-.07.8A10.36,10.36,0,0,0,8.05,30.8a.62.62,0,0,0,.79-.07l1.6-1.6a8.89,8.89,0,0,0,1.15.46v2.24a.63.63,0,0,0,.51.62,10.64,10.64,0,0,0,1.9.17,10.15,10.15,0,0,0,2-.2.61.61,0,0,0,.5-.61V29.55a8.27,8.27,0,0,0,1.1-.47l1.59,1.59a.62.62,0,0,0,.8.07A10.65,10.65,0,0,0,22.8,28a.62.62,0,0,0-.07-.79l-1.6-1.6a8.43,8.43,0,0,0,.44-1.08h2.25a.64.64,0,0,0,.62-.51,10.87,10.87,0,0,0,0-3.94A.64.64,0,0,0,23.82,19.52Zm-.53,3.71H21.1a.62.62,0,0,0-.6.47,7.1,7.1,0,0,1-.69,1.66.62.62,0,0,0,.1.75l1.56,1.56a9.82,9.82,0,0,1-1.73,1.74l-1.55-1.55a.62.62,0,0,0-.76-.09,6.73,6.73,0,0,1-1.68.71.62.62,0,0,0-.46.6v2.2a8.73,8.73,0,0,1-2.45,0V29.12a.63.63,0,0,0-.47-.61,6.68,6.68,0,0,1-1.73-.7.62.62,0,0,0-.75.1L8.33,29.47a9.82,9.82,0,0,1-1.74-1.73l1.55-1.55a.62.62,0,0,0,.09-.76,6.68,6.68,0,0,1-.73-1.74.62.62,0,0,0-.6-.46H4.71a8.45,8.45,0,0,1,0-2.46H6.9a.62.62,0,0,0,.6-.46,6.68,6.68,0,0,1,.73-1.74.62.62,0,0,0-.09-.76L6.59,16.26a9.82,9.82,0,0,1,1.74-1.73l1.56,1.56a.62.62,0,0,0,.75.1,6.68,6.68,0,0,1,1.73-.7.63.63,0,0,0,.47-.61V12.7a8.73,8.73,0,0,1,2.45,0v2.2a.62.62,0,0,0,.46.6,6.73,6.73,0,0,1,1.68.71.62.62,0,0,0,.76-.09l1.55-1.55a9.82,9.82,0,0,1,1.73,1.74l-1.56,1.56a.62.62,0,0,0-.1.75,7.1,7.1,0,0,1,.69,1.66.62.62,0,0,0,.6.47h2.19a8.45,8.45,0,0,1,0,2.46Z"/>
    <path d="M14,18.52A3.48,3.48,0,1,0,17.48,22,3.48,3.48,0,0,0,14,18.52Zm0,5.71A2.23,2.23,0,1,1,16.23,22,2.23,2.23,0,0,1,14,24.23Z"/>
    <path d="M32.47,10.4a.62.62,0,0,0-.61-.51H30.14a6.22,6.22,0,0,0-.29-.71L31.07,8a.63.63,0,0,0,.08-.79A8.83,8.83,0,0,0,28.9,4.9a.63.63,0,0,0-.8.07L26.89,6.18a6.66,6.66,0,0,0-.73-.31V4.15a.61.61,0,0,0-.51-.61,8.34,8.34,0,0,0-3.19,0,.61.61,0,0,0-.51.61V5.84a5.16,5.16,0,0,0-.77.31L20,4.93a.63.63,0,0,0-.79-.08A8.83,8.83,0,0,0,16.9,7.1a.63.63,0,0,0,.07.8l1.21,1.21a7.83,7.83,0,0,0-.47,1.25.63.63,0,0,0,.45.76.62.62,0,0,0,.76-.44,5.44,5.44,0,0,1,.57-1.36.62.62,0,0,0-.09-.76L18.24,7.4a7.35,7.35,0,0,1,1.22-1.21l1.16,1.17a.63.63,0,0,0,.76.1,4.92,4.92,0,0,1,1.34-.55.63.63,0,0,0,.48-.6V4.67a7,7,0,0,1,1.71,0V6.33a.63.63,0,0,0,.46.61,5.2,5.2,0,0,1,1.31.55.62.62,0,0,0,.76-.09L28.6,6.24a7.35,7.35,0,0,1,1.21,1.22L28.64,8.62a.63.63,0,0,0-.1.76,5,5,0,0,1,.54,1.3.62.62,0,0,0,.6.46h1.64a6.19,6.19,0,0,1,0,1.72H29.68a.62.62,0,0,0-.6.46,5,5,0,0,1-.54,1.3.63.63,0,0,0,.1.76l1.17,1.16a7.35,7.35,0,0,1-1.21,1.22L27.44,16.6a.62.62,0,0,0-.76-.09,5.2,5.2,0,0,1-1.31.55.63.63,0,0,0,.33,1.21,6.33,6.33,0,0,0,1.19-.45L28.1,19a.62.62,0,0,0,.44.18.69.69,0,0,0,.36-.11,8.83,8.83,0,0,0,2.25-2.27.63.63,0,0,0-.08-.79l-1.22-1.22a6.22,6.22,0,0,0,.29-.71h1.72a.62.62,0,0,0,.61-.51,8.61,8.61,0,0,0,0-3.2Z"/>
    <path d="M24,13.66a.63.63,0,0,0,0,1.25A2.91,2.91,0,1,0,21.09,12a.63.63,0,0,0,1.25,0A1.66,1.66,0,1,1,24,13.66Z"/>
  </g>
</svg>
