<svg id="e5ee3ebf-07af-4fb3-92e0-0db2d767a881" data-name="Icon" xmlns="http://www.w3.org/2000/svg" viewBox="0 0 36 36">
  <title>Government icon - Black</title>
<desc>capital, laws, columns, legal, congress, parliament, buildings and industries</desc>
<metadata><?xpacket begin="﻿" id="W5M0MpCehiHzreSzNTczkc9d"?>
<x:xmpmeta xmlns:x="adobe:ns:meta/" x:xmptk="Adobe XMP Core 8.0-c001 1.000000, 0000/00/00-00:00:00        ">
   <rdf:RDF xmlns:rdf="http://www.w3.org/1999/02/22-rdf-syntax-ns#">
      <rdf:Description rdf:about=""
            xmlns:xmp="http://ns.adobe.com/xap/1.0/"
            xmlns:dc="http://purl.org/dc/elements/1.1/"
            xmlns:cq="http://www.day.com/jcr/cq/1.0"
            xmlns:tiff="http://ns.adobe.com/tiff/1.0/">
         <xmp:rhcc-effective-on>2023-12-08T17:47:27.129Z</xmp:rhcc-effective-on>
         <xmp:rhcc-metadata-complete-moderator>pending</xmp:rhcc-metadata-complete-moderator>
         <xmp:rhcc-translation-id>TRAbccd0d54-a9fe-4433-b1bf-c592f5b84cba</xmp:rhcc-translation-id>
         <xmp:brand-content-type>Icon</xmp:brand-content-type>
         <xmp:CreateDate>2023-12-08T17:47:27.129Z</xmp:CreateDate>
         <xmp:rhcc-effective-on-set-on-upload>true</xmp:rhcc-effective-on-set-on-upload>
         <xmp:rhcc-metadata-complete-uploader>pending</xmp:rhcc-metadata-complete-uploader>
         <xmp:rhcc-file-last-modified>2023-12-08T17:48:04.620Z</xmp:rhcc-file-last-modified>
         <xmp:rhcc-audience>rhcc-audience:internal</xmp:rhcc-audience>
         <xmp:rhcc-rights-restricted>no</xmp:rhcc-rights-restricted>
         <xmp:brand-content-subtype>Icon</xmp:brand-content-subtype>
         <xmp:rhcc-derivative-id>DERbccd0d54-a9fe-4433-b1bf-c592f5b84cba</xmp:rhcc-derivative-id>
         <xmp:brand-logo-color>Black</xmp:brand-logo-color>
         <xmp:rhcc-notify-portal-subscribers-on-change>yes</xmp:rhcc-notify-portal-subscribers-on-change>
         <dc:format>image/svg+xml</dc:format>
         <dc:modified>2024-02-09T20:23:58.838Z</dc:modified>
         <dc:title>
            <rdf:Alt>
               <rdf:li xml:lang="x-default">Government icon - Black</rdf:li>
            </rdf:Alt>
         </dc:title>
         <dc:description>
            <rdf:Alt>
               <rdf:li xml:lang="x-default">capital, laws, columns, legal, congress, parliament, buildings and industries</rdf:li>
            </rdf:Alt>
         </dc:description>
         <cq:lastReplicationAction_scene7>Activate</cq:lastReplicationAction_scene7>
         <cq:lastReplicationAction_publish>Activate</cq:lastReplicationAction_publish>
         <cq:lastReplicated_publish>2024-02-09T22:05:58.693Z</cq:lastReplicated_publish>
         <cq:lastReplicatedBy>workflow-process-service</cq:lastReplicatedBy>
         <cq:lastReplicationAction>Activate</cq:lastReplicationAction>
         <cq:lastReplicatedBy_publish>workflow-process-service</cq:lastReplicatedBy_publish>
         <cq:isDelivered>true</cq:isDelivered>
         <cq:lastReplicated>2024-02-09T22:05:58.693Z</cq:lastReplicated>
         <cq:lastReplicatedBy_scene7>workflow-process-service</cq:lastReplicatedBy_scene7>
         <cq:lastReplicated_scene7>2024-02-09T22:05:58.693Z</cq:lastReplicated_scene7>
         <tiff:ImageLength>36</tiff:ImageLength>
         <tiff:ImageWidth>36</tiff:ImageWidth>
      </rdf:Description>
   </rdf:RDF>
</x:xmpmeta>
                                                                                                    
                                                                                                    
                                                                                                    
                                                                                                    
                                                                                                    
                                                                                                    
                                                                                                    
                                                                                                    
                                                                                                    
                                                                                                    
                                 
<?xpacket end="w"?></metadata>
<g>
    <path d="M5,12.62H31a.62.62,0,0,0,.61-.47.63.63,0,0,0-.31-.7l-13-7a.64.64,0,0,0-.6,0l-13,7a.63.63,0,0,0-.31.7A.62.62,0,0,0,5,12.62ZM18,5.71l10.52,5.67h-21Z"/>
    <path d="M29.14,13.38H6.86a.62.62,0,1,0,0,1.24H29.14a.62.62,0,1,0,0-1.24Z"/>
    <path d="M6.23,29a.62.62,0,0,0,.63.62H29.14a.62.62,0,1,0,0-1.24H6.86A.62.62,0,0,0,6.23,29Z"/>
    <path d="M31.62,30.38H4.38a.62.62,0,1,0,0,1.24H31.62a.62.62,0,0,0,0-1.24Z"/>
    <path d="M8.62,27V16a.62.62,0,0,0-1.24,0V27a.62.62,0,0,0,1.24,0Z"/>
    <path d="M18.62,27V16a.62.62,0,0,0-1.24,0V27a.62.62,0,0,0,1.24,0Z"/>
    <path d="M23.62,27V16a.62.62,0,0,0-1.24,0V27a.62.62,0,0,0,1.24,0Z"/>
    <path d="M13.62,27V16a.62.62,0,0,0-1.24,0V27a.62.62,0,0,0,1.24,0Z"/>
    <path d="M28.62,27V16a.62.62,0,0,0-1.24,0V27a.62.62,0,0,0,1.24,0Z"/>
  </g>
</svg>
