<?xml version="1.0" encoding="UTF-8"?>
<svg id="uuid-f5638432-dc8d-4322-8a01-6dd6a2ca27bc" data-name="Icon" xmlns="http://www.w3.org/2000/svg" viewBox="0 0 36 36">
  <metadata><?xpacket begin="﻿" id="W5M0MpCehiHzreSzNTczkc9d"?>
<x:xmpmeta xmlns:x="adobe:ns:meta/" x:xmptk="Adobe XMP Core 8.0-c001 1.000000, 0000/00/00-00:00:00        ">
   <rdf:RDF xmlns:rdf="http://www.w3.org/1999/02/22-rdf-syntax-ns#">
      <rdf:Description rdf:about=""
            xmlns:xmp="http://ns.adobe.com/xap/1.0/"
            xmlns:dc="http://purl.org/dc/elements/1.1/"
            xmlns:cq="http://www.day.com/jcr/cq/1.0"
            xmlns:tiff="http://ns.adobe.com/tiff/1.0/">
         <xmp:rhcc-effective-on>2023-12-08T17:35:45.198Z</xmp:rhcc-effective-on>
         <xmp:rhcc-metadata-complete-moderator>pending</xmp:rhcc-metadata-complete-moderator>
         <xmp:rhcc-translation-id>TRAd5695d19-1839-48d7-8256-2d6028baa503</xmp:rhcc-translation-id>
         <xmp:CreateDate>2023-12-08T17:35:45.198Z</xmp:CreateDate>
         <xmp:rhcc-effective-on-set-on-upload>true</xmp:rhcc-effective-on-set-on-upload>
         <xmp:rhcc-metadata-complete-uploader>pending</xmp:rhcc-metadata-complete-uploader>
         <xmp:rhcc-file-last-modified>2023-12-08T17:36:27.508Z</xmp:rhcc-file-last-modified>
         <xmp:rhcc-audience>rhcc-audience:internal</xmp:rhcc-audience>
         <xmp:rhcc-rights-restricted>no</xmp:rhcc-rights-restricted>
         <xmp:rhcc-derivative-id>DERd5695d19-1839-48d7-8256-2d6028baa503</xmp:rhcc-derivative-id>
         <xmp:rhcc-notify-portal-subscribers-on-change>yes</xmp:rhcc-notify-portal-subscribers-on-change>
         <dc:format>image/svg+xml</dc:format>
         <dc:modified>2024-02-09T20:30:57.057Z</dc:modified>
         <cq:lastReplicationAction_scene7>Activate</cq:lastReplicationAction_scene7>
         <cq:lastReplicationAction_publish>Activate</cq:lastReplicationAction_publish>
         <cq:lastReplicated_publish>2024-02-09T22:17:51.770Z</cq:lastReplicated_publish>
         <cq:lastReplicatedBy>workflow-process-service</cq:lastReplicatedBy>
         <cq:lastReplicationAction>Activate</cq:lastReplicationAction>
         <cq:lastReplicatedBy_publish>workflow-process-service</cq:lastReplicatedBy_publish>
         <cq:isDelivered>true</cq:isDelivered>
         <cq:lastReplicated>2024-02-09T22:17:51.770Z</cq:lastReplicated>
         <cq:lastReplicatedBy_scene7>workflow-process-service</cq:lastReplicatedBy_scene7>
         <cq:lastReplicated_scene7>2024-02-09T22:17:51.770Z</cq:lastReplicated_scene7>
         <tiff:ImageLength>36</tiff:ImageLength>
         <tiff:ImageWidth>36</tiff:ImageWidth>
      </rdf:Description>
   </rdf:RDF>
</x:xmpmeta>
                                                                                                    
                                                                                                    
                                                                                                    
                                                                                                    
                                                                                                    
                                                                                                    
                                                                                                    
                                                                                                    
                                                                                                    
                                                                                                    
                                 
<?xpacket end="w"?></metadata>
<path d="M32.59,18.18c.22-8.11-6.51-14.82-14.59-14.81-8.06,0-14.63,6.56-14.63,14.63,.02,.29,.21,.53,.5,.61l11,2.34c.33,.07,.67-.14,.74-.48,.07-.34-.14-.67-.48-.74l-3.42-.73c.45-2.85,2.8-5.06,5.67-5.34v2.34c0,.34,.28,.62,.62,.62s.62-.28,.62-.62v-2.34c2.87,.28,5.22,2.49,5.67,5.34l-3.42,.73c-.72,.15-.61,1.24,.13,1.24,.2,0,10.95-2.33,11.13-2.35,.21-.07,.4-.21,.46-.43Zm-14.59-5.81c-3.74,0-6.91,2.74-7.52,6.36l-5.83-1.24C5.89,.42,30.11,.43,31.35,17.5l-5.83,1.24c-.61-3.62-3.78-6.36-7.52-6.36Z"/>
  <path d="M18,6.38c-.35,0-.62,.28-.62,.62v3c0,.34,.28,.62,.62,.62s.62-.28,.62-.62v-3c0-.34-.28-.62-.62-.62Z"/>
  <path d="M23.56,8.56l-2,2c-.24,.24-.24,.64,0,.88,.24,.24,.64,.24,.88,0l2-2c.57-.58-.3-1.46-.88-.88Z"/>
  <path d="M12.44,8.56c-.58-.58-1.46,.3-.88,.88l2,2c.24,.24,.64,.24,.88,0,.24-.24,.24-.64,0-.88l-2-2Z"/>
  <path d="M18.44,20.56c-.57-.58-1.46,.31-.88,.88,.56,.59,1.47-.31,.88-.88Z"/>
  <path d="M18,23.38c-.35,0-.62,.28-.62,.62v8c0,.34,.28,.62,.62,.62s.62-.28,.62-.62v-8c0-.34-.28-.62-.62-.62Z"/>
</svg>