<svg id="ff5e9faf-a184-487c-9b7d-2fa10000851b" data-name="Icon" xmlns="http://www.w3.org/2000/svg" viewBox="0 0 36 36">
  <title>Handshake icon - Black</title>
<desc>connection, agreement, people, hands, embrace, gesture, fingers, people and audiences</desc>
<metadata><?xpacket begin="﻿" id="W5M0MpCehiHzreSzNTczkc9d"?>
<x:xmpmeta xmlns:x="adobe:ns:meta/" x:xmptk="Adobe XMP Core 8.0-c001 1.000000, 0000/00/00-00:00:00        ">
   <rdf:RDF xmlns:rdf="http://www.w3.org/1999/02/22-rdf-syntax-ns#">
      <rdf:Description rdf:about=""
            xmlns:xmp="http://ns.adobe.com/xap/1.0/"
            xmlns:dc="http://purl.org/dc/elements/1.1/"
            xmlns:cq="http://www.day.com/jcr/cq/1.0"
            xmlns:tiff="http://ns.adobe.com/tiff/1.0/">
         <xmp:rhcc-effective-on>2023-12-08T17:33:58.158Z</xmp:rhcc-effective-on>
         <xmp:rhcc-metadata-complete-moderator>pending</xmp:rhcc-metadata-complete-moderator>
         <xmp:rhcc-translation-id>TRAd646ce7c-9013-4e0e-a713-9ef64b63dcc8</xmp:rhcc-translation-id>
         <xmp:brand-content-type>Icon</xmp:brand-content-type>
         <xmp:CreateDate>2023-12-08T17:33:58.158Z</xmp:CreateDate>
         <xmp:rhcc-effective-on-set-on-upload>true</xmp:rhcc-effective-on-set-on-upload>
         <xmp:rhcc-metadata-complete-uploader>pending</xmp:rhcc-metadata-complete-uploader>
         <xmp:rhcc-file-last-modified>2023-12-08T17:34:10.912Z</xmp:rhcc-file-last-modified>
         <xmp:rhcc-audience>rhcc-audience:internal</xmp:rhcc-audience>
         <xmp:rhcc-rights-restricted>no</xmp:rhcc-rights-restricted>
         <xmp:brand-content-subtype>Icon</xmp:brand-content-subtype>
         <xmp:rhcc-derivative-id>DERd646ce7c-9013-4e0e-a713-9ef64b63dcc8</xmp:rhcc-derivative-id>
         <xmp:brand-logo-color>Black</xmp:brand-logo-color>
         <xmp:rhcc-notify-portal-subscribers-on-change>yes</xmp:rhcc-notify-portal-subscribers-on-change>
         <dc:format>image/svg+xml</dc:format>
         <dc:modified>2024-02-09T20:22:45.180Z</dc:modified>
         <dc:title>
            <rdf:Alt>
               <rdf:li xml:lang="x-default">Handshake icon - Black</rdf:li>
            </rdf:Alt>
         </dc:title>
         <dc:description>
            <rdf:Alt>
               <rdf:li xml:lang="x-default">connection, agreement, people, hands, embrace, gesture, fingers, people and audiences</rdf:li>
            </rdf:Alt>
         </dc:description>
         <cq:lastReplicationAction_scene7>Activate</cq:lastReplicationAction_scene7>
         <cq:lastReplicationAction_publish>Activate</cq:lastReplicationAction_publish>
         <cq:lastReplicated_publish>2024-02-09T22:02:36.836Z</cq:lastReplicated_publish>
         <cq:lastReplicatedBy>workflow-process-service</cq:lastReplicatedBy>
         <cq:lastReplicationAction>Activate</cq:lastReplicationAction>
         <cq:lastReplicatedBy_publish>workflow-process-service</cq:lastReplicatedBy_publish>
         <cq:isDelivered>true</cq:isDelivered>
         <cq:lastReplicated>2024-02-09T22:02:36.836Z</cq:lastReplicated>
         <cq:lastReplicatedBy_scene7>workflow-process-service</cq:lastReplicatedBy_scene7>
         <cq:lastReplicated_scene7>2024-02-09T22:02:36.836Z</cq:lastReplicated_scene7>
         <tiff:ImageLength>36</tiff:ImageLength>
         <tiff:ImageWidth>36</tiff:ImageWidth>
      </rdf:Description>
   </rdf:RDF>
</x:xmpmeta>
                                                                                                    
                                                                                                    
                                                                                                    
                                                                                                    
                                                                                                    
                                                                                                    
                                                                                                    
                                                                                                    
                                                                                                    
                                                                                                    
                                 
<?xpacket end="w"?></metadata>
<path d="M31.67,9.52A9.69,9.69,0,0,0,18,5.7C8.14,0-1.77,12.56,6.14,20.8a2.63,2.63,0,0,0,2.8,2.85,2.62,2.62,0,0,0,2.73,2.88,2.65,2.65,0,0,0,3.56,2.78,2.65,2.65,0,0,0,4.57,1.44l9.94-9.94A9.59,9.59,0,0,0,31.67,9.52ZM4.55,14c-.1-7.38,9.2-11.24,14.37-6l4.61,4.62c1.26,1.29-.68,3.27-2,2L17,10a.66.66,0,0,0-.7-.13A4.77,4.77,0,0,1,13,11.27,4.39,4.39,0,0,1,9.83,10a.63.63,0,0,0-.89.88,5.49,5.49,0,0,0,4.65,1.6L6.84,19.21a2.88,2.88,0,0,0-.22.27A8.36,8.36,0,0,1,4.55,14Zm24.32,6-9.95,10a1.39,1.39,0,1,1-2.13-1.79l3-3a.64.64,0,0,0,0-.89.63.63,0,0,0-.88,0l-3.55,3.55a1.39,1.39,0,1,1-2-2L17,22.22a.63.63,0,0,0-.88-.89l-3.56,3.56a1.38,1.38,0,0,1-1.95-1.95l3.55-3.56c.58-.56-.32-1.47-.89-.88L9.7,22a1.39,1.39,0,0,1-2-2l8.78-8.77,4,4a.6.6,0,0,0,.09.13,2.65,2.65,0,0,0,3.77-3.72h0l-5-5a2.45,2.45,0,0,1-.35-.29C27.68,2,35.8,13.1,28.87,19.92Z"/>
</svg>
