<svg id="ebc3dff9-251d-407f-8e0f-390472e8a886" data-name="Icon" xmlns="http://www.w3.org/2000/svg" viewBox="0 0 36 36">
  <title>Thumbs up icon - Black</title>
<desc>thumb, fingers, gesture, arm, person, sign, people and audiences, hand</desc>
<metadata><?xpacket begin="﻿" id="W5M0MpCehiHzreSzNTczkc9d"?>
<x:xmpmeta xmlns:x="adobe:ns:meta/" x:xmptk="Adobe XMP Core 8.0-c001 1.000000, 0000/00/00-00:00:00        ">
   <rdf:RDF xmlns:rdf="http://www.w3.org/1999/02/22-rdf-syntax-ns#">
      <rdf:Description rdf:about=""
            xmlns:xmp="http://ns.adobe.com/xap/1.0/"
            xmlns:dc="http://purl.org/dc/elements/1.1/"
            xmlns:cq="http://www.day.com/jcr/cq/1.0"
            xmlns:tiff="http://ns.adobe.com/tiff/1.0/">
         <xmp:rhcc-effective-on>2023-12-08T17:33:57.269Z</xmp:rhcc-effective-on>
         <xmp:rhcc-metadata-complete-moderator>pending</xmp:rhcc-metadata-complete-moderator>
         <xmp:rhcc-translation-id>TRA747bf9b5-0112-42b2-9c38-8ba2c1246cd6</xmp:rhcc-translation-id>
         <xmp:brand-content-type>Icon</xmp:brand-content-type>
         <xmp:CreateDate>2023-12-08T17:33:57.269Z</xmp:CreateDate>
         <xmp:rhcc-effective-on-set-on-upload>true</xmp:rhcc-effective-on-set-on-upload>
         <xmp:rhcc-metadata-complete-uploader>pending</xmp:rhcc-metadata-complete-uploader>
         <xmp:rhcc-file-last-modified>2023-12-08T17:34:04.900Z</xmp:rhcc-file-last-modified>
         <xmp:rhcc-audience>rhcc-audience:internal</xmp:rhcc-audience>
         <xmp:rhcc-rights-restricted>no</xmp:rhcc-rights-restricted>
         <xmp:brand-content-subtype>Icon</xmp:brand-content-subtype>
         <xmp:rhcc-derivative-id>DER747bf9b5-0112-42b2-9c38-8ba2c1246cd6</xmp:rhcc-derivative-id>
         <xmp:brand-logo-color>Black</xmp:brand-logo-color>
         <xmp:rhcc-notify-portal-subscribers-on-change>yes</xmp:rhcc-notify-portal-subscribers-on-change>
         <dc:format>image/svg+xml</dc:format>
         <dc:modified>2024-02-09T20:22:22.595Z</dc:modified>
         <dc:title>
            <rdf:Alt>
               <rdf:li xml:lang="x-default">Thumbs up icon - Black</rdf:li>
            </rdf:Alt>
         </dc:title>
         <dc:description>
            <rdf:Alt>
               <rdf:li xml:lang="x-default">thumb, fingers, gesture, arm, person, sign, people and audiences, hand</rdf:li>
            </rdf:Alt>
         </dc:description>
         <cq:lastReplicationAction_scene7>Activate</cq:lastReplicationAction_scene7>
         <cq:lastReplicationAction_publish>Activate</cq:lastReplicationAction_publish>
         <cq:lastReplicated_publish>2024-02-09T22:01:50.715Z</cq:lastReplicated_publish>
         <cq:lastReplicatedBy>workflow-process-service</cq:lastReplicatedBy>
         <cq:lastReplicationAction>Activate</cq:lastReplicationAction>
         <cq:lastReplicatedBy_publish>workflow-process-service</cq:lastReplicatedBy_publish>
         <cq:isDelivered>true</cq:isDelivered>
         <cq:lastReplicated>2024-02-09T22:01:50.715Z</cq:lastReplicated>
         <cq:lastReplicatedBy_scene7>workflow-process-service</cq:lastReplicatedBy_scene7>
         <cq:lastReplicated_scene7>2024-02-09T22:01:50.715Z</cq:lastReplicated_scene7>
         <tiff:ImageLength>36</tiff:ImageLength>
         <tiff:ImageWidth>36</tiff:ImageWidth>
      </rdf:Description>
   </rdf:RDF>
</x:xmpmeta>
                                                                                                    
                                                                                                    
                                                                                                    
                                                                                                    
                                                                                                    
                                                                                                    
                                                                                                    
                                                                                                    
                                                                                                    
                                                                                                    
                                 
<?xpacket end="w"?></metadata>
<path d="M29.86,20.31a2.77,2.77,0,0,0-1.79-2.58,2.77,2.77,0,0,0-2.16-4.46H21.58c1.67-2.42,3.09-6.63.43-8.48a2.64,2.64,0,0,0-2.36-.24A2.48,2.48,0,0,0,18.1,6.68c-.08.77,0,1.43-.74,1.8L11,13.05a10.07,10.07,0,0,0-4,4.49c-3,6.4,2,14.23,9.14,14.08,1.1,0,3.28,0,4.38,0h3a2.78,2.78,0,0,0,2.29-4.3,2.77,2.77,0,0,0,2-4.37A2.75,2.75,0,0,0,29.86,20.31ZM27.42,16a1.51,1.51,0,0,1-1.51,1.51H18.58a1.51,1.51,0,0,1,0-3h7.33A1.51,1.51,0,0,1,27.42,16Zm-20,5.59a8.8,8.8,0,0,1,4.28-7.53L18,9.53c1.3-.78,1.19-1.74,1.3-2.71.25-2,2.82-1.24,2.85.47a8.12,8.12,0,0,1-2.29,6H18.58a2.77,2.77,0,0,0-1.73,4.9,2.76,2.76,0,0,0,0,4.27,2.77,2.77,0,0,0,0,4.28,2.77,2.77,0,0,0-.58,3.65A8.77,8.77,0,0,1,7.39,21.62Zm16.16,8.75h-5a1.52,1.52,0,0,1,0-3h5A1.52,1.52,0,0,1,23.55,30.37Zm2.07-4.28h-7a1.51,1.51,0,0,1,0-3h7A1.51,1.51,0,0,1,25.62,26.09Zm1.47-4.27H18.58a1.52,1.52,0,0,1,0-3h8.51A1.52,1.52,0,0,1,27.09,21.82Z"/>
</svg>
