<?xml version="1.0" encoding="UTF-8"?>
<svg id="uuid-d553c556-1081-48ff-9bfd-b4e01d072ec3" data-name="Icon" xmlns="http://www.w3.org/2000/svg" viewBox="0 0 36 36">
  <title>Waving hand icon - Black</title>
<desc>hello, greeting, wave, person, fingers, gesture, arm, beckon, people and audiences</desc>
<metadata><?xpacket begin="﻿" id="W5M0MpCehiHzreSzNTczkc9d"?>
<x:xmpmeta xmlns:x="adobe:ns:meta/" x:xmptk="Adobe XMP Core 8.0-c001 1.000000, 0000/00/00-00:00:00        ">
   <rdf:RDF xmlns:rdf="http://www.w3.org/1999/02/22-rdf-syntax-ns#">
      <rdf:Description rdf:about=""
            xmlns:xmp="http://ns.adobe.com/xap/1.0/"
            xmlns:dc="http://purl.org/dc/elements/1.1/"
            xmlns:cq="http://www.day.com/jcr/cq/1.0"
            xmlns:tiff="http://ns.adobe.com/tiff/1.0/">
         <xmp:rhcc-effective-on>2023-12-08T17:33:58.858Z</xmp:rhcc-effective-on>
         <xmp:rhcc-metadata-complete-moderator>pending</xmp:rhcc-metadata-complete-moderator>
         <xmp:rhcc-translation-id>TRAd46c1d76-fe32-45bb-8c2c-61302446da74</xmp:rhcc-translation-id>
         <xmp:brand-content-type>Icon</xmp:brand-content-type>
         <xmp:CreateDate>2023-12-08T17:33:58.858Z</xmp:CreateDate>
         <xmp:rhcc-effective-on-set-on-upload>true</xmp:rhcc-effective-on-set-on-upload>
         <xmp:rhcc-metadata-complete-uploader>pending</xmp:rhcc-metadata-complete-uploader>
         <xmp:rhcc-file-last-modified>2023-12-08T17:34:04.878Z</xmp:rhcc-file-last-modified>
         <xmp:rhcc-audience>rhcc-audience:internal</xmp:rhcc-audience>
         <xmp:rhcc-rights-restricted>no</xmp:rhcc-rights-restricted>
         <xmp:brand-content-subtype>Icon</xmp:brand-content-subtype>
         <xmp:rhcc-derivative-id>DERd46c1d76-fe32-45bb-8c2c-61302446da74</xmp:rhcc-derivative-id>
         <xmp:brand-logo-color>Black</xmp:brand-logo-color>
         <xmp:rhcc-notify-portal-subscribers-on-change>yes</xmp:rhcc-notify-portal-subscribers-on-change>
         <dc:format>image/svg+xml</dc:format>
         <dc:modified>2024-02-09T20:22:27.758Z</dc:modified>
         <dc:title>
            <rdf:Alt>
               <rdf:li xml:lang="x-default">Waving hand icon - Black</rdf:li>
            </rdf:Alt>
         </dc:title>
         <dc:description>
            <rdf:Alt>
               <rdf:li xml:lang="x-default">hello, greeting, wave, person, fingers, gesture, arm, beckon, people and audiences</rdf:li>
            </rdf:Alt>
         </dc:description>
         <cq:lastReplicationAction_scene7>Activate</cq:lastReplicationAction_scene7>
         <cq:lastReplicationAction_publish>Activate</cq:lastReplicationAction_publish>
         <cq:lastReplicated_publish>2024-02-09T22:02:01.578Z</cq:lastReplicated_publish>
         <cq:lastReplicatedBy>workflow-process-service</cq:lastReplicatedBy>
         <cq:lastReplicationAction>Activate</cq:lastReplicationAction>
         <cq:lastReplicatedBy_publish>workflow-process-service</cq:lastReplicatedBy_publish>
         <cq:isDelivered>true</cq:isDelivered>
         <cq:lastReplicated>2024-02-09T22:02:01.578Z</cq:lastReplicated>
         <cq:lastReplicatedBy_scene7>workflow-process-service</cq:lastReplicatedBy_scene7>
         <cq:lastReplicated_scene7>2024-02-09T22:02:01.578Z</cq:lastReplicated_scene7>
         <tiff:ImageLength>36</tiff:ImageLength>
         <tiff:ImageWidth>36</tiff:ImageWidth>
      </rdf:Description>
   </rdf:RDF>
</x:xmpmeta>
                                                                                                    
                                                                                                    
                                                                                                    
                                                                                                    
                                                                                                    
                                                                                                    
                                                                                                    
                                                                                                    
                                                                                                    
                                                                                                    
                                 
<?xpacket end="w"?></metadata>
<path d="m26.92,12.65c-.66-.2-1.38-.09-1.95.29-.58.38-.95,1-1.03,1.65l-.26,1.49-1.71-8.06c-.27-1.29-1.54-2.12-2.84-1.84-.51.11-.94.38-1.27.74-.16-.2-.35-.39-.57-.53-.54-.35-1.18-.47-1.8-.33-.92.2-1.6.9-1.81,1.76-.44-.2-.95-.27-1.46-.16-.62.13-1.16.5-1.51,1.04-.35.54-.47,1.18-.33,1.8l.3,1.41c-.38-.11-.78-.14-1.18-.06-.62.13-1.16.5-1.51,1.04-.35.54-.47,1.18-.33,1.8l1.65,7.78c.54,2.55,2.13,4.78,4.36,6.13,1.5.91,3.17,1.37,4.87,1.37.87,0,1.74-.12,2.6-.36,4.04-1.14,6.85-4.97,6.83-9.33,0-.86.2-2.26.38-3.49.09-.62.17-1.2.22-1.64.12-1.11-.57-2.15-1.65-2.47Zm.19,3.94c-.18,1.28-.39,2.72-.39,3.68.01,3.8-2.42,7.14-5.92,8.12-2.22.62-4.52.31-6.49-.87-1.96-1.19-3.31-3.08-3.79-5.32l-1.65-7.78c-.06-.3,0-.6.16-.86.17-.26.42-.43.72-.5.3-.06.6,0,.86.16.26.17.43.42.5.72l1.1,5.19c.07.34.4.55.74.48.34-.07.55-.4.48-.74l-1.84-8.64c-.13-.62.26-1.22.88-1.36.61-.13,1.22.26,1.35.88l1.84,8.65c.06.29.32.5.61.5.04,0,.09,0,.13-.01.34-.07.55-.4.48-.74l-1.84-8.64s0,0,0,0l-.18-.86c-.13-.62.26-1.22.88-1.36.3-.06.6,0,.86.16.26.17.43.42.5.72l2.02,9.51c.06.29.32.5.61.5.04,0,.09,0,.13-.01.34-.07.55-.4.48-.74l-1.84-8.65c-.13-.62.27-1.22.88-1.35.61-.13,1.22.26,1.36.88l2.39,11.24c.06.29.31.48.62.5.3,0,.55-.22.6-.52l.82-4.73c.04-.32.21-.6.48-.78.27-.18.6-.23.91-.13.5.15.82.63.76,1.14-.05.44-.13,1-.22,1.6Z"/>
  <path d="m26.21,6.67c-.32-.12-.68.06-.8.38-.12.33.05.68.38.8,1.39.49,2.4,1.76,2.56,3.22.04.32.31.56.62.56.02,0,.05,0,.07,0,.34-.04.59-.35.55-.69-.21-1.94-1.54-3.61-3.39-4.26Z"/>
  <path d="m27.24,4.92c-.32-.13-.68.02-.82.34s.02.68.34.82c2.05.86,3.43,2.76,3.6,4.97.02.33.3.58.62.58.02,0,.03,0,.05,0,.34-.03.6-.33.58-.67-.2-2.68-1.88-4.99-4.36-6.03Z"/>
  <path d="m10.21,28.15c-1.39-.49-2.4-1.76-2.56-3.22-.04-.34-.34-.59-.69-.55-.34.04-.59.35-.55.69.21,1.94,1.54,3.61,3.39,4.26.07.02.14.04.21.04.26,0,.5-.16.59-.42.12-.33-.05-.68-.38-.8Z"/>
  <path d="m9.24,29.93c-2.05-.86-3.43-2.76-3.6-4.97-.03-.34-.33-.6-.67-.58-.34.03-.6.33-.58.67.2,2.68,1.88,4.99,4.36,6.03.08.03.16.05.24.05.24,0,.48-.14.58-.38.13-.32-.02-.68-.34-.82Z"/>
</svg>