<?xml version="1.0" encoding="UTF-8"?>
<svg id="uuid-145b326d-ae51-4628-bd75-4a85c69cab47" data-name="Icon" xmlns="http://www.w3.org/2000/svg" viewBox="0 0 36 36">
  <metadata><?xpacket begin="﻿" id="W5M0MpCehiHzreSzNTczkc9d"?>
<x:xmpmeta xmlns:x="adobe:ns:meta/" x:xmptk="Adobe XMP Core 8.0-c001 1.000000, 0000/00/00-00:00:00        ">
   <rdf:RDF xmlns:rdf="http://www.w3.org/1999/02/22-rdf-syntax-ns#">
      <rdf:Description rdf:about=""
            xmlns:xmp="http://ns.adobe.com/xap/1.0/"
            xmlns:dc="http://purl.org/dc/elements/1.1/"
            xmlns:cq="http://www.day.com/jcr/cq/1.0"
            xmlns:tiff="http://ns.adobe.com/tiff/1.0/">
         <xmp:rhcc-effective-on>2023-12-08T17:35:48.704Z</xmp:rhcc-effective-on>
         <xmp:rhcc-metadata-complete-moderator>pending</xmp:rhcc-metadata-complete-moderator>
         <xmp:rhcc-translation-id>TRA65f205bb-57ea-4bf7-b0e3-4f02ba44f540</xmp:rhcc-translation-id>
         <xmp:CreateDate>2023-12-08T17:35:48.704Z</xmp:CreateDate>
         <xmp:rhcc-effective-on-set-on-upload>true</xmp:rhcc-effective-on-set-on-upload>
         <xmp:rhcc-metadata-complete-uploader>pending</xmp:rhcc-metadata-complete-uploader>
         <xmp:rhcc-file-last-modified>2023-12-08T17:36:26.599Z</xmp:rhcc-file-last-modified>
         <xmp:rhcc-audience>rhcc-audience:internal</xmp:rhcc-audience>
         <xmp:rhcc-rights-restricted>no</xmp:rhcc-rights-restricted>
         <xmp:rhcc-derivative-id>DER65f205bb-57ea-4bf7-b0e3-4f02ba44f540</xmp:rhcc-derivative-id>
         <xmp:rhcc-notify-portal-subscribers-on-change>yes</xmp:rhcc-notify-portal-subscribers-on-change>
         <dc:format>image/svg+xml</dc:format>
         <dc:modified>2024-02-09T20:31:21.450Z</dc:modified>
         <cq:lastReplicationAction_scene7>Activate</cq:lastReplicationAction_scene7>
         <cq:lastReplicationAction_publish>Activate</cq:lastReplicationAction_publish>
         <cq:lastReplicated_publish>2024-02-09T22:18:24.278Z</cq:lastReplicated_publish>
         <cq:lastReplicatedBy>workflow-process-service</cq:lastReplicatedBy>
         <cq:lastReplicationAction>Activate</cq:lastReplicationAction>
         <cq:lastReplicatedBy_publish>workflow-process-service</cq:lastReplicatedBy_publish>
         <cq:isDelivered>true</cq:isDelivered>
         <cq:lastReplicated>2024-02-09T22:18:24.278Z</cq:lastReplicated>
         <cq:lastReplicatedBy_scene7>workflow-process-service</cq:lastReplicatedBy_scene7>
         <cq:lastReplicated_scene7>2024-02-09T22:18:24.278Z</cq:lastReplicated_scene7>
         <tiff:ImageLength>36</tiff:ImageLength>
         <tiff:ImageWidth>36</tiff:ImageWidth>
      </rdf:Description>
   </rdf:RDF>
</x:xmpmeta>
                                                                                                    
                                                                                                    
                                                                                                    
                                                                                                    
                                                                                                    
                                                                                                    
                                                                                                    
                                                                                                    
                                                                                                    
                                                                                                    
                                 
<?xpacket end="w"?></metadata>
<path d="M16,5.62h4c.35,0,.62-.28,.62-.62s-.28-.62-.62-.62h-4c-.35,0-.62,.28-.62,.62s.28,.62,.62,.62Z"/>
  <path d="M24,17.38H12c-.35,0-.62,.28-.62,.62v9c0,.34,.28,.62,.62,.62h12c.35,0,.62-.28,.62-.62v-9c0-.34-.28-.62-.62-.62Zm-.62,1.25v1.75H12.62v-1.75h10.75Zm-10.75,7.75v-4.75h10.75v4.75H12.62Z"/>
  <path d="M29.62,16v-4c0-.34-.28-.62-.62-.62h-1.38v-.38c0-2.55-2.07-4.62-4.62-4.62H13c-2.55,0-4.62,2.08-4.62,4.62v.38h-1.38c-.35,0-.62,.28-.62,.62v4c0,1.23,.85,2.26,2,2.54v1.83h-1.38c-.35,0-.62,.28-.62,.62v4c0,1.25,.88,2.3,2.06,2.56,.28,2.28,2.21,4.07,4.57,4.07h10c2.36,0,4.29-1.78,4.57-4.07,1.17-.26,2.06-1.31,2.06-2.56v-4c0-.34-.28-.62-.62-.62h-1.38v-1.83c1.15-.28,2-1.31,2-2.54Zm-1.25-3.38v3.38c0,.53-.31,.99-.75,1.22v-4.59h.75Zm-8.75-1h.75v1.75h-.75v-1.75Zm1.38-1.25h-7.38v-2.75h8.75v2.75h-1.38Zm-5.38,1.25h.75v1.75h-.75v-1.75Zm-8,4.38v-3.38h.75v4.59c-.44-.23-.75-.69-.75-1.22Zm0,9v-3.38h.75v4.59c-.44-.23-.75-.69-.75-1.22Zm15.38,5.38H13c-1.86,0-3.38-1.51-3.38-3.38V11c0-1.65,1.19-3.02,2.75-3.31v3.31c0,.34,.28,.62,.62,.62h1.38v2.38c0,.34,.28,.62,.62,.62h2c.35,0,.62-.28,.62-.62v-2.38h.75v2.38c0,.34,.28,.62,.62,.62h2c.35,0,.62-.28,.62-.62v-2.38h1.38c.35,0,.62-.28,.62-.62v-3.31c1.56,.29,2.75,1.66,2.75,3.31V27c0,1.86-1.51,3.38-3.38,3.38Zm5.38-8.75v3.38c0,.53-.31,.99-.75,1.22v-4.59h.75Z"/>
</svg>