<svg id="fb12b7cf-d15f-4429-b794-f028645df97f" data-name="Icon" xmlns="http://www.w3.org/2000/svg" viewBox="0 0 36 36">
  <title>Interoperability icon - Black</title>
<desc>shapes, circle, square, triangle, connection, together, work, communicate, communication, cycle, develop, diagrams and graphs</desc>
<metadata><?xpacket begin="﻿" id="W5M0MpCehiHzreSzNTczkc9d"?>
<x:xmpmeta xmlns:x="adobe:ns:meta/" x:xmptk="Adobe XMP Core 8.0-c001 1.000000, 0000/00/00-00:00:00        ">
   <rdf:RDF xmlns:rdf="http://www.w3.org/1999/02/22-rdf-syntax-ns#">
      <rdf:Description rdf:about=""
            xmlns:xmp="http://ns.adobe.com/xap/1.0/"
            xmlns:dc="http://purl.org/dc/elements/1.1/"
            xmlns:cq="http://www.day.com/jcr/cq/1.0"
            xmlns:tiff="http://ns.adobe.com/tiff/1.0/">
         <xmp:rhcc-effective-on>2023-12-08T17:34:59.086Z</xmp:rhcc-effective-on>
         <xmp:rhcc-metadata-complete-moderator>pending</xmp:rhcc-metadata-complete-moderator>
         <xmp:rhcc-translation-id>TRA7cb35856-04db-4552-b13d-e15f0b4bac2c</xmp:rhcc-translation-id>
         <xmp:brand-content-type>Icon</xmp:brand-content-type>
         <xmp:CreateDate>2023-12-08T17:34:59.086Z</xmp:CreateDate>
         <xmp:rhcc-effective-on-set-on-upload>true</xmp:rhcc-effective-on-set-on-upload>
         <xmp:rhcc-metadata-complete-uploader>pending</xmp:rhcc-metadata-complete-uploader>
         <xmp:rhcc-file-last-modified>2023-12-08T17:35:20.120Z</xmp:rhcc-file-last-modified>
         <xmp:rhcc-audience>rhcc-audience:internal</xmp:rhcc-audience>
         <xmp:rhcc-rights-restricted>no</xmp:rhcc-rights-restricted>
         <xmp:brand-content-subtype>Icon</xmp:brand-content-subtype>
         <xmp:rhcc-derivative-id>DER7cb35856-04db-4552-b13d-e15f0b4bac2c</xmp:rhcc-derivative-id>
         <xmp:brand-logo-color>Black</xmp:brand-logo-color>
         <xmp:rhcc-notify-portal-subscribers-on-change>yes</xmp:rhcc-notify-portal-subscribers-on-change>
         <dc:format>image/svg+xml</dc:format>
         <dc:modified>2024-02-09T20:34:50.158Z</dc:modified>
         <dc:title>
            <rdf:Alt>
               <rdf:li xml:lang="x-default">Interoperability icon - Black</rdf:li>
            </rdf:Alt>
         </dc:title>
         <dc:description>
            <rdf:Alt>
               <rdf:li xml:lang="x-default">shapes, circle, square, triangle, connection, together, work, communicate, communication, cycle, develop, diagrams and graphs</rdf:li>
            </rdf:Alt>
         </dc:description>
         <cq:lastReplicationAction_scene7>Activate</cq:lastReplicationAction_scene7>
         <cq:lastReplicationAction_publish>Activate</cq:lastReplicationAction_publish>
         <cq:lastReplicated_publish>2024-02-09T22:22:20.862Z</cq:lastReplicated_publish>
         <cq:lastReplicatedBy>workflow-process-service</cq:lastReplicatedBy>
         <cq:lastReplicationAction>Activate</cq:lastReplicationAction>
         <cq:lastReplicatedBy_publish>workflow-process-service</cq:lastReplicatedBy_publish>
         <cq:isDelivered>true</cq:isDelivered>
         <cq:lastReplicated>2024-02-09T22:22:20.862Z</cq:lastReplicated>
         <cq:lastReplicatedBy_scene7>workflow-process-service</cq:lastReplicatedBy_scene7>
         <cq:lastReplicated_scene7>2024-02-09T22:22:20.862Z</cq:lastReplicated_scene7>
         <tiff:ImageLength>36</tiff:ImageLength>
         <tiff:ImageWidth>36</tiff:ImageWidth>
      </rdf:Description>
   </rdf:RDF>
</x:xmpmeta>
                                                                                                    
                                                                                                    
                                                                                                    
                                                                                                    
                                                                                                    
                                                                                                    
                                                                                                    
                                                                                                    
                                                                                                    
                                                                                                    
                                 
<?xpacket end="w"?></metadata>
<g>
    <path d="M28,24.5a.64.64,0,0,0-1.08,0l-3.5,6.19a.64.64,0,0,0,0,.63.62.62,0,0,0,.54.3h7a.62.62,0,0,0,.54-.93Zm-3,5.88,2.43-4.3,2.43,4.3Z"/>
    <path d="M8,4.38a3.62,3.62,0,0,0,0,7.24A3.62,3.62,0,0,0,8,4.38Zm0,6A2.38,2.38,0,0,1,8,5.63,2.38,2.38,0,0,1,8,10.38Z"/>
    <path d="M11,24.38H5a.62.62,0,0,0-.62.62v6a.62.62,0,0,0,.62.62h6a.62.62,0,0,0,.62-.62V25A.62.62,0,0,0,11,24.38Zm-.62,6H5.62V25.62h4.76Z"/>
    <path d="M27.56,12.44a.61.61,0,0,0,.88,0l4-4a.61.61,0,0,0,0-.88l-4-4a.61.61,0,0,0-.88,0l-4,4a.61.61,0,0,0,0,.88ZM28,4.88,31.12,8,28,11.12,24.88,8Z"/>
    <path d="M23.58,5.14c.27-.84-.84-.95-1.4-1.16a14.83,14.83,0,0,0-9.4.35.63.63,0,0,0,.44,1.17,13.57,13.57,0,0,1,9.56,0A.61.61,0,0,0,23.58,5.14Z"/>
    <path d="M4.76,22.6a.63.63,0,0,0,.42-.78,13.48,13.48,0,0,1,.32-8.6.62.62,0,0,0-1.16-.44A14.69,14.69,0,0,0,4,22.18.63.63,0,0,0,4.76,22.6Z"/>
    <path d="M20.87,31.07a13.54,13.54,0,0,1-6.69-.25.63.63,0,0,0-.36,1.2,14.84,14.84,0,0,0,7.31.27.64.64,0,0,0,.48-.75A.61.61,0,0,0,20.87,31.07Z"/>
    <path d="M30.77,12.21a.63.63,0,0,0-.35.82,13.41,13.41,0,0,1-.33,10.7.62.62,0,0,0,.29.83c1.5.67,2.34-5.49,2.25-6.56S32.18,11.67,30.77,12.21Z"/>
  </g>
</svg>
