<?xml version="1.0" encoding="UTF-8"?><svg id="uuid-556ac567-cdd3-425b-984d-d9a4899c281b" xmlns="http://www.w3.org/2000/svg" viewBox="0 0 36 36"><title>Invoice icon (Euro)</title>
<desc>paper, document, invoice, money, pay, payment, PO, purchase, receipt, finance, euro, europe, EU</desc>
<metadata><?xpacket begin="﻿" id="W5M0MpCehiHzreSzNTczkc9d"?>
<x:xmpmeta xmlns:x="adobe:ns:meta/" x:xmptk="Adobe XMP Core 8.0-c001 1.000000, 0000/00/00-00:00:00        ">
   <rdf:RDF xmlns:rdf="http://www.w3.org/1999/02/22-rdf-syntax-ns#">
      <rdf:Description rdf:about=""
            xmlns:xmp="http://ns.adobe.com/xap/1.0/"
            xmlns:tiff="http://ns.adobe.com/tiff/1.0/"
            xmlns:dc="http://purl.org/dc/elements/1.1/">
         <xmp:rhcc-effective-on>2024-04-10T13:46:19.877Z</xmp:rhcc-effective-on>
         <xmp:rhcc-rights-restricted>no</xmp:rhcc-rights-restricted>
         <xmp:brand-content-subtype>Icon</xmp:brand-content-subtype>
         <xmp:rhcc-metadata-complete-moderator>pending</xmp:rhcc-metadata-complete-moderator>
         <xmp:rhcc-translation-id>TRAaf95e16e-dece-4796-a747-6a7e801ab01e</xmp:rhcc-translation-id>
         <xmp:brand-content-type>Icon</xmp:brand-content-type>
         <xmp:CreateDate>2024-04-10T13:46:19.877Z</xmp:CreateDate>
         <xmp:rhcc-derivative-id>DERaf95e16e-dece-4796-a747-6a7e801ab01e</xmp:rhcc-derivative-id>
         <xmp:rhcc-effective-on-set-on-upload>true</xmp:rhcc-effective-on-set-on-upload>
         <xmp:rhcc-metadata-complete-uploader>pending</xmp:rhcc-metadata-complete-uploader>
         <xmp:rhcc-file-last-modified>2024-04-10T13:46:32.514Z</xmp:rhcc-file-last-modified>
         <xmp:rhcc-audience>rhcc-audience:internal</xmp:rhcc-audience>
         <xmp:rhcc-notify-portal-subscribers-on-change>yes</xmp:rhcc-notify-portal-subscribers-on-change>
         <xmp:brand-colorway>Black</xmp:brand-colorway>
         <tiff:ImageLength>36</tiff:ImageLength>
         <tiff:ImageWidth>36</tiff:ImageWidth>
         <dc:format>image/svg+xml</dc:format>
         <dc:modified>2024-04-10T13:47:30.241Z</dc:modified>
         <dc:description>
            <rdf:Alt>
               <rdf:li xml:lang="x-default">paper, document, invoice, money, pay, payment, PO, purchase, receipt, finance, euro, europe, EU</rdf:li>
            </rdf:Alt>
         </dc:description>
         <dc:title>
            <rdf:Alt>
               <rdf:li xml:lang="x-default">Invoice icon (Euro)</rdf:li>
            </rdf:Alt>
         </dc:title>
      </rdf:Description>
   </rdf:RDF>
</x:xmpmeta>
                                                                                                    
                                                                                                    
                                                                                                    
                                                                                                    
                                                                                                    
                                                                                                    
                                                                                                    
                                                                                                    
                                                                                                    
                                                                                                    
                                                                                                    
                                                                                                    
                                                                                                    
                                                                                                    
                    
<?xpacket end="w"?></metadata>
<defs><style>.uuid-9baea4dc-03a3-4315-8b3e-3221f7631f25{stroke-width:0px;}</style></defs><path class="uuid-9baea4dc-03a3-4315-8b3e-3221f7631f25" d="M28.6089,8.9203c-.0037-.0284-.0088-.0529-.0163-.0806-.0288-.1057-.0744-.204-.1494-.2795-.0007-.0007-.0007-.0018-.0013-.0025l-4-4c-.0529-.0525-.1148-.0906-.18-.1208-.0185-.0087-.0377-.0135-.0571-.0203-.0543-.0191-.1096-.0303-.1671-.0338-.0132-.0009-.0244-.0076-.0378-.0076H8c-.3452,0-.625.2803-.625.625v26c0,.3447.2798.625.625.625h20c.3452,0,.625-.2803.625-.625V9c0-.0283-.0125-.0524-.0161-.0797ZM24.625,6.5088l1.8662,1.8662h-1.8662v-1.8662ZM8.625,30.375V5.625h14.75v3.375c0,.3447.2798.625.625.625h3.375v20.75H8.625Z"/><path class="uuid-9baea4dc-03a3-4315-8b3e-3221f7631f25" d="M24,16.375h-2c-.3452,0-.625.2803-.625.625s.2798.625.625.625h2c.3452,0,.625-.2803.625-.625s-.2798-.625-.625-.625Z"/><path class="uuid-9baea4dc-03a3-4315-8b3e-3221f7631f25" d="M24,20.375h-12c-.3452,0-.625.2803-.625.625s.2798.625.625.625h12c.3452,0,.625-.2803.625-.625s-.2798-.625-.625-.625Z"/><path class="uuid-9baea4dc-03a3-4315-8b3e-3221f7631f25" d="M24,24.375h-12c-.3452,0-.625.2803-.625.625s.2798.625.625.625h12c.3452,0,.625-.2803.625-.625s-.2798-.625-.625-.625Z"/><path class="uuid-9baea4dc-03a3-4315-8b3e-3221f7631f25" d="M11.375,15c0,.3447.2798.625.625.625h.6851c.6609,1.7477,2.3385,3,4.3149,3,.814,0,1.6138-.2139,2.3135-.6191.2983-.1729.4004-.5557.2275-.8545-.1733-.2988-.5562-.3994-.8545-.2275-.5093.2949-1.0923.4512-1.6865.4512-1.2689,0-2.3632-.7121-2.9395-1.75h3.9395c.3452,0,.625-.2803.625-.625s-.2798-.625-.625-.625h-4.3371c-.014-.1247-.0379-.2466-.0379-.375s.0239-.2503.0379-.375h4.3371c.3452,0,.625-.2803.625-.625s-.2798-.625-.625-.625h-3.9396c.5764-1.0379,1.6707-1.75,2.9396-1.75.5942,0,1.1772.1562,1.6865.4512.2974.1709.6802.0713.8545-.2275.1729-.2988.0708-.6816-.2275-.8545-.6997-.4053-1.4995-.6191-2.3135-.6191-1.9764,0-3.6541,1.2523-4.3149,3h-.6851c-.3452,0-.625.2803-.625.625s.2798.625.625.625h.4129c-.0103.1258-.0379.2466-.0379.375s.0276.2492.0379.375h-.4129c-.3452,0-.625.2803-.625.625Z"/></svg>