<?xml version="1.0" encoding="UTF-8"?><svg id="uuid-1a6a74b8-6501-4004-91bd-7e68beaaaa05" xmlns="http://www.w3.org/2000/svg" viewBox="0 0 36 36"><title>Invoice icon (Dollar)</title>
<desc>paper, document, invoice, money, pay, payment, PO, purchase, receipt, finance, dollar, US, North America, NA</desc>
<metadata><?xpacket begin="﻿" id="W5M0MpCehiHzreSzNTczkc9d"?>
<x:xmpmeta xmlns:x="adobe:ns:meta/" x:xmptk="Adobe XMP Core 8.0-c001 1.000000, 0000/00/00-00:00:00        ">
   <rdf:RDF xmlns:rdf="http://www.w3.org/1999/02/22-rdf-syntax-ns#">
      <rdf:Description rdf:about=""
            xmlns:xmp="http://ns.adobe.com/xap/1.0/"
            xmlns:tiff="http://ns.adobe.com/tiff/1.0/"
            xmlns:dc="http://purl.org/dc/elements/1.1/">
         <xmp:rhcc-effective-on>2024-04-10T13:46:09.254Z</xmp:rhcc-effective-on>
         <xmp:rhcc-rights-restricted>no</xmp:rhcc-rights-restricted>
         <xmp:brand-content-subtype>Icon</xmp:brand-content-subtype>
         <xmp:rhcc-metadata-complete-moderator>pending</xmp:rhcc-metadata-complete-moderator>
         <xmp:rhcc-translation-id>TRA2e2f82e4-5004-4e94-b217-f048deffa218</xmp:rhcc-translation-id>
         <xmp:brand-content-type>Icon</xmp:brand-content-type>
         <xmp:CreateDate>2024-04-10T13:46:09.254Z</xmp:CreateDate>
         <xmp:rhcc-derivative-id>DER2e2f82e4-5004-4e94-b217-f048deffa218</xmp:rhcc-derivative-id>
         <xmp:rhcc-effective-on-set-on-upload>true</xmp:rhcc-effective-on-set-on-upload>
         <xmp:rhcc-metadata-complete-uploader>pending</xmp:rhcc-metadata-complete-uploader>
         <xmp:rhcc-file-last-modified>2024-04-10T13:46:17.615Z</xmp:rhcc-file-last-modified>
         <xmp:rhcc-audience>rhcc-audience:internal</xmp:rhcc-audience>
         <xmp:rhcc-notify-portal-subscribers-on-change>yes</xmp:rhcc-notify-portal-subscribers-on-change>
         <xmp:brand-colorway>Black</xmp:brand-colorway>
         <tiff:ImageLength>36</tiff:ImageLength>
         <tiff:ImageWidth>36</tiff:ImageWidth>
         <dc:format>image/svg+xml</dc:format>
         <dc:modified>2024-04-10T13:47:28.693Z</dc:modified>
         <dc:description>
            <rdf:Alt>
               <rdf:li xml:lang="x-default">paper, document, invoice, money, pay, payment, PO, purchase, receipt, finance, dollar, US, North America, NA</rdf:li>
            </rdf:Alt>
         </dc:description>
         <dc:title>
            <rdf:Alt>
               <rdf:li xml:lang="x-default">Invoice icon (Dollar)</rdf:li>
            </rdf:Alt>
         </dc:title>
      </rdf:Description>
   </rdf:RDF>
</x:xmpmeta>
                                                                                                    
                                                                                                    
                                                                                                    
                                                                                                    
                                                                                                    
                                                                                                    
                                                                                                    
                                                                                                    
                                                                                                    
                                                                                                    
                                                                                                    
                                                                                                    
                                                                                                    
                                                                                                    
     
<?xpacket end="w"?></metadata>
<defs><style>.uuid-c2e91f8a-21d1-4759-b29f-aca0c86c6419{stroke-width:0px;}</style></defs><path class="uuid-c2e91f8a-21d1-4759-b29f-aca0c86c6419" d="M28.6089,8.9203c-.0037-.0284-.0088-.0529-.0163-.0806-.0288-.1057-.0744-.204-.1494-.2795-.0007-.0007-.0007-.0018-.0013-.0025l-4-4c-.0011-.0011-.0029-.001-.004-.0021-.0754-.0743-.173-.1197-.2782-.1482-.027-.0073-.051-.0123-.0787-.0159-.0277-.0038-.0522-.0164-.081-.0164H8c-.3452,0-.625.2803-.625.625v26c0,.3447.2798.625.625.625h20c.3452,0,.625-.2803.625-.625V9c0-.0283-.0125-.0524-.0161-.0797ZM24.625,6.5088l1.8662,1.8662h-1.8662v-1.8662ZM8.625,30.375V5.625h14.75v3.375c0,.3447.2798.625.625.625h3.375v20.75H8.625Z"/><path class="uuid-c2e91f8a-21d1-4759-b29f-aca0c86c6419" d="M24,16.375h-5c-.3452,0-.625.2803-.625.625s.2798.625.625.625h5c.3452,0,.625-.2803.625-.625s-.2798-.625-.625-.625Z"/><path class="uuid-c2e91f8a-21d1-4759-b29f-aca0c86c6419" d="M24,20.375h-12c-.3452,0-.625.2803-.625.625s.2798.625.625.625h12c.3452,0,.625-.2803.625-.625s-.2798-.625-.625-.625Z"/><path class="uuid-c2e91f8a-21d1-4759-b29f-aca0c86c6419" d="M24,24.375h-12c-.3452,0-.625.2803-.625.625s.2798.625.625.625h12c.3452,0,.625-.2803.625-.625s-.2798-.625-.625-.625Z"/><path class="uuid-c2e91f8a-21d1-4759-b29f-aca0c86c6419" d="M12.9863,17.502c.1278.0294.2584.0473.3887.0662v.4319c0,.3447.2798.625.625.625s.625-.2803.625-.625v-.4071c.2021-.0228.4059-.0568.6138-.1066.9814-.2754,1.3706-.8848,1.5239-1.3467.0654-.1973.0986-.4043.0986-.6133,0-.4727-.1719-.9287-.4839-1.2852-.4731-.54-1.1387-.6631-1.6738-.7617l-1.228-.2549c-.3315-.0703-.5596-.1279-.7021-.2793-.1211-.1299-.1904-.3047-.1904-.4795,0-.0752.0117-.1494.0352-.2188.0547-.165.1841-.4004.6465-.5303.5386-.123,1.1157-.1221,1.6572.0068h.0029c.2788.082.5439.2051.7886.3691.2861.1895.6753.1143.8667-.1738.1914-.2871.1138-.6748-.1733-.8672-.3613-.2402-.7539-.4219-1.168-.5381-.0171-.0049-.0347-.0088-.0522-.0127-.186-.0426-.3732-.0739-.5615-.0953v-.4056c0-.3447-.2798-.625-.625-.625s-.625.2803-.625.625v.4327c-.1389.0204-.2776.0402-.4189.0732-.9814.2754-1.3706.8848-1.5244,1.3467-.0654.1973-.0986.4043-.0986.6133,0,.4961.187.9688.5278,1.334.4229.4502.9624.5645,1.3574.6475l1.2583.2617c.3979.0732.7739.1426.9604.3564.1108.126.1743.2939.1743.4609,0,.0742-.0122.1504-.0352.2197-.0547.1641-.1841.3994-.6504.5303-.541.1289-1.1562.1201-1.6245.0166-.2793-.082-.5439-.2051-.7847-.3652-.1182-.0791-.23-.165-.335-.2598-.2563-.2305-.6523-.2109-.8823.0469-.231.2568-.2104.6514.0464.8828.1489.1338.3076.2568.4775.3701.3472.2305.7266.4072,1.1631.5342Z"/></svg>