<?xml version="1.0" encoding="UTF-8"?><svg id="uuid-ed48066d-2fde-4dc0-84ae-80f0ece926dc" xmlns="http://www.w3.org/2000/svg" viewBox="0 0 36 36"><title>Invoice icon (Pound)</title>
<desc>paper, document, invoice, money, pay, payment, PO, purchase, receipt, finance, pound, England, Great Britain, GB, UK</desc>
<metadata><?xpacket begin="﻿" id="W5M0MpCehiHzreSzNTczkc9d"?>
<x:xmpmeta xmlns:x="adobe:ns:meta/" x:xmptk="Adobe XMP Core 8.0-c001 1.000000, 0000/00/00-00:00:00        ">
   <rdf:RDF xmlns:rdf="http://www.w3.org/1999/02/22-rdf-syntax-ns#">
      <rdf:Description rdf:about=""
            xmlns:xmp="http://ns.adobe.com/xap/1.0/"
            xmlns:tiff="http://ns.adobe.com/tiff/1.0/"
            xmlns:dc="http://purl.org/dc/elements/1.1/">
         <xmp:rhcc-effective-on>2024-04-10T13:45:56.017Z</xmp:rhcc-effective-on>
         <xmp:rhcc-rights-restricted>no</xmp:rhcc-rights-restricted>
         <xmp:brand-content-subtype>Icon</xmp:brand-content-subtype>
         <xmp:rhcc-metadata-complete-moderator>pending</xmp:rhcc-metadata-complete-moderator>
         <xmp:rhcc-translation-id>TRA52ee20d9-6db4-40f2-a0ed-c3f4966595e4</xmp:rhcc-translation-id>
         <xmp:brand-content-type>Icon</xmp:brand-content-type>
         <xmp:CreateDate>2024-04-10T13:45:56.017Z</xmp:CreateDate>
         <xmp:rhcc-derivative-id>DER52ee20d9-6db4-40f2-a0ed-c3f4966595e4</xmp:rhcc-derivative-id>
         <xmp:rhcc-effective-on-set-on-upload>true</xmp:rhcc-effective-on-set-on-upload>
         <xmp:rhcc-metadata-complete-uploader>pending</xmp:rhcc-metadata-complete-uploader>
         <xmp:rhcc-file-last-modified>2024-04-10T13:46:08.674Z</xmp:rhcc-file-last-modified>
         <xmp:rhcc-audience>rhcc-audience:internal</xmp:rhcc-audience>
         <xmp:rhcc-notify-portal-subscribers-on-change>yes</xmp:rhcc-notify-portal-subscribers-on-change>
         <xmp:brand-colorway>Black</xmp:brand-colorway>
         <tiff:ImageLength>36</tiff:ImageLength>
         <tiff:ImageWidth>36</tiff:ImageWidth>
         <dc:format>image/svg+xml</dc:format>
         <dc:modified>2024-04-10T13:47:30.712Z</dc:modified>
         <dc:description>
            <rdf:Alt>
               <rdf:li xml:lang="x-default">paper, document, invoice, money, pay, payment, PO, purchase, receipt, finance, pound, England, Great Britain, GB, UK</rdf:li>
            </rdf:Alt>
         </dc:description>
         <dc:title>
            <rdf:Alt>
               <rdf:li xml:lang="x-default">Invoice icon (Pound)</rdf:li>
            </rdf:Alt>
         </dc:title>
      </rdf:Description>
   </rdf:RDF>
</x:xmpmeta>
                                                                                                    
                                                                                                    
                                                                                                    
                                                                                                    
                                                                                                    
                                                                                                    
                                                                                                    
                                                                                                    
                                                                                                    
                                                                                                    
                                                                                                    
                                                                                                    
                                                                                                    
                                                                                                   
<?xpacket end="w"?></metadata>
<defs><style>.uuid-d095d596-69af-452f-b79d-ae3070b227d4{stroke-width:0px;}</style></defs><path class="uuid-d095d596-69af-452f-b79d-ae3070b227d4" d="M28.6089,8.9203c-.0037-.0284-.0088-.0529-.0163-.0806-.0288-.1057-.0744-.204-.1494-.2795-.0007-.0007-.0007-.0018-.0013-.0025l-4-4c-.0011-.0011-.0029-.001-.004-.0021-.0754-.0743-.173-.1197-.2782-.1482-.027-.0073-.051-.0123-.0787-.0159-.0277-.0038-.0522-.0164-.081-.0164H8c-.3452,0-.625.2803-.625.625v26c0,.3447.2798.625.625.625h20c.3452,0,.625-.2803.625-.625V9c0-.0283-.0125-.0524-.0161-.0797ZM24.625,6.5088l1.8662,1.8662h-1.8662v-1.8662ZM8.625,30.375V5.625h14.75v3.375c0,.3447.2798.625.625.625h3.375v20.75H8.625Z"/><path class="uuid-d095d596-69af-452f-b79d-ae3070b227d4" d="M24,16.375h-3c-.3452,0-.625.2803-.625.625s.2798.625.625.625h3c.3452,0,.625-.2803.625-.625s-.2798-.625-.625-.625Z"/><path class="uuid-d095d596-69af-452f-b79d-ae3070b227d4" d="M24,20.375h-12c-.3452,0-.625.2803-.625.625s.2798.625.625.625h12c.3452,0,.625-.2803.625-.625s-.2798-.625-.625-.625Z"/><path class="uuid-d095d596-69af-452f-b79d-ae3070b227d4" d="M24,24.375h-12c-.3452,0-.625.2803-.625.625s.2798.625.625.625h12c.3452,0,.625-.2803.625-.625s-.2798-.625-.625-.625Z"/><path class="uuid-d095d596-69af-452f-b79d-ae3070b227d4" d="M12,16.375c-.3452,0-.625.2803-.625.625s.2798.625.625.625h6c.3452,0,.625-.2803.625-.625s-.2798-.625-.625-.625h-4.375v-2.75h3.375c.3452,0,.625-.2803.625-.625s-.2798-.625-.625-.625h-3.375v-.375c0-1.3096,1.0654-2.375,2.375-2.375.585,0,1.1475.2148,1.5835.6045.2563.2285.6514.208.8823-.0488.23-.2578.208-.6523-.0493-.8828-.6655-.5947-1.5234-.9229-2.4165-.9229-1.999,0-3.625,1.626-3.625,3.625v.375h-.375c-.3452,0-.625.2803-.625.625s.2798.625.625.625h.375v2.75h-.375Z"/></svg>