<?xml version="1.0" encoding="UTF-8"?><svg id="uuid-e7b1feba-d96f-489b-bc3a-d2b829f169e0" xmlns="http://www.w3.org/2000/svg" viewBox="0 0 36 36"><title>Invoice icon (Yen)</title>
<desc>paper, document, invoice, money, pay, payment, PO, purchase, receipt, finance, yen, japan</desc>
<metadata><?xpacket begin="﻿" id="W5M0MpCehiHzreSzNTczkc9d"?>
<x:xmpmeta xmlns:x="adobe:ns:meta/" x:xmptk="Adobe XMP Core 8.0-c001 1.000000, 0000/00/00-00:00:00        ">
   <rdf:RDF xmlns:rdf="http://www.w3.org/1999/02/22-rdf-syntax-ns#">
      <rdf:Description rdf:about=""
            xmlns:xmp="http://ns.adobe.com/xap/1.0/"
            xmlns:tiff="http://ns.adobe.com/tiff/1.0/"
            xmlns:dc="http://purl.org/dc/elements/1.1/">
         <xmp:rhcc-effective-on>2024-04-10T13:46:30.243Z</xmp:rhcc-effective-on>
         <xmp:rhcc-rights-restricted>no</xmp:rhcc-rights-restricted>
         <xmp:brand-content-subtype>Icon</xmp:brand-content-subtype>
         <xmp:rhcc-metadata-complete-moderator>pending</xmp:rhcc-metadata-complete-moderator>
         <xmp:rhcc-translation-id>TRA7eae5435-000a-4e5f-8a57-9fb138ecad53</xmp:rhcc-translation-id>
         <xmp:brand-content-type>Icon</xmp:brand-content-type>
         <xmp:CreateDate>2024-04-10T13:46:30.243Z</xmp:CreateDate>
         <xmp:rhcc-derivative-id>DER7eae5435-000a-4e5f-8a57-9fb138ecad53</xmp:rhcc-derivative-id>
         <xmp:rhcc-effective-on-set-on-upload>true</xmp:rhcc-effective-on-set-on-upload>
         <xmp:rhcc-metadata-complete-uploader>pending</xmp:rhcc-metadata-complete-uploader>
         <xmp:rhcc-file-last-modified>2024-04-10T13:46:38.705Z</xmp:rhcc-file-last-modified>
         <xmp:rhcc-audience>rhcc-audience:internal</xmp:rhcc-audience>
         <xmp:rhcc-notify-portal-subscribers-on-change>yes</xmp:rhcc-notify-portal-subscribers-on-change>
         <xmp:brand-colorway>Black</xmp:brand-colorway>
         <tiff:ImageLength>36</tiff:ImageLength>
         <tiff:ImageWidth>36</tiff:ImageWidth>
         <dc:format>image/svg+xml</dc:format>
         <dc:modified>2024-04-10T13:47:29.524Z</dc:modified>
         <dc:description>
            <rdf:Alt>
               <rdf:li xml:lang="x-default">paper, document, invoice, money, pay, payment, PO, purchase, receipt, finance, yen, japan</rdf:li>
            </rdf:Alt>
         </dc:description>
         <dc:title>
            <rdf:Alt>
               <rdf:li xml:lang="x-default">Invoice icon (Yen)</rdf:li>
            </rdf:Alt>
         </dc:title>
      </rdf:Description>
   </rdf:RDF>
</x:xmpmeta>
                                                                                                    
                                                                                                    
                                                                                                    
                                                                                                    
                                                                                                    
                                                                                                    
                                                                                                    
                                                                                                    
                                                                                                    
                                                                                                    
                                                                                                    
                                                                                                    
                                                                                                    
                                                                                                    
                           
<?xpacket end="w"?></metadata>
<defs><style>.uuid-23f57884-ce3b-467f-a3b4-5a1bcad3ed91{stroke-width:0px;}</style></defs><path class="uuid-23f57884-ce3b-467f-a3b4-5a1bcad3ed91" d="M28.6089,8.9203c-.0037-.0284-.0088-.0529-.0163-.0806-.0288-.1057-.0744-.204-.1494-.2795-.0007-.0007-.0007-.0018-.0013-.0025l-4-4c-.0012-.0012-.0029-.0011-.0041-.0022-.075-.0738-.1718-.1191-.2762-.1478-.0283-.0078-.0536-.0131-.0828-.0167-.027-.0035-.0509-.0159-.0789-.0159H8c-.3452,0-.625.2803-.625.625v26c0,.3447.2798.625.625.625h20c.3452,0,.625-.2803.625-.625V9c0-.0283-.0125-.0524-.0161-.0797ZM24.625,6.5088l1.8662,1.8662h-1.8662v-1.8662ZM8.625,30.375V5.625h14.75v3.375c0,.3447.2798.625.625.625h3.375v20.75H8.625Z"/><path class="uuid-23f57884-ce3b-467f-a3b4-5a1bcad3ed91" d="M24,16.375h-4c-.3452,0-.625.2803-.625.625s.2798.625.625.625h4c.3452,0,.625-.2803.625-.625s-.2798-.625-.625-.625Z"/><path class="uuid-23f57884-ce3b-467f-a3b4-5a1bcad3ed91" d="M24,20.375h-12c-.3452,0-.625.2803-.625.625s.2798.625.625.625h12c.3452,0,.625-.2803.625-.625s-.2798-.625-.625-.625Z"/><path class="uuid-23f57884-ce3b-467f-a3b4-5a1bcad3ed91" d="M24,24.375h-12c-.3452,0-.625.2803-.625.625s.2798.625.625.625h12c.3452,0,.625-.2803.625-.625s-.2798-.625-.625-.625Z"/><path class="uuid-23f57884-ce3b-467f-a3b4-5a1bcad3ed91" d="M14.375,13.2593v.1157h-1.375c-.3452,0-.625.2803-.625.625s.2798.625.625.625h1.375v.75h-1.375c-.3452,0-.625.2803-.625.625s.2798.625.625.625h1.375v1.375c0,.3447.2798.625.625.625s.625-.2803.625-.625v-1.375h1.375c.3452,0,.625-.2803.625-.625s-.2798-.625-.625-.625h-1.375v-.75h1.375c.3452,0,.625-.2803.625-.625s-.2798-.625-.625-.625h-1.375v-.1157l2.8169-2.8169c.2441-.2441.2441-.6406,0-.8848s-.6396-.2441-.8838,0l-2.5581,2.5586-2.5581-2.5586c-.2441-.2441-.6396-.2441-.8838,0s-.2441.6406,0,.8848l2.8169,2.8169Z"/></svg>