<?xml version="1.0" encoding="UTF-8"?><svg id="uuid-9a1cbb7c-acef-43c0-9be5-38b62c839de7" xmlns="http://www.w3.org/2000/svg" viewBox="0 0 36 36"><title>IT modernization icon - Black</title>
<desc>modernize, grow, change, innovate, cycle, circles, update, AI, ML, software and technologies</desc>
<metadata><?xpacket begin="﻿" id="W5M0MpCehiHzreSzNTczkc9d"?>
<x:xmpmeta xmlns:x="adobe:ns:meta/" x:xmptk="Adobe XMP Core 8.0-c001 1.000000, 0000/00/00-00:00:00        ">
   <rdf:RDF xmlns:rdf="http://www.w3.org/1999/02/22-rdf-syntax-ns#">
      <rdf:Description rdf:about=""
            xmlns:xmp="http://ns.adobe.com/xap/1.0/"
            xmlns:dc="http://purl.org/dc/elements/1.1/"
            xmlns:cq="http://www.day.com/jcr/cq/1.0"
            xmlns:tiff="http://ns.adobe.com/tiff/1.0/">
         <xmp:rhcc-effective-on>2023-12-08T17:43:33.281Z</xmp:rhcc-effective-on>
         <xmp:rhcc-metadata-complete-moderator>pending</xmp:rhcc-metadata-complete-moderator>
         <xmp:rhcc-translation-id>TRA3c660ebf-558e-4a8c-a3d9-8894d92713c0</xmp:rhcc-translation-id>
         <xmp:brand-content-type>Icon</xmp:brand-content-type>
         <xmp:CreateDate>2023-12-08T17:43:33.281Z</xmp:CreateDate>
         <xmp:rhcc-effective-on-set-on-upload>true</xmp:rhcc-effective-on-set-on-upload>
         <xmp:rhcc-metadata-complete-uploader>pending</xmp:rhcc-metadata-complete-uploader>
         <xmp:rhcc-file-last-modified>2023-12-08T17:44:11.699Z</xmp:rhcc-file-last-modified>
         <xmp:rhcc-audience>rhcc-audience:internal</xmp:rhcc-audience>
         <xmp:rhcc-rights-restricted>no</xmp:rhcc-rights-restricted>
         <xmp:brand-content-subtype>Icon</xmp:brand-content-subtype>
         <xmp:rhcc-derivative-id>DER3c660ebf-558e-4a8c-a3d9-8894d92713c0</xmp:rhcc-derivative-id>
         <xmp:brand-logo-color>Black</xmp:brand-logo-color>
         <xmp:rhcc-notify-portal-subscribers-on-change>yes</xmp:rhcc-notify-portal-subscribers-on-change>
         <dc:format>image/svg+xml</dc:format>
         <dc:modified>2024-02-09T20:17:02.993Z</dc:modified>
         <dc:title>
            <rdf:Alt>
               <rdf:li xml:lang="x-default">IT modernization icon - Black</rdf:li>
            </rdf:Alt>
         </dc:title>
         <dc:description>
            <rdf:Alt>
               <rdf:li xml:lang="x-default">modernize, grow, change, innovate, cycle, circles, update, AI, ML, software and technologies</rdf:li>
            </rdf:Alt>
         </dc:description>
         <cq:lastReplicationAction_scene7>Activate</cq:lastReplicationAction_scene7>
         <cq:lastReplicationAction_publish>Activate</cq:lastReplicationAction_publish>
         <cq:lastReplicated_publish>2024-02-09T21:54:14.534Z</cq:lastReplicated_publish>
         <cq:lastReplicatedBy>workflow-process-service</cq:lastReplicatedBy>
         <cq:lastReplicationAction>Activate</cq:lastReplicationAction>
         <cq:lastReplicatedBy_publish>workflow-process-service</cq:lastReplicatedBy_publish>
         <cq:isDelivered>true</cq:isDelivered>
         <cq:lastReplicated>2024-02-09T21:54:14.534Z</cq:lastReplicated>
         <cq:lastReplicatedBy_scene7>workflow-process-service</cq:lastReplicatedBy_scene7>
         <cq:lastReplicated_scene7>2024-02-09T21:54:14.534Z</cq:lastReplicated_scene7>
         <tiff:ImageLength>36</tiff:ImageLength>
         <tiff:ImageWidth>36</tiff:ImageWidth>
      </rdf:Description>
   </rdf:RDF>
</x:xmpmeta>
                                                                                                    
                                                                                                    
                                                                                                    
                                                                                                    
                                                                                                    
                                                                                                    
                                                                                                    
                                                                                                    
                                                                                                    
                                                                                                    
                                 
<?xpacket end="w"?></metadata>
<path d="m8.5424805,8.5429688c5.1551514-5.1561279,13.5007935-5.2060547,18.729187-.1679688h-1.2716675c-.3452148,0-.625.2802734-.625.625s.2797852.625.625.625h3c.3452148,0,.625-.2802734.625-.625v-3c0-.3452148-.2797852-.625-.625-.625s-.625.2797852-.625.625v1.7089844c-.0131226-.0160522-.0187378-.0358276-.0336914-.0507812C22.6391602,1.956543,13.3608398,1.956543,7.6586914,7.6582031c-4.362793,4.3623047-5.519043,11.0371094-2.8769531,16.609375.1069336.2255859.331543.3574219.5654297.3574219.0898438,0,.1806641-.0195312.2670898-.0605469.3120117-.1474609.4448242-.5205078.2973633-.8320312-2.4165039-5.0957031-1.3588867-11.2001953,2.6308594-15.1894531Z"/><path d="m31.2182617,11.7324219c-.1479492-.3125-.5205078-.4443359-.8325195-.296875s-.4448242.5205078-.2973633.8320312c2.4165039,5.0957031,1.3588867,11.2001953-2.6308594,15.1894531-2.5263672,2.5273438-5.8847656,3.9179688-9.4575195,3.9179688-3.4888306,0-6.7675781-1.3342896-9.2728882-3.75h1.2728882c.3452148,0,.625-.2802734.625-.625s-.2797852-.625-.625-.625h-3c-.3452148,0-.625.2802734-.625.625v3c0,.3447266.2797852.625.625.625s.625-.2802734.625-.625v-1.6949463c.0117798.0118408.0218506.0249023.0336914.0367432,2.762207,2.7617188,6.4350586,4.2832031,10.3413086,4.2832031s7.5791016-1.5214844,10.3413086-4.2832031c4.362793-4.3623047,5.519043-11.0371094,2.8769531-16.609375Z"/><path d="m18,27.625c.3452148,0,.625-.2802734.625-.625v-13.4584961c1.1450195-.2822876,2-1.3106689,2-2.5415039,0-1.4472656-1.1777344-2.625-2.625-2.625s-2.625,1.1777344-2.625,2.625c0,1.230835.8549805,2.2592163,2,2.5415039v13.4584961c0,.3447266.2797852.625.625.625Zm-1.375-16.625c0-.7578125.6166992-1.375,1.375-1.375s1.375.6171875,1.375,1.375-.6166992,1.375-1.375,1.375-1.375-.6171875-1.375-1.375Z"/><path d="m15,26.625c.3452148,0,.625-.2802734.625-.625v-5c0-.1660156-.065918-.3251953-.1831055-.4423828l-2.2044678-2.2040405c.2409058-.3966064.3875732-.8566895.3875732-1.3535767,0-1.4472656-1.1777344-2.625-2.625-2.625s-2.625,1.1777344-2.625,2.625,1.1777344,2.625,2.625,2.625c.4967041,0,.956604-.1466064,1.3530884-.3873291l2.0219116,2.0211182v4.7412109c0,.3447266.2797852.625.625.625Zm-5.375-9.625c0-.7578125.6166992-1.375,1.375-1.375s1.375.6171875,1.375,1.375c0,.3787842-.1540527.7224121-.4028931.9714355-.0001221.0001221-.0003052.0001221-.0004272.0002441s-.0001221.0001831-.0002441.0003052c-.2489014.2487793-.5924683.4030151-.9714355.4030151-.7583008,0-1.375-.6171875-1.375-1.375Z"/><path d="m21,26.625c.3452148,0,.625-.2802734.625-.625v-4.7412109l2.0216675-2.0212402c.3965454.2407837.8565674.3874512,1.3533325.3874512,1.4472656,0,2.625-1.1777344,2.625-2.625s-1.1777344-2.625-2.625-2.625-2.625,1.1777344-2.625,2.625c0,.4967651.1466675.9567261.3874512,1.3532715l-2.2043457,2.2043457c-.1171875.1171875-.1831055.2763672-.1831055.4423828v5c0,.3447266.2797852.625.625.625Zm4-11c.7583008,0,1.375.6171875,1.375,1.375s-.6166992,1.375-1.375,1.375-1.375-.6171875-1.375-1.375.6166992-1.375,1.375-1.375Z"/></svg>