<svg id="acb3d76b-1839-4a4f-b737-b27e1c23d6de" data-name="Icon" xmlns="http://www.w3.org/2000/svg" viewBox="0 0 36 36">
  <title>Keyboard icon - Black</title>
<desc>computer, type, keys, letters, input, control, laptop, desktop, mouse, work, enter, backspace, typing, hardware</desc>
<metadata><?xpacket begin="﻿" id="W5M0MpCehiHzreSzNTczkc9d"?>
<x:xmpmeta xmlns:x="adobe:ns:meta/" x:xmptk="Adobe XMP Core 8.0-c001 1.000000, 0000/00/00-00:00:00        ">
   <rdf:RDF xmlns:rdf="http://www.w3.org/1999/02/22-rdf-syntax-ns#">
      <rdf:Description rdf:about=""
            xmlns:xmp="http://ns.adobe.com/xap/1.0/"
            xmlns:dc="http://purl.org/dc/elements/1.1/"
            xmlns:cq="http://www.day.com/jcr/cq/1.0"
            xmlns:tiff="http://ns.adobe.com/tiff/1.0/">
         <xmp:rhcc-effective-on>2023-12-08T17:34:15.847Z</xmp:rhcc-effective-on>
         <xmp:rhcc-metadata-complete-moderator>pending</xmp:rhcc-metadata-complete-moderator>
         <xmp:rhcc-translation-id>TRAbac6c622-4ebf-4afc-9504-477254482c4b</xmp:rhcc-translation-id>
         <xmp:brand-content-type>Icon</xmp:brand-content-type>
         <xmp:CreateDate>2023-12-08T17:34:15.847Z</xmp:CreateDate>
         <xmp:rhcc-effective-on-set-on-upload>true</xmp:rhcc-effective-on-set-on-upload>
         <xmp:rhcc-metadata-complete-uploader>pending</xmp:rhcc-metadata-complete-uploader>
         <xmp:rhcc-file-last-modified>2023-12-08T17:34:26.727Z</xmp:rhcc-file-last-modified>
         <xmp:rhcc-audience>rhcc-audience:internal</xmp:rhcc-audience>
         <xmp:rhcc-rights-restricted>no</xmp:rhcc-rights-restricted>
         <xmp:brand-content-subtype>Icon</xmp:brand-content-subtype>
         <xmp:rhcc-derivative-id>DERbac6c622-4ebf-4afc-9504-477254482c4b</xmp:rhcc-derivative-id>
         <xmp:brand-logo-color>Black</xmp:brand-logo-color>
         <xmp:rhcc-notify-portal-subscribers-on-change>yes</xmp:rhcc-notify-portal-subscribers-on-change>
         <dc:format>image/svg+xml</dc:format>
         <dc:modified>2024-02-09T20:11:36.635Z</dc:modified>
         <dc:title>
            <rdf:Alt>
               <rdf:li xml:lang="x-default">Keyboard icon - Black</rdf:li>
            </rdf:Alt>
         </dc:title>
         <dc:description>
            <rdf:Alt>
               <rdf:li xml:lang="x-default">computer, type, keys, letters, input, control, laptop, desktop, mouse, work, enter, backspace, typing, hardware</rdf:li>
            </rdf:Alt>
         </dc:description>
         <cq:lastReplicationAction_scene7>Activate</cq:lastReplicationAction_scene7>
         <cq:lastReplicationAction_publish>Activate</cq:lastReplicationAction_publish>
         <cq:lastReplicated_publish>2024-02-09T21:46:56.077Z</cq:lastReplicated_publish>
         <cq:lastReplicatedBy>workflow-process-service</cq:lastReplicatedBy>
         <cq:lastReplicationAction>Activate</cq:lastReplicationAction>
         <cq:lastReplicatedBy_publish>workflow-process-service</cq:lastReplicatedBy_publish>
         <cq:isDelivered>true</cq:isDelivered>
         <cq:lastReplicated>2024-02-09T21:46:56.077Z</cq:lastReplicated>
         <cq:lastReplicatedBy_scene7>workflow-process-service</cq:lastReplicatedBy_scene7>
         <cq:lastReplicated_scene7>2024-02-09T21:46:56.077Z</cq:lastReplicated_scene7>
         <tiff:ImageLength>36</tiff:ImageLength>
         <tiff:ImageWidth>36</tiff:ImageWidth>
      </rdf:Description>
   </rdf:RDF>
</x:xmpmeta>
                                                                                                    
                                                                                                    
                                                                                                    
                                                                                                    
                                                                                                    
                                                                                                    
                                                                                                    
                                                                                                    
                                                                                                    
                                                                                                    
                                 
<?xpacket end="w"?></metadata>
<g>
    <path d="M9,24.62h1a.62.62,0,0,0,0-1.24H9a.62.62,0,0,0,0,1.24Z"/>
    <path d="M14.62,24a.61.61,0,0,0-.62-.62H13a.62.62,0,1,0,0,1.24h1A.61.61,0,0,0,14.62,24Z"/>
    <path d="M21,24.62h1a.62.62,0,0,0,0-1.24H21a.62.62,0,0,0,0,1.24Z"/>
    <path d="M14,21.62h1a.62.62,0,0,0,0-1.24H14a.62.62,0,1,0,0,1.24Z"/>
    <path d="M11,20.38H9a.62.62,0,0,0,0,1.24h2a.62.62,0,1,0,0-1.24Z"/>
    <path d="M22,21.62h1a.62.62,0,0,0,0-1.24H22a.62.62,0,0,0,0,1.24Z"/>
    <path d="M17,24.62h1a.62.62,0,0,0,0-1.24H17a.62.62,0,0,0,0,1.24Z"/>
    <path d="M17.38,21a.61.61,0,0,0,.62.62h1a.62.62,0,0,0,0-1.24H18A.61.61,0,0,0,17.38,21Z"/>
    <path d="M25,24.62h2a.62.62,0,0,0,0-1.24H25a.62.62,0,0,0,0,1.24Z"/>
    <path d="M27,26.38H26a.62.62,0,0,0,0,1.24h1a.62.62,0,0,0,0-1.24Z"/>
    <path d="M11,26.38H9a.62.62,0,1,0,0,1.24h2a.62.62,0,0,0,0-1.24Z"/>
    <path d="M26,21.62h1a.62.62,0,0,0,0-1.24H26a.62.62,0,0,0,0,1.24Z"/>
    <path d="M23,26.38H14a.62.62,0,1,0,0,1.24h9a.62.62,0,0,0,0-1.24Z"/>
    <path d="M31,16.38H18.51V15a2.63,2.63,0,0,0-2.62-2.62h-5a1.38,1.38,0,1,1,0-2.75h14a2.63,2.63,0,0,0,0-5.25h-7a.63.63,0,1,0,0,1.25h7a1.38,1.38,0,0,1,0,2.75h-14a2.63,2.63,0,1,0,0,5.25h5A1.37,1.37,0,0,1,17.26,15v1.38H5a.62.62,0,0,0-.62.62V31a.62.62,0,0,0,.62.63H31a.62.62,0,0,0,.62-.63V17A.62.62,0,0,0,31,16.38Zm-.62,14H5.62V17.63H30.38Z"/>
  </g>
</svg>
