<?xml version="1.0" encoding="UTF-8"?>
<svg id="uuid-e7073085-c603-4d79-95be-89327afe0414" data-name="Icon" xmlns="http://www.w3.org/2000/svg" viewBox="0 0 36 36">
  <metadata><?xpacket begin="﻿" id="W5M0MpCehiHzreSzNTczkc9d"?>
<x:xmpmeta xmlns:x="adobe:ns:meta/" x:xmptk="Adobe XMP Core 8.0-c001 1.000000, 0000/00/00-00:00:00        ">
   <rdf:RDF xmlns:rdf="http://www.w3.org/1999/02/22-rdf-syntax-ns#">
      <rdf:Description rdf:about=""
            xmlns:xmp="http://ns.adobe.com/xap/1.0/"
            xmlns:dc="http://purl.org/dc/elements/1.1/"
            xmlns:cq="http://www.day.com/jcr/cq/1.0"
            xmlns:tiff="http://ns.adobe.com/tiff/1.0/">
         <xmp:rhcc-effective-on>2023-12-08T17:35:53.123Z</xmp:rhcc-effective-on>
         <xmp:rhcc-metadata-complete-moderator>pending</xmp:rhcc-metadata-complete-moderator>
         <xmp:rhcc-translation-id>TRA3245fa4d-c3d7-41d5-bee5-eca51d8fa07c</xmp:rhcc-translation-id>
         <xmp:CreateDate>2023-12-08T17:35:53.123Z</xmp:CreateDate>
         <xmp:rhcc-effective-on-set-on-upload>true</xmp:rhcc-effective-on-set-on-upload>
         <xmp:rhcc-metadata-complete-uploader>pending</xmp:rhcc-metadata-complete-uploader>
         <xmp:rhcc-file-last-modified>2023-12-08T17:36:28.500Z</xmp:rhcc-file-last-modified>
         <xmp:rhcc-audience>rhcc-audience:internal</xmp:rhcc-audience>
         <xmp:rhcc-rights-restricted>no</xmp:rhcc-rights-restricted>
         <xmp:rhcc-derivative-id>DER3245fa4d-c3d7-41d5-bee5-eca51d8fa07c</xmp:rhcc-derivative-id>
         <xmp:rhcc-notify-portal-subscribers-on-change>yes</xmp:rhcc-notify-portal-subscribers-on-change>
         <dc:format>image/svg+xml</dc:format>
         <dc:modified>2024-02-09T20:31:21.164Z</dc:modified>
         <cq:lastReplicationAction_scene7>Activate</cq:lastReplicationAction_scene7>
         <cq:lastReplicationAction_publish>Activate</cq:lastReplicationAction_publish>
         <cq:lastReplicated_publish>2024-02-09T22:18:23.606Z</cq:lastReplicated_publish>
         <cq:lastReplicatedBy>workflow-process-service</cq:lastReplicatedBy>
         <cq:lastReplicationAction>Activate</cq:lastReplicationAction>
         <cq:lastReplicatedBy_publish>workflow-process-service</cq:lastReplicatedBy_publish>
         <cq:isDelivered>true</cq:isDelivered>
         <cq:lastReplicated>2024-02-09T22:18:23.606Z</cq:lastReplicated>
         <cq:lastReplicatedBy_scene7>workflow-process-service</cq:lastReplicatedBy_scene7>
         <cq:lastReplicated_scene7>2024-02-09T22:18:23.606Z</cq:lastReplicated_scene7>
         <tiff:ImageLength>36</tiff:ImageLength>
         <tiff:ImageWidth>36</tiff:ImageWidth>
      </rdf:Description>
   </rdf:RDF>
</x:xmpmeta>
                                                                                                    
                                                                                                    
                                                                                                    
                                                                                                    
                                                                                                    
                                                                                                    
                                                                                                    
                                                                                                    
                                                                                                    
                                                                                                    
                                 
<?xpacket end="w"?></metadata>
<path d="M27.58,26.76c-.1-.23-.32-.39-.58-.39h-6c-.82,0-.82,1.25,0,1.25h4.49l-.93,.93c-.24,.24-.24,.64,0,.88l.93,.93h-5.49c-.76,0-1.38-.62-1.38-1.38,0-.34-.28-.62-.62-.62s-.62,.28-.62,.62c0,1.45,1.18,2.62,2.62,2.62h7c.25,0,.48-.15,.58-.39,.1-.23,.04-.5-.14-.68l-1.56-1.56,1.56-1.56c.18-.18,.23-.45,.14-.68Z"/>
  <path d="M17.76,27.58c.6,.28,1.18-.58,.68-1.02-.73-.67-1.57,.59-.68,1.02Z"/>
  <path d="M28.58,15.24c.06-.15,.06-.33,0-.48-.03-.06-.07-.12-.11-.17,0-.01-.01-.02-.02-.03L18.44,4.56s-.04-.02-.05-.04c-.05-.04-.09-.07-.15-.1-.15-.06-.33-.06-.48,0-.06,.02-.1,.06-.15,.1-.02,.01-.04,.02-.05,.04L7.56,14.56s-.01,.02-.02,.03c-.04,.05-.09,.11-.11,.17-.06,.15-.06,.33,0,.48,.03,.06,.07,.12,.11,.17,0,.01,.01,.02,.02,.03l10,10s.03,.02,.05,.03c.05,.04,.09,.08,.15,.1,.15,.06,.33,.06,.48,0,.06-.02,.1-.06,.15-.1,.02-.01,.04-.02,.05-.03l10-10s.01-.02,.02-.03c.04-.05,.09-.11,.11-.17Zm-11.2-.86h-7.87l7.87-7.87v7.87Zm-3,1.25v1.38c0,.82,1.25,.82,1.25,0v-1.38h1.75v7.87l-7.87-7.87h4.87Zm4.25,0h7.87l-7.87,7.87v-7.87Zm3-1.25v-1.38c0-.82-1.25-.82-1.25,0v1.38h-1.75V6.51l7.87,7.87h-4.87Z"/>
</svg>