<?xml version="1.0" encoding="UTF-8"?>
<svg id="uuid-7fb14693-93bf-4608-a033-c9799cb4eed3" data-name="Icon" xmlns="http://www.w3.org/2000/svg" viewBox="0 0 36 36">
  <title>KoaLA kiosk icon - Black</title>
<desc>certification, testing, RHU, exam, GWS, office and work, kiosk, training, certification, exam, self-serve</desc>
<metadata><?xpacket begin="﻿" id="W5M0MpCehiHzreSzNTczkc9d"?>
<x:xmpmeta xmlns:x="adobe:ns:meta/" x:xmptk="Adobe XMP Core 8.0-c001 1.000000, 0000/00/00-00:00:00        ">
   <rdf:RDF xmlns:rdf="http://www.w3.org/1999/02/22-rdf-syntax-ns#">
      <rdf:Description rdf:about=""
            xmlns:xmp="http://ns.adobe.com/xap/1.0/"
            xmlns:dc="http://purl.org/dc/elements/1.1/"
            xmlns:cq="http://www.day.com/jcr/cq/1.0"
            xmlns:tiff="http://ns.adobe.com/tiff/1.0/">
         <xmp:rhcc-effective-on>2023-12-08T17:46:49.632Z</xmp:rhcc-effective-on>
         <xmp:rhcc-metadata-complete-moderator>pending</xmp:rhcc-metadata-complete-moderator>
         <xmp:rhcc-translation-id>TRA1972dcde-b8a1-42fb-8f62-028c83851385</xmp:rhcc-translation-id>
         <xmp:brand-content-type>Icon</xmp:brand-content-type>
         <xmp:CreateDate>2023-12-08T17:46:49.632Z</xmp:CreateDate>
         <xmp:rhcc-effective-on-set-on-upload>true</xmp:rhcc-effective-on-set-on-upload>
         <xmp:rhcc-metadata-complete-uploader>pending</xmp:rhcc-metadata-complete-uploader>
         <xmp:rhcc-file-last-modified>2023-12-08T17:47:01.847Z</xmp:rhcc-file-last-modified>
         <xmp:rhcc-audience>rhcc-audience:internal</xmp:rhcc-audience>
         <xmp:rhcc-rights-restricted>no</xmp:rhcc-rights-restricted>
         <xmp:brand-content-subtype>Icon</xmp:brand-content-subtype>
         <xmp:rhcc-derivative-id>DER1972dcde-b8a1-42fb-8f62-028c83851385</xmp:rhcc-derivative-id>
         <xmp:brand-logo-color>Black</xmp:brand-logo-color>
         <xmp:rhcc-notify-portal-subscribers-on-change>yes</xmp:rhcc-notify-portal-subscribers-on-change>
         <dc:format>image/svg+xml</dc:format>
         <dc:modified>2024-02-09T20:23:26.675Z</dc:modified>
         <dc:title>
            <rdf:Alt>
               <rdf:li xml:lang="x-default">KoaLA kiosk icon - Black</rdf:li>
            </rdf:Alt>
         </dc:title>
         <dc:description>
            <rdf:Alt>
               <rdf:li xml:lang="x-default">certification, testing, RHU, exam, GWS, office and work, kiosk, training, certification, exam, self-serve</rdf:li>
            </rdf:Alt>
         </dc:description>
         <cq:lastReplicationAction_scene7>Activate</cq:lastReplicationAction_scene7>
         <cq:lastReplicationAction_publish>Activate</cq:lastReplicationAction_publish>
         <cq:lastReplicated_publish>2024-02-09T22:04:28.262Z</cq:lastReplicated_publish>
         <cq:lastReplicatedBy>workflow-process-service</cq:lastReplicatedBy>
         <cq:lastReplicationAction>Activate</cq:lastReplicationAction>
         <cq:lastReplicatedBy_publish>workflow-process-service</cq:lastReplicatedBy_publish>
         <cq:isDelivered>true</cq:isDelivered>
         <cq:lastReplicated>2024-02-09T22:04:28.262Z</cq:lastReplicated>
         <cq:lastReplicatedBy_scene7>workflow-process-service</cq:lastReplicatedBy_scene7>
         <cq:lastReplicated_scene7>2024-02-09T22:04:28.262Z</cq:lastReplicated_scene7>
         <tiff:ImageLength>36</tiff:ImageLength>
         <tiff:ImageWidth>36</tiff:ImageWidth>
      </rdf:Description>
   </rdf:RDF>
</x:xmpmeta>
                                                                                                    
                                                                                                    
                                                                                                    
                                                                                                    
                                                                                                    
                                                                                                    
                                                                                                    
                                                                                                    
                                                                                                    
                                                                                                    
                                 
<?xpacket end="w"?></metadata>
<path d="M13.87,24.29c2.89-2.17,1.28-6.95-2.37-6.92-3.65-.04-5.26,4.75-2.37,6.92-2.76,.98-4.75,3.61-4.75,6.71,0,.34,.28,.62,.62,.62h13c.35,0,.62-.28,.62-.62,0-3.1-1.99-5.73-4.75-6.71Zm-5-3.04c.09-3.46,5.16-3.46,5.25,0-.09,3.46-5.16,3.46-5.25,0Zm-3.22,9.12c.88-6.94,10.81-6.94,11.68,0H5.66Z"/>
  <path d="M31,4.38H11c-.35,0-.62,.28-.62,.62V15.04c0,.82,1.25,.82,1.25,0V5.62H30.38v12.75h-12.38c-.82,0-.82,1.25,0,1.25h.88v2h-.88c-.82,0-.82,1.25,0,1.25h9c.82,0,.82-1.25,0-1.25h-3.88v-2h7.88c.35,0,.62-.28,.62-.62V5c0-.34-.28-.62-.62-.62Zm-9.12,17.25h-1.75v-2h1.75v2Z"/>
  <path d="M20,11.12h5c.82,0,.82-1.25,0-1.25h-5c-.82,0-.82,1.25,0,1.25Z"/>
  <path d="M20,14.12h5c.82,0,.82-1.25,0-1.25h-5c-.82,0-.82,1.25,0,1.25Z"/>
  <path d="M17.44,10.06c-.23-.24-.65-.24-.88,0-.18,.17-.24,.45-.14,.68,.03,.07,.08,.14,.14,.2,.16,.18,.45,.24,.68,.14,.08-.03,.14-.08,.2-.14,.06-.06,.11-.13,.14-.2,.1-.24,.04-.5-.14-.68Z"/>
  <path d="M17.44,13.06c-.23-.24-.65-.24-.88,0-.06,.06-.11,.12-.14,.2-.08,.24-.04,.5,.14,.68,.22,.24,.65,.24,.88,0,.06-.06,.11-.13,.14-.2,.07-.16,.07-.32,0-.48-.04-.07-.08-.14-.14-.2Z"/>
</svg>