<?xml version="1.0" encoding="UTF-8"?><svg id="uuid-73f666da-570b-4133-8efb-e860636c080f" xmlns="http://www.w3.org/2000/svg" viewBox="0 0 36 36"><title>Laptop admin icon - Black</title>
<desc>people and audiences, admin, hardware, laptop</desc>
<metadata><?xpacket begin="﻿" id="W5M0MpCehiHzreSzNTczkc9d"?>
<x:xmpmeta xmlns:x="adobe:ns:meta/" x:xmptk="Adobe XMP Core 8.0-c001 1.000000, 0000/00/00-00:00:00        ">
   <rdf:RDF xmlns:rdf="http://www.w3.org/1999/02/22-rdf-syntax-ns#">
      <rdf:Description rdf:about=""
            xmlns:xmp="http://ns.adobe.com/xap/1.0/"
            xmlns:dc="http://purl.org/dc/elements/1.1/"
            xmlns:cq="http://www.day.com/jcr/cq/1.0"
            xmlns:tiff="http://ns.adobe.com/tiff/1.0/">
         <xmp:rhcc-effective-on>2023-12-08T17:34:00.286Z</xmp:rhcc-effective-on>
         <xmp:rhcc-metadata-complete-moderator>pending</xmp:rhcc-metadata-complete-moderator>
         <xmp:rhcc-translation-id>TRA59403c14-4377-47ba-b4da-94a1a42fd669</xmp:rhcc-translation-id>
         <xmp:brand-content-type>Icon</xmp:brand-content-type>
         <xmp:CreateDate>2023-12-08T17:34:00.286Z</xmp:CreateDate>
         <xmp:rhcc-effective-on-set-on-upload>true</xmp:rhcc-effective-on-set-on-upload>
         <xmp:rhcc-metadata-complete-uploader>pending</xmp:rhcc-metadata-complete-uploader>
         <xmp:rhcc-file-last-modified>2023-12-08T17:34:04.973Z</xmp:rhcc-file-last-modified>
         <xmp:rhcc-audience>rhcc-audience:internal</xmp:rhcc-audience>
         <xmp:rhcc-rights-restricted>no</xmp:rhcc-rights-restricted>
         <xmp:brand-content-subtype>Icon</xmp:brand-content-subtype>
         <xmp:rhcc-derivative-id>DER59403c14-4377-47ba-b4da-94a1a42fd669</xmp:rhcc-derivative-id>
         <xmp:brand-logo-color>Black</xmp:brand-logo-color>
         <xmp:rhcc-notify-portal-subscribers-on-change>yes</xmp:rhcc-notify-portal-subscribers-on-change>
         <dc:format>image/svg+xml</dc:format>
         <dc:modified>2024-02-09T20:22:44.019Z</dc:modified>
         <dc:title>
            <rdf:Alt>
               <rdf:li xml:lang="x-default">Laptop admin icon - Black</rdf:li>
            </rdf:Alt>
         </dc:title>
         <dc:description>
            <rdf:Alt>
               <rdf:li xml:lang="x-default">people and audiences, admin, hardware, laptop</rdf:li>
            </rdf:Alt>
         </dc:description>
         <cq:lastReplicationAction_scene7>Activate</cq:lastReplicationAction_scene7>
         <cq:lastReplicationAction_publish>Activate</cq:lastReplicationAction_publish>
         <cq:lastReplicated_publish>2024-02-09T22:02:33.755Z</cq:lastReplicated_publish>
         <cq:lastReplicatedBy>workflow-process-service</cq:lastReplicatedBy>
         <cq:lastReplicationAction>Activate</cq:lastReplicationAction>
         <cq:lastReplicatedBy_publish>workflow-process-service</cq:lastReplicatedBy_publish>
         <cq:isDelivered>true</cq:isDelivered>
         <cq:lastReplicated>2024-02-09T22:02:33.755Z</cq:lastReplicated>
         <cq:lastReplicatedBy_scene7>workflow-process-service</cq:lastReplicatedBy_scene7>
         <cq:lastReplicated_scene7>2024-02-09T22:02:33.755Z</cq:lastReplicated_scene7>
         <tiff:ImageLength>36</tiff:ImageLength>
         <tiff:ImageWidth>36</tiff:ImageWidth>
      </rdf:Description>
   </rdf:RDF>
</x:xmpmeta>
                                                                                                    
                                                                                                    
                                                                                                    
                                                                                                    
                                                                                                    
                                                                                                    
                                                                                                    
                                                                                                    
                                                                                                    
                                                                                                    
                                 
<?xpacket end="w"?></metadata>
<path d="M6,24.62H30c.35,0,.62-.28,.62-.62V9c0-.34-.28-.62-.62-.62h-9c-.35,0-.62,.28-.62,.62s.28,.62,.62,.62h8.38v13.75H6.62V9.62H15c.35,0,.62-.28,.62-.62s-.28-.62-.62-.62H6c-.35,0-.62,.28-.62,.62v15c0,.34,.28,.62,.62,.62Z"/><path d="M32,26.38H4c-.35,0-.62,.28-.62,.62s.28,.62,.62,.62h28c.35,0,.62-.28,.62-.62s-.28-.62-.62-.62Z"/><path d="M17.76,9.58c.08,.03,.16,.05,.24,.05,.16,0,.33-.07,.44-.19,.12-.11,.18-.28,.18-.44s-.06-.33-.18-.44c-.17-.18-.45-.23-.68-.14-.07,.03-.14,.08-.2,.14-.12,.11-.18,.28-.18,.44,0,.17,.06,.33,.18,.44,.06,.06,.13,.11,.2,.14Z"/><path d="M15.44,14.82l.33,.33c-.14,.22-.24,.47-.3,.73h-.46c-.35,0-.62,.28-.62,.62s.28,.62,.62,.62h.46c.06,.26,.17,.5,.3,.73l-.33,.33c-.24,.24-.24,.64,0,.88,.12,.12,.28,.18,.44,.18s.32-.06,.44-.18l.33-.33c.22,.14,.47,.24,.73,.3v.46c0,.34,.28,.62,.62,.62s.62-.28,.62-.62v-.46c.26-.06,.5-.17,.73-.3l.33,.33c.12,.12,.28,.18,.44,.18s.32-.06,.44-.18c.24-.24,.24-.64,0-.88l-.33-.33c.14-.22,.24-.47,.3-.73h.46c.35,0,.62-.28,.62-.62s-.28-.62-.62-.62h-.46c-.06-.26-.17-.5-.3-.73l.33-.33c.24-.24,.24-.64,0-.88s-.64-.24-.88,0l-.33,.33c-.22-.14-.47-.24-.73-.3v-.46c0-.34-.28-.62-.62-.62s-.62,.28-.62,.62v.46c-.26,.06-.5,.17-.73,.3l-.33-.33c-.24-.24-.64-.24-.88,0s-.24,.64,0,.88Zm2.56,.3c.76,0,1.38,.62,1.38,1.38s-.62,1.38-1.38,1.38-1.38-.62-1.38-1.38,.62-1.38,1.38-1.38Z"/></svg>