<svg id="fa1be26c-b222-4d29-92a0-cc51a397a046" data-name="Icon" xmlns="http://www.w3.org/2000/svg" viewBox="0 0 36 36">
  <title>Lifecycle icon - Black</title>
<desc>circle, arrows, cycle, continuous, never ending, clockwise, counterclockwise, anticlockwise, begin, end, diagrams and graphs</desc>
<metadata><?xpacket begin="﻿" id="W5M0MpCehiHzreSzNTczkc9d"?>
<x:xmpmeta xmlns:x="adobe:ns:meta/" x:xmptk="Adobe XMP Core 8.0-c001 1.000000, 0000/00/00-00:00:00        ">
   <rdf:RDF xmlns:rdf="http://www.w3.org/1999/02/22-rdf-syntax-ns#">
      <rdf:Description rdf:about=""
            xmlns:xmp="http://ns.adobe.com/xap/1.0/"
            xmlns:dc="http://purl.org/dc/elements/1.1/"
            xmlns:cq="http://www.day.com/jcr/cq/1.0"
            xmlns:tiff="http://ns.adobe.com/tiff/1.0/">
         <xmp:rhcc-effective-on>2023-12-08T17:35:01.341Z</xmp:rhcc-effective-on>
         <xmp:rhcc-metadata-complete-moderator>pending</xmp:rhcc-metadata-complete-moderator>
         <xmp:rhcc-translation-id>TRA36229820-b73b-4881-8e1e-524ba464936e</xmp:rhcc-translation-id>
         <xmp:brand-content-type>Icon</xmp:brand-content-type>
         <xmp:CreateDate>2023-12-08T17:35:01.341Z</xmp:CreateDate>
         <xmp:rhcc-effective-on-set-on-upload>true</xmp:rhcc-effective-on-set-on-upload>
         <xmp:rhcc-metadata-complete-uploader>pending</xmp:rhcc-metadata-complete-uploader>
         <xmp:rhcc-file-last-modified>2023-12-08T17:35:19.897Z</xmp:rhcc-file-last-modified>
         <xmp:rhcc-audience>rhcc-audience:internal</xmp:rhcc-audience>
         <xmp:rhcc-rights-restricted>no</xmp:rhcc-rights-restricted>
         <xmp:brand-content-subtype>Icon</xmp:brand-content-subtype>
         <xmp:rhcc-derivative-id>DER36229820-b73b-4881-8e1e-524ba464936e</xmp:rhcc-derivative-id>
         <xmp:brand-logo-color>Black</xmp:brand-logo-color>
         <xmp:rhcc-notify-portal-subscribers-on-change>yes</xmp:rhcc-notify-portal-subscribers-on-change>
         <dc:format>image/svg+xml</dc:format>
         <dc:modified>2024-02-09T20:35:03.461Z</dc:modified>
         <dc:title>
            <rdf:Alt>
               <rdf:li xml:lang="x-default">Lifecycle icon - Black</rdf:li>
            </rdf:Alt>
         </dc:title>
         <dc:description>
            <rdf:Alt>
               <rdf:li xml:lang="x-default">circle, arrows, cycle, continuous, never ending, clockwise, counterclockwise, anticlockwise, begin, end, diagrams and graphs</rdf:li>
            </rdf:Alt>
         </dc:description>
         <cq:lastReplicationAction_scene7>Activate</cq:lastReplicationAction_scene7>
         <cq:lastReplicationAction_publish>Activate</cq:lastReplicationAction_publish>
         <cq:lastReplicated_publish>2024-02-09T22:22:36.341Z</cq:lastReplicated_publish>
         <cq:lastReplicatedBy>workflow-process-service</cq:lastReplicatedBy>
         <cq:lastReplicationAction>Activate</cq:lastReplicationAction>
         <cq:lastReplicatedBy_publish>workflow-process-service</cq:lastReplicatedBy_publish>
         <cq:isDelivered>true</cq:isDelivered>
         <cq:lastReplicated>2024-02-09T22:22:36.341Z</cq:lastReplicated>
         <cq:lastReplicatedBy_scene7>workflow-process-service</cq:lastReplicatedBy_scene7>
         <cq:lastReplicated_scene7>2024-02-09T22:22:36.341Z</cq:lastReplicated_scene7>
         <tiff:ImageLength>36</tiff:ImageLength>
         <tiff:ImageWidth>36</tiff:ImageWidth>
      </rdf:Description>
   </rdf:RDF>
</x:xmpmeta>
                                                                                                    
                                                                                                    
                                                                                                    
                                                                                                    
                                                                                                    
                                                                                                    
                                                                                                    
                                                                                                    
                                                                                                    
                                                                                                    
                                 
<?xpacket end="w"?></metadata>
<g>
    <path d="M25.32,10.66l-2.88-.13a.63.63,0,0,0-.06,1.25l4.2.19A.59.59,0,0,0,27,11.8a.62.62,0,0,0,.2-.43l.19-4.2a.63.63,0,0,0-1.25,0l-.11,2.5A11.61,11.61,0,0,0,14.24,7,3.12,3.12,0,0,0,8.38,8.5c.11,4.3,6.52,4,6.22-.27A10.3,10.3,0,0,1,25.32,10.66ZM12.83,9.83a1.88,1.88,0,0,1-2.66-2.66A1.88,1.88,0,0,1,12.83,9.83Z"/>
    <path d="M12.5,24.38a3.05,3.05,0,0,0-2,.74A10.25,10.25,0,0,1,8,15.17l1.3,2.59a.62.62,0,0,0,1.11-.56L8.56,13.44a.63.63,0,0,0-.84-.28L4,15a.63.63,0,0,0,.56,1.12L6.76,15a11.55,11.55,0,0,0,3,11.08,3.12,3.12,0,1,0,2.79-1.74Zm1.33,4.45a1.88,1.88,0,0,1-2.66-2.66A1.88,1.88,0,0,1,13.83,28.83Z"/>
    <path d="M31.62,17a3.12,3.12,0,1,0-3.48,3.09A10.34,10.34,0,0,1,20,28.18l1.73-2.32a.63.63,0,0,0-1-.75l-2.5,3.38a.63.63,0,0,0-.12.46.6.6,0,0,0,.25.41l3.37,2.51a.63.63,0,0,0,.75-1l-2-1.49a11.6,11.6,0,0,0,9-9.4A3.09,3.09,0,0,0,31.62,17Zm-1.79,1.33a1.88,1.88,0,0,1-2.66-2.66A1.88,1.88,0,0,1,29.83,18.33Z"/>
  </g>
</svg>
