<?xml version="1.0" encoding="UTF-8"?>
<svg id="uuid-a78319ab-e78e-489f-9771-feaf9a2854d1" data-name="Icon" xmlns="http://www.w3.org/2000/svg" viewBox="0 0 36 36">
  <metadata><?xpacket begin="﻿" id="W5M0MpCehiHzreSzNTczkc9d"?>
<x:xmpmeta xmlns:x="adobe:ns:meta/" x:xmptk="Adobe XMP Core 8.0-c001 1.000000, 0000/00/00-00:00:00        ">
   <rdf:RDF xmlns:rdf="http://www.w3.org/1999/02/22-rdf-syntax-ns#">
      <rdf:Description rdf:about=""
            xmlns:xmp="http://ns.adobe.com/xap/1.0/"
            xmlns:dc="http://purl.org/dc/elements/1.1/"
            xmlns:cq="http://www.day.com/jcr/cq/1.0"
            xmlns:tiff="http://ns.adobe.com/tiff/1.0/">
         <xmp:rhcc-effective-on>2023-12-08T17:47:35.312Z</xmp:rhcc-effective-on>
         <xmp:rhcc-metadata-complete-moderator>pending</xmp:rhcc-metadata-complete-moderator>
         <xmp:rhcc-translation-id>TRA04a7571d-4d50-4a4a-b743-2b6a73224f56</xmp:rhcc-translation-id>
         <xmp:CreateDate>2023-12-08T17:47:35.312Z</xmp:CreateDate>
         <xmp:rhcc-effective-on-set-on-upload>true</xmp:rhcc-effective-on-set-on-upload>
         <xmp:rhcc-metadata-complete-uploader>pending</xmp:rhcc-metadata-complete-uploader>
         <xmp:rhcc-file-last-modified>2023-12-08T17:48:03.593Z</xmp:rhcc-file-last-modified>
         <xmp:rhcc-audience>rhcc-audience:internal</xmp:rhcc-audience>
         <xmp:rhcc-rights-restricted>no</xmp:rhcc-rights-restricted>
         <xmp:rhcc-derivative-id>DER04a7571d-4d50-4a4a-b743-2b6a73224f56</xmp:rhcc-derivative-id>
         <xmp:rhcc-notify-portal-subscribers-on-change>yes</xmp:rhcc-notify-portal-subscribers-on-change>
         <dc:format>image/svg+xml</dc:format>
         <dc:modified>2024-02-09T20:24:31.263Z</dc:modified>
         <cq:lastReplicationAction_scene7>Activate</cq:lastReplicationAction_scene7>
         <cq:lastReplicationAction_publish>Activate</cq:lastReplicationAction_publish>
         <cq:lastReplicated_publish>2024-02-09T22:07:12.524Z</cq:lastReplicated_publish>
         <cq:lastReplicatedBy>workflow-process-service</cq:lastReplicatedBy>
         <cq:lastReplicationAction>Activate</cq:lastReplicationAction>
         <cq:lastReplicatedBy_publish>workflow-process-service</cq:lastReplicatedBy_publish>
         <cq:isDelivered>true</cq:isDelivered>
         <cq:lastReplicated>2024-02-09T22:07:12.524Z</cq:lastReplicated>
         <cq:lastReplicatedBy_scene7>workflow-process-service</cq:lastReplicatedBy_scene7>
         <cq:lastReplicated_scene7>2024-02-09T22:07:12.524Z</cq:lastReplicated_scene7>
         <tiff:ImageLength>36</tiff:ImageLength>
         <tiff:ImageWidth>36</tiff:ImageWidth>
      </rdf:Description>
   </rdf:RDF>
</x:xmpmeta>
                                                                                                    
                                                                                                    
                                                                                                    
                                                                                                    
                                                                                                    
                                                                                                    
                                                                                                    
                                                                                                    
                                                                                                    
                                                                                                    
                                 
<?xpacket end="w"?></metadata>
<path d="M26,28.62c.35,0,.62-.28,.62-.62v-2c0-.34-.28-.62-.62-.62H10c-.35,0-.62,.28-.62,.62v2c0,.34,.28,.62,.62,.62s.62-.28,.62-.62v-1.38h14.75v1.38c0,.34,.28,.62,.62,.62Z"/>
  <path d="M13.38,13c0,.34,.28,.62,.62,.62h.57l-2.18,10.25c-.07,.34,.14,.67,.48,.74,.04,0,.09,.01,.13,.01,.29,0,.55-.2,.61-.5l2.23-10.5h4.31l2.23,10.5c.06,.29,.32,.5,.61,.5,.04,0,.09,0,.13-.01,.34-.07,.55-.4,.48-.74l-2.18-10.25h.57c.35,0,.62-.28,.62-.62s-.28-.62-.62-.62H14c-.35,0-.62,.28-.62,.62Z"/>
  <path d="M16,11.62h4c.35,0,.62-.28,.62-.62v-3c0-1.23-.85-2.26-2-2.54v-.46c0-.34-.28-.62-.62-.62s-.62,.28-.62,.62v.46c-1.15,.28-2,1.31-2,2.54v3c0,.34,.28,.62,.62,.62Zm.62-3.62c0-.76,.62-1.38,1.38-1.38s1.38,.62,1.38,1.38v2.38h-.75v-1.38c0-.34-.28-.62-.62-.62s-.62,.28-.62,.62v1.38h-.75v-2.38Z"/>
  <path d="M18.62,19v-3c0-.34-.28-.62-.62-.62s-.62,.28-.62,.62v3c0,.34,.28,.62,.62,.62s.62-.28,.62-.62Z"/>
  <path d="M22.39,9.12c.04,.25,.25,.42,.48,.49l8,1.7c.33,.07,.67-.14,.74-.48,.07-.34-.14-.67-.48-.74l-5.12-1.09,5.12-1.09c.34-.07,.55-.4,.48-.74-.07-.34-.4-.56-.74-.48l-7.98,1.7c-.34,.06-.56,.41-.5,.74Z"/>
  <path d="M4.39,10.83c.07,.34,.41,.55,.74,.48l8-1.7c.66-.16,.64-1.1-.02-1.23l-7.98-1.7c-.34-.07-.67,.14-.74,.48s.14,.67,.48,.74l5.12,1.09-5.12,1.09c-.34,.07-.55,.4-.48,.74Z"/>
  <path d="M31.32,29.92c-.32-.19-.6-.42-.85-.71-.12-.14-.29-.21-.47-.21s-.35,.08-.47,.21c-.65,.74-1.57,1.17-2.53,1.17s-1.88-.42-2.53-1.17c-.24-.27-.7-.27-.94,0-.65,.74-1.57,1.17-2.53,1.17s-1.88-.42-2.53-1.17c-.24-.27-.7-.27-.94,0-.65,.74-1.57,1.17-2.53,1.17s-1.88-.42-2.53-1.17c-.24-.27-.7-.27-.94,0-.65,.74-1.57,1.17-2.53,1.17s-1.88-.42-2.53-1.17c-.12-.14-.29-.21-.47-.21h0c-.18,0-.35,.08-.47,.21-.24,.28-.53,.52-.85,.71-.3,.18-.4,.56-.22,.86,.18,.3,.56,.39,.86,.22,.24-.14,.47-.31,.68-.49,1.67,1.44,4.33,1.44,6,0,1.67,1.44,4.33,1.44,6,0,1.67,1.44,4.33,1.44,6,0,.84,.72,1.9,1.13,3,1.13s2.16-.4,3-1.12c.21,.18,.44,.35,.68,.49,.3,.17,.68,.08,.86-.22s.08-.68-.22-.86Z"/>
</svg>