<svg id="f1737fa9-91df-4e5d-8841-bbcbd168cc94" data-name="Icon" xmlns="http://www.w3.org/2000/svg" viewBox="0 0 36 36">
  <title>Broken link icon - Black</title>
<desc>hyperlink, browser, share, click, internet, online, website, access, unlink, disconnected, software and technologies</desc>
<metadata><?xpacket begin="﻿" id="W5M0MpCehiHzreSzNTczkc9d"?>
<x:xmpmeta xmlns:x="adobe:ns:meta/" x:xmptk="Adobe XMP Core 8.0-c001 1.000000, 0000/00/00-00:00:00        ">
   <rdf:RDF xmlns:rdf="http://www.w3.org/1999/02/22-rdf-syntax-ns#">
      <rdf:Description rdf:about=""
            xmlns:xmp="http://ns.adobe.com/xap/1.0/"
            xmlns:dc="http://purl.org/dc/elements/1.1/"
            xmlns:cq="http://www.day.com/jcr/cq/1.0"
            xmlns:tiff="http://ns.adobe.com/tiff/1.0/">
         <xmp:rhcc-effective-on>2023-12-08T17:43:40.032Z</xmp:rhcc-effective-on>
         <xmp:rhcc-metadata-complete-moderator>pending</xmp:rhcc-metadata-complete-moderator>
         <xmp:rhcc-translation-id>TRA6e23e81a-0a0a-4625-99d8-4b4a38fb650e</xmp:rhcc-translation-id>
         <xmp:brand-content-type>Icon</xmp:brand-content-type>
         <xmp:CreateDate>2023-12-08T17:43:40.032Z</xmp:CreateDate>
         <xmp:rhcc-effective-on-set-on-upload>true</xmp:rhcc-effective-on-set-on-upload>
         <xmp:rhcc-metadata-complete-uploader>pending</xmp:rhcc-metadata-complete-uploader>
         <xmp:rhcc-file-last-modified>2023-12-08T17:44:11.128Z</xmp:rhcc-file-last-modified>
         <xmp:rhcc-audience>rhcc-audience:internal</xmp:rhcc-audience>
         <xmp:rhcc-rights-restricted>no</xmp:rhcc-rights-restricted>
         <xmp:brand-content-subtype>Icon</xmp:brand-content-subtype>
         <xmp:rhcc-derivative-id>DER6e23e81a-0a0a-4625-99d8-4b4a38fb650e</xmp:rhcc-derivative-id>
         <xmp:brand-logo-color>Black</xmp:brand-logo-color>
         <xmp:rhcc-notify-portal-subscribers-on-change>yes</xmp:rhcc-notify-portal-subscribers-on-change>
         <dc:format>image/svg+xml</dc:format>
         <dc:modified>2024-02-09T20:17:19.022Z</dc:modified>
         <dc:title>
            <rdf:Alt>
               <rdf:li xml:lang="x-default">Broken link icon - Black</rdf:li>
            </rdf:Alt>
         </dc:title>
         <dc:description>
            <rdf:Alt>
               <rdf:li xml:lang="x-default">hyperlink, browser, share, click, internet, online, website, access, unlink, disconnected, software and technologies</rdf:li>
            </rdf:Alt>
         </dc:description>
         <cq:lastReplicationAction_scene7>Activate</cq:lastReplicationAction_scene7>
         <cq:lastReplicationAction_publish>Activate</cq:lastReplicationAction_publish>
         <cq:lastReplicated_publish>2024-02-09T21:54:32.723Z</cq:lastReplicated_publish>
         <cq:lastReplicatedBy>workflow-process-service</cq:lastReplicatedBy>
         <cq:lastReplicationAction>Activate</cq:lastReplicationAction>
         <cq:lastReplicatedBy_publish>workflow-process-service</cq:lastReplicatedBy_publish>
         <cq:isDelivered>true</cq:isDelivered>
         <cq:lastReplicated>2024-02-09T21:54:32.723Z</cq:lastReplicated>
         <cq:lastReplicatedBy_scene7>workflow-process-service</cq:lastReplicatedBy_scene7>
         <cq:lastReplicated_scene7>2024-02-09T21:54:32.723Z</cq:lastReplicated_scene7>
         <tiff:ImageLength>36</tiff:ImageLength>
         <tiff:ImageWidth>36</tiff:ImageWidth>
      </rdf:Description>
   </rdf:RDF>
</x:xmpmeta>
                                                                                                    
                                                                                                    
                                                                                                    
                                                                                                    
                                                                                                    
                                                                                                    
                                                                                                    
                                                                                                    
                                                                                                    
                                                                                                    
                                 
<?xpacket end="w"?></metadata>
<g>
    <path d="M28.79,14.88c-.59.57.32,1.47.88.89,6-6.44-3-15.48-9.44-9.44l-5.35,5.35a6.69,6.69,0,0,0,0,9.44.63.63,0,0,0,.89-.89,5.42,5.42,0,0,1,0-7.67l5.35-5.35C26.34,2.31,33.7,9.66,28.79,14.88Z"/>
    <path d="M21.12,14.88a.63.63,0,0,0-.89.89,5.42,5.42,0,0,1,0,7.67l-5.35,5.35c-5.22,4.9-12.58-2.45-7.67-7.67a.63.63,0,0,0-.88-.89c-4.21,4.1-1.09,11.5,4.72,11.39a6.65,6.65,0,0,0,4.72-1.95l5.35-5.35A6.69,6.69,0,0,0,21.12,14.88Z"/>
    <path d="M8.62,9.5a.62.62,0,0,0,.88-.88L7.44,6.56C6.88,6,6,6.88,6.56,7.44Z"/>
    <path d="M13,8.54a.63.63,0,0,0,.62-.63V5a.62.62,0,1,0-1.24,0V7.91A.63.63,0,0,0,13,8.54Z"/>
    <path d="M5,13.62H7.91a.62.62,0,0,0,0-1.24H5A.62.62,0,0,0,5,13.62Z"/>
    <path d="M27.38,26.5c-.56-.58-1.46.32-.88.88l2.06,2.06a.62.62,0,0,0,.88-.88Z"/>
    <path d="M23,27.46a.63.63,0,0,0-.62.63V31a.62.62,0,0,0,1.24,0V28.09A.63.63,0,0,0,23,27.46Z"/>
    <path d="M31,22.38H28.09a.62.62,0,0,0,0,1.24H31A.62.62,0,0,0,31,22.38Z"/>
  </g>
</svg>
