<svg id="e87a91d8-a956-43be-9459-6f6f52b5d4de" data-name="Icon" xmlns="http://www.w3.org/2000/svg" viewBox="0 0 36 36"><title>Luggage icon - Black</title>
<desc>suitcase, travel, transit, luggage, cargo</desc>
<metadata><?xpacket begin="﻿" id="W5M0MpCehiHzreSzNTczkc9d"?>
<x:xmpmeta xmlns:x="adobe:ns:meta/" x:xmptk="Adobe XMP Core 8.0-c001 1.000000, 0000/00/00-00:00:00        ">
   <rdf:RDF xmlns:rdf="http://www.w3.org/1999/02/22-rdf-syntax-ns#">
      <rdf:Description rdf:about=""
            xmlns:xmp="http://ns.adobe.com/xap/1.0/"
            xmlns:dc="http://purl.org/dc/elements/1.1/"
            xmlns:cq="http://www.day.com/jcr/cq/1.0"
            xmlns:tiff="http://ns.adobe.com/tiff/1.0/">
         <xmp:rhcc-effective-on>2023-12-08T17:35:56.392Z</xmp:rhcc-effective-on>
         <xmp:rhcc-metadata-complete-moderator>pending</xmp:rhcc-metadata-complete-moderator>
         <xmp:rhcc-translation-id>TRA5497dd5d-377d-4ce0-9e85-dc00b307c971</xmp:rhcc-translation-id>
         <xmp:brand-content-type>Icon</xmp:brand-content-type>
         <xmp:CreateDate>2023-12-08T17:35:56.392Z</xmp:CreateDate>
         <xmp:rhcc-effective-on-set-on-upload>true</xmp:rhcc-effective-on-set-on-upload>
         <xmp:rhcc-metadata-complete-uploader>pending</xmp:rhcc-metadata-complete-uploader>
         <xmp:rhcc-file-last-modified>2023-12-08T17:36:32.248Z</xmp:rhcc-file-last-modified>
         <xmp:rhcc-audience>rhcc-audience:internal</xmp:rhcc-audience>
         <xmp:rhcc-rights-restricted>no</xmp:rhcc-rights-restricted>
         <xmp:brand-content-subtype>Icon</xmp:brand-content-subtype>
         <xmp:rhcc-derivative-id>DER5497dd5d-377d-4ce0-9e85-dc00b307c971</xmp:rhcc-derivative-id>
         <xmp:brand-logo-color>Black</xmp:brand-logo-color>
         <xmp:rhcc-notify-portal-subscribers-on-change>yes</xmp:rhcc-notify-portal-subscribers-on-change>
         <dc:format>image/svg+xml</dc:format>
         <dc:modified>2024-02-09T20:31:36.965Z</dc:modified>
         <dc:title>
            <rdf:Alt>
               <rdf:li xml:lang="x-default">Luggage icon - Black</rdf:li>
            </rdf:Alt>
         </dc:title>
         <dc:description>
            <rdf:Alt>
               <rdf:li xml:lang="x-default">suitcase, travel, transit, luggage, cargo</rdf:li>
            </rdf:Alt>
         </dc:description>
         <cq:lastReplicationAction_scene7>Activate</cq:lastReplicationAction_scene7>
         <cq:lastReplicationAction_publish>Activate</cq:lastReplicationAction_publish>
         <cq:lastReplicated_publish>2024-02-09T22:18:45.349Z</cq:lastReplicated_publish>
         <cq:lastReplicatedBy>workflow-process-service</cq:lastReplicatedBy>
         <cq:lastReplicationAction>Activate</cq:lastReplicationAction>
         <cq:lastReplicatedBy_publish>workflow-process-service</cq:lastReplicatedBy_publish>
         <cq:isDelivered>true</cq:isDelivered>
         <cq:lastReplicated>2024-02-09T22:18:45.349Z</cq:lastReplicated>
         <cq:lastReplicatedBy_scene7>workflow-process-service</cq:lastReplicatedBy_scene7>
         <cq:lastReplicated_scene7>2024-02-09T22:18:45.349Z</cq:lastReplicated_scene7>
         <tiff:ImageLength>36</tiff:ImageLength>
         <tiff:ImageWidth>36</tiff:ImageWidth>
      </rdf:Description>
   </rdf:RDF>
</x:xmpmeta>
                                                                                                    
                                                                                                    
                                                                                                    
                                                                                                    
                                                                                                    
                                                                                                    
                                                                                                    
                                                                                                    
                                                                                                    
                                                                                                    
                                 
<?xpacket end="w"?></metadata>
<path d="M24,10.38H21.62V5A.62.62,0,0,0,21,4.38H15a.62.62,0,0,0-.62.62v5.38H12A1.61,1.61,0,0,0,10.38,12V28A1.61,1.61,0,0,0,12,29.62H24A1.61,1.61,0,0,0,25.62,28V12A1.61,1.61,0,0,0,24,10.38ZM15.62,5.62h4.76v4.76H15.62ZM24.38,28a.38.38,0,0,1-.38.38H12a.38.38,0,0,1-.38-.38V12a.38.38,0,0,1,.38-.38H24a.38.38,0,0,1,.38.38Z"/><path d="M15,13.38a.62.62,0,0,0-.62.62V26a.62.62,0,0,0,1.24,0V14A.62.62,0,0,0,15,13.38Z"/><path d="M18,13.38a.62.62,0,0,0-.62.62V26a.62.62,0,0,0,1.24,0V14A.62.62,0,0,0,18,13.38Z"/><path d="M21,13.38a.62.62,0,0,0-.62.62V26a.62.62,0,0,0,1.24,0V14A.62.62,0,0,0,21,13.38Z"/><path d="M22.44,30.56a.63.63,0,0,0-.68-.14.7.7,0,0,0-.34.34.6.6,0,0,0,0,.48.56.56,0,0,0,.14.2.66.66,0,0,0,.2.14.6.6,0,0,0,.48,0,.66.66,0,0,0,.2-.14.56.56,0,0,0,.14-.2.74.74,0,0,0,0-.48A.56.56,0,0,0,22.44,30.56Z"/><path d="M14.44,30.56a.56.56,0,0,0-.2-.14.66.66,0,0,0-.48,0,.7.7,0,0,0-.34.34.74.74,0,0,0,0,.48.56.56,0,0,0,.14.2.66.66,0,0,0,.2.14.6.6,0,0,0,.48,0,.66.66,0,0,0,.2-.14.56.56,0,0,0,.14-.2.74.74,0,0,0,0-.48A.66.66,0,0,0,14.44,30.56Z"/></svg>