<svg id="a438fb60-0344-4295-a266-38fff8202251" data-name="Icon" xmlns="http://www.w3.org/2000/svg" viewBox="0 0 36 36">
  <title>Mainframe icon - Black</title>
<desc>IBM Z, server, room, rack, cloud, host, CPU, terminal, network, database, hardware, legacy</desc>
<metadata><?xpacket begin="﻿" id="W5M0MpCehiHzreSzNTczkc9d"?>
<x:xmpmeta xmlns:x="adobe:ns:meta/" x:xmptk="Adobe XMP Core 8.0-c001 1.000000, 0000/00/00-00:00:00        ">
   <rdf:RDF xmlns:rdf="http://www.w3.org/1999/02/22-rdf-syntax-ns#">
      <rdf:Description rdf:about=""
            xmlns:xmp="http://ns.adobe.com/xap/1.0/"
            xmlns:dc="http://purl.org/dc/elements/1.1/"
            xmlns:cq="http://www.day.com/jcr/cq/1.0"
            xmlns:tiff="http://ns.adobe.com/tiff/1.0/">
         <xmp:rhcc-effective-on>2023-12-08T17:34:19.596Z</xmp:rhcc-effective-on>
         <xmp:rhcc-metadata-complete-moderator>pending</xmp:rhcc-metadata-complete-moderator>
         <xmp:rhcc-translation-id>TRAb8ef5e90-bcb2-4dba-bb0a-72247237d005</xmp:rhcc-translation-id>
         <xmp:brand-content-type>Icon</xmp:brand-content-type>
         <xmp:CreateDate>2023-12-08T17:34:19.596Z</xmp:CreateDate>
         <xmp:rhcc-effective-on-set-on-upload>true</xmp:rhcc-effective-on-set-on-upload>
         <xmp:rhcc-metadata-complete-uploader>pending</xmp:rhcc-metadata-complete-uploader>
         <xmp:rhcc-file-last-modified>2023-12-08T17:34:32.042Z</xmp:rhcc-file-last-modified>
         <xmp:rhcc-audience>rhcc-audience:internal</xmp:rhcc-audience>
         <xmp:rhcc-rights-restricted>no</xmp:rhcc-rights-restricted>
         <xmp:brand-content-subtype>Icon</xmp:brand-content-subtype>
         <xmp:rhcc-derivative-id>DERb8ef5e90-bcb2-4dba-bb0a-72247237d005</xmp:rhcc-derivative-id>
         <xmp:brand-logo-color>Black</xmp:brand-logo-color>
         <xmp:rhcc-notify-portal-subscribers-on-change>yes</xmp:rhcc-notify-portal-subscribers-on-change>
         <dc:format>image/svg+xml</dc:format>
         <dc:modified>2024-02-09T20:12:16.571Z</dc:modified>
         <dc:title>
            <rdf:Alt>
               <rdf:li xml:lang="x-default">Mainframe icon - Black</rdf:li>
            </rdf:Alt>
         </dc:title>
         <dc:description>
            <rdf:Alt>
               <rdf:li xml:lang="x-default">IBM Z, server, room, rack, cloud, host, CPU, terminal, network, database, hardware, legacy</rdf:li>
            </rdf:Alt>
         </dc:description>
         <cq:lastReplicationAction_scene7>Activate</cq:lastReplicationAction_scene7>
         <cq:lastReplicationAction_publish>Activate</cq:lastReplicationAction_publish>
         <cq:lastReplicated_publish>2024-02-09T21:47:45.404Z</cq:lastReplicated_publish>
         <cq:lastReplicatedBy>workflow-process-service</cq:lastReplicatedBy>
         <cq:lastReplicationAction>Activate</cq:lastReplicationAction>
         <cq:lastReplicatedBy_publish>workflow-process-service</cq:lastReplicatedBy_publish>
         <cq:isDelivered>true</cq:isDelivered>
         <cq:lastReplicated>2024-02-09T21:47:45.404Z</cq:lastReplicated>
         <cq:lastReplicatedBy_scene7>workflow-process-service</cq:lastReplicatedBy_scene7>
         <cq:lastReplicated_scene7>2024-02-09T21:47:45.404Z</cq:lastReplicated_scene7>
         <tiff:ImageLength>36</tiff:ImageLength>
         <tiff:ImageWidth>36</tiff:ImageWidth>
      </rdf:Description>
   </rdf:RDF>
</x:xmpmeta>
                                                                                                    
                                                                                                    
                                                                                                    
                                                                                                    
                                                                                                    
                                                                                                    
                                                                                                    
                                                                                                    
                                                                                                    
                                                                                                    
                                 
<?xpacket end="w"?></metadata>
<path d="M25,22.62a.62.62,0,1,0-.62-.62A.61.61,0,0,0,25,22.62Z"/>
  <path d="M11,22.62a.62.62,0,1,0-.62-.62A.61.61,0,0,0,11,22.62Z"/>
  <g>
    <path d="M31,30.38H5a.62.62,0,1,0,0,1.24H31a.62.62,0,0,0,0-1.24Z"/>
    <path d="M6,27.62H16a.62.62,0,0,0,.62-.62V5A.62.62,0,0,0,16,4.38H6A.62.62,0,0,0,5.38,5V27A.62.62,0,0,0,6,27.62Zm.62-22h8.76V26.38H6.62Z"/>
    <path d="M20,27.62H30a.62.62,0,0,0,.62-.62V5A.62.62,0,0,0,30,4.38H20a.62.62,0,0,0-.62.62V27A.62.62,0,0,0,20,27.62Zm.62-22h8.76V26.38H20.62Z"/>
    <path d="M13,11.38H9a.62.62,0,0,0,0,1.24h4a.62.62,0,0,0,0-1.24Z"/>
    <path d="M13,8.38H9A.62.62,0,0,0,9,9.62h4a.62.62,0,0,0,0-1.24Z"/>
    <path d="M27,11.38H23a.62.62,0,0,0,0,1.24h4a.62.62,0,1,0,0-1.24Z"/>
    <path d="M27,8.38H23a.62.62,0,1,0,0,1.24h4a.62.62,0,1,0,0-1.24Z"/>
  </g>
</svg>
