<svg id="bb70e8f0-b55f-4427-83c4-a525a117fafb" data-name="Icon" xmlns="http://www.w3.org/2000/svg" viewBox="0 0 36 36">
  <title>Maze icon - Black</title>
<desc>lost, search, confusing, map, plan, navigate, game, escape, problem, challenge, objects</desc>
<metadata><?xpacket begin="﻿" id="W5M0MpCehiHzreSzNTczkc9d"?>
<x:xmpmeta xmlns:x="adobe:ns:meta/" x:xmptk="Adobe XMP Core 8.0-c001 1.000000, 0000/00/00-00:00:00        ">
   <rdf:RDF xmlns:rdf="http://www.w3.org/1999/02/22-rdf-syntax-ns#">
      <rdf:Description rdf:about=""
            xmlns:xmp="http://ns.adobe.com/xap/1.0/"
            xmlns:dc="http://purl.org/dc/elements/1.1/"
            xmlns:cq="http://www.day.com/jcr/cq/1.0"
            xmlns:tiff="http://ns.adobe.com/tiff/1.0/">
         <xmp:rhcc-effective-on>2023-12-08T17:36:01.564Z</xmp:rhcc-effective-on>
         <xmp:rhcc-metadata-complete-moderator>pending</xmp:rhcc-metadata-complete-moderator>
         <xmp:rhcc-translation-id>TRA97d24c14-a4e9-4043-ae5e-7cdfa432a0ef</xmp:rhcc-translation-id>
         <xmp:brand-content-type>Icon</xmp:brand-content-type>
         <xmp:CreateDate>2023-12-08T17:36:01.564Z</xmp:CreateDate>
         <xmp:rhcc-effective-on-set-on-upload>true</xmp:rhcc-effective-on-set-on-upload>
         <xmp:rhcc-metadata-complete-uploader>pending</xmp:rhcc-metadata-complete-uploader>
         <xmp:rhcc-file-last-modified>2023-12-08T17:36:28.299Z</xmp:rhcc-file-last-modified>
         <xmp:rhcc-audience>rhcc-audience:internal</xmp:rhcc-audience>
         <xmp:rhcc-rights-restricted>no</xmp:rhcc-rights-restricted>
         <xmp:brand-content-subtype>Icon</xmp:brand-content-subtype>
         <xmp:rhcc-derivative-id>DER97d24c14-a4e9-4043-ae5e-7cdfa432a0ef</xmp:rhcc-derivative-id>
         <xmp:brand-logo-color>Black</xmp:brand-logo-color>
         <xmp:rhcc-notify-portal-subscribers-on-change>yes</xmp:rhcc-notify-portal-subscribers-on-change>
         <dc:format>image/svg+xml</dc:format>
         <dc:modified>2024-02-09T20:31:28.735Z</dc:modified>
         <dc:title>
            <rdf:Alt>
               <rdf:li xml:lang="x-default">Maze icon - Black</rdf:li>
            </rdf:Alt>
         </dc:title>
         <dc:description>
            <rdf:Alt>
               <rdf:li xml:lang="x-default">lost, search, confusing, map, plan, navigate, game, escape, problem, challenge, objects</rdf:li>
            </rdf:Alt>
         </dc:description>
         <cq:lastReplicationAction_scene7>Activate</cq:lastReplicationAction_scene7>
         <cq:lastReplicationAction_publish>Activate</cq:lastReplicationAction_publish>
         <cq:lastReplicated_publish>2024-02-09T22:18:31.851Z</cq:lastReplicated_publish>
         <cq:lastReplicatedBy>workflow-process-service</cq:lastReplicatedBy>
         <cq:lastReplicationAction>Activate</cq:lastReplicationAction>
         <cq:lastReplicatedBy_publish>workflow-process-service</cq:lastReplicatedBy_publish>
         <cq:isDelivered>true</cq:isDelivered>
         <cq:lastReplicated>2024-02-09T22:18:31.851Z</cq:lastReplicated>
         <cq:lastReplicatedBy_scene7>workflow-process-service</cq:lastReplicatedBy_scene7>
         <cq:lastReplicated_scene7>2024-02-09T22:18:31.851Z</cq:lastReplicated_scene7>
         <tiff:ImageLength>36</tiff:ImageLength>
         <tiff:ImageWidth>36</tiff:ImageWidth>
      </rdf:Description>
   </rdf:RDF>
</x:xmpmeta>
                                                                                                    
                                                                                                    
                                                                                                    
                                                                                                    
                                                                                                    
                                                                                                    
                                                                                                    
                                                                                                    
                                                                                                    
                                                                                                    
                                 
<?xpacket end="w"?></metadata>
<path d="M18,3.38a14.63,14.63,0,0,0-7.88,2.29.63.63,0,0,0,.68,1.06,13.23,13.23,0,0,1,6.58-2.08V8.79c-7.85.46-11.51,10.33-5.89,15.76A9.3,9.3,0,0,0,22.62,26a.62.62,0,0,0,.23-.85.63.63,0,0,0-.86-.23,8,8,0,0,1-9.17-.85l2.94-2.95a3.85,3.85,0,1,0,2.24-7,.63.63,0,0,0,0,1.25A2.61,2.61,0,1,1,15.39,18a.62.62,0,0,0-.62-.62c-1.28.17-.33,2.26.11,2.86l-3,2.94C7.5,18.19,11.27,9.91,18,10a.62.62,0,0,0,.62-.63V4.66A13.37,13.37,0,0,1,31.34,17.38H27.2A9.25,9.25,0,0,0,22.62,10a.61.61,0,0,0-.85.22.63.63,0,0,0,.22.86A8,8,0,0,1,26,18a7.92,7.92,0,0,1-1.07,4,.63.63,0,0,0,.23.86c1.31.63,2-3.32,2.05-4.23h4.14C29.91,35.9,5.27,35.35,4.62,18a13.29,13.29,0,0,1,1-5.14.62.62,0,0,0-1.15-.48C.41,21.71,7.78,32.83,18,32.62,37.4,31.82,37.4,4.18,18,3.38Z"/>
</svg>
