<?xml version="1.0" encoding="UTF-8"?><svg id="uuid-b667d7e4-722e-4db4-8f3a-a915aace5db9" xmlns="http://www.w3.org/2000/svg" viewBox="0 0 36 36"><title>Merge icon - Black</title>
<desc>combine, pathfinder, mix, merging, combination, diagrams and graphs</desc>
<metadata><?xpacket begin="﻿" id="W5M0MpCehiHzreSzNTczkc9d"?>
<x:xmpmeta xmlns:x="adobe:ns:meta/" x:xmptk="Adobe XMP Core 8.0-c001 1.000000, 0000/00/00-00:00:00        ">
   <rdf:RDF xmlns:rdf="http://www.w3.org/1999/02/22-rdf-syntax-ns#">
      <rdf:Description rdf:about=""
            xmlns:xmp="http://ns.adobe.com/xap/1.0/"
            xmlns:dc="http://purl.org/dc/elements/1.1/"
            xmlns:cq="http://www.day.com/jcr/cq/1.0"
            xmlns:tiff="http://ns.adobe.com/tiff/1.0/">
         <xmp:rhcc-effective-on>2023-12-08T17:35:05.225Z</xmp:rhcc-effective-on>
         <xmp:rhcc-metadata-complete-moderator>pending</xmp:rhcc-metadata-complete-moderator>
         <xmp:rhcc-translation-id>TRA8b635e57-3a8b-4aea-bfdd-2385f0b8b49f</xmp:rhcc-translation-id>
         <xmp:brand-content-type>Icon</xmp:brand-content-type>
         <xmp:CreateDate>2023-12-08T17:35:05.225Z</xmp:CreateDate>
         <xmp:rhcc-effective-on-set-on-upload>true</xmp:rhcc-effective-on-set-on-upload>
         <xmp:rhcc-metadata-complete-uploader>pending</xmp:rhcc-metadata-complete-uploader>
         <xmp:rhcc-file-last-modified>2023-12-08T17:35:20.310Z</xmp:rhcc-file-last-modified>
         <xmp:rhcc-audience>rhcc-audience:internal</xmp:rhcc-audience>
         <xmp:rhcc-rights-restricted>no</xmp:rhcc-rights-restricted>
         <xmp:brand-content-subtype>Icon</xmp:brand-content-subtype>
         <xmp:rhcc-derivative-id>DER8b635e57-3a8b-4aea-bfdd-2385f0b8b49f</xmp:rhcc-derivative-id>
         <xmp:brand-logo-color>Black</xmp:brand-logo-color>
         <xmp:rhcc-notify-portal-subscribers-on-change>yes</xmp:rhcc-notify-portal-subscribers-on-change>
         <dc:format>image/svg+xml</dc:format>
         <dc:modified>2024-02-09T20:35:28.359Z</dc:modified>
         <dc:title>
            <rdf:Alt>
               <rdf:li xml:lang="x-default">Merge icon - Black</rdf:li>
            </rdf:Alt>
         </dc:title>
         <dc:description>
            <rdf:Alt>
               <rdf:li xml:lang="x-default">combine, pathfinder, mix, merging, combination, diagrams and graphs</rdf:li>
            </rdf:Alt>
         </dc:description>
         <cq:lastReplicationAction_scene7>Activate</cq:lastReplicationAction_scene7>
         <cq:lastReplicationAction_publish>Activate</cq:lastReplicationAction_publish>
         <cq:lastReplicated_publish>2024-02-09T22:23:04.696Z</cq:lastReplicated_publish>
         <cq:lastReplicatedBy>workflow-process-service</cq:lastReplicatedBy>
         <cq:lastReplicationAction>Activate</cq:lastReplicationAction>
         <cq:lastReplicatedBy_publish>workflow-process-service</cq:lastReplicatedBy_publish>
         <cq:isDelivered>true</cq:isDelivered>
         <cq:lastReplicated>2024-02-09T22:23:04.696Z</cq:lastReplicated>
         <cq:lastReplicatedBy_scene7>workflow-process-service</cq:lastReplicatedBy_scene7>
         <cq:lastReplicated_scene7>2024-02-09T22:23:04.696Z</cq:lastReplicated_scene7>
         <tiff:ImageLength>36</tiff:ImageLength>
         <tiff:ImageWidth>36</tiff:ImageWidth>
      </rdf:Description>
   </rdf:RDF>
</x:xmpmeta>
                                                                                                    
                                                                                                    
                                                                                                    
                                                                                                    
                                                                                                    
                                                                                                    
                                                                                                    
                                                                                                    
                                                                                                    
                                                                                                    
                                 
<?xpacket end="w"?></metadata>
<path d="M31,11.38h-6.38V5c0-.34-.28-.62-.62-.62H5c-.35,0-.62,.28-.62,.62V24c0,.34,.28,.62,.62,.62h6.38v6.38c0,.34,.28,.62,.62,.62H31c.35,0,.62-.28,.62-.62V12c0-.34-.28-.62-.62-.62ZM5.62,23.38V5.62H23.38V23.38H5.62Zm24.75,7H12.62v-5.75h11.38c.35,0,.62-.28,.62-.62V12.62h5.75V30.38Z"/><path d="M12,15.02c.83,0,.82-1.24,0-1.25-.81,.01-.81,1.24,0,1.25Z"/><path d="M12,17.43c.82,0,.83-1.25,0-1.25-.82,0-.81,1.25,0,1.25Z"/><path d="M12.63,21.6c0-.81-1.25-.82-1.25,0,0,.83,1.24,.82,1.25,0Z"/><path d="M12,19.82c.83,0,.82-1.25,0-1.25-.81,0-.82,1.25,0,1.25Z"/><path d="M12,12.63c.08,0,.16-.02,.24-.05,.07-.03,.14-.08,.2-.14,.25-.22,.25-.66,0-.88-.06-.06-.13-.1-.2-.14-.23-.09-.51-.04-.68,.14-.24,.22-.24,.66,0,.88,.12,.12,.28,.19,.44,.19Z"/><path d="M19.2,12.63c.82,0,.83-1.25,0-1.25-.83,0-.82,1.24,0,1.25Z"/><path d="M21.6,12.63c.82,0,.83-1.25,0-1.25-.81,0-.8,1.25,0,1.25Z"/><path d="M14.4,12.63c.82,0,.83-1.25,0-1.25-.83,0-.82,1.24,0,1.25Z"/><path d="M16.8,12.63c.82,0,.83-1.25,0-1.25-.83,0-.82,1.24,0,1.25Z"/></svg>