<svg id="eaa54418-f537-4ff4-aa4a-a844ee89e65f" data-name="Icon" xmlns="http://www.w3.org/2000/svg" viewBox="0 0 36 36">
  <title>Microservices icon - Black</title>
<desc>charts, graph, gear, service, manage, control, panel, monitor, screen, system, administrator, sysadmin, software and technologies</desc>
<metadata><?xpacket begin="﻿" id="W5M0MpCehiHzreSzNTczkc9d"?>
<x:xmpmeta xmlns:x="adobe:ns:meta/" x:xmptk="Adobe XMP Core 8.0-c001 1.000000, 0000/00/00-00:00:00        ">
   <rdf:RDF xmlns:rdf="http://www.w3.org/1999/02/22-rdf-syntax-ns#">
      <rdf:Description rdf:about=""
            xmlns:xmp="http://ns.adobe.com/xap/1.0/"
            xmlns:dc="http://purl.org/dc/elements/1.1/"
            xmlns:cq="http://www.day.com/jcr/cq/1.0"
            xmlns:tiff="http://ns.adobe.com/tiff/1.0/">
         <xmp:rhcc-effective-on>2023-12-08T17:43:46.481Z</xmp:rhcc-effective-on>
         <xmp:rhcc-metadata-complete-moderator>pending</xmp:rhcc-metadata-complete-moderator>
         <xmp:rhcc-translation-id>TRA908a1fd5-3e26-44b7-8a85-982c1e37ca11</xmp:rhcc-translation-id>
         <xmp:brand-content-type>Icon</xmp:brand-content-type>
         <xmp:CreateDate>2023-12-08T17:43:46.481Z</xmp:CreateDate>
         <xmp:rhcc-effective-on-set-on-upload>true</xmp:rhcc-effective-on-set-on-upload>
         <xmp:rhcc-metadata-complete-uploader>pending</xmp:rhcc-metadata-complete-uploader>
         <xmp:rhcc-file-last-modified>2023-12-08T17:44:10.898Z</xmp:rhcc-file-last-modified>
         <xmp:rhcc-audience>rhcc-audience:internal</xmp:rhcc-audience>
         <xmp:rhcc-rights-restricted>no</xmp:rhcc-rights-restricted>
         <xmp:brand-content-subtype>Icon</xmp:brand-content-subtype>
         <xmp:rhcc-derivative-id>DER908a1fd5-3e26-44b7-8a85-982c1e37ca11</xmp:rhcc-derivative-id>
         <xmp:brand-logo-color>Black</xmp:brand-logo-color>
         <xmp:rhcc-notify-portal-subscribers-on-change>yes</xmp:rhcc-notify-portal-subscribers-on-change>
         <dc:format>image/svg+xml</dc:format>
         <dc:modified>2024-02-09T20:17:32.361Z</dc:modified>
         <dc:title>
            <rdf:Alt>
               <rdf:li xml:lang="x-default">Microservices icon - Black</rdf:li>
            </rdf:Alt>
         </dc:title>
         <dc:description>
            <rdf:Alt>
               <rdf:li xml:lang="x-default">charts, graph, gear, service, manage, control, panel, monitor, screen, system, administrator, sysadmin, software and technologies</rdf:li>
            </rdf:Alt>
         </dc:description>
         <cq:lastReplicationAction_scene7>Activate</cq:lastReplicationAction_scene7>
         <cq:lastReplicationAction_publish>Activate</cq:lastReplicationAction_publish>
         <cq:lastReplicated_publish>2024-02-09T21:54:52.441Z</cq:lastReplicated_publish>
         <cq:lastReplicatedBy>workflow-process-service</cq:lastReplicatedBy>
         <cq:lastReplicationAction>Activate</cq:lastReplicationAction>
         <cq:lastReplicatedBy_publish>workflow-process-service</cq:lastReplicatedBy_publish>
         <cq:isDelivered>true</cq:isDelivered>
         <cq:lastReplicated>2024-02-09T21:54:52.441Z</cq:lastReplicated>
         <cq:lastReplicatedBy_scene7>workflow-process-service</cq:lastReplicatedBy_scene7>
         <cq:lastReplicated_scene7>2024-02-09T21:54:52.441Z</cq:lastReplicated_scene7>
         <tiff:ImageLength>36</tiff:ImageLength>
         <tiff:ImageWidth>36</tiff:ImageWidth>
      </rdf:Description>
   </rdf:RDF>
</x:xmpmeta>
                                                                                                    
                                                                                                    
                                                                                                    
                                                                                                    
                                                                                                    
                                                                                                    
                                                                                                    
                                                                                                    
                                                                                                    
                                                                                                    
                                 
<?xpacket end="w"?></metadata>
<g>
    <path d="M31,9.52H15.29a.63.63,0,0,0-.63.62v2.95H10.77V11.14a.63.63,0,0,0-.63-.62H5a.62.62,0,0,0-.62.62v5.15a.62.62,0,0,0,.62.62h5.14a.63.63,0,0,0,.63-.62V14.34h3.89v7H10.77V19.43a.63.63,0,0,0-.63-.63H5a.63.63,0,0,0-.62.63v5.14A.63.63,0,0,0,5,25.2h5.14a.63.63,0,0,0,.63-.63V22.62h3.89v3.24a.63.63,0,0,0,.63.62H31a.62.62,0,0,0,.62-.62V10.14A.62.62,0,0,0,31,9.52ZM9.52,15.66H5.62V11.77h3.9Zm0,8.29H5.62v-3.9h3.9Zm20.86,1.28H15.91V10.77H30.38Z"/>
    <path d="M27.81,12.94a.48.48,0,0,0,.2.14.74.74,0,0,0,.48,0,.7.7,0,0,0,.34-.34.69.69,0,0,0,.05-.24.6.6,0,0,0-.19-.44.72.72,0,0,0-.2-.14.66.66,0,0,0-.48,0,.48.48,0,0,0-.2.14.66.66,0,0,0-.14.2.6.6,0,0,0,0,.48A.66.66,0,0,0,27.81,12.94Z"/>
    <path d="M26,12.94a.6.6,0,0,0,.21.14.6.6,0,0,0,.24.05.69.69,0,0,0,.24-.05.66.66,0,0,0,.2-.14A.62.62,0,0,0,27,12.5a.52.52,0,0,0-.05-.24.63.63,0,0,0-.13-.2.64.64,0,0,0-.68-.14.6.6,0,0,0-.21.14.63.63,0,0,0-.18.44.66.66,0,0,0,.18.44Z"/>
  </g>
</svg>
