<svg id="f146640f-8e5c-45bb-9aa4-af3899cdc9db" data-name="Icon" xmlns="http://www.w3.org/2000/svg" viewBox="0 0 36 36">
  <title>Minimum viable product icon - Black</title>
<desc>project, success, launch, run, ship, finish, complete, software and technologies</desc>
<metadata><?xpacket begin="﻿" id="W5M0MpCehiHzreSzNTczkc9d"?>
<x:xmpmeta xmlns:x="adobe:ns:meta/" x:xmptk="Adobe XMP Core 8.0-c001 1.000000, 0000/00/00-00:00:00        ">
   <rdf:RDF xmlns:rdf="http://www.w3.org/1999/02/22-rdf-syntax-ns#">
      <rdf:Description rdf:about=""
            xmlns:xmp="http://ns.adobe.com/xap/1.0/"
            xmlns:dc="http://purl.org/dc/elements/1.1/"
            xmlns:cq="http://www.day.com/jcr/cq/1.0"
            xmlns:tiff="http://ns.adobe.com/tiff/1.0/">
         <xmp:rhcc-effective-on>2023-12-08T17:43:50.506Z</xmp:rhcc-effective-on>
         <xmp:rhcc-metadata-complete-moderator>pending</xmp:rhcc-metadata-complete-moderator>
         <xmp:rhcc-translation-id>TRA39e75e51-e7a2-4631-a7b4-6bbaf8836ba5</xmp:rhcc-translation-id>
         <xmp:brand-content-type>Icon</xmp:brand-content-type>
         <xmp:CreateDate>2023-12-08T17:43:50.506Z</xmp:CreateDate>
         <xmp:rhcc-effective-on-set-on-upload>true</xmp:rhcc-effective-on-set-on-upload>
         <xmp:rhcc-metadata-complete-uploader>pending</xmp:rhcc-metadata-complete-uploader>
         <xmp:rhcc-file-last-modified>2023-12-08T17:44:10.495Z</xmp:rhcc-file-last-modified>
         <xmp:rhcc-audience>rhcc-audience:internal</xmp:rhcc-audience>
         <xmp:rhcc-rights-restricted>no</xmp:rhcc-rights-restricted>
         <xmp:brand-content-subtype>Icon</xmp:brand-content-subtype>
         <xmp:rhcc-derivative-id>DER39e75e51-e7a2-4631-a7b4-6bbaf8836ba5</xmp:rhcc-derivative-id>
         <xmp:brand-logo-color>Black</xmp:brand-logo-color>
         <xmp:rhcc-notify-portal-subscribers-on-change>yes</xmp:rhcc-notify-portal-subscribers-on-change>
         <dc:format>image/svg+xml</dc:format>
         <dc:modified>2024-02-09T20:17:47.420Z</dc:modified>
         <dc:title>
            <rdf:Alt>
               <rdf:li xml:lang="x-default">Minimum viable product icon - Black</rdf:li>
            </rdf:Alt>
         </dc:title>
         <dc:description>
            <rdf:Alt>
               <rdf:li xml:lang="x-default">project, success, launch, run, ship, finish, complete, software and technologies</rdf:li>
            </rdf:Alt>
         </dc:description>
         <cq:lastReplicationAction_scene7>Activate</cq:lastReplicationAction_scene7>
         <cq:lastReplicationAction_publish>Activate</cq:lastReplicationAction_publish>
         <cq:lastReplicated_publish>2024-02-09T21:55:02.225Z</cq:lastReplicated_publish>
         <cq:lastReplicatedBy>workflow-process-service</cq:lastReplicatedBy>
         <cq:lastReplicationAction>Activate</cq:lastReplicationAction>
         <cq:lastReplicatedBy_publish>workflow-process-service</cq:lastReplicatedBy_publish>
         <cq:isDelivered>true</cq:isDelivered>
         <cq:lastReplicated>2024-02-09T21:55:02.225Z</cq:lastReplicated>
         <cq:lastReplicatedBy_scene7>workflow-process-service</cq:lastReplicatedBy_scene7>
         <cq:lastReplicated_scene7>2024-02-09T21:55:02.225Z</cq:lastReplicated_scene7>
         <tiff:ImageLength>36</tiff:ImageLength>
         <tiff:ImageWidth>36</tiff:ImageWidth>
      </rdf:Description>
   </rdf:RDF>
</x:xmpmeta>
                                                                                                    
                                                                                                    
                                                                                                    
                                                                                                    
                                                                                                    
                                                                                                    
                                                                                                    
                                                                                                    
                                                                                                    
                                                                                                    
                                 
<?xpacket end="w"?></metadata>
<g>
    <path d="M19.71,30a.63.63,0,0,0,.89.88A.63.63,0,0,0,19.71,30Z"/>
    <path d="M27.26,29.76a.63.63,0,0,0,0,1.25A.63.63,0,0,0,27.26,29.76Z"/>
    <path d="M24.89,29.76a.63.63,0,0,0,0,1.25A.63.63,0,0,0,24.89,29.76Z"/>
    <path d="M22.52,29.76a.63.63,0,0,0,0,1.25A.63.63,0,0,0,22.52,29.76Z"/>
    <path d="M29.63,29.76a.63.63,0,0,0,0,1.25A.63.63,0,0,0,29.63,29.76Z"/>
    <path d="M32.44,30a.62.62,0,0,0-.88.88C32.11,31.43,33,30.5,32.44,30Z"/>
    <path d="M22.78,14.07a.63.63,0,0,0,.62,1.09A.63.63,0,0,0,22.78,14.07Z"/>
    <path d="M22.36,12.06a.63.63,0,0,0-1.09.62A.63.63,0,0,0,22.36,12.06Z"/>
    <path d="M20.24,9.57a.62.62,0,0,0,.61,1.09A.62.62,0,0,0,20.24,9.57Z"/>
    <path d="M19.82,7.56a.62.62,0,0,0-1.09.61A.62.62,0,0,0,19.82,7.56Z"/>
    <path d="M29.45,26.51a.62.62,0,1,0-.3-1.17A.63.63,0,0,0,29.45,26.51Z"/>
    <path d="M24.67,17.42a.62.62,0,0,0-.61-1.09A.62.62,0,0,0,24.67,17.42Z"/>
    <path d="M27.87,23.08a.63.63,0,0,0,.62,1.1A.63.63,0,0,0,27.87,23.08Z"/>
    <path d="M30.42,27.59A.62.62,0,0,0,31,28.68.62.62,0,0,0,30.42,27.59Z"/>
    <path d="M27.22,21.92a.63.63,0,0,0-.62-1.09A.63.63,0,0,0,27.22,21.92Z"/>
    <path d="M25.33,18.58a.62.62,0,0,0,.61,1.09A.62.62,0,0,0,25.33,18.58Z"/>
    <path d="M18.44,5.17c-.59-.56-1.46.31-.88.88A.62.62,0,0,0,18.44,5.17Z"/>
    <path d="M16.54,8.2a.62.62,0,0,0,.61-1.09A.62.62,0,0,0,16.54,8.2Z"/>
    <path d="M14.22,12.3a.63.63,0,0,0,.62-1.09A.63.63,0,0,0,14.22,12.3Z"/>
    <path d="M15.38,10.25A.63.63,0,0,0,16,9.16.63.63,0,0,0,15.38,10.25Z"/>
    <path d="M13.06,14.34a.62.62,0,0,0,.62-1.08A.62.62,0,0,0,13.06,14.34Z"/>
    <path d="M11.77,16.29a.63.63,0,0,0,.89-.89A.63.63,0,0,0,11.77,16.29Z"/>
    <path d="M11.54,17.69a.64.64,0,0,0-1.08,0l-7,12.39a.62.62,0,0,0,0,.62A.61.61,0,0,0,4,31H18a.62.62,0,0,0,.54-.93ZM5.07,29.76,11,19.27l5.93,10.49Z"/>
  </g>
</svg>
