<?xml version="1.0" encoding="UTF-8"?><svg id="uuid-ab6037a5-7d33-402f-af63-51ed4bb8e9ae" xmlns="http://www.w3.org/2000/svg" width="36" height="36" viewBox="0 0 36 36"><metadata><?xpacket begin="﻿" id="W5M0MpCehiHzreSzNTczkc9d"?>
<x:xmpmeta xmlns:x="adobe:ns:meta/" x:xmptk="Adobe XMP Core 8.0-c001 1.000000, 0000/00/00-00:00:00        ">
   <rdf:RDF xmlns:rdf="http://www.w3.org/1999/02/22-rdf-syntax-ns#">
      <rdf:Description rdf:about=""
            xmlns:xmp="http://ns.adobe.com/xap/1.0/"
            xmlns:dc="http://purl.org/dc/elements/1.1/"
            xmlns:cq="http://www.day.com/jcr/cq/1.0"
            xmlns:tiff="http://ns.adobe.com/tiff/1.0/">
         <xmp:rhcc-effective-on>2023-12-08T17:44:59.980Z</xmp:rhcc-effective-on>
         <xmp:rhcc-metadata-complete-moderator>pending</xmp:rhcc-metadata-complete-moderator>
         <xmp:rhcc-translation-id>TRA757d50c0-c9fa-4a33-a445-a759a053d022</xmp:rhcc-translation-id>
         <xmp:CreateDate>2023-12-08T17:44:59.980Z</xmp:CreateDate>
         <xmp:rhcc-effective-on-set-on-upload>true</xmp:rhcc-effective-on-set-on-upload>
         <xmp:rhcc-metadata-complete-uploader>pending</xmp:rhcc-metadata-complete-uploader>
         <xmp:rhcc-file-last-modified>2023-12-08T17:45:17.595Z</xmp:rhcc-file-last-modified>
         <xmp:rhcc-audience>rhcc-audience:internal</xmp:rhcc-audience>
         <xmp:rhcc-rights-restricted>no</xmp:rhcc-rights-restricted>
         <xmp:rhcc-derivative-id>DER757d50c0-c9fa-4a33-a445-a759a053d022</xmp:rhcc-derivative-id>
         <xmp:rhcc-notify-portal-subscribers-on-change>yes</xmp:rhcc-notify-portal-subscribers-on-change>
         <dc:format>image/svg+xml</dc:format>
         <dc:modified>2024-02-09T20:37:12.309Z</dc:modified>
         <cq:lastReplicationAction_scene7>Activate</cq:lastReplicationAction_scene7>
         <cq:lastReplicationAction_publish>Activate</cq:lastReplicationAction_publish>
         <cq:lastReplicated_publish>2024-02-09T22:24:44.611Z</cq:lastReplicated_publish>
         <cq:lastReplicatedBy>workflow-process-service</cq:lastReplicatedBy>
         <cq:lastReplicationAction>Activate</cq:lastReplicationAction>
         <cq:lastReplicatedBy_publish>workflow-process-service</cq:lastReplicatedBy_publish>
         <cq:isDelivered>true</cq:isDelivered>
         <cq:lastReplicated>2024-02-09T22:24:44.611Z</cq:lastReplicated>
         <cq:lastReplicatedBy_scene7>workflow-process-service</cq:lastReplicatedBy_scene7>
         <cq:lastReplicated_scene7>2024-02-09T22:24:44.611Z</cq:lastReplicated_scene7>
         <tiff:ImageLength>36</tiff:ImageLength>
         <tiff:ImageWidth>36</tiff:ImageWidth>
      </rdf:Description>
   </rdf:RDF>
</x:xmpmeta>
                                                                                                    
                                                                                                    
                                                                                                    
                                                                                                    
                                                                                                    
                                                                                                    
                                                                                                    
                                                                                                    
                                                                                                    
                                                                                                    
                                 
<?xpacket end="w"?></metadata>
<path d="m18,4.375H4c-.34521,0-.625.27979-.625.625v26c0,.34473.27979.625.625.625h14c.34521,0,.625-.28027.625-.625V5c0-.34521-.27979-.625-.625-.625Zm-.625,26H4.625V5.625h12.75v24.75Z" stroke-width="0"/><path d="m11,8.62988c.15967,0,.31982-.07031.43994-.19043s.18994-.2793.18994-.43945-.06982-.32031-.18994-.44043c-.22998-.22949-.6499-.22949-.87988,0-.12012.12012-.18018.28027-.18018.44043s.06006.31934.18018.43945c.11963.12012.27979.19043.43994.19043Z" stroke-width="0"/><path d="m13,27.375h-4c-.34521,0-.625.28027-.625.625s.27979.625.625.625h4c.34521,0,.625-.28027.625-.625s-.27979-.625-.625-.625Z" stroke-width="0"/><path d="m27.92725,9.07227c-.24414-.24414-.63965-.24414-.88379,0s-.24414.64062,0,.88477c4.43457,4.43457,4.43457,11.65137,0,16.08594-.24414.24414-.24414.64062,0,.88477.12207.12207.28174.18262.44189.18262s.31982-.06152.44189-.18262c4.92188-4.92285,4.92188-12.93262,0-17.85547Z" stroke-width="0"/><path d="m25.09863,11.90039c-.24414-.24414-.63965-.24414-.88379,0s-.24414.64062,0,.88477c2.875,2.875,2.875,7.55469,0,10.42969-.24414.24414-.24414.64062,0,.88477.12207.12207.28174.18262.44189.18262s.31982-.06152.44189-.18262c3.36279-3.36328,3.36279-8.83594,0-12.19922Z" stroke-width="0"/><path d="m21.38672,14.73047c-.24414.24316-.24414.63965,0,.88379.63721.63672.98828,1.48438.98828,2.38574s-.35107,1.74902-.98828,2.38574c-.24414.24414-.24414.64062,0,.88379.12207.12207.28174.18359.44189.18359s.31982-.06055.44189-.18262c.87354-.87402,1.35449-2.03516,1.35449-3.27051s-.48096-2.39648-1.35449-3.27051c-.24414-.24414-.63965-.24316-.88379.00098Z" stroke-width="0"/><path d="m8.82324,20.96777c.34717.23047.72656.40723,1.16309.53418.12781.02942.25836.0473.38867.06616v.43188c0,.34473.27979.625.625.625s.625-.28027.625-.625v-.4071c.20215-.02277.40594-.05682.61377-.10657.98145-.27539,1.37061-.88477,1.52393-1.34668.06543-.19727.09863-.4043.09863-.61328,0-.47266-.17188-.92871-.48389-1.28516-.47314-.54004-1.13867-.66309-1.67383-.76172l-1.22803-.25488c-.33154-.07031-.55957-.12793-.70215-.2793-.12109-.12988-.19043-.30469-.19043-.47949,0-.0752.01172-.14941.03516-.21875.05469-.16504.18408-.40039.64648-.53027.53857-.12305,1.11572-.12109,1.65723.00684h.00293c.27881.08203.54395.20508.78857.36914.28613.18945.67529.11328.8667-.17383s.11377-.6748-.17334-.86719c-.36133-.24023-.75391-.42188-1.16797-.53809-.01709-.00488-.03467-.00879-.05225-.0127-.18604-.04285-.37317-.07422-.56152-.09558v-.4054c0-.34473-.27979-.625-.625-.625s-.625.28027-.625.625v.43292c-.13892.02045-.27759.04016-.41895.07294-.98145.27539-1.37061.88477-1.52441,1.34668-.06543.19727-.09863.4043-.09863.61328,0,.49609.18701.96875.52783,1.33398.42285.4502.9624.56445,1.35742.64746l1.2583.26172c.39795.07324.77393.14258.96045.35645.11084.12598.17432.29395.17432.46094,0,.07422-.01221.15039-.03516.21973-.05469.16406-.18408.39941-.65039.53027-.54053.12891-1.15625.12012-1.62451.0166-.2793-.08203-.54395-.20508-.78467-.36523-.11816-.0791-.22998-.16504-.33496-.25977-.25537-.23047-.65186-.21191-.88232.04688-.23096.25684-.21045.65137.04639.88281.14893.13379.30762.25684.47754.37012Z" stroke-width="0"/></svg>