<?xml version="1.0" encoding="UTF-8"?><svg id="uuid-9dc16077-b418-484a-9c7e-a23c797830d5" xmlns="http://www.w3.org/2000/svg" width="36" height="36" viewBox="0 0 36 36"><metadata><?xpacket begin="﻿" id="W5M0MpCehiHzreSzNTczkc9d"?>
<x:xmpmeta xmlns:x="adobe:ns:meta/" x:xmptk="Adobe XMP Core 8.0-c001 1.000000, 0000/00/00-00:00:00        ">
   <rdf:RDF xmlns:rdf="http://www.w3.org/1999/02/22-rdf-syntax-ns#">
      <rdf:Description rdf:about=""
            xmlns:xmp="http://ns.adobe.com/xap/1.0/"
            xmlns:dc="http://purl.org/dc/elements/1.1/"
            xmlns:cq="http://www.day.com/jcr/cq/1.0"
            xmlns:tiff="http://ns.adobe.com/tiff/1.0/">
         <xmp:rhcc-effective-on>2023-12-08T17:45:02.637Z</xmp:rhcc-effective-on>
         <xmp:rhcc-metadata-complete-moderator>pending</xmp:rhcc-metadata-complete-moderator>
         <xmp:rhcc-translation-id>TRAd0e48238-5548-46af-9e7f-532362c2ad2c</xmp:rhcc-translation-id>
         <xmp:CreateDate>2023-12-08T17:45:02.637Z</xmp:CreateDate>
         <xmp:rhcc-effective-on-set-on-upload>true</xmp:rhcc-effective-on-set-on-upload>
         <xmp:rhcc-metadata-complete-uploader>pending</xmp:rhcc-metadata-complete-uploader>
         <xmp:rhcc-file-last-modified>2023-12-08T17:45:18.213Z</xmp:rhcc-file-last-modified>
         <xmp:rhcc-audience>rhcc-audience:internal</xmp:rhcc-audience>
         <xmp:rhcc-rights-restricted>no</xmp:rhcc-rights-restricted>
         <xmp:rhcc-derivative-id>DERd0e48238-5548-46af-9e7f-532362c2ad2c</xmp:rhcc-derivative-id>
         <xmp:rhcc-notify-portal-subscribers-on-change>yes</xmp:rhcc-notify-portal-subscribers-on-change>
         <dc:format>image/svg+xml</dc:format>
         <dc:modified>2024-02-09T20:37:04.624Z</dc:modified>
         <cq:lastReplicationAction_scene7>Activate</cq:lastReplicationAction_scene7>
         <cq:lastReplicationAction_publish>Activate</cq:lastReplicationAction_publish>
         <cq:lastReplicated_publish>2024-02-09T22:24:37.288Z</cq:lastReplicated_publish>
         <cq:lastReplicatedBy>workflow-process-service</cq:lastReplicatedBy>
         <cq:lastReplicationAction>Activate</cq:lastReplicationAction>
         <cq:lastReplicatedBy_publish>workflow-process-service</cq:lastReplicatedBy_publish>
         <cq:isDelivered>true</cq:isDelivered>
         <cq:lastReplicated>2024-02-09T22:24:37.288Z</cq:lastReplicated>
         <cq:lastReplicatedBy_scene7>workflow-process-service</cq:lastReplicatedBy_scene7>
         <cq:lastReplicated_scene7>2024-02-09T22:24:37.288Z</cq:lastReplicated_scene7>
         <tiff:ImageLength>36</tiff:ImageLength>
         <tiff:ImageWidth>36</tiff:ImageWidth>
      </rdf:Description>
   </rdf:RDF>
</x:xmpmeta>
                                                                                                    
                                                                                                    
                                                                                                    
                                                                                                    
                                                                                                    
                                                                                                    
                                                                                                    
                                                                                                    
                                                                                                    
                                                                                                    
                                 
<?xpacket end="w"?></metadata>
<path d="m18,4.375H4c-.34521,0-.625.28027-.625.625v26c0,.34473.27979.625.625.625h14c.34521,0,.625-.28027.625-.625V5c0-.34473-.27979-.625-.625-.625Zm-.625,26H4.625V5.625h12.75v24.75Z" stroke-width="0"/><path d="m11,8.62988c.07959,0,.15967-.02051.23975-.0498.07031-.03027.14014-.08008.2002-.14062.12012-.10938.18994-.26953.18994-.43945,0-.16016-.06982-.33008-.18994-.44043-.06006-.05957-.12988-.09961-.2002-.13965-.22998-.08984-.50977-.03027-.67969.13965-.12012.11035-.18018.27051-.18018.44043s.06006.33008.18018.43945c.11963.12012.27979.19043.43994.19043Z" stroke-width="0"/><path d="m13,27.375h-4c-.34521,0-.625.28027-.625.625s.27979.625.625.625h4c.34521,0,.625-.28027.625-.625s-.27979-.625-.625-.625Z" stroke-width="0"/><path d="m27.92725,9.07227c-.24414-.24414-.63965-.24414-.88379,0s-.24414.64062,0,.88477c4.43457,4.43457,4.43457,11.65137,0,16.08594-.24414.24414-.24414.64062,0,.88477.12207.12207.28174.18262.44189.18262s.31982-.06152.44189-.18262c4.92188-4.92285,4.92188-12.93262,0-17.85547Z" stroke-width="0"/><path d="m25.09863,11.90039c-.24414-.24414-.63965-.24414-.88379,0s-.24414.64062,0,.88477c2.875,2.875,2.875,7.55469,0,10.42969-.24414.24414-.24414.64062,0,.88477.12207.12207.28174.18262.44189.18262s.31982-.06152.44189-.18262c3.36279-3.36328,3.36279-8.83594,0-12.19922Z" stroke-width="0"/><path d="m21.38672,14.73047c-.24414.24316-.24414.63965,0,.88379.63721.63672.98828,1.48438.98828,2.38574s-.35107,1.74902-.98828,2.38574c-.24414.24414-.24414.64062,0,.88379.12207.12207.28174.18359.44189.18359s.31982-.06055.44189-.18262c.87354-.87402,1.35449-2.03516,1.35449-3.27051s-.48096-2.39648-1.35449-3.27051c-.24414-.24414-.63965-.24316-.88379.00098Z" stroke-width="0"/><path d="m6.875,19c0,.34473.27979.625.625.625h.68506c.66089,1.74768,2.3385,3,4.31494,3,.81396,0,1.61377-.21387,2.31348-.61914.29834-.17285.40039-.55566.22754-.85449-.17334-.29883-.55615-.39844-.85449-.22754-.50928.29492-1.09229.45117-1.68652.45117-1.26886,0-2.36316-.7121-2.93951-1.75h3.93951c.34521,0,.625-.28027.625-.625s-.27979-.625-.625-.625h-4.3371c-.01404-.12469-.0379-.24658-.0379-.375s.02386-.25031.0379-.375h4.3371c.34521,0,.625-.28027.625-.625s-.27979-.625-.625-.625h-3.93958c.57635-1.0379,1.67072-1.75,2.93958-1.75.59424,0,1.17725.15625,1.68652.45117.29688.16992.68115.07129.85449-.22754.17285-.29883.0708-.68164-.22754-.85449-.69971-.40527-1.49951-.61914-2.31348-.61914-1.97644,0-3.65405,1.25232-4.31494,3h-.68506c-.34521,0-.625.28027-.625.625s.27979.625.625.625h.4129c-.01031.12579-.0379.24658-.0379.375s.02759.24921.0379.375h-.4129c-.34521,0-.625.28027-.625.625Z" stroke-width="0"/></svg>