<?xml version="1.0" encoding="UTF-8"?><svg id="uuid-f8016a92-1a6f-435f-ab62-6790803e438e" xmlns="http://www.w3.org/2000/svg" width="36" height="36" viewBox="0 0 36 36"><metadata><?xpacket begin="﻿" id="W5M0MpCehiHzreSzNTczkc9d"?>
<x:xmpmeta xmlns:x="adobe:ns:meta/" x:xmptk="Adobe XMP Core 8.0-c001 1.000000, 0000/00/00-00:00:00        ">
   <rdf:RDF xmlns:rdf="http://www.w3.org/1999/02/22-rdf-syntax-ns#">
      <rdf:Description rdf:about=""
            xmlns:xmp="http://ns.adobe.com/xap/1.0/"
            xmlns:dc="http://purl.org/dc/elements/1.1/"
            xmlns:cq="http://www.day.com/jcr/cq/1.0"
            xmlns:tiff="http://ns.adobe.com/tiff/1.0/">
         <xmp:rhcc-effective-on>2023-12-08T17:44:58.163Z</xmp:rhcc-effective-on>
         <xmp:rhcc-metadata-complete-moderator>pending</xmp:rhcc-metadata-complete-moderator>
         <xmp:rhcc-translation-id>TRA6673eb4d-b2fb-41af-b596-a73f8a90a39a</xmp:rhcc-translation-id>
         <xmp:CreateDate>2023-12-08T17:44:58.163Z</xmp:CreateDate>
         <xmp:rhcc-effective-on-set-on-upload>true</xmp:rhcc-effective-on-set-on-upload>
         <xmp:rhcc-metadata-complete-uploader>pending</xmp:rhcc-metadata-complete-uploader>
         <xmp:rhcc-file-last-modified>2023-12-08T17:45:17.194Z</xmp:rhcc-file-last-modified>
         <xmp:rhcc-audience>rhcc-audience:internal</xmp:rhcc-audience>
         <xmp:rhcc-rights-restricted>no</xmp:rhcc-rights-restricted>
         <xmp:rhcc-derivative-id>DER6673eb4d-b2fb-41af-b596-a73f8a90a39a</xmp:rhcc-derivative-id>
         <xmp:rhcc-notify-portal-subscribers-on-change>yes</xmp:rhcc-notify-portal-subscribers-on-change>
         <dc:format>image/svg+xml</dc:format>
         <dc:modified>2024-02-09T20:37:13.895Z</dc:modified>
         <cq:lastReplicationAction_scene7>Activate</cq:lastReplicationAction_scene7>
         <cq:lastReplicationAction_publish>Activate</cq:lastReplicationAction_publish>
         <cq:lastReplicated_publish>2024-02-09T22:24:46.087Z</cq:lastReplicated_publish>
         <cq:lastReplicatedBy>workflow-process-service</cq:lastReplicatedBy>
         <cq:lastReplicationAction>Activate</cq:lastReplicationAction>
         <cq:lastReplicatedBy_publish>workflow-process-service</cq:lastReplicatedBy_publish>
         <cq:isDelivered>true</cq:isDelivered>
         <cq:lastReplicated>2024-02-09T22:24:46.087Z</cq:lastReplicated>
         <cq:lastReplicatedBy_scene7>workflow-process-service</cq:lastReplicatedBy_scene7>
         <cq:lastReplicated_scene7>2024-02-09T22:24:46.087Z</cq:lastReplicated_scene7>
         <tiff:ImageLength>36</tiff:ImageLength>
         <tiff:ImageWidth>36</tiff:ImageWidth>
      </rdf:Description>
   </rdf:RDF>
</x:xmpmeta>
                                                                                                    
                                                                                                    
                                                                                                    
                                                                                                    
                                                                                                    
                                                                                                    
                                                                                                    
                                                                                                    
                                                                                                    
                                                                                                    
                                 
<?xpacket end="w"?></metadata>
<path d="m18,4.375H4c-.34521,0-.625.28027-.625.625v26c0,.34473.27979.625.625.625h14c.34521,0,.625-.28027.625-.625V5c0-.34473-.27979-.625-.625-.625Zm-.625,26H4.625V5.625h12.75v24.75Z" stroke-width="0"/><path d="m11,8.62988c.16992,0,.32959-.07031.43994-.19043.12012-.10938.18994-.2793.18994-.43945,0-.08008-.02002-.16016-.05029-.24023-.02979-.07031-.07959-.13965-.13965-.2002-.22998-.22949-.6499-.22949-.87988,0-.06006.06055-.11035.12988-.14014.2002-.03027.08008-.04004.16016-.04004.24023,0,.16016.06006.33008.18018.43945.10986.12012.27979.19043.43994.19043Z" stroke-width="0"/><path d="m13,27.375h-4c-.34521,0-.625.28027-.625.625s.27979.625.625.625h4c.34521,0,.625-.28027.625-.625s-.27979-.625-.625-.625Z" stroke-width="0"/><path d="m27.92725,9.07227c-.24414-.24414-.63965-.24414-.88379,0s-.24414.64062,0,.88477c4.43457,4.43457,4.43457,11.65137,0,16.08594-.24414.24414-.24414.64062,0,.88477.12207.12207.28174.18262.44189.18262s.31982-.06152.44189-.18262c4.92188-4.92285,4.92188-12.93262,0-17.85547Z" stroke-width="0"/><path d="m25.09863,11.90039c-.24414-.24414-.63965-.24414-.88379,0s-.24414.64062,0,.88477c2.875,2.875,2.875,7.55469,0,10.42969-.24414.24414-.24414.64062,0,.88477.12207.12207.28174.18262.44189.18262s.31982-.06152.44189-.18262c3.36279-3.36328,3.36279-8.83594,0-12.19922Z" stroke-width="0"/><path d="m21.38672,14.73047c-.24414.24316-.24414.63965,0,.88379.63721.63672.98828,1.48438.98828,2.38574s-.35107,1.74902-.98828,2.38574c-.24414.24414-.24414.64062,0,.88379.12207.12207.28174.18359.44189.18359s.31982-.06055.44189-.18262c.87354-.87402,1.35449-2.03516,1.35449-3.27051s-.48096-2.39648-1.35449-3.27051c-.24414-.24414-.63965-.24316-.88379.00098Z" stroke-width="0"/><path d="m8,21.375c-.34521,0-.625.28027-.625.625s.27979.625.625.625h6c.34521,0,.625-.28027.625-.625s-.27979-.625-.625-.625h-4.375v-2.75h3.375c.34521,0,.625-.28027.625-.625s-.27979-.625-.625-.625h-3.375v-.375c0-1.30957,1.06543-2.375,2.375-2.375.58496,0,1.14746.21484,1.5835.60449.25635.22852.65137.20801.88232-.04883.22998-.25781.20801-.65234-.04932-.88281-.66553-.59473-1.52344-.92285-2.4165-.92285-1.99902,0-3.625,1.62598-3.625,3.625v.375h-.375c-.34521,0-.625.28027-.625.625s.27979.625.625.625h.375v2.75h-.375Z" stroke-width="0"/></svg>