<?xml version="1.0" encoding="UTF-8"?><svg id="a" xmlns="http://www.w3.org/2000/svg" viewBox="0 0 36 36"><title>Mushroom icon - Black</title>
<desc>fungus, fungi, grow, plant, woods, forest, stool, toadstool, science and nature</desc>
<metadata><?xpacket begin="﻿" id="W5M0MpCehiHzreSzNTczkc9d"?>
<x:xmpmeta xmlns:x="adobe:ns:meta/" x:xmptk="Adobe XMP Core 8.0-c001 1.000000, 0000/00/00-00:00:00        ">
   <rdf:RDF xmlns:rdf="http://www.w3.org/1999/02/22-rdf-syntax-ns#">
      <rdf:Description rdf:about=""
            xmlns:xmp="http://ns.adobe.com/xap/1.0/"
            xmlns:dc="http://purl.org/dc/elements/1.1/"
            xmlns:cq="http://www.day.com/jcr/cq/1.0"
            xmlns:tiff="http://ns.adobe.com/tiff/1.0/">
         <xmp:rhcc-effective-on>2023-12-08T17:41:13.022Z</xmp:rhcc-effective-on>
         <xmp:rhcc-metadata-complete-moderator>pending</xmp:rhcc-metadata-complete-moderator>
         <xmp:rhcc-translation-id>TRA97c7b5eb-004b-49e6-acc0-4b774235af9b</xmp:rhcc-translation-id>
         <xmp:brand-content-type>Icon</xmp:brand-content-type>
         <xmp:CreateDate>2023-12-08T17:41:13.022Z</xmp:CreateDate>
         <xmp:rhcc-effective-on-set-on-upload>true</xmp:rhcc-effective-on-set-on-upload>
         <xmp:rhcc-metadata-complete-uploader>pending</xmp:rhcc-metadata-complete-uploader>
         <xmp:rhcc-file-last-modified>2023-12-08T17:42:23.595Z</xmp:rhcc-file-last-modified>
         <xmp:rhcc-audience>rhcc-audience:internal</xmp:rhcc-audience>
         <xmp:rhcc-rights-restricted>no</xmp:rhcc-rights-restricted>
         <xmp:brand-content-subtype>Icon</xmp:brand-content-subtype>
         <xmp:rhcc-derivative-id>DER97c7b5eb-004b-49e6-acc0-4b774235af9b</xmp:rhcc-derivative-id>
         <xmp:brand-logo-color>Black</xmp:brand-logo-color>
         <xmp:rhcc-notify-portal-subscribers-on-change>yes</xmp:rhcc-notify-portal-subscribers-on-change>
         <dc:format>image/svg+xml</dc:format>
         <dc:modified>2024-02-09T20:26:32.418Z</dc:modified>
         <dc:title>
            <rdf:Alt>
               <rdf:li xml:lang="x-default">Mushroom icon - Black</rdf:li>
            </rdf:Alt>
         </dc:title>
         <dc:description>
            <rdf:Alt>
               <rdf:li xml:lang="x-default">fungus, fungi, grow, plant, woods, forest, stool, toadstool, science and nature</rdf:li>
            </rdf:Alt>
         </dc:description>
         <cq:lastReplicationAction_scene7>Activate</cq:lastReplicationAction_scene7>
         <cq:lastReplicationAction_publish>Activate</cq:lastReplicationAction_publish>
         <cq:lastReplicated_publish>2024-02-09T22:11:30.925Z</cq:lastReplicated_publish>
         <cq:lastReplicatedBy>workflow-process-service</cq:lastReplicatedBy>
         <cq:lastReplicationAction>Activate</cq:lastReplicationAction>
         <cq:lastReplicatedBy_publish>workflow-process-service</cq:lastReplicatedBy_publish>
         <cq:isDelivered>true</cq:isDelivered>
         <cq:lastReplicated>2024-02-09T22:11:30.925Z</cq:lastReplicated>
         <cq:lastReplicatedBy_scene7>workflow-process-service</cq:lastReplicatedBy_scene7>
         <cq:lastReplicated_scene7>2024-02-09T22:11:30.925Z</cq:lastReplicated_scene7>
         <tiff:ImageLength>36</tiff:ImageLength>
         <tiff:ImageWidth>36</tiff:ImageWidth>
      </rdf:Description>
   </rdf:RDF>
</x:xmpmeta>
                                                                                                    
                                                                                                    
                                                                                                    
                                                                                                    
                                                                                                    
                                                                                                    
                                                                                                    
                                                                                                    
                                                                                                    
                                                                                                    
                                 
<?xpacket end="w"?></metadata>
<path d="m29.5284,9.033c-.0353-.0658-.0796-.1226-.1354-.1719-1.3604-1.7011-3.0958-3.1138-5.1249-4.0779-1.9658-.9346-4.0747-1.4082-6.2681-1.4082-5.7958,0-10.7999,3.3972-13.165,8.2974-.06.0755-.1041.1614-.1242.2575-.8494,1.8517-1.3358,3.9031-1.3358,6.0701,0,.3447.2798.625.625.625h17.7278c.0012,0,.0024.001.0036.001.0013,0,.0024-.001.0037-.001h10.2648c.3452,0,.625-.2803.625-.625,0-3.2968-1.1367-6.4406-3.0966-8.967Zm-1.2081.4861c-.1125.7167-.4465,1.3558-.9358,1.8477-.0728.0731-.1485.142-.2271.2078-.0907.076-.1831.1497-.2814.2161-.0903.0606-.1852.1127-.2807.1642-.0955.0519-.1898.1058-.2903.1486-.1246.0524-.2548.09-.3851.1271-.0816.0236-.1602.0547-.244.0721-.2209.0453-.4468.0724-.676.0724-1.8608,0-3.375-1.5137-3.375-3.375,0-.1664.015-.3302.0387-.4915.0074-.0503.02-.0994.0297-.1493.0217-.1116.0466-.2222.079-.3301.0161-.0534.035-.1058.0537-.1584.0364-.1021.0771-.202.1229-.2996.024-.0514.0486-.1025.0753-.1526.3585-.6744.9428-1.2152,1.671-1.5214.012.0057.0247.0093.0367.015,1.8069.8585,3.3591,2.106,4.5884,3.6069Zm-22.5654,3.1268c.082-.006.1615-.0209.2451-.0209,1.8608,0,3.375,1.5137,3.375,3.375,0,.4767-.1048.9445-.2973,1.375h-4.438c.0774-1.6762.4739-3.2682,1.1152-4.7291Zm12.8701,4.3541c0-.7578.6167-1.375,1.375-1.375s1.375.6172,1.375,1.375c0,.1277-.02.2534-.0544.375h-2.6412c-.0344-.1216-.0544-.2473-.0544-.375Zm3.9506.375c.0182-.125.0494-.2479.0494-.375,0-1.4473-1.1777-2.625-2.625-2.625s-2.625,1.1777-2.625,2.625c0,.1271.0311.25.0494.375h-7.0167c.1381-.4437.2173-.9058.2173-1.375,0-2.4232-1.8801-4.3954-4.2551-4.5876,2.3019-4.048,6.6498-6.7874,11.6301-6.7874,1.4526,0,2.8623.2342,4.213.6837-.4754.3594-.8638.8132-1.1677,1.3198-.0159.0209-.0377.0347-.0512.0581-.028.0484-.0479.1007-.074.1501-.0354.0668-.0679.1344-.1.2029-.0629.1343-.1187.2708-.1683.4103-.0263.0736-.0526.1466-.0751.2217-.0439.1467-.0776.2957-.1069.4463-.0137.0701-.0312.1385-.0417.2095-.0327.2222-.053.4465-.053.6727,0,2.5498,2.0747,4.625,4.625,4.625.3168,0,.6255-.0369.926-.0992.1157-.0237.2242-.0674.3373-.0997.1778-.0515.3553-.1013.5241-.1731.1393-.0586.2687-.1338.4017-.2057.1296-.0707.2584-.1402.3804-.2227.1358-.0912.2622-.1925.3882-.2982.1075-.0903.2103-.1837.3093-.2833.0646-.0649.1406-.1155.2016-.1846.0281-.0319.0406-.0703.0611-.1057.2937-.3491.5333-.7391.7146-1.1647,1.2494,1.9489,2.0032,4.2145,2.1159,6.5869h-8.7847Z"/><path d="m14,7.375c-1.4473,0-2.625,1.1777-2.625,2.625s1.1777,2.625,2.625,2.625,2.625-1.1777,2.625-2.625-1.1777-2.625-2.625-2.625Zm0,4c-.7583,0-1.375-.6172-1.375-1.375s.6167-1.375,1.375-1.375,1.375.6172,1.375,1.375-.6167,1.375-1.375,1.375Z"/><path d="m20.5322,19.3887c-.3379.0713-.5532.4033-.4814.7412l2.1772,10.2451h-8.4561l2.1772-10.2451c.0718-.3379-.1436-.6699-.4814-.7412-.3394-.0762-.6689.1436-.7412.4814l-2.3379,11c-.0391.1846.0068.377.1255.5234s.2974.2314.4858.2314h10c.1885,0,.3672-.085.4858-.2314s.1646-.3389.1255-.5234l-2.3379-11c-.0718-.3379-.4033-.5586-.7412-.4814Z"/></svg>