<svg xmlns="http://www.w3.org/2000/svg" viewBox="0 0 36 36"><title>Neighborhood area icon - Black</title>
<desc>space, GWS, office, meeting, collaborate, office and work</desc>
<metadata><?xpacket begin="﻿" id="W5M0MpCehiHzreSzNTczkc9d"?>
<x:xmpmeta xmlns:x="adobe:ns:meta/" x:xmptk="Adobe XMP Core 8.0-c001 1.000000, 0000/00/00-00:00:00        ">
   <rdf:RDF xmlns:rdf="http://www.w3.org/1999/02/22-rdf-syntax-ns#">
      <rdf:Description rdf:about=""
            xmlns:xmp="http://ns.adobe.com/xap/1.0/"
            xmlns:dc="http://purl.org/dc/elements/1.1/"
            xmlns:cq="http://www.day.com/jcr/cq/1.0"
            xmlns:tiff="http://ns.adobe.com/tiff/1.0/">
         <xmp:rhcc-effective-on>2023-12-08T17:47:01.862Z</xmp:rhcc-effective-on>
         <xmp:rhcc-metadata-complete-moderator>pending</xmp:rhcc-metadata-complete-moderator>
         <xmp:rhcc-translation-id>TRA8dc6596f-8274-41ff-823a-ac090421780c</xmp:rhcc-translation-id>
         <xmp:brand-content-type>Icon</xmp:brand-content-type>
         <xmp:CreateDate>2023-12-08T17:47:01.862Z</xmp:CreateDate>
         <xmp:rhcc-effective-on-set-on-upload>true</xmp:rhcc-effective-on-set-on-upload>
         <xmp:rhcc-metadata-complete-uploader>pending</xmp:rhcc-metadata-complete-uploader>
         <xmp:rhcc-file-last-modified>2023-12-08T17:48:04.299Z</xmp:rhcc-file-last-modified>
         <xmp:rhcc-audience>rhcc-audience:internal</xmp:rhcc-audience>
         <xmp:rhcc-rights-restricted>no</xmp:rhcc-rights-restricted>
         <xmp:brand-content-subtype>Icon</xmp:brand-content-subtype>
         <xmp:rhcc-derivative-id>DER8dc6596f-8274-41ff-823a-ac090421780c</xmp:rhcc-derivative-id>
         <xmp:brand-logo-color>Black</xmp:brand-logo-color>
         <xmp:rhcc-notify-portal-subscribers-on-change>yes</xmp:rhcc-notify-portal-subscribers-on-change>
         <dc:format>image/svg+xml</dc:format>
         <dc:modified>2024-02-09T20:23:47.015Z</dc:modified>
         <dc:title>
            <rdf:Alt>
               <rdf:li xml:lang="x-default">Neighborhood area icon - Black</rdf:li>
            </rdf:Alt>
         </dc:title>
         <dc:description>
            <rdf:Alt>
               <rdf:li xml:lang="x-default">space, GWS, office, meeting, collaborate, office and work</rdf:li>
            </rdf:Alt>
         </dc:description>
         <cq:lastReplicationAction_scene7>Activate</cq:lastReplicationAction_scene7>
         <cq:lastReplicationAction_publish>Activate</cq:lastReplicationAction_publish>
         <cq:lastReplicated_publish>2024-02-09T22:05:23.649Z</cq:lastReplicated_publish>
         <cq:lastReplicatedBy>workflow-process-service</cq:lastReplicatedBy>
         <cq:lastReplicationAction>Activate</cq:lastReplicationAction>
         <cq:lastReplicatedBy_publish>workflow-process-service</cq:lastReplicatedBy_publish>
         <cq:isDelivered>true</cq:isDelivered>
         <cq:lastReplicated>2024-02-09T22:05:23.649Z</cq:lastReplicated>
         <cq:lastReplicatedBy_scene7>workflow-process-service</cq:lastReplicatedBy_scene7>
         <cq:lastReplicated_scene7>2024-02-09T22:05:23.649Z</cq:lastReplicated_scene7>
         <tiff:ImageLength>36</tiff:ImageLength>
         <tiff:ImageWidth>36</tiff:ImageWidth>
      </rdf:Description>
   </rdf:RDF>
</x:xmpmeta>
                                                                                                    
                                                                                                    
                                                                                                    
                                                                                                    
                                                                                                    
                                                                                                    
                                                                                                    
                                                                                                    
                                                                                                    
                                                                                                    
                                 
<?xpacket end="w"?></metadata>
<defs><style>.cls-1{fill:#231f20;}</style></defs><g id="Layer_4" data-name="Layer 4"><path class="cls-1" d="M21.62,18a3.62,3.62,0,0,0-7.24,0A3.62,3.62,0,0,0,21.62,18Zm-6,0a2.38,2.38,0,0,1,4.75,0A2.38,2.38,0,0,1,15.62,18Z"/><path class="cls-1" d="M26.66,4.38H9.34a1,1,0,0,0-1,1v7.32a1,1,0,0,0,1,1h6.51a2.78,2.78,0,0,0,2.15-1,2.78,2.78,0,0,0,2.15,1h6.51a1,1,0,0,0,1-1V5.34A1,1,0,0,0,26.66,4.38Zm-10.81,8H12.62V8.62h4.76v2.23A1.54,1.54,0,0,1,15.85,12.38Zm4.3,0a1.54,1.54,0,0,1-1.53-1.53V8.62h4.76v3.76Zm6.23,0H24.62V8A.62.62,0,0,0,24,7.38H12a.62.62,0,0,0-.62.62v4.38H9.62V5.62H26.38Z"/><path class="cls-1" d="M26.66,22.38H20.15a2.78,2.78,0,0,0-2.15,1,2.78,2.78,0,0,0-2.15-1H9.34a1,1,0,0,0-1,1v7.32a1,1,0,0,0,1,1H26.66a1,1,0,0,0,1-1V23.34A1,1,0,0,0,26.66,22.38Zm-6.51,1.24h3.23v3.76H18.62V25.15A1.54,1.54,0,0,1,20.15,23.62Zm-4.3,0a1.54,1.54,0,0,1,1.53,1.53v2.23H12.62V23.62Zm10.53,6.76H9.62V23.62h1.76V28a.62.62,0,0,0,.62.62H24a.62.62,0,0,0,.62-.62V23.62h1.76Z"/></g></svg>