<?xml version="1.0" encoding="UTF-8"?><svg id="uuid-e9f5d388-0e4d-4a5e-8b4f-37e7b9c48a8f" xmlns="http://www.w3.org/2000/svg" viewBox="0 0 36 36"><title>Network automation icon - Black</title>
<desc>ansible, automate, gear, connection, speed, internet, intranet, software and technologies</desc>
<metadata><?xpacket begin="﻿" id="W5M0MpCehiHzreSzNTczkc9d"?>
<x:xmpmeta xmlns:x="adobe:ns:meta/" x:xmptk="Adobe XMP Core 8.0-c001 1.000000, 0000/00/00-00:00:00        ">
   <rdf:RDF xmlns:rdf="http://www.w3.org/1999/02/22-rdf-syntax-ns#">
      <rdf:Description rdf:about=""
            xmlns:xmp="http://ns.adobe.com/xap/1.0/"
            xmlns:dc="http://purl.org/dc/elements/1.1/"
            xmlns:cq="http://www.day.com/jcr/cq/1.0"
            xmlns:tiff="http://ns.adobe.com/tiff/1.0/">
         <xmp:rhcc-effective-on>2023-12-08T17:43:53.975Z</xmp:rhcc-effective-on>
         <xmp:rhcc-metadata-complete-moderator>pending</xmp:rhcc-metadata-complete-moderator>
         <xmp:rhcc-translation-id>TRA786ae7aa-5e5e-4376-a3a7-99fe0aca476d</xmp:rhcc-translation-id>
         <xmp:brand-content-type>Icon</xmp:brand-content-type>
         <xmp:CreateDate>2023-12-08T17:43:53.975Z</xmp:CreateDate>
         <xmp:rhcc-effective-on-set-on-upload>true</xmp:rhcc-effective-on-set-on-upload>
         <xmp:rhcc-metadata-complete-uploader>pending</xmp:rhcc-metadata-complete-uploader>
         <xmp:rhcc-file-last-modified>2023-12-08T17:44:10.294Z</xmp:rhcc-file-last-modified>
         <xmp:rhcc-audience>rhcc-audience:internal</xmp:rhcc-audience>
         <xmp:rhcc-rights-restricted>no</xmp:rhcc-rights-restricted>
         <xmp:brand-content-subtype>Icon</xmp:brand-content-subtype>
         <xmp:rhcc-derivative-id>DER786ae7aa-5e5e-4376-a3a7-99fe0aca476d</xmp:rhcc-derivative-id>
         <xmp:brand-logo-color>Black</xmp:brand-logo-color>
         <xmp:rhcc-notify-portal-subscribers-on-change>yes</xmp:rhcc-notify-portal-subscribers-on-change>
         <dc:format>image/svg+xml</dc:format>
         <dc:modified>2024-02-09T20:17:53.785Z</dc:modified>
         <dc:title>
            <rdf:Alt>
               <rdf:li xml:lang="x-default">Network automation icon - Black</rdf:li>
            </rdf:Alt>
         </dc:title>
         <dc:description>
            <rdf:Alt>
               <rdf:li xml:lang="x-default">ansible, automate, gear, connection, speed, internet, intranet, software and technologies</rdf:li>
            </rdf:Alt>
         </dc:description>
         <cq:lastReplicationAction_scene7>Activate</cq:lastReplicationAction_scene7>
         <cq:lastReplicationAction_publish>Activate</cq:lastReplicationAction_publish>
         <cq:lastReplicated_publish>2024-02-09T21:55:16.233Z</cq:lastReplicated_publish>
         <cq:lastReplicatedBy>workflow-process-service</cq:lastReplicatedBy>
         <cq:lastReplicationAction>Activate</cq:lastReplicationAction>
         <cq:lastReplicatedBy_publish>workflow-process-service</cq:lastReplicatedBy_publish>
         <cq:isDelivered>true</cq:isDelivered>
         <cq:lastReplicated>2024-02-09T21:55:16.233Z</cq:lastReplicated>
         <cq:lastReplicatedBy_scene7>workflow-process-service</cq:lastReplicatedBy_scene7>
         <cq:lastReplicated_scene7>2024-02-09T21:55:16.233Z</cq:lastReplicated_scene7>
         <tiff:ImageLength>36</tiff:ImageLength>
         <tiff:ImageWidth>36</tiff:ImageWidth>
      </rdf:Description>
   </rdf:RDF>
</x:xmpmeta>
                                                                                                    
                                                                                                    
                                                                                                    
                                                                                                    
                                                                                                    
                                                                                                    
                                                                                                    
                                                                                                    
                                                                                                    
                                                                                                    
                                 
<?xpacket end="w"?></metadata>
<path d="m20.6850586,27.2919922c-.3452148,0-.625.2802734-.625.625v3.2949219c-1.315918.2050781-2.5634766.2216797-3.9375.0214844v-3.2695312c0-.2871094-.1953125-.5371094-.4731445-.6064453-.8735352-.21875-1.706543-.5546875-2.4750977-1-.2441406-.1416016-.5537109-.1015625-.7548828.0986328l-2.3295898,2.3291016c-1.0610352-.7792969-1.9980469-1.7099609-2.7939453-2.7744141l2.3168945-2.3164062c.2026367-.203125.2416992-.5166016.0947266-.7626953-.4628906-.7763672-.8139648-1.6152344-1.0429688-2.4951172-.0717773-.2753906-.3203125-.4677734-.6049805-.4677734h-3.2822266c-.1025391-.6728516-.1523438-1.3212891-.1523438-1.96875s.0498047-1.2958984.1523438-1.96875h3.2822266c.284668,0,.5332031-.1923828.6049805-.4677734.2285156-.8779297.5795898-1.71875,1.043457-2.4960938.1464844-.2460938.1069336-.5595703-.0952148-.7626953l-2.3168945-2.3154297c.7958984-1.0644531,1.7329102-1.9951172,2.7939453-2.7744141l2.3295898,2.3291016c.2011719.2001953.5107422.2412109.7548828.0986328.7685547-.4453125,1.6015625-.78125,2.4750977-1,.277832-.0693359.4731445-.3193359.4731445-.6064453v-3.2695312c1.3740234-.2001953,2.6225586-.1835938,3.9375.0214844v3.2949219c0,.3447266.2797852.625.625.625s.625-.2802734.625-.625v-3.8193359c0-.2988281-.2119141-.5566406-.5058594-.6132812-1.7993164-.3496094-3.4990234-.3769531-5.4174805-.0302734-.2973633.0537109-.5141602.3125-.5141602.6152344v3.3242188c-.6591797.1962891-1.2954102.4541016-1.9008789.7685547l-2.3701172-2.3701172c-.2119141-.2109375-.5444336-.2431641-.7924805-.0751953-1.5063477,1.0205078-2.800293,2.3046875-3.8447266,3.8173828-.171875.2490234-.1411133.5839844.0722656.7978516l2.3564453,2.3554688c-.3295898.6142578-.5996094,1.2597656-.8056641,1.9277344h-3.3378906c-.3007812,0-.559082.2138672-.6142578.5097656-.1728516.921875-.2602539,1.8330078-.2602539,2.7089844s.0874023,1.7871094.2602539,2.7089844c.0551758.2958984.3134766.5097656.6142578.5097656h3.3383789c.2060547.6679688.4755859,1.3134766.8051758,1.9277344l-2.3564453,2.3554688c-.2133789.2138672-.2436523.5488281-.0722656.7978516,1.0444336,1.5126953,2.3383789,2.796875,3.8447266,3.8173828.2480469.1679688.5805664.1357422.7924805-.0751953l2.3701172-2.3701172c.6054688.3144531,1.2416992.5722656,1.9008789.7685547v3.3242188c0,.3027344.2167969.5615234.5141602.6152344.9165039.1650391,1.7714844.2451172,2.6132812.2451172.9208984,0,1.8642578-.0927734,2.8041992-.2753906.2939453-.0566406.5058594-.3144531.5058594-.6132812v-3.8193359c0-.3447266-.2797852-.625-.625-.625Z"/><path d="m22.5618286,18.625h3.8764038c.2904663,1.4243164,1.5526733,2.5,3.0617676,2.5,1.7231445,0,3.125-1.4023438,3.125-3.125s-1.4018555-3.125-3.125-3.125c-1.5090942,0-2.7713013,1.0756836-3.0617676,2.5h-3.8764038c-.1104736-.8057861-.4224854-1.5409546-.8934326-2.1596069l3.1113892-3.1109009c.4940186.3273926,1.0844727.5205078,1.7202148.5205078,1.7231445,0,3.125-1.4023438,3.125-3.125s-1.4018555-3.125-3.125-3.125-3.125,1.4023438-3.125,3.125c0,.6356201.1931152,1.2261353.5205078,1.7201538l-3.1113892,3.1110229c-.7769775-.5913086-1.7346191-.9561768-2.7841187-.9561768-2.550293,0-4.625,2.0751953-4.625,4.625s2.074707,4.625,4.625,4.625c1.0495605,0,2.0073242-.3649292,2.7843628-.9563599l3.111145,3.111145c-.3274536.4940186-.5205078,1.0845947-.5205078,1.7202148,0,1.7226562,1.4018555,3.125,3.125,3.125s3.125-1.4023438,3.125-3.125-1.4018555-3.125-3.125-3.125c-.6356812,0-1.2262573.1931152-1.7202148.5205078l-3.111145-3.111145c.4708252-.6186523.7827148-1.3536987.8931885-2.1593628Zm6.9381714-2.5c1.0336914,0,1.875.8408203,1.875,1.875s-.8413086,1.875-1.875,1.875-1.875-.8408203-1.875-1.875.8413086-1.875,1.875-1.875Zm-3-8.5c1.0336914,0,1.875.8408203,1.875,1.875s-.8413086,1.875-1.875,1.875c-.515625,0-.9832153-.2094727-1.3225708-.5475464-.0009155-.0009766-.0011597-.0022583-.0021362-.0032349-.0008545-.0008545-.0020752-.0010986-.0029297-.0019531-.3378906-.3392334-.5473633-.8065796-.5473633-1.3222656,0-1.0341797.8413086-1.875,1.875-1.875Zm-11.875,10.375c0-1.8613281,1.5141602-3.375,3.375-3.375s3.375,1.5136719,3.375,3.375-1.5141602,3.375-3.375,3.375-3.375-1.5136719-3.375-3.375Zm13.75,8.5c0,1.0341797-.8413086,1.875-1.875,1.875s-1.875-.8408203-1.875-1.875c0-.515686.2094727-.9830322.5473633-1.3222656.0008545-.0008545.0020752-.0010986.0029297-.0019531.0009766-.0009766.0012207-.0022583.0021362-.0032349.3393555-.3380737.8069458-.5475464,1.3225708-.5475464,1.0336914,0,1.875.8408203,1.875,1.875Z"/></svg>