<?xml version="1.0" encoding="UTF-8"?><svg id="uuid-1ad39187-6cee-465d-8819-c5d79f3a0229" xmlns="http://www.w3.org/2000/svg" viewBox="0 0 36 36"><title>Newspaper icon - Black</title>
<desc>deliver, news, journalism, journalist, story, blog, post, print, paper, headline, reporter, media and documents</desc>
<metadata><?xpacket begin="﻿" id="W5M0MpCehiHzreSzNTczkc9d"?>
<x:xmpmeta xmlns:x="adobe:ns:meta/" x:xmptk="Adobe XMP Core 8.0-c001 1.000000, 0000/00/00-00:00:00        ">
   <rdf:RDF xmlns:rdf="http://www.w3.org/1999/02/22-rdf-syntax-ns#">
      <rdf:Description rdf:about=""
            xmlns:xmp="http://ns.adobe.com/xap/1.0/"
            xmlns:dc="http://purl.org/dc/elements/1.1/"
            xmlns:cq="http://www.day.com/jcr/cq/1.0"
            xmlns:tiff="http://ns.adobe.com/tiff/1.0/">
         <xmp:rhcc-effective-on>2023-12-08T17:37:08.589Z</xmp:rhcc-effective-on>
         <xmp:rhcc-metadata-complete-moderator>pending</xmp:rhcc-metadata-complete-moderator>
         <xmp:rhcc-translation-id>TRA762bb87a-69b8-47bd-be3e-1ee6ac65f2df</xmp:rhcc-translation-id>
         <xmp:brand-content-type>Icon</xmp:brand-content-type>
         <xmp:CreateDate>2023-12-08T17:37:08.589Z</xmp:CreateDate>
         <xmp:rhcc-effective-on-set-on-upload>true</xmp:rhcc-effective-on-set-on-upload>
         <xmp:rhcc-metadata-complete-uploader>pending</xmp:rhcc-metadata-complete-uploader>
         <xmp:rhcc-file-last-modified>2023-12-08T17:38:15.906Z</xmp:rhcc-file-last-modified>
         <xmp:rhcc-audience>rhcc-audience:internal</xmp:rhcc-audience>
         <xmp:rhcc-rights-restricted>no</xmp:rhcc-rights-restricted>
         <xmp:brand-content-subtype>Icon</xmp:brand-content-subtype>
         <xmp:rhcc-derivative-id>DER762bb87a-69b8-47bd-be3e-1ee6ac65f2df</xmp:rhcc-derivative-id>
         <xmp:brand-logo-color>Black</xmp:brand-logo-color>
         <xmp:rhcc-notify-portal-subscribers-on-change>yes</xmp:rhcc-notify-portal-subscribers-on-change>
         <dc:format>image/svg+xml</dc:format>
         <dc:modified>2024-02-09T20:20:34.164Z</dc:modified>
         <dc:title>
            <rdf:Alt>
               <rdf:li xml:lang="x-default">Newspaper icon - Black</rdf:li>
            </rdf:Alt>
         </dc:title>
         <dc:description>
            <rdf:Alt>
               <rdf:li xml:lang="x-default">deliver, news, journalism, journalist, story, blog, post, print, paper, headline, reporter, media and documents</rdf:li>
            </rdf:Alt>
         </dc:description>
         <cq:lastReplicationAction_scene7>Activate</cq:lastReplicationAction_scene7>
         <cq:lastReplicationAction_publish>Activate</cq:lastReplicationAction_publish>
         <cq:lastReplicated_publish>2024-02-09T21:58:31.092Z</cq:lastReplicated_publish>
         <cq:lastReplicatedBy>workflow-process-service</cq:lastReplicatedBy>
         <cq:lastReplicationAction>Activate</cq:lastReplicationAction>
         <cq:lastReplicatedBy_publish>workflow-process-service</cq:lastReplicatedBy_publish>
         <cq:isDelivered>true</cq:isDelivered>
         <cq:lastReplicated>2024-02-09T21:58:31.092Z</cq:lastReplicated>
         <cq:lastReplicatedBy_scene7>workflow-process-service</cq:lastReplicatedBy_scene7>
         <cq:lastReplicated_scene7>2024-02-09T21:58:31.092Z</cq:lastReplicated_scene7>
         <tiff:ImageLength>36</tiff:ImageLength>
         <tiff:ImageWidth>36</tiff:ImageWidth>
      </rdf:Description>
   </rdf:RDF>
</x:xmpmeta>
                                                                                                    
                                                                                                    
                                                                                                    
                                                                                                    
                                                                                                    
                                                                                                    
                                                                                                    
                                                                                                    
                                                                                                    
                                                                                                    
                                 
<?xpacket end="w"?></metadata>
<path d="M31,4.38H8c-.35,0-.62,.28-.62,.62V28c0,.82,1.25,.82,1.25,0V5.62H30.38V29c0,.76-.62,1.38-1.38,1.38H8c-1.31,0-2.38-1.07-2.38-2.38V9c0-.82-1.25-.82-1.25,0V28c0,2,1.63,3.62,3.62,3.62H29c1.45,0,2.62-1.18,2.62-2.62V5c0-.34-.28-.62-.62-.62Z"/><path d="M11.38,20c0,.34,.28,.62,.62,.62h6c.35,0,.62-.28,.62-.62v-6c0-.34-.28-.62-.62-.62h-6c-.35,0-.62,.28-.62,.62v6Zm1.25-5.38h4.75v4.75h-4.75v-4.75Z"/><path d="M12,23.62h6c.82,0,.82-1.25,0-1.25h-6c-.82,0-.82,1.25,0,1.25Z"/><path d="M12,26.62h3c.82,0,.82-1.25,0-1.25h-3c-.82,0-.82,1.25,0,1.25Z"/><path d="M27,19.38h-6c-.82,0-.82,1.25,0,1.25h6c.82,0,.82-1.25,0-1.25Z"/><path d="M27,16.38h-6c-.82,0-.82,1.25,0,1.25h6c.82,0,.82-1.25,0-1.25Z"/><path d="M27,13.38h-6c-.82,0-.82,1.25,0,1.25h6c.82,0,.82-1.25,0-1.25Z"/><path d="M27.62,23c0-.34-.28-.62-.62-.62h-6c-.82,0-.82,1.25,0,1.25h6c.35,0,.62-.28,.62-.62Z"/><path d="M21,25.38c-.82,0-.82,1.25,0,1.25h3c.82,0,.82-1.25,0-1.25h-3Z"/><path d="M27.62,8c0-.34-.28-.62-.62-.62H12c-.35,0-.62,.28-.62,.62v3c0,.34,.28,.62,.62,.62h15c.35,0,.62-.28,.62-.62v-3Zm-1.25,2.38H12.62v-1.75h13.75v1.75Z"/></svg>