<svg id="b64d36a3-14b2-41be-a383-66b1aabafedc" data-name="Icon" xmlns="http://www.w3.org/2000/svg" viewBox="0 0 36 36">
  <title>No smoking icon - Black</title>
<desc>cigarette, smoke, smoking, sign, do not, avoid, GWS, shapes and signage</desc>
<metadata><?xpacket begin="﻿" id="W5M0MpCehiHzreSzNTczkc9d"?>
<x:xmpmeta xmlns:x="adobe:ns:meta/" x:xmptk="Adobe XMP Core 8.0-c001 1.000000, 0000/00/00-00:00:00        ">
   <rdf:RDF xmlns:rdf="http://www.w3.org/1999/02/22-rdf-syntax-ns#">
      <rdf:Description rdf:about=""
            xmlns:xmp="http://ns.adobe.com/xap/1.0/"
            xmlns:dc="http://purl.org/dc/elements/1.1/"
            xmlns:cq="http://www.day.com/jcr/cq/1.0"
            xmlns:tiff="http://ns.adobe.com/tiff/1.0/">
         <xmp:rhcc-effective-on>2023-12-08T17:38:08.131Z</xmp:rhcc-effective-on>
         <xmp:rhcc-metadata-complete-moderator>pending</xmp:rhcc-metadata-complete-moderator>
         <xmp:rhcc-translation-id>TRA7c321a23-ae73-4203-aace-2e2816d35c95</xmp:rhcc-translation-id>
         <xmp:brand-content-type>Icon</xmp:brand-content-type>
         <xmp:CreateDate>2023-12-08T17:38:08.131Z</xmp:CreateDate>
         <xmp:rhcc-effective-on-set-on-upload>true</xmp:rhcc-effective-on-set-on-upload>
         <xmp:rhcc-metadata-complete-uploader>pending</xmp:rhcc-metadata-complete-uploader>
         <xmp:rhcc-file-last-modified>2023-12-08T17:40:52.955Z</xmp:rhcc-file-last-modified>
         <xmp:rhcc-audience>rhcc-audience:internal</xmp:rhcc-audience>
         <xmp:rhcc-rights-restricted>no</xmp:rhcc-rights-restricted>
         <xmp:brand-content-subtype>Icon</xmp:brand-content-subtype>
         <xmp:rhcc-derivative-id>DER7c321a23-ae73-4203-aace-2e2816d35c95</xmp:rhcc-derivative-id>
         <xmp:brand-logo-color>Black</xmp:brand-logo-color>
         <xmp:rhcc-notify-portal-subscribers-on-change>yes</xmp:rhcc-notify-portal-subscribers-on-change>
         <dc:format>image/svg+xml</dc:format>
         <dc:modified>2024-02-09T20:28:27.054Z</dc:modified>
         <dc:title>
            <rdf:Alt>
               <rdf:li xml:lang="x-default">No smoking icon - Black</rdf:li>
            </rdf:Alt>
         </dc:title>
         <dc:description>
            <rdf:Alt>
               <rdf:li xml:lang="x-default">cigarette, smoke, smoking, sign, do not, avoid, GWS, shapes and signage</rdf:li>
            </rdf:Alt>
         </dc:description>
         <cq:lastReplicationAction_scene7>Activate</cq:lastReplicationAction_scene7>
         <cq:lastReplicationAction_publish>Activate</cq:lastReplicationAction_publish>
         <cq:lastReplicated_publish>2024-02-09T22:15:21.827Z</cq:lastReplicated_publish>
         <cq:lastReplicatedBy>workflow-process-service</cq:lastReplicatedBy>
         <cq:lastReplicationAction>Activate</cq:lastReplicationAction>
         <cq:lastReplicatedBy_publish>workflow-process-service</cq:lastReplicatedBy_publish>
         <cq:isDelivered>true</cq:isDelivered>
         <cq:lastReplicated>2024-02-09T22:15:21.827Z</cq:lastReplicated>
         <cq:lastReplicatedBy_scene7>workflow-process-service</cq:lastReplicatedBy_scene7>
         <cq:lastReplicated_scene7>2024-02-09T22:15:21.827Z</cq:lastReplicated_scene7>
         <tiff:ImageLength>36</tiff:ImageLength>
         <tiff:ImageWidth>36</tiff:ImageWidth>
      </rdf:Description>
   </rdf:RDF>
</x:xmpmeta>
                                                                                                    
                                                                                                    
                                                                                                    
                                                                                                    
                                                                                                    
                                                                                                    
                                                                                                    
                                                                                                    
                                                                                                    
                                                                                                    
                                 
<?xpacket end="w"?></metadata>
<g>
    <path d="M27.12,13a.63.63,0,0,0-1.25,0c-.08.69-1,.83-1,2a1.91,1.91,0,0,0,.69,1.44c.43.4.43.72,0,1.12-.43.24-1.27,2-.06,2.07a.64.64,0,0,0,.62-.63c0-.23.09-.32.32-.56a1.89,1.89,0,0,0,0-2.88c-.43-.4-.43-.72,0-1.12A1.91,1.91,0,0,0,27.12,13Z"/>
    <path d="M25.64,29A13.38,13.38,0,0,1,7,10.36a.62.62,0,1,0-1-.72A14.63,14.63,0,0,0,26.36,30a.62.62,0,0,0-.72-1Z"/>
    <path d="M28.34,7.66a14.7,14.7,0,0,0-20.68,0,.63.63,0,0,0,0,.88l8.83,8.84H9a.63.63,0,0,0-.63.62v3a.63.63,0,0,0,.63.62H20.74l6.72,6.72a.61.61,0,0,0,.88,0A14.7,14.7,0,0,0,28.34,7.66Zm-18.72,11h2.75v1.76H9.62Zm4,1.76V18.62h4.12l1.75,1.76Zm8.75,0H21.26l-1.75-1.76h2.86ZM27.89,27l-5.38-5.39H23a.62.62,0,0,0,.62-.62V18a.62.62,0,0,0-.62-.62H18.26L9,8.11A13.38,13.38,0,0,1,27.89,27Z"/>
  </g>
</svg>
