<?xml version="1.0" encoding="UTF-8"?><svg id="uuid-8767dc3b-8d59-4088-bfbe-b4b7e79a728b" xmlns="http://www.w3.org/2000/svg" viewBox="0 0 36 36"><title>Non-combustible icon - Black</title>
<desc>fire, trash, burn, ember, flame, hot, smoke, danger, shapes and signage</desc>
<metadata><?xpacket begin="﻿" id="W5M0MpCehiHzreSzNTczkc9d"?>
<x:xmpmeta xmlns:x="adobe:ns:meta/" x:xmptk="Adobe XMP Core 8.0-c001 1.000000, 0000/00/00-00:00:00        ">
   <rdf:RDF xmlns:rdf="http://www.w3.org/1999/02/22-rdf-syntax-ns#">
      <rdf:Description rdf:about=""
            xmlns:xmp="http://ns.adobe.com/xap/1.0/"
            xmlns:dc="http://purl.org/dc/elements/1.1/"
            xmlns:cq="http://www.day.com/jcr/cq/1.0"
            xmlns:tiff="http://ns.adobe.com/tiff/1.0/">
         <xmp:rhcc-effective-on>2023-12-08T17:38:09.347Z</xmp:rhcc-effective-on>
         <xmp:rhcc-metadata-complete-moderator>pending</xmp:rhcc-metadata-complete-moderator>
         <xmp:rhcc-translation-id>TRA5a689512-5773-4f7f-aacb-a5e947b37136</xmp:rhcc-translation-id>
         <xmp:brand-content-type>Icon</xmp:brand-content-type>
         <xmp:CreateDate>2023-12-08T17:38:09.347Z</xmp:CreateDate>
         <xmp:rhcc-effective-on-set-on-upload>true</xmp:rhcc-effective-on-set-on-upload>
         <xmp:rhcc-metadata-complete-uploader>pending</xmp:rhcc-metadata-complete-uploader>
         <xmp:rhcc-file-last-modified>2023-12-08T17:40:48.738Z</xmp:rhcc-file-last-modified>
         <xmp:rhcc-audience>rhcc-audience:internal</xmp:rhcc-audience>
         <xmp:rhcc-rights-restricted>no</xmp:rhcc-rights-restricted>
         <xmp:brand-content-subtype>Icon</xmp:brand-content-subtype>
         <xmp:rhcc-derivative-id>DER5a689512-5773-4f7f-aacb-a5e947b37136</xmp:rhcc-derivative-id>
         <xmp:brand-logo-color>Black</xmp:brand-logo-color>
         <xmp:rhcc-notify-portal-subscribers-on-change>yes</xmp:rhcc-notify-portal-subscribers-on-change>
         <dc:format>image/svg+xml</dc:format>
         <dc:modified>2024-02-09T20:28:32.993Z</dc:modified>
         <dc:title>
            <rdf:Alt>
               <rdf:li xml:lang="x-default">Non-combustible icon - Black</rdf:li>
            </rdf:Alt>
         </dc:title>
         <dc:description>
            <rdf:Alt>
               <rdf:li xml:lang="x-default">fire, trash, burn, ember, flame, hot, smoke, danger, shapes and signage</rdf:li>
            </rdf:Alt>
         </dc:description>
         <cq:lastReplicationAction_scene7>Activate</cq:lastReplicationAction_scene7>
         <cq:lastReplicationAction_publish>Activate</cq:lastReplicationAction_publish>
         <cq:lastReplicated_publish>2024-02-09T22:15:25.178Z</cq:lastReplicated_publish>
         <cq:lastReplicatedBy>workflow-process-service</cq:lastReplicatedBy>
         <cq:lastReplicationAction>Activate</cq:lastReplicationAction>
         <cq:lastReplicatedBy_publish>workflow-process-service</cq:lastReplicatedBy_publish>
         <cq:isDelivered>true</cq:isDelivered>
         <cq:lastReplicated>2024-02-09T22:15:25.178Z</cq:lastReplicated>
         <cq:lastReplicatedBy_scene7>workflow-process-service</cq:lastReplicatedBy_scene7>
         <cq:lastReplicated_scene7>2024-02-09T22:15:25.178Z</cq:lastReplicated_scene7>
         <tiff:ImageLength>36</tiff:ImageLength>
         <tiff:ImageWidth>36</tiff:ImageWidth>
      </rdf:Description>
   </rdf:RDF>
</x:xmpmeta>
                                                                                                    
                                                                                                    
                                                                                                    
                                                                                                    
                                                                                                    
                                                                                                    
                                                                                                    
                                                                                                    
                                                                                                    
                                                                                                    
                                 
<?xpacket end="w"?></metadata>
<path d="M31.44,30.56l-3.91-3.91c2.26-4.45,.89-10.21-3.16-13.15-.19-.14-.44-.16-.65-.06-.21,.11-.35,.32-.35,.56,0,1.33-1.1,2.45-2.44,2.37,2.4-5.4-1.66-11.89-7.59-11.99,0,0,0,0,0,0-.01,0-.03,0-.04,0-.04,0-.08,0-.13,.01-.04,0-.08,.01-.12,.03-.03,.01-.06,.03-.09,.05-.04,.03-.09,.05-.12,.09,0,0-.02,.01-.03,.02-.01,.02-.02,.04-.03,.05-.03,.04-.06,.08-.08,.13-.01,.03-.02,.07-.03,.1,0,.03-.02,.05-.03,.08,0,.02,0,.03,0,.05,0,.04,0,.07,.01,.11,0,.05,.01,.09,.03,.14,.01,.03,.03,.05,.04,.08,.02,.03,.03,.07,.06,.1,0,.01,.02,.02,.03,.03,0,0,0,.01,.01,.02,1.91,1.73,2.03,4.91,.27,6.78L6.44,5.56c-.58-.58-1.46,.3-.88,.88L30.56,31.44c.58,.58,1.46-.3,.88-.88ZM15.62,9c0-1.14-.31-2.23-.89-3.17,4.57,.94,7.11,6.6,4.74,10.71-.19,.32-.01,.78,.35,.89,1.86,.68,4.03-.43,4.61-2.25,2.84,2.59,3.75,7.01,2.17,10.54L14.01,13.13c1.04-1.13,1.61-2.58,1.61-4.13Z"/><path d="M24.69,28.56c-.98,1-2.16,1.76-3.45,2.23,1.08-3.04-.16-6.58-2.9-8.29-.21-.13-.47-.13-.67,0-2.74,1.71-3.98,5.25-2.9,8.29-6.32-2.21-8.26-10.85-3.32-15.49,.25-.24,.25-.64,0-.88-.24-.25-.64-.25-.88,0-6.05,5.77-2.96,16.29,5.2,17.97,.25,.05,.49-.04,.64-.25,.15-.2,.16-.47,.03-.68-1.53-2.5-.81-5.97,1.57-7.67,2.37,1.7,3.09,5.17,1.57,7.67-.13,.21-.11,.48,.03,.68,.14,.2,.4,.3,.64,.25,2.03-.44,3.88-1.46,5.35-2.95,.24-.25,.24-.64,0-.88-.25-.24-.64-.24-.88,0Z"/></svg>