<?xml version="1.0" encoding="UTF-8"?>
<svg id="uuid-e9a5e1a8-41e2-41e8-b32f-e4873d9adcc6" data-name="Icon" xmlns="http://www.w3.org/2000/svg" viewBox="0 0 36 36">
  <metadata><?xpacket begin="﻿" id="W5M0MpCehiHzreSzNTczkc9d"?>
<x:xmpmeta xmlns:x="adobe:ns:meta/" x:xmptk="Adobe XMP Core 8.0-c001 1.000000, 0000/00/00-00:00:00        ">
   <rdf:RDF xmlns:rdf="http://www.w3.org/1999/02/22-rdf-syntax-ns#">
      <rdf:Description rdf:about=""
            xmlns:xmp="http://ns.adobe.com/xap/1.0/"
            xmlns:dc="http://purl.org/dc/elements/1.1/"
            xmlns:cq="http://www.day.com/jcr/cq/1.0"
            xmlns:tiff="http://ns.adobe.com/tiff/1.0/">
         <xmp:rhcc-effective-on>2023-12-08T17:45:47.630Z</xmp:rhcc-effective-on>
         <xmp:rhcc-metadata-complete-moderator>pending</xmp:rhcc-metadata-complete-moderator>
         <xmp:rhcc-translation-id>TRAcb89ceed-cd65-4858-905b-e93122dc01fb</xmp:rhcc-translation-id>
         <xmp:CreateDate>2023-12-08T17:45:47.630Z</xmp:CreateDate>
         <xmp:rhcc-effective-on-set-on-upload>true</xmp:rhcc-effective-on-set-on-upload>
         <xmp:rhcc-metadata-complete-uploader>pending</xmp:rhcc-metadata-complete-uploader>
         <xmp:rhcc-file-last-modified>2023-12-08T17:46:28.995Z</xmp:rhcc-file-last-modified>
         <xmp:rhcc-audience>rhcc-audience:internal</xmp:rhcc-audience>
         <xmp:rhcc-rights-restricted>no</xmp:rhcc-rights-restricted>
         <xmp:rhcc-derivative-id>DERcb89ceed-cd65-4858-905b-e93122dc01fb</xmp:rhcc-derivative-id>
         <xmp:rhcc-notify-portal-subscribers-on-change>yes</xmp:rhcc-notify-portal-subscribers-on-change>
         <dc:format>image/svg+xml</dc:format>
         <dc:modified>2024-02-09T20:36:41.465Z</dc:modified>
         <cq:lastReplicationAction_scene7>Activate</cq:lastReplicationAction_scene7>
         <cq:lastReplicationAction_publish>Activate</cq:lastReplicationAction_publish>
         <cq:lastReplicated_publish>2024-02-09T22:24:13.693Z</cq:lastReplicated_publish>
         <cq:lastReplicatedBy>workflow-process-service</cq:lastReplicatedBy>
         <cq:lastReplicationAction>Activate</cq:lastReplicationAction>
         <cq:lastReplicatedBy_publish>workflow-process-service</cq:lastReplicatedBy_publish>
         <cq:isDelivered>true</cq:isDelivered>
         <cq:lastReplicated>2024-02-09T22:24:13.693Z</cq:lastReplicated>
         <cq:lastReplicatedBy_scene7>workflow-process-service</cq:lastReplicatedBy_scene7>
         <cq:lastReplicated_scene7>2024-02-09T22:24:13.693Z</cq:lastReplicated_scene7>
         <tiff:ImageLength>36</tiff:ImageLength>
         <tiff:ImageWidth>36</tiff:ImageWidth>
      </rdf:Description>
   </rdf:RDF>
</x:xmpmeta>
                                                                                                    
                                                                                                    
                                                                                                    
                                                                                                    
                                                                                                    
                                                                                                    
                                                                                                    
                                                                                                    
                                                                                                    
                                                                                                    
                                 
<?xpacket end="w"?></metadata>
<path d="M24,30.38H12c-.35,0-.62,.28-.62,.62s.28,.62,.62,.62h12c.35,0,.62-.28,.62-.62s-.28-.62-.62-.62Z"/>
  <path d="M21.62,8.62h9.38c.35,0,.62-.28,.62-.62s-.28-.62-.62-.62h-9.38v-1.75h9.38c.35,0,.62-.28,.62-.62s-.28-.62-.62-.62H12c-.35,0-.62,.28-.62,.62s.28,.62,.62,.62h2.38v1.75h-2.38c-.35,0-.62,.28-.62,.62s.28,.62,.62,.62h2.38v6.75H5c-.35,0-.62,.28-.62,.62,0,7.51,6.11,13.62,13.62,13.62s13.62-6.11,13.62-13.62c0-.34-.28-.62-.62-.62h-3.38v-1.88c0-1.17-.95-2.12-2.12-2.12s-2.12,.95-2.12,2.12v1.88h-1.75v-6.75Zm-1.25,6.75h-1.75v-6.75h1.75v6.75Zm0-8h-1.75v-1.75h1.75v1.75Zm-4.75-1.75h1.75v1.75h-1.75v-1.75Zm0,3h1.75v6.75h-1.75v-6.75Zm2.38,19.75c-6.61,0-12.03-5.22-12.36-11.75h14.73v1.88c0,1.17,.95,2.12,2.12,2.12s2.12-.95,2.12-2.12v-1.88h5.73c-.33,6.53-5.75,11.75-12.36,11.75Zm6.62-14.88c0-.48,.39-.88,.88-.88s.88,.39,.88,.88v1.88h-1.75v-1.88Zm-1.25,3.12v1.88c0,.48-.39,.88-.88,.88s-.88-.39-.88-.88v-1.88h1.75Z"/>
</svg>