<?xml version="1.0" encoding="UTF-8"?><svg id="a" xmlns="http://www.w3.org/2000/svg" viewBox="0 0 36 36"><metadata><?xpacket begin="﻿" id="W5M0MpCehiHzreSzNTczkc9d"?>
<x:xmpmeta xmlns:x="adobe:ns:meta/" x:xmptk="Adobe XMP Core 8.0-c001 1.000000, 0000/00/00-00:00:00        ">
   <rdf:RDF xmlns:rdf="http://www.w3.org/1999/02/22-rdf-syntax-ns#">
      <rdf:Description rdf:about=""
            xmlns:xmp="http://ns.adobe.com/xap/1.0/"
            xmlns:dc="http://purl.org/dc/elements/1.1/"
            xmlns:cq="http://www.day.com/jcr/cq/1.0"
            xmlns:tiff="http://ns.adobe.com/tiff/1.0/">
         <xmp:rhcc-effective-on>2023-12-08T17:38:10.673Z</xmp:rhcc-effective-on>
         <xmp:rhcc-metadata-complete-moderator>pending</xmp:rhcc-metadata-complete-moderator>
         <xmp:rhcc-translation-id>TRA3040fa88-c826-4d1f-93f8-8ac1eab7349d</xmp:rhcc-translation-id>
         <xmp:CreateDate>2023-12-08T17:38:10.673Z</xmp:CreateDate>
         <xmp:rhcc-effective-on-set-on-upload>true</xmp:rhcc-effective-on-set-on-upload>
         <xmp:rhcc-metadata-complete-uploader>pending</xmp:rhcc-metadata-complete-uploader>
         <xmp:rhcc-file-last-modified>2023-12-08T17:40:49.705Z</xmp:rhcc-file-last-modified>
         <xmp:rhcc-audience>rhcc-audience:internal</xmp:rhcc-audience>
         <xmp:rhcc-rights-restricted>no</xmp:rhcc-rights-restricted>
         <xmp:rhcc-derivative-id>DER3040fa88-c826-4d1f-93f8-8ac1eab7349d</xmp:rhcc-derivative-id>
         <xmp:rhcc-notify-portal-subscribers-on-change>yes</xmp:rhcc-notify-portal-subscribers-on-change>
         <dc:format>image/svg+xml</dc:format>
         <dc:modified>2024-02-09T20:28:35.150Z</dc:modified>
         <cq:lastReplicationAction_scene7>Activate</cq:lastReplicationAction_scene7>
         <cq:lastReplicationAction_publish>Activate</cq:lastReplicationAction_publish>
         <cq:lastReplicated_publish>2024-02-09T22:15:26.681Z</cq:lastReplicated_publish>
         <cq:lastReplicatedBy>workflow-process-service</cq:lastReplicatedBy>
         <cq:lastReplicationAction>Activate</cq:lastReplicationAction>
         <cq:lastReplicatedBy_publish>workflow-process-service</cq:lastReplicatedBy_publish>
         <cq:isDelivered>true</cq:isDelivered>
         <cq:lastReplicated>2024-02-09T22:15:26.681Z</cq:lastReplicated>
         <cq:lastReplicatedBy_scene7>workflow-process-service</cq:lastReplicatedBy_scene7>
         <cq:lastReplicated_scene7>2024-02-09T22:15:26.681Z</cq:lastReplicated_scene7>
         <tiff:ImageLength>36</tiff:ImageLength>
         <tiff:ImageWidth>36</tiff:ImageWidth>
      </rdf:Description>
   </rdf:RDF>
</x:xmpmeta>
                                                                                                    
                                                                                                    
                                                                                                    
                                                                                                    
                                                                                                    
                                                                                                    
                                                                                                    
                                                                                                    
                                                                                                    
                                                                                                    
                                 
<?xpacket end="w"?></metadata>
<path d="m29.1299,20.3887l-8.6748-1.8447-1.8438-8.6738c-.0615-.2891-.3164-.4951-.6113-.4951s-.5498.2061-.6113.4951l-1.8438,8.6738-8.6748,1.8447c-.2886.0615-.4951.3164-.4951.6113s.2065.5498.4951.6113l8.6748,1.8438,1.8438,8.6748c.0615.2891.3164.4951.6113.4951s.5498-.2061.6113-.4951l1.8438-8.6748,8.6748-1.8438c.2886-.0615.4951-.3164.4951-.6113s-.2065-.5498-.4951-.6113Zm-9.3315,1.9277c-.2417.0518-.4302.2402-.4814.4814l-1.3169,6.1963-1.3169-6.1963c-.0513-.2412-.2397-.4297-.4814-.4814l-6.1953-1.3164,6.1953-1.3174c.2417-.0518.4302-.2402.4814-.4814l1.3169-6.1953,1.3169,6.1953c.0513.2412.2397.4297.4814.4814l6.1953,1.3174-6.1953,1.3164Z"/><path d="m26.6114,28.8754c-.0004-.0018.0003-.0035,0-.0053l-.8315-3.9121c-.0718-.3379-.4009-.5586-.7412-.4814-.3379.0713-.5532.4033-.4814.7412l.6315,2.9707-2.9713-.6318c-.3389-.0742-.6694.1436-.7412.4814s.1436.6689.4814.7412l3.9126.832c.0431.0096.0856.0133.1279.0134.0005,0,.001.0002.0015.0002.0002,0,.0003,0,.0005,0s.0003,0,.0005,0c.0005,0,.001-.0002.0015-.0002.0423-.0001.0848-.0038.1279-.0134.0124-.0026.0214-.0111.0334-.0144.0501-.0137.0955-.0352.1403-.0606.023-.0131.0474-.0225.0683-.0381.0466-.0347.085-.0781.1206-.1248.0103-.0136.0246-.0235.0338-.0379.0392-.0615.069-.1302.085-.2057.0004-.0018-.0003-.0034,0-.0052.0082-.0402.0012-.0827.0013-.1246,0-.0419.0069-.0845-.0013-.1246Z"/><path d="m9.3886,13.1245c.0004.0018-.0003.0035,0,.0054l.8315,3.9121c.0625.2939.3218.4951.6108.4951.043,0,.0864-.0039.1304-.0137.3379-.0713.5532-.4033.4814-.7412l-.6315-2.9707,2.9713.6318c.0439.0098.0874.0137.1304.0137.2891,0,.5483-.2012.6108-.4951.0718-.3379-.1436-.6689-.4814-.7412l-3.9126-.832c-.0007-.0001-.0013.0001-.002,0-.0437-.0092-.0898-.0027-.1355-.002-.0406.0004-.0818-.006-.1206.002-.0005.0001-.0011-.0001-.0016,0-.0087.0018-.0149.0079-.0234.0101-.0707.018-.1381.0446-.1976.0853-.0261.0178-.0436.0435-.0666.0648-.0354.0329-.0728.0627-.1.1036-.0289.0432-.0438.0931-.0613.1424-.0093.0261-.0265.0474-.0324.0753-.0004.0018.0003.0034,0,.0052-.0082.0401-.0012.0828-.0013.1246,0,.0419-.0069.0845.0013.1246Z"/><path d="m13.7827,27.5566l-2.9713.6318.6315-2.9707c.0718-.3379-.1436-.6699-.4814-.7412-.3384-.0762-.6694.1436-.7412.4814l-.8315,3.9121c-.0004.0018.0003.0035,0,.0053-.0082.0401-.0012.0828-.0013.1246,0,.0419-.0069.0845.0013.1246.0004.0018-.0003.0034,0,.0052.0161.0755.0458.1442.085.2057.0092.0144.0234.0243.0338.0379.0356.0467.074.0901.1206.1248.0209.0156.0453.025.0683.0381.0448.0254.0902.0469.1403.0606.012.0033.0211.0118.0334.0144.0431.0096.0856.0133.1279.0134.0005,0,.001.0002.0015.0002.0002,0,.0003,0,.0005,0s.0003,0,.0005,0c.0005,0,.001-.0002.0015-.0002.0423-.0001.0853-.0038.1279-.0134l3.9126-.832c.3379-.0723.5532-.4033.4814-.7412s-.4077-.5566-.7412-.4814Z"/><path d="m22.0869,14.457c.043,0,.0869-.0039.1304-.0137l2.9713-.6318-.6315,2.9707c-.0718.3379.1436.6699.4814.7412.0439.0098.0874.0137.1304.0137.2891,0,.5483-.2012.6108-.4951l.8315-3.9121c.0004-.0018-.0003-.0035,0-.0054.0082-.0401.0012-.0827.0013-.1246,0-.0419.0069-.0845-.0013-.1246-.0004-.0018.0003-.0034,0-.0052-.0052-.0244-.0208-.0429-.0287-.066-.0181-.0533-.0352-.1068-.0665-.1532-.0217-.032-.0521-.0544-.0789-.0816-.0293-.0298-.0543-.0629-.0894-.0865-.0533-.0361-.1138-.0577-.1758-.0759-.0151-.0044-.0265-.0149-.0421-.0182-.001-.0002-.002.0002-.003,0-.0435-.0091-.0891-.0026-.1346-.002-.0403.0004-.0812-.0061-.1199.002-.0008.0002-.0015-.0001-.0023,0l-3.9126.832c-.3379.0723-.5532.4033-.4814.7412.0625.2939.3218.4951.6108.4951Z"/><path d="m16,6.625h4c.2529,0,.4805-.1523.5776-.3857.0967-.2334.043-.5029-.1357-.6816l-2-2c-.2441-.2441-.6396-.2441-.8838,0l-2,2c-.1787.1787-.2324.4482-.1357.6816.0972.2334.3247.3857.5776.3857Z"/></svg>