<svg id="bd74cf88-115c-419c-b93f-72922d144633" data-name="Icon" xmlns="http://www.w3.org/2000/svg" viewBox="0 0 36 36">
  <title>Notepad icon - Black</title>
<desc>notebook, write, journal, pencil, binder, thoughts, planning, planner, media and documents</desc>
<metadata><?xpacket begin="﻿" id="W5M0MpCehiHzreSzNTczkc9d"?>
<x:xmpmeta xmlns:x="adobe:ns:meta/" x:xmptk="Adobe XMP Core 8.0-c001 1.000000, 0000/00/00-00:00:00        ">
   <rdf:RDF xmlns:rdf="http://www.w3.org/1999/02/22-rdf-syntax-ns#">
      <rdf:Description rdf:about=""
            xmlns:xmp="http://ns.adobe.com/xap/1.0/"
            xmlns:dc="http://purl.org/dc/elements/1.1/"
            xmlns:cq="http://www.day.com/jcr/cq/1.0"
            xmlns:tiff="http://ns.adobe.com/tiff/1.0/">
         <xmp:rhcc-effective-on>2023-12-08T17:37:10.920Z</xmp:rhcc-effective-on>
         <xmp:rhcc-metadata-complete-moderator>pending</xmp:rhcc-metadata-complete-moderator>
         <xmp:rhcc-translation-id>TRA06743861-a307-4028-99f3-e897970ea48b</xmp:rhcc-translation-id>
         <xmp:brand-content-type>Icon</xmp:brand-content-type>
         <xmp:CreateDate>2023-12-08T17:37:10.920Z</xmp:CreateDate>
         <xmp:rhcc-effective-on-set-on-upload>true</xmp:rhcc-effective-on-set-on-upload>
         <xmp:rhcc-metadata-complete-uploader>pending</xmp:rhcc-metadata-complete-uploader>
         <xmp:rhcc-file-last-modified>2023-12-08T17:38:18.595Z</xmp:rhcc-file-last-modified>
         <xmp:rhcc-audience>rhcc-audience:internal</xmp:rhcc-audience>
         <xmp:rhcc-rights-restricted>no</xmp:rhcc-rights-restricted>
         <xmp:brand-content-subtype>Icon</xmp:brand-content-subtype>
         <xmp:rhcc-derivative-id>DER06743861-a307-4028-99f3-e897970ea48b</xmp:rhcc-derivative-id>
         <xmp:brand-logo-color>Black</xmp:brand-logo-color>
         <xmp:rhcc-notify-portal-subscribers-on-change>yes</xmp:rhcc-notify-portal-subscribers-on-change>
         <dc:format>image/svg+xml</dc:format>
         <dc:modified>2024-02-09T20:20:44.501Z</dc:modified>
         <dc:title>
            <rdf:Alt>
               <rdf:li xml:lang="x-default">Notepad icon - Black</rdf:li>
            </rdf:Alt>
         </dc:title>
         <dc:description>
            <rdf:Alt>
               <rdf:li xml:lang="x-default">notebook, write, journal, pencil, binder, thoughts, planning, planner, media and documents</rdf:li>
            </rdf:Alt>
         </dc:description>
         <cq:lastReplicationAction_scene7>Activate</cq:lastReplicationAction_scene7>
         <cq:lastReplicationAction_publish>Activate</cq:lastReplicationAction_publish>
         <cq:lastReplicated_publish>2024-02-09T21:59:01.468Z</cq:lastReplicated_publish>
         <cq:lastReplicatedBy>workflow-process-service</cq:lastReplicatedBy>
         <cq:lastReplicationAction>Activate</cq:lastReplicationAction>
         <cq:lastReplicatedBy_publish>workflow-process-service</cq:lastReplicatedBy_publish>
         <cq:isDelivered>true</cq:isDelivered>
         <cq:lastReplicated>2024-02-09T21:59:01.468Z</cq:lastReplicated>
         <cq:lastReplicatedBy_scene7>workflow-process-service</cq:lastReplicatedBy_scene7>
         <cq:lastReplicated_scene7>2024-02-09T21:59:01.468Z</cq:lastReplicated_scene7>
         <tiff:ImageLength>36</tiff:ImageLength>
         <tiff:ImageWidth>36</tiff:ImageWidth>
      </rdf:Description>
   </rdf:RDF>
</x:xmpmeta>
                                                                                                    
                                                                                                    
                                                                                                    
                                                                                                    
                                                                                                    
                                                                                                    
                                                                                                    
                                                                                                    
                                                                                                    
                                                                                                    
                                 
<?xpacket end="w"?></metadata>
<g>
    <path d="M26,19.38a.62.62,0,0,0-.62.62v6.38H22a.62.62,0,0,0-.62.62v3.38H6.62V27.62c.46.05,1-.06,1-.62s-.54-.67-1-.62V21.62c.46.05,1-.06,1-.62s-.54-.67-1-.62V15.62c.46.05,1-.06,1-.62s-.54-.67-1-.62V9.62c.46.05,1-.06,1-.62s-.54-.67-1-.62V5.62H25.38V8a.62.62,0,1,0,1.24,0V5A.62.62,0,0,0,26,4.38H6A.62.62,0,0,0,5.38,5V8.38c-.46-.05-1,.06-1,.62s.54.67,1,.62v4.76c-.46-.05-1,.06-1,.62s.54.67,1,.62v4.76c-.46-.05-1,.06-1,.62s.54.67,1,.62v4.76c-.46-.05-1,.06-1,.62s.54.67,1,.62V31a.62.62,0,0,0,.62.62H22a.6.6,0,0,0,.44-.18l4-4a.7.7,0,0,0,.18-.44V20A.62.62,0,0,0,26,19.38ZM22.62,29.49V27.62h1.87Z"/>
    <path d="M31.44,10.56l-2-2a.61.61,0,0,0-.88,0l-13,13a1.27,1.27,0,0,0-.13.19l-1.61,3.6a.63.63,0,0,0,.83.83l3.6-1.61.19-.13,13-13A.61.61,0,0,0,31.44,10.56ZM27,11.88,28.12,13,18,23.12,16.88,22ZM16.2,23.09l.71.71-1.28.57Zm12.8-11L27.88,11,29,9.88,30.12,11Z"/>
  </g>
</svg>
