<?xml version="1.0" encoding="UTF-8"?>
<svg id="uuid-09729acb-ff92-4285-bb27-53f42877b5fc" data-name="Icon" xmlns="http://www.w3.org/2000/svg" viewBox="0 0 36 36">
  <metadata><?xpacket begin="﻿" id="W5M0MpCehiHzreSzNTczkc9d"?>
<x:xmpmeta xmlns:x="adobe:ns:meta/" x:xmptk="Adobe XMP Core 8.0-c001 1.000000, 0000/00/00-00:00:00        ">
   <rdf:RDF xmlns:rdf="http://www.w3.org/1999/02/22-rdf-syntax-ns#">
      <rdf:Description rdf:about=""
            xmlns:xmp="http://ns.adobe.com/xap/1.0/"
            xmlns:dc="http://purl.org/dc/elements/1.1/"
            xmlns:cq="http://www.day.com/jcr/cq/1.0"
            xmlns:tiff="http://ns.adobe.com/tiff/1.0/">
         <xmp:rhcc-effective-on>2023-12-08T17:36:07.274Z</xmp:rhcc-effective-on>
         <xmp:rhcc-metadata-complete-moderator>pending</xmp:rhcc-metadata-complete-moderator>
         <xmp:rhcc-translation-id>TRA47ce1bca-d8e2-45d6-8627-01794d7a520c</xmp:rhcc-translation-id>
         <xmp:CreateDate>2023-12-08T17:36:07.274Z</xmp:CreateDate>
         <xmp:rhcc-effective-on-set-on-upload>true</xmp:rhcc-effective-on-set-on-upload>
         <xmp:rhcc-metadata-complete-uploader>pending</xmp:rhcc-metadata-complete-uploader>
         <xmp:rhcc-file-last-modified>2023-12-08T17:36:28.293Z</xmp:rhcc-file-last-modified>
         <xmp:rhcc-audience>rhcc-audience:internal</xmp:rhcc-audience>
         <xmp:rhcc-rights-restricted>no</xmp:rhcc-rights-restricted>
         <xmp:rhcc-derivative-id>DER47ce1bca-d8e2-45d6-8627-01794d7a520c</xmp:rhcc-derivative-id>
         <xmp:rhcc-notify-portal-subscribers-on-change>yes</xmp:rhcc-notify-portal-subscribers-on-change>
         <dc:format>image/svg+xml</dc:format>
         <dc:modified>2024-02-09T20:31:49.599Z</dc:modified>
         <cq:lastReplicationAction_scene7>Activate</cq:lastReplicationAction_scene7>
         <cq:lastReplicationAction_publish>Activate</cq:lastReplicationAction_publish>
         <cq:lastReplicated_publish>2024-02-09T22:18:58.614Z</cq:lastReplicated_publish>
         <cq:lastReplicatedBy>workflow-process-service</cq:lastReplicatedBy>
         <cq:lastReplicationAction>Activate</cq:lastReplicationAction>
         <cq:lastReplicatedBy_publish>workflow-process-service</cq:lastReplicatedBy_publish>
         <cq:isDelivered>true</cq:isDelivered>
         <cq:lastReplicated>2024-02-09T22:18:58.614Z</cq:lastReplicated>
         <cq:lastReplicatedBy_scene7>workflow-process-service</cq:lastReplicatedBy_scene7>
         <cq:lastReplicated_scene7>2024-02-09T22:18:58.614Z</cq:lastReplicated_scene7>
         <tiff:ImageLength>36</tiff:ImageLength>
         <tiff:ImageWidth>36</tiff:ImageWidth>
      </rdf:Description>
   </rdf:RDF>
</x:xmpmeta>
                                                                                                    
                                                                                                    
                                                                                                    
                                                                                                    
                                                                                                    
                                                                                                    
                                                                                                    
                                                                                                    
                                                                                                    
                                                                                                    
                                 
<?xpacket end="w"?></metadata>
<path d="M31.58,12.76c-.1-.23-.32-.39-.58-.39h-12.74l-4.82-4.82c-.12-.12-.28-.18-.44-.18h-3c-.16,.02-.33,.07-.44,.18l-5,5c-.39,.37-.1,1.09,.44,1.07h4.37v7.38c0,.1,.02,.19,.07,.27,.03,.06,.08,.12,.11,.17l7,7c.07,.04,.13,.1,.2,.13,.08,.03,.16,.05,.24,.05h8c.25,0,.48-.15,.58-.39,.1-.23,.04-.5-.14-.68l-4-4s-.05-.03-.07-.05l10.07-10.07c.18-.18,.23-.45,.14-.68Zm-14.46,.24l-6.49,6.49V8.62h2.12l4.38,4.38Zm-10.61-.62l2.87-2.87v2.87h-2.87Zm14.05,12.07l2.93,2.93h-5.98l3-3s.03,.05,.05,.07Zm-4,2.12s-.03,.05-.05,.07l-5.63-5.63,7.38-7.38h11.23l-12.93,12.93Z"/>
</svg>