<svg id="b78b51e8-c7cb-48a0-964e-61a9fa1f2f61" data-name="Layer 1" xmlns="http://www.w3.org/2000/svg" viewBox="0 0 36 36">
  <title>Pass through icon - Black</title>
<desc>transparent, opacity, opaque, transparency, clear, see through, diagrams and graphs</desc>
<metadata><?xpacket begin="﻿" id="W5M0MpCehiHzreSzNTczkc9d"?>
<x:xmpmeta xmlns:x="adobe:ns:meta/" x:xmptk="Adobe XMP Core 8.0-c001 1.000000, 0000/00/00-00:00:00        ">
   <rdf:RDF xmlns:rdf="http://www.w3.org/1999/02/22-rdf-syntax-ns#">
      <rdf:Description rdf:about=""
            xmlns:xmp="http://ns.adobe.com/xap/1.0/"
            xmlns:dc="http://purl.org/dc/elements/1.1/"
            xmlns:cq="http://www.day.com/jcr/cq/1.0"
            xmlns:tiff="http://ns.adobe.com/tiff/1.0/">
         <xmp:rhcc-effective-on>2023-12-08T17:35:08.071Z</xmp:rhcc-effective-on>
         <xmp:rhcc-metadata-complete-moderator>pending</xmp:rhcc-metadata-complete-moderator>
         <xmp:rhcc-translation-id>TRA4d4c6bce-d1ff-4f92-8fa3-af65adf67d24</xmp:rhcc-translation-id>
         <xmp:brand-content-type>Icon</xmp:brand-content-type>
         <xmp:CreateDate>2023-12-08T17:35:08.071Z</xmp:CreateDate>
         <xmp:rhcc-effective-on-set-on-upload>true</xmp:rhcc-effective-on-set-on-upload>
         <xmp:rhcc-metadata-complete-uploader>pending</xmp:rhcc-metadata-complete-uploader>
         <xmp:rhcc-file-last-modified>2023-12-08T17:35:20.017Z</xmp:rhcc-file-last-modified>
         <xmp:rhcc-audience>rhcc-audience:internal</xmp:rhcc-audience>
         <xmp:rhcc-rights-restricted>no</xmp:rhcc-rights-restricted>
         <xmp:brand-content-subtype>Icon</xmp:brand-content-subtype>
         <xmp:rhcc-derivative-id>DER4d4c6bce-d1ff-4f92-8fa3-af65adf67d24</xmp:rhcc-derivative-id>
         <xmp:brand-logo-color>Black</xmp:brand-logo-color>
         <xmp:rhcc-notify-portal-subscribers-on-change>yes</xmp:rhcc-notify-portal-subscribers-on-change>
         <dc:format>image/svg+xml</dc:format>
         <dc:modified>2024-02-09T20:35:13.381Z</dc:modified>
         <dc:title>
            <rdf:Alt>
               <rdf:li xml:lang="x-default">Pass through icon - Black</rdf:li>
            </rdf:Alt>
         </dc:title>
         <dc:description>
            <rdf:Alt>
               <rdf:li xml:lang="x-default">transparent, opacity, opaque, transparency, clear, see through, diagrams and graphs</rdf:li>
            </rdf:Alt>
         </dc:description>
         <cq:lastReplicationAction_scene7>Activate</cq:lastReplicationAction_scene7>
         <cq:lastReplicationAction_publish>Activate</cq:lastReplicationAction_publish>
         <cq:lastReplicated_publish>2024-02-09T22:22:47.394Z</cq:lastReplicated_publish>
         <cq:lastReplicatedBy>workflow-process-service</cq:lastReplicatedBy>
         <cq:lastReplicationAction>Activate</cq:lastReplicationAction>
         <cq:lastReplicatedBy_publish>workflow-process-service</cq:lastReplicatedBy_publish>
         <cq:isDelivered>true</cq:isDelivered>
         <cq:lastReplicated>2024-02-09T22:22:47.394Z</cq:lastReplicated>
         <cq:lastReplicatedBy_scene7>workflow-process-service</cq:lastReplicatedBy_scene7>
         <cq:lastReplicated_scene7>2024-02-09T22:22:47.394Z</cq:lastReplicated_scene7>
         <tiff:ImageLength>36</tiff:ImageLength>
         <tiff:ImageWidth>36</tiff:ImageWidth>
      </rdf:Description>
   </rdf:RDF>
</x:xmpmeta>
                                                                                                    
                                                                                                    
                                                                                                    
                                                                                                    
                                                                                                    
                                                                                                    
                                                                                                    
                                                                                                    
                                                                                                    
                                                                                                    
                                 
<?xpacket end="w"?></metadata>
<path d="M15,23.38a.62.62,0,0,0,0,1.24A.62.62,0,0,0,15,23.38Zm0-12a.62.62,0,0,0,0,1.24A.62.62,0,0,0,15,11.38Zm3,12a.62.62,0,0,0,0,1.24A.62.62,0,0,0,18,23.38ZM12.44,11.56c-.57-.56-1.47.3-.88.88S13,12.12,12.44,11.56ZM12,20.37a.63.63,0,0,0,0,1.25A.63.63,0,0,0,12,20.37Zm0-3a.62.62,0,0,0,0,1.24A.62.62,0,0,0,12,17.38Zm0-3a.63.63,0,0,0,0,1.25A.63.63,0,0,0,12,14.38Zm6-3a.62.62,0,0,0,0,1.24A.62.62,0,0,0,18,11.38Zm3,12a.62.62,0,0,0,0,1.24A.62.62,0,0,0,21,23.38ZM23.37,15a.63.63,0,0,0,1.26,0A.63.63,0,0,0,23.37,15ZM31,11.38H24.62V5a.63.63,0,0,0-.18-.44A.59.59,0,0,0,24,4.38H5A.61.61,0,0,0,4.38,5V24a.63.63,0,0,0,.18.44.59.59,0,0,0,.44.18h6.38V31a.63.63,0,0,0,.62.63H31a.61.61,0,0,0,.62-.62c0-4.73,0-14.27,0-19A.61.61,0,0,0,31,11.38Zm-.62,19H12.62c0-1.59,0-4.77,0-6.36a.46.46,0,0,0-.09-.34.6.6,0,0,0-.53-.3H5.62V5.62H23.38c0,1.59,0,4.77,0,6.36a.54.54,0,0,0,.17.44.62.62,0,0,0,.47.21h6.36ZM24,17.37a.63.63,0,0,0,0,1.25A.63.63,0,0,0,24,17.37Zm-3-6a.62.62,0,0,0,0,1.24A.62.62,0,0,0,21,11.38Zm3,9a.62.62,0,0,0,0,1.24A.62.62,0,0,0,24,20.38Zm-.44,3.18a.62.62,0,0,0,.88.88A.62.62,0,0,0,23.56,23.56Z"/>
</svg>
