<svg id="ea48aa5e-17c9-4269-bf70-b64875ef71c0" data-name="Icon" xmlns="http://www.w3.org/2000/svg" viewBox="0 0 36 36"><title>Paw print icon - Black</title>
<desc>dog, cat, animal, tracks, pet insurance, hike, woods, explore, forest, trail, science and nature, pet</desc>
<metadata><?xpacket begin="﻿" id="W5M0MpCehiHzreSzNTczkc9d"?>
<x:xmpmeta xmlns:x="adobe:ns:meta/" x:xmptk="Adobe XMP Core 8.0-c001 1.000000, 0000/00/00-00:00:00        ">
   <rdf:RDF xmlns:rdf="http://www.w3.org/1999/02/22-rdf-syntax-ns#">
      <rdf:Description rdf:about=""
            xmlns:xmp="http://ns.adobe.com/xap/1.0/"
            xmlns:dc="http://purl.org/dc/elements/1.1/"
            xmlns:cq="http://www.day.com/jcr/cq/1.0"
            xmlns:tiff="http://ns.adobe.com/tiff/1.0/">
         <xmp:rhcc-effective-on>2023-12-08T17:41:14.572Z</xmp:rhcc-effective-on>
         <xmp:rhcc-metadata-complete-moderator>pending</xmp:rhcc-metadata-complete-moderator>
         <xmp:rhcc-translation-id>TRAce1ef297-745a-43f9-8381-133b08ef164b</xmp:rhcc-translation-id>
         <xmp:brand-content-type>Icon</xmp:brand-content-type>
         <xmp:CreateDate>2023-12-08T17:41:14.572Z</xmp:CreateDate>
         <xmp:rhcc-effective-on-set-on-upload>true</xmp:rhcc-effective-on-set-on-upload>
         <xmp:rhcc-metadata-complete-uploader>pending</xmp:rhcc-metadata-complete-uploader>
         <xmp:rhcc-file-last-modified>2023-12-08T17:42:23.199Z</xmp:rhcc-file-last-modified>
         <xmp:rhcc-audience>rhcc-audience:internal</xmp:rhcc-audience>
         <xmp:rhcc-rights-restricted>no</xmp:rhcc-rights-restricted>
         <xmp:brand-content-subtype>Icon</xmp:brand-content-subtype>
         <xmp:rhcc-derivative-id>DERce1ef297-745a-43f9-8381-133b08ef164b</xmp:rhcc-derivative-id>
         <xmp:brand-logo-color>Black</xmp:brand-logo-color>
         <xmp:rhcc-notify-portal-subscribers-on-change>yes</xmp:rhcc-notify-portal-subscribers-on-change>
         <dc:format>image/svg+xml</dc:format>
         <dc:modified>2024-02-09T20:26:29.780Z</dc:modified>
         <dc:title>
            <rdf:Alt>
               <rdf:li xml:lang="x-default">Paw print icon - Black</rdf:li>
            </rdf:Alt>
         </dc:title>
         <dc:description>
            <rdf:Alt>
               <rdf:li xml:lang="x-default">dog, cat, animal, tracks, pet insurance, hike, woods, explore, forest, trail, science and nature, pet</rdf:li>
            </rdf:Alt>
         </dc:description>
         <cq:lastReplicationAction_scene7>Activate</cq:lastReplicationAction_scene7>
         <cq:lastReplicationAction_publish>Activate</cq:lastReplicationAction_publish>
         <cq:lastReplicated_publish>2024-02-09T22:11:27.251Z</cq:lastReplicated_publish>
         <cq:lastReplicatedBy>workflow-process-service</cq:lastReplicatedBy>
         <cq:lastReplicationAction>Activate</cq:lastReplicationAction>
         <cq:lastReplicatedBy_publish>workflow-process-service</cq:lastReplicatedBy_publish>
         <cq:isDelivered>true</cq:isDelivered>
         <cq:lastReplicated>2024-02-09T22:11:27.251Z</cq:lastReplicated>
         <cq:lastReplicatedBy_scene7>workflow-process-service</cq:lastReplicatedBy_scene7>
         <cq:lastReplicated_scene7>2024-02-09T22:11:27.251Z</cq:lastReplicated_scene7>
         <tiff:ImageLength>36</tiff:ImageLength>
         <tiff:ImageWidth>36</tiff:ImageWidth>
      </rdf:Description>
   </rdf:RDF>
</x:xmpmeta>
                                                                                                    
                                                                                                    
                                                                                                    
                                                                                                    
                                                                                                    
                                                                                                    
                                                                                                    
                                                                                                    
                                                                                                    
                                                                                                    
                                 
<?xpacket end="w"?></metadata>
<path d="M9.18,10.18A2.74,2.74,0,0,0,4.5,12.12a2.71,2.71,0,0,0,.8,1.94l2,2a2.73,2.73,0,0,0,1.94.81,2.7,2.7,0,0,0,1.94-.81h0a2.73,2.73,0,0,0,0-3.88Zm1.12,5h0a1.54,1.54,0,0,1-2.12,0l-2-2a1.49,1.49,0,0,1-.43-1.06,1.47,1.47,0,0,1,1.49-1.49,1.48,1.48,0,0,1,1.06.43l2,2a1.52,1.52,0,0,1,.44,1.06A1.5,1.5,0,0,1,10.3,15.18Z"/><path d="M16.06,11.18h0a2.7,2.7,0,0,0,.81-1.94,2.73,2.73,0,0,0-.81-1.94l-2-2a2.8,2.8,0,0,0-3.88,0,2.75,2.75,0,0,0,0,3.88l2,2a2.73,2.73,0,0,0,3.88,0Zm-5-2.88a1.49,1.49,0,0,1,1.06-2.55,1.49,1.49,0,0,1,1.06.43l2,2a1.52,1.52,0,0,1,.44,1.06,1.5,1.5,0,0,1-.44,1.06h0a1.53,1.53,0,0,1-2.12,0Z"/><path d="M9.06,19.18a2.74,2.74,0,1,0-3.88,3.88l2,2a2.73,2.73,0,0,0,3.88,0h0a2.73,2.73,0,0,0,0-3.88Zm1.12,5h0a1.54,1.54,0,0,1-2.12,0l-2-2a1.5,1.5,0,0,1,2.12-2.12l2,2a1.52,1.52,0,0,1,.44,1.06A1.5,1.5,0,0,1,10.18,24.18Z"/><path d="M21.18,11.06a2.73,2.73,0,0,0,3.88,0h0a2.75,2.75,0,0,0,0-3.88l-2-2a2.74,2.74,0,0,0-3.88,3.88Zm-1.12-5a1.52,1.52,0,0,1,2.12,0l2,2a1.51,1.51,0,0,1,0,2.12h0a1.53,1.53,0,0,1-2.12,0l-2-2a1.5,1.5,0,0,1-.44-1.06A1.52,1.52,0,0,1,20.06,6.06Z"/><path d="M29.93,15.56a6.6,6.6,0,0,0-4.69-1.94h-7a4.62,4.62,0,0,0-4.62,4.62v7a6.63,6.63,0,0,0,11.31,4.69l5-5a6.63,6.63,0,0,0,0-9.37ZM29,24l-5,5a5.37,5.37,0,0,1-9.17-3.8v-7a3.37,3.37,0,0,1,3.37-3.37h7A5.37,5.37,0,0,1,29,24Z"/></svg>