<svg id="b0ae5094-6f96-4d2c-b2dd-5760feaa837a" data-name="Icon" xmlns="http://www.w3.org/2000/svg" viewBox="0 0 36 36">
  <title>Piggy bank icon - Black</title>
<desc>money, save, savings, bank, keep, change, coins, bills, nest egg, purchase, objects</desc>
<metadata><?xpacket begin="﻿" id="W5M0MpCehiHzreSzNTczkc9d"?>
<x:xmpmeta xmlns:x="adobe:ns:meta/" x:xmptk="Adobe XMP Core 8.0-c001 1.000000, 0000/00/00-00:00:00        ">
   <rdf:RDF xmlns:rdf="http://www.w3.org/1999/02/22-rdf-syntax-ns#">
      <rdf:Description rdf:about=""
            xmlns:xmp="http://ns.adobe.com/xap/1.0/"
            xmlns:dc="http://purl.org/dc/elements/1.1/"
            xmlns:cq="http://www.day.com/jcr/cq/1.0"
            xmlns:tiff="http://ns.adobe.com/tiff/1.0/">
         <xmp:rhcc-effective-on>2023-12-08T17:36:16.320Z</xmp:rhcc-effective-on>
         <xmp:rhcc-metadata-complete-moderator>pending</xmp:rhcc-metadata-complete-moderator>
         <xmp:rhcc-translation-id>TRA7ec4df8b-3bb2-4ee6-be7e-809f4ea8b8b4</xmp:rhcc-translation-id>
         <xmp:brand-content-type>Icon</xmp:brand-content-type>
         <xmp:CreateDate>2023-12-08T17:36:16.320Z</xmp:CreateDate>
         <xmp:rhcc-effective-on-set-on-upload>true</xmp:rhcc-effective-on-set-on-upload>
         <xmp:rhcc-metadata-complete-uploader>pending</xmp:rhcc-metadata-complete-uploader>
         <xmp:rhcc-file-last-modified>2023-12-08T17:38:13.723Z</xmp:rhcc-file-last-modified>
         <xmp:rhcc-audience>rhcc-audience:internal</xmp:rhcc-audience>
         <xmp:rhcc-rights-restricted>no</xmp:rhcc-rights-restricted>
         <xmp:brand-content-subtype>Icon</xmp:brand-content-subtype>
         <xmp:rhcc-derivative-id>DER7ec4df8b-3bb2-4ee6-be7e-809f4ea8b8b4</xmp:rhcc-derivative-id>
         <xmp:brand-logo-color>Black</xmp:brand-logo-color>
         <xmp:rhcc-notify-portal-subscribers-on-change>yes</xmp:rhcc-notify-portal-subscribers-on-change>
         <dc:format>image/svg+xml</dc:format>
         <dc:modified>2024-02-09T20:32:13.241Z</dc:modified>
         <dc:title>
            <rdf:Alt>
               <rdf:li xml:lang="x-default">Piggy bank icon - Black</rdf:li>
            </rdf:Alt>
         </dc:title>
         <dc:description>
            <rdf:Alt>
               <rdf:li xml:lang="x-default">money, save, savings, bank, keep, change, coins, bills, nest egg, purchase, objects</rdf:li>
            </rdf:Alt>
         </dc:description>
         <cq:lastReplicationAction_scene7>Activate</cq:lastReplicationAction_scene7>
         <cq:lastReplicationAction_publish>Activate</cq:lastReplicationAction_publish>
         <cq:lastReplicated_publish>2024-02-09T22:19:38.458Z</cq:lastReplicated_publish>
         <cq:lastReplicatedBy>workflow-process-service</cq:lastReplicatedBy>
         <cq:lastReplicationAction>Activate</cq:lastReplicationAction>
         <cq:lastReplicatedBy_publish>workflow-process-service</cq:lastReplicatedBy_publish>
         <cq:isDelivered>true</cq:isDelivered>
         <cq:lastReplicated>2024-02-09T22:19:38.458Z</cq:lastReplicated>
         <cq:lastReplicatedBy_scene7>workflow-process-service</cq:lastReplicatedBy_scene7>
         <cq:lastReplicated_scene7>2024-02-09T22:19:38.458Z</cq:lastReplicated_scene7>
         <tiff:ImageLength>36</tiff:ImageLength>
         <tiff:ImageWidth>36</tiff:ImageWidth>
      </rdf:Description>
   </rdf:RDF>
</x:xmpmeta>
                                                                                                    
                                                                                                    
                                                                                                    
                                                                                                    
                                                                                                    
                                                                                                    
                                                                                                    
                                                                                                    
                                                                                                    
                                                                                                    
                                 
<?xpacket end="w"?></metadata>
<g>
    <path d="M32.62,16a.62.62,0,1,0-1.24,0,2.39,2.39,0,0,1-1.77,2.29,9.61,9.61,0,0,0-4-7.43,3.63,3.63,0,0,0-6.19-2.4,12,12,0,0,0-3.05,0A4.63,4.63,0,0,0,12,5.38a.62.62,0,0,0-.62.62v4.18A10.85,10.85,0,0,0,7.8,13.66a3.07,3.07,0,0,0-1.3-.28A3.12,3.12,0,0,0,3.38,16.5v3A3.12,3.12,0,0,0,6.5,22.62a3.32,3.32,0,0,0,.83-.11,10.16,10.16,0,0,0,2.05,2.76V30a.62.62,0,0,0,.62.62h5a.62.62,0,0,0,.62-.62V28.41a13.13,13.13,0,0,0,4.76,0V30a.62.62,0,0,0,.62.62h5a.62.62,0,0,0,.62-.62V25.28a9.43,9.43,0,0,0,2.93-5.71A3.62,3.62,0,0,0,32.62,16ZM22,8.62a2.38,2.38,0,0,1,.71,4.64A7.75,7.75,0,0,0,19.89,12,2.37,2.37,0,0,1,22,8.62Zm3.58,15.93a.6.6,0,0,0-.2.46v4.37H21.62V27.63a.62.62,0,0,0-.23-.49.61.61,0,0,0-.54-.11,11.94,11.94,0,0,1-5.7,0,.61.61,0,0,0-.77.6v1.75H10.62V25a.64.64,0,0,0-.21-.46,8.81,8.81,0,0,1-2.19-3.08.6.6,0,0,0-.36-.34.62.62,0,0,0-.5,0A1.89,1.89,0,0,1,4.62,19.5v-3A1.89,1.89,0,0,1,6.5,14.62a1.86,1.86,0,0,1,1.14.4.66.66,0,0,0,.51.12.65.65,0,0,0,.42-.32,9.45,9.45,0,0,1,3.74-3.73.63.63,0,0,0,.31-.55V6.68a3.39,3.39,0,0,1,2.69,2.64.61.61,0,0,0,.71.49,11.82,11.82,0,0,1,2.62-.17,3.58,3.58,0,0,0-.16,2.22c-.46-.09-1.11,0-1.1.59a.62.62,0,0,0,.62.63,6.72,6.72,0,0,1,5.49,2.66.62.62,0,0,0,1-.71,6.9,6.9,0,0,0-.74-.88,3.66,3.66,0,0,0,1.62-1.87,8.25,8.25,0,0,1,3,6.22A8.22,8.22,0,0,1,25.58,24.55Z"/>
    <circle cx="12" cy="15" r="0.62"/>
  </g>
</svg>
