<svg id="fc7cffbd-bc9f-4e74-b356-da95d768c47a" data-name="Icon" xmlns="http://www.w3.org/2000/svg" viewBox="0 0 36 36">
  <title>Planning icon - Black</title>
<desc>agile, rally, workfront, projects, management, work, tasks, assignments, diagrams and graphs</desc>
<metadata><?xpacket begin="﻿" id="W5M0MpCehiHzreSzNTczkc9d"?>
<x:xmpmeta xmlns:x="adobe:ns:meta/" x:xmptk="Adobe XMP Core 8.0-c001 1.000000, 0000/00/00-00:00:00        ">
   <rdf:RDF xmlns:rdf="http://www.w3.org/1999/02/22-rdf-syntax-ns#">
      <rdf:Description rdf:about=""
            xmlns:xmp="http://ns.adobe.com/xap/1.0/"
            xmlns:dc="http://purl.org/dc/elements/1.1/"
            xmlns:cq="http://www.day.com/jcr/cq/1.0"
            xmlns:tiff="http://ns.adobe.com/tiff/1.0/">
         <xmp:rhcc-effective-on>2023-12-08T17:35:09.270Z</xmp:rhcc-effective-on>
         <xmp:rhcc-metadata-complete-moderator>pending</xmp:rhcc-metadata-complete-moderator>
         <xmp:rhcc-translation-id>TRA771d211f-3898-4bb7-9fa7-4ac05b51423e</xmp:rhcc-translation-id>
         <xmp:brand-content-type>Icon</xmp:brand-content-type>
         <xmp:CreateDate>2023-12-08T17:35:09.270Z</xmp:CreateDate>
         <xmp:rhcc-effective-on-set-on-upload>true</xmp:rhcc-effective-on-set-on-upload>
         <xmp:rhcc-metadata-complete-uploader>pending</xmp:rhcc-metadata-complete-uploader>
         <xmp:rhcc-file-last-modified>2023-12-08T17:35:19.892Z</xmp:rhcc-file-last-modified>
         <xmp:rhcc-audience>rhcc-audience:internal</xmp:rhcc-audience>
         <xmp:rhcc-rights-restricted>no</xmp:rhcc-rights-restricted>
         <xmp:brand-content-subtype>Icon</xmp:brand-content-subtype>
         <xmp:rhcc-derivative-id>DER771d211f-3898-4bb7-9fa7-4ac05b51423e</xmp:rhcc-derivative-id>
         <xmp:brand-logo-color>Black</xmp:brand-logo-color>
         <xmp:rhcc-notify-portal-subscribers-on-change>yes</xmp:rhcc-notify-portal-subscribers-on-change>
         <dc:format>image/svg+xml</dc:format>
         <dc:modified>2024-02-09T20:35:11.806Z</dc:modified>
         <dc:title>
            <rdf:Alt>
               <rdf:li xml:lang="x-default">Planning icon - Black</rdf:li>
            </rdf:Alt>
         </dc:title>
         <dc:description>
            <rdf:Alt>
               <rdf:li xml:lang="x-default">agile, rally, workfront, projects, management, work, tasks, assignments, diagrams and graphs</rdf:li>
            </rdf:Alt>
         </dc:description>
         <cq:lastReplicationAction_scene7>Activate</cq:lastReplicationAction_scene7>
         <cq:lastReplicationAction_publish>Activate</cq:lastReplicationAction_publish>
         <cq:lastReplicated_publish>2024-02-09T22:22:45.394Z</cq:lastReplicated_publish>
         <cq:lastReplicatedBy>workflow-process-service</cq:lastReplicatedBy>
         <cq:lastReplicationAction>Activate</cq:lastReplicationAction>
         <cq:lastReplicatedBy_publish>workflow-process-service</cq:lastReplicatedBy_publish>
         <cq:isDelivered>true</cq:isDelivered>
         <cq:lastReplicated>2024-02-09T22:22:45.394Z</cq:lastReplicated>
         <cq:lastReplicatedBy_scene7>workflow-process-service</cq:lastReplicatedBy_scene7>
         <cq:lastReplicated_scene7>2024-02-09T22:22:45.394Z</cq:lastReplicated_scene7>
         <tiff:ImageLength>36</tiff:ImageLength>
         <tiff:ImageWidth>36</tiff:ImageWidth>
      </rdf:Description>
   </rdf:RDF>
</x:xmpmeta>
                                                                                                    
                                                                                                    
                                                                                                    
                                                                                                    
                                                                                                    
                                                                                                    
                                                                                                    
                                                                                                    
                                                                                                    
                                                                                                    
                                 
<?xpacket end="w"?></metadata>
<g>
    <path d="M31,25.38c-.92,0-.55,1.28-.62,2H25.62V22.62H29a.62.62,0,0,0,0-1.24H25a.62.62,0,0,0-.62.62v6a.62.62,0,0,0,.62.62h6a.62.62,0,0,0,.62-.62V26A.62.62,0,0,0,31,25.38Z"/>
    <path d="M27.44,24.56c-.56-.58-1.46.32-.88.88l1,1a.61.61,0,0,0,.88,0l3-3c.58-.56-.32-1.47-.88-.88L28,25.12Z"/>
    <path d="M31,4.38H25a.62.62,0,0,0-.62.62V18a.62.62,0,0,0,.62.62h6a.62.62,0,0,0,.62-.62V5A.62.62,0,0,0,31,4.38Zm-.62,13H25.62V5.62h4.76Z"/>
    <path d="M11,4.38H5A.62.62,0,0,0,4.38,5V19a.62.62,0,0,0,.62.62h6a.62.62,0,0,0,.62-.62V5A.62.62,0,0,0,11,4.38Zm-.62,14H5.62V5.62h4.76Z"/>
    <path d="M11,21.38H5a.62.62,0,0,0-.62.62v6a.62.62,0,0,0,.62.62h6a.62.62,0,0,0,.62-.62V22A.62.62,0,0,0,11,21.38Zm-.62,6H5.62V22.62h4.76Z"/>
    <path d="M21,16.38H15a.62.62,0,0,0-.62.62V31a.62.62,0,0,0,.62.62h6a.62.62,0,0,0,.62-.62V17A.62.62,0,0,0,21,16.38Zm-.62,14H15.62V17.62h4.76Z"/>
    <path d="M21,7.38H15a.62.62,0,0,0-.62.62v6a.62.62,0,0,0,.62.62h6a.62.62,0,0,0,.62-.62V8A.62.62,0,0,0,21,7.38Zm-.62,6H15.62V8.62h4.76Z"/>
  </g>
</svg>
