<?xml version="1.0" encoding="UTF-8"?><svg id="Icon" xmlns="http://www.w3.org/2000/svg" viewBox="0 0 36 36"><title>Product trial icon - Black</title>
<desc>test, application, run, project, code, check mark, complete, execute, software and technologies</desc>
<metadata><?xpacket begin="﻿" id="W5M0MpCehiHzreSzNTczkc9d"?>
<x:xmpmeta xmlns:x="adobe:ns:meta/" x:xmptk="Adobe XMP Core 8.0-c001 1.000000, 0000/00/00-00:00:00        ">
   <rdf:RDF xmlns:rdf="http://www.w3.org/1999/02/22-rdf-syntax-ns#">
      <rdf:Description rdf:about=""
            xmlns:xmp="http://ns.adobe.com/xap/1.0/"
            xmlns:dc="http://purl.org/dc/elements/1.1/"
            xmlns:cq="http://www.day.com/jcr/cq/1.0"
            xmlns:tiff="http://ns.adobe.com/tiff/1.0/">
         <xmp:rhcc-effective-on>2023-12-08T17:44:03.434Z</xmp:rhcc-effective-on>
         <xmp:rhcc-metadata-complete-moderator>pending</xmp:rhcc-metadata-complete-moderator>
         <xmp:rhcc-translation-id>TRA1aa3a6ea-9346-496c-9828-67ba16492568</xmp:rhcc-translation-id>
         <xmp:brand-content-type>Icon</xmp:brand-content-type>
         <xmp:CreateDate>2023-12-08T17:44:03.434Z</xmp:CreateDate>
         <xmp:rhcc-effective-on-set-on-upload>true</xmp:rhcc-effective-on-set-on-upload>
         <xmp:rhcc-metadata-complete-uploader>pending</xmp:rhcc-metadata-complete-uploader>
         <xmp:rhcc-file-last-modified>2023-12-08T17:44:18.667Z</xmp:rhcc-file-last-modified>
         <xmp:rhcc-audience>rhcc-audience:internal</xmp:rhcc-audience>
         <xmp:rhcc-rights-restricted>no</xmp:rhcc-rights-restricted>
         <xmp:brand-content-subtype>Icon</xmp:brand-content-subtype>
         <xmp:rhcc-derivative-id>DER1aa3a6ea-9346-496c-9828-67ba16492568</xmp:rhcc-derivative-id>
         <xmp:brand-logo-color>Black</xmp:brand-logo-color>
         <xmp:rhcc-notify-portal-subscribers-on-change>yes</xmp:rhcc-notify-portal-subscribers-on-change>
         <dc:format>image/svg+xml</dc:format>
         <dc:modified>2024-02-09T20:18:06.530Z</dc:modified>
         <dc:title>
            <rdf:Alt>
               <rdf:li xml:lang="x-default">Product trial icon - Black</rdf:li>
            </rdf:Alt>
         </dc:title>
         <dc:description>
            <rdf:Alt>
               <rdf:li xml:lang="x-default">test, application, run, project, code, check mark, complete, execute, software and technologies</rdf:li>
            </rdf:Alt>
         </dc:description>
         <cq:lastReplicationAction_scene7>Activate</cq:lastReplicationAction_scene7>
         <cq:lastReplicationAction_publish>Activate</cq:lastReplicationAction_publish>
         <cq:lastReplicated_publish>2024-02-09T21:55:24.888Z</cq:lastReplicated_publish>
         <cq:lastReplicatedBy>workflow-process-service</cq:lastReplicatedBy>
         <cq:lastReplicationAction>Activate</cq:lastReplicationAction>
         <cq:lastReplicatedBy_publish>workflow-process-service</cq:lastReplicatedBy_publish>
         <cq:isDelivered>true</cq:isDelivered>
         <cq:lastReplicated>2024-02-09T21:55:24.888Z</cq:lastReplicated>
         <cq:lastReplicatedBy_scene7>workflow-process-service</cq:lastReplicatedBy_scene7>
         <cq:lastReplicated_scene7>2024-02-09T21:55:24.888Z</cq:lastReplicated_scene7>
         <tiff:ImageLength>36</tiff:ImageLength>
         <tiff:ImageWidth>36</tiff:ImageWidth>
      </rdf:Description>
   </rdf:RDF>
</x:xmpmeta>
                                                                                                    
                                                                                                    
                                                                                                    
                                                                                                    
                                                                                                    
                                                                                                    
                                                                                                    
                                                                                                    
                                                                                                    
                                                                                                    
                                 
<?xpacket end="w"?></metadata>
<path d="M31,27.042c-.3452,0-.625,.2803-.625,.625v2.708h-8.75v-8.75h6.0415c.3452,0,.625-.2803,.625-.625s-.2798-.625-.625-.625h-6.6665c-.3452,0-.625,.2803-.625,.625v10c0,.3447,.2798,.625,.625,.625h10c.3452,0,.625-.2803,.625-.625v-3.333c0-.3447-.2798-.625-.625-.625Z"/><path d="M30.5581,22.2246l-4.5585,4.5585-1.2242-1.2245c-.2441-.2441-.6396-.2451-.8838-.001s-.2441,.6406,0,.8838l1.6646,1.665c.0009,.0009,.0011,.0021,.002,.0029,.1221,.1221,.2817,.1826,.4419,.1826s.3198-.0605,.4419-.1826l5-5c.2441-.2441,.2441-.6406,0-.8848s-.6396-.2441-.8838,0Z"/><path d="M31,4.375H5c-.3452,0-.625,.2798-.625,.625V31c0,.3447,.2798,.625,.625,.625h12c.3452,0,.625-.2803,.625-.625s-.2798-.625-.625-.625H5.625V5.625H30.375v12.375c0,.3447,.2798,.625,.625,.625s.625-.2803,.625-.625V5c0-.3452-.2798-.625-.625-.625Z"/><path d="M27.4399,9.4395c.1201-.1201,.1899-.2793,.1899-.4395s-.0698-.3203-.1899-.4404c-.23-.2295-.6499-.2295-.8799,0-.1201,.1201-.1904,.2803-.1904,.4404s.0703,.3193,.1904,.4395c.1196,.1201,.2798,.1904,.4399,.1904,.1597,0,.3296-.0703,.4399-.1904Z"/><path d="M25.2397,9.5801c.0801-.0303,.1499-.0801,.2002-.1406,.1201-.1094,.1899-.2695,.1899-.4395,0-.1602-.0698-.3301-.1899-.4404-.0503-.0596-.1201-.1094-.2002-.1396-.23-.0898-.5098-.04-.6797,.1396-.1201,.1104-.1802,.2803-.1802,.4404,0,.1699,.0601,.3301,.1802,.4395,.1196,.1201,.2798,.1904,.4399,.1904,.0796,0,.1597-.0205,.2397-.0498Z"/></svg>