<svg id="a9fa6f01-a33f-4259-9a70-93798d46e104" data-name="Icon" xmlns="http://www.w3.org/2000/svg" viewBox="0 0 36 36">
  <title>progression icon - Black</title>
<desc>path, process, follow, plan, movement, curve, arrow, line, along, diagrams and graphs</desc>
<metadata><?xpacket begin="﻿" id="W5M0MpCehiHzreSzNTczkc9d"?>
<x:xmpmeta xmlns:x="adobe:ns:meta/" x:xmptk="Adobe XMP Core 8.0-c001 1.000000, 0000/00/00-00:00:00        ">
   <rdf:RDF xmlns:rdf="http://www.w3.org/1999/02/22-rdf-syntax-ns#">
      <rdf:Description rdf:about=""
            xmlns:xmp="http://ns.adobe.com/xap/1.0/"
            xmlns:dc="http://purl.org/dc/elements/1.1/"
            xmlns:cq="http://www.day.com/jcr/cq/1.0"
            xmlns:tiff="http://ns.adobe.com/tiff/1.0/">
         <xmp:rhcc-effective-on>2023-12-08T17:35:10.416Z</xmp:rhcc-effective-on>
         <xmp:rhcc-metadata-complete-moderator>pending</xmp:rhcc-metadata-complete-moderator>
         <xmp:rhcc-translation-id>TRAb7ce0a1c-ad91-44bb-bd98-06e57b709299</xmp:rhcc-translation-id>
         <xmp:brand-content-type>Icon</xmp:brand-content-type>
         <xmp:CreateDate>2023-12-08T17:35:10.416Z</xmp:CreateDate>
         <xmp:rhcc-effective-on-set-on-upload>true</xmp:rhcc-effective-on-set-on-upload>
         <xmp:rhcc-metadata-complete-uploader>pending</xmp:rhcc-metadata-complete-uploader>
         <xmp:rhcc-file-last-modified>2023-12-08T17:35:20.516Z</xmp:rhcc-file-last-modified>
         <xmp:rhcc-audience>rhcc-audience:internal</xmp:rhcc-audience>
         <xmp:rhcc-rights-restricted>no</xmp:rhcc-rights-restricted>
         <xmp:brand-content-subtype>Icon</xmp:brand-content-subtype>
         <xmp:rhcc-derivative-id>DERb7ce0a1c-ad91-44bb-bd98-06e57b709299</xmp:rhcc-derivative-id>
         <xmp:brand-logo-color>Black</xmp:brand-logo-color>
         <xmp:rhcc-notify-portal-subscribers-on-change>yes</xmp:rhcc-notify-portal-subscribers-on-change>
         <dc:format>image/svg+xml</dc:format>
         <dc:modified>2024-02-09T20:35:32.269Z</dc:modified>
         <dc:title>
            <rdf:Alt>
               <rdf:li xml:lang="x-default">progression icon - Black</rdf:li>
            </rdf:Alt>
         </dc:title>
         <dc:description>
            <rdf:Alt>
               <rdf:li xml:lang="x-default">path, process, follow, plan, movement, curve, arrow, line, along, diagrams and graphs</rdf:li>
            </rdf:Alt>
         </dc:description>
         <cq:lastReplicationAction_scene7>Activate</cq:lastReplicationAction_scene7>
         <cq:lastReplicationAction_publish>Activate</cq:lastReplicationAction_publish>
         <cq:lastReplicated_publish>2024-02-09T22:23:05.656Z</cq:lastReplicated_publish>
         <cq:lastReplicatedBy>workflow-process-service</cq:lastReplicatedBy>
         <cq:lastReplicationAction>Activate</cq:lastReplicationAction>
         <cq:lastReplicatedBy_publish>workflow-process-service</cq:lastReplicatedBy_publish>
         <cq:isDelivered>true</cq:isDelivered>
         <cq:lastReplicated>2024-02-09T22:23:05.656Z</cq:lastReplicated>
         <cq:lastReplicatedBy_scene7>workflow-process-service</cq:lastReplicatedBy_scene7>
         <cq:lastReplicated_scene7>2024-02-09T22:23:05.656Z</cq:lastReplicated_scene7>
         <tiff:ImageLength>36</tiff:ImageLength>
         <tiff:ImageWidth>36</tiff:ImageWidth>
      </rdf:Description>
   </rdf:RDF>
</x:xmpmeta>
                                                                                                    
                                                                                                    
                                                                                                    
                                                                                                    
                                                                                                    
                                                                                                    
                                                                                                    
                                                                                                    
                                                                                                    
                                                                                                    
                                 
<?xpacket end="w"?></metadata>
<g>
    <path d="M11.62,11V5A.62.62,0,0,0,11,4.38H5A.62.62,0,0,0,4.38,5v6a.62.62,0,0,0,.62.62h6A.62.62,0,0,0,11.62,11Zm-1.24-.62H5.62V5.62h4.76Z"/>
    <path d="M31,26.38a.62.62,0,0,0-.62.62v3.38H19.62V19.62H27a.62.62,0,0,0,0-1.24H19a.62.62,0,0,0-.62.62V31a.62.62,0,0,0,.62.62H31a.62.62,0,0,0,.62-.62V27A.62.62,0,0,0,31,26.38Z"/>
    <path d="M23.44,24.56c-.56-.58-1.47.32-.88.88l2,2a.61.61,0,0,0,.88,0l6-6c.58-.56-.31-1.47-.88-.88L25,26.12Z"/>
    <path d="M16.51,15.62H22a4.13,4.13,0,0,0,0-8.25H14a.62.62,0,0,0,0,1.24h8a2.88,2.88,0,0,1,0,5.75H16.51l.93-.94c.58-.56-.32-1.47-.88-.88l-2,2a.64.64,0,0,0,0,.88l2,2a.62.62,0,0,0,.88-.88Z"/>
    <path d="M16.61,22.92c.1-.27-1.84-2-2.17-2.36-.56-.58-1.46.32-.88.88l.93.94H10a3.38,3.38,0,0,1,0-6.75h2a.62.62,0,0,0,0-1.24H10c-6.11.19-6.11,9,0,9.25h4.49l-.93.94a.62.62,0,0,0,.88.88l2-2A.6.6,0,0,0,16.61,22.92Z"/>
  </g>
</svg>
