<?xml version="1.0" encoding="UTF-8"?><svg id="a" xmlns="http://www.w3.org/2000/svg" viewBox="0 0 36 36"><title>Rainbow icon - Black</title>
<desc>arch, rain, sun, sunshine, colors, colorful, LGBTQ+, sky, weather, clouds, science and nature</desc>
<metadata><?xpacket begin="﻿" id="W5M0MpCehiHzreSzNTczkc9d"?>
<x:xmpmeta xmlns:x="adobe:ns:meta/" x:xmptk="Adobe XMP Core 8.0-c001 1.000000, 0000/00/00-00:00:00        ">
   <rdf:RDF xmlns:rdf="http://www.w3.org/1999/02/22-rdf-syntax-ns#">
      <rdf:Description rdf:about=""
            xmlns:xmp="http://ns.adobe.com/xap/1.0/"
            xmlns:dc="http://purl.org/dc/elements/1.1/"
            xmlns:cq="http://www.day.com/jcr/cq/1.0"
            xmlns:tiff="http://ns.adobe.com/tiff/1.0/">
         <xmp:rhcc-effective-on>2023-12-08T17:41:15.959Z</xmp:rhcc-effective-on>
         <xmp:rhcc-metadata-complete-moderator>pending</xmp:rhcc-metadata-complete-moderator>
         <xmp:rhcc-translation-id>TRAcb271c2e-31e9-4882-a90b-c4e4513828a4</xmp:rhcc-translation-id>
         <xmp:brand-content-type>Icon</xmp:brand-content-type>
         <xmp:CreateDate>2023-12-08T17:41:15.959Z</xmp:CreateDate>
         <xmp:rhcc-effective-on-set-on-upload>true</xmp:rhcc-effective-on-set-on-upload>
         <xmp:rhcc-metadata-complete-uploader>pending</xmp:rhcc-metadata-complete-uploader>
         <xmp:rhcc-file-last-modified>2023-12-08T17:42:22.308Z</xmp:rhcc-file-last-modified>
         <xmp:rhcc-audience>rhcc-audience:internal</xmp:rhcc-audience>
         <xmp:rhcc-rights-restricted>no</xmp:rhcc-rights-restricted>
         <xmp:brand-content-subtype>Icon</xmp:brand-content-subtype>
         <xmp:rhcc-derivative-id>DERcb271c2e-31e9-4882-a90b-c4e4513828a4</xmp:rhcc-derivative-id>
         <xmp:brand-logo-color>Black</xmp:brand-logo-color>
         <xmp:rhcc-notify-portal-subscribers-on-change>yes</xmp:rhcc-notify-portal-subscribers-on-change>
         <dc:format>image/svg+xml</dc:format>
         <dc:modified>2024-02-09T20:26:28.817Z</dc:modified>
         <dc:title>
            <rdf:Alt>
               <rdf:li xml:lang="x-default">Rainbow icon - Black</rdf:li>
            </rdf:Alt>
         </dc:title>
         <dc:description>
            <rdf:Alt>
               <rdf:li xml:lang="x-default">arch, rain, sun, sunshine, colors, colorful, LGBTQ+, sky, weather, clouds, science and nature</rdf:li>
            </rdf:Alt>
         </dc:description>
         <cq:lastReplicationAction_scene7>Activate</cq:lastReplicationAction_scene7>
         <cq:lastReplicationAction_publish>Activate</cq:lastReplicationAction_publish>
         <cq:lastReplicated_publish>2024-02-09T22:11:25.276Z</cq:lastReplicated_publish>
         <cq:lastReplicatedBy>workflow-process-service</cq:lastReplicatedBy>
         <cq:lastReplicationAction>Activate</cq:lastReplicationAction>
         <cq:lastReplicatedBy_publish>workflow-process-service</cq:lastReplicatedBy_publish>
         <cq:isDelivered>true</cq:isDelivered>
         <cq:lastReplicated>2024-02-09T22:11:25.276Z</cq:lastReplicated>
         <cq:lastReplicatedBy_scene7>workflow-process-service</cq:lastReplicatedBy_scene7>
         <cq:lastReplicated_scene7>2024-02-09T22:11:25.276Z</cq:lastReplicated_scene7>
         <tiff:ImageLength>36</tiff:ImageLength>
         <tiff:ImageWidth>36</tiff:ImageWidth>
      </rdf:Description>
   </rdf:RDF>
</x:xmpmeta>
                                                                                                    
                                                                                                    
                                                                                                    
                                                                                                    
                                                                                                    
                                                                                                    
                                                                                                    
                                                                                                    
                                                                                                    
                                                                                                    
                                 
<?xpacket end="w"?></metadata>
<path d="m18,8.375c-8.0645,0-14.625,6.5605-14.625,14.625v2c0,.3447.2798.625.625.625s.625-.2803.625-.625v-2c0-7.375,6-13.375,13.375-13.375s13.375,6,13.375,13.375v2c0,.3447.2798.625.625.625s.625-.2803.625-.625v-2c0-8.0645-6.5605-14.625-14.625-14.625Z"/><path d="m18,11.375c-6.4102,0-11.625,5.2148-11.625,11.625v2c0,.3447.2798.625.625.625s.625-.2803.625-.625v-2c0-5.7207,4.6543-10.375,10.375-10.375s10.375,4.6543,10.375,10.375v2c0,.3447.2798.625.625.625s.625-.2803.625-.625v-2c0-6.4102-5.2148-11.625-11.625-11.625Z"/><path d="m18,14.375c-4.7559,0-8.625,3.8691-8.625,8.625v2c0,.3447.2798.625.625.625s.625-.2803.625-.625v-2c0-4.0664,3.3086-7.375,7.375-7.375s7.375,3.3086,7.375,7.375v2c0,.3447.2798.625.625.625s.625-.2803.625-.625v-2c0-4.7559-3.8691-8.625-8.625-8.625Z"/><path d="m18,17.375c-3.1016,0-5.625,2.5234-5.625,5.625v2c0,.3447.2798.625.625.625s.625-.2803.625-.625v-2c0-2.4121,1.9624-4.375,4.375-4.375s4.375,1.9629,4.375,4.375v2c0,.3447.2798.625.625.625s.625-.2803.625-.625v-2c0-3.1016-2.5234-5.625-5.625-5.625Z"/></svg>