<svg id="adec750a-e079-4da1-b435-717c6dcfeb5e" data-name="Icon" xmlns="http://www.w3.org/2000/svg" viewBox="0 0 36 36">
  <title>Recycle icon - Black</title>
<desc>reuse, compost, trash, arrows, symbol, glass, paper, shapes and signage</desc>
<metadata><?xpacket begin="﻿" id="W5M0MpCehiHzreSzNTczkc9d"?>
<x:xmpmeta xmlns:x="adobe:ns:meta/" x:xmptk="Adobe XMP Core 8.0-c001 1.000000, 0000/00/00-00:00:00        ">
   <rdf:RDF xmlns:rdf="http://www.w3.org/1999/02/22-rdf-syntax-ns#">
      <rdf:Description rdf:about=""
            xmlns:xmp="http://ns.adobe.com/xap/1.0/"
            xmlns:dc="http://purl.org/dc/elements/1.1/"
            xmlns:cq="http://www.day.com/jcr/cq/1.0"
            xmlns:tiff="http://ns.adobe.com/tiff/1.0/">
         <xmp:rhcc-effective-on>2023-12-08T17:38:15.754Z</xmp:rhcc-effective-on>
         <xmp:rhcc-metadata-complete-moderator>pending</xmp:rhcc-metadata-complete-moderator>
         <xmp:rhcc-translation-id>TRA2b8d0b13-a9b1-45da-9669-45a44c016d15</xmp:rhcc-translation-id>
         <xmp:brand-content-type>Icon</xmp:brand-content-type>
         <xmp:CreateDate>2023-12-08T17:38:15.754Z</xmp:CreateDate>
         <xmp:rhcc-effective-on-set-on-upload>true</xmp:rhcc-effective-on-set-on-upload>
         <xmp:rhcc-metadata-complete-uploader>pending</xmp:rhcc-metadata-complete-uploader>
         <xmp:rhcc-file-last-modified>2023-12-08T17:40:50.205Z</xmp:rhcc-file-last-modified>
         <xmp:rhcc-audience>rhcc-audience:internal</xmp:rhcc-audience>
         <xmp:rhcc-rights-restricted>no</xmp:rhcc-rights-restricted>
         <xmp:brand-content-subtype>Icon</xmp:brand-content-subtype>
         <xmp:rhcc-derivative-id>DER2b8d0b13-a9b1-45da-9669-45a44c016d15</xmp:rhcc-derivative-id>
         <xmp:brand-logo-color>Black</xmp:brand-logo-color>
         <xmp:rhcc-notify-portal-subscribers-on-change>yes</xmp:rhcc-notify-portal-subscribers-on-change>
         <dc:format>image/svg+xml</dc:format>
         <dc:modified>2024-02-09T20:28:36.826Z</dc:modified>
         <dc:title>
            <rdf:Alt>
               <rdf:li xml:lang="x-default">Recycle icon - Black</rdf:li>
            </rdf:Alt>
         </dc:title>
         <dc:description>
            <rdf:Alt>
               <rdf:li xml:lang="x-default">reuse, compost, trash, arrows, symbol, glass, paper, shapes and signage</rdf:li>
            </rdf:Alt>
         </dc:description>
         <cq:lastReplicationAction_scene7>Activate</cq:lastReplicationAction_scene7>
         <cq:lastReplicationAction_publish>Activate</cq:lastReplicationAction_publish>
         <cq:lastReplicated_publish>2024-02-09T22:15:28.096Z</cq:lastReplicated_publish>
         <cq:lastReplicatedBy>workflow-process-service</cq:lastReplicatedBy>
         <cq:lastReplicationAction>Activate</cq:lastReplicationAction>
         <cq:lastReplicatedBy_publish>workflow-process-service</cq:lastReplicatedBy_publish>
         <cq:isDelivered>true</cq:isDelivered>
         <cq:lastReplicated>2024-02-09T22:15:28.096Z</cq:lastReplicated>
         <cq:lastReplicatedBy_scene7>workflow-process-service</cq:lastReplicatedBy_scene7>
         <cq:lastReplicated_scene7>2024-02-09T22:15:28.096Z</cq:lastReplicated_scene7>
         <tiff:ImageLength>36</tiff:ImageLength>
         <tiff:ImageWidth>36</tiff:ImageWidth>
      </rdf:Description>
   </rdf:RDF>
</x:xmpmeta>
                                                                                                    
                                                                                                    
                                                                                                    
                                                                                                    
                                                                                                    
                                                                                                    
                                                                                                    
                                                                                                    
                                                                                                    
                                                                                                    
                                 
<?xpacket end="w"?></metadata>
<g>
    <path d="M14,27.38H7a1.64,1.64,0,0,1-1.39-2.47l3.18-5.29.63,2.53a.63.63,0,0,0,1.22-.3l-1-4a.63.63,0,0,0-.52-.47H8.85l-4,1A.63.63,0,0,0,5,19.62h.15L7.69,19l-3.18,5.3A2.89,2.89,0,0,0,7,28.62h7A.62.62,0,0,0,14,27.38Z"/>
    <path d="M22.68,13l-2.53-.64a.63.63,0,0,0-.3,1.22l4,1a.69.69,0,0,0,.47-.07.71.71,0,0,0,.29-.39l1-4a.63.63,0,0,0-1.22-.3l-.63,2.54-3.3-5.48a2.89,2.89,0,0,0-4.93,0l-4.07,6.77a.63.63,0,0,0,.22.86.62.62,0,0,0,.86-.22L16.6,7.55a1.63,1.63,0,0,1,2.79,0Z"/>
    <path d="M31.47,24.27l-4-6.59a.62.62,0,1,0-1.07.64l3.95,6.59A1.63,1.63,0,0,1,29,27.37H21.48l1.94-1.94c.58-.56-.32-1.47-.89-.88l-3,3a.63.63,0,0,0,0,.88l3,3a.63.63,0,0,0,.89-.88l-1.94-1.94H29A2.89,2.89,0,0,0,31.47,24.27Z"/>
  </g>
</svg>
