<svg id="b89478e5-f411-4dc6-8f50-305f9946ad88" data-name="Icon" xmlns="http://www.w3.org/2000/svg" viewBox="0 0 36 36">
  <title>Remote associate icon - Black</title>
<desc>WFH, home, office, personal, space, mobile, GWS, office and work</desc>
<metadata><?xpacket begin="﻿" id="W5M0MpCehiHzreSzNTczkc9d"?>
<x:xmpmeta xmlns:x="adobe:ns:meta/" x:xmptk="Adobe XMP Core 8.0-c001 1.000000, 0000/00/00-00:00:00        ">
   <rdf:RDF xmlns:rdf="http://www.w3.org/1999/02/22-rdf-syntax-ns#">
      <rdf:Description rdf:about=""
            xmlns:xmp="http://ns.adobe.com/xap/1.0/"
            xmlns:dc="http://purl.org/dc/elements/1.1/"
            xmlns:cq="http://www.day.com/jcr/cq/1.0"
            xmlns:tiff="http://ns.adobe.com/tiff/1.0/">
         <xmp:rhcc-effective-on>2023-12-08T17:47:08.021Z</xmp:rhcc-effective-on>
         <xmp:rhcc-metadata-complete-moderator>pending</xmp:rhcc-metadata-complete-moderator>
         <xmp:rhcc-translation-id>TRA305feab8-320c-41ec-8172-46c24571c5ec</xmp:rhcc-translation-id>
         <xmp:brand-content-type>Icon</xmp:brand-content-type>
         <xmp:CreateDate>2023-12-08T17:47:08.021Z</xmp:CreateDate>
         <xmp:rhcc-effective-on-set-on-upload>true</xmp:rhcc-effective-on-set-on-upload>
         <xmp:rhcc-metadata-complete-uploader>pending</xmp:rhcc-metadata-complete-uploader>
         <xmp:rhcc-file-last-modified>2023-12-08T17:48:04.500Z</xmp:rhcc-file-last-modified>
         <xmp:rhcc-audience>rhcc-audience:internal</xmp:rhcc-audience>
         <xmp:rhcc-rights-restricted>no</xmp:rhcc-rights-restricted>
         <xmp:brand-content-subtype>Icon</xmp:brand-content-subtype>
         <xmp:rhcc-derivative-id>DER305feab8-320c-41ec-8172-46c24571c5ec</xmp:rhcc-derivative-id>
         <xmp:brand-logo-color>Black</xmp:brand-logo-color>
         <xmp:rhcc-notify-portal-subscribers-on-change>yes</xmp:rhcc-notify-portal-subscribers-on-change>
         <dc:format>image/svg+xml</dc:format>
         <dc:modified>2024-02-09T20:23:53.746Z</dc:modified>
         <dc:title>
            <rdf:Alt>
               <rdf:li xml:lang="x-default">Remote associate icon - Black</rdf:li>
            </rdf:Alt>
         </dc:title>
         <dc:description>
            <rdf:Alt>
               <rdf:li xml:lang="x-default">WFH, home, office, personal, space, mobile, GWS, office and work</rdf:li>
            </rdf:Alt>
         </dc:description>
         <cq:lastReplicationAction_scene7>Activate</cq:lastReplicationAction_scene7>
         <cq:lastReplicationAction_publish>Activate</cq:lastReplicationAction_publish>
         <cq:lastReplicated_publish>2024-02-09T22:05:55.572Z</cq:lastReplicated_publish>
         <cq:lastReplicatedBy>workflow-process-service</cq:lastReplicatedBy>
         <cq:lastReplicationAction>Activate</cq:lastReplicationAction>
         <cq:lastReplicatedBy_publish>workflow-process-service</cq:lastReplicatedBy_publish>
         <cq:isDelivered>true</cq:isDelivered>
         <cq:lastReplicated>2024-02-09T22:05:55.572Z</cq:lastReplicated>
         <cq:lastReplicatedBy_scene7>workflow-process-service</cq:lastReplicatedBy_scene7>
         <cq:lastReplicated_scene7>2024-02-09T22:05:55.572Z</cq:lastReplicated_scene7>
         <tiff:ImageLength>36</tiff:ImageLength>
         <tiff:ImageWidth>36</tiff:ImageWidth>
      </rdf:Description>
   </rdf:RDF>
</x:xmpmeta>
                                                                                                    
                                                                                                    
                                                                                                    
                                                                                                    
                                                                                                    
                                                                                                    
                                                                                                    
                                                                                                    
                                                                                                    
                                                                                                    
                                 
<?xpacket end="w"?></metadata>
<g>
    <path d="M31.38,14.5l-3.76-2.88V9a.62.62,0,0,0-1.24,0v1.65l-8-6.15a.63.63,0,0,0-.76,0l-13,10a.63.63,0,0,0-.12.88.64.64,0,0,0,.88.12V31a.62.62,0,0,0,1.24,0V14.54L18,5.79l11.38,8.75V31a.62.62,0,0,0,1.24,0V15.5a.68.68,0,0,0,.38.12.62.62,0,0,0,.38-1.12Z"/>
    <path d="M12.38,22v7a.61.61,0,0,0,.62.62H23a.61.61,0,0,0,.62-.62V22a.61.61,0,0,0-.62-.62H13A.61.61,0,0,0,12.38,22Zm1.24.62h8.76v5.76H13.62Z"/>
    <path d="M25,30.38H11a.62.62,0,1,0,0,1.24H25a.62.62,0,0,0,0-1.24Z"/>
    <path d="M16.14,18.14A.63.63,0,0,0,17,19,1.4,1.4,0,0,1,19,19a.62.62,0,0,0,.44.18.66.66,0,0,0,.45-.18.64.64,0,0,0,0-.89A2.7,2.7,0,0,0,16.14,18.14Z"/>
    <path d="M21.4,17.22a.62.62,0,0,0,.44-.18.61.61,0,0,0,0-.88,5.43,5.43,0,0,0-7.68,0,.61.61,0,0,0,0,.88A.63.63,0,0,0,15,17,4.19,4.19,0,0,1,21,17,.62.62,0,0,0,21.4,17.22Z"/>
    <path d="M23.78,14.22a8.16,8.16,0,0,0-11.56,0,.62.62,0,0,0,.88.88,6.93,6.93,0,0,1,9.8,0,.63.63,0,0,0,.88,0A.61.61,0,0,0,23.78,14.22Z"/>
  </g>
</svg>
