<?xml version="1.0" encoding="UTF-8"?><svg id="a" xmlns="http://www.w3.org/2000/svg" viewBox="0 0 36 36"><title>Reusable bag icon - Black</title>
<desc>recycle, reuse, reduce, objects</desc>
<metadata><?xpacket begin="﻿" id="W5M0MpCehiHzreSzNTczkc9d"?>
<x:xmpmeta xmlns:x="adobe:ns:meta/" x:xmptk="Adobe XMP Core 8.0-c001 1.000000, 0000/00/00-00:00:00        ">
   <rdf:RDF xmlns:rdf="http://www.w3.org/1999/02/22-rdf-syntax-ns#">
      <rdf:Description rdf:about=""
            xmlns:xmp="http://ns.adobe.com/xap/1.0/"
            xmlns:dc="http://purl.org/dc/elements/1.1/"
            xmlns:cq="http://www.day.com/jcr/cq/1.0"
            xmlns:tiff="http://ns.adobe.com/tiff/1.0/">
         <xmp:rhcc-effective-on>2023-12-08T17:36:20.861Z</xmp:rhcc-effective-on>
         <xmp:rhcc-metadata-complete-moderator>pending</xmp:rhcc-metadata-complete-moderator>
         <xmp:rhcc-translation-id>TRA58cb195d-5d9b-4785-b21f-b1a1d489cd83</xmp:rhcc-translation-id>
         <xmp:brand-content-type>Icon</xmp:brand-content-type>
         <xmp:CreateDate>2023-12-08T17:36:20.861Z</xmp:CreateDate>
         <xmp:rhcc-effective-on-set-on-upload>true</xmp:rhcc-effective-on-set-on-upload>
         <xmp:rhcc-metadata-complete-uploader>pending</xmp:rhcc-metadata-complete-uploader>
         <xmp:rhcc-file-last-modified>2023-12-08T17:38:13.727Z</xmp:rhcc-file-last-modified>
         <xmp:rhcc-audience>rhcc-audience:internal</xmp:rhcc-audience>
         <xmp:rhcc-rights-restricted>no</xmp:rhcc-rights-restricted>
         <xmp:brand-content-subtype>Icon</xmp:brand-content-subtype>
         <xmp:rhcc-derivative-id>DER58cb195d-5d9b-4785-b21f-b1a1d489cd83</xmp:rhcc-derivative-id>
         <xmp:brand-logo-color>Black</xmp:brand-logo-color>
         <xmp:rhcc-notify-portal-subscribers-on-change>yes</xmp:rhcc-notify-portal-subscribers-on-change>
         <dc:format>image/svg+xml</dc:format>
         <dc:modified>2024-02-09T20:32:34.603Z</dc:modified>
         <dc:title>
            <rdf:Alt>
               <rdf:li xml:lang="x-default">Reusable bag icon - Black</rdf:li>
            </rdf:Alt>
         </dc:title>
         <dc:description>
            <rdf:Alt>
               <rdf:li xml:lang="x-default">recycle, reuse, reduce, objects</rdf:li>
            </rdf:Alt>
         </dc:description>
         <cq:lastReplicationAction_scene7>Activate</cq:lastReplicationAction_scene7>
         <cq:lastReplicationAction_publish>Activate</cq:lastReplicationAction_publish>
         <cq:lastReplicated_publish>2024-02-09T22:20:10.670Z</cq:lastReplicated_publish>
         <cq:lastReplicatedBy>workflow-process-service</cq:lastReplicatedBy>
         <cq:lastReplicationAction>Activate</cq:lastReplicationAction>
         <cq:lastReplicatedBy_publish>workflow-process-service</cq:lastReplicatedBy_publish>
         <cq:isDelivered>true</cq:isDelivered>
         <cq:lastReplicated>2024-02-09T22:20:10.670Z</cq:lastReplicated>
         <cq:lastReplicatedBy_scene7>workflow-process-service</cq:lastReplicatedBy_scene7>
         <cq:lastReplicated_scene7>2024-02-09T22:20:10.670Z</cq:lastReplicated_scene7>
         <tiff:ImageLength>36</tiff:ImageLength>
         <tiff:ImageWidth>36</tiff:ImageWidth>
      </rdf:Description>
   </rdf:RDF>
</x:xmpmeta>
                                                                                                    
                                                                                                    
                                                                                                    
                                                                                                    
                                                                                                    
                                                                                                    
                                                                                                    
                                                                                                    
                                                                                                    
                                                                                                    
                                 
<?xpacket end="w"?></metadata>
<path d="m28,4.375h-4c-.3452,0-.625.2803-.625.625v6c0,.7578-.6167,1.375-1.375,1.375h-8c-.7583,0-1.375-.6172-1.375-1.375v-6c0-.3447-.2798-.625-.625-.625h-4c-.3452,0-.625.2803-.625.625v22c0,2.5498,2.0747,4.625,4.625,4.625h12c2.5503,0,4.625-2.0752,4.625-4.625V5c0-.3447-.2798-.625-.625-.625Zm-.625,22.625c0,1.8613-1.5142,3.375-3.375,3.375h-12c-1.8608,0-3.375-1.5137-3.375-3.375V5.625h2.75v5.375c0,1.4473,1.1777,2.625,2.625,2.625h8c1.4473,0,2.625-1.1777,2.625-2.625v-5.375h2.75v21.375Z"/><path d="m23,16.375c-.3452,0-.625.2803-.625.625v1.477c-1.052-1.3055-2.6467-2.102-4.375-2.102-3.1016,0-5.625,2.5234-5.625,5.625s2.5234,5.625,5.625,5.625c2.2368,0,4.2607-1.3242,5.1567-3.375.1382-.3164-.0063-.6846-.3223-.8223-.3174-.1426-.6851.0049-.8232.3223-.6968,1.5947-2.2715,2.625-4.0112,2.625-2.4126,0-4.375-1.9629-4.375-4.375s1.9624-4.375,4.375-4.375c1.3931,0,2.672.668,3.4874,1.75h-1.4874c-.3452,0-.625.2803-.625.625s.2798.625.625.625h2.5874c.0024,0,.0048,0,.0073,0h.4053c.3452,0,.625-.2803.625-.625v-3c0-.3447-.2798-.625-.625-.625Z"/></svg>