<?xml version="1.0" encoding="UTF-8"?>
<svg id="uuid-8d8abe8f-15e9-4e62-a47a-ca2c35de7bc8" data-name="Training URL" xmlns="http://www.w3.org/2000/svg" viewBox="0 0 36 36">
  <title>Ribbon</title>
<metadata><?xpacket begin="﻿" id="W5M0MpCehiHzreSzNTczkc9d"?>
<x:xmpmeta xmlns:x="adobe:ns:meta/" x:xmptk="Adobe XMP Core 8.0-c001 1.000000, 0000/00/00-00:00:00        ">
   <rdf:RDF xmlns:rdf="http://www.w3.org/1999/02/22-rdf-syntax-ns#">
      <rdf:Description rdf:about=""
            xmlns:xmp="http://ns.adobe.com/xap/1.0/"
            xmlns:dc="http://purl.org/dc/elements/1.1/"
            xmlns:xmpRights="http://ns.adobe.com/xap/1.0/rights/">
         <xmp:rhcc-effective-on>2024-05-07T17:23:01.391Z</xmp:rhcc-effective-on>
         <xmp:rhcc-rights-restricted>no</xmp:rhcc-rights-restricted>
         <xmp:rhcc-metadata-complete-moderator>pending</xmp:rhcc-metadata-complete-moderator>
         <xmp:rhcc-translation-id>TRA33d65d31-5a2b-4416-b84f-00979e1db37c</xmp:rhcc-translation-id>
         <xmp:brand-content-type>Icon</xmp:brand-content-type>
         <xmp:CreateDate>2024-05-07T17:23:01.391Z</xmp:CreateDate>
         <xmp:rhcc-derivative-id>DER33d65d31-5a2b-4416-b84f-00979e1db37c</xmp:rhcc-derivative-id>
         <xmp:rhcc-effective-on-set-on-upload>true</xmp:rhcc-effective-on-set-on-upload>
         <xmp:brand-color-mode>RGB</xmp:brand-color-mode>
         <xmp:brand-logo-color>Black</xmp:brand-logo-color>
         <xmp:rhcc-metadata-complete-uploader>pending</xmp:rhcc-metadata-complete-uploader>
         <xmp:rhcc-file-last-modified>2024-05-07T17:23:11.121Z</xmp:rhcc-file-last-modified>
         <xmp:rhcc-audience>rhcc-audience:internal</xmp:rhcc-audience>
         <xmp:rhcc-notify-portal-subscribers-on-change>yes</xmp:rhcc-notify-portal-subscribers-on-change>
         <dc:format>image/svg+xml</dc:format>
         <dc:modified>2024-05-07T17:23:51.802Z</dc:modified>
         <dc:title>
            <rdf:Alt>
               <rdf:li xml:lang="x-default">Ribbon</rdf:li>
            </rdf:Alt>
         </dc:title>
         <xmpRights:UsageTerms>
            <rdf:Alt>
               <rdf:li xml:lang="x-default">One-color icon in black</rdf:li>
            </rdf:Alt>
         </xmpRights:UsageTerms>
      </rdf:Description>
   </rdf:RDF>
</x:xmpmeta>
                                                                                                    
                                                                                                    
                                                                                                    
                                                                                                    
                                                                                                    
                                                                                                    
                                                                                                    
                                                                                                    
                                                                                                    
                                                                                                    
                                                                                                    
                                                                                                    
                                                                                                    
                                                                                                    
                                                                                                    
                                                                                                    
                                                                                                    
                                                                                                    
                                                                                                    
                                                                                                    
                           
<?xpacket end="w"?></metadata>
<defs>
    <style>
      .uuid-a290b882-dab6-4fc2-9903-5bc2f0d20a3b {
        stroke-width: 0px;
      }
    </style>
  </defs>
  <path class="uuid-a290b882-dab6-4fc2-9903-5bc2f0d20a3b" d="M26.44,25.56l-5.07-5.07s.05-.03.07-.05l4-4s.02-.04.04-.06c.04-.05.07-.09.1-.14.03-.08.05-.16.05-.24v-5c0-.15-.05-.28-.14-.38-.67-3.5-3.83-6.24-7.49-6.24-3.9,0-7.12,2.79-7.57,6.37-.04.08-.06.16-.06.25v.6s0,4.4,0,4.4h0c0,.08.02.17.05.24.04.09.09.17.16.22l4.05,4.05s-.05.02-.07.05l-5,5c-.12.12-.18.28-.18.44v5c0,.34.29.63.62.62.16,0,.32-.06.44-.18l7.56-7.56,7.56,7.56c.12.12.28.18.44.18.34,0,.63-.29.62-.62v-5c0-.17-.07-.33-.18-.44ZM20.56,19.56s-.03.04-.05.07l-1.62-1.62,5.49-5.49v3.23s-3.82,3.82-3.82,3.82ZM20.38,14.74l-2.38,2.38-2.38-2.38c0-.54,0-1.74,0-1.74.08-3.13,4.67-3.13,4.75,0v1.74ZM18,5.62c3.01,0,5.68,2.34,6.26,5.23l-2.63,2.63v-.49c-.15-4.79-7.1-4.79-7.25,0v.49l-2.69-2.69c.42-2.92,3.09-5.18,6.31-5.18ZM10.62,29.49v-3.23l4.82-4.82s.03-.05.05-.07l1.63,1.63-6.49,6.49ZM25.38,29.49l-6.93-6.93s0,0,0,0,0,0,0,0l-6.82-6.82v-3.23l2.93,2.93s.02.02.02.02l2.97,2.97s0,0,0,0,0,0,0,0l7.82,7.82v3.23Z"/>
</svg>