<svg id="b7a6fdc8-1169-4241-950b-28db97ac91e1" data-name="Icon" xmlns="http://www.w3.org/2000/svg" viewBox="0 0 36 36">
  <title>Safety goggles icon - Black</title>
<desc>eye protection, glasses, specs, eye safety, science and nature</desc>
<metadata><?xpacket begin="﻿" id="W5M0MpCehiHzreSzNTczkc9d"?>
<x:xmpmeta xmlns:x="adobe:ns:meta/" x:xmptk="Adobe XMP Core 8.0-c001 1.000000, 0000/00/00-00:00:00        ">
   <rdf:RDF xmlns:rdf="http://www.w3.org/1999/02/22-rdf-syntax-ns#">
      <rdf:Description rdf:about=""
            xmlns:xmp="http://ns.adobe.com/xap/1.0/"
            xmlns:dc="http://purl.org/dc/elements/1.1/"
            xmlns:cq="http://www.day.com/jcr/cq/1.0"
            xmlns:tiff="http://ns.adobe.com/tiff/1.0/">
         <xmp:rhcc-effective-on>2023-12-08T17:41:17.142Z</xmp:rhcc-effective-on>
         <xmp:rhcc-metadata-complete-moderator>pending</xmp:rhcc-metadata-complete-moderator>
         <xmp:rhcc-translation-id>TRA46d5f2bd-f5c0-4772-a092-499a80a95d3a</xmp:rhcc-translation-id>
         <xmp:brand-content-type>Icon</xmp:brand-content-type>
         <xmp:CreateDate>2023-12-08T17:41:17.142Z</xmp:CreateDate>
         <xmp:rhcc-effective-on-set-on-upload>true</xmp:rhcc-effective-on-set-on-upload>
         <xmp:rhcc-metadata-complete-uploader>pending</xmp:rhcc-metadata-complete-uploader>
         <xmp:rhcc-file-last-modified>2023-12-08T17:42:23.499Z</xmp:rhcc-file-last-modified>
         <xmp:rhcc-audience>rhcc-audience:internal</xmp:rhcc-audience>
         <xmp:rhcc-rights-restricted>no</xmp:rhcc-rights-restricted>
         <xmp:brand-content-subtype>Icon</xmp:brand-content-subtype>
         <xmp:rhcc-derivative-id>DER46d5f2bd-f5c0-4772-a092-499a80a95d3a</xmp:rhcc-derivative-id>
         <xmp:brand-logo-color>Black</xmp:brand-logo-color>
         <xmp:rhcc-notify-portal-subscribers-on-change>yes</xmp:rhcc-notify-portal-subscribers-on-change>
         <dc:format>image/svg+xml</dc:format>
         <dc:modified>2024-02-09T20:26:31.171Z</dc:modified>
         <dc:title>
            <rdf:Alt>
               <rdf:li xml:lang="x-default">Safety goggles icon - Black</rdf:li>
            </rdf:Alt>
         </dc:title>
         <dc:description>
            <rdf:Alt>
               <rdf:li xml:lang="x-default">eye protection, glasses, specs, eye safety, science and nature</rdf:li>
            </rdf:Alt>
         </dc:description>
         <cq:lastReplicationAction_scene7>Activate</cq:lastReplicationAction_scene7>
         <cq:lastReplicationAction_publish>Activate</cq:lastReplicationAction_publish>
         <cq:lastReplicated_publish>2024-02-09T22:11:29.543Z</cq:lastReplicated_publish>
         <cq:lastReplicatedBy>workflow-process-service</cq:lastReplicatedBy>
         <cq:lastReplicationAction>Activate</cq:lastReplicationAction>
         <cq:lastReplicatedBy_publish>workflow-process-service</cq:lastReplicatedBy_publish>
         <cq:isDelivered>true</cq:isDelivered>
         <cq:lastReplicated>2024-02-09T22:11:29.543Z</cq:lastReplicated>
         <cq:lastReplicatedBy_scene7>workflow-process-service</cq:lastReplicatedBy_scene7>
         <cq:lastReplicated_scene7>2024-02-09T22:11:29.543Z</cq:lastReplicated_scene7>
         <tiff:ImageLength>36</tiff:ImageLength>
         <tiff:ImageWidth>36</tiff:ImageWidth>
      </rdf:Description>
   </rdf:RDF>
</x:xmpmeta>
                                                                                                    
                                                                                                    
                                                                                                    
                                                                                                    
                                                                                                    
                                                                                                    
                                                                                                    
                                                                                                    
                                                                                                    
                                                                                                    
                                 
<?xpacket end="w"?></metadata>
<g>
    <path d="M24,12.38H12A5.62,5.62,0,0,0,6.38,18,5.69,5.69,0,0,0,12,23.62,5.63,5.63,0,0,0,17.53,19a.47.47,0,0,1,.94,0A5.63,5.63,0,0,0,24,23.62,5.69,5.69,0,0,0,29.62,18,5.62,5.62,0,0,0,24,12.38Zm0,10a4.37,4.37,0,0,1-4.3-3.57,1.73,1.73,0,0,0-3.4,0A4.37,4.37,0,0,1,12,22.38,4.44,4.44,0,0,1,7.62,18,4.39,4.39,0,0,1,12,13.62H24A4.39,4.39,0,0,1,28.38,18,4.44,4.44,0,0,1,24,22.38Z"/>
    <path d="M31,15.38a.62.62,0,0,0-.62.62v4a.62.62,0,0,0,1.24,0V16A.62.62,0,0,0,31,15.38Z"/>
    <path d="M5,15.38a.62.62,0,0,0-.62.62v4a.62.62,0,0,0,1.24,0V16A.62.62,0,0,0,5,15.38Z"/>
    <path d="M12,14.38A3.62,3.62,0,0,0,8.38,18a.62.62,0,1,0,1.24,0A2.39,2.39,0,0,1,12,15.62a.62.62,0,0,0,0-1.24Z"/>
  </g>
</svg>
