<svg id="e7c38cdf-7f88-447a-8e0b-638d4bb8cd31" data-name="Icon" xmlns="http://www.w3.org/2000/svg" viewBox="0 0 36 36">
  <title>Unbalanced scales icon - Black</title>
<desc>legal, law, judge, government, legislate, court, fair, liberty, jury, weight, measure, balance, objects</desc>
<metadata><?xpacket begin="﻿" id="W5M0MpCehiHzreSzNTczkc9d"?>
<x:xmpmeta xmlns:x="adobe:ns:meta/" x:xmptk="Adobe XMP Core 8.0-c001 1.000000, 0000/00/00-00:00:00        ">
   <rdf:RDF xmlns:rdf="http://www.w3.org/1999/02/22-rdf-syntax-ns#">
      <rdf:Description rdf:about=""
            xmlns:xmp="http://ns.adobe.com/xap/1.0/"
            xmlns:dc="http://purl.org/dc/elements/1.1/"
            xmlns:cq="http://www.day.com/jcr/cq/1.0"
            xmlns:tiff="http://ns.adobe.com/tiff/1.0/">
         <xmp:rhcc-effective-on>2023-12-08T17:36:23.137Z</xmp:rhcc-effective-on>
         <xmp:rhcc-metadata-complete-moderator>pending</xmp:rhcc-metadata-complete-moderator>
         <xmp:rhcc-translation-id>TRAfa256921-0efe-4a9d-80b9-96fab87f69c2</xmp:rhcc-translation-id>
         <xmp:brand-content-type>Icon</xmp:brand-content-type>
         <xmp:CreateDate>2023-12-08T17:36:23.137Z</xmp:CreateDate>
         <xmp:rhcc-effective-on-set-on-upload>true</xmp:rhcc-effective-on-set-on-upload>
         <xmp:rhcc-metadata-complete-uploader>pending</xmp:rhcc-metadata-complete-uploader>
         <xmp:rhcc-file-last-modified>2023-12-08T17:38:15.595Z</xmp:rhcc-file-last-modified>
         <xmp:rhcc-audience>rhcc-audience:internal</xmp:rhcc-audience>
         <xmp:rhcc-rights-restricted>no</xmp:rhcc-rights-restricted>
         <xmp:brand-content-subtype>Icon</xmp:brand-content-subtype>
         <xmp:rhcc-derivative-id>DERfa256921-0efe-4a9d-80b9-96fab87f69c2</xmp:rhcc-derivative-id>
         <xmp:brand-logo-color>Black</xmp:brand-logo-color>
         <xmp:rhcc-notify-portal-subscribers-on-change>yes</xmp:rhcc-notify-portal-subscribers-on-change>
         <dc:format>image/svg+xml</dc:format>
         <dc:modified>2024-02-09T20:32:28.503Z</dc:modified>
         <dc:title>
            <rdf:Alt>
               <rdf:li xml:lang="x-default">Unbalanced scales icon - Black</rdf:li>
            </rdf:Alt>
         </dc:title>
         <dc:description>
            <rdf:Alt>
               <rdf:li xml:lang="x-default">legal, law, judge, government, legislate, court, fair, liberty, jury, weight, measure, balance, objects</rdf:li>
            </rdf:Alt>
         </dc:description>
         <cq:lastReplicationAction_scene7>Activate</cq:lastReplicationAction_scene7>
         <cq:lastReplicationAction_publish>Activate</cq:lastReplicationAction_publish>
         <cq:lastReplicated_publish>2024-02-09T22:20:02.064Z</cq:lastReplicated_publish>
         <cq:lastReplicatedBy>workflow-process-service</cq:lastReplicatedBy>
         <cq:lastReplicationAction>Activate</cq:lastReplicationAction>
         <cq:lastReplicatedBy_publish>workflow-process-service</cq:lastReplicatedBy_publish>
         <cq:isDelivered>true</cq:isDelivered>
         <cq:lastReplicated>2024-02-09T22:20:02.064Z</cq:lastReplicated>
         <cq:lastReplicatedBy_scene7>workflow-process-service</cq:lastReplicatedBy_scene7>
         <cq:lastReplicated_scene7>2024-02-09T22:20:02.064Z</cq:lastReplicated_scene7>
         <tiff:ImageLength>36</tiff:ImageLength>
         <tiff:ImageWidth>36</tiff:ImageWidth>
      </rdf:Description>
   </rdf:RDF>
</x:xmpmeta>
                                                                                                    
                                                                                                    
                                                                                                    
                                                                                                    
                                                                                                    
                                                                                                    
                                                                                                    
                                                                                                    
                                                                                                    
                                                                                                    
                                 
<?xpacket end="w"?></metadata>
<path d="M31,30.38H18.62V9.51l6-1.28L22.39,18.87s0,0,0,.07,0,0,0,.06,0,.07,0,.11h0a4.61,4.61,0,0,0,9.22,0h0s0-.07,0-.11,0,0,0-.06,0-.05,0-.07L29.13,7.21a.62.62,0,0,0-.5-1.11l-3.28.7h0L18.62,8.23V5a.62.62,0,0,0-1.24,0V8.49l-10,2.13h0l-.27.06a.62.62,0,0,0-.48.74.51.51,0,0,0,.14.26L4.39,22.87s0,0,0,.07,0,0,0,.06,0,.07,0,.11h0a4.61,4.61,0,0,0,9.22,0h0s0-.07,0-.11,0,0,0-.06,0-.05,0-.07L11.11,11.1l6.27-1.33V30.38H5a.62.62,0,1,0,0,1.24H31a.62.62,0,0,0,0-1.24ZM27.92,7.53l2.31,10.85H23.77L26,7.94ZM27,22.38a3.39,3.39,0,0,1-3.32-2.76h6.64A3.39,3.39,0,0,1,27,22.38Zm-18,4a3.39,3.39,0,0,1-3.32-2.76h6.64A3.39,3.39,0,0,1,9,26.38Zm3.23-4H5.77L8,11.76l1.86-.4Z"/>
</svg>
