<?xml version="1.0" encoding="UTF-8"?><svg id="a" xmlns="http://www.w3.org/2000/svg" viewBox="0 0 36 36"><title>School icon - Black</title>
<desc>university, study, homework, students, learn, education, educate, grade, teacher, lecture, buildings and industries</desc>
<metadata><?xpacket begin="﻿" id="W5M0MpCehiHzreSzNTczkc9d"?>
<x:xmpmeta xmlns:x="adobe:ns:meta/" x:xmptk="Adobe XMP Core 8.0-c001 1.000000, 0000/00/00-00:00:00        ">
   <rdf:RDF xmlns:rdf="http://www.w3.org/1999/02/22-rdf-syntax-ns#">
      <rdf:Description rdf:about=""
            xmlns:xmp="http://ns.adobe.com/xap/1.0/"
            xmlns:dc="http://purl.org/dc/elements/1.1/"
            xmlns:cq="http://www.day.com/jcr/cq/1.0"
            xmlns:tiff="http://ns.adobe.com/tiff/1.0/">
         <xmp:rhcc-effective-on>2023-12-08T17:47:42.994Z</xmp:rhcc-effective-on>
         <xmp:rhcc-metadata-complete-moderator>pending</xmp:rhcc-metadata-complete-moderator>
         <xmp:rhcc-translation-id>TRA82f7cba4-7484-4ddf-af06-86dbbb73bff8</xmp:rhcc-translation-id>
         <xmp:brand-content-type>Icon</xmp:brand-content-type>
         <xmp:CreateDate>2023-12-08T17:47:42.994Z</xmp:CreateDate>
         <xmp:rhcc-effective-on-set-on-upload>true</xmp:rhcc-effective-on-set-on-upload>
         <xmp:rhcc-metadata-complete-uploader>pending</xmp:rhcc-metadata-complete-uploader>
         <xmp:rhcc-file-last-modified>2023-12-08T17:48:04.194Z</xmp:rhcc-file-last-modified>
         <xmp:rhcc-audience>rhcc-audience:internal</xmp:rhcc-audience>
         <xmp:rhcc-rights-restricted>no</xmp:rhcc-rights-restricted>
         <xmp:brand-content-subtype>Icon</xmp:brand-content-subtype>
         <xmp:rhcc-derivative-id>DER82f7cba4-7484-4ddf-af06-86dbbb73bff8</xmp:rhcc-derivative-id>
         <xmp:brand-logo-color>Black</xmp:brand-logo-color>
         <xmp:rhcc-notify-portal-subscribers-on-change>yes</xmp:rhcc-notify-portal-subscribers-on-change>
         <dc:format>image/svg+xml</dc:format>
         <dc:modified>2024-02-09T20:24:40.123Z</dc:modified>
         <dc:title>
            <rdf:Alt>
               <rdf:li xml:lang="x-default">School icon - Black</rdf:li>
            </rdf:Alt>
         </dc:title>
         <dc:description>
            <rdf:Alt>
               <rdf:li xml:lang="x-default">university, study, homework, students, learn, education, educate, grade, teacher, lecture, buildings and industries</rdf:li>
            </rdf:Alt>
         </dc:description>
         <cq:lastReplicationAction_scene7>Activate</cq:lastReplicationAction_scene7>
         <cq:lastReplicationAction_publish>Activate</cq:lastReplicationAction_publish>
         <cq:lastReplicated_publish>2024-02-09T22:07:24.906Z</cq:lastReplicated_publish>
         <cq:lastReplicatedBy>workflow-process-service</cq:lastReplicatedBy>
         <cq:lastReplicationAction>Activate</cq:lastReplicationAction>
         <cq:lastReplicatedBy_publish>workflow-process-service</cq:lastReplicatedBy_publish>
         <cq:isDelivered>true</cq:isDelivered>
         <cq:lastReplicated>2024-02-09T22:07:24.906Z</cq:lastReplicated>
         <cq:lastReplicatedBy_scene7>workflow-process-service</cq:lastReplicatedBy_scene7>
         <cq:lastReplicated_scene7>2024-02-09T22:07:24.906Z</cq:lastReplicated_scene7>
         <tiff:ImageLength>36</tiff:ImageLength>
         <tiff:ImageWidth>36</tiff:ImageWidth>
      </rdf:Description>
   </rdf:RDF>
</x:xmpmeta>
                                                                                                    
                                                                                                    
                                                                                                    
                                                                                                    
                                                                                                    
                                                                                                    
                                                                                                    
                                                                                                    
                                                                                                    
                                                                                                    
                                 
<?xpacket end="w"?></metadata>
<defs><style>.b{fill:none;}</style></defs><rect class="b" x="7.62" y="17.62" width="1.75" height="1.75"/><path class="b" d="M11.88,14.62H5.62v15.75h6.25V14.62Zm-1.25,12.38c0,.34-.28,.62-.62,.62h-3c-.35,0-.62-.28-.62-.62v-3c0-.34,.28-.62,.62-.62h3c.35,0,.62,.28,.62,.62v3Zm-.62-6.38h-3c-.35,0-.62-.28-.62-.62v-3c0-.34,.28-.62,.62-.62h3c.35,0,.62,.28,.62,.62v3c0,.34-.28,.62-.62,.62Z"/><rect class="b" x="7.62" y="24.62" width="1.75" height="1.75"/><rect class="b" x="15.62" y="22.62" width="4.75" height="7.75"/><path class="b" d="M18,14.38c2.47-.06,2.47-3.69,0-3.75-2.47,.06-2.47,3.69,0,3.75Z"/><path class="b" d="M13.12,30.38h1.25v-8.38c0-.34,.28-.62,.62-.62h6c.35,0,.62,.28,.62,.62v8.38h1.25V10.2l-4.88-4.36-4.88,4.36V30.38Zm4.88-21c4.12,.11,4.12,6.14,0,6.25-4.12-.11-4.12-6.14,0-6.25Zm-3,10h6c.82,0,.82,1.25,0,1.25h-6c-.82,0-.82-1.25,0-1.25Z"/><path class="b" d="M24.12,30.38h6.25V14.62h-6.25v15.75Zm1.25-13.38c0-.34,.28-.62,.62-.62h3c.35,0,.62,.28,.62,.62v3c0,.34-.28,.62-.62,.62h-3c-.35,0-.62-.28-.62-.62v-3Zm.62,6.38h3c.35,0,.62,.28,.62,.62v3c0,.34-.28,.62-.62,.62h-3c-.35,0-.62-.28-.62-.62v-3c0-.34,.28-.62,.62-.62Z"/><rect class="b" x="26.62" y="17.62" width="1.75" height="1.75"/><rect class="b" x="26.62" y="24.62" width="1.75" height="1.75"/><path d="M31,13.38h-6.88v-3.38c-.01-.2-.04-.4-.21-.54l-5.5-4.92c-.24-.21-.6-.21-.83,0l-5.5,4.92c-.17,.14-.2,.35-.21,.54v3.37H5c-.35,0-.62,.28-.62,.62V31c0,.34,.28,.62,.62,.62H15c3.64,0,12.27,0,16,0,.35,0,.62-.28,.62-.63V14c0-.34-.28-.62-.62-.62Zm-13-7.54l4.88,4.36V30.38h-1.25v-8.38c0-.34-.28-.62-.62-.62h-6c-.35,0-.62,.28-.62,.62v8.38h-1.25V10.2l4.88-4.36ZM5.62,14.62h6.25v15.75H5.62V14.62Zm10,15.75v-7.75h4.75v7.75h-4.75Zm14.75,0h-6.25V14.62h6.25v15.75Z"/><path d="M10,16.38h-3c-.35,0-.62,.28-.62,.62v3c0,.34,.28,.62,.62,.62h3c.35,0,.62-.28,.62-.62v-3c0-.34-.28-.62-.62-.62Zm-.62,3h-1.75v-1.75h1.75v1.75Z"/><path d="M26,20.62h3c.35,0,.62-.28,.62-.62v-3c0-.34-.28-.62-.62-.62h-3c-.35,0-.62,.28-.62,.62v3c0,.34,.28,.62,.62,.62Zm.62-3h1.75v1.75h-1.75v-1.75Z"/><path d="M26,27.62h3c.35,0,.62-.28,.62-.62v-3c0-.34-.28-.62-.62-.62h-3c-.35,0-.62,.28-.62,.62v3c0,.34,.28,.62,.62,.62Zm.62-3h1.75v1.75h-1.75v-1.75Z"/><path d="M10,23.38h-3c-.35,0-.62,.28-.62,.62v3c0,.34,.28,.62,.62,.62h3c.35,0,.62-.28,.62-.62v-3c0-.34-.28-.62-.62-.62Zm-.62,3h-1.75v-1.75h1.75v1.75Z"/><path d="M18,15.62c4.12-.11,4.12-6.14,0-6.25-4.12,.11-4.12,6.14,0,6.25Zm0-5c2.47,.06,2.47,3.69,0,3.75-2.47-.06-2.47-3.69,0-3.75Z"/><path d="M15,20.62h6c.82,0,.82-1.25,0-1.25h-6c-.82,0-.82,1.25,0,1.25Z"/></svg>