<svg id="ac93f9a9-e86c-441f-87c8-7244ad70501d" data-name="Layer 1" xmlns="http://www.w3.org/2000/svg" viewBox="0 0 36 36">
  <title>Serverless icon - Black</title>
<desc>networking, architecture, software, distribution, local</desc>
<metadata><?xpacket begin="﻿" id="W5M0MpCehiHzreSzNTczkc9d"?>
<x:xmpmeta xmlns:x="adobe:ns:meta/" x:xmptk="Adobe XMP Core 8.0-c001 1.000000, 0000/00/00-00:00:00        ">
   <rdf:RDF xmlns:rdf="http://www.w3.org/1999/02/22-rdf-syntax-ns#">
      <rdf:Description rdf:about=""
            xmlns:xmp="http://ns.adobe.com/xap/1.0/"
            xmlns:dc="http://purl.org/dc/elements/1.1/"
            xmlns:cq="http://www.day.com/jcr/cq/1.0"
            xmlns:tiff="http://ns.adobe.com/tiff/1.0/">
         <xmp:rhcc-effective-on>2023-12-08T17:44:17.588Z</xmp:rhcc-effective-on>
         <xmp:rhcc-metadata-complete-moderator>pending</xmp:rhcc-metadata-complete-moderator>
         <xmp:rhcc-translation-id>TRA31bb8e86-3a3f-4254-9b7c-993ad41b4570</xmp:rhcc-translation-id>
         <xmp:brand-content-type>Icon</xmp:brand-content-type>
         <xmp:CreateDate>2023-12-08T17:44:17.588Z</xmp:CreateDate>
         <xmp:rhcc-effective-on-set-on-upload>true</xmp:rhcc-effective-on-set-on-upload>
         <xmp:rhcc-metadata-complete-uploader>pending</xmp:rhcc-metadata-complete-uploader>
         <xmp:rhcc-file-last-modified>2023-12-08T17:44:25.804Z</xmp:rhcc-file-last-modified>
         <xmp:rhcc-audience>rhcc-audience:internal</xmp:rhcc-audience>
         <xmp:rhcc-rights-restricted>no</xmp:rhcc-rights-restricted>
         <xmp:brand-content-subtype>Icon</xmp:brand-content-subtype>
         <xmp:rhcc-derivative-id>DER31bb8e86-3a3f-4254-9b7c-993ad41b4570</xmp:rhcc-derivative-id>
         <xmp:brand-logo-color>Black</xmp:brand-logo-color>
         <xmp:rhcc-notify-portal-subscribers-on-change>yes</xmp:rhcc-notify-portal-subscribers-on-change>
         <dc:format>image/svg+xml</dc:format>
         <dc:modified>2024-02-09T20:18:57.144Z</dc:modified>
         <dc:title>
            <rdf:Alt>
               <rdf:li xml:lang="x-default">Serverless icon - Black</rdf:li>
            </rdf:Alt>
         </dc:title>
         <dc:description>
            <rdf:Alt>
               <rdf:li xml:lang="x-default">networking, architecture, software, distribution, local</rdf:li>
            </rdf:Alt>
         </dc:description>
         <cq:lastReplicationAction_scene7>Activate</cq:lastReplicationAction_scene7>
         <cq:lastReplicationAction_publish>Activate</cq:lastReplicationAction_publish>
         <cq:lastReplicated_publish>2024-02-09T21:56:16.678Z</cq:lastReplicated_publish>
         <cq:lastReplicatedBy>workflow-process-service</cq:lastReplicatedBy>
         <cq:lastReplicationAction>Activate</cq:lastReplicationAction>
         <cq:lastReplicatedBy_publish>workflow-process-service</cq:lastReplicatedBy_publish>
         <cq:isDelivered>true</cq:isDelivered>
         <cq:lastReplicated>2024-02-09T21:56:16.678Z</cq:lastReplicated>
         <cq:lastReplicatedBy_scene7>workflow-process-service</cq:lastReplicatedBy_scene7>
         <cq:lastReplicated_scene7>2024-02-09T21:56:16.678Z</cq:lastReplicated_scene7>
         <tiff:ImageLength>36</tiff:ImageLength>
         <tiff:ImageWidth>36</tiff:ImageWidth>
      </rdf:Description>
   </rdf:RDF>
</x:xmpmeta>
                                                                                                    
                                                                                                    
                                                                                                    
                                                                                                    
                                                                                                    
                                                                                                    
                                                                                                    
                                                                                                    
                                                                                                    
                                                                                                    
                                 
<?xpacket end="w"?></metadata>
<g>
    <path d="M28.625,13.541v-.022A9.124,9.124,0,0,0,11.336,9.446a7.1,7.1,0,0,0-7.961,7.073c0,4.45,2.85,7.106,7.625,7.106a.625.625,0,0,0,0-1.25c-4.052,0-6.375-2.134-6.375-5.856a5.86,5.86,0,0,1,6.964-5.77.621.621,0,0,0,.689-.365,7.874,7.874,0,0,1,15.1,3.135c0,.133-.01.265-.019.4l-.008.111a.626.626,0,0,0,.559.662,3.863,3.863,0,0,1-.407,7.706H25a.625.625,0,0,0,0,1.25h3a.6.6,0,0,0,.288-.08,5.1,5.1,0,0,0,.337-10.023Z"/>
    <path d="M15.625,27V17a.625.625,0,0,0-1.25,0v9.375H12.541a2.625,2.625,0,1,0,0,1.25H15A.626.626,0,0,0,15.625,27ZM10,28.375A1.375,1.375,0,1,1,11.375,27,1.377,1.377,0,0,1,10,28.375Z"/>
    <path d="M18.625,27.458V17a.625.625,0,0,0-1.25,0V27.458a2.625,2.625,0,1,0,1.25,0ZM18,31.375A1.375,1.375,0,1,1,19.375,30,1.377,1.377,0,0,1,18,31.375Z"/>
    <path d="M26,24.375a2.624,2.624,0,0,0-2.542,2H21.625V17a.625.625,0,0,0-1.25,0V27a.625.625,0,0,0,.625.625h2.458A2.622,2.622,0,1,0,26,24.375Zm0,4A1.375,1.375,0,1,1,27.375,27,1.377,1.377,0,0,1,26,28.375Z"/>
  </g>
</svg>
