<svg id="f65f9621-3605-4e13-9961-3c75acada615" data-name="Icon" xmlns="http://www.w3.org/2000/svg" viewBox="0 0 36 36">
  <title>Unsecured server stack icon - Black</title>
<desc>host, datacenter, computer, metal, infrastructure, client, hardware, security</desc>
<metadata><?xpacket begin="﻿" id="W5M0MpCehiHzreSzNTczkc9d"?>
<x:xmpmeta xmlns:x="adobe:ns:meta/" x:xmptk="Adobe XMP Core 8.0-c001 1.000000, 0000/00/00-00:00:00        ">
   <rdf:RDF xmlns:rdf="http://www.w3.org/1999/02/22-rdf-syntax-ns#">
      <rdf:Description rdf:about=""
            xmlns:xmp="http://ns.adobe.com/xap/1.0/"
            xmlns:dc="http://purl.org/dc/elements/1.1/"
            xmlns:cq="http://www.day.com/jcr/cq/1.0"
            xmlns:tiff="http://ns.adobe.com/tiff/1.0/">
         <xmp:rhcc-effective-on>2023-12-08T17:34:29.813Z</xmp:rhcc-effective-on>
         <xmp:rhcc-metadata-complete-moderator>pending</xmp:rhcc-metadata-complete-moderator>
         <xmp:rhcc-translation-id>TRA0dd6d8e4-9e73-4a5c-b682-1d351f817168</xmp:rhcc-translation-id>
         <xmp:brand-content-type>Icon</xmp:brand-content-type>
         <xmp:CreateDate>2023-12-08T17:34:29.813Z</xmp:CreateDate>
         <xmp:rhcc-effective-on-set-on-upload>true</xmp:rhcc-effective-on-set-on-upload>
         <xmp:rhcc-metadata-complete-uploader>pending</xmp:rhcc-metadata-complete-uploader>
         <xmp:rhcc-file-last-modified>2023-12-08T17:34:41.031Z</xmp:rhcc-file-last-modified>
         <xmp:rhcc-audience>rhcc-audience:internal</xmp:rhcc-audience>
         <xmp:rhcc-rights-restricted>no</xmp:rhcc-rights-restricted>
         <xmp:brand-content-subtype>Icon</xmp:brand-content-subtype>
         <xmp:rhcc-derivative-id>DER0dd6d8e4-9e73-4a5c-b682-1d351f817168</xmp:rhcc-derivative-id>
         <xmp:brand-logo-color>Black</xmp:brand-logo-color>
         <xmp:rhcc-notify-portal-subscribers-on-change>yes</xmp:rhcc-notify-portal-subscribers-on-change>
         <dc:format>image/svg+xml</dc:format>
         <dc:modified>2024-02-09T20:13:09.540Z</dc:modified>
         <dc:title>
            <rdf:Alt>
               <rdf:li xml:lang="x-default">Unsecured server stack icon - Black</rdf:li>
            </rdf:Alt>
         </dc:title>
         <dc:description>
            <rdf:Alt>
               <rdf:li xml:lang="x-default">host, datacenter, computer, metal, infrastructure, client, hardware, security</rdf:li>
            </rdf:Alt>
         </dc:description>
         <cq:lastReplicationAction_scene7>Activate</cq:lastReplicationAction_scene7>
         <cq:lastReplicationAction_publish>Activate</cq:lastReplicationAction_publish>
         <cq:lastReplicated_publish>2024-02-09T21:49:04.124Z</cq:lastReplicated_publish>
         <cq:lastReplicatedBy>workflow-process-service</cq:lastReplicatedBy>
         <cq:lastReplicationAction>Activate</cq:lastReplicationAction>
         <cq:lastReplicatedBy_publish>workflow-process-service</cq:lastReplicatedBy_publish>
         <cq:isDelivered>true</cq:isDelivered>
         <cq:lastReplicated>2024-02-09T21:49:04.124Z</cq:lastReplicated>
         <cq:lastReplicatedBy_scene7>workflow-process-service</cq:lastReplicatedBy_scene7>
         <cq:lastReplicated_scene7>2024-02-09T21:49:04.124Z</cq:lastReplicated_scene7>
         <tiff:ImageLength>36</tiff:ImageLength>
         <tiff:ImageWidth>36</tiff:ImageWidth>
      </rdf:Description>
   </rdf:RDF>
</x:xmpmeta>
                                                                                                    
                                                                                                    
                                                                                                    
                                                                                                    
                                                                                                    
                                                                                                    
                                                                                                    
                                                                                                    
                                                                                                    
                                                                                                    
                                 
<?xpacket end="w"?></metadata>
<path d="M27,10.62a.62.62,0,1,0-.62-.62A.61.61,0,0,0,27,10.62Z"/>
  <path d="M27,18.62a.62.62,0,1,0-.62-.62A.61.61,0,0,0,27,18.62Z"/>
  <g>
    <path d="M23,30.38H5.62V5.62H30.38V22a.62.62,0,0,0,1.24,0V5A.62.62,0,0,0,31,4.38H5A.62.62,0,0,0,4.38,5V31a.62.62,0,0,0,.62.62H23a.62.62,0,0,0,0-1.24Z"/>
    <path d="M15,9.38H9a.62.62,0,0,0,0,1.24h6a.62.62,0,0,0,0-1.24Z"/>
    <path d="M15,25.38H9a.62.62,0,1,0,0,1.24h6a.62.62,0,0,0,0-1.24Z"/>
    <path d="M15,17.38H9a.62.62,0,0,0,0,1.24h6a.62.62,0,0,0,0-1.24Z"/>
    <path d="M24.38,28A3.63,3.63,0,0,0,28,31.63a3.43,3.43,0,0,0,1.28-.25l-4.9-4.9Z"/>
    <path d="M31.72,30.29l-.55-.56A3.6,3.6,0,0,0,31.63,28V24.55a.62.62,0,0,0-.5-.61l-3-.64a.57.57,0,0,0-.26,0l-2.59.55-.38-.38a.62.62,0,0,0-.88.88l.36.36h0l6,6h0l.45.45a.66.66,0,0,0,.45.18.62.62,0,0,0,.44-.18A.63.63,0,0,0,31.72,30.29Z"/>
  </g>
</svg>
