<?xml version="1.0" encoding="UTF-8"?>
<svg id="uuid-aa9716d5-eafb-4368-b646-6b374401e532" data-name="Icon" xmlns="http://www.w3.org/2000/svg" viewBox="0 0 36 36">
  <metadata><?xpacket begin="﻿" id="W5M0MpCehiHzreSzNTczkc9d"?>
<x:xmpmeta xmlns:x="adobe:ns:meta/" x:xmptk="Adobe XMP Core 8.0-c001 1.000000, 0000/00/00-00:00:00        ">
   <rdf:RDF xmlns:rdf="http://www.w3.org/1999/02/22-rdf-syntax-ns#">
      <rdf:Description rdf:about=""
            xmlns:xmp="http://ns.adobe.com/xap/1.0/"
            xmlns:dc="http://purl.org/dc/elements/1.1/"
            xmlns:cq="http://www.day.com/jcr/cq/1.0"
            xmlns:tiff="http://ns.adobe.com/tiff/1.0/">
         <xmp:rhcc-effective-on>2023-12-08T17:41:19.333Z</xmp:rhcc-effective-on>
         <xmp:rhcc-metadata-complete-moderator>pending</xmp:rhcc-metadata-complete-moderator>
         <xmp:rhcc-translation-id>TRA8b9a316b-bba5-4a9e-9c20-bc95f08c5746</xmp:rhcc-translation-id>
         <xmp:CreateDate>2023-12-08T17:41:19.333Z</xmp:CreateDate>
         <xmp:rhcc-effective-on-set-on-upload>true</xmp:rhcc-effective-on-set-on-upload>
         <xmp:rhcc-metadata-complete-uploader>pending</xmp:rhcc-metadata-complete-uploader>
         <xmp:rhcc-file-last-modified>2023-12-08T17:42:23.097Z</xmp:rhcc-file-last-modified>
         <xmp:rhcc-audience>rhcc-audience:internal</xmp:rhcc-audience>
         <xmp:rhcc-rights-restricted>no</xmp:rhcc-rights-restricted>
         <xmp:rhcc-derivative-id>DER8b9a316b-bba5-4a9e-9c20-bc95f08c5746</xmp:rhcc-derivative-id>
         <xmp:rhcc-notify-portal-subscribers-on-change>yes</xmp:rhcc-notify-portal-subscribers-on-change>
         <dc:format>image/svg+xml</dc:format>
         <dc:modified>2024-02-09T20:26:51.363Z</dc:modified>
         <cq:lastReplicationAction_scene7>Activate</cq:lastReplicationAction_scene7>
         <cq:lastReplicationAction_publish>Activate</cq:lastReplicationAction_publish>
         <cq:lastReplicated_publish>2024-02-09T22:12:15.841Z</cq:lastReplicated_publish>
         <cq:lastReplicatedBy>workflow-process-service</cq:lastReplicatedBy>
         <cq:lastReplicationAction>Activate</cq:lastReplicationAction>
         <cq:lastReplicatedBy_publish>workflow-process-service</cq:lastReplicatedBy_publish>
         <cq:isDelivered>true</cq:isDelivered>
         <cq:lastReplicated>2024-02-09T22:12:15.841Z</cq:lastReplicated>
         <cq:lastReplicatedBy_scene7>workflow-process-service</cq:lastReplicatedBy_scene7>
         <cq:lastReplicated_scene7>2024-02-09T22:12:15.841Z</cq:lastReplicated_scene7>
         <tiff:ImageLength>36</tiff:ImageLength>
         <tiff:ImageWidth>36</tiff:ImageWidth>
      </rdf:Description>
   </rdf:RDF>
</x:xmpmeta>
                                                                                                    
                                                                                                    
                                                                                                    
                                                                                                    
                                                                                                    
                                                                                                    
                                                                                                    
                                                                                                    
                                                                                                    
                                                                                                    
                                 
<?xpacket end="w"?></metadata>
<path d="M5.32,24.99c.24-.14,.47-.31,.68-.49,1.67,1.44,4.33,1.44,6,0,1.67,1.44,4.33,1.44,6,0,1.67,1.44,4.33,1.44,6,0,1.66,1.49,4.34,1.49,6,0,.21,.18,.44,.35,.68,.49,.3,.17,.68,.08,.86-.22,.18-.3,.08-.68-.22-.86-.32-.19-.6-.42-.85-.71-.24-.27-.7-.27-.94,0-1.29,1.54-3.77,1.54-5.06,0-.24-.27-.7-.27-.94,0-1.29,1.54-3.77,1.54-5.06,0-.24-.27-.7-.27-.94,0-1.29,1.54-3.77,1.54-5.06,0-.24-.27-.7-.27-.94,0-1.29,1.54-3.77,1.54-5.06,0-.24-.28-.7-.28-.94,0-.25,.28-.53,.52-.85,.71-.3,.18-.4,.56-.22,.86,.18,.3,.56,.39,.86,.22Z"/>
  <path d="M31.32,28.92c-.32-.19-.6-.42-.85-.71-.24-.27-.7-.27-.94,0-1.29,1.54-3.77,1.54-5.06,0-.24-.27-.7-.27-.94,0-1.29,1.54-3.77,1.54-5.06,0-.24-.27-.7-.27-.94,0-1.29,1.54-3.77,1.54-5.06,0-.24-.27-.7-.27-.94,0-1.29,1.54-3.77,1.54-5.06,0-.24-.28-.7-.28-.94,0-.25,.28-.53,.52-.85,.71-.3,.18-.4,.56-.22,.86,.18,.3,.56,.39,.86,.22,.24-.14,.47-.31,.68-.49,1.67,1.44,4.33,1.44,6,0,1.67,1.44,4.33,1.44,6,0,1.67,1.44,4.33,1.44,6,0,1.66,1.49,4.34,1.49,6,0,.21,.18,.44,.35,.68,.49,.3,.17,.68,.08,.86-.22,.18-.3,.08-.68-.22-.86Z"/>
  <path d="M8.29,6.53c4.85,2.93,5.46,10.29,1.21,14.01-.25,.23-.27,.63-.04,.88,.23,.25,.63,.27,.88,.04,1.43-1.31,2.42-3,2.92-4.84h2.74c.82,0,.82-1.25,0-1.25h-2.48c.08-.58,.14-1.17,.09-1.75h1.39c.82,0,.82-1.25,0-1.25h-1.52c-.36-2.21-1.41-4.22-3.04-5.75h1.56c7.93,0,14.38,6.45,14.38,14.38,0,.81,1.25,.82,1.25,0,0-8.62-7.01-15.62-15.62-15.62h-3.37c-.28,0-.52,.18-.6,.45-.08,.27,.03,.55,.26,.7Z"/>
</svg>