<svg id="b1e8d741-53b6-4099-a5d8-87ebc53e68d6" data-name="Layer 1" xmlns="http://www.w3.org/2000/svg" viewBox="0 0 36 36">
  <title>Shared workspace icon - Black</title>
<desc>collaborate, GWS, seats, flex space, team, office and work</desc>
<metadata><?xpacket begin="﻿" id="W5M0MpCehiHzreSzNTczkc9d"?>
<x:xmpmeta xmlns:x="adobe:ns:meta/" x:xmptk="Adobe XMP Core 8.0-c001 1.000000, 0000/00/00-00:00:00        ">
   <rdf:RDF xmlns:rdf="http://www.w3.org/1999/02/22-rdf-syntax-ns#">
      <rdf:Description rdf:about=""
            xmlns:xmp="http://ns.adobe.com/xap/1.0/"
            xmlns:dc="http://purl.org/dc/elements/1.1/"
            xmlns:cq="http://www.day.com/jcr/cq/1.0"
            xmlns:tiff="http://ns.adobe.com/tiff/1.0/">
         <xmp:rhcc-effective-on>2023-12-08T17:47:17.559Z</xmp:rhcc-effective-on>
         <xmp:rhcc-metadata-complete-moderator>pending</xmp:rhcc-metadata-complete-moderator>
         <xmp:rhcc-translation-id>TRA44518122-997f-4bf1-92ff-fbe5a062c21e</xmp:rhcc-translation-id>
         <xmp:brand-content-type>Icon</xmp:brand-content-type>
         <xmp:CreateDate>2023-12-08T17:47:17.559Z</xmp:CreateDate>
         <xmp:rhcc-effective-on-set-on-upload>true</xmp:rhcc-effective-on-set-on-upload>
         <xmp:rhcc-metadata-complete-uploader>pending</xmp:rhcc-metadata-complete-uploader>
         <xmp:rhcc-file-last-modified>2023-12-08T17:48:04.297Z</xmp:rhcc-file-last-modified>
         <xmp:rhcc-audience>rhcc-audience:internal</xmp:rhcc-audience>
         <xmp:rhcc-rights-restricted>no</xmp:rhcc-rights-restricted>
         <xmp:brand-content-subtype>Icon</xmp:brand-content-subtype>
         <xmp:rhcc-derivative-id>DER44518122-997f-4bf1-92ff-fbe5a062c21e</xmp:rhcc-derivative-id>
         <xmp:brand-logo-color>Black</xmp:brand-logo-color>
         <xmp:rhcc-notify-portal-subscribers-on-change>yes</xmp:rhcc-notify-portal-subscribers-on-change>
         <dc:format>image/svg+xml</dc:format>
         <dc:modified>2024-02-09T20:24:04.085Z</dc:modified>
         <dc:title>
            <rdf:Alt>
               <rdf:li xml:lang="x-default">Shared workspace icon - Black</rdf:li>
            </rdf:Alt>
         </dc:title>
         <dc:description>
            <rdf:Alt>
               <rdf:li xml:lang="x-default">collaborate, GWS, seats, flex space, team, office and work</rdf:li>
            </rdf:Alt>
         </dc:description>
         <cq:lastReplicationAction_scene7>Activate</cq:lastReplicationAction_scene7>
         <cq:lastReplicationAction_publish>Activate</cq:lastReplicationAction_publish>
         <cq:lastReplicated_publish>2024-02-09T22:06:07.276Z</cq:lastReplicated_publish>
         <cq:lastReplicatedBy>workflow-process-service</cq:lastReplicatedBy>
         <cq:lastReplicationAction>Activate</cq:lastReplicationAction>
         <cq:lastReplicatedBy_publish>workflow-process-service</cq:lastReplicatedBy_publish>
         <cq:isDelivered>true</cq:isDelivered>
         <cq:lastReplicated>2024-02-09T22:06:07.276Z</cq:lastReplicated>
         <cq:lastReplicatedBy_scene7>workflow-process-service</cq:lastReplicatedBy_scene7>
         <cq:lastReplicated_scene7>2024-02-09T22:06:07.276Z</cq:lastReplicated_scene7>
         <tiff:ImageLength>36</tiff:ImageLength>
         <tiff:ImageWidth>36</tiff:ImageWidth>
      </rdf:Description>
   </rdf:RDF>
</x:xmpmeta>
                                                                                                    
                                                                                                    
                                                                                                    
                                                                                                    
                                                                                                    
                                                                                                    
                                                                                                    
                                                                                                    
                                                                                                    
                                                                                                    
                                 
<?xpacket end="w"?></metadata>
<g>
    <path d="M26.29,10.79a3.61,3.61,0,1,0-4.58,0A6.63,6.63,0,0,0,17.38,17a.62.62,0,0,0,.62.62H30a.62.62,0,0,0,.62-.62A6.63,6.63,0,0,0,26.29,10.79ZM21.62,8a2.38,2.38,0,0,1,4.75,0A2.38,2.38,0,0,1,21.62,8Zm-3,8.38a5.38,5.38,0,0,1,10.68,0Z"/>
    <path d="M13.29,24.79a3.61,3.61,0,1,0-4.58,0A6.63,6.63,0,0,0,4.38,31a.62.62,0,0,0,.62.62H17a.62.62,0,0,0,.62-.62A6.63,6.63,0,0,0,13.29,24.79ZM8.62,22a2.38,2.38,0,0,1,4.75,0A2.38,2.38,0,0,1,8.62,22Zm-3,8.38a5.38,5.38,0,0,1,10.68,0Z"/>
    <path d="M28.1,19.38a.63.63,0,0,0-.63.62v7.38H20.1a.62.62,0,0,0,0,1.24h8a.62.62,0,0,0,.62-.62V20A.62.62,0,0,0,28.1,19.38Z"/>
    <path d="M8,16.62A.62.62,0,0,0,8.62,16V8.62H16a.62.62,0,0,0,0-1.24H8A.62.62,0,0,0,7.38,8v8A.62.62,0,0,0,8,16.62Z"/>
  </g>
</svg>
