<svg id="eedae61d-a555-4efb-a454-bca1156a1d8d" data-name="Icon" xmlns="http://www.w3.org/2000/svg" viewBox="0 0 36 36">
  <title>Shoe icon - Black</title>
<desc>foot, footwear, wear, clothes, tennis shoe, sneaker, step, walk, run, exercise, athletic, sports, objects</desc>
<metadata><?xpacket begin="﻿" id="W5M0MpCehiHzreSzNTczkc9d"?>
<x:xmpmeta xmlns:x="adobe:ns:meta/" x:xmptk="Adobe XMP Core 8.0-c001 1.000000, 0000/00/00-00:00:00        ">
   <rdf:RDF xmlns:rdf="http://www.w3.org/1999/02/22-rdf-syntax-ns#">
      <rdf:Description rdf:about=""
            xmlns:xmp="http://ns.adobe.com/xap/1.0/"
            xmlns:dc="http://purl.org/dc/elements/1.1/"
            xmlns:cq="http://www.day.com/jcr/cq/1.0"
            xmlns:tiff="http://ns.adobe.com/tiff/1.0/">
         <xmp:rhcc-effective-on>2023-12-08T17:36:26.879Z</xmp:rhcc-effective-on>
         <xmp:rhcc-metadata-complete-moderator>pending</xmp:rhcc-metadata-complete-moderator>
         <xmp:rhcc-translation-id>TRAdcb1cca6-4291-4b44-8e2d-749f7358d6a5</xmp:rhcc-translation-id>
         <xmp:brand-content-type>Icon</xmp:brand-content-type>
         <xmp:CreateDate>2023-12-08T17:36:26.879Z</xmp:CreateDate>
         <xmp:rhcc-effective-on-set-on-upload>true</xmp:rhcc-effective-on-set-on-upload>
         <xmp:rhcc-metadata-complete-uploader>pending</xmp:rhcc-metadata-complete-uploader>
         <xmp:rhcc-file-last-modified>2023-12-08T17:38:15.595Z</xmp:rhcc-file-last-modified>
         <xmp:rhcc-audience>rhcc-audience:internal</xmp:rhcc-audience>
         <xmp:rhcc-rights-restricted>no</xmp:rhcc-rights-restricted>
         <xmp:brand-content-subtype>Icon</xmp:brand-content-subtype>
         <xmp:rhcc-derivative-id>DERdcb1cca6-4291-4b44-8e2d-749f7358d6a5</xmp:rhcc-derivative-id>
         <xmp:brand-logo-color>Black</xmp:brand-logo-color>
         <xmp:rhcc-notify-portal-subscribers-on-change>yes</xmp:rhcc-notify-portal-subscribers-on-change>
         <dc:format>image/svg+xml</dc:format>
         <dc:modified>2024-02-09T20:32:53.426Z</dc:modified>
         <dc:title>
            <rdf:Alt>
               <rdf:li xml:lang="x-default">Shoe icon - Black</rdf:li>
            </rdf:Alt>
         </dc:title>
         <dc:description>
            <rdf:Alt>
               <rdf:li xml:lang="x-default">foot, footwear, wear, clothes, tennis shoe, sneaker, step, walk, run, exercise, athletic, sports, objects</rdf:li>
            </rdf:Alt>
         </dc:description>
         <cq:lastReplicationAction_scene7>Activate</cq:lastReplicationAction_scene7>
         <cq:lastReplicationAction_publish>Activate</cq:lastReplicationAction_publish>
         <cq:lastReplicated_publish>2024-02-09T22:20:35.933Z</cq:lastReplicated_publish>
         <cq:lastReplicatedBy>workflow-process-service</cq:lastReplicatedBy>
         <cq:lastReplicationAction>Activate</cq:lastReplicationAction>
         <cq:lastReplicatedBy_publish>workflow-process-service</cq:lastReplicatedBy_publish>
         <cq:isDelivered>true</cq:isDelivered>
         <cq:lastReplicated>2024-02-09T22:20:35.933Z</cq:lastReplicated>
         <cq:lastReplicatedBy_scene7>workflow-process-service</cq:lastReplicatedBy_scene7>
         <cq:lastReplicated_scene7>2024-02-09T22:20:35.933Z</cq:lastReplicated_scene7>
         <tiff:ImageLength>36</tiff:ImageLength>
         <tiff:ImageWidth>36</tiff:ImageWidth>
      </rdf:Description>
   </rdf:RDF>
</x:xmpmeta>
                                                                                                    
                                                                                                    
                                                                                                    
                                                                                                    
                                                                                                    
                                                                                                    
                                                                                                    
                                                                                                    
                                                                                                    
                                                                                                    
                                 
<?xpacket end="w"?></metadata>
<g>
    <path d="M27,17.38a.62.62,0,1,0,0,1.24,3.38,3.38,0,0,1,3.32,2.82,4.62,4.62,0,0,0-3.88,3.94H22.56a4.6,4.6,0,0,0-9.12,0H5.62V14a1.38,1.38,0,1,1,2.75,0v1a4.63,4.63,0,0,0,9.25,0V12a.62.62,0,0,0-.62-.62.63.63,0,0,0-.63.62v3a3.38,3.38,0,1,1-6.75,0V14a2.63,2.63,0,0,0-5.25,0V26a.63.63,0,0,0,.63.62H30A1.61,1.61,0,0,0,31.62,25V22A4.62,4.62,0,0,0,27,17.38Zm-9,5.24a3.37,3.37,0,0,1,3.31,2.76H14.69A3.37,3.37,0,0,1,18,22.62Zm12,2.76H27.69a3.37,3.37,0,0,1,2.68-2.69V25A.37.37,0,0,1,30,25.38Z"/>
    <path d="M23,18.62a.62.62,0,0,0,.62-.62V16a.62.62,0,0,0-.62-.62.63.63,0,0,0-.63.62v2A.63.63,0,0,0,23,18.62Z"/>
    <path d="M20,17.62a.62.62,0,0,0,.62-.62V14a.62.62,0,0,0-.62-.62.63.63,0,0,0-.63.62v3A.63.63,0,0,0,20,17.62Z"/>
  </g>
</svg>
