<svg id="aae1359e-2188-43eb-b7c3-0b78f9f2eb9e" data-name="Icon" xmlns="http://www.w3.org/2000/svg" viewBox="0 0 36 36">
  <title>Smartwatch icon - Black</title>
<desc>helpful, productive, wearable, Apple, mobile, IOT, hardware</desc>
<metadata><?xpacket begin="﻿" id="W5M0MpCehiHzreSzNTczkc9d"?>
<x:xmpmeta xmlns:x="adobe:ns:meta/" x:xmptk="Adobe XMP Core 8.0-c001 1.000000, 0000/00/00-00:00:00        ">
   <rdf:RDF xmlns:rdf="http://www.w3.org/1999/02/22-rdf-syntax-ns#">
      <rdf:Description rdf:about=""
            xmlns:xmp="http://ns.adobe.com/xap/1.0/"
            xmlns:dc="http://purl.org/dc/elements/1.1/"
            xmlns:cq="http://www.day.com/jcr/cq/1.0"
            xmlns:tiff="http://ns.adobe.com/tiff/1.0/">
         <xmp:rhcc-effective-on>2023-12-08T17:34:30.640Z</xmp:rhcc-effective-on>
         <xmp:rhcc-metadata-complete-moderator>pending</xmp:rhcc-metadata-complete-moderator>
         <xmp:rhcc-translation-id>TRA57388d93-db14-41ec-bd59-cf279afcf533</xmp:rhcc-translation-id>
         <xmp:brand-content-type>Icon</xmp:brand-content-type>
         <xmp:CreateDate>2023-12-08T17:34:30.640Z</xmp:CreateDate>
         <xmp:rhcc-effective-on-set-on-upload>true</xmp:rhcc-effective-on-set-on-upload>
         <xmp:rhcc-metadata-complete-uploader>pending</xmp:rhcc-metadata-complete-uploader>
         <xmp:rhcc-file-last-modified>2023-12-08T17:34:41.170Z</xmp:rhcc-file-last-modified>
         <xmp:rhcc-audience>rhcc-audience:internal</xmp:rhcc-audience>
         <xmp:rhcc-rights-restricted>no</xmp:rhcc-rights-restricted>
         <xmp:brand-content-subtype>Icon</xmp:brand-content-subtype>
         <xmp:rhcc-derivative-id>DER57388d93-db14-41ec-bd59-cf279afcf533</xmp:rhcc-derivative-id>
         <xmp:brand-logo-color>Black</xmp:brand-logo-color>
         <xmp:rhcc-notify-portal-subscribers-on-change>yes</xmp:rhcc-notify-portal-subscribers-on-change>
         <dc:format>image/svg+xml</dc:format>
         <dc:modified>2024-02-09T20:13:06.237Z</dc:modified>
         <dc:title>
            <rdf:Alt>
               <rdf:li xml:lang="x-default">Smartwatch icon - Black</rdf:li>
            </rdf:Alt>
         </dc:title>
         <dc:description>
            <rdf:Alt>
               <rdf:li xml:lang="x-default">helpful, productive, wearable, Apple, mobile, IOT, hardware</rdf:li>
            </rdf:Alt>
         </dc:description>
         <cq:lastReplicationAction_scene7>Activate</cq:lastReplicationAction_scene7>
         <cq:lastReplicationAction_publish>Activate</cq:lastReplicationAction_publish>
         <cq:lastReplicated_publish>2024-02-09T21:49:00.186Z</cq:lastReplicated_publish>
         <cq:lastReplicatedBy>workflow-process-service</cq:lastReplicatedBy>
         <cq:lastReplicationAction>Activate</cq:lastReplicationAction>
         <cq:lastReplicatedBy_publish>workflow-process-service</cq:lastReplicatedBy_publish>
         <cq:isDelivered>true</cq:isDelivered>
         <cq:lastReplicated>2024-02-09T21:49:00.186Z</cq:lastReplicated>
         <cq:lastReplicatedBy_scene7>workflow-process-service</cq:lastReplicatedBy_scene7>
         <cq:lastReplicated_scene7>2024-02-09T21:49:00.186Z</cq:lastReplicated_scene7>
         <tiff:ImageLength>36</tiff:ImageLength>
         <tiff:ImageWidth>36</tiff:ImageWidth>
      </rdf:Description>
   </rdf:RDF>
</x:xmpmeta>
                                                                                                    
                                                                                                    
                                                                                                    
                                                                                                    
                                                                                                    
                                                                                                    
                                                                                                    
                                                                                                    
                                                                                                    
                                                                                                    
                                 
<?xpacket end="w"?></metadata>
<path d="M15.86,16.52a.62.62,0,1,0-.62-.62A.61.61,0,0,0,15.86,16.52Z"/>
  <path d="M15.86,20.74a.62.62,0,1,0-.62-.62A.61.61,0,0,0,15.86,20.74Z"/>
  <path d="M20.12,20.74a.62.62,0,1,0-.62-.62A.61.61,0,0,0,20.12,20.74Z"/>
  <path d="M20.12,16.52a.62.62,0,1,0-.62-.62A.61.61,0,0,0,20.12,16.52Z"/>
  <g>
    <path d="M22.58,9.43l-1-4.56A.73.73,0,0,0,21,4.39H15a.67.67,0,0,0-.59.49l-1,4.56a3.62,3.62,0,0,0-3,3.57V23a3.62,3.62,0,0,0,3,3.57l1,4.56a.65.65,0,0,0,.61.49h6a.59.59,0,0,0,.61-.5l1-4.56a3.62,3.62,0,0,0,3-3.57V13A3.62,3.62,0,0,0,22.58,9.43ZM15.51,5.62h5l.8,3.76H14.71Zm5,24.76h-5l-.8-3.76h6.58ZM24.38,23A2.39,2.39,0,0,1,22,25.38H14A2.39,2.39,0,0,1,11.62,23V13A2.39,2.39,0,0,1,14,10.62h8A2.39,2.39,0,0,1,24.38,13Z"/>
    <path d="M27,14.38a.62.62,0,0,0-.62.62v3a.62.62,0,0,0,1.24,0V15A.62.62,0,0,0,27,14.38Z"/>
    <path d="M21,17.34a.63.63,0,0,0-.62.63s0,0,0,0h0a.62.62,0,0,0,.63.62.61.61,0,0,0,.62-.62v0s0,0,0,0A.61.61,0,0,0,21,17.34Z"/>
    <path d="M15.63,18a.64.64,0,0,0-.63-.62.63.63,0,1,0,.63.62Z"/>
    <path d="M18,20.37a.64.64,0,0,0-.63.63.63.63,0,1,0,.63-.63Z"/>
    <path d="M18,15.63A.64.64,0,0,0,18.6,15a.62.62,0,0,0-.63-.61.62.62,0,0,0-.62.62A.63.63,0,0,0,18,15.63Z"/>
  </g>
</svg>
