<svg id="aacfe83a-f248-473e-a107-1ae594047d85" data-name="Icon" xmlns="http://www.w3.org/2000/svg" viewBox="0 0 36 36"><title>Snowflake icon - Black</title>
<desc>snow, flake, ice, cold, snowman, weather, winter, white, precipitation, arctic, science and nature</desc>
<metadata><?xpacket begin="﻿" id="W5M0MpCehiHzreSzNTczkc9d"?>
<x:xmpmeta xmlns:x="adobe:ns:meta/" x:xmptk="Adobe XMP Core 8.0-c001 1.000000, 0000/00/00-00:00:00        ">
   <rdf:RDF xmlns:rdf="http://www.w3.org/1999/02/22-rdf-syntax-ns#">
      <rdf:Description rdf:about=""
            xmlns:xmp="http://ns.adobe.com/xap/1.0/"
            xmlns:dc="http://purl.org/dc/elements/1.1/"
            xmlns:cq="http://www.day.com/jcr/cq/1.0"
            xmlns:tiff="http://ns.adobe.com/tiff/1.0/">
         <xmp:rhcc-effective-on>2023-12-08T17:41:20.575Z</xmp:rhcc-effective-on>
         <xmp:rhcc-metadata-complete-moderator>pending</xmp:rhcc-metadata-complete-moderator>
         <xmp:rhcc-translation-id>TRAe799b50d-b8be-4bb3-92d2-734435ad0ade</xmp:rhcc-translation-id>
         <xmp:brand-content-type>Icon</xmp:brand-content-type>
         <xmp:CreateDate>2023-12-08T17:41:20.575Z</xmp:CreateDate>
         <xmp:rhcc-effective-on-set-on-upload>true</xmp:rhcc-effective-on-set-on-upload>
         <xmp:rhcc-metadata-complete-uploader>pending</xmp:rhcc-metadata-complete-uploader>
         <xmp:rhcc-file-last-modified>2023-12-08T17:42:21.196Z</xmp:rhcc-file-last-modified>
         <xmp:rhcc-audience>rhcc-audience:internal</xmp:rhcc-audience>
         <xmp:rhcc-rights-restricted>no</xmp:rhcc-rights-restricted>
         <xmp:brand-content-subtype>Icon</xmp:brand-content-subtype>
         <xmp:rhcc-derivative-id>DERe799b50d-b8be-4bb3-92d2-734435ad0ade</xmp:rhcc-derivative-id>
         <xmp:brand-logo-color>Black</xmp:brand-logo-color>
         <xmp:rhcc-notify-portal-subscribers-on-change>yes</xmp:rhcc-notify-portal-subscribers-on-change>
         <dc:format>image/svg+xml</dc:format>
         <dc:modified>2024-02-09T20:26:46.514Z</dc:modified>
         <dc:title>
            <rdf:Alt>
               <rdf:li xml:lang="x-default">Snowflake icon - Black</rdf:li>
            </rdf:Alt>
         </dc:title>
         <dc:description>
            <rdf:Alt>
               <rdf:li xml:lang="x-default">snow, flake, ice, cold, snowman, weather, winter, white, precipitation, arctic, science and nature</rdf:li>
            </rdf:Alt>
         </dc:description>
         <cq:lastReplicationAction_scene7>Activate</cq:lastReplicationAction_scene7>
         <cq:lastReplicationAction_publish>Activate</cq:lastReplicationAction_publish>
         <cq:lastReplicated_publish>2024-02-09T22:12:04.155Z</cq:lastReplicated_publish>
         <cq:lastReplicatedBy>workflow-process-service</cq:lastReplicatedBy>
         <cq:lastReplicationAction>Activate</cq:lastReplicationAction>
         <cq:lastReplicatedBy_publish>workflow-process-service</cq:lastReplicatedBy_publish>
         <cq:isDelivered>true</cq:isDelivered>
         <cq:lastReplicated>2024-02-09T22:12:04.155Z</cq:lastReplicated>
         <cq:lastReplicatedBy_scene7>workflow-process-service</cq:lastReplicatedBy_scene7>
         <cq:lastReplicated_scene7>2024-02-09T22:12:04.155Z</cq:lastReplicated_scene7>
         <tiff:ImageLength>36</tiff:ImageLength>
         <tiff:ImageWidth>36</tiff:ImageWidth>
      </rdf:Description>
   </rdf:RDF>
</x:xmpmeta>
                                                                                                    
                                                                                                    
                                                                                                    
                                                                                                    
                                                                                                    
                                                                                                    
                                                                                                    
                                                                                                    
                                                                                                    
                                                                                                    
                                 
<?xpacket end="w"?></metadata>
<path d="M28.88,18l2.56-2.56a.62.62,0,0,0-.88-.88l-2.82,2.82h-7.2a2.49,2.49,0,0,0-.3-.73l4-4H28a.62.62,0,1,0,0-1.24H25.51l2.93-2.94a.62.62,0,0,0-.88-.88l-2.94,2.93V8a.62.62,0,0,0-1.24,0v3.74l-4,4a2.49,2.49,0,0,0-.73-.3V8.26l2.82-2.82a.62.62,0,0,0-.88-.88L18,7.12,15.44,4.56a.62.62,0,0,0-.88.88l2.82,2.82v7.2a2.49,2.49,0,0,0-.73.3l-4-4V8a.62.62,0,1,0-1.24,0v2.49L8.44,7.56a.62.62,0,0,0-.88.88l2.93,2.94H8a.62.62,0,0,0,0,1.24h3.74l4,4a2.49,2.49,0,0,0-.3.73H8.26L5.44,14.56a.62.62,0,0,0-.88.88L7.12,18,4.56,20.56a.61.61,0,0,0,0,.88.63.63,0,0,0,.88,0l2.82-2.82h7.2a2.49,2.49,0,0,0,.3.73l-4,4H8a.62.62,0,1,0,0,1.24h2.49L7.56,27.56a.61.61,0,0,0,0,.88.63.63,0,0,0,.88,0l2.94-2.93V28a.62.62,0,0,0,1.24,0V24.26l4-4a2.49,2.49,0,0,0,.73.3v7.2l-2.82,2.82a.62.62,0,0,0,.88.88L18,28.88l2.56,2.56a.63.63,0,0,0,.88,0,.61.61,0,0,0,0-.88l-2.82-2.82v-7.2a2.49,2.49,0,0,0,.73-.3l4,4V28a.62.62,0,0,0,1.24,0V25.51l2.94,2.93a.63.63,0,0,0,.88,0,.61.61,0,0,0,0-.88l-2.93-2.94H28a.62.62,0,0,0,0-1.24H24.26l-4-4a2.49,2.49,0,0,0,.3-.73h7.2l2.82,2.82a.63.63,0,0,0,.88,0,.61.61,0,0,0,0-.88ZM16.62,18A1.38,1.38,0,1,1,18,19.38,1.38,1.38,0,0,1,16.62,18Z"/></svg>