<svg id="e23f7ef7-e8d1-46c9-b442-2f63b03ecc32" data-name="Icon" xmlns="http://www.w3.org/2000/svg" viewBox="0 0 36 36"><title>Solar power icon - Black</title>
<desc>sun, solar, power, renewable, energy, green, eco, science</desc>
<metadata><?xpacket begin="﻿" id="W5M0MpCehiHzreSzNTczkc9d"?>
<x:xmpmeta xmlns:x="adobe:ns:meta/" x:xmptk="Adobe XMP Core 8.0-c001 1.000000, 0000/00/00-00:00:00        ">
   <rdf:RDF xmlns:rdf="http://www.w3.org/1999/02/22-rdf-syntax-ns#">
      <rdf:Description rdf:about=""
            xmlns:xmp="http://ns.adobe.com/xap/1.0/"
            xmlns:dc="http://purl.org/dc/elements/1.1/"
            xmlns:cq="http://www.day.com/jcr/cq/1.0"
            xmlns:tiff="http://ns.adobe.com/tiff/1.0/">
         <xmp:rhcc-effective-on>2023-12-08T17:41:23.316Z</xmp:rhcc-effective-on>
         <xmp:rhcc-metadata-complete-moderator>pending</xmp:rhcc-metadata-complete-moderator>
         <xmp:rhcc-translation-id>TRA3cd1eec4-3af4-4d53-b7f8-9c2ac477162e</xmp:rhcc-translation-id>
         <xmp:brand-content-type>Icon</xmp:brand-content-type>
         <xmp:CreateDate>2023-12-08T17:41:23.316Z</xmp:CreateDate>
         <xmp:rhcc-effective-on-set-on-upload>true</xmp:rhcc-effective-on-set-on-upload>
         <xmp:rhcc-metadata-complete-uploader>pending</xmp:rhcc-metadata-complete-uploader>
         <xmp:rhcc-file-last-modified>2023-12-08T17:42:22.793Z</xmp:rhcc-file-last-modified>
         <xmp:rhcc-audience>rhcc-audience:internal</xmp:rhcc-audience>
         <xmp:rhcc-rights-restricted>no</xmp:rhcc-rights-restricted>
         <xmp:brand-content-subtype>Icon</xmp:brand-content-subtype>
         <xmp:rhcc-derivative-id>DER3cd1eec4-3af4-4d53-b7f8-9c2ac477162e</xmp:rhcc-derivative-id>
         <xmp:brand-logo-color>Black</xmp:brand-logo-color>
         <xmp:rhcc-notify-portal-subscribers-on-change>yes</xmp:rhcc-notify-portal-subscribers-on-change>
         <dc:format>image/svg+xml</dc:format>
         <dc:modified>2024-02-09T20:26:50.181Z</dc:modified>
         <dc:title>
            <rdf:Alt>
               <rdf:li xml:lang="x-default">Solar power icon - Black</rdf:li>
            </rdf:Alt>
         </dc:title>
         <dc:description>
            <rdf:Alt>
               <rdf:li xml:lang="x-default">sun, solar, power, renewable, energy, green, eco, science</rdf:li>
            </rdf:Alt>
         </dc:description>
         <cq:lastReplicationAction_scene7>Activate</cq:lastReplicationAction_scene7>
         <cq:lastReplicationAction_publish>Activate</cq:lastReplicationAction_publish>
         <cq:lastReplicated_publish>2024-02-09T22:12:12.583Z</cq:lastReplicated_publish>
         <cq:lastReplicatedBy>workflow-process-service</cq:lastReplicatedBy>
         <cq:lastReplicationAction>Activate</cq:lastReplicationAction>
         <cq:lastReplicatedBy_publish>workflow-process-service</cq:lastReplicatedBy_publish>
         <cq:isDelivered>true</cq:isDelivered>
         <cq:lastReplicated>2024-02-09T22:12:12.583Z</cq:lastReplicated>
         <cq:lastReplicatedBy_scene7>workflow-process-service</cq:lastReplicatedBy_scene7>
         <cq:lastReplicated_scene7>2024-02-09T22:12:12.583Z</cq:lastReplicated_scene7>
         <tiff:ImageLength>36</tiff:ImageLength>
         <tiff:ImageWidth>36</tiff:ImageWidth>
      </rdf:Description>
   </rdf:RDF>
</x:xmpmeta>
                                                                                                    
                                                                                                    
                                                                                                    
                                                                                                    
                                                                                                    
                                                                                                    
                                                                                                    
                                                                                                    
                                                                                                    
                                                                                                    
                                 
<?xpacket end="w"?></metadata>
<path d="M25,8.38a3.64,3.64,0,0,0-3.42,2.41.63.63,0,1,0,1.18.42,2.38,2.38,0,0,1,4.62.79,2.35,2.35,0,0,1-.61,1.58.63.63,0,0,0,.05.89.66.66,0,0,0,.42.15.63.63,0,0,0,.46-.2,3.63,3.63,0,0,0-2.7-6Z"/><path d="M31,11.38H30a.62.62,0,0,0,0,1.24h1a.62.62,0,1,0,0-1.24Z"/><path d="M25,7.62A.62.62,0,0,0,25.62,7V6a.62.62,0,0,0-1.24,0V7A.62.62,0,0,0,25,7.62Z"/><path d="M29,15.09a.63.63,0,0,0-.89.89l.71.7a.6.6,0,0,0,.88,0,.61.61,0,0,0,0-.88Z"/><path d="M21,8.91a.62.62,0,0,0,.44.18.66.66,0,0,0,.45-.18.64.64,0,0,0,0-.89l-.71-.7a.62.62,0,1,0-.88.88Z"/><path d="M28.54,9.09A.62.62,0,0,0,29,8.91l.7-.71a.62.62,0,1,0-.88-.88l-.71.7a.64.64,0,0,0,0,.89A.66.66,0,0,0,28.54,9.09Z"/><path d="M25,12.38H5a.62.62,0,0,0-.62.62V25a.62.62,0,0,0,.62.62h9.38v3.76H8a.62.62,0,1,0,0,1.24H22a.62.62,0,0,0,0-1.24H15.62V25.62H25a.62.62,0,0,0,.62-.62V13A.62.62,0,0,0,25,12.38Zm-.62,12H5.62V13.62H24.38Z"/><path d="M7,20.38a.62.62,0,1,0,0,1.24H9.38V23a.62.62,0,1,0,1.24,0V21.62h3.76V23a.62.62,0,0,0,1.24,0V21.62h3.76V23a.62.62,0,0,0,1.24,0V21.62H23a.62.62,0,0,0,0-1.24H20.62V17.62H23a.62.62,0,0,0,0-1.24H20.62V15a.62.62,0,0,0-1.24,0v1.38H15.62V15a.62.62,0,0,0-1.24,0v1.38H10.62V15a.62.62,0,0,0-1.24,0v1.38H7a.62.62,0,1,0,0,1.24H9.38v2.76Zm12.38-2.76v2.76H15.62V17.62Zm-8.76,0h3.76v2.76H10.62Z"/></svg>