<svg id="uuid-e430f33e-7140-422d-b1d3-2ed4a400f7ee" xmlns="http://www.w3.org/2000/svg" viewBox="0 0 36 36">
  <defs>
    <style>
      .uuid-e6a6bf4b-8c27-43ff-a911-45c50cbcb9ed{fill:#231f20;stroke-width:0}
    </style>
  </defs>
  <path class="uuid-e6a6bf4b-8c27-43ff-a911-45c50cbcb9ed" d="m31.26 10.24-.03-.06c-.08-.2-.18-.4-.29-.59-1.06-1.95-3.29-3.34-6.04-4.19-2.02-.65-4.37-1.03-6.91-1.03s-4.89.38-6.9 1.03c-2.74.84-4.98 2.24-6.04 4.19-.11.2-.21.4-.29.6 0 .01-.01.03-.02.04-.23.57-.37 1.16-.37 1.77v12c0 4.28 5.98 7.62 13.62 7.62S31.61 28.27 31.61 24V12c0-.61-.13-1.2-.37-1.76ZM30.38 12c0 3.46-5.67 6.38-12.38 6.38S5.62 15.46 5.62 12 11.29 5.62 18 5.62 30.38 8.54 30.38 12Zm0 4v8c0 3.46-5.67 6.38-12.38 6.38S5.62 27.46 5.62 24v-.77c2.14 2.62 6.81 4.4 12.38 4.4.82 0 .81-1.25 0-1.25-6.71 0-12.38-2.92-12.38-6.38v-.77c2.14 2.62 6.81 4.4 12.38 4.4.82 0 .82-1.25 0-1.25-6.71 0-12.38-2.92-12.38-6.38v-.77c2.14 2.62 6.81 4.4 12.38 4.4s10.24-1.78 12.38-4.4V16Z"/>
  <path class="uuid-e6a6bf4b-8c27-43ff-a911-45c50cbcb9ed" d="M18 9.62c.35 0 .62-.28.62-.62s-.28-.62-.62-.62c-12.81.03-12.81 7.22 0 7.25.82 0 .82-1.25 0-1.25-5.11 0-8.38-1.41-8.38-2.38S12.88 9.62 18 9.62Z"/>
</svg>
