<svg id="f8948a81-1588-44d1-aeaf-e8f96bcc3376" data-name="Icon" xmlns="http://www.w3.org/2000/svg" viewBox="0 0 36 36">
  <title>Satellite icon - Black</title>
<desc>communicate, space, travel, research, radio, solar panel, orbit, science and nature</desc>
<metadata><?xpacket begin="﻿" id="W5M0MpCehiHzreSzNTczkc9d"?>
<x:xmpmeta xmlns:x="adobe:ns:meta/" x:xmptk="Adobe XMP Core 8.0-c001 1.000000, 0000/00/00-00:00:00        ">
   <rdf:RDF xmlns:rdf="http://www.w3.org/1999/02/22-rdf-syntax-ns#">
      <rdf:Description rdf:about=""
            xmlns:xmp="http://ns.adobe.com/xap/1.0/"
            xmlns:dc="http://purl.org/dc/elements/1.1/"
            xmlns:cq="http://www.day.com/jcr/cq/1.0"
            xmlns:tiff="http://ns.adobe.com/tiff/1.0/">
         <xmp:rhcc-effective-on>2023-12-08T17:41:18.039Z</xmp:rhcc-effective-on>
         <xmp:rhcc-metadata-complete-moderator>pending</xmp:rhcc-metadata-complete-moderator>
         <xmp:rhcc-translation-id>TRAfc95da8d-afdd-4e5c-9719-4af516cd9059</xmp:rhcc-translation-id>
         <xmp:brand-content-type>Icon</xmp:brand-content-type>
         <xmp:CreateDate>2023-12-08T17:41:18.039Z</xmp:CreateDate>
         <xmp:rhcc-effective-on-set-on-upload>true</xmp:rhcc-effective-on-set-on-upload>
         <xmp:rhcc-metadata-complete-uploader>pending</xmp:rhcc-metadata-complete-uploader>
         <xmp:rhcc-file-last-modified>2023-12-08T17:42:21.793Z</xmp:rhcc-file-last-modified>
         <xmp:rhcc-audience>rhcc-audience:internal</xmp:rhcc-audience>
         <xmp:rhcc-rights-restricted>no</xmp:rhcc-rights-restricted>
         <xmp:brand-content-subtype>Icon</xmp:brand-content-subtype>
         <xmp:rhcc-derivative-id>DERfc95da8d-afdd-4e5c-9719-4af516cd9059</xmp:rhcc-derivative-id>
         <xmp:brand-logo-color>Black</xmp:brand-logo-color>
         <xmp:rhcc-notify-portal-subscribers-on-change>yes</xmp:rhcc-notify-portal-subscribers-on-change>
         <dc:format>image/svg+xml</dc:format>
         <dc:modified>2024-02-09T20:26:25.535Z</dc:modified>
         <dc:title>
            <rdf:Alt>
               <rdf:li xml:lang="x-default">Satellite icon - Black</rdf:li>
            </rdf:Alt>
         </dc:title>
         <dc:description>
            <rdf:Alt>
               <rdf:li xml:lang="x-default">communicate, space, travel, research, radio, solar panel, orbit, science and nature</rdf:li>
            </rdf:Alt>
         </dc:description>
         <cq:lastReplicationAction_scene7>Activate</cq:lastReplicationAction_scene7>
         <cq:lastReplicationAction_publish>Activate</cq:lastReplicationAction_publish>
         <cq:lastReplicated_publish>2024-02-09T22:11:16.967Z</cq:lastReplicated_publish>
         <cq:lastReplicatedBy>workflow-process-service</cq:lastReplicatedBy>
         <cq:lastReplicationAction>Activate</cq:lastReplicationAction>
         <cq:lastReplicatedBy_publish>workflow-process-service</cq:lastReplicatedBy_publish>
         <cq:isDelivered>true</cq:isDelivered>
         <cq:lastReplicated>2024-02-09T22:11:16.967Z</cq:lastReplicated>
         <cq:lastReplicatedBy_scene7>workflow-process-service</cq:lastReplicatedBy_scene7>
         <cq:lastReplicated_scene7>2024-02-09T22:11:16.967Z</cq:lastReplicated_scene7>
         <tiff:ImageLength>36</tiff:ImageLength>
         <tiff:ImageWidth>36</tiff:ImageWidth>
      </rdf:Description>
   </rdf:RDF>
</x:xmpmeta>
                                                                                                    
                                                                                                    
                                                                                                    
                                                                                                    
                                                                                                    
                                                                                                    
                                                                                                    
                                                                                                    
                                                                                                    
                                                                                                    
                                 
<?xpacket end="w"?></metadata>
<g>
    <path d="M23.83,20.22a.62.62,0,0,0-.18-.44L19.91,16l1.35-1.36,1.65,1.66a.64.64,0,0,0,.89,0l6.71-6.72a.61.61,0,0,0,0-.88L26.33,4.56a.63.63,0,0,0-.88,0L23.21,6.8l-4.47,4.47a.62.62,0,0,0,0,.89l1.63,1.64L19,15.15l-3.73-3.73a.63.63,0,0,0-.88,0l-3,3a.63.63,0,0,0,0,.88L15.16,19c-.05,0-1.32,1.32-1.36,1.35l-1.64-1.64a.62.62,0,0,0-.89,0c-1.11,1.11-3.36,3.35-4.47,4.47L4.56,25.45a.62.62,0,0,0-.18.44.59.59,0,0,0,.18.44l4.18,4.18a.61.61,0,0,0,.88,0l6.72-6.71a.64.64,0,0,0,0-.89l-1.66-1.65C14.73,21.2,16,20,16,19.9l3.75,3.75a.63.63,0,0,0,.88,0l3-3A.59.59,0,0,0,23.83,20.22Zm-.18-12.1,3.3,3.3L25.6,12.77,22.3,9.48Zm2.24-2.24,3.3,3.3-1.36,1.35L24.54,7.24Zm-4.47,4.48,3.29,3.3L23.36,15l-3.3-3.29ZM11.42,27l-3.3-3.3L9.48,22.3l3.29,3.3ZM9.18,29.19l-3.3-3.3,1.36-1.35,3.29,3.29Zm4.48-4.48-3.3-3.29,1.36-1.36L15,23.36Zm6.56-2.39-7.47-7.47,2.1-2.1,7.47,7.47Z"/>
    <path d="M31.44,22.67c-6-5.63-14.4,2.8-8.77,8.77a.61.61,0,0,0,.88,0l3.5-3.5,1.53,1.53a.63.63,0,0,0,.89-.89l-1.53-1.53,3.5-3.5A.61.61,0,0,0,31.44,22.67Zm-4.83,3.94-3.48,3.48c-3.47-4.59,2.35-10.44,7-7Z"/>
  </g>
</svg>
