<svg id="e925e4d7-37c3-42ba-9b69-48d006be9502" data-name="Icon" xmlns="http://www.w3.org/2000/svg" viewBox="0 0 36 36">
  <title>Space capsule icon - Black</title>
<desc>space, rocket, research, transport, solar panel, booster, orbit, science and nature</desc>
<metadata><?xpacket begin="﻿" id="W5M0MpCehiHzreSzNTczkc9d"?>
<x:xmpmeta xmlns:x="adobe:ns:meta/" x:xmptk="Adobe XMP Core 8.0-c001 1.000000, 0000/00/00-00:00:00        ">
   <rdf:RDF xmlns:rdf="http://www.w3.org/1999/02/22-rdf-syntax-ns#">
      <rdf:Description rdf:about=""
            xmlns:xmp="http://ns.adobe.com/xap/1.0/"
            xmlns:dc="http://purl.org/dc/elements/1.1/"
            xmlns:cq="http://www.day.com/jcr/cq/1.0"
            xmlns:tiff="http://ns.adobe.com/tiff/1.0/">
         <xmp:rhcc-effective-on>2023-12-08T17:41:21.533Z</xmp:rhcc-effective-on>
         <xmp:rhcc-metadata-complete-moderator>pending</xmp:rhcc-metadata-complete-moderator>
         <xmp:rhcc-translation-id>TRAa0d6413d-63aa-4c36-8271-6ff266bfb5f5</xmp:rhcc-translation-id>
         <xmp:brand-content-type>Icon</xmp:brand-content-type>
         <xmp:CreateDate>2023-12-08T17:41:21.533Z</xmp:CreateDate>
         <xmp:rhcc-effective-on-set-on-upload>true</xmp:rhcc-effective-on-set-on-upload>
         <xmp:rhcc-metadata-complete-uploader>pending</xmp:rhcc-metadata-complete-uploader>
         <xmp:rhcc-file-last-modified>2023-12-08T17:42:21.294Z</xmp:rhcc-file-last-modified>
         <xmp:rhcc-audience>rhcc-audience:internal</xmp:rhcc-audience>
         <xmp:rhcc-rights-restricted>no</xmp:rhcc-rights-restricted>
         <xmp:brand-content-subtype>Icon</xmp:brand-content-subtype>
         <xmp:rhcc-derivative-id>DERa0d6413d-63aa-4c36-8271-6ff266bfb5f5</xmp:rhcc-derivative-id>
         <xmp:brand-logo-color>Black</xmp:brand-logo-color>
         <xmp:rhcc-notify-portal-subscribers-on-change>yes</xmp:rhcc-notify-portal-subscribers-on-change>
         <dc:format>image/svg+xml</dc:format>
         <dc:modified>2024-02-09T20:26:41.552Z</dc:modified>
         <dc:title>
            <rdf:Alt>
               <rdf:li xml:lang="x-default">Space capsule icon - Black</rdf:li>
            </rdf:Alt>
         </dc:title>
         <dc:description>
            <rdf:Alt>
               <rdf:li xml:lang="x-default">space, rocket, research, transport, solar panel, booster, orbit, science and nature</rdf:li>
            </rdf:Alt>
         </dc:description>
         <cq:lastReplicationAction_scene7>Activate</cq:lastReplicationAction_scene7>
         <cq:lastReplicationAction_publish>Activate</cq:lastReplicationAction_publish>
         <cq:lastReplicated_publish>2024-02-09T22:11:55.566Z</cq:lastReplicated_publish>
         <cq:lastReplicatedBy>workflow-process-service</cq:lastReplicatedBy>
         <cq:lastReplicationAction>Activate</cq:lastReplicationAction>
         <cq:lastReplicatedBy_publish>workflow-process-service</cq:lastReplicatedBy_publish>
         <cq:isDelivered>true</cq:isDelivered>
         <cq:lastReplicated>2024-02-09T22:11:55.566Z</cq:lastReplicated>
         <cq:lastReplicatedBy_scene7>workflow-process-service</cq:lastReplicatedBy_scene7>
         <cq:lastReplicated_scene7>2024-02-09T22:11:55.566Z</cq:lastReplicated_scene7>
         <tiff:ImageLength>36</tiff:ImageLength>
         <tiff:ImageWidth>36</tiff:ImageWidth>
      </rdf:Description>
   </rdf:RDF>
</x:xmpmeta>
                                                                                                    
                                                                                                    
                                                                                                    
                                                                                                    
                                                                                                    
                                                                                                    
                                                                                                    
                                                                                                    
                                                                                                    
                                                                                                    
                                 
<?xpacket end="w"?></metadata>
<g>
    <path d="M18,14.88a3.12,3.12,0,0,0,0,6.24A3.12,3.12,0,0,0,18,14.88Zm0,5a1.88,1.88,0,0,1,0-3.75A1.88,1.88,0,0,1,18,19.88Z"/>
    <path d="M31.44,8.56l-4-4a.61.61,0,0,0-.88,0L20,11.12,17.86,9a2.83,2.83,0,0,0-4.24.52V7a.62.62,0,0,0-1.06-.44l-6,6A.62.62,0,0,0,7,13.62H9.49A2.78,2.78,0,0,0,9,17.86L11.12,20,4.56,26.56a.61.61,0,0,0,0,.88l4,4a.63.63,0,0,0,.88,0L16,24.88l2.56,2.56a.6.6,0,0,0,.44.18h8a.62.62,0,0,0,.62-.62V19a.59.59,0,0,0-.18-.44L24.88,16l6.56-6.56A.61.61,0,0,0,31.44,8.56ZM8.51,12.38l3.87-3.87v2.23l-1.64,1.64ZM9,30.12,5.88,27,8.5,24.38l3.12,3.12Zm3.5-3.5L9.38,23.5,12,20.88,15.12,24Zm13.88-.24H19.26c-1.63-1.62-5.17-5.18-6.82-6.82L9.86,17a1.36,1.36,0,0,1,0-1.94L15,9.86a1.39,1.39,0,0,1,1.94,0l2.59,2.58c1.64,1.66,5.19,5.19,6.82,6.82ZM20.88,12,23.5,9.38l3.12,3.12L24,15.12Zm6.62-.38L24.38,8.5,27,5.88,30.12,9Z"/>
  </g>
</svg>
