<svg id="f4730acb-e945-4d4b-86b8-91f5dbeae9e4" data-name="Icon" xmlns="http://www.w3.org/2000/svg" viewBox="0 0 36 36">
  <title>Spray bottle icon - Black</title>
<desc>clean, health, solution, water, protection, sick, healthy, covid, wipe, objects</desc>
<metadata><?xpacket begin="﻿" id="W5M0MpCehiHzreSzNTczkc9d"?>
<x:xmpmeta xmlns:x="adobe:ns:meta/" x:xmptk="Adobe XMP Core 8.0-c001 1.000000, 0000/00/00-00:00:00        ">
   <rdf:RDF xmlns:rdf="http://www.w3.org/1999/02/22-rdf-syntax-ns#">
      <rdf:Description rdf:about=""
            xmlns:xmp="http://ns.adobe.com/xap/1.0/"
            xmlns:dc="http://purl.org/dc/elements/1.1/"
            xmlns:cq="http://www.day.com/jcr/cq/1.0"
            xmlns:tiff="http://ns.adobe.com/tiff/1.0/">
         <xmp:rhcc-effective-on>2023-12-08T17:36:29.213Z</xmp:rhcc-effective-on>
         <xmp:rhcc-metadata-complete-moderator>pending</xmp:rhcc-metadata-complete-moderator>
         <xmp:rhcc-translation-id>TRA3b59744c-3c45-4190-b697-9849e7aa5841</xmp:rhcc-translation-id>
         <xmp:brand-content-type>Icon</xmp:brand-content-type>
         <xmp:CreateDate>2023-12-08T17:36:29.213Z</xmp:CreateDate>
         <xmp:rhcc-effective-on-set-on-upload>true</xmp:rhcc-effective-on-set-on-upload>
         <xmp:rhcc-metadata-complete-uploader>pending</xmp:rhcc-metadata-complete-uploader>
         <xmp:rhcc-file-last-modified>2023-12-08T17:38:15.200Z</xmp:rhcc-file-last-modified>
         <xmp:rhcc-audience>rhcc-audience:internal</xmp:rhcc-audience>
         <xmp:rhcc-rights-restricted>no</xmp:rhcc-rights-restricted>
         <xmp:brand-content-subtype>Icon</xmp:brand-content-subtype>
         <xmp:rhcc-derivative-id>DER3b59744c-3c45-4190-b697-9849e7aa5841</xmp:rhcc-derivative-id>
         <xmp:brand-logo-color>Black</xmp:brand-logo-color>
         <xmp:rhcc-notify-portal-subscribers-on-change>yes</xmp:rhcc-notify-portal-subscribers-on-change>
         <dc:format>image/svg+xml</dc:format>
         <dc:modified>2024-02-09T20:32:46.074Z</dc:modified>
         <dc:title>
            <rdf:Alt>
               <rdf:li xml:lang="x-default">Spray bottle icon - Black</rdf:li>
            </rdf:Alt>
         </dc:title>
         <dc:description>
            <rdf:Alt>
               <rdf:li xml:lang="x-default">clean, health, solution, water, protection, sick, healthy, covid, wipe, objects</rdf:li>
            </rdf:Alt>
         </dc:description>
         <cq:lastReplicationAction_scene7>Activate</cq:lastReplicationAction_scene7>
         <cq:lastReplicationAction_publish>Activate</cq:lastReplicationAction_publish>
         <cq:lastReplicated_publish>2024-02-09T22:20:25.125Z</cq:lastReplicated_publish>
         <cq:lastReplicatedBy>workflow-process-service</cq:lastReplicatedBy>
         <cq:lastReplicationAction>Activate</cq:lastReplicationAction>
         <cq:lastReplicatedBy_publish>workflow-process-service</cq:lastReplicatedBy_publish>
         <cq:isDelivered>true</cq:isDelivered>
         <cq:lastReplicated>2024-02-09T22:20:25.125Z</cq:lastReplicated>
         <cq:lastReplicatedBy_scene7>workflow-process-service</cq:lastReplicatedBy_scene7>
         <cq:lastReplicated_scene7>2024-02-09T22:20:25.125Z</cq:lastReplicated_scene7>
         <tiff:ImageLength>36</tiff:ImageLength>
         <tiff:ImageWidth>36</tiff:ImageWidth>
      </rdf:Description>
   </rdf:RDF>
</x:xmpmeta>
                                                                                                    
                                                                                                    
                                                                                                    
                                                                                                    
                                                                                                    
                                                                                                    
                                                                                                    
                                                                                                    
                                                                                                    
                                                                                                    
                                 
<?xpacket end="w"?></metadata>
<g>
    <path d="M29.44,8.56l-4-4A.59.59,0,0,0,25,4.38H16a.63.63,0,0,0-.63.62V9a.63.63,0,0,0,.63.62h2.24l-.48,2.25a.62.62,0,0,0,1.22.26l.54-2.51H29A.62.62,0,0,0,29.44,8.56ZM16.62,8.38V5.62h8.12l2.75,2.76Z"/>
    <path d="M27.61,20.58l-1-4.65V11a.62.62,0,0,0-.62-.62H22a.63.63,0,0,0-.63.62v4.74l-5.81,5.82a.6.6,0,0,0-.19.44v9a.63.63,0,0,0,.63.62H27a.62.62,0,0,0,.62-.62V20.71A.62.62,0,0,1,27.61,20.58Zm-11,9.8V22.26l5.82-5.82a.59.59,0,0,0,.18-.44V11.62h2.75V16s0,0,0,.06,1,4.62,1,4.71v9.61Z"/>
    <path d="M9.62,7A.62.62,0,0,0,9,6.38H7A.62.62,0,1,0,7,7.62H9A.62.62,0,0,0,9.62,7Z"/>
    <path d="M13.13,5.18,9.24,4.35A.62.62,0,0,0,9,5.57l3.89.83H13A.62.62,0,0,0,13.13,5.18Z"/>
    <path d="M12.87,7.59l-3.95.84a.63.63,0,0,0,.13,1.24l.13,0,4-.84A.62.62,0,0,0,12.87,7.59Z"/>
  </g>
</svg>
