<?xml version="1.0" encoding="UTF-8"?><svg id="uuid-e999f692-adeb-4958-a2e7-6fcfd6f4d71a" xmlns="http://www.w3.org/2000/svg" width="36" height="36" viewBox="0 0 36 36"><metadata><?xpacket begin="﻿" id="W5M0MpCehiHzreSzNTczkc9d"?>
<x:xmpmeta xmlns:x="adobe:ns:meta/" x:xmptk="Adobe XMP Core 8.0-c001 1.000000, 0000/00/00-00:00:00        ">
   <rdf:RDF xmlns:rdf="http://www.w3.org/1999/02/22-rdf-syntax-ns#">
      <rdf:Description rdf:about=""
            xmlns:xmp="http://ns.adobe.com/xap/1.0/"
            xmlns:dc="http://purl.org/dc/elements/1.1/"
            xmlns:cq="http://www.day.com/jcr/cq/1.0"
            xmlns:tiff="http://ns.adobe.com/tiff/1.0/">
         <xmp:rhcc-effective-on>2023-12-08T17:45:08.686Z</xmp:rhcc-effective-on>
         <xmp:rhcc-metadata-complete-moderator>pending</xmp:rhcc-metadata-complete-moderator>
         <xmp:rhcc-translation-id>TRA72e47477-bc59-4238-88a2-db5581808979</xmp:rhcc-translation-id>
         <xmp:CreateDate>2023-12-08T17:45:08.686Z</xmp:CreateDate>
         <xmp:rhcc-effective-on-set-on-upload>true</xmp:rhcc-effective-on-set-on-upload>
         <xmp:rhcc-metadata-complete-uploader>pending</xmp:rhcc-metadata-complete-uploader>
         <xmp:rhcc-file-last-modified>2023-12-08T17:45:17.698Z</xmp:rhcc-file-last-modified>
         <xmp:rhcc-audience>rhcc-audience:internal</xmp:rhcc-audience>
         <xmp:rhcc-rights-restricted>no</xmp:rhcc-rights-restricted>
         <xmp:rhcc-derivative-id>DER72e47477-bc59-4238-88a2-db5581808979</xmp:rhcc-derivative-id>
         <xmp:rhcc-notify-portal-subscribers-on-change>yes</xmp:rhcc-notify-portal-subscribers-on-change>
         <dc:format>image/svg+xml</dc:format>
         <dc:modified>2024-02-09T20:37:28.603Z</dc:modified>
         <cq:lastReplicationAction_scene7>Activate</cq:lastReplicationAction_scene7>
         <cq:lastReplicationAction_publish>Activate</cq:lastReplicationAction_publish>
         <cq:lastReplicated_publish>2024-02-09T22:24:57.709Z</cq:lastReplicated_publish>
         <cq:lastReplicatedBy>workflow-process-service</cq:lastReplicatedBy>
         <cq:lastReplicationAction>Activate</cq:lastReplicationAction>
         <cq:lastReplicatedBy_publish>workflow-process-service</cq:lastReplicatedBy_publish>
         <cq:isDelivered>true</cq:isDelivered>
         <cq:lastReplicated>2024-02-09T22:24:57.709Z</cq:lastReplicated>
         <cq:lastReplicatedBy_scene7>workflow-process-service</cq:lastReplicatedBy_scene7>
         <cq:lastReplicated_scene7>2024-02-09T22:24:57.709Z</cq:lastReplicated_scene7>
         <tiff:ImageLength>36</tiff:ImageLength>
         <tiff:ImageWidth>36</tiff:ImageWidth>
      </rdf:Description>
   </rdf:RDF>
</x:xmpmeta>
                                                                                                    
                                                                                                    
                                                                                                    
                                                                                                    
                                                                                                    
                                                                                                    
                                                                                                    
                                                                                                    
                                                                                                    
                                                                                                    
                                 
<?xpacket end="w"?></metadata>
<path d="m31,14.375c-.34521,0-.625.28027-.625.625v1.49072l-5.93311-5.93311c-.24414-.24414-.63965-.24414-.88379,0l-2.55811,2.55859-6.55811-6.55859c-.24414-.24414-.63965-.24414-.88379,0l-4.55811,4.55859-3.55811-3.55859c-.24414-.24414-.63965-.24414-.88379,0s-.24414.64062,0,.88477l4,4c.24414.24414.63965.24414.88379,0l4.55811-4.55859,6.55811,6.55859c.24414.24414.63965.24414.88379,0l2.55811-2.55859,5.49078,5.49121h-1.49078c-.34521,0-.625.28027-.625.625s.27979.625.625.625h3c.08179,0,.16302-.01678.23962-.04846.05719-.0238.10492-.06201.15204-.10083.01587-.013.0354-.01849.05023-.03333.01001-.01001.01331-.02344.02252-.03394.04474-.0509.08575-.10559.11218-.16907.03168-.07654.0484-.15778.0484-.23938v-3c0-.34473-.27979-.625-.625-.625Z" stroke-width="0"/><path d="m31,28.375h-2.375v-6.375c0-.34473-.27979-.625-.625-.625s-.625.28027-.625.625v6.375h-3.75v-11.375c0-.34473-.27979-.625-.625-.625s-.625.28027-.625.625v11.375h-3.75v-12.375c0-.34473-.27979-.625-.625-.625s-.625.28027-.625.625v12.375h-3.75v-15.375c0-.34473-.27979-.625-.625-.625s-.625.28027-.625.625v15.375h-3.75v-12.375c0-.34473-.27979-.625-.625-.625s-.625.28027-.625.625v12.375h-2.375c-.34521,0-.625.28027-.625.625s.27979.625.625.625h26c.34521,0,.625-.28027.625-.625s-.27979-.625-.625-.625Z" stroke-width="0"/></svg>