<?xml version="1.0" encoding="UTF-8"?><svg id="uuid-fdff6cd0-2679-4d2b-876f-6d129fd0f5ab" xmlns="http://www.w3.org/2000/svg" viewBox="0 0 36 36"><title>Survey (rating) - Black</title>
<desc>survey, rate, rating, star, review, talk bubble, conversation</desc>
<metadata><?xpacket begin="﻿" id="W5M0MpCehiHzreSzNTczkc9d"?>
<x:xmpmeta xmlns:x="adobe:ns:meta/" x:xmptk="Adobe XMP Core 8.0-c001 1.000000, 0000/00/00-00:00:00        ">
   <rdf:RDF xmlns:rdf="http://www.w3.org/1999/02/22-rdf-syntax-ns#">
      <rdf:Description rdf:about=""
            xmlns:xmp="http://ns.adobe.com/xap/1.0/"
            xmlns:tiff="http://ns.adobe.com/tiff/1.0/"
            xmlns:dc="http://purl.org/dc/elements/1.1/">
         <xmp:rhcc-effective-on>2024-03-13T13:57:57.887Z</xmp:rhcc-effective-on>
         <xmp:rhcc-rights-restricted>no</xmp:rhcc-rights-restricted>
         <xmp:brand-content-subtype>Icon</xmp:brand-content-subtype>
         <xmp:rhcc-metadata-complete-moderator>pending</xmp:rhcc-metadata-complete-moderator>
         <xmp:rhcc-translation-id>TRA749805a2-d663-4ca8-a20e-a0bd9cdfed4f</xmp:rhcc-translation-id>
         <xmp:brand-content-type>Icon</xmp:brand-content-type>
         <xmp:CreateDate>2024-03-13T13:57:57.887Z</xmp:CreateDate>
         <xmp:rhcc-derivative-id>DER749805a2-d663-4ca8-a20e-a0bd9cdfed4f</xmp:rhcc-derivative-id>
         <xmp:rhcc-effective-on-set-on-upload>true</xmp:rhcc-effective-on-set-on-upload>
         <xmp:brand-logo-color>Black</xmp:brand-logo-color>
         <xmp:rhcc-metadata-complete-uploader>pending</xmp:rhcc-metadata-complete-uploader>
         <xmp:rhcc-file-last-modified>2024-03-13T13:58:10.713Z</xmp:rhcc-file-last-modified>
         <xmp:rhcc-audience>rhcc-audience:internal</xmp:rhcc-audience>
         <xmp:rhcc-notify-portal-subscribers-on-change>yes</xmp:rhcc-notify-portal-subscribers-on-change>
         <tiff:ImageLength>36</tiff:ImageLength>
         <tiff:ImageWidth>36</tiff:ImageWidth>
         <dc:format>image/svg+xml</dc:format>
         <dc:modified>2024-03-13T13:59:54.124Z</dc:modified>
         <dc:description>
            <rdf:Alt>
               <rdf:li xml:lang="x-default">survey, rate, rating, star, review, talk bubble, conversation</rdf:li>
            </rdf:Alt>
         </dc:description>
         <dc:title>
            <rdf:Alt>
               <rdf:li xml:lang="x-default">Survey (rating) - Black</rdf:li>
            </rdf:Alt>
         </dc:title>
      </rdf:Description>
   </rdf:RDF>
</x:xmpmeta>
                                                                                                    
                                                                                                    
                                                                                                    
                                                                                                    
                                                                                                    
                                                                                                    
                                                                                                    
                                                                                                    
                                                                                                    
                                                                                                    
                                                                                                    
                                                                                                    
                                                                                                    
                                                                                                    
                                                                                                    
                                                                                                    
                                                         
<?xpacket end="w"?></metadata>
<defs><style>.uuid-ca170309-703d-45f7-942e-cd6726644cc9{stroke-width:0px;}</style></defs><path class="uuid-ca170309-703d-45f7-942e-cd6726644cc9" d="M15.2256,16.3242l-.4399,2.5693c-.04.2344.0566.4717.249.6113.1938.1406.4482.1582.6577.0479l2.3076-1.2129,2.3081,1.2139c.0918.0479.1914.0713.291.0713.1294,0,.2583-.04.3672-.1191.1924-.1396.2891-.377.249-.6113l-.4409-2.5713,1.8677-1.8203c.1699-.166.2314-.4141.1577-.6406-.0732-.2266-.269-.3906-.5044-.4248l-2.5811-.375-1.1543-2.3389c-.2109-.4277-.9102-.4277-1.1211,0l-1.1538,2.3389-2.5811.375c-.2354.0342-.4312.1982-.5044.4248-.0737.2266-.0122.4746.1582.6406l1.8677,1.8213ZM16.79,14.252c.2036-.0293.3794-.1572.4707-.3418l.7388-1.498.7393,1.498c.0913.1846.2671.3125.4707.3418l1.6528.2402-1.1958,1.166c-.147.1436-.2144.3506-.1797.5527l.2822,1.6465-1.478-.7773c-.0913-.0479-.1909-.0713-.291-.0713-.0996,0-.1997.0234-.2905.0713l-1.478.7773.2817-1.6465c.0347-.2031-.0327-.4092-.1802-.5527l-1.1958-1.166,1.6528-.2402Z"/><path class="uuid-ca170309-703d-45f7-942e-cd6726644cc9" d="M31,6.375H5c-.3452,0-.625.2798-.625.625v16c0,.3447.2798.625.625.625h3.375v5.375c0,.2529.1523.4805.3857.5771.0776.0322.1587.0479.2393.0479.1626,0,.3223-.0635.4419-.1826l5.8169-5.8174h15.7412c.3452,0,.625-.2803.625-.625V7c0-.3452-.2798-.625-.625-.625ZM30.375,22.375h-15.375c-.1655,0-.3247.0654-.4419.1826l-4.9331,4.9336v-4.4912c0-.3447-.2798-.625-.625-.625h-3.375V7.625h24.75v14.75Z"/></svg>