<?xml version="1.0" encoding="UTF-8"?><svg id="uuid-92c6463c-7ae0-4f42-b3f6-b315bc939769" xmlns="http://www.w3.org/2000/svg" viewBox="0 0 36 36"><title>Sustainability icon</title>
<metadata><?xpacket begin="﻿" id="W5M0MpCehiHzreSzNTczkc9d"?>
<x:xmpmeta xmlns:x="adobe:ns:meta/" x:xmptk="Adobe XMP Core 8.0-c001 1.000000, 0000/00/00-00:00:00        ">
   <rdf:RDF xmlns:rdf="http://www.w3.org/1999/02/22-rdf-syntax-ns#">
      <rdf:Description rdf:about=""
            xmlns:xmp="http://ns.adobe.com/xap/1.0/"
            xmlns:tiff="http://ns.adobe.com/tiff/1.0/"
            xmlns:dc="http://purl.org/dc/elements/1.1/">
         <xmp:rhcc-effective-on>2024-04-04T19:45:11.446Z</xmp:rhcc-effective-on>
         <xmp:rhcc-rights-restricted>no</xmp:rhcc-rights-restricted>
         <xmp:brand-content-subtype>Icon</xmp:brand-content-subtype>
         <xmp:rhcc-metadata-complete-moderator>pending</xmp:rhcc-metadata-complete-moderator>
         <xmp:rhcc-translation-id>TRAbc31f77f-bb04-4d75-8e27-0928e7ff3a47</xmp:rhcc-translation-id>
         <xmp:brand-content-type>Icon</xmp:brand-content-type>
         <xmp:CreateDate>2024-04-04T19:45:11.446Z</xmp:CreateDate>
         <xmp:rhcc-derivative-id>DERbc31f77f-bb04-4d75-8e27-0928e7ff3a47</xmp:rhcc-derivative-id>
         <xmp:rhcc-effective-on-set-on-upload>true</xmp:rhcc-effective-on-set-on-upload>
         <xmp:brand-logo-color>Black</xmp:brand-logo-color>
         <xmp:rhcc-metadata-complete-uploader>pending</xmp:rhcc-metadata-complete-uploader>
         <xmp:rhcc-file-last-modified>2024-04-04T19:45:20.911Z</xmp:rhcc-file-last-modified>
         <xmp:rhcc-audience>rhcc-audience:internal</xmp:rhcc-audience>
         <xmp:rhcc-notify-portal-subscribers-on-change>yes</xmp:rhcc-notify-portal-subscribers-on-change>
         <xmp:brand-colorway>Black</xmp:brand-colorway>
         <tiff:ImageLength>36</tiff:ImageLength>
         <tiff:ImageWidth>36</tiff:ImageWidth>
         <dc:format>image/svg+xml</dc:format>
         <dc:modified>2024-04-04T19:46:45.202Z</dc:modified>
         <dc:title>
            <rdf:Alt>
               <rdf:li xml:lang="x-default">Sustainability icon</rdf:li>
            </rdf:Alt>
         </dc:title>
      </rdf:Description>
   </rdf:RDF>
</x:xmpmeta>
                                                                                                    
                                                                                                    
                                                                                                    
                                                                                                    
                                                                                                    
                                                                                                    
                                                                                                    
                                                                                                    
                                                                                                    
                                                                                                    
                                                                                                    
                                                                                                    
                                                                                                    
                                                                                                    
                                                                                                    
                                                                                                    
                                                                                                    
                                                               
<?xpacket end="w"?></metadata>
<defs><style>.uuid-aaa9007e-6c84-457b-af1d-99990a1e2552{fill:#000;stroke-width:0px;}</style></defs><path class="uuid-aaa9007e-6c84-457b-af1d-99990a1e2552" d="M18.375,17v5c0,.3447.2798.625.625.625s.625-.2803.625-.625v-5c0-.3447-.2798-.625-.625-.625s-.625.2803-.625.625Z"/><path class="uuid-aaa9007e-6c84-457b-af1d-99990a1e2552" d="M20.375,17v5c0,.3447.2798.625.625.625s.625-.2803.625-.625v-5c0-.3447-.2798-.625-.625-.625s-.625.2803-.625.625Z"/><path class="uuid-aaa9007e-6c84-457b-af1d-99990a1e2552" d="M25,24.375c-.3452,0-.625.2803-.625.625v5c0,.3447.2798.625.625.625s.625-.2803.625-.625v-5c0-.3447-.2798-.625-.625-.625Z"/><path class="uuid-aaa9007e-6c84-457b-af1d-99990a1e2552" d="M30,22.625c.3452,0,.625-.2803.625-.625v-5c0-.3447-.2798-.625-.625-.625s-.625.2803-.625.625v5c0,.3447.2798.625.625.625Z"/><path class="uuid-aaa9007e-6c84-457b-af1d-99990a1e2552" d="M22.375,19.5c0,1.7227,1.4019,3.125,3.125,3.125s3.125-1.4023,3.125-3.125-1.4019-3.125-3.125-3.125-3.125,1.4023-3.125,3.125ZM25.5,17.625c1.0337,0,1.875.8408,1.875,1.875s-.8413,1.875-1.875,1.875-1.875-.8408-1.875-1.875.8413-1.875,1.875-1.875Z"/><path class="uuid-aaa9007e-6c84-457b-af1d-99990a1e2552" d="M20.5,24.375c-1.7231,0-3.125,1.4023-3.125,3.125s1.4019,3.125,3.125,3.125,3.125-1.4023,3.125-3.125-1.4019-3.125-3.125-3.125ZM20.5,29.375c-1.0337,0-1.875-.8408-1.875-1.875s.8413-1.875,1.875-1.875,1.875.8408,1.875,1.875-.8413,1.875-1.875,1.875Z"/><path class="uuid-aaa9007e-6c84-457b-af1d-99990a1e2552" d="M29.5,24.375c-1.7231,0-3.125,1.4023-3.125,3.125s1.4019,3.125,3.125,3.125,3.125-1.4023,3.125-3.125-1.4019-3.125-3.125-3.125ZM29.5,29.375c-1.0337,0-1.875-.8408-1.875-1.875s.8413-1.875,1.875-1.875,1.875.8408,1.875,1.875-.8413,1.875-1.875,1.875Z"/><path class="uuid-aaa9007e-6c84-457b-af1d-99990a1e2552" d="M15.5581,13.5576l-1.9331,1.9331v-4.4907c0-.3447-.2798-.625-.625-.625s-.625.2803-.625.625v8.4907l-2.9331-2.9331c-.2441-.2441-.6396-.2441-.8838,0s-.2441.6406,0,.8848l3.8169,3.8169v8.7407c0,.3447.2798.625.625.625s.625-.2803.625-.625v-12.7407l2.8169-2.8169c.2441-.2441.2441-.6406,0-.8848s-.6396-.2441-.8838,0Z"/><path class="uuid-aaa9007e-6c84-457b-af1d-99990a1e2552" d="M19,8.625c1.8608,0,3.375,1.5137,3.375,3.375,0,.3447.2798.625.625.625s.625-.2803.625-.625c0-2.5498-2.0747-4.625-4.625-4.625-.5103,0-1.0156.0889-1.5093.2646-1.061-1.4272-2.7036-2.2646-4.4907-2.2646-3.0757,0-5.5825,2.4814-5.6245,5.5469-2.4116,1.041-4.0005,3.4258-4.0005,6.0781,0,3.25,2.3223,5.9971,5.5215,6.5332.0352.0059.0698.0088.1045.0088.2993,0,.5645-.2158.6152-.5215.0571-.3408-.1724-.6631-.5127-.7197-2.5952-.4346-4.4785-2.6641-4.4785-5.3008,0-2.2832,1.4521-4.3223,3.6138-5.0732.2656-.0928.4365-.3506.4185-.6309-.0039-.0635-.0117-.125-.0205-.1865-.0049-.0361-.0117-.0713-.0117-.1094,0-2.4121,1.9624-4.375,4.375-4.375,1.5273,0,2.9204.79,3.7261,2.1143.167.2744.5156.3789.8071.2363.479-.2324.9722-.3506,1.4668-.3506Z"/></svg>