<?xml version="1.0" encoding="UTF-8"?><svg id="uuid-3b67e1d2-cd3e-4556-a81e-c6c02e8466bd" xmlns="http://www.w3.org/2000/svg" viewBox="0 0 36 36"><title>Sustainable power icon - Black</title>
<desc>power, battery, electricity, sustainable, planet, climate, charge, bolt, leaves, science and nature</desc>
<metadata><?xpacket begin="﻿" id="W5M0MpCehiHzreSzNTczkc9d"?>
<x:xmpmeta xmlns:x="adobe:ns:meta/" x:xmptk="Adobe XMP Core 8.0-c001 1.000000, 0000/00/00-00:00:00        ">
   <rdf:RDF xmlns:rdf="http://www.w3.org/1999/02/22-rdf-syntax-ns#">
      <rdf:Description rdf:about=""
            xmlns:xmp="http://ns.adobe.com/xap/1.0/"
            xmlns:dc="http://purl.org/dc/elements/1.1/"
            xmlns:cq="http://www.day.com/jcr/cq/1.0"
            xmlns:tiff="http://ns.adobe.com/tiff/1.0/">
         <xmp:rhcc-effective-on>2023-12-08T17:41:25.964Z</xmp:rhcc-effective-on>
         <xmp:rhcc-metadata-complete-moderator>pending</xmp:rhcc-metadata-complete-moderator>
         <xmp:rhcc-translation-id>TRA01d2082e-22e8-4358-b664-cd160417a1b6</xmp:rhcc-translation-id>
         <xmp:brand-content-type>Icon</xmp:brand-content-type>
         <xmp:CreateDate>2023-12-08T17:41:25.964Z</xmp:CreateDate>
         <xmp:rhcc-effective-on-set-on-upload>true</xmp:rhcc-effective-on-set-on-upload>
         <xmp:rhcc-metadata-complete-uploader>pending</xmp:rhcc-metadata-complete-uploader>
         <xmp:rhcc-file-last-modified>2023-12-08T17:42:21.804Z</xmp:rhcc-file-last-modified>
         <xmp:rhcc-audience>rhcc-audience:internal</xmp:rhcc-audience>
         <xmp:rhcc-rights-restricted>no</xmp:rhcc-rights-restricted>
         <xmp:brand-content-subtype>Icon</xmp:brand-content-subtype>
         <xmp:rhcc-derivative-id>DER01d2082e-22e8-4358-b664-cd160417a1b6</xmp:rhcc-derivative-id>
         <xmp:brand-logo-color>Black</xmp:brand-logo-color>
         <xmp:rhcc-notify-portal-subscribers-on-change>yes</xmp:rhcc-notify-portal-subscribers-on-change>
         <dc:format>image/svg+xml</dc:format>
         <dc:modified>2024-02-09T20:27:10.349Z</dc:modified>
         <dc:title>
            <rdf:Alt>
               <rdf:li xml:lang="x-default">Sustainable power icon - Black</rdf:li>
            </rdf:Alt>
         </dc:title>
         <dc:description>
            <rdf:Alt>
               <rdf:li xml:lang="x-default">power, battery, electricity, sustainable, planet, climate, charge, bolt, leaves, science and nature</rdf:li>
            </rdf:Alt>
         </dc:description>
         <cq:lastReplicationAction_scene7>Activate</cq:lastReplicationAction_scene7>
         <cq:lastReplicationAction_publish>Activate</cq:lastReplicationAction_publish>
         <cq:lastReplicated_publish>2024-02-09T22:13:12.018Z</cq:lastReplicated_publish>
         <cq:lastReplicatedBy>workflow-process-service</cq:lastReplicatedBy>
         <cq:lastReplicationAction>Activate</cq:lastReplicationAction>
         <cq:lastReplicatedBy_publish>workflow-process-service</cq:lastReplicatedBy_publish>
         <cq:isDelivered>true</cq:isDelivered>
         <cq:lastReplicated>2024-02-09T22:13:12.018Z</cq:lastReplicated>
         <cq:lastReplicatedBy_scene7>workflow-process-service</cq:lastReplicatedBy_scene7>
         <cq:lastReplicated_scene7>2024-02-09T22:13:12.018Z</cq:lastReplicated_scene7>
         <tiff:ImageLength>36</tiff:ImageLength>
         <tiff:ImageWidth>36</tiff:ImageWidth>
      </rdf:Description>
   </rdf:RDF>
</x:xmpmeta>
                                                                                                    
                                                                                                    
                                                                                                    
                                                                                                    
                                                                                                    
                                                                                                    
                                                                                                    
                                                                                                    
                                                                                                    
                                                                                                    
                                 
<?xpacket end="w"?></metadata>
<path d="m17.3701172,24.6464844c.043457.0087891.0869141.0136719.1298828.0136719.2426758,0,.4692383-.1416016.5708008-.3710938l3.1166992-7c.0864258-.1933594.0688477-.4169922-.0463867-.5947266-.1157227-.1767578-.3129883-.2841797-.5244141-.2841797h-1.4916992v-4.375c0-.2949219-.206543-.5498047-.4951172-.6113281-.2885742-.0585938-.5810547.0869141-.7006836.3574219l-3.1166992,7c-.0864258.1933594-.0688477.4169922.0463867.5947266.1157227.1767578.3129883.2841797.5244141.2841797h1.4916992v4.375c0,.2949219.206543.5498047.4951172.6113281Zm-1.0244141-6.2363281l1.5292969-3.4345703v2.0595703c0,.3447266.2797852.625.625.625h1.1542969l-1.5292969,3.4345703v-2.0595703c0-.3447266-.2797852-.625-.625-.625h-1.1542969Z"/><path d="m8.6374512,17.7542114c.132019-5.0547485,4.276062-9.1292114,9.3625488-9.1292114.9609375,0,1.9072266.1445312,2.8125.4296875.3295898.1015625.6796875-.0810547.7836914-.4091797.1035156-.3291016-.0795898-.6796875-.4086914-.7841797-1.0268555-.3222656-2.0991211-.4863281-3.1875-.4863281-5.7665405,0-10.4649658,4.6209717-10.6112061,10.3528442l-1.2950439,1.2946167c-1.0625,1.0625-1.6474609,2.4746094-1.6474609,3.9775391s.5849609,2.9150391,1.6474609,3.9765625l1.4643555,1.4648438c.1171875.1181641.2758789.1835938.4418945.1835938s.324707-.0654297.4418945-.1835938l1.4643555-1.4638672c1.0625-1.0625,1.6474609-2.4746094,1.6474609-3.9775391s-.5849609-2.9150391-1.6474609-3.9765625l-1.2687988-1.2692261Zm.3850098,8.3395386l-1.0224609,1.0224609-1.0224609-1.0234375c-.8261719-.8261719-1.28125-1.9238281-1.28125-3.0927734s.4550781-2.2666016,1.28125-3.09375l.3974609-.3974609v4.4912109c0,.3447266.2797852.625.625.625s.625-.2802734.625-.625v-4.4906006l.3974609.3978271c.8261719.8261719,1.28125,1.9238281,1.28125,3.0927734s-.4550781,2.2666016-1.28125,3.09375Z"/><path d="m31.5537109,13c0-1.5029297-.5849609-2.9150391-1.6474609-3.9765625l-1.4643555-1.4648438c-.234375-.2363281-.6494141-.2363281-.8837891,0l-1.4643555,1.4638672c-1.0625,1.0625-1.6474609,2.4746094-1.6474609,3.9775391s.5849609,2.9150391,1.6474609,3.9765625l1.2687988,1.2692261c-.132019,5.0547485-4.276062,9.1292114-9.3625488,9.1292114-.9609375,0-1.9072266-.1445312-2.8125-.4296875-.3325195-.1044922-.6801758.0800781-.7836914.4091797s.0795898.6796875.4086914.7841797c1.0268555.3222656,2.0991211.4863281,3.1875.4863281,5.7665405,0,10.4649658-4.6209717,10.6112061-10.3528442l1.2950439-1.2946167c1.0625-1.0625,1.6474609-2.4746094,1.6474609-3.9775391Zm-2.9287109,3.4912109v-4.4912109c0-.3447266-.2797852-.625-.625-.625s-.625.2802734-.625.625v4.4906006l-.3974609-.3978271c-.8261719-.8261719-1.28125-1.9238281-1.28125-3.0927734s.4550781-2.2666016,1.28125-3.09375l1.0224609-1.0224609,1.0224609,1.0234375c.8261719.8261719,1.28125,1.9238281,1.28125,3.0927734s-.4550781,2.2666016-1.28125,3.09375l-.3974609.3974609Z"/></svg>