<svg id="uuid-92c6463c-7ae0-4f42-b3f6-b315bc939769" xmlns="http://www.w3.org/2000/svg" viewBox="0 0 36 36">
  <defs>
    <style>
      .uuid-aaa9007e-6c84-457b-af1d-99990a1e2552{fill:#000;stroke-width:0}
    </style>
  </defs>
  <path class="uuid-aaa9007e-6c84-457b-af1d-99990a1e2552" d="M18.375 17v5a.625.625 0 0 0 1.25 0v-5a.625.625 0 0 0-1.25 0Zm2 0v5a.625.625 0 0 0 1.25 0v-5a.625.625 0 0 0-1.25 0ZM25 24.375a.625.625 0 0 0-.625.625v5a.625.625 0 0 0 1.25 0v-5a.625.625 0 0 0-.625-.625Zm5-1.75c.345 0 .625-.28.625-.625v-5a.625.625 0 0 0-1.25 0v5c0 .345.28.625.625.625ZM22.375 19.5c0 1.723 1.402 3.125 3.125 3.125s3.125-1.402 3.125-3.125-1.402-3.125-3.125-3.125-3.125 1.402-3.125 3.125Zm3.125-1.875c1.034 0 1.875.84 1.875 1.875s-.841 1.875-1.875 1.875-1.875-.84-1.875-1.875.841-1.875 1.875-1.875Zm-5 6.75c-1.723 0-3.125 1.402-3.125 3.125s1.402 3.125 3.125 3.125 3.125-1.402 3.125-3.125-1.402-3.125-3.125-3.125Zm0 5c-1.034 0-1.875-.84-1.875-1.875s.841-1.875 1.875-1.875 1.875.84 1.875 1.875-.841 1.875-1.875 1.875Zm9-5c-1.723 0-3.125 1.402-3.125 3.125s1.402 3.125 3.125 3.125 3.125-1.402 3.125-3.125-1.402-3.125-3.125-3.125Zm0 5c-1.034 0-1.875-.84-1.875-1.875s.841-1.875 1.875-1.875 1.875.84 1.875 1.875-.841 1.875-1.875 1.875ZM15.558 13.558l-1.933 1.933V11a.625.625 0 0 0-1.25 0v8.49l-2.933-2.932a.625.625 0 1 0-.884.884l3.817 3.817V30a.625.625 0 0 0 1.25 0V17.26l2.817-2.818a.626.626 0 0 0-.884-.884Z"/>
  <path class="uuid-aaa9007e-6c84-457b-af1d-99990a1e2552" d="M19 8.625A3.379 3.379 0 0 1 22.375 12a.625.625 0 0 0 1.25 0A4.63 4.63 0 0 0 19 7.375c-.51 0-1.016.089-1.51.265A5.566 5.566 0 0 0 13 5.375a5.632 5.632 0 0 0-5.625 5.547 6.63 6.63 0 0 0-4 6.078 6.6 6.6 0 0 0 5.521 6.533.624.624 0 1 0 .207-1.232A5.354 5.354 0 0 1 4.625 17a5.378 5.378 0 0 1 3.614-5.073.626.626 0 0 0 .418-.631 2.307 2.307 0 0 0-.02-.187c-.005-.036-.012-.07-.012-.109A4.38 4.38 0 0 1 13 6.625c1.527 0 2.92.79 3.726 2.114a.623.623 0 0 0 .807.237c.48-.233.972-.351 1.467-.351Z"/>
</svg>
