<?xml version="1.0" encoding="UTF-8"?><svg id="uuid-968e6d62-cff9-456f-a0f3-032503f3881f" xmlns="http://www.w3.org/2000/svg" viewBox="0 0 36 36"><defs><style>.uuid-848e47d2-6739-4063-a65e-56f531062558{stroke-width:0px;}</style></defs><path class="uuid-848e47d2-6739-4063-a65e-56f531062558" d="M9,29.625c-.0806,0-.1616-.0156-.2393-.0479-.2334-.0967-.3857-.3242-.3857-.5771v-5.375h-3.375c-.3452,0-.625-.2803-.625-.625V7c0-.3452.2798-.625.625-.625h26c.3452,0,.625.2798.625.625v16c0,.3447-.2798.625-.625.625h-15.7412l-5.8169,5.8174c-.1196.1191-.2793.1826-.4419.1826ZM5.625,22.375h3.375c.3452,0,.625.2803.625.625v4.4912l4.9331-4.9336c.1172-.1172.2764-.1826.4419-.1826h15.375V7.625H5.625v14.75Z"/></svg>