<?xml version="1.0" encoding="UTF-8"?><svg id="uuid-c43f7a99-e64f-4309-88b1-048b7f8dfbb5" xmlns="http://www.w3.org/2000/svg" viewBox="0 0 36 36"><path d="m28.625,14.5224609v-.0224609c0-5.03125-4.0932617-9.125-9.125-9.125-3.4711914,0-6.6245117,1.9677734-8.1640625,5.0517578-.2836914-.0341797-.5634766-.0517578-.8359375-.0517578-3.9287109,0-7.125,3.1962891-7.125,7.125s3.1962891,7.125,7.125,7.125h1.5c.3452148,0,.625-.2802734.625-.625s-.2797852-.625-.625-.625h-1.5c-3.2392578,0-5.875-2.6357422-5.875-5.875s2.6357422-5.875,5.875-5.875c.3540039,0,.7104492.0341797,1.0888672.1054688.284668.0517578.5717773-.0976562.6884766-.3652344,1.2519531-2.8798828,4.0869141-4.7402344,7.2226562-4.7402344,4.3422852,0,7.875,3.5322266,7.875,7.875,0,.1298828-.0092773.2578125-.0180664.3857422l-.0083008.1220703c-.0214844.3339844.2246094.6259766.5576172.6611328,1.9775391.2099609,3.46875,1.8564453,3.46875,3.8310547,0,2.1367188-1.7382812,3.875-3.875,3.875h-1.5c-.3452148,0-.625.2802734-.625.625s.2797852.625.625.625h1.5c2.8261719,0,5.125-2.2988281,5.125-5.125,0-2.4160156-1.6826172-4.4609375-4-4.9775391Z"/><path d="m22.3754883,12.5c-.2768555-.2050781-.668457-.1523438-.875.125-.2075195.2753906-.1518555.6669922.1240234.875,1.1123047.8349609,1.7504883,2.1113281,1.7504883,3.5,0,.6083984-.1225586,1.1972656-.3637695,1.75-.1381836.3164062.0063477.6845703.3222656.8222656.081543.0361328.1665039.0527344.25.0527344.2412109,0,.4707031-.1396484.5732422-.375.3105469-.7109375.4682617-1.4677734.4682617-2.25,0-1.7861328-.8198242-3.4257812-2.2495117-4.5Z"/><path d="m14.6665039,19.5722656c.315918-.1376953.4604492-.5058594.3222656-.8222656-.2412109-.5527344-.3637695-1.1416016-.3637695-1.75,0-1.3886719.6381836-2.6650391,1.7504883-3.5.2758789-.2080078.331543-.5996094.1240234-.875-.2075195-.2773438-.5981445-.3300781-.875-.125-1.4296875,1.0742188-2.2495117,2.7138672-2.2495117,4.5,0,.7822266.1577148,1.5390625.4682617,2.25.1025391.2353516.3320312.375.5732422.375.0834961,0,.168457-.0166016.25-.0527344Z"/><path d="m21.1141357,18.5415039c.3174438-.434021.5108643-.9638672.5108643-1.5415039,0-1.4472656-1.1777344-2.625-2.625-2.625s-2.625,1.1777344-2.625,2.625c0,.5366211.163269,1.0352783.4407959,1.4514771l-2.427124,11.4186401c-.0717773.3378906.1435547.6699219.4814453.7412109.0439453.0097656.0874023.0136719.1303711.0136719.2890625,0,.5483398-.2011719.6108398-.4951172l.5012207-2.3582153,2.8873291-2.8875122,2.7741089,2.7741089.5253296,2.4716187c.0625.2939453.3217773.4951172.6108398.4951172.0429688,0,.0864258-.0039062.1303711-.0136719.3378906-.0712891.5532227-.4033203.4814453-.7412109l-2.4078369-11.3286133Zm-3.2165527.8323975c.3363647.1569824.7074585.2510986,1.102417.2510986.3624878,0,.7080078-.0740967,1.0224609-.2075806l.4689331,2.2064209-1.4915771,1.4916992-1.5649414-1.5649414.4627075-2.1766968Zm1.102417-3.7489014c.7583008,0,1.375.6171875,1.375,1.375s-.6166992,1.375-1.375,1.375-1.375-.6171875-1.375-1.375.6166992-1.375,1.375-1.375Zm-2.4099731,9.9005737l.5348511-2.5164185.9907227.9907227-1.5255737,1.5256958Zm3.2940674-1.5257568l.9173584-.9173584.4951782,2.329895-1.4125366-1.4125366Z"/></svg>