<?xml version="1.0" encoding="UTF-8"?>
<svg xmlns="http://www.w3.org/2000/svg" viewBox="0 0 36 36">
  <title>Touchdown area icon - Black</title>
<desc>seat, temporary, GWS, flex space, office and work</desc>
<metadata><?xpacket begin="﻿" id="W5M0MpCehiHzreSzNTczkc9d"?>
<x:xmpmeta xmlns:x="adobe:ns:meta/" x:xmptk="Adobe XMP Core 8.0-c001 1.000000, 0000/00/00-00:00:00        ">
   <rdf:RDF xmlns:rdf="http://www.w3.org/1999/02/22-rdf-syntax-ns#">
      <rdf:Description rdf:about=""
            xmlns:xmp="http://ns.adobe.com/xap/1.0/"
            xmlns:dc="http://purl.org/dc/elements/1.1/"
            xmlns:cq="http://www.day.com/jcr/cq/1.0"
            xmlns:tiff="http://ns.adobe.com/tiff/1.0/">
         <xmp:rhcc-effective-on>2023-12-08T17:47:15.017Z</xmp:rhcc-effective-on>
         <xmp:rhcc-metadata-complete-moderator>pending</xmp:rhcc-metadata-complete-moderator>
         <xmp:rhcc-translation-id>TRA4b777789-7882-4cc6-90e1-f9cc7c00a542</xmp:rhcc-translation-id>
         <xmp:brand-content-type>Icon</xmp:brand-content-type>
         <xmp:CreateDate>2023-12-08T17:47:15.017Z</xmp:CreateDate>
         <xmp:rhcc-effective-on-set-on-upload>true</xmp:rhcc-effective-on-set-on-upload>
         <xmp:rhcc-metadata-complete-uploader>pending</xmp:rhcc-metadata-complete-uploader>
         <xmp:rhcc-file-last-modified>2023-12-08T17:48:04.098Z</xmp:rhcc-file-last-modified>
         <xmp:rhcc-audience>rhcc-audience:internal</xmp:rhcc-audience>
         <xmp:rhcc-rights-restricted>no</xmp:rhcc-rights-restricted>
         <xmp:brand-content-subtype>Icon</xmp:brand-content-subtype>
         <xmp:rhcc-derivative-id>DER4b777789-7882-4cc6-90e1-f9cc7c00a542</xmp:rhcc-derivative-id>
         <xmp:brand-logo-color>Black</xmp:brand-logo-color>
         <xmp:rhcc-notify-portal-subscribers-on-change>yes</xmp:rhcc-notify-portal-subscribers-on-change>
         <dc:format>image/svg+xml</dc:format>
         <dc:modified>2024-02-09T20:24:13.370Z</dc:modified>
         <dc:title>
            <rdf:Alt>
               <rdf:li xml:lang="x-default">Touchdown area icon - Black</rdf:li>
            </rdf:Alt>
         </dc:title>
         <dc:description>
            <rdf:Alt>
               <rdf:li xml:lang="x-default">seat, temporary, GWS, flex space, office and work</rdf:li>
            </rdf:Alt>
         </dc:description>
         <cq:lastReplicationAction_scene7>Activate</cq:lastReplicationAction_scene7>
         <cq:lastReplicationAction_publish>Activate</cq:lastReplicationAction_publish>
         <cq:lastReplicated_publish>2024-02-09T22:06:33.587Z</cq:lastReplicated_publish>
         <cq:lastReplicatedBy>workflow-process-service</cq:lastReplicatedBy>
         <cq:lastReplicationAction>Activate</cq:lastReplicationAction>
         <cq:lastReplicatedBy_publish>workflow-process-service</cq:lastReplicatedBy_publish>
         <cq:isDelivered>true</cq:isDelivered>
         <cq:lastReplicated>2024-02-09T22:06:33.587Z</cq:lastReplicated>
         <cq:lastReplicatedBy_scene7>workflow-process-service</cq:lastReplicatedBy_scene7>
         <cq:lastReplicated_scene7>2024-02-09T22:06:33.587Z</cq:lastReplicated_scene7>
         <tiff:ImageLength>36</tiff:ImageLength>
         <tiff:ImageWidth>36</tiff:ImageWidth>
      </rdf:Description>
   </rdf:RDF>
</x:xmpmeta>
                                                                                                    
                                                                                                    
                                                                                                    
                                                                                                    
                                                                                                    
                                                                                                    
                                                                                                    
                                                                                                    
                                                                                                    
                                                                                                    
                                 
<?xpacket end="w"?></metadata>
<g id="uuid-12b372a8-c266-4f97-ad8e-1fa05d2e7b6d" data-name="Icon"/>
  <g id="uuid-8303bc4e-28c2-43f4-935c-4d5eaae5f6b9" data-name="Guidelines"/>
  <g id="uuid-f6b71727-0aa2-4884-ba3a-0a569023bbd5" data-name="Layer 4">
    <g>
      <path d="M27,17.38H13c-1.23,0-2.26,.85-2.54,2h-.83v-6.75h7.38c.35,0,.62-.28,.62-.62s-.28-.62-.62-.62H7c-.35,0-.62,.28-.62,.62s.28,.62,.62,.62h1.38v7.38c0,.34,.28,.62,.62,.62h1.46c.28,1.15,1.31,2,2.54,2h2.23l-1.71,8.05c-.07,.34,.14,.67,.48,.74,.04,0,.09,.01,.13,.01,.29,0,.55-.2,.61-.5l.7-3.31h9.22l.72,3.41c.06,.29,.32,.5,.61,.5,.04,0,.09,0,.13-.01,.34-.07,.55-.4,.48-.74l-1.73-8.15h2.12c1.45,0,2.62-1.18,2.62-2.62s-1.18-2.62-2.62-2.62Zm-2.6,9H15.71l.8-3.75h7.1l.8,3.75Zm2.6-5H13c-.76,0-1.38-.62-1.38-1.38s.62-1.38,1.38-1.38h14c.76,0,1.38,.62,1.38,1.38s-.62,1.38-1.38,1.38Z"/>
      <path d="M15.15,10.61c.34,.08,.67-.14,.74-.48l.96-4.5h6.31l2.07,9.75H14.77l.26-1.25c.07-.34-.14-.67-.48-.74-.34-.07-.67,.14-.74,.48l-.43,2c-.04,.18,0,.38,.13,.52s.3,.23,.49,.23h12c.19,0,.37-.08,.49-.23s.16-.34,.13-.52l-2.34-11c-.06-.29-.32-.5-.61-.5h-7.32c-.29,0-.55,.21-.61,.5l-1.06,5c-.07,.34,.14,.67,.48,.74Z"/>
    </g>
  </g>
</svg>