<?xml version="1.0" encoding="UTF-8"?>
<svg id="uuid-b48bce41-7812-43b8-b45c-9236ca8873f5" data-name="Icon" xmlns="http://www.w3.org/2000/svg" viewBox="0 0 36 36">
  <metadata><?xpacket begin="﻿" id="W5M0MpCehiHzreSzNTczkc9d"?>
<x:xmpmeta xmlns:x="adobe:ns:meta/" x:xmptk="Adobe XMP Core 8.0-c001 1.000000, 0000/00/00-00:00:00        ">
   <rdf:RDF xmlns:rdf="http://www.w3.org/1999/02/22-rdf-syntax-ns#">
      <rdf:Description rdf:about=""
            xmlns:xmp="http://ns.adobe.com/xap/1.0/"
            xmlns:dc="http://purl.org/dc/elements/1.1/"
            xmlns:cq="http://www.day.com/jcr/cq/1.0"
            xmlns:tiff="http://ns.adobe.com/tiff/1.0/">
         <xmp:rhcc-effective-on>2023-12-08T17:38:23.933Z</xmp:rhcc-effective-on>
         <xmp:rhcc-metadata-complete-moderator>pending</xmp:rhcc-metadata-complete-moderator>
         <xmp:rhcc-translation-id>TRA31384556-b82d-47b4-b898-b4c6fef794c2</xmp:rhcc-translation-id>
         <xmp:CreateDate>2023-12-08T17:38:23.933Z</xmp:CreateDate>
         <xmp:rhcc-effective-on-set-on-upload>true</xmp:rhcc-effective-on-set-on-upload>
         <xmp:rhcc-metadata-complete-uploader>pending</xmp:rhcc-metadata-complete-uploader>
         <xmp:rhcc-file-last-modified>2023-12-08T17:40:49.004Z</xmp:rhcc-file-last-modified>
         <xmp:rhcc-audience>rhcc-audience:internal</xmp:rhcc-audience>
         <xmp:rhcc-rights-restricted>no</xmp:rhcc-rights-restricted>
         <xmp:rhcc-derivative-id>DER31384556-b82d-47b4-b898-b4c6fef794c2</xmp:rhcc-derivative-id>
         <xmp:rhcc-notify-portal-subscribers-on-change>yes</xmp:rhcc-notify-portal-subscribers-on-change>
         <dc:format>image/svg+xml</dc:format>
         <dc:modified>2024-02-09T20:28:58.621Z</dc:modified>
         <cq:lastReplicationAction_scene7>Activate</cq:lastReplicationAction_scene7>
         <cq:lastReplicationAction_publish>Activate</cq:lastReplicationAction_publish>
         <cq:lastReplicated_publish>2024-02-09T22:15:46.626Z</cq:lastReplicated_publish>
         <cq:lastReplicatedBy>workflow-process-service</cq:lastReplicatedBy>
         <cq:lastReplicationAction>Activate</cq:lastReplicationAction>
         <cq:lastReplicatedBy_publish>workflow-process-service</cq:lastReplicatedBy_publish>
         <cq:isDelivered>true</cq:isDelivered>
         <cq:lastReplicated>2024-02-09T22:15:46.626Z</cq:lastReplicated>
         <cq:lastReplicatedBy_scene7>workflow-process-service</cq:lastReplicatedBy_scene7>
         <cq:lastReplicated_scene7>2024-02-09T22:15:46.626Z</cq:lastReplicated_scene7>
         <tiff:ImageLength>36</tiff:ImageLength>
         <tiff:ImageWidth>36</tiff:ImageWidth>
      </rdf:Description>
   </rdf:RDF>
</x:xmpmeta>
                                                                                                    
                                                                                                    
                                                                                                    
                                                                                                    
                                                                                                    
                                                                                                    
                                                                                                    
                                                                                                    
                                                                                                    
                                                                                                    
                                 
<?xpacket end="w"?></metadata>
<path d="M28,15.62c.17,0,.32-.07,.44-.18l3-3c.24-.24,.24-.64,0-.88l-3-3c-.12-.12-.28-.18-.44-.18h-7.38v-2.38c0-.9-.73-1.62-1.62-1.62h-2c-.9,0-1.62,.73-1.62,1.62v2.38H6c-.35,0-.62,.28-.62,.62v6c0,.34,.28,.62,.62,.62H15.38v4.6l-8.19,1.74c-.16,.03-.3,.13-.39,.27l-2.31,3.56c-.19,.29-.11,.68,.18,.87l3.56,2.31c.1,.07,.22,.1,.34,.1,.04,0,.09,0,.13-.01l6.69-1.42v3.37c0,.34,.28,.62,.62,.62s.62-.28,.62-.62v-3.63l2.75-.58v4.22c0,.34,.28,.62,.62,.62s.62-.28,.62-.62v-4.48l9.58-2.04c.16-.03,.3-.13,.39-.27,.09-.14,.12-.31,.09-.47l-1.25-5.87c-.07-.34-.4-.56-.74-.48l-8.08,1.72v-3.48h7.38ZM16.62,6c0-.21,.17-.38,.38-.38h2c.21,0,.38,.17,.38,.38v2.38h-2.75v-2.38Zm-10,3.62H27.74l2.38,2.38-2.38,2.38H6.62v-4.75Zm22.71,13.76l-20.65,4.39-2.82-1.83,1.83-2.82,20.65-4.39,.99,4.65Zm-9.96-4.02l-2.75,.58v-4.33h2.75v3.75Z"/>
</svg>