<?xml version="1.0" encoding="UTF-8"?><svg id="uuid-c4b901bd-583d-4fee-a8f8-cb4ad99cf2c3" xmlns="http://www.w3.org/2000/svg" viewBox="0 0 36 36"><title>Streaming video icon - Black</title>
<desc>online, digital, video, service, data, movie, television show, TV, wireless, internet, media and documents, on-demand</desc>
<metadata><?xpacket begin="﻿" id="W5M0MpCehiHzreSzNTczkc9d"?>
<x:xmpmeta xmlns:x="adobe:ns:meta/" x:xmptk="Adobe XMP Core 8.0-c001 1.000000, 0000/00/00-00:00:00        ">
   <rdf:RDF xmlns:rdf="http://www.w3.org/1999/02/22-rdf-syntax-ns#">
      <rdf:Description rdf:about=""
            xmlns:xmp="http://ns.adobe.com/xap/1.0/"
            xmlns:dc="http://purl.org/dc/elements/1.1/"
            xmlns:cq="http://www.day.com/jcr/cq/1.0"
            xmlns:tiff="http://ns.adobe.com/tiff/1.0/">
         <xmp:rhcc-effective-on>2023-12-08T17:37:11.951Z</xmp:rhcc-effective-on>
         <xmp:rhcc-metadata-complete-moderator>pending</xmp:rhcc-metadata-complete-moderator>
         <xmp:rhcc-translation-id>TRA4d0542b4-bfd1-4ef5-ac6f-dab016712dc3</xmp:rhcc-translation-id>
         <xmp:brand-content-type>Icon</xmp:brand-content-type>
         <xmp:CreateDate>2023-12-08T17:37:11.951Z</xmp:CreateDate>
         <xmp:rhcc-effective-on-set-on-upload>true</xmp:rhcc-effective-on-set-on-upload>
         <xmp:rhcc-metadata-complete-uploader>pending</xmp:rhcc-metadata-complete-uploader>
         <xmp:rhcc-file-last-modified>2023-12-08T17:40:55.015Z</xmp:rhcc-file-last-modified>
         <xmp:rhcc-audience>rhcc-audience:internal</xmp:rhcc-audience>
         <xmp:rhcc-rights-restricted>no</xmp:rhcc-rights-restricted>
         <xmp:brand-content-subtype>Icon</xmp:brand-content-subtype>
         <xmp:rhcc-derivative-id>DER4d0542b4-bfd1-4ef5-ac6f-dab016712dc3</xmp:rhcc-derivative-id>
         <xmp:brand-logo-color>Black</xmp:brand-logo-color>
         <xmp:rhcc-notify-portal-subscribers-on-change>yes</xmp:rhcc-notify-portal-subscribers-on-change>
         <dc:format>image/svg+xml</dc:format>
         <dc:modified>2024-02-09T20:20:41.222Z</dc:modified>
         <dc:title>
            <rdf:Alt>
               <rdf:li xml:lang="x-default">Streaming video icon - Black</rdf:li>
            </rdf:Alt>
         </dc:title>
         <dc:description>
            <rdf:Alt>
               <rdf:li xml:lang="x-default">online, digital, video, service, data, movie, television show, TV, wireless, internet, media and documents, on-demand</rdf:li>
            </rdf:Alt>
         </dc:description>
         <cq:lastReplicationAction_scene7>Activate</cq:lastReplicationAction_scene7>
         <cq:lastReplicationAction_publish>Activate</cq:lastReplicationAction_publish>
         <cq:lastReplicated_publish>2024-02-09T21:58:56.286Z</cq:lastReplicated_publish>
         <cq:lastReplicatedBy>workflow-process-service</cq:lastReplicatedBy>
         <cq:lastReplicationAction>Activate</cq:lastReplicationAction>
         <cq:lastReplicatedBy_publish>workflow-process-service</cq:lastReplicatedBy_publish>
         <cq:isDelivered>true</cq:isDelivered>
         <cq:lastReplicated>2024-02-09T21:58:56.286Z</cq:lastReplicated>
         <cq:lastReplicatedBy_scene7>workflow-process-service</cq:lastReplicatedBy_scene7>
         <cq:lastReplicated_scene7>2024-02-09T21:58:56.286Z</cq:lastReplicated_scene7>
         <tiff:ImageLength>36</tiff:ImageLength>
         <tiff:ImageWidth>36</tiff:ImageWidth>
      </rdf:Description>
   </rdf:RDF>
</x:xmpmeta>
                                                                                                    
                                                                                                    
                                                                                                    
                                                                                                    
                                                                                                    
                                                                                                    
                                                                                                    
                                                                                                    
                                                                                                    
                                                                                                    
                                 
<?xpacket end="w"?></metadata>
<path d="M5.68,23.21c-1.4-3.27-1.4-7.14,0-10.41,.67-1.59,1.64-3.02,2.87-4.25,.58-.58-.3-1.46-.88-.88-1.34,1.34-2.4,2.91-3.13,4.65-1.53,3.58-1.53,7.81,0,11.38,.74,1.74,1.79,3.31,3.13,4.65,.58,.57,1.46-.3,.88-.88-1.23-1.23-2.19-2.66-2.87-4.25Z"/><path d="M31.48,12.31c-.74-1.74-1.79-3.31-3.13-4.65-.58-.58-1.46,.3-.88,.88,1.23,1.23,2.19,2.66,2.87,4.25,1.4,3.27,1.4,7.14,0,10.41-.67,1.59-1.64,3.02-2.87,4.25-.58,.58,.3,1.46,.88,.88,1.34-1.34,2.4-2.91,3.13-4.65,1.53-3.58,1.53-7.81,0-11.38Z"/><path d="M10.66,10.66c.58-.58-.3-1.46-.88-.88-1.07,1.07-1.91,2.31-2.49,3.7-1.22,2.84-1.22,6.21,0,9.05,.59,1.38,1.42,2.63,2.49,3.7,.58,.58,1.46-.3,.88-.88-.95-.95-1.7-2.06-2.22-3.3-1.09-2.54-1.09-5.54,0-8.08,.52-1.24,1.27-2.35,2.22-3.3Z"/><path d="M29.62,18c0-1.57-.31-3.09-.91-4.52-.59-1.38-1.42-2.63-2.49-3.7-.58-.58-1.46,.3-.88,.88,.95,.95,1.7,2.06,2.22,3.3,1.09,2.54,1.09,5.54,0,8.08-.52,1.24-1.27,2.35-2.22,3.3-.58,.58,.3,1.46,.88,.88,1.07-1.07,1.91-2.31,2.49-3.7,.61-1.43,.91-2.96,.91-4.52Z"/><path d="M23.69,15.57l-2.07,1.17v-1.74c0-.34-.28-.62-.62-.62H12c-.35,0-.62,.28-.62,.62v6c0,.34,.28,.62,.62,.62h9c.35,0,.62-.28,.62-.62v-1.74l2.07,1.17c.19,.11,.43,.11,.62,0,.19-.11,.31-.32,.31-.54v-3.77c0-.22-.12-.43-.31-.54-.19-.11-.43-.11-.62,0Zm-11.07,4.8v-4.75h7.75v2.57h0v2.18h-7.75Zm10.75-1.56l-1.44-.81,1.44-.81v1.62Z"/></svg>