<svg id="ba7eb93b-28ea-429c-ba83-0683a32b90bc" data-name="Icon" xmlns="http://www.w3.org/2000/svg" viewBox="0 0 36 36">
  <title>Virtual storage icon - Black</title>
<desc>disk, platter, drive, memory, infrastructure, data, virtualization, hardware</desc>
<metadata><?xpacket begin="﻿" id="W5M0MpCehiHzreSzNTczkc9d"?>
<x:xmpmeta xmlns:x="adobe:ns:meta/" x:xmptk="Adobe XMP Core 8.0-c001 1.000000, 0000/00/00-00:00:00        ">
   <rdf:RDF xmlns:rdf="http://www.w3.org/1999/02/22-rdf-syntax-ns#">
      <rdf:Description rdf:about=""
            xmlns:xmp="http://ns.adobe.com/xap/1.0/"
            xmlns:dc="http://purl.org/dc/elements/1.1/"
            xmlns:cq="http://www.day.com/jcr/cq/1.0"
            xmlns:tiff="http://ns.adobe.com/tiff/1.0/">
         <xmp:rhcc-effective-on>2023-12-08T17:34:39.875Z</xmp:rhcc-effective-on>
         <xmp:rhcc-metadata-complete-moderator>pending</xmp:rhcc-metadata-complete-moderator>
         <xmp:rhcc-translation-id>TRA5385a535-c2eb-43e5-b5cc-c1e23cc55a45</xmp:rhcc-translation-id>
         <xmp:brand-content-type>Icon</xmp:brand-content-type>
         <xmp:CreateDate>2023-12-08T17:34:39.875Z</xmp:CreateDate>
         <xmp:rhcc-effective-on-set-on-upload>true</xmp:rhcc-effective-on-set-on-upload>
         <xmp:rhcc-metadata-complete-uploader>pending</xmp:rhcc-metadata-complete-uploader>
         <xmp:rhcc-file-last-modified>2023-12-08T17:34:49.984Z</xmp:rhcc-file-last-modified>
         <xmp:rhcc-audience>rhcc-audience:internal</xmp:rhcc-audience>
         <xmp:rhcc-rights-restricted>no</xmp:rhcc-rights-restricted>
         <xmp:brand-content-subtype>Icon</xmp:brand-content-subtype>
         <xmp:rhcc-derivative-id>DER5385a535-c2eb-43e5-b5cc-c1e23cc55a45</xmp:rhcc-derivative-id>
         <xmp:brand-logo-color>Black</xmp:brand-logo-color>
         <xmp:rhcc-notify-portal-subscribers-on-change>yes</xmp:rhcc-notify-portal-subscribers-on-change>
         <dc:format>image/svg+xml</dc:format>
         <dc:modified>2024-02-09T20:13:37.984Z</dc:modified>
         <dc:title>
            <rdf:Alt>
               <rdf:li xml:lang="x-default">Virtual storage icon - Black</rdf:li>
            </rdf:Alt>
         </dc:title>
         <dc:description>
            <rdf:Alt>
               <rdf:li xml:lang="x-default">disk, platter, drive, memory, infrastructure, data, virtualization, hardware</rdf:li>
            </rdf:Alt>
         </dc:description>
         <cq:lastReplicationAction_scene7>Activate</cq:lastReplicationAction_scene7>
         <cq:lastReplicationAction_publish>Activate</cq:lastReplicationAction_publish>
         <cq:lastReplicated_publish>2024-02-09T21:49:59.505Z</cq:lastReplicated_publish>
         <cq:lastReplicatedBy>workflow-process-service</cq:lastReplicatedBy>
         <cq:lastReplicationAction>Activate</cq:lastReplicationAction>
         <cq:lastReplicatedBy_publish>workflow-process-service</cq:lastReplicatedBy_publish>
         <cq:isDelivered>true</cq:isDelivered>
         <cq:lastReplicated>2024-02-09T21:49:59.505Z</cq:lastReplicated>
         <cq:lastReplicatedBy_scene7>workflow-process-service</cq:lastReplicatedBy_scene7>
         <cq:lastReplicated_scene7>2024-02-09T21:49:59.505Z</cq:lastReplicated_scene7>
         <tiff:ImageLength>36</tiff:ImageLength>
         <tiff:ImageWidth>36</tiff:ImageWidth>
      </rdf:Description>
   </rdf:RDF>
</x:xmpmeta>
                                                                                                    
                                                                                                    
                                                                                                    
                                                                                                    
                                                                                                    
                                                                                                    
                                                                                                    
                                                                                                    
                                                                                                    
                                                                                                    
                                 
<?xpacket end="w"?></metadata>
<g>
    <path d="M31.65,15C31.23,4.87,4.76,4.87,4.35,15v6c0,4.29,6,7.65,13.65,7.65S31.65,25.29,31.65,21Zm-1.3,6c0,3.44-5.65,6.35-12.35,6.35S5.65,24.44,5.65,21V18.29c4.5,5.76,20.2,5.75,24.7,0ZM18,21.35c-6.7,0-12.35-2.91-12.35-6.35S11.3,8.65,18,8.65,30.35,11.56,30.35,15,24.7,21.35,18,21.35Z"/>
    <path d="M3.83,11.66a.63.63,0,0,0,.38-1.13A.62.62,0,1,0,3.83,11.66Z"/>
    <path d="M2.44,14.29a.61.61,0,0,0,.74-.48h0A.63.63,0,0,0,2,13.55.62.62,0,0,0,2.44,14.29Z"/>
    <path d="M6,9.61c1.09-.07.57-1.73-.37-1.13A.63.63,0,0,0,6,9.61Z"/>
    <path d="M2.44,17.26a.63.63,0,0,0,0-1.25A.63.63,0,0,0,2.44,17.26Z"/>
    <path d="M3.07,19.6a.63.63,0,0,0-1.25,0A.63.63,0,0,0,3.07,19.6Z"/>
    <path d="M25.67,7.43a.62.62,0,0,0,.41-1.18A.62.62,0,0,0,25.67,7.43Z"/>
    <path d="M2.47,21.94a.62.62,0,0,0,.31,1.21A.62.62,0,0,0,2.47,21.94Z"/>
    <path d="M8.51,8.12a.63.63,0,1,0-.26-1.2A.63.63,0,0,0,8.51,8.12Z"/>
    <path d="M17.13,6.2h0a.62.62,0,0,0,0-1.24A.62.62,0,0,0,17.15,6.19Z"/>
    <path d="M20,6.26A.62.62,0,0,0,20.14,5,.62.62,0,0,0,20,6.26Z"/>
    <path d="M11.29,7.09a.62.62,0,1,0-.17-1.22A.62.62,0,0,0,11.29,7.09Z"/>
    <path d="M22.9,6.67a.63.63,0,0,0,.24-1.23A.63.63,0,0,0,22.9,6.67Z"/>
    <path d="M14.18,6.46a.62.62,0,1,0-.09-1.24A.62.62,0,0,0,14.18,6.46Z"/>
    <path d="M31,10.37a.62.62,0,0,0,.42-1.08A.62.62,0,1,0,31,10.37Z"/>
    <path d="M28.27,8.59a.62.62,0,0,0,.61-1.09A.62.62,0,0,0,28.27,8.59Z"/>
    <path d="M9,28a.63.63,0,0,0-.51,1.15A.63.63,0,0,0,9,28Z"/>
    <path d="M32.83,12.68a.62.62,0,1,0-.3-1.18A.62.62,0,0,0,32.83,12.68Z"/>
    <path d="M30.73,25.63a.63.63,0,0,0,.86.91A.63.63,0,0,0,30.73,25.63Z"/>
    <path d="M33.21,23.17a.63.63,0,1,0,.29.84h0A.62.62,0,0,0,33.21,23.17Z"/>
    <path d="M3.59,24.67a.62.62,0,0,0,.78,1A.62.62,0,0,0,3.59,24.67Z"/>
    <path d="M28.47,27.3a.63.63,0,0,0,.63,1.08A.63.63,0,0,0,28.47,27.3Z"/>
    <path d="M33.56,15.56a.65.65,0,0,0,0-1.3A.65.65,0,0,0,33.56,15.56Z"/>
    <path d="M33.56,17.28a.63.63,0,0,0,0,1.25A.63.63,0,0,0,33.56,17.28Z"/>
    <path d="M33.56,20.25a.63.63,0,0,0,0,1.25A.63.63,0,0,0,33.56,20.25Z"/>
    <path d="M14.5,29.58a.62.62,0,0,0-.17,1.23A.62.62,0,0,0,14.5,29.58Z"/>
    <path d="M11.68,29a.63.63,0,0,0-.33,1.21A.63.63,0,0,0,11.68,29Z"/>
    <path d="M5.64,26.8a.62.62,0,0,0,1,.72A.62.62,0,0,0,5.64,26.8Z"/>
    <path d="M25.88,28.49a.63.63,0,0,0,.43,1.18A.63.63,0,0,0,25.88,28.49Z"/>
    <path d="M17.38,29.81a.63.63,0,0,0,0,1.25A.63.63,0,0,0,17.38,29.81Z"/>
    <path d="M23.12,29.29a.62.62,0,0,0,.26,1.22A.62.62,0,0,0,23.12,29.29Z"/>
    <path d="M20.27,29.72A.62.62,0,0,0,20.38,31,.62.62,0,0,0,20.27,29.72Z"/>
  </g>
</svg>
