<svg id="ecacae71-d00f-43f3-b961-440b9ecf1ebf" data-name="Icon" xmlns="http://www.w3.org/2000/svg" viewBox="0 0 36 36">
  <title>Volume mute icon - Black</title>
<desc>sound, increase, music, noise, speakers, level, keyboard, setting, media and documents</desc>
<metadata><?xpacket begin="﻿" id="W5M0MpCehiHzreSzNTczkc9d"?>
<x:xmpmeta xmlns:x="adobe:ns:meta/" x:xmptk="Adobe XMP Core 8.0-c001 1.000000, 0000/00/00-00:00:00        ">
   <rdf:RDF xmlns:rdf="http://www.w3.org/1999/02/22-rdf-syntax-ns#">
      <rdf:Description rdf:about=""
            xmlns:xmp="http://ns.adobe.com/xap/1.0/"
            xmlns:dc="http://purl.org/dc/elements/1.1/"
            xmlns:cq="http://www.day.com/jcr/cq/1.0"
            xmlns:tiff="http://ns.adobe.com/tiff/1.0/">
         <xmp:rhcc-effective-on>2023-12-08T17:37:36.046Z</xmp:rhcc-effective-on>
         <xmp:rhcc-metadata-complete-moderator>pending</xmp:rhcc-metadata-complete-moderator>
         <xmp:rhcc-translation-id>TRAb21074bf-7614-4792-98ff-19d8834d24a9</xmp:rhcc-translation-id>
         <xmp:brand-content-type>Icon</xmp:brand-content-type>
         <xmp:CreateDate>2023-12-08T17:37:36.046Z</xmp:CreateDate>
         <xmp:rhcc-effective-on-set-on-upload>true</xmp:rhcc-effective-on-set-on-upload>
         <xmp:rhcc-metadata-complete-uploader>pending</xmp:rhcc-metadata-complete-uploader>
         <xmp:rhcc-file-last-modified>2023-12-08T17:40:51.769Z</xmp:rhcc-file-last-modified>
         <xmp:rhcc-audience>rhcc-audience:internal</xmp:rhcc-audience>
         <xmp:rhcc-rights-restricted>no</xmp:rhcc-rights-restricted>
         <xmp:brand-content-subtype>Icon</xmp:brand-content-subtype>
         <xmp:rhcc-derivative-id>DERb21074bf-7614-4792-98ff-19d8834d24a9</xmp:rhcc-derivative-id>
         <xmp:brand-logo-color>Black</xmp:brand-logo-color>
         <xmp:rhcc-notify-portal-subscribers-on-change>yes</xmp:rhcc-notify-portal-subscribers-on-change>
         <dc:format>image/svg+xml</dc:format>
         <dc:modified>2024-02-09T20:21:24.658Z</dc:modified>
         <dc:title>
            <rdf:Alt>
               <rdf:li xml:lang="x-default">Volume mute icon - Black</rdf:li>
            </rdf:Alt>
         </dc:title>
         <dc:description>
            <rdf:Alt>
               <rdf:li xml:lang="x-default">sound, increase, music, noise, speakers, level, keyboard, setting, media and documents</rdf:li>
            </rdf:Alt>
         </dc:description>
         <cq:lastReplicationAction_scene7>Activate</cq:lastReplicationAction_scene7>
         <cq:lastReplicationAction_publish>Activate</cq:lastReplicationAction_publish>
         <cq:lastReplicated_publish>2024-02-09T22:00:16.435Z</cq:lastReplicated_publish>
         <cq:lastReplicatedBy>workflow-process-service</cq:lastReplicatedBy>
         <cq:lastReplicationAction>Activate</cq:lastReplicationAction>
         <cq:lastReplicatedBy_publish>workflow-process-service</cq:lastReplicatedBy_publish>
         <cq:isDelivered>true</cq:isDelivered>
         <cq:lastReplicated>2024-02-09T22:00:16.435Z</cq:lastReplicated>
         <cq:lastReplicatedBy_scene7>workflow-process-service</cq:lastReplicatedBy_scene7>
         <cq:lastReplicated_scene7>2024-02-09T22:00:16.435Z</cq:lastReplicated_scene7>
         <tiff:ImageLength>36</tiff:ImageLength>
         <tiff:ImageWidth>36</tiff:ImageWidth>
      </rdf:Description>
   </rdf:RDF>
</x:xmpmeta>
                                                                                                    
                                                                                                    
                                                                                                    
                                                                                                    
                                                                                                    
                                                                                                    
                                                                                                    
                                                                                                    
                                                                                                    
                                                                                                    
                                 
<?xpacket end="w"?></metadata>
<g>
    <path d="M31.44,4.56a.61.61,0,0,0-.88,0L18.62,16.49V7a.63.63,0,0,0-1-.5L9.79,12.37H6A1.62,1.62,0,0,0,4.38,14v8A1.62,1.62,0,0,0,6,23.62H9.79l1,.73-6.2,6.21a.61.61,0,0,0,0,.88.63.63,0,0,0,.88,0l26-26A.61.61,0,0,0,31.44,4.56ZM10.38,22.5a.65.65,0,0,0-.38-.13H6A.38.38,0,0,1,5.62,22V14A.38.38,0,0,1,6,13.62h4a.66.66,0,0,0,.38-.12l7-5.25v9.49l-5.72,5.72Z"/>
    <path d="M18,21.37a.63.63,0,0,0-.62.63v5.75l-3-2.25a.63.63,0,1,0-.76,1l4,3a.63.63,0,0,0,1-.5V22A.63.63,0,0,0,18,21.37Z"/>
    <path d="M26.56,13.58a.65.65,0,0,0-.85-.27.64.64,0,0,0-.26.85,8.36,8.36,0,0,1-1.53,9.76.63.63,0,0,0,.89.88A9.61,9.61,0,0,0,26.56,13.58Z"/>
    <path d="M28.58,10.47a.63.63,0,0,0-.19.87,12.4,12.4,0,0,1-1.66,15.38.63.63,0,0,0,.88.89,13.66,13.66,0,0,0,1.83-16.95A.63.63,0,0,0,28.58,10.47Z"/>
    <path d="M22.77,16.39a.61.61,0,0,0-.48.73,4.38,4.38,0,0,1-1.2,4A.63.63,0,0,0,22,22a5.62,5.62,0,0,0,1.53-5.11A.61.61,0,0,0,22.77,16.39Z"/>
  </g>
</svg>
