<svg id="aac06453-8c21-4124-8b97-a13502e7c472" data-name="Icon" xmlns="http://www.w3.org/2000/svg" viewBox="0 0 36 36">
  <title>Volume up icon - Black</title>
<desc>sound, increase, music, noise, speakers, level, keyboard, setting, media and documents</desc>
<metadata><?xpacket begin="﻿" id="W5M0MpCehiHzreSzNTczkc9d"?>
<x:xmpmeta xmlns:x="adobe:ns:meta/" x:xmptk="Adobe XMP Core 8.0-c001 1.000000, 0000/00/00-00:00:00        ">
   <rdf:RDF xmlns:rdf="http://www.w3.org/1999/02/22-rdf-syntax-ns#">
      <rdf:Description rdf:about=""
            xmlns:xmp="http://ns.adobe.com/xap/1.0/"
            xmlns:dc="http://purl.org/dc/elements/1.1/"
            xmlns:cq="http://www.day.com/jcr/cq/1.0"
            xmlns:tiff="http://ns.adobe.com/tiff/1.0/">
         <xmp:rhcc-effective-on>2023-12-08T17:37:37.275Z</xmp:rhcc-effective-on>
         <xmp:rhcc-metadata-complete-moderator>pending</xmp:rhcc-metadata-complete-moderator>
         <xmp:rhcc-translation-id>TRA01d0ac8a-76cb-4223-822a-9696b8f29b51</xmp:rhcc-translation-id>
         <xmp:brand-content-type>Icon</xmp:brand-content-type>
         <xmp:CreateDate>2023-12-08T17:37:37.275Z</xmp:CreateDate>
         <xmp:rhcc-effective-on-set-on-upload>true</xmp:rhcc-effective-on-set-on-upload>
         <xmp:rhcc-metadata-complete-uploader>pending</xmp:rhcc-metadata-complete-uploader>
         <xmp:rhcc-file-last-modified>2023-12-08T17:40:48.898Z</xmp:rhcc-file-last-modified>
         <xmp:rhcc-audience>rhcc-audience:internal</xmp:rhcc-audience>
         <xmp:rhcc-rights-restricted>no</xmp:rhcc-rights-restricted>
         <xmp:brand-content-subtype>Icon</xmp:brand-content-subtype>
         <xmp:rhcc-derivative-id>DER01d0ac8a-76cb-4223-822a-9696b8f29b51</xmp:rhcc-derivative-id>
         <xmp:brand-logo-color>Black</xmp:brand-logo-color>
         <xmp:rhcc-notify-portal-subscribers-on-change>yes</xmp:rhcc-notify-portal-subscribers-on-change>
         <dc:format>image/svg+xml</dc:format>
         <dc:modified>2024-02-09T20:22:00.826Z</dc:modified>
         <dc:title>
            <rdf:Alt>
               <rdf:li xml:lang="x-default">Volume up icon - Black</rdf:li>
            </rdf:Alt>
         </dc:title>
         <dc:description>
            <rdf:Alt>
               <rdf:li xml:lang="x-default">sound, increase, music, noise, speakers, level, keyboard, setting, media and documents</rdf:li>
            </rdf:Alt>
         </dc:description>
         <cq:lastReplicationAction_scene7>Activate</cq:lastReplicationAction_scene7>
         <cq:lastReplicationAction_publish>Activate</cq:lastReplicationAction_publish>
         <cq:lastReplicated_publish>2024-02-09T22:01:09.087Z</cq:lastReplicated_publish>
         <cq:lastReplicatedBy>workflow-process-service</cq:lastReplicatedBy>
         <cq:lastReplicationAction>Activate</cq:lastReplicationAction>
         <cq:lastReplicatedBy_publish>workflow-process-service</cq:lastReplicatedBy_publish>
         <cq:isDelivered>true</cq:isDelivered>
         <cq:lastReplicated>2024-02-09T22:01:09.087Z</cq:lastReplicated>
         <cq:lastReplicatedBy_scene7>workflow-process-service</cq:lastReplicatedBy_scene7>
         <cq:lastReplicated_scene7>2024-02-09T22:01:09.087Z</cq:lastReplicated_scene7>
         <tiff:ImageLength>36</tiff:ImageLength>
         <tiff:ImageWidth>36</tiff:ImageWidth>
      </rdf:Description>
   </rdf:RDF>
</x:xmpmeta>
                                                                                                    
                                                                                                    
                                                                                                    
                                                                                                    
                                                                                                    
                                                                                                    
                                                                                                    
                                                                                                    
                                                                                                    
                                                                                                    
                                 
<?xpacket end="w"?></metadata>
<g>
    <path d="M18.28,6.44a.63.63,0,0,0-.66.06L9.79,12.38H6A1.61,1.61,0,0,0,4.38,14v8A1.61,1.61,0,0,0,6,23.62H9.79l7.83,5.88a.63.63,0,0,0,1-.5V7A.63.63,0,0,0,18.28,6.44Zm-.9,21.31-7-5.25a.66.66,0,0,0-.38-.12H6A.38.38,0,0,1,5.62,22V14A.38.38,0,0,1,6,13.62h4a.66.66,0,0,0,.38-.12l7-5.25Z"/>
    <path d="M24.81,11.19a.63.63,0,0,0-.89.89,8.37,8.37,0,0,1,0,11.84.63.63,0,0,0,.89.89A9.65,9.65,0,0,0,24.81,11.19Z"/>
    <path d="M27.61,8.39a.63.63,0,0,0-.88,0,.61.61,0,0,0,0,.88,12.37,12.37,0,0,1,0,17.46.61.61,0,0,0,0,.88.63.63,0,0,0,.88,0A13.6,13.6,0,0,0,27.61,8.39Z"/>
    <path d="M21.09,14a.64.64,0,0,0,0,.89,4.38,4.38,0,0,1,0,6.18A.63.63,0,0,0,22,22a5.66,5.66,0,0,0,0-8A.64.64,0,0,0,21.09,14Z"/>
  </g>
</svg>
