<svg id="e86cdd6e-2d8d-40ae-b13e-c55d0a22db9f" data-name="Icon" xmlns="http://www.w3.org/2000/svg" viewBox="0 0 36 36">
  <title>Website system icon - Black</title>
<desc>.com, access, log in, browser, UX, UI, interface, internet, connect, online, software and technologies</desc>
<metadata><?xpacket begin="﻿" id="W5M0MpCehiHzreSzNTczkc9d"?>
<x:xmpmeta xmlns:x="adobe:ns:meta/" x:xmptk="Adobe XMP Core 8.0-c001 1.000000, 0000/00/00-00:00:00        ">
   <rdf:RDF xmlns:rdf="http://www.w3.org/1999/02/22-rdf-syntax-ns#">
      <rdf:Description rdf:about=""
            xmlns:xmp="http://ns.adobe.com/xap/1.0/"
            xmlns:dc="http://purl.org/dc/elements/1.1/"
            xmlns:cq="http://www.day.com/jcr/cq/1.0"
            xmlns:tiff="http://ns.adobe.com/tiff/1.0/">
         <xmp:rhcc-effective-on>2023-12-08T17:44:33.800Z</xmp:rhcc-effective-on>
         <xmp:rhcc-metadata-complete-moderator>pending</xmp:rhcc-metadata-complete-moderator>
         <xmp:rhcc-translation-id>TRA4a924af5-7f94-4b2b-a027-c0c6a7e0bbb0</xmp:rhcc-translation-id>
         <xmp:brand-content-type>Icon</xmp:brand-content-type>
         <xmp:CreateDate>2023-12-08T17:44:33.800Z</xmp:CreateDate>
         <xmp:rhcc-effective-on-set-on-upload>true</xmp:rhcc-effective-on-set-on-upload>
         <xmp:rhcc-metadata-complete-uploader>pending</xmp:rhcc-metadata-complete-uploader>
         <xmp:rhcc-file-last-modified>2023-12-08T17:45:17.055Z</xmp:rhcc-file-last-modified>
         <xmp:rhcc-audience>rhcc-audience:internal</xmp:rhcc-audience>
         <xmp:rhcc-rights-restricted>no</xmp:rhcc-rights-restricted>
         <xmp:brand-content-subtype>Icon</xmp:brand-content-subtype>
         <xmp:rhcc-derivative-id>DER4a924af5-7f94-4b2b-a027-c0c6a7e0bbb0</xmp:rhcc-derivative-id>
         <xmp:brand-logo-color>Black</xmp:brand-logo-color>
         <xmp:rhcc-notify-portal-subscribers-on-change>yes</xmp:rhcc-notify-portal-subscribers-on-change>
         <dc:format>image/svg+xml</dc:format>
         <dc:modified>2024-02-09T20:19:06.549Z</dc:modified>
         <dc:title>
            <rdf:Alt>
               <rdf:li xml:lang="x-default">Website system icon - Black</rdf:li>
            </rdf:Alt>
         </dc:title>
         <dc:description>
            <rdf:Alt>
               <rdf:li xml:lang="x-default">.com, access, log in, browser, UX, UI, interface, internet, connect, online, software and technologies</rdf:li>
            </rdf:Alt>
         </dc:description>
         <cq:lastReplicationAction_scene7>Activate</cq:lastReplicationAction_scene7>
         <cq:lastReplicationAction_publish>Activate</cq:lastReplicationAction_publish>
         <cq:lastReplicated_publish>2024-02-09T21:56:31.268Z</cq:lastReplicated_publish>
         <cq:lastReplicatedBy>workflow-process-service</cq:lastReplicatedBy>
         <cq:lastReplicationAction>Activate</cq:lastReplicationAction>
         <cq:lastReplicatedBy_publish>workflow-process-service</cq:lastReplicatedBy_publish>
         <cq:isDelivered>true</cq:isDelivered>
         <cq:lastReplicated>2024-02-09T21:56:31.268Z</cq:lastReplicated>
         <cq:lastReplicatedBy_scene7>workflow-process-service</cq:lastReplicatedBy_scene7>
         <cq:lastReplicated_scene7>2024-02-09T21:56:31.268Z</cq:lastReplicated_scene7>
         <tiff:ImageLength>36</tiff:ImageLength>
         <tiff:ImageWidth>36</tiff:ImageWidth>
      </rdf:Description>
   </rdf:RDF>
</x:xmpmeta>
                                                                                                    
                                                                                                    
                                                                                                    
                                                                                                    
                                                                                                    
                                                                                                    
                                                                                                    
                                                                                                    
                                                                                                    
                                                                                                    
                                 
<?xpacket end="w"?></metadata>
<g>
    <path d="M10,21.37a.63.63,0,0,0-.62.64.63.63,0,0,0,1.25,0A.64.64,0,0,0,10,21.37Z"/>
    <path d="M8,21.37a.63.63,0,0,0-.62.64.63.63,0,0,0,1.25,0A.64.64,0,0,0,8,21.37Z"/>
    <g>
      <path d="M22,18.38H5a.62.62,0,0,0-.62.62V31a.62.62,0,0,0,.62.62H22a.62.62,0,0,0,.62-.62V19A.62.62,0,0,0,22,18.38Zm-.62,12H5.62V19.62H21.38Z"/>
      <path d="M14,22.62h5a.62.62,0,0,0,0-1.24H14a.62.62,0,1,0,0,1.24Z"/>
      <path d="M19,9.62h6A.62.62,0,0,0,25.62,9V5A.62.62,0,0,0,25,4.38H19a.62.62,0,0,0-.62.62V9A.62.62,0,0,0,19,9.62Zm.62-4h4.76V8.38H19.62Z"/>
      <path d="M31,14.38H25a.62.62,0,0,0-.62.62v4a.62.62,0,0,0,.62.62h6a.62.62,0,0,0,.62-.62V15A.62.62,0,0,0,31,14.38Zm-.62,4H25.62V15.62h4.76Z"/>
      <path d="M6,14.62h6a.62.62,0,0,0,.62-.62V10A.62.62,0,0,0,12,9.38H6a.62.62,0,0,0-.62.62v4A.62.62,0,0,0,6,14.62Zm.62-4h4.76v2.76H6.62Z"/>
      <path d="M27.42,20.43a.61.61,0,0,0-.82.32,9.41,9.41,0,0,1-3,3.75.63.63,0,0,0-.12.88.62.62,0,0,0,.5.24.68.68,0,0,0,.38-.12,10.67,10.67,0,0,0,3.36-4.25A.62.62,0,0,0,27.42,20.43Z"/>
      <path d="M25.5,11.38a9.47,9.47,0,0,1,1.1,1.87.61.61,0,0,0,.57.37.56.56,0,0,0,.25,0,.62.62,0,0,0,.32-.82,11.07,11.07,0,0,0-1.24-2.13.63.63,0,0,0-1,.76Z"/>
      <path d="M13,9a.58.58,0,0,0,.31-.08,9.23,9.23,0,0,1,.83-.42l.23-.1c.22-.09.44-.18.67-.25a10.17,10.17,0,0,1,1.08-.3c.31-.06.62-.11.94-.14a.62.62,0,1,0-.12-1.24,9,9,0,0,0-1.06.16,9.34,9.34,0,0,0-1,.27h0l-.17.07a7.61,7.61,0,0,0-.75.28l-.27.11c-.31.14-.61.29-.91.46l0,0a.61.61,0,0,0-.31.62A.63.63,0,0,0,13,9Z"/>
      <path d="M7.43,15.94a9.29,9.29,0,0,0,0,1.06.62.62,0,0,0,1.24,0c0-.32,0-.63.05-.94a.62.62,0,1,0-1.24-.12Z"/>
    </g>
  </g>
</svg>
