<?xml version="1.0" encoding="UTF-8"?><svg id="uuid-3d2cddc1-c5d3-42c4-95ab-4f981992322e" xmlns="http://www.w3.org/2000/svg" viewBox="0 0 36 36"><title>Wifi icon - Black</title>
<desc>internet, connection, TME, wireless, laptop, phone, streaming, data, router, software and technologies</desc>
<metadata><?xpacket begin="﻿" id="W5M0MpCehiHzreSzNTczkc9d"?>
<x:xmpmeta xmlns:x="adobe:ns:meta/" x:xmptk="Adobe XMP Core 8.0-c001 1.000000, 0000/00/00-00:00:00        ">
   <rdf:RDF xmlns:rdf="http://www.w3.org/1999/02/22-rdf-syntax-ns#">
      <rdf:Description rdf:about=""
            xmlns:xmp="http://ns.adobe.com/xap/1.0/"
            xmlns:dc="http://purl.org/dc/elements/1.1/"
            xmlns:cq="http://www.day.com/jcr/cq/1.0"
            xmlns:tiff="http://ns.adobe.com/tiff/1.0/">
         <xmp:rhcc-effective-on>2023-12-08T17:44:36.283Z</xmp:rhcc-effective-on>
         <xmp:rhcc-metadata-complete-moderator>pending</xmp:rhcc-metadata-complete-moderator>
         <xmp:rhcc-translation-id>TRA22fc84da-21a3-4a21-a2a0-0519aa1aa7fb</xmp:rhcc-translation-id>
         <xmp:brand-content-type>Icon</xmp:brand-content-type>
         <xmp:CreateDate>2023-12-08T17:44:36.283Z</xmp:CreateDate>
         <xmp:rhcc-effective-on-set-on-upload>true</xmp:rhcc-effective-on-set-on-upload>
         <xmp:rhcc-metadata-complete-uploader>pending</xmp:rhcc-metadata-complete-uploader>
         <xmp:rhcc-file-last-modified>2023-12-08T17:45:17.311Z</xmp:rhcc-file-last-modified>
         <xmp:rhcc-audience>rhcc-audience:internal</xmp:rhcc-audience>
         <xmp:rhcc-rights-restricted>no</xmp:rhcc-rights-restricted>
         <xmp:brand-content-subtype>Icon</xmp:brand-content-subtype>
         <xmp:rhcc-derivative-id>DER22fc84da-21a3-4a21-a2a0-0519aa1aa7fb</xmp:rhcc-derivative-id>
         <xmp:brand-logo-color>Black</xmp:brand-logo-color>
         <xmp:rhcc-notify-portal-subscribers-on-change>yes</xmp:rhcc-notify-portal-subscribers-on-change>
         <dc:format>image/svg+xml</dc:format>
         <dc:modified>2024-02-09T20:19:18.258Z</dc:modified>
         <dc:title>
            <rdf:Alt>
               <rdf:li xml:lang="x-default">Wifi icon - Black</rdf:li>
            </rdf:Alt>
         </dc:title>
         <dc:description>
            <rdf:Alt>
               <rdf:li xml:lang="x-default">internet, connection, TME, wireless, laptop, phone, streaming, data, router, software and technologies</rdf:li>
            </rdf:Alt>
         </dc:description>
         <cq:lastReplicationAction_scene7>Activate</cq:lastReplicationAction_scene7>
         <cq:lastReplicationAction_publish>Activate</cq:lastReplicationAction_publish>
         <cq:lastReplicated_publish>2024-02-09T21:56:44.398Z</cq:lastReplicated_publish>
         <cq:lastReplicatedBy>workflow-process-service</cq:lastReplicatedBy>
         <cq:lastReplicationAction>Activate</cq:lastReplicationAction>
         <cq:lastReplicatedBy_publish>workflow-process-service</cq:lastReplicatedBy_publish>
         <cq:isDelivered>true</cq:isDelivered>
         <cq:lastReplicated>2024-02-09T21:56:44.398Z</cq:lastReplicated>
         <cq:lastReplicatedBy_scene7>workflow-process-service</cq:lastReplicatedBy_scene7>
         <cq:lastReplicated_scene7>2024-02-09T21:56:44.398Z</cq:lastReplicated_scene7>
         <tiff:ImageLength>36</tiff:ImageLength>
         <tiff:ImageWidth>36</tiff:ImageWidth>
      </rdf:Description>
   </rdf:RDF>
</x:xmpmeta>
                                                                                                    
                                                                                                    
                                                                                                    
                                                                                                    
                                                                                                    
                                                                                                    
                                                                                                    
                                                                                                    
                                                                                                    
                                                                                                    
                                 
<?xpacket end="w"?></metadata>
<path d="M18,20.38c-2.07,0-4,.81-5.45,2.29-.24,.25-.24,.64,0,.88s.64,.24,.88,0c1.21-1.23,2.83-1.91,4.55-1.91s3.34,.68,4.55,1.91c.12,.12,.28,.19,.45,.19s.32-.06,.44-.18c.25-.24,.25-.64,0-.88-1.45-1.48-3.38-2.29-5.45-2.29Z"/><path d="M18,13.38c-3.96,0-7.67,1.56-10.45,4.39-.24,.25-.24,.64,0,.88s.64,.24,.88,0c2.54-2.59,5.93-4.01,9.55-4.01s7.02,1.43,9.55,4.01c.12,.12,.28,.19,.45,.19s.32-.06,.44-.18c.25-.24,.25-.64,0-.88-2.77-2.83-6.48-4.39-10.45-4.39Z"/><path d="M32.44,13.27c-3.88-3.8-9.01-5.9-14.44-5.9S7.32,9.52,3.42,13.41c-.24,.24-.24,.64,0,.88,.12,.12,.28,.18,.44,.18s.32-.06,.44-.18c3.66-3.65,8.52-5.67,13.69-5.67s9.92,1.97,13.56,5.54c.25,.24,.64,.24,.88,0,.24-.25,.24-.64,0-.88Z"/><circle cx="18" cy="28" r="1.63"/></svg>