<svg id="bd79ba0f-d6e1-45f4-86be-f3b34d5fdfeb" data-name="Icon" xmlns="http://www.w3.org/2000/svg" viewBox="0 0 36 36"><title>Wind power icon - Black</title>
<desc>air, energy, power, wind turbine, propeller, science and nature</desc>
<metadata><?xpacket begin="﻿" id="W5M0MpCehiHzreSzNTczkc9d"?>
<x:xmpmeta xmlns:x="adobe:ns:meta/" x:xmptk="Adobe XMP Core 8.0-c001 1.000000, 0000/00/00-00:00:00        ">
   <rdf:RDF xmlns:rdf="http://www.w3.org/1999/02/22-rdf-syntax-ns#">
      <rdf:Description rdf:about=""
            xmlns:xmp="http://ns.adobe.com/xap/1.0/"
            xmlns:dc="http://purl.org/dc/elements/1.1/"
            xmlns:cq="http://www.day.com/jcr/cq/1.0"
            xmlns:tiff="http://ns.adobe.com/tiff/1.0/">
         <xmp:rhcc-effective-on>2023-12-08T17:41:41.124Z</xmp:rhcc-effective-on>
         <xmp:rhcc-metadata-complete-moderator>pending</xmp:rhcc-metadata-complete-moderator>
         <xmp:rhcc-translation-id>TRA32d1ab5b-c7f2-4b20-8c3a-1b872cc953ca</xmp:rhcc-translation-id>
         <xmp:brand-content-type>Icon</xmp:brand-content-type>
         <xmp:CreateDate>2023-12-08T17:41:41.124Z</xmp:CreateDate>
         <xmp:rhcc-effective-on-set-on-upload>true</xmp:rhcc-effective-on-set-on-upload>
         <xmp:rhcc-metadata-complete-uploader>pending</xmp:rhcc-metadata-complete-uploader>
         <xmp:rhcc-file-last-modified>2023-12-08T17:42:22.295Z</xmp:rhcc-file-last-modified>
         <xmp:rhcc-audience>rhcc-audience:internal</xmp:rhcc-audience>
         <xmp:rhcc-rights-restricted>no</xmp:rhcc-rights-restricted>
         <xmp:brand-content-subtype>Icon</xmp:brand-content-subtype>
         <xmp:rhcc-derivative-id>DER32d1ab5b-c7f2-4b20-8c3a-1b872cc953ca</xmp:rhcc-derivative-id>
         <xmp:brand-logo-color>Black</xmp:brand-logo-color>
         <xmp:rhcc-notify-portal-subscribers-on-change>yes</xmp:rhcc-notify-portal-subscribers-on-change>
         <dc:format>image/svg+xml</dc:format>
         <dc:modified>2024-02-09T20:27:23.569Z</dc:modified>
         <dc:title>
            <rdf:Alt>
               <rdf:li xml:lang="x-default">Wind power icon - Black</rdf:li>
            </rdf:Alt>
         </dc:title>
         <dc:description>
            <rdf:Alt>
               <rdf:li xml:lang="x-default">air, energy, power, wind turbine, propeller, science and nature</rdf:li>
            </rdf:Alt>
         </dc:description>
         <cq:lastReplicationAction_scene7>Activate</cq:lastReplicationAction_scene7>
         <cq:lastReplicationAction_publish>Activate</cq:lastReplicationAction_publish>
         <cq:lastReplicated_publish>2024-02-09T22:13:49.997Z</cq:lastReplicated_publish>
         <cq:lastReplicatedBy>workflow-process-service</cq:lastReplicatedBy>
         <cq:lastReplicationAction>Activate</cq:lastReplicationAction>
         <cq:lastReplicatedBy_publish>workflow-process-service</cq:lastReplicatedBy_publish>
         <cq:isDelivered>true</cq:isDelivered>
         <cq:lastReplicated>2024-02-09T22:13:49.997Z</cq:lastReplicated>
         <cq:lastReplicatedBy_scene7>workflow-process-service</cq:lastReplicatedBy_scene7>
         <cq:lastReplicated_scene7>2024-02-09T22:13:49.997Z</cq:lastReplicated_scene7>
         <tiff:ImageLength>36</tiff:ImageLength>
         <tiff:ImageWidth>36</tiff:ImageWidth>
      </rdf:Description>
   </rdf:RDF>
</x:xmpmeta>
                                                                                                    
                                                                                                    
                                                                                                    
                                                                                                    
                                                                                                    
                                                                                                    
                                                                                                    
                                                                                                    
                                                                                                    
                                                                                                    
                                 
<?xpacket end="w"?></metadata>
<path d="M29.25,22.23a.62.62,0,0,0-.82.32,11.31,11.31,0,0,1-5.69,5.79.63.63,0,0,0,.26,1.2.58.58,0,0,0,.26-.06,12.6,12.6,0,0,0,6.31-6.43A.62.62,0,0,0,29.25,22.23Z"/><path d="M17.05,6.66c.31,0,.63,0,.95,0a11.32,11.32,0,0,1,7.52,2.85.66.66,0,0,0,.42.15.64.64,0,0,0,.47-.21.63.63,0,0,0-.06-.88A12.63,12.63,0,0,0,18,5.38c-.35,0-.71,0-1.05,0a.62.62,0,0,0,.1,1.24Z"/><path d="M8.15,23.69A11.34,11.34,0,0,1,6.62,18a12,12,0,0,1,.16-1.9.62.62,0,0,0-.51-.72.64.64,0,0,0-.72.52A12.23,12.23,0,0,0,5.38,18a12.65,12.65,0,0,0,1.68,6.31,10.7,10.7,0,0,0,.69,1.06.6.6,0,0,0,.5.25.62.62,0,0,0,.37-.11.64.64,0,0,0,.14-.88C8.54,24.33,8.34,24,8.15,23.69Z"/><path d="M23.35,26A9.55,9.55,0,0,0,26,23.35a.62.62,0,0,0-.17-.87.64.64,0,0,0-.87.17A8.2,8.2,0,0,1,22.65,25a.64.64,0,0,0-.17.87.63.63,0,0,0,.52.28A.58.58,0,0,0,23.35,26Z"/><path d="M19.07,8.43a.63.63,0,0,0-.14,1.25,8.05,8.05,0,0,1,2.91.88,6.63,6.63,0,0,1,.81.48.64.64,0,0,0,.35.1A.62.62,0,0,0,23.35,10a8,8,0,0,0-.94-.55A9.33,9.33,0,0,0,19.07,8.43Z"/><path d="M10.38,21.48c-.1-.23-.2-.45-.28-.69A8.48,8.48,0,0,1,9.62,18a7.14,7.14,0,0,1,.06-.93.63.63,0,0,0-.56-.69.61.61,0,0,0-.69.55c0,.35,0,.71,0,1.07a9.7,9.7,0,0,0,.54,3.21c.1.27.2.53.32.79a.62.62,0,0,0,.57.36.58.58,0,0,0,.26-.05A.64.64,0,0,0,10.38,21.48Z"/><path d="M32.62,18v0s0,0,0-.05a.61.61,0,0,0-.61-.55H20.54a2.61,2.61,0,0,0-2.33-2A9.11,9.11,0,0,0,18.37,14a8.53,8.53,0,0,0-7.25-8.64.49.49,0,0,0-.17,0h0l-.11,0-.11,0a.62.62,0,0,0-.23.85l5.69,9.82a2.63,2.63,0,0,0-.55,2.91,7.94,7.94,0,0,0-1.31.56,8.53,8.53,0,0,0-3.9,10.48.61.61,0,0,0,.3.45.55.55,0,0,0,.31.08.61.61,0,0,0,.38-.15.63.63,0,0,0,.12-.11l0-.05,5.72-9.8.12,0V32a.62.62,0,0,0,1.24,0V20.54a2.64,2.64,0,0,0,1.57-1.09,8.27,8.27,0,0,0,1.19.93,8.56,8.56,0,0,0,11.11-2,.54.54,0,0,0,.12-.36A.13.13,0,0,0,32.62,18ZM16.14,10.18a7.2,7.2,0,0,1,1,3.81A8.34,8.34,0,0,1,17,15.11L12.28,7A7.17,7.17,0,0,1,16.14,10.18ZM12.07,23.46a7.3,7.3,0,0,1,2.82-2.75A7.41,7.41,0,0,1,16,20.23l-4.75,8.16A7.22,7.22,0,0,1,12.07,23.46ZM18,19.38A1.38,1.38,0,1,1,19.38,18,1.38,1.38,0,0,1,18,19.38Zm4-.07a6.22,6.22,0,0,1-.93-.69h9.45a7.24,7.24,0,0,1-8.52.69Z"/></svg>