<svg id="a92083db-49b6-4171-9cc8-23ced4b2b1e7" data-name="Icon" xmlns="http://www.w3.org/2000/svg" viewBox="0 0 36 36">
  <title>Wrench icon - Black</title>
<desc>repair, fix, tools, work, construction, options, edit, settings, toolbox, bolts, screw, objects</desc>
<metadata><?xpacket begin="﻿" id="W5M0MpCehiHzreSzNTczkc9d"?>
<x:xmpmeta xmlns:x="adobe:ns:meta/" x:xmptk="Adobe XMP Core 8.0-c001 1.000000, 0000/00/00-00:00:00        ">
   <rdf:RDF xmlns:rdf="http://www.w3.org/1999/02/22-rdf-syntax-ns#">
      <rdf:Description rdf:about=""
            xmlns:xmp="http://ns.adobe.com/xap/1.0/"
            xmlns:dc="http://purl.org/dc/elements/1.1/"
            xmlns:cq="http://www.day.com/jcr/cq/1.0"
            xmlns:tiff="http://ns.adobe.com/tiff/1.0/">
         <xmp:rhcc-effective-on>2023-12-08T17:36:42.036Z</xmp:rhcc-effective-on>
         <xmp:rhcc-metadata-complete-moderator>pending</xmp:rhcc-metadata-complete-moderator>
         <xmp:rhcc-translation-id>TRA33dcff79-f0cc-4428-b5e5-82477d866ed8</xmp:rhcc-translation-id>
         <xmp:brand-content-type>Icon</xmp:brand-content-type>
         <xmp:CreateDate>2023-12-08T17:36:42.036Z</xmp:CreateDate>
         <xmp:rhcc-effective-on-set-on-upload>true</xmp:rhcc-effective-on-set-on-upload>
         <xmp:rhcc-metadata-complete-uploader>pending</xmp:rhcc-metadata-complete-uploader>
         <xmp:rhcc-file-last-modified>2023-12-08T17:38:13.790Z</xmp:rhcc-file-last-modified>
         <xmp:rhcc-audience>rhcc-audience:internal</xmp:rhcc-audience>
         <xmp:rhcc-rights-restricted>no</xmp:rhcc-rights-restricted>
         <xmp:brand-content-subtype>Icon</xmp:brand-content-subtype>
         <xmp:rhcc-derivative-id>DER33dcff79-f0cc-4428-b5e5-82477d866ed8</xmp:rhcc-derivative-id>
         <xmp:brand-logo-color>Black</xmp:brand-logo-color>
         <xmp:rhcc-notify-portal-subscribers-on-change>yes</xmp:rhcc-notify-portal-subscribers-on-change>
         <dc:format>image/svg+xml</dc:format>
         <dc:modified>2024-02-09T20:33:39.252Z</dc:modified>
         <dc:title>
            <rdf:Alt>
               <rdf:li xml:lang="x-default">Wrench icon - Black</rdf:li>
            </rdf:Alt>
         </dc:title>
         <dc:description>
            <rdf:Alt>
               <rdf:li xml:lang="x-default">repair, fix, tools, work, construction, options, edit, settings, toolbox, bolts, screw, objects</rdf:li>
            </rdf:Alt>
         </dc:description>
         <cq:lastReplicationAction_scene7>Activate</cq:lastReplicationAction_scene7>
         <cq:lastReplicationAction_publish>Activate</cq:lastReplicationAction_publish>
         <cq:lastReplicated_publish>2024-02-09T22:21:13.704Z</cq:lastReplicated_publish>
         <cq:lastReplicatedBy>workflow-process-service</cq:lastReplicatedBy>
         <cq:lastReplicationAction>Activate</cq:lastReplicationAction>
         <cq:lastReplicatedBy_publish>workflow-process-service</cq:lastReplicatedBy_publish>
         <cq:isDelivered>true</cq:isDelivered>
         <cq:lastReplicated>2024-02-09T22:21:13.704Z</cq:lastReplicated>
         <cq:lastReplicatedBy_scene7>workflow-process-service</cq:lastReplicatedBy_scene7>
         <cq:lastReplicated_scene7>2024-02-09T22:21:13.704Z</cq:lastReplicated_scene7>
         <tiff:ImageLength>36</tiff:ImageLength>
         <tiff:ImageWidth>36</tiff:ImageWidth>
      </rdf:Description>
   </rdf:RDF>
</x:xmpmeta>
                                                                                                    
                                                                                                    
                                                                                                    
                                                                                                    
                                                                                                    
                                                                                                    
                                                                                                    
                                                                                                    
                                                                                                    
                                                                                                    
                                 
<?xpacket end="w"?></metadata>
<g>
    <path d="M19.44,13.56c-.56-.58-1.46.32-.88.88l3,3a.62.62,0,0,0,.88-.88Z"/>
    <path d="M31.61,10.05a.69.69,0,0,0-.17-.49l-2-2a.61.61,0,0,0-.88,0L23,13.12,18.14,8.25,21.92,5.8l1.7,1.7L21.56,9.56a.62.62,0,0,0,.88.88l2.5-2.5a.61.61,0,0,0,0-.88l-2.5-2.5a.66.66,0,0,0-.73-.11c-.05,0-4.85,3.16-4.9,3.17a.66.66,0,0,0-.18.87s.69.72.75.77a6.61,6.61,0,0,0-1.58,7.06L5.06,27.06a2.74,2.74,0,0,0,3.88,3.88L19.68,20.2a6.29,6.29,0,0,0,5.89-.69l5.95-9.17A.75.75,0,0,0,31.61,10.05ZM19.79,18.9a.67.67,0,0,0-.7.13l-11,11a1.5,1.5,0,0,1-2.12-2.12l11-11a.65.65,0,0,0,.17-.34.74.74,0,0,0,0-.36,5.39,5.39,0,0,1,1.16-6.07l4.3,4.3a.61.61,0,0,0,.88,0L29,8.88l1.2,1.2-5.59,8.61A5.42,5.42,0,0,1,19.79,18.9Z"/>
    <path d="M7,28.38a.63.63,0,1,0,.62.63A.63.63,0,0,0,7,28.38Z"/>
  </g>
</svg>
