<?xml version="1.0" encoding="UTF-8"?><svg id="uuid-b5c2cf9e-45c5-43a1-8ece-c31b761ec3f1" xmlns="http://www.w3.org/2000/svg" width="36" height="36" viewBox="0 0 36 36"><title>Lower cost yen icon - Black</title>
<desc>reduce, less, loss, bank, finance, money, financial, Japan, Japanese, amount, drop, down, diagrams and graphs</desc>
<metadata><?xpacket begin="﻿" id="W5M0MpCehiHzreSzNTczkc9d"?>
<x:xmpmeta xmlns:x="adobe:ns:meta/" x:xmptk="Adobe XMP Core 8.0-c001 1.000000, 0000/00/00-00:00:00        ">
   <rdf:RDF xmlns:rdf="http://www.w3.org/1999/02/22-rdf-syntax-ns#">
      <rdf:Description rdf:about=""
            xmlns:xmp="http://ns.adobe.com/xap/1.0/"
            xmlns:dc="http://purl.org/dc/elements/1.1/"
            xmlns:cq="http://www.day.com/jcr/cq/1.0"
            xmlns:tiff="http://ns.adobe.com/tiff/1.0/">
         <xmp:rhcc-effective-on>2023-12-08T17:35:04.581Z</xmp:rhcc-effective-on>
         <xmp:rhcc-metadata-complete-moderator>pending</xmp:rhcc-metadata-complete-moderator>
         <xmp:rhcc-translation-id>TRA4182b780-4ad0-46fc-8a9c-cc244b6acee7</xmp:rhcc-translation-id>
         <xmp:brand-content-type>Icon</xmp:brand-content-type>
         <xmp:CreateDate>2023-12-08T17:35:04.581Z</xmp:CreateDate>
         <xmp:rhcc-effective-on-set-on-upload>true</xmp:rhcc-effective-on-set-on-upload>
         <xmp:rhcc-metadata-complete-uploader>pending</xmp:rhcc-metadata-complete-uploader>
         <xmp:rhcc-file-last-modified>2023-12-08T17:35:20.305Z</xmp:rhcc-file-last-modified>
         <xmp:rhcc-audience>rhcc-audience:internal</xmp:rhcc-audience>
         <xmp:rhcc-rights-restricted>no</xmp:rhcc-rights-restricted>
         <xmp:brand-content-subtype>Icon</xmp:brand-content-subtype>
         <xmp:rhcc-derivative-id>DER4182b780-4ad0-46fc-8a9c-cc244b6acee7</xmp:rhcc-derivative-id>
         <xmp:brand-logo-color>Black</xmp:brand-logo-color>
         <xmp:rhcc-notify-portal-subscribers-on-change>yes</xmp:rhcc-notify-portal-subscribers-on-change>
         <dc:format>image/svg+xml</dc:format>
         <dc:modified>2024-02-09T20:35:23.811Z</dc:modified>
         <dc:title>
            <rdf:Alt>
               <rdf:li xml:lang="x-default">Lower cost yen icon - Black</rdf:li>
            </rdf:Alt>
         </dc:title>
         <dc:description>
            <rdf:Alt>
               <rdf:li xml:lang="x-default">reduce, less, loss, bank, finance, money, financial, Japan, Japanese, amount, drop, down, diagrams and graphs</rdf:li>
            </rdf:Alt>
         </dc:description>
         <cq:lastReplicationAction_scene7>Activate</cq:lastReplicationAction_scene7>
         <cq:lastReplicationAction_publish>Activate</cq:lastReplicationAction_publish>
         <cq:lastReplicated_publish>2024-02-09T22:22:58.209Z</cq:lastReplicated_publish>
         <cq:lastReplicatedBy>workflow-process-service</cq:lastReplicatedBy>
         <cq:lastReplicationAction>Activate</cq:lastReplicationAction>
         <cq:lastReplicatedBy_publish>workflow-process-service</cq:lastReplicatedBy_publish>
         <cq:isDelivered>true</cq:isDelivered>
         <cq:lastReplicated>2024-02-09T22:22:58.209Z</cq:lastReplicated>
         <cq:lastReplicatedBy_scene7>workflow-process-service</cq:lastReplicatedBy_scene7>
         <cq:lastReplicated_scene7>2024-02-09T22:22:58.209Z</cq:lastReplicated_scene7>
         <tiff:ImageLength>36</tiff:ImageLength>
         <tiff:ImageWidth>36</tiff:ImageWidth>
      </rdf:Description>
   </rdf:RDF>
</x:xmpmeta>
                                                                                                    
                                                                                                    
                                                                                                    
                                                                                                    
                                                                                                    
                                                                                                    
                                                                                                    
                                                                                                    
                                                                                                    
                                                                                                    
                                 
<?xpacket end="w"?></metadata>
<path d="m27.44189,5.55762c-.24414-.24414-.63965-.24414-.88379,0l-8.55811,8.55859L9.44189,5.55762c-.24414-.24414-.63965-.24414-.88379,0s-.24414.64062,0,.88477l7.93262,7.93262h-4.49072c-.34521,0-.625.28027-.625.625s.27979.625.625.625h5.375v2.75h-5.375c-.34521,0-.625.28027-.625.625s.27979.625.625.625h5.375v9.86603l-.93311-.93341c-.24414-.24414-.63965-.24414-.88379,0s-.24414.64062,0,.88477l2,2c.01483.01483.03436.02032.05023.03333.04712.03882.09485.07703.15204.10083.0766.03168.15784.04846.23962.04846s.16302-.01678.23962-.04846c.05719-.0238.10492-.06201.15204-.10083.01587-.013.0354-.01849.05023-.03333l2-2c.24414-.24414.24414-.64062,0-.88477s-.63965-.24414-.88379,0l-.93311.93341v-9.86603h5.375c.34521,0,.625-.28027.625-.625s-.27979-.625-.625-.625h-5.375v-2.75h5.375c.34521,0,.625-.28027.625-.625s-.27979-.625-.625-.625h-4.49072l7.93262-7.93262c.24414-.24414.24414-.64062,0-.88477Z" stroke-width="0"/></svg>