<svg id="a787f4a4-e36a-408e-9c29-8df4fbfb84d3" data-name="Icon" xmlns="http://www.w3.org/2000/svg" viewBox="0 0 36 36">
  <g>
    <path d="M25.62,18C35.48,6.74,33.08-1.92,18,10.39,2.9-1.94.54,6.76,10.38,18-.24,30.39,4,37.24,18,25.61,32,37.27,36.22,30.35,25.62,18ZM29.09,5.64c4,.29-2.36,9.22-4.3,11.4A59.41,59.41,0,0,0,19,11.21C23.5,7.44,27.26,5.64,29.09,5.64ZM24,18a60.18,60.18,0,0,1-6,6,60.18,60.18,0,0,1-6-6,60.18,60.18,0,0,1,6-6A60.18,60.18,0,0,1,24,18ZM7.21,11.36C2,1.62,11,6.14,17,11.21A59.41,59.41,0,0,0,11.21,17,39.13,39.13,0,0,1,7.21,11.36ZM5.94,30.06C4.43,28,9,21.53,11.21,19A60.63,60.63,0,0,0,17,24.8C11.41,29.46,7,31.11,5.94,30.06Zm24.12,0c-1,1.05-5.47-.59-11.1-5.26A60.63,60.63,0,0,0,24.79,19C27,21.51,31.58,28,30.06,30.06Z"/>
    <path d="M18,15.38a2.62,2.62,0,0,0,0,5.24A2.62,2.62,0,0,0,18,15.38Zm0,4a1.38,1.38,0,0,1,0-2.75A1.38,1.38,0,0,1,18,19.38Z"/>
  </g>
</svg>
