<svg id="b44b0846-4586-4f1c-b7c9-8f0fb8eb18dc" data-name="Icon" xmlns="http://www.w3.org/2000/svg" viewBox="0 0 36 36">
  <g>
    <circle cx="13" cy="15" r="0.62"/>
    <path d="M27,8.38a.62.62,0,0,0-.62.62V20.71a5.74,5.74,0,0,1-7.94-.15,7,7,0,0,0-8.82-.88V12a.59.59,0,0,0-.18-.44l-3-3C5.88,8,5,8.88,5.56,9.44l2.82,2.82V28A3.62,3.62,0,0,0,12,31.62H24A3.62,3.62,0,0,0,27.62,28V9A.62.62,0,0,0,27,8.38Zm-3,22H12A2.39,2.39,0,0,1,9.62,28V21.29a5.74,5.74,0,0,1,7.94.15,7,7,0,0,0,8.82.88V28A2.39,2.39,0,0,1,24,30.38Z"/>
    <path d="M21,16.62a3.62,3.62,0,0,0,0-7.24A3.62,3.62,0,0,0,21,16.62Zm0-6a2.38,2.38,0,0,1,0,4.75A2.38,2.38,0,0,1,21,10.62Z"/>
    <path d="M13,9.62a2.62,2.62,0,0,0,0-5.24A2.62,2.62,0,0,0,13,9.62Zm0-4a1.38,1.38,0,0,1,0,2.75A1.38,1.38,0,0,1,13,5.62Z"/>
    <circle cx="21" cy="5" r="0.62"/>
  </g>
</svg>
