<svg xmlns="http://www.w3.org/2000/svg" viewBox="0 0 36 36">
  <path d="M26.36 25.5c7.08-1.25 8.57-11 2.13-14.28C29.84 4.78 21 1.67 18 7.43 15 1.67 6.17 4.76 7.52 11.21A7.64 7.64 0 0 0 9.64 25.5c-1.77 5.3 5.59 8.57 8.36 3.78 2.78 4.79 10.12 1.53 8.36-3.78ZM22 30.38A3.39 3.39 0 0 1 18.62 27 4.62 4.62 0 0 0 14 22.38a.62.62 0 1 0 0 1.24 3.43 3.43 0 1 1-2.9 1.68.61.61 0 0 0 0-.61.63.63 0 0 0-.51-.34 6.24 6.24 0 0 1-4.07-1.85 4.13 4.13 0 0 0 5.1-4 .62.62 0 1 0-1.24 0 2.89 2.89 0 1 1-5.75-.5 6.42 6.42 0 0 1 9.1-5.76.63.63 0 0 0 .54-1.13 7.62 7.62 0 0 0-5.57-.38c-.81-6.22 8.4-7 8.67-.73v9a.62.62 0 0 0 1.24 0v-9A4.38 4.38 0 1 1 23 14.37a.63.63 0 0 0 0 1.25 5.45 5.45 0 0 0 1.41-.18A2.61 2.61 0 0 0 27 18.37a.63.63 0 0 0 0-1.25 1.38 1.38 0 0 1-1.38-1.37 1.45 1.45 0 0 1 .62-1.16 5.71 5.71 0 0 0 1.83-2.16 6.37 6.37 0 0 1-2.32 11.89A4.61 4.61 0 0 0 22 22.38a.62.62 0 0 0 0 1.24 3.38 3.38 0 0 1 0 6.76Z"/>
</svg>
