<svg id="e5e3a6c9-498f-4044-9aeb-0544f9c59e1a" data-name="Icon" xmlns="http://www.w3.org/2000/svg" viewBox="0 0 36 36">
  <g>
    <path d="M27.39,27.3,21.62,13V7.62c.72-.07,2,.3,2-.62A.62.62,0,0,0,23,6.38H21a.62.62,0,0,0-.62.7v6a.5.5,0,0,0,0,.12s0,.08,0,.12l2.83,7H12.75l2.83-7s0-.08,0-.12a.5.5,0,0,0,0-.12v-6a.62.62,0,0,0-.62-.7H13a.62.62,0,0,0,0,1.24h1.38V13L8.61,27.3a3.14,3.14,0,0,0,2.89,4.32h13A3.14,3.14,0,0,0,27.39,27.3ZM24.5,30.38h-13A1.89,1.89,0,0,1,9.62,28.5c-.23-.16,2.54-6.53,2.62-6.88H23.76l2.47,6.15A1.89,1.89,0,0,1,24.5,30.38Z"/>
    <path d="M16.56,18.44a.62.62,0,0,0,.88-.88C16.86,17,16,17.87,16.56,18.44Z"/>
    <path d="M18.56,12.44c.57.58,1.47-.31.88-.88S18,11.87,18.56,12.44Z"/>
    <path d="M16.56,5.44c.55.59,1.48-.32.88-.88A.62.62,0,0,0,16.56,5.44Z"/>
  </g>
</svg>
