<svg id="b6a35377-3f4e-4d53-98aa-77c5e2a609f0" data-name="Layer 1" xmlns="http://www.w3.org/2000/svg" viewBox="0 0 36 36">
  <g>
    <path d="M22.5,11.625A2.125,2.125,0,1,1,24.625,9.5,2.127,2.127,0,0,1,22.5,11.625Zm0-3a.875.875,0,1,0,.875.875A.877.877,0,0,0,22.5,8.625Z"/>
    <path d="M30.622,5.913a1.62,1.62,0,0,0-1.771.352L27.625,7.491V6A1.627,1.627,0,0,0,26,4.375H23A12.639,12.639,0,0,0,10.375,17v4.375H5A.626.626,0,0,0,4.375,22,9.635,9.635,0,0,0,14,31.625.625.625,0,0,0,14.625,31V25.625H19A12.639,12.639,0,0,0,31.625,13V7.414A1.62,1.62,0,0,0,30.622,5.913ZM5.648,22.625h4.79a3.621,3.621,0,0,0,2.937,2.937v4.79A8.388,8.388,0,0,1,5.648,22.625ZM30.375,13A11.387,11.387,0,0,1,19,24.375H14A2.377,2.377,0,0,1,11.625,22V17A11.388,11.388,0,0,1,23,5.625h3A.375.375,0,0,1,26.375,6V9a.626.626,0,0,0,1.067.443L29.735,7.15a.374.374,0,0,1,.64.264Z"/>
    <path d="M20.414,19.211a2.625,2.625,0,0,1-1.856-4.482.625.625,0,0,1,.884.885,1.374,1.374,0,0,0,0,1.944,1.408,1.408,0,0,0,1.944,0,.625.625,0,0,1,.885.883A2.61,2.61,0,0,1,20.414,19.211Z"/>
  </g>
</svg>
