<svg id="b7a6fdc8-1169-4241-950b-28db97ac91e1" data-name="Icon" xmlns="http://www.w3.org/2000/svg" viewBox="0 0 36 36">
  <g>
    <path d="M24,12.38H12A5.62,5.62,0,0,0,6.38,18,5.69,5.69,0,0,0,12,23.62,5.63,5.63,0,0,0,17.53,19a.47.47,0,0,1,.94,0A5.63,5.63,0,0,0,24,23.62,5.69,5.69,0,0,0,29.62,18,5.62,5.62,0,0,0,24,12.38Zm0,10a4.37,4.37,0,0,1-4.3-3.57,1.73,1.73,0,0,0-3.4,0A4.37,4.37,0,0,1,12,22.38,4.44,4.44,0,0,1,7.62,18,4.39,4.39,0,0,1,12,13.62H24A4.39,4.39,0,0,1,28.38,18,4.44,4.44,0,0,1,24,22.38Z"/>
    <path d="M31,15.38a.62.62,0,0,0-.62.62v4a.62.62,0,0,0,1.24,0V16A.62.62,0,0,0,31,15.38Z"/>
    <path d="M5,15.38a.62.62,0,0,0-.62.62v4a.62.62,0,0,0,1.24,0V16A.62.62,0,0,0,5,15.38Z"/>
    <path d="M12,14.38A3.62,3.62,0,0,0,8.38,18a.62.62,0,1,0,1.24,0A2.39,2.39,0,0,1,12,15.62a.62.62,0,0,0,0-1.24Z"/>
  </g>
</svg>
