<?xml version="1.0" encoding="UTF-8"?>
<svg id="uuid-aa9716d5-eafb-4368-b646-6b374401e532" data-name="Icon" xmlns="http://www.w3.org/2000/svg" viewBox="0 0 36 36">
  <path d="M5.32,24.99c.24-.14,.47-.31,.68-.49,1.67,1.44,4.33,1.44,6,0,1.67,1.44,4.33,1.44,6,0,1.67,1.44,4.33,1.44,6,0,1.66,1.49,4.34,1.49,6,0,.21,.18,.44,.35,.68,.49,.3,.17,.68,.08,.86-.22,.18-.3,.08-.68-.22-.86-.32-.19-.6-.42-.85-.71-.24-.27-.7-.27-.94,0-1.29,1.54-3.77,1.54-5.06,0-.24-.27-.7-.27-.94,0-1.29,1.54-3.77,1.54-5.06,0-.24-.27-.7-.27-.94,0-1.29,1.54-3.77,1.54-5.06,0-.24-.27-.7-.27-.94,0-1.29,1.54-3.77,1.54-5.06,0-.24-.28-.7-.28-.94,0-.25,.28-.53,.52-.85,.71-.3,.18-.4,.56-.22,.86,.18,.3,.56,.39,.86,.22Z"/>
  <path d="M31.32,28.92c-.32-.19-.6-.42-.85-.71-.24-.27-.7-.27-.94,0-1.29,1.54-3.77,1.54-5.06,0-.24-.27-.7-.27-.94,0-1.29,1.54-3.77,1.54-5.06,0-.24-.27-.7-.27-.94,0-1.29,1.54-3.77,1.54-5.06,0-.24-.27-.7-.27-.94,0-1.29,1.54-3.77,1.54-5.06,0-.24-.28-.7-.28-.94,0-.25,.28-.53,.52-.85,.71-.3,.18-.4,.56-.22,.86,.18,.3,.56,.39,.86,.22,.24-.14,.47-.31,.68-.49,1.67,1.44,4.33,1.44,6,0,1.67,1.44,4.33,1.44,6,0,1.67,1.44,4.33,1.44,6,0,1.66,1.49,4.34,1.49,6,0,.21,.18,.44,.35,.68,.49,.3,.17,.68,.08,.86-.22,.18-.3,.08-.68-.22-.86Z"/>
  <path d="M8.29,6.53c4.85,2.93,5.46,10.29,1.21,14.01-.25,.23-.27,.63-.04,.88,.23,.25,.63,.27,.88,.04,1.43-1.31,2.42-3,2.92-4.84h2.74c.82,0,.82-1.25,0-1.25h-2.48c.08-.58,.14-1.17,.09-1.75h1.39c.82,0,.82-1.25,0-1.25h-1.52c-.36-2.21-1.41-4.22-3.04-5.75h1.56c7.93,0,14.38,6.45,14.38,14.38,0,.81,1.25,.82,1.25,0,0-8.62-7.01-15.62-15.62-15.62h-3.37c-.28,0-.52,.18-.6,.45-.08,.27,.03,.55,.26,.7Z"/>
</svg>