<svg id="aacfe83a-f248-473e-a107-1ae594047d85" data-name="Icon" xmlns="http://www.w3.org/2000/svg" viewBox="0 0 36 36"><path d="M28.88,18l2.56-2.56a.62.62,0,0,0-.88-.88l-2.82,2.82h-7.2a2.49,2.49,0,0,0-.3-.73l4-4H28a.62.62,0,1,0,0-1.24H25.51l2.93-2.94a.62.62,0,0,0-.88-.88l-2.94,2.93V8a.62.62,0,0,0-1.24,0v3.74l-4,4a2.49,2.49,0,0,0-.73-.3V8.26l2.82-2.82a.62.62,0,0,0-.88-.88L18,7.12,15.44,4.56a.62.62,0,0,0-.88.88l2.82,2.82v7.2a2.49,2.49,0,0,0-.73.3l-4-4V8a.62.62,0,1,0-1.24,0v2.49L8.44,7.56a.62.62,0,0,0-.88.88l2.93,2.94H8a.62.62,0,0,0,0,1.24h3.74l4,4a2.49,2.49,0,0,0-.3.73H8.26L5.44,14.56a.62.62,0,0,0-.88.88L7.12,18,4.56,20.56a.61.61,0,0,0,0,.88.63.63,0,0,0,.88,0l2.82-2.82h7.2a2.49,2.49,0,0,0,.3.73l-4,4H8a.62.62,0,1,0,0,1.24h2.49L7.56,27.56a.61.61,0,0,0,0,.88.63.63,0,0,0,.88,0l2.94-2.93V28a.62.62,0,0,0,1.24,0V24.26l4-4a2.49,2.49,0,0,0,.73.3v7.2l-2.82,2.82a.62.62,0,0,0,.88.88L18,28.88l2.56,2.56a.63.63,0,0,0,.88,0,.61.61,0,0,0,0-.88l-2.82-2.82v-7.2a2.49,2.49,0,0,0,.73-.3l4,4V28a.62.62,0,0,0,1.24,0V25.51l2.94,2.93a.63.63,0,0,0,.88,0,.61.61,0,0,0,0-.88l-2.93-2.94H28a.62.62,0,0,0,0-1.24H24.26l-4-4a2.49,2.49,0,0,0,.3-.73h7.2l2.82,2.82a.63.63,0,0,0,.88,0,.61.61,0,0,0,0-.88ZM16.62,18A1.38,1.38,0,1,1,18,19.38,1.38,1.38,0,0,1,16.62,18Z"/></svg>