<svg id="e23f7ef7-e8d1-46c9-b442-2f63b03ecc32" data-name="Icon" xmlns="http://www.w3.org/2000/svg" viewBox="0 0 36 36"><path d="M25,8.38a3.64,3.64,0,0,0-3.42,2.41.63.63,0,1,0,1.18.42,2.38,2.38,0,0,1,4.62.79,2.35,2.35,0,0,1-.61,1.58.63.63,0,0,0,.05.89.66.66,0,0,0,.42.15.63.63,0,0,0,.46-.2,3.63,3.63,0,0,0-2.7-6Z"/><path d="M31,11.38H30a.62.62,0,0,0,0,1.24h1a.62.62,0,1,0,0-1.24Z"/><path d="M25,7.62A.62.62,0,0,0,25.62,7V6a.62.62,0,0,0-1.24,0V7A.62.62,0,0,0,25,7.62Z"/><path d="M29,15.09a.63.63,0,0,0-.89.89l.71.7a.6.6,0,0,0,.88,0,.61.61,0,0,0,0-.88Z"/><path d="M21,8.91a.62.62,0,0,0,.44.18.66.66,0,0,0,.45-.18.64.64,0,0,0,0-.89l-.71-.7a.62.62,0,1,0-.88.88Z"/><path d="M28.54,9.09A.62.62,0,0,0,29,8.91l.7-.71a.62.62,0,1,0-.88-.88l-.71.7a.64.64,0,0,0,0,.89A.66.66,0,0,0,28.54,9.09Z"/><path d="M25,12.38H5a.62.62,0,0,0-.62.62V25a.62.62,0,0,0,.62.62h9.38v3.76H8a.62.62,0,1,0,0,1.24H22a.62.62,0,0,0,0-1.24H15.62V25.62H25a.62.62,0,0,0,.62-.62V13A.62.62,0,0,0,25,12.38Zm-.62,12H5.62V13.62H24.38Z"/><path d="M7,20.38a.62.62,0,1,0,0,1.24H9.38V23a.62.62,0,1,0,1.24,0V21.62h3.76V23a.62.62,0,0,0,1.24,0V21.62h3.76V23a.62.62,0,0,0,1.24,0V21.62H23a.62.62,0,0,0,0-1.24H20.62V17.62H23a.62.62,0,0,0,0-1.24H20.62V15a.62.62,0,0,0-1.24,0v1.38H15.62V15a.62.62,0,0,0-1.24,0v1.38H10.62V15a.62.62,0,0,0-1.24,0v1.38H7a.62.62,0,1,0,0,1.24H9.38v2.76Zm12.38-2.76v2.76H15.62V17.62Zm-8.76,0h3.76v2.76H10.62Z"/></svg>