<svg id="f8948a81-1588-44d1-aeaf-e8f96bcc3376" data-name="Icon" xmlns="http://www.w3.org/2000/svg" viewBox="0 0 36 36">
  <g>
    <path d="M23.83,20.22a.62.62,0,0,0-.18-.44L19.91,16l1.35-1.36,1.65,1.66a.64.64,0,0,0,.89,0l6.71-6.72a.61.61,0,0,0,0-.88L26.33,4.56a.63.63,0,0,0-.88,0L23.21,6.8l-4.47,4.47a.62.62,0,0,0,0,.89l1.63,1.64L19,15.15l-3.73-3.73a.63.63,0,0,0-.88,0l-3,3a.63.63,0,0,0,0,.88L15.16,19c-.05,0-1.32,1.32-1.36,1.35l-1.64-1.64a.62.62,0,0,0-.89,0c-1.11,1.11-3.36,3.35-4.47,4.47L4.56,25.45a.62.62,0,0,0-.18.44.59.59,0,0,0,.18.44l4.18,4.18a.61.61,0,0,0,.88,0l6.72-6.71a.64.64,0,0,0,0-.89l-1.66-1.65C14.73,21.2,16,20,16,19.9l3.75,3.75a.63.63,0,0,0,.88,0l3-3A.59.59,0,0,0,23.83,20.22Zm-.18-12.1,3.3,3.3L25.6,12.77,22.3,9.48Zm2.24-2.24,3.3,3.3-1.36,1.35L24.54,7.24Zm-4.47,4.48,3.29,3.3L23.36,15l-3.3-3.29ZM11.42,27l-3.3-3.3L9.48,22.3l3.29,3.3ZM9.18,29.19l-3.3-3.3,1.36-1.35,3.29,3.29Zm4.48-4.48-3.3-3.29,1.36-1.36L15,23.36Zm6.56-2.39-7.47-7.47,2.1-2.1,7.47,7.47Z"/>
    <path d="M31.44,22.67c-6-5.63-14.4,2.8-8.77,8.77a.61.61,0,0,0,.88,0l3.5-3.5,1.53,1.53a.63.63,0,0,0,.89-.89l-1.53-1.53,3.5-3.5A.61.61,0,0,0,31.44,22.67Zm-4.83,3.94-3.48,3.48c-3.47-4.59,2.35-10.44,7-7Z"/>
  </g>
</svg>
