<svg id="b94872a2-9150-4684-bb13-b1d9b03d4787" data-name="Icon" xmlns="http://www.w3.org/2000/svg" viewBox="0 0 36 36">
  <g>
    <path d="M18,11.38A6.63,6.63,0,0,0,11.38,18c.31,8.77,12.94,8.77,13.25,0A6.64,6.64,0,0,0,18,11.38Zm0,12c-7.1-.23-7.1-10.53,0-10.76C25.1,12.85,25.1,23.15,18,23.38Z"/>
    <path d="M18,8.93a.62.62,0,0,0,.62-.62V4a.62.62,0,0,0-1.24,0V8.31A.62.62,0,0,0,18,8.93Z"/>
    <path d="M18,27.07a.62.62,0,0,0-.62.62V32a.62.62,0,0,0,1.24,0V27.69A.62.62,0,0,0,18,27.07Z"/>
    <path d="M32,17.38H27.69a.62.62,0,0,0,0,1.24H32A.62.62,0,0,0,32,17.38Z"/>
    <path d="M8.93,18a.62.62,0,0,0-.62-.62H4a.62.62,0,0,0,0,1.24H8.31A.62.62,0,0,0,8.93,18Z"/>
    <path d="M24.85,11.77a.66.66,0,0,0,.45-.18l3-3.05c.58-.56-.32-1.46-.88-.88l-3.05,3A.63.63,0,0,0,24.85,11.77Z"/>
    <path d="M10.7,24.41l-3,3.05a.62.62,0,0,0,.88.88l3.05-3A.63.63,0,0,0,10.7,24.41Z"/>
    <path d="M25.3,24.41a.63.63,0,0,0-.89.89l3.05,3a.62.62,0,0,0,.88-.88Z"/>
    <path d="M10.7,11.59a.63.63,0,0,0,.89-.89l-3.05-3C8,7.08,7.08,8,7.66,8.54Z"/>
  </g>
</svg>
