<svg id="a012c8fa-9081-43a3-9a0c-c8490da9d3ff" data-name="Icon" xmlns="http://www.w3.org/2000/svg" viewBox="0 0 36 36">
  <g>
    <path d="M22.52,17.86a2.3,2.3,0,0,1-.9-1.85V5.62H22a.62.62,0,0,0,0-1.24H21a.62.62,0,0,0-.62.62V16c-.13,2.13,1.82,2.89,2.85,4.37H12.77c1-1.5,3-2.2,2.85-4.38V5A.62.62,0,0,0,15,4.38H14a.62.62,0,0,0,0,1.24h.38V16a2.27,2.27,0,0,1-.87,1.84,7.62,7.62,0,0,0,4.62,13.78C25.32,31.48,28.37,22.13,22.52,17.86ZM18.11,30.37c-4.41.27-7.81-4.73-6-8.75H23.9A6.42,6.42,0,0,1,18.11,30.37Z"/>
    <path d="M17,4.62A.62.62,0,0,0,17.62,4a.62.62,0,0,0-1.24,0A.62.62,0,0,0,17,4.62Z"/>
    <path d="M19,11.63a.63.63,0,1,0-.63-.63A.63.63,0,0,0,19,11.63Z"/>
    <path d="M17,18.63a.63.63,0,1,0-.62-.62A.62.62,0,0,0,17,18.63Z"/>
  </g>
</svg>
