<svg id="f1a33508-a743-4525-b256-0d3b0e2ce983" data-name="Icon" xmlns="http://www.w3.org/2000/svg" viewBox="0 0 36 36">
  <path d="M31,20.47H27.05l-2.3-4.61a.63.63,0,0,0-1.18.18L21.76,26.91l-3.14-22a.63.63,0,0,0-1.24,0L14.15,25.39l-3-11.87a.59.59,0,0,0-.63-.48.61.61,0,0,0-.59.52L8.8,20.47H5a.63.63,0,0,0,0,1.25H9.33A.62.62,0,0,0,10,21.2l.74-4.47,3,11.94a.6.6,0,0,0,.63.48.63.63,0,0,0,.59-.53L18,9.2l3.12,21.89a.63.63,0,0,0,.62.53.61.61,0,0,0,.62-.52l2.16-13,1.62,3.24a.61.61,0,0,0,.56.34H31A.63.63,0,0,0,31,20.47Z"/>
</svg>
