<svg id="acec400c-f091-4944-bee5-3af1b3128017" data-name="Icon" xmlns="http://www.w3.org/2000/svg" viewBox="0 0 36 36"><path d="M25,21.38H12A3.62,3.62,0,1,0,15.62,25a.62.62,0,1,0-1.24,0A2.38,2.38,0,1,1,12,22.62H25a.62.62,0,0,0,0-1.24Z"/><path d="M31,21.38H27a.62.62,0,0,0,0,1.24h4a.62.62,0,0,0,0-1.24Z"/><path d="M29,14.62h2a.62.62,0,1,0,0-1.24H29a.62.62,0,0,0,0,1.24Z"/><path d="M18,14.62h9a.62.62,0,1,0,0-1.24H18A2.38,2.38,0,1,1,20.38,11a.62.62,0,0,0,1.24,0A3.62,3.62,0,1,0,18,14.62Z"/><path d="M24,17.38a.62.62,0,0,0,0,1.24h6a.62.62,0,0,0,0-1.24Z"/><path d="M22.62,18a.62.62,0,0,0-.62-.62H8A2.38,2.38,0,1,1,10.38,15a.62.62,0,0,0,1.24,0A3.62,3.62,0,1,0,8,18.62H22A.62.62,0,0,0,22.62,18Z"/></svg>