<svg id="fd7d1e8f-12f2-410b-a250-dcf6522ad0e8" data-name="Icon" xmlns="http://www.w3.org/2000/svg" viewBox="0 0 36 36">
  <path d="M24,31.63H12a.63.63,0,0,1-.62-.63V29a.63.63,0,0,1,.34-.56l2.66-1.33V24.76L5.12,26.61A.62.62,0,0,1,4.38,26V23a.6.6,0,0,1,.2-.46l9.8-8.82V8a3.63,3.63,0,0,1,7.25,0v5.72l9.79,8.82a.61.61,0,0,1,.21.46v3a.63.63,0,0,1-.75.61l-9.25-1.85v2.35l2.65,1.33a.63.63,0,0,1,.35.56v2A.63.63,0,0,1,24,31.63ZM12.63,30.38H23.38v-1l-2.66-1.33a.63.63,0,0,1-.34-.56V24a.6.6,0,0,1,.23-.48.59.59,0,0,1,.51-.13l9.26,1.85v-2l-9.8-8.81a.63.63,0,0,1-.2-.47V8a2.38,2.38,0,0,0-4.75,0v6a.64.64,0,0,1-.21.47L5.63,23.28v2l9.25-1.85a.62.62,0,0,1,.52.13.63.63,0,0,1,.23.48v3.5a.63.63,0,0,1-.35.56l-2.65,1.33Z"/>
</svg>
