<svg xmlns="http://www.w3.org/2000/svg" viewBox="0 0 36 36">
  <path d="M10 26.61a5.63 5.63 0 0 0 5.59-5H18a.63.63 0 0 0 .52-.29s3.69-6.46 3.71-6.48l.71 1.43a5.62 5.62 0 1 0 1.12-.56l-3.5-7c0-.06-.09-.13-.14-.18a.78.78 0 0 0-.42-.17h-3a.63.63 0 0 0 0 1.25h2.61l1.88 3.75h-7l-.42-.75c.53 0 1.55.2 1.56-.63a.62.62 0 0 0-.62-.62H11a.63.63 0 0 0 0 1.25h1.63l.71 1.27-1.11 1.94A5.62 5.62 0 1 0 10 26.61Zm16-10a4.38 4.38 0 1 1-2.49.79l1.93 3.86a.62.62 0 0 0 1.12-.55l-1.93-3.86a4.43 4.43 0 0 1 1.37-.24Zm-11.69 3.75h-3.23l1.6-2.81a4.32 4.32 0 0 1 1.63 2.81Zm6.61-5.75L18 19.71l-2.84-5.1Zm-6.87.55 2.89 5.2h-1.35a5.64 5.64 0 0 0-2.28-3.91ZM10 16.61a4.47 4.47 0 0 1 1.6.31l-2.14 3.75a.64.64 0 0 0 0 .63.63.63 0 0 0 .54.31h4.31c-.84 5.3-8.58 4.77-8.68-.63A4.37 4.37 0 0 1 10 16.61Zm20 11.75H6a.63.63 0 0 0 0 1.25h24a.63.63 0 0 0 0-1.25Z"/>
</svg>
