<svg id="a89e730f-300d-4696-841e-29b24029c399" data-name="Icon" xmlns="http://www.w3.org/2000/svg" viewBox="0 0 36 36">
  <g>
    <path d="M10,26.61a5.63,5.63,0,0,0,5.59-5H18a.63.63,0,0,0,.52-.29s3.69-6.46,3.71-6.48l.71,1.43a5.62,5.62,0,1,0,1.12-.56l-3.5-7c0-.06-.09-.13-.14-.18A.78.78,0,0,0,20,8.36H17a.63.63,0,0,0,0,1.25h2.61l1.88,3.75h-7l-.42-.75c.53,0,1.55.2,1.56-.63a.62.62,0,0,0-.62-.62H11a.63.63,0,0,0,0,1.25h1.63l.71,1.27-1.11,1.94A5.62,5.62,0,1,0,10,26.61Zm16-10a4.38,4.38,0,1,1-2.49.79l1.93,3.86a.62.62,0,0,0,1.12-.55l-1.93-3.86A4.43,4.43,0,0,1,26,16.61ZM14.31,20.36H11.08l1.6-2.81A4.32,4.32,0,0,1,14.31,20.36Zm6.61-5.75L18,19.71l-2.84-5.1Zm-6.87.55,2.89,5.2H15.59a5.64,5.64,0,0,0-2.28-3.91ZM10,16.61a4.47,4.47,0,0,1,1.6.31L9.46,20.67a.64.64,0,0,0,0,.63.63.63,0,0,0,.54.31h4.31c-.84,5.3-8.58,4.77-8.68-.63A4.37,4.37,0,0,1,10,16.61Z"/>
    <path d="M30,28.36H6a.63.63,0,0,0,0,1.25H30A.63.63,0,0,0,30,28.36Z"/>
  </g>
</svg>
