<svg id="e552b980-44fd-4aea-8a3d-8c8dd9093c52" data-name="Icon" xmlns="http://www.w3.org/2000/svg" viewBox="0 0 36 36">
  <path d="M32,19.38H25.62V10.52A7.66,7.66,0,0,0,32,14a.63.63,0,0,0,0-1.25c-4.27-.07-6.79-3.64-6.37-7.72a.63.63,0,0,0-1.26,0c.42,4.08-2.11,7.65-6.37,7.72S11.21,9.08,11.63,5a.63.63,0,0,0-1.25,0c.41,4.08-2.12,7.65-6.38,7.72A.63.63,0,0,0,4,14a7.66,7.66,0,0,0,6.38-3.45v8.86H4a.62.62,0,1,0,0,1.24h6.38v6.84a2.62,2.62,0,0,0-2,2.54v1a.61.61,0,0,0,.62.62h4c.84,0,.59-1.08.62-1.62a2.62,2.62,0,0,0-2-2.54V20.62H24.38v6.84a2.62,2.62,0,0,0-2,2.54v1a.61.61,0,0,0,.62.62h4c.84,0,.59-1.08.62-1.62a2.62,2.62,0,0,0-2-2.54V20.62H32A.62.62,0,0,0,32,19.38ZM12.38,30v.38H9.62A1.4,1.4,0,1,1,12.38,30Zm14,0v.38H23.62A1.4,1.4,0,1,1,26.38,30ZM11.62,19.38V10.52a7.67,7.67,0,0,0,12.76,0v8.86Z"/>
</svg>
