<?xml version="1.0" encoding="UTF-8"?><svg id="Icon" xmlns="http://www.w3.org/2000/svg" viewBox="0 0 36 36"><path d="M26,4.38H10c-2,0-3.62,1.63-3.62,3.62V28c0,.34,.28,.62,.62,.62h1.38v1.38c0,.9,.73,1.62,1.62,1.62h1c.9,0,1.62-.73,1.62-1.62v-1.38h10.75v1.38c0,.9,.73,1.62,1.62,1.62h1c.9,0,1.62-.73,1.62-1.62v-1.38h1.38c.35,0,.62-.28,.62-.62V8c0-2-1.63-3.62-3.62-3.62ZM7.63,21.38V11.62h9.75v9.75H7.63Zm11-9.75h9.75v9.75h-9.75V11.62ZM10,5.62H26c1.31,0,2.38,1.07,2.38,2.38v2.38H7.63v-2.38c0-1.31,1.07-2.38,2.38-2.38Zm1.38,24.38c0,.21-.17,.38-.38,.38h-1c-.21,0-.38-.17-.38-.38v-1.38h1.75v1.38Zm15,0c0,.21-.17,.38-.38,.38h-1c-.21,0-.38-.17-.38-.38v-1.38h1.75v1.38Zm-18.75-2.62v-4.75H28.38v4.75H7.63Z"/><path d="M10.44,24.56c-.05-.06-.12-.1-.2-.14-.23-.09-.51-.03-.68,.14-.06,.06-.1,.13-.14,.2-.08,.23-.04,.5,.14,.68,.06,.06,.13,.11,.2,.14,.16,.06,.32,.06,.48,0,.08-.03,.15-.08,.2-.14,.18-.16,.24-.45,.14-.68-.03-.07-.08-.15-.14-.2Z"/><path d="M26.44,24.56c-.05-.06-.12-.11-.2-.14-.15-.06-.33-.06-.48,0-.08,.03-.14,.08-.2,.14-.06,.05-.11,.13-.14,.2-.08,.23-.04,.51,.14,.68,.24,.25,.64,.25,.88,0,.19-.17,.24-.45,.14-.68-.03-.07-.08-.15-.14-.2Z"/><path d="M31,9.38c-.35,0-.62,.28-.62,.62v4c0,.82,1.25,.82,1.25,0v-4c0-.35-.28-.62-.62-.62Z"/><path d="M5,9.38c-.35,0-.62,.28-.62,.62v4c0,.82,1.25,.82,1.25,0v-4c0-.35-.28-.62-.62-.62Z"/><path d="M12,8.62h12c.82,0,.82-1.25,0-1.25H12c-.82,0-.82,1.25,0,1.25Z"/></svg>