<svg xmlns="http://www.w3.org/2000/svg" viewBox="0 0 36 36">
  <path d="M26 4.38H10C8 4.38 6.38 6.01 6.38 8v20c0 .34.28.62.62.62h1.38V30c0 .9.73 1.62 1.62 1.62h1c.9 0 1.62-.73 1.62-1.62v-1.38h10.75V30c0 .9.73 1.62 1.62 1.62h1c.9 0 1.62-.73 1.62-1.62v-1.38h1.38c.35 0 .62-.28.62-.62V8c0-2-1.63-3.62-3.62-3.62Zm-18.37 17v-9.76h9.75v9.75H7.63Zm11-9.75h9.75v9.75h-9.75v-9.76ZM10 5.62h16c1.31 0 2.38 1.07 2.38 2.38v2.38H7.63V8c0-1.31 1.07-2.38 2.38-2.38ZM11.38 30c0 .21-.17.38-.38.38h-1a.38.38 0 0 1-.38-.38v-1.38h1.75V30Zm15 0c0 .21-.17.38-.38.38h-1a.38.38 0 0 1-.38-.38v-1.38h1.75V30ZM7.63 27.38v-4.75h20.75v4.75H7.63Z"/>
  <path d="M10.44 24.56a.597.597 0 0 0-.2-.14.652.652 0 0 0-.68.14c-.06.06-.1.13-.14.2-.08.23-.04.5.14.68.06.06.13.11.2.14.16.06.32.06.48 0 .08-.03.15-.08.2-.14a.611.611 0 0 0 0-.88Zm16 0a.483.483 0 0 0-.2-.14.662.662 0 0 0-.48 0c-.08.03-.14.08-.2.14-.06.05-.11.13-.14.2-.08.23-.04.51.14.68.24.25.64.25.88 0 .19-.17.24-.45.14-.68a.558.558 0 0 0-.14-.2ZM31 9.38c-.35 0-.62.28-.62.62v4c0 .82 1.25.82 1.25 0v-4c0-.35-.28-.62-.62-.62Zm-26 0c-.35 0-.62.28-.62.62v4c0 .82 1.25.82 1.25 0v-4c0-.35-.28-.62-.62-.62Zm7-.76h12c.82 0 .82-1.25 0-1.25H12c-.82 0-.82 1.25 0 1.25Z"/>
</svg>
