<svg xmlns="http://www.w3.org/2000/svg" viewBox="0 0 36 36">
  <path d="M29 18.62a.63.63 0 0 0 .24-1.2.63.63 0 1 0-.24 1.2Zm-20-5h15a.63.63 0 0 0 .44-1.07l-4-4a.6.6 0 0 0-.44-.17H9.85a.62.62 0 0 0-.61.49l-.85 4a.62.62 0 0 0 .61.75Zm13.49-1.24h-6.87V9.62h4.12ZM10.36 9.62h4v2.76H9.77ZM31 27.38H5a.62.62 0 0 0 0 1.24h26a.62.62 0 0 0 0-1.24Z"/>
  <path d="M28 14.38H8A3.62 3.62 0 0 0 4.38 18v3a.61.61 0 0 0 .62.62h2.52c-1.12 4.6 5.85 5.61 6.11.88a3.13 3.13 0 0 0-5.41-2.12h-2.6V18A2.39 2.39 0 0 1 8 15.62h20A2.39 2.39 0 0 1 30.38 18v2.38h-2.6a3.12 3.12 0 0 0-4.56 0H15a.62.62 0 0 0 0 1.24h7.52a3.11 3.11 0 1 0 6 0H31a.61.61 0 0 0 .62-.62v-3A3.62 3.62 0 0 0 28 14.38Zm-17.5 6.24a1.88 1.88 0 0 1 0 3.75 1.88 1.88 0 0 1 0-3.75Zm15 3.76a1.88 1.88 0 0 1 0-3.75 1.88 1.88 0 0 1 0 3.75Z"/>
</svg>
