<svg id="ab12b9a1-6a0d-43be-9869-d702ce02f8ef" data-name="Icon" xmlns="http://www.w3.org/2000/svg" viewBox="0 0 36 36">
  <g>
    <path d="M29,18.62a.63.63,0,0,0,.24-1.2A.63.63,0,1,0,29,18.62Z"/>
    <path d="M9,13.62H24a.63.63,0,0,0,.44-1.07l-4-4A.6.6,0,0,0,20,8.38H9.85a.62.62,0,0,0-.61.49l-.85,4A.62.62,0,0,0,9,13.62Zm13.49-1.24H15.62V9.62h4.12ZM10.36,9.62h4v2.76H9.77Z"/>
    <path d="M31,27.38H5a.62.62,0,0,0,0,1.24H31A.62.62,0,0,0,31,27.38Z"/>
    <path d="M28,14.38H8A3.62,3.62,0,0,0,4.38,18v3a.61.61,0,0,0,.62.62H7.52c-1.12,4.6,5.85,5.61,6.11.88a3.13,3.13,0,0,0-5.41-2.12H5.62V18A2.39,2.39,0,0,1,8,15.62H28A2.39,2.39,0,0,1,30.38,18v2.38h-2.6a3.12,3.12,0,0,0-4.56,0H15a.62.62,0,0,0,0,1.24h7.52a3.11,3.11,0,1,0,6,0H31a.61.61,0,0,0,.62-.62V18A3.62,3.62,0,0,0,28,14.38ZM10.5,20.62a1.88,1.88,0,0,1,0,3.75A1.88,1.88,0,0,1,10.5,20.62Zm15,3.76a1.88,1.88,0,0,1,0-3.75A1.88,1.88,0,0,1,25.5,24.38Z"/>
  </g>
</svg>
