<svg id="ab12d111-451b-4f21-8126-06c4616db177" data-name="Icon" xmlns="http://www.w3.org/2000/svg" viewBox="0 0 36 36">
  <g>
    <path d="M5,19.38a.61.61,0,0,0-.62.62v7a.62.62,0,0,0,1.24,0V20A.61.61,0,0,0,5,19.38Z"/>
    <path d="M31,19.38a.61.61,0,0,0-.62.62v7a.62.62,0,0,0,1.24,0V20A.61.61,0,0,0,31,19.38Z"/>
    <path d="M21.62,15.21V11.69A9.46,9.46,0,0,0,18.83,5c-.33-.37-.79-.85-1.27-.39a9.57,9.57,0,0,0-3.18,7.13v3.52l-7.77,6.3a.62.62,0,0,0-.23.49v4a.62.62,0,0,0,.79.6l6.21-1.77v1l-1.9,2.84a.62.62,0,0,0,.08.79l2,2a.62.62,0,0,0,.72.12l2-1a.63.63,0,0,0-.56-1.12l-1.6.8L12.8,28.92c.09-.2,2-2.74,1.83-2.92V24a.62.62,0,0,0-.79-.6L7.62,25.17V22.3L15.39,16a.59.59,0,0,0,.23-.48V11.69A8.25,8.25,0,0,1,18,5.88a8.25,8.25,0,0,1,2.38,5.81v3.82a.59.59,0,0,0,.23.48l7.77,6.31v2.87L22.17,23.4a.62.62,0,0,0-.79.6v2c-.14.17,1.74,2.74,1.82,2.92l-1.32,1.32-1.6-.8a.63.63,0,0,0-.56,1.12l2,1a.62.62,0,0,0,.72-.12l2-2a.62.62,0,0,0,.08-.79l-1.9-2.84v-1l6.21,1.77a.62.62,0,0,0,.79-.6V22a.62.62,0,0,0-.23-.49Z"/>
    <path d="M18,10.38a.61.61,0,0,0-.62.62v4a.62.62,0,1,0,1.24,0V11A.61.61,0,0,0,18,10.38Z"/>
    <path d="M18,25.38a.61.61,0,0,0-.62.62v5a.62.62,0,0,0,1.24,0V26A.61.61,0,0,0,18,25.38Z"/>
  </g>
</svg>
