<svg xmlns="http://www.w3.org/2000/svg" viewBox="0 0 36 36">
  <path d="M5 19.38a.61.61 0 0 0-.62.62v7a.62.62 0 0 0 1.24 0v-7a.61.61 0 0 0-.62-.62Zm26 0a.61.61 0 0 0-.62.62v7a.62.62 0 0 0 1.24 0v-7a.61.61 0 0 0-.62-.62Zm-9.38-4.17v-3.52A9.46 9.46 0 0 0 18.83 5c-.33-.37-.79-.85-1.27-.39a9.57 9.57 0 0 0-3.18 7.13v3.52l-7.77 6.3a.62.62 0 0 0-.23.49v4a.62.62 0 0 0 .79.6l6.21-1.77v1l-1.9 2.84a.62.62 0 0 0 .08.79l2 2a.62.62 0 0 0 .72.12l2-1a.63.63 0 0 0-.56-1.12l-1.6.8-1.32-1.39c.09-.2 2-2.74 1.83-2.92v-2a.62.62 0 0 0-.79-.6l-6.22 1.77V22.3l7.77-6.3a.59.59 0 0 0 .23-.48v-3.83A8.25 8.25 0 0 1 18 5.88a8.25 8.25 0 0 1 2.38 5.81v3.82a.59.59 0 0 0 .23.48l7.77 6.31v2.87l-6.21-1.77a.62.62 0 0 0-.79.6v2c-.14.17 1.74 2.74 1.82 2.92l-1.32 1.32-1.6-.8a.63.63 0 0 0-.56 1.12l2 1a.62.62 0 0 0 .72-.12l2-2a.62.62 0 0 0 .08-.79l-1.9-2.84v-1l6.21 1.77a.62.62 0 0 0 .79-.6V22a.62.62 0 0 0-.23-.49Z"/>
  <path d="M18 10.38a.61.61 0 0 0-.62.62v4a.62.62 0 1 0 1.24 0v-4a.61.61 0 0 0-.62-.62Zm0 15a.61.61 0 0 0-.62.62v5a.62.62 0 0 0 1.24 0v-5a.61.61 0 0 0-.62-.62Z"/>
</svg>
