<svg id="e19ec9db-e252-4879-979c-7905a435735b" data-name="Icon" xmlns="http://www.w3.org/2000/svg" viewBox="0 0 36 36">
  <g>
    <path d="M19.21,9.87a.62.62,0,0,0-.61-.49H14a.61.61,0,0,0-.62.62v8.38H5a.61.61,0,0,0-.62.62v6a.61.61,0,0,0,.62.62H6.52a3.11,3.11,0,1,0,6,0h2a3.11,3.11,0,1,0,6,0c.63-.06,2.05.33,1.92-.75C21.61,21.16,20,13.6,19.21,9.87Zm-4.59.75h3.47l1.6,7.51,0,.25H14.62ZM9.5,28.38a1.88,1.88,0,0,1,0-3.75A1.88,1.88,0,0,1,9.5,28.38Zm8,0a1.88,1.88,0,0,1,0-3.75A1.88,1.88,0,0,1,17.5,28.38Zm2.28-4a3.12,3.12,0,0,0-4.56,0H11.78a3.12,3.12,0,0,0-4.56,0H5.62V19.62H20l1,4.76Z"/>
    <path d="M31.61,23.44a.61.61,0,0,0-.74-.48l-6.12,1.3L21.05,6.87a.62.62,0,0,0-1.22.26l3.82,18a.63.63,0,0,0,.62.49h.13l6.73-1.43A.62.62,0,0,0,31.61,23.44Z"/>
    <path d="M25.51,22.15a.63.63,0,0,0,.74.48l4.57-1a.62.62,0,0,0,.48-.74l-1-4.56a.61.61,0,0,0-.74-.48l-4.57,1a.63.63,0,0,0-.48.74Zm3.73-4.92L30,20.57l-3.35.71-.71-3.34Z"/>
  </g>
</svg>
