<svg xmlns="http://www.w3.org/2000/svg" viewBox="0 0 36 36">
  <path d="M19.21 9.87a.62.62 0 0 0-.61-.49H14a.61.61 0 0 0-.62.62v8.38H5a.61.61 0 0 0-.62.62v6a.61.61 0 0 0 .62.62h1.52a3.11 3.11 0 1 0 6 0h2a3.11 3.11 0 1 0 6 0c.63-.06 2.05.33 1.92-.75-.83-3.71-2.44-11.27-3.23-15Zm-4.59.75h3.47l1.6 7.51v.25h-5.07ZM9.5 28.38a1.88 1.88 0 0 1 0-3.75 1.88 1.88 0 0 1 0 3.75Zm8 0a1.88 1.88 0 0 1 0-3.75 1.88 1.88 0 0 1 0 3.75Zm2.28-4a3.12 3.12 0 0 0-4.56 0h-3.44a3.12 3.12 0 0 0-4.56 0h-1.6v-4.76H20l1 4.76Zm11.83-.94a.61.61 0 0 0-.74-.48l-6.12 1.3-3.7-17.39a.62.62 0 0 0-1.22.26l3.82 18a.63.63 0 0 0 .62.49h.13l6.73-1.43a.62.62 0 0 0 .48-.75Z"/>
  <path d="M25.51 22.15a.63.63 0 0 0 .74.48l4.57-1a.62.62 0 0 0 .48-.74l-1-4.56a.61.61 0 0 0-.74-.48l-4.57 1a.63.63 0 0 0-.48.74Zm3.73-4.92.76 3.34-3.35.71-.71-3.34Z"/>
</svg>
