<svg id="e51fd7c1-7670-4be8-ac42-f66722851ddf" data-name="Icon" xmlns="http://www.w3.org/2000/svg" viewBox="0 0 36 36">
  <g>
    <path d="M30.39,21.63l-4.26-3.72c-3.2-2.47-4-7.51-5-11.14a3.24,3.24,0,0,0-6.26,0c-1,3.64-1.8,8.68-5,11.14L5.61,21.63a3.66,3.66,0,0,0-1.23,2.73V27a.62.62,0,0,0,.62.62H15l-1.55,3.1a.63.63,0,0,0,.56.9h8a.63.63,0,0,0,.56-.9L21,27.62H31a.62.62,0,0,0,.62-.62C31.6,25.28,32,22.83,30.39,21.63ZM16.08,7.09a2,2,0,0,1,3.84,0l1.46,5.33v14H14.62v-14ZM5.62,24.36a2.38,2.38,0,0,1,.82-1.79c2-1.83,5.74-4.57,6.94-7V26.38H5.62Zm15.37,6H15l1.38-2.76h3.22Zm9.39-4H22.62V15.53c1.18,2.45,5,5.23,6.94,7C30.65,23.37,30.34,25.23,30.38,26.38Z"/>
    <path d="M15.56,13.44a.61.61,0,0,0,.88,0L18,11.88l1.56,1.56a.62.62,0,0,0,.88-.88l-2-2a.61.61,0,0,0-.88,0l-2,2A.61.61,0,0,0,15.56,13.44Z"/>
  </g>
</svg>
