<svg xmlns="http://www.w3.org/2000/svg" viewBox="0 0 36 36">
  <path d="M18 3.36A14.66 14.66 0 0 0 3.36 18c.8 19.43 28.48 19.42 29.28 0A14.66 14.66 0 0 0 18 3.36Zm0 28A13.41 13.41 0 0 1 4.61 18C5.34.23 30.66.24 31.39 18A13.41 13.41 0 0 1 18 31.39Z"/>
  <path d="M17.56 8.44c.57.57 1.47-.31.88-.88s-1.44.3-.88.88Zm-6.12 3c.59-.57-.32-1.46-.88-.88a.62.62 0 0 0 .88.88Zm-3.2 5.98a.63.63 0 0 0-.48 1.16.63.63 0 0 0 .48-1.16Zm20.34.34a.63.63 0 0 0-1.16.48.63.63 0 0 0 1.16-.48Zm-6.35 5.62h-9a2.12 2.12 0 0 0 0 4.24h9a2.12 2.12 0 0 0 0-4.24Zm0 3h-9a.88.88 0 0 1 0-1.75h9a.88.88 0 0 1 0 1.75Zm2.33-15.82-5 5a3 3 0 1 0 .89.89l5-5c.55-.57-.33-1.45-.89-.89Zm-6.62 9.27a1.77 1.77 0 0 1 0-3.54 1.77 1.77 0 0 1 0 3.54Z"/>
</svg>
