<svg id="a1fca257-355c-4e68-84b2-26758d49408f" data-name="Icon" xmlns="http://www.w3.org/2000/svg" viewBox="0 0 36 36">
  <g>
    <path d="M18,3.36A14.66,14.66,0,0,0,3.36,18c.8,19.43,28.48,19.42,29.28,0A14.66,14.66,0,0,0,18,3.36Zm0,28A13.41,13.41,0,0,1,4.61,18C5.34.23,30.66.24,31.39,18A13.41,13.41,0,0,1,18,31.39Z"/>
    <path d="M17.56,8.44c.57.57,1.47-.31.88-.88S17,7.86,17.56,8.44Z"/>
    <path d="M11.44,11.44c.59-.57-.32-1.46-.88-.88A.62.62,0,0,0,11.44,11.44Z"/>
    <path d="M8.24,17.42a.63.63,0,0,0-.48,1.16A.63.63,0,0,0,8.24,17.42Z"/>
    <path d="M28.58,17.76a.63.63,0,0,0-1.16.48A.63.63,0,0,0,28.58,17.76Z"/>
    <path d="M22.23,23.38h-9a2.12,2.12,0,0,0,0,4.24h9A2.12,2.12,0,0,0,22.23,23.38Zm0,3h-9a.88.88,0,0,1,0-1.75h9A.88.88,0,0,1,22.23,26.38Z"/>
    <path d="M24.56,10.56l-5,5a3,3,0,1,0,.89.89l5-5C26,10.88,25.12,10,24.56,10.56Zm-6.62,9.27a1.77,1.77,0,0,1,0-3.54A1.77,1.77,0,0,1,17.94,19.83Z"/>
  </g>
</svg>
