<svg id="a6dde04a-7604-49e7-9cbb-ad05d01aac40" data-name="Icon" xmlns="http://www.w3.org/2000/svg" viewBox="0 0 36 36">
  <g>
    <path d="M9,15.62h7a.62.62,0,0,0,.61-.75L15.28,8.62H16a.62.62,0,0,0,0-1.24H9A.62.62,0,0,0,8.38,8v7A.62.62,0,0,0,9,15.62Zm5-7,1.22,5.76H9.62V8.62Z"/>
    <path d="M10.5,24.62a2.12,2.12,0,0,0,0-4.24A2.12,2.12,0,0,0,10.5,24.62Zm0-3a.88.88,0,0,1,0,1.75A.88.88,0,0,1,10.5,21.62Z"/>
    <path d="M31.49,16.61a.62.62,0,0,0-.49-.23H27.62V12a.62.62,0,0,0-1.24,0v4.38H10a.61.61,0,0,0-.24,0c-7.53,1.1-6.91,12,.74,12.2a6.13,6.13,0,0,0,3.69-11h16L29,23.38H27.78a3.12,3.12,0,0,0-4.56,0H18a.62.62,0,0,0,0,1.24h4.52a3.11,3.11,0,1,0,6,0c.49,0,1.52.22,1.64-.49l1.49-7A.64.64,0,0,0,31.49,16.61ZM15.38,22.5c-.21,6.44-9.55,6.44-9.76,0C5.83,16.06,15.17,16.06,15.38,22.5ZM25.5,27.38a1.88,1.88,0,0,1,0-3.75A1.88,1.88,0,0,1,25.5,27.38Z"/>
  </g>
</svg>
