<svg xmlns="http://www.w3.org/2000/svg" viewBox="0 0 36 36">
  <path d="M27.62 16a.62.62 0 0 0-.62-.62h-3.38v-1.82a4.61 4.61 0 0 0 4-4.56.62.62 0 0 0-.62-.62h-3.38V5a.62.62 0 0 0-.62-.62H13a.62.62 0 0 0-.62.62v3.38H9a.62.62 0 0 0-.62.62 4.61 4.61 0 0 0 4 4.56v1.82H9a.62.62 0 0 0-.62.62 4.61 4.61 0 0 0 4 4.56v1.82H9a.62.62 0 0 0-.62.62 4.61 4.61 0 0 0 4 4.56V31a.62.62 0 0 0 .62.62h10a.62.62 0 0 0 .62-.62v-3.44a4.61 4.61 0 0 0 4-4.56.62.62 0 0 0-.62-.62h-3.38v-1.82a4.61 4.61 0 0 0 4-4.56Zm-1.3.62a3.39 3.39 0 0 1-2.7 2.7v-2.7Zm0-7a3.39 3.39 0 0 1-2.7 2.7v-2.7Zm-16.64 0h2.7v2.7a3.39 3.39 0 0 1-2.7-2.7Zm0 7h2.7v2.7a3.39 3.39 0 0 1-2.7-2.7Zm0 7h2.7v2.7a3.39 3.39 0 0 1-2.7-2.7Zm12.7 6.76h-8.76V5.62h8.76Zm3.94-6.76a3.39 3.39 0 0 1-2.7 2.7v-2.7Z"/>
  <path d="M18 22.38a2.62 2.62 0 0 0 0 5.24 2.62 2.62 0 0 0 0-5.24Zm0 4a1.38 1.38 0 0 1 0-2.75 1.38 1.38 0 0 1 0 2.75Zm0-11a2.62 2.62 0 0 0 0 5.24 2.62 2.62 0 0 0 0-5.24Zm0 4a1.38 1.38 0 0 1 0-2.75 1.38 1.38 0 0 1 0 2.75Zm0-11a2.62 2.62 0 0 0 0 5.24 2.62 2.62 0 0 0 0-5.24Zm0 4a1.38 1.38 0 0 1 0-2.75 1.38 1.38 0 0 1 0 2.75Z"/>
</svg>
