<svg xmlns="http://www.w3.org/2000/svg" viewBox="0 0 36 36">
  <path d="M8.45 27.38a2.07 2.07 0 0 0 0 4.14 2.07 2.07 0 0 0 0-4.14Zm0 2.89a.82.82 0 0 1 0-1.64.82.82 0 0 1 0 1.64Zm5-2.89a2.07 2.07 0 0 0 0 4.14 2.07 2.07 0 0 0 0-4.14Zm0 2.89a.82.82 0 0 1 0-1.64.82.82 0 0 1 0 1.64Zm13.9-2.89a2.07 2.07 0 0 0 0 4.14 2.07 2.07 0 0 0 0-4.14Zm0 2.89a.82.82 0 0 1 0-1.64.82.82 0 0 1 0 1.64Zm-4.9-2.89a2.07 2.07 0 0 0 0 4.14 2.07 2.07 0 0 0 0-4.14Zm0 2.89a.82.82 0 0 1 0-1.64.82.82 0 0 1 0 1.64ZM31 24.38H5a.62.62 0 0 0 0 1.24h26a.62.62 0 0 0 0-1.24ZM7 22.62h22a.62.62 0 0 0 .62-.62V5a.62.62 0 0 0-.62-.62H7a.62.62 0 0 0-.62.62v17a.62.62 0 0 0 .62.62Zm.62-17h20.76v15.76H7.62Z"/>
  <path d="M12 7.38a.62.62 0 0 0-.62.62v11a.62.62 0 1 0 1.24 0V8a.62.62 0 0 0-.62-.62Zm3.86 0a.62.62 0 0 0-.63.62v11a.63.63 0 0 0 1.25 0V8a.62.62 0 0 0-.62-.62Zm4.14 0a.62.62 0 0 0-.63.62v11a.63.63 0 0 0 1.25 0V8a.62.62 0 0 0-.62-.62Zm4.06 0a.62.62 0 0 0-.62.62v11a.63.63 0 0 0 1.25 0V8a.62.62 0 0 0-.63-.62Z"/>
</svg>
