<svg id="a90db2f1-053e-49e9-8ec2-3fddda5ce54a" data-name="Icon" xmlns="http://www.w3.org/2000/svg" viewBox="0 0 36 36">
  <g>
    <path d="M8.45,27.38a2.07,2.07,0,0,0,0,4.14A2.07,2.07,0,0,0,8.45,27.38Zm0,2.89a.82.82,0,0,1,0-1.64A.82.82,0,0,1,8.45,30.27Z"/>
    <path d="M13.45,27.38a2.07,2.07,0,0,0,0,4.14A2.07,2.07,0,0,0,13.45,27.38Zm0,2.89a.82.82,0,0,1,0-1.64A.82.82,0,0,1,13.45,30.27Z"/>
    <path d="M27.35,27.38a2.07,2.07,0,0,0,0,4.14A2.07,2.07,0,0,0,27.35,27.38Zm0,2.89a.82.82,0,0,1,0-1.64A.82.82,0,0,1,27.35,30.27Z"/>
    <path d="M22.45,27.38a2.07,2.07,0,0,0,0,4.14A2.07,2.07,0,0,0,22.45,27.38Zm0,2.89a.82.82,0,0,1,0-1.64A.82.82,0,0,1,22.45,30.27Z"/>
    <path d="M31,24.38H5a.62.62,0,0,0,0,1.24H31A.62.62,0,0,0,31,24.38Z"/>
    <path d="M7,22.62H29a.62.62,0,0,0,.62-.62V5A.62.62,0,0,0,29,4.38H7A.62.62,0,0,0,6.38,5V22A.62.62,0,0,0,7,22.62Zm.62-17H28.38V21.38H7.62Z"/>
    <path d="M12,7.38a.62.62,0,0,0-.62.62V19a.62.62,0,1,0,1.24,0V8A.62.62,0,0,0,12,7.38Z"/>
    <path d="M15.86,7.38a.62.62,0,0,0-.63.62V19a.63.63,0,0,0,1.25,0V8A.62.62,0,0,0,15.86,7.38Z"/>
    <path d="M20,7.38a.62.62,0,0,0-.63.62V19a.63.63,0,0,0,1.25,0V8A.62.62,0,0,0,20,7.38Z"/>
    <path d="M24.06,7.38a.62.62,0,0,0-.62.62V19a.63.63,0,0,0,1.25,0V8A.62.62,0,0,0,24.06,7.38Z"/>
  </g>
</svg>
