<svg id="b9b53a2a-a8fa-487f-9e2c-b281ab4b7409" data-name="Icon" xmlns="http://www.w3.org/2000/svg" viewBox="0 0 36 36">
  <path d="M31.52,17.69l-4-6a.62.62,0,0,0-.52-.28H22.62V9A.62.62,0,0,0,22,8.41H5A.62.62,0,0,0,4.38,9V23a.62.62,0,0,0,.62.63H6.52a3.11,3.11,0,1,0,6,0h11a3.11,3.11,0,1,0,6,0H31a.62.62,0,0,0,.62-.63V20A10,10,0,0,0,31.52,17.69Zm-4.85-5,3.71,5.56v1.19H22.62V12.66ZM9.5,26.41a1.88,1.88,0,0,1,0-3.75A1.88,1.88,0,0,1,9.5,26.41Zm0-5a3.12,3.12,0,0,0-2.28,1H5.62V9.66H21.38V22.41h-9.6A3.12,3.12,0,0,0,9.5,21.41Zm17,5a1.88,1.88,0,0,1,0-3.75A1.88,1.88,0,0,1,26.5,26.41Zm2.28-4a3.14,3.14,0,0,0-4.56,0h-1.6V20.66h7.76v1.75Z"/>
</svg>
