<svg xmlns="http://www.w3.org/2000/svg" viewBox="0 0 36 36">
  <path d="m31.52 17.69-4-6a.62.62 0 0 0-.52-.28h-4.38V9a.62.62 0 0 0-.62-.59H5a.62.62 0 0 0-.62.59v14a.62.62 0 0 0 .62.63h1.52a3.11 3.11 0 1 0 6 0h11a3.11 3.11 0 1 0 6 0H31a.62.62 0 0 0 .62-.63v-3a10 10 0 0 0-.1-2.31Zm-4.85-5 3.71 5.56v1.19h-7.76v-6.78ZM9.5 26.41a1.88 1.88 0 0 1 0-3.75 1.88 1.88 0 0 1 0 3.75Zm0-5a3.12 3.12 0 0 0-2.28 1h-1.6V9.66h15.76v12.75h-9.6a3.12 3.12 0 0 0-2.28-1Zm17 5a1.88 1.88 0 0 1 0-3.75 1.88 1.88 0 0 1 0 3.75Zm2.28-4a3.14 3.14 0 0 0-4.56 0h-1.6v-1.75h7.76v1.75Z"/>
</svg>
