<svg id="b3afd364-3607-450b-84c0-e67716b3fa5b" data-name="Icon" xmlns="http://www.w3.org/2000/svg" viewBox="0 0 36 36">
  <g>
    <path d="M15.49,17.66a.5923.5923,0,0,0-.0607.0858l-.0078.0174-.0008.0019-1.5964,3.5862a.6249.6249,0,0,0,.8252.8252l3.605-1.6055a3.4475,3.4475,0,0,1,.1875-.1289l13-13a.6255.6255,0,0,0,0-.8843l-2-2a.6249.6249,0,0,0-.8838,0l-13,13A.6.6,0,0,0,15.49,17.66Zm.711,1.4249.7138.7138-1.2863.5731ZM29,5.8838,30.1162,7,29,8.116,27.8839,7Zm-2,2L28.116,9,18,19.1162,16.8838,18Z"/>
    <path d="M31,11.375a.6253.6253,0,0,0-.625.625V25.375H5.625V9.625H20a.625.625,0,0,0,0-1.25H5A.6253.6253,0,0,0,4.375,9V26A.6253.6253,0,0,0,5,26.625H15.375v3.75H9a.625.625,0,0,0,0,1.25H27a.625.625,0,0,0,0-1.25H20.625v-3.75H31A.6253.6253,0,0,0,31.625,26V12A.6253.6253,0,0,0,31,11.375Zm-11.625,19h-2.75v-3.75h2.75Z"/>
    <path d="M13.625,16V12A.6253.6253,0,0,0,13,11.375H8A.6253.6253,0,0,0,7.375,12v4A.6253.6253,0,0,0,8,16.625h5A.6253.6253,0,0,0,13.625,16Zm-1.25-.625H8.625v-2.75h3.75Z"/>
    <path d="M28,19.375H22a.625.625,0,0,0,0,1.25h6a.625.625,0,0,0,0-1.25Z"/>
    <path d="M12,19.375H8a.625.625,0,0,0,0,1.25h4a.625.625,0,0,0,0-1.25Z"/>
    <path d="M28,22.375H18a.625.625,0,0,0,0,1.25H28a.625.625,0,0,0,0-1.25Z"/>
    <path d="M12,22.375H8a.625.625,0,0,0,0,1.25h4a.625.625,0,0,0,0-1.25Z"/>
  </g>
</svg>
