<svg id="a68cb254-fa73-4949-b13e-76fd88fbf82d" data-name="Icon" xmlns="http://www.w3.org/2000/svg" viewBox="0 0 36 36">
  <g>
    <path d="M31,7.38H8.92l-.08,0a.55.55,0,0,0-.28.15l-4,4a.55.55,0,0,0-.15.28.24.24,0,0,0,0,.08s0,.05,0,.08V28a.61.61,0,0,0,.62.62H31a.61.61,0,0,0,.62-.62V8A.61.61,0,0,0,31,7.38ZM8.38,9.51v1.87H6.51Zm22,17.87H5.62V12.62H9A.61.61,0,0,0,9.62,12V8.62H30.38Z"/>
    <path d="M12,14.62h1.38v6.76H12a.62.62,0,0,0,0,1.24h1.38V24a.62.62,0,0,0,1.24,0V22.62h9.76V24a.62.62,0,0,0,1.24,0V22.62H27a.62.62,0,0,0,0-1.24H25.62V14.62H27a.62.62,0,0,0,0-1.24H25.62V12a.62.62,0,0,0-1.24,0v1.38H14.62V12a.62.62,0,0,0-1.24,0v1.38H12A.62.62,0,0,0,12,14.62Zm12.38,0v6.76H14.62V14.62Z"/>
  </g>
</svg>
