<svg id="bc3c1cd3-6b2a-4059-9646-3e00a8aa8554" data-name="Icon" xmlns="http://www.w3.org/2000/svg" viewBox="0 0 36 36">
  <path d="M31,4.38H5A.62.62,0,0,0,4.38,5V25a.76.76,0,0,0,.18.44l6,6a.67.67,0,0,0,.44.18H31a.62.62,0,0,0,.62-.62V5A.62.62,0,0,0,31,4.38Zm-.62,1.24V9.38H25.62V8a.62.62,0,0,0-1.24,0V9.38H11.62V8a.62.62,0,1,0-1.24,0V9.38H5.62V5.62Zm-20,23.87L6.51,25.62h3.87Zm1.24.89V25a.62.62,0,0,0-.62-.62H5.62V10.62h4.76V12a.62.62,0,0,0,1.24,0V10.62H24.38V12a.62.62,0,1,0,1.24,0V10.62h4.76V30.38Z"/>
</svg>
