<svg id="bac2da65-a730-4c52-8621-ac356b20c430" data-name="Icon" xmlns="http://www.w3.org/2000/svg" viewBox="0 0 36 36">
  <g>
    <path d="M25,26.38a.61.61,0,0,0-.62.62v3.38H5.62V9.62H9A.61.61,0,0,0,9.62,9V5.62H24.38V11a.62.62,0,0,0,1.24,0V5A.61.61,0,0,0,25,4.38H8.92l-.08,0a.55.55,0,0,0-.28.15l-4,4a.55.55,0,0,0-.15.28.24.24,0,0,0,0,.08s0,.05,0,.08V31a.61.61,0,0,0,.62.62H25a.61.61,0,0,0,.62-.62V27A.61.61,0,0,0,25,26.38ZM8.38,6.51V8.38H6.51Z"/>
    <path d="M31.44,27.56,27.1,23.22c3.58-4.11.4-11-5.1-10.84A6.63,6.63,0,0,0,15.38,19c-.13,5.5,6.73,8.68,10.84,5.1l4.34,4.34A.62.62,0,0,0,31.44,27.56ZM16.62,19c.23-7.1,10.53-7.1,10.76,0C27.15,26.1,16.85,26.1,16.62,19Z"/>
  </g>
</svg>
