<svg id="b840a986-f654-44b6-bb36-47ccddc3cfeb" data-name="Icon" xmlns="http://www.w3.org/2000/svg" viewBox="0 0 36 36">
  <g>
    <path d="M28,4.38H11.92l-.08,0a.55.55,0,0,0-.28.15l-4,4a.55.55,0,0,0-.15.28.24.24,0,0,0,0,.08s0,.05,0,.08V31a.61.61,0,0,0,.62.62H28a.61.61,0,0,0,.62-.62V5A.61.61,0,0,0,28,4.38ZM11.38,6.51V8.38H9.51Zm16,23.87H8.62V9.62H12A.61.61,0,0,0,12.62,9V5.62H27.38Z"/>
    <path d="M14,22.62h8a.61.61,0,0,0,.62-.62V19.33a.62.62,0,0,0-1.24,0v2.05H14.62V14.62h4.71a.62.62,0,0,0,0-1.24H14a.61.61,0,0,0-.62.62v8A.61.61,0,0,0,14,22.62Z"/>
    <path d="M17.11,17.56c-.57-.58-1.47.32-.89.88l1.34,1.34a.63.63,0,0,0,.88,0l4-4c.58-.57-.32-1.47-.88-.89L18,18.45Z"/>
  </g>
</svg>
