<svg id="acd19639-8d42-48cb-98dd-9cb037913a12" data-name="Icon" xmlns="http://www.w3.org/2000/svg" viewBox="0 0 36 36">
  <g>
    <path d="M32.52,17.65a17.6,17.6,0,0,0-20.58-6.59l-4.5-4.5C6.88,6,6,6.88,6.56,7.44l4.77,4.77h0L28.56,29.44a.62.62,0,0,0,.88-.88l-4.13-4.13a17.49,17.49,0,0,0,7.21-6.08A.64.64,0,0,0,32.52,17.65ZM20.79,19.9,16.1,15.21A3.38,3.38,0,0,1,20.79,19.9Zm3.58,3.58-2.7-2.69a4.61,4.61,0,0,0-6.46-6.46L12.92,12a16.35,16.35,0,0,1,18.32,6A16.29,16.29,0,0,1,24.37,23.48Z"/>
    <path d="M21,24.51A16.36,16.36,0,0,1,4.76,18a16.62,16.62,0,0,1,4.68-4.36.62.62,0,1,0-.66-1.06,17.91,17.91,0,0,0-5.3,5.07.64.64,0,0,0,0,.7,17.64,17.64,0,0,0,17.76,7.39A.63.63,0,0,0,21,24.51Z"/>
    <path d="M18.62,22a.61.61,0,0,0-.62-.62A3.39,3.39,0,0,1,14.62,18a.62.62,0,0,0-1.24,0A4.62,4.62,0,0,0,18,22.62.61.61,0,0,0,18.62,22Z"/>
  </g>
</svg>
