<svg id="ece8a903-71c0-4066-a402-83afffe11c93" data-name="Icon" xmlns="http://www.w3.org/2000/svg" viewBox="0 0 36 36">
  <g>
    <path d="M27,4.38H9A.62.62,0,0,0,8.38,5V31a.64.64,0,0,0,.62.63H27a.62.62,0,0,0,.62-.62V5A.62.62,0,0,0,27,4.38Zm-15,23a.6.6,0,0,0-.44.18L9.62,29.49V11.72a3.6,3.6,0,0,0,2.38.9h5.38V27.38Zm.26,1.24H23.74l1.75,1.76h-15Zm12.18-1.06a.6.6,0,0,0-.44-.18H18.62V12.62H24a3.6,3.6,0,0,0,2.38-.9V29.49ZM26.38,9A2.39,2.39,0,0,1,24,11.38H12A2.39,2.39,0,0,1,9.62,9V5.62H26.38Z"/>
    <path d="M16,9.62h4a.62.62,0,0,0,0-1.24H16A.62.62,0,0,0,16,9.62Z"/>
  </g>
</svg>
