<svg id="b8b308ea-48ec-41cf-bf73-39d0bd50df68" data-name="Icon" xmlns="http://www.w3.org/2000/svg" viewBox="0 0 36 36">
  <g>
    <path d="M26.62,19a.63.63,0,0,0-1.25,0c-.21,9.77-14.53,9.76-14.74,0a.63.63,0,0,0-1.25,0,8.62,8.62,0,0,0,8,8.59v2.78H12a.63.63,0,0,0,0,1.25H24a.63.63,0,0,0,0-1.25H18.62V27.59A8.62,8.62,0,0,0,26.62,19Z"/>
    <path d="M28,16.37H23.66l0-1.75H25a.63.63,0,0,0,0-1.25H18a.63.63,0,0,0,0,1.25h4.38l0,1.75H13.55v-6.3c.23-6.07,9.05-5.77,8.9.3H18a.63.63,0,0,0,0,1.25h7a.62.62,0,0,0,.62-.62c0-.92-1.28-.56-1.92-.63.1-7.73-11.12-8-11.4-.3v6.3H8a.63.63,0,0,0,0,1.25h4.3c-.87,9.45,12.3,9.44,11.38,0H28A.63.63,0,0,0,28,16.37ZM22.45,19a4.45,4.45,0,0,1-8.9,0V17.62h8.88Z"/>
  </g>
</svg>
