<svg id="ad188636-9634-4f63-ac3c-20ee00097fd9" data-name="Icon" xmlns="http://www.w3.org/2000/svg" viewBox="0 0 36 36"><path d="M6,27.62H30a.62.62,0,0,0,.62-.62V12a.62.62,0,0,0-.62-.62H25a.62.62,0,0,0,0,1.24h4.38V26.38H27.56a4.11,4.11,0,0,0-2.19-3,2.62,2.62,0,1,0-3.74,0,4.11,4.11,0,0,0-2.19,3H16.56a4.11,4.11,0,0,0-2.19-3,2.62,2.62,0,1,0-3.74,0,4.11,4.11,0,0,0-2.19,3H6.62V12.62H11a.62.62,0,0,0,0-1.24H6a.62.62,0,0,0-.62.62V27A.62.62,0,0,0,6,27.62ZM22.12,21.5a1.38,1.38,0,0,1,2.75,0A1.38,1.38,0,0,1,22.12,21.5Zm1.38,2.62a2.87,2.87,0,0,1,2.8,2.26H20.7A2.87,2.87,0,0,1,23.5,24.12ZM11.12,21.5a1.38,1.38,0,0,1,2.75,0A1.38,1.38,0,0,1,11.12,21.5Zm1.38,2.62a2.87,2.87,0,0,1,2.8,2.26H9.7A2.87,2.87,0,0,1,12.5,24.12Z"/><path d="M32,29.38H4a.62.62,0,0,0,0,1.24H32A.62.62,0,0,0,32,29.38Z"/><path d="M15.07,16.41a1.42,1.42,0,0,0,1.36,1h3.14a1.42,1.42,0,0,0,1.36-1h0l.87-2.6a5.07,5.07,0,1,0-7.6,0ZM19.75,16a.2.2,0,0,1-.18.12H16.43a.2.2,0,0,1-.18-.12l-.61-1.86h4.72ZM18,6.62a3.84,3.84,0,0,1,2.92,6.29H15.08A3.84,3.84,0,0,1,18,6.62Z"/><path d="M19,18.38H17a.62.62,0,0,0,0,1.24h2A.62.62,0,0,0,19,18.38Z"/></svg>