<svg xmlns="http://www.w3.org/2000/svg" viewBox="0 0 36 36"><defs><style>.cls-1{fill:#231f20;}</style></defs><g id="Layer_4" data-name="Layer 4"><path class="cls-1" d="M28.51,15.38a1.59,1.59,0,0,0-.62.12L26.7,14.31a.61.61,0,0,0-.88,0,.63.63,0,0,0,0,.88L27,16.38a1.63,1.63,0,1,0,1.5-1Zm0,2a.38.38,0,0,1,0-.75A.38.38,0,0,1,28.51,17.38Z"/><path class="cls-1" d="M18.51,7.13A1.6,1.6,0,0,0,19.13,7c.5.4,1.15,1.58,1.82.94S20.4,6.61,20,6.12a1.63,1.63,0,1,0-1.5,1Zm0-2a.38.38,0,0,1,0,.75A.38.38,0,0,1,18.51,5.13Z"/><path class="cls-1" d="M16.93,12a.65.65,0,0,0-.83,0l-6,5.35a.62.62,0,0,0-.19.63l2.26,8.52v5a.63.63,0,0,0,.62.63h7.46a.63.63,0,0,0,.63-.63v-5S23.11,18,23.12,18a.65.65,0,0,0-.19-.63Zm0,9.47a.38.38,0,0,1-.75,0A.38.38,0,0,1,16.89,21.5Zm2.74,9.38H13.42V27.13h6.21Zm.11-5H13.28l-2.07-7.82,4.68-4.17V20a1.63,1.63,0,1,0,1.25,0V13.89l4.67,4.17Z"/><path class="cls-1" d="M26.14,12.5v-3a.63.63,0,0,0-.63-.62h-3c-.76,0-.62.86-.62,1.38a10.56,10.56,0,0,0-11.75,0c0-.52.13-1.37-.63-1.38h-3a.62.62,0,0,0-.62.62v3a.63.63,0,0,0,.62.63h3c.73,0,.63-.81.63-1.32a9.32,9.32,0,0,1,11.75,0c0,.51-.11,1.3.62,1.32h3A.63.63,0,0,0,26.14,12.5ZM8.89,11.88H7.14V10.13H8.89Zm16,0H23.14V10.13h1.75Z"/></g></svg>