<svg xmlns="http://www.w3.org/2000/svg" viewBox="0 0 36 36">
  <g fill="#231f20">
    <path d="M28.51 15.38a1.59 1.59 0 0 0-.62.12l-1.19-1.19a.61.61 0 0 0-.88 0 .63.63 0 0 0 0 .88L27 16.38a1.63 1.63 0 1 0 1.5-1Zm0 2a.38.38 0 0 1 0-.75.38.38 0 0 1 0 .75Zm-10-10.25a1.6 1.6 0 0 0 .62-.13c.5.4 1.15 1.58 1.82.94S20.4 6.61 20 6.12a1.63 1.63 0 1 0-1.5 1Zm0-2a.38.38 0 0 1 0 .75.38.38 0 0 1 0-.75ZM16.93 12a.65.65 0 0 0-.83 0l-6 5.35a.62.62 0 0 0-.19.63l2.26 8.52v5a.63.63 0 0 0 .62.63h7.46a.63.63 0 0 0 .63-.63v-5s2.23-8.5 2.24-8.5a.65.65 0 0 0-.19-.63Zm0 9.47a.38.38 0 0 1-.75 0 .38.38 0 0 1 .71.03Zm2.74 9.38h-6.25v-3.72h6.21Zm.11-5h-6.5l-2.07-7.82 4.68-4.17V20a1.63 1.63 0 1 0 1.25 0v-6.11l4.67 4.17Z"/>
    <path d="M26.14 12.5v-3a.63.63 0 0 0-.63-.62h-3c-.76 0-.62.86-.62 1.38a10.56 10.56 0 0 0-11.75 0c0-.52.13-1.37-.63-1.38h-3a.62.62 0 0 0-.62.62v3a.63.63 0 0 0 .62.63h3c.73 0 .63-.81.63-1.32a9.32 9.32 0 0 1 11.75 0c0 .51-.11 1.3.62 1.32h3a.63.63 0 0 0 .63-.63Zm-17.25-.62H7.14v-1.75h1.75Zm16 0h-1.75v-1.75h1.75Z"/>
  </g>
</svg>
