<svg id="a0702f4a-9271-4069-a0f0-490f75e020d9" data-name="Icon" xmlns="http://www.w3.org/2000/svg" viewBox="0 0 36 36">
  <g>
    <path d="M31,8.38H20a.61.61,0,0,0-.62.62v5A6.63,6.63,0,0,0,26,20.62h4.37a5.9,5.9,0,0,1-6.32,5.74.62.62,0,0,0-.67.57c-.05.64.63.73,1.12.69a7.12,7.12,0,0,0,7.12-7.12c0-.69,0-10.53,0-11.5A.61.61,0,0,0,31,8.38ZM20.62,14V9.62h9.76v9.76H26A5.39,5.39,0,0,1,20.62,14Z"/>
    <path d="M16,8.38H5A.61.61,0,0,0,4.38,9v5A6.63,6.63,0,0,0,11,20.62h4.37a5.9,5.9,0,0,1-6.32,5.74.62.62,0,0,0-.67.57c-.05.64.63.73,1.12.69a7.12,7.12,0,0,0,7.12-7.12c0-.69,0-10.53,0-11.5A.61.61,0,0,0,16,8.38ZM5.62,14V9.62h9.76v9.76H11A5.39,5.39,0,0,1,5.62,14Z"/>
  </g>
</svg>
