<svg id="ed40df79-c529-435b-84ab-55ca53f691d5" data-name="Icon" xmlns="http://www.w3.org/2000/svg" viewBox="0 0 36 36">
  <g>
    <path d="M28,4.38H12a.7.7,0,0,0-.44.18l-4,4a.55.55,0,0,0-.15.28c0,.05,0,.11,0,.16V31a.61.61,0,0,0,.62.62H28a.6.6,0,0,0,.62-.62V5A.61.61,0,0,0,28,4.38ZM11.38,6.51V8.38H9.51Zm16,23.87H8.62V9.62H12A.61.61,0,0,0,12.62,9V5.62H27.38Z"/>
    <path d="M13.38,21.38H12a.62.62,0,0,0,0,1.24H24a.61.61,0,0,0,.62-.62c0-.92-1.28-.56-2-.62V14a.62.62,0,0,0-1.24,0v7.38H18.62V17a.62.62,0,0,0-1.24,0v4.38H14.62V19a.62.62,0,0,0-1.24,0Z"/>
  </g>
</svg>
