<svg id="fef4b895-d423-421f-9a5d-40b760476e8a" data-name="Icon" xmlns="http://www.w3.org/2000/svg" viewBox="0 0 36 36">
  <g>
    <path d="M26,20.38a.62.62,0,0,0-.62.62v6.88H5.62V8.12H25.38V15a.62.62,0,0,0,1.24,0V7.5A.62.62,0,0,0,26,6.88H5a.62.62,0,0,0-.62.62v21a.62.62,0,0,0,.62.62H26a.62.62,0,0,0,.62-.62V21A.62.62,0,0,0,26,20.38Z"/>
    <path d="M31.61,18.08a.63.63,0,0,0-.17-.52l-2-2c-.56-.58-1.46.32-.88.88l.93.94H19a.62.62,0,0,0,0,1.24H29.49l-.93.94a.62.62,0,0,0,.88.88l2-2A.64.64,0,0,0,31.61,18.08Z"/>
  </g>
</svg>
