<svg id="f7e78865-1893-4b71-bab0-4977f73b0245" data-name="Icon" xmlns="http://www.w3.org/2000/svg" viewBox="0 0 36 36">
  <g>
    <path d="M26,19.38a.62.62,0,0,0-.62.62V30.38H6.62V9.62H10A.62.62,0,0,0,10.62,9V5.62H25.38V8a.62.62,0,1,0,1.24,0V5A.62.62,0,0,0,26,4.38H10l-.16,0a.59.59,0,0,0-.28.15l-4,4A.78.78,0,0,0,5.38,9V31a.62.62,0,0,0,.62.62H26a.62.62,0,0,0,.62-.62V20A.62.62,0,0,0,26,19.38ZM9.38,6.51V8.38H7.51Z"/>
    <path d="M31.44,10.56l-2-2a.61.61,0,0,0-.88,0l-13,13a1.27,1.27,0,0,0-.13.19l-1.61,3.6a.63.63,0,0,0,.83.83l3.6-1.61s.06,0,.09-.06,13-13,13.1-13.07A.61.61,0,0,0,31.44,10.56ZM27,11.88,28.12,13,18,23.12,16.88,22ZM16.2,23.09l.71.71-1.28.57Zm12.8-11L27.88,11,29,9.88,30.12,11Z"/>
  </g>
</svg>
