<svg id="aa90a373-46bd-4a0e-ae21-f7d0b8a077d6" data-name="Icon" xmlns="http://www.w3.org/2000/svg" viewBox="0 0 36 36">
  <g>
    <path d="M31,14.71H11L30.6,10.54a.62.62,0,0,0,.4-.27.6.6,0,0,0,.08-.47l-.9-4.27a.64.64,0,0,0-.75-.48L4,10.46a.6.6,0,0,0-.39.27.65.65,0,0,0-.09.47l.87,4.07s0,0,0,.07v15A.62.62,0,0,0,5,31H31a.62.62,0,0,0,.62-.62v-15A.63.63,0,0,0,31,14.71Zm-1.92-8.3.65,3L5.52,14.59l-.65-3Zm1.3,23.3H5.62V16H30.38Z"/>
    <path d="M15.49,26.3a.59.59,0,0,0,.31-.09l5-2.83a.64.64,0,0,0,0-1.09l-5-2.83a.62.62,0,0,0-.62,0,.61.61,0,0,0-.31.54v5.67a.61.61,0,0,0,.31.54A.56.56,0,0,0,15.49,26.3Zm.63-5.23,3.12,1.77L16.12,24.6Z"/>
  </g>
</svg>
