<svg id="ecacae71-d00f-43f3-b961-440b9ecf1ebf" data-name="Icon" xmlns="http://www.w3.org/2000/svg" viewBox="0 0 36 36">
  <g>
    <path d="M31.44,4.56a.61.61,0,0,0-.88,0L18.62,16.49V7a.63.63,0,0,0-1-.5L9.79,12.37H6A1.62,1.62,0,0,0,4.38,14v8A1.62,1.62,0,0,0,6,23.62H9.79l1,.73-6.2,6.21a.61.61,0,0,0,0,.88.63.63,0,0,0,.88,0l26-26A.61.61,0,0,0,31.44,4.56ZM10.38,22.5a.65.65,0,0,0-.38-.13H6A.38.38,0,0,1,5.62,22V14A.38.38,0,0,1,6,13.62h4a.66.66,0,0,0,.38-.12l7-5.25v9.49l-5.72,5.72Z"/>
    <path d="M18,21.37a.63.63,0,0,0-.62.63v5.75l-3-2.25a.63.63,0,1,0-.76,1l4,3a.63.63,0,0,0,1-.5V22A.63.63,0,0,0,18,21.37Z"/>
    <path d="M26.56,13.58a.65.65,0,0,0-.85-.27.64.64,0,0,0-.26.85,8.36,8.36,0,0,1-1.53,9.76.63.63,0,0,0,.89.88A9.61,9.61,0,0,0,26.56,13.58Z"/>
    <path d="M28.58,10.47a.63.63,0,0,0-.19.87,12.4,12.4,0,0,1-1.66,15.38.63.63,0,0,0,.88.89,13.66,13.66,0,0,0,1.83-16.95A.63.63,0,0,0,28.58,10.47Z"/>
    <path d="M22.77,16.39a.61.61,0,0,0-.48.73,4.38,4.38,0,0,1-1.2,4A.63.63,0,0,0,22,22a5.62,5.62,0,0,0,1.53-5.11A.61.61,0,0,0,22.77,16.39Z"/>
  </g>
</svg>
