<svg id="aac06453-8c21-4124-8b97-a13502e7c472" data-name="Icon" xmlns="http://www.w3.org/2000/svg" viewBox="0 0 36 36">
  <g>
    <path d="M18.28,6.44a.63.63,0,0,0-.66.06L9.79,12.38H6A1.61,1.61,0,0,0,4.38,14v8A1.61,1.61,0,0,0,6,23.62H9.79l7.83,5.88a.63.63,0,0,0,1-.5V7A.63.63,0,0,0,18.28,6.44Zm-.9,21.31-7-5.25a.66.66,0,0,0-.38-.12H6A.38.38,0,0,1,5.62,22V14A.38.38,0,0,1,6,13.62h4a.66.66,0,0,0,.38-.12l7-5.25Z"/>
    <path d="M24.81,11.19a.63.63,0,0,0-.89.89,8.37,8.37,0,0,1,0,11.84.63.63,0,0,0,.89.89A9.65,9.65,0,0,0,24.81,11.19Z"/>
    <path d="M27.61,8.39a.63.63,0,0,0-.88,0,.61.61,0,0,0,0,.88,12.37,12.37,0,0,1,0,17.46.61.61,0,0,0,0,.88.63.63,0,0,0,.88,0A13.6,13.6,0,0,0,27.61,8.39Z"/>
    <path d="M21.09,14a.64.64,0,0,0,0,.89,4.38,4.38,0,0,1,0,6.18A.63.63,0,0,0,22,22a5.66,5.66,0,0,0,0-8A.64.64,0,0,0,21.09,14Z"/>
  </g>
</svg>
