<svg xmlns="http://www.w3.org/2000/svg" viewBox="0 0 32 32">
  <path d="M16.31 19.1a.43.43 0 0 1-.62 0l-2.48-2.48L8 21.84h16l-5.22-5.22Zm-8.94-8.32v10.44L12.59 16l-5.22-5.22z"/>
  <path d="M13.52 15.69 16 18.17l2.48-2.48 5.53-5.53H7.99l5.53 5.53zm11.11 5.53V10.78L19.41 16l5.22 5.22z"/>
  <path d="M30.81 0H1.19A1.19 1.19 0 0 0 0 1.19v29.62A1.19 1.19 0 0 0 1.19 32h29.62A1.19 1.19 0 0 0 32 30.81V1.19A1.19 1.19 0 0 0 30.81 0ZM25.5 22.28a.44.44 0 0 1-.43.43H6.93a.44.44 0 0 1-.43-.43V9.72a.44.44 0 0 1 .44-.43h18.12a.44.44 0 0 1 .44.43Z"/>
</svg>
