<svg xmlns="http://www.w3.org/2000/svg" viewBox="0 0 32 32">
  <g id="a16a6da0-4613-40cf-b9ee-23320552bcc8" data-name="Email">
    <g>
      <path d="M16.31,19.1a.43.43,0,0,1-.62,0l-2.48-2.48L8,21.84H24l-5.22-5.22Z"/>
      <polygon points="7.37 10.78 7.37 21.22 12.59 16 7.37 10.78"/>
      <polygon points="13.52 15.69 13.52 15.69 16 18.17 18.48 15.69 18.48 15.69 18.48 15.69 24.01 10.16 7.99 10.16 13.52 15.69 13.52 15.69"/>
      <polygon points="24.63 21.22 24.63 10.78 19.41 16 24.63 21.22"/>
      <path d="M30.81,0H1.19A1.19,1.19,0,0,0,0,1.19V30.81A1.19,1.19,0,0,0,1.19,32H30.81A1.19,1.19,0,0,0,32,30.81V1.19A1.19,1.19,0,0,0,30.81,0ZM25.5,22.28a.44.44,0,0,1-.43.43H6.93a.44.44,0,0,1-.43-.43V9.72a.44.44,0,0,1,.44-.43H25.06a.44.44,0,0,1,.44.43Z"/>
    </g>
  </g>
</svg>
