<svg xmlns="http://www.w3.org/2000/svg" viewBox="0 0 32 32">
  <defs>
    <style>
      .bf20bbff-01a9-4258-8761-195bb9c3c178 {
        fill: #fff;
      }
    </style>
  </defs>
  <g id="fa6b4035-9b31-4454-a8f8-114dd1abbe9d" data-name="Email">
    <rect width="32" height="32" rx="1.19"/>
    <path class="bf20bbff-01a9-4258-8761-195bb9c3c178" d="M25.5,22.28V9.72a.44.44,0,0,0-.44-.43H6.94a.44.44,0,0,0-.44.43V22.28a.44.44,0,0,0,.43.43H25.07A.44.44,0,0,0,25.5,22.28Zm-7-6.59h0L16,18.17l-2.48-2.48h0L8,10.16H24ZM12.59,16,7.37,21.22V10.78Zm.62.62,2.48,2.48a.43.43,0,0,0,.62,0l2.48-2.48L24,21.84H8Zm6.2-.62,5.22-5.22V21.22Z"/>
  </g>
</svg>
