<svg xmlns="http://www.w3.org/2000/svg" viewBox="0 0 32 32">
  <defs>
    <style>
      .ab0af684-084e-4685-a583-a524781171ad {
        fill-rule: evenodd;
      }
    </style>
  </defs>
  <g id="f5feb67b-9f1e-43be-af60-841f6394a8de" data-name="Microsoft">
    <path class="ab0af684-084e-4685-a583-a524781171ad" d="M30.81,0H1.19A1.19,1.19,0,0,0,0,1.19V30.81A1.19,1.19,0,0,0,1.19,32H30.81A1.19,1.19,0,0,0,32,30.81V1.19A1.19,1.19,0,0,0,30.81,0ZM19.5,26.68c-.56.11-.76-.24-.76-.53s0-1.56,0-3A2.62,2.62,0,0,0,18,21.07c2.47-.28,5.05-1.21,5.05-5.46a4.25,4.25,0,0,0-1.13-3,4,4,0,0,0-.11-2.93s-.93-.3-3,1.13a10.55,10.55,0,0,0-5.54,0c-2.11-1.43-3-1.13-3-1.13a4,4,0,0,0-.11,2.93,4.29,4.29,0,0,0-1.13,3c0,4.24,2.58,5.19,5,5.47a2.36,2.36,0,0,0-.7,1.48,2.36,2.36,0,0,1-3.22-.92A2.32,2.32,0,0,0,8.37,20.5s-1.08,0-.08.67a2.91,2.91,0,0,1,1.23,1.62s.65,2.15,3.72,1.48c0,.92,0,1.62,0,1.88s-.2.63-.76.53a11.06,11.06,0,1,1,7,0Z"/>
  </g>
</svg>
