<svg xmlns="http://www.w3.org/2000/svg" viewBox="0 0 30 30">
  <defs>
    <style>
      .acbe23e4-b289-4da2-ac12-296dfd0b3b80 {
        fill: none;
      }

      .a0063b35-7bd6-4b2b-9491-1ea5091834fa {
        fill-rule: evenodd;
      }
    </style>
  </defs>
  <g id="e5462471-217c-48cb-b2c5-d2ae13705884" data-name="Twitter">
    <rect class="acbe23e4-b289-4da2-ac12-296dfd0b3b80" width="30" height="30"/>
  </g>
  <g id="ae58d65c-08e4-43ad-be22-c90c0b68b587" data-name="GitHub">
    <path class="a0063b35-7bd6-4b2b-9491-1ea5091834fa" d="M15,4.22a11.05,11.05,0,0,0-3.5,21.54c.56.11.76-.24.76-.53s0-1,0-1.88c-3.07.67-3.72-1.48-3.72-1.48a2.91,2.91,0,0,0-1.23-1.62c-1-.68.08-.67.08-.67a2.32,2.32,0,0,1,1.69,1.14,2.36,2.36,0,0,0,3.22.92,2.39,2.39,0,0,1,.7-1.48c-2.45-.28-5-1.23-5-5.46a4.3,4.3,0,0,1,1.13-3A4,4,0,0,1,9.19,8.8s.93-.3,3,1.14a10.29,10.29,0,0,1,5.54,0c2.11-1.44,3-1.14,3-1.14a4,4,0,0,1,.11,2.93,4.25,4.25,0,0,1,1.13,3c0,4.24-2.58,5.18-5.05,5.45a2.63,2.63,0,0,1,.75,2.05c0,1.48,0,2.67,0,3s.2.64.76.53A11.05,11.05,0,0,0,15,4.22Z"/>
  </g>
</svg>
