<svg xmlns="http://www.w3.org/2000/svg" viewBox="0 0 32 32">
  <g id="e36573b1-9ced-41e5-a29c-ae41c0eaf987" data-name="Google">
    <path id="a648ab83-5ecc-401e-bb9f-dc4781937c8f" data-name="One-color black" d="M30.81,0H1.19A1.19,1.19,0,0,0,0,1.19V30.81A1.19,1.19,0,0,0,1.19,32H30.81A1.19,1.19,0,0,0,32,30.81V1.19A1.19,1.19,0,0,0,30.81,0ZM16.14,26.05A10.05,10.05,0,1,1,22.9,8.57c-2.1,2-2,2.1-2.86,2.93A5.66,5.66,0,0,0,16.14,10a5.88,5.88,0,0,0-5.87,6,5.88,5.88,0,0,0,5.87,6c3.26,0,4.58-1.4,5.43-4H16.14V14h9.65C26.46,18.83,24.44,26.05,16.14,26.05Z"/>
  </g>
</svg>
