<svg xmlns="http://www.w3.org/2000/svg" viewBox="0 0 32 32">
  <defs>
    <style>
      .e0c1e5a2-3c50-4f06-95c4-9e919d276b5a {
        fill: #fff;
        fill-rule: evenodd;
      }
    </style>
  </defs>
  <g id="b0b96e3c-e088-425d-985f-5e168da43cd6" data-name="Messenger">
    <g id="f1ec41bb-e27a-47bc-9fd1-ed43d1f1b18e" data-name="Black and white">
      <rect width="32" height="32" rx="1.19"/>
    </g>
    <path class="e0c1e5a2-3c50-4f06-95c4-9e919d276b5a" d="M16,5.49A10.14,10.14,0,0,0,5.49,15.68a10,10,0,0,0,3.3,7.54.83.83,0,0,1,.28.6l.06,1.87a.84.84,0,0,0,1.18.75l2.09-.92a.77.77,0,0,1,.56,0,11.62,11.62,0,0,0,3,.4A10.2,10.2,0,1,0,16,5.49Zm6.31,7.84-3.09,4.9a1.57,1.57,0,0,1-2.28.42l-2.45-1.84a.63.63,0,0,0-.76,0l-3.32,2.52a.5.5,0,0,1-.72-.66l3.09-4.9a1.57,1.57,0,0,1,2.28-.42l2.45,1.84a.63.63,0,0,0,.76,0l3.32-2.52A.5.5,0,0,1,22.31,13.33Z"/>
  </g>
</svg>
