<svg xmlns="http://www.w3.org/2000/svg" viewBox="0 0 30 30">
  <defs>
    <style>
      .ea02f9f7-2e0a-47c5-91ed-21e53a0fa36f {
        fill: none;
      }

      .ba55bda5-f016-4d21-b6ef-8a5a873e6f37 {
        fill-rule: evenodd;
      }
    </style>
  </defs>
  <g id="b02eb795-1dd6-4143-aea9-c0419b480d15" data-name="Messenger">
    <rect class="ea02f9f7-2e0a-47c5-91ed-21e53a0fa36f" width="30" height="30"/>
    <path class="ba55bda5-f016-4d21-b6ef-8a5a873e6f37" d="M15,3.76C8.67,3.76,3.76,8.4,3.76,14.66a10.67,10.67,0,0,0,3.53,8.07.9.9,0,0,1,.3.64l.06,2a.9.9,0,0,0,1.26.8l2.23-1a.91.91,0,0,1,.61,0,12.26,12.26,0,0,0,3.25.43c6.33,0,11.24-4.64,11.24-10.91S21.33,3.76,15,3.76Zm6.75,8.39-3.3,5.24a1.69,1.69,0,0,1-2.44.45l-2.63-2a.68.68,0,0,0-.81,0L9,18.56a.53.53,0,0,1-.77-.71l3.3-5.24A1.69,1.69,0,0,1,14,12.16l2.63,2a.68.68,0,0,0,.81,0L21,11.44A.53.53,0,0,1,21.75,12.15Z"/>
  </g>
</svg>
