<svg xmlns="http://www.w3.org/2000/svg" viewBox="0 0 32 32">
  <g id="ac15d8bd-5c4b-4eb4-ad95-2253c1f687e4" data-name="Microsoft">
    <path id="f61ee9f4-2865-4d4b-adf7-a66de463d1f6" data-name="One-color black" d="M30.81,0H1.19A1.19,1.19,0,0,0,0,1.19V30.81A1.19,1.19,0,0,0,1.19,32H30.81A1.19,1.19,0,0,0,32,30.81V1.19A1.19,1.19,0,0,0,30.81,0ZM15.53,25.4a.1.1,0,0,1-.1.1H6.6a.09.09,0,0,1-.1-.1V16.57a.09.09,0,0,1,.1-.1h8.83a.1.1,0,0,1,.1.1Zm0-10a.1.1,0,0,1-.1.1H6.6a.09.09,0,0,1-.1-.1V6.6a.09.09,0,0,1,.1-.1h8.83a.1.1,0,0,1,.1.1Zm10,10a.09.09,0,0,1-.1.1H16.57a.1.1,0,0,1-.1-.1V16.57a.1.1,0,0,1,.1-.1H25.4a.09.09,0,0,1,.1.1Zm0-10a.09.09,0,0,1-.1.1H16.57a.1.1,0,0,1-.1-.1V6.6a.1.1,0,0,1,.1-.1H25.4a.09.09,0,0,1,.1.1Z"/>
  </g>
</svg>
