<svg xmlns="http://www.w3.org/2000/svg" viewBox="0 0 32 32">
  <g id="f25ea968-6b08-48cf-bc50-47abebbd10b9" data-name="StackOverflow">
    <path id="ff7ee786-f102-43a6-a596-83c12ffac73b" data-name="One-color black" d="M30.81,0H1.19A1.19,1.19,0,0,0,0,1.19V30.81A1.19,1.19,0,0,0,1.19,32H30.81A1.19,1.19,0,0,0,32,30.81V1.19A1.19,1.19,0,0,0,30.81,0Zm-15,9.22,6.52,5.45L21.29,16l-6.52-5.44Zm-2.52,3.55L21,16.36l-.72,1.54-7.7-3.59Zm-1.45,3.84,8.27,1.72-.36,1.51-8.26-1.53Zm-.35,3.75h8.22V21.9H11.53ZM23.34,25.5H7.94V18.82H10v4.62h11.3V18.82h2.05Zm-.67-11.14L17.59,7.53,19,6.5l5.08,6.83Z"/>
  </g>
</svg>
