<svg xmlns="http://www.w3.org/2000/svg" viewBox="0 0 32 32">
  <defs>
    <style>
      .e1335b75-92cb-4789-aa40-3a974e016787 {
        fill: #fff;
      }
    </style>
  </defs>
  <g id="a129b115-d56f-40bb-b5ec-f3027b09115f" data-name="Twitter">
    <g>
      <rect width="32" height="32" rx="1.19"/>
      <path class="e1335b75-92cb-4789-aa40-3a974e016787" d="M24.84,11.5c0,.18,0,.37,0,.56A12.25,12.25,0,0,1,6,22.37a8.72,8.72,0,0,0,6.38-1.78,4.3,4.3,0,0,1-4-3,4.28,4.28,0,0,0,.81.07,4.22,4.22,0,0,0,1.13-.15A4.29,4.29,0,0,1,6.85,13.3v-.05a4.4,4.4,0,0,0,2,.54A4.3,4.3,0,0,1,6.88,10.2,4.22,4.22,0,0,1,7.47,8a12.22,12.22,0,0,0,8.87,4.5,4,4,0,0,1-.11-1,4.3,4.3,0,0,1,7.44-3,8.73,8.73,0,0,0,2.74-1A4.37,4.37,0,0,1,24.51,10,9,9,0,0,0,27,9.27a8.94,8.94,0,0,1-2.15,2.23Z"/>
    </g>
  </g>
</svg>
