<svg xmlns="http://www.w3.org/2000/svg" viewBox="0 0 30 30">
  <defs>
    <style>
      .fff739a3-7457-43df-9900-1e8ab91690dd {
        fill: none;
      }
    </style>
  </defs>
  <g id="aa0a5b2c-2b24-4704-8aa9-9fb35f4df0bd" data-name="Twitter">
    <rect class="fff739a3-7457-43df-9900-1e8ab91690dd" width="30" height="30"/>
    <path d="M24.11,10.33c0,.2,0,.4,0,.61A13.37,13.37,0,0,1,3.54,22.2a10.51,10.51,0,0,0,1.12.06,9.43,9.43,0,0,0,5.84-2A4.72,4.72,0,0,1,6.11,17a5.17,5.17,0,0,0,.89.08,5,5,0,0,0,1.23-.16A4.72,4.72,0,0,1,4.46,12.3v-.06a4.81,4.81,0,0,0,2.13.59A4.72,4.72,0,0,1,4.5,8.91a4.61,4.61,0,0,1,.64-2.36,13.34,13.34,0,0,0,9.69,4.91,4.71,4.71,0,0,1,8-4.29,9.27,9.27,0,0,0,3-1.14,4.69,4.69,0,0,1-2.06,2.6,9.16,9.16,0,0,0,2.7-.74,9.57,9.57,0,0,1-2.35,2.44Z"/>
  </g>
</svg>
