<svg id="abccc3cd-a8a7-463d-a427-8ef6c74a4f40" data-name="WeChat" xmlns="http://www.w3.org/2000/svg" viewBox="0 0 30 30">
  <defs>
    <style>
      .f8de4bc0-a479-4aa2-863b-11b1aa7bd207 {
        fill: none;
      }
    </style>
  </defs>
  <rect class="f8de4bc0-a479-4aa2-863b-11b1aa7bd207" width="30" height="30"/>
  <g>
    <path d="M11.7,20.51c-.49,0-1,0-1.46,0a11,11,0,0,1-2.48-.45.82.82,0,0,0-.7.09L5,21.39l-.22.1c-.3.1-.49-.06-.45-.37a5.63,5.63,0,0,1,.14-.59l.35-1.28a.62.62,0,0,0-.28-.79,8.34,8.34,0,0,1-3-3.76,7,7,0,0,1,.6-6.38,9.23,9.23,0,0,1,4.64-3.8,11.75,11.75,0,0,1,6.45-.67,10.69,10.69,0,0,1,5.1,2.27,8,8,0,0,1,2.79,4.25c0,.14.06.27.09.42h-.9A10.07,10.07,0,0,0,14,13.09a7.06,7.06,0,0,0-2.55,4.26,6.31,6.31,0,0,0,.17,3ZM7.78,8.06a1.35,1.35,0,0,0,0,2.69A1.37,1.37,0,0,0,9.11,9.44,1.34,1.34,0,0,0,7.78,8.06Zm8.1,1.34a1.35,1.35,0,1,0-2.69,0,1.35,1.35,0,1,0,2.69,0Z"/>
    <path d="M20.72,11.45a9.22,9.22,0,0,1,5.53,1.85,6.58,6.58,0,0,1,2.63,4.08,6,6,0,0,1-1.07,4.69,7.54,7.54,0,0,1-1.71,1.72c-.27.19-.31.3-.22.63l.36,1.36c0,.17.11.37-.07.5s-.33,0-.48-.08l-1.72-1a.72.72,0,0,0-.64-.08,9.79,9.79,0,0,1-7.17-.63A7.1,7.1,0,0,1,12.68,21a5.94,5.94,0,0,1,1.06-6.69,8.33,8.33,0,0,1,4.32-2.57A10.39,10.39,0,0,1,20.72,11.45Zm-1.85,4.78a1.14,1.14,0,1,0-2.28,0,1.14,1.14,0,1,0,2.28,0Zm5.6,0a1.15,1.15,0,0,0-2.29,0,1.15,1.15,0,1,0,2.29,0Z"/>
  </g>
</svg>
