<svg id="abc238c2-b55a-4a15-9dd5-d1285c440723" data-name="WeChat" xmlns="http://www.w3.org/2000/svg" viewBox="0 0 32 32">
  <defs>
    <style>
      .a65d0460-efca-499e-a965-492b1f42b17c {
        fill: #fff;
      }
    </style>
  </defs>
  <g id="ff77ca9a-ca68-49e8-aede-3b0aaeed638b" data-name="Black and white">
    <rect width="32" height="32" rx="1.19"/>
  </g>
  <g>
    <path class="a65d0460-efca-499e-a965-492b1f42b17c" d="M13.53,21c-.45,0-.88,0-1.31,0a10,10,0,0,1-2.24-.4.75.75,0,0,0-.62.08l-1.9,1.11a.72.72,0,0,1-.2.09c-.27.09-.44,0-.4-.33A5.11,5.11,0,0,1,7,21l.3-1.15a.56.56,0,0,0-.24-.71,7.42,7.42,0,0,1-2.68-3.38A6.31,6.31,0,0,1,4.91,10,8.28,8.28,0,0,1,9.08,6.58,10.54,10.54,0,0,1,14.88,6,9.67,9.67,0,0,1,19.47,8,7.16,7.16,0,0,1,22,11.84c0,.12.06.24.09.38h-.82a9,9,0,0,0-5.62,2.06,6.36,6.36,0,0,0-2.3,3.83,5.62,5.62,0,0,0,.16,2.67S13.51,20.89,13.53,21ZM10,9.76a1.2,1.2,0,0,0-1.22,1.18A1.21,1.21,0,1,0,10,9.76ZM17.28,11a1.19,1.19,0,0,0-1.19-1.21A1.22,1.22,0,0,0,14.86,11a1.23,1.23,0,0,0,1.21,1.21A1.21,1.21,0,0,0,17.28,11Z"/>
    <path class="a65d0460-efca-499e-a965-492b1f42b17c" d="M21.64,12.81a8.18,8.18,0,0,1,5,1.67A5.89,5.89,0,0,1,29,18.14,5.39,5.39,0,0,1,28,22.36a7,7,0,0,1-1.54,1.54.42.42,0,0,0-.2.57c.11.41.22.82.32,1.23,0,.15.1.32-.06.44s-.3,0-.43-.07l-1.54-.89a.7.7,0,0,0-.58-.07,8.8,8.8,0,0,1-6.45-.57,6.36,6.36,0,0,1-3.13-3.13,5.34,5.34,0,0,1,1-6,7.38,7.38,0,0,1,3.88-2.31A9.22,9.22,0,0,1,21.64,12.81ZM20,17.11a1,1,0,0,0-2.05,0,1,1,0,1,0,2.05,0Zm5,0a1,1,0,0,0-2.05,0,1,1,0,0,0,1,1.05A1,1,0,0,0,25,17.12Z"/>
  </g>
</svg>
