<svg xmlns="http://www.w3.org/2000/svg" viewBox="0 0 30 30">
  <defs>
    <style>
      .f4eb66cc-73a0-44a1-b4bc-adf2ff0605be {
        fill: none;
      }
    </style>
  </defs>
  <g id="efd35e93-7c40-4e51-bb8e-a85b73223b83" data-name="Weibo">
    <rect class="f4eb66cc-73a0-44a1-b4bc-adf2ff0605be" width="30" height="30"/>
    <g>
      <path d="M15.42,11.45l1.34-.32c.75-.17,1.5-.37,2.26-.5a2.81,2.81,0,0,1,1.78.2,1.46,1.46,0,0,1,.92,1.37c0,.68-.14,1.36-.22,2.12l.28.16c.51.26,1,.5,1.51.78A3,3,0,0,1,24.73,19a6,6,0,0,1-2.49,3.32,13.69,13.69,0,0,1-5.95,2.35,15.13,15.13,0,0,1-8-.63A13.57,13.57,0,0,1,5.7,22.7c-2.33-1.54-3-3.69-2.16-6.44A8.06,8.06,0,0,1,5,13.55a16.92,16.92,0,0,1,5.69-5,10.26,10.26,0,0,1,2.42-.8,1.9,1.9,0,0,1,2.44,2A15.35,15.35,0,0,1,15.42,11.45ZM12.51,23.61a11.19,11.19,0,0,0,5.29-1.33A6,6,0,0,0,20,20.39a3.66,3.66,0,0,0-1-5.25,7.27,7.27,0,0,0-1.46-.77,11.06,11.06,0,0,0-6-.45A8.5,8.5,0,0,0,7,16.11a3.76,3.76,0,0,0,.63,6.24A8.86,8.86,0,0,0,12.51,23.61Z"/>
      <path d="M21.64,5.07a6,6,0,0,1,6.06,4.8c.12,1.23.43,2.57-.23,3.69a.71.71,0,0,1-1.3-.54c1-3.95-2-6.89-5.9-6.43-.5,0-.68-.15-.69-.51C19.5,4.82,20.85,5.23,21.64,5.07Z"/>
      <path d="M21.49,8.51a2.86,2.86,0,0,1,2.79,4,.6.6,0,0,1-.78.28c-.29-.08-.33-.33-.32-.59.18-1.9-.53-2.41-2.34-2.53a.57.57,0,0,1,0-1.13C21,8.5,21.27,8.51,21.49,8.51Z"/>
      <path d="M13.1,15.69a3.77,3.77,0,0,1,2.09.58A3.12,3.12,0,0,1,16,20.92a5.05,5.05,0,0,1-5.48,1.35,3.13,3.13,0,0,1-1.23-4.76A4.8,4.8,0,0,1,13.1,15.69ZM11.25,21a1.33,1.33,0,0,0,1.4-1.37.94.94,0,0,0-1-1,1.39,1.39,0,0,0-1.51,1.27A1.06,1.06,0,0,0,11.25,21Zm2.07-2.15h.14c.2-.06.43-.23.42-.46a.55.55,0,0,0-.4-.35.44.44,0,0,0-.39.13.4.4,0,0,0-.12.34A.41.41,0,0,0,13.32,18.88Z"/>
    </g>
  </g>
</svg>
