<svg xmlns="http://www.w3.org/2000/svg" viewBox="0 0 30 30">
  <defs>
    <style>
      .fa2b6a79-20fb-4cdb-90e5-fa5e291fbded {
        fill: none;
      }

      .f07da8cf-fac2-45ec-bbd2-be92db4021ba {
        fill-rule: evenodd;
      }
    </style>
  </defs>
  <g id="b87cec55-2676-406f-a1db-093f27628edd" data-name="WhatsApp">
    <rect class="fa2b6a79-20fb-4cdb-90e5-fa5e291fbded" width="30" height="30"/>
    <g id="ea6206a4-c55e-4ea6-ad69-8edc200baa08" data-name="WA Logo">
      <path class="f07da8cf-fac2-45ec-bbd2-be92db4021ba" d="M22.77,7.19A10.92,10.92,0,0,0,5.59,20.36L4,26l5.79-1.52A10.85,10.85,0,0,0,15,25.82h0A10.92,10.92,0,0,0,22.77,7.19ZM15.05,24h0a9,9,0,0,1-4.61-1.27l-.34-.19-3.43.9.92-3.35-.22-.34A9,9,0,0,1,6,14.9,9.07,9.07,0,1,1,15.05,24Zm5-6.79c-.27-.14-1.61-.8-1.86-.89s-.43-.14-.62.14-.7.88-.86,1.06-.32.21-.59.07a7.25,7.25,0,0,1-2.19-1.35,8.3,8.3,0,0,1-1.52-1.89c-.16-.27,0-.42.12-.56s.27-.31.41-.47a1.79,1.79,0,0,0,.27-.46.51.51,0,0,0,0-.48c-.07-.13-.61-1.48-.84-2s-.45-.46-.62-.47h-.52a1,1,0,0,0-.72.34,3.07,3.07,0,0,0-1,2.28,5.36,5.36,0,0,0,1.11,2.82,12.34,12.34,0,0,0,4.66,4.12,16.42,16.42,0,0,0,1.56.57,3.68,3.68,0,0,0,1.71.11,2.78,2.78,0,0,0,1.84-1.3,2.25,2.25,0,0,0,.16-1.3C20.48,17.39,20.29,17.32,20,17.19Z"/>
    </g>
  </g>
</svg>
