<svg xmlns="http://www.w3.org/2000/svg" viewBox="0 0 32 32">
  <rect width="32" height="32" rx="1.19"/>
  <path d="M23.92 8.4A10.5 10.5 0 0 0 7.39 21.07L5.9 26.51l5.57-1.46a10.54 10.54 0 0 0 5 1.28A10.51 10.51 0 0 0 23.92 8.4Zm-7.43 16.15A8.77 8.77 0 0 1 12 23.34l-.32-.19-3.26.85.88-3.22-.2-.33a8.65 8.65 0 0 1-1.34-4.64 8.73 8.73 0 1 1 8.73 8.73ZM21.28 18c-.27-.14-1.56-.77-1.8-.86s-.41-.13-.59.13a10.6 10.6 0 0 1-.83 1c-.15.18-.3.2-.57.07a7.33 7.33 0 0 1-2.11-1.3 8.27 8.27 0 0 1-1.46-1.82c-.15-.26 0-.41.12-.54a4.9 4.9 0 0 0 .39-.46 1.94 1.94 0 0 0 .27-.43.49.49 0 0 0 0-.46l-.81-2c-.21-.51-.43-.44-.59-.45h-.5a1 1 0 0 0-.7.33 2.92 2.92 0 0 0-.92 2.19 5.12 5.12 0 0 0 1.07 2.71 11.83 11.83 0 0 0 4.49 4 14.36 14.36 0 0 0 1.49.55 3.56 3.56 0 0 0 1.65.11 2.74 2.74 0 0 0 1.78-1.25 2.33 2.33 0 0 0 .15-1.25c-.1-.06-.27-.12-.53-.27Z" fill="#fff" fill-rule="evenodd"/>
</svg>
