<svg xmlns="http://www.w3.org/2000/svg" viewBox="0 0 32 32">
  <rect width="32" height="32" rx="1.19"/>
  <path d="M13.9 18.64v-5.72l5.5 2.87-5.5 2.85ZM26 11.93a4.42 4.42 0 0 0-.81-2 2.88 2.88 0 0 0-2-.86C20.28 8.84 16 8.84 16 8.84s-4.28 0-7.13.21a2.88 2.88 0 0 0-2 .86 4.42 4.42 0 0 0-.81 2 31.37 31.37 0 0 0-.2 3.29v1.55A31.12 31.12 0 0 0 6 20.06a4.44 4.44 0 0 0 .81 2 3.49 3.49 0 0 0 2.27.94c1.63.15 6.92.2 6.92.2s4.28 0 7.13-.21a2.93 2.93 0 0 0 2-.86 4.44 4.44 0 0 0 .81-2 31.12 31.12 0 0 0 .2-3.29v-1.62a31.37 31.37 0 0 0-.2-3.29Z" fill="#fff"/>
</svg>
