<svg xmlns="http://www.w3.org/2000/svg" viewBox="0 0 32 32">
  <defs>
    <style>
      .b54d6162-2eae-4cba-9414-03d2b4fc937c {
        fill: #fff;
      }
    </style>
  </defs>
  <g id="b3be8053-8217-4c05-8612-a66a41986154" data-name="YouTube">
    <rect width="32" height="32" rx="1.19"/>
    <path class="b54d6162-2eae-4cba-9414-03d2b4fc937c" d="M13.9,18.64V12.92l5.5,2.87-5.5,2.85ZM26,11.93a4.42,4.42,0,0,0-.81-2,2.88,2.88,0,0,0-2-.86C20.28,8.84,16,8.84,16,8.84h0s-4.28,0-7.13.21a2.88,2.88,0,0,0-2,.86,4.42,4.42,0,0,0-.81,2,31.37,31.37,0,0,0-.2,3.29v1.55A31.12,31.12,0,0,0,6,20.06a4.44,4.44,0,0,0,.81,2A3.49,3.49,0,0,0,9.08,23c1.63.15,6.92.2,6.92.2s4.28,0,7.13-.21a2.93,2.93,0,0,0,2-.86,4.44,4.44,0,0,0,.81-2,31.12,31.12,0,0,0,.2-3.29V15.22a31.37,31.37,0,0,0-.2-3.29Z"/>
  </g>
</svg>
