<svg xmlns="http://www.w3.org/2000/svg" viewBox="0 0 32 32">
  <g id="bb077d01-4ec7-42a0-8cdb-641cabe8ad26" data-name="YouTube">
    <g>
      <path d="M30.81,0H1.19A1.19,1.19,0,0,0,0,1.19V30.81A1.19,1.19,0,0,0,1.19,32H30.81A1.19,1.19,0,0,0,32,30.81V1.19A1.19,1.19,0,0,0,30.81,0ZM26.18,16.77a31.12,31.12,0,0,1-.2,3.29,4.44,4.44,0,0,1-.81,2,2.93,2.93,0,0,1-2,.86c-2.85.2-7.13.21-7.13.21s-5.29-.05-6.92-.2a3.49,3.49,0,0,1-2.25-.87,4.44,4.44,0,0,1-.81-2,31.12,31.12,0,0,1-.2-3.29V15.22A31.37,31.37,0,0,1,6,11.93a4.42,4.42,0,0,1,.81-2,2.88,2.88,0,0,1,2-.86C11.72,8.84,16,8.84,16,8.84h0s4.28,0,7.13.21a2.88,2.88,0,0,1,2,.86,4.42,4.42,0,0,1,.81,2,31.37,31.37,0,0,1,.2,3.29Z"/>
      <polygon points="13.9 18.64 19.4 15.79 13.9 12.92 13.9 18.64"/>
    </g>
  </g>
</svg>
