<svg xmlns="http://www.w3.org/2000/svg" viewBox="0 0 36 36">
  <path d="M7.5 22.375h-3a.625.625 0 0 0-.625.625v6c0 .345.28.625.625.625h3c.345 0 .625-.28.625-.625v-6a.625.625 0 0 0-.625-.625Zm-.625 6h-1.75v-4.75h1.75v4.75Zm6.625-10h-3a.625.625 0 0 0-.625.625v10c0 .345.28.625.625.625h3c.345 0 .625-.28.625-.625V19a.625.625 0 0 0-.625-.625Zm-.625 10h-1.75v-8.75h1.75v8.75Zm6.625-14h-3a.625.625 0 0 0-.625.625v14c0 .345.28.625.625.625h3c.345 0 .625-.28.625-.625V15a.625.625 0 0 0-.625-.625Zm-.625 14h-1.75v-12.75h1.75v12.75Zm6.625-18h-3a.625.625 0 0 0-.625.625v18c0 .345.28.625.625.625h3c.345 0 .625-.28.625-.625V11a.625.625 0 0 0-.625-.625Zm-.625 18h-1.75v-16.75h1.75v16.75Zm6.625-22h-3a.625.625 0 0 0-.625.625v22c0 .345.28.625.625.625h3c.345 0 .625-.28.625-.625V7a.625.625 0 0 0-.625-.625Zm-.625 22h-1.75V7.625h1.75v20.75Z"/>
</svg>
