<svg id="uuid-e81a072b-7dc4-4246-bcfb-2a43cd50c605" xmlns="http://www.w3.org/2000/svg" viewBox="0 0 36 36">
  <defs>
    <style>
      .uuid-de072173-ddb4-44b3-835c-6a72093e547f{stroke-width:0}
    </style>
  </defs>
  <g id="uuid-da758b98-9182-408a-b082-1b8424f077c5">
    <path class="uuid-de072173-ddb4-44b3-835c-6a72093e547f" d="M21.687 17.07a6.483 6.483 0 0 0 6.476-6.475 6.483 6.483 0 0 0-9.314-5.823 6.648 6.648 0 0 0-1.048.642 6.428 6.428 0 0 0-2.59 5.18 6.483 6.483 0 0 0 6.476 6.476ZM18.552 6.414a5.21 5.21 0 0 1 .845-.518 5.231 5.231 0 0 1 7.516 4.7c0 2.88-2.344 5.224-5.226 5.224s-5.225-2.343-5.225-5.225c0-1.66.762-3.183 2.09-4.18ZM9.85 12.725a6.402 6.402 0 0 0-3.38.95 6.326 6.326 0 0 0-.506.345 6.427 6.427 0 0 0-2.59 5.18c0 3.57 2.906 6.476 6.477 6.476s6.475-2.905 6.475-6.476-2.905-6.475-6.476-6.475Zm0 11.7A5.231 5.231 0 0 1 4.626 19.2c0-1.658.762-3.181 2.092-4.181a5.232 5.232 0 0 1 .844-.517 5.231 5.231 0 0 1 7.515 4.698 5.231 5.231 0 0 1-5.225 5.226Zm13.363-5.751a6.395 6.395 0 0 0-3.381.951 6.588 6.588 0 0 0-.506.345 6.426 6.426 0 0 0-2.589 5.18c0 3.57 2.905 6.475 6.476 6.475s6.475-2.905 6.475-6.476-2.904-6.475-6.475-6.475Zm0 11.701a5.231 5.231 0 0 1-5.226-5.226c0-1.658.762-3.182 2.09-4.18a5.052 5.052 0 0 1 .846-.518 5.231 5.231 0 0 1 7.515 4.698 5.231 5.231 0 0 1-5.225 5.226Z"/>
    <path class="uuid-de072173-ddb4-44b3-835c-6a72093e547f" d="M18.447 11.44a.626.626 0 0 0 0-.88.654.654 0 0 0-.69-.14.66.66 0 0 0-.2.14c-.12.11-.18.28-.18.44 0 .17.06.33.18.44.06.06.13.11.2.14.08.03.16.05.24.05.17 0 .33-.07.45-.19Zm5.14 2.96c.13 0 .26-.04.37-.13.28-.2.33-.6.12-.87-.2-.28-.6-.33-.87-.12a.621.621 0 0 0 .38 1.12Zm-3.65-2.47c.06.01.12.02.19.02.26 0 .51-.17.59-.43a.621.621 0 0 0-.41-.79.63.63 0 0 0-.37 1.2Zm2.11.98c.19 0 .38-.09.51-.26.2-.29.13-.68-.15-.88-.29-.19-.68-.13-.87.15-.2.29-.14.68.14.88.11.07.24.11.37.11Zm-8.15.082a.626.626 0 0 0 .51-.99c-.2-.28-.6-.34-.87-.14-.29.2-.35.59-.14.87.12.17.31.26.5.26Zm-2.27 4.958c0-.34-.28-.63-.62-.63-.35 0-.63.28-.63.62-.01.35.27.63.62.63.34 0 .62-.27.63-.62Zm.28 1.94a.623.623 0 1 0-1.19.37.62.62 0 0 0 .78.41c.33-.1.52-.45.41-.78Zm-.75-3.48c.06.03.13.04.19.04.26 0 .51-.17.59-.43a.62.62 0 1 0-1.18-.39c-.11.33.07.68.4.78Zm.74 5.09c-.28.19-.35.58-.15.86.12.18.32.27.51.27.13 0 .25-.03.36-.11a.625.625 0 0 0-.72-1.02Zm12.77-.74c-.23-.23-.65-.23-.89 0a.725.725 0 0 0-.18.44.725.725 0 0 0 .18.45c.12.11.28.18.45.18.16 0 .32-.07.44-.18.06-.06.1-.13.14-.21.03-.07.04-.15.04-.24 0-.08-.01-.16-.04-.23a.773.773 0 0 0-.14-.21Zm-5.37 3.48a.628.628 0 0 0 .13 1.24c.04 0 .09-.01.13-.02.34-.07.56-.4.49-.73a.637.637 0 0 0-.75-.49Zm3.27-1.79c-.24.25-.23.64.01.88a.626.626 0 0 0 .89-.01.62.62 0 0 0-.02-.88.62.62 0 0 0-.88.01Zm-1.5 1.14c-.3.17-.41.55-.25.85.12.21.33.32.55.32.1 0 .21-.02.3-.07a.62.62 0 0 0 .25-.85.615.615 0 0 0-.85-.25Zm3.69-6.52c-.08.03-.15.08-.21.13-.11.12-.18.28-.18.45 0 .08.02.16.05.24.03.07.07.14.13.2.12.12.28.18.44.18.09 0 .17-.01.24-.05.08-.03.15-.07.21-.13.05-.06.1-.13.13-.2.03-.08.05-.16.05-.24 0-.17-.07-.33-.18-.45a.728.728 0 0 0-.21-.13.64.64 0 0 0-.47 0Zm-9.07 6.87a.628.628 0 0 0-.81.36.619.619 0 0 0 .58.85c.25 0 .49-.15.58-.4a.62.62 0 0 0-.35-.81Z"/>
  </g>
</svg>
