<svg xmlns="http://www.w3.org/2000/svg" viewBox="0 0 36 36">
  <path d="M31.577 29.24a.626.626 0 0 0 0-.48.62.62 0 0 0-.113-.169c-.009-.01-.012-.023-.022-.033l-2-2a.625.625 0 1 0-.884.884l.933.933H16c-4.066 0-7.375-3.309-7.375-7.375s3.309-7.375 7.375-7.375 7.375 3.309 7.375 7.375a7.375 7.375 0 0 1-1.617 4.608.625.625 0 1 0 .974.784A8.59 8.59 0 0 0 24.625 21c0-3.154-1.707-5.91-4.24-7.414 2.368-.2 4.24-2.168 4.24-4.586A4.63 4.63 0 0 0 20 4.375c-2.34 0-4.26 1.754-4.563 4.012l-.775-1.035a.624.624 0 1 0-1 .75l1.696 2.263a.625.625 0 0 0 .875.125l2.263-1.697a.625.625 0 1 0-.75-1l-1.081.81c.199-1.672 1.61-2.978 3.335-2.978 1.86 0 3.375 1.514 3.375 3.375S21.861 12.375 20 12.375h-4c-4.756 0-8.625 3.869-8.625 8.625s3.87 8.625 8.625 8.625h13.491l-.933.933a.626.626 0 0 0 .884.884l2-2c.01-.01.013-.023.022-.034a.622.622 0 0 0 .113-.169ZM9 28.375H5a.625.625 0 0 0 0 1.25h4a.625.625 0 0 0 0-1.25Z"/>
</svg>
