<svg id="uuid-75c2af9f-7322-4fa4-bd9f-2deefd6da3ad" xmlns="http://www.w3.org/2000/svg" viewBox="0 0 36 36">
  <defs>
    <style>
      .uuid-f8121a6b-c9ce-4831-ba4e-6fc24a4f56d1{stroke-width:0}
    </style>
  </defs>
  <g id="uuid-8fe49d02-6630-4c6e-a74c-d62f98e3080f">
    <path class="uuid-f8121a6b-c9ce-4831-ba4e-6fc24a4f56d1" d="M32.625 18a7.613 7.613 0 0 0-4.15-6.788c.1-.42.15-.82.15-1.212A5.631 5.631 0 0 0 23 4.375a5.627 5.627 0 0 0-5 3.06 5.627 5.627 0 0 0-5-3.06A5.631 5.631 0 0 0 7.375 10c0 .393.049.794.149 1.212-.03.015-.056.035-.085.05-.252.135-.497.28-.732.441-.106.073-.205.153-.308.23a7.717 7.717 0 0 0-.721.617c-.129.125-.25.258-.369.392a7.588 7.588 0 0 0-.392.48 7.613 7.613 0 0 0-.309.434 7.578 7.578 0 0 0-.483.867c-.043.091-.091.18-.13.272-.117.27-.216.548-.3.833-.025.082-.043.166-.065.25-.06.228-.109.46-.147.697-.015.09-.03.179-.041.27-.04.313-.067.63-.067.955 0 .138.011.273.018.409-.004.03-.018.059-.018.091 0 .423.083.823.201 1.207a7.59 7.59 0 0 0 1.252 2.753l.016.022c.123.167.251.33.386.486.032.037.065.07.097.106.111.124.224.246.342.362.064.063.132.121.198.182.09.083.18.166.275.245.1.083.203.16.307.237a5.594 5.594 0 0 0 .615.417c.039.024.077.049.116.071.168.099.34.189.517.274l.048.024a7.5 7.5 0 0 0 1.891.609A4.434 4.434 0 0 0 9.375 27 4.63 4.63 0 0 0 14 31.625c1.718 0 3.203-.952 4-2.346.797 1.394 2.282 2.346 4 2.346A4.63 4.63 0 0 0 26.625 27c0-.516-.087-1.02-.261-1.506 3.575-.647 6.261-3.781 6.261-7.494Zm-7.23 6.354a.626.626 0 0 0-.5.942c.318.54.48 1.113.48 1.704 0 1.86-1.514 3.375-3.375 3.375S18.625 28.861 18.625 27A4.63 4.63 0 0 0 14 22.375a.625.625 0 1 0 0 1.25c1.86 0 3.375 1.514 3.375 3.375S15.861 30.375 14 30.375 10.625 28.861 10.625 27c0-.591.162-1.165.48-1.704a.624.624 0 0 0-.5-.942 6.394 6.394 0 0 1-.619-.068 6.243 6.243 0 0 1-.834-.2c-.1-.03-.203-.059-.302-.094a6.27 6.27 0 0 1-.786-.349c-.08-.042-.16-.083-.237-.127a6.38 6.38 0 0 1-.903-.632c-.143-.12-.268-.257-.4-.388.315.077.638.129.976.129a4.13 4.13 0 0 0 4.125-4.125.625.625 0 1 0-1.25 0A2.878 2.878 0 0 1 7.5 21.375a2.876 2.876 0 0 1-2.627-1.717c-.044-.162-.105-.318-.137-.485l-.007-.053A6.302 6.302 0 0 1 4.625 18a6.382 6.382 0 0 1 .096-1.061c.04-.242.093-.48.16-.714.01-.035.017-.071.028-.106a6.342 6.342 0 0 1 .402-.979c.084-.167.177-.33.275-.49.058-.092.115-.186.177-.276a6.384 6.384 0 0 1 1.266-1.352 6.354 6.354 0 0 1 .774-.528c.207-.12.42-.234.644-.332A6.333 6.333 0 0 1 11 11.625a6.32 6.32 0 0 1 2.732.613.626.626 0 0 0 .536-1.13A7.562 7.562 0 0 0 11 10.376c-.8 0-1.571.125-2.296.355a3.852 3.852 0 0 1-.079-.73c0-2.413 1.962-4.375 4.375-4.375S17.375 7.587 17.375 10v2a.625.625 0 1 0 1.25 0v-2c0-2.413 1.962-4.375 4.375-4.375S27.375 7.587 27.375 10c0 .422-.078.866-.24 1.357-.1.31.052.644.35.77A6.367 6.367 0 0 1 31.376 18a6.378 6.378 0 0 1-5.98 6.354Z"/>
    <path class="uuid-f8121a6b-c9ce-4831-ba4e-6fc24a4f56d1" d="M26 15.375c-.497 0-.957.147-1.354.388l-1.021-1.022v-2.2c1.145-.282 2-1.31 2-2.54 0-1.448-1.178-2.626-2.625-2.626S20.375 8.553 20.375 10c0 1.23.855 2.26 2 2.542V15c0 .166.066.325.183.442l1.205 1.204A2.599 2.599 0 0 0 23.375 18c0 1.447 1.178 2.625 2.625 2.625s2.625-1.178 2.625-2.625-1.178-2.625-2.625-2.625ZM21.625 10c0-.758.617-1.375 1.375-1.375s1.375.617 1.375 1.375-.617 1.375-1.375 1.375-1.375-.617-1.375-1.375ZM26 19.375c-.758 0-1.375-.617-1.375-1.375s.617-1.375 1.375-1.375 1.375.617 1.375 1.375-.617 1.375-1.375 1.375Zm-3.375 5.084V22a.625.625 0 0 0-.183-.442l-2.205-2.204c.241-.397.388-.857.388-1.354 0-1.447-1.178-2.625-2.625-2.625S15.375 16.553 15.375 18s1.178 2.625 2.625 2.625c.497 0 .957-.147 1.354-.388l2.021 2.022v2.2c-1.145.282-2 1.31-2 2.541 0 1.447 1.178 2.625 2.625 2.625s2.625-1.178 2.625-2.625c0-1.23-.855-2.26-2-2.541Zm-6-6.459c0-.758.617-1.375 1.375-1.375a1.377 1.377 0 0 1 .972 2.346s0 .001 0 .001A1.376 1.376 0 0 1 16.625 18ZM22 28.375c-.758 0-1.375-.617-1.375-1.375s.617-1.375 1.375-1.375 1.375.617 1.375 1.375-.617 1.375-1.375 1.375Z"/>
  </g>
</svg>
