<svg xmlns="http://www.w3.org/2000/svg" viewBox="0 0 36 36">
  <path d="m31.44 17.56-2-2c-.24-.24-.64-.24-.88 0s-.24.64 0 .88l.93.93H22c-.35 0-.62.28-.62.62s.28.62.62.62h7.49l-.93.93c-.24.24-.24.64 0 .88.12.12.28.18.44.18s.32-.06.44-.18l2-2c.06-.06.1-.13.13-.2a.604.604 0 0 0 0-.48.625.625 0 0 0-.13-.2v.02ZM22 12.62h4.49l-.93.93c-.24.24-.24.64 0 .88.12.12.28.18.44.18s.32-.06.44-.18l2-2c.06-.06.1-.13.13-.2a.604.604 0 0 0 0-.48.625.625 0 0 0-.13-.2l-2-2c-.24-.24-.64-.24-.88 0s-.24.64 0 .88l.93.93H22c-.35 0-.62.28-.62.62s.28.62.62.62v.02ZM21.38 24c0 .35.28.62.62.62h4.49l-.93.93c-.24.24-.24.64 0 .88.12.12.28.18.44.18s.32-.06.44-.18l2-2c.06-.06.1-.13.13-.2a.604.604 0 0 0 0-.48.625.625 0 0 0-.13-.2l-2-2c-.24-.24-.64-.24-.88 0s-.24.64 0 .88l.93.93H22c-.35 0-.62.28-.62.62V24ZM18 31.62c.35 0 .62-.28.62-.62V5c0-.35-.28-.62-.62-.62s-.62.28-.62.62v26c0 .35.28.62.62.62Zm-4.24-13.04c.08.03.16.05.24.05s.16-.02.24-.05c.08-.03.14-.08.2-.14.12-.11.19-.28.19-.44 0-.08-.02-.16-.05-.24a.718.718 0 0 0-.34-.34.662.662 0 0 0-.48 0c-.07.04-.14.08-.2.14-.06.06-.1.13-.14.2-.03.08-.04.16-.04.24 0 .16.06.33.18.44.06.06.13.11.2.14Zm-.2-6.14c.06.06.13.11.2.14a.597.597 0 0 0 .68-.14c.06-.06.11-.12.14-.2.03-.08.05-.16.05-.24s-.02-.16-.05-.24a.66.66 0 0 0-.14-.2.633.633 0 0 0-.68-.14c-.07.04-.14.08-.2.14-.06.06-.1.13-.14.2-.03.08-.04.16-.04.24s0 .16.04.24.08.14.14.2ZM14 24.63c.08 0 .16-.02.24-.05.08-.03.14-.08.2-.14a.597.597 0 0 0 .14-.68.66.66 0 0 0-.14-.2.558.558 0 0 0-.2-.14.633.633 0 0 0-.68.14c-.12.11-.18.27-.18.44s.06.33.18.44c.11.12.27.19.44.19Zm-4-9c.17 0 .33-.07.44-.19.12-.11.19-.27.19-.44 0-.16-.07-.33-.19-.44a.637.637 0 0 0-.88 0c-.12.12-.19.28-.19.44s.07.33.19.44c.11.12.28.19.44.19Zm0-6c.08 0 .16-.02.24-.05s.14-.08.2-.14c.12-.12.19-.28.19-.44s-.07-.32-.19-.44a.718.718 0 0 0-.2-.14.652.652 0 0 0-.68.14c-.12.11-.18.27-.18.44s.06.33.18.44c.12.12.28.19.44.19Zm-.44 11.81c.06.06.12.11.2.14.08.03.16.05.24.05s.16-.02.24-.05c.08-.03.14-.08.2-.14.06-.05.11-.13.14-.2.03-.08.05-.16.05-.24 0-.16-.07-.32-.19-.44a.558.558 0 0 0-.2-.14.662.662 0 0 0-.48 0 .66.66 0 0 0-.2.14c-.12.12-.19.28-.19.44 0 .08.02.16.05.24.03.07.08.15.14.2Zm.68 4.98a.633.633 0 0 0-.68.14c-.12.11-.18.27-.18.44s.06.33.18.44c.06.06.12.11.2.14.08.03.16.05.24.05s.16-.02.24-.05c.08-.03.14-.08.2-.14.12-.11.19-.27.19-.44s-.07-.33-.19-.44a.718.718 0 0 0-.2-.14ZM6.58 11.76a.66.66 0 0 0-.14-.2.633.633 0 0 0-.68-.14c-.07.04-.14.08-.2.14s-.1.13-.14.2c-.03.08-.04.16-.04.24s0 .16.04.24a.718.718 0 0 0 .34.34.597.597 0 0 0 .68-.14c.06-.06.11-.12.14-.2.03-.08.05-.16.05-.24s-.02-.16-.05-.24ZM6 6.63c.16 0 .32-.07.44-.19s.19-.28.19-.44-.07-.32-.19-.44a.647.647 0 0 0-.88 0c-.12.12-.19.28-.19.44s.07.33.19.44c.12.12.28.19.44.19Zm.58 11.13a.718.718 0 0 0-.34-.34.662.662 0 0 0-.48 0c-.07.04-.14.08-.2.14s-.1.13-.14.2c-.03.08-.04.16-.04.24 0 .16.06.33.18.44.06.06.13.11.2.14.08.03.16.05.24.05s.16-.02.24-.05c.08-.03.14-.08.2-.14.12-.11.19-.28.19-.44 0-.08-.02-.16-.05-.24Zm0 6a.66.66 0 0 0-.14-.2.647.647 0 0 0-.88 0c-.12.11-.18.27-.18.44s.06.33.18.44c.11.12.27.19.44.19s.33-.07.44-.19c.12-.11.19-.28.19-.44 0-.08-.02-.16-.05-.24Zm-.34 5.66a.662.662 0 0 0-.48 0c-.07.04-.14.08-.2.14-.12.11-.18.27-.18.44s.06.33.18.44c.06.06.13.11.2.14.08.03.16.05.24.05s.16-.02.24-.05c.08-.03.14-.08.2-.14.12-.11.19-.27.19-.44s-.07-.33-.19-.44a.718.718 0 0 0-.2-.14Z"/>
</svg>
