<svg id="uuid-689affa8-cda4-4e54-992c-2e4112909188" xmlns="http://www.w3.org/2000/svg" viewBox="0 0 36 36">
  <defs>
    <style>
      .uuid-5d7294bb-3a67-448d-b3ff-725c8f14f052{stroke-width:0}
    </style>
  </defs>
  <g id="uuid-db2caf1c-77a4-4673-ad96-583698cf2735">
    <path class="uuid-5d7294bb-3a67-448d-b3ff-725c8f14f052" d="M20.24 15.42a.637.637 0 0 0-.87.58c0 .17.07.33.19.44.12.12.28.19.44.19.08 0 .16-.02.24-.05.08-.03.15-.08.2-.14.12-.11.19-.27.19-.44 0-.16-.07-.33-.19-.44a.491.491 0 0 0-.2-.14Zm6.2.14a.615.615 0 0 0-.68-.14.66.66 0 0 0-.2.14c-.06.06-.11.12-.14.2a.594.594 0 0 0 .14.68c.06.06.13.11.2.14.08.03.16.05.24.05.16 0 .33-.07.44-.19.12-.11.18-.27.18-.44 0-.16-.06-.33-.18-.44Z"/>
    <path class="uuid-5d7294bb-3a67-448d-b3ff-725c8f14f052" d="M31 19.375h-2.375V14a.625.625 0 0 0-.625-.625h-4.375v-1.75H24a.625.625 0 0 0 0-1.25h-.375v-1.75H25a.625.625 0 0 0 0-1.25h-1.375V6a.625.625 0 0 0-1.25 0v1.375H21a.625.625 0 0 0 0 1.25h1.375v1.75H22a.625.625 0 0 0 0 1.25h.375v1.75H18a.625.625 0 0 0-.625.625v5.375H5a.625.625 0 0 0 0 1.25h1.74l5.818 5.817a.622.622 0 0 0 .884 0 .626.626 0 0 0 0-.884l-4.933-4.933h21.866v2.116l-2.817 2.817a.626.626 0 0 0 .884.884l3-3a.626.626 0 0 0 .183-.442v-3a.625.625 0 0 0-.625-.625Zm-12.375-4.75h8.75v4.75h-8.75v-4.75Zm12.693 14.29a3.469 3.469 0 0 1-.847-.706.625.625 0 0 0-.942 0c-.648.741-1.57 1.166-2.529 1.166s-1.881-.425-2.53-1.166a.646.646 0 0 0-.94 0c-.649.741-1.57 1.166-2.53 1.166s-1.881-.425-2.53-1.166a.646.646 0 0 0-.94 0c-.649.741-1.57 1.166-2.53 1.166s-1.881-.425-2.53-1.166a.646.646 0 0 0-.94 0c-.649.741-1.57 1.166-2.53 1.166s-1.881-.425-2.53-1.166a.647.647 0 0 0-.94 0 3.49 3.49 0 0 1-.848.706.625.625 0 0 0 .636 1.076 4.76 4.76 0 0 0 .683-.491c1.671 1.441 4.327 1.442 5.999-.001 1.672 1.443 4.328 1.443 6 0 1.672 1.443 4.328 1.443 6 0 .836.722 1.899 1.126 3 1.126s2.164-.404 3-1.125c.212.184.44.348.682.491a.626.626 0 0 0 .636-1.076Z"/>
  </g>
</svg>
