<svg xmlns="http://www.w3.org/2000/svg" viewBox="0 0 36 36">
  <path d="m31.42 22.54-9.79-8.81V8.01c0-2-1.63-3.62-3.62-3.62s-3.62 1.63-3.62 3.62v5.72l-9.81 8.81a.64.64 0 0 0-.21.46v3c0 .19.08.36.23.48.14.12.34.17.52.13l9.25-1.85v2.35l-2.65 1.33c-.21.11-.35.32-.35.56v2c0 .35.28.62.62.62h12c.35 0 .62-.28.62-.62v-2c0-.24-.13-.45-.35-.56l-2.65-1.33v-2.35l9.25 1.85c.18.04.37-.01.52-.13.15-.12.23-.3.23-.48v-3c0-.18-.08-.35-.21-.46h.02Zm-1.04 2.7-9.25-1.85a.62.62 0 0 0-.52.13c-.15.12-.23.3-.23.48v3.5c0 .24.13.45.35.56l2.65 1.33v.99H12.63v-.99l2.65-1.33c.21-.11.35-.32.35-.56V24c0-.19-.08-.36-.23-.48a.612.612 0 0 0-.52-.13l-9.25 1.85v-1.96l9.79-8.81a.64.64 0 0 0 .21-.46v-6c0-1.31 1.07-2.38 2.38-2.38s2.38 1.07 2.38 2.38v6c0 .18.08.35.21.46l9.79 8.81v1.96h-.01Z"/>
</svg>
