<svg id="uuid-ae84261c-08ce-4c06-ba1c-be532550278f" xmlns="http://www.w3.org/2000/svg" viewBox="0 0 36 36">
  <defs>
    <style>
      .uuid-c3445ddc-5ea7-48cc-a2b1-7d304d35fa4e{stroke-width:0}
    </style>
  </defs>
  <g id="uuid-8aa4dcb5-cac3-4e3a-a68f-5232871f25ef">
    <path class="uuid-c3445ddc-5ea7-48cc-a2b1-7d304d35fa4e" d="M17.38 16v6c0 .34.28.62.62.62s.62-.28.62-.62v-6c0-.34-.28-.62-.62-.62s-.62.28-.62.62Zm.38 8.42a.66.66 0 0 0-.2.14c-.12.11-.18.28-.18.44 0 .08 0 .16.04.24.03.08.08.15.14.2.06.06.13.11.2.14.08.03.16.05.24.05.16 0 .33-.07.44-.19.06-.05.11-.12.14-.2.03-.08.05-.16.05-.24 0-.16-.07-.33-.19-.44a.633.633 0 0 0-.68-.14Z"/>
    <path class="uuid-c3445ddc-5ea7-48cc-a2b1-7d304d35fa4e" d="M18.54 5.3c-.22-.39-.87-.39-1.09 0L3.46 30.08c-.11.19-.11.43 0 .62s.32.31.54.31h28c.22 0 .43-.12.54-.31.11-.19.11-.43 0-.62l-14-24.78ZM5.07 29.76 18 6.88l12.93 22.88H5.07Z"/>
  </g>
</svg>
