<svg id="uuid-8a2e35e2-e5ae-45c3-a07d-821407be52c7" xmlns="http://www.w3.org/2000/svg" viewBox="0 0 36 36">
  <defs>
    <style>
      .uuid-4e0e85ae-7aec-4e94-91c8-998c504fb8aa{stroke-width:0}
    </style>
  </defs>
  <g id="uuid-1b40fbfc-864a-44d5-b3c1-938141bfd88a">
    <path class="uuid-4e0e85ae-7aec-4e94-91c8-998c504fb8aa" d="M31 8.375h-6.485L23.77 4.87a.625.625 0 0 0-.61-.495H12.84a.625.625 0 0 0-.61.495l-.745 3.505H5A.625.625 0 0 0 4.375 9v20c0 .345.28.625.625.625h26c.345 0 .625-.28.625-.625V9A.625.625 0 0 0 31 8.375Zm-17.653-2.75h9.306l.585 2.75H12.763l.584-2.75Zm17.028 4v4.75H5.625v-4.75h24.75Zm-24.75 18.75v-12.75h24.75v12.75H5.625ZM9.44 30.56a.627.627 0 0 0-.88 0 .66.66 0 0 0-.14.2c-.03.08-.05.16-.05.24s.02.16.05.24c.03.08.08.14.14.2.12.12.28.19.44.19.16 0 .32-.07.44-.19.06-.06.11-.12.14-.2.03-.08.05-.16.05-.24s-.02-.16-.05-.24a.66.66 0 0 0-.14-.2Zm17.12 0c-.12.12-.18.28-.18.44s.06.33.18.44c.12.12.28.19.44.19.16 0 .32-.07.44-.19.12-.11.19-.28.19-.44s-.07-.32-.19-.44a.627.627 0 0 0-.88 0Z"/>
    <path class="uuid-4e0e85ae-7aec-4e94-91c8-998c504fb8aa" d="M8.56 12.44c.06.06.13.11.2.14.08.03.16.05.24.05.16 0 .32-.07.44-.19a.594.594 0 0 0 .14-.68.55.55 0 0 0-.14-.2.634.634 0 0 0-.68-.14c-.08.03-.14.08-.2.14-.06.05-.1.13-.14.2-.03.08-.04.16-.04.24s.01.16.04.24a.6.6 0 0 0 .14.2Zm3.44.19c.08 0 .16-.02.24-.05.08-.03.15-.08.2-.14.06-.05.11-.13.14-.2.03-.08.05-.16.05-.24s-.02-.16-.05-.24a.66.66 0 0 0-.14-.2.627.627 0 0 0-.88 0 .55.55 0 0 0-.18.44c0 .17.06.33.18.44.12.12.28.19.44.19Zm2.56-.19c.12.12.28.19.44.19.16 0 .32-.07.44-.19a.48.48 0 0 0 .14-.2c.03-.08.05-.16.05-.24s-.02-.16-.05-.24a.55.55 0 0 0-.14-.2.49.49 0 0 0-.2-.14.657.657 0 0 0-.48 0 .67.67 0 0 0-.2.14c-.06.05-.1.13-.14.2-.03.08-.04.16-.04.24s.01.16.04.24c.03.08.08.15.14.2Zm9.44.185h3a.625.625 0 0 0 0-1.25h-3a.625.625 0 0 0 0 1.25Z"/>
  </g>
</svg>
