<svg id="uuid-f8c84e2f-59e6-4a02-8aee-9c712ad65151" xmlns="http://www.w3.org/2000/svg" viewBox="0 0 36 36">
  <defs>
    <style>
      .uuid-75ddde0b-f531-4eaf-9000-5bead5fb58f3{stroke-width:0}
    </style>
  </defs>
  <g id="uuid-3edad166-91ae-41ee-81ab-64cf1049660d">
    <path class="uuid-75ddde0b-f531-4eaf-9000-5bead5fb58f3" d="M24 27.375a.625.625 0 0 0-.625.625v2.375h-4.75v-18.75h4.75V16a.625.625 0 0 0 1.25 0v-5a.625.625 0 0 0-.625-.625h-5.375V5A.625.625 0 0 0 18 4.375h-6a.625.625 0 0 0-.625.625v3.375H6A.625.625 0 0 0 5.375 9v22c0 .345.28.625.625.625h18c.345 0 .625-.28.625-.625v-3a.625.625 0 0 0-.625-.625ZM6.625 9.625h4.75v20.75h-4.75V9.625Zm6-.625V5.625h4.75v24.75h-4.75V9Z"/>
    <path class="uuid-75ddde0b-f531-4eaf-9000-5bead5fb58f3" d="m32.442 27.558-2.773-2.774A4.58 4.58 0 0 0 30.625 22c0-2.55-2.075-4.625-4.625-4.625S21.375 19.45 21.375 22 23.45 26.625 26 26.625a4.58 4.58 0 0 0 2.784-.956l2.774 2.773a.622.622 0 0 0 .884 0 .626.626 0 0 0 0-.885ZM22.625 22c0-1.861 1.514-3.375 3.375-3.375s3.375 1.514 3.375 3.375-1.514 3.375-3.375 3.375-3.375-1.514-3.375-3.375Z"/>
  </g>
</svg>
