<svg xmlns="http://www.w3.org/2000/svg" viewBox="0 0 36 36">
  <path d="M16.125 7.5c.065-2.472 3.686-2.472 3.75 0-.065 2.472-3.686 2.472-3.75 0Zm12.838 14.995-1.387-2.774c-.014-.028-.038-.046-.056-.071-.288-.463-1.06-.28-1.11.262-.008 4.443-3.395 8.127-7.785 8.448V13.625H24a.625.625 0 0 0 0-1.25h-5.375v-1.813c3.63-.787 3.126-6.128-.625-6.187-3.751.06-4.255 5.4-.625 6.187v1.813H12a.625.625 0 0 0 0 1.25h5.375V28.36c-4.335-.322-7.767-3.944-7.767-8.36a.67.67 0 0 0-.363-.563.645.645 0 0 0-.82.284l-1.388 2.774c-.36.728.746 1.291 1.118.559l.453-.906c.935 4.087 4.47 7.184 8.767 7.462V31a.625.625 0 0 0 1.25 0v-1.39c4.297-.278 7.832-3.375 8.767-7.462l.453.906c.372.731 1.48.17 1.118-.559Z"/>
</svg>
