<svg xmlns="http://www.w3.org/2000/svg" viewBox="0 0 36 36">
  <path d="M29 23.375c-1.23 0-2.26.855-2.542 2h-1.2l-1.816-1.817a.625.625 0 1 0-.884.884l2 2a.625.625 0 0 0 .442.183h1.458a2.625 2.625 0 0 0 2.542 2c1.447 0 2.625-1.178 2.625-2.625S30.447 23.375 29 23.375Zm0 4c-.758 0-1.375-.617-1.375-1.375s.617-1.375 1.375-1.375 1.375.617 1.375 1.375-.617 1.375-1.375 1.375ZM22.625 22v-8a.625.625 0 0 0-.625-.625h-8a.625.625 0 0 0-.625.625v8c0 .345.28.625.625.625h8c.345 0 .625-.28.625-.625Zm-1.25-.625h-6.75v-6.75h6.75v6.75Zm9.625-6h-4a.625.625 0 0 0-.625.625v1.375H24a.625.625 0 1 0 0 1.25h2.375V20c0 .345.28.625.625.625h4c.345 0 .625-.28.625-.625v-4a.625.625 0 0 0-.625-.625Zm-.625 4h-2.75v-2.75h2.75v2.75ZM23 12.625c.16 0 .32-.061.442-.183l1.817-1.817h1.2c.282 1.145 1.31 2 2.541 2 1.447 0 2.625-1.178 2.625-2.625S30.447 7.375 29 7.375c-1.23 0-2.26.855-2.542 2H25a.625.625 0 0 0-.442.183l-2 2A.625.625 0 0 0 23 12.625Zm6-4c.758 0 1.375.617 1.375 1.375s-.617 1.375-1.375 1.375-1.375-.617-1.375-1.375.617-1.375 1.375-1.375Zm-22 4c1.23 0 2.26-.855 2.542-2h1.2l1.816 1.817a.622.622 0 0 0 .884 0 .625.625 0 0 0 0-.884l-2-2A.625.625 0 0 0 11 9.375H9.542a2.624 2.624 0 0 0-2.542-2c-1.447 0-2.625 1.178-2.625 2.625S5.553 12.625 7 12.625Zm0-4c.758 0 1.375.617 1.375 1.375S7.758 11.375 7 11.375 5.625 10.758 5.625 10 6.242 8.625 7 8.625Zm-2 12h4c.345 0 .625-.28.625-.625v-1.375H12a.625.625 0 1 0 0-1.25H9.625V16A.625.625 0 0 0 9 15.375H5a.625.625 0 0 0-.625.625v4c0 .345.28.625.625.625Zm.625-4h2.75v2.75h-2.75v-2.75Zm6.933 6.933-1.817 1.817h-1.2a2.624 2.624 0 0 0-2.541-2c-1.447 0-2.625 1.178-2.625 2.625S5.553 28.625 7 28.625c1.23 0 2.26-.855 2.541-2H11a.625.625 0 0 0 .442-.183l2-2a.625.625 0 1 0-.884-.884ZM7 27.375c-.758 0-1.375-.617-1.375-1.375S6.242 24.625 7 24.625s1.375.617 1.375 1.375S7.758 27.375 7 27.375Z"/>
</svg>
