<svg id="uuid-2db83eed-a5cc-4f4e-883b-29a9aa02dbdf" xmlns="http://www.w3.org/2000/svg" viewBox="0 0 36 36">
  <defs>
    <style>
      .uuid-31ff37bc-39f3-4538-9151-6c067957e61c{stroke-width:0}
    </style>
  </defs>
  <g id="uuid-2127560c-058c-4df5-8968-6ad48769159a">
    <path class="uuid-31ff37bc-39f3-4538-9151-6c067957e61c" d="M31 4.375H5A.625.625 0 0 0 4.375 5v26c0 .345.28.625.625.625h26c.345 0 .625-.28.625-.625V5A.625.625 0 0 0 31 4.375Zm-.625 26H5.625V5.625h24.75v24.75Z"/>
    <path class="uuid-31ff37bc-39f3-4538-9151-6c067957e61c" d="M26.56 9.44c.06.06.13.11.2.14.08.03.16.05.24.05.16 0 .33-.07.44-.19.06-.06.11-.12.14-.2.03-.08.05-.16.05-.24a.63.63 0 0 0-1.07-.44.62.62 0 0 0-.18.44c0 .08.01.16.04.24.04.08.08.14.14.2Zm-2 0a.547.547 0 0 0 .44.18c.08 0 .16-.01.24-.04.08-.03.14-.08.2-.14s.11-.12.14-.2c.03-.08.05-.16.05-.24a.63.63 0 0 0-.19-.44.554.554 0 0 0-.2-.14.632.632 0 0 0-.68.14.62.62 0 0 0-.18.44c0 .08.01.16.04.24.04.08.08.14.14.2ZM14 27.625a5.64 5.64 0 0 0 5.512-4.5.625.625 0 1 0-1.224-.25 4.387 4.387 0 0 1-4.288 3.5c-2.413 0-4.375-1.962-4.375-4.375s1.962-4.375 4.375-4.375c1.393 0 2.672.668 3.487 1.75H16a.625.625 0 1 0 0 1.25h3c.345 0 .625-.28.625-.625v-3a.625.625 0 1 0-1.25 0v1.477A5.62 5.62 0 0 0 14 16.375c-3.102 0-5.625 2.523-5.625 5.625s2.523 5.625 5.625 5.625Z"/>
  </g>
</svg>
