<svg id="uuid-71fe6609-fa22-4ca4-8511-4e6ba121b71c" xmlns="http://www.w3.org/2000/svg" viewBox="0 0 36 36">
  <defs>
    <style>
      .uuid-0d5e0942-e80e-4b5c-b78e-2e01384143d5{stroke-width:0}
    </style>
  </defs>
  <g id="uuid-e725b509-a0c2-4208-a86b-7a1dfadef262">
    <path class="uuid-0d5e0942-e80e-4b5c-b78e-2e01384143d5" d="M31 18.375H5a.625.625 0 0 0-.625.625v10c0 .345.28.625.625.625h26c.345 0 .625-.28.625-.625V19a.625.625 0 0 0-.625-.625Zm-.625 10H5.625v-8.75h24.75v8.75Z"/>
    <path class="uuid-0d5e0942-e80e-4b5c-b78e-2e01384143d5" d="M9 24.625h6a.625.625 0 0 0 0-1.25H9a.625.625 0 0 0 0 1.25Zm17.76-.045a.594.594 0 0 0 .68-.14c.06-.06.11-.12.14-.2.03-.08.05-.16.05-.24 0-.08-.02-.16-.05-.24a.656.656 0 0 0-.14-.2.631.631 0 0 0-.68-.14.91.91 0 0 0-.2.14.66.66 0 0 0-.14.2c-.03.08-.05.16-.05.24 0 .16.07.32.19.44.06.06.13.11.2.14ZM13 17.625h10c.345 0 .625-.28.625-.625V7A.625.625 0 0 0 23 6.375H13a.625.625 0 0 0-.625.625v10c0 .345.28.625.625.625Zm.625-10h8.75v8.75h-8.75v-8.75Z"/>
    <path class="uuid-0d5e0942-e80e-4b5c-b78e-2e01384143d5" d="M20.44 9.56a.555.555 0 0 0-.2-.14.633.633 0 0 0-.68.14c-.06.06-.11.12-.14.2s-.05.16-.05.24c0 .08.02.16.05.24s.08.14.14.2c.12.12.28.19.44.19s.33-.07.44-.19c.06-.06.11-.12.14-.2.03-.08.05-.16.05-.24 0-.08-.02-.16-.05-.24a.552.552 0 0 0-.14-.2Zm-2.2-.14a.663.663 0 0 0-.48 0 .66.66 0 0 0-.2.14c-.12.11-.18.28-.18.44 0 .08.01.16.04.24a.718.718 0 0 0 .34.34c.08.03.16.04.24.04s.16-.01.24-.04c.08-.03.15-.08.2-.14.12-.12.19-.28.19-.44a.63.63 0 0 0-.19-.44.481.481 0 0 0-.2-.14Z"/>
  </g>
</svg>
