<svg id="uuid-68f626b0-c7d0-4a7f-8d0d-907204986c3c" xmlns="http://www.w3.org/2000/svg" viewBox="0 0 36 36">
  <defs>
    <style>
      .uuid-279a2363-4f78-45a0-8629-a866b24cc019{stroke-width:0}
    </style>
  </defs>
  <g id="uuid-7b69a373-d2be-4fce-b74e-86e9c0768408">
    <path class="uuid-279a2363-4f78-45a0-8629-a866b24cc019" d="M22 30.375H5.625V5.625h24.75V21a.625.625 0 1 0 1.25 0V5A.625.625 0 0 0 31 4.375H5A.625.625 0 0 0 4.375 5v26c0 .345.28.625.625.625h17a.625.625 0 1 0 0-1.25Z"/>
    <path class="uuid-279a2363-4f78-45a0-8629-a866b24cc019" d="M27.24 8.42a.632.632 0 0 0-.68.14c-.06.06-.1.13-.14.2-.03.08-.04.16-.04.24 0 .17.06.33.18.44.11.12.28.19.44.19.08 0 .16-.02.24-.05.08-.03.14-.08.2-.14a.597.597 0 0 0 .14-.68.718.718 0 0 0-.34-.34Zm-2.48 0c-.07.04-.14.08-.2.14-.12.11-.18.27-.18.44 0 .08.01.16.04.24a.72.72 0 0 0 .34.34c.08.03.16.04.24.04.17 0 .33-.06.44-.18.06-.06.11-.12.14-.2a.595.595 0 0 0-.14-.68.632.632 0 0 0-.68-.14Zm-.383 19.626a3.629 3.629 0 0 0 3.625 3.625c.45 0 .88-.087 1.276-.241l-4.901-4.902v1.518Zm7.339 2.285-.551-.551a3.58 3.58 0 0 0 .462-1.735v-3.453a.625.625 0 0 0-.496-.61l-3-.639a.612.612 0 0 0-.26 0l-2.591.551-.382-.381a.625.625 0 1 0-.884.884l.363.362v.001l6 6.001h.001l.455.454a.622.622 0 0 0 .883 0 .625.625 0 0 0 0-.884Z"/>
  </g>
</svg>
