<svg id="uuid-1b31a318-56f4-4431-945d-42e86ff953bc" xmlns="http://www.w3.org/2000/svg" viewBox="0 0 36 36">
  <defs>
    <style>
      .uuid-617a1f38-ae02-4dda-a698-255f575e1335{stroke-width:0}
    </style>
  </defs>
  <g id="uuid-3212d19f-4f1a-4e57-a8d0-b24be9ce50ee">
    <path class="uuid-617a1f38-ae02-4dda-a698-255f575e1335" d="M31 4.375H5A.625.625 0 0 0 4.375 5v26c0 .345.28.625.625.625h17a.625.625 0 1 0 0-1.25H5.625V5.625h24.75V21a.625.625 0 1 0 1.25 0V5A.625.625 0 0 0 31 4.375Z"/>
    <path class="uuid-617a1f38-ae02-4dda-a698-255f575e1335" d="M27.24 9.58c.08-.03.14-.08.2-.14.12-.11.19-.27.19-.44a.63.63 0 0 0-.19-.44.718.718 0 0 0-.2-.14.65.65 0 0 0-.68.14.62.62 0 0 0-.18.44c0 .17.06.33.18.44.11.12.28.18.44.18.08 0 .16-.01.24-.04ZM25 9.63c.08 0 .16-.02.24-.05.08-.03.14-.08.2-.14s.11-.12.14-.2a.595.595 0 0 0-.14-.68c-.23-.24-.65-.23-.88 0-.12.11-.18.28-.18.44 0 .16.06.33.18.44.11.12.27.19.44.19Zm6.13 14.351-3-.638a.612.612 0 0 0-.26 0l-3 .638a.625.625 0 0 0-.495.611v3.453c0 2 1.626 3.625 3.625 3.625s3.625-1.626 3.625-3.625v-3.453a.625.625 0 0 0-.495-.611Z"/>
  </g>
</svg>
