<svg id="uuid-f93c350a-c789-46d9-b3bd-e325608c942a" xmlns="http://www.w3.org/2000/svg" viewBox="0 0 36 36">
  <defs>
    <style>
      .uuid-cb0bfb37-7937-4290-ba5b-c3bc75128bbe{stroke-width:0}
    </style>
  </defs>
  <g id="uuid-98c9269c-a9c1-4e2b-a848-227fb49e580c">
    <path class="uuid-cb0bfb37-7937-4290-ba5b-c3bc75128bbe" d="M31 4.375H5A.625.625 0 0 0 4.375 5v26c0 .345.28.625.625.625h26c.345 0 .625-.28.625-.625V5A.625.625 0 0 0 31 4.375Zm-.625 26H5.625V5.625h24.75v24.75Z"/>
    <path class="uuid-cb0bfb37-7937-4290-ba5b-c3bc75128bbe" d="M27 9.63c.08 0 .16-.02.24-.05.08-.03.15-.08.2-.14a.597.597 0 0 0 .14-.68.652.652 0 0 0-.14-.2.482.482 0 0 0-.2-.14.632.632 0 0 0-.68.14c-.06.06-.1.13-.14.2-.03.08-.04.16-.04.24 0 .17.06.33.18.44.12.12.28.19.44.19Zm-2.44-.19c.06.06.13.11.2.14a.597.597 0 0 0 .68-.14.597.597 0 0 0 .14-.68.651.651 0 0 0-.82-.34c-.07.04-.14.08-.2.14-.06.06-.1.13-.14.2-.03.08-.04.16-.04.24 0 .08.01.16.04.24.04.08.08.14.14.2Z"/>
  </g>
</svg>
