<svg id="uuid-6c458c5b-20a6-4fce-b4d4-69d92f7eddf0" xmlns="http://www.w3.org/2000/svg" viewBox="0 0 36 36">
  <defs>
    <style>
      .uuid-d9a48193-9d4c-4c28-b6a4-5861edbe7ab8{stroke-width:0}
    </style>
  </defs>
  <g id="uuid-9889a8df-606a-40e3-a40e-48a052a2c3a2">
    <path class="uuid-d9a48193-9d4c-4c28-b6a4-5861edbe7ab8" d="M11 25.625h12a.625.625 0 0 0 0-1.25H11.625V5.625h18.75V21a.625.625 0 0 0 1.25 0V5A.625.625 0 0 0 31 4.375H11a.625.625 0 0 0-.625.625v20c0 .345.28.625.625.625Z"/>
    <path class="uuid-d9a48193-9d4c-4c28-b6a4-5861edbe7ab8" d="M27.56 7.56c-.12.12-.19.28-.19.44 0 .16.07.33.19.44.12.12.28.19.44.19.08 0 .16-.02.24-.05.08-.03.15-.08.2-.14.12-.11.19-.27.19-.44 0-.16-.07-.33-.19-.44a.481.481 0 0 0-.2-.14.633.633 0 0 0-.68.14Zm-2 0c-.12.11-.19.27-.19.44 0 .17.07.33.19.44.06.06.13.11.2.14.08.03.16.05.24.05s.16-.02.24-.05c.08-.03.15-.08.2-.14.12-.11.19-.27.19-.44 0-.16-.07-.33-.19-.44a.6.6 0 0 0-.2-.14.633.633 0 0 0-.68.14ZM8 28.625h15a.625.625 0 0 0 0-1.25H8.625V8a.625.625 0 0 0-1.25 0v20c0 .345.28.625.625.625Z"/>
    <path class="uuid-d9a48193-9d4c-4c28-b6a4-5861edbe7ab8" d="M24 30.375H5.625V11a.625.625 0 0 0-1.25 0v20c0 .345.28.625.625.625h19a.625.625 0 0 0 0-1.25Zm1.37-2.329a3.629 3.629 0 0 0 3.626 3.625c.45 0 .88-.087 1.277-.241l-4.902-4.902v1.518Zm7.34 2.285-.551-.551a3.58 3.58 0 0 0 .462-1.735v-3.453a.625.625 0 0 0-.496-.61l-3-.639a.612.612 0 0 0-.26 0l-2.591.551-.382-.381a.625.625 0 1 0-.884.884l.363.362v.001l6 6.001h.001l.455.454a.622.622 0 0 0 .883 0 .625.625 0 0 0 0-.884Z"/>
  </g>
</svg>
