<svg id="uuid-91511f7c-7a99-4eae-876c-562b546245dc" xmlns="http://www.w3.org/2000/svg" viewBox="0 0 36 36">
  <defs>
    <style>
      .uuid-18ec5dc2-0769-45a2-a7e7-5104c3d0c637{stroke-width:0}
    </style>
  </defs>
  <g id="uuid-3998e1ef-c04e-4ca3-864c-71cec0fe268d">
    <path class="uuid-18ec5dc2-0769-45a2-a7e7-5104c3d0c637" d="M11 25.625h12a.625.625 0 1 0 0-1.25H11.625V5.625h18.75V21a.625.625 0 1 0 1.25 0V5A.625.625 0 0 0 31 4.375H11a.625.625 0 0 0-.625.625v20c0 .345.28.625.625.625Z"/>
    <path class="uuid-18ec5dc2-0769-45a2-a7e7-5104c3d0c637" d="M27.76 7.42c-.07.04-.14.08-.2.14-.06.06-.1.12-.14.2-.03.08-.04.16-.04.24 0 .08.01.16.04.24a.72.72 0 0 0 .34.34c.08.03.16.04.24.04.17 0 .33-.06.44-.18.12-.12.19-.28.19-.44 0-.08-.02-.16-.05-.24a.651.651 0 0 0-.82-.34Zm-2 0a.55.55 0 0 0-.2.14.62.62 0 0 0-.18.44c0 .16.06.32.18.44.06.06.12.11.2.14.08.03.16.05.24.05.08 0 .16-.02.24-.05.08-.03.14-.08.2-.14s.11-.12.14-.2c.03-.08.05-.16.05-.24 0-.08-.02-.16-.05-.24a.55.55 0 0 0-.14-.2.632.632 0 0 0-.68-.14ZM8 28.625h15a.625.625 0 1 0 0-1.25H8.625V8a.625.625 0 1 0-1.25 0v20c0 .345.28.625.625.625Z"/>
    <path class="uuid-18ec5dc2-0769-45a2-a7e7-5104c3d0c637" d="M24 30.375H5.625V11a.625.625 0 1 0-1.25 0v20c0 .345.28.625.625.625h19a.625.625 0 1 0 0-1.25Zm8.13-6.394-3-.638a.612.612 0 0 0-.26 0l-3 .638a.625.625 0 0 0-.495.611v3.453c0 2 1.626 3.625 3.625 3.625s3.625-1.626 3.625-3.625v-3.453a.625.625 0 0 0-.495-.611Z"/>
  </g>
</svg>
