<svg id="uuid-5a947f95-0828-417e-bf26-85ca536f362c" xmlns="http://www.w3.org/2000/svg" viewBox="0 0 36 36">
  <defs>
    <style>
      .uuid-2f4ba6a7-95b6-40e3-9421-9ddf4329ceac{stroke-width:0}
    </style>
  </defs>
  <g id="uuid-97813a78-8474-48e3-8205-dd347f80cec0">
    <path class="uuid-2f4ba6a7-95b6-40e3-9421-9ddf4329ceac" d="M31 4.375H11a.625.625 0 0 0-.625.625v20c0 .345.28.625.625.625h20c.345 0 .625-.28.625-.625V5A.625.625 0 0 0 31 4.375Zm-.625 20h-18.75V5.625h18.75v18.75Z"/>
    <path class="uuid-2f4ba6a7-95b6-40e3-9421-9ddf4329ceac" d="M27.56 8.44c.06.06.13.11.2.14.08.03.16.05.24.05.08 0 .16-.02.24-.05.08-.03.14-.08.2-.14s.11-.12.14-.2c.03-.08.05-.16.05-.24 0-.16-.07-.33-.19-.44a.718.718 0 0 0-.2-.14.661.661 0 0 0-.48 0c-.07.04-.14.08-.2.14-.12.11-.18.27-.18.44 0 .08.01.16.04.24.04.08.08.14.14.2ZM26 8.63c.08 0 .16-.02.24-.05.08-.03.14-.08.2-.14.12-.11.19-.28.19-.44 0-.16-.07-.33-.19-.44a.718.718 0 0 0-.2-.14.65.65 0 0 0-.68.14c-.12.11-.18.27-.18.44 0 .17.06.33.18.44.11.12.28.19.44.19Zm2 18.745H8.625V8a.625.625 0 1 0-1.25 0v20c0 .345.28.625.625.625h20a.625.625 0 1 0 0-1.25Z"/>
    <path class="uuid-2f4ba6a7-95b6-40e3-9421-9ddf4329ceac" d="M25 30.375H5.625V11a.625.625 0 1 0-1.25 0v20c0 .345.28.625.625.625h20a.625.625 0 1 0 0-1.25Z"/>
  </g>
</svg>
