<svg id="uuid-4629206f-8106-40a3-9d92-a67117eb349d" xmlns="http://www.w3.org/2000/svg" viewBox="0 0 36 36">
  <defs>
    <style>
      .uuid-310ae24e-08cb-4335-8529-0392018cbd74{stroke-width:0}
    </style>
  </defs>
  <g id="uuid-05768f23-59d7-4dd1-8a78-3d56a5b23d3c">
    <path class="uuid-310ae24e-08cb-4335-8529-0392018cbd74" d="M22 26.375a.625.625 0 0 0-.625.625v3.375H8.625V5.625h12.75V8a.625.625 0 0 0 1.25 0V5A.625.625 0 0 0 22 4.375H8A.625.625 0 0 0 7.375 5v26c0 .345.28.625.625.625h14c.345 0 .625-.28.625-.625v-4a.625.625 0 0 0-.625-.625Z"/>
    <path class="uuid-310ae24e-08cb-4335-8529-0392018cbd74" d="M14.56 7.56c-.06.06-.1.13-.14.2-.03.08-.05.16-.05.24 0 .16.07.33.19.44.06.06.13.11.2.14.08.03.16.04.24.04a.6.6 0 0 0 .44-.18c.12-.11.19-.28.19-.44 0-.08-.02-.16-.05-.24a.656.656 0 0 0-.14-.2.646.646 0 0 0-.88 0ZM12.375 28c0 .345.28.625.625.625h4a.625.625 0 0 0 0-1.25h-4a.625.625 0 0 0-.625.625ZM28 10.375H18a.625.625 0 0 0-.625.625v10c0 .345.28.625.625.625h10c.345 0 .625-.28.625-.625V11a.625.625 0 0 0-.625-.625Zm-.625 10h-8.75v-8.75h8.75v8.75Z"/>
    <path class="uuid-310ae24e-08cb-4335-8529-0392018cbd74" d="M24.56 14.44c.06.06.13.11.2.14.08.03.16.05.24.05s.16-.02.24-.05c.08-.03.14-.08.2-.14.06-.05.11-.12.14-.2.03-.08.05-.16.05-.24a.63.63 0 0 0-.19-.44c-.06-.06-.13-.1-.2-.14a.663.663 0 0 0-.48 0 .91.91 0 0 0-.2.14c-.12.12-.19.28-.19.44a.606.606 0 0 0 .19.44Zm-1.8.14c.08.03.16.05.24.05s.16-.02.24-.05a.66.66 0 0 0 .2-.14c.06-.05.11-.12.14-.2.03-.08.05-.16.05-.24a.63.63 0 0 0-.19-.44c-.06-.06-.13-.1-.2-.14a.663.663 0 0 0-.48 0 .91.91 0 0 0-.2.14c-.06.06-.11.12-.14.2s-.05.16-.05.24c0 .17.07.33.19.44.06.06.13.11.2.14ZM25 23.375h-9.375V14a.625.625 0 0 0-1.25 0v10c0 .345.28.625.625.625h10a.625.625 0 0 0 0-1.25Z"/>
  </g>
</svg>
