<svg xmlns="http://www.w3.org/2000/svg" viewBox="0 0 36 36">
  <path d="M31.595 22.645a.626.626 0 0 0-.514-.27H18.625v-1.75H27c.345 0 .625-.28.625-.625v-5.375H31a.626.626 0 0 0 .442-1.067l-9-9A.625.625 0 0 0 21.375 5v4.375h-4.787a5.632 5.632 0 0 0-5.588-5c-3.102 0-5.625 2.523-5.625 5.625S7.898 15.625 11 15.625a5.632 5.632 0 0 0 5.588-5h4.787V14c0 .345.28.625.625.625h4.375v4.75h-7.75V18a.625.625 0 0 0-.625-.625H4a.625.625 0 0 0-.625.625c0 8.064 6.56 14.625 14.625 14.625 6.022 0 11.514-3.778 13.665-9.402a.627.627 0 0 0-.07-.578ZM11 14.375c-2.413 0-4.375-1.963-4.375-4.375S8.587 5.625 11 5.625 15.375 7.588 15.375 10 13.413 14.375 11 14.375Zm11.625-7.866 6.866 6.866h-6.866V6.509ZM18 31.375c-7.165 0-13.033-5.664-13.36-12.75h12.735V23c0 .345.28.625.625.625h12.138c-2.172 4.67-6.939 7.75-12.138 7.75Z"/>
</svg>
