<svg id="uuid-130525aa-e5e1-4ceb-93ee-c805a16667f7" xmlns="http://www.w3.org/2000/svg" viewBox="0 0 36 36">
  <defs>
    <style>
      .uuid-1a8c2738-8bd3-4638-aa95-a8847b121600{stroke-width:0}
    </style>
  </defs>
  <path class="uuid-1a8c2738-8bd3-4638-aa95-a8847b121600" d="M31 7.38H9s-.05.01-.08.02c-.03 0-.05 0-.08.02a.63.63 0 0 0-.28.15l-4 4c-.08.08-.12.18-.15.28 0 .03-.01.05-.02.08 0 .03-.02.05-.02.08V28c0 .35.28.62.62.62H31c.35 0 .62-.28.62-.62V8c0-.35-.28-.62-.62-.62ZM8.38 9.51v1.87H6.51l1.87-1.87Zm22 17.87H5.62V12.62H9c.35 0 .62-.28.62-.62V8.62h20.76v18.76Z"/>
  <path class="uuid-1a8c2738-8bd3-4638-aa95-a8847b121600" d="M15 18.62h2.38V23c0 .35.28.62.62.62h3c.35 0 .62-.28.62-.62s-.28-.62-.62-.62h-2.38v-8.76H21c.35 0 .62-.28.62-.62s-.28-.62-.62-.62h-3c-.35 0-.62.28-.62.62v4.38H15c-.35 0-.62.28-.62.62s.28.62.62.62Zm10-3c1.45 0 2.62-1.18 2.62-2.62s-1.18-2.62-2.62-2.62-2.62 1.18-2.62 2.62 1.18 2.62 2.62 2.62Zm0-4c.76 0 1.38.62 1.38 1.38s-.62 1.38-1.38 1.38-1.38-.62-1.38-1.38.62-1.38 1.38-1.38ZM8.38 18c0 1.45 1.18 2.62 2.62 2.62s2.62-1.18 2.62-2.62-1.18-2.62-2.62-2.62S8.38 16.56 8.38 18Zm4 0c0 .76-.62 1.38-1.38 1.38S9.62 18.76 9.62 18s.62-1.38 1.38-1.38 1.38.62 1.38 1.38ZM25 25.62c1.45 0 2.62-1.18 2.62-2.62s-1.18-2.62-2.62-2.62-2.62 1.18-2.62 2.62 1.18 2.62 2.62 2.62Zm0-4c.76 0 1.38.62 1.38 1.38s-.62 1.38-1.38 1.38-1.38-.62-1.38-1.38.62-1.38 1.38-1.38Z"/>
</svg>
