<svg id="uuid-5b969e50-ab3b-4f66-811e-1efcd371e6e8" xmlns="http://www.w3.org/2000/svg" viewBox="0 0 36 36">
  <defs>
    <style>
      .uuid-291b4d0a-e4e1-4229-bb11-2e4cabe3590c{stroke-width:0}
    </style>
  </defs>
  <path class="uuid-291b4d0a-e4e1-4229-bb11-2e4cabe3590c" d="M31 16.38H20.62v-.75H25c.35 0 .62-.28.62-.62V5c0-.35-.28-.62-.62-.62H11c-.35 0-.62.28-.62.62v10c0 .35.28.62.62.62h4.38v.75H5c-.35 0-.62.28-.62.62s.28.62.62.62h.38v13.38c0 .35.28.62.62.62s.62-.28.62-.62V17.61h12.75v10.38c0 .35.28.62.62.62h9.38v2.38c0 .35.28.62.62.62s.62-.28.62-.62V17.61h.38c.35 0 .62-.28.62-.62s-.28-.62-.62-.62l.01.01Zm-19.38-2V5.62h12.75v8.76H11.62Zm5 2v-.75h2.75v.75h-2.75Zm12.75 11h-8.75v-9.75h8.75v9.75Z"/>
  <path class="uuid-291b4d0a-e4e1-4229-bb11-2e4cabe3590c" d="M23 22.62h4c.35 0 .62-.28.62-.62s-.28-.62-.62-.62h-4c-.35 0-.62.28-.62.62s.28.62.62.62Z"/>
</svg>
