<svg id="uuid-99ac1df8-6be6-4dc0-8e57-7b3e558751d5" xmlns="http://www.w3.org/2000/svg" viewBox="0 0 36 36">
  <defs>
    <style>
      .uuid-bba362a6-ca80-416e-85de-ed4b0edbb16c{stroke-width:0}
    </style>
  </defs>
  <g id="uuid-cfd9a6dd-0da8-46b9-831b-8fff02e6c520">
    <path class="uuid-bba362a6-ca80-416e-85de-ed4b0edbb16c" d="M5.06 30.94c.46.46 1.1.67 1.86.67 2.67 0 6.93-2.54 11.08-6 4.15 3.46 8.41 6 11.08 6 .77 0 1.4-.21 1.86-.67 1.18-1.18.81-3.57-1.06-6.91-1.05-1.88-2.51-3.94-4.26-6.03 1.75-2.09 3.21-4.15 4.26-6.03 1.87-3.34 2.23-5.73 1.06-6.91-2.06-2.06-7.6.88-12.94 5.33C12.66 5.94 7.12 3 5.06 5.06c-1.18 1.18-.81 3.57 1.06 6.91 1.05 1.88 2.51 3.94 4.26 6.03-1.75 2.09-3.21 4.15-4.26 6.03-1.87 3.34-2.23 5.73-1.06 6.91Zm23.74-6.3c1.77 3.16 1.81 4.87 1.26 5.41-1.05 1.05-5.47-.59-11.1-5.26a61.8 61.8 0 0 0 3.02-2.82c1-1 1.93-2.01 2.82-3.02 1.64 1.97 3.01 3.91 4 5.68v.01Zm.3-19.01c.44 0 .76.1.97.3.55.55.5 2.25-1.26 5.41-.99 1.77-2.36 3.71-4 5.68-.88-1.01-1.82-2.02-2.82-3.02-.97-.97-1.99-1.91-3.02-2.81 4.54-3.77 8.3-5.57 10.13-5.57v.01Zm-8 9.27c1.02 1.02 1.98 2.06 2.88 3.09-.9 1.03-1.86 2.07-2.88 3.09a60.6 60.6 0 0 1-3.09 2.88c-1-.87-2.04-1.83-3.09-2.88a62.876 62.876 0 0 1-2.88-3.09c.9-1.03 1.86-2.07 2.88-3.09 1.06-1.06 2.09-2.01 3.09-2.89 1 .87 2.04 1.83 3.09 2.89ZM7.21 11.35C5.44 8.19 5.4 6.48 5.95 5.94c.2-.2.53-.3.97-.3 1.83 0 5.59 1.81 10.13 5.57-1.03.9-2.05 1.84-3.02 2.81-1 1-1.93 2.01-2.82 3.02-1.64-1.97-3.01-3.91-4-5.68v-.01Zm4 7.61a60.208 60.208 0 0 0 5.84 5.84C11.42 29.47 7 31.11 5.95 30.06c-.55-.55-.5-2.25 1.26-5.41.99-1.77 2.36-3.71 4-5.68v-.01Z"/>
    <path class="uuid-bba362a6-ca80-416e-85de-ed4b0edbb16c" d="M18 20.62c1.45 0 2.62-1.18 2.62-2.62s-1.18-2.62-2.62-2.62-2.62 1.18-2.62 2.62 1.18 2.62 2.62 2.62Zm0-4c.76 0 1.38.62 1.38 1.38s-.62 1.38-1.38 1.38-1.38-.62-1.38-1.38.62-1.38 1.38-1.38Z"/>
  </g>
</svg>
