<svg id="uuid-cf5031e9-28d6-4988-84a0-7033f1564203" xmlns="http://www.w3.org/2000/svg" viewBox="0 0 36 36">
  <defs>
    <style>
      .uuid-f1ad7f8c-8eb2-4f49-b42d-d55f41861c29{stroke-width:0}
    </style>
  </defs>
  <g id="uuid-582daf70-385e-437c-8ea2-a0a697e5a01a">
    <path class="uuid-f1ad7f8c-8eb2-4f49-b42d-d55f41861c29" d="M14.75 4.375h-6A.625.625 0 0 0 8.125 5v6c0 .345.28.625.625.625h6c.345 0 .625-.28.625-.625V5a.625.625 0 0 0-.625-.625Zm-.625 6h-4.75v-4.75h4.75v4.75Zm.625 4h-6a.625.625 0 0 0-.625.625v6c0 .345.28.625.625.625h6c.345 0 .625-.28.625-.625v-6a.625.625 0 0 0-.625-.625Zm-.625 6h-4.75v-4.75h4.75v4.75Z"/>
    <rect class="uuid-f1ad7f8c-8eb2-4f49-b42d-d55f41861c29" x="8.125" y="24.375" width="7.25" height="7.25" rx=".625" ry=".625"/>
    <path class="uuid-f1ad7f8c-8eb2-4f49-b42d-d55f41861c29" d="M24.25 23.375a.625.625 0 0 0-.625.625v1a2.378 2.378 0 0 1-2.375 2.375h-1.491l.933-.933a.626.626 0 0 0-.884-.884l-2 2c-.013.013-.018.03-.03.044a.619.619 0 0 0-.105.16.624.624 0 0 0-.042.209c0 .01-.006.019-.006.029s.005.02.006.03a.624.624 0 0 0 .042.209.62.62 0 0 0 .106.16c.011.013.016.03.029.043l2 2a.624.624 0 0 0 .884 0 .626.626 0 0 0 0-.884l-.933-.933h1.491A3.629 3.629 0 0 0 24.875 25v-1a.625.625 0 0 0-.625-.625Zm-6-14.75h3A2.378 2.378 0 0 1 23.625 11v1a.625.625 0 0 0 1.25 0v-1a3.629 3.629 0 0 0-3.625-3.625h-3a.625.625 0 0 0 0 1.25Zm9 8.75h-.459a2.6 2.6 0 0 0-.303-.728l.326-.326a.626.626 0 0 0-.885-.884l-.326.325a2.6 2.6 0 0 0-.728-.304V15a.625.625 0 0 0-1.25 0v.458a2.6 2.6 0 0 0-.728.304l-.326-.325a.626.626 0 0 0-.884.884l.325.326a2.6 2.6 0 0 0-.303.728h-.459a.625.625 0 0 0 0 1.25h.459a2.6 2.6 0 0 0 .304.728l-.326.326a.626.626 0 0 0 .884.884l.326-.325c.224.136.467.24.728.304V21a.625.625 0 0 0 1.25 0v-.458a2.6 2.6 0 0 0 .728-.304l.326.325a.624.624 0 0 0 .885 0 .626.626 0 0 0 0-.884l-.326-.326a2.6 2.6 0 0 0 .304-.728h.458a.625.625 0 0 0 0-1.25ZM22.875 18c0-.758.617-1.375 1.375-1.375s1.375.617 1.375 1.375-.617 1.375-1.375 1.375-1.375-.617-1.375-1.375Z"/>
  </g>
</svg>
