<svg id="uuid-1a9f1143-b9c0-4f4c-b0db-b0f83be05bd1" xmlns="http://www.w3.org/2000/svg" viewBox="0 0 36 36">
  <defs>
    <style>
      .uuid-2dfa58e5-b9b6-49c0-a3df-d8547d5f256f{stroke-width:0}
    </style>
  </defs>
  <g id="uuid-09bd1cb8-8e89-4938-b632-8b0bd98376b7">
    <path class="uuid-2dfa58e5-b9b6-49c0-a3df-d8547d5f256f" d="M18 19.524c2.55 0 4.625-2.075 4.625-4.625S20.55 10.274 18 10.274s-4.625 2.076-4.625 4.625S15.45 19.524 18 19.524Zm0-8c1.86 0 3.375 1.514 3.375 3.375S19.861 18.274 18 18.274s-3.375-1.513-3.375-3.375 1.514-3.375 3.375-3.375Z"/>
    <path class="uuid-2dfa58e5-b9b6-49c0-a3df-d8547d5f256f" d="m28.442 26.558-4.033-4.034H25c.345 0 .625-.28.625-.625v-3.841l2.716-2.716a.626.626 0 0 0 0-.885l-2.716-2.716V7.9A.625.625 0 0 0 25 7.274h-3.842l-2.716-2.716a.625.625 0 0 0-.884 0l-2.716 2.716H11a.625.625 0 0 0-.625.625v3.842l-2.716 2.716a.626.626 0 0 0 0 .885l2.716 2.716v3.841c0 .345.28.625.625.625h.591l-4.033 4.034A.626.626 0 0 0 8 27.625h3.375V31a.624.624 0 0 0 1.067.442L18 25.884l5.558 5.558A.626.626 0 0 0 24.625 31v-3.375H28a.626.626 0 0 0 .442-1.067ZM8.984 14.899l2.458-2.457a.626.626 0 0 0 .183-.442V8.524h3.476a.625.625 0 0 0 .441-.182L18 5.884l2.458 2.458a.625.625 0 0 0 .441.182h3.476V12c0 .166.066.325.183.442l2.458 2.457-2.458 2.457a.626.626 0 0 0-.183.443v3.475h-3.476a.625.625 0 0 0-.442.183L18 23.915l-2.458-2.458a.625.625 0 0 0-.441-.183h-3.476V17.8a.626.626 0 0 0-.183-.443L8.984 14.9ZM12 26.375H9.509l3.85-3.85h1.483l2.374 2.374-4.591 4.592V27a.625.625 0 0 0-.625-.625Zm12 0a.625.625 0 0 0-.625.625v2.491L18.784 24.9l2.374-2.375h1.482l3.851 3.851H24Z"/>
  </g>
</svg>
