<svg xmlns="http://www.w3.org/2000/svg" viewBox="0 0 36 36">
  <path d="M27 26.375H5a.625.625 0 0 0-.625.625v4c0 .345.28.625.625.625h22c.345 0 .625-.28.625-.625v-4a.625.625 0 0 0-.625-.625Zm-.625 4H5.625v-2.75h20.75v2.75Zm4.625-11H9a.625.625 0 0 0-.625.625v4c0 .345.28.625.625.625h22c.345 0 .625-.28.625-.625v-4a.625.625 0 0 0-.625-.625Zm-.625 4H9.625v-2.75h20.75v2.75ZM5 17.625h22c.345 0 .625-.28.625-.625v-4a.625.625 0 0 0-.625-.625H5a.625.625 0 0 0-.625.625v4c0 .345.28.625.625.625Zm.625-4h20.75v2.75H5.625v-2.75ZM28 6.375h-1.491l.933-.933a.626.626 0 0 0-.884-.884l-2 2c-.01.01-.013.023-.022.034a.622.622 0 0 0-.113.169.626.626 0 0 0 0 .478.62.62 0 0 0 .113.17c.009.01.012.023.022.033l2 2a.622.622 0 0 0 .884 0 .626.626 0 0 0 0-.884l-.933-.933H28A2.378 2.378 0 0 1 30.375 10v7a.625.625 0 0 0 1.25 0v-7A3.629 3.629 0 0 0 28 6.375Z"/>
</svg>
