<svg id="uuid-ad55fa96-4383-4544-8f9b-8c7d19698c5d" xmlns="http://www.w3.org/2000/svg" viewBox="0 0 36 36">
  <defs>
    <style>
      .uuid-ec0935fc-9359-4e78-a6b9-d4db9f880f29{stroke-width:0}
    </style>
  </defs>
  <g id="uuid-a7d7c795-181f-4584-acb6-de817d5796af">
    <path class="uuid-ec0935fc-9359-4e78-a6b9-d4db9f880f29" d="M31 4.375H5A.625.625 0 0 0 4.375 5v26c0 .345.28.625.625.625h26c.345 0 .625-.28.625-.625V5A.625.625 0 0 0 31 4.375Zm-.625 26H5.625V5.625h24.75v24.75Z"/>
    <path class="uuid-ec0935fc-9359-4e78-a6b9-d4db9f880f29" d="M9 10.625c.345 0 .625-.28.625-.625v-.375h16.75v16.75H9.625V26a.625.625 0 0 0-1.25 0v1c0 .345.28.625.625.625h18c.345 0 .625-.28.625-.625V9A.625.625 0 0 0 27 8.375H9A.625.625 0 0 0 8.375 9v1c0 .345.28.625.625.625Z"/>
    <path class="uuid-ec0935fc-9359-4e78-a6b9-d4db9f880f29" d="M8 16.625h2c.345 0 .625-.28.625-.625v-4a.625.625 0 0 0-.625-.625H8a.625.625 0 0 0-.625.625v4c0 .345.28.625.625.625Zm.625-4h.75v2.75h-.75v-2.75Zm-.625 12h2c.345 0 .625-.28.625-.625v-4a.625.625 0 0 0-.625-.625H8a.625.625 0 0 0-.625.625v4c0 .345.28.625.625.625Zm.625-4h.75v2.75h-.75v-2.75ZM19.56 18.44c.12.12.28.19.44.19.16 0 .32-.07.44-.19a.48.48 0 0 0 .14-.2c.03-.08.05-.16.05-.24s-.02-.16-.05-.24a.66.66 0 0 0-.14-.2.627.627 0 0 0-.88 0 .66.66 0 0 0-.14.2c-.03.08-.04.16-.04.24s.01.16.04.24c.03.08.08.15.14.2Z"/>
    <path class="uuid-ec0935fc-9359-4e78-a6b9-d4db9f880f29" d="M15.558 22.442a.622.622 0 0 0 .884 0l1.48-1.48c.59.415 1.304.663 2.078.663s1.488-.248 2.078-.663l1.48 1.48a.622.622 0 0 0 .884 0 .626.626 0 0 0 0-.884l-1.48-1.48c.415-.59.663-1.304.663-2.078s-.248-1.488-.663-2.078l1.48-1.48a.626.626 0 0 0-.884-.884l-1.48 1.48c-.59-.415-1.304-.663-2.078-.663s-1.488.248-2.078.663l-1.48-1.48a.625.625 0 1 0-.884.884l1.48 1.48c-.415.59-.663 1.304-.663 2.078s.248 1.488.663 2.078l-1.48 1.48a.626.626 0 0 0 0 .884ZM22.375 18c0 1.31-1.065 2.375-2.375 2.375S17.625 19.31 17.625 18 18.69 15.625 20 15.625 22.375 16.69 22.375 18Z"/>
  </g>
</svg>
