<svg id="uuid-a61315d5-ec9f-4a53-9a91-581dcba329af" xmlns="http://www.w3.org/2000/svg" viewBox="0 0 36 36">
  <defs>
    <style>
      .uuid-5e73779f-54ad-46c5-98be-8d966da31e24{stroke-width:0}
    </style>
  </defs>
  <path class="uuid-5e73779f-54ad-46c5-98be-8d966da31e24" d="M27 8.375a.626.626 0 0 0-.625.625v11.707c-2.248 2.07-5.753 2.032-7.933-.15a6.947 6.947 0 0 0-4.942-2.046c-1.4 0-2.737.409-3.875 1.17V12a.625.625 0 0 0-.183-.443l-3-3a.626.626 0 0 0-.885.885l2.818 2.817v15.74A3.629 3.629 0 0 0 12 31.626h12A3.629 3.629 0 0 0 27.625 28V9A.626.626 0 0 0 27 8.375Zm-3 22H12A2.378 2.378 0 0 1 9.625 28v-6.707c2.247-2.07 5.753-2.032 7.932.15a6.947 6.947 0 0 0 4.943 2.046c1.4 0 2.737-.409 3.875-1.17V28A2.378 2.378 0 0 1 24 30.375Z"/>
  <path class="uuid-5e73779f-54ad-46c5-98be-8d966da31e24" d="M12.558 14.563a.6.6 0 0 0-.14.2c-.03.07-.04.16-.04.24s.01.16.04.24c.04.07.08.14.14.2.06.06.13.1.2.13a.619.619 0 0 0 .68-.13.66.66 0 0 0 .14-.2c.03-.08.05-.16.05-.24s-.02-.17-.05-.24a.481.481 0 0 0-.14-.2.627.627 0 0 0-.88 0Zm8-9.12a.62.62 0 0 0 .681.13c.08-.03.15-.07.2-.13.12-.12.19-.28.19-.44a.65.65 0 0 0-.05-.24.481.481 0 0 0-.14-.2.614.614 0 0 0-.68-.14.66.66 0 0 0-.2.14.47.47 0 0 0-.13.2c-.04.07-.05.16-.05.24s.01.16.05.24c.03.07.07.14.13.2ZM21 16.625c1.999 0 3.625-1.626 3.625-3.625S22.999 9.375 21 9.375 17.375 11.001 17.375 13 19 16.625 21 16.625Zm0-6c1.31 0 2.375 1.065 2.375 2.375S22.309 15.375 21 15.375 18.625 14.31 18.625 13 19.69 10.625 21 10.625Zm-8-1c1.447 0 2.625-1.178 2.625-2.625S14.447 4.375 13 4.375 10.375 5.553 10.375 7 11.553 9.625 13 9.625Zm0-4c.758 0 1.375.617 1.375 1.375S13.758 8.375 13 8.375 11.625 7.758 11.625 7 12.242 5.625 13 5.625Z"/>
</svg>
