<svg id="uuid-5b97288c-4bad-47ab-a5b2-d2b98ed87a88" xmlns="http://www.w3.org/2000/svg" viewBox="0 0 36 36">
  <defs>
    <style>
      .uuid-ff50245e-9221-4867-960e-90dac2b1baa9{stroke-width:0}
    </style>
  </defs>
  <g id="uuid-afc8d8e2-2889-404c-9b73-1a7339f906c7">
    <g id="uuid-9bf53ae2-79b8-439c-b6b0-887a5d68ae4f">
      <path class="uuid-ff50245e-9221-4867-960e-90dac2b1baa9" d="M30.6 24.2V24c0-.2-.1-.3-.2-.4-.2-.2-.4-.2-.7-.1-.1 0-.1.1-.2.1q-.1.1-.1.2v.4s.1.1.1.2q.1.1.2.1c.1 0 .2.1.2.1.2 0 .3-.1.4-.2.2 0 .2-.1.3-.2Zm-1.2 3.4c0-.1-.1-.1-.2-.1-.2-.1-.3-.1-.5 0-.1 0-.1.1-.2.1q-.1.1-.1.2v.4c0 .1.1.1.1.2q.1.1.2.1c.1 0 .2.1.2.1s.2 0 .2-.1c.1 0 .1-.1.2-.1.1-.1.2-.3.2-.4v-.2c0-.1 0-.2-.1-.2Zm2 3c-.2-.2-.6-.2-.9 0q-.1.1-.1.2v.4s.1.1.1.2c.1.1.3.2.4.2s.3-.1.4-.2.1-.1.1-.2V31c.2-.2.2-.3 0-.4Zm-25-16c-.2-.2-.6-.2-.9 0-.1.1-.2.3-.2.4 0 .2.1.3.2.4.1.1.3.2.4.2s.2 0 .2-.1c.1 0 .1-.1.2-.1.1-.1.2-.3.2-.4v-.2c0-.1 0-.2-.1-.2Zm1.6-2c.2 0 .3-.1.4-.2s.1-.1.1-.2V12c0-.2-.1-.3-.2-.4-.2-.2-.6-.2-.9 0q-.1.1-.1.2v.2c0 .2.1.3.2.4.2.2.3.2.5.2Z"/>
      <path class="uuid-ff50245e-9221-4867-960e-90dac2b1baa9" d="M28.6 25c0-.8-.4-1.5-.9-2 .6-.5.9-1.2.9-2 0-1.4-1.1-2.5-2.4-2.6.3-.4.4-.9.4-1.4 0-1.4-1.1-2.5-2.4-2.6.3-.4.4-.9.4-1.4 0-1.4-1.2-2.6-2.6-2.6h-3.4V7.6H31c.3 0 .6-.3.6-.6s-.3-.6-.6-.6h-4.7l-1.8-1.8c-.2-.2-.6-.2-.9 0-.2.2-.2.6 0 .9l.9.9H5c-.3 0-.6.3-.6.6s.3.6.6.6h3.5l-.9 1c-.2.2-.2.6 0 .9.1.1.2.1.4.1s.3-.1.4-.2l1.8-1.8h7.1v2.8H14c-1.4 0-2.6 1.2-2.6 2.6 0 .5.2 1 .4 1.4-1.3.1-2.4 1.2-2.4 2.6 0 .5.2 1 .4 1.4-1.3.1-2.4 1.2-2.4 2.6 0 .8.4 1.5.9 2-.6.5-.9 1.2-.9 2 0 1.4 1.1 2.5 2.4 2.6-.3.4-.4.9-.4 1.4 0 1.4 1.2 2.6 2.6 2.6h12c1.4 0 2.6-1.2 2.6-2.6 0-.5-.2-1-.4-1.4 1.4-.1 2.4-1.2 2.4-2.6ZM14 11.6h8c.8 0 1.4.6 1.4 1.4s-.6 1.4-1.4 1.4h-8c-.8 0-1.4-.6-1.4-1.4s.6-1.4 1.4-1.4Zm-2 4h12c.8 0 1.4.6 1.4 1.4s-.6 1.4-1.4 1.4H12c-.8 0-1.4-.6-1.4-1.4s.6-1.4 1.4-1.4Zm6 10.8c-1.9 0-3.4-1.5-3.4-3.4s1.5-3.4 3.4-3.4 3.4 1.5 3.4 3.4-1.5 3.4-3.4 3.4Zm-8-6.8h4.9c-.8.7-1.3 1.7-1.4 2.8H10c-.8 0-1.4-.6-1.4-1.4s.6-1.4 1.4-1.4Zm0 6.8c-.8 0-1.4-.6-1.4-1.4s.6-1.4 1.4-1.4h3.4c.1 1.1.7 2 1.4 2.8H10Zm14 4H12c-.8 0-1.4-.6-1.4-1.4s.6-1.4 1.4-1.4h12c.8 0 1.4.6 1.4 1.4s-.6 1.4-1.4 1.4Zm2-4h-4.9c.8-.7 1.3-1.7 1.4-2.8H26c.8 0 1.4.6 1.4 1.4s-.6 1.4-1.4 1.4Zm0-4h-3.4c-.1-1.1-.7-2-1.4-2.8H26c.8 0 1.4.6 1.4 1.4s-.6 1.4-1.4 1.4Z"/>
    </g>
  </g>
</svg>
