<svg xmlns="http://www.w3.org/2000/svg" viewBox="0 0 36 36">
  <path d="M10 26.61a5.63 5.63 0 0 0 5.59-5H18c.1 0 .21-.03.3-.08l.02-.02c.08-.05.14-.11.19-.19 0 0 .02-.01.02-.02l3.69-6.45.71 1.43c-1.54 1-2.57 2.74-2.57 4.72 0 3.1 2.52 5.62 5.62 5.62S31.6 24.1 31.6 21s-2.52-5.62-5.62-5.62a5.7 5.7 0 0 0-1.94.35l-3.5-7.01s-.04-.05-.06-.07c-.03-.04-.05-.07-.08-.1a.36.36 0 0 0-.1-.07c-.03-.02-.07-.04-.1-.06-.04-.02-.08-.02-.13-.03-.03 0-.06-.02-.09-.02h-3c-.35 0-.62.28-.62.62s.28.62.62.62h2.61l1.88 3.75h-7.01l-.42-.75h.94c.35 0 .62-.28.62-.62s-.28-.62-.62-.62h-4c-.35 0-.62.28-.62.62s.28.62.62.62h1.63l.71 1.27-1.11 1.94a5.625 5.625 0 0 0-7.85 5.16c0 3.1 2.52 5.62 5.62 5.62l.02.01Zm16-10c2.41 0 4.38 1.96 4.38 4.38s-1.96 4.38-4.38 4.38-4.38-1.96-4.38-4.38c0-1.49.75-2.8 1.88-3.59l1.93 3.87c.11.22.33.35.56.35.09 0 .19-.02.28-.07.31-.15.43-.53.28-.84l-1.93-3.85c.43-.14.89-.24 1.37-.24l.01-.01Zm-11.69 3.75h-3.23l1.6-2.81c.87.68 1.47 1.67 1.63 2.81Zm6.61-5.75L18 19.71l-2.83-5.1h5.75Zm-6.87.55 2.89 5.2h-1.35c-.18-1.6-1.04-3-2.28-3.91l.74-1.29ZM10 16.61c.57 0 1.1.12 1.6.31l-2.14 3.75c-.11.19-.11.43 0 .62s.32.31.54.31h4.31C14 23.71 12.2 25.35 10 25.35c-2.41 0-4.38-1.96-4.38-4.38s1.96-4.38 4.38-4.38v.02Zm19.98 11.75h-24c-.35 0-.62.28-.62.62s.28.62.62.62h24c.35 0 .62-.28.62-.62s-.28-.62-.62-.62Z"/>
</svg>
