<svg id="uuid-0e1a72ff-29ec-4b4c-acf3-3595331ca6fd" xmlns="http://www.w3.org/2000/svg" viewBox="0 0 36 36">
  <defs>
    <style>
      .uuid-059a3a1b-32d9-40b3-9ae0-1018ca3a54a3{stroke-width:0}
    </style>
  </defs>
  <g id="uuid-d3e1ad83-7637-4b7d-a65b-a095c1253bf1">
    <path class="uuid-059a3a1b-32d9-40b3-9ae0-1018ca3a54a3" d="M26 13.375c-3.102 0-5.625 2.523-5.625 5.625s2.523 5.625 5.625 5.625 5.625-2.523 5.625-5.625-2.523-5.625-5.625-5.625Zm0 10c-2.413 0-4.375-1.963-4.375-4.375s1.962-4.375 4.375-4.375 4.375 1.963 4.375 4.375-1.962 4.375-4.375 4.375Zm-16-10c-3.102 0-5.625 2.523-5.625 5.625S6.898 24.625 10 24.625s5.625-2.523 5.625-5.625-2.523-5.625-5.625-5.625Zm0 10c-2.413 0-4.375-1.963-4.375-4.375S7.587 14.625 10 14.625s4.375 1.963 4.375 4.375-1.962 4.375-4.375 4.375Zm10-2h-4a.625.625 0 0 0 0 1.25h4a.625.625 0 0 0 0-1.25Zm-7-7.75h3c.345 0 .625-.28.625-.625 0-.758.617-1.375 1.375-1.375s1.375.617 1.375 1.375c0 .345.28.625.625.625h3a.625.625 0 0 0 0-1.25h-2.45c-.281-1.147-1.318-2-2.55-2s-2.269.854-2.55 2H13a.625.625 0 0 0 0 1.25Z"/>
    <path class="uuid-059a3a1b-32d9-40b3-9ae0-1018ca3a54a3" d="M10 15.375A3.629 3.629 0 0 0 6.375 19a.625.625 0 0 0 1.25 0A2.378 2.378 0 0 1 10 16.625a.625.625 0 0 0 0-1.25Zm16 0A3.629 3.629 0 0 0 22.375 19a.625.625 0 0 0 1.25 0A2.378 2.378 0 0 1 26 16.625a.625.625 0 0 0 0-1.25Z"/>
  </g>
</svg>
