<svg id="uuid-fe83297b-d3d0-45d6-b4c2-1357064ce93c" xmlns="http://www.w3.org/2000/svg" viewBox="0 0 36 36">
  <defs>
    <style>
      .uuid-1c49f567-e437-44d0-a3c1-9364c754863f{stroke-width:0}
    </style>
  </defs>
  <g id="uuid-3c505b98-5993-45c2-8a35-a8df999c0811">
    <path class="uuid-1c49f567-e437-44d0-a3c1-9364c754863f" d="M25.76 15.42a.66.66 0 0 0-.2.14c-.12.11-.18.28-.18.44 0 .17.06.33.18.44.11.12.28.19.44.19.17 0 .33-.07.44-.19.12-.11.19-.27.19-.44 0-.16-.07-.33-.19-.44a.483.483 0 0 0-.2-.14.662.662 0 0 0-.48 0Z"/>
    <path class="uuid-1c49f567-e437-44d0-a3c1-9364c754863f" d="M30.49 15.43c-.35-.89-.86-1.69-1.55-2.37-2.4-2.4-6.13-2.68-8.85-.85l-5.65-5.65c-.24-.24-.64-.24-.88 0s-.24.64 0 .88L19.12 13s-.04.04-.06.05L18 14.11 12.79 8.9 9.08 5.19a.628.628 0 0 0-.88 0C6.38 7.01 5.38 9.43 5.38 12s1 4.99 2.82 6.81a9.56 9.56 0 0 0 3.05 2.06l-4.69 4.69-3 3c-.12.12-.18.28-.18.44s.07.33.18.44a6.26 6.26 0 0 0 8.51.31c1.28.39 2.61.59 3.93.59 3.42 0 6.84-1.3 9.44-3.9l3.5-3.5a6.93 6.93 0 0 0 1.96-3.84V19c0-.03-.01-.05-.02-.07 0-.04-.01-.08-.02-.12s-.03-.07-.05-.11a.36.36 0 0 0-.07-.1c-.03-.03-.05-.06-.09-.08-.03-.02-.06-.05-.1-.07s-.08-.03-.12-.04c-.02 0-.04-.02-.07-.03h-1.39c-.35 0-.62.28-.62.62s.28.62.62.62h.49c-.27.91-.75 1.75-1.44 2.43l-3.5 3.5c-4.57 4.57-11.92 4.71-16.66.43l4.68-4.68c.78.2 1.59.32 2.41.32.72 0 1.44-.08 2.16-.24.34-.08.55-.41.47-.75s-.41-.55-.75-.47c-1.44.32-2.89.26-4.24-.14a7.319 7.319 0 0 1-1.99-5.03c0-1.76.62-3.42 1.74-4.75l5.19 5.19 4 4c.12.12.28.18.44.18s.32-.06.44-.18c.24-.24.24-.64 0-.88l-3.56-3.56 1.06-1.06a5.746 5.746 0 0 1 9.51 2.25v.02c0 .02.02.04.03.06.02.05.05.09.08.13l.05.05.12.09c.02.01.04.02.07.03.06.02.12.04.18.04h.03c.74.02 1.35.63 1.35 1.38 0 .34.28.62.62.62s.62-.28.62-.62c0-1.27-.93-2.34-2.14-2.57l.06.02Zm-19.8 13.81c-1.77 1.12-4.11 1.03-5.78-.27l2.11-2.11c1.11 1.01 2.35 1.81 3.67 2.38ZM9.37 15c0 1.39.33 2.73.95 3.93-.44-.3-.86-.62-1.25-1.01A8.312 8.312 0 0 1 6.62 12c0-2.03.72-3.94 2.03-5.46l2.82 2.82A8.555 8.555 0 0 0 9.36 15h.01Z"/>
  </g>
</svg>
