<svg xmlns="http://www.w3.org/2000/svg" viewBox="0 0 36 36">
  <path d="M31 25.18c-.35 0-.62.28-.62.62s.27.63.62.63.63-.29.63-.63-.29-.62-.63-.62Zm0-18.2c-.35 0-.62.28-.62.62s.27.63.62.63.63-.29.63-.63-.29-.62-.63-.62Zm0 2.6c-.35 0-.62.27-.62.62s.27.62.62.62.63-.28.63-.62-.29-.62-.63-.62Zm0 2.6c-.35 0-.62.27-.62.62s.27.63.62.63.63-.28.63-.63-.29-.62-.63-.62Zm0 10.39c-.35 0-.62.29-.62.63s.27.62.62.62.63-.28.63-.62-.29-.63-.63-.63Zm0-5.2c-.35 0-.62.28-.62.63s.27.63.62.63.63-.28.63-.63-.29-.63-.63-.63Zm0 2.61c-.35 0-.62.28-.62.62s.27.62.62.62a.619.619 0 1 0 0-1.24Zm0-5.21c-.35 0-.62.29-.62.63s.27.63.62.63.63-.29.63-.63-.29-.63-.63-.63Zm0 13.01c-.35 0-.62.27-.62.62s.27.62.62.62.63-.28.63-.62-.29-.62-.63-.62Zm-.24 2.64c-.08.03-.15.08-.2.14-.12.11-.18.28-.18.44a.558.558 0 0 0 .18.44c.05.06.12.11.2.14a.597.597 0 0 0 .68-.14c.06-.06.11-.12.14-.2.03-.08.04-.16.04-.24 0-.16-.06-.33-.18-.44a.633.633 0 0 0-.68-.14ZM7.6 31.63c.35 0 .63-.28.63-.63s-.28-.62-.63-.62-.63.28-.63.62.29.63.63.63Zm7.8 0c.35 0 .63-.28.63-.63s-.28-.62-.63-.62-.62.28-.62.62.27.63.62.63Zm-5.2-1.25c-.35 0-.62.28-.62.62a.625.625 0 1 0 .62-.62Zm18.2 0c-.34 0-.63.28-.63.62s.29.63.63.63.62-.28.62-.63-.27-.62-.62-.62Zm-2.6 0c-.35 0-.62.28-.62.62a.625.625 0 1 0 .62-.62Zm-2.6 0c-.34 0-.62.28-.62.62s.28.63.62.63.62-.28.62-.63-.27-.62-.62-.62Zm-5.2 0c-.34 0-.62.28-.62.62s.28.63.62.63.62-.28.62-.63-.27-.62-.62-.62Zm-5.2 0c-.34 0-.63.28-.63.62s.29.63.63.63.62-.28.62-.63-.27-.62-.62-.62Zm7.8 0c-.35 0-.62.28-.62.62a.625.625 0 1 0 .62-.62Zm-16.04.18c-.12.12-.18.28-.18.44s.06.32.18.44.28.19.44.19.33-.07.44-.19c.12-.11.19-.28.19-.44a.631.631 0 0 0-1.07-.44ZM5 25.18c-.35 0-.62.28-.62.62a.625.625 0 1 0 .62-.62Zm0-2.6c-.35 0-.62.28-.62.62a.625.625 0 1 0 .62-.62Zm0-15.6c-.35 0-.62.28-.62.62s.27.63.62.63.63-.29.63-.63-.29-.62-.63-.62Zm0 2.59c-.35 0-.62.28-.62.63s.27.63.62.63.63-.28.63-.63-.29-.63-.63-.63Zm0 5.2c-.35 0-.62.29-.62.63s.27.63.62.63.63-.28.63-.63-.29-.63-.63-.63Zm0-2.59c-.35 0-.62.28-.62.62a.625.625 0 1 0 .62-.62Zm0 15.6c-.35 0-.62.28-.62.62a.625.625 0 1 0 .62-.62Zm0-7.8c-.35 0-.62.28-.62.62a.625.625 0 1 0 .62-.62Zm0-2.6c-.35 0-.62.28-.62.62s.27.63.62.63.63-.29.63-.63-.29-.62-.63-.62ZM4.56 5.44c.06.06.12.11.2.14.08.03.16.05.24.05s.16-.02.24-.05.14-.08.2-.14c.12-.12.19-.28.19-.44 0-.08-.02-.16-.05-.24a.66.66 0 0 0-.14-.2.483.483 0 0 0-.2-.14.662.662 0 0 0-.48 0c-.08.03-.15.08-.2.14a.66.66 0 0 0-.14.2c-.03.08-.05.16-.05.24 0 .16.07.32.19.44ZM20.6 4.38c-.34 0-.62.28-.62.62s.28.63.62.63.63-.28.63-.63-.28-.62-.63-.62Zm2.6 0c-.35 0-.63.28-.63.62s.28.63.63.63.63-.28.63-.63-.29-.62-.63-.62Zm-5.2 0c-.34 0-.62.28-.62.62s.28.63.62.63.63-.28.63-.63-.28-.62-.63-.62ZM16.02 5c0-.34-.27-.62-.62-.62s-.63.28-.63.62.28.63.63.63.62-.28.62-.63Zm-8.42.63c.35 0 .62-.28.62-.63s-.27-.62-.62-.62-.62.28-.62.62.28.63.62.63Zm5.2-1.25c-.34 0-.62.28-.62.62s.28.63.62.63.63-.28.63-.63-.28-.62-.63-.62Zm-2.6 0c-.34 0-.62.28-.62.62s.28.63.62.63.63-.28.63-.63-.28-.62-.63-.62Zm15.6 0c-.34 0-.62.28-.62.62s.28.63.62.63.63-.28.63-.63-.28-.62-.63-.62Zm2.6 0c-.34 0-.62.28-.62.62s.28.63.62.63.63-.28.63-.63-.28-.62-.63-.62Zm3.18.38a.66.66 0 0 0-.14-.2.483.483 0 0 0-.2-.14.662.662 0 0 0-.48 0c-.08.03-.15.08-.2.14a.66.66 0 0 0-.14.2c-.03.08-.05.16-.05.24 0 .16.07.32.19.44.06.06.12.11.2.14a.597.597 0 0 0 .68-.14c.12-.12.19-.28.19-.44 0-.08-.02-.16-.05-.24Z"/>
</svg>
