<svg id="uuid-e90f5e41-1690-40e5-be96-f0e7a587f161" xmlns="http://www.w3.org/2000/svg" viewBox="0 0 36 36">
  <defs>
    <style>
      .uuid-8af94704-0113-435d-9947-68ceecc7383b{stroke-width:0}
    </style>
  </defs>
  <g id="uuid-530db76a-aea7-44d8-af18-86ea2f947ec0">
    <path class="uuid-8af94704-0113-435d-9947-68ceecc7383b" d="M31 7.375H9c-.029 0-.053.013-.08.016a.557.557 0 0 0-.08.016.62.62 0 0 0-.282.152l-4 3.999a.619.619 0 0 0-.15.282.574.574 0 0 0-.017.08c-.004.028-.016.052-.016.08v16c0 .345.28.625.625.625h26c.345 0 .625-.28.625-.625V8A.625.625 0 0 0 31 7.375ZM8.375 9.509v1.866H6.509l1.866-1.866Zm22 17.866H5.625v-14.75H9c.345 0 .625-.28.625-.625V8.625h20.75v18.75Z"/>
    <path class="uuid-8af94704-0113-435d-9947-68ceecc7383b" d="M12 14.625h1.375v6.75H12a.625.625 0 1 0 0 1.25h1.375V24a.625.625 0 1 0 1.25 0v-1.375h9.75V24a.625.625 0 1 0 1.25 0v-1.375H27a.625.625 0 1 0 0-1.25h-1.375v-6.75H27a.625.625 0 1 0 0-1.25h-1.375V12a.625.625 0 1 0-1.25 0v1.375h-9.75V12a.625.625 0 1 0-1.25 0v1.375H12a.625.625 0 1 0 0 1.25Zm12.375 0v6.75h-9.75v-6.75h9.75Z"/>
  </g>
</svg>
