<svg id="uuid-5d5f3b1d-0c4d-4836-9aac-002262e949a0" xmlns="http://www.w3.org/2000/svg" viewBox="0 0 36 36">
  <defs>
    <style>
      .uuid-f3af0b88-0cd5-4a6d-a8aa-fca0cb85a817{stroke-width:0}
    </style>
  </defs>
  <g id="uuid-8360355e-bd37-4a53-9e8d-2b847b547e07">
    <path class="uuid-f3af0b88-0cd5-4a6d-a8aa-fca0cb85a817" d="M13 14.62h10c.34 0 .62-.28.62-.62s-.28-.62-.62-.62H13c-.34 0-.62.28-.62.62s.28.62.62.62Z"/>
    <path class="uuid-f3af0b88-0cd5-4a6d-a8aa-fca0cb85a817" d="M28 8.38h-2.25l.69-3.25c.04-.18 0-.38-.13-.52a.621.621 0 0 0-.49-.23h-3a.63.63 0 0 0-.61.5l-.75 3.5H8c-.34 0-.62.28-.62.62s.28.62.62.62h.38V13c0 .17.07.33.18.44l.86.86 2.97 16.81c.05.3.31.52.62.52h10c.3 0 .56-.22.62-.52L26.6 14.3l.86-.86a.62.62 0 0 0 .18-.44V9.62h.38c.34 0 .62-.28.62-.62s-.28-.62-.62-.62H28Zm-4.66-2.75h1.72l-.59 2.75h-1.72l.58-2.75h.01Zm3.04 7.12-.82.82c-.09.09-.15.21-.17.33l-2.91 16.48h-8.96L10.61 13.9a.585.585 0 0 0-.17-.33l-.82-.82V9.63h16.76v3.12Z"/>
    <path class="uuid-f3af0b88-0cd5-4a6d-a8aa-fca0cb85a817" d="M16 25.38a1.62 1.62 0 1 0 0 3.24 1.62 1.62 0 0 0 0-3.24Zm0 2a.38.38 0 1 1 0-.76.38.38 0 0 1 0 .76Zm4-4a1.62 1.62 0 1 0 0 3.24 1.62 1.62 0 0 0 0-3.24Zm0 2a.38.38 0 1 1 0-.76.38.38 0 0 1 0 .76Zm-4-5a1.62 1.62 0 1 0 0 3.24 1.62 1.62 0 0 0 0-3.24Zm0 2a.38.38 0 1 1 0-.76.38.38 0 0 1 0 .76Z"/>
  </g>
</svg>
