<svg xmlns="http://www.w3.org/2000/svg" viewBox="0 0 36 36">
  <path d="M31 11.375H18.259l-6.817-6.817A.625.625 0 0 0 10.375 5v6.375H5a.625.625 0 0 0-.625.625v19c0 .345.28.625.625.625h26c.345 0 .625-.28.625-.625V12a.625.625 0 0 0-.625-.625Zm-.625 13H25a.625.625 0 0 0-.625.625v5.375h-5.75v-17.75h11.75v11.75Zm-.884 1.25-3.866 3.866v-3.866h3.866ZM11.625 6.509l5.75 5.75V29.49l-5.75-5.75V6.51Zm-6 6.116h4.75V24c0 .166.066.325.183.442l5.933 5.933H5.625v-17.75Zm20.884 17.75 3.866-3.866v3.866h-3.866Z"/>
</svg>
