<svg xmlns="http://www.w3.org/2000/svg" viewBox="0 0 36 36">
  <path d="M29.611 29.885 24.294 4.87a.62.62 0 0 0-.74-.481.624.624 0 0 0-.482.74l.293 1.38-3.561.756-.314-1.474a.619.619 0 0 0-.74-.482c-.047.01-.084.035-.125.054V5A.625.625 0 0 0 18 4.375H8A.625.625 0 0 0 7.375 5v26c0 .345.28.625.625.625h10c.345 0 .625-.28.625-.625V7.732l4.973 23.398a.625.625 0 0 0 1.223-.26l-.307-1.445 3.56-.757.315 1.477a.625.625 0 0 0 1.222-.26ZM17.375 7.375h-3.75v-1.75h3.75v1.75Zm0 20h-3.75V8.625h3.75v18.75Zm-8.75-18.75h3.75v18.75h-3.75V8.625Zm3.75-3v1.75h-3.75v-1.75h3.75Zm-3.75 23h3.75v1.75h-3.75v-1.75Zm5 1.75v-1.75h3.75v1.75h-3.75Zm10.629-2.173-4.19-19.715 3.56-.756 4.19 19.714-3.56.757Z"/>
</svg>
