<svg id="uuid-e9a9daab-99dd-4cec-a254-6f12bb1c2126" xmlns="http://www.w3.org/2000/svg" viewBox="0 0 36 36">
  <defs>
    <style>
      .uuid-4184ba25-ee4f-4644-a159-32c0b71acafb{stroke-width:0}
    </style>
  </defs>
  <g id="uuid-b4dfa1b2-ff06-4232-8b82-915e3bda6450">
    <path class="uuid-4184ba25-ee4f-4644-a159-32c0b71acafb" d="M15.5 5.62h5c.35 0 .62-.28.62-.62s-.28-.62-.62-.62h-5c-.35 0-.62.28-.62.62s.28.62.62.62ZM21 17.88h-6c-.35 0-.62.28-.62.62v9c0 .34.28.62.62.62h6c.35 0 .62-.28.62-.62v-9c0-.34-.28-.62-.62-.62Zm-.62 9h-4.75v-7.75h4.75v7.75Z"/>
    <path class="uuid-4184ba25-ee4f-4644-a159-32c0b71acafb" d="m21.46 13.62-.84-6.69a.626.626 0 0 0-.62-.55h-4c-.32 0-.58.23-.62.55l-.84 6.69A4.593 4.593 0 0 0 11.37 18v10.5c0 1.72 1.4 3.12 3.12 3.12h7c1.72 0 3.12-1.4 3.12-3.12V18c0-2.02-1.28-3.76-3.17-4.38h.02Zm1.92 14.88c0 1.03-.84 1.88-1.88 1.88h-7c-1.03 0-1.88-.84-1.88-1.88V18c0-1.58 1.08-2.93 2.63-3.28.26-.06.45-.27.48-.53l.82-6.56h2.9l.82 6.56c.03.26.23.47.48.53 1.55.35 2.63 1.7 2.63 3.28v10.5Z"/>
  </g>
</svg>
