<svg id="uuid-d23c7ab2-fbb7-46f5-b94e-eebe692d5fdb" xmlns="http://www.w3.org/2000/svg" viewBox="0 0 36 36">
  <defs>
    <style>
      .uuid-c4f210af-ed34-4d30-a2a4-2085c7471f81{stroke-width:0}
    </style>
  </defs>
  <g id="uuid-20842616-c8ed-4ec6-b56d-5759e342cba5">
    <path class="uuid-c4f210af-ed34-4d30-a2a4-2085c7471f81" d="M24.62 15v-2c0-2.55-2.07-4.62-4.62-4.62h-4c-2.55 0-4.62 2.08-4.62 4.62v2c0 1.23.85 2.26 2 2.54v1.92c-1.15.28-2 1.31-2 2.54v7c0 1.45 1.18 2.62 2.62 2.62h8c1.45 0 2.62-1.18 2.62-2.62v-7c0-1.23-.85-2.26-2-2.54v-1.92c1.15-.28 2-1.31 2-2.54Zm-12 0v-2c0-1.86 1.51-3.38 3.38-3.38h4c1.86 0 3.38 1.51 3.38 3.38v2c0 .76-.62 1.38-1.38 1.38h-8c-.76 0-1.38-.62-1.38-1.38Zm2 4.38v-1.75h6.75v1.75h-6.75ZM23.37 22v7c0 .76-.62 1.38-1.38 1.38H14c-.76 0-1.38-.62-1.38-1.38v-7c0-.76.62-1.38 1.38-1.38h8c.76 0 1.38.62 1.38 1.38h-.01ZM15 7.62h6c.35 0 .62-.28.62-.62V5c0-.34-.28-.62-.62-.62h-6c-.35 0-.62.28-.62.62v2c0 .34.28.62.62.62Zm.62-2h4.75v.75h-4.75v-.75Z"/>
    <path class="uuid-c4f210af-ed34-4d30-a2a4-2085c7471f81" d="M21 23.38h-6c-.35 0-.62.28-.62.62s.28.62.62.62h6c.35 0 .62-.28.62-.62s-.28-.62-.62-.62Zm0 3h-6c-.35 0-.62.28-.62.62s.28.62.62.62h6c.35 0 .62-.28.62-.62s-.28-.62-.62-.62Z"/>
  </g>
</svg>
