<svg id="uuid-270247a6-bb2b-44e9-897a-5f9c7dbcdeb5" xmlns="http://www.w3.org/2000/svg" viewBox="0 0 36 36">
  <defs>
    <style>
      .uuid-171b9e37-f422-4a7e-a947-2f4a4e0719f3{stroke-width:0}
    </style>
  </defs>
  <g id="uuid-3582641d-35a6-44ba-b021-8f67928a4459">
    <g id="uuid-bf3bb429-5d7a-40b4-bd1f-e15e28b68f01">
      <path class="uuid-171b9e37-f422-4a7e-a947-2f4a4e0719f3" d="M31 6.4H5c-.3 0-.6.3-.6.6v5c0 .3.3.6.6.6h.4V29c0 .3.3.6.6.6h24c.3 0 .6-.3.6-.6V12.6h.4c.3 0 .6-.3.6-.6V7c0-.3-.3-.6-.6-.6ZM5.6 7.6h24.8v3.8H5.6V7.6Zm23.8 20.8H6.6V12.6h22.8v15.8Z"/>
      <path class="uuid-171b9e37-f422-4a7e-a947-2f4a4e0719f3" d="M15.7 19.7h4.7c1.3 0 2.3-1 2.3-2.3s-1-2.3-2.3-2.3h-4.7c-1.3 0-2.3 1-2.3 2.3s1 2.3 2.3 2.3Zm0-3.3h4.7c.6 0 1 .5 1 1 0 .6-.5 1-1 1h-4.7c-.6 0-1-.5-1-1-.1-.5.4-1 1-1Z"/>
    </g>
  </g>
</svg>
