<svg xmlns="http://www.w3.org/2000/svg" viewBox="0 0 36 36">
  <path d="M28.49 11.22c.09-.39.14-.8.14-1.22 0-3.1-2.52-5.62-5.62-5.62-2.18 0-4.07 1.25-5 3.06a5.626 5.626 0 0 0-5-3.06c-3.1 0-5.62 2.52-5.62 5.62 0 .39.05.79.15 1.21-.03.01-.05.03-.08.05-.26.14-.5.28-.74.45-.1.07-.2.15-.29.22-.14.11-.28.22-.41.33-.11.09-.22.19-.32.29-.13.13-.26.27-.38.4-.13.15-.26.3-.38.47-.11.14-.21.29-.31.44-.07.11-.14.22-.21.34-.1.17-.19.35-.28.53-.04.09-.09.18-.13.27-.12.27-.21.55-.3.83l-.06.25c-.06.23-.11.46-.15.7-.01.09-.03.18-.04.27-.04.31-.07.63-.07.96 0 .14.01.27.02.41 0 .03-.02.06-.02.09 0 .42.08.82.2 1.21a7.59 7.59 0 0 0 1.66 3.27c.02.03.05.05.07.08.12.13.24.27.37.39.05.05.11.1.17.16l.3.27c.09.08.19.15.28.22.07.06.15.11.22.17.13.09.26.17.39.25.05.03.09.06.14.09.16.09.33.18.5.26.02.01.05.02.07.03.19.09.38.17.58.25h.01c.41.15.85.27 1.29.35-.17.49-.26 1-.26 1.5 0 2.55 2.07 4.62 4.62 4.62 1.72 0 3.2-.95 4-2.35.8 1.39 2.28 2.35 4 2.35 2.55 0 4.62-2.08 4.62-4.62 0-.28-.03-.55-.08-.82-.03-.16-.08-.32-.12-.47-.02-.07-.03-.14-.06-.21a7.63 7.63 0 0 0 6.26-7.5c0-2.88-1.61-5.48-4.14-6.78l.01-.01Zm-2.74 13.1A4.607 4.607 0 0 0 22 22.38c-.35 0-.62.28-.62.62s.28.62.62.62c1.24 0 2.31.67 2.89 1.67.12.21.22.43.29.65.03.09.06.17.08.27.02.07.03.15.05.22.03.19.06.38.06.57 0 1.86-1.51 3.38-3.38 3.38s-3.38-1.51-3.38-3.38c0-2.55-2.07-4.62-4.62-4.62-.35 0-.62.28-.62.62s.28.62.62.62c1.86 0 3.38 1.51 3.38 3.38s-1.51 3.38-3.38 3.38-3.38-1.51-3.38-3.38c0-.59.16-1.17.48-1.7.11-.19.12-.42.01-.61s-.3-.32-.51-.33-.41-.04-.61-.07c-.29-.05-.58-.12-.85-.2-.09-.03-.19-.06-.28-.09-.28-.1-.54-.22-.8-.36-.07-.04-.15-.08-.22-.12a5.668 5.668 0 0 1-.9-.64c-.14-.12-.27-.26-.4-.39.31.08.64.13.98.13 2.27 0 4.12-1.85 4.12-4.12 0-.34-.28-.62-.62-.62s-.62.28-.62.62c0 1.58-1.29 2.88-2.88 2.88-1.17 0-2.18-.71-2.63-1.72-.04-.16-.11-.32-.14-.48v-.05c-.07-.36-.1-.74-.1-1.12 0-.29.03-.57.06-.84 0-.07.02-.14.03-.22.04-.24.09-.48.16-.72 0-.03.02-.07.03-.1.08-.25.17-.49.28-.73.04-.08.08-.17.12-.25.09-.17.18-.34.28-.5.05-.09.11-.17.16-.26.12-.18.26-.35.4-.52l.23-.26c.12-.12.24-.24.36-.35l.27-.24c.17-.14.35-.26.53-.38l.24-.15c.21-.12.42-.24.65-.33.78-.34 1.64-.54 2.55-.54.96 0 1.87.21 2.73.61.31.15.68.02.83-.3.15-.31.02-.68-.3-.83a7.545 7.545 0 0 0-3.27-.73c-.8 0-1.57.13-2.3.35-.05-.25-.08-.5-.08-.73 0-2.41 1.96-4.38 4.38-4.38s4.38 1.96 4.38 4.38v9c0 .34.28.62.62.62s.62-.28.62-.62V10c0-2.41 1.96-4.38 4.38-4.38s4.38 1.96 4.38 4.38a4.59 4.59 0 0 1-.24 1.36c-.58 1.74-2.2 3.01-4.13 3.01-.35 0-.62.28-.62.62s.28.62.62.62c.49 0 .96-.07 1.41-.19-.01.1-.04.2-.04.31 0 1.45 1.18 2.62 2.62 2.62.35 0 .62-.28.62-.62s-.28-.62-.62-.62a1.38 1.38 0 0 1-.79-2.51c.01 0 .02-.02.03-.03.78-.55 1.41-1.3 1.83-2.16a6.36 6.36 0 0 1 3.31 5.57c0 3.24-2.44 5.94-5.62 6.32l.01.02Z"/>
</svg>
