<svg xmlns="http://www.w3.org/2000/svg" viewBox="0 0 36 36">
  <path d="M32 19.38h-6.38v-8.86A7.608 7.608 0 0 0 32 13.97c.35 0 .62-.28.62-.62s-.28-.62-.62-.62c-3.52 0-6.38-2.86-6.38-6.38V5c0-.35-.28-.62-.62-.62s-.62.28-.62.62v1.35c0 3.52-2.86 6.38-6.38 6.38s-6.38-2.86-6.38-6.38V5c0-.35-.28-.62-.62-.62s-.62.28-.62.62v1.35c0 3.52-2.86 6.38-6.38 6.38-.35 0-.62.28-.62.62s.28.62.62.62c2.66 0 5.01-1.38 6.38-3.45v8.86H4c-.35 0-.62.28-.62.62s.28.62.62.62h6.38v6.83c-1.15.28-2 1.31-2 2.54v1c0 .35.28.62.62.62h4c.35 0 .62-.28.62-.62v-1c0-1.23-.85-2.26-2-2.54v-6.83h12.75v6.83c-1.15.28-2 1.31-2 2.54v1c0 .35.28.62.62.62h4c.35 0 .62-.28.62-.62v-1c0-1.23-.85-2.26-2-2.54v-6.83h6.38c.35 0 .62-.28.62-.62s-.28-.62-.62-.62H32ZM12.38 30v.38H9.63V30c0-.76.62-1.38 1.38-1.38s1.38.62 1.38 1.38h-.01Zm14 0v.38h-2.75V30c0-.76.62-1.38 1.38-1.38s1.38.62 1.38 1.38h-.01ZM11.63 19.38v-8.86c1.36 2.08 3.71 3.45 6.38 3.45s5.01-1.38 6.38-3.45v8.86H11.62h.01Z"/>
</svg>
