<svg xmlns="http://www.w3.org/2000/svg" viewBox="0 0 36 36">
  <path d="M25 27.375H12.226A2.6 2.6 0 0 0 12.623 26v-5.375H22a.625.625 0 0 0 0-1.25h-9.376V18.27c0-3.582 2.791-6.562 6.22-6.643 2.268-.042 4.44 1.129 5.62 3.088a.624.624 0 1 0 1.071-.645c-1.41-2.341-4.001-3.742-6.72-3.693-.064.001-.126.011-.19.014V6.51l.933.933a.622.622 0 0 0 .884 0 .626.626 0 0 0 0-.884l-2-2a.625.625 0 0 0-.884 0l-2 2a.626.626 0 0 0 .884.884l.933-.933v4.05c-3.416.778-6 3.967-6 7.711v1.105H10a.625.625 0 0 0 0 1.25h1.375V26c0 .758-.617 1.375-1.375 1.375a.625.625 0 0 0 0 1.25h7.375V31a.625.625 0 0 0 1.25 0v-2.375H25a.625.625 0 0 0 0-1.25Z"/>
</svg>
