<svg xmlns="http://www.w3.org/2000/svg" viewBox="0 0 36 36">
  <path d="M32.182 20.648H27.32a9.281 9.281 0 0 0-.754-3.114h2.342a.626.626 0 0 0 .443-.183l2.181-2.182a.625.625 0 0 0-.885-.884l-1.998 2h-2.753a9.374 9.374 0 0 0-5.427-4.023c.864-.715 1.427-1.782 1.427-2.99 0-2.149-1.748-3.897-3.897-3.897s-3.898 1.748-3.898 3.898c0 1.207.563 2.274 1.427 2.99a9.375 9.375 0 0 0-5.426 4.021H7.349l-1.998-1.999a.625.625 0 0 0-.884.884l2.181 2.182a.626.626 0 0 0 .443.183h2.341a9.28 9.28 0 0 0-.753 3.114h-4.86a.625.625 0 0 0 0 1.25h4.86a9.28 9.28 0 0 0 .754 3.113H7.09a.626.626 0 0 0-.442.183l-2.182 2.182a.625.625 0 0 0 .885.884l1.998-1.999h2.753c1.66 2.618 4.575 4.364 7.897 4.364s6.238-1.746 7.897-4.364h2.754l1.998 2a.624.624 0 0 0 .883 0 .625.625 0 0 0 .001-.885l-2.181-2.182a.626.626 0 0 0-.443-.183h-2.341a9.28 9.28 0 0 0 .753-3.113h4.86a.625.625 0 0 0 0-1.25ZM15.352 9.273c0-1.46 1.188-2.648 2.648-2.648s2.647 1.188 2.647 2.648S19.46 11.92 18 11.92s-2.647-1.187-2.647-2.647ZM18 29.375c-4.468 0-8.102-3.635-8.102-8.102S13.532 13.17 18 13.17s8.102 3.635 8.102 8.103-3.634 8.102-8.102 8.102Z"/>
</svg>
