<svg xmlns="http://www.w3.org/2000/svg" viewBox="0 0 36 36">
  <path d="M31 21.38c-.84 0-1.24-.37-1.74-.83-.56-.52-1.26-1.17-2.59-1.17s-2.03.65-2.59 1.17c-.5.47-.9.83-1.74.83s-1.24-.37-1.74-.83c-.56-.52-1.26-1.17-2.59-1.17s-2.03.65-2.59 1.17c-.5.47-.9.83-1.74.83s-1.24-.37-1.74-.83c-.56-.52-1.26-1.17-2.59-1.17s-2.03.65-2.59 1.17c-.51.47-.9.83-1.74.83-.35 0-.62.28-.62.62s.28.62.62.62c1.33 0 2.03-.65 2.59-1.17.51-.47.9-.83 1.75-.83s1.24.37 1.74.83c.56.52 1.26 1.17 2.59 1.17s2.03-.65 2.59-1.17c.51-.47.9-.83 1.74-.83s1.24.37 1.74.83c.56.52 1.26 1.17 2.59 1.17s2.03-.65 2.59-1.17c.5-.47.9-.83 1.74-.83s1.24.37 1.74.83c.56.52 1.26 1.17 2.59 1.17.35 0 .62-.28.62-.62s-.28-.62-.62-.62H31Zm-2 3H7c-.35 0-.62.28-.62.62v5c0 .34.28.62.62.62h22c.35 0 .62-.28.62-.62v-5c0-.34-.28-.62-.62-.62Zm-.62 5H7.62v-3.75h20.76v3.75ZM7 17.62h22c.35 0 .62-.28.62-.62 0-6.41-5.21-11.62-11.62-11.62S6.38 10.59 6.38 17c0 .34.28.62.62.62Zm11-11c5.51 0 10.03 4.32 10.36 9.75H7.64c.32-5.43 4.85-9.75 10.36-9.75Z"/>
</svg>
