<svg id="uuid-5473d361-0093-4256-a64d-37de22da4613" xmlns="http://www.w3.org/2000/svg" viewBox="0 0 36 36">
  <defs>
    <style>
      .uuid-36757282-4b37-4002-bdd5-8416e051cc25{stroke-width:0}
    </style>
  </defs>
  <g id="uuid-d664edc6-107f-4d37-962e-e9a570d38f07">
    <path class="uuid-36757282-4b37-4002-bdd5-8416e051cc25" d="M17.375 8v7a.625.625 0 0 0 1.25 0V8a.625.625 0 0 0-1.25 0Zm-7 0v3a.625.625 0 0 0 1.25 0V8a.625.625 0 0 0-1.25 0Zm14 0v11a.625.625 0 0 0 1.25 0V8a.625.625 0 0 0-1.25 0Z"/>
    <path class="uuid-36757282-4b37-4002-bdd5-8416e051cc25" d="M5 11.625c.345 0 .625-.28.625-.625V5.625h24.75V23a.625.625 0 0 0 1.25 0V5A.625.625 0 0 0 31 4.375H5A.625.625 0 0 0 4.375 5v6c0 .345.28.625.625.625Zm26 16.75a.625.625 0 0 0-.625.625v1.375H5.625V17a.625.625 0 0 0-1.25 0v14c0 .345.28.625.625.625h26c.345 0 .625-.28.625-.625v-2a.625.625 0 0 0-.625-.625Z"/>
    <path class="uuid-36757282-4b37-4002-bdd5-8416e051cc25" d="M32 25.375h-4.741l-5.817-5.817a.625.625 0 0 0-.442-.183h-5.741l-5.817-5.817A.625.625 0 0 0 9 13.375H4a.625.625 0 0 0 0 1.25h4.741l5.817 5.817a.625.625 0 0 0 .442.183h5.741l5.817 5.817a.625.625 0 0 0 .442.183h5a.625.625 0 0 0 0-1.25Z"/>
  </g>
</svg>
