<svg id="uuid-9523426c-1450-43ee-a16c-1750697c04ac" xmlns="http://www.w3.org/2000/svg" viewBox="0 0 36 36">
  <defs>
    <style>
      .uuid-b97a63e9-ec78-4545-9329-f80ba940e11c{stroke-width:0}
    </style>
  </defs>
  <g id="uuid-d0a8146e-1322-4923-90af-48abb4dd5cb9">
    <path class="uuid-b97a63e9-ec78-4545-9329-f80ba940e11c" d="M26 4.38H10C8 4.38 6.38 6.01 6.38 8v20c0 .34.28.62.62.62h1.38V30c0 .9.73 1.62 1.62 1.62h1c.9 0 1.62-.73 1.62-1.62v-1.38h10.75V30c0 .9.73 1.62 1.62 1.62h1c.9 0 1.62-.73 1.62-1.62v-1.38h1.38c.35 0 .62-.28.62-.62V8c0-2-1.63-3.62-3.62-3.62H26Zm-18.37 17v-9.76h9.75v9.75H7.63v.01Zm11-9.75h9.75v9.75h-9.75v-9.76.01ZM10 5.62h16c1.31 0 2.38 1.07 2.38 2.38v2.38H7.63V8c0-1.31 1.07-2.38 2.38-2.38H10ZM11.38 30c0 .21-.17.38-.38.38h-1a.38.38 0 0 1-.38-.38v-1.38h1.75V30h.01Zm15 0c0 .21-.17.38-.38.38h-1a.38.38 0 0 1-.38-.38v-1.38h1.75V30h.01ZM7.63 27.38v-4.75h20.75v4.75H7.63Z"/>
    <path class="uuid-b97a63e9-ec78-4545-9329-f80ba940e11c" d="M10.44 24.56a.597.597 0 0 0-.2-.14.652.652 0 0 0-.68.14c-.06.06-.1.13-.14.2-.03.08-.04.16-.04.24 0 .16.06.32.18.44.06.06.13.11.2.14.08.03.16.05.24.05s.16-.02.24-.05c.08-.03.15-.08.2-.14a.597.597 0 0 0 .14-.68.558.558 0 0 0-.14-.2Zm16 0a.483.483 0 0 0-.2-.14.662.662 0 0 0-.48 0c-.08.03-.14.08-.2.14-.06.05-.11.13-.14.2-.03.08-.04.16-.04.24 0 .16.06.33.18.44.12.12.28.19.44.19s.32-.07.44-.19c.12-.11.19-.28.19-.44 0-.08-.02-.16-.05-.24a.558.558 0 0 0-.14-.2ZM31 9.38c-.35 0-.62.28-.62.62v4c0 .34.28.62.62.62s.62-.28.62-.62v-4c0-.35-.28-.62-.62-.62Zm-26 0c-.35 0-.62.28-.62.62v4c0 .34.28.62.62.62s.62-.28.62-.62v-4c0-.35-.28-.62-.62-.62Zm7-.76h12c.35 0 .62-.28.62-.62s-.28-.62-.62-.62H12c-.35 0-.62.28-.62.62s.28.62.62.62Z"/>
  </g>
</svg>
