<svg id="uuid-ee29da98-2d8e-4cb5-ab3c-f1c941818d9b" xmlns="http://www.w3.org/2000/svg" viewBox="0 0 36 36">
  <defs>
    <style>
      .uuid-85faa3ac-1bef-464c-b1cb-85ff29b3d0ac{stroke-width:0}
    </style>
  </defs>
  <g id="uuid-9f56c7a9-1877-467a-a8f6-0fd138c4091f">
    <path class="uuid-85faa3ac-1bef-464c-b1cb-85ff29b3d0ac" d="M27 4.375H9A.625.625 0 0 0 8.375 5v26c0 .345.28.625.625.625h18c.345 0 .625-.28.625-.625V5A.625.625 0 0 0 27 4.375Zm-.625 26H9.625V5.625h16.75v24.75Z"/>
    <path class="uuid-85faa3ac-1bef-464c-b1cb-85ff29b3d0ac" d="M12 12.625h12c.345 0 .625-.28.625-.625V8A.625.625 0 0 0 24 7.375H12a.625.625 0 0 0-.625.625v4c0 .345.28.625.625.625Zm.625-4h10.75v2.75h-10.75v-2.75Zm-.625 20h7a.625.625 0 0 0 0-1.25h-7a.625.625 0 0 0 0 1.25Zm12-1.25h-2a.625.625 0 0 0 0 1.25h2a.625.625 0 0 0 0-1.25Zm0-4h-2a.625.625 0 0 0 0 1.25h2a.625.625 0 0 0 0-1.25Zm0-4h-2a.625.625 0 0 0 0 1.25h2a.625.625 0 0 0 0-1.25Zm0-4h-2a.625.625 0 0 0 0 1.25h2a.625.625 0 0 0 0-1.25Zm-5 8h-2a.625.625 0 0 0 0 1.25h2a.625.625 0 0 0 0-1.25Zm0-4h-2a.625.625 0 0 0 0 1.25h2a.625.625 0 0 0 0-1.25Zm0-4h-2a.625.625 0 0 0 0 1.25h2a.625.625 0 0 0 0-1.25Zm-7 9.25h2a.625.625 0 0 0 0-1.25h-2a.625.625 0 0 0 0 1.25Zm0-4h2a.625.625 0 0 0 0-1.25h-2a.625.625 0 0 0 0 1.25Zm0-4h2a.625.625 0 0 0 0-1.25h-2a.625.625 0 0 0 0 1.25Z"/>
  </g>
</svg>
