<svg xmlns="http://www.w3.org/2000/svg" viewBox="0 0 36 36">
  <path d="M31 4.375H5A.625.625 0 0 0 4.375 5v20c0 .028.013.052.016.08a.574.574 0 0 0 .016.08.619.619 0 0 0 .151.282l6 6a.623.623 0 0 0 .442.183h20c.345 0 .625-.28.625-.625V5A.625.625 0 0 0 31 4.375Zm-.625 1.25v3.75h-4.75V8a.625.625 0 1 0-1.25 0v1.375h-12.75V8a.625.625 0 1 0-1.25 0v1.375h-4.75v-3.75h24.75Zm-20 23.866-3.866-3.866h3.866v3.866Zm1.25.884V25a.625.625 0 0 0-.625-.625H5.625v-13.75h4.75V12a.625.625 0 1 0 1.25 0v-1.375h12.75V12a.625.625 0 1 0 1.25 0v-1.375h4.75v19.75h-18.75Z"/>
</svg>
