<svg id="uuid-537ab890-6fc0-4e5b-807f-5fc9aa1f0f69" xmlns="http://www.w3.org/2000/svg" viewBox="0 0 36 36">
  <defs>
    <style>
      .uuid-2624d4f8-a866-4b60-bd86-b04d4e5b672f{stroke-width:0}
    </style>
  </defs>
  <g id="uuid-13075d53-99e9-452e-8bf1-e7e311e713be">
    <path class="uuid-2624d4f8-a866-4b60-bd86-b04d4e5b672f" d="M31 9.375h-6.741l-2.817-2.817A.625.625 0 0 0 21 6.375h-6a.625.625 0 0 0-.442.183l-2.817 2.817H5a.625.625 0 0 0-.625.625v19c0 .345.28.625.625.625h26c.345 0 .625-.28.625-.625V10A.625.625 0 0 0 31 9.375Zm-19 1.25a.625.625 0 0 0 .442-.183l2.817-2.817h5.482l2.817 2.817a.625.625 0 0 0 .442.183h6.375v4.75h-7.64a6.602 6.602 0 0 0-9.47 0h-7.64v-4.75H12Zm6 4c2.964 0 5.375 2.411 5.375 5.375S20.964 25.375 18 25.375 12.625 22.964 12.625 20s2.411-5.375 5.375-5.375ZM5.625 28.375v-11.75h6.684A6.575 6.575 0 0 0 11.375 20c0 3.653 2.972 6.625 6.625 6.625s6.625-2.972 6.625-6.625a6.575 6.575 0 0 0-.934-3.375h6.684v11.75H5.625Z"/>
    <path class="uuid-2624d4f8-a866-4b60-bd86-b04d4e5b672f" d="M8 8.625h2a.625.625 0 0 0 0-1.25H8a.625.625 0 0 0 0 1.25Zm18 5h2a.625.625 0 0 0 0-1.25h-2a.625.625 0 0 0 0 1.25Zm-11 7c.345 0 .625-.28.625-.625A2.378 2.378 0 0 1 18 17.625a.625.625 0 0 0 0-1.25A3.629 3.629 0 0 0 14.375 20c0 .345.28.625.625.625Z"/>
  </g>
</svg>
