<svg id="uuid-5dccd30a-3c79-478c-a9e5-b4340d553772" xmlns="http://www.w3.org/2000/svg" viewBox="0 0 36 36">
  <defs>
    <style>
      .uuid-ea53f3a7-8ccf-44f4-9513-ca076199ac7e{stroke-width:0}
    </style>
  </defs>
  <g id="uuid-c51cd116-5dae-4070-8240-e3599510e44c">
    <path class="uuid-ea53f3a7-8ccf-44f4-9513-ca076199ac7e" d="M26.11 11.92c0-.05-.01-.1-.03-.15a.673.673 0 0 0-.07-.11c-.02-.03-.03-.06-.05-.09L23.2 8.62h1.56c.34 0 .62-.28.62-.62s-.28-.62-.62-.62h-7.93L13.4 4.52c-.26-.22-.66-.19-.88.08s-.18.66.08.88l2.27 1.89h-3.63c-.34 0-.62.28-.62.62s.28.62.62.62h1.56l-2.76 2.95s-.03.06-.05.09c-.02.04-.05.07-.07.11-.02.05-.02.1-.03.15 0 .03-.02.05-.02.08v15s.01.05.02.08a.401.401 0 0 0 .1.26c.02.03.03.06.05.09l3.75 4c.05.05.11.09.18.12 0 0 .02.01.03.02.07.03.16.05.24.05h7.5c.09 0 .17-.02.24-.05 0 0 .02-.01.03-.02.07-.03.13-.07.18-.12l3.75-4s.03-.06.05-.09c.02-.04.05-.07.07-.11.02-.05.02-.1.03-.15 0-.03.02-.05.02-.08V12s-.01-.05-.02-.08h.02Zm-4.63 18.45h-6.96l-2.58-2.75h12.11l-2.58 2.75h.01Zm3.4-4H11.12V12.62h13.75v13.75h.01Zm-3.4-17.75 2.58 2.75H11.94l2.58-2.75h6.96Z"/>
    <path class="uuid-ea53f3a7-8ccf-44f4-9513-ca076199ac7e" d="M18 24.12c2.55 0 4.62-2.08 4.62-4.62s-2.08-4.62-4.62-4.62-4.62 2.08-4.62 4.62 2.08 4.62 4.62 4.62Zm0-8c1.86 0 3.38 1.51 3.38 3.38s-1.51 3.38-3.38 3.38-3.38-1.51-3.38-3.38 1.51-3.38 3.38-3.38Z"/>
  </g>
</svg>
