<svg xmlns="http://www.w3.org/2000/svg" viewBox="0 0 36 36">
  <path d="M14 29.625h8c.345 0 .625-.28.625-.625V11a.625.625 0 0 0-.625-.625h-8a.625.625 0 0 0-.625.625v18c0 .345.28.625.625.625Zm.625-1.25v-8.75H16A2.628 2.628 0 0 0 18.625 17c0-.758.617-1.375 1.375-1.375h1.375v12.75h-6.75Zm6.75-16.75v2.75H20A2.628 2.628 0 0 0 17.375 17c0 .758-.617 1.375-1.375 1.375h-1.375v-6.75h6.75ZM27 30.375H9a.625.625 0 0 0 0 1.25h18a.625.625 0 0 0 0-1.25Zm-9-20.75c.15 0 .3-.054.418-.161.847-.763 1.333-1.843 1.333-2.964s-.486-2.201-1.332-2.964a.624.624 0 0 0-.837 0C16.735 4.3 16.25 5.38 16.25 6.5s.485 2.201 1.332 2.964a.623.623 0 0 0 .418.161Zm0-4.692c.326.458.5.998.5 1.567s-.174 1.11-.5 1.567c-.326-.458-.5-.998-.5-1.567s.174-1.11.5-1.567Z"/>
</svg>
