<svg id="uuid-798d9f2b-6645-4e86-bef8-2491eaa7b646" xmlns="http://www.w3.org/2000/svg" viewBox="0 0 36 36">
  <defs>
    <style>
      .uuid-1d96ea46-c533-4758-b49a-6e2581e65981{stroke-width:0}
    </style>
  </defs>
  <path class="uuid-1d96ea46-c533-4758-b49a-6e2581e65981" d="M13.76 17.42c-.08.03-.14.08-.2.14a.66.66 0 0 0-.14.2c-.03.08-.04.16-.04.24 0 .16.06.33.18.44.12.12.28.19.44.19.08 0 .16-.02.24-.05.08-.03.15-.08.2-.14.06-.06.11-.12.14-.2a.597.597 0 0 0-.14-.68.652.652 0 0 0-.68-.14Zm4.68.14a.558.558 0 0 0-.2-.14.633.633 0 0 0-.68.14c-.12.11-.18.27-.18.44a.558.558 0 0 0 .18.44c.06.06.13.11.2.14.08.03.16.05.24.05.16 0 .33-.07.44-.19.12-.12.19-.28.19-.44 0-.08-.02-.16-.05-.24a.66.66 0 0 0-.14-.2Zm4 0a.558.558 0 0 0-.2-.14.633.633 0 0 0-.68.14c-.06.06-.1.12-.14.2-.03.08-.04.16-.04.24s0 .16.04.24.08.14.14.2c.12.12.28.19.44.19.17 0 .33-.07.44-.19.06-.06.11-.12.14-.2.03-.08.05-.16.05-.24s-.02-.16-.05-.24a.558.558 0 0 0-.14-.2Z"/>
  <path class="uuid-1d96ea46-c533-4758-b49a-6e2581e65981" d="M9 20.58h18c.35 0 .62-.28.62-.62s-.28-.62-.62-.62h-1.38v-.38c0-3.28-2.09-6.08-5-7.15V8c0-.35-.28-.62-.62-.62h-1.38V4c0-.35-.28-.62-.62-.62s-.62.28-.62.62v3.38H16c-.35 0-.62.28-.62.62v3.81c-2.91 1.07-5 3.87-5 7.15v.38H9c-.35 0-.62.28-.62.62s.28.62.62.62Zm7.62-11.96h2.75v2.71h-2.75V8.62Zm-5 10.33c0-3.52 2.86-6.38 6.38-6.38s6.38 2.86 6.38 6.38v.38H11.62v-.38ZM31 30.38h-1.38v-3.42c0-.35-.28-.62-.62-.62H7c-.35 0-.62.28-.62.62v3.42H5c-.35 0-.62.28-.62.62s.28.62.62.62h26c.35 0 .62-.28.62-.62s-.28-.62-.62-.62Zm-2.62 0H7.62v-2.79h20.76v2.79ZM9.38 22v3c0 .35.28.62.62.62s.62-.28.62-.62v-3c0-.35-.28-.62-.62-.62s-.62.28-.62.62Zm4 0v3c0 .35.28.62.62.62s.62-.28.62-.62v-3c0-.35-.28-.62-.62-.62s-.62.28-.62.62Zm4 0v3c0 .35.28.62.62.62s.62-.28.62-.62v-3c0-.35-.28-.62-.62-.62s-.62.28-.62.62Zm4 0v3c0 .35.28.62.62.62s.62-.28.62-.62v-3c0-.35-.28-.62-.62-.62s-.62.28-.62.62Zm4 0v3c0 .35.28.62.62.62s.62-.28.62-.62v-3c0-.35-.28-.62-.62-.62s-.62.28-.62.62Z"/>
  <path class="uuid-1d96ea46-c533-4758-b49a-6e2581e65981" d="M9.56 29.44c.06.06.13.11.2.14a.597.597 0 0 0 .68-.14c.06-.06.11-.12.14-.2.03-.08.04-.16.04-.24s0-.16-.04-.24a.558.558 0 0 0-.14-.2.647.647 0 0 0-.88 0 .62.62 0 0 0-.18.44c0 .08 0 .16.04.24s.08.14.14.2Zm4 0c.06.06.13.11.2.14a.597.597 0 0 0 .68-.14c.06-.06.11-.12.14-.2.03-.08.05-.16.05-.24s-.02-.16-.05-.24-.08-.14-.14-.2a.647.647 0 0 0-.88 0 .62.62 0 0 0-.18.44c0 .08 0 .16.04.24s.08.14.14.2Zm4 0c.06.06.12.11.2.14a.597.597 0 0 0 .68-.14c.06-.06.11-.12.14-.2.03-.08.05-.16.05-.24s-.02-.16-.05-.24a.718.718 0 0 0-.34-.34.662.662 0 0 0-.48 0c-.08.04-.14.08-.2.14a.62.62 0 0 0-.18.44c0 .08 0 .16.04.24s.08.14.14.2Zm4 0c.11.12.28.19.44.19.08 0 .16-.02.24-.05.08-.03.14-.08.2-.14s.11-.12.14-.2c.03-.08.05-.16.05-.24 0-.16-.07-.32-.19-.44a.718.718 0 0 0-.2-.14.662.662 0 0 0-.48 0 .718.718 0 0 0-.34.34c-.03.08-.04.16-.04.24s0 .16.04.24c.03.08.08.14.14.2Zm4 0c.11.12.28.19.44.19.08 0 .16-.02.24-.05.08-.03.14-.08.2-.14s.11-.12.14-.2c.03-.08.05-.16.05-.24 0-.16-.07-.32-.19-.44a.718.718 0 0 0-.2-.14.662.662 0 0 0-.48 0 .718.718 0 0 0-.34.34c-.03.08-.04.16-.04.24s0 .16.04.24c.03.08.08.14.14.2Z"/>
</svg>
