<svg id="uuid-52a00b7a-d368-4aed-af0c-614b02b536e7" xmlns="http://www.w3.org/2000/svg" viewBox="0 0 36 36">
  <defs>
    <style>
      .uuid-6969e671-0f69-4ab0-923c-4d26dcf6b0ff{stroke-width:0}
    </style>
  </defs>
  <g id="uuid-397a24a1-6e9e-4849-bb58-8c4f6c4f178a">
    <path class="uuid-6969e671-0f69-4ab0-923c-4d26dcf6b0ff" d="M29 13.38h-.55l-2.86-8.57a.625.625 0 0 0-.59-.43H11c-.27 0-.51.17-.59.43l-2.86 8.57H7c-1.45 0-2.62 1.18-2.62 2.62v8c0 .35.28.62.62.62h26c.35 0 .62-.28.62-.62v-8c0-1.45-1.18-2.62-2.62-2.62ZM11.45 5.62h13.1l2.58 7.75H8.87l2.58-7.75Zm18.93 17.76H5.62V16c0-.76.62-1.38 1.38-1.38h22c.76 0 1.38.62 1.38 1.38v7.38Z"/>
    <path class="uuid-6969e671-0f69-4ab0-923c-4d26dcf6b0ff" d="M9 17.38c-.35 0-.62.28-.62.62v2c0 .35.28.62.62.62s.62-.28.62-.62v-2c0-.35-.28-.62-.62-.62Zm18 0c-.35 0-.62.28-.62.62v2c0 .35.28.62.62.62s.62-.28.62-.62v-2c0-.35-.28-.62-.62-.62Zm-4-1H13c-.35 0-.62.28-.62.62v4c0 .35.28.62.62.62h10c.35 0 .62-.28.62-.62v-4c0-.35-.28-.62-.62-.62Zm-.62 4h-8.76v-2.75h8.75v2.75h.01ZM6 12.62c.35 0 .62-.28.62-.62v-1c0-.35-.28-.62-.62-.62s-.62.28-.62.62v1c0 .35.28.62.62.62Zm24 0c.35 0 .62-.28.62-.62v-1c0-.35-.28-.62-.62-.62s-.62.28-.62.62v1c0 .35.28.62.62.62Zm1 13.76H5c-.35 0-.62.28-.62.62s.28.62.62.62h1.38V30c0 .9.73 1.62 1.62 1.62h2c.9 0 1.62-.73 1.62-1.62v-2.38h12.75V30c0 .9.73 1.62 1.62 1.62h2c.9 0 1.62-.73 1.62-1.62v-2.38h1.38c.35 0 .62-.28.62-.62s-.28-.62-.62-.62H31ZM10.38 30c0 .21-.17.38-.38.38H8a.38.38 0 0 1-.38-.38v-2.38h2.75V30h.01Zm18 0c0 .21-.17.38-.38.38h-2a.38.38 0 0 1-.38-.38v-2.38h2.75V30h.01Z"/>
  </g>
</svg>
