<svg xmlns="http://www.w3.org/2000/svg" viewBox="0 0 36 36">
  <path d="M31.36 15.43c-.1-.04-.2-.05-.3-.04-.02 0-.03-.01-.05-.01h-2.38V12c0-.35-.28-.62-.62-.62h-4.38V9c0-.35-.28-.62-.62-.62h-5c-.35 0-.62.28-.62.62v8.38h-1.75V12c0-.35-.28-.62-.62-.62h-1.38v-.75h.38c.35 0 .62-.28.62-.62s-.28-.62-.62-.62h-2c-.35 0-.62.28-.62.62s.28.62.62.62h.38v.75h-2.38c-.17 0-.32.07-.44.18l-3.82 3.82h-.74c-.35 0-.62.28-.62.62 0 2.66.82 5.21 2.37 7.36a.617.617 0 0 0 .87.14c.28-.2.34-.59.14-.87a11.336 11.336 0 0 1-2.11-6.01h6.73V18c0 .35.28.62.62.62h15c.35 0 .62-.28.62-.62v-1.38h1.51l-2.71 6.09c-.14.32 0 .69.32.83.08.04.17.05.25.05.24 0 .47-.14.57-.37l3.1-6.96c.14-.32 0-.69-.32-.83Zm-3.98-1.05h-3.75v-1.75h3.75v1.75Zm-8.75-1.75h3.75v1.75h-3.75v-1.75Zm0-3h3.75v1.75h-3.75V9.63Zm-5.62 5.75h-5.5l2.75-2.75h4.12v4.75h-.75V16c0-.35-.28-.62-.62-.62Zm5.62.25h3.75v1.75h-3.75v-1.75Zm8.75 1.75h-3.75v-1.75h3.75v1.75Zm3.94 8.53c-.32-.19-.6-.42-.85-.71a.647.647 0 0 0-.94 0c-.65.74-1.57 1.17-2.53 1.17s-1.88-.42-2.53-1.17a.647.647 0 0 0-.94 0c-.65.74-1.57 1.17-2.53 1.17s-1.88-.42-2.53-1.17a.647.647 0 0 0-.94 0c-.65.74-1.57 1.17-2.53 1.17s-1.88-.42-2.53-1.17a.647.647 0 0 0-.94 0c-.65.74-1.57 1.17-2.53 1.17s-1.88-.42-2.53-1.17a.647.647 0 0 0-.94 0c-.25.28-.53.52-.85.71-.3.18-.4.56-.22.86.17.3.56.4.86.22.24-.14.47-.31.68-.49 1.67 1.44 4.33 1.44 6 0 1.67 1.44 4.33 1.44 6 0 1.67 1.44 4.33 1.44 6 0 .84.72 1.9 1.13 3 1.13s2.16-.4 3-1.12c.21.18.44.35.68.49.3.18.68.08.86-.22s.08-.68-.22-.86v-.01Z"/>
</svg>
