<svg xmlns="http://www.w3.org/2000/svg" viewBox="0 0 36 36">
  <path d="M19.5 10.95c-1.52.16-2.87.99-3.7 2.27L4.48 30.66a.62.62 0 0 0 .86.86l17.44-11.33c1.28-.83 2.11-2.18 2.27-3.7s-.37-3.01-1.45-4.1a5.05 5.05 0 0 0-4.09-1.45l-.01.01Zm2.59 8.2-4.89 3.17-1.77-1.77c-.24-.24-.64-.24-.88 0s-.24.64 0 .88l1.58 1.58-9.01 5.85 8.61-13.24 1.82 1.82c.12.12.28.18.44.18s.32-.06.44-.18c.24-.24.24-.64 0-.88l-2-2h-.01l.42-.65a3.769 3.769 0 0 1 3.19-1.73 3.79 3.79 0 0 1 3.77 4.19 3.75 3.75 0 0 1-1.71 2.78Zm7.35-11.71c.24-.24.24-.64 0-.88s-.64-.24-.88 0l-3 3c-.24.24-.24.64 0 .88.12.12.28.18.44.18s.32-.06.44-.18l3-3Zm1.83 4.1a4.39 4.39 0 0 0-5 .86c-.24.24-.24.64 0 .88.12.12.28.18.44.18s.32-.06.44-.18a3.14 3.14 0 0 1 3.58-.61c.31.15.68.02.83-.29s.02-.68-.29-.83v-.01Zm-8.11-1.62c.16 0 .32-.06.44-.18a4.407 4.407 0 0 0 .86-5c-.15-.31-.52-.44-.83-.29s-.44.52-.29.83c.57 1.2.33 2.64-.61 3.58-.24.24-.24.64 0 .88.12.12.28.18.44.18h-.01Z"/>
</svg>
