<svg id="uuid-4ae1e6b9-f0b3-4738-a630-0ff0eedaa77a" xmlns="http://www.w3.org/2000/svg" viewBox="0 0 36 36">
  <defs>
    <style>
      .uuid-cad7e07f-9195-4266-a008-6861e5de3cd0{stroke-width:0}
    </style>
  </defs>
  <path class="uuid-cad7e07f-9195-4266-a008-6861e5de3cd0" d="M31 27.38H11.62V8c0-2-1.63-3.62-3.62-3.62S4.38 6.01 4.38 8c0 .35.28.62.62.62s.62-.28.62-.62c0-1.31 1.07-2.38 2.38-2.38S10.38 6.69 10.38 8v20c0 .35.28.62.62.62h20c.35 0 .62-.28.62-.62s-.28-.62-.62-.62Z"/>
  <path class="uuid-cad7e07f-9195-4266-a008-6861e5de3cd0" d="M14 25.62h16c.35 0 .62-.28.62-.62V9c0-.35-.28-.62-.62-.62H14c-.35 0-.62.28-.62.62v16c0 .35.28.62.62.62Zm9.38-16v4.75h-2.75V9.62h2.75Zm-8.75 0h4.75V15c0 .35.28.62.62.62h4c.35 0 .62-.28.62-.62V9.62h4.75v14.75H14.62V9.62h.01Zm-1.19 21.82c.06-.05.11-.13.14-.2.03-.08.05-.16.05-.24 0-.16-.07-.32-.19-.44a.633.633 0 0 0-.68-.14c-.07.04-.14.08-.2.14-.12.11-.18.28-.18.44 0 .17.06.33.18.44.11.12.28.19.44.19.17 0 .33-.07.44-.19Zm15.8-1.02a.633.633 0 0 0-.68.14.66.66 0 0 0-.14.2c-.03.08-.04.16-.04.24s0 .16.04.24c.03.08.08.15.14.2.12.12.28.19.44.19.17 0 .33-.07.44-.19.12-.11.19-.27.19-.44 0-.16-.07-.32-.19-.44a.483.483 0 0 0-.2-.14Z"/>
</svg>
