<svg id="uuid-c6405671-f6a1-47fd-9494-0481df01e776" xmlns="http://www.w3.org/2000/svg" viewBox="0 0 36 36">
  <defs>
    <style>
      .uuid-ecc5cd3d-c4f8-4e3b-aac0-a5f5c16c4666{stroke-width:0}
    </style>
  </defs>
  <g id="uuid-5d19c630-c72f-48d8-922e-8c0cd54696fc">
    <path class="uuid-ecc5cd3d-c4f8-4e3b-aac0-a5f5c16c4666" d="M25 26.375a.625.625 0 0 0-.625.625v3.375H5.625V9.625H9c.345 0 .625-.28.625-.625V5.625h14.75V11a.625.625 0 1 0 1.25 0V5A.625.625 0 0 0 25 4.375H9c-.028 0-.052.013-.08.016a.584.584 0 0 0-.08.016.62.62 0 0 0-.282.151l-4 4a.619.619 0 0 0-.15.282.574.574 0 0 0-.017.08c-.004.028-.016.052-.016.08v22c0 .345.28.625.625.625h20c.345 0 .625-.28.625-.625v-4a.625.625 0 0 0-.625-.625ZM8.375 6.509v1.866H6.509l1.866-1.866Z"/>
    <path class="uuid-ecc5cd3d-c4f8-4e3b-aac0-a5f5c16c4666" d="m31.442 27.558-4.339-4.339A6.594 6.594 0 0 0 28.625 19c0-3.653-2.972-6.625-6.625-6.625S15.375 15.347 15.375 19s2.972 6.625 6.625 6.625a6.594 6.594 0 0 0 4.22-1.522l4.338 4.339a.622.622 0 0 0 .884 0 .625.625 0 0 0 0-.884ZM16.625 19c0-2.964 2.411-5.375 5.375-5.375s5.375 2.411 5.375 5.375-2.411 5.375-5.375 5.375-5.375-2.411-5.375-5.375Z"/>
  </g>
</svg>
