<svg id="uuid-4ea6d774-c908-4eb1-a162-a576699e80ba" xmlns="http://www.w3.org/2000/svg" viewBox="0 0 36 36">
  <defs>
    <style>
      .uuid-853709a5-12a0-4d6f-85e0-593af8af4b60{stroke-width:0}
    </style>
  </defs>
  <g id="uuid-c15344e8-99fc-49cb-a259-6ef0ec43024d">
    <path class="uuid-853709a5-12a0-4d6f-85e0-593af8af4b60" d="M31 4.375H5A.625.625 0 0 0 4.375 5v6c0 .345.28.625.625.625h8a.625.625 0 0 0 0-1.25H5.625v-4.75h24.75v4.75H22a.625.625 0 0 0 0 1.25h9c.345 0 .625-.28.625-.625V5A.625.625 0 0 0 31 4.375Zm-24.064 15H5.625v-4.75H13a.625.625 0 0 0 0-1.25H5a.625.625 0 0 0-.625.625v6c0 .345.28.625.625.625h1.937a.625.625 0 0 0 0-1.25Zm24.064-6h-9a.625.625 0 0 0 0 1.25h9a.625.625 0 0 0 0-1.25Z"/>
    <path class="uuid-853709a5-12a0-4d6f-85e0-593af8af4b60" d="m28.136 18.39-8.511-1.891V10.5c0-1.172-.953-2.125-2.125-2.125s-2.125.953-2.125 2.125v10.532c-1.1-1.409-2.535-2.815-3.875-2.815a2.127 2.127 0 0 0-2.125 2.125c0 .686.334 1.333.893 1.731l.014.007c.608.446 1.008 1.167 1.093 1.986 0 .008.006.015.007.023.54 4.297 4.243 7.536 8.618 7.536 4.756 0 8.625-3.869 8.625-8.625v-4a.625.625 0 0 0-.49-.61ZM27.375 23c0 4.066-3.309 7.375-7.375 7.375-3.749 0-6.922-2.774-7.38-6.452-.001-.01-.007-.018-.01-.027-.132-1.163-.716-2.198-1.612-2.843l-.012-.006a.876.876 0 0 1-.361-.705c0-.482.393-.875.875-.875.889 0 2.485 1.556 3.975 3.871a.625.625 0 0 0 1.15-.338V10.5a.876.876 0 0 1 1.75 0V17c0 .293.203.546.49.61l8.51 1.891V23Z"/>
  </g>
</svg>
