<svg xmlns="http://www.w3.org/2000/svg" viewBox="0 0 36 36">
  <path d="M24 12.625c.16 0 .32-.06.442-.183l7-7a.626.626 0 0 0-.885-.885l-7 7a.628.628 0 0 0 0 .885.623.623 0 0 0 .443.183Zm5 2.75h-5a.626.626 0 0 0 0 1.25h5a.626.626 0 0 0 0-1.25Zm3.58.385a.664.664 0 0 0-.14-.2.67.67 0 0 0-.2-.14.659.659 0 0 0-.48 0 .678.678 0 0 0-.34.34c-.03.08-.05.16-.05.24s.02.16.05.24c.04.08.08.15.14.2.06.06.13.11.2.14.08.03.16.05.24.05s.16-.02.24-.05a.66.66 0 0 0 .2-.14c.06-.05.11-.12.14-.2.03-.08.05-.16.05-.24s-.02-.16-.05-.24ZM19.375 7v5a.626.626 0 0 0 1.25 0V7a.626.626 0 0 0-1.25 0ZM20 4.63c.16 0 .32-.07.44-.19s.19-.28.19-.44a.632.632 0 0 0-1.07-.44c-.12.12-.19.28-.19.44s.07.32.19.44.28.19.44.19Zm-5.558 5.928c-.004-.004-.01-.005-.014-.009a.62.62 0 0 0-.219-.132c-.03-.01-.058-.012-.089-.018-.04-.008-.077-.024-.12-.024-.022 0-.042.01-.063.013-.017.001-.033-.006-.05-.003-.019.003-.033.018-.051.023a.603.603 0 0 0-.167.075c-.026.017-.051.03-.074.05a.616.616 0 0 0-.139.176c-.007.013-.02.02-.026.034l-9 20a.626.626 0 0 0 .827.827l20-9a.63.63 0 0 0 .358-.458.63.63 0 0 0-.173-.554l-11-11Zm-1.067 15.988-3.75 1.687v-5.988l3.75-8.334v12.635Zm1.25-14.037 3.75 3.75v8.037l-3.75 1.687V12.51Zm-6.25 12.514v3.773l-2.129.958 2.129-4.731Zm11.25-1.29V17.51l4.293 4.293-4.293 1.931Z"/>
</svg>
