<svg id="uuid-bbe35c99-1df8-458e-a6fc-32efa6073461" xmlns="http://www.w3.org/2000/svg" viewBox="0 0 36 36">
  <defs>
    <style>
      .uuid-b8d4a11b-0738-464d-8f28-3d165a60a593{stroke-width:0}
    </style>
  </defs>
  <path class="uuid-b8d4a11b-0738-464d-8f28-3d165a60a593" d="M5 30.62h26c.35 0 .62-.28.62-.62V10c0-.35-.28-.62-.62-.62h-6.48l-.74-3.5a.63.63 0 0 0-.61-.5H12.84a.63.63 0 0 0-.61.5l-.74 3.5H5c-.35 0-.62.28-.62.62v20c0 .35.28.62.62.62Zm8.35-24h9.31l.58 2.75H12.76l.58-2.75h.01Zm-7.72 4h24.75v18.76H5.62V10.62h.01Z"/>
  <path class="uuid-b8d4a11b-0738-464d-8f28-3d165a60a593" d="M28 8.62h2c.35 0 .62-.28.62-.62s-.28-.62-.62-.62h-2c-.35 0-.62.28-.62.62s.28.62.62.62Zm-22 0h2c.35 0 .62-.28.62-.62s-.28-.62-.62-.62H6c-.35 0-.62.28-.62.62s.28.62.62.62Z"/>
</svg>
