<svg id="uuid-13c5406f-0890-4ecd-b93d-59fadf562edd" xmlns="http://www.w3.org/2000/svg" viewBox="0 0 36 36">
  <defs>
    <style>
      .uuid-93e7d2d3-b916-45ed-997e-37d90ebbe2ba{stroke-width:0}
    </style>
  </defs>
  <g id="uuid-12940f9a-30ae-46a4-8a9b-9acad6ecc02d">
    <path class="uuid-93e7d2d3-b916-45ed-997e-37d90ebbe2ba" d="M23 24.375H5.625v-12.75H9c.345 0 .625-.28.625-.625V7.625h18.75V14c.004.817 1.246.817 1.25 0V7A.625.625 0 0 0 29 6.375H9c-.029 0-.053.013-.081.016a.6.6 0 0 0-.079.016.619.619 0 0 0-.278.149c-.001 0-.003 0-.004.002l-4 4-.001.002a.621.621 0 0 0-.15.28.584.584 0 0 0-.016.08c-.004.028-.016.052-.016.08v14c0 .345.28.625.625.625h18c.818-.004.817-1.246 0-1.25ZM8.375 8.509v1.866H6.509l1.866-1.866Z"/>
    <path class="uuid-93e7d2d3-b916-45ed-997e-37d90ebbe2ba" d="M31.625 20.11A3.629 3.629 0 0 0 28 16.483c-3.126-.069-4.817 3.927-2.625 6.111V29a.624.624 0 0 0 1.067.442L28 27.884l1.558 1.558A.626.626 0 0 0 30.625 29v-6.405c.616-.65 1-1.521 1-2.486ZM28 17.733c3.132.083 3.131 4.669 0 4.75-3.132-.082-3.131-4.668 0-4.75Zm.442 8.824a.625.625 0 0 0-.884 0l-.933.933v-4.03c.84.362 1.91.362 2.75 0v4.031l-.933-.933ZM19.625 18a.625.625 0 0 0-.625-.625H9c-.818.004-.817 1.246 0 1.25h10c.345 0 .625-.28.625-.625ZM9 20.375c-.818.004-.817 1.246 0 1.25h6c.818-.004.817-1.246 0-1.25H9Z"/>
  </g>
</svg>
