<svg id="uuid-870dd313-8851-4af5-8ad5-7ff531fd4bcd" xmlns="http://www.w3.org/2000/svg" viewBox="0 0 36 36">
  <defs>
    <style>
      .uuid-0ef23857-b6dc-4fd7-8b1d-78b1b5a23b6f{stroke-width:0}
    </style>
  </defs>
  <g id="uuid-7e77d9c0-765c-461e-82f1-9351d84a81dc">
    <path class="uuid-0ef23857-b6dc-4fd7-8b1d-78b1b5a23b6f" d="M28 4.375H12c-.028 0-.052.013-.08.016a.592.592 0 0 0-.08.016.619.619 0 0 0-.282.151l-4 4a.619.619 0 0 0-.15.282.574.574 0 0 0-.017.08c-.004.028-.016.052-.016.08v22c0 .345.28.625.625.625h20c.345 0 .625-.28.625-.625V5A.625.625 0 0 0 28 4.375ZM11.375 6.509v1.866H9.509l1.866-1.866Zm16 23.866H8.625V9.625H12c.345 0 .625-.28.625-.625V5.625h14.75v24.75Z"/>
    <path class="uuid-0ef23857-b6dc-4fd7-8b1d-78b1b5a23b6f" d="M14 22.625h8c.345 0 .625-.28.625-.625v-2.667a.625.625 0 1 0-1.25 0v2.042h-6.75v-6.75h4.708a.625.625 0 1 0 0-1.25H14a.625.625 0 0 0-.625.625v8c0 .345.28.625.625.625Z"/>
    <path class="uuid-0ef23857-b6dc-4fd7-8b1d-78b1b5a23b6f" d="M17.108 17.558a.625.625 0 1 0-.883.884l1.333 1.333a.622.622 0 0 0 .884 0l4-4a.625.625 0 1 0-.884-.883L18 18.45l-.892-.892Z"/>
  </g>
</svg>
