<svg id="uuid-37030efa-fa4a-45a4-9f24-dfc54d2c82dc" xmlns="http://www.w3.org/2000/svg" viewBox="0 0 36 36">
  <defs>
    <style>
      .uuid-2f87071c-9d00-438f-af4b-7bc1e7888fd8{stroke-width:0}
    </style>
  </defs>
  <path class="uuid-2f87071c-9d00-438f-af4b-7bc1e7888fd8" d="M14 18.62h8c.35 0 .62-.28.62-.62s-.28-.62-.62-.62h-.38V13c0-.35-.28-.62-.62-.62s-.62.28-.62.62v4.38h-1.75v-2.5c0-.35-.28-.62-.62-.62s-.62.28-.62.62v2.5h-1.75v-1.25c0-.35-.28-.62-.62-.62s-.62.28-.62.62v1.25h-.38c-.35 0-.62.28-.62.62s.28.62.62.62H14Z"/>
  <path class="uuid-2f87071c-9d00-438f-af4b-7bc1e7888fd8" d="M31 6.38H5c-.35 0-.62.28-.62.62v17c0 .35.28.62.62.62h10.38v3.75H9c-.35 0-.62.28-.62.62s.28.62.62.62h18c.35 0 .62-.28.62-.62s-.28-.62-.62-.62h-6.38v-3.75H31c.35 0 .62-.28.62-.62V7c0-.35-.28-.62-.62-.62Zm-11.62 22h-2.75v-3.75h2.75v3.75Zm11-5H5.62V7.62h24.76v15.76Z"/>
</svg>
