<svg id="uuid-aba48f06-1165-4d31-bad8-bbaa834f14f1" xmlns="http://www.w3.org/2000/svg" viewBox="0 0 36 36">
  <defs>
    <style>
      .uuid-a6885a34-99ae-45a3-9dd6-a7ec18c136e4{stroke-width:0}
    </style>
  </defs>
  <g id="uuid-19d08258-fd54-410b-a098-c895251fef8c">
    <g id="uuid-a05d120c-b0a6-46b5-a428-fd83643157ee">
      <path class="uuid-a6885a34-99ae-45a3-9dd6-a7ec18c136e4" d="M5 31.62h25c.35 0 .62-.28.62-.62v-1c0-.35-.28-.62-.62-.62s-.62.28-.62.62v.38h-6.75v-5.83a2.616 2.616 0 0 0-.62-5.16c-1.44 0-2.62 1.18-2.62 2.62 0 1.23.85 2.26 2 2.54v5.83h-7.75v-3.12l2.82-2.82a.62.62 0 0 0 .18-.44v-4.46a2.616 2.616 0 0 0-.62-5.16c-1.44 0-2.62 1.18-2.62 2.62 0 1.23.85 2.26 2 2.54v4.2l-2.82 2.82a.62.62 0 0 0-.18.44v3.38H5.62V5.62h6.75v4.12l-2.82 2.82a.62.62 0 0 0-.18.44v6.46a2.616 2.616 0 0 0 .62 5.16c1.44 0 2.62-1.18 2.62-2.62 0-1.23-.85-2.26-2-2.54v-6.2l2.82-2.82a.62.62 0 0 0 .18-.44V5.62h7.75v3.83a2.616 2.616 0 0 0 .62 5.16c1.44 0 2.62-1.18 2.62-2.62 0-1.23-.85-2.26-2-2.54V5.62h6.75v2.75h-1.38c-.35 0-.62.28-.62.62v6c0 .35.28.62.62.62h1.38v1.38c0 .35.28.62.62.62s.62-.28.62-.62v-2c0-.35-.28-.62-.62-.62h-1.38V9.62h1.38c.35 0 .62-.28.62-.62V5c0-.35-.28-.62-.62-.62H5c-.35 0-.62.28-.62.62v26c0 .35.28.62.62.62ZM20.62 22c0-.76.62-1.38 1.38-1.38s1.38.62 1.38 1.38-.62 1.38-1.38 1.38-1.38-.62-1.38-1.38Zm-6-5c0-.76.62-1.38 1.38-1.38s1.38.62 1.38 1.38-.62 1.38-1.38 1.38-1.38-.62-1.38-1.38Zm-3.25 5c0 .76-.62 1.38-1.38 1.38S8.61 22.76 8.61 22s.62-1.38 1.38-1.38 1.38.62 1.38 1.38Zm12-10c0 .76-.62 1.38-1.38 1.38s-1.38-.62-1.38-1.38.62-1.38 1.38-1.38 1.38.62 1.38 1.38Z"/>
      <path class="uuid-a6885a34-99ae-45a3-9dd6-a7ec18c136e4" d="M32 19.38h-4c-.35 0-.62.28-.62.62v7c0 .35.28.62.62.62h4c.35 0 .62-.28.62-.62v-7c0-.35-.28-.62-.62-.62Zm-.62 7h-2.75v-5.75h2.75v5.75Z"/>
    </g>
  </g>
</svg>
