<svg id="uuid-2b21a01f-912e-4935-a818-e30c5d92cdf2" xmlns="http://www.w3.org/2000/svg" viewBox="0 0 36 36">
  <defs>
    <style>
      .uuid-7f3c0426-f781-44f5-aa08-36ee1c444bba{stroke-width:0}
    </style>
  </defs>
  <path class="uuid-7f3c0426-f781-44f5-aa08-36ee1c444bba" d="M31 30.38h-.38V26c0-.35-.28-.62-.62-.62h-4c-.35 0-.62.28-.62.62v4.38h-.75V29c0-.35-.28-.62-.62-.62h-4c-.35 0-.62.28-.62.62v1.38h-2.75V18c0-.35-.28-.62-.62-.62H6c-.35 0-.62.28-.62.62v12.38H5c-.35 0-.62.28-.62.62s.28.62.62.62h26c.35 0 .62-.28.62-.62s-.28-.62-.62-.62Zm-15.62 0H6.62V18.63h8.76v11.75Zm8 0h-2.75v-.75h2.75v.75Zm6 0h-2.75v-3.75h2.75v3.75Z"/>
  <path class="uuid-7f3c0426-f781-44f5-aa08-36ee1c444bba" d="M13 16.62c.35 0 .62-.28.62-.62V8.62h7.75V20c0 .35.28.62.62.62h5.38V24c0 .35.28.62.62.62s.62-.28.62-.62v-4c0-.35-.28-.62-.62-.62h-5.38V8c0-.35-.28-.62-.62-.62h-2.38V4c0-.35-.28-.62-.62-.62s-.62.28-.62.62v3.38h-1.75V5c0-.35-.28-.62-.62-.62s-.62.28-.62.62v2.38H13c-.35 0-.62.28-.62.62v8c0 .35.28.62.62.62Z"/>
  <path class="uuid-7f3c0426-f781-44f5-aa08-36ee1c444bba" d="M16.58 10.76a.66.66 0 0 0-.14-.2.647.647 0 0 0-.88 0c-.06.06-.11.12-.14.2-.03.08-.04.16-.04.24s0 .16.04.24a.718.718 0 0 0 .34.34c.08.03.16.05.24.05s.16-.02.24-.05.14-.08.2-.14a.597.597 0 0 0 .14-.68Zm-.34 2.66a.662.662 0 0 0-.48 0c-.07.04-.14.08-.2.14-.06.06-.1.13-.14.2-.03.08-.04.16-.04.24s0 .16.04.24.08.14.14.2c.12.12.28.19.44.19.08 0 .16-.02.24-.05s.15-.08.2-.14c.06-.06.11-.12.14-.2.03-.08.05-.16.05-.24s-.02-.16-.05-.24a.558.558 0 0 0-.14-.2.597.597 0 0 0-.2-.14Zm3.34-2.66a.637.637 0 0 0-1.02-.2c-.06.06-.1.13-.14.2-.03.08-.04.16-.04.24 0 .16.06.33.18.44.06.06.13.11.2.14.08.03.16.05.24.05s.16-.02.24-.05.14-.08.2-.14.11-.12.14-.2c.03-.08.05-.16.05-.24s-.02-.16-.05-.24Zm0 3a.558.558 0 0 0-.14-.2.597.597 0 0 0-.2-.14.662.662 0 0 0-.48 0 .718.718 0 0 0-.34.34c-.03.08-.04.16-.04.24s0 .16.04.24c.03.08.08.14.14.2.06.06.13.11.2.14.08.03.16.05.24.05s.16-.02.24-.05.15-.08.2-.14c.06-.06.11-.12.14-.2.03-.08.05-.16.05-.24s-.02-.16-.05-.24Zm0 3a.718.718 0 0 0-.34-.34.652.652 0 0 0-.68.14c-.12.11-.18.27-.18.44 0 .08 0 .16.04.24a.718.718 0 0 0 .34.34c.08.03.16.05.24.05.16 0 .32-.07.44-.19s.19-.28.19-.44c0-.08-.02-.16-.05-.24Zm0 3a.66.66 0 0 0-.14-.2.647.647 0 0 0-.88 0c-.06.06-.1.13-.14.2-.03.08-.04.16-.04.24s0 .16.04.24.08.14.14.2c.11.12.28.19.44.19.17 0 .33-.07.44-.19.06-.06.11-.12.14-.2.03-.08.05-.16.05-.24s-.02-.16-.05-.24Zm3 3a.558.558 0 0 0-.14-.2.558.558 0 0 0-.2-.14.662.662 0 0 0-.48 0 .718.718 0 0 0-.34.34.597.597 0 0 0 .14.68.597.597 0 0 0 .68.14c.08-.03.14-.08.2-.14s.11-.12.14-.2c.03-.08.05-.16.05-.24s-.02-.16-.05-.24Zm2.66-.34a.652.652 0 0 0-.82.34c-.03.08-.04.16-.04.24s0 .16.04.24a.718.718 0 0 0 .34.34.597.597 0 0 0 .68-.14.597.597 0 0 0 .14-.68.558.558 0 0 0-.14-.2.558.558 0 0 0-.2-.14Zm-5.66.34a.558.558 0 0 0-.14-.2.558.558 0 0 0-.2-.14.662.662 0 0 0-.48 0 .718.718 0 0 0-.34.34c-.03.08-.04.16-.04.24 0 .17.06.33.18.44.06.06.13.11.2.14.08.03.16.05.24.05s.16-.02.24-.05c.08-.03.14-.08.2-.14a.597.597 0 0 0 .14-.68Zm2.86 2.8a.718.718 0 0 0-.2-.14.633.633 0 0 0-.68.14c-.06.06-.1.13-.14.2-.03.08-.04.16-.04.24 0 .16.06.33.18.44.12.12.28.19.44.19.08 0 .16-.02.24-.05.08-.03.14-.08.2-.14.12-.11.19-.28.19-.44 0-.08-.02-.16-.05-.24a.66.66 0 0 0-.14-.2Zm-3.2-.14a.633.633 0 0 0-.68.14c-.06.06-.1.13-.14.2-.03.08-.04.16-.04.24 0 .17.06.33.18.44a.597.597 0 0 0 .68.14c.08-.03.14-.08.2-.14.12-.11.19-.28.19-.44 0-.08-.02-.16-.05-.24a.718.718 0 0 0-.34-.34Z"/>
</svg>
