<svg xmlns="http://www.w3.org/2000/svg" viewBox="0 0 36 36">
  <path d="M12 9.625c.345 0 .625-.28.625-.625V5a.625.625 0 1 0-1.25 0v4c0 .345.28.625.625.625ZM9.625 12A.625.625 0 0 0 9 11.375H5a.625.625 0 1 0 0 1.25h4c.345 0 .625-.28.625-.625Zm-.067 1.558-3 3a.625.625 0 1 0 .884.884l3-3a.625.625 0 1 0-.884-.884Zm-2.116-7a.625.625 0 1 0-.884.884l3 3a.622.622 0 0 0 .884 0 .625.625 0 0 0 0-.884l-3-3ZM14 10.625c.16 0 .32-.06.442-.183l3-3a.625.625 0 1 0-.884-.884l-3 3A.625.625 0 0 0 14 10.625Zm17.216 7.789-19-7a.627.627 0 0 0-.803.802l7 19c.091.246.325.41.587.41h.01a.625.625 0 0 0 .583-.428l2.901-8.704 8.704-2.901a.625.625 0 0 0 .018-1.18Zm-9.414 2.993a.624.624 0 0 0-.395.395l-2.436 7.31-5.916-16.057 16.057 5.916-7.31 2.436Z"/>
</svg>
