<svg id="uuid-47fe70bb-0823-4516-a951-01814cbaa72c" xmlns="http://www.w3.org/2000/svg" viewBox="0 0 36 36">
  <defs>
    <style>
      .uuid-306769c4-6294-4100-afbf-46b6809ff062{stroke-width:0}
    </style>
  </defs>
  <g id="uuid-5ffb857e-c82c-4b5f-9cd4-0e13cce2b632">
    <path class="uuid-306769c4-6294-4100-afbf-46b6809ff062" d="M22 20.709a.625.625 0 0 0-.625.625v2.041h-6.75v-6.75h4.708a.625.625 0 1 0 0-1.25H14a.625.625 0 0 0-.625.625v8c0 .345.28.625.625.625h8c.345 0 .625-.28.625-.625v-2.667A.625.625 0 0 0 22 20.71Z"/>
    <path class="uuid-306769c4-6294-4100-afbf-46b6809ff062" d="M21.558 16.892 18 20.45l-.892-.892a.625.625 0 1 0-.883.884l1.333 1.333a.622.622 0 0 0 .884 0l4-4a.625.625 0 1 0-.884-.883Z"/>
    <path class="uuid-306769c4-6294-4100-afbf-46b6809ff062" d="M27 7.375h-4a.625.625 0 0 0-.625.625v1.183h-8.75V8A.625.625 0 0 0 13 7.375H9A.625.625 0 0 0 8.375 8v23c0 .345.28.625.625.625h18c.345 0 .625-.28.625-.625V8A.625.625 0 0 0 27 7.375Zm-.625 23H9.625V8.625h2.75v1.183c0 .345.28.625.625.625h10c.345 0 .625-.28.625-.625V8.625h2.75v21.75ZM12 6.625h3c.031 0 .058-.013.088-.018a.617.617 0 0 0 .672-.399c.335-.947 1.235-1.583 2.24-1.583s1.905.636 2.24 1.583c.09.257.332.417.59.417.03 0 .06-.011.092-.016.027.004.05.016.078.016h3a.625.625 0 1 0 0-1.25h-2.767c-.609-1.21-1.853-2-3.233-2s-2.624.79-3.233 2H12a.625.625 0 1 0 0 1.25Z"/>
    <path class="uuid-306769c4-6294-4100-afbf-46b6809ff062" d="M17.56 5.56c-.06.06-.1.12-.14.2-.03.08-.04.16-.04.24 0 .17.06.33.18.44.12.12.28.19.44.19.16 0 .33-.07.44-.19.12-.11.19-.28.19-.44a.63.63 0 0 0-.19-.44.646.646 0 0 0-.88 0Z"/>
  </g>
</svg>
