<svg id="uuid-cebf965f-6e6d-4086-8f46-7309586fdda1" xmlns="http://www.w3.org/2000/svg" viewBox="0 0 36 36">
  <defs>
    <style>
      .uuid-b9e784c9-1a38-4736-86fd-7df982f48171{stroke-width:0}
    </style>
  </defs>
  <g id="uuid-9fd20820-ff2d-4d9a-a293-6a2f654c89ba">
    <path class="uuid-b9e784c9-1a38-4736-86fd-7df982f48171" d="M28.56 18.44c.12.12.28.19.44.19.08 0 .16-.02.24-.05a.66.66 0 0 0 .2-.14c.06-.05.11-.12.14-.2.03-.08.04-.16.04-.24s-.01-.16-.04-.24a.664.664 0 0 0-.14-.2.67.67 0 0 0-.2-.14.639.639 0 0 0-.87.58.607.607 0 0 0 .19.44Zm-11 10.12c-.12.12-.19.28-.19.44s.07.33.19.44c.12.12.28.19.44.19s.32-.07.44-.19c.12-.11.19-.28.19-.44a.632.632 0 0 0-1.07-.44Zm-11-10.91c-.06.05-.11.12-.14.2a.602.602 0 0 0 .14.68c.11.12.27.18.44.18.09 0 .17-.02.24-.05.08-.03.14-.07.2-.13s.11-.13.14-.2c.03-.08.05-.16.05-.24a.62.62 0 0 0-.19-.44.629.629 0 0 0-.88 0Z"/>
    <path class="uuid-b9e784c9-1a38-4736-86fd-7df982f48171" d="M32 17.375a.626.626 0 0 0-.625.625c0 7.375-6 13.375-13.375 13.375S4.625 25.375 4.625 18c0-7.164 5.666-13.014 12.75-13.343v10.281a3.13 3.13 0 0 0-2.5 3.062A3.13 3.13 0 0 0 18 21.125c.646 0 1.246-.197 1.745-.534l1.809 1.847a.622.622 0 0 0 .884.008.625.625 0 0 0 .008-.884l-1.828-1.866A3.1 3.1 0 0 0 21.125 18a3.13 3.13 0 0 0-2.5-3.062V4A.626.626 0 0 0 18 3.375C9.936 3.375 3.375 9.935 3.375 18S9.935 32.625 18 32.625 32.625 26.065 32.625 18a.626.626 0 0 0-.625-.625ZM19.875 18A1.876 1.876 0 1 1 18 16.125c1.034 0 1.875.84 1.875 1.875Z"/>
    <path class="uuid-b9e784c9-1a38-4736-86fd-7df982f48171" d="M9.56 25.56a.598.598 0 0 0-.14.68c.03.08.08.14.14.2.12.12.28.19.44.19.08 0 .16-.02.24-.05.08-.03.15-.08.2-.14.12-.12.19-.28.19-.44a.632.632 0 0 0-1.07-.44ZM26 26.63c.08 0 .16-.02.24-.05a.66.66 0 0 0 .2-.14c.06-.06.11-.12.14-.2a.598.598 0 0 0-.14-.68.627.627 0 0 0-1.07.44c0 .16.07.32.19.44s.28.19.44.19Zm0-16c.16 0 .32-.07.44-.19.06-.06.11-.12.14-.2.03-.08.05-.16.05-.24s-.02-.16-.05-.24a.664.664 0 0 0-.14-.2.633.633 0 0 0-.68-.14.678.678 0 0 0-.34.34c-.03.08-.05.16-.05.24 0 .16.07.32.19.44s.28.19.44.19Zm-15.42-.87a.664.664 0 0 0-.14-.2.49.49 0 0 0-.2-.14.635.635 0 0 0-.68.14.66.66 0 0 0-.14.2c-.03.08-.05.16-.05.24s.02.16.05.24c.03.08.08.14.14.2.12.12.28.19.44.19s.33-.07.44-.19a.63.63 0 0 0 .19-.44c0-.08-.02-.16-.05-.24Z"/>
  </g>
</svg>
