<svg id="uuid-d175e217-e667-4dcb-9272-de3521e7bc74" xmlns="http://www.w3.org/2000/svg" viewBox="0 0 36 36">
  <defs>
    <style>
      .uuid-b7ec95ab-a42f-4fad-891f-eff9cb89a90d{stroke-width:0}
    </style>
  </defs>
  <g id="uuid-296ebeea-6e34-495c-8870-89f37d705995">
    <path class="uuid-b7ec95ab-a42f-4fad-891f-eff9cb89a90d" d="M23 25.375H10.5c-3.24 0-5.875-2.636-5.875-5.875s2.636-5.875 5.875-5.875c.351 0 .717.035 1.089.105a.625.625 0 0 0 .688-.365 7.875 7.875 0 0 1 7.223-4.74c4.342 0 7.875 3.533 7.875 7.875 0 .13-.01.259-.019.386l-.007.122a.625.625 0 0 0 .557.661 3.893 3.893 0 0 1 3.247 2.54.625.625 0 0 0 1.178-.42 5.15 5.15 0 0 0-3.706-3.266V16.5c0-5.031-4.093-9.125-9.125-9.125a9.125 9.125 0 0 0-8.164 5.052c-4.34-.523-7.96 2.872-7.961 7.073a7.133 7.133 0 0 0 7.125 7.125H23a.625.625 0 1 0 0-1.25Z"/>
    <path class="uuid-b7ec95ab-a42f-4fad-891f-eff9cb89a90d" d="M25.37 26.091a3.629 3.629 0 0 0 3.626 3.625c.45 0 .88-.087 1.277-.241l-4.902-4.902v1.518Zm7.34 2.286-.55-.552a3.58 3.58 0 0 0 .46-1.734v-3.453a.625.625 0 0 0-.494-.612l-3-.637a.612.612 0 0 0-.26 0l-2.592.55-.382-.38a.625.625 0 1 0-.884.883l.363.362v.002l6 6h.002l.454.455a.622.622 0 0 0 .884 0 .625.625 0 0 0 0-.884Z"/>
  </g>
</svg>
