<svg id="uuid-903a697c-1723-4f54-88da-4575319ca676" xmlns="http://www.w3.org/2000/svg" viewBox="0 0 36 36">
  <defs>
    <style>
      .uuid-1a6181b9-1bf1-4bd7-9eb3-1db28e981f1e{stroke-width:0}
    </style>
  </defs>
  <g id="uuid-26a77de0-9d91-4e28-b848-5194ed6e60a3">
    <path class="uuid-1a6181b9-1bf1-4bd7-9eb3-1db28e981f1e" d="M28.625 15.522V15.5c0-5.032-4.094-9.125-9.125-9.125a9.126 9.126 0 0 0-8.164 5.052c-4.334-.522-7.961 2.871-7.961 7.073a7.133 7.133 0 0 0 7.125 7.125H15a.625.625 0 0 0 0-1.25h-4.5c-3.24 0-5.875-2.636-5.875-5.875s2.636-5.875 5.875-5.875c.352 0 .718.036 1.088.105a.624.624 0 0 0 .69-.365 7.876 7.876 0 0 1 7.222-4.74c4.343 0 7.875 3.533 7.875 7.875 0 .133-.01.264-.019.396l-.007.112a.625.625 0 0 0 .558.662 3.855 3.855 0 0 1 3.468 3.83 3.88 3.88 0 0 1-3.875 3.875H21a.625.625 0 0 0 0 1.25h6.5a5.13 5.13 0 0 0 5.125-5.125 5.098 5.098 0 0 0-4-4.978Z"/>
    <path class="uuid-1a6181b9-1bf1-4bd7-9eb3-1db28e981f1e" d="m20.442 21.558-2-2c-.01-.01-.023-.013-.034-.022a.622.622 0 0 0-.169-.113.626.626 0 0 0-.478 0 .62.62 0 0 0-.17.113c-.01.009-.023.012-.033.022l-2 2a.626.626 0 0 0 .884.884l.933-.933V29a.625.625 0 0 0 1.25 0v-7.491l.933.933a.624.624 0 0 0 .884 0 .626.626 0 0 0 0-.884Z"/>
  </g>
</svg>
