<svg id="uuid-e5225135-eec4-4bcf-b866-06a77e7e70e1" xmlns="http://www.w3.org/2000/svg" viewBox="0 0 36 36">
  <defs>
    <style>
      .uuid-1840c103-8c4d-44da-9af0-4d76bdf4693c{stroke-width:0}
    </style>
  </defs>
  <g id="uuid-ad8abbf9-b2c7-47c1-bbf4-7ff06af4ba83">
    <path class="uuid-1840c103-8c4d-44da-9af0-4d76bdf4693c" d="M10.5 13.625c.351 0 .717.035 1.089.105a.624.624 0 0 0 .688-.365 7.875 7.875 0 0 1 7.223-4.74c4.342 0 7.875 3.533 7.875 7.875 0 .13-.01.259-.019.386l-.007.122a.625.625 0 0 0 .557.661 3.893 3.893 0 0 1 3.247 2.54.625.625 0 0 0 1.178-.42 5.15 5.15 0 0 0-3.706-3.266V16.5c0-5.031-4.093-9.125-9.125-9.125a9.125 9.125 0 0 0-8.164 5.052c-4.34-.523-7.961 2.872-7.961 7.073a7.133 7.133 0 0 0 7.125 7.125H23a.625.625 0 1 0 0-1.25H10.5c-3.24 0-5.875-2.635-5.875-5.875s2.636-5.875 5.875-5.875Z"/>
    <path class="uuid-1840c103-8c4d-44da-9af0-4d76bdf4693c" d="m32.13 22.026-3-.637a.612.612 0 0 0-.26 0l-3 .637a.625.625 0 0 0-.495.611v3.454c0 1.999 1.626 3.625 3.625 3.625s3.625-1.626 3.625-3.625v-3.454a.625.625 0 0 0-.495-.61Z"/>
  </g>
</svg>
