<svg id="uuid-7dee0841-9403-424d-a1f3-9abe9ead9630" xmlns="http://www.w3.org/2000/svg" viewBox="0 0 36 36">
  <defs>
    <style>
      .uuid-51f43926-214f-4eda-9f58-f1f554d9b18f{stroke-width:0}
    </style>
  </defs>
  <g id="uuid-45d5fded-a0ca-4c5e-8e09-5cbd32e4f1b3">
    <path class="uuid-51f43926-214f-4eda-9f58-f1f554d9b18f" d="M30.674 22.511a5.098 5.098 0 0 0-2.049-8.989V13.5c0-5.032-4.093-9.125-9.125-9.125a9.125 9.125 0 0 0-8.164 5.052c-4.34-.525-7.96 2.871-7.961 7.073 0 1.442.442 2.8 1.242 3.98a7.133 7.133 0 0 0-1.242 4.02 7.133 7.133 0 0 0 7.125 7.125H28a.61.61 0 0 0 .289-.08c2.45-.382 4.336-2.489 4.336-5.045a5.067 5.067 0 0 0-1.951-3.989ZM27.5 30.375h-17c-3.24 0-5.875-2.636-5.875-5.875s2.636-5.875 5.875-5.875c.351 0 .717.035 1.089.105a.622.622 0 0 0 .688-.365 7.882 7.882 0 0 1 3.98-4.043.625.625 0 1 0-.515-1.139 9.13 9.13 0 0 0-4.406 4.244 7.022 7.022 0 0 0-5.89 2.046 5.802 5.802 0 0 1-.82-2.973 5.882 5.882 0 0 1 5.874-5.875c.351 0 .717.035 1.089.105a.625.625 0 0 0 .689-.365 7.875 7.875 0 0 1 7.222-4.74c4.342 0 7.875 3.533 7.875 7.875 0 .13-.01.259-.018.387l-.008.12a.625.625 0 0 0 .557.662 3.853 3.853 0 0 1 1.598 7.138 5.122 5.122 0 0 0-.879-.285V21.5a9.081 9.081 0 0 0-4.293-7.742.625.625 0 0 0-.663 1.06 7.838 7.838 0 0 1 3.706 6.682c0 .13-.01.259-.018.386l-.008.122a.625.625 0 0 0 .557.661 3.856 3.856 0 0 1 3.47 3.831 3.88 3.88 0 0 1-3.876 3.875Z"/>
    <path class="uuid-51f43926-214f-4eda-9f58-f1f554d9b18f" d="M20.442 8.559a.625.625 0 0 0-.884 0l-2 2a.625.625 0 1 0 .884.883l.933-.933V18a.625.625 0 1 0 1.25 0v-7.49l.933.933a.622.622 0 0 0 .884 0 .625.625 0 0 0 0-.884l-2-2Z"/>
  </g>
</svg>
