<svg id="uuid-2f8c2504-d28c-4ec6-904b-a1c560ae53d7" xmlns="http://www.w3.org/2000/svg" viewBox="0 0 36 36">
  <defs>
    <style>
      .uuid-1c974ed5-2392-451e-b3a1-243cfd9623a4{stroke-width:0}
    </style>
  </defs>
  <path class="uuid-1c974ed5-2392-451e-b3a1-243cfd9623a4" d="M24 23.875h-1.105a3.92 3.92 0 0 0-.698-1.688l.78-.78a.626.626 0 0 0-.885-.885l-.78.78a3.918 3.918 0 0 0-1.687-.697V19.5a.626.626 0 0 0-1.25 0v1.105a3.91 3.91 0 0 0-1.688.697l-.78-.78a.626.626 0 0 0-.885.885l.78.78a3.92 3.92 0 0 0-.698 1.688H14a.626.626 0 0 0 0 1.25h1.104c.1.624.341 1.197.698 1.688l-.78.78a.628.628 0 0 0 0 .885.623.623 0 0 0 .884 0l.78-.78a3.918 3.918 0 0 0 1.689.697V29.5a.626.626 0 0 0 1.25 0v-1.105a3.92 3.92 0 0 0 1.688-.697l.78.78a.623.623 0 0 0 .885 0 .628.628 0 0 0 0-.885l-.78-.78a3.921 3.921 0 0 0 .697-1.688H24a.626.626 0 0 0 0-1.25Zm-5 3.333a2.711 2.711 0 0 1-2.709-2.708 2.712 2.712 0 0 1 2.71-2.709 2.711 2.711 0 0 1 2.707 2.71A2.711 2.711 0 0 1 19 27.207Z"/>
  <path class="uuid-1c974ed5-2392-451e-b3a1-243cfd9623a4" d="M28.625 15.022V15c0-5.03-4.094-9.125-9.125-9.125a9.125 9.125 0 0 0-8.164 5.052c-4.32-.518-7.96 2.87-7.96 7.073a7.133 7.133 0 0 0 7.124 7.125h.5a.626.626 0 0 0 0-1.25h-.5c-3.239 0-5.875-2.635-5.875-5.875s2.636-5.875 5.875-5.875c.353 0 .72.036 1.09.105a.63.63 0 0 0 .688-.365 7.876 7.876 0 0 1 7.222-4.74c4.343 0 7.875 3.533 7.875 7.875 0 .128-.01.254-.018.38l-.009.127a.625.625 0 0 0 .559.661A3.857 3.857 0 0 1 31.375 20a3.88 3.88 0 0 1-3.875 3.875H27a.626.626 0 0 0 0 1.25h.5A5.13 5.13 0 0 0 32.625 20a5.1 5.1 0 0 0-4-4.978Z"/>
</svg>
