<svg id="uuid-e963417e-5662-48e3-b83e-d09177d5e009" xmlns="http://www.w3.org/2000/svg" viewBox="0 0 36 36">
  <defs>
    <style>
      .uuid-cf5629bd-faac-4737-9521-4da4c2ea28fb{stroke-width:0}
    </style>
  </defs>
  <g id="uuid-730dce6c-bec9-4bf3-b1ba-d44cc2955e9e">
    <path class="uuid-cf5629bd-faac-4737-9521-4da4c2ea28fb" d="M28.625 17.522V17.5c0-5.032-4.093-9.125-9.125-9.125a9.123 9.123 0 0 0-8.164 5.052c-4.348-.524-7.96 2.871-7.961 7.073a7.133 7.133 0 0 0 7.125 7.125H28c.092 0 .18-.02.26-.056a5.133 5.133 0 0 0 4.365-5.069 5.098 5.098 0 0 0-4-4.978ZM27.5 26.375h-17c-3.24 0-5.875-2.636-5.875-5.875s2.636-5.875 5.875-5.875c.355 0 .712.034 1.09.105a.624.624 0 0 0 .688-.365 7.874 7.874 0 0 1 7.222-4.74c4.342 0 7.875 3.533 7.875 7.875 0 .128-.009.253-.018.379l-.008.13a.625.625 0 0 0 .558.66 3.856 3.856 0 0 1 3.468 3.831 3.88 3.88 0 0 1-3.875 3.875Z"/>
    <path class="uuid-cf5629bd-faac-4737-9521-4da4c2ea28fb" d="M21.625 16.714c0-1.29-1.05-2.339-2.34-2.339s-2.339 1.05-2.339 2.34c0 .818.424 1.537 1.063 1.956l-1.044 4.177a.626.626 0 0 0 .606.777H21a.627.627 0 0 0 .606-.776l-1.044-4.179a2.336 2.336 0 0 0 1.063-1.956Z"/>
  </g>
</svg>
