<svg xmlns="http://www.w3.org/2000/svg" viewBox="0 0 36 36">
  <path d="M28.625 17.522V17.5c0-5.032-4.094-9.125-9.125-9.125a9.126 9.126 0 0 0-8.164 5.052c-4.334-.526-7.961 2.87-7.961 7.073a7.133 7.133 0 0 0 7.125 7.125H28a.62.62 0 0 0 .259-.056 5.133 5.133 0 0 0 4.366-5.069 5.098 5.098 0 0 0-4-4.978ZM27.5 26.375h-17c-3.24 0-5.875-2.636-5.875-5.875s2.636-5.875 5.875-5.875c.352 0 .718.036 1.088.105a.623.623 0 0 0 .69-.365 7.876 7.876 0 0 1 7.222-4.74c4.343 0 7.875 3.533 7.875 7.875 0 .133-.01.264-.019.396l-.007.112a.625.625 0 0 0 .558.662 3.855 3.855 0 0 1 3.468 3.83 3.88 3.88 0 0 1-3.875 3.875Z"/>
</svg>
