<svg id="uuid-16164670-8c8d-4e3a-9c2e-31c79902bb36" xmlns="http://www.w3.org/2000/svg" viewBox="0 0 36 36">
  <defs>
    <style>
      .uuid-76743f41-4904-437c-9d8f-7966f3aebcbd{stroke-width:0}
    </style>
  </defs>
  <g id="uuid-27f969b7-533a-459d-ba60-9f2607094d49">
    <path class="uuid-76743f41-4904-437c-9d8f-7966f3aebcbd" d="M28.625 15.522V15.5c0-5.032-4.094-9.125-9.125-9.125a9.126 9.126 0 0 0-8.164 5.052c-4.349-.522-7.961 2.871-7.961 7.073a7.133 7.133 0 0 0 7.125 7.125H12a.625.625 0 0 0 0-1.25h-1.5c-3.24 0-5.875-2.636-5.875-5.875s2.636-5.875 5.875-5.875c.35 0 .717.035 1.089.105a.623.623 0 0 0 .688-.365 7.875 7.875 0 0 1 7.223-4.74c4.343 0 7.875 3.533 7.875 7.875 0 .134-.01.265-.019.396l-.007.111a.625.625 0 0 0 .558.662 3.856 3.856 0 0 1 3.468 3.831 3.88 3.88 0 0 1-3.875 3.875H26a.625.625 0 0 0 0 1.25h1.5a5.13 5.13 0 0 0 5.125-5.125 5.098 5.098 0 0 0-4-4.978Z"/>
    <path class="uuid-76743f41-4904-437c-9d8f-7966f3aebcbd" d="M24 18.375a.625.625 0 0 0-.625.625v1.477A5.618 5.618 0 0 0 19 18.375c-3.102 0-5.625 2.523-5.625 5.625s2.523 5.625 5.625 5.625a5.642 5.642 0 0 0 5.513-4.5.624.624 0 1 0-1.225-.25 4.388 4.388 0 0 1-4.288 3.5c-2.412 0-4.375-1.962-4.375-4.375s1.963-4.375 4.375-4.375a4.37 4.37 0 0 1 3.488 1.75H21a.625.625 0 0 0 0 1.25h3c.345 0 .625-.28.625-.625v-3a.625.625 0 0 0-.625-.625Z"/>
  </g>
</svg>
