<svg id="uuid-3a1dedf5-3a36-47c0-af5f-28fb186a26aa" xmlns="http://www.w3.org/2000/svg" viewBox="0 0 36 36">
  <defs>
    <style>
      .uuid-7efae8ef-8468-4c3b-9650-d43a43e1c9fc{stroke-width:0}
    </style>
  </defs>
  <g id="uuid-e7328aa7-7004-4d55-b4d9-7f0090e35788">
    <path class="uuid-7efae8ef-8468-4c3b-9650-d43a43e1c9fc" d="M19 24.375h-8.5c-3.24 0-5.875-2.636-5.875-5.875s2.636-5.875 5.875-5.875c.351 0 .717.035 1.089.105a.625.625 0 0 0 .688-.365 7.875 7.875 0 0 1 7.223-4.74c4.342 0 7.875 3.533 7.875 7.875 0 .13-.01.259-.019.386l-.007.122a.624.624 0 0 0 .583.663.617.617 0 0 0 .664-.583l.008-.115c.01-.156.021-.313.021-.473 0-5.031-4.093-9.125-9.125-9.125a9.125 9.125 0 0 0-8.164 5.052c-4.34-.521-7.96 2.872-7.96 7.073a7.133 7.133 0 0 0 7.124 7.125H19a.625.625 0 1 0 0-1.25Z"/>
    <path class="uuid-7efae8ef-8468-4c3b-9650-d43a43e1c9fc" d="M32 18.375H22a.625.625 0 0 0-.625.625v10c0 .345.28.625.625.625h10c.345 0 .625-.28.625-.625V19a.625.625 0 0 0-.625-.625Zm-.625 10h-8.75v-8.75h8.75v8.75Z"/>
    <path class="uuid-7efae8ef-8468-4c3b-9650-d43a43e1c9fc" d="M28.76 22.573c.08.04.16.05.24.05.17 0 .33-.06.44-.18.12-.12.19-.28.19-.44 0-.08-.02-.17-.05-.24a.482.482 0 0 0-.14-.2.485.485 0 0 0-.2-.14.615.615 0 0 0-.68.14c-.06.05-.11.12-.14.2-.03.07-.05.16-.05.24a.632.632 0 0 0 .39.57Zm-2.2-.13c.06.06.13.1.2.13.08.04.16.05.24.05.16 0 .33-.06.44-.18a.66.66 0 0 0 .14-.2.597.597 0 0 0-.14-.68.559.559 0 0 0-.2-.14.661.661 0 0 0-.48 0 .66.66 0 0 0-.2.14c-.12.11-.18.27-.18.44 0 .08.01.16.04.24.03.07.08.14.14.2Z"/>
  </g>
</svg>
