<svg id="uuid-22d07134-6364-41d0-a834-50ae036b94fa" xmlns="http://www.w3.org/2000/svg" viewBox="0 0 36 36">
  <defs>
    <style>
      .uuid-3c16f2a1-068b-42de-9e67-cb91dddaae12{stroke-width:0}
    </style>
  </defs>
  <g id="uuid-ef408e0e-7b5a-471e-9f1e-31425dcff617">
    <path class="uuid-3c16f2a1-068b-42de-9e67-cb91dddaae12" d="M28.625 14.522V14.5c0-5.032-4.093-9.125-9.125-9.125a9.125 9.125 0 0 0-8.164 5.052c-4.341-.52-7.961 2.871-7.961 7.073a7.133 7.133 0 0 0 7.125 7.125H12a.625.625 0 1 0 0-1.25h-1.5c-3.24 0-5.875-2.636-5.875-5.875s2.636-5.875 5.875-5.875c.351 0 .717.035 1.089.105a.624.624 0 0 0 .688-.365 7.875 7.875 0 0 1 7.223-4.74c4.342 0 7.875 3.533 7.875 7.875 0 .13-.01.259-.019.386l-.007.122a.625.625 0 0 0 .557.661 3.856 3.856 0 0 1 3.47 3.831 3.88 3.88 0 0 1-3.876 3.875H26a.625.625 0 1 0 0 1.25h1.5a5.13 5.13 0 0 0 5.125-5.125 5.098 5.098 0 0 0-4-4.978Z"/>
    <path class="uuid-3c16f2a1-068b-42de-9e67-cb91dddaae12" d="M23.39 26.507A5.594 5.594 0 0 0 24.626 23c0-3.101-2.523-5.625-5.625-5.625S13.375 19.9 13.375 23s2.523 5.625 5.625 5.625a5.594 5.594 0 0 0 3.507-1.234l3.051 3.051a.622.622 0 0 0 .884 0 .625.625 0 0 0 0-.884l-3.051-3.051ZM14.626 23c0-2.412 1.962-4.375 4.375-4.375s4.375 1.963 4.375 4.375-1.962 4.375-4.375 4.375-4.375-1.962-4.375-4.375Z"/>
  </g>
</svg>
