<svg xmlns="http://www.w3.org/2000/svg" viewBox="0 0 36 36">
  <path d="M26.459 18.625c.282 1.145 1.31 2 2.541 2 1.447 0 2.625-1.178 2.625-2.625S30.447 15.375 29 15.375c-1.23 0-2.26.855-2.542 2h-4.896a3.593 3.593 0 0 0-.6-1.453l6.684-6.684c.397.24.857.387 1.354.387 1.447 0 2.625-1.177 2.625-2.625S30.447 4.375 29 4.375 26.375 5.553 26.375 7c0 .497.147.957.388 1.354l-6.685 6.684c-.426-.3-.92-.506-1.453-.6V9.542a2.625 2.625 0 0 0 2-2.542c0-1.447-1.178-2.625-2.625-2.625S15.375 5.553 15.375 7c0 1.231.855 2.26 2 2.542v4.896c-.534.094-1.026.3-1.453.6L9.237 8.354c.241-.397.388-.857.388-1.354 0-1.447-1.178-2.625-2.625-2.625S4.375 5.553 4.375 7 5.553 9.625 7 9.625c.497 0 .957-.146 1.354-.387l6.684 6.684c-.3.427-.506.92-.6 1.453H9.542a2.624 2.624 0 0 0-2.542-2c-1.447 0-2.625 1.178-2.625 2.625S5.553 20.625 7 20.625c1.23 0 2.26-.855 2.542-2h4.896a3.6 3.6 0 0 0 .6 1.453l-6.684 6.685A2.598 2.598 0 0 0 7 26.375c-1.447 0-2.625 1.178-2.625 2.625S5.553 31.625 7 31.625 9.625 30.447 9.625 29c0-.497-.147-.957-.388-1.353l6.685-6.685c.426.3.92.506 1.453.6v4.897c-1.145.282-2 1.31-2 2.541 0 1.447 1.178 2.625 2.625 2.625s2.625-1.178 2.625-2.625c0-1.23-.855-2.259-2-2.541v-4.897a3.593 3.593 0 0 0 1.453-.6l6.685 6.685A2.593 2.593 0 0 0 26.375 29c0 1.447 1.178 2.625 2.625 2.625s2.625-1.178 2.625-2.625-1.178-2.625-2.625-2.625c-.497 0-.957.147-1.354.388l-6.684-6.685c.3-.426.506-.92.6-1.453h4.897Zm2.541-2c.758 0 1.375.617 1.375 1.375s-.617 1.375-1.375 1.375-1.375-.617-1.375-1.375.617-1.375 1.375-1.375Zm-11 3.75c-1.31 0-2.375-1.065-2.375-2.375S16.69 15.625 18 15.625s2.375 1.066 2.375 2.375S19.31 20.375 18 20.375Zm11-14.75c.758 0 1.375.617 1.375 1.375S29.758 8.375 29 8.375 27.625 7.758 27.625 7 28.242 5.625 29 5.625ZM16.625 7c0-.758.617-1.375 1.375-1.375s1.375.617 1.375 1.375S18.758 8.375 18 8.375 16.625 7.758 16.625 7Zm-11 0c0-.758.617-1.375 1.375-1.375S8.375 6.242 8.375 7 7.758 8.375 7 8.375 5.625 7.758 5.625 7ZM7 19.375c-.758 0-1.375-.617-1.375-1.375S6.242 16.625 7 16.625s1.375.617 1.375 1.375S7.758 19.375 7 19.375Zm0 11c-.758 0-1.375-.617-1.375-1.375S6.242 27.625 7 27.625s1.375.617 1.375 1.375S7.758 30.375 7 30.375ZM19.375 29c0 .758-.617 1.375-1.375 1.375s-1.375-.617-1.375-1.375.617-1.375 1.375-1.375 1.375.617 1.375 1.375Zm11 0c0 .758-.617 1.375-1.375 1.375s-1.375-.617-1.375-1.375.617-1.375 1.375-1.375 1.375.617 1.375 1.375Z"/>
</svg>
