<svg xmlns="http://www.w3.org/2000/svg" viewBox="0 0 36 36">
  <path d="M25.5 18.875h-15c-2.688 0-4.875-2.187-4.875-4.875S7.812 9.125 10.5 9.125h2c.246.587.825 1 1.5 1h1.375V11.5c0 .345.28.625.625.625h8c.345 0 .625-.28.625-.625v-.375H26c.345 0 .625-.28.625-.625V9.125H29a.625.625 0 0 0 0-1.25h-2.375V6.5A.625.625 0 0 0 26 5.875h-1.375V5.5A.625.625 0 0 0 24 4.875h-8a.625.625 0 0 0-.625.625v1.375H14c-.675 0-1.254.413-1.5 1h-2c-3.377 0-6.125 2.748-6.125 6.125s2.748 6.125 6.125 6.125h15c2.688 0 4.875 2.187 4.875 4.875s-2.187 4.875-4.875 4.875H9a.625.625 0 0 0 0 1.25h16.5c3.377 0 6.125-2.748 6.125-6.125s-2.748-6.125-6.125-6.125Zm-.125-11.75v2.75h-.75v-2.75h.75Zm-8.75-1h6.75v4.75h-6.75v-4.75Zm-2.625 2h1.375v.75H14a.375.375 0 0 1 0-.75Z"/>
</svg>
