<svg id="uuid-00bf192a-0d0e-4986-b40e-618a6861d259" xmlns="http://www.w3.org/2000/svg" viewBox="0 0 36 36">
  <defs>
    <style>
      .uuid-ca6cb73b-3846-471b-8691-6ac4fa585eac{stroke-width:0}
    </style>
  </defs>
  <g id="uuid-345d138d-5a88-4315-a216-59705684638e">
    <path class="uuid-ca6cb73b-3846-471b-8691-6ac4fa585eac" d="M31 4.375H5A.625.625 0 0 0 4.375 5v26c0 .345.28.625.625.625h26c.345 0 .625-.28.625-.625V5A.625.625 0 0 0 31 4.375Zm-.625 26H5.625V5.625h24.75v24.75Z"/>
    <path class="uuid-ca6cb73b-3846-471b-8691-6ac4fa585eac" d="M17.237 21.536a.625.625 0 0 0 .741-.481l1.243-5.85a.625.625 0 1 0-1.222-.26l-1.244 5.85a.625.625 0 0 0 .482.74Zm3.758-.538a.622.622 0 0 0 .884 0l2.563-2.563a.625.625 0 0 0 0-.883l-2.563-2.563a.625.625 0 1 0-.884.883l2.121 2.121-2.12 2.122a.625.625 0 0 0 0 .883Zm-6.874 0a.622.622 0 0 0 .884 0 .625.625 0 0 0 0-.884l-2.121-2.12 2.12-2.122a.625.625 0 1 0-.883-.883l-2.563 2.562a.625.625 0 0 0 0 .884l2.563 2.563Z"/>
  </g>
</svg>
