<svg id="uuid-63e0f8cf-a22e-4ec1-9131-1001ea7af39a" xmlns="http://www.w3.org/2000/svg" viewBox="0 0 36 36">
  <defs>
    <style>
      .uuid-84e5a2cf-3d74-4994-af14-0e8f1e56bb4f{stroke-width:0}
    </style>
  </defs>
  <g id="uuid-9455f8be-96c2-4c09-baa7-dfc41e9827cc">
    <g id="uuid-9dd83102-78bb-45c6-9965-df0993e35ad1">
      <g id="uuid-4c21e2ed-056f-440f-a94c-ea516a74e00d">
        <path class="uuid-84e5a2cf-3d74-4994-af14-0e8f1e56bb4f" d="m28.6 12.9-.8-4V5c0-.3-.3-.6-.6-.6H8.8c-.3 0-.6.3-.6.6v3.9l-.8 3.9V31c0 .3.3.6.6.6h20c.3 0 .6-.3.6-.6V12.9q0 .1 0 0Zm-7-7.3h4.9v2.8h-4.9V5.6Zm-1.2 0v7.8h-4.8V5.6h4.8Zm-10.9 0h4.9v2.8H9.5V5.6Zm-.9 24.8V13.1l.7-3.4h5V14c0 .3.3.6.6.6h6c.3 0 .6-.3.6-.6V9.6h5l.7 3.4v17.3H8.6v.1Z"/>
        <path class="uuid-84e5a2cf-3d74-4994-af14-0e8f1e56bb4f" d="M14.7 18.2c-1.4 1.4-1.1 4 .7 5.8 1 1 2.4 1.6 3.6 1.6.9 0 1.6-.3 2.2-.9 1.4-1.4 1.1-4-.7-5.8-1.8-1.7-4.4-2-5.8-.7Zm1.7 4.9c-1.1-1.1-1.5-2.5-1.1-3.5l4.5 4.5c-.9.5-2.4.1-3.4-1Zm4.3.2-4.5-4.5c1-.4 2.4 0 3.5 1.1 1 1 1.4 2.5 1 3.4Z"/>
      </g>
    </g>
  </g>
</svg>
