<svg xmlns="http://www.w3.org/2000/svg" viewBox="0 0 36 36">
  <path d="M4.89 29.62h12c.35 0 .62-.28.62-.62 0-2.85-1.81-5.28-4.34-6.21.81-.67 1.34-1.66 1.34-2.79 0-2-1.63-3.62-3.62-3.62S7.27 18.01 7.27 20c0 1.13.53 2.12 1.34 2.79A6.623 6.623 0 0 0 4.27 29c0 .35.28.62.62.62ZM8.51 20c0-1.31 1.07-2.38 2.38-2.38s2.38 1.07 2.38 2.38-1.07 2.38-2.38 2.38S8.51 21.31 8.51 20Zm2.38 3.62c2.75 0 5.03 2.08 5.34 4.75H5.55a5.386 5.386 0 0 1 5.34-4.75ZM31.51 29c0-2.85-1.81-5.28-4.34-6.21.81-.67 1.34-1.66 1.34-2.79 0-2-1.63-3.62-3.62-3.62s-3.62 1.63-3.62 3.62c0 1.13.53 2.12 1.34 2.79A6.623 6.623 0 0 0 18.27 29c0 .35.28.62.62.62h12c.35 0 .62-.28.62-.62Zm-9-9c0-1.31 1.07-2.38 2.38-2.38s2.38 1.07 2.38 2.38-1.07 2.38-2.38 2.38-2.38-1.07-2.38-2.38Zm-2.96 8.38c.31-2.67 2.59-4.75 5.34-4.75s5.03 2.08 5.34 4.75H19.55ZM4.89 13.62h3.74l1.82 1.82c.24.24.64.24.88 0l1.82-1.82h9.48l1.82 1.82c.12.12.28.18.44.18s.32-.06.44-.18l1.82-1.82h3.74c.35 0 .62-.28.62-.62V7c0-.35-.28-.62-.62-.62h-26c-.35 0-.62.28-.62.62v6c0 .35.28.62.62.62Zm.62-6h24.75v4.75h-3.38c-.17 0-.32.07-.44.18l-1.56 1.56-1.56-1.56a.62.62 0 0 0-.44-.18h-9.99c-.17 0-.32.07-.44.18l-1.56 1.56-1.56-1.56a.62.62 0 0 0-.44-.18H5.51V7.62Z"/>
</svg>
