<svg xmlns="http://www.w3.org/2000/svg" viewBox="0 0 36 36">
  <path d="M24.375 13.5a.627.627 0 0 0-1 .5c0 1.33-1.086 2.451-2.436 2.374A8.649 8.649 0 0 0 21.625 13a8.588 8.588 0 0 0-8.265-8.618.628.628 0 0 0-.467 1.117A4.83 4.83 0 0 1 14.375 9a4.85 4.85 0 0 1-.788 2.66.625.625 0 0 0 1.046.683A6.1 6.1 0 0 0 15.625 9a6.148 6.148 0 0 0-.888-3.172A7.34 7.34 0 0 1 20.375 13a7.387 7.387 0 0 1-.902 3.537.625.625 0 0 0 .345.89 3.632 3.632 0 0 0 4.61-2.252A9.287 9.287 0 0 1 27.376 22c0 3.944-2.514 7.456-6.135 8.795a7.1 7.1 0 0 0-2.903-8.293.629.629 0 0 0-.675 0 7.1 7.1 0 0 0-2.903 8.293c-3.621-1.34-6.134-4.85-6.134-8.795 0-2.54.999-4.917 2.812-6.695a.625.625 0 1 0-.875-.893A10.547 10.547 0 0 0 7.375 22c0 4.975 3.527 9.342 8.387 10.385a.626.626 0 0 0 .67-.928A5.846 5.846 0 0 1 18 23.787a5.849 5.849 0 0 1 1.566 7.67.626.626 0 0 0 .67.928c4.86-1.043 8.388-5.41 8.388-10.385a10.54 10.54 0 0 0-4.249-8.5Z"/>
</svg>
