<svg id="uuid-5bb5c74f-6092-43e5-ac2e-21d0cc61143d" xmlns="http://www.w3.org/2000/svg" viewBox="0 0 36 36">
  <defs>
    <style>
      .uuid-77e5a849-a6a3-4387-ac69-432379144301{stroke-width:0}
    </style>
  </defs>
  <g id="uuid-0507b4be-8407-4dce-b50f-c6172a89e3c7">
    <path class="uuid-77e5a849-a6a3-4387-ac69-432379144301" d="M10.558 25.442a.624.624 0 0 0 .884 0l7-7a.626.626 0 0 0 0-.884l-7-7a.626.626 0 0 0-.884.884L17.116 18l-6.558 6.558a.626.626 0 0 0 0 .884Zm7.817-.518c0 .345.28.625.625.625h7a.625.625 0 0 0 0-1.25h-7a.625.625 0 0 0-.625.625Z"/>
    <path class="uuid-77e5a849-a6a3-4387-ac69-432379144301" d="M31 4.375H5A.625.625 0 0 0 4.375 5v26c0 .345.28.625.625.625h26c.345 0 .625-.28.625-.625V5A.625.625 0 0 0 31 4.375Zm-.625 26H5.625V5.625h24.75v24.75Z"/>
  </g>
</svg>
