<svg xmlns="http://www.w3.org/2000/svg" viewBox="0 0 36 36">
  <path d="M17.62 30c0-3.1-1.99-5.73-4.75-6.71.91-.71 1.5-1.8 1.5-3.04 0-2.14-1.74-3.88-3.88-3.88s-3.88 1.74-3.88 3.88c0 1.24.59 2.33 1.5 3.04-2.76.98-4.75 3.61-4.75 6.71 0 .35.28.62.62.62h13c.35 0 .62-.28.62-.62h.02Zm-9.74-9.75c0-1.45 1.18-2.62 2.62-2.62s2.62 1.18 2.62 2.62-1.18 2.62-2.62 2.62-2.62-1.18-2.62-2.62Zm-3.22 9.12c.31-2.95 2.81-5.25 5.84-5.25s5.53 2.3 5.84 5.25H4.66Zm8.71-13.99c1.12-1.44 2.81-2.26 4.63-2.26s3.51.82 4.63 2.26c.12.16.31.24.49.24.13 0 .27-.04.38-.13.27-.21.32-.61.11-.88a7.037 7.037 0 0 0-3.23-2.33c.9-.71 1.49-1.8 1.49-3.03 0-2.14-1.74-3.88-3.88-3.88s-3.88 1.74-3.88 3.88c0 1.23.59 2.32 1.49 3.03a7.109 7.109 0 0 0-3.23 2.33c-.21.27-.16.66.11.88.27.21.67.16.88-.11h.01Zm2.01-6.13c0-1.45 1.18-2.62 2.62-2.62s2.62 1.18 2.62 2.62-1.18 2.62-2.62 2.62-2.62-1.18-2.62-2.62ZM20.62 20c0-.35-.28-.62-.62-.62h-4c-.35 0-.62.28-.62.62s.28.62.62.62h4c.35 0 .62-.28.62-.62Zm7.25 3.29c.91-.71 1.5-1.8 1.5-3.04 0-2.14-1.74-3.88-3.88-3.88s-3.88 1.74-3.88 3.88c0 1.24.59 2.33 1.5 3.04-2.76.98-4.75 3.61-4.75 6.71 0 .35.28.62.62.62h13c.35 0 .62-.28.62-.62 0-3.1-1.99-5.73-4.75-6.71h.02Zm-5-3.04c0-1.45 1.18-2.62 2.62-2.62s2.62 1.18 2.62 2.62-1.18 2.62-2.62 2.62-2.62-1.18-2.62-2.62Zm-3.22 9.12c.31-2.95 2.81-5.25 5.84-5.25s5.53 2.3 5.84 5.25H19.65Z"/>
</svg>
