<svg xmlns="http://www.w3.org/2000/svg" viewBox="0 0 36 36">
  <path d="M21.688 17.07a6.483 6.483 0 0 0 6.475-6.475 6.483 6.483 0 0 0-9.314-5.823 6.654 6.654 0 0 0-1.048.642 6.428 6.428 0 0 0-2.59 5.18 6.483 6.483 0 0 0 6.476 6.476ZM18.55 6.414a5.612 5.612 0 0 1 .847-.518 5.231 5.231 0 0 1 7.516 4.7c0 2.88-2.344 5.224-5.226 5.224s-5.225-2.343-5.225-5.225c0-1.66.762-3.184 2.088-4.18Zm-8.7 6.311a6.398 6.398 0 0 0-3.38.952 6.289 6.289 0 0 0-.507.344 6.426 6.426 0 0 0-2.588 5.18c0 3.57 2.905 6.475 6.475 6.475s6.476-2.905 6.476-6.476-2.905-6.475-6.476-6.475Zm0 11.7A5.231 5.231 0 0 1 4.626 19.2c0-1.658.762-3.182 2.09-4.18a5.156 5.156 0 0 1 .846-.518 5.231 5.231 0 0 1 7.515 4.698 5.231 5.231 0 0 1-5.225 5.226Zm13.362-5.751a6.402 6.402 0 0 0-3.38.951 6.326 6.326 0 0 0-.506.345 6.427 6.427 0 0 0-2.59 5.18c0 3.57 2.906 6.475 6.476 6.475s6.476-2.905 6.476-6.476-2.905-6.475-6.476-6.475Zm0 11.701a5.231 5.231 0 0 1-5.225-5.226c0-1.658.762-3.181 2.092-4.181a5.232 5.232 0 0 1 .844-.517 5.231 5.231 0 0 1 7.515 4.698 5.231 5.231 0 0 1-5.226 5.226Zm7.885-15.742a2.581 2.581 0 0 0-3.4 1.306 2.58 2.58 0 0 0 1.305 3.4 2.579 2.579 0 0 0 3.4-1.306 2.58 2.58 0 0 0-1.305-3.4Zm.163 2.892a1.328 1.328 0 0 1-1.75.671 1.327 1.327 0 0 1-.672-1.75 1.329 1.329 0 0 1 1.75-.67c.668.296.97 1.081.672 1.75ZM10.295 11.01a2.568 2.568 0 0 0 1.97.051 2.558 2.558 0 0 0 1.43-1.356c.28-.629.298-1.328.052-1.97a2.558 2.558 0 0 0-1.357-1.43 2.554 2.554 0 0 0-1.97-.052A2.557 2.557 0 0 0 8.99 7.61c-.28.628-.298 1.327-.052 1.97s.729 1.15 1.357 1.43Zm-.163-2.892a1.334 1.334 0 0 1 1.21-.787c.184 0 .367.04.54.116.323.144.571.405.698.736.127.33.117.69-.027 1.012v.001a1.323 1.323 0 0 1-2.448-.065c-.127-.33-.117-.69.027-1.013Zm4.472 18.385a2.568 2.568 0 0 0-1.97-.05 2.554 2.554 0 0 0-1.43 1.356 2.58 2.58 0 0 0 1.306 3.4 2.578 2.578 0 0 0 3.4-1.306 2.579 2.579 0 0 0-1.306-3.4Zm.164 2.892a1.328 1.328 0 0 1-1.75.671 1.327 1.327 0 0 1 .064-2.448 1.337 1.337 0 0 1 1.014.027c.667.297.969 1.082.672 1.75Z"/>
</svg>
