<svg id="uuid-f3792d97-61c0-4376-b320-5db7e5a23065" xmlns="http://www.w3.org/2000/svg" viewBox="0 0 36 36">
  <defs>
    <style>
      .uuid-da6be38c-bcad-408b-b03a-8f2d828e2efa{stroke-width:0}
    </style>
  </defs>
  <g id="uuid-42692771-7215-4667-b991-ba44cbc91a72">
    <path class="uuid-da6be38c-bcad-408b-b03a-8f2d828e2efa" d="m29.1 20.4-8.7-1.8-1.8-8.7c-.1-.3-.3-.5-.6-.5s-.5.2-.6.5l-1.8 8.7-8.7 1.8c-.3.1-.5.3-.5.6s.2.5.5.6l8.7 1.8 1.8 8.7c.1.3.3.5.6.5s.5-.2.6-.5l1.8-8.7 8.7-1.8c.3-.1.5-.3.5-.6s-.2-.5-.5-.6Zm-9.3 1.9c-.2.1-.4.2-.5.5L18 29l-1.3-6.2c-.1-.2-.2-.4-.5-.5L10 21l6.2-1.3c.2-.1.4-.2.5-.5L18 13l1.3 6.2c.1.2.2.4.5.5L26 21l-6.2 1.3Z"/>
    <path class="uuid-da6be38c-bcad-408b-b03a-8f2d828e2efa" d="m26.6 28.9-.8-3.9c-.1-.3-.4-.6-.7-.5-.3.1-.6.4-.5.7l.6 3-3-.6c-.3-.1-.7.1-.7.5s.1.7.5.7l3.9.8h.2q.1 0 .1-.1h.1l.1-.1c0-.1.1-.1.1-.2v-.1c.1-.1.1-.2.1-.2ZM9.4 13.1l.8 3.9c.1.3.3.5.6.5h.1c.3-.1.6-.4.5-.7l-.6-3 3 .6h.1c.3 0 .5-.2.6-.5s-.1-.7-.5-.7l-3.9-.8h-.2q-.1 0-.2.1l-.1.1-.1.1s0 .1-.1.1v.3Zm4.4 14.5-3 .6.6-3c.1-.3-.1-.7-.5-.7-.3-.1-.7.1-.7.5l-.8 3.9v.2q0 .1.1.2l.1.1h.1s.1 0 .1.1h.2l3.9-.8c.3-.1.6-.4.5-.7s-.3-.5-.6-.4Zm8.3-13.1h.1l3-.6-.6 3c-.1.3.1.7.5.7h.1c.3 0 .5-.2.6-.5l.8-3.9v-.3q0-.1-.1-.2l-.1-.1-.1-.1c-.1 0-.1-.1-.2-.1h-.2l-3.9.8c-.3.1-.6.4-.5.7 0 .4.3.6.6.6ZM16 6.6h4c.3 0 .5-.2.6-.4.1-.2 0-.5-.1-.7l-2-2c-.2-.2-.6-.2-.9 0l-2 2c-.2.2-.2.4-.1.7 0 .3.2.4.5.4Z"/>
  </g>
</svg>
