<svg id="uuid-9e9607ce-e5f3-497e-86db-da9b70ee00b3" xmlns="http://www.w3.org/2000/svg" viewBox="0 0 36 36">
  <defs>
    <style>
      .uuid-eb233016-a36c-4df0-a3f0-d9d05aff6e97{stroke-width:0}
    </style>
  </defs>
  <g id="uuid-f77d87a4-74a4-4375-9276-adc1ac20bb7a">
    <path class="uuid-eb233016-a36c-4df0-a3f0-d9d05aff6e97" d="M14.902 21.688a.626.626 0 0 0-.884.883l2.123 2.124a.624.624 0 0 0 .885 0l4.956-4.955a.626.626 0 0 0-.884-.884l-4.514 4.513-1.682-1.682Z"/>
    <path class="uuid-eb233016-a36c-4df0-a3f0-d9d05aff6e97" d="m32.544 30.081-14-24.777c-.22-.393-.867-.393-1.088 0l-14 24.777a.627.627 0 0 0 .544.933h28a.625.625 0 0 0 .544-.933ZM5.07 29.764 18 6.882l12.929 22.882H5.07Z"/>
  </g>
</svg>
