<svg id="uuid-fe718e55-dceb-4a4f-a48c-9c874a1d2442" xmlns="http://www.w3.org/2000/svg" viewBox="0 0 36 36">
  <defs>
    <style>
      .uuid-0345cc98-0da5-44cb-af77-6fdd6df83f0b{stroke-width:0}
    </style>
  </defs>
  <path class="uuid-0345cc98-0da5-44cb-af77-6fdd6df83f0b" d="M26.444 25.557a.566.566 0 0 0-.21-.13c-.22-.1-.5-.04-.68.13a.637.637 0 0 0-.13.68c.03.08.07.15.13.21.12.11.28.18.44.18.17 0 .33-.07.45-.18a.628.628 0 0 0 .13-.69.623.623 0 0 0-.13-.2Zm-16.89-15.11c.06.05.13.1.21.13a.59.59 0 0 0 .47 0c.08-.03.15-.07.21-.13s.1-.13.131-.21a.62.62 0 0 0 .05-.24c0-.08-.02-.16-.05-.24a.566.566 0 0 0-.34-.33.557.557 0 0 0-.47 0c-.08.03-.15.07-.21.13a.637.637 0 0 0-.13.68c.03.08.07.15.13.21Z"/>
  <path class="uuid-0345cc98-0da5-44cb-af77-6fdd6df83f0b" d="M18 3.375C9.935 3.375 3.375 9.935 3.375 18S9.935 32.625 18 32.625 32.625 26.065 32.625 18 26.065 3.375 18 3.375Zm.625 27.968v-1.497a.626.626 0 0 0-1.25 0v1.497c-6.876-.32-12.399-5.843-12.719-12.718h1.498a.626.626 0 0 0 0-1.25H4.656c.32-6.876 5.843-12.399 12.719-12.719v1.498a.626.626 0 0 0 1.25 0V4.656c6.875.32 12.398 5.843 12.718 12.719h-1.497a.626.626 0 0 0 0 1.25h1.497c-.32 6.875-5.843 12.398-12.718 12.718Z"/>
  <path class="uuid-0345cc98-0da5-44cb-af77-6fdd6df83f0b" d="M26.442 9.557a.63.63 0 0 0-.783-.082l-9.7 6.3a.635.635 0 0 0-.184.184l-6.3 9.7a.628.628 0 0 0 .082.783.628.628 0 0 0 .783.082l9.702-6.299a.635.635 0 0 0 .183-.183l6.299-9.702a.628.628 0 0 0-.082-.783Zm-7.193 9.692-7.124 4.626 4.627-7.123 7.123-4.627-4.626 7.124Z"/>
  <path class="uuid-0345cc98-0da5-44cb-af77-6fdd6df83f0b" d="M17.764 18.707c.07.03.15.04.24.04a.617.617 0 0 0 .62-.62c0-.17-.06-.33-.18-.44a.64.64 0 0 0-.68-.14c-.08.03-.15.08-.2.14-.13.12-.19.27-.19.44 0 .16.06.32.19.44.05.06.12.11.2.14Z"/>
</svg>
