<svg id="uuid-c33bd4ac-05e0-44d4-88cf-41d87b8f181d" xmlns="http://www.w3.org/2000/svg" viewBox="0 0 36 36">
  <defs>
    <style>
      .uuid-e1653932-d929-42fe-b8ec-8748f747fda0{stroke-width:0}
    </style>
  </defs>
  <g id="uuid-d0ca230c-232b-4ce0-b478-e42e859a43cb">
    <path class="uuid-e1653932-d929-42fe-b8ec-8748f747fda0" d="M18 9.625A3.629 3.629 0 0 1 14.375 6c0-.328.055-.668.167-1.04.06-.2.217-.358.418-.418A3.59 3.59 0 0 1 16 4.375 3.629 3.629 0 0 1 19.625 8c0 .328-.055.668-.167 1.04a.627.627 0 0 1-.417.418A3.573 3.573 0 0 1 18 9.625Zm.86-.766h.01-.01Zm-3.203-3.202c-.022.12-.032.233-.032.343A2.378 2.378 0 0 0 18 8.375c.11 0 .223-.01.343-.031A1.9 1.9 0 0 0 18.375 8 2.378 2.378 0 0 0 16 5.625c-.11 0-.223.01-.343.032Z"/>
    <path class="uuid-e1653932-d929-42fe-b8ec-8748f747fda0" d="M22 31.625a5.55 5.55 0 0 1-4-1.69 5.55 5.55 0 0 1-4 1.69c-2.334 0-4.449-1.48-5.262-3.684a.625.625 0 0 1 .248-.742A7.352 7.352 0 0 0 12.375 21a7.369 7.369 0 0 0-4.994-6.974.625.625 0 0 1-.363-.859A6.655 6.655 0 0 1 13 9.375a6.61 6.61 0 0 1 5 2.28 6.61 6.61 0 0 1 5-2.28 6.655 6.655 0 0 1 5.982 3.792.623.623 0 0 1-.363.86A7.369 7.369 0 0 0 23.625 21a7.352 7.352 0 0 0 3.39 6.2.623.623 0 0 1 .247.741c-.813 2.204-2.928 3.684-5.262 3.684Zm-4-3.277c.197 0 .383.094.501.252A4.334 4.334 0 0 0 22 30.375a4.382 4.382 0 0 0 3.899-2.427A8.59 8.59 0 0 1 22.375 21a8.618 8.618 0 0 1 5.15-7.888A5.399 5.399 0 0 0 23 10.625c-1.804 0-3.478.9-4.48 2.406-.23.35-.81.35-1.04 0A5.368 5.368 0 0 0 13 10.625a5.399 5.399 0 0 0-4.525 2.487A8.618 8.618 0 0 1 13.625 21a8.59 8.59 0 0 1-3.524 6.948A4.382 4.382 0 0 0 14 30.375c1.383 0 2.658-.647 3.499-1.775a.625.625 0 0 1 .501-.252Z"/>
    <path class="uuid-e1653932-d929-42fe-b8ec-8748f747fda0" d="M17 21.625a.625.625 0 0 1-.625-.625v-1a.625.625 0 0 1 1.25 0v1c0 .345-.28.625-.625.625Zm2 0a.625.625 0 0 1-.625-.625v-1a.625.625 0 0 1 1.25 0v1c0 .345-.28.625-.625.625Z"/>
  </g>
</svg>
