<svg id="uuid-9d745898-9c8f-4483-bdcb-dd1b64ef987a" xmlns="http://www.w3.org/2000/svg" viewBox="0 0 36 36">
  <defs>
    <style>
      .uuid-d950987f-2f37-4b19-a94a-0881793ba256{stroke-width:0}
    </style>
  </defs>
  <g id="uuid-ce681bcb-fb6c-4afa-b101-2993ddf78fc2">
    <path class="uuid-d950987f-2f37-4b19-a94a-0881793ba256" d="M32.517 17.648A17.562 17.562 0 0 0 18 9.966a17.47 17.47 0 0 0-6.06 1.09L7.442 6.558a.625.625 0 1 0-.884.884l4.77 4.77 17.23 17.23a.622.622 0 0 0 .884 0 .625.625 0 0 0 0-.884l-4.128-4.127a17.527 17.527 0 0 0 7.203-6.079.626.626 0 0 0 0-.704ZM20.785 19.9l-4.687-4.686a3.35 3.35 0 0 1 1.902-.59A3.38 3.38 0 0 1 21.375 18a3.35 3.35 0 0 1-.59 1.901Zm3.582 3.582-2.698-2.698c.61-.8.956-1.762.956-2.785A4.63 4.63 0 0 0 18 13.375a4.577 4.577 0 0 0-2.785.956l-2.292-2.291A16.233 16.233 0 0 1 18 11.216 16.31 16.31 0 0 1 31.237 18a16.273 16.273 0 0 1-6.87 5.483Zm-3.36 1.025A16.31 16.31 0 0 1 4.763 18a16.526 16.526 0 0 1 4.676-4.357.626.626 0 0 0-.657-1.064 17.783 17.783 0 0 0-5.299 5.069.626.626 0 0 0 0 .704 17.562 17.562 0 0 0 17.753 7.384.625.625 0 1 0-.23-1.229Z"/>
    <path class="uuid-d950987f-2f37-4b19-a94a-0881793ba256" d="M18.625 22a.625.625 0 0 0-.625-.625A3.38 3.38 0 0 1 14.625 18a.625.625 0 1 0-1.25 0A4.63 4.63 0 0 0 18 22.625c.345 0 .625-.28.625-.625Z"/>
  </g>
</svg>
