<svg id="uuid-c47a5376-616b-4a3f-a089-e02b0b20e0af" xmlns="http://www.w3.org/2000/svg" viewBox="0 0 36 36">
  <defs>
    <style>
      .uuid-8000a5ea-629b-4adb-a538-93066aa329b8{stroke-width:0}
    </style>
  </defs>
  <g id="uuid-c94b6741-ee0c-45d1-9029-ce5cf1bc5f49">
    <path class="uuid-8000a5ea-629b-4adb-a538-93066aa329b8" d="M21.688 29.15 18 31.279l-11.499-6.64V11.361L18 4.721l11.499 6.64v10.64a.625.625 0 0 0 1.25 0V11c0-.224-.12-.43-.312-.542l-12.124-7a.627.627 0 0 0-.625 0l-12.124 7A.626.626 0 0 0 5.25 11v14c0 .223.12.43.312.542l12.125 7a.627.627 0 0 0 .625 0l4-2.31a.625.625 0 0 0-.625-1.082Z"/>
    <path class="uuid-8000a5ea-629b-4adb-a538-93066aa329b8" d="m31.13 25.026-3-.637a.612.612 0 0 0-.26 0l-3 .637a.625.625 0 0 0-.495.611v3.454c0 1.999 1.626 3.625 3.625 3.625s3.625-1.626 3.625-3.625v-3.454a.625.625 0 0 0-.495-.61Z"/>
  </g>
</svg>
