<svg id="uuid-9f6548f2-40de-4173-996b-3805ff2829e2" xmlns="http://www.w3.org/2000/svg" viewBox="0 0 36 36">
  <defs>
    <style>
      .uuid-8e001f3a-78a8-442e-a7e9-5646e35e58e5{stroke-width:0}
    </style>
  </defs>
  <g id="uuid-2fd9a0c0-042c-407c-b72e-4a1fff98178d">
    <path class="uuid-8e001f3a-78a8-442e-a7e9-5646e35e58e5" d="M31.005 9.503H15.29a.625.625 0 0 0-.625.625v2.946h-3.147v-1.318a.624.624 0 0 0-.312-.541l-2.95-1.703a.627.627 0 0 0-.624 0l-2.95 1.703a.626.626 0 0 0-.312.541v3.405c0 .224.12.43.313.542l2.949 1.703a.627.627 0 0 0 .625 0l2.949-1.703a.626.626 0 0 0 .313-.542v-.837h3.146v7.321h-3.147v-.806a.627.627 0 0 0-.312-.542l-2.95-1.702a.627.627 0 0 0-.624 0l-2.95 1.702a.626.626 0 0 0-.312.542v3.405c0 .223.12.43.313.541l2.949 1.703a.627.627 0 0 0 .625 0l2.949-1.703a.626.626 0 0 0 .313-.541v-1.349h3.146v2.947c0 .345.28.625.625.625h15.715c.345 0 .625-.28.625-.625V10.128a.625.625 0 0 0-.625-.625ZM10.269 14.8l-2.325 1.342L5.62 14.8v-2.683l2.324-1.342 2.325 1.342V14.8Zm0 9.083-2.325 1.342-2.324-1.342v-2.684l2.324-1.341 2.325 1.341v2.684Zm20.11 1.334H15.916V10.752H30.38v14.464Z"/>
    <path class="uuid-8e001f3a-78a8-442e-a7e9-5646e35e58e5" d="M28.26 13.113c.08 0 .16-.02.23-.05a.631.631 0 0 0 .39-.58.67.67 0 0 0-.18-.44.801.801 0 0 0-.21-.14.653.653 0 0 0-.68.14.67.67 0 0 0-.18.44.63.63 0 0 0 .63.63Zm-2.08-.05c.08.03.16.05.24.05s.17-.02.24-.05c.08-.03.15-.08.2-.14a.597.597 0 0 0 .14-.68.664.664 0 0 0-.14-.2.466.466 0 0 0-.2-.13.577.577 0 0 0-.48 0c-.07.03-.14.07-.2.13s-.1.13-.13.2a.52.52 0 0 0-.05.24c0 .17.06.33.18.44.06.06.13.11.2.14Z"/>
  </g>
</svg>
