<svg id="uuid-fd538490-5922-4786-81f5-6294ba31e5f0" xmlns="http://www.w3.org/2000/svg" viewBox="0 0 36 36">
  <defs>
    <style>
      .uuid-4e10bde6-0234-437e-8aa7-7e10c4a07164{stroke-width:0}
    </style>
  </defs>
  <g id="uuid-b0121435-3a15-4956-ae85-0ca3536c59a1">
    <path class="uuid-4e10bde6-0234-437e-8aa7-7e10c4a07164" d="M21.688 29.15 18 31.279l-11.499-6.64V11.361L18 4.721l11.499 6.64v10.64a.625.625 0 0 0 1.25 0V11c0-.224-.12-.43-.312-.542l-12.124-7a.627.627 0 0 0-.625 0l-12.124 7A.626.626 0 0 0 5.25 11v14c0 .223.12.43.312.542l12.125 7a.627.627 0 0 0 .625 0l4-2.31a.625.625 0 0 0-.625-1.082Z"/>
    <path class="uuid-4e10bde6-0234-437e-8aa7-7e10c4a07164" d="M24.38 29.091a3.629 3.629 0 0 0 3.626 3.625c.451 0 .88-.087 1.277-.241l-4.902-4.902v1.518Zm7.34 2.286-.55-.552a3.58 3.58 0 0 0 .46-1.734v-3.453a.625.625 0 0 0-.494-.612l-3-.637a.612.612 0 0 0-.26 0l-2.592.55-.382-.38a.625.625 0 1 0-.883.883l.362.362v.002l6 6h.002l.454.455a.622.622 0 0 0 .884 0 .625.625 0 0 0 0-.884Z"/>
  </g>
</svg>
