<svg id="uuid-a3e335d4-c042-43e2-85e4-0f48c02e678f" xmlns="http://www.w3.org/2000/svg" viewBox="0 0 36 36">
  <defs>
    <style>
      .uuid-da947da2-e675-429a-a3e2-5aa3c1a34d28{stroke-width:0}
    </style>
  </defs>
  <g id="uuid-cdee8faf-994a-4150-9373-aa5bc9151252">
    <path class="uuid-da947da2-e675-429a-a3e2-5aa3c1a34d28" d="m30.436 10.459-12.124-7a.627.627 0 0 0-.625 0l-12.124 7a.626.626 0 0 0-.312.541v14c0 .223.12.43.312.542l12.125 7a.627.627 0 0 0 .625 0l12.124-7a.626.626 0 0 0 .312-.542V11c0-.223-.12-.43-.312-.541Zm-.937 14.18L18 31.28 6.501 24.64V11.361L18 4.721l11.499 6.64V24.64Z"/>
    <path class="uuid-da947da2-e675-429a-a3e2-5aa3c1a34d28" d="M16.755 20.795a.625.625 0 1 0 1.223.26l1.244-5.85a.625.625 0 1 0-1.223-.26l-1.244 5.85Zm4.24.203a.624.624 0 0 0 .885 0l2.562-2.563a.626.626 0 0 0 0-.883l-2.562-2.563a.626.626 0 0 0-.885.883l2.121 2.121-2.12 2.122a.626.626 0 0 0 0 .883Zm-5.99-6.009a.626.626 0 0 0-.885 0l-2.562 2.562a.626.626 0 0 0 0 .884l2.562 2.563a.624.624 0 0 0 .885 0 .626.626 0 0 0 0-.884l-2.121-2.12 2.12-2.122a.626.626 0 0 0 0-.883Z"/>
  </g>
</svg>
