<svg id="uuid-d81392d2-3eea-49ec-b973-b10973533440" xmlns="http://www.w3.org/2000/svg" viewBox="0 0 36 36">
  <defs>
    <style>
      .uuid-8a29ba75-c728-4b87-a49c-b5dfa8eca9ef{stroke-width:0}
    </style>
  </defs>
  <g id="uuid-6cdb9121-c88c-4721-a4e1-d1ef23ff5d98">
    <path class="uuid-8a29ba75-c728-4b87-a49c-b5dfa8eca9ef" d="M31 8.375H5A.626.626 0 0 0 4.375 9v18c0 .345.28.625.625.625h26c.345 0 .625-.28.625-.625V9A.626.626 0 0 0 31 8.375ZM5.625 9.625h4.75v16.75h-4.75V9.625Zm24.75 16.75h-18.75V9.625h18.75v16.75Z"/>
    <path class="uuid-8a29ba75-c728-4b87-a49c-b5dfa8eca9ef" d="M7.56 12.44c.12.12.28.19.44.19s.32-.07.44-.19a.595.595 0 0 0 .14-.68.553.553 0 0 0-.14-.2.633.633 0 0 0-.68-.14.678.678 0 0 0-.34.34c-.03.08-.05.16-.05.24s.02.16.05.24c.03.07.08.15.14.2Zm0 2.12a.59.59 0 0 0-.18.44c0 .08.01.16.04.24.04.08.08.15.14.2.12.12.28.19.44.19s.32-.07.44-.19c.06-.05.11-.12.14-.2a.69.69 0 0 0 .04-.24.59.59 0 0 0-.18-.44.627.627 0 0 0-.88 0Zm.88 3a.627.627 0 0 0-.88 0 .92.92 0 0 0-.14.2c-.03.08-.04.16-.04.24s.01.16.04.24c.03.08.08.15.14.2.12.12.28.19.44.19s.32-.07.44-.19c.06-.05.11-.12.14-.2.03-.08.05-.16.05-.24s-.02-.16-.05-.24a.664.664 0 0 0-.14-.2Zm-.88 3a.598.598 0 0 0-.14.68c.03.08.08.14.14.2.11.12.28.19.44.19.17 0 .33-.07.44-.19.06-.06.11-.12.14-.2a.598.598 0 0 0-.14-.68.627.627 0 0 0-.88 0Zm.68 2.86a.659.659 0 0 0-.48 0c-.07.04-.14.08-.2.14a.669.669 0 0 0-.14.68c.03.08.08.15.14.2.12.12.28.19.44.19s.32-.07.44-.19c.06-.05.11-.12.14-.2.03-.08.05-.16.05-.24 0-.16-.07-.32-.19-.44a.605.605 0 0 0-.2-.14ZM15 14.625h.375V24a.626.626 0 0 0 1.25 0v-9.375H17a.626.626 0 0 0 0-1.25h-.375V12a.626.626 0 0 0-1.25 0v1.375H15a.626.626 0 0 0 0 1.25Zm5 7h.375V24a.626.626 0 0 0 1.25 0v-2.375H22a.626.626 0 0 0 0-1.25h-.375V12a.626.626 0 0 0-1.25 0v8.375H20a.626.626 0 0 0 0 1.25Zm5-3h.375V24a.626.626 0 0 0 1.25 0v-5.375H27a.626.626 0 0 0 0-1.25h-.375V12a.626.626 0 0 0-1.25 0v5.375H25a.626.626 0 0 0 0 1.25Z"/>
  </g>
</svg>
