<svg id="uuid-f0927e1f-e4f4-4da6-b7d8-c43e94411d89" xmlns="http://www.w3.org/2000/svg" viewBox="0 0 36 36">
  <defs>
    <style>
      .uuid-f5a52832-54ff-43c9-bab5-3a605ecb630e{stroke-width:0}
    </style>
  </defs>
  <g id="uuid-61351956-47f7-4635-b8a7-8f4884072082">
    <path class="uuid-f5a52832-54ff-43c9-bab5-3a605ecb630e" d="M15.661 15.714c0 .819.424 1.538 1.063 1.956l-1.044 4.18a.625.625 0 0 0 .607.776h3.427a.625.625 0 0 0 .606-.776l-1.044-4.179A2.336 2.336 0 0 0 18 13.375a2.341 2.341 0 0 0-2.339 2.34Z"/>
    <path class="uuid-f5a52832-54ff-43c9-bab5-3a605ecb630e" d="m30.436 10.459-12.124-7a.627.627 0 0 0-.625 0l-12.124 7a.626.626 0 0 0-.312.541v14c0 .223.12.43.312.542l12.125 7a.627.627 0 0 0 .625 0l12.124-7a.626.626 0 0 0 .312-.542V11c0-.223-.12-.43-.312-.541Zm-.937 14.18L18 31.28 6.501 24.64V11.361L18 4.721l11.499 6.64V24.64Z"/>
  </g>
</svg>
