<svg id="uuid-9aa97633-7545-4bd2-9d72-138eda500ec7" xmlns="http://www.w3.org/2000/svg" viewBox="0 0 36 36">
  <defs>
    <style>
      .uuid-62933da1-1f94-4c0f-8612-f9be5007f8b6{stroke-width:0}
    </style>
  </defs>
  <g id="uuid-92e54dd8-f6f4-4f22-a274-7e5c54a93d81">
    <path class="uuid-62933da1-1f94-4c0f-8612-f9be5007f8b6" d="m30.436 10.459-12.124-7a.627.627 0 0 0-.625 0l-12.124 7a.626.626 0 0 0-.312.541v14c0 .223.12.43.312.542l12.125 7a.627.627 0 0 0 .625 0l12.124-7a.626.626 0 0 0 .312-.542V11c0-.223-.12-.43-.312-.541Zm-.937 14.18L18 31.28 6.501 24.64V11.361L18 4.721l11.499 6.64V24.64Z"/>
    <path class="uuid-62933da1-1f94-4c0f-8612-f9be5007f8b6" d="M12.375 13v10c0 .345.28.625.625.625h10c.345 0 .625-.28.625-.625V13a.625.625 0 0 0-.625-.625H13a.625.625 0 0 0-.625.625Zm1.25.625h8.75v8.75h-8.75v-8.75Z"/>
    <path class="uuid-62933da1-1f94-4c0f-8612-f9be5007f8b6" d="M20.44 15.563a.661.661 0 0 0-.2-.14.634.634 0 0 0-.68.14.49.49 0 0 0-.14.2c-.03.07-.05.16-.05.24 0 .08.02.16.05.24.03.07.08.14.14.2a.623.623 0 0 0 .68.13.628.628 0 0 0 .39-.57c0-.08-.02-.17-.05-.24a.484.484 0 0 0-.14-.2Zm-2.68-.14c-.07.03-.14.08-.2.13-.12.12-.19.28-.19.45 0 .16.07.32.19.44.11.12.27.18.44.18s.33-.06.44-.18c.12-.12.19-.28.19-.44 0-.17-.07-.33-.19-.45a.648.648 0 0 0-.68-.13Z"/>
  </g>
</svg>
