<svg id="uuid-1b74be75-dd70-4fe0-9a5b-d9eb02665b38" xmlns="http://www.w3.org/2000/svg" viewBox="0 0 36 36">
  <defs>
    <style>
      .uuid-2612a81c-06ab-4a3c-b7c4-750f53dfc647{stroke-width:0}
    </style>
  </defs>
  <g id="uuid-c9bc40c9-5c05-4ead-afa3-b0378186a7d7">
    <path class="uuid-2612a81c-06ab-4a3c-b7c4-750f53dfc647" d="M22.846 16.393a.626.626 0 0 0 .312-.541v-5.235a.624.624 0 0 0-.312-.541l-4.533-2.617a.627.627 0 0 0-.625 0l-4.534 2.617a.626.626 0 0 0-.312.541v5.235c0 .223.119.43.312.541l4.533 2.617a.626.626 0 0 0 .625 0l4.534-2.617Zm-8.754-.902v-4.513L18 8.722l3.908 2.256v4.513L18 17.747l-3.908-2.256Zm9.691 13.051 4.533-2.618a.626.626 0 0 0 .313-.541v-5.235c0-.223-.12-.43-.313-.541l-4.533-2.618a.627.627 0 0 0-.625 0l-4.533 2.618a.626.626 0 0 0-.313.541v5.235c0 .223.12.43.313.541l4.533 2.618a.626.626 0 0 0 .625 0Zm-4.22-3.52V20.51l3.908-2.256 3.908 2.256v4.513L23.47 27.28l-3.908-2.257Zm-6.721-8.032a.627.627 0 0 0-.625 0l-4.533 2.617a.626.626 0 0 0-.313.541v5.235c0 .223.12.43.313.542l4.533 2.617a.626.626 0 0 0 .625 0l4.533-2.617a.626.626 0 0 0 .313-.542v-5.235c0-.223-.12-.43-.313-.541l-4.533-2.617Zm3.595 8.032L12.53 27.28l-3.908-2.257V20.51l3.908-2.256 3.908 2.256v4.513Z"/>
    <path class="uuid-2612a81c-06ab-4a3c-b7c4-750f53dfc647" d="M12 30.375H5.625V5.625H12a.625.625 0 1 0 0-1.25H5A.625.625 0 0 0 4.375 5v26c0 .345.28.625.625.625h7a.625.625 0 1 0 0-1.25Zm19-26h-7a.625.625 0 1 0 0 1.25h6.375v24.75H24a.625.625 0 1 0 0 1.25h7c.345 0 .625-.28.625-.625V5A.625.625 0 0 0 31 4.375Z"/>
  </g>
</svg>
