<svg id="uuid-952ec779-6f59-4b61-a5b4-a80f4f483464" xmlns="http://www.w3.org/2000/svg" viewBox="0 0 36 36">
  <defs>
    <style>
      .uuid-7b75d785-0705-4b38-acb3-bf280e45eefe{stroke-width:0}
    </style>
  </defs>
  <g id="uuid-5d1a20e0-9c54-46e2-92af-93855b70fcde">
    <path class="uuid-7b75d785-0705-4b38-acb3-bf280e45eefe" d="M32 26.38H4c-.35 0-.62.28-.62.62s.28.62.62.62h28c.35 0 .62-.28.62-.62s-.28-.62-.62-.62ZM5 24.62c.35 0 .62-.28.62-.62 0-6.82 5.55-12.38 12.38-12.38S30.38 17.17 30.38 24c0 .34.28.62.62.62s.62-.28.62-.62c0-7.51-6.11-13.62-13.62-13.62S4.38 16.49 4.38 24c0 .34.28.62.62.62ZM17.56 9.44c.11.12.28.19.44.19.08 0 .16-.02.24-.05s.15-.08.2-.14c.06-.05.11-.12.14-.2.03-.08.04-.16.04-.24s0-.16-.04-.24a.66.66 0 0 0-.14-.2.483.483 0 0 0-.2-.14.652.652 0 0 0-.68.14.62.62 0 0 0-.18.44c0 .08 0 .16.04.24s.08.15.14.2Z"/>
    <path class="uuid-7b75d785-0705-4b38-acb3-bf280e45eefe" d="M7.38 24c0 .34.28.62.62.62s.62-.28.62-.62c0-5.17 4.21-9.38 9.38-9.38.35 0 .62-.28.62-.62s-.28-.62-.62-.62c-5.86 0-10.62 4.77-10.62 10.62Z"/>
  </g>
</svg>
