<svg id="uuid-dbd9aec8-54b7-4353-82a6-6e3c22997644" xmlns="http://www.w3.org/2000/svg" viewBox="0 0 36 36">
  <defs>
    <style>
      .uuid-13cfe407-6d48-4c2e-8e7b-241824f5d9bc{stroke-width:0}
    </style>
  </defs>
  <g id="uuid-bf545fc4-9c1e-4a90-b428-907d4cc6be87">
    <path class="uuid-13cfe407-6d48-4c2e-8e7b-241824f5d9bc" d="M15.56 11.44c.11.12.28.18.44.18.08 0 .16-.01.24-.04.08-.03.15-.08.2-.14.12-.12.19-.28.19-.44s-.07-.32-.19-.44a.56.56 0 0 0-.2-.14.634.634 0 0 0-.68.14c-.12.11-.18.28-.18.44 0 .08.01.16.04.24s.08.14.14.2Zm4.2.14c.08.03.16.04.24.04s.16-.01.24-.04c.08-.03.15-.08.2-.14.12-.12.19-.28.19-.44s-.07-.32-.19-.44a.486.486 0 0 0-.2-.14.663.663 0 0 0-.48 0c-.08.03-.14.08-.2.14-.12.12-.19.28-.19.44s.07.32.19.44c.06.06.12.11.2.14Z"/>
    <path class="uuid-13cfe407-6d48-4c2e-8e7b-241824f5d9bc" d="m31.442 22.558-2-2a.626.626 0 0 0-.442-.183h-2.407a8.56 8.56 0 0 0-1.36-4.057A2.625 2.625 0 0 0 26.625 14v-.438c1.7-.298 3-1.777 3-3.562A3.629 3.629 0 0 0 26 6.375a.625.625 0 0 0-.625.625v2.268l-2.187-.465a.625.625 0 0 0-.743.491 3.624 3.624 0 0 0 2.93 4.267V14c0 .598-.392 1.094-.937 1.28-1.58-1.777-3.877-2.905-6.438-2.905s-4.857 1.128-6.438 2.905c-.544-.187-.937-.683-.937-1.28v-.438a3.624 3.624 0 0 0 2.93-4.268.624.624 0 0 0-.743-.49l-2.187.464V7A.625.625 0 0 0 10 6.375 3.629 3.629 0 0 0 6.375 10c0 1.785 1.3 3.264 3 3.562V14c0 .995.558 1.874 1.392 2.318a8.562 8.562 0 0 0-1.36 4.057H7a.626.626 0 0 0-.442.183l-2 2a.626.626 0 0 0 .884.884l1.817-1.817h2.148a8.56 8.56 0 0 0 .657 2.75H8a.626.626 0 0 0-.442.183l-2 2a.626.626 0 0 0 .884.884l1.817-1.817h2.473a8.677 8.677 0 0 0 1.479 1.75H11a.626.626 0 0 0-.442.183l-2 2a.626.626 0 0 0 .884.884l1.817-1.817h2.721a8.57 8.57 0 0 0 8.04 0h2.721l1.817 1.817a.624.624 0 0 0 .885 0 .626.626 0 0 0 0-.884l-2-2a.626.626 0 0 0-.443-.183h-1.21a8.68 8.68 0 0 0 1.478-1.75h2.474l1.816 1.817a.624.624 0 0 0 .885 0 .626.626 0 0 0 0-.884l-2-2a.626.626 0 0 0-.443-.183h-2.064a8.563 8.563 0 0 0 .658-2.75h2.147l1.817 1.817a.624.624 0 0 0 .885 0 .626.626 0 0 0 0-.884Zm-7.81-12.383 2.238.476a.621.621 0 0 0 .755-.611V7.709A2.379 2.379 0 0 1 28.375 10 2.378 2.378 0 0 1 26 12.375a2.377 2.377 0 0 1-2.368-2.2ZM7.625 10a2.38 2.38 0 0 1 1.75-2.292v2.332a.625.625 0 0 0 .755.61l2.238-.475a2.377 2.377 0 0 1-2.368 2.2A2.378 2.378 0 0 1 7.625 10ZM18 28.375c-4.066 0-7.375-3.309-7.375-7.375s3.309-7.375 7.375-7.375 7.375 3.309 7.375 7.375-3.309 7.375-7.375 7.375Z"/>
  </g>
</svg>
