<svg id="uuid-8d1ba173-3a2a-4c2d-9503-452019b537fd" xmlns="http://www.w3.org/2000/svg" viewBox="0 0 36 36">
  <defs>
    <style>
      .uuid-8da9da79-6d65-4ef3-bf39-99a0408411e8{stroke-width:0}
    </style>
  </defs>
  <g id="uuid-37dac8cb-5791-40a0-8787-b8786cb5dce6">
    <path class="uuid-8da9da79-6d65-4ef3-bf39-99a0408411e8" d="M29 9.375H7A2.628 2.628 0 0 0 4.375 12v12A2.628 2.628 0 0 0 7 26.625h22A2.628 2.628 0 0 0 31.625 24V12A2.628 2.628 0 0 0 29 9.375Zm-23.375 4.25h24.75v1.75H5.625v-1.75Zm1.375-3h22c.758 0 1.375.617 1.375 1.375v.375H5.625V12c0-.758.617-1.375 1.375-1.375Zm22 14.75H7A1.377 1.377 0 0 1 5.625 24v-7.375h24.75V24c0 .758-.617 1.375-1.375 1.375Z"/>
    <path class="uuid-8da9da79-6d65-4ef3-bf39-99a0408411e8" d="M15.625 20a.625.625 0 0 0-.625-.625H8a.625.625 0 0 0 0 1.25h7c.345 0 .625-.28.625-.625ZM10 22.375H8a.625.625 0 0 0 0 1.25h2a.625.625 0 0 0 0-1.25Zm4 0h-2a.625.625 0 0 0 0 1.25h2a.625.625 0 0 0 0-1.25Zm4 0h-2a.625.625 0 0 0 0 1.25h2a.625.625 0 0 0 0-1.25Zm4 0h-2a.625.625 0 0 0 0 1.25h2a.625.625 0 0 0 0-1.25Z"/>
  </g>
</svg>
