<svg id="uuid-103090ac-91b5-4986-aff7-22e330cd35de" xmlns="http://www.w3.org/2000/svg" viewBox="0 0 36 36">
  <defs>
    <style>
      .uuid-f33a3f54-40c2-499f-abda-5bbf696e073a{stroke-width:0}
    </style>
  </defs>
  <g id="uuid-33b4b7b2-8402-4183-83f1-465aabbbdd0d">
    <path class="uuid-f33a3f54-40c2-499f-abda-5bbf696e073a" d="M26.442 25.558a2.205 2.205 0 0 1 0-3.116.626.626 0 0 0 0-.884l-2-2a.625.625 0 1 0-.884.884l1.598 1.598a3.449 3.449 0 0 0-.54 2.576 3.447 3.447 0 0 0-2.576.54l-1.598-1.598a.625.625 0 1 0-.884.884l2 2c.244.245.64.245.884 0a2.206 2.206 0 0 1 3.116 0l5 5a.622.622 0 0 0 .884 0 .626.626 0 0 0 0-.884l-5-5Zm-14.884-9.116a.622.622 0 0 0 .884 0 .626.626 0 0 0 0-.884L5.884 9 9 5.884l6.558 6.558a.625.625 0 1 0 .884-.884l-7-7a.625.625 0 0 0-.884 0l-4 4a.626.626 0 0 0 0 .884l7 7Zm19.884-7.884-4-4a.625.625 0 0 0-.884 0l-17 17a.626.626 0 0 0 0 .884c.416.416.646.97.646 1.558s-.23 1.142-.646 1.558l-5 5a.626.626 0 0 0 .884.884l5-5c.832-.834 2.284-.834 3.116 0a.622.622 0 0 0 .884 0l17-17a.626.626 0 0 0 0-.884ZM13.96 25.156a3.45 3.45 0 0 0-2.56-.555 3.462 3.462 0 0 0-.556-2.561L27 5.884 30.116 9 13.96 25.156ZM18 26.375c-1.447 0-2.625 1.178-2.625 2.625s1.178 2.625 2.625 2.625 2.625-1.178 2.625-2.625-1.178-2.625-2.625-2.625Zm0 4c-.758 0-1.375-.617-1.375-1.375s.617-1.375 1.375-1.375 1.375.617 1.375 1.375-.617 1.375-1.375 1.375Z"/>
    <path class="uuid-f33a3f54-40c2-499f-abda-5bbf696e073a" d="m19.558 15.558-3.5 3.5a.626.626 0 0 0 .884.884l3.5-3.5a.626.626 0 0 0-.884-.884Zm2.882-1.998a.565.565 0 0 0-.2-.14.633.633 0 0 0-.68.14c-.12.11-.18.27-.18.44s.06.33.18.44c.06.06.13.11.2.14.08.03.16.05.24.05.08 0 .16-.02.24-.05.08-.03.14-.08.2-.14a.48.48 0 0 0 .14-.2c.03-.08.05-.16.05-.24s-.02-.16-.05-.24a.66.66 0 0 0-.14-.2Zm-8.68-.14c-.07.03-.15.08-.2.14-.12.11-.18.27-.18.44s.06.33.18.44c.06.06.13.11.2.14.08.03.16.05.24.05.16 0 .32-.07.44-.19a.48.48 0 0 0 .14-.2c.03-.08.05-.16.05-.24 0-.16-.07-.33-.19-.44a.565.565 0 0 0-.2-.14.657.657 0 0 0-.48 0Z"/>
  </g>
</svg>
