<svg xmlns="http://www.w3.org/2000/svg" viewBox="0 0 36 36">
  <path d="M16.625 12.5c0-2.274-1.85-4.125-4.125-4.125s-4.125 1.85-4.125 4.125 1.85 4.125 4.125 4.125 4.125-1.85 4.125-4.125ZM12.5 15.375c-1.585 0-2.875-1.29-2.875-2.875s1.29-2.875 2.875-2.875 2.875 1.29 2.875 2.875-1.29 2.875-2.875 2.875Zm5 4c-2.274 0-4.125 1.85-4.125 4.125s1.85 4.125 4.125 4.125 4.125-1.85 4.125-4.125-1.85-4.125-4.125-4.125Zm0 7c-1.585 0-2.875-1.29-2.875-2.875s1.29-2.875 2.875-2.875 2.875 1.29 2.875 2.875-1.29 2.875-2.875 2.875ZM31.625 12.5c0-2.274-1.85-4.125-4.125-4.125s-4.125 1.85-4.125 4.125 1.85 4.125 4.125 4.125 4.125-1.85 4.125-4.125ZM27.5 15.375c-1.585 0-2.875-1.29-2.875-2.875s1.29-2.875 2.875-2.875 2.875 1.29 2.875 2.875-1.29 2.875-2.875 2.875Zm-22.5-7A.625.625 0 0 0 4.375 9v7a.625.625 0 1 0 1.25 0V9A.625.625 0 0 0 5 8.375Zm0 11a.625.625 0 0 0-.625.625v7a.625.625 0 1 0 1.25 0v-7A.625.625 0 0 0 5 19.375Zm5 0a.625.625 0 0 0-.625.625v7a.625.625 0 1 0 1.25 0v-7a.625.625 0 0 0-.625-.625Zm15 0a.625.625 0 0 0-.625.625v7a.625.625 0 1 0 1.25 0v-7a.625.625 0 0 0-.625-.625Zm5 0a.625.625 0 0 0-.625.625v7a.625.625 0 1 0 1.25 0v-7a.625.625 0 0 0-.625-.625Zm-10-2.75c.345 0 .625-.28.625-.625V9a.625.625 0 1 0-1.25 0v7c0 .345.28.625.625.625Z"/>
</svg>
