<svg id="uuid-00cbfe77-da48-4f06-a947-a60abc4712c3" xmlns="http://www.w3.org/2000/svg" viewBox="0 0 36 36">
  <defs>
    <style>
      .uuid-8e7f7fec-94fc-4639-935c-0bdf1c644501{stroke-width:0}
    </style>
  </defs>
  <g id="uuid-70fca5b4-7acc-4da6-ac1f-95136407b28a">
    <path class="uuid-8e7f7fec-94fc-4639-935c-0bdf1c644501" d="M5 31.62h26c.35 0 .62-.28.62-.62V5c0-.35-.28-.62-.62-.62H5c-.35 0-.62.28-.62.62v26c0 .35.28.62.62.62Zm.62-26h24.76v24.76H5.62V5.62Z"/>
    <path class="uuid-8e7f7fec-94fc-4639-935c-0bdf1c644501" d="M18.44 25.56a.652.652 0 0 0-.68-.14l-.2.14-.14.2-.04.24c0 .17.06.33.18.44.11.12.27.18.44.18s.33-.06.44-.18c.12-.11.19-.27.19-.44l-.05-.24-.14-.2Zm7 0a.652.652 0 0 0-.68-.14l-.2.14-.14.2-.04.24.04.24.14.2.2.14.24.05c.17 0 .33-.07.44-.19.12-.11.19-.27.19-.44l-.05-.24-.14-.2Zm-14.88 0c-.12.11-.18.27-.18.44s.06.33.18.44l.2.14.24.04c.17 0 .33-.06.44-.18.12-.11.19-.27.19-.44s-.07-.33-.19-.44a.647.647 0 0 0-.88 0ZM13 20.38H9c-.35 0-.62.28-.62.62s.28.62.62.62h4c.35 0 .62-.28.62-.62s-.28-.62-.62-.62Zm7 0h-4c-.35 0-.62.28-.62.62s.28.62.62.62h4c.35 0 .62-.28.62-.62s-.28-.62-.62-.62Zm7 0h-4c-.35 0-.62.28-.62.62s.28.62.62.62h4c.35 0 .62-.28.62-.62s-.28-.62-.62-.62Zm-14-3H9c-.35 0-.62.28-.62.62s.28.62.62.62h4c.35 0 .62-.28.62-.62s-.28-.62-.62-.62Zm7 0h-4c-.35 0-.62.28-.62.62s.28.62.62.62h4c.35 0 .62-.28.62-.62s-.28-.62-.62-.62Zm7 0h-4c-.35 0-.62.28-.62.62s.28.62.62.62h4c.35 0 .62-.28.62-.62s-.28-.62-.62-.62Zm-14-3H9c-.35 0-.62.28-.62.62s.28.62.62.62h4c.35 0 .62-.28.62-.62s-.28-.62-.62-.62Zm7 0h-4c-.35 0-.62.28-.62.62s.28.62.62.62h4c.35 0 .62-.28.62-.62s-.28-.62-.62-.62Zm7 0h-4c-.35 0-.62.28-.62.62s.28.62.62.62h4c.35 0 .62-.28.62-.62s-.28-.62-.62-.62Zm-14-3H9c-.35 0-.62.28-.62.62s.28.62.62.62h4c.35 0 .62-.28.62-.62s-.28-.62-.62-.62Zm7 0h-4c-.35 0-.62.28-.62.62s.28.62.62.62h4c.35 0 .62-.28.62-.62s-.28-.62-.62-.62Zm7 0h-4c-.35 0-.62.28-.62.62s.28.62.62.62h4c.35 0 .62-.28.62-.62s-.28-.62-.62-.62Zm-14-3H9c-.35 0-.62.28-.62.62s.28.62.62.62h4c.35 0 .62-.28.62-.62s-.28-.62-.62-.62Zm7 0h-4c-.35 0-.62.28-.62.62s.28.62.62.62h4c.35 0 .62-.28.62-.62s-.28-.62-.62-.62Zm7 0h-4c-.35 0-.62.28-.62.62s.28.62.62.62h4c.35 0 .62-.28.62-.62s-.28-.62-.62-.62Z"/>
  </g>
</svg>
