<svg id="uuid-4659a1b6-17e1-4232-a7d6-29bf299132cd" xmlns="http://www.w3.org/2000/svg" viewBox="0 0 36 36">
  <defs>
    <style>
      .uuid-5dac4a99-73a5-423b-85f8-206e9d1589ce{stroke-width:0}
    </style>
  </defs>
  <g id="uuid-e4448299-3084-42ba-9fd7-0b114b84bd69">
    <path class="uuid-5dac4a99-73a5-423b-85f8-206e9d1589ce" d="M31 9.62c.35 0 .62-.28.62-.62s-.28-.62-.62-.62h-3.38V5c0-.35-.28-.62-.62-.62H9c-.35 0-.62.28-.62.62v3.38H5c-.35 0-.62.28-.62.62s.28.62.62.62h3.38v1.75H5c-.35 0-.62.28-.62.62s.28.62.62.62h3.38v1.75H5c-.35 0-.62.28-.62.62s.28.62.62.62h3.38v1.75H5c-.35 0-.62.28-.62.62s.28.62.62.62h3.38v1.75H5c-.35 0-.62.28-.62.62s.28.62.62.62h3.38v1.75H5c-.35 0-.62.28-.62.62s.28.62.62.62h3.38v1.75H5c-.35 0-.62.28-.62.62s.28.62.62.62h3.38v3.38c0 .35.28.62.62.62h18c.35 0 .62-.28.62-.62v-3.38H31c.35 0 .62-.28.62-.62s-.28-.62-.62-.62h-3.38v-1.75H31c.35 0 .62-.28.62-.62s-.28-.62-.62-.62h-3.38v-1.75H31c.35 0 .62-.28.62-.62s-.28-.62-.62-.62h-3.38v-1.75H31c.35 0 .62-.28.62-.62s-.28-.62-.62-.62h-3.38V15.6H31c.35 0 .62-.28.62-.62s-.28-.62-.62-.62h-3.38v-1.75H31c.35 0 .62-.28.62-.62s-.28-.62-.62-.62h-3.38V9.62H31ZM26.38 27v3.38H9.62V5.62h16.75V27h.01Z"/>
    <path class="uuid-5dac4a99-73a5-423b-85f8-206e9d1589ce" d="M13 27.62h10c.35 0 .62-.28.62-.62V9c0-.35-.28-.62-.62-.62H13c-.35 0-.62.28-.62.62v18c0 .35.28.62.62.62Zm.62-18h8.75v16.76h-8.75V9.62Z"/>
  </g>
</svg>
