<svg id="uuid-ee68085d-7ed3-48ae-a400-6828b7121d42" xmlns="http://www.w3.org/2000/svg" viewBox="0 0 36 36">
  <defs>
    <style>
      .uuid-b78b1901-29f9-4474-b8d7-1310478c085f{stroke-width:0}
    </style>
  </defs>
  <path class="uuid-b78b1901-29f9-4474-b8d7-1310478c085f" d="M6 24.625h24c.345 0 .625-.28.625-.625V9A.626.626 0 0 0 30 8.375h-9a.626.626 0 0 0 0 1.25h8.375v13.75H6.625V9.625H15a.626.626 0 0 0 0-1.25H6A.626.626 0 0 0 5.375 9v15c0 .345.28.625.625.625Zm26 1.75H4a.626.626 0 0 0 0 1.25h28a.626.626 0 0 0 0-1.25Z"/>
  <path class="uuid-b78b1901-29f9-4474-b8d7-1310478c085f" d="M17.558 9.44c.06.06.13.109.2.14a.6.6 0 0 0 .68-.14.49.49 0 0 0 .14-.2c.03-.071.05-.16.05-.24s-.02-.161-.05-.241a.691.691 0 0 0-.14-.2.6.6 0 0 0-.2-.14.665.665 0 0 0-.48 0c-.07.04-.14.08-.2.14-.06.06-.1.13-.14.2a.69.69 0 0 0-.04.24c0 .09.01.17.04.24.04.08.08.15.14.2Zm-.322 10.596a.625.625 0 0 0 .741-.481l1.244-5.85a.625.625 0 1 0-1.223-.26l-1.243 5.85a.624.624 0 0 0 .482.741Zm3.758-.536a.623.623 0 0 0 .885 0l2.564-2.564a.625.625 0 0 0-.001-.885l-2.564-2.563a.625.625 0 1 0-.883.885l2.121 2.12-2.122 2.121a.628.628 0 0 0 0 .885Zm-5.989-6.012a.626.626 0 0 0-.885 0l-2.562 2.563a.626.626 0 0 0 0 .884l2.562 2.563a.624.624 0 1 0 .885-.883l-2.121-2.122 2.121-2.12a.628.628 0 0 0 0-.885Z"/>
</svg>
