<svg xmlns="http://www.w3.org/2000/svg" viewBox="0 0 36 36">
  <path d="M27 12.375c-3.102 0-5.625 2.523-5.625 5.625s2.523 5.625 5.625 5.625 5.625-2.523 5.625-5.625-2.523-5.625-5.625-5.625Zm0 10c-2.412 0-4.375-1.963-4.375-4.375s1.963-4.375 4.375-4.375 4.375 1.963 4.375 4.375-1.963 4.375-4.375 4.375Zm-21-8c-1.447 0-2.625 1.178-2.625 2.625S4.553 19.625 6 19.625 8.625 18.447 8.625 17 7.447 14.375 6 14.375Zm0 4c-.758 0-1.375-.617-1.375-1.375S5.242 15.625 6 15.625s1.375.617 1.375 1.375S6.758 18.375 6 18.375Zm6-.75c1.447 0 2.625-1.178 2.625-2.625S13.447 12.375 12 12.375 9.375 13.553 9.375 15s1.178 2.625 2.625 2.625Zm0-4c.758 0 1.375.617 1.375 1.375s-.617 1.375-1.375 1.375-1.375-.617-1.375-1.375.617-1.375 1.375-1.375ZM13.625 21c0-1.447-1.178-2.625-2.625-2.625S8.375 19.553 8.375 21 9.553 23.625 11 23.625s2.625-1.178 2.625-2.625Zm-4 0c0-.758.617-1.375 1.375-1.375s1.375.617 1.375 1.375-.617 1.375-1.375 1.375S9.625 21.758 9.625 21Zm5.135-3.58c-.08.03-.14.08-.2.14a.56.56 0 0 0-.14.2c-.03.08-.05.16-.05.24 0 .16.07.33.19.44.06.06.12.11.2.14.08.03.16.05.24.05.16 0 .33-.07.44-.19a.63.63 0 0 0 .19-.44c0-.08-.02-.16-.05-.24a.553.553 0 0 0-.14-.2.633.633 0 0 0-.68-.14ZM8 13.63c.08 0 .16-.02.24-.05.08-.03.14-.08.2-.14a.63.63 0 0 0 .19-.44c0-.08-.02-.16-.05-.24a.553.553 0 0 0-.14-.2.627.627 0 0 0-.88 0 .56.56 0 0 0-.14.2c-.03.08-.05.16-.05.24 0 .16.07.32.19.44s.28.19.44.19Zm-2.44 7.93c-.12.12-.19.28-.19.44s.07.33.19.44c.12.12.28.19.44.19s.32-.07.44-.19.19-.28.19-.44a.632.632 0 0 0-1.07-.44Zm4.894-10.681C12.436 8.78 15.116 7.625 18 7.625s5.564 1.155 7.546 3.254a.62.62 0 0 0 .883.025.624.624 0 0 0 .025-.882C24.234 7.67 21.231 6.375 18 6.375s-6.234 1.295-8.454 3.647a.624.624 0 1 0 .908.857Zm15.092 14.242c-1.982 2.099-4.662 3.254-7.546 3.254s-5.564-1.155-7.546-3.254a.624.624 0 1 0-.908.857c2.22 2.352 5.223 3.647 8.454 3.647s6.234-1.295 8.454-3.647a.624.624 0 1 0-.908-.857Z"/>
</svg>
