<svg xmlns="http://www.w3.org/2000/svg" viewBox="0 0 36 36">
  <path d="M30.735 13.437a6.414 6.414 0 0 0-4.564-1.89c-1.724 0-3.344.67-4.566 1.892l-8.168 8.24a5.21 5.21 0 0 1-7.359 0 5.21 5.21 0 0 1 0-7.358 5.208 5.208 0 0 1 7.359 0l1.053 1.054H13a.626.626 0 0 0 0 1.25h2.998a.626.626 0 0 0 .243-.049c.04-.017.072-.047.108-.072.031-.021.066-.034.093-.062.022-.022.032-.05.05-.075.03-.04.065-.08.085-.128a.624.624 0 0 0 .042-.211c0-.01.006-.018.006-.028v-3a.626.626 0 0 0-1.25 0v1.49l-1.054-1.054a6.462 6.462 0 0 0-9.128.001 6.463 6.463 0 0 0 0 9.126 6.464 6.464 0 0 0 9.13-.002l8.17-8.24a5.208 5.208 0 0 1 7.358 0 5.207 5.207 0 0 1 0 7.358 5.21 5.21 0 0 1-7.359 0l-2.085-2.085a.625.625 0 1 0-.885.883l2.085 2.087a6.413 6.413 0 0 0 4.564 1.89 6.415 6.415 0 0 0 4.564-1.89c1.22-1.22 1.89-2.84 1.89-4.564s-.67-3.344-1.89-4.564Z"/>
</svg>
