<svg id="uuid-0087f6b3-c664-45df-b719-dea9e59e816e" xmlns="http://www.w3.org/2000/svg" viewBox="0 0 36 36">
  <defs>
    <style>
      .uuid-5d53be7d-a394-4964-b0f3-dba3ac3aad33{stroke-width:0}
    </style>
  </defs>
  <path class="uuid-5d53be7d-a394-4964-b0f3-dba3ac3aad33" d="M6 26.62h24c.34 0 .62-.28.62-.62V11c0-.35-.28-.62-.62-.62h-4c-.34 0-.62.28-.62.62s.28.62.62.62h3.38v13.75h-6.33a5.06 5.06 0 0 0-2.97-4.48c.66-.58 1.09-1.42 1.09-2.36 0-1.74-1.42-3.16-3.16-3.16s-3.16 1.42-3.16 3.16c0 .95.43 1.78 1.09 2.36a5.048 5.048 0 0 0-2.97 4.48H6.62V11.62H10c.34 0 .62-.28.62-.62s-.28-.62-.62-.62H6c-.34 0-.62.28-.62.62v15c0 .35.28.62.62.62Zm10.09-8.09c0-1.05.86-1.91 1.91-1.91s1.91.86 1.91 1.91-.86 1.91-1.91 1.91-1.91-.86-1.91-1.91ZM18 21.69c2.06 0 3.73 1.64 3.8 3.68h-7.59a3.807 3.807 0 0 1 3.8-3.68H18Zm14 6.69H4c-.34 0-.62.28-.62.62s.28.62.62.62h28c.34 0 .62-.28.62-.62s-.28-.62-.62-.62Z"/>
  <path class="uuid-5d53be7d-a394-4964-b0f3-dba3ac3aad33" d="M12 12.62h3.74l1.82 1.82c.12.12.28.18.44.18s.32-.06.44-.18l1.82-1.82H24c.34 0 .62-.28.62-.62V6c0-.35-.28-.62-.62-.62H12c-.34 0-.62.28-.62.62v6c0 .35.28.62.62.62Zm.62-6h10.75v4.75h-3.38c-.17 0-.33.07-.44.18l-1.56 1.56-1.56-1.56a.62.62 0 0 0-.44-.18h-3.38V6.62h.01Z"/>
</svg>
