<svg id="uuid-ba1a13c6-9b12-4ace-ab92-0043516d0705" xmlns="http://www.w3.org/2000/svg" viewBox="0 0 36 36">
  <defs>
    <style>
      .uuid-7158556a-1f4b-48cd-abe6-720b8134f99c{stroke-width:0}
    </style>
  </defs>
  <path class="uuid-7158556a-1f4b-48cd-abe6-720b8134f99c" d="M28.5 5.625c1.034 0 1.875.841 1.875 1.875s-.841 1.875-1.875 1.875-1.875-.841-1.875-1.875.841-1.875 1.875-1.875Zm0 5c1.723 0 3.125-1.402 3.125-3.125S30.223 4.375 28.5 4.375 25.375 5.777 25.375 7.5s1.402 3.125 3.125 3.125Zm-3 19.75c-2.688 0-4.875-2.187-4.875-4.875s2.187-4.875 4.875-4.875 4.875 2.187 4.875 4.875-2.187 4.875-4.875 4.875Zm0-11c-3.377 0-6.125 2.748-6.125 6.125s2.748 6.125 6.125 6.125 6.125-2.748 6.125-6.125-2.748-6.125-6.125-6.125ZM11.994 4.977a.63.63 0 0 0-.619.63c0 .35.28.62.62.62.35 0 .63-.27.63-.62 0-.34-.28-.63-.63-.63Zm2.335-.539c-.34 0-.62.29-.62.63 0 .35.28.62.62.62.35 0 .63-.27.63-.62 0-.34-.28-.63-.63-.63Zm2.385 0c-.34 0-.62.29-.62.63 0 .35.28.62.62.62.35 0 .63-.27.63-.62 0-.34-.28-.63-.63-.63Zm2.33.552c-.34 0-.62.29-.62.63 0 .35.28.62.62.62.35 0 .63-.27.63-.62 0-.34-.28-.63-.63-.63Zm2.142 1.06c-.34 0-.62.29-.62.63 0 .35.28.62.62.62.35 0 .63-.27.63-.62 0-.34-.28-.63-.63-.63Zm1.848 1.518c-.34 0-.62.29-.62.63 0 .35.28.62.62.62.35 0 .63-.27.63-.62 0-.34-.28-.63-.63-.63Zm1.456 1.891a.63.63 0 0 0-.619.63c0 .35.28.62.62.62.35 0 .63-.27.63-.62 0-.34-.28-.63-.63-.63Zm.994 2.171c-.34 0-.62.29-.62.63 0 .35.28.62.62.62.35 0 .63-.27.63-.62 0-.34-.28-.63-.63-.63Zm.471 2.344c-.34 0-.62.29-.62.63 0 .35.28.62.62.62.35 0 .63-.27.63-.62 0-.34-.28-.63-.63-.63Zm-.065 2.404c-.34 0-.62.29-.62.63 0 .35.28.62.62.62.35 0 .63-.27.63-.62 0-.34-.28-.63-.63-.63Zm-8.979 8.896a9.82 9.82 0 0 1-1.411.101c-5.445 0-9.875-4.43-9.875-9.875a9.81 9.81 0 0 1 2.75-6.824V10a.625.625 0 0 0 1.25 0V7A.625.625 0 0 0 9 6.375H6a.625.625 0 0 0 0 1.25h1.642A11.055 11.055 0 0 0 4.375 15.5c0 6.135 4.99 11.125 11.125 11.125.533 0 1.067-.038 1.589-.112a.626.626 0 0 0-.178-1.239Z"/>
  <path class="uuid-7158556a-1f4b-48cd-abe6-720b8134f99c" d="M11 14.625a.625.625 0 0 1-.625-.625v-3a.625.625 0 0 1 1.25 0v3c0 .345-.28.625-.625.625Zm9 0a.625.625 0 0 1-.625-.625v-3a.625.625 0 0 1 1.25 0v3c0 .345-.28.625-.625.625Zm-4 6a.625.625 0 0 1-.625-.625v-3a.625.625 0 0 1 1.25 0v3c0 .345-.28.625-.625.625Zm4 0a.625.625 0 0 1-.625-.625v-3a.625.625 0 0 1 1.25 0v3c0 .345-.28.625-.625.625Zm-4.5-6c-1.172 0-2.125-.953-2.125-2.125s.953-2.125 2.125-2.125 2.125.953 2.125 2.125-.953 2.125-2.125 2.125Zm0-3a.876.876 0 0 0 0 1.75.876.876 0 0 0 0-1.75Zm-4 9c-1.172 0-2.125-.953-2.125-2.125s.953-2.125 2.125-2.125 2.125.953 2.125 2.125-.953 2.125-2.125 2.125Zm0-3a.876.876 0 0 0 0 1.75.876.876 0 0 0 0-1.75Z"/>
</svg>
