<svg id="uuid-067089ed-d362-4580-93ca-e5c7d48be598" xmlns="http://www.w3.org/2000/svg" viewBox="0 0 36 36">
  <defs>
    <style>
      .uuid-11076c2d-41ed-4b3c-ba10-91cd5fe1b234{stroke-width:0}
    </style>
  </defs>
  <g id="uuid-3178dac9-4e00-4c6c-9b02-7abf33de202b">
    <path class="uuid-11076c2d-41ed-4b3c-ba10-91cd5fe1b234" d="M18 3.375C9.935 3.375 3.375 9.935 3.375 18S9.935 32.625 18 32.625 32.625 26.065 32.625 18 26.065 3.375 18 3.375Zm0 28c-7.375 0-13.375-6-13.375-13.375S10.625 4.625 18 4.625s13.375 6 13.375 13.375-6 13.375-13.375 13.375Z"/>
    <path class="uuid-11076c2d-41ed-4b3c-ba10-91cd5fe1b234" d="M18 13.375c-2.55 0-4.625 2.075-4.625 4.625S15.45 22.625 18 22.625 22.625 20.55 22.625 18 20.55 13.375 18 13.375Zm0 8c-1.861 0-3.375-1.514-3.375-3.375s1.514-3.375 3.375-3.375 3.375 1.514 3.375 3.375-1.514 3.375-3.375 3.375Zm0-14a.625.625 0 0 0 0 1.25c5.169 0 9.375 4.206 9.375 9.375a.625.625 0 0 0 1.25 0c0-5.858-4.767-10.625-10.625-10.625Z"/>
  </g>
</svg>
