<svg id="uuid-2e837b80-c8e9-466c-9164-a67eeaff89f6" xmlns="http://www.w3.org/2000/svg" viewBox="0 0 36 36">
  <defs>
    <style>
      .uuid-9b3d2508-97c0-4407-8a78-4b9dea8faa3f{stroke-width:0}
    </style>
  </defs>
  <g id="uuid-18f48754-a3cd-47ca-af27-de66e636b0a4">
    <path class="uuid-9b3d2508-97c0-4407-8a78-4b9dea8faa3f" d="M11.44 11.56a.631.631 0 0 0-.68-.14.66.66 0 0 0-.2.14.66.66 0 0 0-.14.2c-.03.08-.05.16-.05.24 0 .08.02.16.05.24s.08.15.14.2c.06.06.13.11.2.14.08.03.16.05.24.05.16 0 .32-.07.44-.19.06-.05.11-.12.14-.2.03-.08.05-.16.05-.24 0-.08-.02-.16-.05-.24a.656.656 0 0 0-.14-.2ZM31 25.375h-2.774A2.6 2.6 0 0 0 28.625 24v-.459c1.145-.282 2-1.31 2-2.541s-.855-2.26-2-2.542V18a.625.625 0 0 0-.625-.625h-8a.625.625 0 0 0-.625.625v6c0 .506.15.974.4 1.375H17a.625.625 0 0 0 0 1.25h.438c.309 2.253 2.226 4 4.562 4h4c2.336 0 4.253-1.747 4.562-4H31a.625.625 0 0 0 0-1.25ZM29.375 21c0 .532-.307.99-.75 1.218v-2.436c.443.229.75.686.75 1.218Zm-8.75 3v-5.375h6.75V24c0 .758-.617 1.375-1.375 1.375h-4A1.377 1.377 0 0 1 20.625 24ZM26 29.375h-4a3.377 3.377 0 0 1-3.312-2.75h10.624A3.377 3.377 0 0 1 26 29.375Zm-3.161-14.141a.624.624 0 1 0 1.158-.468A8.59 8.59 0 0 0 16 9.375c-1.118 0-2.206.21-3.234.627a.625.625 0 1 0 .468 1.16A7.332 7.332 0 0 1 16 10.624a7.347 7.347 0 0 1 6.839 4.61ZM9.383 13.459a.625.625 0 0 0-.854.228A8.626 8.626 0 0 0 7.375 18a8.62 8.62 0 0 0 6.469 8.354.626.626 0 0 0 .313-1.21A7.37 7.37 0 0 1 8.625 18c0-1.296.34-2.571.986-3.687a.625.625 0 0 0-.228-.854Z"/>
    <path class="uuid-9b3d2508-97c0-4407-8a78-4b9dea8faa3f" d="M15.052 29.336C9.205 28.854 4.625 23.874 4.625 18 4.625 11.728 9.728 6.625 16 6.625c5.194 0 9.725 3.508 11.017 8.53a.625.625 0 0 0 1.21-.312A12.618 12.618 0 0 0 16 5.376C9.038 5.375 3.375 11.04 3.375 18c0 6.52 5.084 12.046 11.573 12.582a.626.626 0 0 0 .103-1.246Z"/>
  </g>
</svg>
