<svg id="uuid-b960df1f-563d-4526-8bb4-5411a52dcb8d" xmlns="http://www.w3.org/2000/svg" viewBox="0 0 36 36">
  <defs>
    <style>
      .uuid-1e32e28e-1d40-4796-a137-7e4b464a8109{stroke-width:0}
    </style>
  </defs>
  <path class="uuid-1e32e28e-1d40-4796-a137-7e4b464a8109" d="M31 4.38H5c-.35 0-.62.28-.62.62v26c0 .35.28.62.62.62h26c.35 0 .62-.28.62-.62V5c0-.35-.28-.62-.62-.62ZM5.62 5.62h24.76v4.75H5.62V5.62Zm24.76 24.76H5.62V11.62h24.76v18.76Z"/>
  <path class="uuid-1e32e28e-1d40-4796-a137-7e4b464a8109" d="M22 7.38h-8c-.35 0-.62.28-.62.62s.28.62.62.62h8c.35 0 .62-.28.62-.62s-.28-.62-.62-.62Zm5.44.18a.558.558 0 0 0-.2-.14.633.633 0 0 0-.68.14c-.06.06-.1.13-.14.2-.03.08-.04.16-.04.24s0 .16.04.24.08.14.14.2c.11.12.28.19.44.19.08 0 .16-.02.24-.05s.14-.08.2-.14.11-.12.14-.2c.03-.08.05-.16.05-.24s-.02-.16-.05-.24a.66.66 0 0 0-.14-.2Zm-2 0a.633.633 0 0 0-.68-.14.66.66 0 0 0-.2.14.66.66 0 0 0-.14.2c-.03.08-.04.16-.04.24s0 .16.04.24c.03.08.08.14.14.2.06.06.13.11.2.14a.597.597 0 0 0 .68-.14c.06-.06.11-.12.14-.2.03-.08.05-.16.05-.24s-.02-.16-.05-.24a.66.66 0 0 0-.14-.2Zm-14.88 0c-.12.12-.19.28-.19.44 0 .17.07.33.19.44.11.12.28.19.44.19.17 0 .33-.07.44-.19.12-.11.19-.27.19-.44 0-.16-.07-.32-.19-.44-.23-.24-.65-.23-.88 0Zm-1.8-.14c-.08.03-.14.08-.2.14-.12.11-.19.28-.19.44 0 .08.02.16.05.24s.08.14.14.2c.06.06.12.11.2.14a.597.597 0 0 0 .68-.14c.06-.06.11-.12.14-.2.03-.08.05-.16.05-.24 0-.16-.07-.33-.19-.44a.633.633 0 0 0-.68-.14ZM20 27.62h2c3.1 0 5.62-2.52 5.62-5.62v-2c0-3.1-2.52-5.62-5.62-5.62h-2c-.35 0-.62.28-.62.62v12c0 .35.28.62.62.62Zm.62-12H22c2.41 0 4.38 1.96 4.38 4.38v2c0 2.41-1.96 4.38-4.38 4.38h-1.38V15.62Zm-8.24 6.94v3.81H11c-.35 0-.62.28-.62.62s.28.62.62.62h4c.35 0 .62-.28.62-.62s-.28-.62-.62-.62h-1.38v-3.81c1.7-.3 3-1.78 3-3.56v-4c0-.35-.28-.62-.62-.62h-6c-.35 0-.62.28-.62.62v4c0 1.78 1.3 3.26 3 3.56Zm-1.75-6.94h4.75V19c0 1.31-1.07 2.38-2.38 2.38s-2.38-1.07-2.38-2.38v-3.38h.01Z"/>
</svg>
