<svg id="uuid-3c0ae1b2-c76c-4de8-915c-39bdbcda6959" xmlns="http://www.w3.org/2000/svg" viewBox="0 0 36 36">
  <defs>
    <style>
      .uuid-1e8be7cc-d701-42b0-908d-49d05f4dcb75{stroke-width:0}
    </style>
  </defs>
  <g id="uuid-ef859c3f-8c16-4c9b-a20d-680e1b49dbbe">
    <path class="uuid-1e8be7cc-d701-42b0-908d-49d05f4dcb75" d="M10.625 18a6.6 6.6 0 0 0-5.521-6.533.618.618 0 0 0-.72.512.624.624 0 0 0 .513.72c2.594.436 4.478 2.664 4.478 5.301s-1.884 4.865-4.479 5.3a.624.624 0 1 0 .207 1.233A6.6 6.6 0 0 0 10.625 18Z"/>
    <path class="uuid-1e8be7cc-d701-42b0-908d-49d05f4dcb75" d="M14.625 18c0-4.226-2.502-8.049-6.375-9.74a.62.62 0 0 0-.822.322.623.623 0 0 0 .322.822 9.38 9.38 0 0 1 0 17.192.624.624 0 1 0 .5 1.144A10.627 10.627 0 0 0 14.625 18Zm16.479 5.3c-2.595-.435-4.479-2.664-4.479-5.3s1.884-4.865 4.479-5.3a.624.624 0 1 0-.207-1.233A6.6 6.6 0 0 0 25.374 18a6.603 6.603 0 0 0 5.521 6.533.624.624 0 1 0 .207-1.232Z"/>
    <path class="uuid-1e8be7cc-d701-42b0-908d-49d05f4dcb75" d="M28.25 26.596a9.38 9.38 0 0 1 0-17.192.624.624 0 0 0 .322-.822.621.621 0 0 0-.822-.322 10.627 10.627 0 0 0 0 19.48.624.624 0 1 0 .5-1.145Z"/>
    <path class="uuid-1e8be7cc-d701-42b0-908d-49d05f4dcb75" d="M25.313 29.586C21.188 27.199 18.625 22.76 18.625 18s2.563-9.2 6.688-11.586a.625.625 0 0 0-.625-1.082A14.684 14.684 0 0 0 18 13.812a14.683 14.683 0 0 0-6.688-8.48.625.625 0 1 0-.624 1.082C14.811 8.801 17.375 13.24 17.375 18s-2.563 9.2-6.688 11.586a.625.625 0 0 0 .626 1.082A14.684 14.684 0 0 0 18 22.188a14.683 14.683 0 0 0 6.688 8.48.623.623 0 0 0 .853-.229.625.625 0 0 0-.229-.853Z"/>
  </g>
</svg>
