<svg id="uuid-fc397598-ac05-4555-b3e4-77095a823baf" xmlns="http://www.w3.org/2000/svg" viewBox="0 0 36 36">
  <defs>
    <style>
      .uuid-0dd0b394-196c-457e-a0bb-35c2c00af5ac{stroke-width:0}
    </style>
  </defs>
  <g id="uuid-68aef4c4-5cf6-43ac-adf4-ff4bd286693e">
    <path class="uuid-0dd0b394-196c-457e-a0bb-35c2c00af5ac" d="M32 21.38c-.35 0-.62.28-.62.62v3.97c0 1.2-.98 2.18-2.17 2.18s-2.18-.98-2.18-2.18c0-1.89-1.54-3.42-3.42-3.42s-3.43 1.54-3.43 3.42c0 1.2-.98 2.18-2.17 2.18s-2.17-.98-2.17-2.18a3.425 3.425 0 0 0-6.85 0c0 1.2-.98 2.18-2.18 2.18s-2.17-.98-2.17-2.18V18c0-7.38 6-13.38 13.38-13.38S31.4 10.62 31.4 18c0 .34.28.62.62.62s.62-.28.62-.62c0-8.06-6.56-14.62-14.62-14.62S3.38 9.94 3.38 18v7.97c0 1.89 1.54 3.43 3.42 3.43.57 0 1.1-.15 1.58-.4 2.67 2.34 6.06 3.63 9.63 3.63s6.96-1.29 9.63-3.63c.47.25 1 .4 1.58.4 1.89 0 3.42-1.54 3.42-3.43V22c0-.34-.28-.62-.62-.62H32ZM9.37 28.21c.52-.6.85-1.38.85-2.23 0-1.2.98-2.17 2.17-2.17s2.18.98 2.18 2.17c0 1.89 1.54 3.43 3.42 3.43s3.42-1.54 3.42-3.43a2.174 2.174 0 0 1 4.35 0c0 .86.33 1.63.85 2.23-2.41 2.04-5.44 3.17-8.63 3.17s-6.21-1.13-8.63-3.17h.02Z"/>
    <path class="uuid-0dd0b394-196c-457e-a0bb-35c2c00af5ac" d="M13.38 18c0 2.55 2.07 4.62 4.62 4.62s4.62-2.08 4.62-4.62-2.07-4.62-4.62-4.62-4.62 2.08-4.62 4.62ZM18 14.62c1.86 0 3.38 1.51 3.38 3.38s-1.51 3.38-3.38 3.38-3.38-1.51-3.38-3.38 1.51-3.38 3.38-3.38ZM7.68 18v2.15c0 .34.28.62.62.62s.62-.28.62-.62V18c0-.34-.28-.62-.62-.62s-.62.28-.62.62Zm3.1-6.49-1.52 1.52c-.24.24-.24.64 0 .88.12.12.28.18.44.18s.32-.06.44-.18l1.52-1.52c.24-.24.24-.64 0-.88s-.64-.24-.88 0Zm16.6 3.89-1.52 1.52c-.24.24-.24.64 0 .88.12.12.28.18.44.18s.32-.06.44-.18l1.52-1.52c.24-.24.24-.64 0-.88s-.64-.24-.88 0Zm-10.35-4.87s.09 0 .13-.01c.34-.07.55-.4.48-.74l-.45-2.11a.613.613 0 0 0-.74-.48.62.62 0 0 0-.48.74l.45 2.11c.06.29.32.5.61.5v-.01Zm5.87 1.6s.09.01.13.01c.29 0 .55-.2.61-.5l.45-2.11a.62.62 0 0 0-.48-.74.613.613 0 0 0-.74.48l-.45 2.11c-.07.34.14.67.48.74v.01Z"/>
  </g>
</svg>
