<svg id="uuid-f2fb3c05-99fd-409b-9a37-fce6cbb87eb7" xmlns="http://www.w3.org/2000/svg" viewBox="0 0 36 36">
  <defs>
    <style>
      .uuid-76b37f82-7806-44f4-a65d-452f05cbabaf{stroke-width:0}
    </style>
  </defs>
  <g id="uuid-df244209-ce4c-4046-a91f-4479adac3aaa">
    <path class="uuid-76b37f82-7806-44f4-a65d-452f05cbabaf" d="M28.024 15.929a.625.625 0 0 0-.625.625v1.071h-3.774v-3.334a.625.625 0 0 0-.625-.625h-2.884c-.045-1.132-.973-2.041-2.116-2.041s-2.071.909-2.116 2.041H13a.625.625 0 0 0-.625.625v3.334H8.6v-1.411a.625.625 0 0 0-1.25 0v4a.625.625 0 0 0 1.25 0v-1.339h3.775v.875c0 .345.28.625.625.625h.935l-1.282.855a.626.626 0 0 0-.278.52v2a.625.625 0 0 0 1.25 0v-1.665l2.565-1.71h3.62l2.565 1.71v1.665a.625.625 0 0 0 1.25 0v-2a.626.626 0 0 0-.278-.52l-1.282-.855H23c.345 0 .625-.28.625-.625v-.875H27.4v1.679a.625.625 0 0 0 1.25 0v-4a.625.625 0 0 0-.625-.625ZM18 12.875c.453 0 .814.35.858.791h-1.716a.868.868 0 0 1 .858-.791Zm4.375 6.25h-8.75v-4.209h8.75v4.209Z"/>
    <path class="uuid-76b37f82-7806-44f4-a65d-452f05cbabaf" d="M31 13.625h-6a.625.625 0 0 0 0 1.25h6a.625.625 0 0 0 0-1.25Zm-20 1.25a.625.625 0 0 0 .007-1.25l-6-.067c-.366.016-.628.273-.632.618s.273.628.618.632l6 .067H11Z"/>
  </g>
</svg>
