<svg id="uuid-71a7c1de-447d-430b-b278-09d94b222605" xmlns="http://www.w3.org/2000/svg" viewBox="0 0 36 36">
  <defs>
    <style>
      .uuid-6a5e18f2-bd7f-42f2-8978-86c716060c87{stroke-width:0}
    </style>
  </defs>
  <path class="uuid-6a5e18f2-bd7f-42f2-8978-86c716060c87" d="M9 14.62c.34 0 .62-.28.62-.62 0-4.62 3.76-8.38 8.38-8.38s8.38 3.76 8.38 8.38c0 3.5-1.89 5.1-3.72 6.65-1.61 1.36-3.28 2.77-3.28 5.35 0 2.41-1.96 4.38-4.38 4.38s-4.38-1.96-4.38-4.38c0-.35-.28-.62-.62-.62s-.62.28-.62.62c0 3.1 2.52 5.62 5.62 5.62s5.62-2.52 5.62-5.62c0-2 1.32-3.11 2.84-4.4 1.95-1.65 4.16-3.52 4.16-7.6 0-5.31-4.32-9.62-9.62-9.62S8.38 8.7 8.38 14c0 .35.28.62.62.62Z"/>
  <path class="uuid-6a5e18f2-bd7f-42f2-8978-86c716060c87" d="M15 22.38c-1.45 0-2.62 1.18-2.62 2.62 0 .35.28.62.62.62s.62-.28.62-.62c0-.76.62-1.38 1.38-1.38 1.14 0 2.21-.46 2.99-1.29a4.09 4.09 0 0 0 1.13-3.06c-.12-2.19-2.01-3.9-4.33-3.9-.64 0-1.16-.52-1.16-1.16 0-2.21 1.47-4.11 3.49-4.5 1.32-.26 2.65.08 3.67.91 1.01.83 1.6 2.07 1.6 3.38 0 .35.28.62.62.62s.62-.28.62-.62c0-1.69-.75-3.27-2.05-4.34a5.663 5.663 0 0 0-4.7-1.17c-2.61.51-4.5 2.92-4.5 5.73 0 1.33 1.08 2.41 2.43 2.41 1.61 0 2.99 1.22 3.07 2.72.04.8-.24 1.56-.79 2.13-.55.58-1.29.9-2.09.9Z"/>
</svg>
