<svg id="uuid-31f9862c-c231-4f70-80be-62a9a83c558c" xmlns="http://www.w3.org/2000/svg" viewBox="0 0 36 36">
  <defs>
    <style>
      .uuid-792ece72-c1bf-4de0-8053-b66f2a3cc03f{stroke-width:0}
    </style>
  </defs>
  <g id="uuid-e0162048-9d94-4d23-9393-7c01bb6ec291">
    <path class="uuid-792ece72-c1bf-4de0-8053-b66f2a3cc03f" d="M28 4.375H8A.625.625 0 0 0 7.375 5v26c0 .345.28.625.625.625h20c.345 0 .625-.28.625-.625V5A.625.625 0 0 0 28 4.375Zm-.625 26H8.625V5.625h18.75v24.75Z"/>
    <path class="uuid-792ece72-c1bf-4de0-8053-b66f2a3cc03f" d="M17.56 8.44c.06.06.13.11.2.14.08.03.16.05.24.05s.16-.02.24-.05c.08-.03.15-.08.2-.14.12-.12.19-.28.19-.44a.63.63 0 0 0-.19-.44.6.6 0 0 0-.2-.14.663.663 0 0 0-.48 0 .91.91 0 0 0-.2.14c-.12.11-.18.28-.18.44 0 .08.01.16.04.24.04.08.08.14.14.2ZM20 27.375h-4a.625.625 0 0 0 0 1.25h4a.625.625 0 0 0 0-1.25Zm-8-13.75h6a.625.625 0 0 0 0-1.25h-6a.625.625 0 0 0 0 1.25Zm0 3h12a.625.625 0 0 0 0-1.25H12a.625.625 0 0 0 0 1.25Zm0 3h12a.625.625 0 0 0 0-1.25H12a.625.625 0 0 0 0 1.25Zm0 3h12a.625.625 0 0 0 0-1.25H12a.625.625 0 0 0 0 1.25Z"/>
  </g>
</svg>
