<svg xmlns="http://www.w3.org/2000/svg" viewBox="0 0 36 36">
  <path d="M24.336 16.518a5.489 5.489 0 0 0-5.48-5.286 5.482 5.482 0 0 0-4.818 2.87c-2.554-.202-4.663 1.828-4.663 4.326a4.345 4.345 0 0 0 4.34 4.34h10a.627.627 0 0 0 .22-.04 3.201 3.201 0 0 0 2.69-3.156 3.18 3.18 0 0 0-2.29-3.053Zm-.907 5h-9.715c-1.703 0-3.089-1.386-3.089-3.09s1.386-3.089 3.09-3.089c.195 0 .386.02.572.056a.624.624 0 0 0 .689-.365 4.232 4.232 0 0 1 3.881-2.548 4.237 4.237 0 0 1 4.232 4.232c0 .066-.005.13-.014.275a.625.625 0 0 0 .558.66 1.936 1.936 0 0 1 1.742 1.923 1.948 1.948 0 0 1-1.946 1.946Zm-18.799.705a.631.631 0 0 0 .22 1.22.632.632 0 0 0 .59-.84.63.63 0 0 0-.81-.38Zm2.62-12.57c.18 0 .36-.08.48-.22.22-.27.19-.66-.07-.89a.63.63 0 0 0-.88.08h-.01a.63.63 0 0 0 .48 1.03Zm-2.62 8.37c0-.34-.28-.62-.63-.62s-.63.28-.62.63c0 .34.27.62.62.62s.63-.28.63-.63Zm20.02-11.63c.1.06.2.08.31.08a.622.622 0 0 0 .31-1.16.613.613 0 0 0-.85.23c-.17.3-.07.68.23.85Zm-4.37-1.57c.04 0 .07.01.11.01.3 0 .56-.22.62-.52a.648.648 0 0 0-.52-.73.636.636 0 0 0-.72.51c-.06.35.17.67.51.73Zm-4.75.02c.03 0 .07 0 .11-.01.34-.06.57-.38.5-.72a.616.616 0 0 0-.72-.51.623.623 0 0 0 .11 1.24Zm-4.56 1.67c.11 0 .21-.02.31-.08.3-.17.4-.56.23-.85a.627.627 0 0 0-.86-.23c-.3.17-.4.55-.22.85.11.2.32.31.54.31Zm-6.35 7.31c.07.03.14.04.21.04.25 0 .5-.16.59-.41a.623.623 0 0 0-.38-.8.626.626 0 0 0-.8.37c-.11.33.05.69.38.8Zm2.27 12.71c-.27.23-.3.62-.08.88v.01a.623.623 0 0 0 .88.07c.26-.22.3-.62.08-.88a.631.631 0 0 0-.88-.08Zm24.25-12.75a.627.627 0 0 0 .59-.84.626.626 0 0 0-.8-.37c-.33.12-.49.48-.37.8.09.26.33.41.58.41Zm.23 8.42a.626.626 0 0 0-.8.37c-.11.33.05.69.38.8.07.03.14.04.21.04.26 0 .5-.16.59-.41a.62.62 0 0 0-.38-.8Zm1.26-4.26a.625.625 0 0 0-.63-.62.61.61 0 0 0-.62.62v.06a.625.625 0 0 0 1.25 0c0-.01 0-.02-.01-.03.01-.01.01-.02.01-.03Zm-4.38 8.65a.62.62 0 0 0 .08.88c.11.1.26.15.4.15.18 0 .35-.08.48-.22a.62.62 0 0 0-.08-.88.62.62 0 0 0-.88.07Zm.44-17c.15 0 .29-.05.41-.15a.63.63 0 0 0 .07-.88.621.621 0 1 0-.95.8c.12.15.3.23.47.23Zm-8.35 21.58c-.35.06-.57.38-.51.72.05.31.32.52.61.52.04 0 .08 0 .11-.01a.624.624 0 1 0-.21-1.23Zm-9.01-1.58a.636.636 0 0 0-.86.23c-.17.3-.07.68.23.85.1.06.21.09.31.09.22 0 .43-.11.55-.31.17-.3.07-.69-.23-.86Zm4.36 1.58a.623.623 0 0 0-.72.51c-.06.34.17.67.51.73.03 0 .07.01.1.01.3 0 .57-.22.62-.52a.633.633 0 0 0-.51-.73Zm9.01-1.59c-.3.17-.41.55-.23.85.11.2.32.32.54.32.11 0 .21-.03.31-.09a.624.624 0 0 0-.62-1.08Z"/>
</svg>
