<svg xmlns="http://www.w3.org/2000/svg" viewBox="0 0 36 36">
  <path d="M25.5 4.375a6.132 6.132 0 0 0-6.125 6.125v15c0 2.688-2.187 4.875-4.875 4.875S9.625 28.188 9.625 25.5v-3.938c2.252-.309 4-2.226 4-4.562v-4a.626.626 0 0 0-.625-.625h-1.375V9a.626.626 0 0 0-1.25 0v3.375h-2.75V9a.626.626 0 0 0-1.25 0v3.375H5a.626.626 0 0 0-.625.625v4c0 2.336 1.748 4.253 4 4.562V25.5c0 3.377 2.748 6.125 6.125 6.125s6.125-2.748 6.125-6.125v-15c0-2.688 2.187-4.875 4.875-4.875s4.875 2.187 4.875 4.875V27a.626.626 0 0 0 1.25 0V10.5A6.132 6.132 0 0 0 25.5 4.375ZM5.625 17v-3.375h6.75V17c0 1.861-1.514 3.375-3.375 3.375S5.625 18.861 5.625 17Z"/>
</svg>
