<svg xmlns="http://www.w3.org/2000/svg" viewBox="0 0 36 36">
  <path d="M9 31.62h18c.34 0 .62-.28.62-.62V7c0-.34-.28-.62-.62-.62H9c-.34 0-.62.28-.62.62v24c0 .34.28.62.62.62Zm9.62-24h7.75v22.76h-7.75V7.62Zm-9 0h7.75v22.76H9.62V7.62Zm8.94-3.18 1 1c.12.12.28.18.44.18s.32-.06.44-.18l1-1c.24-.24.24-.64 0-.88a.628.628 0 0 0-.88 0l-.56.56-.56-.56c-.24-.24-.64-.24-.88 0s-.24.64 0 .88Zm-3-.88-1 1c-.24.24-.24.64 0 .88s.64.24.88 0l.56-.56.56.56c.12.12.28.18.44.18s.32-.06.44-.18c.24-.24.24-.64 0-.88l-1-1a.628.628 0 0 0-.88 0Z"/>
</svg>
