<svg xmlns="http://www.w3.org/2000/svg" viewBox="0 0 36 36">
  <path d="M18 3.375C9.935 3.375 3.375 9.935 3.375 18S9.935 32.625 18 32.625c3.436 0 6.775-1.215 9.402-3.422a.626.626 0 0 0-.804-.957A13.384 13.384 0 0 1 18 31.375c-7.375 0-13.375-6-13.375-13.375S10.625 4.625 18 4.625s13.375 6 13.375 13.375a13.37 13.37 0 0 1-1.622 6.375H27A2.378 2.378 0 0 1 24.625 22V12a.625.625 0 0 0-1.25 0v1.977a7.12 7.12 0 0 0-5.875-3.102c-3.929 0-7.125 3.196-7.125 7.125s3.196 7.125 7.125 7.125a7.121 7.121 0 0 0 5.877-3.105A3.628 3.628 0 0 0 27 25.625h3c.014 0 .025-.007.038-.008a.625.625 0 0 0 .63-.304A14.619 14.619 0 0 0 32.625 18c0-8.065-6.56-14.625-14.625-14.625Zm-.5 20.5c-3.24 0-5.875-2.636-5.875-5.875s2.636-5.875 5.875-5.875 5.875 2.636 5.875 5.875-2.636 5.875-5.875 5.875Z"/>
</svg>
