<svg id="uuid-76b16e90-6823-4a64-9d8f-3fa9b6521b99" xmlns="http://www.w3.org/2000/svg" viewBox="0 0 36 36">
  <defs>
    <style>
      .uuid-8ba8a6be-fb7c-4987-b969-9e8297a88a5a{stroke-width:0}
    </style>
  </defs>
  <g id="uuid-88d5baac-16f7-425f-83cb-52d77e4cd0ab">
    <path class="uuid-8ba8a6be-fb7c-4987-b969-9e8297a88a5a" d="M18 7.13c-3.37-3.26-8.77-3.22-12.1.11-3.36 3.36-3.36 8.84 0 12.21l11.66 11.66c.12.12.28.18.44.18s.32-.06.44-.18L30.1 19.45c3.36-3.37 3.36-8.84 0-12.21-3.33-3.33-8.72-3.36-12.1-.11Zm11.21 11.43L18 29.77 6.79 18.56a7.388 7.388 0 0 1 0-10.44c1.44-1.44 3.33-2.16 5.22-2.16s3.78.72 5.22 2.16c.11.11.21.21.31.33.24.27.7.27.94 0l.3-.33a7.388 7.388 0 0 1 10.44 0 7.388 7.388 0 0 1 0 10.44h-.01Z"/>
    <path class="uuid-8ba8a6be-fb7c-4987-b969-9e8297a88a5a" d="M20.62 16.41h-1.49v-4.38a.626.626 0 0 0-1.2-.25l-3.12 7c-.09.19-.07.42.05.59.12.18.31.28.52.28h1.49v4.38c0 .29.21.55.5.61.04 0 .09.01.13.01.24 0 .47-.14.57-.37l3.12-7c.09-.19.07-.42-.05-.59a.616.616 0 0 0-.52-.28Zm-2.49 4.68v-2.06c0-.34-.28-.62-.62-.62h-1.15l1.53-3.43v2.06c0 .34.28.62.62.62h1.15l-1.53 3.43Z"/>
  </g>
</svg>
