<svg xmlns="http://www.w3.org/2000/svg" viewBox="0 0 36 36">
  <path d="M31.619 27.03c0-.01.006-.02.006-.03V9c0-.01-.005-.019-.006-.03a.622.622 0 0 0-.042-.209.617.617 0 0 0-.106-.16c-.011-.013-.016-.03-.029-.043-.01-.01-.023-.013-.034-.022a.622.622 0 0 0-.169-.113.626.626 0 0 0-.239-.048H5a.626.626 0 0 0-.24.048.62.62 0 0 0-.168.113c-.011.009-.024.012-.034.022-.013.013-.018.03-.03.044a.619.619 0 0 0-.105.16.624.624 0 0 0-.042.209c0 .01-.006.019-.006.029v18c0 .01.005.02.006.03a.624.624 0 0 0 .042.209.62.62 0 0 0 .106.16c.012.013.016.03.029.043.01.01.023.013.034.022a.61.61 0 0 0 .169.113.626.626 0 0 0 .239.048h26a.626.626 0 0 0 .24-.048.62.62 0 0 0 .169-.113c.01-.009.023-.012.033-.022.013-.013.018-.03.029-.043a.62.62 0 0 0 .106-.16.624.624 0 0 0 .042-.21ZM5.625 10.51l7.49 7.49-7.49 7.49V10.51Zm15.934 7.048h-.001l-.001.001L18 21.116l-3.557-3.557-.001-.001-7.933-7.933h22.982l-7.932 7.933ZM14 18.884l3.558 3.558a.624.624 0 0 0 .884 0L22 18.884l7.49 7.491H6.51l7.49-7.49ZM22.884 18l7.491-7.49v14.98L22.885 18Z"/>
</svg>
