<svg id="uuid-32ec7ba1-d115-4153-b7de-45e152fc4112" xmlns="http://www.w3.org/2000/svg" viewBox="0 0 36 36">
  <defs>
    <style>
      .uuid-81129192-f0be-45ab-a9f6-e33f2df5b236{stroke-width:0}
    </style>
  </defs>
  <g id="uuid-3639277b-ed70-458f-9b48-a1fbda4ae877">
    <path class="uuid-81129192-f0be-45ab-a9f6-e33f2df5b236" d="M11.5 31.62h13c1.72 0 3.12-1.4 3.12-3.12 0-.41-.08-.81-.23-1.2L21.62 13V7.62H23c.35 0 .62-.28.62-.62s-.28-.62-.62-.62h-2c-.35 0-.62.28-.62.62v6.12s.02.08.02.12 0 .07.02.11v.01l2.83 7.01h-10.5l2.83-7.01s.01-.08.02-.12c0-.04.02-.08.02-.12V7c0-.34-.28-.62-.62-.62h-2c-.35 0-.62.28-.62.62s.28.62.62.62h1.38v5.37l-5.77 14.3c-.15.38-.23.79-.23 1.2 0 1.72 1.4 3.12 3.12 3.12v.01Zm-1.73-3.86 2.48-6.14h11.51l2.48 6.14c.09.23.14.48.14.73 0 1.03-.84 1.88-1.88 1.88h-13c-1.03 0-1.88-.84-1.88-1.88 0-.25.05-.5.14-.73h.01Z"/>
    <path class="uuid-81129192-f0be-45ab-a9f6-e33f2df5b236" d="M16.76 18.58c.08.03.16.05.24.05s.16-.02.24-.05c.07-.03.15-.08.2-.14.12-.12.19-.28.19-.44s-.07-.33-.19-.44a.647.647 0 0 0-.88 0c-.06.05-.1.13-.14.2-.03.08-.04.16-.04.24 0 .16.06.32.18.44.05.06.13.11.2.14ZM19 12.63c.08 0 .16-.02.24-.05s.14-.08.2-.14c.12-.11.19-.28.19-.44 0-.08-.02-.16-.05-.24a.718.718 0 0 0-.34-.34.633.633 0 0 0-.68.14c-.06.06-.1.13-.14.2-.03.08-.04.16-.04.24a.631.631 0 0 0 .62.63Zm-2.24-7.05c.08.03.16.05.24.05s.16-.02.24-.05.14-.08.2-.14c.12-.11.18-.28.18-.44s-.06-.32-.18-.44a.558.558 0 0 0-.2-.14.633.633 0 0 0-.68.14c-.12.12-.18.28-.18.44s.06.33.18.44c.05.06.13.11.2.14Z"/>
  </g>
</svg>
