<svg id="uuid-845ffee2-38c1-4d11-9ac3-c3125d5711fa" xmlns="http://www.w3.org/2000/svg" viewBox="0 0 36 36">
  <defs>
    <style>
      .uuid-23ed5563-65e8-43e8-90c9-ba3a6c7d9a6b{stroke-width:0}
    </style>
  </defs>
  <g id="uuid-9c4a22fb-7fdc-4fba-9c53-ff254c9cb654">
    <path class="uuid-23ed5563-65e8-43e8-90c9-ba3a6c7d9a6b" d="M28.625 17.522V17.5c0-5.031-4.093-9.125-9.125-9.125a9.125 9.125 0 0 0-8.164 5.052c-4.34-.526-7.96 2.871-7.961 7.073a7.133 7.133 0 0 0 7.125 7.125H28c.092 0 .18-.02.26-.056a5.133 5.133 0 0 0 4.365-5.069 5.098 5.098 0 0 0-4-4.978ZM27.5 26.375h-17c-3.24 0-5.875-2.636-5.875-5.875s2.636-5.875 5.875-5.875c.351 0 .717.035 1.089.105a.625.625 0 0 0 .688-.365 7.875 7.875 0 0 1 7.223-4.74c4.342 0 7.875 3.533 7.875 7.875 0 .13-.01.259-.019.386l-.007.122a.625.625 0 0 0 .557.661 3.856 3.856 0 0 1 3.47 3.831 3.88 3.88 0 0 1-3.876 3.875Z"/>
    <path class="uuid-23ed5563-65e8-43e8-90c9-ba3a6c7d9a6b" d="M18.74 16.389a.625.625 0 0 0-.741.481l-1.244 5.85a.625.625 0 1 0 1.223.26l1.243-5.85a.625.625 0 0 0-.481-.741Zm3.139.524a.625.625 0 1 0-.884.884l2.121 2.121-2.12 2.121a.625.625 0 1 0 .883.884l2.563-2.563a.625.625 0 0 0 0-.884l-2.563-2.563Zm-6.874 0a.625.625 0 0 0-.884 0l-2.563 2.563a.625.625 0 0 0 0 .884l2.563 2.563a.622.622 0 0 0 .884 0 .625.625 0 0 0 0-.884l-2.121-2.12 2.12-2.122a.625.625 0 0 0 0-.884Z"/>
  </g>
</svg>
