<svg xmlns="http://www.w3.org/2000/svg" viewBox="0 0 36 36">
  <path d="M32.625 18c0-2.356-1.777-4.284-4.057-4.568A3.62 3.62 0 0 0 25 10.375h-.25a8.426 8.426 0 0 1-3.143-.605 9.68 9.68 0 0 0-7.214 0 8.425 8.425 0 0 1-3.143.605H11a3.62 3.62 0 0 0-3.568 3.057c-2.28.284-4.057 2.213-4.057 4.568s1.777 4.284 4.057 4.568A3.62 3.62 0 0 0 11 25.625h14a3.62 3.62 0 0 0 3.568-3.057c2.28-.284 4.057-2.213 4.057-4.568Zm-28 0a3.376 3.376 0 0 1 2.75-3.312v6.624A3.376 3.376 0 0 1 4.625 18ZM25 24.375H11A2.378 2.378 0 0 1 8.625 22v-1.268l4.136.88a.625.625 0 0 0 .26-1.223l-4.396-.935v-2.988l4.396-.934a.625.625 0 1 0-.26-1.222l-4.136.878V14A2.378 2.378 0 0 1 11 11.625h.25a9.653 9.653 0 0 0 3.608-.695 8.427 8.427 0 0 1 6.285 0 9.653 9.653 0 0 0 3.607.695H25A2.378 2.378 0 0 1 27.375 14v1.212l-4.245-.902a.625.625 0 1 0-.26 1.223l4.505.956v2.942l-4.505.958a.624.624 0 1 0 .26 1.222l4.245-.903V22A2.378 2.378 0 0 1 25 24.375Zm3.625-3.063v-6.624c1.563.295 2.75 1.665 2.75 3.312s-1.187 3.017-2.75 3.312Z"/>
</svg>
