<svg id="uuid-783efc44-48a8-4b52-bc15-c5b33853a079" xmlns="http://www.w3.org/2000/svg" viewBox="0 0 36 36">
  <defs>
    <style>
      .uuid-df04eae4-22fe-4d6a-9842-9a01c1155765{stroke-width:0}
    </style>
  </defs>
  <g id="uuid-159d2ecf-6baa-4187-9e9c-af6f71ab3572">
    <path class="uuid-df04eae4-22fe-4d6a-9842-9a01c1155765" d="M16 17.375h-3a.625.625 0 0 0 0 1.25h2.375v5.669A6.413 6.413 0 0 1 11 30.344a6.413 6.413 0 0 1-4.375-6.05v-5.669H9a.625.625 0 0 0 0-1.25H6a.625.625 0 0 0-.625.625v6.294c0 3.346 2.24 6.35 5.446 7.305a.62.62 0 0 0 .358 0c3.206-.955 5.446-3.96 5.446-7.305V18a.625.625 0 0 0-.625-.625Z"/>
    <path class="uuid-df04eae4-22fe-4d6a-9842-9a01c1155765" d="M8 7.625h2.375V19a.625.625 0 0 0 1.25 0V7.625H14c.345 0 .625-.28.625-.625V5A.625.625 0 0 0 14 4.375H8A.625.625 0 0 0 7.375 5v2c0 .345.28.625.625.625Zm.625-2h4.75v.75h-4.75v-.75ZM30 4.375a.625.625 0 0 0-.625.625v8c0 2.412-1.962 4.375-4.375 4.375S20.625 15.412 20.625 13V5a.625.625 0 0 0-1.25 0v8a5.632 5.632 0 0 0 5 5.588v9.787H22a.625.625 0 0 0-.625.625v2c0 .345.28.625.625.625h6c.345 0 .625-.28.625-.625v-2a.625.625 0 0 0-.625-.625h-2.375v-9.787a5.632 5.632 0 0 0 5-5.588V5A.625.625 0 0 0 30 4.375Zm-2.625 26h-4.75v-.75h4.75v.75Z"/>
    <path class="uuid-df04eae4-22fe-4d6a-9842-9a01c1155765" d="M25 16.625c.345 0 .625-.28.625-.625V5a.625.625 0 0 0-1.25 0v11c0 .345.28.625.625.625Z"/>
  </g>
</svg>
