<svg id="uuid-43343c37-c439-4f3d-a3bd-9d048875addb" xmlns="http://www.w3.org/2000/svg" viewBox="0 0 36 36">
  <defs>
    <style>
      .uuid-f42f2504-9d86-4fbe-a02b-fa99860ade7d{stroke-width:0}
    </style>
  </defs>
  <g id="uuid-0db2d8a2-2872-44dc-a6f5-79f8735bbeda">
    <path class="uuid-f42f2504-9d86-4fbe-a02b-fa99860ade7d" d="M6 19.38c-.35 0-.62.28-.62.62v7c0 .35.28.62.62.62s.62-.28.62-.62v-7c0-.35-.28-.62-.62-.62Zm26 0c-.35 0-.62.28-.62.62v7c0 .35.28.62.62.62s.62-.28.62-.62v-7c0-.35-.28-.62-.62-.62Zm-9.38-4.17v-3.52c0-2.55-.99-4.94-2.79-6.74l-.39-.39a.628.628 0 0 0-.88 0l-.39.39a9.462 9.462 0 0 0-2.79 6.74v3.52l-7.77 6.3c-.15.12-.23.3-.23.49v4c0 .2.09.38.25.5s.36.16.55.1l6.2-1.77v.98l-1.9 2.84c-.17.25-.13.58.08.79l2 2c.19.19.48.24.72.12l2-1c.31-.15.43-.53.28-.84s-.53-.43-.84-.28l-1.6.8-1.32-1.32 1.72-2.57c.07-.1.1-.22.1-.35v-2c0-.2-.09-.38-.25-.5s-.36-.15-.55-.1l-6.2 1.77V22.3l7.77-6.3c.15-.12.23-.3.23-.49v-3.82c0-2.19.84-4.25 2.38-5.81a8.252 8.252 0 0 1 2.38 5.81v3.82c0 .19.08.37.23.49l7.77 6.3v2.87l-6.2-1.77c-.19-.05-.39-.02-.55.1s-.25.3-.25.5v2c0 .12.04.24.1.35l1.72 2.57-1.32 1.32-1.6-.8a.622.622 0 0 0-.84.28.63.63 0 0 0 .28.84l2 1c.09.04.18.07.28.07.16 0 .32-.06.44-.18l2-2c.21-.21.24-.54.08-.79l-1.9-2.84v-.98l6.2 1.77c.19.05.39.02.55-.1s.25-.3.25-.5v-4c0-.19-.08-.37-.23-.49l-7.77-6.3v-.01Z"/>
    <path class="uuid-f42f2504-9d86-4fbe-a02b-fa99860ade7d" d="M19 10.38c-.35 0-.62.28-.62.62v4c0 .35.28.62.62.62s.62-.28.62-.62v-4c0-.35-.28-.62-.62-.62Zm0 15c-.35 0-.62.28-.62.62v5c0 .35.28.62.62.62s.62-.28.62-.62v-5c0-.35-.28-.62-.62-.62Z"/>
  </g>
</svg>
