<svg id="uuid-7f01f9b5-7fd6-42ba-8b61-1e7b46f74774" xmlns="http://www.w3.org/2000/svg" viewBox="0 0 36 36">
  <defs>
    <style>
      .uuid-1fb6e82f-ec67-4763-94f4-9068385b2136{stroke-width:0}
    </style>
  </defs>
  <g id="uuid-9ca40c4b-b945-4c8a-96f4-e00b25fffe05">
    <path class="uuid-1fb6e82f-ec67-4763-94f4-9068385b2136" d="M27 24.375h-2.998a3.38 3.38 0 0 1-3.377-3.377v-2.89c0-1.334-.94-2.495-2.188-2.698A2.623 2.623 0 0 0 15.375 18v1a.625.625 0 0 0 1.249 0v-1a1.376 1.376 0 0 1 1.61-1.355c.65.105 1.14.734 1.14 1.463v2.89a4.632 4.632 0 0 0 4.627 4.627H27a.625.625 0 0 0 0-1.25Z"/>
    <path class="uuid-1fb6e82f-ec67-4763-94f4-9068385b2136" d="M27 20.375A2.378 2.378 0 0 1 24.625 18a6.57 6.57 0 0 0-2.012-4.755 6.611 6.611 0 0 0-4.816-1.867c-3.541.106-6.422 3.19-6.422 6.874V22a.625.625 0 0 0 1.25 0v-3.748c0-3.015 2.337-5.538 5.21-5.624a5.33 5.33 0 0 1 3.908 1.514A5.333 5.333 0 0 1 23.375 18 3.629 3.629 0 0 0 27 21.625a.625.625 0 0 0 0-1.25ZM9.65 12.459a.625.625 0 0 0-.853.228A10.624 10.624 0 0 0 7.375 18v2a.625.625 0 0 0 1.25 0v-2c0-1.648.434-3.27 1.254-4.686a.626.626 0 0 0-.228-.855Z"/>
    <path class="uuid-1fb6e82f-ec67-4763-94f4-9068385b2136" d="M18 7.375c-2.32 0-4.524.734-6.375 2.124a.625.625 0 0 0 .75 1A9.298 9.298 0 0 1 18 8.625a9.338 9.338 0 0 1 9.329 8.437.625.625 0 0 0 1.244-.123A10.585 10.585 0 0 0 18 7.375Z"/>
    <path class="uuid-1fb6e82f-ec67-4763-94f4-9068385b2136" d="M18 4.625a13.3 13.3 0 0 1 4.776.878.624.624 0 1 0 .447-1.167A14.551 14.551 0 0 0 18 3.375 14.6 14.6 0 0 0 6.797 8.598a.625.625 0 1 0 .958.804A13.352 13.352 0 0 1 18 4.625Zm5 24.75A6.382 6.382 0 0 1 16.625 23a.625.625 0 0 0-1.25 0c0 4.204 3.42 7.625 7.625 7.625a.625.625 0 0 0 0-1.25ZM12.625 25a.625.625 0 0 0-1.25 0c0 2.372.87 4.651 2.451 6.417a.624.624 0 1 0 .932-.834A8.357 8.357 0 0 1 12.625 25Z"/>
  </g>
</svg>
