<svg xmlns="http://www.w3.org/2000/svg" viewBox="0 0 36 36">
  <path d="M9 27.62c.34 0 .62-.28.62-.62V17c0-4.33 2.95-7.97 6.95-9.04.32.77.98 1.35 1.8 1.55v.9c-3.36.32-6 3.15-6 6.59v14c0 .34.28.62.62.62h12c.34 0 .62-.28.62-.62V17c0-3.44-2.64-6.28-6-6.59v-.9c.93-.23 1.66-.95 1.9-1.88h1.47c.34 0 .62-.28.62-.62s-.28-.62-.62-.62h-1.45c-.27-1.16-1.31-2.04-2.55-2.04-1.36 0-2.47 1.05-2.6 2.37-4.6 1.16-8.03 5.33-8.03 10.29v10c0 .34.28.62.62.62l.03-.01Zm15.38 2.75H13.62v-4.75h10.75v4.75h.01Zm0-6H13.62v-5.75h10.75v5.75h.01Zm0-7.38v.38H13.62v-.38c0-2.96 2.41-5.38 5.38-5.38s5.38 2.41 5.38 5.38ZM19 8.33c-.48 0-.91-.25-1.15-.63.38-.05.76-.08 1.15-.08h1.2c-.24.42-.68.71-1.2.71Zm0-2.75c.55 0 1.02.32 1.24.79H19c-.43 0-.86.03-1.28.08.2-.51.7-.87 1.28-.87Z"/>
</svg>
