<svg id="uuid-cdd9e11f-8f91-4109-bc56-d9b54aa352d5" xmlns="http://www.w3.org/2000/svg" viewBox="0 0 36 36">
  <defs>
    <style>
      .uuid-f99d6a1d-d4a4-40c5-a29e-8ebee3457947{stroke-width:0}
    </style>
  </defs>
  <g id="uuid-d4bc25e4-5379-4626-89bc-13cf4d3ef669">
    <path class="uuid-f99d6a1d-d4a4-40c5-a29e-8ebee3457947" d="M31 5.375H5A.625.625 0 0 0 4.375 6v24c0 .345.28.625.625.625h14a.625.625 0 1 0 0-1.25h-6.375v-4.75H17a.625.625 0 1 0 0-1.25H5.625v-4.75H17a.625.625 0 1 0 0-1.25h-4.375v-4.75h17.75V15a.625.625 0 1 0 1.25 0V6A.625.625 0 0 0 31 5.375Zm-11.625 1.25v4.75H5.625v-4.75h13.75Zm-8 18v4.75h-5.75v-4.75h5.75Zm0-7.25h-5.75v-4.75h5.75v4.75Zm9.25-6v-4.75h9.75v4.75h-9.75Z"/>
    <path class="uuid-f99d6a1d-d4a4-40c5-a29e-8ebee3457947" d="m31.13 17.558-5.5-1.17a.612.612 0 0 0-.26 0l-5.5 1.17a.625.625 0 0 0-.495.611V24.5c0 3.378 2.748 6.125 6.125 6.125s6.125-2.747 6.125-6.125v-6.33a.625.625 0 0 0-.495-.612Zm-.755 6.942c0 2.688-2.187 4.875-4.875 4.875s-4.875-2.187-4.875-4.875v-5.825L25.5 17.64l4.875 1.036V24.5Z"/>
    <path class="uuid-f99d6a1d-d4a4-40c5-a29e-8ebee3457947" d="M24.442 22.558a.625.625 0 1 0-.884.884l1 1a.622.622 0 0 0 .884 0l2-2a.625.625 0 1 0-.884-.884L25 23.116l-.558-.558Z"/>
  </g>
</svg>
