<svg id="uuid-a60f342c-43bf-4187-88ba-6d64d050c5d5" xmlns="http://www.w3.org/2000/svg" viewBox="0 0 36 36">
  <defs>
    <style>
      .uuid-99443022-633c-4991-97be-a76d29c5b55a{stroke-width:0}
    </style>
  </defs>
  <g id="uuid-9609d994-ec95-486b-a043-fdd9d5252d62">
    <path class="uuid-99443022-633c-4991-97be-a76d29c5b55a" d="M21.558 17.387c-.52.518-1.425.518-1.944 0a1.377 1.377 0 0 1 0-1.945.625.625 0 1 0-.884-.884 2.628 2.628 0 0 0 0 3.712c.512.512 1.184.768 1.856.768s1.344-.256 1.856-.768a.625.625 0 1 0-.884-.883ZM22.5 7.375c-1.172 0-2.125.953-2.125 2.125s.953 2.125 2.125 2.125 2.125-.953 2.125-2.125-.953-2.125-2.125-2.125Zm0 3a.876.876 0 0 1 0-1.75.876.876 0 0 1 0 1.75Z"/>
    <path class="uuid-99443022-633c-4991-97be-a76d29c5b55a" d="M30.62 5.915a1.622 1.622 0 0 0-1.772.353l-1.223 1.223v-1.49c0-.897-.73-1.626-1.627-1.626H23c-6.962 0-12.625 5.664-12.625 12.625v4.375H5a.625.625 0 0 0-.625.625c0 5.307 4.318 9.625 9.625 9.625.345 0 .625-.28.625-.625v-5.375H19c6.96 0 12.624-5.663 12.624-12.624V7.419c0-.66-.394-1.25-1.004-1.503ZM5.648 22.626h4.79a3.62 3.62 0 0 0 2.937 2.937v4.79a8.39 8.39 0 0 1-7.727-7.727Zm24.727-9.624c0 6.271-5.103 11.374-11.374 11.374H14A2.378 2.378 0 0 1 11.625 22v-5c0-6.272 5.103-11.375 11.375-11.375h2.998c.208 0 .377.169.377.377V9a.626.626 0 0 0 1.067.442l2.29-2.29c.16-.16.34-.11.41-.081.07.029.233.12.233.348V13Z"/>
  </g>
</svg>
