<svg xmlns="http://www.w3.org/2000/svg" viewBox="0 0 36 36">
  <path d="M25.269 7.444c-1.628-.35-3.26.029-4.718 1.105-1.428 1.053-2.862 1.966-4.673 1.573a4.626 4.626 0 0 1-2.318-1.3A2.612 2.612 0 0 0 14.302 7c0-1.447-1.177-2.625-2.625-2.625S9.052 5.553 9.052 7c0 1.04.614 1.934 1.494 2.358l-1.917 9.18a.63.63 0 0 0 .005.25L6.066 30.87a.624.624 0 1 0 1.223.26l2.209-10.394a5.863 5.863 0 0 0 3.636 2.483c2.323.499 4.077-.61 5.679-1.791.986-.728 2.024-1.03 3.091-.953l-1.063 5.089a.624.624 0 0 0 .409.718 7.301 7.301 0 0 0 2.183.338c1.236 0 2.736-.346 3.773-1.738.342-.46.61-1.013.81-1.692l1.802-8.63c.676-3.235-1.365-6.426-4.55-7.115ZM11.677 5.625a1.376 1.376 0 0 1 0 2.75 1.376 1.376 0 0 1 0-2.75Zm10.51 19.61.944-4.52c1.266.454 2.266 1.413 2.729 2.645.12.353.158.543.196.932-1.117 1.285-2.963 1.126-3.87.942Zm6.407-10.93-1.72 8.246c-.759-1.643-2.258-2.838-4.085-3.234a5.58 5.58 0 0 0-1.179-.127c-1.228 0-2.434.416-3.539 1.232-1.429 1.054-2.863 1.969-4.673 1.574-1.668-.36-2.978-1.594-3.479-3.243l1.91-8.981c.248-.025.493-.079.724-.172a5.895 5.895 0 0 0 3.06 1.745c2.322.498 4.078-.61 5.68-1.79 1.177-.869 2.427-1.166 3.71-.888 2.517.544 4.127 3.073 3.591 5.638Z"/>
</svg>
