<svg id="uuid-5b98167c-74c5-4438-ad10-e402a1427659" xmlns="http://www.w3.org/2000/svg" viewBox="0 0 36 36">
  <defs>
    <style>
      .uuid-6e70d1ab-8120-4d4c-a92e-86e33b339bee{stroke-width:0}
    </style>
  </defs>
  <g id="uuid-6c8635c8-9caa-465b-a863-de883f613455">
    <path class="uuid-6e70d1ab-8120-4d4c-a92e-86e33b339bee" d="M31.625 13.5a3.129 3.129 0 0 0-3.125-3.125c-.172 0-.341.02-.508.047-1.474-4.1-5.39-7.047-9.992-7.047s-8.518 2.946-9.992 7.047a3.137 3.137 0 0 0-.508-.047A3.129 3.129 0 0 0 4.375 13.5c0 1.303.816 2.456 2 2.914V26A3.629 3.629 0 0 0 10 29.625h5.375V31c0 .345.28.625.625.625h3c1.447 0 2.625-1.178 2.625-2.625S20.447 26.375 19 26.375h-3a.625.625 0 0 0-.625.625v1.375H10A2.378 2.378 0 0 1 7.625 26v-5.228l7.264 1.543c.331.07.672-.231.754-.557A2.348 2.348 0 0 1 18 19.625c1.222 0 2.229.906 2.355 2.114a.625.625 0 0 0 .832.56l7.943-1.688a.625.625 0 0 0 .495-.61v-3.587c1.184-.458 2-1.61 2-2.914Zm-15 14.125H19c.758 0 1.375.617 1.375 1.375s-.617 1.375-1.375 1.375h-2.375v-2.75Zm1.375-23c4.958 0 9.02 3.873 9.343 8.75H8.657c.324-4.878 4.385-8.75 9.343-8.75ZM5.625 13.5c0-1.034.841-1.875 1.875-1.875.05 0 .099.01.149.014a10.578 10.578 0 0 0-.242 1.736H7a.625.625 0 0 0-.625.625v.992a1.875 1.875 0 0 1-.75-1.492Zm22.75 5.994-6.904 1.468A3.597 3.597 0 0 0 18 18.375c-1.666 0-3.071 1.102-3.48 2.584l-6.895-1.465v-4.869h20.75v4.87Zm1.25-4.502V14a.625.625 0 0 0-.625-.625h-.407a10.578 10.578 0 0 0-.242-1.736c.05-.004.098-.014.149-.014 1.034 0 1.875.84 1.875 1.875 0 .602-.293 1.146-.75 1.492Z"/>
    <path class="uuid-6e70d1ab-8120-4d4c-a92e-86e33b339bee" d="M16.13 9.036 18 8.64l1.87.397a.625.625 0 0 0 .26-1.223l-2-.424a.646.646 0 0 0-.26 0l-2 .424a.625.625 0 1 0 .26 1.223Zm0 2.362 1.87-.397 1.87.397a.625.625 0 0 0 .26-1.223l-2-.424a.646.646 0 0 0-.26 0l-2 .425a.625.625 0 1 0 .26 1.223Z"/>
  </g>
</svg>
