<svg id="uuid-550038c6-393c-40e8-87b9-d7c10b12cb1c" xmlns="http://www.w3.org/2000/svg" viewBox="0 0 36 36">
  <defs>
    <style>
      .uuid-3c642b9f-1181-4abf-80f1-1b4dc2d3c364{stroke-width:0}
    </style>
  </defs>
  <g id="uuid-d9881d57-5fc7-46ee-8b6b-85d1842c9fd4">
    <path class="uuid-3c642b9f-1181-4abf-80f1-1b4dc2d3c364" d="M9.625 15c0-1.447-1.178-2.625-2.625-2.625S4.375 13.553 4.375 15 5.553 17.625 7 17.625 9.625 16.447 9.625 15Zm-4 0c0-.758.617-1.375 1.375-1.375s1.375.617 1.375 1.375S7.758 16.375 7 16.375 5.625 15.758 5.625 15ZM14 9.625h4c.345 0 .625-.28.625-.625V5A.626.626 0 0 0 18 4.375h-4a.626.626 0 0 0-.625.625v4c0 .345.28.625.625.625Zm.625-4h2.75v2.75h-2.75v-2.75Zm7.375 4h4c.345 0 .625-.28.625-.625V5A.626.626 0 0 0 26 4.375h-4a.626.626 0 0 0-.625.625v4c0 .345.28.625.625.625Zm.625-4h2.75v2.75h-2.75v-2.75Zm-7.625 14h10c1.447 0 2.625-1.178 2.625-2.625S26.447 14.375 25 14.375H15c-1.447 0-2.625 1.178-2.625 2.625s1.178 2.625 2.625 2.625Zm0-4h10c.758 0 1.375.617 1.375 1.375s-.617 1.375-1.375 1.375H15c-.758 0-1.375-.617-1.375-1.375s.617-1.375 1.375-1.375ZM15.375 11v2a.626.626 0 0 0 1.25 0v-2a.626.626 0 0 0-1.25 0Zm8 0v2a.626.626 0 0 0 1.25 0v-2a.626.626 0 0 0-1.25 0Zm-6.933 13.558a.626.626 0 0 0-.884 0l-3 3a.628.628 0 0 0 0 .884l3 3a.623.623 0 0 0 .884 0l3-3a.628.628 0 0 0 0-.884l-3-3ZM16 30.116 13.884 28 16 25.884 18.116 28 16 30.116Z"/>
    <path class="uuid-3c642b9f-1181-4abf-80f1-1b4dc2d3c364" d="M31 16.375h-2a.626.626 0 0 0 0 1.25h1.375v9.75H21a.626.626 0 0 0 0 1.25h10c.345 0 .625-.28.625-.625V17a.626.626 0 0 0-.625-.625Zm-20 11H7.625V19a.626.626 0 0 0-1.25 0v9c0 .345.28.625.625.625h4a.626.626 0 0 0 0-1.25ZM15.375 21v2a.626.626 0 0 0 1.25 0v-2a.626.626 0 0 0-1.25 0Z"/>
  </g>
</svg>
