<svg id="uuid-aa851200-00bf-451e-ba60-7d70a6829770" xmlns="http://www.w3.org/2000/svg" viewBox="0 0 36 36">
  <defs>
    <style>
      .uuid-b0873e64-9857-4051-ab79-6e469269777a{stroke-width:0}
    </style>
  </defs>
  <g id="uuid-f9fceca8-01d8-4a02-b022-66967e832ae4">
    <path class="uuid-b0873e64-9857-4051-ab79-6e469269777a" d="M19.21 9.87a.63.63 0 0 0-.61-.5H14c-.34 0-.62.28-.62.62v8.38H5c-.34 0-.62.28-.62.62v6c0 .35.28.62.62.62h1.52c-.08.28-.14.57-.14.88 0 1.72 1.4 3.12 3.12 3.12s3.12-1.4 3.12-3.12c0-.31-.06-.6-.14-.88h2.03c-.08.28-.14.57-.14.88 0 1.72 1.4 3.12 3.12 3.12s3.12-1.4 3.12-3.12c0-.31-.06-.6-.14-.88h1.3c.19 0 .37-.08.49-.23a.62.62 0 0 0 .13-.52l-1.49-7-1.7-8 .01.01Zm-4.58.75h3.47l1.6 7.5.05.25h-5.12v-7.75ZM9.51 28.37c-1.03 0-1.88-.84-1.88-1.88s.84-1.88 1.88-1.88 1.88.84 1.88 1.88-.84 1.88-1.88 1.88Zm8 0c-1.03 0-1.88-.84-1.88-1.88s.84-1.88 1.88-1.88 1.88.84 1.88 1.88-.84 1.88-1.88 1.88Zm2.28-4c-.57-.61-1.38-1-2.28-1s-1.71.39-2.28 1h-3.44c-.57-.61-1.38-1-2.28-1s-1.71.39-2.28 1h-1.6v-4.75h14.38l1.01 4.75h-1.24.01Zm11.82-.93a.62.62 0 0 0-.74-.48l-6.12 1.3-3.7-17.39c-.07-.34-.4-.55-.74-.48s-.55.4-.48.74l3.83 18c.03.16.13.3.27.39.1.07.22.1.34.1.04 0 .09 0 .13-.01l6.73-1.43c.34-.07.55-.4.48-.74Z"/>
    <path class="uuid-b0873e64-9857-4051-ab79-6e469269777a" d="M25.51 22.15c.03.16.13.3.27.39.1.07.22.1.34.1.04 0 .09 0 .13-.01l4.57-.97c.34-.07.55-.4.48-.74l-.97-4.57a.62.62 0 0 0-.74-.48l-4.57.97a.6.6 0 0 0-.39.27.65.65 0 0 0-.09.47l.97 4.57Zm3.72-4.92.71 3.34-3.34.71-.71-3.34 3.34-.71Z"/>
  </g>
</svg>
