<svg id="uuid-5d445530-94bf-48aa-8e5e-637e9c6b83d2" xmlns="http://www.w3.org/2000/svg" viewBox="0 0 36 36">
  <defs>
    <style>
      .uuid-0688c0c2-954a-4a09-846c-97926a6d0b00{stroke-width:0}
    </style>
  </defs>
  <path class="uuid-0688c0c2-954a-4a09-846c-97926a6d0b00" d="M30 4.38H6c-.9 0-1.62.73-1.62 1.62v25c0 .35.28.62.62.62h26c.35 0 .62-.28.62-.62V6c0-.9-.73-1.62-1.62-1.62ZM5.62 6c0-.21.17-.38.38-.38h24c.21 0 .38.17.38.38v2.38H5.62V6Zm24.76 24.38H5.62V9.62h24.76v20.76Z"/>
  <path class="uuid-0688c0c2-954a-4a09-846c-97926a6d0b00" d="M11.97 20.66a.633.633 0 0 0-.77.44c-.09.33.11.68.44.77l2.13.57-.57 2.13c-.09.33.11.68.44.77.05.01.11.02.16.02.28 0 .53-.18.6-.46l.67-2.48 2.3-1.33v2.66l-1.82 1.82c-.24.24-.24.64 0 .88s.64.24.88 0l1.56-1.56 1.56 1.56c.12.12.28.18.44.18s.32-.06.44-.18c.24-.24.24-.64 0-.88l-1.82-1.82v-2.66l2.3 1.33.67 2.48c.07.28.33.46.6.46.05 0 .11 0 .16-.02.33-.09.53-.43.44-.77l-.57-2.13 2.13-.57a.628.628 0 0 0-.33-1.21l-2.48.66-2.3-1.33 2.3-1.33 2.48.66c.05.01.11.02.16.02.28 0 .53-.18.6-.46a.633.633 0 0 0-.44-.77l-2.13-.57.57-2.13a.633.633 0 0 0-.44-.77.633.633 0 0 0-.77.44l-.67 2.48-2.3 1.33v-2.66l1.82-1.82c.24-.24.24-.64 0-.88s-.64-.24-.88 0l-1.56 1.56-1.56-1.56c-.24-.24-.64-.24-.88 0s-.24.64 0 .88l1.82 1.82v2.66l-2.3-1.33-.67-2.48a.628.628 0 0 0-1.21.33l.57 2.13-2.13.57c-.33.09-.53.43-.44.77.07.28.33.46.6.46.05 0 .11 0 .16-.02l2.48-.66 2.3 1.33-2.3 1.33-2.48-.66h.04Z"/>
</svg>
