<svg id="uuid-5a0f1399-02db-49cc-a604-0af25f954284" xmlns="http://www.w3.org/2000/svg" viewBox="0 0 36 36">
  <defs>
    <style>
      .uuid-2ebcb66b-6583-43e5-80c3-79d0c1e30795{stroke-width:0}
    </style>
  </defs>
  <g id="uuid-68b7dfcc-94a6-4621-96c6-ee424b815804">
    <path class="uuid-2ebcb66b-6583-43e5-80c3-79d0c1e30795" d="M31 7.375H9c-.028 0-.05.012-.077.016a.568.568 0 0 0-.084.017.618.618 0 0 0-.274.146l-.007.004-4 4-.004.007a.619.619 0 0 0-.146.274.584.584 0 0 0-.017.081c-.004.027-.016.052-.016.08v16c0 .345.28.625.625.625h26c.345 0 .625-.28.625-.625V8A.626.626 0 0 0 31 7.375ZM8.375 9.509v1.866H6.509l1.866-1.866Zm22 17.866H5.625v-14.75H9c.345 0 .625-.28.625-.625V8.625h20.75v18.75Z"/>
    <path class="uuid-2ebcb66b-6583-43e5-80c3-79d0c1e30795" d="M13.558 16.442a.623.623 0 0 0 .884 0L16 14.885l1.558 1.557a.623.623 0 0 0 .884 0 .628.628 0 0 0 0-.884L16.885 14l1.557-1.558a.626.626 0 0 0-.885-.885L16 13.116l-1.558-1.557a.626.626 0 0 0-.884.884L15.115 14l-1.557 1.558a.628.628 0 0 0 0 .884ZM8.375 22c0 1.447 1.178 2.625 2.625 2.625s2.625-1.178 2.625-2.625-1.178-2.625-2.625-2.625S8.375 20.553 8.375 22Zm4 0c0 .758-.617 1.375-1.375 1.375S9.625 22.758 9.625 22s.617-1.375 1.375-1.375 1.375.617 1.375 1.375ZM22 21.375h-6a.626.626 0 0 0 0 1.25h6A3.629 3.629 0 0 0 25.625 19v-2.49l.933.932a.623.623 0 0 0 .884 0 .628.628 0 0 0 0-.884l-2-2c-.006-.007-.015-.009-.022-.015a.618.618 0 0 0-.18-.12.618.618 0 0 0-.396-.018.609.609 0 0 0-.286.153l-2 2a.626.626 0 0 0 .885.885l.932-.934V19A2.378 2.378 0 0 1 22 21.375Z"/>
  </g>
</svg>
