<svg id="uuid-87816d1f-d2f5-4e55-ac8e-e1a1c057c4da" xmlns="http://www.w3.org/2000/svg" viewBox="0 0 36 36">
  <defs>
    <style>
      .uuid-c1e059c4-55d2-44a1-af72-578bf4fd6761{stroke-width:0}
    </style>
  </defs>
  <g id="uuid-dd570e37-39af-47ae-b3ea-d3dfbc057205">
    <path class="uuid-c1e059c4-55d2-44a1-af72-578bf4fd6761" d="M5.676 23.206c-.698-1.648-1.051-3.4-1.051-5.206s.353-3.558 1.05-5.206a13.33 13.33 0 0 1 2.867-4.251.626.626 0 0 0-.883-.885A14.588 14.588 0 0 0 3.375 18a14.587 14.587 0 0 0 4.284 10.342.622.622 0 0 0 .883 0 .626.626 0 0 0 0-.885 13.33 13.33 0 0 1-2.866-4.251Zm25.8-10.898a14.587 14.587 0 0 0-3.135-4.65.625.625 0 1 0-.884.885A13.33 13.33 0 0 1 31.375 18a13.33 13.33 0 0 1-3.918 9.457.626.626 0 0 0 .884.885A14.588 14.588 0 0 0 32.625 18c0-1.974-.387-3.89-1.15-5.692Z"/>
    <path class="uuid-c1e059c4-55d2-44a1-af72-578bf4fd6761" d="M10.664 10.664a.626.626 0 0 0-.884-.885A11.596 11.596 0 0 0 6.375 18a11.597 11.597 0 0 0 3.405 8.22.622.622 0 0 0 .884 0 .626.626 0 0 0 0-.884A10.329 10.329 0 0 1 7.625 18a10.33 10.33 0 0 1 3.038-7.336ZM29.625 18a11.596 11.596 0 0 0-3.405-8.22.625.625 0 1 0-.884.884A10.329 10.329 0 0 1 28.375 18a10.33 10.33 0 0 1-3.039 7.336.626.626 0 0 0 .884.885A11.596 11.596 0 0 0 29.625 18Zm-5.75-2.621a2.524 2.524 0 0 0-2.465-2 .558.558 0 0 0-.07-.004h-6.664a.728.728 0 0 0-.08.005 2.522 2.522 0 0 0-2.471 1.999l-.891 4.19a2.532 2.532 0 0 0 1.948 3 2.535 2.535 0 0 0 3-1.948l.161-.76h3.314l.161.76c.14.66.53 1.228 1.097 1.596a2.511 2.511 0 0 0 1.903.352 2.532 2.532 0 0 0 1.948-3l-.89-4.19Zm-1.317 5.968a1.277 1.277 0 0 1-1.517-.986l-.267-1.255a.625.625 0 0 0-.611-.495h-4.326a.625.625 0 0 0-.61.495l-.268 1.255a1.283 1.283 0 0 1-1.517.986 1.28 1.28 0 0 1-.985-1.518l.89-4.19c.13-.61.681-1.018 1.303-1.008a.41.41 0 0 0 .115-.006h6.497a.859.859 0 0 0 .098.005c.62-.04 1.164.404 1.293 1.009l.89 4.19a1.28 1.28 0 0 1-.985 1.518Z"/>
    <path class="uuid-c1e059c4-55d2-44a1-af72-578bf4fd6761" d="M14.56 16.56c-.12.11-.19.27-.19.44s.07.33.19.44c.12.12.28.19.44.19.16 0 .33-.07.44-.19.12-.11.18-.27.18-.44 0-.16-.06-.33-.18-.44a.627.627 0 0 0-.88 0Zm6 0c-.12.11-.19.28-.19.44 0 .17.07.33.19.44.12.12.28.19.44.19.16 0 .33-.07.44-.19.12-.11.19-.27.19-.44 0-.16-.07-.33-.19-.44a.627.627 0 0 0-.88 0Z"/>
  </g>
</svg>
