<svg id="uuid-0f1cc3b9-0388-4314-a160-c468ecdf12e2" xmlns="http://www.w3.org/2000/svg" viewBox="0 0 36 36">
  <defs>
    <style>
      .uuid-821257dd-19c6-45b9-8cf8-7431f8488168{stroke-width:0}
    </style>
  </defs>
  <g id="uuid-457ac6ea-e7b7-4681-b3f5-afe0941827e8">
    <path class="uuid-821257dd-19c6-45b9-8cf8-7431f8488168" d="m31.523 23.038-1.871-8.804c-.457-2.149-2.322-3.643-4.548-3.655A.602.602 0 0 0 25 10.57h-6.375V8a.625.625 0 0 0-1.25 0v2.57H11a.56.56 0 0 0-.117.012l-.053-.001a4.604 4.604 0 0 0-4.516 3.653l-1.871 8.804a4.632 4.632 0 0 0 4.524 5.587 4.633 4.633 0 0 0 4.524-3.664l.455-2.14h8.074l.455 2.14a4.634 4.634 0 0 0 5.486 3.562 4.63 4.63 0 0 0 3.562-5.485ZM27.7 27.301a3.382 3.382 0 0 1-4.003-2.6l-.56-2.636a.625.625 0 0 0-.612-.495H13.44a.625.625 0 0 0-.611.495l-.56 2.636a3.384 3.384 0 0 1-4.003 2.6 3.38 3.38 0 0 1-2.6-4.003l1.871-8.804a3.358 3.358 0 0 1 3.437-2.66.401.401 0 0 0 .153-.014h13.758a.87.87 0 0 0 .136.011c1.624-.088 3.07 1.065 3.408 2.663l1.871 8.804a3.38 3.38 0 0 1-2.599 4.003Z"/>
    <path class="uuid-821257dd-19c6-45b9-8cf8-7431f8488168" d="M14 16.375h-1.375V15a.625.625 0 0 0-1.25 0v1.375H10a.625.625 0 0 0 0 1.25h1.375V19a.625.625 0 0 0 1.25 0v-1.375H14a.625.625 0 0 0 0-1.25Zm7-1c-.896 0-1.625.729-1.625 1.625s.729 1.625 1.625 1.625 1.625-.729 1.625-1.625-.729-1.625-1.625-1.625Zm0 2a.375.375 0 1 1 0-.75.375.375 0 0 1 0 .75Zm4-2c-.896 0-1.625.729-1.625 1.625s.729 1.625 1.625 1.625 1.625-.729 1.625-1.625-.729-1.625-1.625-1.625Zm0 2a.375.375 0 1 1 0-.75.375.375 0 0 1 0 .75Z"/>
  </g>
</svg>
