<svg id="uuid-967ecc66-7654-48ec-84d0-beac7e0462de" xmlns="http://www.w3.org/2000/svg" viewBox="0 0 36 36">
  <defs>
    <style>
      .uuid-1c93f054-39f8-4970-8c13-64865ad5ccba{stroke-width:0}
    </style>
  </defs>
  <g id="uuid-59b70e43-6c35-4a68-a341-979800be997f">
    <path class="uuid-1c93f054-39f8-4970-8c13-64865ad5ccba" d="M31 4.375H5A.625.625 0 0 0 4.375 5v26c0 .345.28.625.625.625h26c.345 0 .625-.28.625-.625V5A.625.625 0 0 0 31 4.375Zm-.625 26H5.625V5.625h24.75v24.75Z"/>
    <path class="uuid-1c93f054-39f8-4970-8c13-64865ad5ccba" d="M20 16.625c.16 0 .32-.06.442-.183l5.933-5.933V12a.625.625 0 1 0 1.25 0V9A.625.625 0 0 0 27 8.375h-3a.625.625 0 1 0 0 1.25h1.491l-5.933 5.933A.625.625 0 0 0 20 16.625Zm-5.509-1.25H13a.625.625 0 1 0 0 1.25h3a.626.626 0 0 0 .625-.625v-3a.625.625 0 1 0-1.25 0v1.491L9.442 8.558a.625.625 0 1 0-.884.884l5.933 5.933ZM20 23.625c.345 0 .625-.28.625-.625v-1.49l5.933 5.933a.622.622 0 0 0 .884 0 .625.625 0 0 0 0-.884l-5.933-5.933H23a.625.625 0 1 0 0-1.25h-3a.625.625 0 0 0-.625.625v3c0 .345.28.625.625.625ZM8.761 27.577a.625.625 0 0 0 .239.048h3a.625.625 0 1 0 0-1.25h-1.491l5.933-5.933a.625.625 0 1 0-.884-.884l-5.933 5.933v-1.49a.625.625 0 1 0-1.25 0v3a.625.625 0 0 0 .386.576Z"/>
  </g>
</svg>
