<svg id="uuid-4447f19b-f7f0-405d-b983-70a9feadf879" xmlns="http://www.w3.org/2000/svg" viewBox="0 0 36 36">
  <defs>
    <style>
      .uuid-db62abe2-6806-4792-b9f0-affce85e43ed{stroke-width:0}
    </style>
  </defs>
  <g id="uuid-1d36cc9d-114a-4f19-a539-9874ad9bc5ad">
    <path class="uuid-db62abe2-6806-4792-b9f0-affce85e43ed" d="M23.822 19.523h-2.254a8.002 8.002 0 0 0-.442-1.08l1.601-1.6a.626.626 0 0 0 .076-.793 10.633 10.633 0 0 0-2.773-2.793.625.625 0 0 0-.797.071l-1.59 1.59a7.886 7.886 0 0 0-1.1-.465V12.19a.625.625 0 0 0-.505-.614 10.289 10.289 0 0 0-3.936-.022.625.625 0 0 0-.514.615v2.243a7.91 7.91 0 0 0-1.145.463l-1.601-1.602a.626.626 0 0 0-.793-.075 10.62 10.62 0 0 0-2.793 2.773.626.626 0 0 0 .073.798l1.59 1.59a7.89 7.89 0 0 0-.487 1.164H4.178c-.3 0-.558.214-.614.51-.126.668-.19 1.33-.19 1.968s.064 1.3.19 1.968c.056.296.313.51.614.51h2.254c.131.401.294.79.486 1.165l-1.59 1.59a.626.626 0 0 0-.072.797 10.621 10.621 0 0 0 2.793 2.773c.25.168.58.135.793-.075l1.6-1.602c.369.184.751.338 1.146.463v2.243c0 .303.217.562.514.615.665.12 1.286.178 1.898.178.671 0 1.357-.067 2.038-.2a.625.625 0 0 0 .505-.613v-2.265a7.898 7.898 0 0 0 1.1-.466l1.59 1.59a.623.623 0 0 0 .797.072 10.646 10.646 0 0 0 2.773-2.792.624.624 0 0 0-.076-.792l-1.601-1.601a8.05 8.05 0 0 0 .442-1.08h2.254c.3 0 .559-.215.614-.51.126-.671.19-1.332.19-1.968s-.064-1.297-.19-1.968a.625.625 0 0 0-.614-.51Zm-.532 3.705H21.1a.625.625 0 0 0-.604.467 6.693 6.693 0 0 1-.681 1.663.624.624 0 0 0 .099.754l1.554 1.555a9.381 9.381 0 0 1-1.73 1.742l-1.544-1.545a.628.628 0 0 0-.762-.094 6.652 6.652 0 0 1-1.678.71.625.625 0 0 0-.461.604v2.2a8.902 8.902 0 0 1-2.455.013v-2.18a.626.626 0 0 0-.473-.606 6.66 6.66 0 0 1-1.723-.696.624.624 0 0 0-.754.098l-1.555 1.555a9.35 9.35 0 0 1-1.742-1.73l1.544-1.543a.627.627 0 0 0 .095-.763 6.66 6.66 0 0 1-.725-1.736.625.625 0 0 0-.605-.468H4.71c-.057-.417-.085-.828-.085-1.228s.028-.81.085-1.227H6.9a.625.625 0 0 0 .605-.468 6.63 6.63 0 0 1 .725-1.736.627.627 0 0 0-.095-.763l-1.544-1.544a9.35 9.35 0 0 1 1.742-1.73l1.555 1.555c.2.2.51.24.754.099a6.664 6.664 0 0 1 1.723-.696.626.626 0 0 0 .473-.607v-2.18a8.94 8.94 0 0 1 2.455.014v2.2c0 .282.189.529.461.603.59.159 1.155.398 1.678.71.245.146.56.108.762-.094l1.544-1.545a9.38 9.38 0 0 1 1.73 1.742l-1.554 1.554c-.2.2-.24.51-.1.755a6.7 6.7 0 0 1 .682 1.663c.071.275.32.468.605.468h2.189c.056.419.085.83.085 1.227s-.029.809-.085 1.228Z"/>
    <path class="uuid-db62abe2-6806-4792-b9f0-affce85e43ed" d="M14 18.518c-1.92 0-3.482 1.562-3.482 3.482S12.08 25.482 14 25.482 17.482 23.92 17.482 22 15.92 18.518 14 18.518Zm0 5.714c-1.23 0-2.232-1-2.232-2.232S12.77 19.768 14 19.768s2.232 1 2.232 2.232S15.23 24.232 14 24.232Zm18.472-13.829a.625.625 0 0 0-.615-.51h-1.713a6.51 6.51 0 0 0-.292-.713l1.218-1.218a.626.626 0 0 0 .076-.793 8.654 8.654 0 0 0-2.25-2.267.623.623 0 0 0-.798.073L26.89 6.183a6.498 6.498 0 0 0-.73-.31V4.15a.625.625 0 0 0-.506-.613 8.381 8.381 0 0 0-3.195-.018.625.625 0 0 0-.514.616v1.703c-.262.087-.518.19-.765.31L19.962 4.93a.626.626 0 0 0-.793-.076 8.616 8.616 0 0 0-2.267 2.25.625.625 0 0 0 .072.797l1.208 1.21a6.472 6.472 0 0 0-.467 1.25.625.625 0 0 0 1.21.314c.124-.478.315-.934.566-1.356a.624.624 0 0 0-.095-.762L18.24 7.4c.36-.451.766-.854 1.217-1.208l1.165 1.166c.202.2.511.24.755.099.418-.241.87-.424 1.346-.543a.625.625 0 0 0 .473-.607V4.673a6.986 6.986 0 0 1 1.714.01v1.65c0 .282.19.53.461.603a5.2 5.2 0 0 1 1.311.556c.246.146.56.107.762-.096L28.6 6.24c.451.36.855.767 1.208 1.216L28.642 8.62c-.2.201-.24.51-.098.756.233.401.411.838.531 1.298.072.275.32.468.605.468h1.642a7.116 7.116 0 0 1 0 1.714H29.68a.625.625 0 0 0-.605.468c-.12.46-.298.897-.531 1.298a.626.626 0 0 0 .098.756l1.166 1.166A7.39 7.39 0 0 1 28.6 17.76l-1.157-1.157a.626.626 0 0 0-.762-.096 5.26 5.26 0 0 1-1.31.556.626.626 0 0 0 .327 1.207 6.52 6.52 0 0 0 1.191-.453l1.209 1.208a.623.623 0 0 0 .797.072 8.654 8.654 0 0 0 2.25-2.267.626.626 0 0 0-.075-.793l-1.218-1.218a6.33 6.33 0 0 0 .292-.712h1.713c.301 0 .56-.215.615-.511.101-.544.153-1.082.153-1.597s-.052-1.053-.153-1.597Z"/>
    <path class="uuid-db62abe2-6806-4792-b9f0-affce85e43ed" d="M24 13.661a.625.625 0 0 0 0 1.25c1.605 0 2.91-1.306 2.91-2.911S25.606 9.089 24 9.089 21.09 10.395 21.09 12a.625.625 0 0 0 1.25 0c0-.916.745-1.661 1.66-1.661s1.66.745 1.66 1.661-.745 1.661-1.66 1.661Z"/>
  </g>
</svg>
