<svg id="uuid-8be1e9fb-7733-4328-be4f-ea3bfe930151" xmlns="http://www.w3.org/2000/svg" viewBox="0 0 36 36">
  <defs>
    <style>
      .uuid-49ae7b06-94b4-4000-be4a-cef6d786319d{stroke-width:0}
    </style>
  </defs>
  <g id="uuid-95706473-64fa-4dc0-98fb-0c365644f56f">
    <path class="uuid-49ae7b06-94b4-4000-be4a-cef6d786319d" d="M32.364 15.291a.625.625 0 0 0-.614-.51h-3.337a10.85 10.85 0 0 0-.742-1.81l2.37-2.368a.626.626 0 0 0 .076-.793A14.632 14.632 0 0 0 26.3 5.965a.627.627 0 0 0-.797.071l-2.356 2.357a10.84 10.84 0 0 0-1.837-.778V4.264a.625.625 0 0 0-.506-.614c-1.8-.35-3.499-.376-5.417-.03a.625.625 0 0 0-.514.615V7.56c-.66.197-1.296.455-1.901.769l-2.37-2.37a.626.626 0 0 0-.793-.075A14.628 14.628 0 0 0 5.964 9.7a.626.626 0 0 0 .073.798l2.356 2.356c-.33.614-.6 1.26-.806 1.927H4.25c-.3 0-.559.214-.614.51-.173.922-.26 1.833-.26 2.709s.087 1.787.26 2.709c.055.296.314.51.614.51h3.339c.206.668.475 1.313.805 1.928l-2.356 2.355a.626.626 0 0 0-.073.798 14.628 14.628 0 0 0 3.845 3.817.627.627 0 0 0 .793-.075l2.37-2.37c.605.315 1.241.572 1.9.769v3.324c0 .303.217.561.515.615a14.61 14.61 0 0 0 2.613.245 14.8 14.8 0 0 0 2.804-.275.625.625 0 0 0 .506-.614v-3.351c.636-.203 1.25-.463 1.837-.777l2.356 2.356c.214.212.55.245.797.071a14.632 14.632 0 0 0 3.817-3.844.626.626 0 0 0-.075-.793l-2.37-2.37c.3-.576.547-1.182.74-1.81h3.338c.3 0 .559-.213.614-.509.173-.92.261-1.832.261-2.709s-.088-1.788-.26-2.709Zm-1.141 4.678H27.94a.625.625 0 0 0-.605.467 9.548 9.548 0 0 1-.979 2.39.627.627 0 0 0 .1.755l2.329 2.33a13.397 13.397 0 0 1-2.775 2.793l-2.317-2.317a.631.631 0 0 0-.762-.095 9.575 9.575 0 0 1-2.41 1.022.626.626 0 0 0-.462.603v3.295c-1.316.205-2.564.22-3.937.021v-3.27a.625.625 0 0 0-.474-.606 9.575 9.575 0 0 1-2.475-1 .627.627 0 0 0-.755.1l-2.33 2.328a13.354 13.354 0 0 1-2.793-2.774l2.317-2.317a.625.625 0 0 0 .095-.762 9.58 9.58 0 0 1-1.043-2.495.625.625 0 0 0-.605-.468H4.777c-.102-.673-.152-1.321-.152-1.969s.05-1.296.152-1.969H8.06a.625.625 0 0 0 .605-.468 9.579 9.579 0 0 1 1.043-2.496.627.627 0 0 0-.095-.762L7.296 9.989a13.352 13.352 0 0 1 2.794-2.774l2.33 2.329c.2.2.51.24.754.098a9.575 9.575 0 0 1 2.475-1 .625.625 0 0 0 .474-.606v-3.27a12.853 12.853 0 0 1 3.937.022v3.295c0 .282.19.53.462.603.849.23 1.66.574 2.41 1.022.246.144.56.108.762-.095l2.317-2.317a13.402 13.402 0 0 1 2.775 2.794l-2.33 2.329c-.2.2-.24.51-.099.756.43.741.76 1.545.979 2.388.071.276.32.468.605.468h3.282c.102.672.152 1.32.152 1.97s-.05 1.296-.152 1.968Z"/>
    <path class="uuid-49ae7b06-94b4-4000-be4a-cef6d786319d" d="M18 13.375c-2.55 0-4.625 2.075-4.625 4.625S15.45 22.625 18 22.625 22.625 20.55 22.625 18 20.55 13.375 18 13.375Zm0 8c-1.86 0-3.375-1.514-3.375-3.375s1.514-3.375 3.375-3.375 3.375 1.514 3.375 3.375-1.514 3.375-3.375 3.375Z"/>
  </g>
</svg>
