<svg xmlns="http://www.w3.org/2000/svg" viewBox="0 0 36 36">
  <path d="M31 12.375h-9.15l2.183-.728a.523.523 0 0 0 .112-.052 3.636 3.636 0 0 0 1.39-.863 3.698 3.698 0 0 0 1.09-2.633c0-.994-.387-1.93-1.09-2.634a3.729 3.729 0 0 0-5.268 0c-.374.375-.66.829-.848 1.35a.592.592 0 0 0-.057.123L18 11.024l-.967-2.9a.568.568 0 0 0-.046-.103 3.058 3.058 0 0 0-.718-1.15c-1.175-1.175-3.225-1.175-4.398 0a3.114 3.114 0 0 0 0 4.399c.31.31.687.547 1.119.707.034.019.07.035.108.047l1.052.351H5a.625.625 0 0 0-.625.625v5c0 .345.28.625.625.625h1.375V31c0 .345.28.625.625.625h22c.345 0 .625-.28.625-.625V18.625H31c.345 0 .625-.28.625-.625v-5a.625.625 0 0 0-.625-.625ZM20.512 7.439a.604.604 0 0 0 .053-.118 2.44 2.44 0 0 1 .586-.971 2.48 2.48 0 0 1 3.5-.001 2.46 2.46 0 0 1 .724 1.75 2.424 2.424 0 0 1-1.72 2.342.616.616 0 0 0-.117.054l-4.55 1.517 1.524-4.573Zm-7.027 3.387a1.832 1.832 0 0 1-.73-.441 1.863 1.863 0 0 1 0-2.631c.703-.7 1.927-.701 2.63 0 .2.201.35.452.445.748a.522.522 0 0 0 .048.107l1.134 3.403-3.425-1.142a.606.606 0 0 0-.102-.044Zm-7.86 2.799h8.75v3.75h-8.75v-3.75Zm2 5h6.75v11.75h-6.75v-11.75Zm8 11.75v-16.75h4.75v16.75h-4.75Zm12.75 0h-6.75v-11.75h6.75v11.75Zm2-13h-8.75v-3.75h8.75v3.75Z"/>
</svg>
