<svg id="uuid-dde40828-56a3-4b32-b86c-920227e1bcb1" xmlns="http://www.w3.org/2000/svg" viewBox="0 0 36 36">
  <defs>
    <style>
      .uuid-96349d56-3694-4c5f-b2e9-958a46025691{stroke-width:0}
    </style>
  </defs>
  <g id="uuid-4492c4f4-3361-43dd-b32c-4d41438660a2">
    <path class="uuid-96349d56-3694-4c5f-b2e9-958a46025691" d="M19.5 25.625c5.858 0 10.625-4.767 10.625-10.625S25.358 4.375 19.5 4.375 8.875 9.142 8.875 15 13.642 25.625 19.5 25.625Zm0-20c5.17 0 9.375 4.206 9.375 9.375s-4.206 9.375-9.375 9.375-9.375-4.206-9.375-9.375 4.206-9.375 9.375-9.375Z"/>
    <path class="uuid-96349d56-3694-4c5f-b2e9-958a46025691" d="M28.329 22.944a.625.625 0 1 0-.884.885l.342.342a12.274 12.274 0 0 1-8.287 3.204 12.292 12.292 0 0 1-8.75-3.625c-4.676-4.675-4.807-12.185-.42-17.036l.346.345a.623.623 0 0 0 .883.001.625.625 0 0 0 0-.883l-.807-.808-.003-.004-.003-.002-.804-.804a.625.625 0 1 0-.884.882l.388.389c-4.873 5.34-4.743 13.641.42 18.805a13.516 13.516 0 0 0 9.009 3.96V31a.625.625 0 0 0 1.25 0v-2.405a13.495 13.495 0 0 0 8.546-3.54l.387.387a.622.622 0 0 0 .884 0 .626.626 0 0 0 0-.884l-1.614-1.614Z"/>
    <path class="uuid-96349d56-3694-4c5f-b2e9-958a46025691" d="M24.784 21.169a.622.622 0 0 0 .884 0 .626.626 0 0 0 0-.885L14.22 8.836a.625.625 0 1 0-.884.885l11.448 11.448Z"/>
  </g>
</svg>
