<svg xmlns="http://www.w3.org/2000/svg" viewBox="0 0 36 36">
  <path d="M28.341 7.658C25.58 4.896 21.906 3.375 18 3.375S10.42 4.897 7.659 7.658C4.896 10.421 3.375 14.094 3.375 18s1.522 7.58 4.284 10.342A14.529 14.529 0 0 0 18 32.625h.016a14.529 14.529 0 0 0 10.325-4.283c2.763-2.763 4.284-6.436 4.284-10.342s-1.522-7.58-4.284-10.342Zm2.514 14.025H23.84c.432-2.436.432-4.93 0-7.366h7.015c.337 1.184.52 2.419.52 3.683s-.183 2.5-.52 3.683Zm-17.43 0a19.818 19.818 0 0 1 0-7.366h9.15c.46 2.432.46 4.934 0 7.366h-9.15Zm8.856 1.25A19.57 19.57 0 0 1 18 31a19.57 19.57 0 0 1-4.28-8.067h8.56ZM4.625 18c0-1.264.183-2.5.52-3.683h7.015a21.071 21.071 0 0 0 0 7.366H5.145A13.423 13.423 0 0 1 4.625 18Zm9.094-4.933A19.57 19.57 0 0 1 18 5a19.57 19.57 0 0 1 4.28 8.067h-8.56Zm16.712 0h-6.868c-.723-3-2.114-5.865-4.177-8.369a13.268 13.268 0 0 1 8.072 3.845 13.328 13.328 0 0 1 2.973 4.524ZM8.542 8.543a13.266 13.266 0 0 1 8.072-3.845 20.802 20.802 0 0 0-4.177 8.37H5.569a13.328 13.328 0 0 1 2.973-4.525ZM5.57 22.933h6.868c.724 3 2.114 5.865 4.177 8.369a13.27 13.27 0 0 1-8.071-3.845 13.328 13.328 0 0 1-2.974-4.524Zm21.889 4.524a13.276 13.276 0 0 1-8.073 3.845 20.801 20.801 0 0 0 4.178-8.37h6.868a13.328 13.328 0 0 1-2.973 4.525Z"/>
</svg>
