<svg xmlns="http://www.w3.org/2000/svg" viewBox="0 0 36 36">
  <path d="M5 12.62h26a.622.622 0 0 0 .3-1.17l-13-7c-.19-.1-.41-.1-.59 0l-13.01 7a.63.63 0 0 0-.31.7c.07.28.32.47.61.47ZM18 5.7l10.52 5.67H7.48L18 5.7Zm11.14 7.68H6.86c-.35 0-.62.28-.62.62s.28.62.62.62h22.28c.35 0 .62-.28.62-.62s-.28-.62-.62-.62ZM6.23 29c0 .35.28.62.62.62h22.29c.35 0 .62-.28.62-.62s-.28-.62-.62-.62H6.86c-.35 0-.62.28-.62.62h-.01Zm25.39 1.38H4.38c-.35 0-.62.28-.62.62s.28.62.62.62h27.24c.35 0 .62-.28.62-.62s-.28-.62-.62-.62ZM8.62 27V16c0-.35-.28-.62-.62-.62s-.62.28-.62.62v11c0 .35.28.62.62.62s.62-.28.62-.62Zm10 0V16c0-.35-.28-.62-.62-.62s-.62.28-.62.62v11c0 .35.28.62.62.62s.62-.28.62-.62Zm5 0V16c0-.35-.28-.62-.62-.62s-.62.28-.62.62v11c0 .35.28.62.62.62s.62-.28.62-.62Zm-10 0V16c0-.35-.28-.62-.62-.62s-.62.28-.62.62v11c0 .35.28.62.62.62s.62-.28.62-.62Zm15 0V16c0-.35-.28-.62-.62-.62s-.62.28-.62.62v11c0 .35.28.62.62.62s.62-.28.62-.62Z"/>
</svg>
