<svg xmlns="http://www.w3.org/2000/svg" viewBox="0 0 36 36">
  <path d="M10 26.62h16c.35 0 .62-.28.62-.62V10c0-.35-.28-.62-.62-.62H10c-.35 0-.62.28-.62.62v16c0 .35.28.62.62.62Zm.62-16h14.75v14.75H10.62V10.62ZM31 9.38h-2c-.35 0-.62.28-.62.62s.28.62.62.62h2c.35 0 .62-.28.62-.62s-.28-.62-.62-.62Zm0 8h-2c-.35 0-.62.28-.62.62s.28.62.62.62h2c.35 0 .62-.28.62-.62s-.28-.62-.62-.62Zm0-4h-2c-.35 0-.62.28-.62.62s.28.62.62.62h2c.35 0 .62-.28.62-.62s-.28-.62-.62-.62Zm0 12h-2c-.35 0-.62.28-.62.62s.28.62.62.62h2c.35 0 .62-.28.62-.62s-.28-.62-.62-.62Zm0-4h-2c-.35 0-.62.28-.62.62s.28.62.62.62h2c.35 0 .62-.28.62-.62s-.28-.62-.62-.62ZM5 10.62h2c.35 0 .62-.28.62-.62s-.28-.62-.62-.62H5c-.35 0-.62.28-.62.62s.28.62.62.62Zm0 8h2c.35 0 .62-.28.62-.62s-.28-.62-.62-.62H5c-.35 0-.62.28-.62.62s.28.62.62.62Zm0-4h2c.35 0 .62-.28.62-.62s-.28-.62-.62-.62H5c-.35 0-.62.28-.62.62s.28.62.62.62Zm0 12h2c.35 0 .62-.28.62-.62s-.28-.62-.62-.62H5c-.35 0-.62.28-.62.62s.28.62.62.62Zm0-4h2c.35 0 .62-.28.62-.62s-.28-.62-.62-.62H5c-.35 0-.62.28-.62.62s.28.62.62.62Zm21 5.76c-.35 0-.62.28-.62.62v2c0 .35.28.62.62.62s.62-.28.62-.62v-2c0-.35-.28-.62-.62-.62Zm-8.63.62v2c0 .35.28.62.62.62s.62-.28.62-.62v-2c0-.35-.28-.62-.62-.62s-.62.28-.62.62Zm4 0v2c0 .35.28.62.62.62s.62-.28.62-.62v-2c0-.35-.28-.62-.62-.62s-.62.28-.62.62ZM10 31.62c.35 0 .62-.28.62-.62v-2c0-.35-.28-.62-.62-.62s-.62.28-.62.62v2c0 .35.28.62.62.62ZM13.37 29v2c0 .35.28.62.62.62s.62-.28.62-.62v-2c0-.35-.28-.62-.62-.62s-.62.28-.62.62ZM26 7.62c.35 0 .62-.28.62-.62V5c0-.35-.28-.62-.62-.62s-.62.28-.62.62v2c0 .35.28.62.62.62Zm-8 0c.35 0 .62-.28.62-.62V5c0-.35-.28-.62-.62-.62s-.62.28-.62.62v2c0 .35.28.62.62.62Zm4 0c.35 0 .62-.28.62-.62V5c0-.35-.28-.62-.62-.62s-.62.28-.62.62v2c0 .35.28.62.62.62Zm-12 0c.35 0 .62-.28.62-.62V5c0-.35-.28-.62-.62-.62s-.62.28-.62.62v2c0 .35.28.62.62.62Zm4 0c.35 0 .62-.28.62-.62V5c0-.35-.28-.62-.62-.62s-.62.28-.62.62v2c0 .35.28.62.62.62Z"/>
</svg>
