<svg id="uuid-02f77803-4ffe-4cab-a906-e1a3cd6e77ca" xmlns="http://www.w3.org/2000/svg" viewBox="0 0 36 36">
  <defs>
    <style>
      .uuid-654f4578-ed02-4287-9299-efd6a8f02f93{stroke-width:0}
    </style>
  </defs>
  <g id="uuid-18cb6c15-644d-4b74-b956-662d6d4d7b6b">
    <path class="uuid-654f4578-ed02-4287-9299-efd6a8f02f93" d="m31.304 14.677-13-7.223a.622.622 0 0 0-.608 0l-13 7.223a.624.624 0 0 0 0 1.092L8.41 17.83c-.016.055-.034.11-.034.17v5c0 .226.123.436.321.545l9 5a.624.624 0 0 0 .608 0l9-5a.624.624 0 0 0 .321-.546v-5c0-.06-.018-.114-.034-.169l3.713-2.062a.624.624 0 0 0 0-1.092Zm-4.929 7.955L18 27.285l-8.375-4.653v-4.125l8.071 4.483a.624.624 0 0 0 .608 0l8.071-4.483v4.125ZM18 21.73 6.287 15.223 18 8.715l5.053 2.808-5.357 2.976a.625.625 0 1 0 .608 1.092l6.036-3.354 5.373 2.986L18 21.73Z"/>
    <path class="uuid-654f4578-ed02-4287-9299-efd6a8f02f93" d="M29.76 18.58c.08.03.16.05.24.05.16 0 .33-.07.44-.19.06-.06.11-.12.14-.2.03-.08.04-.16.04-.24 0-.17-.06-.33-.18-.44a.653.653 0 0 0-.68-.14.67.67 0 0 0-.2.14.66.66 0 0 0-.14.2c-.03.08-.04.16-.04.24s.01.16.04.24c.03.07.08.14.14.2.06.06.13.11.2.14Zm.24.795a.625.625 0 0 0-.625.625v6a.625.625 0 0 0 1.25 0v-6a.625.625 0 0 0-.625-.625Z"/>
  </g>
</svg>
