<svg id="uuid-ca676f66-6d59-4528-a103-a66d7cffb059" xmlns="http://www.w3.org/2000/svg" viewBox="0 0 36 36">
  <defs>
    <style>
      .uuid-5fa64bce-08c4-4232-b1ae-798148dcc9cb{stroke-width:0}
    </style>
  </defs>
  <g id="uuid-0efe3ad3-33bd-46d1-833b-37529b4d3529">
    <path class="uuid-5fa64bce-08c4-4232-b1ae-798148dcc9cb" d="m32.128 25.148-28-5.856c-.336-.077-.669.145-.74.483s.146.67.484.74l28 5.856a.625.625 0 0 0 .256-1.223ZM5.05 17.443c.344 0 .624-.28.624-.625V5.625h24.75v16.784a.625.625 0 0 0 1.25 0V5a.625.625 0 0 0-.625-.625h-26A.625.625 0 0 0 4.424 5v11.818c0 .345.28.625.625.625Z"/>
    <path class="uuid-5fa64bce-08c4-4232-b1ae-798148dcc9cb" d="M17.375 8v10a.625.625 0 0 0 1.25 0V8a.625.625 0 0 0-1.25 0Zm-7 0v8a.625.625 0 0 0 1.25 0V8a.625.625 0 0 0-1.25 0Zm14 0v12a.625.625 0 0 0 1.25 0V8a.625.625 0 0 0-1.25 0Zm6.675 20.012a.625.625 0 0 0-.626.625v1.738H5.674v-6.466a.625.625 0 0 0-1.25 0V31c0 .345.28.625.625.625h26c.345 0 .625-.28.625-.625v-2.363a.625.625 0 0 0-.625-.625Z"/>
  </g>
</svg>
