<svg id="uuid-31d0ffb4-6e3c-4915-a77a-91397f595489" xmlns="http://www.w3.org/2000/svg" viewBox="0 0 36 36">
  <defs>
    <style>
      .uuid-6721be65-2ec5-41a7-89c6-132859f1429c{stroke-width:0}
    </style>
  </defs>
  <g id="uuid-2af4bf3a-20a7-4869-a7b0-91d701935dee">
    <path class="uuid-6721be65-2ec5-41a7-89c6-132859f1429c" d="M32 23.375h-6.375V9.727a.626.626 0 0 0-1.25 0v13.648h-3.75v-8.92a.626.626 0 0 0-1.25 0v8.92h-3.75V13.273a.626.626 0 0 0-1.25 0v10.102h-3.75V18a.626.626 0 0 0-1.25 0v5.375H4a.626.626 0 0 0 0 1.25h28a.626.626 0 0 0 0-1.25Z"/>
    <path class="uuid-6721be65-2ec5-41a7-89c6-132859f1429c" d="M4.95 20.988c.345 0 .625-.28.625-.625V5.625h24.75v14.738a.626.626 0 0 0 1.25 0V5a.626.626 0 0 0-.625-.625h-26A.626.626 0 0 0 4.325 5v15.363c0 .345.28.625.625.625Zm26.059 5.842c-.312.013-.63.27-.634.615l-.041 2.93H5.575v-2.92a.626.626 0 0 0-1.25 0V31c0 .345.28.625.625.625h26c.342 0 .62-.274.625-.616l.05-3.546a.626.626 0 0 0-.616-.634Z"/>
  </g>
</svg>
