<svg id="uuid-2d61a90e-89bc-43c2-8390-54ee9bca0401" xmlns="http://www.w3.org/2000/svg" viewBox="0 0 36 36">
  <defs>
    <style>
      .uuid-03554d5e-afe3-4ec0-ac7c-dc3440dc9608{stroke-width:0}
    </style>
  </defs>
  <g id="uuid-ecbd0697-8683-4399-aef9-aad6de05f23a">
    <path class="uuid-03554d5e-afe3-4ec0-ac7c-dc3440dc9608" d="M32.612 19.775a.62.62 0 0 0-.74-.483l-28 5.856a.624.624 0 1 0 .256 1.223l28-5.856a.624.624 0 0 0 .484-.74ZM4.95 23.034c.346 0 .626-.28.626-.625V5.625h24.75v11.193a.625.625 0 0 0 1.25 0V5a.625.625 0 0 0-.625-.625h-26A.625.625 0 0 0 4.326 5v17.41c0 .344.28.624.625.624Z"/>
    <path class="uuid-03554d5e-afe3-4ec0-ac7c-dc3440dc9608" d="M17.375 8v10a.625.625 0 0 0 1.25 0V8a.625.625 0 0 0-1.25 0Zm7 0v8a.625.625 0 0 0 1.25 0V8a.625.625 0 0 0-1.25 0Zm-14 0v12a.625.625 0 0 0 1.25 0V8a.625.625 0 0 0-1.25 0ZM30.95 23.284a.625.625 0 0 0-.624.625v6.466H5.576v-1.738a.625.625 0 0 0-1.25 0V31c0 .345.28.625.625.625h26c.345 0 .625-.28.625-.625v-7.09a.625.625 0 0 0-.625-.626Z"/>
  </g>
</svg>
