<svg id="uuid-2158ade5-2ee5-469d-9913-b65bac77f2e4" xmlns="http://www.w3.org/2000/svg" viewBox="0 0 36 36">
  <defs>
    <style>
      .uuid-74f04105-891f-4df9-964c-c2e25a196d9d{stroke-width:0}
    </style>
  </defs>
  <g id="uuid-999b3b44-c599-482d-98d2-16f301042f42">
    <path class="uuid-74f04105-891f-4df9-964c-c2e25a196d9d" d="M17.374 8v10a.626.626 0 0 0 1.25 0V8a.626.626 0 0 0-1.25 0Zm7 0v7a.626.626 0 0 0 1.25 0V8a.626.626 0 0 0-1.25 0Zm-14 0v12a.626.626 0 0 0 1.25 0V8a.626.626 0 0 0-1.25 0Zm20.625 9.89a.626.626 0 0 0-.625.625v11.86H5.624v-2.92a.626.626 0 0 0-1.25 0V31c0 .345.28.625.625.625h26c.345 0 .625-.28.625-.625V18.515a.626.626 0 0 0-.625-.625Z"/>
    <path class="uuid-74f04105-891f-4df9-964c-c2e25a196d9d" d="M4.999 20.988c.345 0 .625-.28.625-.625V5.625h24.75V9a.626.626 0 0 0 1.25 0V5a.626.626 0 0 0-.625-.625h-26A.626.626 0 0 0 4.374 5v15.363c0 .345.28.625.625.625Zm27.35-9.231a.624.624 0 0 0-.868.17c-2.752 4.09-9.983 11-27.495 11.344A.625.625 0 0 0 4 24.52h.013c18.075-.354 25.619-7.606 28.506-11.897a.624.624 0 0 0-.17-.867Z"/>
  </g>
</svg>
