<svg id="uuid-4a123db2-75c8-4864-8c9a-a1c8239d4551" xmlns="http://www.w3.org/2000/svg" viewBox="0 0 36 36">
  <defs>
    <style>
      .uuid-705e7e32-33ff-457b-b1d4-dde4d165daab{stroke-width:0}
    </style>
  </defs>
  <g id="uuid-3f0a9804-488d-4901-9c51-5a3707c39fbe">
    <path class="uuid-705e7e32-33ff-457b-b1d4-dde4d165daab" d="M17.375 8v10a.625.625 0 0 0 1.25 0V8a.625.625 0 0 0-1.25 0Zm-7 0v6a.625.625 0 0 0 1.25 0V8a.625.625 0 0 0-1.25 0Zm14 0v6a.625.625 0 0 0 1.25 0V8a.625.625 0 0 0-1.25 0Z"/>
    <path class="uuid-705e7e32-33ff-457b-b1d4-dde4d165daab" d="M5 21.625c.345 0 .625-.28.625-.625V5.625h24.75V10a.625.625 0 0 0 1.25 0V5A.625.625 0 0 0 31 4.375H5A.625.625 0 0 0 4.375 5v16c0 .345.28.625.625.625Zm26-5.25a.625.625 0 0 0-.625.625v13.375H5.625V28a.625.625 0 0 0-1.25 0v3c0 .345.28.625.625.625h26c.345 0 .625-.28.625-.625V17a.625.625 0 0 0-.625-.625Z"/>
    <path class="uuid-705e7e32-33ff-457b-b1d4-dde4d165daab" d="M32.442 11.558a.625.625 0 0 0-.884 0L19 24.116l-6.558-6.558a.625.625 0 0 0-.884 0l-8 8a.626.626 0 0 0 .884.884L12 18.884l6.558 6.558c.244.244.64.244.884 0l13-13a.626.626 0 0 0 0-.884Z"/>
  </g>
</svg>
