<svg id="uuid-3a26172d-df2e-4082-9de6-45d0fa3ae23d" xmlns="http://www.w3.org/2000/svg" viewBox="0 0 36 36">
  <defs>
    <style>
      .uuid-14157945-e37c-4e4a-bd23-5479a008f566{stroke-width:0}
    </style>
  </defs>
  <g id="uuid-92d5cb88-2e8b-4029-8396-c3c0cee5b635">
    <path class="uuid-14157945-e37c-4e4a-bd23-5479a008f566" d="M17.375 8v10a.626.626 0 0 0 1.25 0V8a.626.626 0 0 0-1.25 0Zm-7 0v7a.626.626 0 0 0 1.25 0V8a.626.626 0 0 0-1.25 0Zm14 0v12a.626.626 0 0 0 1.25 0V8a.626.626 0 0 0-1.25 0ZM31 26.83a.626.626 0 0 0-.625.624v2.921H5.625v-11.86a.626.626 0 0 0-1.25 0V31c0 .345.28.625.625.625h26c.345 0 .625-.28.625-.625v-3.546A.626.626 0 0 0 31 26.83Z"/>
    <path class="uuid-14157945-e37c-4e4a-bd23-5479a008f566" d="M5 9.625c.345 0 .625-.28.625-.625V5.625h24.75v14.738a.626.626 0 0 0 1.25 0V5A.626.626 0 0 0 31 4.375H5A.626.626 0 0 0 4.375 5v4c0 .345.28.625.625.625ZM32.013 23.27C14.5 22.928 7.27 16.017 4.518 11.927a.624.624 0 1 0-1.037.697c2.887 4.291 10.431 11.543 28.506 11.896H32a.625.625 0 0 0 .013-1.25Z"/>
  </g>
</svg>
