<svg id="uuid-bdad3ebd-8eeb-4bfb-a791-54bc9e84a8f0" xmlns="http://www.w3.org/2000/svg" viewBox="0 0 36 36">
  <defs>
    <style>
      .uuid-8bed2cb2-3467-4bf0-a807-555afbf2dd8f{stroke-width:0}
    </style>
  </defs>
  <g id="uuid-7010c235-15d8-40fa-942b-caa6e6bddd94">
    <path class="uuid-8bed2cb2-3467-4bf0-a807-555afbf2dd8f" d="M20 16.625h11.858c.03 0 .06-.002.089-.006.028-.004.051-.02.078-.028a.49.49 0 0 0 .113-.04.604.604 0 0 0 .1-.068.604.604 0 0 0 .087-.077.604.604 0 0 0 .066-.1.593.593 0 0 0 .052-.105.607.607 0 0 0 .024-.122c.004-.027.016-.05.016-.079 0-.015-.008-.029-.009-.044 0-.015.005-.03.003-.045-.913-6.38-6.007-11.475-12.389-12.388-.015-.002-.03.003-.044.003-.016-.002-.029-.01-.044-.01-.031 0-.058.014-.088.018-.036.006-.07.01-.104.022a.597.597 0 0 0-.127.06c-.028.018-.055.034-.08.055a.606.606 0 0 0-.089.097.588.588 0 0 0-.062.091.61.61 0 0 0-.042.12c-.007.025-.023.047-.027.074-.002.015.004.03.003.045s-.01.028-.01.044V16c0 .345.28.625.626.625Zm11.107-1.25H20.625V4.893c5.26 1.05 9.43 5.222 10.482 10.482Z"/>
    <path class="uuid-8bed2cb2-3467-4bf0-a807-555afbf2dd8f" d="M32.59 19c0-.035-.015-.065-.02-.098-.007-.043-.01-.085-.025-.125-.014-.036-.037-.066-.057-.099-.022-.035-.04-.072-.07-.102-.026-.028-.058-.048-.09-.07-.033-.025-.063-.052-.101-.07-.038-.017-.08-.023-.122-.033-.033-.007-.062-.024-.096-.026-.007 0-.013.003-.02.003-.008 0-.016-.005-.024-.005h-14.34V4.035c0-.007-.004-.014-.004-.021 0-.008.003-.015.003-.023-.003-.037-.02-.068-.028-.102-.01-.04-.015-.079-.032-.114-.019-.042-.047-.076-.075-.112-.02-.027-.037-.056-.062-.08-.034-.032-.075-.054-.116-.078-.029-.017-.054-.037-.085-.05-.04-.015-.085-.018-.13-.025-.032-.006-.061-.02-.096-.02-.008 0-.015.005-.023.005-.007 0-.013-.003-.02-.003C9.34 3.95 3.374 10.358 3.374 18c0 8.065 6.56 14.625 14.625 14.625 7.643 0 14.05-5.966 14.589-13.58 0-.009-.004-.016-.003-.023 0-.008.004-.014.004-.022ZM18 31.375c-7.375 0-13.375-6-13.375-13.375 0-6.762 5.111-12.452 11.75-13.262V19c0 .345.28.625.625.625h14.26c-.808 6.639-6.498 11.75-13.261 11.75Z"/>
  </g>
</svg>
