<svg xmlns="http://www.w3.org/2000/svg" viewBox="0 0 36 36">
  <path d="M28.07 17.73c.37-.47.6-1.06.6-1.7 0-1.52-1.24-2.76-2.76-2.76h-4.33c1.31-1.69 2.03-4.34 1.86-6.1-.1-1.01-.62-1.88-1.42-2.38-.73-.45-1.59-.54-2.37-.25-.86.33-1.44 1.13-1.55 2.13-.02.14-.03.27-.04.41-.05.72-.1 1.05-.7 1.4l-6.38 4.57a10.106 10.106 0 0 0-2.96 2.73c-.4.55-.74 1.15-1.02 1.76-.28.63-.5 1.29-.64 1.97-.15.69-.22 1.4-.22 2.11 0 5.51 4.49 10 10 10h7.39c1.52 0 2.76-1.24 2.76-2.76 0-.57-.17-1.1-.47-1.54 1.42-.12 2.54-1.29 2.54-2.74 0-.61-.21-1.17-.54-1.63a2.76 2.76 0 0 0 2.02-2.65c0-1.18-.74-2.18-1.78-2.58l.01.01Zm-.65-1.7c0 .83-.68 1.51-1.51 1.51h-7.33c-.83 0-1.51-.68-1.51-1.51s.68-1.51 1.51-1.51h7.33c.83 0 1.51.68 1.51 1.51ZM7.39 21.62a8.88 8.88 0 0 1 .76-3.57c.24-.54.54-1.06.89-1.54s.74-.92 1.17-1.32c.44-.4.91-.76 1.46-1.09l6.37-4.56c1.14-.66 1.21-1.6 1.27-2.35 0-.12.02-.24.03-.36.06-.53.34-.95.76-1.1.4-.15.86-.1 1.26.14.47.29.77.81.84 1.44.17 1.74-.76 4.69-2.22 5.88-.03.03-.05.07-.08.1h-1.31c-1.52 0-2.76 1.24-2.76 2.76 0 .87.41 1.63 1.03 2.14-.63.51-1.03 1.27-1.03 2.14s.41 1.63 1.03 2.14c-.63.51-1.03 1.27-1.03 2.14s.41 1.63 1.03 2.14c-.63.51-1.03 1.27-1.03 2.14 0 .56.17 1.08.46 1.51h-.13c-4.83 0-8.75-3.93-8.75-8.75l-.02-.03Zm16.15 8.75h-4.97c-.83 0-1.51-.68-1.51-1.51s.68-1.51 1.51-1.51h4.97c.83 0 1.51.68 1.51 1.51s-.68 1.51-1.51 1.51Zm2.07-4.28h-7.03c-.83 0-1.51-.68-1.51-1.51s.68-1.51 1.51-1.51h7.03c.83 0 1.51.68 1.51 1.51s-.68 1.51-1.51 1.51Zm1.48-4.28h-8.51c-.83 0-1.51-.68-1.51-1.51s.68-1.51 1.51-1.51h8.51c.83 0 1.51.68 1.51 1.51s-.68 1.51-1.51 1.51Z"/>
</svg>
