<svg id="uuid-16c85762-951e-4adf-b084-86111dded84d" xmlns="http://www.w3.org/2000/svg" viewBox="0 0 36 36">
  <defs>
    <style>
      .uuid-3e35de00-9845-437b-b723-b12ab01999f7{stroke-width:0}
    </style>
  </defs>
  <g id="uuid-e7027ecb-3c64-4646-a408-e66843274088">
    <path class="uuid-3e35de00-9845-437b-b723-b12ab01999f7" d="M21 13.375h-6A3.629 3.629 0 0 0 11.375 17v11A3.629 3.629 0 0 0 15 31.625h6A3.629 3.629 0 0 0 24.625 28V17A3.629 3.629 0 0 0 21 13.375ZM23.375 28A2.378 2.378 0 0 1 21 30.375h-6A2.378 2.378 0 0 1 12.625 28V17A2.378 2.378 0 0 1 15 14.625h6A2.378 2.378 0 0 1 23.375 17v11ZM11.999 6.263a.6.6 0 0 0 .13-.014l2.937-.624h2.309v2.75H15a.626.626 0 0 0-.625.625v3c0 .345.28.625.625.625h6c.345 0 .625-.28.625-.625V9A.626.626 0 0 0 21 8.375h-2.375v-2.75H21a.626.626 0 0 0 0-1.25h-6c-.022 0-.04.01-.062.013-.023.002-.045-.004-.068 0l-3 .638A.624.624 0 0 0 12 6.263h-.001Zm8.376 5.112h-4.75v-1.75h4.75v1.75Z"/>
    <path class="uuid-3e35de00-9845-437b-b723-b12ab01999f7" d="M20 21.375h-1.375V20a.626.626 0 0 0-1.25 0v1.375H16a.626.626 0 0 0 0 1.25h1.375V24a.626.626 0 0 0 1.25 0v-1.375H20a.626.626 0 0 0 0-1.25Z"/>
  </g>
</svg>
