<svg xmlns="http://www.w3.org/2000/svg" viewBox="0 0 36 36">
  <path d="M29.62 20v-3c0-1.72-.78-3.26-2-4.29V9.5c0-1.72-1.4-3.12-3.12-3.12-1.03 0-1.93.5-2.5 1.27a3.096 3.096 0 0 0-5 0 3.096 3.096 0 0 0-5 0 3.096 3.096 0 0 0-2.5-1.27c-1.72 0-3.12 1.4-3.12 3.12V20c0 6.41 5.21 11.62 11.62 11.62S29.62 26.41 29.62 20ZM24.5 7.62c1.03 0 1.88.84 1.88 1.88v2.41c-.72-.34-1.53-.53-2.38-.53h-1.38V9.5c0-1.03.84-1.88 1.88-1.88Zm-5 0c1.03 0 1.88.84 1.88 1.88v1.88h-3.75V9.5c0-1.03.84-1.88 1.88-1.88h-.01Zm-5 0c1.03 0 1.88.84 1.88 1.88v1.88H16c-1.72 0-3.12 1.4-3.12 3.12s1.4 3.12 3.12 3.12h.36c-.07.97-.87 1.75-1.86 1.75s-1.88-.84-1.88-1.88V9.5c0-1.03.84-1.88 1.88-1.88ZM7.62 9.5c0-1.03.84-1.88 1.88-1.88s1.88.84 1.88 1.88v8c0 1.03-.84 1.88-1.88 1.88s-1.88-.84-1.88-1.88v-8ZM18 30.38c-5.72 0-10.38-4.65-10.38-10.38v-.02c.52.4 1.17.64 1.88.64 1.03 0 1.93-.5 2.5-1.27.57.77 1.47 1.27 2.5 1.27 1.68 0 3.05-1.34 3.11-3h.8c.31 2.81 2.7 5 5.59 5 .34 0 .62-.28.62-.62s-.28-.62-.62-.62c-2.2 0-4.01-1.64-4.31-3.75H21c.34 0 .62-.28.62-.62s-.28-.62-.62-.62h-5c-1.03 0-1.88-.84-1.88-1.88s.84-1.88 1.88-1.88h8c2.41 0 4.38 1.96 4.38 4.38v3c0 5.72-4.65 10.38-10.38 10.38v-.01Z"/>
</svg>
