<svg id="uuid-ff1eb880-6792-4314-834e-dee7b31fc521" xmlns="http://www.w3.org/2000/svg" viewBox="0 0 36 36">
  <defs>
    <style>
      .uuid-ae337b1a-b4c3-494f-b1d1-6cdbcb45a2d3{stroke-width:0}
    </style>
  </defs>
  <path class="uuid-ae337b1a-b4c3-494f-b1d1-6cdbcb45a2d3" d="M27.11 16.586c-.184 1.277-.393 2.724-.39 3.677.012 3.798-2.421 7.139-5.92 8.123a8.15 8.15 0 0 1-6.487-.872 8.136 8.136 0 0 1-3.787-5.322l-1.653-7.78a1.134 1.134 0 0 1 .16-.86c.165-.256.421-.432.72-.495a1.138 1.138 0 0 1 1.354.879l1.103 5.187a.625.625 0 1 0 1.222-.26l-1.836-8.644a1.144 1.144 0 0 1 .88-1.355 1.144 1.144 0 0 1 1.354.877l1.838 8.647a.625.625 0 0 0 1.223-.26l-1.837-8.644-.003-.007-.182-.857a1.145 1.145 0 0 1 1.74-1.196c.256.166.432.422.495.72l2.022 9.51a.625.625 0 0 0 1.223-.26L18.51 8.748a1.143 1.143 0 0 1 2.235-.474l2.389 11.238c.062.293.31.478.623.495a.626.626 0 0 0 .604-.519l.816-4.726c.036-.32.21-.604.478-.781a1.07 1.07 0 0 1 .906-.134c.498.149.819.628.763 1.14-.048.435-.129.996-.216 1.6Zm-.19-3.937a2.324 2.324 0 0 0-1.953.289 2.302 2.302 0 0 0-1.027 1.647l-.257 1.493-1.714-8.064a2.396 2.396 0 0 0-2.838-1.843c-.51.109-.944.378-1.27.738a2.386 2.386 0 0 0-.571-.534 2.381 2.381 0 0 0-3.614 1.426 2.392 2.392 0 0 0-1.46-.16 2.38 2.38 0 0 0-1.51 1.037 2.38 2.38 0 0 0-.333 1.8l.3 1.413a2.361 2.361 0 0 0-2.69.98 2.378 2.378 0 0 0-.333 1.8l1.654 7.78a9.497 9.497 0 0 0 4.363 6.132 9.377 9.377 0 0 0 4.87 1.369c.865 0 1.739-.12 2.6-.363 4.039-1.136 6.848-4.972 6.833-9.33-.003-.861.2-2.26.377-3.494.09-.62.173-1.196.22-1.643a2.319 2.319 0 0 0-1.647-2.473Zm-.712-5.982a.625.625 0 0 0-.416 1.179 3.895 3.895 0 0 1 2.56 3.223.624.624 0 1 0 1.242-.137 5.15 5.15 0 0 0-3.386-4.265Z"/>
  <path class="uuid-ae337b1a-b4c3-494f-b1d1-6cdbcb45a2d3" d="M27.24 4.922a.624.624 0 1 0-.48 1.153 5.85 5.85 0 0 1 3.598 4.973.624.624 0 1 0 1.247-.095 7.09 7.09 0 0 0-4.365-6.031ZM10.208 28.155a3.895 3.895 0 0 1-2.56-3.224.624.624 0 1 0-1.242.138 5.15 5.15 0 0 0 3.386 4.265.625.625 0 1 0 .416-1.179Z"/>
  <path class="uuid-ae337b1a-b4c3-494f-b1d1-6cdbcb45a2d3" d="M9.24 29.926a5.85 5.85 0 0 1-3.598-4.973.624.624 0 1 0-1.246.095 7.09 7.09 0 0 0 4.364 6.03.626.626 0 0 0 .817-.336.625.625 0 0 0-.337-.816Z"/>
</svg>
