<svg xmlns="http://www.w3.org/2000/svg" viewBox="0 0 36 36">
  <path d="M28.06 14.37c-.67-.36-1.46-.41-2.16-.14-.71.28-1.25.85-1.48 1.54l-.79 1.99V8c0-1.45-1.18-2.62-2.62-2.62-.61 0-1.16.22-1.6.56a2.626 2.626 0 0 0-4.8 0c-.45-.35-1-.56-1.6-.56-1.45 0-2.62 1.18-2.62 2.62v1.77c-.4-.25-.87-.4-1.38-.4-1.45 0-2.62 1.18-2.62 2.62v9c0 2.93 1.22 5.75 3.36 7.75 1.99 1.87 4.54 2.87 7.26 2.87.24 0 .48 0 .71-.02 4.7-.3 8.68-3.86 9.68-8.65.2-.96.76-2.47 1.25-3.8.24-.66.47-1.27.62-1.75.38-1.17-.12-2.44-1.2-3.03l-.01.01Zm.02 2.64c-.15.47-.37 1.06-.61 1.71-.51 1.37-1.08 2.93-1.3 3.98-.89 4.24-4.4 7.4-8.54 7.66-2.62.17-5.12-.72-7.04-2.51a9.281 9.281 0 0 1-2.96-6.84V12c0-.76.62-1.38 1.38-1.38s1.38.62 1.38 1.38v6c0 .35.28.62.62.62s.62-.28.62-.62V8c0-.76.62-1.38 1.38-1.38s1.38.62 1.38 1.38v10c0 .35.28.62.62.62s.62-.28.62-.62V7c0-.76.62-1.38 1.38-1.38s1.38.62 1.38 1.38v11c0 .35.28.62.62.62s.62-.28.62-.62V8c0-.76.62-1.38 1.38-1.38s1.38.62 1.38 1.38v13c0 .3.21.56.51.61.3.06.59-.1.7-.38l2.01-5.03c.12-.37.4-.66.76-.8s.76-.12 1.1.07c.55.3.81.95.61 1.54Z"/>
</svg>
