<svg xmlns="http://www.w3.org/2000/svg" viewBox="0 0 36 36">
  <path d="M29.23 13.83H16.45C18.18 12.52 20 10.76 20 9.14c0-1.32-1.08-2.4-2.4-2.4-.77 0-1.5.38-1.95 1.01v.02c-.55.75-1.43 1.24-2.43 1.34h-.02c-5.02.63-8.81 4.96-8.81 10.07 0 5.56 4.52 10.08 10.08 10.08h4.73c.29 0 .55-.2.61-.49l2.25-10.15h7.18c1.32 0 2.4-1.08 2.4-2.4s-1.08-2.4-2.4-2.4l-.01.01Zm0 3.55h-7.68c-.29 0-.55.2-.61.49l-2.25 10.15h-4.23c-4.87 0-8.83-3.96-8.83-8.83 0-4.49 3.32-8.29 7.72-8.83.01 0 .02 0 .03-.01 1.34-.15 2.54-.83 3.28-1.86v-.02c.22-.29.56-.47.92-.47.63 0 1.15.51 1.15 1.15 0 1.34-2.49 3.42-4.63 4.79-.23.15-.34.44-.26.7s.32.45.6.45h14.77a1.15 1.15 0 0 1 0 2.3l.02-.01Z"/>
</svg>
