<svg xmlns="http://www.w3.org/2000/svg" viewBox="0 0 36 36">
  <path d="M26.08 4.71c-2.44-.8-5.05-.61-7.34.55-.27.13-.52.28-.78.43-3.72-2.24-8.62-1.77-11.83 1.43-3.77 3.77-3.77 9.9 0 13.67-.06.72.16 1.46.69 2.02.52.56 1.22.84 1.93.84.06 0 .13-.01.19-.02-.08.76.16 1.55.74 2.13.51.51 1.19.77 1.86.77.04 0 .08 0 .12-.01-.1.84.2 1.72.89 2.32.5.43 1.11.64 1.72.64.32 0 .64-.07.94-.18.08.65.38 1.24.88 1.67s1.12.65 1.73.65c.72 0 1.43-.3 1.95-.86 0 0 .01 0 .02-.01l9.94-9.94c3.07-2.95 3.85-7.49 1.92-11.29-1.16-2.3-3.15-4-5.59-4.8l.02-.01ZM7.01 8.01c3.28-3.28 8.62-3.28 11.9 0l4.61 4.61c.26.27.41.62.4.99a1.391 1.391 0 0 1-2.32 1.03.21.21 0 0 0-.04-.06l-4.61-4.61a.596.596 0 0 0-.21-.14.607.607 0 0 0-.42 0h-.05c-.01 0-.02.01-.03.02-.06.03-.13.07-.18.12-1.72 1.73-4.53 1.72-6.25 0-.24-.24-.64-.24-.88 0s-.24.64 0 .88a5.63 5.63 0 0 0 4.01 1.66c.22 0 .43-.04.64-.06L6.82 19.2c-.08.08-.14.17-.2.26-2.88-3.3-2.75-8.33.39-11.47v.02Zm21.85 11.9-9.95 9.95s0 .01-.01.02c0 0-.01 0-.02.01-.5.58-1.38.64-1.96.14-.28-.24-.45-.58-.47-.95-.03-.37.09-.73.31-.97l.12-.12.08-.08 2.84-2.84c.24-.24.24-.64 0-.88s-.64-.24-.88 0l-3.55 3.55s0 .01-.01.02-.01 0-.02.01c-.5.58-1.38.65-1.96.14-.58-.5-.64-1.38-.17-1.93l.2-.2 3.56-3.56c.24-.24.24-.64 0-.88s-.64-.24-.88 0l-3.56 3.56c-.52.52-1.43.52-1.95 0-.26-.26-.4-.61-.4-.98s.14-.71.4-.98l3.55-3.56c.24-.24.24-.64 0-.88s-.64-.24-.88 0l-3.53 3.54a1.39 1.39 0 0 1-1.96-1.97l8.79-8.78 4.04 4.04s.05.09.09.13c.52.52 1.2.79 1.89.79s1.35-.25 1.86-.76c.5-.5.78-1.16.79-1.87 0-.71-.27-1.38-.77-1.88l-4.96-4.96s-.09-.07-.14-.09c-.07-.06-.14-.13-.22-.19.07-.03.13-.08.2-.11 2-1.01 4.27-1.18 6.4-.48 2.13.7 3.85 2.18 4.86 4.18a8.34 8.34 0 0 1-1.68 9.83l-.05-.01Z"/>
</svg>
