<svg id="uuid-30d33a7e-9d1e-49a8-a9c4-b12090641335" xmlns="http://www.w3.org/2000/svg" viewBox="0 0 36 36">
  <defs>
    <style>
      .uuid-7b54f959-766b-423d-ad66-3b03d5ea1730{stroke-width:0}
    </style>
  </defs>
  <g id="uuid-32e2e112-6261-4757-9499-4c7277e728e5">
    <path class="uuid-7b54f959-766b-423d-ad66-3b03d5ea1730" d="M32.588 18.182a.595.595 0 0 0 .025-.124c.002-.02.012-.037.012-.058 0-8.064-6.56-14.625-14.625-14.625S3.375 9.935 3.375 18c0 .02.01.038.012.058a.593.593 0 0 0 .068.23.604.604 0 0 0 .147.183.606.606 0 0 0 .213.116c.02.007.035.02.055.024l11 2.338a.625.625 0 0 0 .26-1.223L11.707 19a6.4 6.4 0 0 1 5.668-5.343V16a.625.625 0 0 0 1.25 0v-2.344A6.4 6.4 0 0 1 24.293 19l-3.423.728a.624.624 0 1 0 .26 1.222l11-2.338c.02-.004.035-.017.055-.024a.602.602 0 0 0 .293-.198.604.604 0 0 0 .11-.207ZM18 12.375c-3.74 0-6.913 2.743-7.52 6.363L4.65 17.5C4.917 10.357 10.794 4.625 18 4.625s13.083 5.732 13.35 12.874l-5.83 1.24c-.606-3.621-3.78-6.364-7.52-6.364Z"/>
    <path class="uuid-7b54f959-766b-423d-ad66-3b03d5ea1730" d="M18 6.375a.625.625 0 0 0-.625.625v3a.625.625 0 0 0 1.25 0V7A.625.625 0 0 0 18 6.375Zm5.558 2.183-2 2a.626.626 0 0 0 .884.884l2-2a.626.626 0 0 0-.884-.884Zm-11.116 0a.625.625 0 1 0-.884.884l2 2a.622.622 0 0 0 .884 0 .626.626 0 0 0 0-.884l-2-2ZM18 21.63c.16 0 .32-.07.44-.19a.66.66 0 0 0 .14-.2c.03-.08.04-.16.04-.24s-.01-.16-.04-.24a.56.56 0 0 0-.14-.2.565.565 0 0 0-.2-.14.657.657 0 0 0-.48 0 .67.67 0 0 0-.2.14.66.66 0 0 0-.14.2c-.03.08-.05.16-.05.24 0 .16.07.32.19.44s.28.19.44.19Zm0 1.745a.625.625 0 0 0-.625.625v8a.625.625 0 0 0 1.25 0v-8a.625.625 0 0 0-.625-.625Z"/>
  </g>
</svg>
