<svg xmlns="http://www.w3.org/2000/svg" viewBox="0 0 36 36">
  <path d="M31.357 17.666a.607.607 0 0 0-.348-.101c-.02-.002-.036-.011-.056-.011h-7.59a9.767 9.767 0 0 0-11.934-5.977.598.598 0 0 0-.066.017c-4.037 1.214-6.988 4.961-6.988 9.388 0 1.503.332 2.948.986 4.291.004.007.011.01.015.017a.613.613 0 0 0 .202.223c.017.012.034.02.052.03a.62.62 0 0 0 .292.082h.001a.59.59 0 0 0 .13-.014l12.687-2.696c1.098.341 2.24.52 3.398.52a11.43 11.43 0 0 0 9.374-4.899.625.625 0 0 0-.155-.87Zm-9.166.363-2.967 2.968c-1.2-4.83-4.02-7.356-5.83-8.53a8.51 8.51 0 0 1 8.797 5.563Zm-11.069 5.227c-2.052-5.623-.133-9.201.624-10.3 1.28.627 5.087 2.958 6.363 8.815l-6.987 1.485Zm-1.125-9.729c-.897 1.906-1.758 5.317-.102 9.99l-3.597.764a8.48 8.48 0 0 1-.673-3.299c0-3.198 1.767-5.987 4.372-7.455ZM20.03 21.96l3.154-3.155h6.524a10.178 10.178 0 0 1-7.57 3.381c-.713 0-1.417-.08-2.108-.226Zm-9.47-11.52c.06.06.13.11.2.14.08.03.16.05.24.05s.16-.02.24-.05c.08-.03.14-.08.2-.14.06-.06.11-.12.14-.2.03-.08.05-.16.05-.24s-.02-.16-.05-.24a.553.553 0 0 0-.14-.2.627.627 0 0 0-.88 0c-.06.06-.1.12-.14.2-.03.08-.04.16-.04.24s.01.16.04.24c.04.08.08.14.14.2Z"/>
</svg>
