<svg id="uuid-7c0ced76-0a84-4189-8c09-e2b8843e8d14" xmlns="http://www.w3.org/2000/svg" viewBox="0 0 36 36">
  <defs>
    <style>
      .uuid-4c541115-ef51-4af3-ba8f-5144641d0444{stroke-width:0}
    </style>
  </defs>
  <g id="uuid-1edddccd-f79c-494f-8d40-1fc4dfd9c1b6">
    <path class="uuid-4c541115-ef51-4af3-ba8f-5144641d0444" d="M9 20.375H8A2.628 2.628 0 0 0 5.375 23v6A2.628 2.628 0 0 0 8 31.625h1A2.628 2.628 0 0 0 11.625 29v-6A2.628 2.628 0 0 0 9 20.375ZM10.375 29c0 .758-.617 1.375-1.375 1.375H8A1.377 1.377 0 0 1 6.625 29v-6c0-.758.617-1.375 1.375-1.375h1c.758 0 1.375.617 1.375 1.375v6ZM28 20.375h-1A2.628 2.628 0 0 0 24.375 23v6A2.628 2.628 0 0 0 27 31.625h1A2.628 2.628 0 0 0 30.625 29v-6A2.628 2.628 0 0 0 28 20.375ZM29.375 29c0 .758-.617 1.375-1.375 1.375h-1A1.377 1.377 0 0 1 25.625 29v-6c0-.758.617-1.375 1.375-1.375h1c.758 0 1.375.617 1.375 1.375v6Z"/>
    <path class="uuid-4c541115-ef51-4af3-ba8f-5144641d0444" d="M18 3.375C9.935 3.375 3.375 9.935 3.375 18v8a.626.626 0 0 0 1.25 0v-8c0-7.375 6-13.375 13.375-13.375s13.375 6 13.375 13.375v8a.626.626 0 0 0 1.25 0v-8c0-8.065-6.56-14.625-14.625-14.625Z"/>
  </g>
</svg>
