<svg id="uuid-5f23145f-6c4b-4d07-9cc4-bf9a99be7285" xmlns="http://www.w3.org/2000/svg" viewBox="0 0 36 36">
  <defs>
    <style>
      .uuid-c87c6877-2f96-4dfa-b55f-50c2e085e93a{stroke-width:0}
    </style>
  </defs>
  <g id="uuid-e3fe0375-130a-424c-9f68-72ab3cafcfb6">
    <path class="uuid-c87c6877-2f96-4dfa-b55f-50c2e085e93a" d="M23.93 6.38c-2.06 0-3.99.8-5.44 2.25l-.49.49-.49-.49a7.656 7.656 0 0 0-5.44-2.25c-4.24 0-7.7 3.45-7.7 7.7 0 2.06.8 3.99 2.25 5.44l10.93 10.93c.12.12.28.18.44.18s.32-.06.44-.18l9-9c.24-.24.24-.64 0-.88s-.64-.24-.88 0l-8.56 8.56-10.48-10.5a6.407 6.407 0 0 1-1.89-4.56c0-3.55 2.89-6.45 6.45-6.45 1.72 0 3.34.67 4.56 1.89l.93.93c.24.24.64.24.88 0l.93-.93a6.407 6.407 0 0 1 4.56-1.89c3.55 0 6.45 2.89 6.45 6.45 0 .34.28.62.62.62s.62-.28.62-.62c0-4.24-3.45-7.7-7.7-7.7l.01.01Z"/>
    <path class="uuid-c87c6877-2f96-4dfa-b55f-50c2e085e93a" d="M31 16.38h-4c-.17 0-.32.07-.44.18l-1.42 1.42-3.59-6.29c-.11-.19-.31-.31-.54-.31s-.43.11-.54.3l-2.82 4.7H16c-.35 0-.62.28-.62.62s.28.62.62.62h2c.22 0 .42-.12.54-.3l2.45-4.08 3.47 6.07c.1.17.27.28.46.31H25c.16 0 .32-.07.44-.18l1.82-1.82H31c.35 0 .62-.28.62-.62s-.28-.62-.62-.62Z"/>
  </g>
</svg>
