<svg xmlns="http://www.w3.org/2000/svg" viewBox="0 0 36 36">
  <path d="M28.625 24.438V18a.625.625 0 0 0-.625-.625h-9.375v-5.813c1.7-.298 3-1.777 3-3.562 0-1.999-1.626-3.625-3.625-3.625S14.375 6.001 14.375 8c0 1.785 1.3 3.264 3 3.562v5.813H8a.625.625 0 0 0-.625.625v6.438c-1.7.298-3 1.777-3 3.562 0 1.999 1.626 3.625 3.625 3.625s3.625-1.626 3.625-3.625c0-1.785-1.3-3.264-3-3.562v-5.813h8.75v5.813c-1.7.298-3 1.777-3 3.562 0 1.999 1.626 3.625 3.625 3.625s3.625-1.626 3.625-3.625c0-1.785-1.3-3.264-3-3.562v-5.813h8.75v5.813c-1.7.298-3 1.777-3 3.562 0 1.999 1.626 3.625 3.625 3.625s3.625-1.626 3.625-3.625c0-1.785-1.3-3.264-3-3.562ZM15.625 8c0-1.31 1.065-2.375 2.375-2.375S20.375 6.69 20.375 8 19.31 10.375 18 10.375 15.625 9.31 15.625 8Zm-5.25 20c0 1.31-1.065 2.375-2.375 2.375S5.625 29.31 5.625 28 6.69 25.625 8 25.625 10.375 26.69 10.375 28Zm10 0c0 1.31-1.065 2.375-2.375 2.375S15.625 29.31 15.625 28 16.69 25.625 18 25.625 20.375 26.69 20.375 28ZM28 30.375c-1.31 0-2.375-1.065-2.375-2.375S26.69 25.625 28 25.625 30.375 26.69 30.375 28 29.31 30.375 28 30.375Z"/>
</svg>
