<svg id="uuid-2a245900-8519-43a1-bac3-8884603acdef" xmlns="http://www.w3.org/2000/svg" viewBox="0 0 36 36">
  <defs>
    <style>
      .uuid-3cace83b-e6a3-4cee-8476-77c7ffb26014{stroke-width:0}
    </style>
  </defs>
  <path class="uuid-3cace83b-e6a3-4cee-8476-77c7ffb26014" d="m5.3 12.55 1.08-.58V15c0 .35.28.62.62.62s.62-.28.62-.62v-3.7L18 5.71l12.7 6.84c.09.05.2.07.3.07.22 0 .44-.12.55-.33.16-.3.05-.68-.25-.85l-4.67-2.52V5.99c0-.35-.28-.62-.62-.62s-.62.28-.62.62v2.26l-7.08-3.81c-.19-.1-.41-.1-.59 0L4.7 11.45c-.3.16-.42.54-.25.85.16.3.54.42.85.25Z"/>
  <path class="uuid-3cace83b-e6a3-4cee-8476-77c7ffb26014" d="M31 30.38h-1.38V14c0-.35-.28-.62-.62-.62s-.62.28-.62.62v16.38h-1.75V21c0-.35-.28-.62-.62-.62h-6c-.35 0-.62.28-.62.62v9.38H7.62V18.3l7.67-4.13c.3-.16.42-.54.25-.85a.623.623 0 0 0-.85-.25l-10 5.38c-.3.16-.42.54-.25.85.11.21.33.33.55.33.1 0 .2-.02.3-.07l1.08-.58v11.41H4.99c-.35 0-.62.28-.62.62s.28.62.62.62H31c.35 0 .62-.28.62-.62s-.28-.62-.62-.62v-.01Zm-5.62 0h-4.75v-8.75h4.75v8.75Z"/>
  <path class="uuid-3cace83b-e6a3-4cee-8476-77c7ffb26014" d="M10 20.38c-.35 0-.62.28-.62.62v5c0 .35.28.62.62.62h7c.35 0 .62-.28.62-.62v-5c0-.35-.28-.62-.62-.62h-7Zm6.38 5h-5.75v-3.75h5.75v3.75Z"/>
</svg>
