<svg id="uuid-2eeadcd5-c756-4080-9039-8e6dfe14b5b5" xmlns="http://www.w3.org/2000/svg" viewBox="0 0 36 36">
  <defs>
    <style>
      .uuid-35bf2643-28a9-49cd-8355-fd8723c3209b{stroke-width:0}
    </style>
  </defs>
  <g id="uuid-a7b5eb08-3363-4562-be26-61bbb440a543">
    <path class="uuid-35bf2643-28a9-49cd-8355-fd8723c3209b" d="M27 30.375h-1.375v-4.133c0-.954-.386-1.888-1.061-2.563L18.884 18l5.68-5.679a3.652 3.652 0 0 0 1.061-2.563V5.625H27a.626.626 0 0 0 0-1.25H9a.626.626 0 0 0 0 1.25h1.375v4.133a3.66 3.66 0 0 0 1.06 2.563L17.116 18l-5.68 5.679a3.654 3.654 0 0 0-1.06 2.563v4.133H9a.626.626 0 0 0 0 1.25h18a.626.626 0 0 0 0-1.25Zm-2.625-24.75v2.75h-12.75v-2.75h12.75Zm-12.054 5.812a2.386 2.386 0 0 1-.696-1.68v-.132h12.75v.133c0 .056-.002.112-.006.168l-.004.058a2.395 2.395 0 0 1-.688 1.454L18 17.115l-5.68-5.679Zm-.696 14.805c0-.626.253-1.237.696-1.679L18 18.886l5.679 5.679c.442.44.696 1.053.696 1.678v4.133h-12.75v-4.133Z"/>
    <path class="uuid-35bf2643-28a9-49cd-8355-fd8723c3209b" d="M18.446 22.56a.785.785 0 0 0-.21-.14.633.633 0 0 0-.471 0 .77.77 0 0 0-.21.14.88.88 0 0 0-.13.2c-.03.08-.05.16-.05.24s.02.16.05.24a.597.597 0 0 0 .34.34c.07.03.15.05.24.05.08 0 .16-.02.23-.05a.599.599 0 0 0 .34-.34c.03-.08.05-.16.05-.24s-.02-.16-.05-.24a.881.881 0 0 0-.13-.2Z"/>
  </g>
</svg>
