<svg id="uuid-d8a31fd3-c8b7-46a1-adfe-2432aab94c67" xmlns="http://www.w3.org/2000/svg" viewBox="0 0 36 36">
  <defs>
    <style>
      .uuid-6243430c-40ae-4c70-aecf-6f762e88b2e4{stroke-width:0}
    </style>
  </defs>
  <g id="uuid-87b756b2-57da-4aee-a5c2-0ac247da28b7">
    <path class="uuid-6243430c-40ae-4c70-aecf-6f762e88b2e4" d="M31 25.375H5a.625.625 0 0 0 0 1.25h1.375V29c0 .896.729 1.625 1.625 1.625h2c.896 0 1.625-.729 1.625-1.625v-2.375h12.75V29c0 .896.729 1.625 1.625 1.625h2c.896 0 1.625-.729 1.625-1.625v-2.375H31a.625.625 0 0 0 0-1.25ZM10.375 29a.375.375 0 0 1-.375.375H8A.375.375 0 0 1 7.625 29v-2.375h2.75V29Zm18 0a.375.375 0 0 1-.375.375h-2a.375.375 0 0 1-.375-.375v-2.375h2.75V29ZM18 19.375a.625.625 0 0 0-.625.625v2a.625.625 0 0 0 1.25 0v-2a.625.625 0 0 0-.625-.625Zm2 0a.625.625 0 0 0-.625.625v2a.625.625 0 0 0 1.25 0v-2a.625.625 0 0 0-.625-.625Zm-4 0a.625.625 0 0 0-.625.625v2a.625.625 0 0 0 1.25 0v-2a.625.625 0 0 0-.625-.625Zm7.5-1c-1.172 0-2.125.953-2.125 2.125s.953 2.125 2.125 2.125 2.125-.953 2.125-2.125-.953-2.125-2.125-2.125Zm0 3a.876.876 0 0 1 0-1.75.876.876 0 0 1 0 1.75Zm-11-3c-1.172 0-2.125.953-2.125 2.125s.953 2.125 2.125 2.125 2.125-.953 2.125-2.125-.953-2.125-2.125-2.125Zm0 3a.876.876 0 0 1 0-1.75.876.876 0 0 1 0 1.75Z"/>
    <path class="uuid-6243430c-40ae-4c70-aecf-6f762e88b2e4" d="M29.625 12.459V6A.625.625 0 0 0 29 5.375H7A.625.625 0 0 0 6.375 6v6.459c-1.145.282-2 1.31-2 2.541v8c0 .345.28.625.625.625h3.375V24c0 .345.28.625.625.625h18c.345 0 .625-.28.625-.625v-.375H31c.345 0 .625-.28.625-.625v-8c0-1.23-.855-2.26-2-2.542Zm-1.25-5.834v5.75H7.625v-5.75h20.75Zm-2 16.75H9.625v-5.75h16.75v5.75Zm4-1h-2.75V17a.625.625 0 0 0-.625-.625H9a.625.625 0 0 0-.625.625v5.375h-2.75V15c0-.758.617-1.375 1.375-1.375h22c.758 0 1.375.617 1.375 1.375v7.375Z"/>
    <path class="uuid-6243430c-40ae-4c70-aecf-6f762e88b2e4" d="M18 11.625c.345 0 .625-.28.625-.625V8a.625.625 0 0 0-1.25 0v3c0 .345.28.625.625.625Zm13-2.25a.625.625 0 0 0-.625.625v1a.625.625 0 0 0 1.25 0v-1A.625.625 0 0 0 31 9.375Zm-26 2.25c.345 0 .625-.28.625-.625v-1a.625.625 0 0 0-1.25 0v1c0 .345.28.625.625.625Zm24.44 7.935a.567.567 0 0 0-.2-.14.652.652 0 0 0-.82.34c-.03.08-.04.16-.04.24 0 .17.06.33.18.44.12.12.28.19.44.19.16 0 .32-.07.44-.19s.19-.28.19-.44c0-.08-.02-.16-.05-.24a.659.659 0 0 0-.14-.2Zm-22 0a.567.567 0 0 0-.2-.14.652.652 0 0 0-.82.34c-.03.08-.04.16-.04.24 0 .17.06.33.18.44.12.12.28.19.44.19.16 0 .32-.07.44-.19s.19-.28.19-.44c0-.08-.02-.16-.05-.24a.659.659 0 0 0-.14-.2Z"/>
  </g>
</svg>
