<svg xmlns="http://www.w3.org/2000/svg" viewBox="0 0 36 36">
  <path d="M10.5 25.625H28c.092 0 .18-.02.26-.056a5.133 5.133 0 0 0 4.365-5.069 5.098 5.098 0 0 0-4-4.978V15.5c0-5.032-4.093-9.125-9.125-9.125a9.125 9.125 0 0 0-8.164 5.052c-4.344-.522-7.961 2.872-7.961 7.073a7.133 7.133 0 0 0 7.125 7.125Zm0-13c.351 0 .717.035 1.089.105a.625.625 0 0 0 .688-.365 7.875 7.875 0 0 1 7.223-4.74c4.342 0 7.875 3.533 7.875 7.875 0 .13-.01.259-.019.386l-.007.122a.625.625 0 0 0 .557.661 3.856 3.856 0 0 1 3.47 3.831 3.88 3.88 0 0 1-3.876 3.875h-17c-3.24 0-5.875-2.635-5.875-5.875s2.636-5.875 5.875-5.875ZM31 28.375H5a.625.625 0 1 0 0 1.25h26a.625.625 0 1 0 0-1.25Z"/>
</svg>
