<svg id="uuid-c4a0d963-cb6b-442f-823b-15f8d0f434ba" xmlns="http://www.w3.org/2000/svg" viewBox="0 0 36 36">
  <defs>
    <style>
      .uuid-91d371ba-14df-45e9-b58d-2bef4e1fe3c8{stroke-width:0}
    </style>
  </defs>
  <g id="uuid-11e3402e-e6a4-443f-9b9b-a679b5c336a3">
    <path class="uuid-91d371ba-14df-45e9-b58d-2bef4e1fe3c8" d="M31 18.375H5a.625.625 0 0 0-.625.625v10c0 .345.28.625.625.625h26c.345 0 .625-.28.625-.625V19a.625.625 0 0 0-.625-.625Zm-.625 10H5.625v-8.75h24.75v8.75Z"/>
    <path class="uuid-91d371ba-14df-45e9-b58d-2bef4e1fe3c8" d="M9 24.625h6a.625.625 0 0 0 0-1.25H9a.625.625 0 0 0 0 1.25Zm17.56-.182c.11.12.27.18.44.18.08 0 .16-.01.24-.05.08-.03.15-.07.2-.13a.66.66 0 0 0 .14-.2.597.597 0 0 0-.14-.68.485.485 0 0 0-.2-.14.634.634 0 0 0-.68.14.597.597 0 0 0-.14.68c.04.07.08.14.14.2Zm4.88-8.88c-.22-.24-.65-.24-.88 0a.49.49 0 0 0-.14.2c-.03.07-.05.16-.05.24a.63.63 0 0 0 .63.62c.17 0 .33-.06.44-.18.12-.12.19-.28.19-.44 0-.08-.02-.17-.05-.24a.484.484 0 0 0-.14-.2Zm-23.55 1.06a.626.626 0 0 0 0-1.25c-.34 0-.63.28-.63.63 0 .34.29.62.63.62Zm8.67 0a.626.626 0 1 0-.011-1.248.626.626 0 0 0 .01 1.248Zm-5.78 0a.625.625 0 0 0 0-1.25c-.34 0-.63.28-.63.63 0 .34.29.62.63.62Zm2.89 0a.626.626 0 1 0-.011-1.248.626.626 0 0 0 .01 1.248Zm5.78 0a.625.625 0 1 0-.63-.62c0 .34.28.62.63.62Zm2.88 0a.625.625 0 1 0 .01-1.25.625.625 0 0 0-.01 1.25Zm2.89 0a.625.625 0 1 0 .009-1.25.625.625 0 0 0-.01 1.25Zm2.89 0a.625.625 0 1 0 .01-1.251.625.625 0 0 0-.01 1.25Zm-23.11 0a.632.632 0 0 0 .63-.62c0-.17-.07-.33-.19-.45a.647.647 0 0 0-.88 0c-.12.12-.19.28-.19.45a.63.63 0 0 0 .63.62Zm0-4.25c-.35 0-.62.28-.62.63 0 .34.27.62.62.62a.625.625 0 1 0 0-1.25Zm0-3c-.35 0-.62.28-.62.63 0 .34.27.62.62.62a.625.625 0 1 0 0-1.25Zm-.24-1.8c.08.04.16.05.24.05s.16-.01.24-.05c.08-.03.15-.07.2-.13.12-.12.19-.28.19-.44 0-.17-.07-.33-.19-.44a.628.628 0 0 0-.88 0c-.12.11-.19.27-.19.44a.63.63 0 0 0 .39.57Zm14.69.05a.625.625 0 1 0-.63-.62c0 .34.28.62.63.62Zm5.77 0a.625.625 0 1 0 .009-1.25.625.625 0 0 0-.01 1.25Zm-2.89 0a.625.625 0 1 0 .01-1.25.625.625 0 0 0-.01 1.25Zm-11.55 0a.625.625 0 1 0-.63-.62c0 .34.28.62.63.62Zm5.78 0a.626.626 0 1 0-.011-1.248.626.626 0 0 0 .01 1.248Zm-8.67 0a.626.626 0 0 0 0-1.25c-.34 0-.63.28-.63.63 0 .34.29.62.63.62Zm20.22 0a.625.625 0 1 0 .01-1.251.625.625 0 0 0-.01 1.25Zm-14.44 0a.626.626 0 1 0-.011-1.248.626.626 0 0 0 .01 1.248Zm17.33 0c.17 0 .33-.06.44-.18.12-.12.19-.28.19-.44 0-.08-.02-.16-.05-.24a.484.484 0 0 0-.14-.2c-.22-.23-.64-.24-.88 0-.06.05-.11.12-.14.2s-.05.16-.05.24a.63.63 0 0 0 .63.62Zm0 1.75c-.34 0-.63.28-.63.63 0 .34.29.62.63.62a.625.625 0 1 0 0-1.25Zm0 3c-.34 0-.63.28-.63.63 0 .34.29.62.63.62a.625.625 0 1 0 0-1.25Z"/>
  </g>
</svg>
