<svg xmlns="http://www.w3.org/2000/svg" viewBox="0 0 36 36">
  <path d="M31 9.38h-2.38V5c0-.35-.28-.62-.62-.62h-3c-.35 0-.62.28-.62.62v4.38h-1.75V5c0-.35-.28-.62-.62-.62h-3c-.35 0-.62.28-.62.62v4.38h-2.38c-.35 0-.62.28-.62.62v7.38h-4.75V6c0-.35-.28-.62-.62-.62h-3c-.35 0-.62.28-.62.62v11.38H5.02c-.35 0-.62.28-.62.62v13c0 .35.28.62.62.62H31c.35 0 .62-.28.62-.62V10c0-.35-.28-.62-.62-.62Zm-5.38-3.75h1.75v3.75h-1.75V5.63Zm-6 0h1.75v3.75h-1.75V5.63Zm-12 1h1.75v10.75H7.62V6.62v.01Zm17.76 23.75h-2.75v-5.75h2.75v5.75Zm5 0h-3.75V24c0-.35-.28-.62-.62-.62h-4c-.35 0-.62.28-.62.62v6.38H5.62V18.63h24.76v11.75Zm0-13H16.63v-6.75h13.75v6.75ZM7 4.62h3c.35 0 .62-.28.62-.62s-.28-.62-.62-.62H7c-.35 0-.62.28-.62.62s.28.62.62.62Z"/>
</svg>
