<svg id="uuid-d15b4150-9924-42a5-879f-58a7a3762015" xmlns="http://www.w3.org/2000/svg" viewBox="0 0 36 36">
  <defs>
    <style>
      .uuid-0baed23a-3ab4-4a78-a96d-d05cbede5199{stroke-width:0}
    </style>
  </defs>
  <g id="uuid-4244c6d1-42b8-4ae7-8bcc-f2e39bf13ed3">
    <path class="uuid-0baed23a-3ab4-4a78-a96d-d05cbede5199" d="M18 23.62c.34 0 .62-.28.62-.62v-7c0-.34-.28-.62-.62-.62s-.62.28-.62.62v7c0 .34.28.62.62.62Zm-.24-10.04a.597.597 0 0 0 .68-.14c.12-.12.19-.28.19-.44s-.07-.32-.19-.44a.633.633 0 0 0-.68-.14.66.66 0 0 0-.2.14.62.62 0 0 0-.18.44c0 .17.06.33.18.44.06.06.13.11.2.14Z"/>
    <path class="uuid-0baed23a-3ab4-4a78-a96d-d05cbede5199" d="M18 32.62c8.06 0 14.62-6.56 14.62-14.62S26.06 3.38 18 3.38 3.38 9.94 3.38 18 9.94 32.62 18 32.62Zm0-28c7.38 0 13.38 6 13.38 13.38s-6 13.38-13.38 13.38S4.62 25.38 4.62 18 10.62 4.62 18 4.62Z"/>
  </g>
</svg>
