<svg id="uuid-f655dcc1-1801-4eaf-b310-ebb0dac4e4e0" xmlns="http://www.w3.org/2000/svg" viewBox="0 0 36 36">
  <defs>
    <style>
      .uuid-29ae8fc3-521e-44b9-a848-2a91ec5416fb{stroke-width:0}
    </style>
  </defs>
  <g id="uuid-fc8e00d0-8aa6-4bf6-bf7f-76ff7deb3138">
    <path class="uuid-29ae8fc3-521e-44b9-a848-2a91ec5416fb" d="M5 28.62h26c.35 0 .62-.28.62-.62V18c0-.35-.28-.62-.62-.62H5c-.35 0-.62.28-.62.62v10c0 .35.28.62.62.62Zm.62-10h24.75v8.75H5.62v-8.75Z"/>
    <path class="uuid-29ae8fc3-521e-44b9-a848-2a91ec5416fb" d="M15 22.38H9c-.35 0-.62.28-.62.62s.28.62.62.62h6c.35 0 .62-.28.62-.62s-.28-.62-.62-.62Zm11.76.04-.2.14a.62.62 0 0 0-.18.44l.04.24.14.2.2.14.24.05c.16 0 .33-.07.44-.19l.14-.2.05-.24c0-.16-.07-.32-.19-.44a.633.633 0 0 0-.68-.14Zm-9.2-6.98h.02l.18.14.24.05.24-.05.21-.14 3.6-3.6c.24-.24.24-.64 0-.88s-.64-.24-.88 0l-2.53 2.53V6c0-.35-.28-.62-.62-.62s-.62.28-.62.62v7.49l-2.53-2.53c-.24-.24-.64-.24-.88 0s-.24.64 0 .88l3.6 3.6h-.03Z"/>
  </g>
</svg>
