<svg id="uuid-f7e1cea4-69a1-4b7b-bfc1-600db02ff6a0" xmlns="http://www.w3.org/2000/svg" viewBox="0 0 36 36">
  <defs>
    <style>
      .uuid-619ed309-e67f-421b-9ab6-0c0e260a2a83{stroke-width:0}
    </style>
  </defs>
  <path class="uuid-619ed309-e67f-421b-9ab6-0c0e260a2a83" d="M13.87 24.29c.91-.71 1.5-1.8 1.5-3.04 0-2.14-1.74-3.88-3.88-3.88s-3.88 1.74-3.88 3.88c0 1.24.59 2.33 1.5 3.04-2.76.98-4.75 3.61-4.75 6.71 0 .35.28.62.62.62h13c.35 0 .62-.28.62-.62 0-3.1-1.99-5.73-4.75-6.71h.02Zm-5-3.04c0-1.45 1.18-2.62 2.62-2.62s2.62 1.18 2.62 2.62-1.18 2.62-2.62 2.62-2.62-1.18-2.62-2.62Zm-3.22 9.12c.31-2.95 2.81-5.25 5.84-5.25s5.53 2.3 5.84 5.25H5.65Z"/>
  <path class="uuid-619ed309-e67f-421b-9ab6-0c0e260a2a83" d="M31 4.38H12c-.35 0-.62.28-.62.62v10c0 .35.28.62.62.62s.62-.28.62-.62V5.62h17.76v17.76H18c-.35 0-.62.28-.62.62s.28.62.62.62h13c.35 0 .62-.28.62-.62V5c0-.35-.28-.62-.62-.62Z"/>
</svg>
