<svg id="uuid-3e5bc2ca-09ba-4b7f-882d-c039e33b813b" xmlns="http://www.w3.org/2000/svg" viewBox="0 0 36 36">
  <defs>
    <style>
      .uuid-2f0d83dc-a579-4b62-a559-bfa264f70852{stroke-width:0}
    </style>
  </defs>
  <path class="uuid-2f0d83dc-a579-4b62-a559-bfa264f70852" d="M27 7.38h-4c-.35 0-.62.28-.62.62v1.18h-8.76V8c0-.35-.28-.62-.62-.62H9c-.35 0-.62.28-.62.62v23c0 .35.28.62.62.62h18c.35 0 .62-.28.62-.62V8c0-.35-.28-.62-.62-.62Zm-.62 23H9.62V8.62h2.75V9.8c0 .35.28.62.62.62h10c.35 0 .62-.28.62-.62V8.62h2.75v21.76h.02ZM12 6.62h3s.06-.01.09-.02c.29.04.57-.12.67-.4.33-.95 1.23-1.58 2.24-1.58s1.91.64 2.24 1.58c.09.26.33.42.59.42.03 0 .06-.01.09-.02.03 0 .05.02.08.02h3c.35 0 .62-.28.62-.62s-.28-.62-.62-.62h-2.77c-.61-1.21-1.85-2-3.23-2s-2.62.79-3.23 2H12c-.35 0-.62.28-.62.62s.28.62.62.62Z"/>
  <path class="uuid-2f0d83dc-a579-4b62-a559-bfa264f70852" d="M18.24 5.42a.633.633 0 0 0-.68.14c-.06.06-.1.13-.14.2-.03.08-.04.16-.04.24s0 .16.04.24.08.15.14.2c.12.12.28.19.44.19s.33-.07.44-.19c.12-.11.19-.28.19-.44 0-.08-.02-.16-.05-.24a.718.718 0 0 0-.34-.34Zm3.89 10.09-4-.85a.57.57 0 0 0-.26 0l-4 .85a.63.63 0 0 0-.5.61v4.6c0 2.55 2.07 4.62 4.62 4.62s4.62-2.07 4.62-4.62v-4.6a.63.63 0 0 0-.5-.61h.02Zm-.75 5.22c0 1.86-1.51 3.38-3.38 3.38-1.54 0-2.83-1.04-3.23-2.45l6.61-3.45v2.53-.01Zm0-3.94-6.75 3.52v-3.68l3.38-.72 3.38.72v.16h-.01Z"/>
</svg>
