<svg xmlns="http://www.w3.org/2000/svg" viewBox="0 0 36 36">
  <path d="M28.044 24.498c-.222-.393-.866-.393-1.088 0l-3.5 6.194a.626.626 0 0 0 .544.933h7a.627.627 0 0 0 .544-.933l-3.5-6.194Zm-2.973 5.877 2.429-4.299 2.43 4.299h-4.86ZM8 4.375C6.001 4.375 4.375 6.001 4.375 8S6.001 11.625 8 11.625 11.625 9.999 11.625 8 9.999 4.375 8 4.375Zm0 6C6.69 10.375 5.625 9.31 5.625 8S6.69 5.625 8 5.625 10.375 6.69 10.375 8 9.31 10.375 8 10.375Zm3 14H5a.625.625 0 0 0-.625.625v6c0 .345.28.625.625.625h6c.345 0 .625-.28.625-.625v-6a.625.625 0 0 0-.625-.625Zm-.625 6h-4.75v-4.75h4.75v4.75Zm17.183-17.933a.622.622 0 0 0 .884 0l4-4a.626.626 0 0 0 0-.884l-4-4a.625.625 0 0 0-.884 0l-4 4a.626.626 0 0 0 0 .884l4 4ZM28 4.884 31.116 8 28 11.116 24.884 8 28 4.884Zm-4.416.258a.625.625 0 0 0-.361-.807 14.765 14.765 0 0 0-10.446 0 .626.626 0 0 0 .446 1.168 13.482 13.482 0 0 1 9.554 0 .626.626 0 0 0 .807-.361ZM4.758 22.599a.625.625 0 0 0 .42-.777A13.408 13.408 0 0 1 4.626 18a13.3 13.3 0 0 1 .878-4.776.625.625 0 0 0-1.167-.448A14.558 14.558 0 0 0 3.375 18c0 1.42.204 2.827.605 4.178a.625.625 0 0 0 .778.42Zm16.109 8.468a13.549 13.549 0 0 1-6.688-.246.625.625 0 1 0-.358 1.197 14.705 14.705 0 0 0 7.312.27.624.624 0 1 0-.266-1.22Zm9.901-18.852a.625.625 0 0 0-.348.812A13.3 13.3 0 0 1 31.375 18c0 2.006-.433 3.935-1.287 5.731a.625.625 0 1 0 1.13.537A14.497 14.497 0 0 0 32.624 18c0-1.879-.352-3.71-1.044-5.438a.625.625 0 0 0-.813-.347Z"/>
</svg>
