<svg id="uuid-30657165-3419-4fc2-bbcb-4475fdf92bfc" xmlns="http://www.w3.org/2000/svg" viewBox="0 0 36 36">
  <defs>
    <style>
      .uuid-83d00f37-c364-4d66-a1ed-630042973cec{stroke-width:0}
    </style>
  </defs>
  <g id="uuid-9505ed70-b46e-4050-a3b2-e1d24d19feaa">
    <path class="uuid-83d00f37-c364-4d66-a1ed-630042973cec" d="M6 24.62h24c.35 0 .62-.28.62-.62V9c0-.35-.28-.62-.62-.62h-9c-.35 0-.62.28-.62.62s.28.62.62.62h8.38v13.75H6.62V9.62H15c.35 0 .62-.28.62-.62s-.28-.62-.62-.62H6c-.35 0-.62.28-.62.62v15c0 .35.28.62.62.62Zm-2 3h28c.35 0 .62-.28.62-.62s-.28-.62-.62-.62H4c-.35 0-.62.28-.62.62s.28.62.62.62Z"/>
    <path class="uuid-83d00f37-c364-4d66-a1ed-630042973cec" d="M18 9.63c.16 0 .33-.07.44-.19.12-.11.19-.28.19-.44s-.07-.32-.19-.44a.647.647 0 0 0-.88 0l-.14.2-.04.24c0 .17.06.33.18.44.12.12.28.19.44.19Zm2.5 7.49h.46c.06.26.16.52.31.74l-.33.32a.61.61 0 0 0 0 .88c.12.13.28.19.44.19s.32-.06.44-.19l.33-.32c.22.14.47.24.73.3v.46c0 .35.27.62.62.62s.62-.27.62-.62v-.46c.26-.06.52-.16.74-.3l.32.32c.12.13.28.19.44.19s.32-.06.44-.19a.61.61 0 0 0 0-.88l-.32-.32c.14-.22.24-.48.3-.74h.46c.35 0 .62-.27.62-.62s-.27-.62-.62-.62h-.46c-.06-.26-.16-.51-.3-.73l.32-.33a.61.61 0 0 0 0-.88.61.61 0 0 0-.88 0l-.32.33c-.22-.15-.48-.25-.74-.31v-.46c0-.35-.27-.62-.62-.62s-.62.27-.62.62v.46c-.26.06-.51.16-.73.31l-.33-.33a.61.61 0 0 0-.88 0 .61.61 0 0 0 0 .88l.33.33c-.15.22-.25.47-.31.73h-.46c-.35 0-.62.27-.62.62s.27.62.62.62Zm1.62-.62c0-.15.02-.29.07-.43l.09-.19c.05-.13.14-.25.24-.36.11-.1.23-.19.36-.24l.19-.09c.14-.05.28-.07.43-.07s.29.02.43.07l.19.09c.13.05.25.14.36.24.1.11.19.23.24.36l.09.19c.05.14.07.28.07.43s-.02.29-.07.43l-.09.19c-.05.13-.14.25-.24.36-.11.1-.23.19-.36.24l-.19.09c-.14.05-.28.07-.43.07s-.29-.02-.43-.07l-.19-.09c-.13-.05-.25-.14-.36-.24-.1-.11-.19-.23-.24-.36l-.09-.19c-.05-.14-.07-.28-.07-.43Zm-7-2.5v4.38h-1.25v-2.5c0-.35-.28-.62-.62-.62s-.62.28-.62.62v2.5h-1.25v-1.25c0-.35-.28-.62-.62-.62s-.62.28-.62.62v1.25h-.62c-.35 0-.62.28-.62.62s.28.62.62.62h7.5c.35 0 .62-.28.62-.62s-.28-.62-.62-.62h-.62V14c0-.35-.28-.62-.62-.62s-.62.28-.62.62h-.04Z"/>
  </g>
</svg>
