<svg id="uuid-49c3c6e7-1b4c-4ed7-bb30-8488291d6813" xmlns="http://www.w3.org/2000/svg" viewBox="0 0 36 36">
  <defs>
    <style>
      .uuid-03a3556c-69ac-4e4e-bf1c-b8f7d9f449f3{stroke-width:0}
    </style>
  </defs>
  <g id="uuid-5cb4f439-6b5b-43fe-b24b-957eb33a8352">
    <path class="uuid-03a3556c-69ac-4e4e-bf1c-b8f7d9f449f3" d="M31 23.375H14.772l2.097-9.867A3.623 3.623 0 0 0 19.625 10C19.625 8.001 18 6.375 16 6.375S12.375 8.001 12.375 10c0 1.109.51 2.09 1.297 2.755l-2.257 10.62H5a.625.625 0 0 0-.625.625v5c0 .345.28.625.625.625h26c.345 0 .625-.28.625-.625v-5a.625.625 0 0 0-.625-.625ZM16 7.625c1.31 0 2.375 1.065 2.375 2.375S17.31 12.375 16 12.375 13.625 11.31 13.625 10 14.69 7.625 16 7.625Zm-1.189 5.783c.244.086.5.143.765.174l-2.082 9.793h-.801l2.118-9.967Zm15.564 14.967H5.625v-3.75h24.75v3.75Z"/>
    <path class="uuid-03a3556c-69ac-4e4e-bf1c-b8f7d9f449f3" d="M23 22.625h3a.625.625 0 0 0 0-1.25h-3a.625.625 0 0 0 0 1.25Z"/>
  </g>
</svg>
