<svg id="uuid-5cc6d415-f5f0-40a5-9fc5-62da3b5fdc5a" xmlns="http://www.w3.org/2000/svg" viewBox="0 0 36 36">
  <defs>
    <style>
      .uuid-f654185b-fb41-4091-b637-433f17ce97bc{stroke-width:0}
    </style>
  </defs>
  <g id="uuid-6b2997b2-24a2-4a2d-bafb-60c27464edc7">
    <path class="uuid-f654185b-fb41-4091-b637-433f17ce97bc" d="M10 11.375H5a.625.625 0 0 0-.625.625v5c0 .345.28.625.625.625h5c.345 0 .625-.28.625-.625v-5a.625.625 0 0 0-.625-.625Zm-.625 5h-3.75v-3.75h3.75v3.75Zm11.125-5h-5a.625.625 0 0 0-.625.625v5c0 .345.28.625.625.625h5c.345 0 .625-.28.625-.625v-5a.625.625 0 0 0-.625-.625Zm-.625 5h-3.75v-3.75h3.75v3.75Zm.625 3h-5a.625.625 0 0 0-.625.625v5c0 .345.28.625.625.625h5c.345 0 .625-.28.625-.625v-5a.625.625 0 0 0-.625-.625Zm-.625 5h-3.75v-3.75h3.75v3.75Zm11.125-13h-5a.625.625 0 0 0-.625.625v5c0 .345.28.625.625.625h5c.345 0 .625-.28.625-.625v-5a.625.625 0 0 0-.625-.625Zm-.625 5h-3.75v-3.75h3.75v3.75Z"/>
    <path class="uuid-f654185b-fb41-4091-b637-433f17ce97bc" d="M32 8.375h-8.375V5a.625.625 0 0 0-1.25 0v3.375h-8.75V5a.625.625 0 0 0-1.25 0v3.375H4a.625.625 0 0 0 0 1.25h8.375V31a.625.625 0 0 0 1.25 0V9.625h8.75V31a.625.625 0 0 0 1.25 0V9.625H32a.625.625 0 0 0 0-1.25Z"/>
  </g>
</svg>
