<svg id="uuid-caf110c8-6d32-4d56-9ac0-00bff72ad037" xmlns="http://www.w3.org/2000/svg" viewBox="0 0 36 36">
  <defs>
    <style>
      .uuid-22f0f881-3c1c-4864-b0d4-d7df5cb2e4ef{stroke-width:0}
    </style>
  </defs>
  <g id="uuid-5a778f03-6b4c-4acd-aa59-16e28fb768fb">
    <path class="uuid-22f0f881-3c1c-4864-b0d4-d7df5cb2e4ef" d="M18.236 7.42a.633.633 0 0 0-.681.14c-.11.12-.18.28-.18.44s.07.32.18.44c.06.06.13.11.21.14.07.03.15.05.24.05.08 0 .16-.02.23-.05a.628.628 0 0 0 0-1.16Z"/>
    <path class="uuid-22f0f881-3c1c-4864-b0d4-d7df5cb2e4ef" d="M21.625 21v-3.383a7.095 7.095 0 0 0 3.5-6.117c0-3.929-3.196-7.125-7.125-7.125s-7.125 3.196-7.125 7.125a7.09 7.09 0 0 0 4.5 6.602V29c0 .166.066.325.183.442l2 2a.623.623 0 0 0 .885 0l2-2a.625.625 0 0 0 .182-.442v-2.741l1.818-1.817a.628.628 0 0 0 0-.884L20.884 22l.559-.558a.625.625 0 0 0 .182-.442Zm-.509 3-1.558 1.558a.625.625 0 0 0-.183.442v2.741L18 30.116l-1.375-1.375V17.686c0-.009-.005-.017-.005-.026-.002-.046-.015-.088-.027-.132-.01-.035-.014-.071-.03-.104-.017-.037-.044-.068-.069-.102-.023-.03-.042-.063-.07-.09-.028-.026-.062-.043-.095-.064-.037-.023-.071-.047-.112-.063-.01-.003-.015-.01-.024-.013a5.86 5.86 0 0 1-4.068-5.592c0-3.24 2.636-5.875 5.875-5.875s5.875 2.636 5.875 5.875a5.86 5.86 0 0 1-3.164 5.213c-.029.015-.047.04-.073.059-.033.025-.067.047-.096.078-.028.03-.047.066-.068.102-.02.033-.041.064-.055.1-.016.043-.02.087-.027.132-.004.028-.017.054-.017.084v3.473l-.817.817a.628.628 0 0 0 0 .884L21.117 24Z"/>
  </g>
</svg>
