<svg id="uuid-76992fdf-c1ed-4f98-b05c-3105e3a6d5fa" xmlns="http://www.w3.org/2000/svg" viewBox="0 0 36 36">
  <defs>
    <style>
      .uuid-1ef75aa0-cc60-47f6-80d1-2149486fbcee{stroke-width:0}
    </style>
  </defs>
  <g id="uuid-1b6ae25b-6543-4d4e-9a6c-54f069194e23">
    <path class="uuid-1ef75aa0-cc60-47f6-80d1-2149486fbcee" d="M9 24.62h1c.35 0 .62-.28.62-.62s-.28-.62-.62-.62H9c-.35 0-.62.28-.62.62s.28.62.62.62Zm5.62-.62c0-.35-.28-.62-.62-.62h-1c-.35 0-.62.28-.62.62s.28.62.62.62h1c.35 0 .62-.28.62-.62Zm6.38.62h1c.35 0 .62-.28.62-.62s-.28-.62-.62-.62h-1c-.35 0-.62.28-.62.62s.28.62.62.62Zm-7-3h1c.35 0 .62-.28.62-.62s-.28-.62-.62-.62h-1c-.35 0-.62.28-.62.62s.28.62.62.62Zm-3-1.24H9c-.35 0-.62.28-.62.62s.28.62.62.62h2c.35 0 .62-.28.62-.62s-.28-.62-.62-.62Zm12 0h-1c-.35 0-.62.28-.62.62s.28.62.62.62h1c.35 0 .62-.28.62-.62s-.28-.62-.62-.62Zm-6 4.24h1c.35 0 .62-.28.62-.62s-.28-.62-.62-.62h-1c-.35 0-.62.28-.62.62s.28.62.62.62Zm1-3h1c.35 0 .62-.28.62-.62s-.28-.62-.62-.62h-1c-.35 0-.62.28-.62.62s.28.62.62.62Zm9 1.76h-2c-.35 0-.62.28-.62.62s.28.62.62.62h2c.35 0 .62-.28.62-.62s-.28-.62-.62-.62Zm0 3h-1c-.35 0-.62.28-.62.62s.28.62.62.62h1c.35 0 .62-.28.62-.62s-.28-.62-.62-.62Zm-16 0H9c-.35 0-.62.28-.62.62s.28.62.62.62h2c.35 0 .62-.28.62-.62s-.28-.62-.62-.62Zm16-6h-1c-.35 0-.62.28-.62.62s.28.62.62.62h1c.35 0 .62-.28.62-.62s-.28-.62-.62-.62Zm-4 6h-9c-.35 0-.62.28-.62.62s.28.62.62.62h9c.35 0 .62-.28.62-.62s-.28-.62-.62-.62Z"/>
    <path class="uuid-1ef75aa0-cc60-47f6-80d1-2149486fbcee" d="M5 31.63h26c.35 0 .62-.28.62-.62v-14c0-.35-.28-.62-.62-.62H18.51v-1.38c0-1.45-1.18-2.62-2.62-2.62h-5c-.76 0-1.38-.62-1.38-1.38s.62-1.38 1.38-1.38h14c1.45 0 2.62-1.18 2.62-2.62s-1.18-2.62-2.62-2.62h-7c-.35 0-.62.28-.62.62s.28.62.62.62h7c.76 0 1.38.62 1.38 1.38s-.62 1.38-1.38 1.38h-14c-1.45 0-2.62 1.18-2.62 2.62s1.18 2.62 2.62 2.62h5c.76 0 1.38.62 1.38 1.38v1.38H5c-.35 0-.62.28-.62.62v14c0 .35.28.62.62.62Zm.62-14h24.75v12.75H5.62V17.63Z"/>
  </g>
</svg>
