<svg xmlns="http://www.w3.org/2000/svg" viewBox="0 0 36 36">
  <path d="M27.578 26.76a.626.626 0 0 0-.578-.385h-6a.625.625 0 0 0 0 1.25h4.491l-.933.933a.626.626 0 0 0 0 .884l.933.933H20A1.377 1.377 0 0 1 18.625 29a.625.625 0 0 0-1.25 0A2.628 2.628 0 0 0 20 31.625h7a.626.626 0 0 0 .442-1.067L25.884 29l1.558-1.558a.626.626 0 0 0 .136-.681ZM18 27.63c.16 0 .32-.07.44-.19a.66.66 0 0 0 .14-.2c.03-.08.04-.16.04-.24s-.01-.16-.04-.24a.66.66 0 0 0-.14-.2.627.627 0 0 0-.88 0 .66.66 0 0 0-.14.2c-.03.08-.04.16-.04.24s.01.16.04.24c.03.07.08.14.14.2.12.12.28.19.44.19Zm10.577-12.39a.626.626 0 0 0 0-.48.62.62 0 0 0-.113-.168c-.009-.011-.012-.024-.022-.034l-10-10c-.016-.017-.038-.023-.055-.037a.624.624 0 0 0-.147-.097.624.624 0 0 0-.48 0 .586.586 0 0 0-.148.098c-.017.014-.038.02-.054.036l-10 10c-.01.01-.013.023-.022.034a.622.622 0 0 0-.113.169.626.626 0 0 0 0 .478.62.62 0 0 0 .113.17c.009.01.012.023.022.033l10 10c.015.015.034.02.05.034a.617.617 0 0 0 .152.1.627.627 0 0 0 .48 0 .617.617 0 0 0 .152-.1c.015-.013.035-.019.05-.034l10-10c.01-.01.013-.023.022-.034a.622.622 0 0 0 .112-.169Zm-11.202-.865H9.509l7.866-7.866v7.866Zm-3 1.25V17a.625.625 0 0 0 1.25 0v-1.375h1.75v7.866l-7.866-7.866h4.866Zm4.25 0h7.866l-7.866 7.866v-7.866Zm3-1.25V13a.625.625 0 0 0-1.25 0v1.375h-1.75V6.509l7.866 7.866h-4.866Z"/>
</svg>
