<svg id="uuid-2d73a708-caa8-4d73-8c47-7717881620ed" xmlns="http://www.w3.org/2000/svg" viewBox="0 0 36 36">
  <defs>
    <style>
      .uuid-001c87d5-de96-48dd-b0aa-243fca39eadb{stroke-width:0}
    </style>
  </defs>
  <path class="uuid-001c87d5-de96-48dd-b0aa-243fca39eadb" d="M13.87 24.29c.91-.71 1.5-1.8 1.5-3.04 0-2.14-1.74-3.88-3.88-3.88s-3.88 1.74-3.88 3.88c0 1.24.59 2.33 1.5 3.04-2.76.98-4.75 3.61-4.75 6.71 0 .35.28.62.62.62h13c.35 0 .62-.28.62-.62 0-3.1-1.99-5.73-4.75-6.71h.02Zm-5-3.04c0-1.45 1.18-2.62 2.62-2.62s2.62 1.18 2.62 2.62-1.18 2.62-2.62 2.62-2.62-1.18-2.62-2.62Zm-3.22 9.12c.31-2.95 2.81-5.25 5.84-5.25s5.53 2.3 5.84 5.25H5.65Z"/>
  <path class="uuid-001c87d5-de96-48dd-b0aa-243fca39eadb" d="M31 4.38H11c-.35 0-.62.28-.62.62v10.04c0 .35.28.62.62.62s.62-.28.62-.62V5.62h18.76v12.75H18c-.35 0-.62.28-.62.62s.28.62.62.62h.88v2H18c-.35 0-.62.28-.62.62s.28.62.62.62h9c.35 0 .62-.28.62-.62s-.28-.62-.62-.62h-3.88v-2H31c.35 0 .62-.28.62-.62V5c0-.35-.28-.62-.62-.62Zm-9.12 17.25h-1.75v-2h1.75v2Z"/>
  <path class="uuid-001c87d5-de96-48dd-b0aa-243fca39eadb" d="M20 11.12h5c.35 0 .62-.28.62-.62s-.28-.62-.62-.62h-5c-.35 0-.62.28-.62.62s.28.62.62.62Zm0 3h5c.35 0 .62-.28.62-.62s-.28-.62-.62-.62h-5c-.35 0-.62.28-.62.62s.28.62.62.62Zm-3.44-3.18c.11.12.27.18.44.18.08 0 .16 0 .24-.04.08-.03.14-.08.2-.14.12-.11.19-.27.19-.44 0-.16-.07-.33-.19-.44a.647.647 0 0 0-.88 0c-.06.06-.1.12-.14.2-.03.08-.04.16-.04.24s0 .16.04.24.08.15.14.2Zm-.14 2.8c.04.08.08.15.14.2.12.12.28.19.44.19s.33-.07.44-.19c.12-.11.19-.28.19-.44 0-.08-.02-.16-.05-.24a.718.718 0 0 0-.34-.34.633.633 0 0 0-.68.14c-.06.06-.1.13-.14.2-.03.08-.04.16-.04.24s0 .16.04.24Z"/>
</svg>
