<svg id="uuid-fc72b7dc-e38c-4bc0-9bb1-131e2ce738b3" xmlns="http://www.w3.org/2000/svg" viewBox="0 0 36 36">
  <defs>
    <style>
      .uuid-901b44bf-1664-4577-aa66-4e3677826165{stroke-width:0}
    </style>
  </defs>
  <g id="uuid-1ed6d5d8-8da2-440a-8467-59e8b571ce79">
    <path class="uuid-901b44bf-1664-4577-aa66-4e3677826165" d="M6 24.625h24c.345 0 .625-.28.625-.625V9A.625.625 0 0 0 30 8.375h-9a.625.625 0 0 0 0 1.25h8.375v13.75H6.625V9.625H15a.625.625 0 0 0 0-1.25H6A.625.625 0 0 0 5.375 9v15c0 .345.28.625.625.625Zm26 1.75H4a.625.625 0 0 0 0 1.25h28a.625.625 0 0 0 0-1.25Z"/>
    <path class="uuid-901b44bf-1664-4577-aa66-4e3677826165" d="M17.76 9.58c.08.03.16.05.24.05.16 0 .33-.07.44-.19.12-.11.18-.28.18-.44s-.06-.33-.18-.44a.634.634 0 0 0-.68-.14.67.67 0 0 0-.2.14c-.12.11-.18.28-.18.44 0 .17.06.33.18.44.06.06.13.11.2.14Zm-2.323 5.241.325.326a2.6 2.6 0 0 0-.304.728H15a.625.625 0 0 0 0 1.25h.458a2.6 2.6 0 0 0 .304.728l-.325.326a.626.626 0 0 0 .884.884l.326-.325c.224.135.467.24.728.304v.458a.625.625 0 0 0 1.25 0v-.458a2.6 2.6 0 0 0 .728-.304l.326.326a.622.622 0 0 0 .884 0 .626.626 0 0 0 0-.885l-.325-.326a2.6 2.6 0 0 0 .304-.728H21a.625.625 0 0 0 0-1.25h-.458a2.6 2.6 0 0 0-.304-.728l.325-.326a.626.626 0 0 0-.884-.884l-.326.325a2.6 2.6 0 0 0-.728-.303V13.5a.625.625 0 0 0-1.25 0v.459a2.6 2.6 0 0 0-.728.303l-.326-.325a.625.625 0 1 0-.884.884Zm2.563.304c.758 0 1.375.617 1.375 1.375s-.617 1.375-1.375 1.375-1.375-.617-1.375-1.375.617-1.375 1.375-1.375Z"/>
  </g>
</svg>
