<svg id="uuid-ab6c48e3-1219-47c0-8818-425be62a6d80" xmlns="http://www.w3.org/2000/svg" viewBox="0 0 36 36">
  <defs>
    <style>
      .uuid-d913f9ab-a92d-4e6a-b31b-3eb23b00b1ca{stroke-width:0}
    </style>
  </defs>
  <g id="uuid-685e72d2-56ed-4406-b3f5-a7385dae82e7">
    <path class="uuid-d913f9ab-a92d-4e6a-b31b-3eb23b00b1ca" d="M18.313 10.53a.627.627 0 0 0-.625 0l-6 3.464a.626.626 0 0 0-.313.542v6.928c0 .223.12.43.313.541l6 3.465a.62.62 0 0 0 .625 0l6-3.465a.624.624 0 0 0 .312-.54v-6.93a.625.625 0 0 0-.313-.54l-6-3.464Zm5.062 10.573L18 24.207l-5.375-3.104v-6.206L18 11.794l5.375 3.103v6.206Z"/>
    <path class="uuid-d913f9ab-a92d-4e6a-b31b-3eb23b00b1ca" d="M18 3.375C9.935 3.375 3.375 9.935 3.375 18S9.935 32.625 18 32.625 32.625 26.065 32.625 18 26.065 3.375 18 3.375Zm0 28c-7.375 0-13.375-6-13.375-13.375S10.625 4.625 18 4.625s13.375 6 13.375 13.375-6 13.375-13.375 13.375Z"/>
  </g>
</svg>
