<svg id="uuid-5ef15ab7-39fd-4d90-8334-281b04a4e2b0" xmlns="http://www.w3.org/2000/svg" viewBox="0 0 36 36">
  <defs>
    <style>
      .uuid-c023eb06-1ce4-42f8-a9c3-0fb965797c97{stroke-width:0}
    </style>
  </defs>
  <g id="uuid-f579ca59-8b37-49aa-9833-4ebb616b17e2">
    <path class="uuid-c023eb06-1ce4-42f8-a9c3-0fb965797c97" d="M6 24.62h24c.34 0 .62-.28.62-.62V9c0-.35-.28-.62-.62-.62h-9c-.34 0-.62.28-.62.62s.28.62.62.62h8.38v13.75H6.62V9.62H15c.34 0 .62-.28.62-.62s-.28-.62-.62-.62H6c-.34 0-.62.28-.62.62v15c0 .35.28.62.62.62Zm26 1.76H4c-.34 0-.62.28-.62.62s.28.62.62.62h28c.34 0 .62-.28.62-.62s-.28-.62-.62-.62Z"/>
    <path class="uuid-c023eb06-1ce4-42f8-a9c3-0fb965797c97" d="M17.56 9.44c.11.12.27.19.44.19s.33-.07.44-.19l.14-.2.05-.24c0-.16-.07-.33-.19-.44a.633.633 0 0 0-.68-.14l-.2.14c-.12.11-.19.28-.19.44l.05.24.14.2Zm7.11 3.94h-5.83c-.34 0-.62.28-.62.62s.28.62.62.62h5.83c.34 0 .62-.28.62-.62s-.28-.62-.62-.62Zm0 2.5h-5.83c-.34 0-.62.28-.62.62s.28.62.62.62h5.83c.34 0 .62-.28.62-.62s-.28-.62-.62-.62Zm0 2.5h-5.83c-.34 0-.62.28-.62.62s.28.62.62.62h5.83c.34 0 .62-.28.62-.62s-.28-.62-.62-.62Zm-13.43-4.72c-.19-.11-.43-.11-.62 0s-.31.32-.31.54v4.6c0 .22.12.43.31.54.1.06.21.08.32.08s.21-.03.31-.08l4.07-2.3c.2-.11.32-.32.32-.54s-.12-.43-.32-.54l-4.07-2.3h-.01Zm.32 4.07v-2.46l2.17 1.23-2.17 1.23Z"/>
  </g>
</svg>
