<svg id="uuid-a13933bf-cdc1-4643-abd1-63dbd8674652" xmlns="http://www.w3.org/2000/svg" viewBox="0 0 36 36">
  <defs>
    <style>
      .uuid-48e94e4d-18d7-4ac0-95ee-c111f45e8090{stroke-width:0}
    </style>
  </defs>
  <g id="uuid-1dd4c4c0-0f60-4f6e-82b0-aa35a36f2bfd">
    <path class="uuid-48e94e4d-18d7-4ac0-95ee-c111f45e8090" d="M6 24.62h24c.34 0 .62-.28.62-.62V9c0-.35-.28-.62-.62-.62h-9c-.34 0-.62.28-.62.62s.28.62.62.62h8.38v13.75H6.62V9.62H15c.34 0 .62-.28.62-.62s-.28-.62-.62-.62H6c-.34 0-.62.28-.62.62v15c0 .35.28.62.62.62Zm26 1.76H4c-.34 0-.62.28-.62.62s.28.62.62.62h28c.34 0 .62-.28.62-.62s-.28-.62-.62-.62Z"/>
    <path class="uuid-48e94e4d-18d7-4ac0-95ee-c111f45e8090" d="m17.76 9.58.24.05.24-.05.2-.14c.12-.12.19-.28.19-.44s-.07-.32-.19-.44l-.2-.14a.662.662 0 0 0-.48 0l-.2.14-.14.2-.04.24c0 .17.06.33.18.44l.2.14ZM11.88 14v5c0 .35.28.62.62.62h7c.34 0 .62-.28.62-.62v-1.39l3.07 1.73c.1.05.2.08.31.08s.22-.03.32-.08a.63.63 0 0 0 .31-.54v-4.6a.63.63 0 0 0-.31-.54.624.624 0 0 0-.62 0l-3.07 1.73V14c0-.35-.28-.62-.62-.62h-7c-.34 0-.62.28-.62.62h-.01Zm11 1.27v2.46l-2.17-1.23 2.17-1.23Zm-9.75-.65h5.75v3.75h-5.75v-3.75Z"/>
  </g>
</svg>
