<svg id="uuid-596d07c9-3005-4f7b-90c5-6cc5885da342" xmlns="http://www.w3.org/2000/svg" viewBox="0 0 36 36">
  <defs>
    <style>
      .uuid-e19e7ca3-865b-4937-9bba-2f18bd8d551b{stroke-width:0}
    </style>
  </defs>
  <g id="uuid-63f8cd58-0a36-4d83-9db3-51bf96398ff6">
    <path class="uuid-e19e7ca3-865b-4937-9bba-2f18bd8d551b" d="M6 24.62h24c.34 0 .62-.28.62-.62V9c0-.35-.28-.62-.62-.62h-9c-.34 0-.62.28-.62.62s.28.62.62.62h8.38v13.75H6.62V9.62H15c.34 0 .62-.28.62-.62s-.28-.62-.62-.62H6c-.34 0-.62.28-.62.62v15c0 .35.28.62.62.62Zm26 1.76H4c-.34 0-.62.28-.62.62s.28.62.62.62h28c.34 0 .62-.28.62-.62s-.28-.62-.62-.62Z"/>
    <path class="uuid-e19e7ca3-865b-4937-9bba-2f18bd8d551b" d="m17.76 9.58.24.04.24-.04.2-.14.14-.2.05-.24c0-.16-.07-.32-.19-.44a.652.652 0 0 0-.68-.14l-.2.14-.14.2-.04.24c0 .17.06.33.18.44l.2.14Zm.24 9.04c.34 0 .62-.28.62-.62v-4c0-.35-.28-.62-.62-.62s-.62.28-.62.62v4c0 .35.28.62.62.62Zm-.24.8-.2.14-.14.2-.04.24c0 .17.06.33.18.44l.2.14.24.04.24-.04.2-.14.14-.2.05-.24c0-.16-.07-.32-.19-.44a.652.652 0 0 0-.68-.14Z"/>
  </g>
</svg>
