<svg id="uuid-783d46db-f888-4bae-909e-3175d86999cd" xmlns="http://www.w3.org/2000/svg" viewBox="0 0 36 36">
  <defs>
    <style>
      .uuid-355d3df6-6584-419e-9d9a-1963202d1104{stroke-width:0}
    </style>
  </defs>
  <g id="uuid-20834ba7-ba2a-4ad9-8b23-d251aa3ca664">
    <path class="uuid-355d3df6-6584-419e-9d9a-1963202d1104" d="M6 24.62h24c.34 0 .62-.28.62-.62V9c0-.35-.28-.62-.62-.62h-9c-.34 0-.62.28-.62.62s.28.62.62.62h8.38v13.75H6.62V9.62H15c.34 0 .62-.28.62-.62s-.28-.62-.62-.62H6c-.34 0-.62.28-.62.62v15c0 .35.28.62.62.62Zm26 1.76H4c-.34 0-.62.28-.62.62s.28.62.62.62h28c.34 0 .62-.28.62-.62s-.28-.62-.62-.62Z"/>
    <path class="uuid-355d3df6-6584-419e-9d9a-1963202d1104" d="m17.76 9.58.24.04c.17 0 .33-.06.44-.18.12-.11.19-.28.19-.44s-.07-.33-.19-.44a.633.633 0 0 0-.68-.14l-.2.14c-.12.12-.19.28-.19.44s.07.33.19.44l.2.14Z"/>
  </g>
</svg>
