<svg xmlns="http://www.w3.org/2000/svg" viewBox="0 0 36 36">
  <path d="m25.322 10.66-2.884-.129c-.384-.05-.638.252-.653.596a.623.623 0 0 0 .596.652l4.197.188h.029a.625.625 0 0 0 .624-.597l.186-4.198a.623.623 0 0 0-.597-.651c-.341-.029-.636.252-.651.596l-.112 2.505A11.588 11.588 0 0 0 18 6.375c-1.294 0-2.56.23-3.764.644a3.11 3.11 0 0 0-.528-.73 3.101 3.101 0 0 0-2.207-.914h-.002a3.108 3.108 0 0 0-2.21.917A3.1 3.1 0 0 0 8.375 8.5c0 .835.326 1.62.917 2.21a3.1 3.1 0 0 0 2.207.914h.002a3.108 3.108 0 0 0 2.21-.917 3.1 3.1 0 0 0 .914-2.209c0-.092-.019-.18-.027-.271A10.222 10.222 0 0 1 18 7.625c2.77 0 5.383 1.098 7.321 3.035Zm-12.496-.835c-.353.355-.824.55-1.325.55h-.002c-.5 0-.97-.194-1.324-.549-.355-.353-.55-.824-.55-1.325s.194-.972.549-1.326c.353-.355.824-.55 1.325-.55h.002c.5 0 .97.194 1.324.549.355.353.55.824.55 1.325s-.194.972-.549 1.326Zm-.325 14.55h-.002c-.741 0-1.435.27-1.996.74-.597-.624-1.14-1.3-1.568-2.067a10.341 10.341 0 0 1-.91-7.875l1.291 2.584a.625.625 0 1 0 1.118-.559l-1.88-3.759a.623.623 0 0 0-.837-.279l-3.758 1.88a.624.624 0 1 0 .559 1.117l2.243-1.12a11.585 11.585 0 0 0 1.083 8.62 11.38 11.38 0 0 0 1.868 2.46 3.09 3.09 0 0 0-.337 1.385c.001.835.326 1.62.917 2.21a3.1 3.1 0 0 0 2.207.914h.002a3.108 3.108 0 0 0 2.21-.917 3.1 3.1 0 0 0 .914-2.209 3.108 3.108 0 0 0-.917-2.21 3.101 3.101 0 0 0-2.207-.914Zm1.325 4.45c-.353.355-.824.55-1.325.55h-.002c-.5 0-.97-.194-1.324-.549-.355-.353-.55-.824-.55-1.325s.194-.972.549-1.326c.353-.355.824-.55 1.325-.55h.002c.5 0 .97.194 1.324.549.355.353.55.824.55 1.325s-.194.972-.549 1.326Zm17.799-11.826a3.108 3.108 0 0 0-.917-2.21 3.101 3.101 0 0 0-2.207-.914h-.002a3.108 3.108 0 0 0-2.21.917A3.1 3.1 0 0 0 25.375 17c0 .835.326 1.62.917 2.21a3.09 3.09 0 0 0 1.845.879 10.3 10.3 0 0 1-1.54 3.718 10.34 10.34 0 0 1-6.614 4.369l1.722-2.319a.626.626 0 0 0-1.004-.746l-2.505 3.373a.628.628 0 0 0 .13.875l3.373 2.505a.625.625 0 0 0 .746-1.004l-2.014-1.495a11.587 11.587 0 0 0 7.202-4.858 11.565 11.565 0 0 0 1.8-4.54 3.096 3.096 0 0 0 1.278-.76 3.1 3.1 0 0 0 .914-2.21Zm-1.799 1.326c-.353.355-.824.55-1.325.55h-.002c-.5 0-.97-.194-1.324-.549-.355-.353-.55-.824-.55-1.325s.194-.972.549-1.326c.354-.356.806-.523 1.327-.55.5 0 .97.194 1.324.549.355.353.55.824.55 1.325s-.194.972-.549 1.326Z"/>
</svg>
