<svg id="uuid-ce210b2d-ebae-49a5-b6be-60df190de1d1" xmlns="http://www.w3.org/2000/svg" viewBox="0 0 36 36">
  <defs>
    <style>
      .uuid-0f56f8b2-dd32-45d2-b38b-5182288c01fd{stroke-width:0}
    </style>
  </defs>
  <g id="uuid-3904bd83-297b-4f69-9e13-07061c524d3b">
    <path class="uuid-0f56f8b2-dd32-45d2-b38b-5182288c01fd" d="M20 20.157a.625.625 0 0 1-.278-1.184 3.857 3.857 0 0 0 2.153-3.473c0-2.137-1.738-3.875-3.875-3.875s-3.875 1.738-3.875 3.875c0 1.482.825 2.812 2.153 3.473a.625.625 0 0 1-.556 1.119 5.098 5.098 0 0 1-2.847-4.592c0-2.826 2.299-5.125 5.125-5.125s5.125 2.299 5.125 5.125c0 1.96-1.09 3.719-2.847 4.592a.619.619 0 0 1-.278.065Z"/>
    <path class="uuid-0f56f8b2-dd32-45d2-b38b-5182288c01fd" d="M18 4.375C12.142 4.375 7.375 9.142 7.375 15v12c0 2.55 2.075 4.625 4.625 4.625S16.625 29.55 16.625 27v-7.468a.626.626 0 0 0-1.25 0v1.843h-6.75V15c0-4.958 3.873-9.02 8.75-9.343V11a.626.626 0 0 0 1.25 0V5.657c4.878.324 8.75 4.385 8.75 9.343v6.375h-6.75v-1.843a.626.626 0 0 0-1.25 0V27c0 2.55 2.075 4.625 4.625 4.625S28.625 29.55 28.625 27V15C28.625 9.142 23.86 4.375 18 4.375Zm-6 26A3.378 3.378 0 0 1 8.625 27v-.375h6.75V27A3.378 3.378 0 0 1 12 30.375Zm3.375-7.75v2.75h-6.75v-2.75h6.75Zm12 0v2.75h-6.75v-2.75h6.75ZM24 30.375A3.378 3.378 0 0 1 20.625 27v-.375h6.75V27A3.378 3.378 0 0 1 24 30.375Z"/>
  </g>
</svg>
