<svg id="uuid-ec1134de-59dc-4056-9e1f-54f81bfc0807" xmlns="http://www.w3.org/2000/svg" viewBox="0 0 36 36">
  <defs>
    <style>
      .uuid-27c3f560-53ed-4fe8-a9ae-519832a834c6{stroke-width:0}
    </style>
  </defs>
  <g id="uuid-1f8f7ff5-759d-4a45-a053-9b09321533ba">
    <path class="uuid-27c3f560-53ed-4fe8-a9ae-519832a834c6" d="M26 28.625c.345 0 .625-.28.625-.625v-2a.625.625 0 0 0-.625-.625H10a.625.625 0 0 0-.625.625v2a.625.625 0 0 0 1.25 0v-1.375h14.75V28c0 .345.28.625.625.625ZM13.375 13c0 .345.28.625.625.625h.566L12.39 23.87a.625.625 0 0 0 1.222.26l2.233-10.505h4.312L22.39 24.13a.625.625 0 0 0 1.223-.26l-2.178-10.245H22a.625.625 0 0 0 0-1.25h-8a.625.625 0 0 0-.625.625ZM16 11.625h4c.345 0 .625-.28.625-.625V8c0-1.23-.855-2.26-2-2.542V5a.625.625 0 0 0-1.25 0v.458a2.625 2.625 0 0 0-2 2.542v3c0 .345.28.625.625.625ZM16.625 8c0-.758.617-1.375 1.375-1.375s1.375.617 1.375 1.375v2.375h-.75V9a.625.625 0 0 0-1.25 0v1.375h-.75V8Z"/>
    <path class="uuid-27c3f560-53ed-4fe8-a9ae-519832a834c6" d="M18.625 19v-3a.625.625 0 0 0-1.25 0v3a.625.625 0 0 0 1.25 0Zm3.764-9.875v.005a.62.62 0 0 0 .085.205c.009.014.023.024.033.037a.62.62 0 0 0 .121.126c.02.015.045.025.067.037a.607.607 0 0 0 .142.062c.012.003.02.011.033.014l8 1.7a.625.625 0 0 0 .26-1.223L26.006 9l5.124-1.09a.625.625 0 0 0-.26-1.223l-8 1.7c-.03.007-.053.025-.081.036-.047.017-.095.031-.137.06-.033.021-.056.052-.083.08-.03.029-.063.054-.086.088-.028.042-.042.09-.06.137-.01.028-.028.051-.034.081v.006c-.008.037 0 .076-.001.115-.001.045-.008.09 0 .134Zm-18 1.705a.625.625 0 0 0 .741.482l8-1.7c.012-.003.021-.012.033-.015a.614.614 0 0 0 .142-.061c.022-.013.046-.022.067-.038a.624.624 0 0 0 .122-.126c.01-.013.024-.023.033-.037a.622.622 0 0 0 .085-.205v-.005c.009-.044.002-.09 0-.136 0-.038.007-.076 0-.113V8.87c-.007-.03-.025-.054-.036-.082-.017-.047-.03-.094-.058-.135-.022-.033-.054-.057-.082-.085-.029-.03-.054-.062-.088-.085-.036-.024-.077-.035-.117-.05-.034-.015-.063-.037-.1-.044l-8-1.7a.626.626 0 0 0-.26 1.222L9.993 9 4.87 10.09a.624.624 0 0 0-.481.74Zm26.929 19.085a3.464 3.464 0 0 1-.848-.707.624.624 0 0 0-.94.001A3.325 3.325 0 0 1 27 30.375a3.37 3.37 0 0 1-2.53-1.166.644.644 0 0 0-.94 0A3.325 3.325 0 0 1 21 30.375a3.37 3.37 0 0 1-2.53-1.166.644.644 0 0 0-.94 0A3.325 3.325 0 0 1 15 30.375a3.37 3.37 0 0 1-2.53-1.166.644.644 0 0 0-.94 0A3.325 3.325 0 0 1 9 30.375a3.37 3.37 0 0 1-2.53-1.166.645.645 0 0 0-.94 0c-.247.282-.53.519-.847.705a.625.625 0 0 0 .635 1.077A4.66 4.66 0 0 0 6 30.5c1.67 1.442 4.327 1.443 6 0 1.671 1.443 4.327 1.443 6 0 1.671 1.443 4.327 1.443 6 0 .835.721 1.897 1.125 3 1.125s2.163-.404 3-1.125c.212.184.44.348.68.49a.626.626 0 0 0 .637-1.075Z"/>
  </g>
</svg>
