<svg xmlns="http://www.w3.org/2000/svg" viewBox="0 0 36 36">
  <path d="M21 27.375h-6a.617.617 0 0 0-.115 1.227c.056 1.674 1.428 3.023 3.115 3.023s3.06-1.349 3.115-3.023A.617.617 0 0 0 21 27.375Zm-3 3a1.871 1.871 0 0 1-1.862-1.75h3.725A1.871 1.871 0 0 1 18 30.375Zm8.902-17.099c0-4.908-3.993-8.901-8.902-8.901s-8.902 3.993-8.902 8.901c0 2.235.832 4.355 2.336 6l1.632 4.896a2.122 2.122 0 0 0 2.015 1.453h5.838c.916 0 1.727-.584 2.016-1.453l1.633-4.897a8.853 8.853 0 0 0 2.334-5.999ZM18 5.625c4.22 0 7.652 3.433 7.652 7.651a7.608 7.608 0 0 1-1.957 5.099h-11.39a7.61 7.61 0 0 1-1.957-5.099c0-4.218 3.433-7.651 7.652-7.651Zm3.75 18.152a.874.874 0 0 1-.83.598h-5.84a.874.874 0 0 1-.83-.598l-1.384-4.152h10.266l-1.384 4.152Z"/>
</svg>
