<svg id="uuid-5ec10645-140c-4708-8081-2854ad957303" xmlns="http://www.w3.org/2000/svg" viewBox="0 0 36 36">
  <defs>
    <style>
      .uuid-39b80706-53f9-43fe-9a85-d0114169b606{stroke-width:0}
    </style>
  </defs>
  <g id="uuid-fccee4b6-c77c-49d3-b4be-c37b424ff94c">
    <path class="uuid-39b80706-53f9-43fe-9a85-d0114169b606" d="M29.67 6.33a6.683 6.683 0 0 0-9.439 0l-5.347 5.346a6.683 6.683 0 0 0 1.843 10.744.623.623 0 0 0 .834-.295.625.625 0 0 0-.295-.833 5.43 5.43 0 0 1-1.497-8.731l5.347-5.347a5.428 5.428 0 0 1 7.67 0 5.43 5.43 0 0 1 0 7.67l-3.208 3.209a.626.626 0 0 0 .885.884l3.208-3.209a6.683 6.683 0 0 0 0-9.438Z"/>
    <path class="uuid-39b80706-53f9-43fe-9a85-d0114169b606" d="M19.273 13.58a.625.625 0 1 0-.54 1.128 5.43 5.43 0 0 1 1.497 8.732l-5.346 5.346a5.428 5.428 0 0 1-7.67 0 5.43 5.43 0 0 1 0-7.67l3.208-3.208a.626.626 0 0 0-.885-.884l-3.208 3.208a6.683 6.683 0 0 0 0 9.438c1.302 1.301 3.01 1.952 4.72 1.952s3.418-.651 4.72-1.952l5.347-5.347a6.683 6.683 0 0 0-1.843-10.743Z"/>
  </g>
</svg>
