<svg id="uuid-87ae05f9-f445-44c8-a116-4fff549897e9" xmlns="http://www.w3.org/2000/svg" viewBox="0 0 36 36">
  <defs>
    <style>
      .uuid-5b76fa94-fe3c-4a79-98ac-5991804ac5c5{stroke-width:0}
    </style>
  </defs>
  <g id="uuid-ec0c87bd-02cf-49d6-b1d2-7a122ff73baa">
    <path class="uuid-5b76fa94-fe3c-4a79-98ac-5991804ac5c5" d="M28.786 14.884a.626.626 0 0 0 .885.884 6.683 6.683 0 0 0 0-9.438 6.683 6.683 0 0 0-9.44 0l-5.347 5.347a6.683 6.683 0 0 0 0 9.439.624.624 0 0 0 .884 0 .626.626 0 0 0 0-.884 5.43 5.43 0 0 1 0-7.672l5.348-5.346a5.428 5.428 0 0 1 7.67 0 5.43 5.43 0 0 1 0 7.67Z"/>
    <path class="uuid-5b76fa94-fe3c-4a79-98ac-5991804ac5c5" d="M21.116 14.884a.625.625 0 0 0-.885.884 5.43 5.43 0 0 1 0 7.672l-5.347 5.346a5.428 5.428 0 0 1-7.67 0 5.43 5.43 0 0 1 0-7.67.626.626 0 0 0-.885-.884 6.683 6.683 0 0 0 0 9.438c1.302 1.301 3.01 1.952 4.72 1.952s3.418-.651 4.72-1.952l5.347-5.347a6.683 6.683 0 0 0 0-9.438ZM8.617 9.502a.624.624 0 0 0 .885 0 .626.626 0 0 0 0-.884l-2.06-2.06a.626.626 0 0 0-.884.884l2.06 2.06ZM13 8.538c.345 0 .625-.28.625-.625V5a.625.625 0 0 0-1.25 0v2.913c0 .345.28.625.625.625Zm-8 5.087h2.913a.625.625 0 0 0 0-1.25H5a.625.625 0 0 0 0 1.25Zm22.383 12.873a.625.625 0 0 0-.885.884l2.06 2.06a.624.624 0 0 0 .883 0 .625.625 0 0 0 .001-.884l-2.06-2.06ZM23 27.462a.625.625 0 0 0-.625.625V31a.625.625 0 0 0 1.25 0v-2.913a.625.625 0 0 0-.625-.625Zm8-5.087h-2.913a.625.625 0 0 0 0 1.25H31a.625.625 0 0 0 0-1.25Z"/>
  </g>
</svg>
