<svg id="uuid-8434214e-0da2-44e4-b095-bca21035f3df" xmlns="http://www.w3.org/2000/svg" viewBox="0 0 36 36">
  <defs>
    <style>
      .uuid-97cf2fd5-95a1-4677-a184-20b62525b66c{stroke-width:0}
    </style>
  </defs>
  <g id="uuid-9fd1ff64-2194-4509-a143-32390ca7cb9d">
    <path class="uuid-97cf2fd5-95a1-4677-a184-20b62525b66c" d="M22.62 14c0-2.55-2.07-4.62-4.62-4.62s-4.62 2.07-4.62 4.62 2.07 4.62 4.62 4.62 4.62-2.07 4.62-4.62Zm-7.99 0c0-1.86 1.51-3.37 3.37-3.37s3.37 1.51 3.37 3.37-1.51 3.37-3.37 3.37-3.37-1.51-3.37-3.37Z"/>
    <path class="uuid-97cf2fd5-95a1-4677-a184-20b62525b66c" d="M18 27.35c.16 0 .32-.06.44-.18l6.36-6.36c1.82-1.82 2.82-4.24 2.82-6.81s-1-4.99-2.82-6.81-4.23-2.82-6.81-2.82-4.99 1-6.81 2.82S8.36 11.43 8.36 14s1 4.99 2.82 6.81l6.36 6.36c.12.12.28.18.44.18H18ZM9.62 14c0-2.24.87-4.34 2.45-5.92 1.63-1.63 3.78-2.45 5.92-2.45s4.29.82 5.92 2.45c1.58 1.58 2.45 3.68 2.45 5.92s-.87 4.34-2.45 5.92l-5.92 5.92-5.92-5.92A8.312 8.312 0 0 1 9.62 14ZM31 30.38H5c-.35 0-.62.28-.62.62s.28.62.62.62h26c.35 0 .62-.28.62-.62s-.28-.62-.62-.62Z"/>
  </g>
</svg>
