<svg id="uuid-a6806d10-d1c6-4ee7-8f7a-56427f67e7fc" xmlns="http://www.w3.org/2000/svg" viewBox="0 0 36 36">
  <defs>
    <style>
      .uuid-1d7649ec-be6d-4b84-950a-c9641abcb966{stroke-width:0}
    </style>
  </defs>
  <path class="uuid-1d7649ec-be6d-4b84-950a-c9641abcb966" d="M14.5 8.38h-6c-.35 0-.62.28-.62.62s.28.62.62.62h6c.35 0 .62-.28.62-.62s-.28-.62-.62-.62Zm0 3h-6c-.35 0-.62.28-.62.62s.28.62.62.62h6c.35 0 .62-.28.62-.62s-.28-.62-.62-.62Zm7-1.76h6c.35 0 .62-.28.62-.62s-.28-.62-.62-.62h-6c-.35 0-.62.28-.62.62s.28.62.62.62Zm0 3h6c.35 0 .62-.28.62-.62s-.28-.62-.62-.62h-6c-.35 0-.62.28-.62.62s.28.62.62.62Zm-13 4.22c-.35 0-.62.28-.62.62v3.07c0 .35.28.62.62.62s.62-.28.62-.62v-3.07c0-.35-.28-.62-.62-.62Z"/>
  <path class="uuid-1d7649ec-be6d-4b84-950a-c9641abcb966" d="M31 4.38H5c-.35 0-.62.28-.62.62v26c0 .35.28.62.62.62h26c.35 0 .62-.28.62-.62V5c0-.35-.28-.62-.62-.62ZM5.62 5.62h11.75v24.76H5.62V5.62Zm24.76 24.76H18.63V5.62h11.75v24.76Z"/>
  <path class="uuid-1d7649ec-be6d-4b84-950a-c9641abcb966" d="M21.5 21.16c.35 0 .62-.28.62-.62v-3.07c0-.35-.28-.62-.62-.62s-.62.28-.62.62v3.07c0 .35.28.62.62.62Z"/>
</svg>
