<svg id="uuid-650d4b17-129b-4dfb-af26-b20c7e2b9c34" xmlns="http://www.w3.org/2000/svg" viewBox="0 0 36 36">
  <defs>
    <style>
      .uuid-279f5090-cd81-4378-b789-4a618079b56c{stroke-width:0}
    </style>
  </defs>
  <path class="uuid-279f5090-cd81-4378-b789-4a618079b56c" d="M27.68 23.04a.63.63 0 0 0-.85 0l-3.75 3.5c-.19.18-.25.45-.15.69.09.24.32.4.58.4h.88v3.38c0 .35.28.62.62.62h.75c.34 0 .62-.28.62-.62v-2.38h1.75v2.38c0 .35.28.62.62.62h.75c.34 0 .62-.28.62-.62v-3.38H31c.26 0 .49-.16.58-.4s.03-.51-.15-.69l-3.75-3.5ZM14.5 8.38h-6c-.34 0-.62.28-.62.62s.28.62.62.62h6c.34 0 .62-.28.62-.62s-.28-.62-.62-.62Zm0 3h-6c-.34 0-.62.28-.62.62s.28.62.62.62h6c.34 0 .62-.28.62-.62s-.28-.62-.62-.62Zm7-1.76h6c.34 0 .62-.28.62-.62s-.28-.62-.62-.62h-6c-.34 0-.62.28-.62.62s.28.62.62.62ZM28.12 12c0-.35-.28-.62-.62-.62h-6c-.34 0-.62.28-.62.62s.28.62.62.62h6c.34 0 .62-.28.62-.62ZM8.5 16.84c-.34 0-.62.28-.62.62v3.07c0 .35.28.62.62.62s.62-.28.62-.62v-3.07c0-.35-.28-.62-.62-.62Z"/>
  <path class="uuid-279f5090-cd81-4378-b789-4a618079b56c" d="M31 4.38H5c-.34 0-.62.28-.62.62v26c0 .35.28.62.62.62h17.25c.34 0 .62-.28.62-.62s-.28-.62-.62-.62h-3.62V5.62h11.75v17.49c0 .35.28.62.62.62s.62-.28.62-.62V5c0-.35-.28-.62-.62-.62ZM5.62 5.62h11.75v24.76H5.62V5.62Z"/>
  <path class="uuid-279f5090-cd81-4378-b789-4a618079b56c" d="M20.88 17.47v3.07c0 .35.28.62.62.62s.62-.28.62-.62v-3.07c0-.35-.28-.62-.62-.62s-.62.28-.62.62Z"/>
</svg>
