<svg id="uuid-c25c2987-0538-4cc1-9230-00f0cfcc2300" xmlns="http://www.w3.org/2000/svg" viewBox="0 0 36 36">
  <defs>
    <style>
      .uuid-eaa956fe-1596-4110-b737-f3da722e4657{stroke-width:0}
    </style>
  </defs>
  <path class="uuid-eaa956fe-1596-4110-b737-f3da722e4657" d="M14.5 8.38h-6c-.34 0-.62.28-.62.62s.28.62.62.62h6c.34 0 .62-.28.62-.62s-.28-.62-.62-.62Zm0 3h-6c-.34 0-.62.28-.62.62s.28.62.62.62h6c.34 0 .62-.28.62-.62s-.28-.62-.62-.62Zm7-1.76h6c.34 0 .62-.28.62-.62s-.28-.62-.62-.62h-6c-.34 0-.62.28-.62.62s.28.62.62.62ZM28.12 12c0-.35-.28-.62-.62-.62h-6c-.34 0-.62.28-.62.62s.28.62.62.62h6c.34 0 .62-.28.62-.62ZM8.5 16.84c-.34 0-.62.28-.62.62v3.07c0 .35.28.62.62.62s.62-.28.62-.62v-3.07c0-.35-.28-.62-.62-.62Z"/>
  <path class="uuid-eaa956fe-1596-4110-b737-f3da722e4657" d="M21.57 30.38h-2.94V5.62h11.75v15.94c0 .35.28.62.62.62s.62-.28.62-.62V5c0-.35-.28-.62-.62-.62H5c-.34 0-.62.28-.62.62v26c0 .35.28.62.62.62h16.57c.34 0 .62-.28.62-.62s-.28-.62-.62-.62ZM5.62 5.62h11.75v24.76H5.62V5.62Z"/>
  <path class="uuid-eaa956fe-1596-4110-b737-f3da722e4657" d="M20.88 17.47v3.07c0 .35.28.62.62.62s.62-.28.62-.62v-3.07c0-.35-.28-.62-.62-.62s-.62.28-.62.62Z"/>
  <circle class="uuid-eaa956fe-1596-4110-b737-f3da722e4657" cx="27.75" cy="27.75" r="1.88"/>
  <path class="uuid-eaa956fe-1596-4110-b737-f3da722e4657" d="M27.75 30.62c-.34 0-.62.28-.62.62v1c0 .35.28.62.62.62s.62-.28.62-.62v-1c0-.35-.28-.62-.62-.62Zm0-5.74c.34 0 .62-.28.62-.62v-1c0-.35-.28-.62-.62-.62s-.62.28-.62.62v1c0 .35.28.62.62.62Zm-2.87 2.87c0-.35-.28-.62-.62-.62h-1c-.34 0-.62.28-.62.62s.28.62.62.62h1c.34 0 .62-.28.62-.62Zm7.37-.63h-1c-.34 0-.62.28-.62.62s.28.62.62.62h1c.34 0 .62-.28.62-.62s-.28-.62-.62-.62Zm-7.42 2.66-.71.71c-.24.24-.24.64 0 .88.12.12.28.18.44.18s.32-.06.44-.18l.71-.71c.24-.24.24-.64 0-.88s-.64-.24-.88 0Zm5.66-5.65-.71.71c-.24.24-.24.64 0 .88.12.12.28.18.44.18s.32-.06.44-.18l.71-.71c.24-.24.24-.64 0-.88s-.64-.24-.88 0Zm-6.36 0c-.24.24-.24.64 0 .88l.71.71c.12.12.28.18.44.18s.32-.06.44-.18c.24-.24.24-.64 0-.88l-.71-.71a.628.628 0 0 0-.88 0Zm6.54 5.65c-.24-.24-.64-.24-.88 0s-.24.64 0 .88l.71.71c.12.12.28.18.44.18s.32-.06.44-.18c.24-.24.24-.64 0-.88l-.71-.71Z"/>
</svg>
