<svg id="uuid-89fc9d62-e358-4162-8d9c-a11df63539aa" xmlns="http://www.w3.org/2000/svg" viewBox="0 0 36 36">
  <defs>
    <style>
      .uuid-f016c27d-540f-4993-a1b0-4d05a39f3932{stroke-width:0}
    </style>
  </defs>
  <path class="uuid-f016c27d-540f-4993-a1b0-4d05a39f3932" d="M24 10.375h-2.375V5A.625.625 0 0 0 21 4.375h-6a.625.625 0 0 0-.625.625v5.375H12c-.896 0-1.625.729-1.625 1.625v16c0 .896.729 1.625 1.625 1.625h12c.896 0 1.625-.729 1.625-1.625V12c0-.896-.729-1.625-1.625-1.625Zm-8.375-4.75h4.75v4.75h-4.75v-4.75ZM24.375 28a.375.375 0 0 1-.375.375H12a.375.375 0 0 1-.375-.375V12c0-.207.169-.375.375-.375h12c.206 0 .375.168.375.375v16Z"/>
  <path class="uuid-f016c27d-540f-4993-a1b0-4d05a39f3932" d="M15 13.375a.625.625 0 0 0-.625.625v12a.625.625 0 0 0 1.25 0V14a.625.625 0 0 0-.625-.625Zm3 0a.625.625 0 0 0-.625.625v12a.625.625 0 0 0 1.25 0V14a.625.625 0 0 0-.625-.625Zm3 0a.625.625 0 0 0-.625.625v12a.625.625 0 0 0 1.25 0V14a.625.625 0 0 0-.625-.625Zm1.44 17.185a.634.634 0 0 0-.68-.14.67.67 0 0 0-.2.14.66.66 0 0 0-.14.2c-.03.08-.05.16-.05.24s.02.16.05.24c.03.08.08.14.14.2.06.06.13.11.2.14.08.03.16.05.24.05.08 0 .16-.02.24-.05a.66.66 0 0 0 .2-.14c.06-.06.11-.12.14-.2.03-.08.04-.16.04-.24s-.01-.16-.04-.24a.56.56 0 0 0-.14-.2Zm-8 0a.565.565 0 0 0-.2-.14.657.657 0 0 0-.48 0c-.08.03-.14.08-.2.14-.06.06-.11.12-.14.2-.03.08-.04.16-.04.24s.01.16.04.24c.03.08.08.14.14.2.06.06.13.11.2.14.08.03.16.05.24.05.08 0 .16-.02.24-.05a.66.66 0 0 0 .2-.14c.06-.06.11-.12.14-.2.03-.08.04-.16.04-.24s-.01-.16-.04-.24a.66.66 0 0 0-.14-.2Z"/>
</svg>
