<svg id="uuid-c57c31a6-56e6-4d3e-8bac-4ea01d9dcb82" xmlns="http://www.w3.org/2000/svg" viewBox="0 0 36 36">
  <defs>
    <style>
      .uuid-416096b7-c9fd-4be5-a15c-2626a2b2de9d{stroke-width:0}
    </style>
  </defs>
  <g id="uuid-bb738c46-0e3b-482e-ac8d-768bf5788f86">
    <path class="uuid-416096b7-c9fd-4be5-a15c-2626a2b2de9d" d="M15.389 21.78a.624.624 0 0 0-.233.852 5.184 5.184 0 0 1-4.501 7.743 5.184 5.184 0 0 1-5.179-5.179c0-.035-.014-.065-.02-.098.006-.033.02-.063.02-.098l-.002-8.998c0-1.97.767-3.823 2.16-5.216a7.327 7.327 0 0 1 5.215-2.16c.758 0 1.375.616 1.375 1.374v4a.625.625 0 1 0 1.25 0v-4a2.628 2.628 0 0 0-2.625-2.625 8.57 8.57 0 0 0-6.1 2.527 8.57 8.57 0 0 0-2.525 6.1L4.226 25c0 .035.014.065.02.098-.006.034-.02.064-.02.098 0 3.545 2.884 6.43 6.43 6.43s6.428-2.885 6.428-6.43a6.431 6.431 0 0 0-.843-3.184.623.623 0 0 0-.852-.232Zm16.085-5.778a8.57 8.57 0 0 0-2.525-6.1 8.57 8.57 0 0 0-6.1-2.527A2.628 2.628 0 0 0 20.224 10v4a.625.625 0 1 0 1.25 0v-4c0-.758.617-1.375 1.375-1.375a7.33 7.33 0 0 1 5.215 2.16 7.328 7.328 0 0 1 2.16 5.217L30.222 25c0 .035.014.065.02.098-.006.033-.02.063-.02.098a5.184 5.184 0 0 1-5.179 5.179 5.184 5.184 0 0 1-4.501-7.743.624.624 0 1 0-1.085-.62 6.428 6.428 0 1 0 12.015 3.184c0-.035-.014-.065-.02-.098.006-.033.02-.063.02-.098l.002-8.998Z"/>
    <path class="uuid-416096b7-c9fd-4be5-a15c-2626a2b2de9d" d="m19.703 17.848 2.863.69 2.935 3.026-.964.963a.625.625 0 1 0 .884.884l.95-.95 1.564 1.612a.623.623 0 0 0 .884.014.625.625 0 0 0 .013-.884l-2.011-2.074-.001-.001-2.102-2.167 3.048-.767a.625.625 0 1 0-.306-1.212l-2.942.74-4.504-1.084c-.063-.018-1.54-.442-1.54-1.657V5a.625.625 0 1 0-1.25 0v9.981c0 1.215-1.477 1.64-1.522 1.652l-4.522 1.09-2.942-.741a.626.626 0 0 0-.306 1.212l3.048.767-4.115 4.242a.625.625 0 1 0 .898.87l1.564-1.612.95.95a.622.622 0 0 0 .883 0 .625.625 0 0 0 0-.884l-.963-.963 2.935-3.026 2.879-.694c.067-.018 1.13-.33 1.838-1.173.709.843 1.776 1.157 1.853 1.177Z"/>
  </g>
</svg>
