<svg id="uuid-80c6f0a3-bcbd-4e11-ab46-f15f3a664d59" xmlns="http://www.w3.org/2000/svg" viewBox="0 0 36 36">
  <defs>
    <style>
      .uuid-3f7ad6a9-19b8-488d-af0e-47cebbc5fe1d{stroke-width:0}
    </style>
  </defs>
  <g id="uuid-b2e1fd02-0455-4fdc-92e5-99571ae38105">
    <path class="uuid-3f7ad6a9-19b8-488d-af0e-47cebbc5fe1d" d="M14.5 4.375C8.917 4.375 4.375 8.917 4.375 14.5S8.917 24.625 14.5 24.625 24.625 20.083 24.625 14.5 20.083 4.375 14.5 4.375Zm0 19c-4.894 0-8.875-3.981-8.875-8.875S9.606 5.625 14.5 5.625s8.875 3.981 8.875 8.875-3.981 8.875-8.875 8.875Zm16.942 7.183-6-6a.625.625 0 1 0-.884.884l6 6a.622.622 0 0 0 .884 0 .626.626 0 0 0 0-.884ZM22.56 22.56c-.12.12-.18.28-.18.44s.06.32.18.44.28.19.44.19c.16 0 .33-.07.44-.19.12-.12.19-.28.19-.44a.632.632 0 0 0-1.07-.44Z"/>
    <path class="uuid-3f7ad6a9-19b8-488d-af0e-47cebbc5fe1d" d="M14.5 7.375A7.133 7.133 0 0 0 7.375 14.5a.625.625 0 0 0 1.25 0A5.882 5.882 0 0 1 14.5 8.625a.625.625 0 0 0 0-1.25Z"/>
  </g>
</svg>
