<svg id="uuid-f35ac4b7-7f92-47b8-bddf-17edfa8f1ce4" xmlns="http://www.w3.org/2000/svg" viewBox="0 0 36 36">
  <defs>
    <style>
      .uuid-cff43473-4302-4884-847a-a65a24976fcd{stroke-width:0}
    </style>
  </defs>
  <g id="uuid-be7be1b1-71cb-4942-89ad-0e4bbf149d67">
    <path class="uuid-cff43473-4302-4884-847a-a65a24976fcd" d="M14 8.625h3.375V15a.625.625 0 0 0 1.25 0V5A.625.625 0 0 0 18 4.375h-4a.625.625 0 0 0-.625.625v3c0 .345.28.625.625.625Zm.625-3h2.75v1.75h-2.75v-1.75Z"/>
    <path class="uuid-cff43473-4302-4884-847a-a65a24976fcd" d="M31.442 14.558a.625.625 0 0 0-.884 0l-6.933 6.933V11a.625.625 0 0 0-.625-.626h-3a.625.625 0 0 0 0 1.25h2.375v10.75H5.625V14A2.378 2.378 0 0 1 8 11.625h8a.625.625 0 0 0 0-1.25H8A3.629 3.629 0 0 0 4.375 14v9c0 .345.28.625.625.625h7.375V31a.625.625 0 0 0 1.25 0v-7.375h1.75V31a.625.625 0 0 0 1.25 0v-7.375H23a.627.627 0 0 0 .24-.048.617.617 0 0 0 .152-.101c.016-.013.035-.019.05-.033l8-8a.626.626 0 0 0 0-.885Z"/>
  </g>
</svg>
