<svg id="uuid-ae1321be-7035-4d63-96f9-1268f3b202b4" xmlns="http://www.w3.org/2000/svg" viewBox="0 0 36 36">
  <defs>
    <style>
      .uuid-558146f8-03b0-4899-bac3-743cce25f425{stroke-width:0}
    </style>
  </defs>
  <g id="uuid-2f4d8eb2-0e7a-45de-8521-0ca1145bb1e6">
    <path class="uuid-558146f8-03b0-4899-bac3-743cce25f425" d="M5 31.62h26c.34 0 .62-.28.62-.62s-.28-.62-.62-.62H5c-.34 0-.62.28-.62.62s.28.62.62.62Zm1-4h10c.34 0 .62-.28.62-.62V5c0-.35-.28-.62-.62-.62H6c-.34 0-.62.28-.62.62v22c0 .35.28.62.62.62Zm.62-22h8.76v20.76H6.62V5.62Zm13.38 22h10c.34 0 .62-.28.62-.62V5c0-.35-.28-.62-.62-.62H20c-.34 0-.62.28-.62.62v22c0 .35.28.62.62.62Zm.62-22h8.75v20.76h-8.75V5.62Z"/>
    <path class="uuid-558146f8-03b0-4899-bac3-743cce25f425" d="M11.24 21.42a.652.652 0 0 0-.68.14c-.12.12-.19.28-.19.44s.07.33.19.44c.11.12.27.18.44.18l.24-.04.2-.14c.12-.12.19-.28.19-.44s-.07-.32-.19-.44l-.2-.14Zm13.52 0-.2.14a.62.62 0 0 0-.18.44l.04.24.14.2c.12.12.28.19.44.19l.24-.05.2-.14.14-.2.05-.24c0-.16-.07-.32-.19-.44a.633.633 0 0 0-.68-.14ZM13 11.38H9c-.34 0-.62.28-.62.62s.28.62.62.62h4c.34 0 .62-.28.62-.62s-.28-.62-.62-.62Zm0-3H9c-.34 0-.62.28-.62.62s.28.62.62.62h4c.34 0 .62-.28.62-.62s-.28-.62-.62-.62Zm14 3h-4c-.34 0-.62.28-.62.62s.28.62.62.62h4c.34 0 .62-.28.62-.62s-.28-.62-.62-.62Zm0-3h-4c-.34 0-.62.28-.62.62s.28.62.62.62h4c.34 0 .62-.28.62-.62s-.28-.62-.62-.62Z"/>
  </g>
</svg>
