<svg xmlns="http://www.w3.org/2000/svg" viewBox="0 0 36 36">
  <path d="M25 17.375h-1.771a5.232 5.232 0 0 0-1.089-2.63l1.253-1.253a.626.626 0 0 0-.885-.884l-1.252 1.252a5.232 5.232 0 0 0-2.631-1.089v-1.77a.625.625 0 0 0-1.25 0v1.77a5.232 5.232 0 0 0-2.63 1.09l-1.253-1.253a.626.626 0 0 0-.885.884l1.253 1.252a5.232 5.232 0 0 0-1.089 2.631H11a.625.625 0 0 0 0 1.25h1.771a5.23 5.23 0 0 0 1.089 2.63l-1.253 1.253a.626.626 0 0 0 .885.884l1.252-1.252c.745.587 1.643.97 2.631 1.089V25a.625.625 0 0 0 1.25 0v-1.77a5.233 5.233 0 0 0 2.631-1.09l1.252 1.253a.624.624 0 0 0 .885 0 .626.626 0 0 0 0-.884l-1.253-1.252a5.233 5.233 0 0 0 1.089-2.63H25a.625.625 0 0 0 0-1.25Zm-7 4.667c-2.228 0-4.042-1.813-4.042-4.042s1.813-4.042 4.042-4.042 4.042 1.813 4.042 4.042-1.813 4.042-4.042 4.042ZM8.375 8.724V10a.625.625 0 0 0 1.25 0V7A.625.625 0 0 0 9 6.375H6a.625.625 0 0 0 0 1.25h1.708c-.016.013-.035.019-.05.033-4.362 4.363-5.518 11.038-2.876 16.61a.624.624 0 1 0 1.13-.535C3.53 18.71 4.527 12.716 8.374 8.723Zm15.357 21.365c-5.02 2.382-11.018 1.383-15.008-2.464H10a.625.625 0 0 0 0-1.25H7a.625.625 0 0 0-.625.625v3a.625.625 0 0 0 1.25 0v-1.709c.013.016.018.036.033.05a14.649 14.649 0 0 0 16.61 2.877.624.624 0 1 0-.536-1.13ZM30 28.375h-1.709c.016-.013.036-.019.05-.034 4.363-4.362 5.52-11.037 2.877-16.609a.624.624 0 1 0-1.129.535c2.38 5.021 1.383 11.017-2.464 15.009V26a.625.625 0 0 0-1.25 0v3c0 .345.28.625.625.625h3a.625.625 0 0 0 0-1.25ZM29.625 9V6a.625.625 0 0 0-1.25 0v1.71c-.013-.016-.018-.036-.033-.05-4.363-4.363-11.037-5.52-16.61-2.877a.624.624 0 1 0 .535 1.13c5.024-2.383 11.018-1.384 15.01 2.463H26a.625.625 0 0 0 0 1.25h3c.345 0 .625-.28.625-.625Z"/>
</svg>
