<svg id="uuid-88f1a69a-9e4a-4e49-ac4c-92e03b37a383" xmlns="http://www.w3.org/2000/svg" viewBox="0 0 36 36">
  <defs>
    <style>
      .uuid-90b1c9ef-d1d5-478c-af11-135da908e1ae{stroke-width:0}
    </style>
  </defs>
  <g id="uuid-4e3b4da2-5fb3-4fcb-8150-2aafd7a171e0">
    <path class="uuid-90b1c9ef-d1d5-478c-af11-135da908e1ae" d="M31 8.375H5A.625.625 0 0 0 4.375 9v18c0 .345.28.625.625.625h26c.345 0 .625-.28.625-.625V9A.625.625 0 0 0 31 8.375Zm-.625 18H5.625V9.625h24.75v16.75Z"/>
    <path class="uuid-90b1c9ef-d1d5-478c-af11-135da908e1ae" d="M19.25 21.125h7.5a.625.625 0 0 0 0-1.25h-.625V15.5a.625.625 0 0 0-1.25 0v4.375h-1.25v-2.5a.625.625 0 0 0-1.25 0v2.5h-1.25v-1.25a.625.625 0 0 0-1.25 0v1.25h-.625a.625.625 0 0 0 0 1.25Zm-7 .5c1.999 0 3.625-1.626 3.625-3.625s-1.626-3.625-3.625-3.625S8.625 16.001 8.625 18s1.626 3.625 3.625 3.625Zm2.28-4.25h-1.655V15.72a2.37 2.37 0 0 1 1.656 1.656Zm-2.905-1.656V18c0 .345.28.625.625.625h2.28a2.372 2.372 0 0 1-2.28 1.75A2.378 2.378 0 0 1 9.875 18a2.37 2.37 0 0 1 1.75-2.28Z"/>
  </g>
</svg>
