<svg xmlns="http://www.w3.org/2000/svg" viewBox="0 0 36 36">
  <path d="M25 13.62h6c.34 0 .62-.28.62-.62s-.28-.62-.62-.62h-5.38V5.62H31c.34 0 .62-.28.62-.62s-.28-.62-.62-.62h-6c-.34 0-.62.28-.62.62v3.38H13.56c-.31-2.25-2.23-4-4.56-4-2.55 0-4.62 2.07-4.62 4.62S6.46 13.62 9 13.62c1.18 0 2.24-.46 3.06-1.18l4.5 4.5c-.73.82-1.18 1.88-1.18 3.06 0 1.28.52 2.44 1.37 3.28l-6.52 7.1H5c-.34 0-.62.28-.62.62s.28.62.62.62h26c.34 0 .62-.28.62-.62s-.28-.62-.62-.62H11.92l5.84-6.36c.67.37 1.42.61 2.24.61 2.55 0 4.62-2.07 4.62-4.62s-2.08-4.62-4.62-4.62c-.92 0-1.78.28-2.5.74l-4.62-4.62c.36-.55.59-1.19.68-1.87h10.81v3.38c0 .35.28.62.62.62l.01-.02Zm-7.56 4.2c.27-.32.6-.59.98-.79.47-.25 1.01-.41 1.58-.41 1.86 0 3.38 1.51 3.38 3.38s-1.51 3.38-3.38 3.38c-.49 0-.95-.11-1.37-.3-.39-.17-.74-.42-1.04-.72-.6-.61-.96-1.44-.96-2.36 0-.83.31-1.59.82-2.17l-.01-.01Zm-5.13-8.2c-.06.34-.19.66-.35.95-.2.38-.47.71-.79.98-.59.5-1.34.82-2.17.82-1.86 0-3.38-1.51-3.38-3.38S7.13 5.61 9 5.61a3.371 3.371 0 0 1 3.31 3.99v.02Z"/>
</svg>
