<svg xmlns="http://www.w3.org/2000/svg" viewBox="0 0 36 36">
  <path d="M18 3.375c-2.803 0-5.526.795-7.875 2.3a.625.625 0 1 0 .673 1.053 13.305 13.305 0 0 1 6.577-2.08V8.79C12.572 9.114 8.76 13.115 8.76 18a9.21 9.21 0 0 0 2.69 6.508c.007.008.01.018.016.025.008.008.018.01.025.017a9.236 9.236 0 0 0 11.13 1.453.626.626 0 0 0-.626-1.082 7.98 7.98 0 0 1-9.179-.853l2.944-2.944c.633.455 1.403.73 2.24.73 2.126 0 3.856-1.729 3.856-3.855s-1.73-3.855-3.856-3.855a.625.625 0 0 0 0 1.25c1.437 0 2.606 1.169 2.606 2.605S19.437 20.606 18 20.606s-2.606-1.17-2.606-2.606a.625.625 0 0 0-1.25 0c0 .838.276 1.608.731 2.24l-2.943 2.944A7.95 7.95 0 0 1 10.01 18c0-4.406 3.584-7.99 7.99-7.99.345 0 .625-.28.625-.625V4.657c6.876.32 12.398 5.843 12.718 12.718H27.2c-.21-3.046-1.911-5.835-4.578-7.379a.626.626 0 0 0-.626 1.082A8.022 8.022 0 0 1 25.99 18a7.99 7.99 0 0 1-1.068 3.994.626.626 0 0 0 1.082.627 9.217 9.217 0 0 0 1.195-3.996h4.144c-.33 7.084-6.179 12.75-13.343 12.75-7.375 0-13.375-6-13.375-13.375 0-1.783.345-3.514 1.025-5.144a.625.625 0 1 0-1.153-.481A14.53 14.53 0 0 0 3.375 18c0 8.065 6.56 14.625 14.625 14.625S32.625 26.065 32.625 18 26.065 3.375 18 3.375Z"/>
</svg>
