<svg xmlns="http://www.w3.org/2000/svg" viewBox="0 0 36 36">
  <path d="M30.322 4.464a.636.636 0 0 0-.616-.016l-14.863 7.927H11A5.631 5.631 0 0 0 5.375 18c0 2.676 1.88 4.918 4.388 5.484l1.626 7.646c.005.023.018.04.025.063a.586.586 0 0 0 .112.202c.019.022.036.045.058.064.037.034.079.06.123.083.022.012.042.028.066.037a.618.618 0 0 0 .226.046h3c.346 0 .626-.28.626-.625v-6.958l14.081 7.51a.626.626 0 0 0 .919-.552V5a.626.626 0 0 0-.303-.536ZM14.375 30.375h-1.869l-1.435-6.75h3.304v6.75Zm0-8H11c-2.413 0-4.375-1.963-4.375-4.375S8.587 13.625 11 13.625h3.375v8.75Zm15 7.583-13.75-7.333v-9.25l13.75-7.333v23.916Z"/>
</svg>
