<svg id="uuid-4d712ff7-aa39-4795-b3c2-c740c3e11b67" xmlns="http://www.w3.org/2000/svg" viewBox="0 0 36 36">
  <defs>
    <style>
      .uuid-2fba6382-3922-467a-9fb4-5063500ae6b5{stroke-width:0}
    </style>
  </defs>
  <g id="uuid-dfd24deb-2f16-4d76-8e79-a2ac42841172">
    <path class="uuid-2fba6382-3922-467a-9fb4-5063500ae6b5" d="M31 11.375h-6.375V5A.626.626 0 0 0 24 4.375H5A.626.626 0 0 0 4.375 5v19c0 .345.28.625.625.625h6.375V31c0 .345.28.625.625.625h19c.345 0 .625-.28.625-.625V12a.626.626 0 0 0-.625-.625Zm-25.375 12V5.625h17.75v17.75H5.625Zm24.75 7h-17.75v-5.75H24c.345 0 .625-.28.625-.625V12.625h5.75v17.75Z"/>
    <path class="uuid-2fba6382-3922-467a-9fb4-5063500ae6b5" d="M12 13.77c-.34 0-.62.29-.62.63s.28.63.62.63c.35 0 .62-.29.62-.63s-.27-.63-.62-.63Zm0 4.8c-.34 0-.62.29-.62.63s.28.63.62.63c.35 0 .62-.29.62-.63s-.27-.63-.62-.63Zm.62 3.03c0-.34-.27-.62-.62-.62-.34 0-.62.28-.62.62s.28.63.62.63c.35 0 .62-.29.62-.63ZM12 16.18c-.34 0-.62.28-.62.62s.28.63.62.63c.35 0 .62-.29.62-.63s-.27-.62-.62-.62Zm-.44-3.74c.11.12.27.19.44.19.16 0 .32-.07.44-.19a.66.66 0 0 0 .14-.2c.03-.08.05-.16.05-.24 0-.16-.07-.32-.19-.44a.648.648 0 0 0-.88 0c-.12.12-.19.28-.19.44 0 .08.02.16.05.24.04.08.08.14.14.2Zm10.04.19c.34 0 .63-.28.63-.63s-.29-.62-.63-.62-.62.27-.62.62.28.63.62.63Zm-7.2 0c.35 0 .63-.28.63-.63a.62.62 0 0 0-.63-.62c-.34 0-.63.27-.63.62s.29.63.63.63Zm2.4 0c.35 0 .63-.28.63-.63s-.28-.62-.63-.62c-.34 0-.62.27-.62.62s.28.63.62.63Zm2.4 0c.35 0 .63-.28.63-.63s-.28-.62-.63-.62a.61.61 0 0 0-.62.62c0 .35.27.63.62.63Z"/>
  </g>
</svg>
