<svg id="uuid-e20f38ed-009c-4a04-b8cc-e2aac1b23ddb" xmlns="http://www.w3.org/2000/svg" viewBox="0 0 36 36">
  <defs>
    <style>
      .uuid-8485889c-ed4d-4422-a02b-a2b14c944f5c{stroke-width:0}
    </style>
  </defs>
  <g id="uuid-d4e581c9-734a-4007-92b0-79148bd148d6">
    <path class="uuid-8485889c-ed4d-4422-a02b-a2b14c944f5c" d="M31 9.518H15.286a.625.625 0 0 0-.625.625v2.946h-3.894v-1.946a.625.625 0 0 0-.625-.625H5a.625.625 0 0 0-.625.625v5.143c0 .345.28.625.625.625h5.143c.344 0 .625-.28.625-.625v-1.947h3.893v7.036h-3.893v-1.947a.625.625 0 0 0-.625-.625H5a.625.625 0 0 0-.625.625v5.143c0 .346.28.625.625.625h5.143c.344 0 .625-.28.625-.625v-1.946h3.893v3.232c0 .345.28.625.625.625H31c.345 0 .625-.28.625-.625V10.143A.625.625 0 0 0 31 9.518ZM9.518 15.66H5.625v-3.893h3.893v3.893Zm0 8.286H5.625v-3.894h3.893v3.893Zm20.857 1.285H15.911V10.768h14.464v14.464Z"/>
    <path class="uuid-8485889c-ed4d-4422-a02b-a2b14c944f5c" d="M28.25 13.123c.08 0 .16-.01.24-.04a.6.6 0 0 0 .2-.14c.12-.12.19-.28.19-.44 0-.17-.07-.33-.19-.44a.485.485 0 0 0-.2-.14.634.634 0 0 0-.68.14c-.12.11-.19.27-.19.44 0 .16.07.32.19.44.11.12.28.18.44.18Zm-2.07-.05c.07.04.16.05.24.05s.16-.01.24-.05a.605.605 0 0 0 .38-.57c0-.08-.01-.17-.05-.24a.465.465 0 0 0-.13-.2.661.661 0 0 0-.2-.14.663.663 0 0 0-.48 0 .49.49 0 0 0-.2.14.49.49 0 0 0-.14.2c-.03.07-.05.16-.05.24 0 .16.07.32.19.44.05.06.12.1.2.13Z"/>
  </g>
</svg>
