<svg id="uuid-0e21f007-b135-4a20-8d13-409abab61316" xmlns="http://www.w3.org/2000/svg" viewBox="0 0 36 36">
  <defs>
    <style>
      .uuid-dec5906f-5d14-4217-98a9-d3657f8553b8{stroke-width:0}
    </style>
  </defs>
  <g id="uuid-0ca44cde-c249-4893-887e-7f1e9143a5be">
    <path class="uuid-dec5906f-5d14-4217-98a9-d3657f8553b8" d="M26.625 18.998a.625.625 0 0 0-1.25 0c0 4.135-3.24 7.375-7.375 7.375s-7.375-3.24-7.375-7.375a.625.625 0 0 0-1.25 0c0 4.544 3.536 8.27 8 8.593v2.782H12a.625.625 0 0 0 0 1.25h12a.625.625 0 0 0 0-1.25h-5.375V27.59c4.464-.323 8-4.049 8-8.593Z"/>
    <path class="uuid-dec5906f-5d14-4217-98a9-d3657f8553b8" d="M28 16.373h-4.34l-.026-1.75H25a.625.625 0 0 0 0-1.25h-7a.625.625 0 0 0 0 1.25h4.384l.026 1.75h-8.86v-6.3c0-2.454 1.996-4.45 4.45-4.45s4.45 1.996 4.45 4.45v.3H18a.625.625 0 0 0 0 1.25h7a.625.625 0 0 0 0-1.25h-1.3v-.3c0-3.143-2.556-5.7-5.7-5.7s-5.7 2.557-5.7 5.7v6.3H8a.625.625 0 0 0 0 1.25h4.3v1.405c0 3.143 2.556 5.7 5.7 5.7s5.7-2.557 5.7-5.709l-.02-1.396H28a.625.625 0 0 0 0-1.25Zm-5.55 2.655c0 2.454-1.996 4.45-4.45 4.45s-4.45-1.996-4.45-4.45v-1.405h8.88l.02 1.405Z"/>
  </g>
</svg>
