<svg id="uuid-264937fb-8370-432a-9602-3aff25277b8a" xmlns="http://www.w3.org/2000/svg" viewBox="0 0 36 36">
  <defs>
    <style>
      .uuid-b75a4fb0-0c1c-4860-995d-9f52be6d8159{stroke-width:0}
    </style>
  </defs>
  <g id="uuid-5282e5f0-fb62-4332-bfe9-0c5a572866be">
    <path class="uuid-b75a4fb0-0c1c-4860-995d-9f52be6d8159" d="M21 26.375a.625.625 0 0 0-.625.625v3.375H8.625v-11.75H18a.625.625 0 0 0 0-1.25H8a.625.625 0 0 0-.625.625v13c0 .345.28.625.625.625h13c.345 0 .625-.28.625-.625v-4a.625.625 0 0 0-.625-.625Zm7-22H15a.625.625 0 0 0-.625.625v10a.625.625 0 0 0 1.25 0V5.625h11.75v11.75H24a.625.625 0 0 0 0 1.25h4c.345 0 .625-.28.625-.625V5A.625.625 0 0 0 28 4.375Z"/>
    <path class="uuid-b75a4fb0-0c1c-4860-995d-9f52be6d8159" d="M23.558 15.442a.624.624 0 0 0 .884 0 .626.626 0 0 0 0-.884l-3-3c-.01-.01-.023-.013-.034-.022a.622.622 0 0 0-.169-.112.626.626 0 0 0-.478 0 .62.62 0 0 0-.17.112c-.01.009-.023.012-.033.022l-3 3a.626.626 0 0 0 .884.884l1.933-1.933V24a.625.625 0 0 0 1.25 0V13.51l1.933 1.932Z"/>
  </g>
</svg>
