<svg xmlns="http://www.w3.org/2000/svg" viewBox="0 0 36 36">
  <path d="M19.717 29.95c-.12.11-.19.27-.19.44 0 .16.07.33.19.44.11.12.27.18.44.18.16 0 .32-.06.44-.18a.627.627 0 0 0 0-.88.628.628 0 0 0-.88 0Zm7.55-.19a.625.625 0 1 0-.01 1.25.625.625 0 0 0 .01-1.25Zm-2.37 0a.625.625 0 1 0-.01 1.25.625.625 0 0 0 .01-1.25Zm-2.37 0a.625.625 0 1 0-.01 1.25.625.625 0 0 0 .01-1.25Zm7.1 0a.625.625 0 1 0 .01 1.25.625.625 0 0 0-.01-1.25Zm2.95.39a.543.543 0 0 0-.14-.2.477.477 0 0 0-.2-.14.634.634 0 0 0-.68.14c-.06.06-.1.12-.13.2-.04.08-.05.16-.05.24 0 .08.01.16.05.24.03.07.08.14.13.2.06.06.13.11.21.14.07.03.15.05.23.05.09 0 .17-.02.24-.05a.48.48 0 0 0 .2-.14.66.66 0 0 0 .14-.2c.03-.08.05-.16.05-.24 0-.08-.02-.16-.05-.24Zm-10.21-18.09c-.17-.3-.56-.4-.86-.23a.622.622 0 1 0 .62 1.08c.3-.17.41-.55.24-.85Zm-2.55-4.5a.624.624 0 1 0-1.09.609.624.624 0 0 0 1.09-.609Zm.42 2.01c-.3.17-.41.55-.24.86.12.2.33.31.55.31a.621.621 0 0 0 .54-.93.625.625 0 0 0-.85-.24Zm5.09 9.01c-.3.17-.41.55-.24.86.12.2.33.31.55.31a.621.621 0 0 0 .54-.93.625.625 0 0 0-.85-.24Zm4.13 7.93c.1 0 .21-.03.3-.08a.626.626 0 1 0-.3.08Zm-1.58-3.42c-.3.17-.41.55-.24.85.12.2.33.32.55.32.1 0 .2-.03.3-.08.3-.17.41-.56.24-.86s-.55-.4-.85-.23Zm2.54 4.5c-.3.17-.4.55-.23.86.11.2.32.31.54.31a.621.621 0 0 0 .54-.93.624.624 0 0 0-.85-.24Zm-7.63-13.51c-.31.17-.41.55-.24.85.11.2.33.32.54.32a.627.627 0 0 0 .55-.93.617.617 0 0 0-.85-.24Zm4.43 7.84c.3-.17.41-.55.24-.85-.18-.3-.56-.4-.86-.23a.622.622 0 0 0 .31 1.16c.11 0 .21-.02.31-.08Zm-2.55-4.5c.31-.17.41-.55.24-.85a.624.624 0 1 0-.24.85Zm-6.23-12.25a.647.647 0 0 0-.88 0c-.06.06-.1.13-.13.2-.04.08-.05.16-.05.24s.01.16.05.24c.03.08.07.15.13.2.12.12.28.19.44.19.17 0 .33-.07.44-.19a.47.47 0 0 0 .14-.2c.03-.08.05-.16.05-.24s-.02-.16-.05-.24a.641.641 0 0 0-.14-.2Zm-1.9 3.03c.1.06.2.08.31.08a.625.625 0 0 0 .3-1.17.624.624 0 0 0-.61 1.09Zm-2.31 4.1c.09.05.2.08.3.08.22 0 .43-.12.55-.32.17-.3.06-.68-.24-.85a.617.617 0 0 0-.85.24c-.17.3-.07.68.24.85Zm1.15-2.05c.1.05.21.08.31.08a.6.6 0 0 0 .54-.32c.17-.3.07-.68-.23-.85a.625.625 0 0 0-.85.24c-.17.3-.07.68.23.85Zm-2.31 4.09c.1.06.2.08.31.08.21 0 .43-.11.54-.31.17-.3.06-.68-.24-.85s-.68-.07-.85.23c-.17.3-.06.68.24.85Zm-.85 2.13c.08 0 .16-.01.24-.05a.632.632 0 0 0 .39-.57.657.657 0 0 0-.19-.45.63.63 0 0 0-.88 0 .637.637 0 0 0-.19.45.63.63 0 0 0 .63.62Zm-.673 1.222c-.22-.392-.867-.392-1.088 0l-7 12.39a.627.627 0 0 0 .544.932h14a.625.625 0 0 0 .544-.933l-7-12.389ZM5.072 29.764 11 19.27l5.929 10.493H5.072Z"/>
</svg>
