<svg id="uuid-3bf94825-ddc9-4d3b-abc9-74f62f14d7d9" xmlns="http://www.w3.org/2000/svg" viewBox="0 0 36 36">
  <defs>
    <style>
      .uuid-f39889af-3787-4988-98e5-f883def8b865{stroke-width:0}
    </style>
  </defs>
  <g id="uuid-1f13ce25-1ed9-44f2-aa95-00b86ef9a9f1">
    <path class="uuid-f39889af-3787-4988-98e5-f883def8b865" d="M18 4.375H4A.625.625 0 0 0 3.375 5v26c0 .345.28.625.625.625h14c.345 0 .625-.28.625-.625V5A.625.625 0 0 0 18 4.375Zm-.625 26H4.625V5.625h12.75v24.75Z"/>
    <path class="uuid-f39889af-3787-4988-98e5-f883def8b865" d="M11 8.63c.17 0 .33-.07.44-.19a.61.61 0 0 0 .19-.44c0-.08-.02-.16-.05-.24a.659.659 0 0 0-.14-.2.648.648 0 0 0-.88 0 .66.66 0 0 0-.14.2c-.03.08-.04.16-.04.24 0 .16.06.33.18.44.11.12.28.19.44.19Zm2 18.745H9a.625.625 0 0 0 0 1.25h4a.625.625 0 0 0 0-1.25ZM27.927 9.072a.625.625 0 1 0-.884.885c4.435 4.435 4.435 11.652 0 16.086a.626.626 0 0 0 .884.885c4.922-4.923 4.922-12.933 0-17.856Z"/>
    <path class="uuid-f39889af-3787-4988-98e5-f883def8b865" d="M25.099 11.9a.625.625 0 1 0-.884.885c2.875 2.875 2.875 7.555 0 10.43a.626.626 0 0 0 .884.885c3.362-3.364 3.362-8.836 0-12.2Zm-3.712 2.83a.625.625 0 0 0 0 .884c.637.637.988 1.485.988 2.386s-.351 1.749-.988 2.386a.625.625 0 0 0 .884.884c.873-.874 1.354-2.035 1.354-3.27s-.481-2.397-1.354-3.27a.625.625 0 0 0-.884 0ZM8 21.375a.625.625 0 0 0 0 1.25h6a.625.625 0 0 0 0-1.25H9.625v-2.75H13a.625.625 0 0 0 0-1.25H9.625V17a2.378 2.378 0 0 1 3.959-1.77.625.625 0 0 0 .833-.932A3.622 3.622 0 0 0 12 13.375 3.629 3.629 0 0 0 8.375 17v.375H8a.625.625 0 0 0 0 1.25h.375v2.75H8Z"/>
  </g>
</svg>
