<svg id="uuid-b40b05d6-5d40-4177-9ec1-65c9acff9117" xmlns="http://www.w3.org/2000/svg" viewBox="0 0 36 36">
  <defs>
    <style>
      .uuid-d7249516-9f2d-4104-9bac-31c38560f929{stroke-width:0}
    </style>
  </defs>
  <path class="uuid-d7249516-9f2d-4104-9bac-31c38560f929" d="M31 25.375H5a.625.625 0 0 0 0 1.25h26a.625.625 0 0 0 0-1.25Zm-18-9.75c.345 0 .625-.28.625-.625v-1.68l3.928 3.916-.007.006s3.187 3.176 4.112 4.1c1.213 1.214 2.826 1.882 4.542 1.882s3.33-.668 4.543-1.881c1.214-1.214 1.882-2.827 1.882-4.543s-.668-3.33-1.882-4.544c-1.213-1.213-2.826-1.881-4.543-1.881s-3.329.668-4.542 1.882l-2.306 2.3a.625.625 0 1 0 .882.885l2.307-2.301a5.179 5.179 0 0 1 7.318 0c.978.977 1.516 2.277 1.516 3.659s-.538 2.681-1.516 3.658a5.178 5.178 0 0 1-5.519 1.16c-.015-.02-.022-.042-.04-.06a2.288 2.288 0 0 1-.675-1.63c0-1.078.748-1.979 1.75-2.228V19a.625.625 0 0 0 1.25 0v-3a.625.625 0 0 0-.625-.625h-3a.625.625 0 0 0 0 1.25h1.642a3.552 3.552 0 0 0-2.267 3.304c0 .136.024.268.04.402-1.041-1.04-3.911-3.899-3.98-3.967l.006-.007-3.741-3.732H16a.625.625 0 0 0 0-1.25h-3c-.019 0-.035.01-.054.01l-.04.009a.617.617 0 0 0-.531.606v3c0 .345.28.625.625.625Z"/>
  <path class="uuid-d7249516-9f2d-4104-9bac-31c38560f929" d="M9.787 23.22c1.645 0 3.29-.625 4.543-1.878l2.111-2.108a.625.625 0 0 0-.882-.884l-2.113 2.108a5.18 5.18 0 0 1-7.319 0 5.18 5.18 0 0 1 0-7.317 5.164 5.164 0 0 1 4.743-1.402.626.626 0 0 0 .26-1.223 6.414 6.414 0 0 0-5.886 1.74 6.433 6.433 0 0 0 0 9.087 6.405 6.405 0 0 0 4.543 1.878Z"/>
</svg>
