<svg id="uuid-51b0cb0d-6149-45fc-b8e6-24092b6eff09" xmlns="http://www.w3.org/2000/svg" viewBox="0 0 36 36">
  <defs>
    <style>
      .uuid-9819f167-ac02-42ea-b26c-44cd60087f73{stroke-width:0}
    </style>
  </defs>
  <g id="uuid-ebd9dd2c-7e4e-40df-980c-b718794681cf">
    <path class="uuid-9819f167-ac02-42ea-b26c-44cd60087f73" d="M18 4.375H4A.625.625 0 0 0 3.375 5v26c0 .345.28.625.625.625h14c.345 0 .625-.28.625-.625V5A.625.625 0 0 0 18 4.375Zm-.625 26H4.625V5.625h12.75v24.75Z"/>
    <path class="uuid-9819f167-ac02-42ea-b26c-44cd60087f73" d="M10.56 8.44c.05.06.13.11.2.14.08.03.16.05.24.05.08 0 .16-.02.24-.05.08-.03.15-.08.2-.14a.66.66 0 0 0 .14-.2c.03-.08.05-.16.05-.24 0-.16-.07-.32-.19-.44a.727.727 0 0 0-.2-.14.652.652 0 0 0-.68.14.62.62 0 0 0-.18.44c0 .08.01.16.04.24.03.07.08.14.14.2ZM13 27.375H9a.625.625 0 0 0 0 1.25h4a.625.625 0 0 0 0-1.25ZM27.927 9.072a.625.625 0 1 0-.884.885c4.435 4.435 4.435 11.652 0 16.086a.626.626 0 0 0 .884.885c4.922-4.923 4.922-12.933 0-17.856Z"/>
    <path class="uuid-9819f167-ac02-42ea-b26c-44cd60087f73" d="M25.099 11.9a.625.625 0 1 0-.884.885c2.875 2.875 2.875 7.555 0 10.43a.626.626 0 0 0 .884.885c3.362-3.364 3.362-8.836 0-12.2Zm-3.712 2.83a.625.625 0 0 0 0 .884c.637.637.988 1.485.988 2.386s-.351 1.749-.988 2.386a.625.625 0 0 0 .884.884c.873-.874 1.354-2.035 1.354-3.27s-.481-2.397-1.354-3.27a.625.625 0 0 0-.884 0Zm-11.012 2.53v.115H9a.625.625 0 0 0 0 1.25h1.375v.75H9a.625.625 0 0 0 0 1.25h1.375V22a.625.625 0 0 0 1.25 0v-1.375H13a.625.625 0 0 0 0-1.25h-1.375v-.75H13a.625.625 0 0 0 0-1.25h-1.375v-.116l2.817-2.817a.626.626 0 0 0-.884-.884L11 16.116l-2.558-2.558a.625.625 0 1 0-.884.884l2.817 2.817Z"/>
  </g>
</svg>
