<svg id="uuid-85407ff1-1550-4c0b-9488-5db1f374d3dc" xmlns="http://www.w3.org/2000/svg" viewBox="0 0 36 36">
  <defs>
    <style>
      .uuid-bf00bade-520a-4800-9dc3-eaa761ddfdae{stroke-width:0}
    </style>
  </defs>
  <g id="uuid-3f1b1d01-968d-4819-93f8-8e07fa5d2fd4">
    <path class="uuid-bf00bade-520a-4800-9dc3-eaa761ddfdae" d="M18.62 28c0-.35-.28-.62-.62-.62H5.1V5.62h16.28V11c0 .35.28.62.62.62s.62-.28.62-.62V5c0-.35-.28-.62-.62-.62H4.48c-.34 0-.62.28-.62.62v23c0 .35.28.62.62.62H18c.34 0 .62-.28.62-.62Z"/>
    <path class="uuid-bf00bade-520a-4800-9dc3-eaa761ddfdae" d="M13.92 9.44c.12-.11.18-.27.18-.44 0-.16-.06-.33-.18-.44a.647.647 0 0 0-.88 0c-.12.11-.19.28-.19.44 0 .17.07.33.19.44.11.12.27.19.44.19.16 0 .32-.07.44-.19ZM10.85 24c0 .35.28.62.62.62h4c.34 0 .62-.28.62-.62s-.28-.62-.62-.62h-4c-.34 0-.62.28-.62.62ZM31 13.38H21c-.34 0-.62.28-.62.62v17c0 .35.28.62.62.62h10c.34 0 .62-.28.62-.62V14c0-.35-.28-.62-.62-.62Zm-.62 17h-8.75V14.62h8.75v15.76Z"/>
    <path class="uuid-bf00bade-520a-4800-9dc3-eaa761ddfdae" d="m25.76 17.58.24.04c.17 0 .33-.06.44-.18.12-.11.19-.28.19-.44s-.07-.33-.19-.44a.633.633 0 0 0-.68-.14l-.2.14c-.12.11-.19.28-.19.44s.07.33.19.44l.2.14ZM25 28.62h2c.34 0 .62-.28.62-.62s-.28-.62-.62-.62h-2c-.34 0-.62.28-.62.62s.28.62.62.62Z"/>
  </g>
</svg>
