<svg id="uuid-7be8be04-5b21-4ff7-af9b-fdffc161fef0" xmlns="http://www.w3.org/2000/svg" viewBox="0 0 36 36">
  <defs>
    <style>
      .uuid-dc3536de-34c9-4217-907a-9ae2791c1dd0{stroke-width:0}
    </style>
  </defs>
  <g id="uuid-8eea15da-ba1a-46c7-9913-2971b3734fd8">
    <path class="uuid-dc3536de-34c9-4217-907a-9ae2791c1dd0" d="M18 4.375H4A.625.625 0 0 0 3.375 5v26c0 .345.28.625.625.625h14c.345 0 .625-.28.625-.625V5A.625.625 0 0 0 18 4.375Zm-.625 26H4.625V5.625h12.75v24.75Z"/>
    <path class="uuid-dc3536de-34c9-4217-907a-9ae2791c1dd0" d="M11 8.63c.08 0 .16-.02.24-.05a.66.66 0 0 0 .2-.14c.12-.11.19-.27.19-.44 0-.16-.07-.33-.19-.44a.91.91 0 0 0-.2-.14.652.652 0 0 0-.68.14c-.12.11-.18.27-.18.44s.06.33.18.44c.12.12.28.19.44.19Zm2 18.745H9a.625.625 0 0 0 0 1.25h4a.625.625 0 0 0 0-1.25ZM27.927 9.072a.625.625 0 1 0-.884.885c4.435 4.435 4.435 11.652 0 16.086a.626.626 0 0 0 .884.885c4.922-4.923 4.922-12.933 0-17.856Z"/>
    <path class="uuid-dc3536de-34c9-4217-907a-9ae2791c1dd0" d="M25.099 11.9a.625.625 0 1 0-.884.885c2.875 2.875 2.875 7.555 0 10.43a.626.626 0 0 0 .884.885c3.362-3.364 3.362-8.836 0-12.2Zm-3.712 2.83a.625.625 0 0 0 0 .884c.637.637.988 1.485.988 2.386s-.351 1.749-.988 2.386a.625.625 0 0 0 .884.884c.873-.874 1.354-2.035 1.354-3.27s-.481-2.397-1.354-3.27a.625.625 0 0 0-.884 0ZM6.875 19c0 .345.28.625.625.625h.685c.661 1.748 2.339 3 4.315 3a4.62 4.62 0 0 0 2.313-.62.626.626 0 0 0-.627-1.081 3.369 3.369 0 0 1-1.686.451c-1.269 0-2.363-.712-2.94-1.75h3.94a.625.625 0 0 0 0-1.25H9.163c-.014-.125-.038-.247-.038-.375s.024-.25.038-.375H13.5a.625.625 0 0 0 0-1.25H9.56c.577-1.038 1.671-1.75 2.94-1.75.594 0 1.177.156 1.686.451a.626.626 0 0 0 .627-1.082 4.62 4.62 0 0 0-2.313-.619c-1.976 0-3.654 1.253-4.315 3H7.5a.625.625 0 0 0 0 1.25h.413c-.01.126-.038.247-.038.375s.028.25.038.375H7.5a.625.625 0 0 0-.625.625Z"/>
  </g>
</svg>
