<svg id="uuid-5de0d90b-1bf3-4b93-9a05-1075187d18d5" xmlns="http://www.w3.org/2000/svg" viewBox="0 0 36 36">
  <defs>
    <style>
      .uuid-01e67763-55f6-4f50-b6f1-506d2b3a1c55{stroke-width:0}
    </style>
  </defs>
  <path class="uuid-01e67763-55f6-4f50-b6f1-506d2b3a1c55" d="M12.24 30.42a.662.662 0 0 0-.48 0c-.07.04-.14.08-.2.14-.12.12-.19.28-.19.44s.07.32.19.44c.05.06.13.11.2.14.08.03.16.05.24.05s.16-.02.24-.05c.07-.03.15-.08.2-.14.12-.12.19-.28.19-.44s-.07-.32-.19-.44a.597.597 0 0 0-.2-.14Zm6 0a.652.652 0 0 0-.68.14c-.06.06-.1.13-.14.2-.03.08-.04.16-.04.24s0 .16.04.24.08.14.14.2c.12.12.28.19.44.19.08 0 .16-.02.24-.05.07-.03.15-.08.2-.14.12-.12.19-.28.19-.44s-.07-.32-.19-.44a.558.558 0 0 0-.2-.14Zm5.52 0c-.07.04-.14.08-.2.14-.12.11-.19.27-.19.44 0 .16.07.33.19.44.06.06.13.11.2.14.08.03.16.05.24.05s.16-.02.24-.05c.08-.03.14-.08.2-.14.12-.11.19-.28.19-.44 0-.17-.07-.33-.19-.44a.633.633 0 0 0-.68-.14ZM24 19.38h-.33l.95-12.33a.673.673 0 0 0-.16-.47.629.629 0 0 0-.46-.2H12c-.17 0-.34.07-.46.2s-.18.3-.16.47l.95 12.33H12c-1.45 0-2.62 1.18-2.62 2.62v2c0 .35.28.62.62.62h7.38v3.75H11c-.34 0-.62.28-.62.62s.28.62.62.62h14c.34 0 .62-.28.62-.62s-.28-.62-.62-.62h-6.38v-3.75H26c.34 0 .62-.28.62-.62v-2c0-1.45-1.18-2.62-2.62-2.62ZM12.67 7.62h10.65l-.9 11.75h-8.84l-.9-11.75h-.01Zm12.7 15.75H10.62v-1.38c0-.76.62-1.38 1.38-1.38h12c.76 0 1.38.62 1.38 1.38v1.38h-.01ZM15 5.62h6c.34 0 .62-.28.62-.62s-.28-.62-.62-.62h-6c-.34 0-.62.28-.62.62s.28.62.62.62Z"/>
  <path class="uuid-01e67763-55f6-4f50-b6f1-506d2b3a1c55" d="M10.62 17c0-.35-.28-.62-.62-.62H8c-.34 0-.62.28-.62.62s.28.62.62.62h2c.34 0 .62-.28.62-.62ZM28 16.38h-2c-.34 0-.62.28-.62.62s.28.62.62.62h2c.34 0 .62-.28.62-.62s-.28-.62-.62-.62Z"/>
</svg>
