<svg id="uuid-7e14c6b5-3f50-41d8-aa38-dd99cfa15459" xmlns="http://www.w3.org/2000/svg" viewBox="0 0 36 36">
  <defs>
    <style>
      .uuid-e496c248-6844-4c14-9f30-025e010610a6{stroke-width:0}
    </style>
  </defs>
  <g id="uuid-1492e007-dbb0-4c24-a938-eacb7834025c">
    <path class="uuid-e496c248-6844-4c14-9f30-025e010610a6" d="M21.625 16c0-1.999-1.626-3.625-3.625-3.625S14.375 14.001 14.375 16s1.626 3.625 3.625 3.625 3.625-1.626 3.625-3.625ZM18 18.375c-1.31 0-2.375-1.065-2.375-2.375S16.69 13.625 18 13.625 20.375 14.69 20.375 16 19.31 18.375 18 18.375Zm10.5 0c-2.274 0-4.125 1.85-4.125 4.125s1.85 4.125 4.125 4.125 4.125-1.85 4.125-4.125-1.85-4.125-4.125-4.125Zm0 7c-1.585 0-2.875-1.29-2.875-2.875s1.29-2.875 2.875-2.875 2.875 1.29 2.875 2.875-1.29 2.875-2.875 2.875Zm-7.5-3c-1.447 0-2.625 1.178-2.625 2.625s1.178 2.625 2.625 2.625 2.625-1.178 2.625-2.625-1.178-2.625-2.625-2.625Zm0 4c-.758 0-1.375-.617-1.375-1.375s.617-1.375 1.375-1.375 1.375.617 1.375 1.375-.617 1.375-1.375 1.375Z"/>
    <path class="uuid-e496c248-6844-4c14-9f30-025e010610a6" d="M17 22.375H9.612a4.117 4.117 0 0 0-3.987-3.987v-4.776a4.117 4.117 0 0 0 3.987-3.987h16.776a4.117 4.117 0 0 0 3.987 3.987V17a.625.625 0 0 0 1.25 0V9A.625.625 0 0 0 31 8.375H5A.625.625 0 0 0 4.375 9v14c0 .345.28.625.625.625h12a.625.625 0 0 0 0-1.25Zm13.375-10.013a2.866 2.866 0 0 1-2.737-2.737h2.737v2.737ZM8.362 9.625a2.866 2.866 0 0 1-2.737 2.737V9.625h2.737ZM5.625 19.638a2.866 2.866 0 0 1 2.737 2.737H5.625v-2.737Z"/>
    <path class="uuid-e496c248-6844-4c14-9f30-025e010610a6" d="M24.56 15.56c-.12.12-.18.28-.18.44s.06.32.18.44c.11.12.27.19.44.19.17 0 .33-.07.44-.19.12-.12.19-.28.19-.44s-.07-.32-.19-.44a.648.648 0 0 0-.88 0Zm-14 0c-.12.12-.18.28-.18.44s.06.32.18.44c.11.12.28.19.44.19.08 0 .16-.02.24-.05.08-.03.15-.08.2-.14.12-.12.19-.28.19-.44s-.07-.32-.19-.44a.605.605 0 0 0-.2-.14.652.652 0 0 0-.68.14Z"/>
  </g>
</svg>
