<svg id="uuid-99aef39d-cb2d-41a8-b643-7a20bee252b3" xmlns="http://www.w3.org/2000/svg" viewBox="0 0 36 36">
  <defs>
    <style>
      .uuid-b371cdcf-139c-4da2-a2a9-68daccb4de5e{stroke-width:0}
    </style>
  </defs>
  <g id="uuid-76143a7b-6e5b-4a1f-b101-d44e3fc7366d">
    <path class="uuid-b371cdcf-139c-4da2-a2a9-68daccb4de5e" d="M31 9.375H11a.625.625 0 0 0-.625.625v10c0 .345.28.625.625.625h20c.345 0 .625-.28.625-.625V10A.625.625 0 0 0 31 9.375Zm-.625 10h-18.75v-8.75h18.75v8.75Z"/>
    <path class="uuid-b371cdcf-139c-4da2-a2a9-68daccb4de5e" d="M28 22.375H8.625V13a.625.625 0 0 0-1.25 0v10c0 .345.28.625.625.625h20a.625.625 0 0 0 0-1.25Z"/>
    <path class="uuid-b371cdcf-139c-4da2-a2a9-68daccb4de5e" d="M25 25.375H5.625V16a.625.625 0 0 0-1.25 0v10c0 .345.28.625.625.625h20a.625.625 0 0 0 0-1.25Zm-4-7.75c1.447 0 2.625-1.178 2.625-2.625S22.447 12.375 21 12.375 18.375 13.553 18.375 15s1.178 2.625 2.625 2.625Zm0-4c.758 0 1.375.617 1.375 1.375s-.617 1.375-1.375 1.375-1.375-.617-1.375-1.375.617-1.375 1.375-1.375Zm5 2.005c.17 0 .33-.07.44-.19.12-.12.19-.28.19-.44a.632.632 0 0 0-1.07-.44c-.12.12-.18.28-.18.44s.06.32.18.44c.11.12.28.19.44.19Zm-10.24-.05c.08.03.16.05.24.05.08 0 .16-.02.24-.05.08-.03.15-.08.2-.14.12-.11.18-.27.18-.44 0-.16-.06-.33-.18-.44a.605.605 0 0 0-.2-.14.637.637 0 0 0-.68.14c-.12.11-.18.27-.18.44s.06.33.18.44c.06.06.13.11.2.14Z"/>
  </g>
</svg>
