<svg xmlns="http://www.w3.org/2000/svg" viewBox="0 0 36 36">
  <path d="M4 29.81h28c.22 0 .43-.12.54-.31.11-.19.11-.43 0-.62l-6-10.62c-.22-.39-.87-.39-1.09 0l-.81 1.43-7.46-13.2c-.22-.39-.87-.39-1.09 0L3.46 28.88c-.11.19-.11.43 0 .62s.32.31.54.31ZM16.65 8.08l2.94 5.2-1.13 1.13-1.36-1.37a.647.647 0 0 0-.88 0l-1.36 1.36-1.13-1.13 2.94-5.2-.02.01Zm-3.57 6.33 1.33 1.33c.23.24.65.24.88 0l1.36-1.36 1.36 1.37c.12.12.28.18.44.18s.32-.06.44-.18l1.33-1.33 3.71 6.56-2.1 3.72a.625.625 0 0 0 1.09.61l3.09-5.47 4.93 8.72H5.07l8-14.15h.01Z"/>
</svg>
