<svg id="uuid-dca9807a-7c3d-49d9-84c4-c42a9a3b5486" xmlns="http://www.w3.org/2000/svg" viewBox="0 0 36 36">
  <defs>
    <style>
      .uuid-0c9ba356-3ebe-44bf-b8ed-700898dbd2f0{stroke-width:0}
    </style>
  </defs>
  <g id="uuid-df623f67-8419-4970-b6d7-d7c910363106">
    <path class="uuid-0c9ba356-3ebe-44bf-b8ed-700898dbd2f0" d="M26.51 12.97c0-4.73-3.84-8.57-8.57-8.57s-8.57 3.84-8.57 8.57v10.08c0 4.73 3.84 8.57 8.57 8.57s8.57-3.84 8.57-8.57V12.97Zm-1.25 10.08c0 4.04-3.28 7.32-7.32 7.32s-7.32-3.28-7.32-7.32V12.97c0-4.04 3.28-7.32 7.32-7.32s7.32 3.28 7.32 7.32v10.08Z"/>
    <path class="uuid-0c9ba356-3ebe-44bf-b8ed-700898dbd2f0" d="M17.94 8.38c-.35 0-.62.28-.62.62v7.45c0 .35.28.62.62.62s.62-.28.62-.62V9c0-.35-.28-.62-.62-.62Z"/>
  </g>
</svg>
