<svg xmlns="http://www.w3.org/2000/svg" viewBox="0 0 36 36">
  <path d="M27 30.38H4c-.34 0-.62.28-.62.62s.28.62.62.62h23c.34 0 .62-.28.62-.62s-.28-.62-.62-.62ZM25.72 7.95V5c0-.34-.28-.62-.62-.62H5c-.34 0-.62.28-.62.62v16c0 3.65 2.97 6.62 6.62 6.62h8.09c3.65 0 6.62-2.97 6.62-6.62v-.04c3.31-.32 5.91-3.11 5.91-6.5s-2.6-6.19-5.91-6.5l.01-.01ZM24.47 21c0 2.96-2.41 5.38-5.38 5.38H11c-2.96 0-5.38-2.41-5.38-5.38V5.62h18.85V21Zm1.25-1.32V9.23c2.62.31 4.66 2.52 4.66 5.22s-2.04 4.91-4.66 5.22v.01Z"/>
</svg>
