<svg xmlns="http://www.w3.org/2000/svg" viewBox="0 0 36 36">
  <path d="M30.674 22.511a5.098 5.098 0 0 0-2.05-8.99V13.5c0-5.032-4.092-9.125-9.124-9.125a9.123 9.123 0 0 0-8.164 5.052c-4.35-.524-7.961 2.871-7.961 7.073 0 1.44.441 2.8 1.241 3.977A7.137 7.137 0 0 0 3.375 24.5a7.133 7.133 0 0 0 7.125 7.125H28c.092 0 .18-.02.26-.056a5.133 5.133 0 0 0 4.365-5.069 5.067 5.067 0 0 0-1.951-3.989ZM4.624 16.5a5.882 5.882 0 0 1 5.876-5.875c.355 0 .712.034 1.09.105a.626.626 0 0 0 .688-.365 7.874 7.874 0 0 1 7.222-4.74c4.342 0 7.875 3.533 7.875 7.875 0 .128-.009.253-.018.379l-.008.13a.625.625 0 0 0 .558.66 3.856 3.856 0 0 1 3.468 3.831 3.854 3.854 0 0 1-1.87 3.307 5.127 5.127 0 0 0-.88-.285V21.5c0-5.032-4.093-9.125-9.125-9.125a9.123 9.123 0 0 0-8.164 5.052 7.026 7.026 0 0 0-5.891 2.044 5.805 5.805 0 0 1-.82-2.97V16.5ZM27.5 30.375h-17c-3.24 0-5.875-2.636-5.875-5.875s2.636-5.875 5.875-5.875c.355 0 .712.034 1.09.105a.625.625 0 0 0 .688-.365 7.874 7.874 0 0 1 7.222-4.74c4.342 0 7.875 3.533 7.875 7.875 0 .128-.009.253-.018.379l-.008.13a.625.625 0 0 0 .558.66 3.856 3.856 0 0 1 3.468 3.831 3.88 3.88 0 0 1-3.875 3.875Z"/>
</svg>
