<svg xmlns="http://www.w3.org/2000/svg" viewBox="0 0 36 36">
  <path d="M31.576 18.24a.625.625 0 0 0 0-.482.623.623 0 0 0-.127-.19c-.003-.003-.004-.008-.008-.011l-3-3a.625.625 0 1 0-.882.886l1.932 1.931h-10.04c2.496-1.513 4.174-4.247 4.174-7.374V8.51l1.933 1.932a.623.623 0 0 0 .884 0 .628.628 0 0 0 0-.884l-3-3c-.027-.028-.062-.041-.093-.062-.036-.025-.068-.055-.108-.072a.627.627 0 0 0-.481 0c-.041.017-.073.047-.109.072-.03.021-.066.034-.093.062l-3 3a.626.626 0 0 0 .885.885l1.932-1.934V10c0 4.06-3.298 7.364-7.356 7.374h-3.457A3.624 3.624 0 0 0 8 14.375c-1.999 0-3.625 1.626-3.625 3.625S6.001 21.625 8 21.625c1.785 0 3.264-1.3 3.562-3H15c4.067 0 7.375 3.309 7.375 7.375v1.491l-1.932-1.933a.626.626 0 0 0-.885.885l3 3c.025.025.056.036.084.056.039.027.074.06.118.078a.63.63 0 0 0 .48 0c.045-.019.08-.05.118-.078.028-.02.06-.031.085-.056l3-3a.626.626 0 0 0-.885-.885l-1.933 1.933v-1.49c0-3.129-1.679-5.864-4.177-7.377h10.044l-1.934 1.935a.625.625 0 1 0 .885.883l3-3.001c.016-.017.023-.04.038-.057.036-.045.073-.09.096-.144ZM8 20.375c-1.31 0-2.375-1.065-2.375-2.375S6.69 15.625 8 15.625 10.375 16.69 10.375 18 9.31 20.375 8 20.375Z"/>
</svg>
