<svg id="uuid-2897db93-272b-4770-aaba-95d519823a17" xmlns="http://www.w3.org/2000/svg" viewBox="0 0 36 36">
  <defs>
    <style>
      .uuid-470508c8-a44a-4af4-b270-0f9966cbe095{stroke-width:0}
    </style>
  </defs>
  <g id="uuid-7154794c-dcdc-4ca0-81f9-e7bbfd097f9d">
    <path class="uuid-470508c8-a44a-4af4-b270-0f9966cbe095" d="M5.676 23.206c-.698-1.648-1.051-3.4-1.051-5.206s.353-3.558 1.05-5.206a13.33 13.33 0 0 1 2.867-4.251.626.626 0 0 0-.883-.885A14.588 14.588 0 0 0 3.375 18a14.587 14.587 0 0 0 4.284 10.342.622.622 0 0 0 .883 0 .626.626 0 0 0 0-.885 13.33 13.33 0 0 1-2.866-4.251Zm25.8-10.898a14.587 14.587 0 0 0-3.135-4.65.625.625 0 1 0-.884.885A13.33 13.33 0 0 1 31.375 18a13.33 13.33 0 0 1-3.918 9.457.626.626 0 0 0 .884.885A14.588 14.588 0 0 0 32.625 18c0-1.974-.387-3.89-1.15-5.692Z"/>
    <path class="uuid-470508c8-a44a-4af4-b270-0f9966cbe095" d="M10.664 10.664a.626.626 0 0 0-.884-.885A11.596 11.596 0 0 0 6.375 18a11.597 11.597 0 0 0 3.405 8.22.622.622 0 0 0 .884 0 .626.626 0 0 0 0-.884A10.329 10.329 0 0 1 7.625 18a10.33 10.33 0 0 1 3.038-7.336ZM29.625 18a11.596 11.596 0 0 0-3.405-8.22.625.625 0 1 0-.884.884A10.329 10.329 0 0 1 28.375 18a10.33 10.33 0 0 1-3.039 7.336.626.626 0 0 0 .884.885A11.596 11.596 0 0 0 29.625 18Zm-9.183-9.442A.625.625 0 0 0 19.375 9v11.283A3.594 3.594 0 0 0 17 19.375c-1.999 0-3.625 1.626-3.625 3.625s1.626 3.625 3.625 3.625 3.625-1.626 3.625-3.625V10.509l1.933 1.933a.625.625 0 1 0 .884-.884l-3-3ZM17 25.375c-1.31 0-2.375-1.065-2.375-2.375S15.69 20.625 17 20.625 19.375 21.69 19.375 23 18.31 25.375 17 25.375Z"/>
  </g>
</svg>
