<svg xmlns="http://www.w3.org/2000/svg" viewBox="0 0 36 36">
  <path d="M31.612 4.936c-.002-.022.004-.043 0-.066-.005-.02-.018-.035-.024-.054a.597.597 0 0 0-.115-.212.604.604 0 0 0-.182-.148.602.602 0 0 0-.23-.069c-.02-.002-.04-.012-.06-.012-.024 0-.044.01-.066.013-.022.002-.043-.004-.065 0l-19 4.04c-.02.004-.035.017-.054.023a.599.599 0 0 0-.213.115.608.608 0 0 0-.148.184.596.596 0 0 0-.068.231c-.002.02-.012.037-.012.058V24.55A4.107 4.107 0 0 0 8.5 23.375c-2.274 0-4.125 1.85-4.125 4.125s1.85 4.125 4.125 4.125 4.125-1.85 4.125-4.125c0-.114-.024-.221-.034-.333.016-.055.034-.108.034-.167V9.545l17.75-3.773v15.78a4.107 4.107 0 0 0-2.875-1.177c-2.274 0-4.125 1.85-4.125 4.125s1.85 4.125 4.125 4.125a4.129 4.129 0 0 0 4.045-3.336.609.609 0 0 0 .08-.289V5c0-.023-.01-.042-.013-.064ZM8.5 30.375c-1.585 0-2.875-1.29-2.875-2.875s1.29-2.875 2.875-2.875 2.875 1.29 2.875 2.875-1.29 2.875-2.875 2.875Zm19-3c-1.585 0-2.875-1.29-2.875-2.875s1.29-2.875 2.875-2.875 2.875 1.29 2.875 2.875-1.29 2.875-2.875 2.875Z"/>
</svg>
