<svg xmlns="http://www.w3.org/2000/svg" viewBox="0 0 36 36">
  <path d="M21.62 18c0-2-1.63-3.62-3.62-3.62s-3.62 1.63-3.62 3.62 1.63 3.62 3.62 3.62 3.62-1.63 3.62-3.62Zm-6 0c0-1.31 1.07-2.38 2.38-2.38s2.38 1.07 2.38 2.38-1.07 2.38-2.38 2.38-2.38-1.07-2.38-2.38ZM27 22.38h-7c-.8 0-1.52.36-2 .93a2.61 2.61 0 0 0-2-.93H9c-.34 0-.62.28-.62.62v8c0 .35.28.62.62.62h18c.34 0 .62-.28.62-.62v-8c0-.35-.28-.62-.62-.62ZM18.62 25c0-.76.62-1.38 1.38-1.38h3.38v3.75h-4.75v-2.38l-.01.01Zm-1.25 0v2.38h-4.75v-3.75H16c.76 0 1.38.62 1.38 1.38l-.01-.01Zm9 5.38H9.62v-6.75h1.75v4.38c0 .35.28.62.62.62h12c.34 0 .62-.28.62-.62v-4.38h1.75v6.75h.01Zm.63-26H9c-.34 0-.62.28-.62.62v8c0 .35.28.62.62.62h7c.8 0 1.52-.36 2-.93.48.57 1.2.93 2 .93h7c.34 0 .62-.28.62-.62V5c0-.35-.28-.62-.62-.62ZM17.38 11c0 .76-.62 1.38-1.38 1.38h-3.38V8.63h4.75v2.38l.01-.01Zm1.25 0V8.62h4.75v3.75H20c-.76 0-1.38-.62-1.38-1.38l.01.01Zm7.75 1.38h-1.75V8c0-.35-.28-.62-.62-.62H12c-.34 0-.62.28-.62.62v4.38H9.63V5.62h16.75v6.76Z"/>
</svg>
