<svg id="uuid-d8418495-6c9c-4482-82f5-7afe346f9c31" xmlns="http://www.w3.org/2000/svg" viewBox="0 0 36 36">
  <defs>
    <style>
      .uuid-8b86cb65-91c5-4c87-8ba7-6a32c42f8719{stroke-width:0}
    </style>
  </defs>
  <g id="uuid-77d65d34-7052-40d1-b9d3-a3ccd3d816e4">
    <path class="uuid-8b86cb65-91c5-4c87-8ba7-6a32c42f8719" d="M13.183 14.323a.627.627 0 0 0-.774.427 14.715 14.715 0 0 0-.385 6.413.625.625 0 1 0 1.233-.202 13.455 13.455 0 0 1 .353-5.864.625.625 0 0 0-.427-.774Z"/>
    <path class="uuid-8b86cb65-91c5-4c87-8ba7-6a32c42f8719" d="M32.625 18c0-3.872-1.523-7.388-3.989-10.007a.624.624 0 0 0-.18-.199 14.672 14.672 0 0 0-4.619-3.196c-.014-.009-.03-.013-.045-.021A14.534 14.534 0 0 0 18 3.375c-7.134 0-13.082 5.137-14.362 11.904 0 .01-.004.018-.004.027-.163.874-.26 1.773-.26 2.694 0 8.065 6.561 14.625 14.626 14.625 3.934 0 7.502-1.569 10.133-4.104a.615.615 0 0 0 .156-.142A14.578 14.578 0 0 0 32.625 18ZM18 4.625c1.179 0 2.316.169 3.406.456A14.703 14.703 0 0 0 17 7.648a.625.625 0 1 0 .807.954 13.41 13.41 0 0 1 5.61-2.82 13.421 13.421 0 0 1 4.095 2.83 13.329 13.329 0 0 1-6.997 13.925c-5.171 2.713-11.606 1.71-15.707-2.425-.11-.69-.183-1.392-.183-2.112 0-.815.085-1.61.225-2.385a13.37 13.37 0 0 1 3-2.152 13.355 13.355 0 0 1 15.495 2.208.624.624 0 1 0 .867-.9A14.605 14.605 0 0 0 7.27 12.354a14.73 14.73 0 0 0-1.854 1.157C7.266 8.342 12.201 4.625 18 4.625ZM5.315 22.212a14.72 14.72 0 0 0 9.017 3.09c2.31 0 4.636-.541 6.764-1.657a14.572 14.572 0 0 0 7.825-13.34A13.289 13.289 0 0 1 31.375 18c0 3.025-1.021 5.808-2.72 8.051a14.455 14.455 0 0 0-.377-4.198.626.626 0 0 0-1.215.296c.443 1.817.489 3.672.156 5.517a13.348 13.348 0 0 1-6.19 3.35 13.41 13.41 0 0 1-4.56-3.318.624.624 0 1 0-.935.83 14.623 14.623 0 0 0 3.406 2.8c-.312.021-.623.047-.94.047-5.903 0-10.915-3.848-12.685-9.163Z"/>
  </g>
</svg>
