<svg id="uuid-10f8d6c8-037d-47d9-ae3d-7bfbe43466ef" xmlns="http://www.w3.org/2000/svg" viewBox="0 0 36 36">
  <defs>
    <style>
      .uuid-89d4a9d0-f0e6-4f31-af52-fb08dfd941ac{stroke-width:0}
    </style>
  </defs>
  <g id="uuid-6b129d29-b88e-43f9-b10c-36f1489f5958">
    <path class="uuid-89d4a9d0-f0e6-4f31-af52-fb08dfd941ac" d="M20.685 27.292a.625.625 0 0 0-.625.625v3.295a12.816 12.816 0 0 1-3.937.021v-3.27a.625.625 0 0 0-.474-.606 9.575 9.575 0 0 1-2.475-1 .625.625 0 0 0-.755.1l-2.33 2.328a13.354 13.354 0 0 1-2.793-2.774l2.317-2.317a.625.625 0 0 0 .095-.762 9.58 9.58 0 0 1-1.043-2.495.625.625 0 0 0-.605-.468H4.777c-.102-.673-.152-1.321-.152-1.969s.05-1.296.152-1.969H8.06a.625.625 0 0 0 .605-.468 9.579 9.579 0 0 1 1.043-2.496.627.627 0 0 0-.095-.762L7.296 9.989a13.352 13.352 0 0 1 2.794-2.774l2.33 2.329c.2.2.51.241.754.098a9.575 9.575 0 0 1 2.475-1 .625.625 0 0 0 .474-.606v-3.27c1.374-.2 2.622-.183 3.937.022v3.295a.625.625 0 0 0 1.25 0v-3.82a.625.625 0 0 0-.506-.613c-1.8-.35-3.499-.377-5.417-.03a.625.625 0 0 0-.515.615V7.56a10.83 10.83 0 0 0-1.9.77l-2.37-2.371a.626.626 0 0 0-.793-.075A14.628 14.628 0 0 0 5.964 9.7a.626.626 0 0 0 .073.798l2.356 2.356c-.33.614-.6 1.26-.806 1.927H4.25c-.3 0-.559.214-.614.51-.173.922-.26 1.833-.26 2.71s.087 1.786.26 2.708c.055.296.314.51.614.51h3.339c.206.668.475 1.313.805 1.928l-2.356 2.355a.626.626 0 0 0-.073.798 14.628 14.628 0 0 0 3.845 3.817c.248.168.58.136.792-.075l2.37-2.37c.606.315 1.242.572 1.901.769v3.324c0 .303.217.561.515.615a14.61 14.61 0 0 0 2.613.245 14.8 14.8 0 0 0 2.804-.275.625.625 0 0 0 .506-.614v-3.819a.625.625 0 0 0-.625-.625Z"/>
    <path class="uuid-89d4a9d0-f0e6-4f31-af52-fb08dfd941ac" d="M22.562 18.625h3.876a3.13 3.13 0 0 0 3.062 2.5c1.723 0 3.125-1.402 3.125-3.125s-1.402-3.125-3.125-3.125a3.13 3.13 0 0 0-3.062 2.5h-3.876a4.575 4.575 0 0 0-.894-2.16l3.112-3.11c.494.327 1.084.52 1.72.52 1.723 0 3.125-1.402 3.125-3.125S28.223 6.375 26.5 6.375 23.375 7.777 23.375 9.5c0 .636.193 1.226.52 1.72l-3.11 3.111A4.58 4.58 0 0 0 18 13.375c-2.55 0-4.625 2.075-4.625 4.625S15.45 22.625 18 22.625a4.58 4.58 0 0 0 2.784-.956l3.112 3.11a3.103 3.103 0 0 0-.521 1.72c0 1.724 1.402 3.126 3.125 3.126s3.125-1.402 3.125-3.125-1.402-3.125-3.125-3.125c-.636 0-1.226.193-1.72.52l-3.111-3.11c.47-.62.782-1.354.893-2.16Zm6.938-2.5c1.034 0 1.875.84 1.875 1.875s-.841 1.875-1.875 1.875-1.875-.84-1.875-1.875.841-1.875 1.875-1.875Zm-3-8.5c1.034 0 1.875.84 1.875 1.875s-.841 1.875-1.875 1.875a1.87 1.87 0 0 1-1.323-.547c0-.001 0-.003-.002-.004 0 0-.002 0-.003-.002a1.869 1.869 0 0 1-.547-1.322c0-1.034.841-1.875 1.875-1.875ZM14.625 18c0-1.861 1.514-3.375 3.375-3.375s3.375 1.514 3.375 3.375-1.514 3.375-3.375 3.375-3.375-1.514-3.375-3.375Zm13.75 8.5a1.877 1.877 0 0 1-1.875 1.875 1.876 1.876 0 0 1-1.328-3.197l.003-.002.002-.003a1.876 1.876 0 0 1 3.198 1.327Z"/>
  </g>
</svg>
