<svg id="uuid-7d4858e9-7d8d-4033-afc4-f4498ea11698" xmlns="http://www.w3.org/2000/svg" viewBox="0 0 36 36">
  <defs>
    <style>
      .uuid-8ccba32c-2393-4b1f-a08c-28881e5865c5{stroke-width:0}
    </style>
  </defs>
  <g id="uuid-4c126d0c-f500-4077-8132-ac22cc8fd66c">
    <path class="uuid-8ccba32c-2393-4b1f-a08c-28881e5865c5" d="M31 4.375H8A.625.625 0 0 0 7.375 5v23a.625.625 0 0 0 1.25 0V5.625h21.75V29c0 .758-.617 1.375-1.375 1.375H8A2.378 2.378 0 0 1 5.625 28V9a.625.625 0 0 0-1.25 0v19A3.629 3.629 0 0 0 8 31.625h21A2.628 2.628 0 0 0 31.625 29V5A.625.625 0 0 0 31 4.375Z"/>
    <path class="uuid-8ccba32c-2393-4b1f-a08c-28881e5865c5" d="M11.375 20c0 .345.28.625.625.625h6c.345 0 .625-.28.625-.625v-6a.625.625 0 0 0-.625-.625h-6a.625.625 0 0 0-.625.625v6Zm1.25-5.375h4.75v4.75h-4.75v-4.75Zm-.625 9h6a.625.625 0 0 0 0-1.25h-6a.625.625 0 0 0 0 1.25Zm0 3h3a.625.625 0 0 0 0-1.25h-3a.625.625 0 0 0 0 1.25Zm15-7.25h-6a.625.625 0 0 0 0 1.25h6a.625.625 0 0 0 0-1.25Zm0-3h-6a.625.625 0 0 0 0 1.25h6a.625.625 0 0 0 0-1.25Zm0-3h-6a.625.625 0 0 0 0 1.25h6a.625.625 0 0 0 0-1.25ZM27.625 23a.625.625 0 0 0-.625-.625h-6a.625.625 0 0 0 0 1.25h6c.345 0 .625-.28.625-.625ZM21 25.375a.625.625 0 0 0 0 1.25h3a.625.625 0 0 0 0-1.25h-3ZM27.625 8A.625.625 0 0 0 27 7.375H12a.625.625 0 0 0-.625.625v3c0 .345.28.625.625.625h15c.345 0 .625-.28.625-.625V8Zm-1.25 2.375h-13.75v-1.75h13.75v1.75Z"/>
  </g>
</svg>
