<svg id="uuid-25149253-32af-4f16-8347-9d91ae78f85b" xmlns="http://www.w3.org/2000/svg" viewBox="0 0 36 36">
  <defs>
    <style>
      .uuid-2eaea17c-2255-42e6-843f-b92ffa62fca3{stroke-width:0}
    </style>
  </defs>
  <g id="uuid-dcf6e755-9b51-47b2-bf8a-f9877190ff8e">
    <path class="uuid-2eaea17c-2255-42e6-843f-b92ffa62fca3" d="M25.64 28.98c-5.32 3.71-12.51 3.07-17.1-1.52s-5.23-11.78-1.52-17.1c.2-.28.13-.67-.15-.87s-.67-.13-.87.16c-4.06 5.81-3.36 13.68 1.66 18.7 2.84 2.84 6.58 4.29 10.35 4.29 2.9 0 5.82-.86 8.35-2.63.28-.2.35-.59.16-.87a.637.637 0 0 0-.87-.16h-.01Z"/>
    <path class="uuid-2eaea17c-2255-42e6-843f-b92ffa62fca3" d="M18 3.38c-3.91 0-7.58 1.52-10.34 4.28-.24.24-.24.64 0 .88l3.97 3.97a.61.61 0 0 0-.25.49c0 .34.28.62.62.62h.74l1.75 1.75H13c-.19 0-.36.08-.48.22s-.17.33-.13.51l2 11c.05.3.31.51.61.51h6c.3 0 .56-.22.61-.51l.71-3.9 5.13 5.13c.12.12.28.18.44.18s.32-.06.44-.18c2.76-2.76 4.28-6.44 4.28-10.34s-1.52-7.58-4.28-10.34-6.44-4.28-10.34-4.28l.01.01Zm2.48 23h-4.96l-1.77-9.75h1.99l5.51 5.51-.77 4.24Zm1.04-5.74-4.01-4.01h4.74l-.73 4.01Zm6.37 6.37-5.29-5.29 1.02-5.6c.03-.18-.02-.37-.13-.51s-.29-.22-.48-.22h-6.74l-1.75-1.75h9.49c.35 0 .62-.28.62-.62s-.28-.62-.62-.62h-5.38v-2.12l1.82-1.82c.24-.24.24-.64 0-.88s-.64-.24-.88 0l-2 2s-.01.02-.02.03c-.04.05-.09.11-.11.17-.03.08-.05.16-.05.24v2.38h-4.12L9.01 8.14c2.47-2.25 5.64-3.49 9.01-3.49 3.57 0 6.93 1.39 9.46 3.92 2.53 2.53 3.92 5.88 3.92 9.46 0 3.36-1.23 6.54-3.49 9.01l-.02-.03Z"/>
  </g>
</svg>
