<svg id="uuid-e5e9c426-ebb7-4d54-817c-1ccf1f7ff6d6" xmlns="http://www.w3.org/2000/svg" viewBox="0 0 36 36">
  <defs>
    <style>
      .uuid-c5023b05-1e59-4ba4-88ff-a791318543fa{stroke-width:0}
    </style>
  </defs>
  <g id="uuid-a9009b96-9be1-4fef-8325-fdaab2bddedd">
    <path class="uuid-c5023b05-1e59-4ba4-88ff-a791318543fa" d="M25.64 28.98c-5.32 3.71-12.51 3.07-17.1-1.52s-5.23-11.78-1.52-17.1c.2-.28.13-.67-.15-.87s-.67-.13-.87.16c-4.06 5.81-3.36 13.68 1.66 18.7 2.84 2.84 6.58 4.29 10.35 4.29 2.9 0 5.82-.86 8.35-2.63.28-.2.35-.59.16-.87a.637.637 0 0 0-.87-.16h-.01Z"/>
    <path class="uuid-c5023b05-1e59-4ba4-88ff-a791318543fa" d="M18 3.38c-3.91 0-7.58 1.52-10.34 4.28-.24.24-.24.64 0 .88l4.81 4.81c-.69 1.05-1.1 2.3-1.1 3.64 0 .34.28.62.62.62h4.74l1.25 1.25c-.8 0-1.24.38-1.56.65-.26.23-.41.35-.76.35s-.5-.12-.76-.35c-.32-.27-.76-.65-1.57-.65s-1.25.38-1.57.65c-.26.23-.41.35-.76.35s-.62.28-.62.62.28.62.62.62c.81 0 1.25-.38 1.57-.65.26-.23.41-.35.76-.35s.5.12.76.35c.32.27.76.65 1.57.65s1.25-.38 1.57-.65c.26-.23.41-.35.76-.35s.5.12.76.35c.3.26.72.6 1.46.64l1.26 1.26H12c-.35 0-.62.28-.62.62v2c0 .34.28.62.62.62h12c.2 0 .37-.1.49-.25l2.97 2.97c.12.12.28.18.44.18s.32-.06.44-.18c2.76-2.76 4.28-6.44 4.28-10.34s-1.52-7.58-4.28-10.34S21.9 3.35 18 3.35v.03Zm-5.34 13c.09-.76.35-1.47.73-2.1l2.1 2.1h-2.83Zm4.6 0-3.1-3.1c.98-1.01 2.33-1.65 3.84-1.65 2.75 0 5.03 2.08 5.34 4.75h-6.08Zm6.12 8H12.62v-.75h10.12l.63.63v.12h.01Zm4.51 2.63-3.26-3.26v-.74c0-.34-.28-.62-.62-.62h-.74l-1.66-1.66c.11-.08.22-.17.31-.24.26-.23.41-.35.76-.35s.5.12.76.35c.32.27.76.65 1.57.65.35 0 .62-.28.62-.62s-.28-.62-.62-.62-.5-.12-.76-.35c-.32-.27-.76-.65-1.57-.65s-1.25.38-1.57.65c-.15.13-.27.22-.41.28l-2.18-2.18h5.49c.35 0 .62-.28.62-.62 0-3.65-2.97-6.62-6.62-6.62-1.86 0-3.53.77-4.74 2L9 8.14c2.47-2.25 5.64-3.49 9.01-3.49 3.57 0 6.93 1.39 9.46 3.92 2.53 2.53 3.92 5.88 3.92 9.46 0 3.36-1.23 6.54-3.49 9.01l-.01-.03Z"/>
  </g>
</svg>
