<svg id="uuid-9d7e2f48-0385-4685-a361-63d66239c801" xmlns="http://www.w3.org/2000/svg" viewBox="0 0 36 36">
  <defs>
    <style>
      .uuid-da2fdd07-22fc-492a-bf73-8f9a6ee39e39{stroke-width:0}
    </style>
  </defs>
  <g id="uuid-f4411891-c486-4e55-83ec-77d35bdc74af">
    <path class="uuid-da2fdd07-22fc-492a-bf73-8f9a6ee39e39" d="M27.12 13c0-.34-.28-.62-.62-.62s-.62.28-.62.62c0 .23-.08.32-.32.56-.27.27-.68.68-.68 1.44s.41 1.17.68 1.44c.24.24.32.33.32.56s-.08.32-.32.56c-.27.27-.68.68-.68 1.44 0 .34.28.62.62.62s.62-.28.62-.62c0-.23.08-.32.32-.56.27-.27.68-.68.68-1.44s-.41-1.17-.68-1.44c-.24-.24-.32-.33-.32-.56s.08-.32.32-.56c.27-.27.68-.68.68-1.44Zm-1.48 15.98c-5.32 3.71-12.51 3.07-17.1-1.52s-5.23-11.78-1.52-17.1c.2-.28.13-.67-.15-.87s-.67-.13-.87.16c-4.06 5.81-3.36 13.68 1.66 18.7 2.84 2.84 6.58 4.29 10.35 4.29 2.9 0 5.82-.86 8.35-2.63.28-.2.35-.59.16-.87a.637.637 0 0 0-.87-.16h-.01Z"/>
    <path class="uuid-da2fdd07-22fc-492a-bf73-8f9a6ee39e39" d="M18 3.38c-3.91 0-7.58 1.52-10.34 4.28-.24.24-.24.64 0 .88l8.83 8.83H9c-.35 0-.62.28-.62.62v3c0 .34.28.62.62.62h11.74l6.72 6.72c.12.12.28.18.44.18s.32-.06.44-.18c2.76-2.76 4.28-6.44 4.28-10.34s-1.52-7.58-4.28-10.34S21.9 3.37 18 3.37v.01Zm-5.63 17H9.62v-1.75h2.75v1.75Zm1.25 0v-1.75h4.12l1.75 1.75h-5.87Zm8.75 0h-1.12l-1.75-1.75h2.87v1.75Zm5.51 6.63-5.38-5.38h.49c.35 0 .62-.28.62-.62v-3c0-.34-.28-.62-.62-.62h-4.74L8.99 8.11c2.47-2.25 5.64-3.49 9.01-3.49 3.57 0 6.93 1.39 9.46 3.92 2.53 2.53 3.92 5.88 3.92 9.46 0 3.36-1.23 6.54-3.49 9.01h-.01Z"/>
  </g>
</svg>
