<svg xmlns="http://www.w3.org/2000/svg" viewBox="0 0 36 36">
  <path d="m31.442 30.558-3.908-3.908A10.63 10.63 0 0 0 28.625 22c0-3.374-1.549-6.472-4.25-8.5a.627.627 0 0 0-1 .5c0 1.33-1.102 2.451-2.436 2.374A8.649 8.649 0 0 0 21.625 13a8.59 8.59 0 0 0-8.275-8.618l-.006-.001c-.014-.002-.026.004-.04.003a.604.604 0 0 0-.128.012c-.04.006-.08.012-.119.026-.03.012-.057.03-.086.046a.599.599 0 0 0-.122.086c-.008.008-.019.01-.026.019-.015.015-.02.035-.033.05a.61.61 0 0 0-.078.126.607.607 0 0 0-.032.102c-.008.03-.023.054-.027.084-.002.017.005.032.005.049-.001.036.005.07.01.107a.602.602 0 0 0 .03.137c.012.029.03.054.046.08.02.035.031.074.058.105.01.01.023.015.033.025.005.006.007.013.012.018A4.832 4.832 0 0 1 14.375 9c0 1.215-.458 2.339-1.259 3.232L6.442 5.558a.625.625 0 1 0-.884.884l25 25a.622.622 0 0 0 .884 0 .626.626 0 0 0 0-.885ZM15.625 9a6.067 6.067 0 0 0-.89-3.171A7.341 7.341 0 0 1 20.376 13a7.387 7.387 0 0 1-.902 3.537.625.625 0 0 0 .345.89 3.632 3.632 0 0 0 4.61-2.252A9.287 9.287 0 0 1 27.376 22c0 1.28-.277 2.544-.78 3.71l-12.58-12.58A6.057 6.057 0 0 0 15.624 9Zm9.066 19.563a9.348 9.348 0 0 1-3.45 2.233 7.1 7.1 0 0 0-2.903-8.294.629.629 0 0 0-.675 0 7.1 7.1 0 0 0-2.904 8.293c-3.62-1.339-6.134-4.85-6.134-8.795 0-2.54.999-4.917 2.812-6.695a.625.625 0 1 0-.875-.893A10.547 10.547 0 0 0 7.375 22c0 4.975 3.528 9.342 8.388 10.385a.626.626 0 0 0 .67-.928A5.846 5.846 0 0 1 18 23.787a5.849 5.849 0 0 1 1.567 7.67.626.626 0 0 0 .67.928 10.589 10.589 0 0 0 5.347-2.947.625.625 0 1 0-.893-.875Z"/>
</svg>
