<svg id="uuid-7af2df1e-e9f3-418b-9e76-a163ba43b213" xmlns="http://www.w3.org/2000/svg" viewBox="0 0 36 36">
  <defs>
    <style>
      .uuid-bcaaf541-f5fc-48d9-87d5-58578d272ec0{stroke-width:0}
    </style>
  </defs>
  <g id="uuid-89faf302-9b1b-40a8-86e1-f277eadffb07">
    <path class="uuid-bcaaf541-f5fc-48d9-87d5-58578d272ec0" d="M26 19.375a.625.625 0 0 0-.625.625v6.375H22a.625.625 0 0 0-.625.625v3.375H6.625v-2.75H7a.625.625 0 0 0 0-1.25h-.375v-4.75H7a.625.625 0 0 0 0-1.25h-.375v-4.75H7a.625.625 0 0 0 0-1.25h-.375v-4.75H7a.625.625 0 0 0 0-1.25h-.375v-2.75h18.75V8a.625.625 0 0 0 1.25 0V5A.625.625 0 0 0 26 4.375H6A.625.625 0 0 0 5.375 5v3.375H5a.625.625 0 0 0 0 1.25h.375v4.75H5a.625.625 0 0 0 0 1.25h.375v4.75H5a.625.625 0 0 0 0 1.25h.375v4.75H5a.625.625 0 0 0 0 1.25h.375V31c0 .345.28.625.625.625h16a.625.625 0 0 0 .24-.048.615.615 0 0 0 .168-.112c.01-.01.024-.013.034-.023l4-4 .002-.004a.619.619 0 0 0 .149-.278.577.577 0 0 0 .016-.08c.003-.027.016-.052.016-.08v-7a.625.625 0 0 0-.625-.625Zm-3.375 10.116v-1.866h1.866l-1.866 1.866Z"/>
    <path class="uuid-bcaaf541-f5fc-48d9-87d5-58578d272ec0" d="m31.442 10.558-2-2a.626.626 0 0 0-.884 0l-13 13c-.027.027-.04.062-.061.092-.023.032-.052.058-.068.096l-1.606 3.605a.627.627 0 0 0 .572.879.617.617 0 0 0 .253-.054l3.587-1.597h.001l.018-.008c.032-.015.054-.04.082-.059.036-.023.075-.039.106-.07l13-13a.626.626 0 0 0 0-.884ZM27 11.884 28.116 13 18 23.116 16.884 22 27 11.884ZM16.2 23.085l.714.714-1.287.573.573-1.287ZM29 12.115 27.883 11 29 9.884 30.116 11 29 12.116Z"/>
  </g>
</svg>
