<svg xmlns="http://www.w3.org/2000/svg" viewBox="0 0 36 36">
  <path d="M30 4.39h-5.92s-.05-.02-.08-.02-.05.01-.08.02h-5.84s-.05-.02-.08-.02-.05.01-.08.02h-5.84s-.05-.02-.08-.02-.05.01-.08.02H6c-.35 0-.62.28-.62.62v25.97c0 .35.28.62.62.62h24c.35 0 .62-.28.62-.62V5.02c0-.35-.28-.62-.62-.62v-.01ZM18.62 16.37v-4.75h4.75v4.75h-4.75Zm-6 0v-4.75h4.75v4.75h-4.75Zm-6 0v-4.75h4.75v4.75H6.62Zm10.75-6h-4.75V5.64h4.75v4.73Zm1.25-4.73h4.75v4.73h-4.75V5.64Zm6 5.98h4.75v4.75h-4.75v-4.75Zm4.75-1.25h-4.75V5.64h4.75v4.73ZM11.38 5.64v4.73H6.62V5.64h4.76Zm11 24.65h-3.75v-8.64h3.75v8.64Zm-5 0h-3.75v-8.64h3.75v8.64Zm6.25.06v-9.33c0-.35-.28-.62-.62-.62H13c-.35 0-.62.28-.62.62v9.33H6.62V17.62h22.76v12.73h-5.75Z"/>
</svg>
