<svg id="uuid-7a05aba7-caf4-4fdf-97bd-98b7968318ca" xmlns="http://www.w3.org/2000/svg" viewBox="0 0 36 36">
  <defs>
    <style>
      .uuid-529e19f5-7171-4091-99c8-434a93c1b13d{stroke-width:0}
    </style>
  </defs>
  <path class="uuid-529e19f5-7171-4091-99c8-434a93c1b13d" d="M19.44 11.56a.62.62 0 0 0-.44-.18H6c-.34 0-.62.28-.62.62v19c0 .35.28.62.62.62h17c.34 0 .62-.28.62-.62V16c0-.17-.07-.32-.18-.44l-4-4Zm2.93 18.82H6.62V12.62h12.12l3.63 3.63v14.13Z"/>
  <path class="uuid-529e19f5-7171-4091-99c8-434a93c1b13d" d="M14 14.38H9c-.34 0-.62.28-.62.62s.28.62.62.62h5c.34 0 .62-.28.62-.62s-.28-.62-.62-.62Zm16.44-7.82-2-2a.628.628 0 0 0-.88 0L22 10.12l-.56-.56c-.24-.24-.64-.24-.88 0s-.24.64 0 .88l4 4c.12.12.28.18.44.18s.32-.06.44-.18c.24-.24.24-.64 0-.88l-.56-.56 5.56-5.56c.24-.24.24-.64 0-.88ZM24 12.12 22.88 11 28 5.88 29.12 7 24 12.12Z"/>
</svg>
