<svg xmlns="http://www.w3.org/2000/svg" viewBox="0 0 36 36">
  <path d="M28.5 4.38c-1.72 0-3.12 1.4-3.12 3.12s1.4 3.12 3.12 3.12 3.12-1.4 3.12-3.12-1.4-3.12-3.12-3.12Zm0 5c-1.03 0-1.88-.84-1.88-1.88s.84-1.88 1.88-1.88 1.88.84 1.88 1.88-.84 1.88-1.88 1.88Zm-3 10c-3.38 0-6.12 2.75-6.12 6.12s2.75 6.12 6.12 6.12 6.12-2.75 6.12-6.12-2.75-6.12-6.12-6.12Zm0 11c-2.69 0-4.88-2.19-4.88-4.88s2.19-4.88 4.88-4.88 4.88 2.19 4.88 4.88-2.19 4.88-4.88 4.88Zm-8.59-5.11c-.46.07-.94.1-1.4.1h-.25c-.35 0-.63.27-.63.61s.27.63.62.63h.25c.53 0 1.07-.04 1.59-.11a.63.63 0 0 0 .53-.71.63.63 0 0 0-.71-.53v.01Zm4.63-17.74c.2 0 .39-.09.51-.27.2-.28.13-.67-.15-.87-.95-.67-1.99-1.18-3.09-1.52a.622.622 0 1 0-.37 1.19c.98.3 1.9.76 2.74 1.35.11.08.23.11.36.11v.01Zm2.83 1.26a.633.633 0 0 0-.88-.12c-.27.21-.33.6-.12.88.62.82 1.11 1.73 1.45 2.69.09.26.33.42.59.42l.21-.04c.33-.11.5-.47.38-.8-.38-1.09-.93-2.11-1.63-3.03ZM5 16.05c.34 0 .62-.28.62-.62 0-1.03.17-2.05.49-3.02.11-.33-.07-.68-.4-.79s-.68.07-.79.4c-.36 1.09-.55 2.24-.56 3.4 0 .34.28.63.62.63H5Zm1.07 2.4a.622.622 0 1 0-1.19.37c.35 1.1.86 2.14 1.53 3.09.12.17.31.26.51.26.12 0 .25-.04.36-.11.28-.2.35-.59.15-.87-.59-.84-1.05-1.76-1.36-2.74ZM12 4.94c-.33.11-.51.46-.4.79.09.26.33.43.59.43l.2-.03c.97-.32 1.99-.49 3.02-.5.35 0 .62-.29.62-.63s-.33-.6-.63-.62c-1.16.01-2.3.2-3.4.56Zm.25 19.89c-.97-.34-1.88-.82-2.7-1.44a.633.633 0 0 0-.88.12c-.21.28-.15.67.12.88.93.7 1.95 1.24 3.04 1.62l.21.03c.26 0 .5-.16.59-.42a.636.636 0 0 0-.38-.8v.01ZM9.81 6.65c-.2-.28-.6-.34-.87-.14-.93.68-1.75 1.5-2.43 2.44a.623.623 0 0 0 .51.99c.19 0 .38-.09.51-.26.61-.83 1.33-1.56 2.16-2.16.28-.2.34-.59.14-.87h-.02ZM25.8 17.62h.09c.31 0 .57-.22.62-.53.07-.52.11-1.06.11-1.6v-.25c0-.35-.28-.61-.64-.62-.35 0-.62.29-.62.63v.24c0 .47-.03.95-.1 1.41-.05.34.19.66.53.71l.01.01Z"/>
</svg>
