<svg id="uuid-25ab40d2-b71a-4b37-814c-48826a6fa7dd" xmlns="http://www.w3.org/2000/svg" viewBox="0 0 36 36">
  <defs>
    <style>
      .uuid-2ce19d42-dacd-4ae3-b9ad-2f2502f01c1f{stroke-width:0}
    </style>
  </defs>
  <path class="uuid-2ce19d42-dacd-4ae3-b9ad-2f2502f01c1f" d="M31 17.38H5c-.35 0-.62.28-.62.62v10c0 .35.28.62.62.62h26c.35 0 .62-.28.62-.62V18c0-.35-.28-.62-.62-.62Zm-.62 10H5.62v-8.75h24.76v8.75Z"/>
  <path class="uuid-2ce19d42-dacd-4ae3-b9ad-2f2502f01c1f" d="M9 23.62h6c.35 0 .62-.28.62-.62s-.28-.62-.62-.62H9c-.35 0-.62.28-.62.62s.28.62.62.62Zm17.76-.04.24.05c.17 0 .33-.07.44-.19.12-.11.19-.27.19-.44l-.05-.24-.14-.2a.637.637 0 0 0-.88 0l-.14.2-.04.24c0 .17.06.33.18.44l.2.14Zm-9.52-9.12h.13c.29.01.55-.19.61-.48l1.24-5.85a.62.62 0 0 0-.48-.74.62.62 0 0 0-.74.48l-1.24 5.85c-.07.34.14.67.48.74Zm3.76-.54c.12.12.28.18.44.18s.32-.06.44-.18l2.56-2.56c.12-.12.18-.28.18-.44s-.07-.32-.18-.44l-2.56-2.56a.628.628 0 0 0-.88 0c-.24.24-.24.64 0 .88l2.12 2.12L21 13.04c-.24.24-.24.64 0 .88Zm-6-6.01a.628.628 0 0 0-.88 0l-2.56 2.56c-.12.12-.18.28-.18.44s.07.32.18.44l2.56 2.56c.12.12.28.18.44.18s.32-.06.44-.18c.24-.24.24-.64 0-.88l-2.12-2.12L15 8.79c.24-.24.24-.64 0-.88Z"/>
</svg>
