<svg id="uuid-5e484cf1-4a0b-415f-8f5f-df844cf40dbe" xmlns="http://www.w3.org/2000/svg" viewBox="0 0 36 36">
  <defs>
    <style>
      .uuid-eb43383e-756c-40ec-9dc4-b1e2f96758e0{stroke-width:0}
    </style>
  </defs>
  <g id="uuid-8cc402ef-002c-46b6-8f68-100e1647a538">
    <path class="uuid-eb43383e-756c-40ec-9dc4-b1e2f96758e0" d="m30.437 10.459-12.125-7a.627.627 0 0 0-.625 0l-12.124 7A.626.626 0 0 0 5.25 11v14c0 .223.12.43.313.542l12.124 7a.626.626 0 0 0 .625 0l12.125-7a.626.626 0 0 0 .312-.542V11a.624.624 0 0 0-.312-.541Zm-.938 14.18L18 31.28 6.5 24.638V11.361L18 4.721l11.5 6.64v13.278Z"/>
    <path class="uuid-eb43383e-756c-40ec-9dc4-b1e2f96758e0" d="M13.422 15.24a.626.626 0 0 0 .578.385h4.491l-3.933 3.933A.625.625 0 0 0 15 20.625h4.491l-3.933 3.933a.625.625 0 1 0 .884.884l5-5A.625.625 0 0 0 21 19.375h-4.491l3.933-3.933A.625.625 0 0 0 20 14.375h-4.491l3.933-3.933a.625.625 0 1 0-.884-.884l-5 5a.625.625 0 0 0-.136.681Z"/>
  </g>
</svg>
