<svg id="uuid-7dc306be-5324-4cd8-8848-9e12c6a8c871" xmlns="http://www.w3.org/2000/svg" viewBox="0 0 36 36">
  <defs>
    <style>
      .uuid-2f30d513-f084-4e2d-807d-98bd357357d8{stroke-width:0}
    </style>
  </defs>
  <g id="uuid-7c478d66-29c9-4b82-bd42-5e97a0d2f57e">
    <path class="uuid-2f30d513-f084-4e2d-807d-98bd357357d8" d="M16 11.625h6c.345 0 .625-.28.625-.625V5A.625.625 0 0 0 22 4.375h-6a.625.625 0 0 0-.625.625v6c0 .345.28.625.625.625Zm.625-6h4.75v4.75h-4.75v-4.75Zm11.817 14.933a.608.608 0 0 0-.36-.167.616.616 0 0 0-.32.031h-.001a.619.619 0 0 0-.184.123c-.006.006-.013.007-.019.013l-2 2a.625.625 0 1 0 .884.884l.933-.933v1.493A3.377 3.377 0 0 1 24 27.375H14a.625.625 0 1 0 0 1.25h10a4.629 4.629 0 0 0 4.624-4.623v-1.493l.933.933a.625.625 0 1 0 .884-.884l-2-2ZM13.625 8A.625.625 0 0 0 13 7.375h-1.002a4.629 4.629 0 0 0-4.623 4.623v8.493l-.933-.933a.625.625 0 1 0-.884.884l2 2a.624.624 0 0 0 .679.136h.002a.62.62 0 0 0 .183-.123c.006-.006.014-.007.02-.013l2-2a.625.625 0 1 0-.884-.884l-.933.933V12a3.377 3.377 0 0 1 3.373-3.374H13c.345 0 .625-.28.625-.625ZM31 4.375h-6a.625.625 0 0 0-.625.625v6c0 .345.28.625.625.625h6c.345 0 .625-.28.625-.625V5A.625.625 0 0 0 31 4.375Zm-.625 6h-4.75v-4.75h4.75v4.75Z"/>
    <rect class="uuid-2f30d513-f084-4e2d-807d-98bd357357d8" x="15.375" y="13.375" width="7.25" height="7.25" rx=".625" ry=".625"/>
    <rect class="uuid-2f30d513-f084-4e2d-807d-98bd357357d8" x="4.375" y="24.375" width="7.25" height="7.25" rx=".625" ry=".625"/>
  </g>
</svg>
