<svg xmlns="http://www.w3.org/2000/svg" viewBox="0 0 36 36">
  <path d="M31.578 12.76a.626.626 0 0 0-.578-.385H18.26l-4.818-4.817A.625.625 0 0 0 13 7.375h-3c-.028 0-.052.012-.079.016a.56.56 0 0 0-.082.017.62.62 0 0 0-.277.147l-.004.003-5 5A.626.626 0 0 0 5 13.625h4.375V21c0 .074.017.145.041.212.008.02.018.038.028.058a.6.6 0 0 0 .091.138c.01.01.013.024.023.034l7 7c.015.015.035.02.05.034a.617.617 0 0 0 .152.1.627.627 0 0 0 .24.049h8a.626.626 0 0 0 .442-1.067l-4-4c-.02-.02-.047-.03-.07-.046l10.07-10.07a.626.626 0 0 0 .136-.681ZM17.116 13l-6.491 6.491V8.625h2.116L17.116 13ZM6.51 12.375 9.375 9.51v2.866H6.509Zm14.05 12.067 2.932 2.933H17.51l3.003-3.002c.017.022.026.049.046.07Zm-4 2.116c-.022.02-.03.047-.047.07L10.884 21l7.375-7.375h11.232L16.558 26.558Z"/>
</svg>
