<svg id="uuid-83802ff9-88c6-4770-86ad-03e38aecc801" xmlns="http://www.w3.org/2000/svg" viewBox="0 0 36 36">
  <defs>
    <style>
      .uuid-0b2681f6-ce71-437e-b66a-019e07001449{stroke-width:0}
    </style>
  </defs>
  <g id="uuid-b2f27e0c-d34b-40fa-9e70-3de6fbf9cfe5">
    <path class="uuid-0b2681f6-ce71-437e-b66a-019e07001449" d="M30 7.375h-1a.625.625 0 0 0 0 1.25h.375v8.75H16a.625.625 0 0 0-.625.625v3a.625.625 0 0 0 1.25 0v-2.375H30c.345 0 .625-.28.625-.625V8A.625.625 0 0 0 30 7.375Z"/>
    <path class="uuid-0b2681f6-ce71-437e-b66a-019e07001449" d="M27.625 10V7A2.628 2.628 0 0 0 25 4.375H7A2.628 2.628 0 0 0 4.375 7v3A2.628 2.628 0 0 0 7 12.625h18A2.628 2.628 0 0 0 27.625 10Zm-22 0V7c0-.758.617-1.375 1.375-1.375h18c.758 0 1.375.617 1.375 1.375v3c0 .758-.617 1.375-1.375 1.375H7A1.377 1.377 0 0 1 5.625 10ZM17 22.375h-2a.625.625 0 0 0-.625.625v8c0 .345.28.625.625.625h2c.345 0 .625-.28.625-.625v-8a.625.625 0 0 0-.625-.625Zm-.625 8h-.75v-6.75h.75v6.75Z"/>
  </g>
</svg>
