<svg id="uuid-185d41e5-6c95-4d0c-b329-937b13842334" xmlns="http://www.w3.org/2000/svg" viewBox="0 0 36 36">
  <defs>
    <style>
      .uuid-dd3edebe-038f-4a14-a32f-0f93ee6dc678{stroke-width:0}
    </style>
  </defs>
  <g id="uuid-4aa13652-d5d9-4a0d-a55a-85cc98e5cb2e">
    <path class="uuid-dd3edebe-038f-4a14-a32f-0f93ee6dc678" d="M28 4.375H12c-.028 0-.053.013-.08.016a.59.59 0 0 0-.08.016.62.62 0 0 0-.282.151l-4 4a.619.619 0 0 0-.15.282.574.574 0 0 0-.017.08c-.004.028-.016.052-.016.08v22c0 .345.28.625.625.625h20c.345 0 .625-.28.625-.625V5A.625.625 0 0 0 28 4.375ZM11.375 6.509v1.866H9.509l1.866-1.866Zm16 23.866H8.625V9.625H12c.345 0 .625-.28.625-.625V5.625h14.75v24.75Z"/>
    <path class="uuid-dd3edebe-038f-4a14-a32f-0f93ee6dc678" d="M12 13.375a.625.625 0 1 0 0 1.25h6a.625.625 0 1 0 0-1.25h-6ZM11.375 18c0 .345.28.625.625.625h12a.625.625 0 1 0 0-1.25H12a.625.625 0 0 0-.625.625ZM24 21.375H12a.625.625 0 1 0 0 1.25h12a.625.625 0 1 0 0-1.25Zm0 4H12a.625.625 0 1 0 0 1.25h12a.625.625 0 1 0 0-1.25Z"/>
  </g>
</svg>
