<svg xmlns="http://www.w3.org/2000/svg" viewBox="0 0 36 36">
  <path d="M23 8.375a.626.626 0 0 0-.625.625v17c0 2.412-1.963 4.375-4.375 4.375S13.625 28.412 13.625 26V8.5c0-1.585 1.29-2.875 2.875-2.875s2.875 1.29 2.875 2.875V24c0 .758-.617 1.375-1.375 1.375s-1.375-.617-1.375-1.375V11a.626.626 0 0 0-1.25 0v13c0 1.447 1.178 2.625 2.625 2.625s2.625-1.178 2.625-2.625V8.5c0-2.274-1.85-4.125-4.125-4.125s-4.125 1.85-4.125 4.125V26c0 3.102 2.523 5.625 5.625 5.625s5.625-2.523 5.625-5.625V9A.626.626 0 0 0 23 8.375Z"/>
</svg>
