<svg id="uuid-7fb5390c-9f85-47a7-8486-19fdbae6a072" xmlns="http://www.w3.org/2000/svg" viewBox="0 0 36 36">
  <defs>
    <style>
      .uuid-9c97297b-b6d9-4a2a-b22d-8023f4e52ded{stroke-width:0}
    </style>
  </defs>
  <g id="uuid-15081c60-9a48-467f-b619-faea83c872a4">
    <path class="uuid-9c97297b-b6d9-4a2a-b22d-8023f4e52ded" d="M25.625 27.88V5A.625.625 0 0 0 25 4.375H11.996a.622.622 0 0 0-.44.185L7.56 8.557a.623.623 0 0 0-.185.417V27.88c0 .345.28.625.625.625h17c.345 0 .625-.28.625-.625ZM11.375 6.509v1.866H9.509l1.866-1.866Zm13 20.746H8.625V9.625H12c.345 0 .625-.28.625-.625V5.625h11.75v21.63Z"/>
    <path class="uuid-9c97297b-b6d9-4a2a-b22d-8023f4e52ded" d="M28 7.495a.625.625 0 0 0-.625.625v22.255H11a.625.625 0 1 0 0 1.25h17c.345 0 .625-.28.625-.625V8.12A.625.625 0 0 0 28 7.495Z"/>
  </g>
</svg>
