<svg id="uuid-05bf81c3-9e69-4589-a2cd-f2317cf6e875" xmlns="http://www.w3.org/2000/svg" viewBox="0 0 36 36">
  <defs>
    <style>
      .uuid-04e17105-72f6-40a1-93cb-5ca59b0b837f{stroke-width:0}
    </style>
  </defs>
  <g id="uuid-5bb22421-f0e8-470a-8a97-81a6366155ac">
    <path class="uuid-04e17105-72f6-40a1-93cb-5ca59b0b837f" d="M25.625 27.88V5A.625.625 0 0 0 25 4.375H11.996a.622.622 0 0 0-.44.185L7.56 8.557a.623.623 0 0 0-.185.417V27.88c0 .345.28.625.625.625h17c.345 0 .625-.28.625-.625ZM11.375 6.509v1.866H9.509l1.866-1.866Zm13 20.746H8.625V9.625H12c.345 0 .625-.28.625-.625V5.625h11.75v21.63Z"/>
    <path class="uuid-04e17105-72f6-40a1-93cb-5ca59b0b837f" d="M28 7.495a.625.625 0 0 0-.625.625v22.255H11a.625.625 0 1 0 0 1.25h17c.345 0 .625-.28.625-.625V8.12A.625.625 0 0 0 28 7.495ZM11.375 14c0 .345.28.625.625.625h4.5a.625.625 0 1 0 0-1.25H12a.625.625 0 0 0-.625.625Z"/>
    <path class="uuid-04e17105-72f6-40a1-93cb-5ca59b0b837f" d="M11.375 17c0 .345.28.625.625.625h9a.625.625 0 1 0 0-1.25h-9a.625.625 0 0 0-.625.625ZM21 19.375h-9a.625.625 0 1 0 0 1.25h9a.625.625 0 1 0 0-1.25Zm0 3h-9a.625.625 0 1 0 0 1.25h9a.625.625 0 1 0 0-1.25Z"/>
  </g>
</svg>
