<svg id="uuid-3366e2dd-e90a-4f61-8e47-3340993e365a" xmlns="http://www.w3.org/2000/svg" viewBox="0 0 36 36">
  <defs>
    <style>
      .uuid-aab6ea7d-0792-4c93-b133-bc98ee277610{stroke-width:0}
    </style>
  </defs>
  <g id="uuid-8d3add3f-af92-4f98-a9da-d2d8444ff5ed">
    <path class="uuid-aab6ea7d-0792-4c93-b133-bc98ee277610" d="M14 13.625c1.23 0 2.26-.855 2.541-2h2.834V13a.625.625 0 1 0 1.25 0v-1.375h.75V13a.625.625 0 1 0 1.25 0v-1.375h.75V12a.625.625 0 1 0 1.25 0v-1a.625.625 0 0 0-.625-.625h-7.46a2.624 2.624 0 0 0-2.541-2c-1.447 0-2.625 1.178-2.625 2.625s1.178 2.625 2.625 2.625Zm0-4c.758 0 1.375.617 1.375 1.375s-.617 1.375-1.375 1.375-1.375-.617-1.375-1.375.617-1.375 1.375-1.375Zm17 8.75H5a.625.625 0 0 0-.625.625v8c0 .345.28.625.625.625h26c.345 0 .625-.28.625-.625v-8a.625.625 0 0 0-.625-.625Zm-.625 8H5.625v-6.75h24.75v6.75Z"/>
    <path class="uuid-aab6ea7d-0792-4c93-b133-bc98ee277610" d="M8.999 23.622c.17 0 .33-.06.44-.18.12-.11.19-.28.19-.44 0-.17-.07-.33-.19-.44-.23-.24-.65-.23-.88 0-.12.11-.18.27-.18.44a.62.62 0 0 0 .62.62Zm3 0c.08 0 .16-.01.24-.04a.72.72 0 0 0 .2-.14c.12-.11.19-.28.19-.44 0-.17-.07-.33-.19-.44a.56.56 0 0 0-.2-.14.633.633 0 0 0-.68.14c-.12.11-.18.27-.18.44 0 .16.06.32.18.44.11.12.27.18.44.18Zm2.76-.04c.08.03.16.04.24.04s.16-.01.24-.04a.72.72 0 0 0 .2-.14.63.63 0 0 0 .19-.44c0-.17-.07-.33-.19-.44a.56.56 0 0 0-.2-.14.667.667 0 0 0-.48 0 .66.66 0 0 0-.2.14c-.12.11-.18.27-.18.44 0 .16.06.32.18.44.06.06.13.1.2.14Zm2.8-.14c.06.06.13.1.2.14.08.03.16.04.24.04s.16-.01.24-.04c.08-.04.15-.08.2-.14a.66.66 0 0 0 .14-.2c.03-.08.05-.16.05-.24s-.02-.16-.05-.24c-.03-.08-.08-.14-.14-.2s-.12-.11-.2-.14a.667.667 0 0 0-.48 0 .66.66 0 0 0-.2.14c-.06.05-.1.12-.14.2-.03.08-.04.16-.04.24s.01.16.04.24c.04.07.08.14.14.2Zm3.44.18c.17 0 .33-.06.44-.18a.63.63 0 0 0 .19-.44.69.69 0 0 0-.05-.24.563.563 0 0 0-.14-.2c-.22-.23-.65-.24-.88 0-.06.06-.11.12-.14.2s-.04.16-.04.24a.619.619 0 0 0 .62.62Zm3 0c.08 0 .16-.01.24-.04a.72.72 0 0 0 .2-.14c.12-.11.19-.28.19-.44 0-.17-.07-.33-.19-.44a.56.56 0 0 0-.2-.14.666.666 0 0 0-.48 0 .66.66 0 0 0-.2.14c-.12.11-.18.27-.18.44a.62.62 0 0 0 .62.62Zm2.56-.18c.12.12.28.18.44.18.17 0 .33-.06.44-.18a.66.66 0 0 0 .14-.2.596.596 0 0 0-.14-.68c-.23-.23-.65-.24-.88 0-.12.11-.18.27-.18.44 0 .08.01.16.04.24.04.07.08.14.14.2Z"/>
  </g>
</svg>
