<svg id="uuid-15e59a9a-8a39-42a9-9313-7131db4f81cd" xmlns="http://www.w3.org/2000/svg" viewBox="0 0 36 36">
  <defs>
    <style>
      .uuid-58014489-7d65-4e34-8b4c-c8f3a7798667{stroke-width:0}
    </style>
  </defs>
  <g id="uuid-3abb5cfd-86e5-453d-866e-255f1e8a5c85">
    <path class="uuid-58014489-7d65-4e34-8b4c-c8f3a7798667" d="M31 11.375h-6.375V5A.626.626 0 0 0 24 4.375H5A.626.626 0 0 0 4.375 5v19c0 .345.28.625.625.625h6.375V31c0 .345.28.625.625.625h19c.345 0 .625-.28.625-.625V12a.626.626 0 0 0-.625-.625Zm-.625 19h-17.75V24a.626.626 0 0 0-.625-.625H5.625V5.625h17.75V12c0 .345.28.625.625.625h6.375v17.75Z"/>
    <path class="uuid-58014489-7d65-4e34-8b4c-c8f3a7798667" d="M21 11.38c-.34 0-.62.28-.62.62s.28.63.62.63.63-.29.63-.63-.29-.62-.63-.62Zm-6 0c-.34 0-.62.28-.62.62s.28.63.62.63c.35 0 .62-.29.62-.63s-.27-.62-.62-.62Zm3 0c-.35 0-.62.28-.62.62s.27.63.62.63.63-.29.63-.63-.28-.62-.63-.62Zm-5.56.18c-.06-.06-.13-.1-.2-.14a.659.659 0 0 0-.48 0c-.07.04-.14.08-.2.14-.12.12-.18.28-.18.44s.06.33.18.44c.06.06.13.11.2.14.08.03.16.05.24.05s.16-.02.24-.05a.66.66 0 0 0 .2-.14.61.61 0 0 0 .19-.44c0-.08-.02-.16-.05-.24a.664.664 0 0 0-.14-.2ZM12 20.37c-.34 0-.62.29-.62.63a.626.626 0 1 0 1.25 0c0-.34-.28-.63-.63-.63Zm0-2.99c-.34 0-.62.27-.62.62 0 .34.28.63.62.63.35 0 .63-.29.63-.63 0-.35-.28-.62-.63-.62Zm0-3c-.34 0-.62.28-.62.62 0 .35.28.62.62.62a.62.62 0 1 0 0-1.24Zm6 9a.626.626 0 0 0 0 1.25c.35 0 .62-.28.62-.63 0-.34-.27-.62-.62-.62Zm-3 0c-.35 0-.62.28-.62.62 0 .35.27.63.62.63a.626.626 0 0 0 0-1.25Zm6 0a.626.626 0 1 0 .011 1.249.626.626 0 0 0-.011-1.25Zm3.24.04a.659.659 0 0 0-.48 0c-.07.04-.14.08-.2.14-.12.11-.18.27-.18.44s.06.33.18.44c.06.06.13.11.2.14.08.03.16.05.24.05s.16-.02.24-.05c.08-.03.14-.08.2-.14.12-.11.19-.28.19-.44s-.07-.33-.19-.44a.729.729 0 0 0-.2-.14Z"/>
    <circle class="uuid-58014489-7d65-4e34-8b4c-c8f3a7798667" cx="24" cy="15" r=".62"/>
    <path class="uuid-58014489-7d65-4e34-8b4c-c8f3a7798667" d="M24 18.63c.35 0 .62-.29.62-.63a.61.61 0 0 0-.62-.62c-.34 0-.62.27-.62.62 0 .34.28.63.62.63Z"/>
    <ellipse class="uuid-58014489-7d65-4e34-8b4c-c8f3a7798667" cx="24" cy="21" rx=".62" ry=".63"/>
  </g>
</svg>
