<svg xmlns="http://www.w3.org/2000/svg" viewBox="0 0 36 36">
  <path d="M27.241 13.696a.613.613 0 0 0-.135-.456c-.013-.017-.02-.037-.035-.052l-8.63-8.63c-.005-.006-.013-.007-.018-.013a.618.618 0 0 0-.184-.123h-.002a.617.617 0 0 0-.318-.031.582.582 0 0 0-.076.015.608.608 0 0 0-.285.152l-8.63 8.63c-.015.015-.02.035-.034.052a.598.598 0 0 0-.135.456c.002.022-.004.042 0 .063l2.616 12.307V31c0 .345.28.625.625.625h12c.345 0 .625-.28.625-.625v-4.934l2.616-12.307c.004-.021-.002-.041 0-.063ZM18 14.625c.758 0 1.375.617 1.375 1.375s-.617 1.375-1.375 1.375-1.375-.617-1.375-1.375.617-1.375 1.375-1.375Zm-.625-1.166c-1.145.282-2 1.31-2 2.541 0 1.447 1.178 2.625 2.625 2.625s2.625-1.178 2.625-2.625c0-1.23-.855-2.26-2-2.542v-6.95l7.322 7.323-2.453 11.544H12.506l-2.454-11.544 7.323-7.322v6.95Zm6 16.916h-10.75v-3.75h10.75v3.75Z"/>
</svg>
