<svg xmlns="http://www.w3.org/2000/svg" viewBox="0 0 36 36">
  <path d="m29.442 9.558-3-3a.625.625 0 0 0-.882-.001L7.073 24.912c-.028.028-.041.063-.063.094-.022.033-.051.058-.068.096L4.43 30.746a.627.627 0 0 0 .57.879.625.625 0 0 0 .255-.054l5.644-2.513c.038-.017.065-.047.098-.07.03-.021.065-.034.092-.061l15.92-16.034L28.116 14l-7.375 7.375H20a.626.626 0 0 0 0 1.25h1a.625.625 0 0 0 .442-.183l8-8a.628.628 0 0 0 0-.884l-1.552-1.553 1.553-1.565a.625.625 0 0 0 0-.882Zm-2.838 1.969c-.015.012-.033.017-.046.03-.014.015-.02.033-.032.048L10.284 27.963l-4.05 1.804 1.803-4.05L25.998 7.881l2.12 2.12-1.514 1.525Zm4.838-3.969-3-3a.626.626 0 0 0-.884.884l3 3a.623.623 0 0 0 .884 0 .628.628 0 0 0 0-.884Z"/>
</svg>
