<svg xmlns="http://www.w3.org/2000/svg" viewBox="0 0 36 36">
  <path d="m31.442 7.558-3-3a.626.626 0 0 0-.884 0l-3 3-.002.002L7.073 24.912c-.045.045-.073.1-.102.153-.008.014-.022.022-.029.037L4.43 30.745a.627.627 0 0 0 .57.879.625.625 0 0 0 .255-.054l5.644-2.513c.016-.007.024-.022.039-.03.053-.029.106-.056.15-.101L28.44 11.444s.002 0 .002-.002l3-3a.628.628 0 0 0 0-.884ZM6.233 29.767l1.482-3.327 1.844 1.845-3.326 1.481Zm19.774-17.645-.565-.564a.626.626 0 0 0-.884.884l.567.568L10.643 27.6 8.4 25.358 24.998 8.882l2.12 2.12-1.111 1.12ZM28 10.115 25.885 8 28 5.884 30.116 8 28 10.115Z"/>
</svg>
