<svg id="uuid-3b4f6a79-f8be-435e-8a7f-21db2ee027aa" xmlns="http://www.w3.org/2000/svg" viewBox="0 0 36 36">
  <defs>
    <style>
      .uuid-cddce801-beb8-4108-b9cd-642f7ea30df1{stroke-width:0}
    </style>
  </defs>
  <g id="uuid-fcd746e7-4ec3-4805-aeba-b6d5f3577224">
    <path class="uuid-cddce801-beb8-4108-b9cd-642f7ea30df1" d="M31 14.375h-3a.625.625 0 0 0 0 1.25h2.375v11.75H5.625v-11.75H16a.625.625 0 0 0 0-1.25H5a.625.625 0 0 0-.625.625v13c0 .345.28.625.625.625h26c.345 0 .625-.28.625-.625V15a.625.625 0 0 0-.625-.625Z"/>
    <path class="uuid-cddce801-beb8-4108-b9cd-642f7ea30df1" d="m30.884 7 .558-.558a.626.626 0 0 0-.884-.884L30 6.116l-.558-.558a.625.625 0 0 0-.884 0L27.5 6.616l-1.058-1.058a.625.625 0 0 0-.884 0l-4 4a.626.626 0 0 0 .884.884L26 6.884l.616.616-11.058 11.058c-.03.03-.046.069-.069.103-.02.03-.045.052-.06.085l-.008.018v.001l-1.597 3.586a.625.625 0 0 0 .826.826l3.605-1.606c.036-.016.062-.045.094-.067.03-.021.066-.034.093-.062l13-13a.626.626 0 0 0 0-.884L30.884 7ZM17.64 20.476l-2.011.896.894-2.01 11.418-11.42.002-.002L29 6.884l.557.557.001.001.002.001.556.557L17.64 20.476ZM12 17.375H8a.625.625 0 0 0 0 1.25h4a.625.625 0 0 0 0-1.25Zm16 1.25a.625.625 0 0 0 0-1.25h-2a.625.625 0 0 0 0 1.25h2ZM20.375 25c0 .345.28.625.625.625h7a.625.625 0 0 0 0-1.25h-7a.625.625 0 0 0-.625.625ZM8 25.625h7a.625.625 0 0 0 0-1.25H8a.625.625 0 0 0 0 1.25Zm0-5h2a.625.625 0 0 0 0-1.25H8a.625.625 0 0 0 0 1.25ZM23.375 20c0 .345.28.625.625.625h4a.625.625 0 0 0 0-1.25h-4a.625.625 0 0 0-.625.625Z"/>
  </g>
</svg>
