<svg xmlns="http://www.w3.org/2000/svg" viewBox="0 0 36 36">
  <path d="M9.185 10.18c-1.037-1.037-2.845-1.04-3.885 0a2.75 2.75 0 0 0 0 3.883l2 2c.536.536 1.24.803 1.942.803s1.407-.268 1.942-.803a2.73 2.73 0 0 0 .805-1.942 2.73 2.73 0 0 0-.804-1.942l-2-2Zm1.116 5H10.3a1.498 1.498 0 0 1-2.115 0l-2-2a1.498 1.498 0 0 1 1.057-2.555c.4 0 .776.156 1.058.438l2 2c.283.283.44.659.44 1.058 0 .4-.157.776-.44 1.059Zm5.762-3.995a2.728 2.728 0 0 0 .805-1.943 2.73 2.73 0 0 0-.804-1.941l-2-2a2.752 2.752 0 0 0-3.885 0 2.75 2.75 0 0 0 0 3.883l2 2c.52.52 1.209.805 1.942.805s1.423-.286 1.941-.804Zm-5-2.884a1.497 1.497 0 0 1 0-2.116 1.493 1.493 0 0 1 1.058-.438c.384 0 .767.146 1.058.437l2 2a1.49 1.49 0 0 1 0 2.116c-.565.566-1.551.566-2.115 0l-2-2Zm-2 10.879c-1.036-1.038-2.844-1.039-3.884 0a2.75 2.75 0 0 0 0 3.883l2 2c.536.536 1.239.803 1.942.803s1.407-.268 1.941-.803h.001a2.73 2.73 0 0 0 .805-1.942c0-.734-.286-1.423-.805-1.942l-2-2Zm1.117 5h-.001a1.498 1.498 0 0 1-2.115 0l-2-2a1.498 1.498 0 0 1 1.057-2.555c.4 0 .776.156 1.058.438l2 2c.283.283.44.659.44 1.058 0 .4-.157.776-.44 1.059Zm11-13.116c.535.535 1.238.802 1.941.802s1.407-.268 1.942-.803a2.73 2.73 0 0 0 .805-1.942 2.73 2.73 0 0 0-.804-1.942l-2-2c-1.037-1.037-2.845-1.038-3.885 0a2.75 2.75 0 0 0 0 3.884l2 2Zm-1.117-5a1.488 1.488 0 0 1 2.116 0l2 2a1.489 1.489 0 0 1 0 2.116 1.498 1.498 0 0 1-2.115 0l-2-2a1.498 1.498 0 0 1-.002-2.117Zm9.864 9.494a6.58 6.58 0 0 0-4.685-1.94h-7a4.63 4.63 0 0 0-4.625 4.624v7c0 1.77.69 3.434 1.94 4.685a6.583 6.583 0 0 0 4.686 1.94c1.77 0 3.433-.689 4.685-1.94l5-5a6.633 6.633 0 0 0-.001-9.369Zm-.884 8.485-5 5a5.337 5.337 0 0 1-3.8 1.574 5.342 5.342 0 0 1-3.802-1.574 5.342 5.342 0 0 1-1.574-3.8v-7a3.379 3.379 0 0 1 3.375-3.375h7a5.34 5.34 0 0 1 3.801 1.574 5.381 5.381 0 0 1 0 7.601Z"/>
</svg>
