<svg id="uuid-f172bc3b-4301-4846-9645-f739f1f38d81" xmlns="http://www.w3.org/2000/svg" viewBox="0 0 36 36">
  <defs>
    <style>
      .uuid-9782acaa-7d02-4099-a1a1-11f1f9b84e22{stroke-width:0}
    </style>
  </defs>
  <g id="uuid-1f2b9f88-ee86-48ca-8011-a1744a0699ae">
    <path class="uuid-9782acaa-7d02-4099-a1a1-11f1f9b84e22" d="M11 31.62h14c.34 0 .62-.28.62-.62V5c0-.35-.28-.62-.62-.62H11c-.34 0-.62.28-.62.62v26c0 .35.28.62.62.62Zm.62-26h12.75v24.76H11.62V5.62Z"/>
    <path class="uuid-9782acaa-7d02-4099-a1a1-11f1f9b84e22" d="m17.76 8.58.24.05.24-.05.2-.14.14-.2.05-.24-.05-.24-.14-.2a.652.652 0 0 0-.68-.14l-.2.14-.14.2-.04.24c0 .16.06.33.18.44l.2.14ZM20 27.38h-4c-.34 0-.62.28-.62.62s.28.62.62.62h4c.34 0 .62-.28.62-.62s-.28-.62-.62-.62Z"/>
  </g>
</svg>
