<svg xmlns="http://www.w3.org/2000/svg" viewBox="0 0 36 36">
  <path d="m29.907 27.129-5-5a.626.626 0 0 0-.885 0l-2.557 2.559-8.116-8.117 2.558-2.557a.628.628 0 0 0 0-.885l-5-5a.625.625 0 0 0-.884 0l-2.465 2.465a5.633 5.633 0 0 0 0 7.955l11.928 11.928c1.064 1.063 2.476 1.648 3.979 1.648s2.915-.585 3.976-1.647l2.465-2.464a.622.622 0 0 0 .001-.885Zm-3.35 2.465c-.826.826-1.923 1.28-3.092 1.28s-2.268-.454-3.094-1.281L8.442 17.664a4.38 4.38 0 0 1 0-6.187l2.023-2.022 4.116 4.116-2.559 2.558a.628.628 0 0 0 0 .885l9 9c.244.244.64.244.885 0l2.558-2.559 4.116 4.116-2.023 2.023ZM13.535 8.125A2.378 2.378 0 0 1 15.91 10.5a.626.626 0 0 0 1.25 0 3.629 3.629 0 0 0-3.625-3.625.626.626 0 0 0 0 1.25Zm1-3A4.38 4.38 0 0 1 18.91 9.5a.626.626 0 0 0 1.25 0 5.631 5.631 0 0 0-5.625-5.625.626.626 0 0 0 0 1.25Z"/>
</svg>
