<svg id="uuid-ae2de2a6-4314-4e9b-bcf4-e8ebad42d039" xmlns="http://www.w3.org/2000/svg" viewBox="0 0 36 36">
  <defs>
    <style>
      .uuid-b66bc338-bfc9-48ae-8b9f-ff68882efbdf{stroke-width:0}
    </style>
  </defs>
  <g id="uuid-373c2bd5-3da9-4dc7-b8cf-9b993592456b">
    <path class="uuid-b66bc338-bfc9-48ae-8b9f-ff68882efbdf" d="M32.625 16a.626.626 0 0 0-1.25 0 2.372 2.372 0 0 1-1.764 2.285c-.069-2.87-1.514-5.545-4-7.425A3.622 3.622 0 0 0 22 7.375c-1.008 0-1.92.415-2.577 1.08a12.087 12.087 0 0 0-3.05.036A4.644 4.644 0 0 0 12 5.375a.626.626 0 0 0-.625.625v4.184c-1.49.903-2.713 2.093-3.578 3.48a3.057 3.057 0 0 0-1.297-.289A3.13 3.13 0 0 0 3.375 16.5v3A3.13 3.13 0 0 0 6.5 22.625c.281 0 .56-.04.833-.12a10.06 10.06 0 0 0 2.042 2.765V30c0 .345.28.625.625.625h5c.345 0 .625-.28.625-.625v-1.593a13.03 13.03 0 0 0 4.75-.002V30c0 .345.28.625.625.625h5c.345 0 .625-.28.625-.625v-4.723c1.66-1.6 2.672-3.59 2.93-5.708 1.734-.27 3.07-1.76 3.07-3.569ZM22 8.625A2.378 2.378 0 0 1 24.375 11a2.38 2.38 0 0 1-1.664 2.258 7.99 7.99 0 0 0-2.825-1.222A2.365 2.365 0 0 1 19.625 11 2.378 2.378 0 0 1 22 8.625Zm3.578 15.92a.623.623 0 0 0-.203.462v4.368h-3.75v-1.742a.623.623 0 0 0-.773-.608c-1.905.467-3.83.462-5.703.001a.625.625 0 0 0-.774.608v1.741h-3.75V25a.624.624 0 0 0-.201-.46c-.982-.902-1.719-1.937-2.192-3.075a.626.626 0 0 0-.867-.314c-1.29.676-2.74-.327-2.74-1.651v-3c0-1.034.84-1.875 1.875-1.875.407 0 .8.137 1.137.396a.625.625 0 0 0 .933-.2c.813-1.521 2.106-2.812 3.738-3.735a.624.624 0 0 0 .317-.544V6.684a3.386 3.386 0 0 1 2.68 2.633c.068.33.38.545.716.49a11.828 11.828 0 0 1 2.623-.163c-.17.42-.269.876-.269 1.356 0 .29.042.577.11.856-.162-.009-.321-.027-.485-.027a.626.626 0 0 0 0 1.25c2.24 0 4.342 1.02 5.487 2.663a.622.622 0 0 0 .87.155.625.625 0 0 0 .156-.87 6.909 6.909 0 0 0-.74-.875 3.647 3.647 0 0 0 1.614-1.875c1.907 1.656 2.988 3.877 2.988 6.223 0 2.246-.993 4.393-2.797 6.046Z"/>
    <path class="uuid-b66bc338-bfc9-48ae-8b9f-ff68882efbdf" d="M11.56 14.56c-.12.12-.18.28-.18.44s.06.32.18.44c.11.12.28.19.44.19.17 0 .33-.07.44-.19.12-.12.19-.28.19-.44a.632.632 0 0 0-1.07-.44Z"/>
  </g>
</svg>
