<svg id="uuid-7971ee12-c88e-4129-b67b-559cda727665" xmlns="http://www.w3.org/2000/svg" viewBox="0 0 36 36">
  <defs>
    <style>
      .uuid-8472340b-a33c-4623-9e96-889f12b03b95{stroke-width:0}
    </style>
  </defs>
  <g id="uuid-c5f86a9d-5e55-4d40-ace1-e54798f39d8a">
    <path class="uuid-8472340b-a33c-4623-9e96-889f12b03b95" d="M31 25.375a.626.626 0 0 0-.625.625v1.375h-4.75v-4.75H29a.626.626 0 0 0 0-1.25h-4a.626.626 0 0 0-.625.625v6c0 .345.28.625.625.625h6c.345 0 .625-.28.625-.625v-2a.626.626 0 0 0-.625-.625Z"/>
    <path class="uuid-8472340b-a33c-4623-9e96-889f12b03b95" d="M27.442 24.558a.626.626 0 0 0-.884.884l1 1a.623.623 0 0 0 .884 0l3-3a.626.626 0 0 0-.885-.885L28 25.116l-.558-.557ZM31 4.375h-6a.626.626 0 0 0-.625.625v13c0 .345.28.625.625.625h6c.345 0 .625-.28.625-.625V5A.626.626 0 0 0 31 4.375Zm-.625 13h-4.75V5.625h4.75v11.75ZM11 4.375H5A.626.626 0 0 0 4.375 5v14c0 .345.28.625.625.625h6c.345 0 .625-.28.625-.625V5A.626.626 0 0 0 11 4.375Zm-.625 14h-4.75V5.625h4.75v12.75Zm.625 3H5a.626.626 0 0 0-.625.625v6c0 .345.28.625.625.625h6c.345 0 .625-.28.625-.625v-6a.626.626 0 0 0-.625-.625Zm-.625 6h-4.75v-4.75h4.75v4.75Zm10.625-11h-6a.626.626 0 0 0-.625.625v14c0 .345.28.625.625.625h6c.345 0 .625-.28.625-.625V17a.626.626 0 0 0-.625-.625Zm-.625 14h-4.75v-12.75h4.75v12.75Zm.625-23h-6a.626.626 0 0 0-.625.625v6c0 .345.28.625.625.625h6c.345 0 .625-.28.625-.625V8A.626.626 0 0 0 21 7.375Zm-.625 6h-4.75v-4.75h4.75v4.75Z"/>
  </g>
</svg>
