<svg id="uuid-3f1c6873-1044-4803-b7ff-f678c265c72d" xmlns="http://www.w3.org/2000/svg" viewBox="0 0 36 36">
  <defs>
    <style>
      .uuid-43b399fa-0a4d-4759-9195-bcac34b02752{stroke-width:0}
    </style>
  </defs>
  <g id="uuid-149f1c6e-1284-4c3e-88aa-a37e27f1eb8a">
    <path class="uuid-43b399fa-0a4d-4759-9195-bcac34b02752" d="m4.696 15.546 13 7.223a.629.629 0 0 0 .608 0l13-7.223a.625.625 0 0 0 0-1.092l-13-7.223a.628.628 0 0 0-.608 0l-13 7.223a.625.625 0 0 0 0 1.092ZM18 8.493 29.713 15 18 21.507 6.287 15 18 8.493Z"/>
    <path class="uuid-43b399fa-0a4d-4759-9195-bcac34b02752" d="M30.696 20.231 18 27.285 5.304 20.231a.625.625 0 0 0-.607 1.093l13 7.222a.629.629 0 0 0 .607 0l13-7.222a.625.625 0 0 0-.608-1.093Z"/>
  </g>
</svg>
