<svg xmlns="http://www.w3.org/2000/svg" viewBox="0 0 36 36">
  <path d="M29 30.375h-4.375v-13.75H27c.345 0 .625-.28.625-.625v-6A.626.626 0 0 0 27 9.375h-2.375V6A.626.626 0 0 0 24 5.375h-2.5c-.246-.587-.825-1-1.5-1h-4a1.626 1.626 0 0 0 0 3.25h4c.675 0 1.254-.413 1.5-1h1.875v2.75H9a.626.626 0 0 0-.625.625v6c0 .345.28.625.625.625h2.375v13.75H7a.626.626 0 0 0 0 1.25h22a.626.626 0 0 0 0-1.25Zm-9-24h-4a.375.375 0 0 1 0-.75h4a.375.375 0 0 1 0 .75Zm-10.375 9v-4.75h16.75v4.75H9.625Zm3 15v-13.75h10.75v13.75h-10.75Z"/>
</svg>
