<svg id="uuid-d4ab996d-933d-4bdc-a811-ceab410facb7" xmlns="http://www.w3.org/2000/svg" viewBox="0 0 36 36">
  <defs>
    <style>
      .uuid-ce1611f1-e45c-4666-a92b-bb69d4c3f244{stroke-width:0}
    </style>
  </defs>
  <g id="uuid-dc460dca-56da-45ab-85c2-e627b4a1798a">
    <path class="uuid-ce1611f1-e45c-4666-a92b-bb69d4c3f244" d="M19.12 20.5v-16c0-.34-.28-.62-.62-.62s-.62.28-.62.62v16c0 .34.28.62.62.62s.62-.28.62-.62Z"/>
    <path class="uuid-ce1611f1-e45c-4666-a92b-bb69d4c3f244" d="M26.42 8.43a.623.623 0 0 0-.73 1.01c.6.43 1.11.86 1.56 1.3 4.82 4.82 4.82 12.68 0 17.5-2.34 2.34-5.44 3.62-8.75 3.62s-6.41-1.29-8.75-3.62c-4.82-4.82-4.82-12.68 0-17.5.44-.44.95-.87 1.56-1.3a.623.623 0 0 0-.73-1.01c-.66.47-1.22.94-1.71 1.43-5.31 5.31-5.31 13.96 0 19.27 2.57 2.57 5.99 3.99 9.63 3.99s7.06-1.42 9.63-3.99c5.31-5.31 5.31-13.96 0-19.27-.49-.49-1.05-.96-1.71-1.43Z"/>
  </g>
</svg>
