<svg id="uuid-84a8ed68-688a-4e98-b678-d63f1d041389" xmlns="http://www.w3.org/2000/svg" viewBox="0 0 36 36">
  <defs>
    <style>
      .uuid-c3b78cb9-6660-498d-bdc0-9d8a63c42534{stroke-width:0}
    </style>
  </defs>
  <g id="uuid-8fdfed33-0136-4268-9a2b-283ef2af511e">
    <path class="uuid-c3b78cb9-6660-498d-bdc0-9d8a63c42534" d="M31.327 21.673 20.365 10.712a.625.625 0 0 0-.442-.183h-4.385a.625.625 0 0 0-.442.183l-4.384 4.384a.625.625 0 0 0-.183.442v4.385c0 .166.066.325.183.442l10.96 10.962a.625.625 0 0 0 .886 0l8.769-8.77a.625.625 0 0 0 0-.884ZM22.115 30 11.78 19.664v-3.867l4.018-4.018h3.867l10.337 10.336-7.886 7.886Z"/>
    <path class="uuid-c3b78cb9-6660-498d-bdc0-9d8a63c42534" d="M14.76 14.42c-.07.04-.14.08-.2.14-.12.12-.19.28-.19.44s.07.32.19.44c.11.12.27.19.44.19s.33-.07.44-.19c.12-.12.19-.28.19-.44s-.07-.32-.19-.44a.613.613 0 0 0-.68-.14Zm-2.433-2.093a.628.628 0 0 0 0-.885c-1.018-1.015-2.79-1.015-3.807 0l-.732.73a.407.407 0 1 1-.576-.575l4.385-4.386c.645-.648.645-1.7-.001-2.346s-1.7-.644-2.346 0L7.058 7.058a.626.626 0 0 0 .885.885l2.192-2.193a.408.408 0 0 1 .577.577l-4.384 4.385a1.65 1.65 0 0 0-.486 1.173A1.652 1.652 0 0 0 7.5 13.543c.443 0 .86-.173 1.172-.485l.732-.732c.544-.545 1.494-.546 2.039.001.244.244.64.244.884 0Z"/>
  </g>
</svg>
