<svg id="uuid-0b55b4a4-be2d-4eef-9344-14ef5f4e512a" xmlns="http://www.w3.org/2000/svg" viewBox="0 0 36 36">
  <defs>
    <style>
      .uuid-80994060-54b5-4cb7-a077-92c19fb7507a{stroke-width:0}
    </style>
  </defs>
  <path class="uuid-80994060-54b5-4cb7-a077-92c19fb7507a" d="M12 29.62h18c.34 0 .62-.28.62-.62V11c0-.35-.28-.62-.62-.62H12c-.34 0-.62.28-.62.62v4.49l-4.93-4.93a.628.628 0 0 0-.88 0c-.24.24-.24.64 0 .88l5.82 5.82V29c0 .35.28.62.62.62H12Zm.62-18h16.76v4.75H18c-.34 0-.62.28-.62.62s.28.62.62.62h11.38v2.75H18c-.34 0-.62.28-.62.62s.28.62.62.62h11.38v2.75H18c-.34 0-.62.28-.62.62s.28.62.62.62h11.38v2.75H12.62V11.62Zm-1.06 18.94a.62.62 0 0 0-.18.44c0 .08 0 .16.04.24s.08.14.14.2c.11.12.27.19.44.19s.33-.07.44-.19c.06-.06.11-.12.14-.2.03-.08.05-.16.05-.24 0-.16-.07-.32-.19-.44a.647.647 0 0 0-.88 0Zm18.68-.14a.662.662 0 0 0-.48 0c-.07.04-.14.08-.2.14-.12.12-.19.28-.19.44 0 .08.02.16.05.24s.08.15.14.2c.06.06.13.11.2.14.08.03.16.05.24.05.16 0 .33-.07.44-.19.06-.05.11-.12.14-.2.03-.08.05-.16.05-.24 0-.16-.07-.32-.19-.44a.597.597 0 0 0-.2-.14ZM18 9.62h12c.34 0 .62-.28.62-.62V5c0-.35-.28-.62-.62-.62H18c-.34 0-.62.28-.62.62v4c0 .35.28.62.62.62Zm.62-4h10.75v2.75H18.62V5.62Z"/>
  <path class="uuid-80994060-54b5-4cb7-a077-92c19fb7507a" d="M26.76 14.58a.597.597 0 0 0 .68-.14c.12-.12.19-.28.19-.44s-.07-.32-.19-.44a.652.652 0 0 0-.68-.14c-.08.04-.14.08-.2.14-.12.12-.18.28-.18.44s.06.32.18.44c.06.06.12.11.2.14Zm-2.2-.14c.11.12.28.18.44.18.17 0 .33-.06.44-.18.12-.12.19-.28.19-.44s-.07-.32-.19-.44a.633.633 0 0 0-.68-.14c-.07.04-.14.08-.2.14a.62.62 0 0 0-.18.44c0 .08 0 .16.04.24s.08.14.14.2Zm-1.56.19c.08 0 .16-.02.24-.05s.15-.08.2-.14c.12-.11.19-.28.19-.44s-.07-.32-.19-.44a.483.483 0 0 0-.2-.14.652.652 0 0 0-.68.14c-.06.06-.1.12-.14.2-.03.08-.04.16-.04.24 0 .17.06.33.18.44.12.12.28.19.44.19Z"/>
</svg>
