<svg id="uuid-f3f4b5cc-89d3-4762-9858-3bd5d14c1ce3" xmlns="http://www.w3.org/2000/svg" viewBox="0 0 36 36">
  <defs>
    <style>
      .uuid-8d2298ea-e1d4-4e70-b6ab-4131da7c6ba7{stroke-width:0}
    </style>
  </defs>
  <g id="uuid-0a5c0fe2-a088-46a1-b871-a43cf5ca910b">
    <path class="uuid-8d2298ea-e1d4-4e70-b6ab-4131da7c6ba7" d="M11.625 11V5A.625.625 0 0 0 11 4.375H5A.625.625 0 0 0 4.375 5v6c0 .345.28.625.625.625h6c.345 0 .625-.28.625-.625Zm-1.25-.625h-4.75v-4.75h4.75v4.75Zm20.625 16a.625.625 0 0 0-.625.625v3.375h-10.75v-10.75H27a.625.625 0 0 0 0-1.25h-8a.625.625 0 0 0-.625.625v12c0 .345.28.625.625.625h12c.345 0 .625-.28.625-.625v-4a.625.625 0 0 0-.625-.625Z"/>
    <path class="uuid-8d2298ea-e1d4-4e70-b6ab-4131da7c6ba7" d="M23.442 24.558a.625.625 0 1 0-.884.884l2 2a.622.622 0 0 0 .884 0l6-6a.626.626 0 0 0-.884-.884L25 26.116l-1.558-1.558Zm-6.932-8.933H22c2.274 0 4.125-1.85 4.125-4.125S24.275 7.375 22 7.375h-8a.625.625 0 0 0 0 1.25h8c1.585 0 2.875 1.29 2.875 2.875s-1.29 2.875-2.875 2.875h-5.491l.933-.933a.626.626 0 0 0-.884-.884l-2 2a.607.607 0 0 0-.153.285.58.58 0 0 0-.014.075.62.62 0 0 0 .031.32v.001c.03.07.073.13.122.183.006.006.008.014.014.02l2 2a.622.622 0 0 0 .884 0 .626.626 0 0 0 0-.885l-.933-.932Zm.1 7.293a.574.574 0 0 0-.015-.075.608.608 0 0 0-.153-.285l-2-2a.625.625 0 1 0-.884.884l.933.933h-4.49c-1.862 0-3.376-1.514-3.376-3.375S8.14 15.625 10 15.625h2a.625.625 0 0 0 0-1.25h-2c-2.55 0-4.625 2.075-4.625 4.625S7.45 23.625 10 23.625h4.49l-.932.933a.626.626 0 0 0 .884.884l2-2c.006-.006.008-.014.014-.02a.617.617 0 0 0 .122-.183v-.001a.619.619 0 0 0 .031-.32Z"/>
  </g>
</svg>
