<svg id="uuid-8afef81c-3569-4710-8ed6-31ff70c78857" xmlns="http://www.w3.org/2000/svg" viewBox="0 0 36 36">
  <defs>
    <style>
      .uuid-93189a89-9d9c-497f-9042-fd95bcb9a937{stroke-width:0}
    </style>
  </defs>
  <g id="uuid-f14a13da-2b16-473a-8791-37442db08db2">
    <path class="uuid-93189a89-9d9c-497f-9042-fd95bcb9a937" d="M31 19.375a.625.625 0 0 0-.625.625v3.375h-10.75v-10.75H27a.625.625 0 0 0 0-1.25h-8a.625.625 0 0 0-.625.625v12c0 .345.28.625.625.625h12c.345 0 .625-.28.625-.625v-4a.625.625 0 0 0-.625-.625Z"/>
    <path class="uuid-93189a89-9d9c-497f-9042-fd95bcb9a937" d="M23.442 17.558a.625.625 0 1 0-.884.884l2 2a.622.622 0 0 0 .884 0l6-6a.626.626 0 0 0-.884-.884L25 19.116l-1.558-1.558Zm-5.864.204v-.001a.62.62 0 0 0-.122-.183c-.006-.006-.008-.014-.014-.02l-2-2a.625.625 0 1 0-.884.884l.933.933h-3.866V15a.625.625 0 0 0-.625-.625H5a.625.625 0 0 0-.625.625v6c0 .345.28.625.625.625h6c.345 0 .625-.28.625-.625v-2.375h3.866l-.933.933a.626.626 0 0 0 .884.884l2-2a.607.607 0 0 0 .153-.285.58.58 0 0 0 .014-.075.62.62 0 0 0-.031-.32Zm-7.203 2.613h-4.75v-4.75h4.75v4.75Z"/>
  </g>
</svg>
