<svg xmlns="http://www.w3.org/2000/svg" viewBox="0 0 36 36">
  <path d="M16 32.625A3.629 3.629 0 0 1 12.375 29c0-.475.096-.94.276-1.375H7A.626.626 0 0 1 6.375 27v-6.778a.626.626 0 0 1 1.043-.465A2.366 2.366 0 0 0 9 20.375c1.31 0 2.375-1.065 2.375-2.375S10.31 15.625 9 15.625c-.578 0-1.14.22-1.582.618a.626.626 0 0 1-1.043-.465V9c0-.345.28-.625.625-.625h5.651A3.59 3.59 0 0 1 12.375 7C12.375 5.001 14 3.375 16 3.375S19.625 5.001 19.625 7c0 .475-.096.94-.276 1.375h5.65c.346 0 .626.28.626.625v5.651c.435-.18.9-.276 1.375-.276 1.999 0 3.625 1.626 3.625 3.625S28.999 21.625 27 21.625a3.59 3.59 0 0 1-1.375-.276V27c0 .345-.28.625-.625.625h-5.651c.18.435.276.9.276 1.375A3.629 3.629 0 0 1 16 32.625Zm-8.375-6.25h6.153a.626.626 0 0 1 .465 1.043A2.366 2.366 0 0 0 13.625 29c0 1.31 1.065 2.375 2.375 2.375S18.375 30.31 18.375 29c0-.578-.22-1.14-.618-1.582a.626.626 0 0 1 .465-1.043h6.153v-6.153a.626.626 0 0 1 1.043-.465 2.366 2.366 0 0 0 1.582.618c1.31 0 2.375-1.065 2.375-2.375S28.309 15.625 27 15.625c-.578 0-1.14.22-1.582.618a.626.626 0 0 1-1.043-.465V9.625h-6.153a.626.626 0 0 1-.465-1.043A2.366 2.366 0 0 0 18.375 7c0-1.31-1.066-2.375-2.375-2.375S13.625 5.69 13.625 7c0 .578.22 1.14.618 1.582a.626.626 0 0 1-.465 1.043H7.625v5.026c.434-.18.9-.276 1.375-.276 1.999 0 3.625 1.626 3.625 3.625S10.999 21.625 9 21.625a3.59 3.59 0 0 1-1.375-.276v5.026Z"/>
</svg>
