<svg id="uuid-0954e6e0-cab2-46ba-abe1-6c99831b9dfe" xmlns="http://www.w3.org/2000/svg" viewBox="0 0 36 36">
  <defs>
    <style>
      .uuid-f067847f-31f7-4316-814f-45fb05f62786{stroke-width:0}
    </style>
  </defs>
  <g id="uuid-6470251c-7e1c-4300-9e11-f6f501f24749">
    <path class="uuid-f067847f-31f7-4316-814f-45fb05f62786" d="M13.16 22.84c.25.248.57.357.94.357 1.087 0 2.587-.942 3.9-2.003 1.313 1.06 2.813 2.003 3.9 2.003.37 0 .69-.109.94-.357.98-.98-.221-3.082-1.64-4.84 1.419-1.758 2.62-3.86 1.64-4.84-.982-.982-3.083.221-4.84 1.64-1.758-1.418-3.859-2.619-4.84-1.64-.98.98.222 3.082 1.641 4.84-1.42 1.758-2.621 3.86-1.64 4.84Zm8.822-.904c-.294.12-1.471-.358-3.018-1.566.258-.235.504-.467.722-.684.219-.22.45-.462.687-.722 1.21 1.541 1.698 2.704 1.61 2.973Zm-4.784-3.134A20.96 20.96 0 0 1 16.44 18 20.887 20.887 0 0 1 18 16.437 21.128 21.128 0 0 1 19.56 18c-.235.262-.485.528-.758.802-.273.273-.54.523-.801.758-.262-.235-.53-.485-.803-.758Zm4.661-4.795c.031 0 .057.004.077.01.123.303-.357 1.475-1.564 3.018a21.318 21.318 0 0 0-1.407-1.407c1.421-1.115 2.523-1.62 2.894-1.62Zm-7.841.056a.32.32 0 0 1 .118-.018c.424 0 1.513.502 2.897 1.584a21.506 21.506 0 0 0-1.406 1.407c-1.21-1.541-1.698-2.704-1.609-2.972Zm1.61 4.902a20.663 20.663 0 0 0 1.41 1.407c-1.54 1.21-2.704 1.699-2.974 1.61-.123-.302.357-1.474 1.564-3.017Z"/>
    <path class="uuid-f067847f-31f7-4316-814f-45fb05f62786" d="M26 9.375H10a.625.625 0 0 0-.625.625v16c0 .345.28.625.625.625h16c.345 0 .625-.28.625-.625V10A.625.625 0 0 0 26 9.375Zm-.625 16h-14.75v-14.75h14.75v14.75ZM29 10.625h2a.625.625 0 1 0 0-1.25h-2a.625.625 0 1 0 0 1.25Zm2 6.75h-2a.625.625 0 1 0 0 1.25h2a.625.625 0 1 0 0-1.25Zm0-4h-2a.625.625 0 1 0 0 1.25h2a.625.625 0 1 0 0-1.25Zm0 12h-2a.625.625 0 1 0 0 1.25h2a.625.625 0 1 0 0-1.25Zm0-4h-2a.625.625 0 1 0 0 1.25h2a.625.625 0 1 0 0-1.25Zm-24-12H5a.625.625 0 1 0 0 1.25h2a.625.625 0 1 0 0-1.25Zm0 8H5a.625.625 0 1 0 0 1.25h2a.625.625 0 1 0 0-1.25Zm0-4H5a.625.625 0 1 0 0 1.25h2a.625.625 0 1 0 0-1.25Zm0 12H5a.625.625 0 1 0 0 1.25h2a.625.625 0 1 0 0-1.25Zm0-4H5a.625.625 0 1 0 0 1.25h2a.625.625 0 1 0 0-1.25Zm19 7a.625.625 0 0 0-.625.625v2a.625.625 0 1 0 1.25 0v-2a.625.625 0 0 0-.625-.625Zm-8 0a.625.625 0 0 0-.625.625v2a.625.625 0 1 0 1.25 0v-2a.625.625 0 0 0-.625-.625Zm4 0a.625.625 0 0 0-.625.625v2a.625.625 0 1 0 1.25 0v-2a.625.625 0 0 0-.625-.625Zm-12 0a.625.625 0 0 0-.625.625v2a.625.625 0 1 0 1.25 0v-2a.625.625 0 0 0-.625-.625Zm4 0a.625.625 0 0 0-.625.625v2a.625.625 0 1 0 1.25 0v-2a.625.625 0 0 0-.625-.625Zm12-24a.625.625 0 0 0-.625.625v2a.625.625 0 1 0 1.25 0V5A.625.625 0 0 0 26 4.375Zm-8 3.25c.345 0 .625-.28.625-.625V5a.625.625 0 1 0-1.25 0v2c0 .345.28.625.625.625Zm4 0c.345 0 .625-.28.625-.625V5a.625.625 0 1 0-1.25 0v2c0 .345.28.625.625.625Zm-12 0c.345 0 .625-.28.625-.625V5a.625.625 0 1 0-1.25 0v2c0 .345.28.625.625.625Zm4 0c.345 0 .625-.28.625-.625V5a.625.625 0 1 0-1.25 0v2c0 .345.28.625.625.625Z"/>
  </g>
</svg>
