<svg id="uuid-7b7d42ce-cf67-4e1e-8169-38ca2a4ff235" xmlns="http://www.w3.org/2000/svg" viewBox="0 0 36 36">
  <defs>
    <style>
      .uuid-af845bcf-6f5f-4257-97ca-b635dbff0444{stroke-width:0}
    </style>
  </defs>
  <g id="uuid-c8249218-e993-4424-9c2f-27bc761a13c6">
    <path class="uuid-af845bcf-6f5f-4257-97ca-b635dbff0444" d="M17.5 9.88c-2.78 0-5.05 2.26-5.05 5.05 0 .34.28.62.62.62s.62-.28.62-.62c0-2.09 1.7-3.8 3.8-3.8s3.8 1.7 3.8 3.8c0 1.28-.66 2.46-1.82 3.24-.22.15-.48.29-.74.44-1.1.62-2.6 1.47-2.6 3.2 0 .34.28.62.62.62s.62-.28.62-.62c0-.93.78-1.44 1.96-2.12.29-.17.58-.33.82-.49 1.49-1 2.37-2.6 2.37-4.28 0-2.78-2.26-5.05-5.05-5.05l.03.01ZM17 23.92a.633.633 0 0 0-.68.14c-.11.11-.18.28-.18.44 0 .08.02.16.05.24a.631.631 0 0 0 .57.39c.17 0 .33-.07.45-.19.11-.12.18-.28.18-.44s-.07-.32-.18-.44a.596.596 0 0 0-.21-.14Z"/>
    <path class="uuid-af845bcf-6f5f-4257-97ca-b635dbff0444" d="M17.5 2.88C9.44 2.88 2.88 9.44 2.88 17.5S9.44 32.12 17.5 32.12s14.62-6.56 14.62-14.62S25.56 2.88 17.5 2.88Zm0 28c-7.38 0-13.38-6-13.38-13.38s6-13.38 13.38-13.38 13.38 6 13.38 13.38-6 13.38-13.38 13.38Z"/>
  </g>
</svg>
