<svg xmlns="http://www.w3.org/2000/svg" viewBox="0 0 36 36">
  <path d="M31 8.375H20a.625.625 0 0 0-.625.625v5A6.632 6.632 0 0 0 26 20.625h4.369c-.068 3.181-2.672 5.75-5.869 5.75a6.04 6.04 0 0 1-.452-.017.621.621 0 0 0-.671.575.624.624 0 0 0 .575.671 7.133 7.133 0 0 0 7.673-7.104V9A.625.625 0 0 0 31 8.375ZM20.625 14V9.625h9.75v9.75H26A5.38 5.38 0 0 1 20.625 14ZM16 8.375H5A.625.625 0 0 0 4.375 9v5A6.632 6.632 0 0 0 11 20.625h4.369c-.068 3.181-2.672 5.75-5.869 5.75a6.04 6.04 0 0 1-.452-.017.62.62 0 0 0-.671.575.624.624 0 0 0 .575.671 7.133 7.133 0 0 0 7.673-7.104V9A.625.625 0 0 0 16 8.375ZM5.625 14V9.625h9.75v9.75H11A5.38 5.38 0 0 1 5.625 14Z"/>
</svg>
