<svg xmlns="http://www.w3.org/2000/svg" viewBox="0 0 36 36">
  <path d="M10 15.375H5.631c.068-3.181 2.672-5.75 5.869-5.75.152 0 .303.006.452.017a.625.625 0 1 0 .096-1.246A7.133 7.133 0 0 0 4.375 15.5V27c0 .345.28.625.625.625h11c.345 0 .625-.28.625-.625v-5A6.633 6.633 0 0 0 10 15.375Zm5.375 11h-9.75v-9.75H10A5.38 5.38 0 0 1 15.375 22v4.375Zm9.625-11h-4.369c.068-3.181 2.672-5.75 5.869-5.75.152 0 .303.006.452.017a.626.626 0 0 0 .096-1.246 7.133 7.133 0 0 0-7.673 7.104V27c0 .345.28.625.625.625h11c.345 0 .625-.28.625-.625v-5A6.633 6.633 0 0 0 25 15.375Zm5.375 11h-9.75v-9.75H25A5.38 5.38 0 0 1 30.375 22v4.375Z"/>
</svg>
