<svg id="uuid-4ed4e1ff-3ed4-4d7a-b676-19091728e737" xmlns="http://www.w3.org/2000/svg" viewBox="0 0 36 36">
  <defs>
    <style>
      .uuid-7401220e-9437-4d21-a56b-7f47c0aa1576{stroke-width:0}
    </style>
  </defs>
  <g id="uuid-6df1de0c-06c5-4dd2-87e1-488e9fcca34a">
    <path class="uuid-7401220e-9437-4d21-a56b-7f47c0aa1576" d="M10.17 14.62h12.65c.21 0 .41-.11.53-.29s.13-.41.04-.6c-1.26-2.65-3.96-4.36-6.89-4.36s-5.63 1.71-6.89 4.36c-.09.19-.08.42.04.6s.31.29.53.29h-.01Zm11.57-1.25h-4.62v-2.71a6.42 6.42 0 0 1 4.62 2.71Zm-5.87-2.71v2.71h-4.62a6.388 6.388 0 0 1 4.62-2.71ZM31 27.38H5c-.34 0-.62.28-.62.62s.28.62.62.62h26c.34 0 .62-.28.62-.62s-.28-.62-.62-.62Z"/>
    <path class="uuid-7401220e-9437-4d21-a56b-7f47c0aa1576" d="M30.97 17.59s-.02-.03-.03-.04a5.62 5.62 0 0 0-4.44-2.18H8.01l-.58-2.75h.08c.34 0 .62-.28.62-.62s-.28-.62-.62-.62h-3c-.34 0-.62.28-.62.62s.28.62.62.62h1.64l.58 2.75H5.5c-.19 0-.37.08-.49.23s-.17.34-.13.52l1.06 5c.06.29.32.5.61.5H8c-.08.28-.14.57-.14.88 0 1.72 1.4 3.12 3.12 3.12s3.12-1.4 3.12-3.12-1.4-3.12-3.12-3.12c-.9 0-1.71.39-2.28 1H7.05l-.8-3.75H26.5c.9 0 1.73.28 2.42.75H27.5c-.34 0-.62.28-.62.62s.28.62.62.62h2.65c.34.52.59 1.11.68 1.75h-2.55c-.57-.61-1.38-1-2.28-1s-1.71.39-2.28 1H15.5c-.34 0-.62.28-.62.62s.28.62.62.62h7.52c-.08.28-.14.57-.14.88 0 1.72 1.4 3.12 3.12 3.12s3.12-1.4 3.12-3.12c0-.31-.06-.6-.14-.88h2.52c.34 0 .62-.28.62-.62 0-1.28-.44-2.46-1.16-3.41l.01.01ZM11 20.62c1.03 0 1.88.84 1.88 1.88s-.84 1.88-1.88 1.88-1.88-.84-1.88-1.88.84-1.88 1.88-1.88Zm15 3.75c-1.03 0-1.88-.84-1.88-1.88s.84-1.88 1.88-1.88 1.88.84 1.88 1.88-.84 1.88-1.88 1.88Z"/>
  </g>
</svg>
