<svg id="uuid-78f47d4a-6f9d-4bb6-a15c-a4c9f45cf88f" xmlns="http://www.w3.org/2000/svg" viewBox="0 0 36 36">
  <defs>
    <style>
      .uuid-949dd972-ecd6-4930-8114-fa65c3eca5d6{stroke-width:0}
    </style>
  </defs>
  <path class="uuid-949dd972-ecd6-4930-8114-fa65c3eca5d6" d="M26 4.38H10c-.9 0-1.62.73-1.62 1.62v25c0 .35.28.62.62.62h18c.34 0 .62-.28.62-.62V6c0-.9-.73-1.62-1.62-1.62ZM9.62 6c0-.21.17-.38.38-.38h16c.21 0 .38.17.38.38v5.38H9.62V6Zm16.76 24.38H9.62V12.62h16.76v17.76Z"/>
  <path class="uuid-949dd972-ecd6-4930-8114-fa65c3eca5d6" d="M12 20.62c.34 0 .62-.28.62-.62v-5c0-.35-.28-.62-.62-.62s-.62.28-.62.62v5c0 .35.28.62.62.62Zm0-13.24c-.34 0-.62.28-.62.62v1c0 .35.28.62.62.62s.62-.28.62-.62V8c0-.35-.28-.62-.62-.62Z"/>
</svg>
