<svg xmlns="http://www.w3.org/2000/svg" viewBox="0 0 36 36">
  <path d="M29 22.77c-.76 0-1.38-.62-1.38-1.38v-4c0-4.6-3.24-8.45-7.56-9.4.35-.44.56-1 .56-1.6 0-1.45-1.18-2.62-2.62-2.62s-2.62 1.18-2.62 2.62c0 .61.22 1.16.56 1.6-4.32.95-7.56 4.8-7.56 9.4v4c0 .76-.62 1.38-1.38 1.38-.34 0-.62.28-.62.62v3c0 .34.28.62.62.62h7.41c-.01.12-.04.25-.04.38 0 2 1.63 3.62 3.62 3.62s3.62-1.63 3.62-3.62c0-.13-.02-.25-.04-.38h7.41c.34 0 .62-.28.62-.62v-3c0-.34-.28-.62-.62-.62H29ZM18 5.02c.76 0 1.38.62 1.38 1.38S18.76 7.78 18 7.78s-1.38-.62-1.38-1.38.62-1.38 1.38-1.38Zm0 24.75c-1.31 0-2.38-1.07-2.38-2.38 0-.13.02-.25.04-.38h4.67c.02.12.04.25.04.38 0 1.31-1.07 2.38-2.38 2.38H18Zm10.38-4H7.62v-1.83c1.15-.28 2-1.32 2-2.55v-4c0-4.62 3.76-8.38 8.38-8.38s8.38 3.76 8.38 8.38v4c0 1.23.85 2.27 2 2.55v1.83Z"/>
</svg>
