<svg id="uuid-5fb7d507-3599-48e4-83b5-5fe121499def" xmlns="http://www.w3.org/2000/svg" viewBox="0 0 36 36">
  <defs>
    <style>
      .uuid-271ad845-5061-46a6-94b7-6fa4db331124{stroke-width:0}
    </style>
  </defs>
  <path class="uuid-271ad845-5061-46a6-94b7-6fa4db331124" d="m31.38 14.5-3.76-2.89V8.99c0-.35-.28-.62-.62-.62s-.62.28-.62.62v1.65l-7.99-6.15a.63.63 0 0 0-.76 0L4.62 14.5c-.27.21-.33.6-.11.88.21.27.6.32.87.12V31c0 .35.28.62.62.62s.62-.28.62-.62V14.54L18 5.79l11.38 8.75V31c0 .35.28.62.62.62s.62-.28.62-.62V15.5a.634.634 0 0 0 .88-.11c.21-.27.16-.67-.11-.88l-.01-.01Z"/>
  <path class="uuid-271ad845-5061-46a6-94b7-6fa4db331124" d="M12.38 22v7c0 .35.28.62.62.62h10c.34 0 .62-.28.62-.62v-7c0-.35-.28-.62-.62-.62H13c-.34 0-.62.28-.62.62Zm1.25.62h8.75v5.75h-8.76v-5.75h.01ZM25 30.38H11c-.34 0-.62.28-.62.62s.28.62.62.62h14c.34 0 .62-.28.62-.62s-.28-.62-.62-.62Zm-8.86-12.24c-.24.24-.24.64 0 .88s.64.24.88 0c.52-.52 1.42-.52 1.94 0 .12.12.28.18.44.18s.32-.06.44-.18c.24-.24.24-.64 0-.88-.99-.99-2.72-.99-3.71 0h.01Z"/>
  <path class="uuid-271ad845-5061-46a6-94b7-6fa4db331124" d="M21.4 17.22c.16 0 .32-.06.44-.18.24-.24.24-.64 0-.88a5.444 5.444 0 0 0-7.69 0c-.24.24-.25.64 0 .88s.64.24.88 0a4.195 4.195 0 0 1 5.92 0c.12.12.28.18.44.18h.01Z"/>
  <path class="uuid-271ad845-5061-46a6-94b7-6fa4db331124" d="M23.78 14.22c-3.19-3.19-8.38-3.19-11.57 0-.24.24-.24.64 0 .88s.64.24.88 0c2.7-2.7 7.1-2.7 9.8 0 .12.12.28.18.44.18s.32-.06.44-.18c.24-.24.24-.64 0-.88h.01Z"/>
</svg>
