<svg id="uuid-10e42d6e-b81b-4cdf-b5c3-5e0abe98d03e" xmlns="http://www.w3.org/2000/svg" viewBox="0 0 36 36">
  <defs>
    <style>
      .uuid-f2900993-43c3-4f0b-8713-78bb7d7ef027{stroke-width:0}
    </style>
  </defs>
  <g id="uuid-becf300b-c905-4678-a5b5-6471c04be5e2">
    <path class="uuid-f2900993-43c3-4f0b-8713-78bb7d7ef027" d="M28 4.375H12c-.028 0-.052.013-.08.016a.577.577 0 0 0-.079.016.618.618 0 0 0-.28.15l-.003.001-4 4-.002.004a.619.619 0 0 0-.148.278.577.577 0 0 0-.017.08c-.003.028-.016.052-.016.08v22c0 .345.28.625.625.625h20c.345 0 .625-.28.625-.625V5A.625.625 0 0 0 28 4.375ZM11.375 6.509v1.866H9.509l1.866-1.866Zm16 23.866H8.625V9.625H12c.345 0 .625-.28.625-.625V5.625h14.75v24.75Z"/>
    <path class="uuid-f2900993-43c3-4f0b-8713-78bb7d7ef027" d="M13.375 21.375H12a.625.625 0 0 0 0 1.25h12a.625.625 0 0 0 0-1.25h-1.375V14a.625.625 0 0 0-1.25 0v7.375h-2.75V17a.625.625 0 0 0-1.25 0v4.375h-2.75V19a.625.625 0 0 0-1.25 0v2.375Z"/>
  </g>
</svg>
