<svg xmlns="http://www.w3.org/2000/svg" viewBox="0 0 36 36">
  <path d="M31 17.38H8c-.34 0-.62.28-.62.62v4c0 .34.28.62.62.62h2.37V31c0 .34.28.62.62.62h13c.34 0 .62-.28.62-.62v-5.41c3.91-.32 7-3.6 7-7.59 0-.34-.28-.62-.62-.62H31Zm-7.62 13H11.62V22c0-.34-.28-.62-.62-.62H8.63v-2.75h7.78a7.62 7.62 0 0 0 6.97 6.97v4.78Zm.62-6c-3.3 0-6.03-2.53-6.34-5.75h12.69c-.32 3.22-3.04 5.75-6.34 5.75H24Zm7-9H17c-.34 0-.62.28-.62.62s.28.62.62.62h14c.34 0 .62-.28.62-.62s-.28-.62-.62-.62ZM14.62 16V5c0-.34-.28-.62-.62-.62H5c-.34 0-.62.28-.62.62v11c0 .34.28.62.62.62h9c.34 0 .62-.28.62-.62Zm-1.25-.62H5.62V5.62h7.75v9.76Z"/>
</svg>
