<svg id="uuid-1a5aa1ba-c765-42e4-affb-db8ea60fbe27" xmlns="http://www.w3.org/2000/svg" viewBox="0 0 36 36">
  <defs>
    <style>
      .uuid-136fbd24-77b3-4702-8cb4-de296e7b9eda{stroke-width:0}
    </style>
  </defs>
  <g id="uuid-0d8a387e-b945-4ce2-91e9-0a2c004bae93">
    <path class="uuid-136fbd24-77b3-4702-8cb4-de296e7b9eda" d="M30 22.375h-8.375v-1.75H27c.345 0 .625-.28.625-.625v-6.375H29a.625.625 0 1 0 0-1.25h-1.375V8A.625.625 0 0 0 27 7.375h-5.375V5a.625.625 0 1 0-1.25 0v2.375h-4.75V5a.625.625 0 1 0-1.25 0v2.375H9A.625.625 0 0 0 8.375 8v4.375H7a.625.625 0 1 0 0 1.25h1.375V20c0 .345.28.625.625.625h5.375v1.75H6a.625.625 0 0 0-.625.625v8a.625.625 0 1 0 1.25 0v-7.375h22.75V31a.625.625 0 1 0 1.25 0v-8a.625.625 0 0 0-.625-.625ZM9.625 8.625h16.75v10.75H9.625V8.625Zm6 12h4.75v1.75h-4.75v-1.75Z"/>
    <path class="uuid-136fbd24-77b3-4702-8cb4-de296e7b9eda" d="M15.439 13.44a.597.597 0 0 0 .14-.68.556.556 0 0 0-.14-.2.594.594 0 0 0-.2-.14.661.661 0 0 0-.48 0c-.07.04-.14.08-.2.14-.06.06-.1.13-.14.2-.03.08-.04.16-.04.24 0 .16.06.33.18.44.06.06.12.11.2.14.08.03.16.05.24.05s.16-.02.24-.05a.48.48 0 0 0 .2-.14Zm5.32.14c.08.03.16.04.24.04s.16-.01.24-.04a.48.48 0 0 0 .2-.14.597.597 0 0 0 .14-.68.556.556 0 0 0-.14-.2.478.478 0 0 0-.2-.14.632.632 0 0 0-.68.14c-.06.06-.1.12-.14.2-.03.08-.04.16-.04.24 0 .17.06.33.18.44.06.06.13.11.2.14Z"/>
  </g>
</svg>
