<svg id="uuid-8e03227d-3ef3-405e-a9d9-b7b89e2dd429" xmlns="http://www.w3.org/2000/svg" viewBox="0 0 36 36">
  <defs>
    <style>
      .uuid-af8be121-7ef7-4d4a-8971-aab0aa88b719{stroke-width:0}
    </style>
  </defs>
  <g id="uuid-c22fa189-c3b9-4c16-96e5-d9790f3a316e">
    <path class="uuid-af8be121-7ef7-4d4a-8971-aab0aa88b719" d="m30.39 21.63-4.25-3.72c-1.69-1.48-2.89-3.4-3.48-5.57l-1.52-5.58a3.244 3.244 0 0 0-6.26 0l-1.52 5.58c-.59 2.16-1.8 4.09-3.48 5.57l-4.25 3.72c-.79.69-1.24 1.68-1.24 2.73V27c0 .35.28.62.62.62h9.98l-1.55 3.1c-.1.19-.09.42.03.61.11.18.31.3.53.3h8c.22 0 .42-.11.53-.3.11-.18.12-.41.03-.61l-1.55-3.1H31c.34 0 .62-.28.62-.62v-2.64c0-1.05-.45-2.04-1.24-2.73h.01ZM16.08 7.09c.24-.87 1.03-1.47 1.92-1.47s1.69.6 1.92 1.47l1.45 5.32v13.96h-6.75V12.42l1.45-5.32.01-.01ZM5.62 24.36c0-.69.3-1.34.81-1.79l4.25-3.72c1.09-.95 1.99-2.08 2.69-3.32v10.84H5.62v-2.01Zm15.36 6.01H15l1.38-2.75h3.23l1.38 2.75h-.01Zm9.39-4h-7.75V15.53c.7 1.24 1.6 2.37 2.69 3.32l4.25 3.72c.51.45.81 1.1.81 1.79v2.01Z"/>
    <path class="uuid-af8be121-7ef7-4d4a-8971-aab0aa88b719" d="M15.56 13.44c.12.12.28.18.44.18s.32-.06.44-.18L18 11.88l1.56 1.56c.12.12.28.18.44.18s.32-.06.44-.18c.24-.24.24-.64 0-.88l-2-2a.628.628 0 0 0-.88 0l-2 2c-.24.24-.24.64 0 .88Z"/>
  </g>
</svg>
