<svg id="uuid-5918984c-a39c-4e9f-b9c9-b6965da8a811" xmlns="http://www.w3.org/2000/svg" viewBox="0 0 36 36">
  <defs>
    <style>
      .uuid-c89fd7e9-46e1-48c6-abde-d6438710c9a7{stroke-width:0}
    </style>
  </defs>
  <path class="uuid-c89fd7e9-46e1-48c6-abde-d6438710c9a7" d="M22.5 4.38c-1.42 0-2.72.49-3.76 1.3-.01 0-.03.01-.04.02a6.109 6.109 0 0 0-2.32 4.79c0 .39.04.77.11 1.14l-7.95 8.95c-.22.25-.21.62.03.86l3 3c.12.12.28.18.44.18.15 0 .3-.05.42-.16l8.95-7.95c.37.07.75.11 1.14.11 1.94 0 3.67-.91 4.79-2.32.01-.01.01-.03.02-.04.81-1.04 1.3-2.34 1.3-3.76 0-3.38-2.75-6.12-6.12-6.12h-.01Zm4.88 6.12c0 .86-.24 1.66-.63 2.36l-6.6-6.6c.7-.39 1.5-.63 2.36-.63 2.69 0 4.88 2.19 4.88 4.88l-.01-.01ZM12.03 23.14l-2.17-2.17 7.07-7.95c.61 1.35 1.7 2.44 3.05 3.05l-7.95 7.07Zm10.47-7.77c-2.69 0-4.88-2.19-4.88-4.88 0-1.37.58-2.61 1.49-3.5l6.88 6.88c-.89.92-2.12 1.49-3.5 1.49l.01.01Z"/>
  <path class="uuid-c89fd7e9-46e1-48c6-abde-d6438710c9a7" d="m15.56 16.56-1 1c-.24.24-.24.64 0 .88.12.12.28.18.44.18s.32-.06.44-.18l1-1c.24-.24.24-.64 0-.88s-.64-.24-.88 0Zm7.88 13c-.42-.42-.65-.97-.65-1.56s.23-1.14.65-1.56c1.35-1.35 1.35-3.54 0-4.88s-3.54-1.35-4.88 0l-7 7c-.86.86-2.26.86-3.12 0-.86-.86-.86-2.26 0-3.12l1-1c.24-.24.24-.64 0-.88s-.64-.24-.88 0l-1 1a3.446 3.446 0 0 0 0 4.88c1.35 1.34 3.54 1.35 4.88 0l7-7c.86-.86 2.26-.86 3.12 0 .86.86.86 2.26 0 3.12-.65.65-1.01 1.52-1.01 2.44s.36 1.79 1.01 2.44l1 1c.12.12.28.18.44.18s.32-.06.44-.18c.24-.24.24-.64 0-.88l-1-1Z"/>
</svg>
