<svg id="uuid-60646bd8-9614-4bd9-a9b5-e143b87d17a2" xmlns="http://www.w3.org/2000/svg" viewBox="0 0 36 36">
  <defs>
    <style>
      .uuid-fa6074ea-5b61-490a-8e33-bfb91fc18de5{stroke-width:0}
    </style>
  </defs>
  <g id="uuid-f351e931-bf73-43d4-ab87-69f52ef6a390">
    <path class="uuid-fa6074ea-5b61-490a-8e33-bfb91fc18de5" d="M5 23.62h26c.35 0 .62-.28.62-.62V13c0-.35-.28-.62-.62-.62H5c-.35 0-.62.28-.62.62v10c0 .35.28.62.62.62Zm.62-10h24.76v8.75H5.62v-8.75Z"/>
    <path class="uuid-fa6074ea-5b61-490a-8e33-bfb91fc18de5" d="M9 15.38c-.35 0-.62.28-.62.62v4c0 .35.28.62.62.62s.62-.28.62-.62v-4c0-.35-.28-.62-.62-.62Zm3 0c-.35 0-.62.28-.62.62v4c0 .35.28.62.62.62s.62-.28.62-.62v-4c0-.35-.28-.62-.62-.62Zm3 0c-.35 0-.62.28-.62.62v4c0 .35.28.62.62.62s.62-.28.62-.62v-4c0-.35-.28-.62-.62-.62Zm3 0c-.35 0-.62.28-.62.62v4c0 .35.28.62.62.62s.62-.28.62-.62v-4c0-.35-.28-.62-.62-.62Zm8.76 2.04-.2.14c-.12.11-.18.27-.18.44l.04.24.14.2.2.14.24.04c.17 0 .33-.06.44-.18l.14-.2.05-.24c0-.17-.07-.33-.19-.44a.633.633 0 0 0-.68-.14Z"/>
  </g>
</svg>
