<svg id="uuid-1848e2dd-df75-4ce6-9fd4-04247977d833" xmlns="http://www.w3.org/2000/svg" viewBox="0 0 36 36">
  <defs>
    <style>
      .uuid-c8927272-2fc0-4165-8224-8582374264b5{stroke-width:0}
    </style>
  </defs>
  <g id="uuid-b405c729-c2f3-4c7b-87fb-b5fc810a1255">
    <path class="uuid-c8927272-2fc0-4165-8224-8582374264b5" d="M31 12.38H5c-.35 0-.62.28-.62.62v10c0 .35.28.62.62.62h26c.35 0 .62-.28.62-.62V13c0-.35-.28-.62-.62-.62Zm-.62 10H5.62v-8.76h24.76v8.76Z"/>
    <path class="uuid-c8927272-2fc0-4165-8224-8582374264b5" d="M9 20.62c.35 0 .62-.28.62-.62v-4c0-.35-.28-.62-.62-.62s-.62.28-.62.62v4c0 .35.28.62.62.62Zm3 0c.35 0 .62-.28.62-.62v-4c0-.35-.28-.62-.62-.62s-.62.28-.62.62v4c0 .35.28.62.62.62Zm3 0c.35 0 .62-.28.62-.62v-4c0-.35-.28-.62-.62-.62s-.62.28-.62.62v4c0 .35.28.62.62.62Zm3 0c.35 0 .62-.28.62-.62v-4c0-.35-.28-.62-.62-.62s-.62.28-.62.62v4c0 .35.28.62.62.62Zm9-2c.17 0 .33-.06.44-.18.12-.11.19-.28.19-.44s-.07-.33-.19-.44l-.2-.14a.633.633 0 0 0-.68.14c-.12.11-.18.28-.18.44s.06.33.18.44c.12.12.28.18.44.18Zm6.94 6.45a.617.617 0 0 0-.67-.14l-.21.14c-.11.12-.18.28-.18.44 0 .17.07.33.18.44l.21.14.23.05c.17 0 .33-.07.44-.19.12-.11.19-.27.19-.44l-.05-.24-.14-.2Zm-9.74 1.07c.35 0 .63-.28.63-.63s-.28-.62-.63-.62-.62.28-.62.62.28.63.62.63Zm3.1 0c.35 0 .63-.28.63-.63s-.28-.62-.63-.62-.62.28-.62.62.28.63.62.63Zm3.1 0c.35 0 .63-.28.63-.63s-.28-.62-.63-.62-.62.28-.62.62.28.63.62.63ZM8.7 24.89c-.35 0-.63.28-.63.62s.28.63.63.63.62-.28.62-.63-.28-.62-.62-.62Zm12.4 1.25c.35 0 .63-.28.63-.63s-.28-.62-.63-.62-.62.28-.62.62.28.63.62.63Zm-6.2-1.25c-.34 0-.63.28-.63.62s.29.63.63.63.62-.28.62-.63-.27-.62-.62-.62Zm3.1 1.25c.35 0 .63-.28.63-.63s-.28-.62-.63-.62-.62.28-.62.62.28.63.62.63ZM5.6 24.89c-.35 0-.63.28-.63.62s.28.63.63.63.62-.28.62-.63-.28-.62-.62-.62Zm6.82.62c0-.34-.28-.62-.62-.62s-.63.28-.63.62.28.63.63.63.62-.28.62-.63Zm-10.16.58.24.05.24-.05.2-.14c.12-.11.18-.27.18-.44l-.05-.24-.13-.2-.2-.14a.662.662 0 0 0-.48 0l-.2.14-.14.2-.05.24c0 .17.07.33.19.44l.2.14Zm.24-8.97c.34 0 .62-.28.62-.62s-.28-.63-.62-.63-.63.28-.63.63.28.62.63.62Zm0 6.01c.34 0 .62-.28.62-.62s-.28-.63-.62-.63-.63.28-.63.63.28.62.63.62Zm0-9.01c.34 0 .62-.28.62-.63s-.28-.62-.62-.62-.63.28-.63.62.28.63.63.63Zm0 6.01c.34 0 .62-.28.62-.63s-.28-.62-.62-.62-.63.28-.63.62.28.63.63.63Zm-.24-9.06.24.04.24-.04.2-.14c.12-.11.18-.27.18-.44l-.05-.24-.13-.2a.637.637 0 0 0-.88 0l-.14.2-.05.24c0 .17.07.33.19.44l.2.14Zm13.26-.58c0-.35-.27-.62-.62-.62s-.63.27-.63.62.29.62.63.62.62-.28.62-.62Zm3.11 0c0-.35-.28-.62-.63-.62s-.62.27-.62.62.28.62.62.62.63-.28.63-.62Zm3.1 0c0-.35-.28-.62-.63-.62s-.62.27-.62.62.28.62.62.62.63-.28.63-.62Zm3.1 0c0-.35-.28-.62-.63-.62s-.62.27-.62.62.28.62.62.62.63-.28.63-.62Z"/>
    <circle class="uuid-c8927272-2fc0-4165-8224-8582374264b5" cx="11.8" cy="10.49" r=".62"/>
    <path class="uuid-c8927272-2fc0-4165-8224-8582374264b5" d="M31.03 10.49c0-.35-.28-.62-.63-.62s-.62.27-.62.62.28.62.62.62.63-.28.63-.62Zm-3.1 0c0-.35-.28-.62-.63-.62s-.62.27-.62.62.28.62.62.62.63-.28.63-.62Zm-18.61 0c0-.35-.28-.62-.62-.62s-.63.27-.63.62.28.62.63.62.62-.28.62-.62Zm-3.72.62c.34 0 .62-.28.62-.62s-.28-.62-.62-.62-.63.27-.63.62.28.62.63.62Zm27.67-1.2-.21.14c-.11.11-.18.27-.18.44 0 .16.07.32.18.44l.21.14.23.04c.17 0 .33-.06.44-.18l.14-.2.05-.24c0-.17-.07-.33-.19-.44-.16-.18-.44-.23-.67-.14Zm.23 11.97c-.34 0-.62.28-.62.63s.28.62.62.62.63-.28.63-.62-.28-.63-.63-.63Zm0-3c-.34 0-.62.28-.62.62s.28.63.62.63.63-.28.63-.63-.28-.62-.63-.62Zm0-3.01c-.34 0-.62.28-.62.63s.28.62.62.62.63-.28.63-.62-.28-.63-.63-.63Zm0-3c-.34 0-.62.28-.62.62s.28.63.62.63.63-.28.63-.63-.28-.62-.63-.62Z"/>
  </g>
</svg>
