<svg id="uuid-e77a2c92-d78d-4d90-bb3c-1c279c47e5e7" xmlns="http://www.w3.org/2000/svg" viewBox="0 0 36 36">
  <defs>
    <style>
      .uuid-850a674c-f674-4455-9edc-08f63f0c51db{stroke-width:0}
    </style>
  </defs>
  <g id="uuid-7e3dc368-b53e-4124-ae69-1763de686498">
    <path class="uuid-850a674c-f674-4455-9edc-08f63f0c51db" d="M28.554 7.74a.624.624 0 0 0-.295-.295C22.293 4.6 15.152 5.822 10.487 10.486 5.822 15.151 4.6 22.294 7.446 28.26a.624.624 0 0 0 .295.295 15.606 15.606 0 0 0 6.724 1.52c4.059 0 8.062-1.575 11.048-4.561 4.665-4.665 5.887-11.808 3.041-17.774Zm-1.034.74a14.36 14.36 0 0 1 1.296 6.451l-7.747-7.746A14.36 14.36 0 0 1 27.52 8.48ZM8.48 27.52a14.359 14.359 0 0 1-1.296-6.451l7.747 7.747c-2.179.07-4.388-.35-6.451-1.295Zm16.15-2.891a14.327 14.327 0 0 1-8.114 4.04c-.024-.038-.041-.079-.074-.111l-9-9c-.033-.033-.074-.05-.111-.074a14.324 14.324 0 0 1 4.04-8.113 14.328 14.328 0 0 1 8.113-4.04c.024.038.041.079.074.111l9 9c.033.033.074.05.111.074a14.324 14.324 0 0 1-4.04 8.113Z"/>
    <path class="uuid-850a674c-f674-4455-9edc-08f63f0c51db" d="m21.884 15 .558-.558a.626.626 0 0 0-.884-.884l-.558.558-1.558-1.558a.625.625 0 1 0-.884.884L20.116 15 18 17.116l-1.558-1.558a.625.625 0 1 0-.884.884L17.116 18 15 20.116l-1.558-1.558a.625.625 0 1 0-.884.884L14.116 21l-.558.558a.626.626 0 0 0 .884.884l.558-.558 1.558 1.558a.622.622 0 0 0 .884 0 .626.626 0 0 0 0-.884L15.884 21 18 18.884l1.558 1.558a.622.622 0 0 0 .884 0 .626.626 0 0 0 0-.884L18.884 18 21 15.884l1.558 1.558a.622.622 0 0 0 .884 0 .626.626 0 0 0 0-.884L21.884 15Z"/>
  </g>
</svg>
