<svg id="uuid-f1ec2e85-aee0-4292-ad9d-061118218e96" xmlns="http://www.w3.org/2000/svg" viewBox="0 0 36 36">
  <defs>
    <style>
      .uuid-fac3420b-ed03-403c-8354-bc11717af197{stroke-width:0}
    </style>
  </defs>
  <g id="uuid-634fe22e-3e11-4bd7-a98f-fa66f2bdf473">
    <path class="uuid-fac3420b-ed03-403c-8354-bc11717af197" d="m18.442 17.558-13-13a.625.625 0 1 0-.884.884L17.116 18 4.558 30.558a.626.626 0 0 0 .884.884l13-13a.626.626 0 0 0 0-.884Z"/>
    <path class="uuid-fac3420b-ed03-403c-8354-bc11717af197" d="m25.442 17.558-13-13a.625.625 0 1 0-.884.884L24.116 18 11.558 30.558a.626.626 0 0 0 .884.884l13-13a.626.626 0 0 0 0-.884Z"/>
    <path class="uuid-fac3420b-ed03-403c-8354-bc11717af197" d="m32.442 17.558-13-13a.625.625 0 1 0-.884.884L31.116 18 18.558 30.558a.626.626 0 0 0 .884.884l13-13a.626.626 0 0 0 0-.884Z"/>
  </g>
</svg>
