<svg id="uuid-43eef293-7de3-48ab-a258-5b205b72e30f" xmlns="http://www.w3.org/2000/svg" viewBox="0 0 36 36">
  <defs>
    <style>
      .uuid-0fdca8f7-2f97-4bc6-8e32-7aa652063f29{stroke-width:0}
    </style>
  </defs>
  <g id="uuid-5a783bf0-5ad5-4e50-9558-009d6e982ef2">
    <path class="uuid-0fdca8f7-2f97-4bc6-8e32-7aa652063f29" d="M31 27.375H5a.625.625 0 0 0 0 1.25h26a.625.625 0 0 0 0-1.25ZM15.625 15v-4a.625.625 0 0 0-.625-.625H8a.625.625 0 0 0-.625.625v4c0 .345.28.625.625.625h7c.345 0 .625-.28.625-.625Zm-7-3.375h2.75v2.75h-2.75v-2.75Zm5.75 2.75h-1.75v-2.75h1.75v2.75ZM26 17.625a.626.626 0 0 0 .442-1.067l-3-3a.625.625 0 0 0-.442-.183h-3a.625.625 0 0 0-.625.625v3c0 .345.28.625.625.625h6Zm-5.375-3h2.116l1.75 1.75h-3.866v-1.75Z"/>
    <path class="uuid-0fdca8f7-2f97-4bc6-8e32-7aa652063f29" d="M31.613 15.942a.604.604 0 0 0-.135-.33.606.606 0 0 0-.294-.2c-.019-.006-.034-.019-.054-.023l-3.731-.794-1.97-1.97h1.421a.59.59 0 0 0 .13-.013c.02-.005.035-.018.055-.024a.602.602 0 0 0 .293-.199.604.604 0 0 0 .135-.33c.002-.02.012-.038.012-.059 0-.022-.01-.042-.013-.064-.002-.022.004-.043 0-.066l-.85-4c-.005-.02-.018-.035-.024-.055a.604.604 0 0 0-.536-.43c-.018 0-.034-.01-.052-.01H7A2.628 2.628 0 0 0 4.375 10v11c0 .345.28.625.625.625h2.515c-.082.28-.14.57-.14.875 0 1.723 1.402 3.125 3.125 3.125s3.125-1.402 3.125-3.125-1.402-3.125-3.125-3.125c-.9 0-1.707.389-2.278 1H5.625V10c0-.757.617-1.375 1.375-1.375h18.494l.584 2.75H18a.625.625 0 0 0-.625.625v6a.625.625 0 0 0 1.25 0v-5.375h5.035l2.986 2.986a.629.629 0 0 0 .312.169l3.417.727v3.868h-2.597c-.571-.611-1.377-1-2.278-1s-1.707.389-2.278 1H15a.625.625 0 0 0 0 1.25h7.515c-.082.28-.14.57-.14.875 0 1.723 1.402 3.125 3.125 3.125s3.125-1.402 3.125-3.125a3.08 3.08 0 0 0-.14-.875H31c.345 0 .625-.28.625-.625v-5c0-.02-.01-.038-.012-.058ZM10.5 20.625c1.034 0 1.875.84 1.875 1.875s-.841 1.875-1.875 1.875-1.875-.84-1.875-1.875.841-1.875 1.875-1.875Zm15 3.75c-1.034 0-1.875-.84-1.875-1.875s.841-1.875 1.875-1.875 1.875.84 1.875 1.875-.841 1.875-1.875 1.875Z"/>
  </g>
</svg>
