<svg id="uuid-307a2c6d-f134-4334-9aa1-113c175b2e81" xmlns="http://www.w3.org/2000/svg" viewBox="0 0 36 36">
  <defs>
    <style>
      .uuid-8138929a-4fa1-4f53-9d45-6593e729b9cb{stroke-width:0}
    </style>
  </defs>
  <g id="uuid-51650cf0-f015-421c-8f4b-d60bd03b3261">
    <path class="uuid-8138929a-4fa1-4f53-9d45-6593e729b9cb" d="M12 23.62c2.71 0 5.04-1.93 5.53-4.59.04-.24.24-.41.47-.41s.43.17.47.41A5.619 5.619 0 0 0 24 23.62c3.05 0 5.62-2.58 5.62-5.62S27.1 12.38 24 12.38H12c-3.1 0-5.62 2.52-5.62 5.62s2.58 5.62 5.62 5.62Zm0-10h12c2.41 0 4.38 1.96 4.38 4.38s-2 4.38-4.38 4.38c-2.11 0-3.92-1.5-4.3-3.57-.15-.83-.87-1.43-1.7-1.43s-1.54.6-1.7 1.43a4.365 4.365 0 0 1-4.3 3.57c-2.37 0-4.38-2-4.38-4.38s1.96-4.38 4.38-4.38Zm19 7c.34 0 .62-.28.62-.62v-4c0-.34-.28-.62-.62-.62s-.62.28-.62.62v4c0 .34.28.62.62.62Zm-26 0c.34 0 .62-.28.62-.62v-4c0-.34-.28-.62-.62-.62s-.62.28-.62.62v4c0 .34.28.62.62.62Z"/>
    <path class="uuid-8138929a-4fa1-4f53-9d45-6593e729b9cb" d="M9.62 18c0-1.31 1.07-2.38 2.38-2.38.34 0 .62-.28.62-.62s-.28-.62-.62-.62c-2 0-3.62 1.63-3.62 3.62 0 .34.28.62.62.62s.62-.28.62-.62Z"/>
  </g>
</svg>
