<svg xmlns="http://www.w3.org/2000/svg" viewBox="0 0 36 36">
  <path d="M8.74 30.51c.12.12.28.18.44.18s.32-.06.44-.18l6.72-6.72c.12-.12.18-.28.18-.44s-.07-.33-.18-.44l-1.65-1.65 1.33-1.33s.01-.02.02-.03l3.75 3.75c.12.12.28.18.44.18s.33-.07.44-.18l2.99-2.99c.12-.12.18-.28.18-.44s-.07-.33-.18-.44l-3.74-3.74 1.35-1.35 1.65 1.65c.12.12.28.18.44.18s.33-.07.44-.18l6.72-6.72c.24-.24.24-.64 0-.88l-4.18-4.18a.647.647 0 0 0-.88 0L23.22 6.8l-2.24 2.24-2.24 2.24c-.24.24-.24.64 0 .88l1.64 1.64-1.35 1.35-3.73-3.73a.628.628 0 0 0-.88 0l-2.98 2.98c-.24.24-.24.64 0 .88l3.73 3.73s-.02.01-.03.02l-1.33 1.33-1.64-1.64a.628.628 0 0 0-.88 0l-2.24 2.24-2.24 2.24-2.24 2.24c-.12.12-.18.28-.18.44s.07.33.18.44l4.18 4.18-.01.01ZM25.89 5.88l3.29 3.29-1.35 1.35-3.29-3.29 1.35-1.35Zm-2.24 2.24 3.29 3.29-1.35 1.35-3.29-3.29 1.35-1.35Zm-3.59 3.59 1.35-1.35 3.29 3.29L23.35 15l-3.29-3.29Zm-7.31 3.13 2.1-2.1 7.47 7.47-2.1 2.1-7.47-7.47Zm-1.03 5.21 3.29 3.29-1.35 1.35-3.29-3.29 1.35-1.35Zm-2.24 2.24 3.29 3.29-1.35 1.35-3.29-3.29 1.35-1.35Zm-2.24 2.24 3.29 3.29-1.35 1.35-3.29-3.29 1.35-1.35Zm15.43-1.86c-1.17 1.17-1.82 2.73-1.82 4.39s.65 3.22 1.82 4.39c.12.12.28.18.44.18s.32-.06.44-.18l3.5-3.5 1.53 1.53c.12.12.28.18.44.18s.32-.06.44-.18c.24-.24.24-.64 0-.88l-1.53-1.53 3.5-3.5c.24-.24.24-.64 0-.88-1.17-1.17-2.73-1.82-4.39-1.82s-3.22.65-4.39 1.82l.02-.02Zm3.95 3.94-3.47 3.47a4.953 4.953 0 0 1 .42-6.54 4.92 4.92 0 0 1 3.5-1.45c1.07 0 2.14.34 3.04 1.03l-3.47 3.47-.02.02Z"/>
</svg>
