<svg id="uuid-2fcc2523-6906-473c-b103-d6361b32bd4d" xmlns="http://www.w3.org/2000/svg" viewBox="0 0 36 36">
  <defs>
    <style>
      .uuid-77084299-961f-40f3-ab43-143a78f76656{stroke-width:0}
    </style>
  </defs>
  <g id="uuid-0f9f7855-fe7c-4f66-9ea0-d8c3151a29b7">
    <path class="uuid-77084299-961f-40f3-ab43-143a78f76656" d="M8.375 17v10c0 .345.28.625.625.625h18c.345 0 .625-.28.625-.625V17a.625.625 0 0 0-.625-.625H9a.625.625 0 0 0-.625.625Zm1.25.625h16.75v8.75H9.625v-8.75Z"/>
    <path class="uuid-77084299-961f-40f3-ab43-143a78f76656" d="m31.443 9.558-5-5A.626.626 0 0 0 26 4.375h-2a.625.625 0 0 0-.625.625v7.375h-10.75V5A.625.625 0 0 0 12 4.375H5A.625.625 0 0 0 4.375 5v26c0 .345.28.625.625.625h26c.345 0 .625-.28.625-.625V10a.625.625 0 0 0-.182-.442Zm-1.068 20.817H5.625V5.625h5.75V13c0 .345.28.625.625.625h12c.345 0 .625-.28.625-.625V5.625h1.117l4.633 4.634v20.116Z"/>
    <path class="uuid-77084299-961f-40f3-ab43-143a78f76656" d="M21 8.625c.345 0 .625-.28.625-.625V5a.625.625 0 0 0-1.25 0v3c0 .345.28.625.625.625Z"/>
  </g>
</svg>
