<svg xmlns="http://www.w3.org/2000/svg" viewBox="0 0 36 36">
  <path d="M31 10.625c.345 0 .625-.28.625-.625V5a.618.618 0 0 0-.044-.218c-.008-.021-.018-.04-.028-.06a.617.617 0 0 0-.088-.13c-.014-.016-.027-.032-.043-.047a.623.623 0 0 0-.164-.111c-.006-.003-.011-.008-.017-.01l-.002-.001h-.005A.621.621 0 0 0 31 4.374h-5a.625.625 0 0 0 0 1.25h3.49l-9.412 9.413c-.59-.415-1.304-.663-2.078-.663s-1.488.248-2.078.663L6.51 5.625H10a.625.625 0 0 0 0-1.25H5a.616.616 0 0 0-.218.044c-.021.008-.04.018-.06.028a.616.616 0 0 0-.13.089c-.016.014-.033.026-.047.042a.617.617 0 0 0-.116.171l-.005.01-.002.002v.01A.62.62 0 0 0 4.374 5v5a.625.625 0 0 0 1.25 0V6.51l9.413 9.412c-.415.59-.663 1.304-.663 2.078s.248 1.488.663 2.078L5.625 29.49V26a.625.625 0 0 0-1.25 0v5c0 .077.018.15.044.218.008.021.018.04.028.06.024.047.053.09.088.13.014.016.027.033.043.047a.623.623 0 0 0 .164.111c.006.003.011.008.017.01l.002.001a.623.623 0 0 0 .239.048h5a.625.625 0 0 0 0-1.25H6.51l9.412-9.413c.59.415 1.304.663 2.078.663s1.488-.248 2.078-.663l9.413 9.413H26a.625.625 0 0 0 0 1.25h5a.61.61 0 0 0 .218-.044c.021-.008.04-.018.06-.028a.616.616 0 0 0 .13-.088c.016-.015.032-.027.047-.043a.617.617 0 0 0 .116-.171l.005-.01.002-.002v-.01a.62.62 0 0 0 .047-.229v-5a.625.625 0 0 0-1.25 0v3.49l-9.413-9.412c.415-.59.663-1.304.663-2.078s-.248-1.488-.663-2.078l9.413-9.413V10c0 .345.28.625.625.625ZM15.625 18c0-1.31 1.065-2.375 2.375-2.375S20.375 16.69 20.375 18 19.31 20.375 18 20.375 15.625 19.31 15.625 18Z"/>
</svg>
