<svg xmlns="http://www.w3.org/2000/svg" viewBox="0 0 36 36">
  <path d="M31.58 4.782c-.007-.021-.017-.04-.027-.06a.617.617 0 0 0-.088-.13c-.014-.016-.027-.032-.043-.047a.623.623 0 0 0-.164-.111c-.006-.003-.011-.008-.017-.01l-.002-.001h-.005A.621.621 0 0 0 31 4.374h-7a.625.625 0 0 0 0 1.25h5.49l-13.75 13.75H5a.625.625 0 0 0-.625.625v11c0 .345.28.625.625.625h11c.345 0 .625-.28.625-.625V20.26l13.75-13.751V12a.625.625 0 0 0 1.25 0V5a.618.618 0 0 0-.044-.218ZM15.376 30.375h-9.75v-9.75h9.75v9.75Zm15.624-15a.625.625 0 0 0-.625.625v13.375H19a.625.625 0 0 0 0 1.25h12c.345 0 .625-.28.625-.625V16a.625.625 0 0 0-.625-.625Zm-25 2.25c.345 0 .625-.28.625-.625V5.625H20a.625.625 0 0 0 0-1.25H6A.625.625 0 0 0 5.375 5v12c0 .345.28.625.625.625Z"/>
</svg>
