<svg xmlns="http://www.w3.org/2000/svg" viewBox="0 0 36 36">
  <path d="M31 30.375H18.625V9.625h6.154l-2.39 11.245c-.005.022.001.043-.001.066-.002.022-.013.041-.013.064 0 .038.01.073.011.11l.001.011c.066 2.493 2.104 4.504 4.613 4.504s4.547-2.011 4.613-4.504v-.01c.002-.038.012-.073.012-.111 0-.023-.01-.042-.013-.064-.002-.022.004-.044 0-.066l-2.4-11.288A.62.62 0 0 0 29 8.375H18.625V5a.625.625 0 0 0-1.25 0v3.375H7a.62.62 0 0 0-.212 1.207l-2.4 11.288c-.004.022.002.043 0 .066-.002.022-.013.041-.013.064 0 .038.01.073.011.11l.001.011c.066 2.493 2.104 4.504 4.613 4.504s4.547-2.011 4.613-4.504v-.01c.002-.038.012-.073.012-.111 0-.023-.01-.042-.013-.064-.002-.022.004-.044 0-.066L11.22 9.625h6.154v20.75H5a.625.625 0 0 0 0 1.25h26a.625.625 0 0 0 0-1.25Zm-3.057-20.75 2.285 10.75h-6.456l2.285-10.75h1.886ZM27 24.375a3.38 3.38 0 0 1-3.317-2.75h6.634A3.38 3.38 0 0 1 27 24.375Zm-18 0a3.38 3.38 0 0 1-3.317-2.75h6.634A3.38 3.38 0 0 1 9 24.375Zm3.228-4H5.772l2.285-10.75h1.886l2.285 10.75Z"/>
</svg>
