<svg xmlns="http://www.w3.org/2000/svg" viewBox="0 0 36 36">
  <path d="M31 30.375H18.625V9.506l6.027-1.28-2.263 10.644c-.005.022.001.043-.001.066-.002.022-.013.041-.013.064 0 .038.01.073.011.11l.001.011c.066 2.493 2.104 4.504 4.613 4.504s4.547-2.011 4.613-4.504v-.01c.002-.038.012-.073.012-.111 0-.023-.01-.042-.013-.064-.002-.022.004-.044 0-.066l-2.48-11.66a.622.622 0 0 0-.502-1.108l-3.282.697-.01.002-6.713 1.427V5a.625.625 0 0 0-1.25 0v3.494l-9.981 2.122-.024.005-.26.055a.624.624 0 0 0-.481.741.61.61 0 0 0 .138.265L4.389 22.87c-.005.022.001.044 0 .066-.003.022-.014.041-.014.064 0 .038.01.073.011.11l.001.012c.067 2.492 2.104 4.503 4.613 4.503s4.547-2.01 4.613-4.504v-.01c.002-.038.012-.073.012-.11 0-.024-.01-.043-.013-.065-.002-.022.004-.044 0-.066L11.11 11.103l6.265-1.331v20.603H5a.625.625 0 0 0 0 1.25h26a.625.625 0 0 0 0-1.25ZM27.923 7.53l2.305 10.845h-6.456L25.99 7.941l1.933-.411ZM27 22.375a3.38 3.38 0 0 1-3.317-2.75h6.634A3.38 3.38 0 0 1 27 22.375Zm-18 4a3.38 3.38 0 0 1-3.317-2.75h6.634A3.38 3.38 0 0 1 9 26.375Zm3.228-4H5.772l2.256-10.617 1.86-.395 2.34 11.012Z"/>
</svg>
