<svg xmlns="http://www.w3.org/2000/svg" viewBox="0 0 36 36">
  <path d="M31 23.375a.625.625 0 0 0-.625.625v5.49l-13.75-13.75V5A.625.625 0 0 0 16 4.375H5A.625.625 0 0 0 4.375 5v11c0 .345.28.625.625.625h10.74l13.751 13.75H24a.625.625 0 0 0 0 1.25h7a.61.61 0 0 0 .218-.044c.021-.008.04-.018.06-.028a.616.616 0 0 0 .13-.089c.016-.014.033-.026.047-.042a.617.617 0 0 0 .116-.171l.005-.01.002-.002v-.01a.62.62 0 0 0 .047-.229v-7a.625.625 0 0 0-.625-.625ZM5.625 5.625h9.75v9.75h-9.75v-9.75ZM20 30.375H6.625V19a.625.625 0 0 0-1.25 0v12c0 .345.28.625.625.625h14a.625.625 0 0 0 0-1.25Zm11-25H19a.625.625 0 0 0 0 1.25h11.375V20a.625.625 0 0 0 1.25 0V6A.625.625 0 0 0 31 5.375Z"/>
</svg>
