<svg id="uuid-1627035a-c6fd-409a-9fe1-1a530cb7b5e2" xmlns="http://www.w3.org/2000/svg" viewBox="0 0 36 36">
  <defs>
    <style>
      .uuid-e39f336b-dfc1-4472-bc61-0cfd584d3d50{stroke-width:0}
    </style>
  </defs>
  <g id="uuid-89faf705-f9b2-4c11-8806-a306f38c820f">
    <path class="uuid-e39f336b-dfc1-4472-bc61-0cfd584d3d50" d="M30.375 30.375h-6.25v-15.75h6.25v15.75Zm-14.75 0v-7.75h4.75v7.75h-4.75Zm-10-15.75h6.25v15.75h-6.25v-15.75ZM18 5.839l4.875 4.361v20.175h-1.25V22a.625.625 0 0 0-.625-.625h-6a.625.625 0 0 0-.625.625v8.375h-1.25V10.2L18 5.84Zm13 7.536h-6.875V10c-.012-.197-.038-.401-.208-.545l-5.5-4.92a.624.624 0 0 0-.834 0l-5.5 4.92c-.169.144-.196.348-.208.545v3.375H5a.625.625 0 0 0-.625.625v17c0 .345.28.625.625.625h26c.345 0 .625-.28.625-.625V14a.625.625 0 0 0-.625-.625Z"/>
    <path class="uuid-e39f336b-dfc1-4472-bc61-0cfd584d3d50" d="M9.375 19.375h-1.75v-1.75h1.75v1.75Zm.625-3H7a.625.625 0 0 0-.625.625v3c0 .345.28.625.625.625h3c.345 0 .625-.28.625-.625v-3a.625.625 0 0 0-.625-.625Zm16.625 1.25h1.75v1.75h-1.75v-1.75Zm-.625 3h3c.345 0 .625-.28.625-.625v-3a.625.625 0 0 0-.625-.625h-3a.625.625 0 0 0-.625.625v3c0 .345.28.625.625.625Zm.625 4h1.75v1.75h-1.75v-1.75Zm-.625 3h3c.345 0 .625-.28.625-.625v-3a.625.625 0 0 0-.625-.625h-3a.625.625 0 0 0-.625.625v3c0 .345.28.625.625.625Zm-16.625-1.25h-1.75v-1.75h1.75v1.75Zm.625-3H7a.625.625 0 0 0-.625.625v3c0 .345.28.625.625.625h3c.345 0 .625-.28.625-.625v-3a.625.625 0 0 0-.625-.625Zm8-12.75c2.472.065 2.472 3.686 0 3.75-2.472-.065-2.472-3.686 0-3.75Zm0 5c4.12-.108 4.12-6.142 0-6.25-4.12.108-4.12 6.142 0 6.25Zm-3 5h6c.815-.004.819-1.246 0-1.25h-6c-.815.004-.819 1.246 0 1.25Z"/>
  </g>
</svg>
