<svg id="uuid-2e31cf09-c24e-4b06-9393-055d10f858dd" xmlns="http://www.w3.org/2000/svg" viewBox="0 0 36 36">
  <defs>
    <style>
      .uuid-91208058-94dc-4570-91cb-404679985600{stroke-width:0}
    </style>
  </defs>
  <path class="uuid-91208058-94dc-4570-91cb-404679985600" d="M30.5 13.38h-4.06l.66-2.2c.1-.33-.09-.67-.41-.78l-16-5a.665.665 0 0 0-.48.04.63.63 0 0 0-.31.37l-3 10c-.1.33.09.67.41.78l3.59 1.12c0 .09-.03.19-.03.28 0 1.04.36 2 .94 2.77.37.49.84.91 1.38 1.22a8.913 8.913 0 0 1-4.26 3.78 4.608 4.608 0 0 0-4.44-3.39c-.35 0-.62.28-.62.62v8c0 .35.28.62.62.62 2.54 0 4.6-2.06 4.62-4.59 2.24-.86 4.1-2.49 5.25-4.57.36.09.74.16 1.13.16 1.67 0 3.13-.9 3.94-2.24l3.87 1.21c.06.02.12.03.19.03a.63.63 0 0 0 .6-.44l.66-2.2 3.37 2.52c.11.08.24.12.38.12.07 0 .13-.01.2-.03.19-.07.35-.22.4-.42l2-7c.05-.19.02-.39-.1-.55s-.3-.25-.5-.25v.02Zm-5.29 4.37.4-1.58.46-1.54h3.61l-1.52 5.33-2.94-2.21h-.01Zm-2.12 2.47-3.15-.98-.59-.19-.59-.19-3.14-.98-.62-.19-.07-.02-.53-.17-2.06-.64-.59-.19-.59-.19-2.87-.9 2.64-8.8 14.81 4.63-.64 2.13-.69 2.29-1.31 4.38-.01.01Zm-7.58 1.16c-.2 0-.4-.03-.59-.06-.21-.04-.41-.1-.6-.17-.2-.08-.39-.17-.56-.28-.41-.25-.77-.58-1.04-.98-.35-.51-.55-1.13-.57-1.78l1.79.56.36.11.6.19.6.19 2.71.85c-.62.83-1.59 1.38-2.7 1.38v-.01ZM5.12 30.32v-6.63c.95.18 1.75.75 2.24 1.54.18.29.31.6.39.94.05.2.08.41.1.62 0 .07.02.14.02.22 0 .15-.02.29-.04.43-.19 1.45-1.29 2.62-2.71 2.88Z"/>
  <path class="uuid-91208058-94dc-4570-91cb-404679985600" d="m16.85 15.24-1.83-.57-1.1-.35-.8-.25h-.04c-.32-.08-.64.1-.74.41-.02.06-.02.11-.02.17 0 .23.11.44.32.56.04.02.07.05.11.06l.57.18 3.16.99a.63.63 0 0 0 .79-.41c.1-.33-.08-.68-.41-.78l-.01-.01Zm-5.86-1.82a.65.65 0 0 0-.69.13c-.11.12-.18.28-.18.44 0 .08.02.17.05.24.03.08.08.15.13.21.12.11.28.18.45.18.08 0 .16-.02.24-.05.07-.03.14-.08.2-.13.11-.12.18-.28.18-.45 0-.16-.07-.32-.18-.44a.625.625 0 0 0-.2-.13Z"/>
</svg>
