<svg id="uuid-513bb643-c52f-4d7e-b44c-1373adc1bb1a" xmlns="http://www.w3.org/2000/svg" viewBox="0 0 36 36">
  <defs>
    <style>
      .uuid-d21dd6c9-e625-4c46-b763-aac62066a46a{stroke-width:0}
    </style>
  </defs>
  <g id="uuid-56fc87b3-5917-4128-be0e-e06c9ca00b1f">
    <path class="uuid-d21dd6c9-e625-4c46-b763-aac62066a46a" d="m29.13 6.727-11-2.338a.612.612 0 0 0-.26 0l-11 2.338a.625.625 0 0 0-.495.61V20c0 6.41 5.215 11.625 11.625 11.625S29.625 26.41 29.625 20V7.338a.625.625 0 0 0-.495-.611ZM28.375 20c0 5.72-4.654 10.375-10.375 10.375S7.625 25.721 7.625 20V7.844L18 5.64l10.375 2.205V20Z"/>
    <path class="uuid-d21dd6c9-e625-4c46-b763-aac62066a46a" d="M14.903 17.688a.626.626 0 0 0-.885.883l2.124 2.124a.624.624 0 0 0 .885 0l4.955-4.955a.626.626 0 0 0-.885-.884l-4.513 4.513-1.681-1.682Z"/>
  </g>
</svg>
