<svg id="uuid-fa58a5fb-c5e2-404e-9602-7043e58d3121" xmlns="http://www.w3.org/2000/svg" viewBox="0 0 36 36">
  <defs>
    <style>
      .uuid-26b34647-d3ee-414c-ae24-f567241ed75f{stroke-width:0}
    </style>
  </defs>
  <g id="uuid-96e5d8ee-d83c-4f71-a669-10ebcfd66b8c">
    <path class="uuid-26b34647-d3ee-414c-ae24-f567241ed75f" d="M5 31.62h26c.35 0 .62-.28.62-.62V5c0-.35-.28-.62-.62-.62H5c-.35 0-.62.28-.62.62v26c0 .35.28.62.62.62Zm.62-26h24.76v24.76H5.62V5.62Z"/>
    <path class="uuid-26b34647-d3ee-414c-ae24-f567241ed75f" d="M15 9.38H9c-.35 0-.62.28-.62.62s.28.62.62.62h6c.35 0 .62-.28.62-.62s-.28-.62-.62-.62Zm12.44.18a.637.637 0 0 0-.68-.14l-.2.14-.14.2-.04.24c0 .16.06.32.18.44l.2.14.24.05.24-.05.2-.14.14-.2.05-.24-.05-.24-.14-.2ZM15 25.38H9c-.35 0-.62.28-.62.62s.28.62.62.62h6c.35 0 .62-.28.62-.62s-.28-.62-.62-.62Zm12.44.18-.2-.14a.662.662 0 0 0-.48 0l-.2.14c-.12.12-.18.28-.18.44s.06.32.18.44l.2.14.24.05.24-.05.2-.14c.12-.11.19-.27.19-.44l-.05-.24-.14-.2ZM15 17.38H9c-.35 0-.62.28-.62.62s.28.62.62.62h6c.35 0 .62-.28.62-.62s-.28-.62-.62-.62Zm12.44.18-.2-.14a.662.662 0 0 0-.48 0l-.2.14-.14.2-.04.24c0 .16.06.32.18.44l.2.14.24.05.24-.05.2-.14c.12-.11.19-.27.19-.44l-.05-.24-.14-.2Z"/>
  </g>
</svg>
