<svg id="uuid-89c88f41-8cf3-4920-adcb-49e5d2424610" xmlns="http://www.w3.org/2000/svg" viewBox="0 0 36 36">
  <defs>
    <style>
      .uuid-ab6765c4-67fb-4b3b-a128-0cf753982161{stroke-width:0}
    </style>
  </defs>
  <g id="uuid-fa1a0325-8c70-4cc3-a7b9-1e7c367af193">
    <path class="uuid-ab6765c4-67fb-4b3b-a128-0cf753982161" d="M31 4.38H5c-.34 0-.62.28-.62.62v26c0 .35.28.62.62.62h18c.34 0 .62-.28.62-.62s-.28-.62-.62-.62H5.62V5.62h24.76V22c0 .35.28.62.62.62s.62-.28.62-.62V5c0-.35-.28-.62-.62-.62Z"/>
    <path class="uuid-ab6765c4-67fb-4b3b-a128-0cf753982161" d="M15 9.38H9c-.34 0-.62.28-.62.62s.28.62.62.62h6c.34 0 .62-.28.62-.62s-.28-.62-.62-.62Zm12 1.25.24-.05.2-.14c.12-.12.19-.28.19-.44s-.07-.32-.19-.44l-.2-.14a.652.652 0 0 0-.68.14c-.12.12-.19.28-.19.44s.07.32.19.44c.11.12.27.19.44.19ZM15 25.38H9c-.34 0-.62.28-.62.62s.28.62.62.62h6c.34 0 .62-.28.62-.62s-.28-.62-.62-.62Zm0-8H9c-.34 0-.62.28-.62.62s.28.62.62.62h6c.34 0 .62-.28.62-.62s-.28-.62-.62-.62Zm11.56 1.06c.12.12.28.19.44.19l.24-.05.2-.14c.12-.11.19-.28.19-.44s-.07-.32-.19-.44l-.2-.14a.652.652 0 0 0-.68.14c-.12.12-.19.28-.19.44s.07.33.19.44Zm4.57 5.5-3-.64h-.26l-3 .64a.63.63 0 0 0-.5.61V28c0 2 1.63 3.62 3.62 3.62s3.62-1.63 3.62-3.62v-3.45a.63.63 0 0 0-.5-.61h.02Z"/>
  </g>
</svg>
