<svg id="uuid-d3d95e06-a96c-444e-9ae5-f03ab909d592" xmlns="http://www.w3.org/2000/svg" viewBox="0 0 36 36">
  <defs>
    <style>
      .uuid-3b6734c5-0250-4d89-8813-7d2f712c4b6b{stroke-width:0}
    </style>
  </defs>
  <g id="uuid-a676bcb6-4d00-445e-a9ac-f6a86781e79b">
    <path class="uuid-3b6734c5-0250-4d89-8813-7d2f712c4b6b" d="M31 12.38H5c-.35 0-.62.28-.62.62v10c0 .35.28.62.62.62h26c.35 0 .62-.28.62-.62V13c0-.35-.28-.62-.62-.62Zm-.62 10H5.62v-8.76h24.76v8.76Z"/>
    <path class="uuid-3b6734c5-0250-4d89-8813-7d2f712c4b6b" d="M9 18.62h6c.35 0 .62-.28.62-.62s-.28-.62-.62-.62H9c-.35 0-.62.28-.62.62s.28.62.62.62Zm18 0 .24-.04.2-.14c.12-.11.19-.27.19-.44l-.05-.24-.14-.2-.2-.14a.633.633 0 0 0-.68.14l-.14.2-.04.24c0 .16.06.33.18.44.12.12.28.18.44.18Z"/>
  </g>
</svg>
