<svg id="uuid-7d701238-b636-4104-bf74-a04becb5b11d" xmlns="http://www.w3.org/2000/svg" viewBox="0 0 36 36">
  <defs>
    <style>
      .uuid-ba37d1a1-28f3-4532-81cd-605651a96581{stroke-width:0}
    </style>
  </defs>
  <g id="uuid-52aeef86-85cc-4aa8-b25f-158097ea86a2">
    <path class="uuid-ba37d1a1-28f3-4532-81cd-605651a96581" d="M23 30.38H5.62V5.62h24.76V22c0 .35.28.62.62.62s.62-.28.62-.62V5c0-.35-.28-.62-.62-.62H5c-.34 0-.62.28-.62.62v26c0 .35.28.62.62.62h18c.34 0 .62-.28.62-.62s-.28-.62-.62-.62Z"/>
    <path class="uuid-ba37d1a1-28f3-4532-81cd-605651a96581" d="M15 9.38H9c-.34 0-.62.28-.62.62s.28.62.62.62h6c.34 0 .62-.28.62-.62s-.28-.62-.62-.62Zm12.44.18a.633.633 0 0 0-.68-.14l-.2.14c-.12.12-.19.28-.19.44l.05.24.14.2.2.14.24.05c.17 0 .33-.07.44-.19l.14-.2.05-.24c0-.16-.07-.32-.19-.44ZM15 25.38H9c-.34 0-.62.28-.62.62s.28.62.62.62h6c.34 0 .62-.28.62-.62s-.28-.62-.62-.62Zm0-8H9c-.34 0-.62.28-.62.62s.28.62.62.62h6c.34 0 .62-.28.62-.62s-.28-.62-.62-.62Zm12.44.18-.2-.14a.633.633 0 0 0-.68.14l-.14.2-.05.24c0 .17.07.33.19.44.12.12.28.19.44.19s.33-.07.44-.19l.14-.2.05-.24-.05-.24-.14-.2ZM24.38 28c0 2 1.63 3.62 3.62 3.62.45 0 .88-.09 1.28-.24l-4.9-4.9V28Zm6.79 1.73c.28-.52.46-1.1.46-1.73v-3.45a.63.63 0 0 0-.5-.61l-3-.64h-.26l-2.59.55-.38-.38c-.24-.24-.64-.24-.88 0s-.24.64 0 .88l.36.36 6 6 .45.45c.12.12.28.18.44.18s.32-.06.44-.18c.24-.24.24-.64 0-.88l-.55-.55h.01Z"/>
  </g>
</svg>
