<svg id="uuid-40175a28-32c4-4e9e-a2d8-aadcd658df5f" xmlns="http://www.w3.org/2000/svg" viewBox="0 0 36 36">
  <defs>
    <style>
      .uuid-efd3d67a-912b-4bf4-96e4-b1c5e5112a28{stroke-width:0}
    </style>
  </defs>
  <g id="uuid-cfa2db54-2406-4f9a-bc96-689309eeac5f">
    <path class="uuid-efd3d67a-912b-4bf4-96e4-b1c5e5112a28" d="M5 23.62h18c.35 0 .62-.28.62-.62s-.28-.62-.62-.62H5.62v-8.76h24.76V18c0 .35.28.62.62.62s.62-.28.62-.62v-5c0-.35-.28-.62-.62-.62H5c-.35 0-.62.28-.62.62v10c0 .35.28.62.62.62Z"/>
    <path class="uuid-efd3d67a-912b-4bf4-96e4-b1c5e5112a28" d="M9 17.38c-.35 0-.62.28-.62.62s.28.62.62.62h6c.35 0 .62-.28.62-.62s-.28-.62-.62-.62H9Zm17.76.04-.2.14a.62.62 0 0 0-.18.44l.04.24.14.2.2.14.24.05c.16 0 .33-.07.44-.19l.14-.2.05-.24c0-.16-.07-.32-.19-.44a.633.633 0 0 0-.68-.14Zm5.37 2.97-3-.64h-.26l-3 .64a.63.63 0 0 0-.5.61v3.45c0 2 1.63 3.62 3.62 3.62s3.62-1.63 3.62-3.62V21a.63.63 0 0 0-.5-.61h.02Z"/>
  </g>
</svg>
