<svg id="uuid-0341c894-3b0c-4114-ac5f-cc899879b7b2" xmlns="http://www.w3.org/2000/svg" viewBox="0 0 36 36">
  <defs>
    <style>
      .uuid-1b10b6fe-0e6a-4c2f-a559-5b330b6fee4c{stroke-width:0}
    </style>
  </defs>
  <g id="uuid-d662af7d-c707-402a-9672-865e92d260c0">
    <path class="uuid-1b10b6fe-0e6a-4c2f-a559-5b330b6fee4c" d="M31 18.62c.35 0 .62-.28.62-.62v-5c0-.35-.28-.62-.62-.62H5c-.35 0-.62.28-.62.62v10c0 .35.28.62.62.62h18c.35 0 .62-.28.62-.62s-.28-.62-.62-.62H5.62v-8.76h24.76V18c0 .35.28.62.62.62Z"/>
    <path class="uuid-1b10b6fe-0e6a-4c2f-a559-5b330b6fee4c" d="M9 17.38c-.35 0-.62.28-.62.62s.28.62.62.62h6c.35 0 .62-.28.62-.62s-.28-.62-.62-.62H9Zm17.56.18c-.12.11-.18.28-.18.44 0 .17.06.33.18.44.12.12.28.19.44.19s.33-.07.44-.19c.12-.11.19-.27.19-.44 0-.16-.07-.33-.19-.44-.23-.23-.65-.24-.88 0Zm-1.19 5.38v1.52c0 2 1.63 3.62 3.62 3.62.45 0 .88-.09 1.28-.24l-4.9-4.9Zm7.34 4.68c.24-.24.24-.64 0-.88l-.55-.55c.28-.52.46-1.1.46-1.73v-3.45a.63.63 0 0 0-.5-.61l-3-.64h-.26l-2.59.55-.38-.38c-.24-.24-.64-.24-.88 0s-.24.64 0 .88l.36.36 6 6 .45.45c.12.12.28.18.44.18s.32-.06.44-.18h.01Z"/>
  </g>
</svg>
