<svg id="uuid-450b8e11-7d1c-4592-82f9-c2f5c56d333d" xmlns="http://www.w3.org/2000/svg" viewBox="0 0 36 36">
  <defs>
    <style>
      .uuid-aae836a0-c88b-49c9-9a83-f3a5a941e7ca{stroke-width:0}
    </style>
  </defs>
  <path class="uuid-aae836a0-c88b-49c9-9a83-f3a5a941e7ca" d="M28.625 13.522V13.5c0-5.03-4.094-9.125-9.125-9.125a9.125 9.125 0 0 0-8.164 5.052c-4.324-.514-7.961 2.87-7.961 7.073a7.133 7.133 0 0 0 7.125 7.125h.5a.626.626 0 0 0 0-1.25h-.5c-3.24 0-5.875-2.635-5.875-5.875s2.636-5.875 5.875-5.875c.352 0 .719.036 1.089.105a.624.624 0 0 0 .688-.365 7.876 7.876 0 0 1 7.223-4.74c4.343 0 7.875 3.533 7.875 7.875 0 .133-.01.264-.019.395l-.007.112a.625.625 0 0 0 .558.661 3.857 3.857 0 0 1 3.468 3.832 3.88 3.88 0 0 1-3.875 3.875H26a.626.626 0 0 0 0 1.25h1.5a5.13 5.13 0 0 0 5.125-5.125 5.098 5.098 0 0 0-4-4.978Z"/>
  <path class="uuid-aae836a0-c88b-49c9-9a83-f3a5a941e7ca" d="M15.624 27V17a.625.625 0 0 0-1.25 0v9.375h-1.833a2.624 2.624 0 0 0-2.542-2c-1.447 0-2.624 1.178-2.624 2.625S8.552 29.625 10 29.625c1.23 0 2.259-.855 2.541-2h2.458c.345 0 .626-.28.626-.625ZM10 28.375c-.757 0-1.375-.617-1.375-1.375s.618-1.375 1.375-1.375 1.375.617 1.375 1.375-.617 1.375-1.375 1.375Zm8.625-.917V17a.625.625 0 0 0-1.25 0v10.458a2.625 2.625 0 0 0-2 2.542c0 1.447 1.177 2.625 2.625 2.625s2.625-1.178 2.625-2.625c0-1.23-.855-2.26-2-2.542ZM18 31.375c-.758 0-1.375-.617-1.375-1.375s.617-1.375 1.375-1.375 1.375.617 1.375 1.375-.618 1.375-1.375 1.375Zm8-7c-1.231 0-2.26.855-2.542 2h-1.833V17a.625.625 0 0 0-1.25 0v10c0 .345.28.625.625.625h2.458c.282 1.145 1.31 2 2.542 2 1.447 0 2.625-1.178 2.625-2.625S27.447 24.375 26 24.375Zm0 4c-.758 0-1.375-.617-1.375-1.375s.617-1.375 1.375-1.375 1.375.617 1.375 1.375-.618 1.375-1.375 1.375Z"/>
</svg>
