<svg id="uuid-18e52ead-849a-4cb7-bbae-1f0c1d3940d7" xmlns="http://www.w3.org/2000/svg" viewBox="0 0 36 36">
  <defs>
    <style>
      .uuid-1bb7a699-3e4a-4144-94ad-5c1c96f80f78{stroke-width:0}
    </style>
  </defs>
  <g id="uuid-a3176c9f-dd09-4d63-a083-b61fbaeb1b1f">
    <path class="uuid-1bb7a699-3e4a-4144-94ad-5c1c96f80f78" d="M26 20.375a.625.625 0 0 0-.625.625v6.875H5.625V8.125h19.75V15a.625.625 0 0 0 1.25 0V7.5A.625.625 0 0 0 26 6.875H5a.625.625 0 0 0-.625.625v21c0 .345.28.625.625.625h21c.345 0 .625-.28.625-.625V21a.625.625 0 0 0-.625-.625Z"/>
    <path class="uuid-1bb7a699-3e4a-4144-94ad-5c1c96f80f78" d="M31.609 18.081a.62.62 0 0 0-.032-.32.617.617 0 0 0-.12-.182c-.007-.007-.008-.015-.014-.02l-2-2a.626.626 0 0 0-.885.883l.933.933H19a.625.625 0 0 0 0 1.25h10.49l-.933.933a.626.626 0 0 0 .885.884l2-2a.608.608 0 0 0 .151-.285.572.572 0 0 0 .015-.076Z"/>
  </g>
</svg>
