<svg xmlns="http://www.w3.org/2000/svg" viewBox="0 0 36 36">
  <path d="M5.318 24.99c.243-.142.47-.306.682-.49 1.675 1.444 4.33 1.442 6 0 1.672 1.443 4.328 1.443 6 0 1.672 1.443 4.328 1.443 6 0a4.595 4.595 0 0 0 3 1.125c1.1 0 2.163-.403 3-1.125.212.184.44.348.682.49a.624.624 0 1 0 .636-1.075 3.497 3.497 0 0 1-.847-.706.624.624 0 0 0-.942 0c-.647.741-1.57 1.166-2.53 1.166s-1.88-.425-2.528-1.166a.646.646 0 0 0-.942 0c-.647.741-1.57 1.166-2.53 1.166s-1.88-.425-2.528-1.166a.646.646 0 0 0-.942 0c-.647.741-1.57 1.166-2.53 1.166s-1.88-.425-2.528-1.166a.646.646 0 0 0-.942 0c-.647.741-1.57 1.166-2.53 1.166s-1.88-.425-2.528-1.166a.645.645 0 0 0-.942 0c-.245.28-.53.518-.847.706a.625.625 0 1 0 .636 1.076Zm26 3.925a3.497 3.497 0 0 1-.847-.706.624.624 0 0 0-.942 0c-.647.741-1.569 1.166-2.529 1.166s-1.882-.425-2.53-1.166a.646.646 0 0 0-.94 0c-.648.741-1.57 1.166-2.53 1.166s-1.882-.425-2.53-1.166a.646.646 0 0 0-.94 0c-.648.741-1.57 1.166-2.53 1.166s-1.882-.425-2.53-1.166a.646.646 0 0 0-.94 0c-.648.741-1.57 1.166-2.53 1.166s-1.882-.425-2.53-1.166a.645.645 0 0 0-.94 0c-.246.28-.531.518-.848.706a.625.625 0 1 0 .636 1.076A4.59 4.59 0 0 0 6 29.5c1.675 1.444 4.329 1.442 6 0 1.672 1.443 4.328 1.443 6 0 1.672 1.443 4.328 1.443 6 0a4.595 4.595 0 0 0 3 1.125c1.1 0 2.163-.403 3-1.125.212.184.44.348.682.49a.624.624 0 1 0 .636-1.075ZM8.012 6.062a.618.618 0 0 0 .137.33.602.602 0 0 0 .093.09c.017.013.027.032.045.044A8.847 8.847 0 0 1 12.375 14 8.895 8.895 0 0 1 9.5 20.54a.625.625 0 1 0 .846.92 10.136 10.136 0 0 0 2.918-4.835H16a.625.625 0 0 0 0-1.25h-2.48c.063-.454.106-.912.106-1.375 0-.126-.019-.249-.024-.375h1.4a.625.625 0 0 0 0-1.25H13.48a10.044 10.044 0 0 0-3.068-5.75H12c7.927 0 14.375 6.449 14.375 14.375a.625.625 0 0 0 1.25 0c0-8.615-7.01-15.625-15.625-15.625H8.625c-.021 0-.039.01-.06.012a.603.603 0 0 0-.42.227c-.014.018-.034.029-.046.048-.01.016-.011.034-.02.05a.6.6 0 0 0-.043.112.585.585 0 0 0-.026.127c-.001.017-.01.032-.01.05 0 .021.01.04.013.061Z"/>
</svg>
