<svg id="uuid-18084d15-a338-46d7-a7e8-3fef4f7944c0" xmlns="http://www.w3.org/2000/svg" viewBox="0 0 36 36">
  <defs>
    <style>
      .uuid-381e58db-2c21-4333-b203-9ba6e89d5510{stroke-width:0}
    </style>
  </defs>
  <g id="uuid-3bbe7ba5-d7a1-4066-ac7a-eb114dee0932">
    <path class="uuid-381e58db-2c21-4333-b203-9ba6e89d5510" d="M28.415 17.745a.625.625 0 0 0-.26 1.223 3.025 3.025 0 0 1 2.39 3.029 4.259 4.259 0 0 0-4.196 2.768l-3.361-.715c.129-2.077-1.264-3.998-3.36-4.444-2.096-.444-4.148.744-4.875 2.693l-6.867-1.46 2.145-10.092a1.18 1.18 0 0 1 .52-.756 1.18 1.18 0 0 1 .902-.167c.313.066.581.251.756.52.175.268.234.589.167.902l-.19.892a4.278 4.278 0 0 0 3.291 5.067 4.248 4.248 0 0 0 3.216-.596 4.246 4.246 0 0 0 1.852-2.695l.569-2.676a.624.624 0 1 0-1.223-.26l-.568 2.676a3.026 3.026 0 0 1-3.586 2.328 3.027 3.027 0 0 1-2.328-3.585l.19-.891c.136-.64.015-1.294-.342-1.843s-.905-.926-1.544-1.062a2.43 2.43 0 0 0-1.843.341 2.435 2.435 0 0 0-1.062 1.545L6.533 21.191a.624.624 0 0 0 .481.741l15.163 3.223h.001l.003.001 7.133 1.516a1.54 1.54 0 0 0 1.823-1.184l.57-2.676a4.278 4.278 0 0 0-3.292-5.067Zm-9.046 3.084a3.027 3.027 0 0 1 2.393 2.96l-5.784-1.229a3.023 3.023 0 0 1 3.391-1.731Zm10.205 4.621-2-.425a3.03 3.03 0 0 1 2.766-1.796l-.425 2a.29.29 0 0 1-.34.221Z"/>
    <path class="uuid-381e58db-2c21-4333-b203-9ba6e89d5510" d="M24.587 18.209a.625.625 0 0 0 .741-.481l.38-1.784a.625.625 0 1 0-1.223-.26l-.38 1.784a.625.625 0 0 0 .482.741Zm-2.487-1.46a.625.625 0 0 0 .741-.481l.57-2.677a.624.624 0 0 0-.481-.741.62.62 0 0 0-.742.481l-.568 2.677a.624.624 0 0 0 .48.741ZM15 25.375H7a.625.625 0 0 0 0 1.25h8a.625.625 0 0 0 0-1.25Zm2.557.185a.62.62 0 0 0-.18.44c0 .17.06.33.18.44.12.12.28.19.44.19a.636.636 0 0 0 .63-.63c0-.16-.07-.32-.18-.44a.64.64 0 0 0-.89 0ZM5 10.625h2a.625.625 0 0 0 0-1.25H5a.625.625 0 0 0 0 1.25Zm-.443 1.935c-.11.12-.18.28-.18.44a.632.632 0 0 0 .62.63c.08 0 .17-.02.24-.05a.48.48 0 0 0 .2-.14.66.66 0 0 0 .14-.2c.03-.08.05-.16.05-.24 0-.16-.07-.32-.19-.44-.23-.24-.65-.23-.88 0Z"/>
  </g>
</svg>
