<svg id="uuid-6b566d15-a03d-4152-b918-c6fd23ba5eb4" xmlns="http://www.w3.org/2000/svg" viewBox="0 0 36 36">
  <defs>
    <style>
      .uuid-90513fe8-41ea-4f4f-bb01-cb9873333a4f{stroke-width:0}
    </style>
  </defs>
  <g id="uuid-9092fcd4-c75f-4ff8-966a-c23e75a6005e">
    <path class="uuid-90513fe8-41ea-4f4f-bb01-cb9873333a4f" d="M30.373 22.857a.625.625 0 1 0-.883.885 3.023 3.023 0 0 1 .354 3.84 4.228 4.228 0 0 0-2.492-.816c-.929 0-1.804.307-2.536.852l-2.427-2.427a4.24 4.24 0 0 0-.399-5.557 4.242 4.242 0 0 0-5.557-.399l-4.963-4.963 7.296-7.296a1.198 1.198 0 1 1 1.695 1.696l-.644.644a4.244 4.244 0 0 0-1.252 3.022c0 1.14.445 2.214 1.252 3.02.807.808 1.88 1.252 3.021 1.252s2.215-.444 3.022-1.25l1.934-1.935a.626.626 0 0 0-.883-.885l-1.935 1.934c-1.143 1.142-3.133 1.143-4.275 0a3.002 3.002 0 0 1-.886-2.136 3 3 0 0 1 .887-2.138l.644-.644a2.436 2.436 0 0 0 .717-1.733c0-.653-.255-1.268-.717-1.731a2.455 2.455 0 0 0-3.463 0l-7.739 7.738a.626.626 0 0 0 0 .885l5.804 5.803v.001L24.33 28.9v.001l.002.001 1.934 1.934a1.54 1.54 0 0 0 2.173 0l1.934-1.935a4.28 4.28 0 0 0 0-6.043Zm-9.266-2.338c.571.57.885 1.329.885 2.136a3 3 0 0 1-.491 1.648l-4.175-4.175c1.16-.73 2.79-.602 3.78.39Zm6.448 9.432a.287.287 0 0 1-.406 0l-1.44-1.44a3.142 3.142 0 0 1 3.286 0l-1.44 1.44Z"/>
    <path class="uuid-90513fe8-41ea-4f4f-bb01-cb9873333a4f" d="M26.91 20.28a.625.625 0 1 0 .884.882l1.29-1.29a.625.625 0 1 0-.884-.883l-1.29 1.29Zm-1.29-2.58a.626.626 0 0 0 .884.884l1.935-1.935a.626.626 0 0 0-.884-.884l-1.935 1.934ZM9 7.625h3a.625.625 0 0 0 0-1.25H9a.625.625 0 0 0 0 1.25Zm-1 4h2a.625.625 0 0 0 0-1.25H8a.625.625 0 0 0 0 1.25Zm9.757 15.795a.66.66 0 0 0-.2.14.62.62 0 0 0-.18.44c0 .08.01.16.05.24a.625.625 0 0 0 .33.34.595.595 0 0 0 .68-.14.66.66 0 0 0 .14-.2c.03-.08.05-.16.05-.24 0-.16-.07-.32-.19-.44a.629.629 0 0 0-.68-.14ZM15 27.375h-4a.625.625 0 0 0 0 1.25h4a.625.625 0 0 0 0-1.25ZM5.447 23.56a.65.65 0 0 0-.69-.14c-.07.04-.14.08-.2.14-.06.06-.1.13-.13.2-.03.08-.05.16-.05.24 0 .17.06.33.18.44.06.06.13.11.2.14.08.03.16.05.24.05a.636.636 0 0 0 .63-.63c0-.08-.02-.16-.05-.24a.865.865 0 0 0-.13-.2ZM15 23.375H7a.625.625 0 0 0 0 1.25h8a.625.625 0 0 0 0-1.25Z"/>
  </g>
</svg>
