<svg id="uuid-b2d126be-e6a2-400a-947e-fd2673a154cd" xmlns="http://www.w3.org/2000/svg" viewBox="0 0 36 36">
  <defs>
    <style>
      .uuid-45cfae82-88ba-4f13-bc7f-34c60d9470b0{stroke-width:0}
    </style>
  </defs>
  <g id="uuid-237c5a96-96eb-47cb-ba82-a58267cd16d8">
    <path class="uuid-45cfae82-88ba-4f13-bc7f-34c60d9470b0" d="M27 17.375a.625.625 0 0 0 0 1.25 3.372 3.372 0 0 1 3.319 2.819 4.608 4.608 0 0 0-3.881 3.931h-3.876c-.31-2.252-2.226-4-4.562-4s-4.253 1.748-4.562 4H5.625V14c0-.758.617-1.375 1.375-1.375s1.375.617 1.375 1.375v1c0 2.55 2.075 4.625 4.625 4.625S17.625 17.55 17.625 15v-3a.625.625 0 0 0-1.25 0v3c0 1.861-1.514 3.375-3.375 3.375S9.625 16.861 9.625 15v-1c0-1.447-1.178-2.625-2.625-2.625S4.375 12.553 4.375 14v12c0 .345.28.625.625.625h25c.896 0 1.625-.729 1.625-1.625v-3A4.63 4.63 0 0 0 27 17.375Zm-9 5.25a3.377 3.377 0 0 1 3.312 2.75h-6.624A3.377 3.377 0 0 1 18 22.625Zm12 2.75h-2.312a3.377 3.377 0 0 1 2.687-2.687V25a.375.375 0 0 1-.375.375Z"/>
    <path class="uuid-45cfae82-88ba-4f13-bc7f-34c60d9470b0" d="M23 18.625c.345 0 .625-.28.625-.625v-2a.625.625 0 0 0-1.25 0v2c0 .345.28.625.625.625Zm-3-1c.345 0 .625-.28.625-.625v-3a.625.625 0 0 0-1.25 0v3c0 .345.28.625.625.625Z"/>
  </g>
</svg>
