<svg id="uuid-f8c3eb03-3618-448e-9632-cfb328933119" xmlns="http://www.w3.org/2000/svg" viewBox="0 0 36 36">
  <defs>
    <style>
      .uuid-5f3ebf7d-8bae-4e1b-86af-b2054b72eee0{stroke-width:0}
    </style>
  </defs>
  <path class="uuid-5f3ebf7d-8bae-4e1b-86af-b2054b72eee0" d="M21.5 20.38c-.35 0-.62.28-.62.62v10c0 .35.28.62.62.62s.62-.28.62-.62V21c0-.35-.28-.62-.62-.62Zm5 0c-.35 0-.62.28-.62.62v10c0 .35.28.62.62.62s.62-.28.62-.62V21c0-.35-.28-.62-.62-.62Zm-10 0c-.35 0-.62.28-.62.62v10c0 .35.28.62.62.62s.62-.28.62-.62V21c0-.35-.28-.62-.62-.62Z"/>
  <path class="uuid-5f3ebf7d-8bae-4e1b-86af-b2054b72eee0" d="M21.5 8.38c-.31 0-.62.02-.92.05A9.119 9.119 0 0 0 13 4.38c-4.81 0-8.75 3.74-9.09 8.46-.02.05-.03.11-.03.17V31c0 .35.28.62.62.62s.62-.28.62-.62V13.5c0-4.34 3.53-7.88 7.88-7.88 2.52 0 4.76 1.19 6.2 3.04-4.2 1.03-7.33 4.82-7.33 9.34 0 .35.28.62.62.62H30.5c.35 0 .62-.28.62-.62 0-5.31-4.32-9.62-9.62-9.62Zm0 1.25c4.41 0 8.03 3.42 8.35 7.75h-16.7c.28-3.8 3.11-6.9 6.79-7.6.43-.08.87-.12 1.32-.14.08 0 .16-.01.24-.01Z"/>
</svg>
