<svg xmlns="http://www.w3.org/2000/svg" viewBox="0 0 36 36">
  <path d="M31.625 18.001v-.002a.626.626 0 0 0-.183-.442l-3-3a.625.625 0 0 0-.884.885l1.935 1.934h-2.488L27 17.375h-4c-3.151 0-5.902-2.004-6.932-4.929 1.476-.459 2.557-1.821 2.557-3.446 0-1.999-1.626-3.625-3.625-3.625S11.375 7.001 11.375 9c0 1.924 1.511 3.488 3.407 3.603a8.597 8.597 0 0 0 3.757 4.773h-6.977A3.624 3.624 0 0 0 8 14.375c-1.999 0-3.625 1.626-3.625 3.625S6.001 21.625 8 21.625a3.624 3.624 0 0 0 3.562-2.999h6.973a8.598 8.598 0 0 0-3.753 4.771c-1.896.116-3.407 1.679-3.407 3.603 0 2 1.626 3.625 3.625 3.625S18.625 29 18.625 27c0-1.625-1.081-2.987-2.557-3.446a7.353 7.353 0 0 1 6.92-4.928h6.502l-1.932 1.933a.625.625 0 1 0 .884.883l2.993-2.994a.63.63 0 0 0 .142-.21c.014-.032.013-.07.021-.104.01-.044.027-.086.027-.133ZM12.625 9c0-1.31 1.065-2.375 2.375-2.375S17.375 7.69 17.375 9 16.31 11.375 15 11.375 12.625 10.31 12.625 9Zm4.75 18c0 1.31-1.065 2.375-2.375 2.375S12.625 28.31 12.625 27 13.69 24.625 15 24.625 17.375 25.69 17.375 27ZM8 20.375c-1.31 0-2.375-1.065-2.375-2.375S6.69 15.625 8 15.625 10.375 16.69 10.375 18 9.31 20.375 8 20.375Z"/>
</svg>
