<svg id="uuid-e68f1b2d-1651-4815-98f9-a9b74866dfac" xmlns="http://www.w3.org/2000/svg" viewBox="0 0 36 36">
  <defs>
    <style>
      .uuid-2bc4ace4-dcce-4a83-bf4f-863266e7bf5e{stroke-width:0}
    </style>
  </defs>
  <g id="uuid-208ed5e0-c077-4482-95df-07b49a93f3b5">
    <path class="uuid-2bc4ace4-dcce-4a83-bf4f-863266e7bf5e" d="M31 29.375h-7.458a2.624 2.624 0 0 0-2.542-2c-1.447 0-2.625 1.178-2.625 2.625s1.178 2.625 2.625 2.625c1.231 0 2.26-.855 2.542-2h2.833V32a.625.625 0 0 0 1.25 0v-1.375h.75V32a.625.625 0 0 0 1.25 0v-1.375h.75V31a.625.625 0 0 0 1.25 0v-1a.625.625 0 0 0-.625-.625Z"/>
    <path class="uuid-2bc4ace4-dcce-4a83-bf4f-863266e7bf5e" d="M18 18.625a12.34 12.34 0 0 1 11.778 8.567.625.625 0 1 0 1.19-.384 13.576 13.576 0 0 0-9.628-9.018 7.13 7.13 0 0 0 3.785-6.29c0-3.929-3.196-7.125-7.125-7.125s-7.125 3.196-7.125 7.125a7.129 7.129 0 0 0 3.808 6.3C8.771 19.288 4.375 24.633 4.375 31c0 .345.28.625.625.625h11a.625.625 0 0 0 0-1.25H5.641c.326-6.535 5.745-11.75 12.36-11.75ZM12.125 11.5c0-3.24 2.636-5.875 5.875-5.875s5.875 2.636 5.875 5.875S21.24 17.375 18 17.375s-5.875-2.636-5.875-5.875Z"/>
  </g>
</svg>
