<svg id="uuid-d664ee38-d475-4b13-b8d4-815851fe5454" xmlns="http://www.w3.org/2000/svg" viewBox="0 0 36 36">
  <defs>
    <style>
      .uuid-1e914142-653f-464f-9a21-f6b548461498{stroke-width:0}
    </style>
  </defs>
  <g id="uuid-444310f4-1f70-432f-b09b-527029be606a">
    <path class="uuid-1e914142-653f-464f-9a21-f6b548461498" d="m22.58 9.43-.97-4.56-.02-.05-.05-.11-.07-.1-.08-.08-.1-.07-.11-.04-.12-.02H21l-6-.01h-.06l-.12.04-.11.04-.1.07-.09.08-.06.1-.05.12-.02.05-.97 4.56a3.624 3.624 0 0 0-3.04 3.57v10c0 1.8 1.32 3.29 3.04 3.57l.97 4.56.03.06.04.09.08.11.06.07.12.08.07.04.23.05h6l.23-.05.07-.04.12-.08.06-.07.08-.11.04-.09.03-.06.97-4.56a3.624 3.624 0 0 0 3.04-3.57V13c0-1.8-1.32-3.29-3.04-3.57h-.04ZM15.5 5.62h4.99l.8 3.75h-6.58l.8-3.75h-.01Zm4.99 24.75H15.5l-.8-3.75h6.58l-.8 3.75h.01Zm3.88-7.38c0 1.31-1.07 2.38-2.38 2.38H14c-1.31 0-2.38-1.07-2.38-2.38V13c0-1.31 1.07-2.38 2.38-2.38h8c1.31 0 2.38 1.07 2.38 2.38v10l-.01-.01ZM27 14.38c-.34 0-.62.28-.62.62v3c0 .35.28.62.62.62s.62-.28.62-.62v-3c0-.35-.28-.62-.62-.62Z"/>
    <path class="uuid-1e914142-653f-464f-9a21-f6b548461498" d="M18.01 20.37c-.35.01-.63.29-.62.63 0 .35.27.62.62.62s.63-.28.62-.62c0-.35-.28-.63-.62-.63Zm2.98-3.03c-.34 0-.62.29-.61.63V18c0 .35.28.62.62.62s.63-.27.63-.62v-.04c0-.35-.29-.62-.64-.62Zm-.89-.86a.63.63 0 0 0 .45-1.07.63.63 0 0 0-.89.01c-.24.25-.24.64.01.88.12.12.28.18.44.18h-.01Zm-4.66 3.21c-.24.25-.24.64.01.88.12.13.28.19.44.19a.631.631 0 0 0 .44-1.07.63.63 0 0 0-.89 0Zm.19-1.68c0-.34-.29-.62-.63-.62a.625.625 0 0 0 0 1.25c.34 0 .63-.28.63-.63Zm2.35-2.38c.34-.01.62-.29.62-.64s-.29-.62-.63-.61c-.35 0-.62.28-.62.63s.28.62.63.62Zm-2.12.89c.17 0 .33-.06.45-.19.24-.24.24-.64 0-.88s-.64-.24-.88.01c-.24.24-.24.64 0 .88.13.12.28.18.44.18h-.01Zm3.82 3.16c-.24.24-.24.64 0 .88.13.12.29.18.45.18.15 0 .31-.06.44-.18a.64.64 0 0 0 0-.89.64.64 0 0 0-.89 0v.01Z"/>
  </g>
</svg>
