<svg id="uuid-a9b634cb-8e0d-4f6e-9669-903a306763db" xmlns="http://www.w3.org/2000/svg" viewBox="0 0 36 36">
  <defs>
    <style>
      .uuid-004ddd47-3d5b-4d6c-833f-b7c4517d48af{stroke-width:0}
    </style>
  </defs>
  <g id="uuid-cfbcad9d-c389-47e0-bca3-542a0f8ae103">
    <path class="uuid-004ddd47-3d5b-4d6c-833f-b7c4517d48af" d="M18 14.88c-1.72 0-3.12 1.4-3.12 3.12s1.4 3.12 3.12 3.12 3.12-1.4 3.12-3.12-1.4-3.12-3.12-3.12Zm0 5c-1.03 0-1.88-.84-1.88-1.88s.84-1.88 1.88-1.88 1.88.84 1.88 1.88-.84 1.88-1.88 1.88Z"/>
    <path class="uuid-004ddd47-3d5b-4d6c-833f-b7c4517d48af" d="M27.44 4.56a.628.628 0 0 0-.88 0L20 11.12l-2.14-2.14a2.632 2.632 0 0 0-3.71 0l-.52.52V7.01c0-.25-.15-.48-.39-.58-.23-.1-.5-.04-.68.13l-6 6c-.18.18-.23.45-.13.68s.32.39.58.39H9.5l-.52.52a2.632 2.632 0 0 0 0 3.71L11.12 20l-6.56 6.56c-.24.24-.24.64 0 .88l4 4c.12.12.28.18.44.18s.32-.06.44-.18L16 24.88l2.56 2.56c.12.12.28.18.44.18h8c.34 0 .62-.28.62-.62v-8c0-.17-.07-.33-.18-.44L24.88 16l6.56-6.56c.24-.24.24-.64 0-.88l-4-4ZM8.51 12.38l3.87-3.87v2.23l-1.63 1.63H8.52l-.01.01ZM9 30.12 5.88 27l2.62-2.62 3.12 3.12L9 30.12Zm3.5-3.5L9.38 23.5 12 20.88 15.12 24l-2.62 2.62Zm13.87-7.36v7.12h-7.12l-2.82-2.82-4-4-2.59-2.59c-.26-.26-.4-.6-.4-.97s.14-.71.4-.97l5.17-5.17c.52-.52 1.42-.52 1.94 0l2.59 2.59 4 4 2.82 2.82.01-.01ZM24 15.12 20.88 12l2.62-2.62 3.12 3.12L24 15.12Zm3.5-3.5L24.38 8.5 27 5.88 30.12 9l-2.62 2.62Z"/>
  </g>
</svg>
