<svg id="uuid-28d6fdab-b0f7-4814-8023-edbf7d378075" xmlns="http://www.w3.org/2000/svg" viewBox="0 0 36 36">
  <defs>
    <style>
      .uuid-1d997027-be8c-4b87-864f-7008932f18cd{stroke-width:0}
    </style>
  </defs>
  <g id="uuid-0b3d12f7-c4f4-43e2-9920-534cfd65aa18">
    <path class="uuid-1d997027-be8c-4b87-864f-7008932f18cd" d="m24.63 10.48-5.05 5.05c-.47-.31-1.04-.49-1.64-.49-1.67 0-3.02 1.36-3.02 3.02s1.36 3.02 3.02 3.02 3.02-1.36 3.02-3.02c0-.61-.18-1.17-.49-1.64l5.05-5.05c.24-.24.24-.64 0-.88s-.64-.24-.88 0l-.01-.01Zm-6.7 9.35c-.98 0-1.77-.79-1.77-1.77s.79-1.77 1.77-1.77 1.77.79 1.77 1.77-.79 1.77-1.77 1.77Z"/>
    <path class="uuid-1d997027-be8c-4b87-864f-7008932f18cd" d="M18 3.36C9.93 3.36 3.36 9.93 3.36 18S9.93 32.64 18 32.64 32.64 26.07 32.64 18 26.07 3.36 18 3.36Zm0 28.04c-7.38 0-13.39-6.01-13.39-13.39S10.62 4.61 18 4.61 31.39 10.62 31.39 18 25.38 31.39 18 31.39v.01Z"/>
    <path class="uuid-1d997027-be8c-4b87-864f-7008932f18cd" d="M17.56 8.44c.11.12.27.19.44.19s.33-.07.44-.19c.06-.06.11-.12.14-.2.03-.08.05-.16.05-.24 0-.16-.07-.32-.19-.44a.652.652 0 0 0-.68-.14c-.07.04-.14.08-.2.14-.12.12-.19.28-.19.44 0 .08.02.16.05.24.04.08.08.14.14.2ZM11.63 11c0-.16-.07-.33-.19-.44a.647.647 0 0 0-.88 0 .66.66 0 0 0-.14.2c-.03.08-.05.16-.05.24s.02.16.05.24c.03.07.08.14.14.2.12.12.28.19.44.19.17 0 .33-.07.44-.19.12-.11.19-.27.19-.44Zm-4.07 6.56a.66.66 0 0 0-.14.2c-.03.08-.05.16-.05.24s.02.16.05.24c.03.07.08.14.14.2.12.12.28.19.44.19.17 0 .33-.07.44-.19.12-.11.19-.27.19-.44 0-.16-.07-.33-.19-.44-.22-.23-.65-.23-.88 0Zm20.88 0a.633.633 0 0 0-.68-.14c-.07.04-.14.08-.2.14-.12.11-.18.27-.18.44 0 .08 0 .16.04.24a.718.718 0 0 0 .34.34.597.597 0 0 0 .68-.14c.06-.06.11-.12.14-.2a.597.597 0 0 0-.14-.68Zm-6.21 5.82h-9a2.121 2.121 0 0 0 0 4.24h9a2.121 2.121 0 0 0 0-4.24Zm0 3h-9c-.48 0-.88-.39-.88-.88s.39-.88.88-.88h9c.48 0 .88.39.88.88s-.39.88-.88.88Z"/>
  </g>
</svg>
