<svg id="uuid-8cdbe027-9ad6-4cba-9503-b81a2df73096" xmlns="http://www.w3.org/2000/svg" viewBox="0 0 36 36">
  <defs>
    <style>
      .uuid-3c592be0-1a83-4226-9ecf-91dac5a51815{stroke-width:0}
    </style>
  </defs>
  <g id="uuid-2c4ea08f-8161-4a14-8412-ec37d407ce11">
    <path class="uuid-3c592be0-1a83-4226-9ecf-91dac5a51815" d="m29.442 8.558-4-4A.625.625 0 0 0 25 4.375h-9a.626.626 0 0 0-.625.625v4c0 .345.28.625.625.625h2.238l-.477 2.245a.625.625 0 1 0 1.222.26l.532-2.505H29a.624.624 0 0 0 .442-1.067Zm-12.817-.183v-2.75h8.116l2.75 2.75H16.625Z"/>
    <path class="uuid-3c592be0-1a83-4226-9ecf-91dac5a51815" d="m27.611 20.575-.986-4.64V11a.626.626 0 0 0-.625-.625h-4a.626.626 0 0 0-.625.625v4.741l-5.817 5.817a.625.625 0 0 0-.183.442v9c0 .345.28.625.625.625h11c.345 0 .625-.28.625-.625V20.705c0-.023-.01-.042-.013-.064-.002-.022.004-.043 0-.066Zm-10.986 9.8v-8.116l5.817-5.817a.625.625 0 0 0 .183-.442v-4.375h2.75V16c0 .023.01.042.013.065.002.022-.004.043 0 .065l.987 4.64v9.605h-9.75ZM9.625 7A.626.626 0 0 0 9 6.375H7a.626.626 0 0 0 0 1.25h2c.345 0 .625-.28.625-.625Zm3.505-1.824-3.89-.827c-.338-.076-.67.143-.742.481s.144.67.481.741l3.891.827a.625.625 0 0 0 .26-1.223Zm-.26 2.414-3.945.839a.624.624 0 1 0 .26 1.222l3.945-.839a.624.624 0 1 0-.26-1.222Z"/>
  </g>
</svg>
