<svg xmlns="http://www.w3.org/2000/svg" viewBox="0 0 36 36">
  <path d="m15.74 12.62 1.82 1.82c.12.12.28.18.44.18s.32-.06.44-.18l1.82-1.82H24c.35 0 .62-.28.62-.62V6c0-.35-.28-.62-.62-.62H12c-.35 0-.62.28-.62.62v6c0 .35.28.62.62.62h3.74Zm-3.12-6h10.75v4.75h-3.38c-.17 0-.32.07-.44.18l-1.56 1.56-1.56-1.56a.62.62 0 0 0-.44-.18h-3.38V6.62h.01Zm15.97 18.71c.67-.59 1.11-1.44 1.11-2.4 0-1.76-1.43-3.2-3.2-3.2s-3.2 1.43-3.2 3.2c0 .96.44 1.81 1.11 2.4-.37.17-.71.39-1.03.63a5.505 5.505 0 0 0-3.26-4.02c.66-.59 1.08-1.43 1.08-2.37 0-1.76-1.43-3.2-3.2-3.2s-3.2 1.43-3.2 3.2c0 .95.42 1.79 1.08 2.37-1.66.7-2.91 2.2-3.26 4.02-.32-.25-.66-.47-1.03-.63.67-.59 1.11-1.44 1.11-2.4 0-1.76-1.43-3.2-3.2-3.2s-3.2 1.43-3.2 3.2c0 .96.44 1.81 1.11 2.4A5.12 5.12 0 0 0 4.37 30c0 .35.28.62.62.62H31c.35 0 .62-.28.62-.62a5.12 5.12 0 0 0-3.04-4.67h.01Zm-4.03-2.4c0-1.07.87-1.95 1.95-1.95s1.95.87 1.95 1.95-.87 1.95-1.95 1.95-1.95-.87-1.95-1.95Zm1.95 3.2c1.92 0 3.51 1.41 3.81 3.25H22.7c.3-1.84 1.89-3.25 3.81-3.25Zm-10.45-6.55c0-1.07.87-1.95 1.95-1.95s1.95.87 1.95 1.95-.87 1.95-1.95 1.95-1.95-.87-1.95-1.95Zm1.95 3.2c2.33 0 4.23 1.9 4.23 4.23v.17c-.43.65-.69 1.4-.79 2.2h-6.88c-.1-.8-.36-1.56-.79-2.2v-.17c0-2.33 1.9-4.23 4.23-4.23Zm-10.45.16c0-1.07.87-1.95 1.95-1.95s1.95.87 1.95 1.95-.87 1.95-1.95 1.95-1.95-.87-1.95-1.95Zm1.95 3.2c1.92 0 3.51 1.41 3.81 3.25H5.69c.3-1.84 1.89-3.25 3.81-3.25h.01Z"/>
</svg>
