<svg id="uuid-a29b840f-055c-4130-ac4c-dcf2cb41b640" xmlns="http://www.w3.org/2000/svg" viewBox="0 0 36 36">
  <defs>
    <style>
      .uuid-f719dfa2-3d62-4f01-add3-32d27ccd1651{stroke-width:0}
    </style>
  </defs>
  <g id="uuid-e86c4c8d-d450-40ba-bbf2-753e9e7d9ea9">
    <path class="uuid-f719dfa2-3d62-4f01-add3-32d27ccd1651" d="M31 28.375h-2.375V15a.625.625 0 0 0-1.25 0v13.375h-3.75V18a.625.625 0 0 0-1.25 0v10.375h-3.75V19a.625.625 0 0 0-1.25 0v9.375h-3.75V23a.625.625 0 0 0-1.25 0v5.375h-3.75V19a.625.625 0 0 0-1.25 0v9.375H5a.625.625 0 0 0 0 1.25h26a.625.625 0 0 0 0-1.25Z"/>
    <path class="uuid-f719dfa2-3d62-4f01-add3-32d27ccd1651" d="M31.577 6.76a.62.62 0 0 0-.113-.168c-.009-.011-.012-.024-.022-.034-.016-.017-.038-.023-.055-.037a.661.661 0 0 0-.147-.098.623.623 0 0 0-.242-.048H28a.625.625 0 0 0 0 1.25h1.49L24 13.116l-2.558-2.558a.625.625 0 0 0-.884 0L14 17.116l-4.558-4.558a.625.625 0 0 0-.884 0l-4 4a.626.626 0 0 0 .884.884L9 13.884l4.558 4.558a.622.622 0 0 0 .884 0L21 11.884l2.558 2.558c.244.244.64.244.884 0l5.933-5.933V10a.625.625 0 0 0 1.25 0V7a.626.626 0 0 0-.048-.24Z"/>
  </g>
</svg>
