<svg id="uuid-205910af-e792-4a65-bde3-34918f4c425a" xmlns="http://www.w3.org/2000/svg" viewBox="0 0 36 36">
  <defs>
    <style>
      .uuid-282a2f47-cb21-4815-ae14-58033aa6fd5f{stroke-width:0}
    </style>
  </defs>
  <g id="uuid-070cd92d-f756-4179-b74a-aa1ebbca7b7a">
    <path class="uuid-282a2f47-cb21-4815-ae14-58033aa6fd5f" d="M27.558 19.44c.06.06.13.11.199.14.08.03.16.05.24.05a.62.62 0 0 0 .44-.19.49.49 0 0 0 .14-.2c.03-.08.05-.16.05-.24s-.02-.16-.05-.24a.678.678 0 0 0-.14-.2.487.487 0 0 0-.2-.14.659.659 0 0 0-.48 0 .628.628 0 0 0-.33.34c-.04.08-.05.16-.05.24s.01.16.05.24c.03.08.07.15.13.2Zm-9.321 8.98a.659.659 0 0 0-.48 0 .66.66 0 0 0-.2.14c-.12.12-.18.28-.18.44s.06.33.18.44c.06.06.13.11.2.14.08.03.16.05.24.05a.62.62 0 0 0 .44-.19c.12-.12.19-.28.19-.44s-.07-.32-.19-.44a.487.487 0 0 0-.2-.14ZM7.558 18.64c-.12.12-.181.27-.181.44s.06.32.18.44c.06.06.13.11.2.14.08.03.16.04.24.04.17 0 .33-.06.45-.18.11-.12.18-.27.18-.44s-.07-.32-.18-.44c-.24-.24-.66-.24-.89 0Zm3.199 6.78c-.07.04-.14.08-.2.14a.622.622 0 0 0 0 .88c.06.06.13.11.2.14a.598.598 0 0 0 .68-.14c.06-.05.11-.13.14-.2.03-.08.05-.16.05-.24a.63.63 0 0 0-.19-.44.634.634 0 0 0-.68-.14Zm14 0c-.07.04-.14.08-.2.14a.62.62 0 0 0-.18.44c0 .17.06.33.18.44.06.06.13.11.2.14.08.03.16.05.24.05a.628.628 0 0 0 .63-.63c0-.16-.07-.32-.18-.44a.654.654 0 0 0-.69-.14Zm.68-13.86a.487.487 0 0 0-.2-.14.659.659 0 0 0-.48 0 .628.628 0 0 0-.33.34.625.625 0 0 0 .13.68c.06.06.13.11.2.14.08.03.16.05.24.05a.62.62 0 0 0 .44-.19.597.597 0 0 0 .14-.68.678.678 0 0 0-.14-.2Zm-14 0a.487.487 0 0 0-.2-.14c-.23-.1-.5-.04-.68.14-.06.06-.1.13-.14.2-.03.08-.04.16-.04.24s.01.16.04.24c.04.07.08.15.14.2.12.12.28.19.44.19a.62.62 0 0 0 .44-.19c.06-.05.11-.13.14-.2.03-.08.05-.16.05-.24s-.02-.16-.05-.24a.678.678 0 0 0-.14-.2Z"/>
    <path class="uuid-282a2f47-cb21-4815-ae14-58033aa6fd5f" d="m20.74 32.348.027-.007a13.53 13.53 0 0 0 6.868-3.706 13.531 13.531 0 0 0 3.706-6.868l.007-.027c.078-.384.134-.774.179-1.167.007-.065.021-.127.028-.192a13.872 13.872 0 0 0 0-2.762c-.007-.065-.02-.128-.028-.192a13.68 13.68 0 0 0-.179-1.167l-.007-.027a13.501 13.501 0 0 0-3.286-6.404l.551-.55.972.97a.623.623 0 0 0 .885 0 .628.628 0 0 0 0-.884l-2.828-2.828a.626.626 0 0 0-.885.885l.972.972-.551.55a13.501 13.501 0 0 0-6.404-3.286c-.01-.001-.018-.004-.027-.006a13.636 13.636 0 0 0-1.167-.179c-.065-.007-.127-.021-.192-.028-.25-.025-.504-.028-.756-.04v-.78H20a.626.626 0 0 0 0-1.25h-4a.626.626 0 0 0 0 1.25h1.375v.78c-.252.012-.506.015-.756.04-.065.006-.127.02-.192.028-.393.045-.783.1-1.167.179l-.027.007a13.53 13.53 0 0 0-6.868 3.706 13.531 13.531 0 0 0-3.707 6.868c-.001.01-.004.018-.006.027a13.68 13.68 0 0 0-.179 1.167c-.007.065-.022.127-.028.192a13.872 13.872 0 0 0 0 2.762c.006.065.02.127.028.192.045.393.1.783.179 1.167l.006.027a13.53 13.53 0 0 0 3.707 6.868 13.531 13.531 0 0 0 6.868 3.706l.027.007c.384.078.774.134 1.167.179.065.007.127.021.192.028a13.872 13.872 0 0 0 2.762 0c.065-.006.127-.02.192-.028.393-.045.783-.1 1.167-.179Zm-.251-1.225c-.347.071-.701.12-1.058.162-.06.007-.117.02-.177.026a12.465 12.465 0 0 1-2.508 0c-.06-.006-.118-.019-.178-.026-.356-.041-.71-.09-1.057-.162-.009-.001-.018-.004-.026-.006a12.412 12.412 0 0 1-9.602-9.602l-.007-.026c-.07-.347-.12-.7-.161-1.057-.007-.06-.02-.118-.027-.178a12.465 12.465 0 0 1 0-2.508c.006-.06.02-.118.027-.177.04-.357.09-.711.161-1.058l.007-.024a12.412 12.412 0 0 1 9.609-9.606c.006 0 .012-.003.018-.004.348-.071.703-.121 1.06-.162.06-.007.117-.02.176-.026a12.465 12.465 0 0 1 2.508 0c.06.006.117.019.175.026.358.041.713.09 1.06.162l.017.004a12.412 12.412 0 0 1 9.613 9.613l.004.017c.072.347.121.702.162 1.06.007.059.02.116.026.175a12.465 12.465 0 0 1 0 2.508c-.006.06-.019.117-.026.176-.04.357-.09.712-.162 1.06l-.004.018a12.412 12.412 0 0 1-9.606 9.61l-.024.006Z"/>
    <path class="uuid-282a2f47-cb21-4815-ae14-58033aa6fd5f" d="M20.486 20.567c.287-.455.46-.99.46-1.567a2.95 2.95 0 0 0-2.321-2.877V9a.626.626 0 0 0-1.25 0v7.123A2.949 2.949 0 0 0 15.054 19 2.95 2.95 0 0 0 18 21.946c.595 0 1.148-.18 1.612-.485l1.656 1.69a.622.622 0 0 0 .884.01.625.625 0 0 0 .009-.885l-1.675-1.71ZM16.304 19a1.697 1.697 0 1 1 3.39.002 1.697 1.697 0 0 1-3.39-.002Z"/>
  </g>
</svg>
