<svg xmlns="http://www.w3.org/2000/svg" viewBox="0 0 36 36">
  <path d="M18 4.35C10.35 4.35 4.35 7.71 4.35 12v12c0 4.29 6 7.65 13.65 7.65S31.65 28.29 31.65 24V12c0-4.29-6-7.65-13.65-7.65ZM6.31 16c.16.15.33.3.51.43.17.14.35.28.53.4 2.48 1.73 6.3 2.82 10.65 2.82s8.17-1.09 10.65-2.82c.18-.12.36-.26.53-.4.18-.13.35-.28.51-.43.22-.2.42-.41.6-.63a3.36 3.36 0 0 1 0 1.26c-.05.25-.13.49-.25.73-.09.22-.2.43-.34.64-1.68 2.5-6.35 4.35-11.7 4.35S7.98 20.5 6.3 18c-.14-.21-.25-.42-.34-.64-.12-.24-.2-.48-.25-.73a3.36 3.36 0 0 1 0-1.26c.18.22.38.43.6.63Zm-.6 3.37c2.18 2.56 6.81 4.28 12.29 4.28s10.11-1.72 12.29-4.28c.04.21.06.42.06.63 0 3.44-5.65 6.35-12.35 6.35S5.65 23.44 5.65 20c0-.21.02-.42.06-.63ZM30.35 24c0 3.44-5.65 6.35-12.35 6.35S5.65 27.44 5.65 24v-.7c2.16 2.6 6.82 4.35 12.35 4.35s10.19-1.75 12.35-4.35v.7Zm-.06-11.37c-.05.25-.13.49-.25.73-.09.22-.2.43-.34.64-.28.41-.63.8-1.05 1.17-.17.14-.35.29-.55.43-.18.14-.38.27-.59.4-2.28 1.42-5.73 2.35-9.51 2.35s-7.23-.93-9.51-2.35c-.21-.13-.41-.26-.59-.4-.2-.14-.38-.29-.55-.43-.42-.37-.77-.76-1.05-1.17-.14-.21-.25-.42-.34-.64-.12-.24-.2-.48-.25-.73a3.36 3.36 0 0 1-.06-.63c0-3.44 5.65-6.35 12.35-6.35S30.35 8.56 30.35 12c0 .21-.02.42-.06.63Z"/>
</svg>
