<svg xmlns="http://www.w3.org/2000/svg" viewBox="0 0 36 36">
  <path d="M18 24.62c3.65 0 6.62-2.97 6.62-6.62s-2.97-6.62-6.62-6.62-6.62 2.97-6.62 6.62 2.97 6.62 6.62 6.62Zm0-12c2.96 0 5.38 2.41 5.38 5.38s-2.41 5.38-5.38 5.38-5.38-2.41-5.38-5.38 2.41-5.38 5.38-5.38Zm0-3.69c.34 0 .62-.28.62-.62V4c0-.34-.28-.62-.62-.62s-.62.28-.62.62v4.31c0 .34.28.62.62.62Zm0 18.14c-.34 0-.62.28-.62.62V32c0 .34.28.62.62.62s.62-.28.62-.62v-4.31c0-.34-.28-.62-.62-.62Zm14-9.69h-4.31c-.34 0-.62.28-.62.62s.28.62.62.62H32c.34 0 .62-.28.62-.62s-.28-.62-.62-.62ZM8.93 18c0-.34-.28-.62-.62-.62H4c-.34 0-.62.28-.62.62s.28.62.62.62h4.31c.34 0 .62-.28.62-.62Zm15.92-6.23c.16 0 .32-.06.44-.18l3.05-3.05c.24-.24.24-.64 0-.88a.628.628 0 0 0-.88 0l-3.05 3.05c-.24.24-.24.64 0 .88.12.12.28.18.44.18ZM11.59 25.3c.24-.24.24-.64 0-.88s-.64-.24-.88 0l-3.05 3.05c-.24.24-.24.64 0 .88.12.12.28.18.44.18s.32-.06.44-.18l3.05-3.05Zm16.75 3.04c.24-.24.24-.64 0-.88l-3.05-3.05c-.24-.24-.64-.24-.88 0s-.24.64 0 .88l3.05 3.05c.12.12.28.18.44.18s.32-.06.44-.18ZM10.7 11.59c.12.12.28.18.44.18s.32-.06.44-.18c.24-.24.24-.64 0-.88L8.53 7.66a.628.628 0 0 0-.88 0c-.24.24-.24.64 0 .88l3.05 3.05Z"/>
</svg>
