<svg xmlns="http://www.w3.org/2000/svg" viewBox="0 0 36 36">
  <path d="M31 11.375h-6.375V5A.626.626 0 0 0 24 4.375H5A.626.626 0 0 0 4.375 5v19c0 .345.28.625.625.625h6.375V31c0 .345.28.625.625.625h19c.345 0 .625-.28.625-.625V12a.626.626 0 0 0-.625-.625Zm-12.74 12-5.635-5.635v-4.23l9.865 9.865h-4.23Zm-5.635-3.865 3.865 3.865h-3.865V19.51Zm.885-6.885h4.23l5.635 5.635v4.23l-9.865-9.865Zm9.865 3.865-3.865-3.865h3.865v3.865Zm-17.75 6.885V5.625h17.75v5.75H12.002a.626.626 0 0 0-.243.049c-.04.017-.072.047-.108.072-.03.021-.066.034-.093.062-.022.022-.032.05-.05.075-.03.04-.065.08-.085.128a.624.624 0 0 0-.042.211c0 .01-.006.018-.006.028v11.375h-5.75Zm24.75 7h-17.75v-5.75H24a.628.628 0 0 0 .24-.049c.044-.018.08-.05.118-.078.028-.02.06-.03.084-.056.023-.022.032-.05.05-.075.03-.04.065-.08.085-.128a.624.624 0 0 0 .042-.211c.001-.01.006-.018.006-.028V12.625h5.75v17.75Z"/>
</svg>
