<svg xmlns="http://www.w3.org/2000/svg" viewBox="0 0 36 36">
  <path d="M7.5 14.38h-1c-1.17 0-2.12.95-2.12 2.12v5c0 1.17.95 2.12 2.12 2.12h1c1.17 0 2.12-.95 2.12-2.12v-5c0-1.17-.95-2.12-2.12-2.12Zm.88 7.12c0 .48-.39.88-.88.88h-1c-.48 0-.88-.39-.88-.88v-5c0-.48.39-.88.88-.88h1c.48 0 .88.39.88.88v5Zm21.12-7.12h-1c-1.17 0-2.12.95-2.12 2.12v5c0 1.13.89 2.05 2 2.11V26c0 1.31-1.07 2.38-2.38 2.38h-5.46a2.616 2.616 0 0 0-5.16.62c0 1.44 1.18 2.62 2.62 2.62 1.23 0 2.26-.85 2.54-2H26c2 0 3.62-1.63 3.62-3.62v-2.39c1.11-.07 2-.98 2-2.11v-5c0-1.17-.95-2.12-2.12-2.12Zm-11.5 16c-.76 0-1.38-.62-1.38-1.38s.62-1.38 1.38-1.38 1.38.62 1.38 1.38-.62 1.38-1.38 1.38Zm12.38-8.88c0 .48-.39.88-.88.88h-1c-.48 0-.88-.39-.88-.88v-5c0-.48.39-.88.88-.88h1c.48 0 .88.39.88.88v5Zm-2.4-8.33c.08.28.33.46.6.46l.17-.02c.33-.09.53-.44.43-.77-1.41-4.98-6.01-8.46-11.19-8.46S8.22 7.85 6.81 12.83c-.09.33.1.68.43.77.34.1.68-.1.77-.43 1.26-4.44 5.36-7.54 9.98-7.54s8.73 3.1 9.98 7.54h.01Z"/>
</svg>
