<svg id="uuid-804c3573-4e31-44d4-9d07-f0a314f5319c" xmlns="http://www.w3.org/2000/svg" viewBox="0 0 36 36">
  <defs>
    <style>
      .uuid-ccb69227-3cd0-486a-9309-2204a1e858d0{stroke-width:0}
    </style>
  </defs>
  <g id="uuid-8e174481-6388-4c0f-a391-bea5da7c1e3e">
    <path class="uuid-ccb69227-3cd0-486a-9309-2204a1e858d0" d="M17.37 24.646a.624.624 0 0 0 .7-.357l3.117-7a.624.624 0 0 0-.57-.879h-1.492v-4.375a.625.625 0 0 0-1.196-.254l-3.117 7a.624.624 0 0 0 .571.88h1.492v4.374c0 .295.206.55.495.611Zm-1.024-6.236 1.529-3.434v2.06c0 .344.28.624.625.624h1.154l-1.529 3.435v-2.06a.625.625 0 0 0-.625-.625h-1.154Z"/>
    <path class="uuid-ccb69227-3cd0-486a-9309-2204a1e858d0" d="M8.637 17.754C8.77 12.7 12.915 8.625 18 8.625c.96 0 1.907.144 2.813.43a.626.626 0 0 0 .375-1.193A10.63 10.63 0 0 0 18 7.374c-5.766 0-10.465 4.621-10.611 10.353l-1.295 1.294C5.03 20.085 4.446 21.497 4.446 23s.585 2.915 1.648 3.977l1.464 1.464a.62.62 0 0 0 .884 0l1.464-1.464c1.063-1.062 1.648-2.474 1.648-3.977s-.585-2.915-1.648-3.977l-1.268-1.269Zm.386 8.34L8 27.116l-1.022-1.023C6.15 25.267 5.696 24.169 5.696 23s.455-2.266 1.282-3.094l.397-.397V24a.625.625 0 0 0 1.25 0v-4.49l.398.397c.826.826 1.28 1.924 1.28 3.093s-.454 2.267-1.28 3.094ZM31.554 13a5.584 5.584 0 0 0-1.648-3.977L28.442 7.56a.64.64 0 0 0-.884 0l-1.464 1.464c-1.063 1.062-1.648 2.474-1.648 3.977s.585 2.915 1.648 3.977l1.268 1.269C27.23 23.3 23.086 27.375 18 27.375a9.33 9.33 0 0 1-2.813-.43.626.626 0 0 0-.375 1.193c1.027.323 2.1.487 3.188.487 5.766 0 10.465-4.621 10.611-10.353l1.295-1.294A5.587 5.587 0 0 0 31.554 13Zm-2.929 3.491V12a.625.625 0 0 0-1.25 0v4.49l-.398-.397c-.826-.826-1.28-1.924-1.28-3.093s.454-2.267 1.28-3.094L28 8.884l1.022 1.023c.827.826 1.282 1.924 1.282 3.093s-.455 2.267-1.281 3.094l-.398.397Z"/>
  </g>
</svg>
