<svg xmlns="http://www.w3.org/2000/svg" viewBox="0 0 36 36">
  <path d="M6.38 14.29V17c0 .34.28.62.62.62s.62-.28.62-.62v-4c0-2.41 1.96-4.38 4.38-4.38.35 0 .62-.28.62-.62s-.28-.62-.62-.62a5.63 5.63 0 0 0-5.6 5.11c-.5-.72-.78-1.58-.78-2.48 0-2.41 1.96-4.38 4.38-4.38h4.38v4.38c0 2.41-1.96 4.38-4.38 4.38-.35 0-.62.28-.62.62s.28.62.62.62c3.1 0 5.62-2.52 5.62-5.62V5c0-.34-.28-.62-.62-.62h-5C6.9 4.38 4.38 6.9 4.38 10c0 1.68.73 3.22 2 4.29Zm15.33-7.91H19c-.35 0-.62.28-.62.62s.28.62.62.62h4c2.41 0 4.38 1.96 4.38 4.38 0 .34.28.62.62.62s.62-.28.62-.62a5.63 5.63 0 0 0-5.11-5.6c.72-.5 1.58-.78 2.48-.78 2.41 0 4.38 1.96 4.38 4.38v4.38h-4.38c-2.41 0-4.38-1.96-4.38-4.38 0-.34-.28-.62-.62-.62s-.62.28-.62.62c0 3.1 2.52 5.62 5.62 5.62h5c.35 0 .62-.28.62-.62v-5c0-3.1-2.52-5.62-5.62-5.62-1.68 0-3.22.73-4.29 2h.01ZM26 21.62c.35 0 .62-.28.62-.62s-.28-.62-.62-.62c-3.1 0-5.62 2.52-5.62 5.62v5c0 .34.28.62.62.62h5c3.1 0 5.62-2.52 5.62-5.62 0-1.68-.73-3.22-2-4.29V19c0-.34-.28-.62-.62-.62s-.62.28-.62.62v4c0 2.41-1.96 4.38-4.38 4.38-.35 0-.62.28-.62.62s.28.62.62.62a5.63 5.63 0 0 0 5.6-5.11c.5.72.78 1.58.78 2.48 0 2.41-1.96 4.38-4.38 4.38h-4.38v-4.38c0-2.41 1.96-4.38 4.38-4.38v.01Zm-16 10c1.68 0 3.22-.73 4.29-2H17c.35 0 .62-.28.62-.62s-.28-.62-.62-.62h-4c-2.41 0-4.38-1.96-4.38-4.38 0-.34-.28-.62-.62-.62s-.62.28-.62.62a5.63 5.63 0 0 0 5.11 5.6c-.72.5-1.58.78-2.48.78-2.41 0-4.38-1.96-4.38-4.38v-4.38h4.38c2.41 0 4.38 1.96 4.38 4.38 0 .34.28.62.62.62s.62-.28.62-.62c0-3.1-2.52-5.62-5.62-5.62H5c-.35 0-.62.28-.62.62v5c0 3.1 2.52 5.62 5.62 5.62Z"/>
</svg>
