<svg id="uuid-ae0ec504-97d2-4a22-88eb-429f0b2f1371" xmlns="http://www.w3.org/2000/svg" viewBox="0 0 36 36">
  <defs>
    <style>
      .uuid-49eafe63-ebf1-4184-9831-37b875b96b50{stroke-width:0}
    </style>
  </defs>
  <path class="uuid-49eafe63-ebf1-4184-9831-37b875b96b50" d="M31 17.38H5c-.34 0-.62.28-.62.62v10c0 .35.28.62.62.62h26c.34 0 .62-.28.62-.62V18c0-.35-.28-.62-.62-.62Zm-.62 10H5.62v-8.75h24.76v8.75Z"/>
  <path class="uuid-49eafe63-ebf1-4184-9831-37b875b96b50" d="M9 23.62h6c.34 0 .62-.28.62-.62s-.28-.62-.62-.62H9c-.34 0-.62.28-.62.62s.28.62.62.62Zm17.56-.18c.12.12.28.19.44.19l.24-.05.2-.14.14-.2.05-.24-.05-.24-.14-.2-.2-.14a.633.633 0 0 0-.68.14l-.14.2-.05.24.05.24.14.2ZM24 12.62c.34 0 .62-.28.62-.62v-1c0-.35-.28-.62-.62-.62h-7.46a2.616 2.616 0 0 0-5.16.62c0 1.44 1.18 2.62 2.62 2.62 1.23 0 2.26-.85 2.54-2h2.83V13c0 .35.28.62.62.62s.62-.28.62-.62v-1.38h.75V13c0 .35.28.62.62.62s.62-.28.62-.62v-1.38h.75V12c0 .35.28.62.62.62H24Zm-10-.25c-.76 0-1.38-.62-1.38-1.38s.62-1.38 1.38-1.38 1.38.62 1.38 1.38-.62 1.38-1.38 1.38Z"/>
</svg>
