<svg id="uuid-83a4cbe5-54d5-408a-81e3-5b27faa36e25" xmlns="http://www.w3.org/2000/svg" viewBox="0 0 36 36">
  <defs>
    <style>
      .uuid-a99c1ac0-fca1-4218-8d8c-cc538e5213be{stroke-width:0}
    </style>
  </defs>
  <g id="uuid-f5e244ce-b410-49c5-84d7-8298c896c6c8">
    <path class="uuid-a99c1ac0-fca1-4218-8d8c-cc538e5213be" d="M28 4.38H8c-.34 0-.62.28-.62.62v26c0 .35.28.62.62.62h20c.34 0 .62-.28.62-.62V5c0-.35-.28-.62-.62-.62Zm-.62 26H8.62V5.62h18.76v24.76Z"/>
    <path class="uuid-a99c1ac0-fca1-4218-8d8c-cc538e5213be" d="m17.76 8.58.24.04c.17 0 .33-.06.44-.18.12-.11.19-.28.19-.44l-.05-.24-.14-.2-.2-.14a.637.637 0 0 0-.68.14l-.14.2-.04.24c0 .17.06.33.18.44l.2.14ZM16 28.62h4c.34 0 .62-.28.62-.62s-.28-.62-.62-.62h-4c-.34 0-.62.28-.62.62s.28.62.62.62Z"/>
  </g>
</svg>
