<svg id="uuid-23fc263b-5228-4d3f-8b65-aa595b4f782b" xmlns="http://www.w3.org/2000/svg" viewBox="0 0 36 36">
  <defs>
    <style>
      .uuid-ccfa4961-3606-4092-b17a-2a378a8eea8e{stroke-width:0}
    </style>
  </defs>
  <g id="uuid-08bfb6df-9a33-42bf-ac77-7030433d8123">
    <g id="uuid-ee338848-57eb-4a4a-a654-5067a60c5d90">
      <path class="uuid-ccfa4961-3606-4092-b17a-2a378a8eea8e" d="M31 20.4H20.6v-2.9c0-2.3-1-4.6-2.8-6.1s-4.1-2.3-6.4-2c-4 .5-7.1 4.1-7.1 8.3v3.7c0 2.3 1.9 4.2 4.2 4.2h21.8v.4c0 .3.3.6.6.6s.6-.3.6-.6v-5c.1-.3-.2-.6-.5-.6Zm-25.4 1v-3.7c0-3.6 2.6-6.6 6-7.1.3 0 .6-.1.9-.1 1.7 0 3.3.6 4.5 1.7 1.5 1.3 2.3 3.2 2.3 5.2v6.9H8.6c-1.7.1-3-1.2-3-2.9Zm23.3 3v-1.2c0-.3-.3-.6-.6-.6s-.6.3-.6.6v1.2h-1.4V24c0-.3-.3-.6-.6-.6s-.7.3-.7.6v.4h-1.4v-1.2c0-.3-.3-.6-.6-.6s-.6.3-.6.6v1.2h-1.8v-2.8h9.8v2.8h-1.5Z"/>
      <path class="uuid-ccfa4961-3606-4092-b17a-2a378a8eea8e" d="M12.5 13.9c-2.1 0-3.9 1.7-3.9 3.9s1.7 3.9 3.9 3.9 3.9-1.7 3.9-3.9-1.8-3.9-3.9-3.9Zm0 6.5c-1.5 0-2.6-1.2-2.6-2.6s1.2-2.6 2.6-2.6 2.6 1.2 2.6 2.6-1.1 2.6-2.6 2.6Z"/>
    </g>
  </g>
</svg>
