<svg id="uuid-3d30a298-a874-4aec-9252-c358a2d07488" xmlns="http://www.w3.org/2000/svg" viewBox="0 0 36 36">
  <defs>
    <style>
      .uuid-742bf123-fc05-40d9-8b2a-bff4f34ab462{stroke-width:0}
    </style>
  </defs>
  <g id="uuid-8bdd881b-22af-4103-92ee-812daaeb9bab">
    <path class="uuid-742bf123-fc05-40d9-8b2a-bff4f34ab462" d="M17.558 17.558a.628.628 0 0 0 0 .884.623.623 0 0 0 .884 0l5.818-5.817H27a.625.625 0 0 0 .442-.183l4-4A.626.626 0 0 0 31 7.375h-2.375V5a.624.624 0 0 0-1.067-.442l-4 4a.625.625 0 0 0-.183.442v2.74l-5.817 5.818Zm9.183-6.183H25.51l2.75-2.75h1.231l-2.75 2.75Zm-2.116-2.116 2.75-2.75V7.74l-2.75 2.75V9.26Z"/>
    <path class="uuid-742bf123-fc05-40d9-8b2a-bff4f34ab462" d="M32.308 14.957a.625.625 0 0 0-1.223.26c.192.908.29 1.844.29 2.783 0 7.375-6 13.375-13.375 13.375S4.625 25.375 4.625 18 10.625 4.625 18 4.625c.939 0 1.875.098 2.783.29a.625.625 0 0 0 .26-1.223A14.688 14.688 0 0 0 18 3.375C9.935 3.375 3.375 9.935 3.375 18S9.935 32.625 18 32.625 32.625 26.065 32.625 18c0-1.025-.106-2.049-.317-3.043Z"/>
    <path class="uuid-742bf123-fc05-40d9-8b2a-bff4f34ab462" d="M18 14.625a3.4 3.4 0 0 1 .704.073.625.625 0 0 0 .258-1.222A4.63 4.63 0 0 0 13.375 18 4.63 4.63 0 0 0 18 22.625a4.63 4.63 0 0 0 4.524-5.587.624.624 0 1 0-1.222.258A3.378 3.378 0 0 1 18 21.376c-1.861-.001-3.375-1.515-3.375-3.376s1.514-3.375 3.375-3.375Z"/>
    <path class="uuid-742bf123-fc05-40d9-8b2a-bff4f34ab462" d="M20.484 9.325a.625.625 0 0 0-.481-.741A9.69 9.69 0 0 0 18 8.375c-5.308 0-9.625 4.317-9.625 9.625s4.317 9.625 9.625 9.625 9.625-4.317 9.625-9.625a9.69 9.69 0 0 0-.209-2.003.625.625 0 0 0-1.223.26c.12.57.182 1.156.182 1.743 0 4.618-3.757 8.375-8.375 8.375S9.625 22.618 9.625 18 13.382 9.625 18 9.625c.587 0 1.174.062 1.743.182a.62.62 0 0 0 .742-.482Z"/>
  </g>
</svg>
