<svg id="uuid-127c19e1-01f7-4a27-8828-05096e2e9fab" xmlns="http://www.w3.org/2000/svg" viewBox="0 0 36 36">
  <defs>
    <style>
      .uuid-80515b8f-390e-4570-84a5-f89b1341ad80{stroke-width:0}
    </style>
  </defs>
  <g id="uuid-ab82e933-1e3f-4abb-8429-dd905e7a7aa0">
    <path class="uuid-80515b8f-390e-4570-84a5-f89b1341ad80" d="M28.625 14.523V14.5c0-5.031-4.093-9.125-9.125-9.125a9.126 9.126 0 0 0-8.164 5.052 6.998 6.998 0 0 0-.836-.052c-3.929 0-7.125 3.196-7.125 7.125s3.196 7.125 7.125 7.125H12a.625.625 0 0 0 0-1.25h-1.5c-3.24 0-5.875-2.636-5.875-5.875s2.636-5.875 5.875-5.875c.354 0 .71.034 1.089.105a.629.629 0 0 0 .688-.365 7.875 7.875 0 0 1 7.223-4.74c4.342 0 7.875 3.532 7.875 7.875 0 .13-.01.258-.018.386l-.008.122a.625.625 0 0 0 .557.661 3.856 3.856 0 0 1 3.47 3.831 3.88 3.88 0 0 1-3.876 3.875H26a.625.625 0 0 0 0 1.25h1.5a5.13 5.13 0 0 0 5.125-5.125 5.098 5.098 0 0 0-4-4.977Z"/>
    <path class="uuid-80515b8f-390e-4570-84a5-f89b1341ad80" d="M22.375 12.5a.626.626 0 0 0-.75 1 4.341 4.341 0 0 1 1.75 3.5 4.35 4.35 0 0 1-.364 1.75.624.624 0 1 0 1.146.5c.31-.71.468-1.468.468-2.25 0-1.786-.82-3.426-2.25-4.5Zm-7.709 7.072a.624.624 0 0 0 .323-.822 4.35 4.35 0 0 1-.364-1.75c0-1.389.638-2.665 1.75-3.5a.625.625 0 0 0-.75-1 5.582 5.582 0 0 0-2.25 4.5c0 .782.158 1.54.468 2.25a.624.624 0 0 0 .823.322Zm6.448-1.031c.317-.434.511-.963.511-1.541 0-1.447-1.178-2.625-2.625-2.625S16.375 15.553 16.375 17c0 .537.163 1.035.44 1.452L14.39 29.87a.624.624 0 1 0 1.222.26l.501-2.358L19 24.884l2.774 2.774.525 2.472a.625.625 0 0 0 1.223-.26l-2.408-11.329Zm-3.216.833c.336.157.707.251 1.102.251a2.61 2.61 0 0 0 1.022-.208l.47 2.207L19 23.116l-1.565-1.565.463-2.177ZM19 15.625c.758 0 1.375.617 1.375 1.375s-.617 1.375-1.375 1.375-1.375-.617-1.375-1.375.617-1.375 1.375-1.375Zm-2.41 9.9.535-2.516.99.99-1.525 1.527ZM19.884 24l.917-.918.496 2.33L19.884 24Z"/>
  </g>
</svg>
