<svg id="uuid-504e1f5a-a996-43c4-93f0-776bd0382617" xmlns="http://www.w3.org/2000/svg" viewBox="0 0 36 36">
  <defs>
    <style>
      .uuid-214ccf93-402a-43d0-952c-d4e9cf436031{stroke-width:0}
    </style>
  </defs>
  <path class="uuid-214ccf93-402a-43d0-952c-d4e9cf436031" d="M19.59 13.11s0-.01-.01-.02c.63-.48 1.05-1.23 1.05-2.09 0-1.45-1.18-2.62-2.62-2.62S15.39 9.56 15.39 11c0 .84.4 1.57 1.01 2.05L9.95 30.78a.626.626 0 0 0 .58.84c.25 0 .5-.16.59-.41l1.16-3.2L18 23.72l5.66 4.25 1.18 3.25c.09.25.33.41.59.41a.626.626 0 0 0 .58-.84l-6.43-17.68h.01ZM18 9.63c.76 0 1.38.62 1.38 1.38s-.62 1.38-1.38 1.38-1.38-.62-1.38-1.38.62-1.38 1.38-1.38Zm-4.94 16.24 1.67-4.6 2.23 1.67-3.9 2.93Zm2.12-5.83 2.35-6.46c.15.03.31.05.47.05.15 0 .29-.02.43-.04l2.36 6.49L18 22.17l-2.82-2.12v-.01Zm3.87 2.9 2.19-1.65 1.65 4.52-3.84-2.88v.01Z"/>
  <path class="uuid-214ccf93-402a-43d0-952c-d4e9cf436031" d="M13.32 15.68c.12.12.28.18.44.18s.32-.06.44-.18c.24-.24.24-.64 0-.88-1.02-1.02-1.58-2.37-1.58-3.8s.56-2.79 1.58-3.8c.24-.24.24-.64 0-.88s-.64-.24-.88 0c-1.25 1.25-1.94 2.92-1.94 4.68s.69 3.43 1.94 4.68Zm8.48 0c.12.12.28.18.44.18s.32-.06.44-.18c1.25-1.25 1.94-2.92 1.94-4.68s-.69-3.43-1.94-4.68c-.24-.24-.64-.24-.88 0s-.24.64 0 .88c1.02 1.02 1.58 2.37 1.58 3.8s-.56 2.79-1.58 3.8c-.24.24-.24.64 0 .88Z"/>
  <path class="uuid-214ccf93-402a-43d0-952c-d4e9cf436031" d="M11.64 17.99c.16 0 .32-.06.44-.18.24-.24.24-.64 0-.88-3.27-3.27-3.27-8.58 0-11.84.24-.24.24-.64 0-.88a.628.628 0 0 0-.88 0c-3.75 3.75-3.75 9.86 0 13.61.12.12.28.18.44.18v-.01Zm12.28-1.07c-.24.24-.24.64 0 .88.12.12.28.18.44.18s.32-.06.44-.18c3.75-3.75 3.75-9.86 0-13.61a.628.628 0 0 0-.88 0c-.24.24-.24.64 0 .88 3.27 3.27 3.27 8.58 0 11.84v.01Z"/>
</svg>
