<svg id="uuid-ab206522-5b6b-40be-b779-e373f9cbad98" xmlns="http://www.w3.org/2000/svg" viewBox="0 0 36 36">
  <defs>
    <style>
      .uuid-3c1fa6bd-95b6-49fe-8fef-376ffd806e32{stroke-width:0}
    </style>
  </defs>
  <g id="uuid-e95c0eb4-73c3-4ba6-8d87-5d82ec7b0b8c">
    <path class="uuid-3c1fa6bd-95b6-49fe-8fef-376ffd806e32" d="M18 28.62a2.616 2.616 0 0 0 .62-5.16V8c0-.34-.28-.62-.62-.62s-.62.28-.62.62v15.46a2.616 2.616 0 0 0 .62 5.16Zm0-4c.76 0 1.38.62 1.38 1.38s-.62 1.38-1.38 1.38-1.38-.62-1.38-1.38.62-1.38 1.38-1.38Z"/>
    <path class="uuid-3c1fa6bd-95b6-49fe-8fef-376ffd806e32" d="M18 31.62c3.1 0 5.62-2.52 5.62-5.62 0-1.68-.73-3.22-2-4.29v-3.09H24c.34 0 .62-.28.62-.62s-.28-.62-.62-.62h-2.38v-2.75H24c.34 0 .62-.28.62-.62s-.28-.62-.62-.62h-2.38v-2.75H24c.34 0 .62-.28.62-.62s-.28-.62-.62-.62h-2.38V8.02c0-2-1.63-3.62-3.62-3.62s-3.62 1.63-3.62 3.62v13.71c-1.27 1.07-2 2.61-2 4.29 0 3.1 2.52 5.62 5.62 5.62v-.02Zm-2.62-9.12.03-.03c.03-.03.06-.06.08-.09.02-.03.05-.06.07-.1.02-.03.03-.07.04-.11s.02-.08.03-.13V8c0-1.31 1.07-2.38 2.38-2.38S20.39 6.69 20.39 8v14.04c0 .04.01.08.03.13a.487.487 0 0 0 .11.21c.03.03.05.07.08.09.01 0 .02.02.03.03 1.11.83 1.75 2.11 1.75 3.5 0 2.41-1.96 4.38-4.38 4.38s-4.38-1.96-4.38-4.38c0-1.39.64-2.67 1.75-3.5Z"/>
  </g>
</svg>
