<svg xmlns="http://www.w3.org/2000/svg" viewBox="0 0 36 36">
  <path d="M18 3.38C9.94 3.38 3.38 9.94 3.38 18c0 2.69.74 5.31 2.13 7.6l-1.12 5.27v.24c.02.08.05.14.08.21 0 .01.02.02.03.04.04.05.07.09.12.13.02.02.04.02.07.04.05.03.09.05.14.06.01 0 .02.01.03.01h.13v.01h.13l5.27-1.13c2.29 1.39 4.91 2.13 7.6 2.13 8.06 0 14.62-6.56 14.62-14.62S26.06 3.38 18 3.38Zm0 28c-2.54 0-5.01-.72-7.15-2.07a.666.666 0 0 0-.36-.09h-.13l-4.55.97.97-4.57a.59.59 0 0 0-.09-.47A13.356 13.356 0 0 1 4.62 18c0-7.38 6-13.38 13.38-13.38s13.38 6 13.38 13.38-6 13.38-13.38 13.38Z"/>
</svg>
