<svg id="uuid-0e485ff4-9562-4141-84b1-2487fbbbfcbd" xmlns="http://www.w3.org/2000/svg" viewBox="0 0 36 36">
  <defs>
    <style>
      .uuid-8fcac2e0-5f1f-4068-8ab3-3b24c4ed435a{stroke-width:0}
    </style>
  </defs>
  <g id="uuid-5d2082f4-885f-44de-81c0-d4735dbcf517">
    <path class="uuid-8fcac2e0-5f1f-4068-8ab3-3b24c4ed435a" d="M21 19.375h-6a.626.626 0 0 0 0 1.25h6a.626.626 0 0 0 0-1.25Z"/>
    <path class="uuid-8fcac2e0-5f1f-4068-8ab3-3b24c4ed435a" d="m31.442 12.558-3-3A.625.625 0 0 0 28 9.375h-3.485L23.77 5.87a.625.625 0 0 0-.61-.495H12.84a.625.625 0 0 0-.61.495l-.745 3.505H8a.625.625 0 0 0-.442.183l-3 3a.625.625 0 0 0-.183.442v17c0 .345.28.625.625.625h26c.345 0 .625-.28.625-.625V13a.625.625 0 0 0-.183-.442ZM13.347 6.625h9.306l.585 2.75H12.762l.585-2.75Zm17.028 22.75H5.625v-8.75H9a.626.626 0 0 0 0-1.25H5.625v-6.116l2.634-2.634H27.74l2.634 2.634v6.116H27a.626.626 0 0 0 0 1.25h3.375v8.75Z"/>
    <path class="uuid-8fcac2e0-5f1f-4068-8ab3-3b24c4ed435a" d="M13 17.375h-2a.626.626 0 0 0-.625.625v4c0 .345.28.625.625.625h2c.345 0 .625-.28.625-.625v-4a.626.626 0 0 0-.625-.625Zm-.625 4h-.75v-2.75h.75v2.75Zm12.625-4h-2a.626.626 0 0 0-.625.625v4c0 .345.28.625.625.625h2c.345 0 .625-.28.625-.625v-4a.626.626 0 0 0-.625-.625Zm-.625 4h-.75v-2.75h.75v2.75Z"/>
  </g>
</svg>
