<svg id="uuid-d35aa994-c19a-47bc-93ab-0b782e757043" xmlns="http://www.w3.org/2000/svg" viewBox="0 0 36 36">
  <defs>
    <style>
      .uuid-a1ccc26c-8258-43dd-bc67-c7c0d3500778{stroke-width:0}
    </style>
  </defs>
  <path class="uuid-a1ccc26c-8258-43dd-bc67-c7c0d3500778" d="M26.5 17.38h-14c-1.23 0-2.26.85-2.54 2h-.83v-6.75h7.38c.35 0 .62-.28.62-.62s-.28-.62-.62-.62H6.5c-.35 0-.62.28-.62.62s.28.62.62.62h1.38v7.38c0 .35.28.62.62.62h1.46c.28 1.15 1.31 2 2.54 2h2.23l-1.71 8.05c-.07.34.14.67.48.74.04 0 .09.01.13.01.29 0 .55-.2.61-.5l.7-3.31h9.22l.72 3.41c.06.29.32.5.61.5.04 0 .09 0 .13-.01.34-.07.55-.4.48-.74l-1.73-8.15h2.12c1.45 0 2.62-1.18 2.62-2.62s-1.18-2.62-2.62-2.62l.01-.01Zm-2.6 9h-8.69l.8-3.75h7.1l.8 3.75h-.01Zm2.6-5h-14c-.76 0-1.38-.62-1.38-1.38s.62-1.38 1.38-1.38h14c.76 0 1.38.62 1.38 1.38s-.62 1.38-1.38 1.38Z"/>
  <path class="uuid-a1ccc26c-8258-43dd-bc67-c7c0d3500778" d="M14.06 13.39a.62.62 0 0 0-.74.48l-.43 2c-.04.18 0 .38.13.52.12.15.3.23.49.23h12c.19 0 .37-.08.49-.23.12-.15.16-.34.13-.52l-2.34-11a.63.63 0 0 0-.61-.5h-7.32a.63.63 0 0 0-.61.5l-1.06 5c-.07.34.14.67.48.74.34.07.67-.14.74-.48l.96-4.5h6.31l2.07 9.75H14.27l.26-1.25a.62.62 0 0 0-.48-.74h.01Z"/>
</svg>
