<svg id="uuid-a822c58d-85fa-43a0-972a-f3cbdf515bb9" xmlns="http://www.w3.org/2000/svg" viewBox="0 0 36 36">
  <defs>
    <style>
      .uuid-f3486abe-d463-442b-a047-b85c879dd2d7{stroke-width:0}
    </style>
  </defs>
  <g id="uuid-b72a98d1-d90d-425c-aaf3-3541ec6face9">
    <path class="uuid-f3486abe-d463-442b-a047-b85c879dd2d7" d="M9 15.62h7c.19 0 .37-.08.49-.23a.62.62 0 0 0 .13-.52l-1.33-6.25h.72c.34 0 .62-.28.62-.62s-.28-.62-.62-.62h-7c-.34 0-.62.28-.62.62v7c0 .35.28.62.62.62H9Zm5.01-7 1.22 5.75h-5.6V8.62h4.38Zm-3.51 16a2.121 2.121 0 0 0 0-4.24 2.121 2.121 0 0 0 0 4.24Zm0-3c.48 0 .88.39.88.88s-.39.88-.88.88-.88-.39-.88-.88.39-.88.88-.88Z"/>
    <path class="uuid-f3486abe-d463-442b-a047-b85c879dd2d7" d="M31.49 16.61a.621.621 0 0 0-.49-.23h-3.38V12c0-.35-.28-.62-.62-.62s-.62.28-.62.62v4.38H10.5c-3.38 0-6.12 2.75-6.12 6.12s2.75 6.12 6.12 6.12 6.12-2.75 6.12-6.12c0-1.99-.96-3.76-2.43-4.88h16.04l-1.22 5.75h-1.23c-.57-.61-1.38-1-2.28-1s-1.71.39-2.28 1H18c-.34 0-.62.28-.62.62s.28.62.62.62h4.52c-.08.28-.14.57-.14.88 0 1.72 1.4 3.12 3.12 3.12s3.12-1.4 3.12-3.12c0-.31-.06-.6-.14-.88h1.03c.29 0 .55-.21.61-.5l1.49-7c.04-.18 0-.38-.13-.52l.01.02ZM15.38 22.5c0 2.69-2.19 4.88-4.88 4.88s-4.88-2.19-4.88-4.88 2.19-4.88 4.88-4.88 4.88 2.19 4.88 4.88Zm10.12 4.88c-1.03 0-1.88-.84-1.88-1.88s.84-1.88 1.88-1.88 1.88.84 1.88 1.88-.84 1.88-1.88 1.88Z"/>
  </g>
</svg>
