<svg id="uuid-ea857dd1-6537-4040-aec0-fe618ae49ebe" xmlns="http://www.w3.org/2000/svg" viewBox="0 0 36 36">
  <defs>
    <style>
      .uuid-3ae91a47-063f-42b8-853a-549de3fb9bd6{stroke-width:0}
    </style>
  </defs>
  <g id="uuid-59da61fa-15cc-4111-98c6-84fd634ecc2c">
    <path class="uuid-3ae91a47-063f-42b8-853a-549de3fb9bd6" d="M27.62 16c0-.35-.28-.62-.62-.62h-3.38v-1.81c2.25-.31 4-2.23 4-4.56 0-.35-.28-.62-.62-.62h-3.38V5.01c0-.35-.28-.62-.62-.62H13c-.34 0-.62.28-.62.62v3.38H9c-.34 0-.62.28-.62.62 0 2.34 1.75 4.25 4 4.56v1.81H9c-.34 0-.62.28-.62.62 0 2.34 1.75 4.25 4 4.56v1.81H9c-.34 0-.62.28-.62.62 0 2.34 1.75 4.25 4 4.56v3.44c0 .35.28.62.62.62h10c.34 0 .62-.28.62-.62v-3.44c2.25-.31 4-2.23 4-4.56 0-.35-.28-.62-.62-.62h-3.38v-1.81c2.25-.31 4-2.23 4-4.56Zm-1.31.62a3.393 3.393 0 0 1-2.69 2.69v-2.69h2.69Zm0-7a3.393 3.393 0 0 1-2.69 2.69V9.62h2.69Zm-16.63 0h2.69v2.69a3.38 3.38 0 0 1-2.69-2.69Zm0 7h2.69v2.69a3.38 3.38 0 0 1-2.69-2.69Zm0 7h2.69v2.69a3.38 3.38 0 0 1-2.69-2.69Zm12.69 6.75h-8.75V5.62h8.75v24.76-.01Zm3.94-6.75a3.393 3.393 0 0 1-2.69 2.69v-2.69h2.69Z"/>
    <path class="uuid-3ae91a47-063f-42b8-853a-549de3fb9bd6" d="M18 22.38c-1.45 0-2.62 1.18-2.62 2.62s1.18 2.62 2.62 2.62 2.62-1.18 2.62-2.62-1.18-2.62-2.62-2.62Zm0 4c-.76 0-1.38-.62-1.38-1.38s.62-1.38 1.38-1.38 1.38.62 1.38 1.38-.62 1.38-1.38 1.38Zm0-11c-1.45 0-2.62 1.18-2.62 2.62s1.18 2.62 2.62 2.62 2.62-1.18 2.62-2.62-1.18-2.62-2.62-2.62Zm0 4c-.76 0-1.38-.62-1.38-1.38s.62-1.38 1.38-1.38 1.38.62 1.38 1.38-.62 1.38-1.38 1.38Zm0-11c-1.45 0-2.62 1.18-2.62 2.62s1.18 2.62 2.62 2.62 2.62-1.18 2.62-2.62S19.44 8.38 18 8.38Zm0 4c-.76 0-1.38-.62-1.38-1.38s.62-1.38 1.38-1.38 1.38.62 1.38 1.38-.62 1.38-1.38 1.38Z"/>
  </g>
</svg>
