<svg id="uuid-b686d5c5-1425-4ee3-9ca8-32554a80da4a" xmlns="http://www.w3.org/2000/svg" viewBox="0 0 36 36">
  <defs>
    <style>
      .uuid-d0f67c20-cbce-4ca8-b8d3-035724ff8d73{stroke-width:0}
    </style>
  </defs>
  <g id="uuid-a3858a19-06b3-48dc-b15f-53cbab08f3cc">
    <path class="uuid-d0f67c20-cbce-4ca8-b8d3-035724ff8d73" d="M22 11.38h-8c-2 0-3.62 1.63-3.62 3.62v12c0 .35.28.62.62.62h14c.34 0 .62-.28.62-.62V15c0-2-1.63-3.62-3.62-3.62Zm-8 1.25h8c1.31 0 2.38 1.07 2.38 2.38v5.38H11.62v-5.38c0-1.31 1.07-2.38 2.38-2.38Zm-2.38 13.75v-4.75h12.75v4.75H11.62ZM20 9.62c.34 0 .62-.28.62-.62s-.28-.62-.62-.62h-4c-.34 0-.62.28-.62.62s.28.62.62.62h4Z"/>
    <path class="uuid-d0f67c20-cbce-4ca8-b8d3-035724ff8d73" d="M14.44 23.56a.652.652 0 0 0-.68-.14.718.718 0 0 0-.34.34c-.03.08-.05.16-.05.24s.02.16.05.24.08.14.14.2c.06.06.12.11.2.14a.597.597 0 0 0 .68-.14c.06-.06.11-.12.14-.2.03-.08.05-.16.05-.24s-.02-.16-.05-.24a.66.66 0 0 0-.14-.2Zm8 0a.652.652 0 0 0-.68-.14c-.07.04-.14.08-.2.14a.597.597 0 0 0-.14.68c.03.08.08.15.14.2.06.06.13.11.2.14.08.03.16.04.24.04.16 0 .33-.06.44-.18a.66.66 0 0 0 .14-.2c.03-.08.05-.16.05-.24s-.02-.16-.05-.24a.66.66 0 0 0-.14-.2Zm-8.16 4.88a.63.63 0 0 0-.84.28l-1 2c-.16.31-.03.68.28.84.09.04.18.07.28.07.23 0 .45-.13.56-.35l1-2c.16-.31.03-.68-.28-.84Zm8.28.28c-.15-.31-.53-.43-.84-.28s-.43.53-.28.84l1 2c.11.22.33.35.56.35.09 0 .19-.02.28-.07.31-.15.43-.53.28-.84l-1-2Z"/>
    <path class="uuid-d0f67c20-cbce-4ca8-b8d3-035724ff8d73" d="M18 3.38C9.94 3.38 3.38 9.94 3.38 18v13c0 .35.28.62.62.62s.62-.28.62-.62V18c0-7.38 6-13.38 13.38-13.38s13.38 6 13.38 13.38v13c0 .35.28.62.62.62s.62-.28.62-.62V18c0-8.06-6.56-14.62-14.62-14.62Z"/>
  </g>
</svg>
