<svg xmlns="http://www.w3.org/2000/svg" viewBox="0 0 36 36">
  <path d="M28 15.625a.625.625 0 0 0 .442-.183l3-3a.625.625 0 0 0 0-.884l-3-3A.625.625 0 0 0 28 8.375h-7.375V6c0-.896-.729-1.625-1.625-1.625h-2c-.896 0-1.625.729-1.625 1.625v2.375H6A.625.625 0 0 0 5.375 9v6c0 .345.28.625.625.625h9.375v4.596l-8.194 1.742a.626.626 0 0 0-.395.27l-2.31 3.559a.625.625 0 0 0 .184.865l3.558 2.31a.627.627 0 0 0 .47.087l6.687-1.421V31a.625.625 0 1 0 1.25 0v-3.633l2.75-.585V31a.625.625 0 1 0 1.25 0v-4.483l9.583-2.037a.626.626 0 0 0 .481-.741l-1.248-5.87a.624.624 0 0 0-.74-.48l-8.076 1.716v-3.48H28ZM16.625 6c0-.206.169-.375.375-.375h2c.206 0 .375.169.375.375v2.375h-2.75V6Zm-10 3.625h21.116L30.116 12l-2.375 2.375H6.625v-4.75Zm22.711 13.762-20.655 4.39-2.816-1.828 1.829-2.817 20.655-4.39.987 4.645Zm-9.961-4.016-2.75.584v-4.33h2.75v3.746Z"/>
</svg>
