<svg id="uuid-20272b5a-fe2a-4a5b-9893-aec39a7ae99e" xmlns="http://www.w3.org/2000/svg" viewBox="0 0 36 36">
  <defs>
    <style>
      .uuid-6de5dd8f-ab0c-48f2-af00-79dfdff63362{stroke-width:0}
    </style>
  </defs>
  <g id="uuid-5bed08c1-4172-48a5-b575-ecfcd8d33cd5">
    <path class="uuid-6de5dd8f-ab0c-48f2-af00-79dfdff63362" d="M8.45 27.38c-1.14 0-2.08.93-2.08 2.08s.93 2.08 2.08 2.08 2.07-.93 2.07-2.08-.93-2.08-2.07-2.08Zm0 2.9c-.46 0-.83-.37-.83-.83s.37-.83.83-.83.82.37.82.83-.37.83-.82.83Zm5-2.9c-1.14 0-2.08.93-2.08 2.08s.93 2.08 2.08 2.08 2.07-.93 2.07-2.08-.93-2.08-2.07-2.08Zm0 2.9c-.46 0-.83-.37-.83-.83s.37-.83.83-.83.82.37.82.83-.37.83-.82.83Zm13.9-2.9c-1.14 0-2.08.93-2.08 2.08s.93 2.08 2.08 2.08 2.07-.93 2.07-2.08-.93-2.08-2.07-2.08Zm0 2.9c-.46 0-.83-.37-.83-.83s.37-.83.83-.83.82.37.82.83-.37.83-.82.83Zm-4.9-2.9c-1.14 0-2.08.93-2.08 2.08s.93 2.08 2.08 2.08 2.07-.93 2.07-2.08-.93-2.08-2.07-2.08Zm0 2.9c-.46 0-.83-.37-.83-.83s.37-.83.83-.83.82.37.82.83-.37.83-.82.83Zm8.55-5.9H5c-.35 0-.62.28-.62.62s.28.62.62.62h26c.35 0 .62-.28.62-.62s-.28-.62-.62-.62ZM7 22.62h22c.35 0 .62-.28.62-.62V5c0-.35-.28-.62-.62-.62H7c-.35 0-.62.28-.62.62v17c0 .34.28.62.62.62Zm.62-17h20.76v15.75H7.62V5.62Z"/>
    <path class="uuid-6de5dd8f-ab0c-48f2-af00-79dfdff63362" d="M12 7.38c-.35 0-.62.28-.62.62v11c0 .34.28.62.62.62s.62-.28.62-.62V8c0-.35-.28-.62-.62-.62Zm3.86 0c-.35 0-.62.28-.62.62v11c0 .34.28.62.62.62s.62-.28.62-.62V8c0-.35-.28-.62-.62-.62Zm4.12 0c-.35 0-.62.28-.62.62v11c0 .34.28.62.62.62s.62-.28.62-.62V8c0-.35-.28-.62-.62-.62Zm4.08 0c-.35 0-.62.28-.62.62v11c0 .34.28.62.62.62s.62-.28.62-.62V8c0-.35-.28-.62-.62-.62Z"/>
  </g>
</svg>
