<svg id="uuid-c4210d98-a87a-4817-8426-485b996fec6b" xmlns="http://www.w3.org/2000/svg" viewBox="0 0 36 36">
  <defs>
    <style>
      .uuid-5472545d-1dbb-48c0-ab4f-b36cc3462f0d{stroke-width:0}
    </style>
  </defs>
  <g id="uuid-6c86fdde-c324-4daf-a94b-199c188ee986">
    <path class="uuid-5472545d-1dbb-48c0-ab4f-b36cc3462f0d" d="M28 7.38h-6.44c-.3-1.7-1.78-3-3.56-3s-3.26 1.3-3.56 3H8c-.34 0-.62.28-.62.62s.28.62.62.62h20c.34 0 .62-.28.62-.62s-.28-.62-.62-.62Zm-12.28 0C16 6.37 16.91 5.63 18 5.63s2 .74 2.28 1.75h-4.56ZM18 27.62c.34 0 .62-.28.62-.62V15c0-.34-.28-.62-.62-.62s-.62.28-.62.62v12c0 .34.28.62.62.62Zm-5 0c.34 0 .62-.28.62-.62V15c0-.34-.28-.62-.62-.62s-.62.28-.62.62v12c0 .34.28.62.62.62Zm10 0c.34 0 .62-.28.62-.62V15c0-.34-.28-.62-.62-.62s-.62.28-.62.62v12c0 .34.28.62.62.62Z"/>
    <path class="uuid-5472545d-1dbb-48c0-ab4f-b36cc3462f0d" d="M28 10.38H8c-.34 0-.62.28-.62.62s.28.62.62.62h.38V31c0 .34.28.62.62.62h18c.34 0 .62-.28.62-.62V11.62H28c.34 0 .62-.28.62-.62s-.28-.62-.62-.62Zm-1.62 20H9.62V11.62h16.76v18.76Z"/>
  </g>
</svg>
