<svg id="uuid-9b53d05f-dd9d-49c9-b2dd-ee60dece5637" xmlns="http://www.w3.org/2000/svg" viewBox="0 0 36 36">
  <defs>
    <style>
      .uuid-05ad22be-fba1-4a43-a847-038ac0bf4d8d{stroke-width:0}
    </style>
  </defs>
  <g id="uuid-4315377c-013f-4afe-a2e2-e2e20e3e080d">
    <path class="uuid-05ad22be-fba1-4a43-a847-038ac0bf4d8d" d="M18 31.62c.35 0 .62-.28.62-.62V18.26l3.82-3.82c.24-.24.24-.64 0-.88s-.64-.24-.88 0l-2.93 2.93V11c0-.34-.28-.62-.62-.62s-.62.28-.62.62v10.56l-3.93-4a.61.61 0 0 0-.88 0 .61.61 0 0 0 0 .88l4.82 4.9V31c0 .34.28.62.62.62H18Z"/>
    <path class="uuid-05ad22be-fba1-4a43-a847-038ac0bf4d8d" d="M13.11 27.62c.42 0 .84-.03 1.25-.09a.63.63 0 0 0 .53-.71.63.63 0 0 0-.71-.53c-.35.05-.71.08-1.07.08-4.12 0-7.48-3.36-7.48-7.48 0-3.7 2.76-6.88 6.42-7.4.33-.05.56-.38.53-.71 0-2.85 2.32-5.16 5.16-5.16 2.08 0 3.95 1.24 4.76 3.16.09.21.28.35.5.38 2.58.32 4.53 2.51 4.53 5.1 0 .66-.13 1.31-.38 1.94a.62.62 0 0 0 .11.65 5.735 5.735 0 0 1 1.43 3.78c0 3.17-2.58 5.74-5.74 5.74-.53 0-1.06-.07-1.57-.22-.33-.09-.68.1-.77.43s.1.68.43.77c.62.18 1.26.27 1.91.27 3.86 0 6.99-3.14 6.99-6.99 0-1.57-.53-3.09-1.5-4.32.23-.67.34-1.36.34-2.05 0-3.1-2.25-5.74-5.28-6.29-1.07-2.2-3.3-3.6-5.77-3.6-3.39 0-6.18 2.64-6.4 5.98-4 .83-6.96 4.41-6.96 8.54 0 4.81 3.92 8.73 8.73 8.73h.01Z"/>
  </g>
</svg>
