<svg id="uuid-dcb4abcc-0ce3-4a29-adae-3422ef90f751" xmlns="http://www.w3.org/2000/svg" viewBox="0 0 36 36">
  <defs>
    <style>
      .uuid-277e2242-4015-4093-b232-0f50c7d3c645{stroke-width:0}
    </style>
  </defs>
  <g id="uuid-476fa140-0cf6-472e-ba7a-272f949cf9e6">
    <path class="uuid-277e2242-4015-4093-b232-0f50c7d3c645" d="M14 23.33a1.62 1.62 0 1 0 0 3.24 1.62 1.62 0 0 0 0-3.24Zm0 2a.38.38 0 1 1 0-.76.38.38 0 0 1 0 .76Zm-3-5a1.62 1.62 0 1 0 0 3.24 1.62 1.62 0 0 0 0-3.24Zm0 2a.38.38 0 1 1 0-.76.38.38 0 0 1 0 .76Zm4-3a1.62 1.62 0 1 0 0 3.24 1.62 1.62 0 0 0 0-3.24Zm0 2a.38.38 0 1 1 0-.76.38.38 0 0 1 0 .76Z"/>
    <path class="uuid-277e2242-4015-4093-b232-0f50c7d3c645" d="M29.77 12.68a.623.623 0 0 0-.56-.35h-4.46l1.42-6.66h3.49c.34 0 .62-.28.62-.62s-.28-.62-.62-.62h-4a.63.63 0 0 0-.61.5l-1.58 7.42H6.79c-.24 0-.46.14-.56.35-.9 1.82-1.35 3.77-1.35 5.78 0 7.24 5.89 13.12 13.12 13.12s13.12-5.89 13.12-13.12c0-2.01-.46-3.95-1.35-5.78v-.02ZM18 30.33c-6.55 0-11.88-5.33-11.88-11.88 0-1.69.36-3.33 1.06-4.88h21.64c.7 1.55 1.06 3.19 1.06 4.88 0 6.55-5.33 11.88-11.88 11.88Z"/>
    <path class="uuid-277e2242-4015-4093-b232-0f50c7d3c645" d="M27.5 17.83c-.34 0-.62.28-.62.62 0 3.83-2.44 7.22-6.07 8.42-.33.11-.5.46-.4.79.09.26.33.43.59.43.07 0 .13 0 .2-.03a10.12 10.12 0 0 0 6.93-9.61c0-.34-.28-.62-.62-.62h-.01Z"/>
  </g>
</svg>
