<svg xmlns="http://www.w3.org/2000/svg" viewBox="0 0 36 36">
  <path d="m31.52 17.69-4-6a.64.64 0 0 0-.52-.28h-4.38V9.03c0-.35-.28-.62-.62-.62H5c-.35 0-.62.28-.62.62v14c0 .34.28.62.62.62h1.52c-.08.28-.14.57-.14.88 0 1.72 1.4 3.12 3.12 3.12s3.12-1.4 3.12-3.12c0-.31-.06-.6-.14-.88h11.03c-.08.28-.14.57-.14.88 0 1.72 1.4 3.12 3.12 3.12s3.12-1.4 3.12-3.12c0-.31-.06-.6-.14-.88h1.52c.35 0 .62-.28.62-.62v-5c0-.12-.04-.24-.1-.35l.01.01Zm-4.85-5.03 3.71 5.56v1.19h-7.75v-6.75h4.04ZM9.5 26.41c-1.03 0-1.88-.84-1.88-1.88s.84-1.88 1.88-1.88 1.88.84 1.88 1.88-.84 1.88-1.88 1.88Zm0-5c-.9 0-1.71.39-2.28 1h-1.6V9.66h15.75v12.75h-9.59c-.57-.61-1.38-1-2.28-1Zm17 5c-1.03 0-1.88-.84-1.88-1.88s.84-1.88 1.88-1.88 1.88.84 1.88 1.88-.84 1.88-1.88 1.88Zm2.28-4c-.57-.61-1.38-1-2.28-1s-1.71.39-2.28 1h-1.6v-1.75h7.75v1.75h-1.6.01Z"/>
</svg>
