<svg id="uuid-736e9a5b-8f58-49c4-b488-664d0d1313a0" xmlns="http://www.w3.org/2000/svg" viewBox="0 0 36 36">
  <defs>
    <style>
      .uuid-e1f0098f-90a4-4e08-8724-1b5957c1a0af{stroke-width:0}
    </style>
  </defs>
  <g id="uuid-f277e22a-4d6f-4644-8a57-d47c680f32cf">
    <path class="uuid-e1f0098f-90a4-4e08-8724-1b5957c1a0af" d="M25.913 14.549a.626.626 0 0 0-.625.625v15.201H10.712V15.174a.626.626 0 0 0-1.25 0V31c0 .345.28.625.625.625h15.826c.345 0 .625-.28.625-.625V15.174a.626.626 0 0 0-.625-.625Z"/>
    <path class="uuid-e1f0098f-90a4-4e08-8724-1b5957c1a0af" d="m32.166 16.133-2.26-7.913a.622.622 0 0 0-.322-.387l-6.783-3.392c-.006-.003-.012-.002-.018-.004-.04-.019-.084-.025-.127-.035-.038-.008-.075-.021-.113-.023-.008 0-.014-.004-.022-.004h-9.043c-.007 0-.013.004-.02.004-.039.002-.075.015-.113.023-.044.01-.088.016-.128.035l-.018.004-6.783 3.392a.622.622 0 0 0-.321.387l-2.26 7.913a.624.624 0 0 0 .253.692l3.392 2.26a.626.626 0 0 0 .693-1.04l-3.012-2.007 2.06-7.21 5.73-2.866c.453 2.379 2.54 4.184 5.05 4.184s4.596-1.805 5.048-4.184l5.73 2.866 2.06 7.21-3.012 2.007a.626.626 0 0 0 .694 1.04l3.391-2.26a.624.624 0 0 0 .254-.692ZM18 8.897a3.903 3.903 0 0 1-3.847-3.272h7.694A3.903 3.903 0 0 1 18 8.897Z"/>
  </g>
</svg>
