<svg xmlns="http://www.w3.org/2000/svg" viewBox="0 0 36 36">
  <path d="M18 4.375C10.487 4.375 4.375 10.487 4.375 18c0 .345.28.625.625.625h12.375V28c0 1.31-1.065 2.375-2.375 2.375S12.625 29.31 12.625 28a.626.626 0 0 0-1.25 0c0 1.999 1.626 3.625 3.625 3.625s3.625-1.626 3.625-3.625v-9.375H31c.345 0 .625-.28.625-.625 0-7.513-6.112-13.625-13.625-13.625Zm5.36 13H12.64c.147-6.43 2.538-11.75 5.36-11.75s5.213 5.32 5.36 11.75Zm-8.6-11.308c-1.951 2.207-3.266 6.379-3.37 11.308H5.64c.271-5.426 4.058-9.931 9.12-11.308Zm9.85 11.308c-.104-4.93-1.419-9.1-3.37-11.308 5.062 1.377 8.849 5.882 9.12 11.308h-5.75Z"/>
</svg>
