<svg xmlns="http://www.w3.org/2000/svg" viewBox="0 0 36 36">
  <path d="M23.659 28.698A10.333 10.333 0 0 1 18 30.375c-5.72 0-10.375-4.654-10.375-10.375v-8a.625.625 0 0 0-1.25 0v8c0 6.41 5.215 11.625 11.625 11.625 2.262 0 4.455-.65 6.342-1.88a.625.625 0 1 0-.683-1.047Zm6.784.86-2.908-2.908a11.555 11.555 0 0 0 2.09-6.65V7.338a.625.625 0 0 0-.495-.611l-11-2.338a.612.612 0 0 0-.26 0L7.482 6.597l-2.04-2.039a.626.626 0 0 0-.884.884l25 25a.624.624 0 0 0 .885 0 .626.626 0 0 0 0-.884ZM18 5.64l10.375 2.205V20a10.31 10.31 0 0 1-1.743 5.747L8.536 7.651 18 5.639Z"/>
</svg>
