<svg xmlns="http://www.w3.org/2000/svg" viewBox="0 0 36 36">
  <path d="M20.39 31.16a.626.626 0 0 0 .108 1.24c.04 0 .08 0 .12-.01.34-.06.561-.38.5-.72a.632.632 0 0 0-.729-.51Zm4.438-1.66a.63.63 0 0 0-.21.86.606.606 0 0 0 .851.22c.3-.18.4-.56.22-.86a.632.632 0 0 0-.86-.22Zm-2.139 1.03c-.33.12-.49.48-.37.81.09.25.33.4.59.4a.621.621 0 0 0 .58-.84.618.618 0 0 0-.8-.37Zm8.389-15.35c.061.3.32.5.61.5.04 0 .09-.01.13-.02.34-.07.55-.4.481-.74a.62.62 0 0 0-.74-.48c-.34.07-.55.41-.48.74Zm.291 2.36c.01.34.29.61.62.61h.03a.626.626 0 1 0-.65-.61Zm-1-4.63c.1.24.33.39.58.39a.63.63 0 0 0 .58-.87.63.63 0 0 0-.82-.34c-.32.14-.47.5-.34.82Zm.221 11.26a.62.62 0 0 0-.851.25c-.17.3-.06.68.25.85.09.05.2.07.3.07.22 0 .43-.11.55-.32.16-.3.05-.68-.25-.85Zm1.359-4.78a.63.63 0 0 0-.71.53c-.05.34.19.66.53.71h.09c.3 0 .57-.22.62-.53a.63.63 0 0 0-.53-.71Zm-.47 2.45a.627.627 0 1 0-.2 1.22c.26 0 .51-.17.6-.43a.624.624 0 0 0-.4-.79Zm-3.07 4.55c-.21.27-.17.67.1.88.11.1.25.14.39.14.18 0 .36-.08.49-.23.21-.27.17-.66-.1-.88-.26-.22-.66-.17-.88.09Zm-1.649 1.72a.62.62 0 0 0 .408 1.09.62.62 0 0 0 .47-1.03.62.62 0 0 0-.879-.06Zm3.023-17.024c.006 0 .01.004.016.004s.011-.003.017-.004h.03c.016 0 .028-.007.044-.008l.033-.007a.618.618 0 0 0 .548-.61v-3.23a.625.625 0 0 0-1.25 0v1.386a14.56 14.56 0 0 0-11.22-5.242C9.935 3.375 3.374 9.935 3.374 18c0 8.053 6.543 14.605 14.593 14.623.01.001.02.007.03.007.08 0 .16-.02.24-.05.009-.003.013-.011.02-.014a.625.625 0 0 0 .318-.323l.002-.003a.69.69 0 0 0 .051-.24.592.592 0 0 0-.052-.238.624.624 0 0 0-.577-.387c-7.375 0-13.375-6-13.375-13.375S10.625 4.625 18 4.625c4.183 0 8.041 1.938 10.568 5.211h-1.952a.625.625 0 0 0 0 1.25h3.167Z"/>
</svg>
