<svg id="uuid-28e3cff8-ca19-4d93-9deb-c52507cb64b3" xmlns="http://www.w3.org/2000/svg" viewBox="0 0 36 36">
  <defs>
    <style>
      .uuid-918254b7-99fe-4b4b-b184-dcebddb13fe5{stroke-width:0}
    </style>
  </defs>
  <g id="uuid-1048b89a-502c-45e3-9523-efa30179f486">
    <path class="uuid-918254b7-99fe-4b4b-b184-dcebddb13fe5" d="M26 19.375a.625.625 0 0 0-.625.625v10.375H6.625V9.625H10c.345 0 .625-.28.625-.625V5.625h14.75V8a.625.625 0 0 0 1.25 0V5A.625.625 0 0 0 26 4.375H10c-.028 0-.052.013-.08.016a.59.59 0 0 0-.08.016.619.619 0 0 0-.28.15l-.002.001-4 4-.002.004a.619.619 0 0 0-.149.278.577.577 0 0 0-.016.08c-.004.027-.016.052-.016.08v22c0 .345.28.625.625.625h20c.345 0 .625-.28.625-.625V20a.625.625 0 0 0-.625-.625ZM9.375 6.509v1.866H7.509l1.866-1.866Z"/>
    <path class="uuid-918254b7-99fe-4b4b-b184-dcebddb13fe5" d="m31.442 10.558-2-2a.626.626 0 0 0-.884 0l-13 13c-.028.028-.04.062-.062.093-.022.032-.05.058-.067.095l-1.606 3.605a.627.627 0 0 0 .572.879.617.617 0 0 0 .253-.054l3.587-1.597h.001l.018-.008c.032-.015.054-.04.082-.059.036-.023.075-.039.106-.07l13-13a.626.626 0 0 0 0-.884ZM27 11.884 28.116 13 18 23.116 16.884 22 27 11.884ZM16.2 23.085l.714.714-1.287.573.573-1.287ZM29 12.115 27.883 11 29 9.884 30.116 11 29 12.116Z"/>
  </g>
</svg>
