<svg id="uuid-2a729785-26fd-4902-b69e-932182c5bec4" xmlns="http://www.w3.org/2000/svg" viewBox="0 0 36 36">
  <defs>
    <style>
      .uuid-931fcd98-7d4f-4a07-ba53-8698ee605e4e{stroke-width:0}
    </style>
  </defs>
  <g id="uuid-a1a2f1c7-ef9e-4aa8-8be5-4fa2360c947c">
    <path class="uuid-931fcd98-7d4f-4a07-ba53-8698ee605e4e" d="M27.92 4.59a.644.644 0 0 0-.47-.21H26c-.34 0-.62.28-.62.62v26c0 .34.28.62.62.62s.62-.28.62-.62v-9.38H31c.34 0 .62-.28.62-.62v-6.55c0-3.65-1.31-7.16-3.7-9.87v.01Zm2.45 15.79h-3.75V5.62h.54c2.07 2.45 3.21 5.58 3.21 8.83v5.93ZM12 4.38c-.34 0-.62.28-.62.62v7c0 1.31-1.07 2.38-2.38 2.38S6.62 13.31 6.62 12V5c0-.34-.28-.62-.62-.62s-.62.28-.62.62v7c0 1.78 1.3 3.26 3 3.56V31c0 .34.28.62.62.62s.62-.28.62-.62V15.56c1.7-.3 3-1.78 3-3.56V5c0-.34-.28-.62-.62-.62Z"/>
    <path class="uuid-931fcd98-7d4f-4a07-ba53-8698ee605e4e" d="M8 12.62c.34 0 .62-.28.62-.62V6c0-.34-.28-.62-.62-.62s-.62.28-.62.62v6c0 .34.28.62.62.62Zm2 0c.34 0 .62-.28.62-.62V6c0-.34-.28-.62-.62-.62s-.62.28-.62.62v6c0 .34.28.62.62.62Zm9-8.24c-2.03 0-3.62 2.47-3.62 5.62 0 2.82 1.28 5.09 3 5.54V31c0 .34.28.62.62.62s.62-.28.62-.62V15.54c1.72-.45 3-2.72 3-5.54 0-3.15-1.59-5.62-3.62-5.62Zm0 10c-1.29 0-2.38-2-2.38-4.38S17.71 5.62 19 5.62s2.38 2 2.38 4.38-1.09 4.38-2.38 4.38Z"/>
  </g>
</svg>
