<svg id="uuid-556996bd-7791-45a2-8f60-9491a74ee821" xmlns="http://www.w3.org/2000/svg" viewBox="0 0 36 36">
  <defs>
    <style>
      .uuid-0b0e3a68-899c-4dad-b2fa-e1d0b38c41dd{stroke-width:0}
    </style>
  </defs>
  <g id="uuid-a8a73fee-2627-4c99-a9a0-4286a72202eb">
    <path class="uuid-0b0e3a68-899c-4dad-b2fa-e1d0b38c41dd" d="M23.385 8.76a9.12 9.12 0 0 0-5.386 1.746 9.178 9.178 0 0 0-5.384-1.746c-5.095 0-9.24 4.145-9.24 9.24s4.145 9.24 9.24 9.24c2.01 0 3.866-.652 5.384-1.746a9.12 9.12 0 0 0 5.386 1.746c5.094 0 9.24-4.145 9.24-9.24s-4.146-9.24-9.24-9.24ZM4.625 18c0-4.406 3.584-7.99 7.99-7.99s7.99 3.584 7.99 7.99-3.584 7.99-7.99 7.99-7.99-3.584-7.99-7.99Zm18.76 7.99a7.889 7.889 0 0 1-4.392-1.32c1.76-1.684 2.862-4.049 2.862-6.67s-1.102-4.986-2.862-6.67a7.889 7.889 0 0 1 4.392-1.32c4.406 0 7.99 3.584 7.99 7.99s-3.584 7.99-7.99 7.99Z"/>
    <path class="uuid-0b0e3a68-899c-4dad-b2fa-e1d0b38c41dd" d="M15.4 18c0-.35-.29-.63-.63-.63a.625.625 0 0 0 0 1.25c.34 0 .63-.28.63-.62Zm-.44-1.94a.63.63 0 0 0 .79-.41c.1-.33-.09-.68-.42-.78a.622.622 0 1 0-.37 1.19Zm.95 6.26c-.29.19-.36.58-.17.87.12.17.32.27.52.27.12 0 .24-.03.35-.11.29-.19.36-.58.17-.87a.629.629 0 0 0-.87-.16Zm-.17-9.51a.63.63 0 0 0 .52.98.63.63 0 0 0 .35-1.15.629.629 0 0 0-.87.17Zm.01 7.54a.643.643 0 0 0-.79-.42.623.623 0 0 0 .19 1.22c.06 0 .12 0 .18-.02.33-.1.52-.45.42-.78Z"/>
  </g>
</svg>
