<svg id="uuid-7f30b0f9-29e9-4819-a361-ba9671a3a081" xmlns="http://www.w3.org/2000/svg" viewBox="0 0 36 36">
  <defs>
    <style>
      .uuid-993581b0-19d6-4f52-bf72-ed33919ceda2{stroke-width:0}
    </style>
  </defs>
  <g id="uuid-d3b3ec22-d96e-41d0-9b84-2adb5d19adb4">
    <path class="uuid-993581b0-19d6-4f52-bf72-ed33919ceda2" d="M31 14.71H10.986l19.616-4.169a.627.627 0 0 0 .481-.741l-.907-4.265a.624.624 0 0 0-.741-.482L4.003 10.46a.627.627 0 0 0-.481.741l.866 4.073c-.003.021-.013.04-.013.063v15c0 .345.28.625.625.625h26c.345 0 .625-.28.625-.625v-15A.625.625 0 0 0 31 14.71Zm-1.917-8.304.647 3.042-24.209 5.146-.647-3.042 24.209-5.146Zm1.292 23.304H5.625V15.96h24.75v13.75Z"/>
    <path class="uuid-993581b0-19d6-4f52-bf72-ed33919ceda2" d="M15.491 26.296a.622.622 0 0 0 .308-.081l5.017-2.836a.624.624 0 0 0 0-1.087L15.8 19.456a.625.625 0 0 0-.933.544v5.671a.627.627 0 0 0 .625.625Zm.625-5.225 3.122 1.764-3.122 1.765v-3.53Z"/>
  </g>
</svg>
