<svg id="uuid-44928fd6-049f-4234-8bb5-e33b28121c52" xmlns="http://www.w3.org/2000/svg" viewBox="0 0 36 36">
  <defs>
    <style>
      .uuid-0bd304a1-9784-4be9-986c-56ad94a6806c{stroke-width:0}
    </style>
  </defs>
  <g id="uuid-2170fab1-132a-40f2-b901-b8496f103117">
    <path class="uuid-0bd304a1-9784-4be9-986c-56ad94a6806c" d="M5.676 23.206c-.698-1.648-1.051-3.4-1.051-5.206s.353-3.558 1.05-5.206a13.33 13.33 0 0 1 2.867-4.251.626.626 0 0 0-.883-.885A14.588 14.588 0 0 0 3.375 18a14.587 14.587 0 0 0 4.284 10.342.622.622 0 0 0 .883 0 .626.626 0 0 0 0-.885 13.33 13.33 0 0 1-2.866-4.251Zm25.8-10.898a14.587 14.587 0 0 0-3.135-4.65.625.625 0 1 0-.884.885A13.33 13.33 0 0 1 31.375 18a13.33 13.33 0 0 1-3.918 9.457.626.626 0 0 0 .884.885A14.588 14.588 0 0 0 32.625 18c0-1.974-.387-3.89-1.15-5.692Z"/>
    <path class="uuid-0bd304a1-9784-4be9-986c-56ad94a6806c" d="M10.664 10.664a.626.626 0 0 0-.884-.885A11.596 11.596 0 0 0 6.375 18a11.597 11.597 0 0 0 3.405 8.22.622.622 0 0 0 .884 0 .626.626 0 0 0 0-.884A10.329 10.329 0 0 1 7.625 18a10.33 10.33 0 0 1 3.038-7.336ZM29.625 18a11.596 11.596 0 0 0-3.405-8.22.625.625 0 1 0-.884.884A10.329 10.329 0 0 1 28.375 18a10.33 10.33 0 0 1-3.039 7.336.626.626 0 0 0 .884.885A11.596 11.596 0 0 0 29.625 18Zm-5.933-2.428-2.067 1.169V15a.625.625 0 0 0-.625-.626h-9a.625.625 0 0 0-.625.625v6c0 .345.28.625.625.625h9c.345 0 .625-.28.625-.625v-1.74l2.067 1.168a.629.629 0 0 0 .623-.004.625.625 0 0 0 .31-.54v-3.768a.625.625 0 0 0-.933-.543Zm-11.067 4.803v-4.75h7.75v4.75h-7.75Zm10.75-1.563L21.937 18l1.438-.813v1.625Z"/>
  </g>
</svg>
