<svg id="uuid-86add309-af88-4436-9de7-b58cf46a5514" xmlns="http://www.w3.org/2000/svg" viewBox="0 0 36 36">
  <defs>
    <style>
      .uuid-841f1502-e9be-462d-8d23-58d517e5396a{stroke-width:0}
    </style>
  </defs>
  <g id="uuid-e4704a83-a879-45f6-b84d-b189cb6f0c60">
    <path class="uuid-841f1502-e9be-462d-8d23-58d517e5396a" d="M32.517 17.648C29.237 12.838 23.81 9.966 18 9.966S6.764 12.837 3.483 17.648a.626.626 0 0 0 0 .704c3.28 4.81 8.707 7.682 14.517 7.682s11.236-2.871 14.517-7.682a.626.626 0 0 0 0-.704ZM18 24.784A16.31 16.31 0 0 1 4.764 18a16.306 16.306 0 0 1 26.472 0A16.31 16.31 0 0 1 18 24.784Z"/>
    <path class="uuid-841f1502-e9be-462d-8d23-58d517e5396a" d="M18 13.375c-2.55 0-4.625 2.075-4.625 4.625S15.45 22.625 18 22.625 22.625 20.55 22.625 18 20.55 13.375 18 13.375Zm0 8c-1.861 0-3.375-1.514-3.375-3.375s1.514-3.375 3.375-3.375 3.375 1.514 3.375 3.375-1.514 3.375-3.375 3.375Z"/>
  </g>
</svg>
