<svg id="uuid-77ffd1e8-5381-4ce9-b71a-9c9b62f66f3c" xmlns="http://www.w3.org/2000/svg" viewBox="0 0 36 36">
  <defs>
    <style>
      .uuid-61e4bf2c-cc46-4c17-bb7a-992cccaf5d93{stroke-width:0}
    </style>
  </defs>
  <g id="uuid-ec0d777e-c0d8-4806-911a-cc875d3d009c">
    <path class="uuid-61e4bf2c-cc46-4c17-bb7a-992cccaf5d93" d="M23 30.38H5.62V5.62h24.76V22c0 .35.28.62.62.62s.62-.28.62-.62V5c0-.35-.28-.62-.62-.62H5c-.35 0-.62.28-.62.62v26c0 .35.28.62.62.62h18c.35 0 .62-.28.62-.62s-.28-.62-.62-.62Z"/>
    <path class="uuid-61e4bf2c-cc46-4c17-bb7a-992cccaf5d93" d="M15 9.38H9c-.35 0-.62.28-.62.62s.28.62.62.62h6c.35 0 .62-.28.62-.62s-.28-.62-.62-.62Zm12.58.38-.14-.2a.633.633 0 0 0-.68-.14l-.2.14-.14.2-.04.24c0 .16.06.33.18.44l.2.14.24.05c.16 0 .32-.07.44-.19.12-.11.19-.28.19-.44l-.05-.24ZM15 25.38H9c-.35 0-.62.28-.62.62s.28.62.62.62h6c.35 0 .62-.28.62-.62s-.28-.62-.62-.62Zm0-8H9c-.35 0-.62.28-.62.62s.28.62.62.62h6c.35 0 .62-.28.62-.62s-.28-.62-.62-.62Zm12.24.04a.662.662 0 0 0-.48 0l-.2.14c-.12.11-.18.28-.18.44l.04.24.14.2.2.14.24.04.24-.04.2-.14.14-.2.05-.24c0-.17-.07-.33-.19-.44l-.2-.14ZM24.38 28c0 2 1.63 3.62 3.62 3.62.45 0 .88-.09 1.28-.24l-4.9-4.9V28Zm6.79 1.73c.28-.52.46-1.1.46-1.73v-3.45a.63.63 0 0 0-.5-.61l-3-.64h-.26l-2.59.55-.38-.38c-.24-.24-.64-.24-.88 0s-.24.64 0 .88l.36.36 6 6 .45.45c.12.12.28.18.44.18s.32-.06.44-.18c.24-.24.24-.64 0-.88l-.55-.55h.01Zm2.77 3.33-.2-.14a.633.633 0 0 0-.68.14l-.14.2-.04.24.04.24.14.2.2.14.24.04.24-.04.2-.14c.12-.11.19-.27.19-.44l-.05-.24-.14-.2Zm-22.14-.19c-.35 0-.63.28-.63.63s.28.62.63.62.62-.28.62-.62-.28-.63-.62-.63Zm6.2 0c-.35 0-.62.28-.62.63s.27.62.62.62.63-.28.63-.62-.29-.63-.63-.63Zm-9.3 0c-.34 0-.62.28-.62.63s.28.62.62.62.63-.28.63-.62-.28-.63-.63-.63Zm12.4 0c-.34 0-.62.28-.62.63s.28.62.62.62.63-.28.63-.62-.28-.63-.63-.63Zm3.1 0c-.34 0-.62.28-.62.63s.28.62.62.62.63-.28.63-.62-.28-.63-.63-.63Zm6.2 0c-.34 0-.62.28-.62.63s.28.62.62.62.63-.28.63-.62-.28-.63-.63-.63Zm-15.5 0c-.34 0-.62.28-.62.63s.28.62.62.62.63-.28.63-.62-.28-.63-.63-.63Zm-9.3 0c-.34 0-.62.28-.62.63s.28.62.62.62.63-.28.63-.62-.28-.63-.63-.63Zm21.7 0c-.35 0-.63.28-.63.63s.28.62.63.62.62-.28.62-.62-.27-.63-.62-.63Zm-24.36.19-.2-.14a.662.662 0 0 0-.48 0l-.2.14-.14.2-.05.24.05.24.14.2c.11.12.27.18.44.18l.24-.04.2-.14.14-.2.05-.24-.05-.24-.14-.2ZM2.5 17.38c-.34 0-.62.28-.62.62s.28.63.62.63.63-.28.63-.63-.29-.62-.63-.62Zm0 6.2c-.34 0-.62.27-.62.62s.28.63.62.63.63-.28.63-.63-.29-.62-.63-.62Zm0 3.1c-.34 0-.62.28-.62.62s.28.63.62.63.63-.28.63-.63-.29-.62-.63-.62Zm0-6.21c-.34 0-.62.29-.62.63s.28.62.62.62.63-.27.63-.62-.29-.63-.63-.63Zm0 9.3c-.34 0-.62.29-.62.63s.28.62.62.62.63-.27.63-.62-.29-.63-.63-.63Zm0-21.7c-.34 0-.62.29-.62.63s.28.62.62.62.63-.27.63-.62-.29-.63-.63-.63Zm0 3.1c-.34 0-.62.28-.62.63s.28.62.62.62.63-.27.63-.62-.29-.63-.63-.63Zm0 3.11c-.34 0-.62.27-.62.62s.28.63.62.63.63-.28.63-.63-.29-.62-.63-.62Zm0-9.3c-.34 0-.62.27-.62.62s.28.63.62.63.63-.28.63-.63-.29-.62-.63-.62Zm.44-2.92-.2-.14a.662.662 0 0 0-.48 0l-.2.14-.14.2-.05.24.05.24.14.2c.11.12.27.18.44.18l.24-.04.2-.14.14-.2.05-.24-.05-.24-.14-.2Zm20.64.44c0 .35.28.62.62.62a.625.625 0 1 0-.62-.62Zm4.35 0c0-.34-.28-.63-.63-.63a.625.625 0 1 0 .63.63Zm-7.45 0c0 .35.28.62.62.62a.625.625 0 1 0-.62-.62Zm-6.2 0c0 .35.28.62.62.62a.625.625 0 1 0-.62-.62Zm-6.2 0c0 .35.28.62.62.62a.625.625 0 1 0-.62-.62Zm9.3 0c0 .35.27.62.62.62s.63-.27.63-.62-.29-.63-.63-.63-.62.29-.62.63Zm-6.2 0c0 .35.28.62.62.62a.625.625 0 1 0-.62-.62Zm-6.2 0c0 .35.28.62.62.62a.625.625 0 1 0-.62-.62Zm26.05 0c0-.34-.28-.63-.63-.63a.625.625 0 1 0 .63.63Zm2.71-.58a.633.633 0 0 0-.68.14l-.14.2-.04.24.04.24.14.2c.12.12.28.19.44.19l.24-.05.2-.14c.12-.11.19-.27.19-.44 0-.16-.07-.33-.19-.44l-.2-.14Zm-.24 24.75c-.35 0-.63.29-.63.63s.28.63.63.63.63-.28.63-.63-.28-.63-.63-.63Zm0-9.29c-.35 0-.63.28-.63.62s.28.62.63.62a.619.619 0 1 0 0-1.24Zm0 6.2c-.35 0-.63.27-.63.62s.28.63.63.63.63-.29.63-.63-.28-.62-.63-.62Zm0-9.3c-.35 0-.63.28-.63.62s.28.63.63.63.63-.28.63-.63-.28-.62-.63-.62Zm0 6.2c-.35 0-.63.27-.63.62s.28.63.63.63.63-.28.63-.63-.28-.62-.63-.62Zm0-15.5c-.35 0-.63.27-.63.62s.28.63.63.63.63-.29.63-.63-.28-.62-.63-.62Zm0 3.09c-.35 0-.63.28-.63.63s.28.63.63.63.63-.28.63-.63-.28-.63-.63-.63Zm0 3.11c-.35 0-.63.28-.63.62s.28.63.63.63.63-.28.63-.63-.28-.62-.63-.62Zm0 18.6c-.35 0-.63.28-.63.62s.28.63.63.63.63-.28.63-.63-.28-.62-.63-.62Z"/>
  </g>
</svg>
