<svg id="uuid-b6539b75-3156-4f1d-a924-f1da7c88479b" xmlns="http://www.w3.org/2000/svg" viewBox="0 0 36 36">
  <defs>
    <style>
      .uuid-468b42ab-2dbb-4f15-9735-6531c3ad7814{stroke-width:0}
    </style>
  </defs>
  <g id="uuid-3f931b9d-ebdd-461b-ada8-a08f2ba309d3">
    <path class="uuid-468b42ab-2dbb-4f15-9735-6531c3ad7814" d="M23 23.62c.35 0 .62-.28.62-.62s-.28-.62-.62-.62H5.62v-8.76h24.76V18c0 .35.28.62.62.62s.62-.28.62-.62v-5c0-.35-.28-.62-.62-.62H5c-.35 0-.62.28-.62.62v10c0 .35.28.62.62.62h18Z"/>
    <path class="uuid-468b42ab-2dbb-4f15-9735-6531c3ad7814" d="M9 17.38c-.35 0-.62.28-.62.62s.28.62.62.62h6c.35 0 .62-.28.62-.62s-.28-.62-.62-.62H9Zm17.56.18c-.12.11-.18.28-.18.44s.06.33.18.44c.12.12.28.19.44.19s.33-.07.44-.19c.12-.12.19-.28.19-.44s-.07-.32-.19-.44c-.23-.24-.65-.23-.88 0Zm5.57 2.83-3-.64h-.26l-3 .64a.63.63 0 0 0-.5.61v3.45c0 2 1.63 3.62 3.62 3.62s3.62-1.63 3.62-3.62V21a.63.63 0 0 0-.5-.61h.02Zm-9.57 4.68-.14.2-.04.24c0 .17.06.33.18.44.12.12.28.19.44.19.17 0 .33-.07.44-.19.12-.11.19-.27.19-.44 0-.16-.07-.32-.19-.44a.647.647 0 0 0-.88 0Zm-14.2-.18c-.35 0-.63.28-.63.62s.28.63.63.63.62-.28.62-.63-.28-.62-.62-.62Zm2.92 0c-.34 0-.62.28-.62.62s.28.63.62.63.63-.28.63-.63-.28-.62-.63-.62Zm2.93 0c-.34 0-.62.28-.62.62s.28.63.62.63.63-.28.63-.63-.28-.62-.63-.62Zm5.86 0c-.34 0-.62.28-.62.62s.28.63.62.63.63-.28.63-.63-.28-.62-.63-.62Zm-14.64 0c-.35 0-.63.28-.63.62s.28.63.63.63.62-.28.62-.63-.28-.62-.62-.62Zm11.71 0c-.34 0-.62.28-.62.62s.28.63.62.63.63-.28.63-.63-.28-.62-.63-.62Zm-14.88.04-.21.14-.13.2-.05.24.05.24.13.2.21.14.24.05c.16 0 .32-.07.44-.19l.13-.2.05-.24a.62.62 0 0 0-.18-.44.637.637 0 0 0-.68-.14Zm.24-6.05c-.35 0-.63.28-.63.62s.28.63.63.63.62-.28.62-.63-.28-.62-.62-.62Zm0-6.01c-.35 0-.63.28-.63.62s.28.63.63.63.62-.28.62-.63-.28-.62-.62-.62Zm0 3c-.35 0-.63.28-.63.63s.28.62.63.62.62-.28.62-.62-.28-.63-.62-.63Zm0 6.01c-.35 0-.63.28-.63.63s.28.62.63.62.62-.28.62-.62-.28-.63-.62-.63Zm.44-11.83-.2-.14a.662.662 0 0 0-.48 0l-.21.14-.13.2-.05.24.05.24.13.2.21.14.24.04.24-.04.2-.14a.62.62 0 0 0 .18-.44l-.05-.24-.13-.2Zm26.84.44c0 .35.28.63.62.63s.63-.28.63-.63-.28-.63-.63-.63-.62.28-.62.63Zm-15.51 0c0 .35.28.63.63.63s.62-.28.62-.63-.28-.63-.62-.63-.63.28-.63.63Zm-3.1 0c0 .35.28.63.63.63s.62-.28.62-.63-.27-.63-.62-.63-.63.28-.63.63Zm15.51 0c0 .35.28.63.62.63s.63-.28.63-.63-.28-.63-.63-.63-.62.28-.62.63Zm-6.2 0c0 .35.28.63.62.63s.63-.28.63-.63-.28-.63-.63-.63-.62.28-.62.63Zm-15.51 0c0 .35.28.63.63.63s.62-.28.62-.63-.28-.63-.62-.63-.63.28-.63.63Zm3.1 0c0 .35.28.63.63.63s.62-.28.62-.63-.28-.63-.62-.63-.63.28-.63.63Zm9.31 0c0 .35.28.63.62.63s.63-.28.63-.63-.28-.63-.63-.63-.62.28-.62.63Zm6.2 0c0 .35.28.63.62.63s.63-.28.63-.63-.28-.63-.63-.63-.62.28-.62.63Zm9.48-.44c-.11.11-.18.27-.18.44 0 .16.07.32.18.44.12.12.28.19.44.19.17 0 .33-.07.44-.19.12-.12.19-.28.19-.44 0-.17-.07-.33-.19-.44-.22-.23-.65-.23-.88 0Zm.44 2.65c-.34 0-.62.28-.62.63s.28.62.62.62.63-.28.63-.62-.28-.63-.63-.63Zm0 2.84c-.34 0-.62.28-.62.62s.28.63.62.63.63-.28.63-.63-.28-.62-.63-.62Zm-.44 3.02a.628.628 0 0 0 .44 1.07c.17 0 .33-.07.44-.19.12-.11.19-.28.19-.44 0-.17-.07-.33-.19-.44-.22-.23-.65-.23-.88 0Z"/>
  </g>
</svg>
