<svg id="uuid-cdafc860-cada-43fb-ae35-53fdce89e939" xmlns="http://www.w3.org/2000/svg" viewBox="0 0 36 36">
  <defs>
    <style>
      .uuid-9738b223-bd0c-4088-9f44-3f2fdfcf313d{stroke-width:0}
    </style>
  </defs>
  <g id="uuid-66cfa768-d9a4-4eff-93bb-047b20580d67">
    <path class="uuid-9738b223-bd0c-4088-9f44-3f2fdfcf313d" d="M6 27.625h24c.345 0 .625-.28.625-.625V12a.625.625 0 0 0-.625-.625h-5a.625.625 0 1 0 0 1.25h4.375v13.75h-1.813a4.112 4.112 0 0 0-2.196-3.033 2.615 2.615 0 0 0 .76-1.842c0-1.447-1.179-2.625-2.626-2.625s-2.625 1.178-2.625 2.625c0 .718.29 1.368.76 1.842a4.111 4.111 0 0 0-2.197 3.033h-2.876a4.112 4.112 0 0 0-2.196-3.033 2.615 2.615 0 0 0 .76-1.842c0-1.447-1.178-2.625-2.626-2.625S9.875 20.053 9.875 21.5c0 .718.29 1.368.76 1.842a4.111 4.111 0 0 0-2.196 3.033H6.625v-13.75H11a.625.625 0 1 0 0-1.25H6a.625.625 0 0 0-.625.625v15c0 .345.28.625.625.625ZM22.125 21.5c0-.758.617-1.375 1.375-1.375s1.375.617 1.375 1.375-.617 1.375-1.375 1.375-1.375-.617-1.375-1.375Zm1.375 2.625c1.37 0 2.515.965 2.802 2.25h-5.604a2.877 2.877 0 0 1 2.802-2.25ZM11.125 21.5c0-.758.617-1.375 1.375-1.375s1.375.617 1.375 1.375-.617 1.375-1.375 1.375-1.375-.617-1.375-1.375Zm1.375 2.625c1.37 0 2.515.965 2.802 2.25H9.698a2.877 2.877 0 0 1 2.802-2.25Zm19.5 5.25H4a.625.625 0 1 0 0 1.25h28a.625.625 0 1 0 0-1.25Z"/>
    <path class="uuid-9738b223-bd0c-4088-9f44-3f2fdfcf313d" d="M15.069 16.414c.195.586.741.98 1.36.98h3.143a1.43 1.43 0 0 0 1.359-.98l.869-2.606a5.048 5.048 0 0 0 1.282-3.351c0-2.802-2.28-5.082-5.082-5.082s-5.081 2.28-5.081 5.082c0 1.245.461 2.423 1.281 3.351l.869 2.606Zm4.676-.395a.183.183 0 0 1-.173.125h-3.144a.183.183 0 0 1-.173-.125l-.619-1.855h4.728l-.619 1.855ZM18 6.625a3.836 3.836 0 0 1 3.832 3.832 3.8 3.8 0 0 1-.912 2.457h-5.84a3.8 3.8 0 0 1-.912-2.457A3.836 3.836 0 0 1 18 6.625Zm1 11.75h-2a.625.625 0 1 0 0 1.25h2a.625.625 0 1 0 0-1.25Z"/>
  </g>
</svg>
