<svg id="uuid-d89fb3ee-9b91-48b6-8fcf-f4e104bb955b" xmlns="http://www.w3.org/2000/svg" viewBox="0 0 36 36">
  <defs>
    <style>
      .uuid-3422b59d-693d-4919-873e-94c9008d3e3a{stroke-width:0}
    </style>
  </defs>
  <g id="uuid-067e3213-e6c0-4583-bcee-2a1a90073334">
    <path class="uuid-3422b59d-693d-4919-873e-94c9008d3e3a" d="M31 4.38H5c-.35 0-.62.28-.62.62v26c0 .35.28.62.62.62h26c.35 0 .62-.28.62-.62V5c0-.35-.28-.62-.62-.62Zm-.62 26H5.62V5.62h24.76v24.76Z"/>
    <path class="uuid-3422b59d-693d-4919-873e-94c9008d3e3a" d="M9 10.62h6c.35 0 .62-.28.62-.62s-.28-.62-.62-.62H9c-.35 0-.62.28-.62.62s.28.62.62.62Zm18 .01.24-.05.2-.14c.12-.11.19-.27.19-.44l-.05-.24-.14-.2-.2-.14a.633.633 0 0 0-.68.14l-.14.2-.04.24c0 .17.06.33.18.44.12.12.28.19.44.19ZM9 26.62h6c.35 0 .62-.28.62-.62s-.28-.62-.62-.62H9c-.35 0-.62.28-.62.62s.28.62.62.62Zm18 0 .24-.04.2-.14c.12-.11.19-.28.19-.44s-.07-.33-.19-.44l-.2-.14a.652.652 0 0 0-.68.14c-.12.11-.18.28-.18.44s.06.33.18.44c.11.12.28.18.44.18Zm-18-8h6c.35 0 .62-.28.62-.62s-.28-.62-.62-.62H9c-.35 0-.62.28-.62.62s.28.62.62.62Zm18 .01.24-.05.2-.14c.12-.11.19-.28.19-.44s-.07-.33-.19-.44l-.2-.14a.633.633 0 0 0-.68.14c-.12.11-.18.28-.18.44s.06.33.18.44c.11.12.28.19.44.19Zm6.26 14.29-.2.14c-.12.11-.18.28-.18.44 0 .17.06.33.18.44l.2.14.24.05c.17 0 .33-.07.44-.19.12-.11.19-.27.19-.44 0-.16-.07-.33-.19-.44a.633.633 0 0 0-.68-.14Zm-21.46-.04c-.34 0-.63.28-.63.62s.29.62.63.62.63-.27.63-.62-.28-.62-.63-.62Zm12.4 0c-.35 0-.62.28-.62.62s.27.62.62.62.62-.27.62-.62-.27-.62-.62-.62Zm-3.1 0c-.34 0-.62.28-.62.62s.28.62.62.62.63-.27.63-.62-.28-.62-.63-.62Zm-3.1 0c-.34 0-.62.28-.62.62s.28.62.62.62.63-.27.63-.62-.28-.62-.63-.62Zm-9.3 0c-.35 0-.62.28-.62.62s.27.62.62.62.62-.27.62-.62-.27-.62-.62-.62Zm6.2 0c-.35 0-.62.28-.62.62s.27.62.62.62a.619.619 0 1 0 0-1.24Zm15.5 0c-.35 0-.62.28-.62.62s.27.62.62.62a.619.619 0 1 0 0-1.24Zm-24.8 0c-.34 0-.62.28-.62.62s.28.62.62.62.63-.27.63-.62-.28-.62-.63-.62Zm21.7 0c-.34 0-.63.28-.63.62s.29.62.63.62.63-.27.63-.62-.28-.62-.63-.62Zm-24.36.18c-.23-.24-.65-.23-.88 0l-.14.2-.04.24c0 .17.06.33.18.44l.2.14.24.05.24-.05.2-.14c.12-.11.19-.27.19-.44l-.05-.24-.14-.2Zm-.44-6.38c-.34 0-.62.28-.62.62s.28.62.62.62.63-.27.63-.62-.28-.62-.63-.62Zm0-9.31c-.34 0-.62.29-.62.63s.28.62.62.62a.625.625 0 1 0 0-1.25Zm0 3.11c-.34 0-.62.27-.62.62s.28.63.62.63.63-.28.63-.63-.28-.62-.63-.62Zm0-6.21c-.34 0-.62.29-.62.63s.28.62.62.62a.625.625 0 1 0 0-1.25Zm0 9.31c-.34 0-.62.27-.62.62s.28.63.62.63.63-.29.63-.63-.28-.62-.63-.62Zm0 6.19c-.34 0-.62.29-.62.63s.28.62.62.62a.625.625 0 1 0 0-1.25Zm0-18.59c-.34 0-.62.28-.62.62s.28.63.62.63.63-.28.63-.63-.28-.62-.63-.62Zm0-6.2c-.34 0-.62.28-.62.62s.28.63.62.63.63-.28.63-.63-.28-.62-.63-.62Zm0 3.1c-.34 0-.62.27-.62.62s.28.63.62.63.63-.28.63-.63-.28-.62-.63-.62Zm.44-6.02c-.23-.24-.65-.23-.88 0l-.14.2-.04.24.04.24.14.2.2.14.24.05.24-.05.2-.14.14-.2.05-.24-.05-.24-.14-.2ZM24.2 3.12a.619.619 0 1 0 0-1.24c-.35 0-.62.28-.62.62s.27.62.62.62Zm3.1 0a.619.619 0 1 0 0-1.24c-.35 0-.63.28-.63.62s.29.62.63.62Zm3.1 0a.619.619 0 1 0 0-1.24c-.35 0-.62.28-.62.62s.27.62.62.62Zm-12.4 0a.619.619 0 1 0 0-1.24c-.35 0-.62.28-.62.62s.28.62.62.62ZM4.98 2.5c0 .35.28.62.62.62s.63-.27.63-.62-.28-.62-.63-.62-.62.28-.62.62Zm3.1 0c0 .35.27.62.62.62a.619.619 0 1 0 0-1.24c-.35 0-.62.28-.62.62Zm6.2 0c0 .35.27.62.62.62a.619.619 0 1 0 0-1.24c-.35 0-.62.28-.62.62Zm-2.48.62a.619.619 0 1 0 0-1.24c-.35 0-.63.28-.63.62s.29.62.63.62Zm9.3 0a.619.619 0 1 0 0-1.24c-.35 0-.62.28-.62.62s.28.62.62.62Zm12.16-1.2-.2.14c-.12.11-.18.28-.18.44 0 .17.06.33.18.44l.2.14.24.05c.17 0 .33-.07.44-.19.12-.11.19-.27.19-.44 0-.16-.07-.33-.19-.44a.633.633 0 0 0-.68-.14Zm.24 9.25c-.35 0-.62.29-.62.63s.27.63.62.63.63-.28.63-.63-.28-.63-.63-.63Zm0-3.09c-.35 0-.62.28-.62.62a.625.625 0 1 0 .62-.62Zm0 6.19c-.35 0-.62.29-.62.63s.27.63.62.63.63-.29.63-.63-.28-.63-.63-.63Zm0-9.29c-.35 0-.62.28-.62.62a.625.625 0 1 0 .62-.62Zm0 21.69c-.35 0-.62.29-.62.63s.27.63.62.63.63-.28.63-.63-.28-.63-.63-.63Zm0-6.19c-.35 0-.62.28-.62.62a.625.625 0 1 0 .62-.62Zm0 9.29c-.35 0-.62.29-.62.63s.27.63.62.63.63-.29.63-.63-.28-.63-.63-.63Zm0-6.19c-.35 0-.62.28-.62.62a.625.625 0 1 0 .62-.62Zm0-6.21c-.35 0-.62.29-.62.63s.27.63.62.63.63-.29.63-.63-.28-.63-.63-.63Z"/>
  </g>
</svg>
