<svg id="uuid-11cd900e-5927-4600-a1b4-ce6a5902b604" xmlns="http://www.w3.org/2000/svg" viewBox="0 0 36 36">
  <defs>
    <style>
      .uuid-41170bf6-f14a-4460-a179-8a2d613e37f6{stroke-width:0}
    </style>
  </defs>
  <g id="uuid-fb9ae828-9f1a-4683-b6eb-e95ac1a19eba">
    <path class="uuid-41170bf6-f14a-4460-a179-8a2d613e37f6" d="M31 4.38H5c-.35 0-.62.28-.62.62v26c0 .35.28.62.62.62h18c.35 0 .62-.28.62-.62s-.28-.62-.62-.62H5.62V5.62h24.76V22c0 .35.28.62.62.62s.62-.28.62-.62V5c0-.35-.28-.62-.62-.62Z"/>
    <path class="uuid-41170bf6-f14a-4460-a179-8a2d613e37f6" d="M15 9.38H9c-.35 0-.62.28-.62.62s.28.62.62.62h6c.35 0 .62-.28.62-.62s-.28-.62-.62-.62Zm11.56 1.06c.11.12.28.19.44.19l.24-.05.2-.14.14-.2.05-.24-.05-.24-.14-.2-.2-.14a.633.633 0 0 0-.68.14l-.14.2-.04.24.04.24.14.2ZM15 25.38H9c-.35 0-.62.28-.62.62s.28.62.62.62h6c.35 0 .62-.28.62-.62s-.28-.62-.62-.62Zm0-8H9c-.35 0-.62.28-.62.62s.28.62.62.62h6c.35 0 .62-.28.62-.62s-.28-.62-.62-.62Zm11.56 1.06c.11.12.28.19.44.19l.24-.05.2-.14c.12-.11.19-.27.19-.44l-.05-.24-.14-.2-.2-.14a.633.633 0 0 0-.68.14l-.14.2-.04.24c0 .17.06.33.18.44Zm4.57 5.5-3-.64h-.26l-3 .64a.63.63 0 0 0-.5.61V28c0 2 1.63 3.62 3.62 3.62s3.62-1.63 3.62-3.62v-3.45a.63.63 0 0 0-.5-.61h.02Zm2.13 8.98-.2.14c-.12.11-.18.28-.18.44l.04.24.14.2.2.14.24.05c.17 0 .33-.07.44-.19l.14-.2.05-.24c0-.16-.07-.33-.19-.44a.652.652 0 0 0-.68-.14ZM18 32.88c-.35 0-.62.28-.62.62s.27.62.62.62a.619.619 0 1 0 0-1.24Zm-6.2 0c-.35 0-.62.28-.62.62s.27.62.62.62a.619.619 0 1 0 0-1.24Zm9.3 0c-.35 0-.62.28-.62.62s.27.62.62.62a.619.619 0 1 0 0-1.24Zm-15.5 0c-.35 0-.62.28-.62.62s.27.62.62.62a.619.619 0 1 0 0-1.24Zm3.1 0c-.35 0-.62.28-.62.62s.27.62.62.62a.619.619 0 1 0 0-1.24Zm21.7 0c-.34 0-.63.28-.63.62s.29.62.63.62.63-.27.63-.62-.28-.62-.63-.62Zm-6.2 0c-.35 0-.63.28-.63.62s.28.62.63.62a.619.619 0 1 0 0-1.24Zm3.1 0c-.34 0-.63.28-.63.62s.29.62.63.62.63-.27.63-.62-.28-.62-.63-.62Zm-12.4 0c-.35 0-.62.28-.62.62s.27.62.62.62a.619.619 0 1 0 0-1.24Zm-12.84.18c-.12.11-.18.28-.18.44 0 .17.06.33.18.44.12.12.28.18.44.18.17 0 .33-.06.44-.18.12-.11.19-.27.19-.44 0-.16-.07-.33-.19-.44-.23-.23-.65-.24-.88 0Zm.44-3.28c-.34 0-.62.28-.62.62s.28.62.62.62.63-.27.63-.62-.28-.62-.63-.62Zm0-3.1c-.34 0-.62.28-.62.62s.28.63.62.63.63-.28.63-.63-.28-.62-.63-.62Zm0-3.11c-.34 0-.62.28-.62.63s.28.63.62.63.63-.28.63-.63-.28-.63-.63-.63Zm0-18.59c-.34 0-.62.28-.62.62s.28.63.62.63.63-.28.63-.63-.28-.62-.63-.62Zm0 15.5c-.34 0-.62.27-.62.62s.28.63.62.63.63-.29.63-.63-.28-.62-.63-.62Zm0-6.21c-.34 0-.62.28-.62.63s.28.63.62.63.63-.28.63-.63-.28-.63-.63-.63Zm0-6.19c-.34 0-.62.28-.62.62s.28.63.62.63.63-.28.63-.63-.28-.62-.63-.62Zm0 9.3c-.34 0-.62.28-.62.62s.28.62.62.62.63-.27.63-.62-.28-.62-.63-.62Zm0-6.2c-.34 0-.62.28-.62.62s.28.62.62.62.63-.27.63-.62-.28-.62-.63-.62Zm-.44-9.12c-.12.11-.18.28-.18.44 0 .17.06.33.18.44.12.12.28.18.44.18s.33-.06.44-.18c.12-.11.19-.27.19-.44 0-.16-.07-.33-.19-.44-.23-.23-.65-.24-.88 0Zm25.87.44c0-.34-.28-.63-.63-.63s-.62.29-.62.63.28.63.62.63.63-.28.63-.63Zm-3.1 0c0-.34-.28-.63-.63-.63s-.62.29-.62.63.27.63.62.63.63-.28.63-.63Zm-3.1 0c0-.34-.28-.63-.63-.63s-.62.29-.62.63.27.63.62.63.63-.28.63-.63Zm-3.1 0c0-.34-.28-.63-.63-.63s-.62.29-.62.63.27.63.62.63.63-.28.63-.63Zm-3.1 0c0-.34-.28-.63-.63-.63s-.62.29-.62.63.27.63.62.63.63-.28.63-.63Zm-9.93.63c.35 0 .63-.28.63-.63s-.28-.63-.63-.63-.62.29-.62.63.27.63.62.63Zm25.43-.63c0-.34-.28-.63-.63-.63s-.63.29-.63.63.29.63.63.63.63-.28.63-.63Zm-21.7 0c0-.34-.28-.63-.63-.63s-.62.29-.62.63.27.63.62.63.63-.28.63-.63Zm3.1 0c0-.34-.28-.63-.63-.63s-.62.29-.62.63.27.63.62.63.63-.28.63-.63Zm21.51-.44c-.22-.23-.65-.23-.88 0l-.14.2-.04.24c0 .17.06.33.18.44l.2.14.24.04c.17 0 .33-.06.44-.18.12-.11.19-.27.19-.44l-.05-.24-.14-.2Zm-.44 21.52c-.35 0-.62.28-.62.62s.27.63.62.63.63-.29.63-.63-.29-.62-.63-.62Zm0-6.21c-.35 0-.62.29-.62.63s.27.62.62.62.63-.27.63-.62-.29-.63-.63-.63Zm0 12.41c-.35 0-.62.28-.62.62a.625.625 0 1 0 .62-.62Zm0-3.11c-.35 0-.62.29-.62.63s.27.62.62.62.63-.27.63-.62-.29-.63-.63-.63Zm0-12.39c-.35 0-.62.27-.62.62s.27.63.62.63.63-.28.63-.63-.29-.62-.63-.62Zm0 6.2c-.35 0-.62.28-.62.62a.625.625 0 1 0 .62-.62Zm0-9.3c-.35 0-.62.28-.62.62a.625.625 0 1 0 .62-.62Zm0-6.2c-.35 0-.62.27-.62.62s.27.63.62.63.63-.28.63-.63-.29-.62-.63-.62Zm0 3.1c-.35 0-.62.28-.62.62a.625.625 0 1 0 .62-.62Z"/>
  </g>
</svg>
