<svg id="uuid-747aa50c-9cef-41de-9bca-0de7557853ee" xmlns="http://www.w3.org/2000/svg" viewBox="0 0 36 36">
  <defs>
    <style>
      .uuid-d6500834-f979-4901-afdb-007d5d38369e{stroke-width:0}
    </style>
  </defs>
  <g id="uuid-6a2033d2-e5fc-4efe-adf4-775e1401e8e6">
    <path class="uuid-d6500834-f979-4901-afdb-007d5d38369e" d="M23 23.62c.35 0 .62-.28.62-.62s-.28-.62-.62-.62H5.62v-8.76h24.76V18c0 .35.28.62.62.62s.62-.28.62-.62v-5c0-.35-.28-.62-.62-.62H5c-.35 0-.62.28-.62.62v10c0 .35.28.62.62.62h18Z"/>
    <path class="uuid-d6500834-f979-4901-afdb-007d5d38369e" d="M9 17.38c-.35 0-.62.28-.62.62s.28.62.62.62h6c.35 0 .62-.28.62-.62s-.28-.62-.62-.62H9Zm17.56.18c-.12.11-.18.27-.18.44l.04.24.14.2.2.14.24.04c.17 0 .33-.06.44-.18l.14-.2.05-.24c0-.17-.07-.33-.19-.44l-.2-.14a.652.652 0 0 0-.68.14Zm-1.19 6.89c0 2 1.63 3.62 3.62 3.62.45 0 .88-.09 1.28-.24l-4.9-4.9v1.52Zm6.79 1.74c.28-.52.46-1.1.46-1.73v-3.45a.63.63 0 0 0-.5-.61l-3-.64h-.26l-2.59.55-.38-.38c-.24-.24-.64-.24-.88 0s-.24.64 0 .88l.36.36 6 6 .45.45c.12.12.28.18.44.18s.32-.06.44-.18c.24-.24.24-.64 0-.88l-.55-.55h.01Zm-8.72-1.12a.647.647 0 0 0-.88 0l-.14.2-.04.24.04.24.14.2c.11.12.27.19.44.19s.33-.07.44-.19l.14-.2.05-.24-.05-.24-.14-.2Zm-6.3-.18c-.34 0-.62.28-.62.62s.28.63.62.63.63-.28.63-.63-.28-.62-.63-.62Zm-2.93 0c-.34 0-.62.28-.62.62s.28.63.62.63.63-.28.63-.63-.28-.62-.63-.62Zm-2.92 0c-.35 0-.63.28-.63.62s.28.63.63.63.62-.28.62-.63-.28-.62-.62-.62Zm-2.93 0c-.35 0-.63.28-.63.62s.28.63.63.63.62-.28.62-.63-.28-.62-.62-.62Zm11.71 0c-.34 0-.62.28-.62.62s.28.63.62.63.63-.28.63-.63-.28-.62-.63-.62Zm-14.64 0c-.35 0-.63.28-.63.62s.28.63.63.63.62-.28.62-.63-.28-.62-.62-.62Zm-2.49.18c-.23-.23-.66-.23-.88 0l-.14.2-.05.24c0 .17.07.33.19.44.11.12.27.19.44.19.16 0 .32-.07.44-.19.12-.11.18-.27.18-.44l-.05-.24-.13-.2Zm-.44-6.19c-.35 0-.63.28-.63.62s.28.63.63.63.62-.28.62-.63-.28-.62-.62-.62Zm0 3c-.35 0-.63.28-.63.63s.28.62.63.62.62-.28.62-.62-.28-.63-.62-.63Zm0-6.01c-.35 0-.63.28-.63.63s.28.62.63.62.62-.28.62-.62-.28-.63-.62-.63Zm0-3c-.35 0-.63.28-.63.62s.28.63.63.63.62-.28.62-.63-.28-.62-.62-.62Zm-.44-2.82c-.12.11-.19.27-.19.44 0 .16.07.33.19.44.11.12.27.19.44.19a.631.631 0 0 0 .44-1.07c-.23-.24-.66-.23-.88 0Z"/>
    <circle class="uuid-d6500834-f979-4901-afdb-007d5d38369e" cx="11.8" cy="10.49" r=".62"/>
    <path class="uuid-d6500834-f979-4901-afdb-007d5d38369e" d="M14.27 10.49c0 .35.28.62.63.62s.62-.27.62-.62-.28-.62-.62-.62-.63.28-.63.62Zm12.41 0c0 .35.28.62.62.62s.63-.27.63-.62-.28-.62-.63-.62-.62.28-.62.62Zm-3.1 0c0 .35.28.62.62.62s.63-.27.63-.62-.28-.62-.63-.62-.62.28-.62.62Zm-6.2 0c0 .35.28.62.62.62s.63-.27.63-.62-.28-.62-.63-.62-.62.28-.62.62Zm3.1 0c0 .35.28.62.62.62s.63-.27.63-.62-.28-.62-.63-.62-.62.28-.62.62Zm9.92-.62c-.34 0-.62.28-.62.62s.28.62.62.62.63-.27.63-.62-.28-.62-.63-.62Zm-22.33.62c0 .35.28.62.63.62s.62-.27.62-.62-.28-.62-.62-.62-.63.28-.63.62Zm-3.1 0c0 .35.28.62.63.62s.62-.27.62-.62-.28-.62-.62-.62-.63.28-.63.62Zm28.98-.44a.657.657 0 0 0-.68-.14l-.21.14-.13.2-.05.24.05.24.13.2.21.14.23.04c.17 0 .33-.06.45-.18l.13-.2.05-.24-.05-.24-.13-.2Zm-.45 5.49c-.34 0-.62.28-.62.62s.28.63.62.63.63-.28.63-.63-.28-.62-.63-.62Zm0-2.84c-.34 0-.62.28-.62.63s.28.62.62.62.63-.28.63-.62-.28-.63-.63-.63Zm.45 5.86a.657.657 0 0 0-.68-.14l-.21.14-.13.2-.05.24.05.24.13.2.21.14.23.04c.17 0 .33-.06.45-.18l.13-.2.05-.24-.05-.24-.13-.2Z"/>
  </g>
</svg>
