<svg xmlns="http://www.w3.org/2000/svg" viewBox="0 0 36 36">
  <path d="M2.53 25.06c-.34.09-.53.43-.45.77.08.28.33.46.61.46l.16-.02c.33-.09.53-.43.44-.76a.628.628 0 0 0-.76-.45ZM4.26 8.48c.21-.28.14-.67-.14-.87a.623.623 0 1 0 .14.87Zm-.6 19.31c-.27.22-.31.61-.09.88.12.15.3.23.49.23.14 0 .27-.05.39-.14.27-.22.31-.61.09-.88a.622.622 0 0 0-.88-.09ZM2.5 17.38c.34 0 .62-.28.62-.62s-.28-.63-.62-.63-.63.28-.63.63.28.62.63.62Zm.62 5.33c0-.34-.28-.62-.62-.62s-.63.28-.63.62.28.63.63.63.62-.28.62-.63Zm2.61 7.2c-.2.28-.13.67.16.87.11.07.23.11.35.11.2 0 .4-.09.52-.27.19-.28.12-.67-.16-.87a.627.627 0 0 0-.87.16ZM2.5 20.36c.34 0 .62-.28.62-.63s-.28-.62-.62-.62-.63.28-.63.62.28.63.63.63Zm31-3.23c-.34 0-.62.28-.62.62s.28.63.62.63.63-.28.63-.63-.28-.62-.63-.62ZM23.26 32.31c-.33.08-.54.42-.47.75.07.29.32.49.61.49l.14-.02c.33-.07.55-.4.47-.74a.63.63 0 0 0-.75-.48Zm2.77-.81c-.33.12-.49.48-.37.8.1.25.33.41.59.41l.22-.04c.32-.13.48-.49.36-.81a.621.621 0 0 0-.8-.36Zm4.81-2.93c-.25.24-.25.63-.01.88.13.12.29.18.45.18s.32-.06.44-.18c.24-.24.24-.64 0-.88a.61.61 0 0 0-.88 0Zm-2.24 1.7c-.29.17-.39.56-.21.85a.605.605 0 0 0 .85.22c.3-.17.4-.56.22-.85-.18-.3-.56-.4-.86-.22Zm-8.19 2.5a.62.62 0 0 0 .06 1.24h.06c.34-.03.6-.34.56-.68a.613.613 0 0 0-.68-.56Zm-2.89.1c-.35 0-.63.27-.64.62-.01.34.27.63.61.64h.01c.34 0 .62-.28.63-.62 0-.34-.27-.63-.61-.64Zm-5.72-.79a.628.628 0 0 0-.33 1.21l.17.02c.27 0 .52-.18.6-.46a.633.633 0 0 0-.44-.77ZM33.5 20.1c-.34 0-.62.28-.62.63s.28.62.62.62.63-.28.63-.62-.28-.63-.63-.63Zm-.26 5.93c-.32-.14-.69 0-.83.32s0 .68.32.82l.25.06c.24 0 .47-.14.58-.37a.635.635 0 0 0-.32-.83Zm-24.15 5.1c-.32-.14-.69 0-.83.32s.01.69.32.83c.09.03.17.05.26.05a.627.627 0 0 0 .25-1.2Zm24.41-8.05c-.34 0-.62.28-.62.63s.28.62.62.62.63-.28.63-.62-.28-.63-.63-.63Zm-18.87 9.57c-.34-.04-.66.2-.7.54-.05.34.19.66.53.7h.09c.3.01.57-.22.61-.53a.624.624 0 0 0-.53-.71ZM30.46 6.24c-.23.25-.21.65.04.88.12.11.27.16.42.16.17 0 .34-.07.47-.21a.62.62 0 0 0-.05-.88.62.62 0 0 0-.88.05Zm3.04 4.93c-.34 0-.62.28-.62.63s.28.62.62.62.63-.28.63-.62-.28-.63-.63-.63Zm-5.55-6.52c-.17.3-.06.68.25.85a.609.609 0 0 0 .84-.25c.17-.3.06-.68-.24-.85a.637.637 0 0 0-.85.25ZM13.44 2.9c.05.3.32.52.62.52h.1c.34-.06.57-.38.52-.72-.06-.34-.38-.57-.72-.52s-.57.38-.52.72Zm11.75.64c-.11.33.06.69.39.8l.21.04c.25 0 .5-.17.58-.42a.62.62 0 0 0-.38-.8.636.636 0 0 0-.8.38Zm-5.83-1.02c-.03.35.23.65.57.67h.05c.33 0 .6-.24.62-.57a.613.613 0 0 0-.57-.67.613.613 0 0 0-.67.57Zm2.95.33c-.07.34.15.67.49.74h.12c.29 0 .55-.2.61-.49a.622.622 0 1 0-1.22-.25Zm-11.32 0c-.34.1-.52.44-.43.77.08.28.33.45.6.45l.18-.02c.33-.1.52-.45.42-.78a.613.613 0 0 0-.77-.42Zm22.51 11.3c-.34 0-.62.28-.62.63s.28.62.62.62.63-.28.63-.62-.28-.63-.63-.63Zm-.73-4.57a.626.626 0 0 0 .55-.92.623.623 0 0 0-.85-.25c-.3.16-.42.54-.25.84.11.21.32.33.55.33ZM16.39 2.54c.01.33.29.6.62.6h.03c.34 0 .61-.3.6-.65-.02-.34-.31-.61-.65-.6s-.62.3-.6.65ZM5.47 5.52a.63.63 0 0 0 .38 1.13c.13 0 .26-.04.37-.13.28-.21.33-.6.12-.87-.2-.28-.6-.33-.87-.13Zm2.65-1.59c-.31.15-.44.52-.3.84.11.22.33.35.57.35a.617.617 0 0 0 .56-.89.63.63 0 0 0-.83-.3Zm-5.65 7.5h.11c.3.01.56-.21.62-.51.06-.34-.17-.66-.51-.72s-.66.16-.72.5.17.67.5.73Zm.03 2.98c.34 0 .62-.28.62-.63s-.28-.62-.62-.62-.63.28-.63.62.28.63.63.63ZM31.65 20v-8c0-4.29-6-7.65-13.65-7.65S4.35 7.71 4.35 12v12c0 4.29 6 7.65 13.65 7.65S31.65 28.29 31.65 24v-4ZM6.31 16c.16.15.33.29.5.44.17.13.35.26.54.39 2.48 1.73 6.3 2.82 10.65 2.82s8.17-1.09 10.65-2.82c.19-.13.37-.26.54-.39.17-.15.34-.29.5-.44.22-.2.42-.41.6-.63l.06-.07v.7c0 .21-.02.42-.06.63-.05.25-.13.49-.24.74-.1.21-.21.42-.35.63-1.68 2.5-6.35 4.35-11.7 4.35S7.98 20.5 6.3 18c-.14-.21-.25-.42-.35-.63-.11-.25-.19-.49-.24-.74a3.36 3.36 0 0 1-.06-.63v-.7l.06.07c.18.22.38.43.6.63Zm-.66 3.3.06.07c2.18 2.56 6.81 4.28 12.29 4.28s10.11-1.72 12.29-4.28l.06-.07v.7c0 3.44-5.65 6.35-12.35 6.35S5.65 23.44 5.65 20v-.7ZM18 5.65c6.7 0 12.35 2.91 12.35 6.35 0 .21-.02.42-.06.63-.05.25-.13.49-.24.74-.1.21-.21.42-.35.63-.28.41-.63.8-1.05 1.17-.17.15-.35.29-.54.43s-.39.27-.6.4c-2.28 1.42-5.73 2.35-9.51 2.35s-7.23-.93-9.51-2.35a8.93 8.93 0 0 1-.6-.4c-.19-.14-.37-.28-.54-.43-.42-.37-.77-.76-1.05-1.17-.14-.21-.25-.42-.35-.63-.11-.25-.19-.49-.24-.74a3.36 3.36 0 0 1-.06-.63c0-3.44 5.65-6.35 12.35-6.35ZM30.35 24c0 3.44-5.65 6.35-12.35 6.35S5.65 27.44 5.65 24v-.7c2.16 2.6 6.82 4.35 12.35 4.35s10.19-1.75 12.35-4.35v.7Z"/>
</svg>
