<svg xmlns="http://www.w3.org/2000/svg" viewBox="0 0 36 36">
  <path d="M12.87 24.29c.91-.71 1.5-1.8 1.5-3.04 0-2.14-1.74-3.88-3.88-3.88s-3.88 1.74-3.88 3.88c0 1.24.59 2.33 1.5 3.04-2.76.98-4.75 3.61-4.75 6.71 0 .35.28.62.62.62h13c.34 0 .62-.28.62-.62 0-3.1-1.99-5.73-4.75-6.71h.02Zm-5-3.04c0-1.45 1.18-2.62 2.62-2.62s2.62 1.18 2.62 2.62-1.18 2.62-2.62 2.62-2.62-1.18-2.62-2.62Zm-3.22 9.12c.31-2.95 2.81-5.25 5.84-5.25s5.53 2.3 5.84 5.25H4.65Zm23.22-20.08c.91-.71 1.5-1.8 1.5-3.04 0-2.14-1.74-3.88-3.88-3.88s-3.88 1.74-3.88 3.88c0 1.24.59 2.33 1.5 3.04-2.76.98-4.75 3.61-4.75 6.71 0 .35.28.62.62.62h13c.34 0 .62-.28.62-.62 0-3.1-1.99-5.73-4.75-6.71h.02Zm-5-3.04c0-1.45 1.18-2.62 2.62-2.62s2.62 1.18 2.62 2.62-1.18 2.62-2.62 2.62-2.62-1.18-2.62-2.62Zm-3.22 9.12c.31-2.95 2.81-5.25 5.84-5.25s5.53 2.3 5.84 5.25H19.65ZM5.76 18.58l.24.04c.17 0 .33-.06.44-.18.12-.11.19-.28.19-.44s-.07-.33-.19-.44a.648.648 0 0 0-.68-.14l-.2.14c-.12.12-.18.28-.18.44s.06.33.18.44l.2.14Zm1.5-5.98a.627.627 0 0 0-.5 1.15l.25.05a.627.627 0 0 0 .25-1.2Zm3.04-2.97c.25-.23.27-.63.03-.88a.619.619 0 1 0-.91.84c.12.14.29.2.46.2.15 0 .3-.05.42-.16Zm1.88-1.4c.3-.18.39-.56.22-.86-.18-.3-.57-.4-.86-.22-.3.18-.39.56-.22.86.12.2.33.3.54.3.11 0 .22-.02.32-.08Zm-3.95 3.42c.2 0 .39-.09.51-.26.21-.28.14-.67-.14-.87a.623.623 0 0 0-.87.14c-.21.28-.14.67.14.87.11.08.24.12.36.12Zm5.87-4.38.21-.03c.32-.12.5-.47.38-.79a.61.61 0 0 0-.79-.39.621.621 0 0 0 .2 1.21Zm-7.97 8.88h.12c.29 0 .55-.19.62-.49a.627.627 0 1 0-1.23-.25c-.07.33.15.66.49.74Zm10.46-9.44a.624.624 0 1 0-.15-1.24c-.34.04-.59.36-.54.7.04.31.31.55.62.55h.07v-.01Zm1.97-.23c.12.12.28.19.44.19l.24-.05.2-.14.14-.2.05-.24c0-.16-.07-.32-.19-.44a.647.647 0 0 0-.88 0c-.12.12-.19.28-.19.44l.05.24.14.2Zm11 13.08c-.12.12-.19.28-.19.44 0 .17.07.33.19.44.12.12.28.19.44.19l.24-.05.2-.14c.12-.11.19-.27.19-.44 0-.16-.07-.32-.19-.44-.22-.23-.65-.23-.88 0Zm0 2.28A.623.623 0 1 0 29.1 23l.23.04c.25 0 .49-.15.58-.39a.616.616 0 0 0-.35-.81Zm-1.04 2.28c-.28-.19-.67-.11-.86.18s-.11.68.18.87a.629.629 0 0 0 .86-.18c.19-.29.11-.68-.18-.87Zm-2.36 2.03a.61.61 0 0 0 0 .88c.12.13.28.19.44.19s.32-.06.44-.19a.61.61 0 0 0 0-.88.628.628 0 0 0-.88 0Zm-1.85 1.5c-.29.19-.37.58-.18.87a.633.633 0 0 0 .87.18.629.629 0 0 0-.69-1.05Zm-2.11 1.1a.62.62 0 0 0-.35.81c.1.24.33.39.58.39l.23-.04c.32-.13.48-.49.35-.81a.62.62 0 0 0-.81-.35Zm-2.44.67-.2.14-.14.2-.04.24.04.24.14.2.2.14.24.05c.16 0 .32-.07.44-.19l.14-.2.05-.24c0-.16-.07-.33-.19-.44a.633.633 0 0 0-.68-.14Z"/>
</svg>
