<svg xmlns="http://www.w3.org/2000/svg" viewBox="0 0 36 36">
  <path d="M31.65 15c0-4.29-6-7.65-13.65-7.65S4.35 10.71 4.35 15v6c0 4.29 6 7.65 13.65 7.65S31.65 25.29 31.65 21v-6ZM18 8.65c6.7 0 12.35 2.91 12.35 6.35S24.69 21.35 18 21.35 5.65 18.44 5.65 15 11.31 8.65 18 8.65Zm0 18.7c-6.7 0-12.35-2.91-12.35-6.35v-2.71c2.16 2.6 6.81 4.36 12.35 4.36s10.19-1.76 12.35-4.36V21c0 3.44-5.66 6.35-12.35 6.35ZM2.44 14.29l.14.02c.28 0 .54-.2.61-.5a.633.633 0 0 0-.48-.74.635.635 0 0 0-.75.48c-.07.34.15.67.48.74Zm1.39-2.63a.63.63 0 0 0 .38-1.13.634.634 0 0 0-.88.12.635.635 0 0 0 .5 1.01Zm4.42-4.73c-.32.14-.45.51-.31.83.11.22.34.36.57.36l.26-.06c.32-.14.45-.52.31-.83a.624.624 0 0 0-.83-.3ZM5.59 8.48a.623.623 0 0 0 .37 1.13c.12 0 .25-.04.37-.12.27-.21.33-.6.13-.88s-.6-.34-.87-.13Zm17.56-3.04a.628.628 0 0 0-.26 1.23h.13c.29 0 .55-.19.61-.49a.628.628 0 0 0-.48-.74ZM2.44 17.26c.35 0 .63-.28.63-.62s-.28-.63-.63-.63-.62.28-.62.63.28.62.62.62ZM19.47 5.59c-.03.34.22.64.57.67h.05c.32.01.6-.24.62-.57a.613.613 0 0 0-.57-.67.613.613 0 0 0-.67.57Zm-8.36.28c-.33.09-.52.44-.42.77.08.27.32.45.6.45l.17-.02c.33-.1.52-.44.43-.78a.624.624 0 0 0-.78-.42Zm5.39-.28c.02.34.29.61.63.61h.02c.34-.02.62-.31.6-.65a.61.61 0 0 0-.64-.6c-.35.01-.62.3-.61.64Zm-2.94.34c.05.31.32.53.62.53h.09a.63.63 0 0 0 .53-.71c-.05-.35-.37-.58-.71-.53s-.58.37-.53.71ZM8.98 28.04c-.31-.14-.68 0-.82.31-.14.32 0 .69.31.83.09.03.17.05.26.05.24 0 .46-.14.57-.37.14-.32 0-.69-.32-.82Zm16.9.46c-.32.11-.49.47-.37.8.1.25.33.41.59.41l.21-.04c.33-.12.49-.48.38-.8a.625.625 0 0 0-.81-.37Zm2.59-1.2a.621.621 0 0 0 .31 1.16c.11 0 .22-.02.31-.08.3-.17.41-.55.23-.85-.17-.3-.55-.4-.85-.23Zm-.44-19.56a.625.625 0 1 0 1.09.61.625.625 0 0 0-1.09-.61ZM17.38 29.81a.632.632 0 0 0-.64.61c0 .35.27.63.61.64h.02a.625.625 0 0 0 .01-1.25Zm-2.88-.23c-.34-.05-.65.19-.7.53s.19.66.53.7h.09c.3 0 .57-.22.61-.53a.613.613 0 0 0-.53-.7Zm5.77.14c-.34.03-.6.33-.57.68.03.32.3.57.63.57h.05c.35-.04.6-.34.57-.68a.627.627 0 0 0-.68-.57Zm5.4-22.29.2.03c.26 0 .5-.16.59-.41a.616.616 0 0 0-.38-.8.632.632 0 0 0-.8.38c-.11.33.06.68.39.8Zm7.54 15.74a.632.632 0 0 0-.84.29c-.15.31-.02.69.29.84a.643.643 0 0 0 .84-.29c.15-.31.02-.69-.29-.84Zm.35-2.92c-.35 0-.63.28-.63.62s.28.63.63.63.62-.28.62-.63-.28-.62-.62-.62Zm0-2.97c-.35 0-.63.28-.63.63s.28.62.63.62.62-.28.62-.62-.28-.63-.62-.63Zm0-3.01c-.35 0-.63.27-.63.62v.05c0 .34.28.62.63.62s.62-.28.62-.62v-.05c0-.35-.28-.62-.62-.62Zm-2.11-4.1c.23-.25.21-.65-.04-.88a.628.628 0 0 0-.88.04.61.61 0 0 0 .04.88.603.603 0 0 0 .88-.04ZM11.68 29c-.33-.1-.68.1-.77.43-.09.34.11.68.44.77l.17.02c.27 0 .52-.18.6-.46.09-.33-.1-.67-.44-.76Zm19.05-3.37a.63.63 0 0 0-.02.89c.12.13.29.19.45.19s.31-.05.43-.17c.25-.24.26-.63.03-.88a.64.64 0 0 0-.89-.03Zm2.09-12.95c.1 0 .2-.02.3-.08.3-.16.42-.53.26-.84a.635.635 0 0 0-.85-.26c-.3.16-.42.54-.26.85.11.21.33.33.55.33Zm-9.7 16.61a.62.62 0 0 0 .13 1.23h.13c.34-.08.56-.41.48-.75a.62.62 0 0 0-.74-.48ZM2.47 21.94c-.33.09-.53.43-.45.77.08.28.33.46.61.46l.16-.02c.33-.08.53-.42.44-.76a.627.627 0 0 0-.76-.45Zm3.17 4.86c-.2.28-.13.67.15.87.11.08.23.11.36.11.19 0 .39-.09.51-.26a.625.625 0 0 0-1.02-.72Zm-2.57-7.2c0-.34-.28-.62-.63-.62s-.62.28-.62.62.28.63.62.63.63-.28.63-.63Zm.52 5.07c-.27.22-.31.61-.1.88.13.15.31.23.49.23.14 0 .27-.04.39-.13.27-.22.31-.62.1-.88a.632.632 0 0 0-.88-.1Z"/>
</svg>
