<svg id="uuid-1363998e-20b3-485d-a68a-368962ae3203" xmlns="http://www.w3.org/2000/svg" viewBox="0 0 36 36">
  <defs>
    <style>
      .uuid-7ae32aeb-5ae5-4a2a-a9ba-72b3878a28e0{stroke-width:0}
    </style>
  </defs>
  <g id="uuid-0a0900e0-e196-42be-821a-6c29599b0b00">
    <path class="uuid-7ae32aeb-5ae5-4a2a-a9ba-72b3878a28e0" d="M13.51 17.84A7.66 7.66 0 0 0 10.38 24c0 2.06.81 3.99 2.28 5.44a7.55 7.55 0 0 0 5.35 2.19h.13c3.98-.07 7.35-3.36 7.49-7.34a7.635 7.635 0 0 0-3.1-6.43c-.56-.42-.9-1.11-.9-1.86V5.62h.38c.35 0 .62-.28.62-.62s-.28-.62-.62-.62h-1c-.35 0-.62.28-.62.62v11.01c0 1.14.53 2.21 1.41 2.86.57.42 1.06.94 1.45 1.51H12.77c.4-.58.9-1.1 1.48-1.53.86-.63 1.38-1.69 1.38-2.84V5c0-.34-.28-.62-.62-.62h-1c-.35 0-.62.28-.62.62s.28.62.62.62h.38V16c0 .75-.32 1.44-.87 1.83l-.01.01Zm10.4 3.79c.33.82.5 1.71.47 2.62-.12 3.33-2.93 6.08-6.26 6.13-1.73.03-3.35-.62-4.58-1.83a6.313 6.313 0 0 1-1.9-4.54c0-.82.17-1.63.47-2.38h11.81-.01Z"/>
    <path class="uuid-7ae32aeb-5ae5-4a2a-a9ba-72b3878a28e0" d="M16.56 18.44c.06.06.13.11.2.14.08.03.16.05.24.05.16 0 .32-.07.44-.19.12-.11.19-.28.19-.44a.631.631 0 0 0-1.07-.44.62.62 0 0 0-.18.44c0 .17.06.33.18.44Zm2.88-7c.12-.11.19-.28.19-.44a.631.631 0 0 0-1.26 0c0 .16.07.33.19.44.11.12.28.19.44.19.17 0 .33-.07.44-.19Zm-2.68-6.86a.597.597 0 0 0 .68-.14c.12-.12.19-.28.19-.44 0-.08-.02-.16-.05-.24a.66.66 0 0 0-.14-.2.615.615 0 0 0-.68-.14.66.66 0 0 0-.2.14.66.66 0 0 0-.14.2c-.03.08-.04.16-.04.24 0 .16.06.33.18.44.05.06.13.11.2.14Z"/>
  </g>
</svg>
