<svg id="uuid-91d151b7-37b1-4603-8815-381e14f792ad" xmlns="http://www.w3.org/2000/svg" viewBox="0 0 36 36">
  <defs>
    <style>
      .uuid-f2b294df-23d2-4c56-804b-9abaf41a2fda{stroke-width:0}
    </style>
  </defs>
  <g id="uuid-7f41a6a2-231a-41bb-8143-3d1cec89b848">
    <path class="uuid-f2b294df-23d2-4c56-804b-9abaf41a2fda" d="M18.28 6.44a.622.622 0 0 0-.655.06l-7.833 5.875H6c-.896 0-1.625.729-1.625 1.625v8c0 .896.729 1.625 1.625 1.625h3.792l7.833 5.875a.626.626 0 0 0 1-.5V7a.625.625 0 0 0-.346-.56Zm-.905 21.31-7-5.25a.627.627 0 0 0-.375-.125H6A.375.375 0 0 1 5.625 22v-8c0-.206.168-.375.375-.375h4a.627.627 0 0 0 .375-.125l7-5.25v19.5Zm7.432-16.556a.626.626 0 0 0-.885.884c3.265 3.265 3.265 8.579 0 11.844a.626.626 0 0 0 .885.884c3.752-3.753 3.752-9.86 0-13.612Z"/>
    <path class="uuid-f2b294df-23d2-4c56-804b-9abaf41a2fda" d="M27.61 8.39a.626.626 0 0 0-.884.884c4.811 4.812 4.811 12.64 0 17.452a.626.626 0 0 0 .884.883c5.298-5.298 5.298-13.92 0-19.218Zm-6.517 5.633a.625.625 0 0 0 0 .883c.827.827 1.282 1.926 1.282 3.094s-.455 2.267-1.281 3.094a.625.625 0 1 0 .883.884c1.063-1.063 1.648-2.475 1.648-3.978s-.585-2.915-1.648-3.977a.625.625 0 0 0-.884 0Z"/>
  </g>
</svg>
