<svg id="uuid-458f1b9b-06b9-45fa-99a0-119fef343e96" xmlns="http://www.w3.org/2000/svg" viewBox="0 0 36 36">
  <defs>
    <style>
      .uuid-25760d95-b17e-489a-b9a1-e974cff3acb7{stroke-width:0}
    </style>
  </defs>
  <g id="uuid-63f56389-e3a8-4129-b81e-d039f96a7c23">
    <path class="uuid-25760d95-b17e-489a-b9a1-e974cff3acb7" d="M31.442 4.556a.626.626 0 0 0-.884 0L18.625 16.488v-9.49a.625.625 0 0 0-1-.5l-7.833 5.875H6c-.896 0-1.625.729-1.625 1.625v8c0 .896.729 1.625 1.625 1.625h3.792l.97.728-6.204 6.205a.626.626 0 0 0 .885.883l26-26a.626.626 0 0 0 0-.883ZM10.375 22.498a.625.625 0 0 0-.375-.125H6a.375.375 0 0 1-.375-.375v-8c0-.207.168-.375.375-.375h4a.627.627 0 0 0 .375-.125l7-5.25v9.49l-5.72 5.72-1.28-.96ZM18 21.373a.625.625 0 0 0-.625.625v5.75l-3-2.25a.626.626 0 0 0-.75 1l4 3a.626.626 0 0 0 1-.5v-7a.625.625 0 0 0-.625-.625Zm8.557-7.789a.625.625 0 0 0-1.112.573 8.348 8.348 0 0 1-1.523 9.763.625.625 0 0 0 .885.884 9.595 9.595 0 0 0 1.75-11.22Z"/>
    <path class="uuid-25760d95-b17e-489a-b9a1-e974cff3acb7" d="M28.578 10.472a.625.625 0 0 0-.187.864c3.11 4.84 2.41 11.311-1.665 15.387a.626.626 0 0 0 .884.884c4.488-4.488 5.258-11.616 1.831-16.947a.625.625 0 0 0-.863-.188Zm-5.804 5.913a.624.624 0 0 0-.487.737 4.368 4.368 0 0 1-1.193 3.97.625.625 0 1 0 .882.883 5.613 5.613 0 0 0 1.536-5.102.626.626 0 0 0-.738-.488Z"/>
  </g>
</svg>
