<svg id="uuid-ef653c70-095c-47e8-b02f-509f4869f3ca" xmlns="http://www.w3.org/2000/svg" viewBox="0 0 36 36">
  <defs>
    <style>
      .uuid-b245cacd-e5db-43f7-93cf-1ba5a876b4a0{stroke-width:0}
    </style>
  </defs>
  <g id="uuid-df016db2-feb4-4adf-88c0-4ea1d89c2db5">
    <path class="uuid-b245cacd-e5db-43f7-93cf-1ba5a876b4a0" d="m21.442 17.558-13-13a.626.626 0 0 0-.884.884L20.116 18 7.558 30.558a.628.628 0 0 0 0 .884.623.623 0 0 0 .884 0l13-13a.628.628 0 0 0 0-.884Z"/>
    <path class="uuid-b245cacd-e5db-43f7-93cf-1ba5a876b4a0" d="m28.442 17.558-13-13a.626.626 0 0 0-.884.884L27.116 18 14.558 30.558a.628.628 0 0 0 0 .884.623.623 0 0 0 .884 0l13-13a.628.628 0 0 0 0-.884Z"/>
  </g>
</svg>
