<svg id="uuid-a969fbb7-54f9-4884-a11c-6e536a0fe8d0" xmlns="http://www.w3.org/2000/svg" viewBox="0 0 36 36">
  <defs>
    <style>
      .uuid-5848483b-952a-4c62-85a6-0d3919892e98{stroke-width:0}
    </style>
  </defs>
  <g id="uuid-45d1cf75-8719-4d40-b39c-e67970dabf4c">
    <path class="uuid-5848483b-952a-4c62-85a6-0d3919892e98" d="M26.65 11.74c-2.681-2.682-8.207-8.231-8.207-8.231a.625.625 0 0 0-.886 0s-6.357 6.38-8.208 8.23c-4.77 4.77-4.77 12.532 0 17.302 2.385 2.386 5.518 3.578 8.651 3.578s6.266-1.192 8.65-3.578c4.77-4.77 4.77-12.531 0-17.301Zm-.883 16.418c-2.075 2.074-4.833 3.217-7.767 3.217s-5.692-1.143-7.767-3.217c-4.283-4.283-4.283-11.252 0-15.535 1.556-1.555 6.293-6.308 7.767-7.788a7437.47 7437.47 0 0 0 7.767 7.788c4.283 4.283 4.283 11.252 0 15.535Z"/>
    <path class="uuid-5848483b-952a-4c62-85a6-0d3919892e98" d="M25.524 20.326a.622.622 0 0 0-.664.583c-.237 3.597-3.25 6.416-6.86 6.416a.625.625 0 1 0 0 1.25c4.266 0 7.827-3.331 8.107-7.584a.625.625 0 0 0-.583-.665Z"/>
  </g>
</svg>
