<svg xmlns="http://www.w3.org/2000/svg" viewBox="0 0 36 36">
  <path d="M31 20.47h-3.95l-2.3-4.61c-.12-.24-.38-.38-.65-.34s-.48.25-.52.52l-1.81 10.87-3.14-22a.624.624 0 0 0-.61-.54c-.31 0-.57.22-.62.53l-3.24 20.49-2.97-11.88c-.07-.29-.35-.51-.63-.47a.62.62 0 0 0-.59.52l-1.15 6.91h-3.8c-.35 0-.62.28-.62.62s.28.62.62.62h4.33c.31 0 .57-.22.62-.52l.74-4.46 2.99 11.94c.07.29.32.5.63.47.3-.01.54-.23.59-.53l3.07-19.42 3.13 21.89c.04.3.3.53.61.54.31 0 .57-.22.62-.52l2.16-12.96 1.62 3.23c.11.21.32.35.56.35h4.33c.35 0 .62-.28.62-.62s-.28-.62-.62-.62l-.02-.01Z"/>
</svg>
