<svg id="uuid-058cafa2-0d0c-48d4-8fba-776fc0d90f5b" xmlns="http://www.w3.org/2000/svg" viewBox="0 0 36 36">
  <defs>
    <style>
      .uuid-85473e3c-0fdf-4aeb-909b-be74b3f4f48c{stroke-width:0}
    </style>
  </defs>
  <g id="uuid-f883186e-e716-491c-8e5c-b8122f6dbff4">
    <path class="uuid-85473e3c-0fdf-4aeb-909b-be74b3f4f48c" d="M22 18.375H5a.625.625 0 0 0-.625.625v12c0 .345.28.625.625.625h17c.345 0 .625-.28.625-.625V19a.625.625 0 0 0-.625-.625Zm-.625 12H5.625v-10.75h15.75v10.75Z"/>
    <path class="uuid-85473e3c-0fdf-4aeb-909b-be74b3f4f48c" d="M7.76 22.58c.08.03.16.05.24.05s.16-.02.24-.05c.08-.03.15-.08.2-.14.12-.12.19-.28.19-.44a.63.63 0 0 0-.19-.44.555.555 0 0 0-.2-.14.663.663 0 0 0-.48 0 .91.91 0 0 0-.2.14.66.66 0 0 0-.14.2.596.596 0 0 0 .14.68c.05.06.13.11.2.14Zm2.24.05c.08 0 .16-.02.24-.05.08-.03.14-.08.2-.14.12-.11.19-.28.19-.44a.63.63 0 0 0-.19-.44.627.627 0 0 0-.88 0 .66.66 0 0 0-.14.2.596.596 0 0 0 .14.68c.11.12.27.19.44.19Zm4-.005h5a.625.625 0 0 0 0-1.25h-5a.625.625 0 0 0 0 1.25Zm5-13h6c.345 0 .625-.28.625-.625V5A.625.625 0 0 0 25 4.375h-6a.625.625 0 0 0-.625.625v4c0 .345.28.625.625.625Zm.625-4h4.75v2.75h-4.75v-2.75ZM31 14.375h-6a.625.625 0 0 0-.625.625v4c0 .345.28.625.625.625h6c.345 0 .625-.28.625-.625v-4a.625.625 0 0 0-.625-.625Zm-.625 4h-4.75v-2.75h4.75v2.75ZM6 14.625h6c.345 0 .625-.28.625-.625v-4A.625.625 0 0 0 12 9.375H6a.625.625 0 0 0-.625.625v4c0 .345.28.625.625.625Zm.625-4h4.75v2.75h-4.75v-2.75Zm20.793 9.803a.624.624 0 0 0-.822.322 9.427 9.427 0 0 1-2.971 3.75.626.626 0 0 0 .752 1 10.672 10.672 0 0 0 3.363-4.249.625.625 0 0 0-.322-.823ZM25.5 11.375a9.35 9.35 0 0 1 1.096 1.875.624.624 0 1 0 1.144-.5 10.639 10.639 0 0 0-1.24-2.126.625.625 0 0 0-1 .751ZM13.001 8.963a.624.624 0 0 0 .313-.084c.266-.155.543-.291.824-.418.078-.036.157-.068.235-.1.22-.093.441-.176.666-.25a9.277 9.277 0 0 1 1.086-.299c.308-.062.62-.11.937-.14a.625.625 0 0 0-.123-1.245c-.36.036-.715.09-1.063.16-.35.072-.692.166-1.031.271-.011.003-.022 0-.032.004-.058.018-.113.045-.171.064a10.75 10.75 0 0 0-.75.281c-.091.039-.182.076-.272.117-.308.14-.611.29-.906.459l-.027.014A.626.626 0 0 0 13 8.963Zm-5.573 6.975c-.036.35-.053.704-.053 1.062a.625.625 0 0 0 1.25 0c0-.316.016-.629.047-.938a.626.626 0 0 0-1.244-.125Z"/>
  </g>
</svg>
