<svg id="uuid-5fe20fb4-92e0-4cb2-8e07-35acfeb14a2a" xmlns="http://www.w3.org/2000/svg" viewBox="0 0 36 36">
  <defs>
    <style>
      .uuid-00adfbb6-be42-48cd-8056-25e8b314e92c{stroke-width:0}
    </style>
  </defs>
  <g id="uuid-53b9c8ff-d816-4c5c-a867-c8c3ebec19d3">
    <path class="uuid-00adfbb6-be42-48cd-8056-25e8b314e92c" d="M31 8.375H5A.625.625 0 0 0 4.375 9v18c0 .345.28.625.625.625h26c.345 0 .625-.28.625-.625V9A.625.625 0 0 0 31 8.375Zm-.625 18H5.625V9.625h24.75v16.75Z"/>
    <path class="uuid-00adfbb6-be42-48cd-8056-25e8b314e92c" d="M7.76 12.58c.08.03.158.05.239.05.16 0 .33-.07.44-.19a.597.597 0 0 0 .14-.68.65.65 0 0 0-.82-.34.65.65 0 0 0-.33.34.627.627 0 0 0 .13.68c.06.06.13.11.2.14Zm2.238.05c.17 0 .33-.07.44-.19.06-.05.111-.13.14-.2a.69.69 0 0 0 .051-.24c0-.08-.02-.16-.05-.24a.652.652 0 0 0-.14-.2.478.478 0 0 0-.2-.14.66.66 0 0 0-.48 0 .65.65 0 0 0-.2.14.625.625 0 0 0 0 .88c.12.12.28.19.44.19ZM8 24.625h10c.345 0 .625-.28.625-.625v-8a.625.625 0 0 0-.625-.625H8a.625.625 0 0 0-.625.625v8c0 .345.28.625.625.625Zm.625-8h8.75v6.75h-8.75v-6.75Zm4.375-4h15a.625.625 0 0 0 0-1.25H13a.625.625 0 0 0 0 1.25Zm15 3.75h-7a.625.625 0 0 0 0 1.25h7a.625.625 0 0 0 0-1.25Zm0 3h-7a.625.625 0 0 0 0 1.25h7a.625.625 0 0 0 0-1.25Zm-4 3h-3a.625.625 0 0 0 0 1.25h3a.625.625 0 0 0 0-1.25Z"/>
  </g>
</svg>
