<svg xmlns="http://www.w3.org/2000/svg" viewBox="0 0 36 36">
  <path d="M31 28.38h-3.5l-1.89-8.51a.62.62 0 0 0-.61-.49h-8.38v-4.75H22c.34 0 .62-.28.62-.62s-.28-.62-.62-.62h-5.38v-2.81c1.7-.3 3-1.78 3-3.56 0-2-1.63-3.62-3.62-3.62s-3.62 1.63-3.62 3.62c0 1.78 1.3 3.26 3 3.56v2.81H13.5c-5.03 0-9.12 4.09-9.12 9.12s4.09 9.12 9.12 9.12 9.12-4.09 9.12-9.12c0-.34-.28-.62-.62-.62s-.62.28-.62.62c0 4.34-3.53 7.88-7.88 7.88s-7.88-3.53-7.88-7.88 3.53-7.88 7.88-7.88h1.88v5.38c0 .34.28.62.62.62h8.5l1.89 8.51c.06.29.32.49.61.49h4c.34 0 .62-.28.62-.62s-.28-.62-.62-.62v-.01ZM13.62 7c0-1.31 1.07-2.38 2.38-2.38S18.38 5.69 18.38 7 17.31 9.38 16 9.38 13.62 8.31 13.62 7Z"/>
</svg>
