<svg id="uuid-06e6cc9e-5897-4efd-ab05-c4a2d6a851b7" xmlns="http://www.w3.org/2000/svg" viewBox="0 0 36 36">
  <defs>
    <style>
      .uuid-c5eee5a8-6bef-4de8-8e58-49fddae2b895{stroke-width:0}
    </style>
  </defs>
  <g id="uuid-6ece2560-5953-45b7-90fe-0ebbfc4ffcd7">
    <path class="uuid-c5eee5a8-6bef-4de8-8e58-49fddae2b895" d="M18 20.375a7.565 7.565 0 0 0-5.447 2.29.625.625 0 1 0 .893.874c1.21-1.234 2.827-1.914 4.554-1.914s3.345.68 4.554 1.914a.622.622 0 0 0 .884.009.625.625 0 0 0 .009-.884A7.565 7.565 0 0 0 18 20.375Zm0-7a14.514 14.514 0 0 0-10.446 4.39.625.625 0 1 0 .892.875c2.537-2.59 5.93-4.015 9.554-4.015s7.017 1.426 9.554 4.015a.623.623 0 0 0 .884.009.625.625 0 0 0 .008-.884A14.515 14.515 0 0 0 18 13.375Z"/>
    <path class="uuid-c5eee5a8-6bef-4de8-8e58-49fddae2b895" d="M32.438 13.27A20.51 20.51 0 0 0 18 7.376a20.494 20.494 0 0 0-14.575 6.032.625.625 0 0 0 .884.885A19.249 19.249 0 0 1 18 8.625a19.27 19.27 0 0 1 13.563 5.538.625.625 0 1 0 .875-.893Z"/>
    <circle class="uuid-c5eee5a8-6bef-4de8-8e58-49fddae2b895" cx="18" cy="28" r="1.625"/>
  </g>
</svg>
