<svg id="uuid-1164ac29-58f1-4c18-9092-67be37c30781" xmlns="http://www.w3.org/2000/svg" viewBox="0 0 36 36">
  <defs>
    <style>
      .uuid-00c108e3-00bf-4dd0-ab40-274a0ba88795{stroke-width:0}
    </style>
  </defs>
  <g id="uuid-0c34e738-a929-43e9-9788-15c0e63b119a">
    <path class="uuid-00c108e3-00bf-4dd0-ab40-274a0ba88795" d="M29.25 22.23a.624.624 0 0 0-.822.323 11.388 11.388 0 0 1-5.689 5.791.626.626 0 0 0 .522 1.136 12.63 12.63 0 0 0 6.311-6.426.625.625 0 0 0-.322-.823ZM17.05 6.664a11.358 11.358 0 0 1 8.473 2.805.626.626 0 0 0 .829-.938 12.614 12.614 0 0 0-9.403-3.113.625.625 0 0 0 .102 1.246ZM8.146 23.687A11.37 11.37 0 0 1 6.625 18c0-.637.053-1.276.157-1.897a.624.624 0 1 0-1.232-.207A12.688 12.688 0 0 0 5.375 18a12.616 12.616 0 0 0 2.37 7.365.626.626 0 0 0 1.015-.73c-.22-.305-.425-.621-.613-.948Zm15.202 2.317a9.643 9.643 0 0 0 2.656-2.656.626.626 0 0 0-1.04-.695 8.378 8.378 0 0 1-2.312 2.312.626.626 0 0 0 .696 1.039Zm-4.28-17.57a.624.624 0 1 0-.137 1.242 8.296 8.296 0 0 1 3.721 1.359.624.624 0 1 0 .695-1.039 9.59 9.59 0 0 0-4.279-1.562ZM10.38 21.48a8.355 8.355 0 0 1-.704-4.413.625.625 0 0 0-.553-.688.618.618 0 0 0-.69.552 9.635 9.635 0 0 0 .808 5.066.626.626 0 0 0 1.139-.516Z"/>
    <path class="uuid-00c108e3-00bf-4dd0-ab40-274a0ba88795" d="M32.62 17.976c-.001-.013-.005-.025-.007-.038a.62.62 0 0 0-.613-.563H20.542a2.617 2.617 0 0 0-2.353-1.98 7.53 7.53 0 0 0 .181-1.37 8.529 8.529 0 0 0-1.142-4.472 8.5 8.5 0 0 0-6.104-4.17c-.06-.01-.116 0-.173.007-.014.001-.027 0-.04.002-.042.008-.078.024-.117.04-.036.012-.073.016-.107.036a.626.626 0 0 0-.228.855l5.688 9.82a2.6 2.6 0 0 0-.54 2.926 7.603 7.603 0 0 0-1.316.54 8.52 8.52 0 0 0-3.3 3.226 8.493 8.493 0 0 0-.6 7.252.614.614 0 0 0 .608.538.614.614 0 0 0 .385-.157.597.597 0 0 0 .111-.109c.013-.018.034-.025.045-.044l5.722-9.809c.038.011.074.026.113.035V32a.625.625 0 0 0 1.25 0V20.54a2.627 2.627 0 0 0 1.564-1.098c.37.344.756.67 1.19.935a8.52 8.52 0 0 0 4.444 1.247 8.502 8.502 0 0 0 6.664-3.2.612.612 0 0 0 .126-.367c.002-.02.012-.038.012-.058 0-.009-.004-.016-.005-.024Zm-16.474-7.798a7.284 7.284 0 0 1 .974 3.816 7.274 7.274 0 0 1-.124 1.118l-4.72-8.147a7.242 7.242 0 0 1 3.87 3.213Zm-4.929 18.208a7.27 7.27 0 0 1 3.671-7.679c.35-.19.714-.344 1.086-.474l-4.757 8.153ZM18 19.375c-.758 0-1.375-.617-1.375-1.375s.617-1.375 1.375-1.375 1.375.617 1.375 1.375-.617 1.375-1.375 1.375Zm7.823 1a7.266 7.266 0 0 1-3.792-1.064 7.294 7.294 0 0 1-.932-.686h9.449a7.243 7.243 0 0 1-4.725 1.75Z"/>
  </g>
</svg>
