<svg xmlns="http://www.w3.org/2000/svg" viewBox="0 0 36 36">
  <path d="M25 21.375H12C10.001 21.375 8.375 23 8.375 25s1.626 3.625 3.625 3.625 3.625-1.626 3.625-3.625a.625.625 0 0 0-1.25 0c0 1.31-1.065 2.375-2.375 2.375S9.625 26.309 9.625 25 10.69 22.625 12 22.625h13a.625.625 0 0 0 0-1.25Zm6 0h-4a.625.625 0 0 0 0 1.25h4a.625.625 0 0 0 0-1.25Zm-2-6.75h2a.625.625 0 0 0 0-1.25h-2a.625.625 0 0 0 0 1.25Zm-11 0h9a.625.625 0 0 0 0-1.25h-9c-1.31 0-2.375-1.066-2.375-2.375S16.69 8.625 18 8.625 20.375 9.69 20.375 11a.625.625 0 0 0 1.25 0c0-2-1.626-3.625-3.625-3.625S14.375 9 14.375 11s1.626 3.625 3.625 3.625Zm6 2.75a.625.625 0 0 0 0 1.25h6a.625.625 0 0 0 0-1.25h-6ZM22.625 18a.625.625 0 0 0-.625-.625H8c-1.31 0-2.375-1.066-2.375-2.375S6.69 12.625 8 12.625 10.375 13.69 10.375 15a.625.625 0 0 0 1.25 0c0-2-1.626-3.625-3.625-3.625S4.375 13 4.375 15 6.001 18.625 8 18.625h14c.345 0 .625-.28.625-.625Z"/>
</svg>
