<svg id="uuid-71bcada0-bc69-4668-bdb8-04338b83df83" xmlns="http://www.w3.org/2000/svg" viewBox="0 0 36 36">
  <defs>
    <style>
      .uuid-b37fa982-c72c-4ad6-88c5-ca7aeb074633{stroke-width:0}
    </style>
  </defs>
  <path class="uuid-b37fa982-c72c-4ad6-88c5-ca7aeb074633" d="M11 20.12c.35 0 .62-.28.62-.62s-.28-.62-.62-.62H6c-.35 0-.62.28-.62.62v9c0 .35.28.62.62.62h15c.35 0 .62-.28.62-.62v-9c0-.35-.28-.62-.62-.62h-5c-.35 0-.62.28-.62.62s.28.62.62.62h4.38v7.75H6.62v-7.75H11Zm11.5 10.26h-18c-.35 0-.62.28-.62.62s.28.62.62.62h18c.35 0 .62-.28.62-.62s-.28-.62-.62-.62Z"/>
  <path class="uuid-b37fa982-c72c-4ad6-88c5-ca7aeb074633" d="M13.5 20.13c.08 0 .16-.02.24-.05.08-.03.14-.08.2-.14.06-.05.11-.12.14-.2.03-.08.05-.16.05-.24s-.02-.16-.05-.24a.66.66 0 0 0-.14-.2.558.558 0 0 0-.2-.14.652.652 0 0 0-.68.14c-.06.06-.1.12-.14.2-.03.08-.05.16-.05.24s.02.16.05.24c.04.08.08.15.14.2.11.12.27.19.44.19Zm10.35-5.84c1.51-.95 2.53-2.62 2.53-4.54 0-2.96-2.41-5.38-5.38-5.38s-5.38 2.41-5.38 5.38c0 1.91 1.01 3.59 2.52 4.54-1.07.31-2.09.8-3.01 1.46a.625.625 0 0 0 .72 1.02 8.83 8.83 0 0 1 5.14-1.64c4.68 0 8.53 3.65 8.85 8.25h-5.06c-.35 0-.62.28-.62.62s.28.62.62.62h5.7c.35 0 .62-.28.62-.62 0-4.59-3.08-8.48-7.28-9.71h.03Zm-6.97-4.54c0-2.27 1.85-4.12 4.12-4.12s4.12 1.85 4.12 4.12-1.85 4.12-4.12 4.12-4.12-1.85-4.12-4.12Z"/>
</svg>
