<svg xmlns="http://www.w3.org/2000/svg" viewBox="0 0 36 36">
  <path d="M26.29 10.79c.81-.67 1.34-1.66 1.34-2.79 0-2-1.63-3.62-3.62-3.62S20.39 6.01 20.39 8c0 1.13.53 2.12 1.34 2.79A6.623 6.623 0 0 0 17.39 17c0 .35.28.62.62.62h12c.35 0 .62-.28.62-.62 0-2.85-1.81-5.28-4.34-6.21ZM21.63 8c0-1.31 1.07-2.38 2.38-2.38S26.39 6.69 26.39 8s-1.07 2.38-2.38 2.38S21.63 9.31 21.63 8Zm-2.96 8.38c.31-2.67 2.59-4.75 5.34-4.75s5.03 2.08 5.34 4.75H18.67Zm-5.38 8.41c.81-.67 1.34-1.66 1.34-2.79 0-2-1.63-3.62-3.62-3.62S7.39 20.01 7.39 22c0 1.13.53 2.12 1.34 2.79A6.623 6.623 0 0 0 4.39 31c0 .35.28.62.62.62h12c.35 0 .62-.28.62-.62 0-2.85-1.81-5.28-4.34-6.21ZM8.63 22c0-1.31 1.07-2.38 2.38-2.38s2.38 1.07 2.38 2.38-1.07 2.38-2.38 2.38S8.63 23.31 8.63 22Zm-2.96 8.38c.31-2.67 2.59-4.75 5.34-4.75s5.03 2.08 5.34 4.75H5.66h.01Zm22.43-11c-.35 0-.62.28-.62.62v7.38H20.1c-.35 0-.62.28-.62.62s.28.62.62.62h8c.35 0 .62-.28.62-.62v-8c0-.35-.28-.62-.62-.62ZM8.62 16V8.62H16c.35 0 .62-.28.62-.62s-.28-.62-.62-.62H8c-.35 0-.62.28-.62.62v8c0 .35.28.62.62.62s.62-.28.62-.62Z"/>
</svg>
