<svg id="uuid-1d7354ff-ca28-4767-8027-8c8828e853b2" xmlns="http://www.w3.org/2000/svg" viewBox="0 0 36 36">
  <defs>
    <style>
      .uuid-df609918-47e6-4b98-9d72-977d061ef97b{stroke-width:0}
    </style>
  </defs>
  <g id="uuid-92926e02-9fab-4e6e-a26e-cda8117873d2">
    <path class="uuid-df609918-47e6-4b98-9d72-977d061ef97b" d="M6.76 28.42a.66.66 0 0 0-.2.14c-.12.12-.19.28-.19.44s.07.32.19.44.28.19.44.19.32-.07.44-.19.19-.28.19-.44-.07-.32-.19-.44a.633.633 0 0 0-.68-.14Zm12.682-14.862a.626.626 0 0 0-.884.884l3 3a.623.623 0 0 0 .884 0 .628.628 0 0 0 0-.884l-3-3Z"/>
    <path class="uuid-df609918-47e6-4b98-9d72-977d061ef97b" d="M31.614 10.053a.612.612 0 0 0-.024-.234.6.6 0 0 0-.114-.21c-.013-.017-.019-.036-.034-.051l-2-2a.626.626 0 0 0-.884 0L23 13.116l-4.862-4.863L21.916 5.8l1.7 1.7-2.059 2.058a.628.628 0 0 0 0 .884.623.623 0 0 0 .885 0l2.5-2.5a.628.628 0 0 0 0-.884l-2.5-2.5c-.015-.015-.035-.021-.05-.034a.6.6 0 0 0-.214-.115.61.61 0 0 0-.465.045c-.018.01-.037.01-.054.021l-4.85 3.15c-.02.012-.03.031-.046.045-.018.014-.04.02-.056.037-.015.015-.02.034-.034.05a.592.592 0 0 0-.113.211.608.608 0 0 0-.025.234.604.604 0 0 0 .068.232c.01.018.01.039.022.056.01.015.027.02.037.035.017.021.025.047.045.067l.668.668a6.58 6.58 0 0 0-1.575 7.055L5.058 27.058a2.751 2.751 0 0 0 0 3.884c.536.536 1.239.803 1.942.803s1.406-.267 1.942-.803L19.685 20.2a6.571 6.571 0 0 0 5.646-.475l.01-.005.02-.01a.615.615 0 0 0 .195-.186c.003-.005.01-.006.012-.011l5.957-9.172c.01-.018.012-.038.022-.056a.597.597 0 0 0 .068-.232ZM19.788 18.9c-.003-.001-.007 0-.01-.002-.05-.021-.101-.027-.153-.035-.03-.005-.057-.017-.086-.017-.044 0-.085.013-.128.021-.036.007-.073.008-.107.021-.033.013-.061.038-.093.057-.038.024-.079.043-.112.075l-.011.007-11.03 11.03a1.496 1.496 0 0 1-2.116-2.115l11.03-11.03c.004-.003.005-.008.008-.012.032-.033.052-.074.076-.114.018-.03.042-.057.055-.09.016-.04.017-.083.024-.125.006-.037.019-.071.019-.108 0-.034-.014-.068-.02-.102-.008-.047-.013-.093-.032-.138-.002-.003 0-.007-.003-.011A5.331 5.331 0 0 1 16.625 14c0-1.47.591-2.847 1.634-3.856l4.298 4.298a.623.623 0 0 0 .885 0L29 8.884l1.2 1.2-5.591 8.61c-1.464.813-3.299.895-4.821.206Z"/>
  </g>
</svg>
