<svg id="uuid-8d445e0a-e0e8-49df-9bb1-b22348cbe399" xmlns="http://www.w3.org/2000/svg" viewBox="0 0 36 36">
  <defs>
    <style>
      .uuid-a695d3be-c2e1-4325-bc91-95ccd354a2a1{stroke-width:0}
    </style>
  </defs>
  <g id="uuid-3ac4799b-ebb5-401d-9a6d-3a66c08a89fd">
    <path class="uuid-a695d3be-c2e1-4325-bc91-95ccd354a2a1" d="M27.442 9.558a.625.625 0 0 0-.884 0L18 18.116 9.442 9.558a.625.625 0 1 0-.884.884l7.933 7.933H12a.625.625 0 0 0 0 1.25h5.375v2.75H12a.625.625 0 0 0 0 1.25h5.375V31a.625.625 0 0 0 1.25 0v-7.375H24a.625.625 0 0 0 0-1.25h-5.375v-2.75H24a.625.625 0 0 0 0-1.25h-4.49l7.932-7.933a.626.626 0 0 0 0-.884Z"/>
    <path class="uuid-a695d3be-c2e1-4325-bc91-95ccd354a2a1" d="m16.442 7.442.933-.933V12a.625.625 0 0 0 1.25 0V6.509l.933.933a.622.622 0 0 0 .884 0 .626.626 0 0 0 0-.884l-2-2c-.016-.017-.038-.023-.055-.037a.661.661 0 0 0-.147-.098.624.624 0 0 0-.48 0 .618.618 0 0 0-.148.099c-.017.014-.038.02-.054.036l-2 2a.626.626 0 0 0 .884.884Z"/>
  </g>
</svg>
