<svg id="uuid-ed815f2a-de84-4940-8738-7fa0f5842710" xmlns="http://www.w3.org/2000/svg" viewBox="0 0 36 36">
  <defs>
    <style>
      .uuid-4027714e-8465-4f99-abcb-f3609f91cabc{stroke-width:0}
    </style>
  </defs>
  <g id="uuid-4ac8c649-d5a0-4859-87fc-aa5a54641b84">
    <path class="uuid-4027714e-8465-4f99-abcb-f3609f91cabc" d="M18 3.38C9.94 3.38 3.38 9.94 3.38 18S9.94 32.62 18 32.62 32.62 26.06 32.62 18 26.06 3.38 18 3.38Zm0 28c-7.38 0-13.38-6-13.38-13.38S10.62 4.62 18 4.62s13.38 6 13.38 13.38-6 13.38-13.38 13.38Z"/>
    <path class="uuid-4027714e-8465-4f99-abcb-f3609f91cabc" d="M23.56 13.56 16 21.12l-3.56-3.56c-.24-.24-.64-.24-.88 0s-.24.64 0 .88l4 4c.12.12.28.18.44.18s.32-.06.44-.18l8-8c.24-.24.24-.64 0-.88s-.64-.24-.88 0Z"/>
  </g>
</svg>
