<svg xmlns="http://www.w3.org/2000/svg" viewBox="0 0 20 20">
  <defs>
    <style>
      .uuid-f457f988-892e-4e16-95ce-615916791ca8{stroke-width:0;fill:#151515}
    </style>
  </defs>
  <path d="M0 0h20v20H0z" id="uuid-bd81270f-fa7d-49b8-89eb-026f9b5a90f0" stroke-width="0" fill="none"/>
  <g id="uuid-91a961e5-4400-4687-a081-990a23976d15">
    <path class="uuid-f457f988-892e-4e16-95ce-615916791ca8" d="M17.5 1h-15C1.673 1 1 1.673 1 2.5v15c0 .827.673 1.5 1.5 1.5h15c.827 0 1.5-.673 1.5-1.5v-15c0-.827-.673-1.5-1.5-1.5ZM17 17H3V3h14v14Z"/>
    <path class="uuid-f457f988-892e-4e16-95ce-615916791ca8" d="M7.94 13.354c.291.293.676.438 1.06.438s.769-.145 1.06-.439l4.647-4.646a1 1 0 1 0-1.414-1.414L9 11.586 6.707 9.293a1 1 0 1 0-1.414 1.414l2.646 2.647Z"/>
  </g>
</svg>
