<?xml version="1.0" encoding="UTF-8"?><svg xmlns="http://www.w3.org/2000/svg" viewBox="0 0 20 20"><defs><style>.uuid-272f7410-a2d5-4b04-a580-78f3d991ee10{fill:none;}.uuid-272f7410-a2d5-4b04-a580-78f3d991ee10,.uuid-f457f988-892e-4e16-95ce-615916791ca8{stroke-width:0px;}.uuid-f457f988-892e-4e16-95ce-615916791ca8{fill:#151515;}</style></defs><g id="uuid-bd81270f-fa7d-49b8-89eb-026f9b5a90f0"><rect class="uuid-272f7410-a2d5-4b04-a580-78f3d991ee10" width="20" height="20"/></g><g id="uuid-91a961e5-4400-4687-a081-990a23976d15"><path class="uuid-f457f988-892e-4e16-95ce-615916791ca8" d="M17.5,1H2.5c-.8271,0-1.5.6729-1.5,1.5v15c0,.8271.6729,1.5,1.5,1.5h15c.8271,0,1.5-.6729,1.5-1.5V2.5c0-.8271-.6729-1.5-1.5-1.5ZM17,17H3V3h14v14Z"/><path class="uuid-f457f988-892e-4e16-95ce-615916791ca8" d="M7.9395,13.3535c.292.293.6768.4385,1.0605.4385s.7686-.1455,1.0605-.4385l4.6465-4.6465c.3906-.3906.3906-1.0234,0-1.4141s-1.0234-.3906-1.4141,0l-4.293,4.293-2.293-2.293c-.3906-.3906-1.0234-.3906-1.4141,0s-.3906,1.0234,0,1.4141l2.6465,2.6465Z"/></g></svg>