<?xml version="1.0" encoding="UTF-8"?><svg xmlns="http://www.w3.org/2000/svg" viewBox="0 0 20 20"><defs><style>.uuid-38bb5de8-8c0f-4ef8-8eee-158932a92612{fill:none;}.uuid-38bb5de8-8c0f-4ef8-8eee-158932a92612,.uuid-df49ae69-bc22-4328-a7cd-c6068f0d57c4{stroke-width:0px;}.uuid-df49ae69-bc22-4328-a7cd-c6068f0d57c4{fill:#151515;}</style></defs><g id="uuid-79bc1443-07d2-408b-aba8-f71e6a254671"><rect class="uuid-38bb5de8-8c0f-4ef8-8eee-158932a92612" width="20" height="20"/></g><g id="uuid-835bab82-643f-43bc-b159-32ac720ea4ea"><path class="uuid-df49ae69-bc22-4328-a7cd-c6068f0d57c4" d="M18.7959,17.2041l-4.4081-4.4081c1.0074-1.3383,1.6122-2.9958,1.6122-4.796C16,3.5889,12.4111,0,8,0S0,3.5889,0,8s3.5889,8,8,8c1.8002,0,3.4577-.6049,4.796-1.6122l4.4081,4.4081c.2197.2197.5078.3291.7959.3291s.5762-.1094.7959-.3291c.4385-.4395.4385-1.1523,0-1.5918ZM2,8c0-3.3086,2.6914-6,6-6s6,2.6914,6,6-2.6914,6-6,6-6-2.6914-6-6Z"/></g></svg>