<?xml version="1.0" encoding="UTF-8"?><svg xmlns="http://www.w3.org/2000/svg" viewBox="0 0 20 20"><defs><style>.uuid-94f56548-dde9-40a3-971a-5cf7d8d5c30d{fill:none;}.uuid-94f56548-dde9-40a3-971a-5cf7d8d5c30d,.uuid-3871a651-5836-4f52-ba88-a3cabf6610f8{stroke-width:0px;}.uuid-3871a651-5836-4f52-ba88-a3cabf6610f8{fill:#151515;}</style></defs><g id="uuid-7cdf8c3a-99a4-401f-a705-92264ce0c99f"><rect class="uuid-94f56548-dde9-40a3-971a-5cf7d8d5c30d" width="20" height="20"/></g><g id="uuid-e46e65cc-7958-4f24-bbf2-81186d3e56f3"><path class="uuid-3871a651-5836-4f52-ba88-a3cabf6610f8" d="M17.5,1H2.5c-.8271,0-1.5.6729-1.5,1.5v15c0,.8271.6729,1.5,1.5,1.5h15c.8271,0,1.5-.6729,1.5-1.5V2.5c0-.8271-.6729-1.5-1.5-1.5ZM15.7959,7.7959l-5.6465,5.6465c-.3174.3164-.7334.4746-1.1494.4746s-.832-.1582-1.1494-.4746l-2.6465-2.6465c-.4385-.4395-.4385-1.1523,0-1.5918.4395-.4395,1.1523-.4395,1.5918,0l2.2041,2.2051,5.2041-5.2051c.4395-.4395,1.1523-.4395,1.5918,0,.4385.4395.4385,1.1523,0,1.5918Z"/></g></svg>