<?xml version="1.0" encoding="UTF-8"?><svg xmlns="http://www.w3.org/2000/svg" viewBox="0 0 20 20"><defs><style>.uuid-580a7c74-842c-4de3-b07a-468be7722269{fill:none;}.uuid-580a7c74-842c-4de3-b07a-468be7722269,.uuid-efa7e898-4fde-4ce7-9437-4861da51966c{stroke-width:0px;}.uuid-efa7e898-4fde-4ce7-9437-4861da51966c{fill:#151515;}</style></defs><g id="uuid-9e74969f-2599-4590-9789-ca23572ab628"><rect class="uuid-580a7c74-842c-4de3-b07a-468be7722269" width="20" height="20"/></g><g id="uuid-3846e8b7-4a41-45b3-b795-34c22aa57b5b"><path class="uuid-efa7e898-4fde-4ce7-9437-4861da51966c" d="M18,14c-.5527,0-1,.4473-1,1v2H3V3h2c.5527,0,1-.4473,1-1s-.4473-1-1-1h-2.5c-.8271,0-1.5.6729-1.5,1.5v15c0,.8271.6729,1.5,1.5,1.5h15c.8271,0,1.5-.6729,1.5-1.5v-2.5c0-.5527-.4473-1-1-1Z"/><path class="uuid-efa7e898-4fde-4ce7-9437-4861da51966c" d="M17.5,1h-6.5c-.5527,0-1,.4473-1,1s.4473,1,1,1h4.5859l-7.293,7.293c-.3906.3906-.3906,1.0234,0,1.4141.1953.1953.4512.293.707.293s.5117-.0977.707-.293l7.293-7.293v4.5859c0,.5527.4473,1,1,1s1-.4473,1-1V2.5c0-.8271-.6729-1.5-1.5-1.5Z"/></g></svg>