<?xml version="1.0" encoding="UTF-8"?><svg xmlns="http://www.w3.org/2000/svg" viewBox="0 0 20 20"><defs><style>.uuid-459f916b-e4dc-4b99-adc8-55c76aa15d39{fill:none;}.uuid-459f916b-e4dc-4b99-adc8-55c76aa15d39,.uuid-0db5320b-ad22-4298-b576-2b0b168d9cb9{stroke-width:0px;}.uuid-0db5320b-ad22-4298-b576-2b0b168d9cb9{fill:#151515;}</style></defs><g id="uuid-ee2dea7c-f5ae-4590-82ec-ae3f366669fd"><rect class="uuid-459f916b-e4dc-4b99-adc8-55c76aa15d39" width="20" height="20"/></g><g id="uuid-b1b34f63-ee3d-4ed8-a84a-cf8a7602f105"><path class="uuid-0db5320b-ad22-4298-b576-2b0b168d9cb9" d="M11.5913,10l6.2046-6.2046c.4385-.4395.4385-1.1514,0-1.5908-.4395-.4395-1.1523-.4395-1.5918,0l-6.2041,6.2041L3.7954,2.2046c-.4395-.4395-1.1514-.4395-1.5908,0s-.4395,1.1514,0,1.5908l6.2041,6.2046-6.2041,6.2041c-.4395.4395-.4395,1.1523,0,1.5918.2197.2197.5073.3291.7954.3291s.5757-.1094.7954-.3291l6.2046-6.2046,6.2041,6.2046c.2197.2197.5078.3291.7959.3291s.5762-.1094.7959-.3291c.4385-.4395.4385-1.1523,0-1.5918l-6.2046-6.2041Z"/></g></svg>