<svg xmlns="http://www.w3.org/2000/svg" viewBox="0 0 20 20">
  <defs>
    <style>
      .uuid-efa7e898-4fde-4ce7-9437-4861da51966c{stroke-width:0;fill:#151515}
    </style>
  </defs>
  <path d="M0 0h20v20H0z" id="uuid-9e74969f-2599-4590-9789-ca23572ab628" stroke-width="0" fill="none"/>
  <g id="uuid-3846e8b7-4a41-45b3-b795-34c22aa57b5b">
    <path class="uuid-efa7e898-4fde-4ce7-9437-4861da51966c" d="M18 14a1 1 0 0 0-1 1v2H3V3h2a1 1 0 1 0 0-2H2.5C1.673 1 1 1.673 1 2.5v15c0 .827.673 1.5 1.5 1.5h15c.827 0 1.5-.673 1.5-1.5V15a1 1 0 0 0-1-1Z"/>
    <path class="uuid-efa7e898-4fde-4ce7-9437-4861da51966c" d="M17.5 1H11a1 1 0 1 0 0 2h4.586l-7.293 7.293a1 1 0 1 0 1.414 1.414L17 4.414V9a1 1 0 1 0 2 0V2.5c0-.827-.673-1.5-1.5-1.5Z"/>
  </g>
</svg>
