<svg id="a9493bdd-a3a8-4d57-8e16-aa5aaa3ecda9" data-name="Icon" xmlns="http://www.w3.org/2000/svg" viewBox="0 0 36 36">
  <g>
    <path d="M9,20.58H27a.63.63,0,0,0,0-1.25H25.62V19a7.62,7.62,0,0,0-5-7.15V8A.61.61,0,0,0,20,7.38H18.62V4a.62.62,0,0,0-1.24,0V7.38H16a.61.61,0,0,0-.62.62v3.81a7.62,7.62,0,0,0-5,7.15v.37H9a.63.63,0,0,0,0,1.25Zm7.62-9.25V8.62h2.76v2.71ZM18,12.58A6.38,6.38,0,0,1,24.38,19v.37H11.62V19A6.38,6.38,0,0,1,18,12.58Z"/>
    <path d="M31,30.38H29.62V27a.62.62,0,0,0-.62-.63H7a.62.62,0,0,0-.62.63v3.42H5a.62.62,0,1,0,0,1.24H31a.62.62,0,0,0,0-1.24ZM7.62,27.58H28.38v2.8H7.62Z"/>
    <path d="M9.38,22v3a.62.62,0,0,0,1.24,0V22a.62.62,0,1,0-1.24,0Z"/>
    <path d="M13.38,22v3a.62.62,0,0,0,1.24,0V22a.62.62,0,1,0-1.24,0Z"/>
    <path d="M17.38,22v3a.62.62,0,0,0,1.24,0V22a.62.62,0,0,0-1.24,0Z"/>
    <path d="M21.38,22v3a.62.62,0,0,0,1.24,0V22a.62.62,0,0,0-1.24,0Z"/>
    <path d="M25.38,22v3a.62.62,0,0,0,1.24,0V22a.62.62,0,0,0-1.24,0Z"/>
    <path d="M14,18.63a.63.63,0,1,0-.62-.62A.62.62,0,0,0,14,18.63Z"/>
    <path d="M18,18.63a.63.63,0,1,0-.62-.63A.63.63,0,0,0,18,18.63Z"/>
    <path d="M22,18.63a.63.63,0,1,0-.62-.63A.63.63,0,0,0,22,18.63Z"/>
    <path d="M14,28.38a.63.63,0,1,0,.62.62A.62.62,0,0,0,14,28.38Z"/>
    <path d="M10,28.38a.63.63,0,1,0,.63.62A.62.62,0,0,0,10,28.38Z"/>
    <path d="M18,28.38a.63.63,0,1,0,.62.62A.62.62,0,0,0,18,28.38Z"/>
    <path d="M22,28.38a.63.63,0,1,0,.63.62A.62.62,0,0,0,22,28.38Z"/>
    <path d="M26,28.38a.63.63,0,1,0,.62.62A.62.62,0,0,0,26,28.38Z"/>
  </g>
</svg>
