<svg id="e658c004-5f3b-4ef6-86e1-5a1edf88859f" data-name="Icon" xmlns="http://www.w3.org/2000/svg" viewBox="0 0 36 36">
  <g>
    <path d="M31,30.38h-.38V26a.61.61,0,0,0-.62-.62H26a.61.61,0,0,0-.62.62v4.38h-.76V29a.61.61,0,0,0-.62-.62H20a.61.61,0,0,0-.62.62v1.38H16.62V18a.61.61,0,0,0-.62-.62H6a.61.61,0,0,0-.62.62V30.38H5a.62.62,0,1,0,0,1.24H31a.62.62,0,0,0,0-1.24Zm-24.38,0V18.62h8.76V30.38Zm14,0v-.76h2.76v.76Zm6,0V26.62h2.76v3.76Z"/>
    <path d="M13,16.62a.61.61,0,0,0,.62-.62V8.62h7.76V20a.61.61,0,0,0,.62.62h5.38V24a.62.62,0,0,0,1.24,0V20a.61.61,0,0,0-.62-.62H22.62V8A.61.61,0,0,0,22,7.38H19.62V4a.62.62,0,0,0-1.24,0V7.38H16.62V5a.62.62,0,0,0-1.24,0V7.38H13a.61.61,0,0,0-.62.62v8A.61.61,0,0,0,13,16.62Z"/>
    <path d="M16,10.38a.63.63,0,1,0,.63.63A.63.63,0,0,0,16,10.38Z"/>
    <path d="M19,10.38a.63.63,0,1,0,.63.63A.63.63,0,0,0,19,10.38Z"/>
    <path d="M16,13.38a.63.63,0,1,0,.63.62A.62.62,0,0,0,16,13.38Z"/>
    <path d="M19,13.38a.63.63,0,1,0,.63.62A.62.62,0,0,0,19,13.38Z"/>
    <path d="M19,16.37a.63.63,0,1,0,.63.63A.63.63,0,0,0,19,16.37Z"/>
    <path d="M19,25.38a.63.63,0,1,0,.63.63A.63.63,0,0,0,19,25.38Z"/>
    <path d="M19,22.38a.63.63,0,1,0,.63.63A.63.63,0,0,0,19,22.38Z"/>
    <path d="M22,25.38a.63.63,0,1,0,.63.63A.63.63,0,0,0,22,25.38Z"/>
    <path d="M22,22.38a.63.63,0,1,0,.63.63A.63.63,0,0,0,22,22.38Z"/>
    <path d="M24.38,23a.62.62,0,1,0,.62-.63A.62.62,0,0,0,24.38,23Z"/>
    <path d="M19,19.38a.63.63,0,1,0,.63.62A.62.62,0,0,0,19,19.38Z"/>
  </g>
</svg>
