<svg id="e5ee3ebf-07af-4fb3-92e0-0db2d767a881" data-name="Icon" xmlns="http://www.w3.org/2000/svg" viewBox="0 0 36 36">
  <g>
    <path d="M5,12.62H31a.62.62,0,0,0,.61-.47.63.63,0,0,0-.31-.7l-13-7a.64.64,0,0,0-.6,0l-13,7a.63.63,0,0,0-.31.7A.62.62,0,0,0,5,12.62ZM18,5.71l10.52,5.67h-21Z"/>
    <path d="M29.14,13.38H6.86a.62.62,0,1,0,0,1.24H29.14a.62.62,0,1,0,0-1.24Z"/>
    <path d="M6.23,29a.62.62,0,0,0,.63.62H29.14a.62.62,0,1,0,0-1.24H6.86A.62.62,0,0,0,6.23,29Z"/>
    <path d="M31.62,30.38H4.38a.62.62,0,1,0,0,1.24H31.62a.62.62,0,0,0,0-1.24Z"/>
    <path d="M8.62,27V16a.62.62,0,0,0-1.24,0V27a.62.62,0,0,0,1.24,0Z"/>
    <path d="M18.62,27V16a.62.62,0,0,0-1.24,0V27a.62.62,0,0,0,1.24,0Z"/>
    <path d="M23.62,27V16a.62.62,0,0,0-1.24,0V27a.62.62,0,0,0,1.24,0Z"/>
    <path d="M13.62,27V16a.62.62,0,0,0-1.24,0V27a.62.62,0,0,0,1.24,0Z"/>
    <path d="M28.62,27V16a.62.62,0,0,0-1.24,0V27a.62.62,0,0,0,1.24,0Z"/>
  </g>
</svg>
