<svg id="a867e8d5-46d6-4df0-a521-867c702ed4f2" data-name="Icon" xmlns="http://www.w3.org/2000/svg" viewBox="0 0 36 36">
  <g>
    <path d="M5.3,12.55,6.38,12v3a.62.62,0,1,0,1.24,0V11.3L18,5.71l12.7,6.84a.63.63,0,0,0,.6-1.1L26.62,8.93V6a.62.62,0,0,0-1.24,0V8.26L18.3,4.45a.64.64,0,0,0-.6,0l-13,7a.63.63,0,0,0,.6,1.1Z"/>
    <path d="M31,30.38H29.62V14a.62.62,0,0,0-1.24,0V30.38H26.62V21a.61.61,0,0,0-.62-.62H20a.61.61,0,0,0-.62.62v9.38H7.62V18.3l7.68-4.13a.63.63,0,0,0-.6-1.11l-10,5.39a.63.63,0,0,0,.6,1.1L6.38,19V30.38H5a.62.62,0,1,0,0,1.24H31a.62.62,0,0,0,0-1.24Zm-10.38,0V21.62h4.76v8.76Z"/>
    <path d="M10,20.38a.61.61,0,0,0-.62.62v5a.61.61,0,0,0,.62.62h7a.61.61,0,0,0,.62-.62V21a.61.61,0,0,0-.62-.62Zm6.38,5H10.62V21.62h5.76Z"/>
  </g>
</svg>
