<svg id="f5c763fe-8e2f-47dd-b938-8c377cfe401e" data-name="Icon" xmlns="http://www.w3.org/2000/svg" viewBox="0 0 36 36">
  <g>
    <path d="M31,9.38H28.62V5A.61.61,0,0,0,28,4.38H25a.61.61,0,0,0-.62.62V9.38H22.62V5A.61.61,0,0,0,22,4.38H19a.61.61,0,0,0-.62.62V9.38H16a.61.61,0,0,0-.62.62v7.38H10.62V6A.61.61,0,0,0,10,5.38H7A.61.61,0,0,0,6.38,6V17.38H5a.61.61,0,0,0-.62.62V31a.61.61,0,0,0,.62.62H31a.61.61,0,0,0,.62-.62V10A.61.61,0,0,0,31,9.38ZM25.62,5.62h1.76V9.38H25.62Zm-6,0h1.76V9.38H19.62Zm10.76,5v6.76H16.62V10.62Zm-22.76-4H9.38V17.38H7.62Zm15,23.76V24.62h2.76v5.76Zm7.76-11.76V30.38H26.62V24a.61.61,0,0,0-.62-.62H22a.61.61,0,0,0-.62.62v6.38H5.62V18.62Z"/>
    <path d="M7,4.62h3a.62.62,0,1,0,0-1.24H7A.62.62,0,0,0,7,4.62Z"/>
  </g>
</svg>
