<svg id="ee2f6948-13f0-4cbf-b420-54184aecadf6" data-name="Icon" xmlns="http://www.w3.org/2000/svg" viewBox="0 0 36 36">
  <g>
    <path d="M27,7.38H23c-.9,0-.57,1.24-.62,1.8H13.62c0-.54.28-1.79-.62-1.8H9A.61.61,0,0,0,8.38,8V31a.61.61,0,0,0,.62.62H27a.61.61,0,0,0,.62-.62V8A.61.61,0,0,0,27,7.38Zm-.62,23H9.62V8.62h2.76c0,.56-.28,1.79.62,1.81H23c.9,0,.57-1.25.62-1.81h2.76Z"/>
    <path d="M12,6.62h3c.31,0,.65-.07.76-.41a2.37,2.37,0,0,1,4.48,0,.68.68,0,0,0,.76.41h3a.62.62,0,0,0,0-1.24H21.23a3.63,3.63,0,0,0-6.46,0H12A.62.62,0,0,0,12,6.62Z"/>
    <path d="M22.13,15.51l-4-.85a.57.57,0,0,0-.26,0l-4,.85a.62.62,0,0,0-.49.61v4.61c.19,6.11,9,6.11,9.25,0V16.12A.62.62,0,0,0,22.13,15.51Zm-4.13.4,3.38.72v.16l-6.76,3.52V16.63Zm0,8.19a3.36,3.36,0,0,1-3.23-2.45l6.61-3.45v2.53A3.38,3.38,0,0,1,18,24.1Z"/>
    <path d="M17.38,6A.63.63,0,1,0,18,5.37.62.62,0,0,0,17.38,6Z"/>
  </g>
</svg>
