<svg id="b6ab553e-8ac7-4ec2-9588-c46e63df691c" data-name="Icon" xmlns="http://www.w3.org/2000/svg" viewBox="0 0 36 36">
  <path d="M6,4.39A.62.62,0,0,0,5.38,5V31a.62.62,0,0,0,.62.63H30a.62.62,0,0,0,.62-.63V5A.62.62,0,0,0,30,4.39Zm12.62,12V11.62h4.76v4.76Zm-6,0V11.62h4.76v4.76Zm-6,0V11.62h4.76v4.76Zm10.76-6H12.62V5.64h4.76Zm1.24-4.74h4.76v4.74H18.62Zm6,6h4.76v4.76H24.62Zm4.76-1.24H24.62V5.64h4.76Zm-18-4.74v4.74H6.62V5.64Zm11,24.65H18.62V21.66h3.76Zm-5,0H13.62V21.66h3.76ZM13,20.41a.62.62,0,0,0-.62.62v9.33H6.62V17.62H29.38V30.36H23.62V21a.62.62,0,0,0-.62-.62Z"/>
</svg>
