<svg id="b2b511ed-ac1d-43ee-9da4-6b2ad1f6a829" data-name="Layer 1" xmlns="http://www.w3.org/2000/svg" viewBox="0 0 36 36">
  <path d="M25,13.62h6a.62.62,0,1,0,0-1.24H25.62V5.62H31a.62.62,0,1,0,0-1.24H25a.62.62,0,0,0-.62.62V8.38H13.56a4.63,4.63,0,1,0-1.5,4.06l4.5,4.5A4.57,4.57,0,0,0,15.38,20a4.63,4.63,0,0,0,1.36,3.28l-6.51,7.1H5a.62.62,0,1,0,0,1.24H31a.62.62,0,0,0,0-1.24H11.92L17.76,24a4.61,4.61,0,1,0-.26-7.9L12.88,11.5a4.52,4.52,0,0,0,.68-1.88H24.38V13A.62.62,0,0,0,25,13.62ZM9,12.38A3.38,3.38,0,1,1,12.38,9,3.39,3.39,0,0,1,9,12.38ZM23.38,20A3.38,3.38,0,1,1,20,16.62,3.39,3.39,0,0,1,23.38,20Z"/>
</svg>
