<svg xmlns="http://www.w3.org/2000/svg" viewBox="0 0 36 36">
  <path fill="none" d="M7.62 17.62h1.75v1.75H7.62z"/>
  <path fill="none" d="M11.88 14.62H5.62v15.75h6.25V14.62ZM10.63 27c0 .34-.28.62-.62.62h-3c-.35 0-.62-.28-.62-.62v-3c0-.34.28-.62.62-.62h3c.35 0 .62.28.62.62v3Zm-.62-6.38h-3c-.35 0-.62-.28-.62-.62v-3c0-.34.28-.62.62-.62h3c.35 0 .62.28.62.62v3c0 .34-.28.62-.62.62Z"/>
  <path fill="none" d="M7.62 24.62h1.75v1.75H7.62zm8-2h4.75v7.75h-4.75zM18 14.38c2.47-.06 2.47-3.69 0-3.75-2.47.06-2.47 3.69 0 3.75Z"/>
  <path fill="none" d="M13.12 30.38h1.25V22c0-.34.28-.62.62-.62h6c.35 0 .62.28.62.62v8.38h1.25V10.2l-4.88-4.36-4.88 4.36v20.18Zm4.88-21c4.12.11 4.12 6.14 0 6.25-4.12-.11-4.12-6.14 0-6.25Zm-3 10h6c.82 0 .82 1.25 0 1.25h-6c-.82 0-.82-1.25 0-1.25Zm9.12 11h6.25V14.62h-6.25v15.75ZM25.37 17c0-.34.28-.62.62-.62h3c.35 0 .62.28.62.62v3c0 .34-.28.62-.62.62h-3c-.35 0-.62-.28-.62-.62v-3Zm.62 6.38h3c.35 0 .62.28.62.62v3c0 .34-.28.62-.62.62h-3c-.35 0-.62-.28-.62-.62v-3c0-.34.28-.62.62-.62Z"/>
  <path fill="none" d="M26.62 17.62h1.75v1.75h-1.75zm0 7h1.75v1.75h-1.75z"/>
  <path d="M31 13.38h-6.88V10c-.01-.2-.04-.4-.21-.54l-5.5-4.92a.625.625 0 0 0-.83 0l-5.5 4.92c-.17.14-.2.35-.21.54v3.37H5c-.35 0-.62.28-.62.62V31c0 .34.28.62.62.62h26c.35 0 .62-.28.62-.63V14c0-.34-.28-.62-.62-.62ZM18 5.84l4.88 4.36v20.18h-1.25V22c0-.34-.28-.62-.62-.62h-6c-.35 0-.62.28-.62.62v8.38h-1.25V10.2l4.88-4.36ZM5.62 14.62h6.25v15.75H5.62V14.62Zm10 15.75v-7.75h4.75v7.75h-4.75Zm14.75 0h-6.25V14.62h6.25v15.75Z"/>
  <path d="M10 16.38H7c-.35 0-.62.28-.62.62v3c0 .34.28.62.62.62h3c.35 0 .62-.28.62-.62v-3c0-.34-.28-.62-.62-.62Zm-.62 3H7.63v-1.75h1.75v1.75ZM26 20.62h3c.35 0 .62-.28.62-.62v-3c0-.34-.28-.62-.62-.62h-3c-.35 0-.62.28-.62.62v3c0 .34.28.62.62.62Zm.62-3h1.75v1.75h-1.75v-1.75Zm-.62 10h3c.35 0 .62-.28.62-.62v-3c0-.34-.28-.62-.62-.62h-3c-.35 0-.62.28-.62.62v3c0 .34.28.62.62.62Zm.62-3h1.75v1.75h-1.75v-1.75ZM10 23.38H7c-.35 0-.62.28-.62.62v3c0 .34.28.62.62.62h3c.35 0 .62-.28.62-.62v-3c0-.34-.28-.62-.62-.62Zm-.62 3H7.63v-1.75h1.75v1.75ZM18 15.62c4.12-.11 4.12-6.14 0-6.25-4.12.11-4.12 6.14 0 6.25Zm0-5c2.47.06 2.47 3.69 0 3.75-2.47-.06-2.47-3.69 0-3.75Zm-3 10h6c.82 0 .82-1.25 0-1.25h-6c-.82 0-.82 1.25 0 1.25Z"/>
</svg>
