<?xml version="1.0" encoding="UTF-8"?><svg id="a" xmlns="http://www.w3.org/2000/svg" viewBox="0 0 36 36"><defs><style>.b{fill:none;}</style></defs><rect class="b" x="7.62" y="17.62" width="1.75" height="1.75"/><path class="b" d="M11.88,14.62H5.62v15.75h6.25V14.62Zm-1.25,12.38c0,.34-.28,.62-.62,.62h-3c-.35,0-.62-.28-.62-.62v-3c0-.34,.28-.62,.62-.62h3c.35,0,.62,.28,.62,.62v3Zm-.62-6.38h-3c-.35,0-.62-.28-.62-.62v-3c0-.34,.28-.62,.62-.62h3c.35,0,.62,.28,.62,.62v3c0,.34-.28,.62-.62,.62Z"/><rect class="b" x="7.62" y="24.62" width="1.75" height="1.75"/><rect class="b" x="15.62" y="22.62" width="4.75" height="7.75"/><path class="b" d="M18,14.38c2.47-.06,2.47-3.69,0-3.75-2.47,.06-2.47,3.69,0,3.75Z"/><path class="b" d="M13.12,30.38h1.25v-8.38c0-.34,.28-.62,.62-.62h6c.35,0,.62,.28,.62,.62v8.38h1.25V10.2l-4.88-4.36-4.88,4.36V30.38Zm4.88-21c4.12,.11,4.12,6.14,0,6.25-4.12-.11-4.12-6.14,0-6.25Zm-3,10h6c.82,0,.82,1.25,0,1.25h-6c-.82,0-.82-1.25,0-1.25Z"/><path class="b" d="M24.12,30.38h6.25V14.62h-6.25v15.75Zm1.25-13.38c0-.34,.28-.62,.62-.62h3c.35,0,.62,.28,.62,.62v3c0,.34-.28,.62-.62,.62h-3c-.35,0-.62-.28-.62-.62v-3Zm.62,6.38h3c.35,0,.62,.28,.62,.62v3c0,.34-.28,.62-.62,.62h-3c-.35,0-.62-.28-.62-.62v-3c0-.34,.28-.62,.62-.62Z"/><rect class="b" x="26.62" y="17.62" width="1.75" height="1.75"/><rect class="b" x="26.62" y="24.62" width="1.75" height="1.75"/><path d="M31,13.38h-6.88v-3.38c-.01-.2-.04-.4-.21-.54l-5.5-4.92c-.24-.21-.6-.21-.83,0l-5.5,4.92c-.17,.14-.2,.35-.21,.54v3.37H5c-.35,0-.62,.28-.62,.62V31c0,.34,.28,.62,.62,.62H15c3.64,0,12.27,0,16,0,.35,0,.62-.28,.62-.63V14c0-.34-.28-.62-.62-.62Zm-13-7.54l4.88,4.36V30.38h-1.25v-8.38c0-.34-.28-.62-.62-.62h-6c-.35,0-.62,.28-.62,.62v8.38h-1.25V10.2l4.88-4.36ZM5.62,14.62h6.25v15.75H5.62V14.62Zm10,15.75v-7.75h4.75v7.75h-4.75Zm14.75,0h-6.25V14.62h6.25v15.75Z"/><path d="M10,16.38h-3c-.35,0-.62,.28-.62,.62v3c0,.34,.28,.62,.62,.62h3c.35,0,.62-.28,.62-.62v-3c0-.34-.28-.62-.62-.62Zm-.62,3h-1.75v-1.75h1.75v1.75Z"/><path d="M26,20.62h3c.35,0,.62-.28,.62-.62v-3c0-.34-.28-.62-.62-.62h-3c-.35,0-.62,.28-.62,.62v3c0,.34,.28,.62,.62,.62Zm.62-3h1.75v1.75h-1.75v-1.75Z"/><path d="M26,27.62h3c.35,0,.62-.28,.62-.62v-3c0-.34-.28-.62-.62-.62h-3c-.35,0-.62,.28-.62,.62v3c0,.34,.28,.62,.62,.62Zm.62-3h1.75v1.75h-1.75v-1.75Z"/><path d="M10,23.38h-3c-.35,0-.62,.28-.62,.62v3c0,.34,.28,.62,.62,.62h3c.35,0,.62-.28,.62-.62v-3c0-.34-.28-.62-.62-.62Zm-.62,3h-1.75v-1.75h1.75v1.75Z"/><path d="M18,15.62c4.12-.11,4.12-6.14,0-6.25-4.12,.11-4.12,6.14,0,6.25Zm0-5c2.47,.06,2.47,3.69,0,3.75-2.47-.06-2.47-3.69,0-3.75Z"/><path d="M15,20.62h6c.82,0,.82-1.25,0-1.25h-6c-.82,0-.82,1.25,0,1.25Z"/></svg>