<?xml version="1.0" encoding="UTF-8"?><svg xmlns="http://www.w3.org/2000/svg" width="32" height="32" viewBox="0 0 32 32"><defs><style>.uuid-e498c655-11f3-48ea-8b1b-2884b80a4f7d{fill:none;}.uuid-2e3dc4de-64cf-4b25-8e2e-2d92817bc579{fill:#151515;}</style></defs><g id="uuid-cbc5ca69-d5fe-4057-a6a6-766530983152"><rect class="uuid-e498c655-11f3-48ea-8b1b-2884b80a4f7d" width="32" height="32"/></g><g id="uuid-ecc04a05-c4d7-40d8-89a4-797c707b7abd"><path class="uuid-2e3dc4de-64cf-4b25-8e2e-2d92817bc579" d="M28.5,2H3.5c-.82715,0-1.5.67285-1.5,1.5v25c0,.82715.67285,1.5,1.5,1.5h25c.82715,0,1.5-.67285,1.5-1.5V3.5c0-.82715-.67285-1.5-1.5-1.5ZM28,28H4V4h24v24Z"/><path class="uuid-2e3dc4de-64cf-4b25-8e2e-2d92817bc579" d="M9,17h6v6c0,.55273.44775,1,1,1s1-.44727,1-1v-6h6c.55225,0,1-.44727,1-1s-.44775-1-1-1h-6v-6c0-.55273-.44775-1-1-1s-1,.44727-1,1v6h-6c-.55225,0-1,.44727-1,1s.44775,1,1,1Z"/></g></svg>