<?xml version="1.0" encoding="UTF-8"?><svg xmlns="http://www.w3.org/2000/svg" viewBox="0 0 32 32"><defs><style>.uuid-5802223d-6ae4-4a18-9ca4-e0d6c09b59d7{fill:none;}.uuid-5802223d-6ae4-4a18-9ca4-e0d6c09b59d7,.uuid-8da7797a-a3ee-4151-9692-8d0acd28eabc{stroke-width:0px;}.uuid-8da7797a-a3ee-4151-9692-8d0acd28eabc{fill:#151515;}</style></defs><g id="uuid-c1a82dba-9781-49b0-b460-55522919cd30"><rect class="uuid-5802223d-6ae4-4a18-9ca4-e0d6c09b59d7" x="0" width="32" height="32"/></g><g id="uuid-5e0a94fc-142c-4830-a8a3-97900643becf"><path class="uuid-8da7797a-a3ee-4151-9692-8d0acd28eabc" d="M16,0C7.1777,0,0,7.1777,0,16s7.1777,16,16,16,16-7.1777,16-16S24.8223,0,16,0ZM23.0713,17.125h-5.9463v5.9463c0,.6211-.5039,1.125-1.125,1.125s-1.125-.5039-1.125-1.125v-5.9463h-5.9463c-.6211,0-1.125-.5039-1.125-1.125s.5039-1.125,1.125-1.125h5.9463v-5.9463c0-.6211.5039-1.125,1.125-1.125s1.125.5039,1.125,1.125v5.9463h5.9463c.6211,0,1.125.5039,1.125,1.125s-.5039,1.125-1.125,1.125Z"/></g></svg>