<?xml version="1.0" encoding="UTF-8"?><svg xmlns="http://www.w3.org/2000/svg" width="32" height="32" viewBox="0 0 32 32"><defs><style>.uuid-adbd267e-7c16-4530-bfb5-b4c6896377a6{fill:none;}.uuid-8ef0d204-dda1-4f48-a7ee-b397018e8b7d{fill:#151515;}</style></defs><g id="uuid-db2b23b8-ae9b-480f-b4c6-e9d1d0c5f978"><rect class="uuid-adbd267e-7c16-4530-bfb5-b4c6896377a6" width="32" height="32"/></g><g id="uuid-abe27472-28a7-44fd-93ec-298022f7a01a"><path class="uuid-8ef0d204-dda1-4f48-a7ee-b397018e8b7d" d="M16,1C7.729,1,1,7.729,1,16s6.729,15,15,15,15-6.729,15-15S24.271,1,16,1ZM16,29c-7.16846,0-13-5.83154-13-13S8.83154,3,16,3s13,5.83154,13,13-5.83154,13-13,13Z"/><path class="uuid-8ef0d204-dda1-4f48-a7ee-b397018e8b7d" d="M23,15h-6v-6c0-.55225-.44775-1-1-1s-1,.44775-1,1v6h-6c-.55225,0-1,.44775-1,1s.44775,1,1,1h6v6c0,.55225.44775,1,1,1s1-.44775,1-1v-6h6c.55225,0,1-.44775,1-1s-.44775-1-1-1Z"/></g></svg>