<?xml version="1.0" encoding="UTF-8"?><svg xmlns="http://www.w3.org/2000/svg" viewBox="0 0 32 32"><defs><style>.uuid-83c15e07-d8ba-46b4-ae31-0a3ffd7b670d{fill:none;}.uuid-83c15e07-d8ba-46b4-ae31-0a3ffd7b670d,.uuid-d56e5897-ade5-49e7-8874-ea5eea5bde04{stroke-width:0px;}.uuid-d56e5897-ade5-49e7-8874-ea5eea5bde04{fill:#151515;}</style></defs><g id="uuid-3d5580ab-0594-451b-910e-d5ba7b515ace"><rect class="uuid-83c15e07-d8ba-46b4-ae31-0a3ffd7b670d" x="0" width="32" height="32"/></g><g id="uuid-1935b8b4-dfca-4112-920f-278febd4b267"><path class="uuid-d56e5897-ade5-49e7-8874-ea5eea5bde04" d="M23.0713,15h-6.0713v-6.0713c0-.5522-.4478-1-1-1s-1,.4478-1,1v6.0713h-6.0713c-.5522,0-1,.4478-1,1s.4478,1,1,1h6.0713v6.0713c0,.5522.4478,1,1,1s1-.4478,1-1v-6.0713h6.0713c.5522,0,1-.4478,1-1s-.4478-1-1-1Z"/><path class="uuid-d56e5897-ade5-49e7-8874-ea5eea5bde04" d="M16,0C7.1777,0,0,7.1777,0,16s7.1777,16,16,16,16-7.1777,16-16S24.8223,0,16,0ZM16,30c-7.7197,0-14-6.2803-14-14S8.2803,2,16,2s14,6.2803,14,14-6.2803,14-14,14Z"/></g></svg>