<?xml version="1.0" encoding="UTF-8"?><svg xmlns="http://www.w3.org/2000/svg" width="32" height="32" viewBox="0 0 32 32"><defs><style>.uuid-2ed0496a-c50c-433c-bb32-e0fe3e06e504{fill:none;}.uuid-7bfa7c60-5c16-4516-acc8-62b5275c0307{fill:#151515;}</style></defs><g id="uuid-99636f40-d5c6-4eea-a273-a7b51caddac2"><rect class="uuid-2ed0496a-c50c-433c-bb32-e0fe3e06e504" width="32" height="32"/></g><g id="uuid-3aa6dbb1-7784-4598-8367-fb08df9b1c90"><path class="uuid-7bfa7c60-5c16-4516-acc8-62b5275c0307" d="M28.5,2H3.5c-.82715,0-1.5.67285-1.5,1.5v25c0,.82715.67285,1.5,1.5,1.5h25c.82715,0,1.5-.67285,1.5-1.5V3.5c0-.82715-.67285-1.5-1.5-1.5ZM23,17.125h-5.875v5.875c0,.62109-.50391,1.125-1.125,1.125s-1.125-.50391-1.125-1.125v-5.875h-5.875c-.62109,0-1.125-.50391-1.125-1.125s.50391-1.125,1.125-1.125h5.875v-5.875c0-.62109.50391-1.125,1.125-1.125s1.125.50391,1.125,1.125v5.875h5.875c.62109,0,1.125.50391,1.125,1.125s-.50391,1.125-1.125,1.125Z"/></g></svg>