<svg xmlns="http://www.w3.org/2000/svg" viewBox="0 0 32 32">
  <defs>
    <style>
      .uuid-d56e5897-ade5-49e7-8874-ea5eea5bde04{stroke-width:0;fill:#151515}
    </style>
  </defs>
  <path d="M0 0h32v32H0z" id="uuid-3d5580ab-0594-451b-910e-d5ba7b515ace" stroke-width="0" fill="none"/>
  <g id="uuid-1935b8b4-dfca-4112-920f-278febd4b267">
    <path class="uuid-d56e5897-ade5-49e7-8874-ea5eea5bde04" d="M23.071 15H17V8.929a1 1 0 0 0-2 0V15H8.929a1 1 0 0 0 0 2H15v6.071a1 1 0 0 0 2 0V17h6.071a1 1 0 0 0 0-2Z"/>
    <path class="uuid-d56e5897-ade5-49e7-8874-ea5eea5bde04" d="M16 0C7.178 0 0 7.178 0 16s7.178 16 16 16 16-7.178 16-16S24.822 0 16 0Zm0 30C8.28 30 2 23.72 2 16S8.28 2 16 2s14 6.28 14 14-6.28 14-14 14Z"/>
  </g>
</svg>
