<?xml version="1.0" encoding="UTF-8"?><svg xmlns="http://www.w3.org/2000/svg" width="32" height="32" viewBox="0 0 32 32"><defs><style>.uuid-88342f15-bd04-4031-b497-529cc58a5ed6{fill:none;}.uuid-a26ac67e-f72a-42a6-a382-20321b299106{fill:#151515;}</style></defs><g id="uuid-efe992af-e4c7-4a50-8caa-5800a03754c3"><rect class="uuid-88342f15-bd04-4031-b497-529cc58a5ed6" width="32" height="32"/></g><g id="uuid-0e89ecdc-48f1-4a52-aaa0-d91285dde498"><path class="uuid-a26ac67e-f72a-42a6-a382-20321b299106" d="M16,1C7.729,1,1,7.729,1,16s6.729,15,15,15,15-6.729,15-15S24.271,1,16,1ZM23,17.125h-5.875v5.875c0,.62109-.50391,1.125-1.125,1.125s-1.125-.50391-1.125-1.125v-5.875h-5.875c-.62109,0-1.125-.50391-1.125-1.125s.50391-1.125,1.125-1.125h5.875v-5.875c0-.62109.50391-1.125,1.125-1.125s1.125.50391,1.125,1.125v5.875h5.875c.62109,0,1.125.50391,1.125,1.125s-.50391,1.125-1.125,1.125Z"/></g></svg>