<?xml version="1.0" encoding="UTF-8"?><svg xmlns="http://www.w3.org/2000/svg" width="32" height="32" viewBox="0 0 32 32"><defs><style>.uuid-2d982eab-5e5c-4856-a369-c9329f45c4ce{fill:none;}.uuid-fbb6bb1f-cd66-4773-ae84-da0806a695f7{fill:#151515;}</style></defs><g id="uuid-257a5411-0bd4-41cc-8d8e-9e2baf538217"><rect class="uuid-2d982eab-5e5c-4856-a369-c9329f45c4ce" width="32" height="32"/></g><g id="uuid-3079ca00-e53e-409e-ac2a-9da825fb6f87"><path class="uuid-fbb6bb1f-cd66-4773-ae84-da0806a695f7" d="M26.03711,16.96191c-5.90527-.46777-10.53125-5.09375-10.99951-11-.0415-.51953-.5166-.96094-1.0376-.96094-.52148,0-.99658.44189-1.03809.96191-.46777,5.90527-5.09375,10.53125-11,10.99951-.51953.0415-.96094.5166-.96094,1.0376,0,.52148.44189.99658.96191,1.03809,5.90527.46777,10.53125,5.09375,10.99951,11,.0415.51953.5166.96094,1.0376.96094.52148,0,.99658-.44189,1.03809-.96191.46777-5.90527,5.09375-10.53125,10.99902-10.99902.00049,0,.00049-.00049.00098-.00049.51953-.0415.96094-.5166.96094-1.0376,0-.52148-.44189-.99658-.96191-1.03809Z"/><path class="uuid-fbb6bb1f-cd66-4773-ae84-da0806a695f7" d="M30.06885,6.14746c-1.59717-.35693-2.85938-1.61914-3.2168-3.21875-.09131-.40088-.44141-.68066-.85205-.68066s-.76074.27979-.85254.68311c-.35693,1.59717-1.61914,2.85938-3.21875,3.2168-.40088.09131-.68066.44141-.68066.85205s.27979.76074.68311.85254c1.59717.35693,2.85938,1.61914,3.2168,3.21875.09131.40088.44141.68066.85205.68066s.76074-.27979.85254-.68311c.35693-1.59717,1.61914-2.85938,3.21631-3.21631.00098,0,.00195-.00049.00244-.00049.40088-.09131.68066-.44141.68066-.85205s-.27979-.76074-.68311-.85254Z"/></g></svg>