<?xml version="1.0" encoding="UTF-8"?><svg xmlns="http://www.w3.org/2000/svg" width="32" height="32" viewBox="0 0 32 32"><defs><style>.uuid-e391f754-cd73-4811-9ed1-961a0bf2524d{fill:none;}.uuid-1f034c55-9999-4538-b2be-2554583f0507{fill:#151515;}</style></defs><g id="uuid-ff4f024c-4402-4c83-b064-ba369315889f"><rect class="uuid-e391f754-cd73-4811-9ed1-961a0bf2524d" width="32" height="32"/></g><g id="uuid-4102de48-a4de-488c-916c-3ce5c70484d5"><path class="uuid-1f034c55-9999-4538-b2be-2554583f0507" d="M19,14.23999l6.23999-6.23999h3.51001c.69,0,1.25-.56,1.25-1.25v-3.5c0-.69-.56-1.25-1.25-1.25h-3.5c-.69,0-1.25.56-1.25,1.25v.87H8v-.87c0-.69-.56-1.25-1.25-1.25h-3.5c-.69,0-1.25.56-1.25,1.25v3.5c0,.69.56,1.25,1.25,1.25h3.51001l6.23999,6.23999v.88h-5v-.87c0-.69-.56-1.25-1.25-1.25h-3.5c-.69,0-1.25.56-1.25,1.25v3.5c0,.69.56,1.25,1.25,1.25h3.5c.69,0,1.25-.56,1.25-1.25v-.87h5v.88l-6.23999,6.23999h-3.51001c-.69,0-1.25.56-1.25,1.25v3.5c0,.69.56,1.25,1.25,1.25h3.5c.69,0,1.25-.56,1.25-1.25v-.87h16v.87c0,.69.56,1.25,1.25,1.25h3.5c.69,0,1.25-.56,1.25-1.25v-3.5c0-.69-.56-1.25-1.25-1.25h-3.51001l-6.23999-6.23999v-.88h5v.87c0,.69.56,1.25,1.25,1.25h3.5c.69,0,1.25-.56,1.25-1.25v-3.5c0-.69-.56-1.25-1.25-1.25h-3.5c-.69,0-1.25.56-1.25,1.25v.87h-5v-.88ZM6,16.88v.12h-2v-2h2v1.88ZM26,15.12v-.12h2v2h-2v-1.88ZM17,16.88v.12h-2v-2h2v1.88ZM26,4h2v2h-2v-2ZM6,6h-2v-2h2v2ZM8,6.76996v-.88995h16v.88995l-6.23999,6.23004h-3.52002l-6.23999-6.23004ZM6,28h-2v-2h2v2ZM28,26v2h-2v-2h2ZM24,25.22998v.89001H8v-.89001l6.23999-6.22998h3.52002l6.23999,6.22998Z"/></g></svg>