<?xml version="1.0" encoding="UTF-8"?><svg xmlns="http://www.w3.org/2000/svg" width="32" height="32" viewBox="0 0 32 32"><defs><style>.uuid-c8fa5349-ddf7-46bd-81c7-c8acb3af5e0a{fill:none;}.uuid-67f07c48-181f-44e2-998a-fadc50563cab{fill:#151515;}</style></defs><g id="uuid-6acfb9fc-af65-49b6-8db9-83ca4cb40c2f"><rect class="uuid-c8fa5349-ddf7-46bd-81c7-c8acb3af5e0a" width="32" height="32"/></g><g id="uuid-25ef296b-1338-42aa-ba15-2b15a7283f29"><path class="uuid-67f07c48-181f-44e2-998a-fadc50563cab" d="M25.25,8h3.5c.68945,0,1.25-.56055,1.25-1.25v-3.5c0-.68945-.56055-1.25-1.25-1.25h-3.5c-.68945,0-1.25.56055-1.25,1.25v.875H8v-.875c0-.68945-.56055-1.25-1.25-1.25h-3.5c-.68945,0-1.25.56055-1.25,1.25v3.5c0,.68945.56055,1.25,1.25,1.25h3.5c.00354,0,.00641-.00201.00995-.00201l6.24219,6.24158c-.00006.00366-.00214.00671-.00214.01044v.875h-5v-.875c0-.68945-.56055-1.25-1.25-1.25h-3.5c-.68945,0-1.25.56055-1.25,1.25v3.5c0,.68945.56055,1.25,1.25,1.25h3.5c.68945,0,1.25-.56055,1.25-1.25v-.875h5v.875c0,.00372.00208.00677.00214.01044l-6.24219,6.24158c-.00354,0-.00641-.00201-.00995-.00201h-3.5c-.68945,0-1.25.56055-1.25,1.25v3.5c0,.68945.56055,1.25,1.25,1.25h3.5c.68945,0,1.25-.56055,1.25-1.25v-.875h16v.875c0,.68945.56055,1.25,1.25,1.25h3.5c.68945,0,1.25-.56055,1.25-1.25v-3.5c0-.68945-.56055-1.25-1.25-1.25h-3.5c-.00354,0-.00641.00201-.00995.00201l-6.24219-6.24158c.00006-.00366.00214-.00671.00214-.01044v-.875h5v.875c0,.68945.56055,1.25,1.25,1.25h3.5c.68945,0,1.25-.56055,1.25-1.25v-3.5c0-.68945-.56055-1.25-1.25-1.25h-3.5c-.68945,0-1.25.56055-1.25,1.25v.875h-5v-.875c0-.00372-.00208-.00677-.00214-.01044l6.24219-6.24158c.00354,0,.00641.00201.00995.00201ZM24,5.875v.875c0,.00372.00208.00684.00214.01056l-6.24158,6.24158c-.00372-.00006-.00684-.00214-.01056-.00214h-3.5c-.00372,0-.00684.00208-.01056.00214l-6.24158-6.24158c.00006-.00372.00214-.00684.00214-.01056v-.875h16ZM8,26.125v-.875c0-.00372-.00208-.00684-.00214-.01056l6.24158-6.24158c.00372.00006.00684.00214.01056.00214h3.5c.00372,0,.00684-.00208.01056-.00214l6.24158,6.24158c-.00006.00372-.00214.00684-.00214.01056v.875H8Z"/></g></svg>