<?xml version="1.0" encoding="UTF-8"?><svg xmlns="http://www.w3.org/2000/svg" viewBox="0 0 32 32"><defs><style>.uuid-96b2a13e-a307-445c-a98d-0edbf47a3e5b{fill:none;}.uuid-96b2a13e-a307-445c-a98d-0edbf47a3e5b,.uuid-df96200b-b243-428b-ba15-0c075f02e0c7{stroke-width:0px;}.uuid-df96200b-b243-428b-ba15-0c075f02e0c7{fill:#151515;}</style></defs><g id="uuid-bdc1636c-ed76-4ebe-92ac-421e4594bbc4"><rect class="uuid-96b2a13e-a307-445c-a98d-0edbf47a3e5b" x="0" width="32" height="32"/></g><g id="uuid-c626a8b2-65e2-40a8-b4f0-3069c3ef786b"><path class="uuid-df96200b-b243-428b-ba15-0c075f02e0c7" d="M30.7954,27.2046l-4.1213-4.1213c.8306-1.1508,1.3259-2.5588,1.3259-4.0833,0-3.8599-3.1401-7-7-7s-7,3.1401-7,7,3.1401,7,7,7c1.5245,0,2.9324-.4954,4.0833-1.3259l4.1213,4.1213c.2197.2197.5073.3296.7954.3296s.5757-.1099.7954-.3296c.4395-.4395.4395-1.1514,0-1.5908ZM16,19c0-2.7568,2.2432-5,5-5s5,2.2432,5,5-2.2432,5-5,5-5-2.2432-5-5Z"/><path class="uuid-df96200b-b243-428b-ba15-0c075f02e0c7" d="M23,27c-.5522,0-1,.4478-1,1v1h-5v-2c0-.5522-.4478-1-1-1s-1,.4478-1,1v2h-5V3h5v8c0,.5522.4478,1,1,1s1-.4478,1-1v-2h5v1c0,.5522.4478,1,1,1s1-.4478,1-1v-1.5c0-.8271-.6729-1.5-1.5-1.5h-5.5V2.5c0-.8271-.6729-1.5-1.5-1.5h-6c-.8271,0-1.5.6729-1.5,1.5v2.5H2.5c-.8271,0-1.5.6729-1.5,1.5v23c0,.8271.6729,1.5,1.5,1.5h20c.8271,0,1.5-.6729,1.5-1.5v-1.5c0-.5522-.4478-1-1-1ZM3,7h5v22H3V7Z"/></g></svg>