<svg xmlns="http://www.w3.org/2000/svg" viewBox="0 0 32 32">
  <defs>
    <style>
      .uuid-df96200b-b243-428b-ba15-0c075f02e0c7{stroke-width:0;fill:#151515}
    </style>
  </defs>
  <path d="M0 0h32v32H0z" id="uuid-bdc1636c-ed76-4ebe-92ac-421e4594bbc4" stroke-width="0" fill="none"/>
  <g id="uuid-c626a8b2-65e2-40a8-b4f0-3069c3ef786b">
    <path class="uuid-df96200b-b243-428b-ba15-0c075f02e0c7" d="m30.795 27.205-4.12-4.122A6.953 6.953 0 0 0 28 19c0-3.86-3.14-7-7-7s-7 3.14-7 7 3.14 7 7 7a6.954 6.954 0 0 0 4.083-1.326l4.122 4.121a1.121 1.121 0 0 0 1.59 0c.44-.44.44-1.151 0-1.59ZM16 19c0-2.757 2.243-5 5-5s5 2.243 5 5-2.243 5-5 5-5-2.243-5-5Z"/>
    <path class="uuid-df96200b-b243-428b-ba15-0c075f02e0c7" d="M23 27a1 1 0 0 0-1 1v1h-5v-2a1 1 0 0 0-2 0v2h-5V3h5v8a1 1 0 0 0 2 0V9h5v1a1 1 0 0 0 2 0V8.5c0-.827-.673-1.5-1.5-1.5H17V2.5c0-.827-.673-1.5-1.5-1.5h-6C8.673 1 8 1.673 8 2.5V5H2.5C1.673 5 1 5.673 1 6.5v23c0 .827.673 1.5 1.5 1.5h20c.827 0 1.5-.673 1.5-1.5V28a1 1 0 0 0-1-1ZM3 7h5v22H3V7Z"/>
  </g>
</svg>
