<?xml version="1.0" encoding="UTF-8"?><svg xmlns="http://www.w3.org/2000/svg" viewBox="0 0 32 32"><defs><style>.uuid-f9dc9571-49a9-4064-855c-2bf7668171ca{fill:none;}.uuid-f9dc9571-49a9-4064-855c-2bf7668171ca,.uuid-5ebfa1de-9658-4f1f-b8b6-5703ca4461c2{stroke-width:0px;}.uuid-5ebfa1de-9658-4f1f-b8b6-5703ca4461c2{fill:#151515;}</style></defs><g id="uuid-9988ded4-7309-495f-b96c-16fd8b02ad0a"><rect class="uuid-f9dc9571-49a9-4064-855c-2bf7668171ca" x="0" width="32" height="32"/></g><g id="uuid-0902bab7-d995-499a-bc40-afe78a671b33"><rect class="uuid-5ebfa1de-9658-4f1f-b8b6-5703ca4461c2" x="1" y="4" width="6" height="27" rx="1.5" ry="1.5"/><path class="uuid-5ebfa1de-9658-4f1f-b8b6-5703ca4461c2" d="M23,10.2318v-2.7318c0-.8271-.6729-1.5-1.5-1.5h-3c-.8271,0-1.5.6729-1.5,1.5v3.4496c1.2068-.6022,2.5621-.9496,4-.9496.6882,0,1.3557.0848,2,.2318Z"/><path class="uuid-5ebfa1de-9658-4f1f-b8b6-5703ca4461c2" d="M17,27.0504v2.4496c0,.8271.6729,1.5,1.5,1.5h3c.8271,0,1.5-.6729,1.5-1.5v-1.7318c-.6443.147-1.3118.2318-2,.2318-1.4379,0-2.7932-.3475-4-.9496Z"/><path class="uuid-5ebfa1de-9658-4f1f-b8b6-5703ca4461c2" d="M30.7954,27.2041l-4.1212-4.1212c.8305-1.1508,1.3258-2.5587,1.3258-4.0829,0-3.8594-3.1401-7-7-7s-7,3.1406-7,7,3.1401,7,7,7c1.5244,0,2.9321-.4953,4.0829-1.3258l4.1217,4.1217c.2197.2197.5073.3291.7954.3291s.5757-.1094.7954-.3291c.4395-.4395.4395-1.1523,0-1.5918ZM21,24c-2.7568,0-5-2.2432-5-5s2.2432-5,5-5,5,2.2432,5,5-2.2432,5-5,5Z"/><path class="uuid-5ebfa1de-9658-4f1f-b8b6-5703ca4461c2" d="M12,19c0-2.6565,1.1637-5.0403,3-6.6891V2.5c0-.8271-.6729-1.5-1.5-1.5h-3c-.8271,0-1.5.6729-1.5,1.5v27c0,.8271.6729,1.5,1.5,1.5h3c.8271,0,1.5-.6729,1.5-1.5v-3.8109c-1.8363-1.6489-3-4.0327-3-6.6891Z"/></g></svg>