<?xml version="1.0" encoding="UTF-8"?><svg xmlns="http://www.w3.org/2000/svg" width="32" height="32" viewBox="0 0 32 32"><defs><style>.uuid-f8e91ab4-46b6-4ce6-9704-0b39b405cf1e{fill:none;}.uuid-95bf3b47-65a8-4ad3-8805-28ba5309f12d{fill:#151515;}</style></defs><g id="uuid-db170545-dfbf-46ae-8f40-9d7ca3cc595a"><rect class="uuid-f8e91ab4-46b6-4ce6-9704-0b39b405cf1e" width="32" height="32"/></g><g id="uuid-7b5b1ea8-0f60-4723-8b06-181b5c579bae"><path class="uuid-95bf3b47-65a8-4ad3-8805-28ba5309f12d" d="M25,27c-.55225,0-1,.44775-1,1v1h-5v-2c0-.55225-.44775-1-1-1s-1,.44775-1,1v2h-5V3h5v8c0,.55225.44775,1,1,1s1-.44775,1-1v-1h5v1c0,.55225.44775,1,1,1s1-.44775,1-1v-1.5c0-.82715-.67285-1.5-1.5-1.5h-5.5V2.5c0-.82715-.67285-1.5-1.5-1.5h-6c-.82715,0-1.5.67285-1.5,1.5v2.5h-5.5c-.82715,0-1.5.67285-1.5,1.5v23c0,.82715.67285,1.5,1.5,1.5h20c.82715,0,1.5-.67285,1.5-1.5v-1.5c0-.55225-.44775-1-1-1ZM10,29h-5V7h5v22Z"/><path class="uuid-95bf3b47-65a8-4ad3-8805-28ba5309f12d" d="M29.70703,25.29297l-2.8219-2.8219c.6991-.98102,1.11487-2.17725,1.11487-3.47107,0-3.30859-2.69141-6-6-6s-6,2.69141-6,6,2.69141,6,6,6c1.29382,0,2.49005-.41577,3.47107-1.11487l2.8219,2.8219c.19531.19531.45117.29297.70703.29297s.51172-.09766.70703-.29297c.39062-.39062.39062-1.02344,0-1.41406ZM22,23c-2.20557,0-4-1.79443-4-4s1.79443-4,4-4,4,1.79443,4,4-1.79443,4-4,4Z"/></g></svg>