<?xml version="1.0" encoding="UTF-8"?><svg xmlns="http://www.w3.org/2000/svg" width="32" height="32" viewBox="0 0 32 32"><defs><style>.uuid-6e5c2802-4d14-4c39-a7e1-6556c427910c{fill:none;}.uuid-3c9bcc77-6e3d-4328-9588-87c19ce085d8{fill:#151515;}</style></defs><g id="uuid-3e489025-6c7c-41fa-930c-35d65c7289b0"><rect class="uuid-6e5c2802-4d14-4c39-a7e1-6556c427910c" width="32" height="32"/></g><g id="uuid-cc1fdf53-acbc-4437-ab94-2c1778dda9fb"><rect class="uuid-3c9bcc77-6e3d-4328-9588-87c19ce085d8" x="3" y="5" width="6" height="26" rx="1.5" ry="1.5"/><path class="uuid-3c9bcc77-6e3d-4328-9588-87c19ce085d8" d="M19,26.41101v3.08899c0,.82715.67285,1.5,1.5,1.5h3c.82715,0,1.5-.67285,1.5-1.5v-3.08899c-.92749.37683-1.93884.58899-3,.58899s-2.07251-.21216-3-.58899Z"/><path class="uuid-3c9bcc77-6e3d-4328-9588-87c19ce085d8" d="M25,11.58899v-2.08899c0-.82715-.67285-1.5-1.5-1.5h-3c-.82715,0-1.5.67285-1.5,1.5v2.08899c.92749-.37683,1.93884-.58899,3-.58899s2.07251.21216,3,.58899Z"/><path class="uuid-3c9bcc77-6e3d-4328-9588-87c19ce085d8" d="M29.70703,25.29297l-2.8219-2.8219c.6991-.98102,1.11487-2.17725,1.11487-3.47107,0-3.30859-2.69141-6-6-6s-6,2.69141-6,6,2.69141,6,6,6c1.29382,0,2.49005-.41577,3.47107-1.11487l2.8219,2.8219c.19531.19531.45117.29297.70703.29297s.51172-.09766.70703-.29297c.39062-.39062.39062-1.02344,0-1.41406ZM22,23c-2.20557,0-4-1.79443-4-4s1.79443-4,4-4,4,1.79443,4,4-1.79443,4-4,4Z"/><path class="uuid-3c9bcc77-6e3d-4328-9588-87c19ce085d8" d="M14,19c0-2.51971,1.17371-4.76764,3-6.23511V2.5c0-.82715-.67285-1.5-1.5-1.5h-3c-.82715,0-1.5.67285-1.5,1.5v27c0,.82715.67285,1.5,1.5,1.5h3c.82715,0,1.5-.67285,1.5-1.5v-4.26489c-1.82629-1.46747-3-3.71539-3-6.23511Z"/></g></svg>