<svg xmlns="http://www.w3.org/2000/svg" viewBox="0 0 32 32">
  <defs>
    <style>
      .uuid-5ebfa1de-9658-4f1f-b8b6-5703ca4461c2{stroke-width:0;fill:#151515}
    </style>
  </defs>
  <path d="M0 0h32v32H0z" id="uuid-9988ded4-7309-495f-b96c-16fd8b02ad0a" stroke-width="0" fill="none"/>
  <g id="uuid-0902bab7-d995-499a-bc40-afe78a671b33">
    <rect class="uuid-5ebfa1de-9658-4f1f-b8b6-5703ca4461c2" x="1" y="4" width="6" height="27" rx="1.5" ry="1.5"/>
    <path class="uuid-5ebfa1de-9658-4f1f-b8b6-5703ca4461c2" d="M23 10.232V7.5c0-.827-.673-1.5-1.5-1.5h-3c-.827 0-1.5.673-1.5 1.5v3.45a8.93 8.93 0 0 1 4-.95 8.97 8.97 0 0 1 2 .232ZM17 27.05v2.45c0 .827.673 1.5 1.5 1.5h3c.827 0 1.5-.673 1.5-1.5v-1.732A8.972 8.972 0 0 1 21 28a8.932 8.932 0 0 1-4-.95Zm13.795.154-4.12-4.121A6.954 6.954 0 0 0 28 19c0-3.86-3.14-7-7-7s-7 3.14-7 7 3.14 7 7 7a6.953 6.953 0 0 0 4.083-1.326l4.122 4.122c.22.22.507.329.795.329s.576-.11.795-.33c.44-.439.44-1.151 0-1.59ZM21 24c-2.757 0-5-2.243-5-5s2.243-5 5-5 5 2.243 5 5-2.243 5-5 5Z"/>
    <path class="uuid-5ebfa1de-9658-4f1f-b8b6-5703ca4461c2" d="M12 19a8.97 8.97 0 0 1 3-6.69V2.5c0-.827-.673-1.5-1.5-1.5h-3C9.673 1 9 1.673 9 2.5v27c0 .827.673 1.5 1.5 1.5h3c.827 0 1.5-.673 1.5-1.5v-3.81c-1.836-1.65-3-4.034-3-6.69Z"/>
  </g>
</svg>
