<?xml version="1.0" encoding="UTF-8"?><svg xmlns="http://www.w3.org/2000/svg" width="32" height="32" viewBox="0 0 32 32"><defs><style>.uuid-5d9b4d53-6265-4c18-8cdc-20dadc78b4c6{fill:none;}.uuid-acb5740b-5a5b-4774-afa1-ae75b0fa4564{fill:#151515;}</style></defs><g id="uuid-2be1a719-72cd-4791-bccb-42b0a74857e0"><rect class="uuid-5d9b4d53-6265-4c18-8cdc-20dadc78b4c6" width="32" height="32"/></g><g id="uuid-2aa453a1-58d8-4e85-956b-cd8f576d152e"><path class="uuid-acb5740b-5a5b-4774-afa1-ae75b0fa4564" d="M28.5,2H8.5c-.82715,0-1.5.67285-1.5,1.5v20c0,.82715.67285,1.5,1.5,1.5h20c.82715,0,1.5-.67285,1.5-1.5V3.5c0-.82715-.67285-1.5-1.5-1.5ZM28,23H9V4h19v19Z"/><path class="uuid-acb5740b-5a5b-4774-afa1-ae75b0fa4564" d="M24,28H4V8c0-.55225-.44727-1-1-1s-1,.44775-1,1v20.5c0,.82715.67285,1.5,1.5,1.5h20.5c.55273,0,1-.44775,1-1s-.44727-1-1-1Z"/><circle class="uuid-acb5740b-5a5b-4774-afa1-ae75b0fa4564" cx="17.00488" cy="9.0033" r="1.625"/><circle class="uuid-acb5740b-5a5b-4774-afa1-ae75b0fa4564" cx="23.00488" cy="9.00781" r="1.625"/></g></svg>