<?xml version="1.0" encoding="UTF-8"?><svg xmlns="http://www.w3.org/2000/svg" width="32" height="32" viewBox="0 0 32 32"><defs><style>.uuid-8ecddb04-6b4f-4f5f-9135-e4668469b50e{fill:none;}.uuid-7c659a22-d9ff-46ac-8c9f-ed9125529ddf{fill:#151515;}</style></defs><g id="uuid-8ceee617-c99b-4c49-8eaf-d3a74816eb6b"><rect class="uuid-8ecddb04-6b4f-4f5f-9135-e4668469b50e" width="32" height="32"/></g><g id="uuid-045ad094-8591-4094-807b-b342d4e46876"><path class="uuid-7c659a22-d9ff-46ac-8c9f-ed9125529ddf" d="M28.5,2H3.5c-.82715,0-1.5.67285-1.5,1.5v25c0,.82715.67285,1.5,1.5,1.5h25c.82715,0,1.5-.67285,1.5-1.5V3.5c0-.82715-.67285-1.5-1.5-1.5ZM17.00488,9.87256c-1.03552,0-1.875-.83948-1.875-1.875,0-1.03558.83948-1.875,1.875-1.875s1.875.83942,1.875,1.875c0,1.03552-.83948,1.875-1.875,1.875ZM24.00488,9.87256c-1.03552,0-1.875-.83948-1.875-1.875,0-1.03558.83948-1.875,1.875-1.875s1.875.83942,1.875,1.875c0,1.03552-.83948,1.875-1.875,1.875Z"/></g></svg>