<?xml version="1.0" encoding="UTF-8"?><svg xmlns="http://www.w3.org/2000/svg" width="32" height="32" viewBox="0 0 32 32"><defs><style>.uuid-efedc9ff-cbe4-4048-9923-ad258a42c865{fill:none;}.uuid-0da12db5-efe3-4437-8c9d-1acb09abedfa{fill:#151515;}</style></defs><g id="uuid-a4ba7d99-41bc-4bd7-9ab1-cd8d0b69c64c"><rect class="uuid-efedc9ff-cbe4-4048-9923-ad258a42c865" width="32" height="32"/></g><g id="uuid-4d958427-819d-425a-bd54-e405e31f0278"><path class="uuid-0da12db5-efe3-4437-8c9d-1acb09abedfa" d="M24,28H4V8c0-.55225-.44727-1-1-1s-1,.44775-1,1v20.5c0,.82715.67285,1.5,1.5,1.5h20.5c.55273,0,1-.44775,1-1s-.44727-1-1-1Z"/><path class="uuid-0da12db5-efe3-4437-8c9d-1acb09abedfa" d="M28.5,2H8.5c-.82715,0-1.5.67285-1.5,1.5v20c0,.82715.67285,1.5,1.5,1.5h20c.82715,0,1.5-.67285,1.5-1.5V3.5c0-.82715-.67285-1.5-1.5-1.5ZM16.99512,9.875c-1.03552,0-1.875-.83948-1.875-1.875s.83948-1.875,1.875-1.875,1.875.83948,1.875,1.875-.83948,1.875-1.875,1.875ZM23.99512,9.875c-1.03552,0-1.875-.83948-1.875-1.875s.83948-1.875,1.875-1.875,1.875.83948,1.875,1.875-.83948,1.875-1.875,1.875Z"/></g></svg>