<?xml version="1.0" encoding="UTF-8"?><svg xmlns="http://www.w3.org/2000/svg" viewBox="0 0 32 32"><defs><style>.uuid-ed1511ed-17dd-4b18-9edc-5e7405e19168{fill:none;}.uuid-ed1511ed-17dd-4b18-9edc-5e7405e19168,.uuid-6f3ffc7b-dcfa-4476-a91a-d38ef549e9c9{stroke-width:0px;}.uuid-6f3ffc7b-dcfa-4476-a91a-d38ef549e9c9{fill:#151515;}</style></defs><g id="uuid-ffa90229-bdc7-45b9-ac56-bc579ea70471"><rect class="uuid-ed1511ed-17dd-4b18-9edc-5e7405e19168" x="0" width="32" height="32"/></g><g id="uuid-47c74820-5ec8-4c38-b7a4-b7f21ef73e0b"><path class="uuid-6f3ffc7b-dcfa-4476-a91a-d38ef549e9c9" d="M29.5,1H2.5c-.8271,0-1.5.6729-1.5,1.5v27c0,.8271.6729,1.5,1.5,1.5h27c.8271,0,1.5-.6729,1.5-1.5V2.5c0-.8271-.6729-1.5-1.5-1.5ZM19,8.5003c-.8284,0-1.5-.6716-1.5-1.5s.6716-1.5,1.5-1.5,1.5.6716,1.5,1.5-.6716,1.5-1.5,1.5ZM25,8.5003c-.8284,0-1.5-.6716-1.5-1.5s.6716-1.5,1.5-1.5,1.5.6716,1.5,1.5-.6716,1.5-1.5,1.5Z"/></g></svg>