<?xml version="1.0" encoding="UTF-8"?><svg xmlns="http://www.w3.org/2000/svg" viewBox="0 0 32 32"><defs><style>.uuid-333b2d11-20ee-45ca-b505-7013f35487e1{fill:none;}.uuid-333b2d11-20ee-45ca-b505-7013f35487e1,.uuid-1aa449be-1900-436b-9d5d-0f86db6b23bd{stroke-width:0px;}.uuid-1aa449be-1900-436b-9d5d-0f86db6b23bd{fill:#151515;}</style></defs><g id="uuid-35eb4c23-4798-4599-a572-b974b830f64c"><rect class="uuid-333b2d11-20ee-45ca-b505-7013f35487e1" width="32" height="32"/></g><g id="uuid-4768fadf-1fd3-4070-9fdb-b673d8923308"><path class="uuid-1aa449be-1900-436b-9d5d-0f86db6b23bd" d="M29.5,1H8.5c-.8271,0-1.5.6729-1.5,1.5v21c0,.8271.6729,1.5,1.5,1.5h21c.8271,0,1.5-.6729,1.5-1.5V2.5c0-.8271-.6729-1.5-1.5-1.5ZM29,23H9V3h20v20Z"/><path class="uuid-1aa449be-1900-436b-9d5d-0f86db6b23bd" d="M25,29H3V7c0-.5522-.4473-1-1-1s-1,.4478-1,1v22.5c0,.8271.6729,1.5,1.5,1.5h22.5c.5527,0,1-.4478,1-1s-.4473-1-1-1Z"/><circle class="uuid-1aa449be-1900-436b-9d5d-0f86db6b23bd" cx="24" cy="8.0002" r="1.5"/><circle class="uuid-1aa449be-1900-436b-9d5d-0f86db6b23bd" cx="19" cy="8.0002" r="1.5"/></g></svg>