<?xml version="1.0" encoding="UTF-8"?><svg xmlns="http://www.w3.org/2000/svg" width="32" height="32" viewBox="0 0 32 32"><defs><style>.uuid-031b0f65-da37-4f42-9096-d5c508659605{fill:none;}.uuid-fabc807f-e563-402e-bb28-d6371fb26b0d{fill:#151515;}</style></defs><g id="uuid-ca380b55-b62d-4864-a1bd-69cb6e38a011"><rect class="uuid-031b0f65-da37-4f42-9096-d5c508659605" width="32" height="32"/></g><g id="uuid-467b76a7-aa58-43cc-a069-752589f85e11"><path class="uuid-fabc807f-e563-402e-bb28-d6371fb26b0d" d="M21,11c-.55225,0-1,.44727-1,1v6.58588l-8.24268-8.2431c-.39062-.39062-1.02344-.39062-1.41406,0s-.39062,1.02344,0,1.41406l8.24274,8.24316h-6.586c-.55225,0-1,.44727-1,1s.44775,1,1,1h8.5c.82715,0,1.5-.67285,1.5-1.5v-8.5c0-.55273-.44775-1-1-1Z"/><path class="uuid-fabc807f-e563-402e-bb28-d6371fb26b0d" d="M16,1C7.729,1,1,7.72852,1,16s6.729,15,15,15,15-6.72852,15-15S24.271,1,16,1ZM16,29c-7.16846,0-13-5.83203-13-13S8.83154,3,16,3s13,5.83203,13,13-5.83154,13-13,13Z"/></g></svg>