<?xml version="1.0" encoding="UTF-8"?><svg xmlns="http://www.w3.org/2000/svg" width="32" height="32" viewBox="0 0 32 32"><defs><style>.uuid-3da513b4-b7ce-46ce-a813-6616f3abbecc{fill:none;}.uuid-b9cc0258-ee3b-4661-ac91-336efad89251{fill:#151515;}</style></defs><g id="uuid-2f08efde-3aba-43d7-8b66-ed53fb99b6cc"><rect class="uuid-3da513b4-b7ce-46ce-a813-6616f3abbecc" width="32" height="32"/></g><g id="uuid-da2e3d25-adbc-4264-911d-a5c65e4dfd75"><path class="uuid-b9cc0258-ee3b-4661-ac91-336efad89251" d="M16,1C7.729,1,1,7.72852,1,16s6.729,15,15,15,15-6.72852,15-15S24.271,1,16,1ZM22.79541,22.7959c-.21973.21973-.50732.3291-.79541.3291s-.57568-.10938-.79541-.3291l-10.07959-10.07959v6.28369c0,.62109-.50391,1.125-1.125,1.125s-1.125-.50391-1.125-1.125v-8.5c0-.89648.729-1.625,1.625-1.625h8.5c.62109,0,1.125.50391,1.125,1.125s-.50391,1.125-1.125,1.125h-6.28369l10.0791,10.0791c.43945.43945.43945,1.15234,0,1.5918Z"/></g></svg>