<?xml version="1.0" encoding="UTF-8"?><svg xmlns="http://www.w3.org/2000/svg" viewBox="0 0 32 32"><defs><style>.uuid-e450d5f9-5e38-4bb7-ac39-131f96c973b8{fill:none;}.uuid-e450d5f9-5e38-4bb7-ac39-131f96c973b8,.uuid-c0ba7a9e-d28a-47c6-a714-c18054e33573{stroke-width:0px;}.uuid-c0ba7a9e-d28a-47c6-a714-c18054e33573{fill:#151515;}</style></defs><g id="uuid-f70f386a-9d99-48d6-a9b1-0ff93da71fe4"><rect class="uuid-e450d5f9-5e38-4bb7-ac39-131f96c973b8" width="32" height="32"/></g><g id="uuid-098cc862-591f-4f50-a26c-cff8df975e6b"><path class="uuid-c0ba7a9e-d28a-47c6-a714-c18054e33573" d="M16,0C7.1777,0,0,7.1777,0,16s7.1777,16,16,16,16-7.1777,16-16S24.8223,0,16,0ZM22.7959,14.7959c-.2197.2197-.5078.3291-.7959.3291s-.5762-.1094-.7959-.3291l-4.0791-4.0799v13.284c0,.6211-.5039,1.125-1.125,1.125s-1.125-.5039-1.125-1.125v-13.284l-4.0791,4.0799c-.4395.4395-1.1523.4395-1.5918,0-.4385-.4395-.4385-1.1523,0-1.5918l5.6465-5.6465c.6348-.6328,1.6641-.6328,2.2988,0l5.6465,5.6465c.4385.4395.4385,1.1523,0,1.5918Z"/></g></svg>