<svg xmlns="http://www.w3.org/2000/svg" viewBox="0 0 32 32">
  <defs>
    <style>
      .uuid-22ae3f03-bf45-43b4-9db6-5332364127ed{stroke-width:0;fill:#151515}
    </style>
  </defs>
  <path d="M0 0h32v32H0z" id="uuid-f38ea66c-2f2b-425f-b5cb-3f493b03718c" stroke-width="0" fill="none"/>
  <g id="uuid-ddad31d4-b247-462c-8c30-481c3895f8d3">
    <path class="uuid-22ae3f03-bf45-43b4-9db6-5332364127ed" d="M16 0C7.178 0 0 7.178 0 16s7.178 16 16 16 16-7.178 16-16S24.822 0 16 0Zm0 30C8.28 30 2 23.72 2 16S8.28 2 16 2s14 6.28 14 14-6.28 14-14 14Z"/>
    <path class="uuid-22ae3f03-bf45-43b4-9db6-5332364127ed" d="M18.707 9.293a1 1 0 1 0-1.414 1.414L21.586 15H8a1 1 0 1 0 0 2h13.586l-4.293 4.293a1 1 0 1 0 1.414 1.414l5.646-5.646a1.501 1.501 0 0 0 0-2.121l-5.646-5.647Z"/>
  </g>
</svg>
