<?xml version="1.0" encoding="UTF-8"?><svg xmlns="http://www.w3.org/2000/svg" width="32" height="32" viewBox="0 0 32 32"><defs><style>.uuid-e9c6c49e-c2e5-4644-b5fb-1ded3b241d55{fill:none;}.uuid-fb082bab-179c-4cd8-9533-1348d19f0365{fill:#151515;}</style></defs><g id="uuid-9c5dded7-0137-4309-94aa-49b4bdfedb0a"><rect class="uuid-e9c6c49e-c2e5-4644-b5fb-1ded3b241d55" width="32" height="32"/></g><g id="uuid-368f2b2b-b78a-48b4-8486-14a0f2b8606c"><path class="uuid-fb082bab-179c-4cd8-9533-1348d19f0365" d="M21.29297,23.29297l-4.29297,4.29297V4.41406l4.29297,4.29297c.19531.19531.45117.29297.70703.29297s.51172-.09766.70703-.29297c.39062-.39062.39062-1.02344,0-1.41406l-5.64648-5.64648c-.58496-.58594-1.53613-.58594-2.12109,0l-5.64648,5.64648c-.39062.39062-.39062,1.02344,0,1.41406s1.02344.39062,1.41406,0l4.29297-4.29297v23.17188l-4.29297-4.29297c-.39062-.39062-1.02344-.39062-1.41406,0s-.39062,1.02344,0,1.41406l5.64648,5.64648c.29248.29297.67627.43848,1.06055.43848s.76807-.14551,1.06055-.43848l5.64648-5.64648c.39062-.39062.39062-1.02344,0-1.41406s-1.02344-.39062-1.41406,0Z"/></g></svg>