<svg xmlns="http://www.w3.org/2000/svg" viewBox="0 0 32 32">
  <defs>
    <style>
      .uuid-74b96bf4-3ce0-474d-af32-c47b3fca77d0{stroke-width:0;fill:#151515}
    </style>
  </defs>
  <path d="M0 0h32v32H0z" id="uuid-76f94a56-592f-49f3-83c0-176bb351c1b9" stroke-width="0" fill="none"/>
  <g id="uuid-4eba8122-8e72-4705-ae46-1593b0329962">
    <path class="uuid-74b96bf4-3ce0-474d-af32-c47b3fca77d0" d="M16 0C7.178 0 0 7.178 0 16s7.178 16 16 16 16-7.178 16-16S24.822 0 16 0Zm0 30C8.28 30 2 23.72 2 16S8.28 2 16 2s14 6.28 14 14-6.28 14-14 14Z"/>
    <path class="uuid-74b96bf4-3ce0-474d-af32-c47b3fca77d0" d="M21.293 17.293 17 21.586V8a1 1 0 1 0-2 0v13.586l-4.293-4.293a1 1 0 1 0-1.414 1.414l5.646 5.647c.292.292.677.438 1.06.438s.77-.146 1.061-.438l5.647-5.647a1 1 0 1 0-1.414-1.414Z"/>
  </g>
</svg>
