<?xml version="1.0" encoding="UTF-8"?><svg xmlns="http://www.w3.org/2000/svg" width="32" height="32" viewBox="0 0 32 32"><defs><style>.uuid-3f3a7497-9476-4448-acca-e0e42d603f6d{fill:none;}.uuid-3f3e36bc-9161-421e-bb4a-58b5836f1e51{fill:#151515;}</style></defs><g id="uuid-a4a5946e-dd4c-4f43-92fe-804728eff8c3"><rect class="uuid-3f3a7497-9476-4448-acca-e0e42d603f6d" width="32" height="32"/></g><g id="uuid-0aa8bf01-36a3-4027-8fee-7449d0fe499a"><path class="uuid-3f3e36bc-9161-421e-bb4a-58b5836f1e51" d="M20.24268,10.34277l-8.24268,8.2431v-6.58588c0-.55273-.44775-1-1-1s-1,.44727-1,1v8.5c0,.82715.67285,1.5,1.5,1.5h8.5c.55225,0,1-.44727,1-1s-.44775-1-1-1h-6.586l8.24274-8.24316c.39062-.39062.39062-1.02344,0-1.41406s-1.02344-.39062-1.41406,0Z"/><path class="uuid-3f3e36bc-9161-421e-bb4a-58b5836f1e51" d="M16,1C7.729,1,1,7.72852,1,16s6.729,15,15,15,15-6.72852,15-15S24.271,1,16,1ZM16,29c-7.16846,0-13-5.83203-13-13S8.83154,3,16,3s13,5.83203,13,13-5.83154,13-13,13Z"/></g></svg>