<?xml version="1.0" encoding="UTF-8"?><svg xmlns="http://www.w3.org/2000/svg" viewBox="0 0 32 32"><defs><style>.uuid-0ffa46da-0fe6-4fad-b4e1-699e40f75adc{fill:none;}.uuid-0ffa46da-0fe6-4fad-b4e1-699e40f75adc,.uuid-74b96bf4-3ce0-474d-af32-c47b3fca77d0{stroke-width:0px;}.uuid-74b96bf4-3ce0-474d-af32-c47b3fca77d0{fill:#151515;}</style></defs><g id="uuid-76f94a56-592f-49f3-83c0-176bb351c1b9"><rect class="uuid-0ffa46da-0fe6-4fad-b4e1-699e40f75adc" width="32" height="32"/></g><g id="uuid-4eba8122-8e72-4705-ae46-1593b0329962"><path class="uuid-74b96bf4-3ce0-474d-af32-c47b3fca77d0" d="M16,0C7.1777,0,0,7.1777,0,16s7.1777,16,16,16,16-7.1777,16-16S24.8223,0,16,0ZM16,30c-7.7197,0-14-6.2803-14-14S8.2803,2,16,2s14,6.2803,14,14-6.2803,14-14,14Z"/><path class="uuid-74b96bf4-3ce0-474d-af32-c47b3fca77d0" d="M21.293,17.293l-4.293,4.293v-13.5859c0-.5522-.4473-1-1-1s-1,.4478-1,1v13.5859l-4.293-4.293c-.3906-.3906-1.0234-.3906-1.4141,0s-.3906,1.0234,0,1.4141l5.6465,5.6465c.292.2925.6768.4385,1.0605.4385s.7686-.146,1.0605-.4385l5.6465-5.6465c.3906-.3906.3906-1.0234,0-1.4141s-1.0234-.3906-1.4141,0Z"/></g></svg>