<?xml version="1.0" encoding="UTF-8"?><svg xmlns="http://www.w3.org/2000/svg" width="32" height="32" viewBox="0 0 32 32"><defs><style>.uuid-6dd35a7b-d583-4e45-82bc-c41130d1bbca{fill:none;}.uuid-a7b51dfd-29bc-40bf-8479-2d633580b5b8{fill:#151515;}</style></defs><g id="uuid-aeb38080-c6e7-4eaf-9033-9cda36de6e5a"><rect class="uuid-6dd35a7b-d583-4e45-82bc-c41130d1bbca" width="32" height="32"/></g><g id="uuid-f9f8d3bd-3aa2-412f-b648-0e47a787fae8"><path class="uuid-a7b51dfd-29bc-40bf-8479-2d633580b5b8" d="M16,1C7.72852,1,1,7.729,1,16s6.72852,15,15,15,15-6.729,15-15S24.27148,1,16,1ZM24.44238,17.14893l-5.64648,5.64648c-.21973.21973-.50781.32959-.7959.32959s-.57617-.10986-.7959-.32959c-.43848-.43945-.43848-1.15137,0-1.59082l4.07996-4.07959h-13.28406c-.62109,0-1.125-.50391-1.125-1.125s.50391-1.125,1.125-1.125h13.28406l-4.07996-4.07959c-.43848-.43945-.43848-1.15137,0-1.59082.43945-.43945,1.15234-.43945,1.5918,0l5.64648,5.64648c.63281.6333.63281,1.66455,0,2.29785Z"/></g></svg>