<?xml version="1.0" encoding="UTF-8"?><svg xmlns="http://www.w3.org/2000/svg" viewBox="0 0 32 32"><defs><style>.uuid-ebcb1b56-0503-4ff1-8c3e-18ef546a4408{fill:none;}.uuid-ebcb1b56-0503-4ff1-8c3e-18ef546a4408,.uuid-362c1759-c194-4def-9ac2-0ecd14ab59cb{stroke-width:0px;}.uuid-362c1759-c194-4def-9ac2-0ecd14ab59cb{fill:#151515;}</style></defs><g id="uuid-c8a0665f-c03e-4b51-86e6-e86487c8982f"><rect class="uuid-ebcb1b56-0503-4ff1-8c3e-18ef546a4408" width="32" height="32"/></g><g id="uuid-e067255e-e73a-467d-9112-6b87dde032d3"><path class="uuid-362c1759-c194-4def-9ac2-0ecd14ab59cb" d="M16,0C7.1777,0,0,7.1777,0,16s7.1777,16,16,16,16-7.1777,16-16S24.8223,0,16,0ZM24,17.125h-13.284l4.0799,4.0791c.4385.4395.4385,1.1523,0,1.5918-.2197.2197-.5078.3291-.7959.3291s-.5762-.1094-.7959-.3291l-5.6465-5.6465c-.6328-.6338-.6328-1.665,0-2.2988l5.6465-5.6465c.4395-.4395,1.1523-.4395,1.5918,0,.4385.4395.4385,1.1523,0,1.5918l-4.0799,4.0791h13.284c.6211,0,1.125.5039,1.125,1.125s-.5039,1.125-1.125,1.125Z"/></g></svg>