<?xml version="1.0" encoding="UTF-8"?><svg xmlns="http://www.w3.org/2000/svg" width="32" height="32" viewBox="0 0 32 32"><defs><style>.uuid-01f76daf-0fb2-4620-9ce2-2f3c6ef9b5ca{fill:none;}.uuid-1e52e41c-2933-4ab4-844a-d7b3a58923ca{fill:#151515;}</style></defs><g id="uuid-00dfaf56-34f4-430b-a903-b36823712965"><rect class="uuid-01f76daf-0fb2-4620-9ce2-2f3c6ef9b5ca" width="32" height="32"/></g><g id="uuid-3a687aeb-4d64-48a9-bda8-e92031a5f3c1"><path class="uuid-1e52e41c-2933-4ab4-844a-d7b3a58923ca" d="M16,1C7.72852,1,1,7.729,1,16s6.72852,15,15,15,15-6.729,15-15S24.27148,1,16,1ZM16,29c-7.16797,0-13-5.83154-13-13S8.83203,3,16,3s13,5.83154,13,13-5.83203,13-13,13Z"/><path class="uuid-1e52e41c-2933-4ab4-844a-d7b3a58923ca" d="M17.70703,9.29297c-.39062-.39062-1.02344-.39062-1.41406,0s-.39062,1.02344,0,1.41406l4.29297,4.29297h-11.58594c-.55273,0-1,.44775-1,1s.44727,1,1,1h11.58594l-4.29297,4.29297c-.39062.39062-.39062,1.02344,0,1.41406.19531.19531.45117.29297.70703.29297s.51172-.09766.70703-.29297l5.64648-5.64648c.58496-.58496.58496-1.53613,0-2.12109l-5.64648-5.64648Z"/></g></svg>