<?xml version="1.0" encoding="UTF-8"?><svg xmlns="http://www.w3.org/2000/svg" width="32" height="32" viewBox="0 0 32 32"><defs><style>.uuid-70cc1197-975b-4d79-8c52-4565753a7b7a{fill:none;}.uuid-da9a3f8b-3e70-4b7c-a753-4d5a59e2c074{fill:#151515;}</style></defs><g id="uuid-8b31a089-6698-498e-aca7-d2c745878da3"><rect class="uuid-70cc1197-975b-4d79-8c52-4565753a7b7a" width="32" height="32"/></g><g id="uuid-2a389b76-262d-48ac-91de-307dec10bc9f"><path class="uuid-da9a3f8b-3e70-4b7c-a753-4d5a59e2c074" d="M16,1C7.72852,1,1,7.729,1,16s6.72852,15,15,15,15-6.729,15-15S24.27148,1,16,1ZM22.7959,14.79541c-.21973.21973-.50781.32959-.7959.32959s-.57617-.10986-.7959-.32959l-4.0791-4.07947v13.28406c0,.62109-.50391,1.125-1.125,1.125s-1.125-.50391-1.125-1.125v-13.28406l-4.0791,4.07947c-.43945.43945-1.15234.43945-1.5918,0-.43848-.43945-.43848-1.15137,0-1.59082l5.64648-5.64648c.63477-.63379,1.66406-.63379,2.29883,0l5.64648,5.64648c.43848.43945.43848,1.15137,0,1.59082Z"/></g></svg>