<?xml version="1.0" encoding="UTF-8"?><svg xmlns="http://www.w3.org/2000/svg" viewBox="0 0 32 32"><defs><style>.uuid-3dab2280-479a-4eb7-9c01-c5e20db58e3f{fill:none;}.uuid-3dab2280-479a-4eb7-9c01-c5e20db58e3f,.uuid-22ae3f03-bf45-43b4-9db6-5332364127ed{stroke-width:0px;}.uuid-22ae3f03-bf45-43b4-9db6-5332364127ed{fill:#151515;}</style></defs><g id="uuid-f38ea66c-2f2b-425f-b5cb-3f493b03718c"><rect class="uuid-3dab2280-479a-4eb7-9c01-c5e20db58e3f" width="32" height="32"/></g><g id="uuid-ddad31d4-b247-462c-8c30-481c3895f8d3"><path class="uuid-22ae3f03-bf45-43b4-9db6-5332364127ed" d="M16,0C7.1777,0,0,7.1777,0,16s7.1777,16,16,16,16-7.1777,16-16S24.8223,0,16,0ZM16,30c-7.7197,0-14-6.2803-14-14S8.2803,2,16,2s14,6.2803,14,14-6.2803,14-14,14Z"/><path class="uuid-22ae3f03-bf45-43b4-9db6-5332364127ed" d="M18.707,9.293c-.3906-.3906-1.0234-.3906-1.4141,0s-.3906,1.0234,0,1.4141l4.293,4.293h-13.5859c-.5527,0-1,.4478-1,1s.4473,1,1,1h13.5859l-4.293,4.293c-.3906.3906-.3906,1.0234,0,1.4141.1953.1953.4512.293.707.293s.5117-.0977.707-.293l5.6465-5.6465c.585-.585.585-1.5361,0-2.1211l-5.6465-5.6465Z"/></g></svg>