<?xml version="1.0" encoding="UTF-8"?><svg xmlns="http://www.w3.org/2000/svg" width="32" height="32" viewBox="0 0 32 32"><defs><style>.uuid-8d46f065-7661-432b-99eb-d35a6851eecb{fill:none;}.uuid-0dfbdf41-fbed-4797-895c-52fa0c843a56{fill:#151515;}</style></defs><g id="uuid-81ac8bbf-d694-40ea-87cf-4d7870587040"><rect class="uuid-8d46f065-7661-432b-99eb-d35a6851eecb" width="32" height="32"/></g><g id="uuid-4e6e7024-4234-40eb-b7a2-b3ad12db1cac"><path class="uuid-0dfbdf41-fbed-4797-895c-52fa0c843a56" d="M16,1C7.72852,1,1,7.729,1,16s6.72852,15,15,15,15-6.729,15-15S24.27148,1,16,1ZM16,29c-7.16797,0-13-5.83154-13-13S8.83203,3,16,3s13,5.83154,13,13-5.83203,13-13,13Z"/><path class="uuid-0dfbdf41-fbed-4797-895c-52fa0c843a56" d="M17.06055,8.64648c-.58398-.58496-1.53711-.58496-2.12109,0l-5.64648,5.64648c-.39062.39062-.39062,1.02344,0,1.41406s1.02344.39062,1.41406,0l4.29297-4.29297v11.58594c0,.55225.44727,1,1,1s1-.44775,1-1v-11.58594l4.29297,4.29297c.19531.19531.45117.29297.70703.29297s.51172-.09766.70703-.29297c.39062-.39062.39062-1.02344,0-1.41406l-5.64648-5.64648Z"/></g></svg>