<?xml version="1.0" encoding="UTF-8"?><svg xmlns="http://www.w3.org/2000/svg" width="32" height="32" viewBox="0 0 32 32"><defs><style>.uuid-25fc1ae2-c252-4836-821e-772f63eced53{fill:none;}.uuid-5ddf0f25-7693-4a05-aa7e-d84f2a5dbbb3{fill:#151515;}</style></defs><g id="uuid-682ef513-fb8b-4d5d-81d9-1ff317cc7c1c"><rect class="uuid-25fc1ae2-c252-4836-821e-772f63eced53" width="32" height="32"/></g><g id="uuid-8da410f0-b98f-4ba2-a348-50ba0469ed8f"><path class="uuid-5ddf0f25-7693-4a05-aa7e-d84f2a5dbbb3" d="M30.35352,14.93945l-5.64648-5.64648c-.39062-.39062-1.02344-.39062-1.41406,0s-.39062,1.02344,0,1.41406l4.29297,4.29297H4.41406l4.29297-4.29297c.39062-.39062.39062-1.02344,0-1.41406s-1.02344-.39062-1.41406,0L1.64648,14.93945c-.58496.58496-.58496,1.53613,0,2.12109l5.64648,5.64648c.19531.19531.45117.29297.70703.29297s.51172-.09766.70703-.29297c.39062-.39062.39062-1.02344,0-1.41406l-4.29297-4.29297h23.17188l-4.29297,4.29297c-.39062.39062-.39062,1.02344,0,1.41406.19531.19531.45117.29297.70703.29297s.51172-.09766.70703-.29297l5.64648-5.64648c.58496-.58496.58496-1.53613,0-2.12109Z"/></g></svg>