<?xml version="1.0" encoding="UTF-8"?><svg xmlns="http://www.w3.org/2000/svg" viewBox="0 0 32 32"><defs><style>.uuid-c62273bc-8755-440d-b319-de551acefef4{fill:none;}.uuid-c62273bc-8755-440d-b319-de551acefef4,.uuid-39c8b934-7ddf-4ea5-b00d-53f09930fd06{stroke-width:0px;}.uuid-39c8b934-7ddf-4ea5-b00d-53f09930fd06{fill:#151515;}</style></defs><g id="uuid-384af626-9aaf-4c8a-b124-b8bd832950e5"><rect class="uuid-c62273bc-8755-440d-b319-de551acefef4" width="32" height="32"/></g><g id="uuid-212aeed5-294d-423b-aa44-ada91c660bca"><path class="uuid-39c8b934-7ddf-4ea5-b00d-53f09930fd06" d="M16,0C7.1777,0,0,7.1777,0,16s7.1777,16,16,16,16-7.1777,16-16S24.8223,0,16,0ZM24.4424,17.1494l-5.6465,5.6465c-.2197.2197-.5078.3291-.7959.3291s-.5762-.1094-.7959-.3291c-.4385-.4395-.4385-1.1523,0-1.5918l4.0799-4.0791h-13.284c-.6211,0-1.125-.5039-1.125-1.125s.5039-1.125,1.125-1.125h13.284l-4.0799-4.0791c-.4385-.4395-.4385-1.1523,0-1.5918.4395-.4395,1.1523-.4395,1.5918,0l5.6465,5.6465c.6328.6338.6328,1.665,0,2.2988Z"/></g></svg>