<?xml version="1.0" encoding="UTF-8"?><svg xmlns="http://www.w3.org/2000/svg" viewBox="0 0 32 32"><defs><style>.uuid-03d60532-cf8f-44c5-829a-58abe312826f{fill:none;}.uuid-03d60532-cf8f-44c5-829a-58abe312826f,.uuid-0fa42c7d-857e-429c-a6ea-270bc635af26{stroke-width:0px;}.uuid-0fa42c7d-857e-429c-a6ea-270bc635af26{fill:#151515;}</style></defs><g id="uuid-5ab31b75-e590-4e9e-a719-a7a211c896e6"><rect class="uuid-03d60532-cf8f-44c5-829a-58abe312826f" width="32" height="32"/></g><g id="uuid-9015cde7-d4fd-47b3-a7fe-6fe7fac1e13d"><path class="uuid-0fa42c7d-857e-429c-a6ea-270bc635af26" d="M16,0C7.1777,0,0,7.1777,0,16s7.1777,16,16,16,16-7.1777,16-16S24.8223,0,16,0ZM22.7959,18.7959l-5.6465,5.6465c-.3174.3164-.7334.4746-1.1494.4746s-.832-.1582-1.1494-.4746l-5.6465-5.6465c-.4385-.4395-.4385-1.1523,0-1.5918.4395-.4395,1.1523-.4395,1.5918,0l4.0791,4.0799v-13.284c0-.6211.5039-1.125,1.125-1.125s1.125.5039,1.125,1.125v13.284l4.0791-4.0799c.4395-.4395,1.1523-.4395,1.5918,0,.4385.4395.4385,1.1523,0,1.5918Z"/></g></svg>