<?xml version="1.0" encoding="UTF-8"?><svg xmlns="http://www.w3.org/2000/svg" width="32" height="32" viewBox="0 0 32 32"><defs><style>.uuid-a4647ec2-9e39-4c89-8d7c-b39de71f00d2{fill:none;}.uuid-e7aeac1d-da3f-4f9a-a6a5-d8a9fd16abf8{fill:#151515;}</style></defs><g id="uuid-2e7772d0-3a5b-4e1f-8cb0-d8b30d2d0ed2"><rect class="uuid-a4647ec2-9e39-4c89-8d7c-b39de71f00d2" width="32" height="32"/></g><g id="uuid-69b94599-1210-4471-b4f0-b66bca1ee31b"><path class="uuid-e7aeac1d-da3f-4f9a-a6a5-d8a9fd16abf8" d="M16,1C7.729,1,1,7.72852,1,16s6.729,15,15,15,15-6.72852,15-15S24.271,1,16,1ZM23.125,19c0,.62109-.50391,1.125-1.125,1.125s-1.125-.50391-1.125-1.125v-6.28369l-10.07959,10.07959c-.21973.21973-.50732.3291-.79541.3291s-.57568-.10938-.79541-.3291c-.43945-.43945-.43945-1.15234,0-1.5918l10.0791-10.0791h-6.28369c-.62109,0-1.125-.50391-1.125-1.125s.50391-1.125,1.125-1.125h8.5c.896,0,1.625.72852,1.625,1.625v8.5Z"/></g></svg>