<?xml version="1.0" encoding="UTF-8"?><svg xmlns="http://www.w3.org/2000/svg" width="32" height="32" viewBox="0 0 32 32"><defs><style>.uuid-a8b94245-fb31-46e6-b438-e11bf4f60e1d{fill:none;}.uuid-1a33b575-c65b-40d4-b680-294fffe4bea2{fill:#151515;}</style></defs><g id="uuid-aac82714-777a-4ded-b02b-1301468ac079"><rect class="uuid-a8b94245-fb31-46e6-b438-e11bf4f60e1d" width="32" height="32"/></g><g id="uuid-7f3d8432-76bc-4d8b-b1b6-bb9c8295c02c"><path class="uuid-1a33b575-c65b-40d4-b680-294fffe4bea2" d="M16,1C7.729,1,1,7.72852,1,16s6.729,15,15,15,15-6.72852,15-15S24.271,1,16,1ZM22.79541,10.7959l-10.0791,10.0791h6.28369c.62109,0,1.125.50391,1.125,1.125s-.50391,1.125-1.125,1.125h-8.5c-.896,0-1.625-.72852-1.625-1.625v-8.5c0-.62109.50391-1.125,1.125-1.125s1.125.50391,1.125,1.125v6.28369l10.07959-10.07959c.43945-.43945,1.15137-.43945,1.59082,0s.43945,1.15234,0,1.5918Z"/></g></svg>