<?xml version="1.0" encoding="UTF-8"?><svg xmlns="http://www.w3.org/2000/svg" width="32" height="32" viewBox="0 0 32 32"><defs><style>.uuid-8b9c90c8-c2ac-4cfe-b764-7c95ec1cc589{fill:none;}.uuid-7d54d8d7-7f44-416e-9976-52e78742cde8{fill:#151515;}</style></defs><g id="uuid-8ea11c6a-c4f2-4e20-9c34-9d0b99309693"><rect class="uuid-8b9c90c8-c2ac-4cfe-b764-7c95ec1cc589" width="32" height="32"/></g><g id="uuid-445a650e-88c5-4074-ba56-e51ae044acdb"><path class="uuid-7d54d8d7-7f44-416e-9976-52e78742cde8" d="M16,1C7.72852,1,1,7.729,1,16s6.72852,15,15,15,15-6.729,15-15S24.27148,1,16,1ZM16,29c-7.16797,0-13-5.83154-13-13S8.83203,3,16,3s13,5.83154,13,13-5.83203,13-13,13Z"/><path class="uuid-7d54d8d7-7f44-416e-9976-52e78742cde8" d="M21.29297,16.29297l-4.29297,4.29297v-11.58594c0-.55225-.44727-1-1-1s-1,.44775-1,1v11.58594l-4.29297-4.29297c-.39062-.39062-1.02344-.39062-1.41406,0s-.39062,1.02344,0,1.41406l5.64648,5.64648c.29199.29248.67676.43848,1.06055.43848s.76855-.146,1.06055-.43848l5.64648-5.64648c.39062-.39062.39062-1.02344,0-1.41406s-1.02344-.39062-1.41406,0Z"/></g></svg>