<?xml version="1.0" encoding="UTF-8"?><svg xmlns="http://www.w3.org/2000/svg" width="32" height="32" viewBox="0 0 32 32"><defs><style>.uuid-0093a982-190d-4d6c-8df7-e452c90e9c30{fill:none;}.uuid-fa4bcd35-3b7e-4f48-bb01-2abd57f2b2da{fill:#151515;}</style></defs><g id="uuid-6c7290cc-71ef-4247-b2d1-00534ecaa27b"><rect class="uuid-0093a982-190d-4d6c-8df7-e452c90e9c30" width="32" height="32"/></g><g id="uuid-cd7ffe48-3822-448a-81c5-a12f58526a65"><path class="uuid-fa4bcd35-3b7e-4f48-bb01-2abd57f2b2da" d="M16,1C7.729,1,1,7.72852,1,16s6.729,15,15,15,15-6.72852,15-15S24.271,1,16,1ZM23.125,21.5c0,.89648-.729,1.625-1.625,1.625h-8.5c-.62109,0-1.125-.50391-1.125-1.125s.50391-1.125,1.125-1.125h6.28369l-10.0791-10.0791c-.43945-.43945-.43945-1.15234,0-1.5918s1.15137-.43945,1.59082,0l10.07959,10.07959v-6.28369c0-.62109.50391-1.125,1.125-1.125s1.125.50391,1.125,1.125v8.5Z"/></g></svg>