<svg xmlns="http://www.w3.org/2000/svg" viewBox="0 0 32 32">
  <defs>
    <style>
      .uuid-95243f2b-dcfb-4518-9d0c-a4dac7a65579{stroke-width:0;fill:#151515}
    </style>
  </defs>
  <path d="M0 0h32v32H0z" id="uuid-e4b80bed-fe9b-4eae-9f2f-ae4b94e12e24" stroke-width="0" fill="none"/>
  <g id="uuid-d2489b3d-4371-4684-81e8-61a722d140c0">
    <path class="uuid-95243f2b-dcfb-4518-9d0c-a4dac7a65579" d="M16 0C7.178 0 0 7.178 0 16s7.178 16 16 16 16-7.178 16-16S24.822 0 16 0Zm0 30C8.28 30 2 23.72 2 16S8.28 2 16 2s14 6.28 14 14-6.28 14-14 14Z"/>
    <path class="uuid-95243f2b-dcfb-4518-9d0c-a4dac7a65579" d="M24 15H10.414l4.293-4.293a1 1 0 1 0-1.414-1.414l-5.646 5.646a1.501 1.501 0 0 0 0 2.122l5.646 5.646a.997.997 0 0 0 1.414 0 1 1 0 0 0 0-1.414L10.414 17H24a1 1 0 1 0 0-2Z"/>
  </g>
</svg>
