<?xml version="1.0" encoding="UTF-8"?><svg xmlns="http://www.w3.org/2000/svg" width="32" height="32" viewBox="0 0 32 32"><defs><style>.uuid-4e9a7ce7-accc-417d-b37c-cba2f1502e5e{fill:none;}.uuid-75ce8e45-5347-43c7-affa-960068bd3f44{fill:#151515;}</style></defs><g id="uuid-eb8a7195-8da7-4a92-92ed-233654aa4fbf"><rect class="uuid-4e9a7ce7-accc-417d-b37c-cba2f1502e5e" width="32" height="32"/></g><g id="uuid-558a50bf-ac71-4f4d-bb14-c7b2162e464e"><path class="uuid-75ce8e45-5347-43c7-affa-960068bd3f44" d="M16,1C7.72852,1,1,7.729,1,16s6.72852,15,15,15,15-6.729,15-15S24.27148,1,16,1ZM24,17.125h-13.28406l4.07996,4.07959c.43848.43945.43848,1.15137,0,1.59082-.21973.21973-.50781.32959-.7959.32959s-.57617-.10986-.7959-.32959l-5.64648-5.64648c-.63281-.6333-.63281-1.66455,0-2.29785l5.64648-5.64648c.43945-.43945,1.15234-.43945,1.5918,0,.43848.43945.43848,1.15137,0,1.59082l-4.07996,4.07959h13.28406c.62109,0,1.125.50391,1.125,1.125s-.50391,1.125-1.125,1.125Z"/></g></svg>