<?xml version="1.0" encoding="UTF-8"?><svg xmlns="http://www.w3.org/2000/svg" width="32" height="32" viewBox="0 0 32 32"><defs><style>.uuid-25b69f31-dd93-4373-a2f3-741ec73945f1{fill:none;}.uuid-1b5b5e6b-a46d-41cd-a4f8-687fe2f0d3e5{fill:#151515;}</style></defs><g id="uuid-d6d7c4b5-8d7c-4299-818d-9c2df490af6e"><rect class="uuid-25b69f31-dd93-4373-a2f3-741ec73945f1" width="32" height="32"/></g><g id="uuid-361be878-f372-4842-91cc-f0b042378380"><path class="uuid-1b5b5e6b-a46d-41cd-a4f8-687fe2f0d3e5" d="M30.35352,14.93945l-10.64648-10.64648c-.39062-.39062-1.02344-.39062-1.41406,0s-.39062,1.02344,0,1.41406l9.29297,9.29297H2c-.55225,0-1,.44775-1,1s.44775,1,1,1h25.58594l-9.29297,9.29297c-.39062.39062-.39062,1.02344,0,1.41406.19531.19531.45117.29297.70703.29297s.51172-.09766.70703-.29297l10.64648-10.64648c.2832-.2832.43945-.66016.43945-1.06055s-.15625-.77734-.43945-1.06055Z"/></g></svg>