<?xml version="1.0" encoding="UTF-8"?><svg xmlns="http://www.w3.org/2000/svg" width="32" height="32" viewBox="0 0 32 32"><defs><style>.uuid-a60aaf67-f1fe-482a-8c74-f424de17b124{fill:none;}.uuid-06c9097a-269f-4cc4-98a2-bb596d208fb4{fill:#151515;}</style></defs><g id="uuid-5522060b-b260-4530-8bf3-f55268cc47c5"><rect class="uuid-a60aaf67-f1fe-482a-8c74-f424de17b124" width="32" height="32"/></g><g id="uuid-d4873098-4dc2-4cf6-8a37-d961136c9263"><path class="uuid-06c9097a-269f-4cc4-98a2-bb596d208fb4" d="M12.5,18h-6.5c-.55273,0-1,.44727-1,1s.44727,1,1,1h4.58594L2.29297,28.29297c-.39062.39062-.39062,1.02344,0,1.41406.19531.19531.45117.29297.70703.29297s.51172-.09766.70703-.29297l8.29297-8.29297v4.58594c0,.55273.44727,1,1,1s1-.44727,1-1v-6.5c0-.82715-.67285-1.5-1.5-1.5Z"/><path class="uuid-06c9097a-269f-4cc4-98a2-bb596d208fb4" d="M29.70703,2.29297c-.39062-.39062-1.02344-.39062-1.41406,0l-8.29297,8.29297v-4.58594c0-.55273-.44727-1-1-1s-1,.44727-1,1v6.5c0,.82715.67285,1.5,1.5,1.5h6.5c.55273,0,1-.44727,1-1s-.44727-1-1-1h-4.58594L29.70703,3.70703c.39062-.39062.39062-1.02344,0-1.41406Z"/></g></svg>