<?xml version="1.0" encoding="UTF-8"?><svg xmlns="http://www.w3.org/2000/svg" width="32" height="32" viewBox="0 0 32 32"><defs><style>.uuid-f614306c-7faf-44b3-af30-51085fb7f23d{fill:none;}.uuid-1af59b30-26b9-46ec-91b6-0254438b6b96{fill:#151515;}</style></defs><g id="uuid-2c9d9ea9-d2f8-4720-8641-e84da05a1412"><rect class="uuid-f614306c-7faf-44b3-af30-51085fb7f23d" width="32" height="32"/></g><g id="uuid-da5ccbdf-0043-4d09-879b-9fa68880d586"><path class="uuid-1af59b30-26b9-46ec-91b6-0254438b6b96" d="M20.5,10h-8.5c-.55225,0-1,.44727-1,1s.44775,1,1,1h6.586l-8.24274,8.24316c-.39062.39062-.39062,1.02344,0,1.41406.19531.19531.45117.29297.70703.29297s.51172-.09766.70703-.29297l8.24268-8.2431v6.58588c0,.55273.44775,1,1,1s1-.44727,1-1v-8.5c0-.82715-.67285-1.5-1.5-1.5Z"/><path class="uuid-1af59b30-26b9-46ec-91b6-0254438b6b96" d="M16,1C7.729,1,1,7.72852,1,16s6.729,15,15,15,15-6.72852,15-15S24.271,1,16,1ZM16,29c-7.16846,0-13-5.83203-13-13S8.83154,3,16,3s13,5.83203,13,13-5.83154,13-13,13Z"/></g></svg>