<?xml version="1.0" encoding="UTF-8"?><svg xmlns="http://www.w3.org/2000/svg" width="32" height="32" viewBox="0 0 32 32"><defs><style>.uuid-bef8577e-2f24-4f1b-a281-438fb1737b8d{fill:none;}.uuid-8f94e8de-2aa0-4d57-b7d5-4df7a05f96b5{fill:#151515;}</style></defs><g id="uuid-e82e32d1-d141-4b09-a09a-0697625cb3ee"><rect class="uuid-bef8577e-2f24-4f1b-a281-438fb1737b8d" width="32" height="32"/></g><g id="uuid-13b56e82-9596-45d7-9ffe-c1a55e66645d"><path class="uuid-8f94e8de-2aa0-4d57-b7d5-4df7a05f96b5" d="M16,1C7.72852,1,1,7.729,1,16s6.72852,15,15,15,15-6.729,15-15S24.27148,1,16,1ZM16,29c-7.16797,0-13-5.83154-13-13S8.83203,3,16,3s13,5.83154,13,13-5.83203,13-13,13Z"/><path class="uuid-8f94e8de-2aa0-4d57-b7d5-4df7a05f96b5" d="M23,15h-11.58594l4.29297-4.29297c.39062-.39062.39062-1.02344,0-1.41406s-1.02344-.39062-1.41406,0l-5.64648,5.64648c-.58496.58496-.58496,1.53613,0,2.12109l5.64648,5.64648c.19531.19531.45117.29297.70703.29297s.51172-.09766.70703-.29297c.39062-.39062.39062-1.02344,0-1.41406l-4.29297-4.29297h11.58594c.55273,0,1-.44775,1-1s-.44727-1-1-1Z"/></g></svg>