<?xml version="1.0" encoding="UTF-8"?><svg xmlns="http://www.w3.org/2000/svg" viewBox="0 0 32 32"><defs><style>.uuid-835f5e99-b520-439c-a54d-6942f069f719{fill:none;}.uuid-835f5e99-b520-439c-a54d-6942f069f719,.uuid-95243f2b-dcfb-4518-9d0c-a4dac7a65579{stroke-width:0px;}.uuid-95243f2b-dcfb-4518-9d0c-a4dac7a65579{fill:#151515;}</style></defs><g id="uuid-e4b80bed-fe9b-4eae-9f2f-ae4b94e12e24"><rect class="uuid-835f5e99-b520-439c-a54d-6942f069f719" width="32" height="32"/></g><g id="uuid-d2489b3d-4371-4684-81e8-61a722d140c0"><path class="uuid-95243f2b-dcfb-4518-9d0c-a4dac7a65579" d="M16,0C7.1777,0,0,7.1777,0,16s7.1777,16,16,16,16-7.1777,16-16S24.8223,0,16,0ZM16,30c-7.7197,0-14-6.2803-14-14S8.2803,2,16,2s14,6.2803,14,14-6.2803,14-14,14Z"/><path class="uuid-95243f2b-dcfb-4518-9d0c-a4dac7a65579" d="M24,15h-13.5859l4.293-4.293c.3906-.3906.3906-1.0234,0-1.4141s-1.0234-.3906-1.4141,0l-5.6465,5.6465c-.585.585-.585,1.5361,0,2.1211l5.6465,5.6465c.1953.1953.4512.293.707.293s.5117-.0977.707-.293c.3906-.3906.3906-1.0234,0-1.4141l-4.293-4.293h13.5859c.5527,0,1-.4478,1-1s-.4473-1-1-1Z"/></g></svg>