<?xml version="1.0" encoding="UTF-8"?><svg xmlns="http://www.w3.org/2000/svg" viewBox="0 0 32 32"><defs><style>.uuid-ad86b528-155e-422b-a088-e23f2d676ce8{fill:none;}.uuid-ad86b528-155e-422b-a088-e23f2d676ce8,.uuid-2495c97b-8871-4093-ace3-c18e51193542{stroke-width:0px;}.uuid-2495c97b-8871-4093-ace3-c18e51193542{fill:#151515;}</style></defs><g id="uuid-962c9a65-f5d2-4ba6-804b-2a466892fb16"><rect class="uuid-ad86b528-155e-422b-a088-e23f2d676ce8" width="32" height="32"/></g><g id="uuid-bf66ab8a-41ad-4e67-bc3f-b33d627bb4b4"><path class="uuid-2495c97b-8871-4093-ace3-c18e51193542" d="M16,0C7.1777,0,0,7.1777,0,16s7.1777,16,16,16,16-7.1777,16-16S24.8223,0,16,0ZM16,30c-7.7197,0-14-6.2803-14-14S8.2803,2,16,2s14,6.2803,14,14-6.2803,14-14,14Z"/><path class="uuid-2495c97b-8871-4093-ace3-c18e51193542" d="M17.0605,7.6465c-.584-.585-1.5371-.585-2.1211,0l-5.6465,5.6465c-.3906.3906-.3906,1.0234,0,1.4141s1.0234.3906,1.4141,0l4.293-4.293v13.5859c0,.5522.4473,1,1,1s1-.4478,1-1v-13.5859l4.293,4.293c.1953.1953.4512.293.707.293s.5117-.0977.707-.293c.3906-.3906.3906-1.0234,0-1.4141l-5.6465-5.6465Z"/></g></svg>