<?xml version="1.0" encoding="UTF-8"?><svg xmlns="http://www.w3.org/2000/svg" width="32" height="32" viewBox="0 0 32 32"><defs><style>.uuid-a69aa5f8-6e45-433d-bfee-5da14a3dc8ec{fill:none;}.uuid-9c2d5bdb-7b8f-44e2-a094-142f24c1f072{fill:#151515;}</style></defs><g id="uuid-a246294b-ae11-4f39-bb7c-88788a1acc43"><rect class="uuid-a69aa5f8-6e45-433d-bfee-5da14a3dc8ec" width="32" height="32"/></g><g id="uuid-7f717b01-8e67-40f4-9fef-510b2be9a9d8"><path class="uuid-9c2d5bdb-7b8f-44e2-a094-142f24c1f072" d="M13.414,12h6.586c.55225,0,1-.44727,1-1s-.44775-1-1-1h-8.5c-.82715,0-1.5.67285-1.5,1.5v8.5c0,.55273.44775,1,1,1s1-.44727,1-1v-6.58588l8.24268,8.2431c.19531.19531.45117.29297.70703.29297s.51172-.09766.70703-.29297c.39062-.39062.39062-1.02344,0-1.41406l-8.24274-8.24316Z"/><path class="uuid-9c2d5bdb-7b8f-44e2-a094-142f24c1f072" d="M16,1C7.729,1,1,7.72852,1,16s6.729,15,15,15,15-6.72852,15-15S24.271,1,16,1ZM16,29c-7.16846,0-13-5.83203-13-13S8.83154,3,16,3s13,5.83203,13,13-5.83154,13-13,13Z"/></g></svg>