<?xml version="1.0" encoding="UTF-8"?><svg xmlns="http://www.w3.org/2000/svg" width="32" height="32" viewBox="0 0 32 32"><defs><style>.uuid-9bfc9d88-56e3-44b3-b08e-7f76e4aef47c{fill:none;}.uuid-a3f0a045-b2c2-4e27-9620-51df82606cd5{fill:#151515;}</style></defs><g id="uuid-944a57ec-b5a9-407f-9046-ea8b76676a85"><rect class="uuid-9bfc9d88-56e3-44b3-b08e-7f76e4aef47c" width="32" height="32"/></g><g id="uuid-f7697a19-6405-4a2d-8d64-e1c794831bcc"><path class="uuid-a3f0a045-b2c2-4e27-9620-51df82606cd5" d="M30,15H4.41406L13.70703,5.70703c.39062-.39062.39062-1.02344,0-1.41406s-1.02344-.39062-1.41406,0L1.64648,14.93945c-.2832.2832-.43945.66016-.43945,1.06055s.15625.77734.43945,1.06055l10.64648,10.64648c.19531.19531.45117.29297.70703.29297s.51172-.09766.70703-.29297c.39062-.39062.39062-1.02344,0-1.41406l-9.29297-9.29297h25.58594c.55225,0,1-.44775,1-1s-.44775-1-1-1Z"/></g></svg>