<?xml version="1.0" encoding="UTF-8"?><svg xmlns="http://www.w3.org/2000/svg" width="32" height="32" viewBox="0 0 32 32"><defs><style>.uuid-57bc1f88-89cf-4122-b0b9-55ee37de5fac{fill:none;}.uuid-81e72465-6845-48b2-b8b0-d6ffabff43d9{fill:#151515;}</style></defs><g id="uuid-1c0241bf-bc71-47eb-b417-51c823d1e03f"><rect class="uuid-57bc1f88-89cf-4122-b0b9-55ee37de5fac" width="32" height="32"/></g><g id="uuid-08c960e9-c627-4c91-bc7b-76c3f99bcd33"><path class="uuid-81e72465-6845-48b2-b8b0-d6ffabff43d9" d="M28.5,2h-6.5c-.55273,0-1,.44727-1,1s.44727,1,1,1h4.58594l-8.29297,8.29297c-.39062.39062-.39062,1.02344,0,1.41406.19531.19531.45117.29297.70703.29297s.51172-.09766.70703-.29297l8.29297-8.29297v4.58594c0,.55273.44727,1,1,1s1-.44727,1-1V3.5c0-.82715-.67285-1.5-1.5-1.5Z"/><path class="uuid-81e72465-6845-48b2-b8b0-d6ffabff43d9" d="M12.29297,18.29297l-8.29297,8.29297v-4.58594c0-.55273-.44727-1-1-1s-1,.44727-1,1v6.5c0,.82715.67285,1.5,1.5,1.5h6.5c.55273,0,1-.44727,1-1s-.44727-1-1-1h-4.58594l8.29297-8.29297c.39062-.39062.39062-1.02344,0-1.41406s-1.02344-.39062-1.41406,0Z"/></g></svg>