<?xml version="1.0" encoding="UTF-8"?><svg xmlns="http://www.w3.org/2000/svg" width="32" height="32" viewBox="0 0 32 32"><defs><style>.uuid-a35bba7a-b4bb-4052-9e83-ab1db3b38f32{fill:none;}.uuid-a2be23c3-9248-4cdb-a60a-981baf8875a4{fill:#151515;}</style></defs><g id="uuid-e547b208-e0b2-4b6d-9aab-702230c0f47d"><rect class="uuid-a35bba7a-b4bb-4052-9e83-ab1db3b38f32" width="32" height="32"/></g><g id="uuid-85a4ef4f-e5a3-4238-927f-d0c34955a971"><path class="uuid-a2be23c3-9248-4cdb-a60a-981baf8875a4" d="M16,1C7.72852,1,1,7.729,1,16s6.72852,15,15,15,15-6.729,15-15S24.27148,1,16,1ZM22.7959,18.79541l-5.64648,5.64648c-.31738.31689-.7334.4751-1.14941.4751s-.83203-.1582-1.14941-.4751l-5.64648-5.64648c-.43848-.43945-.43848-1.15137,0-1.59082.43945-.43945,1.15234-.43945,1.5918,0l4.0791,4.07947v-13.28406c0-.62109.50391-1.125,1.125-1.125s1.125.50391,1.125,1.125v13.28406l4.0791-4.07947c.43945-.43945,1.15234-.43945,1.5918,0,.43848.43945.43848,1.15137,0,1.59082Z"/></g></svg>