<?xml version="1.0" encoding="UTF-8"?><svg xmlns="http://www.w3.org/2000/svg" width="32" height="32" viewBox="0 0 32 32"><defs><style>.uuid-6f613b2a-3d84-4c13-b493-11731c2cfa43{fill:none;}.uuid-61c84c4d-e882-4dbe-8b6b-fe8467d579c5{fill:#151515;}</style></defs><g id="uuid-fd18ca48-ba50-4e9c-9bf9-7a52774785d9"><rect class="uuid-6f613b2a-3d84-4c13-b493-11731c2cfa43" width="32" height="32"/></g><g id="uuid-dac51502-75cd-47c9-a6ae-b9891cdcca9c"><path class="uuid-61c84c4d-e882-4dbe-8b6b-fe8467d579c5" d="M16,1C7.72852,1,1,7.72852,1,16s6.72852,15,15,15,15-6.72852,15-15S24.27148,1,16,1ZM16,29c-7.16797,0-13-5.83203-13-13S8.83203,3,16,3s13,5.83203,13,13-5.83203,13-13,13Z"/><path class="uuid-61c84c4d-e882-4dbe-8b6b-fe8467d579c5" d="M25.31934,17.90527c-.26074-.26074-.64453-.3584-.99609-.25-.75781.22852-1.53906.34473-2.32324.34473-4.41113,0-8-3.58887-8-8,0-.78418.11621-1.56543.34473-2.32324.10645-.35254.01074-.73535-.25-.99609-.26074-.25977-.64258-.35645-.99707-.25-4.24512,1.28613-7.09766,5.13184-7.09766,9.56934,0,5.51367,4.48633,10,10,10,4.4375,0,8.2832-2.85254,9.56934-7.09766.10742-.35254.01074-.73633-.25-.99707Z"/></g></svg>