<?xml version="1.0" encoding="UTF-8"?><svg xmlns="http://www.w3.org/2000/svg" width="32" height="32" viewBox="0 0 32 32"><defs><style>.uuid-b6459b06-ccda-40e6-b3c3-f0acf5a518e2{fill:none;}.uuid-6621fd29-d8d2-4a08-9c78-d8961f03b9e7{fill:#151515;}</style></defs><g id="uuid-14e2327c-68f7-4ac3-9336-9c76a7e270fa"><rect class="uuid-b6459b06-ccda-40e6-b3c3-f0acf5a518e2" width="32" height="32"/></g><g id="uuid-985bdea2-2367-4b71-b161-dcc603e0fc83"><path class="uuid-6621fd29-d8d2-4a08-9c78-d8961f03b9e7" d="M16,1C7.72852,1,1,7.72852,1,16s6.72852,15,15,15,15-6.72852,15-15S24.27148,1,16,1ZM25.56934,18.90234c-1.28613,4.24512-5.13184,7.09766-9.56934,7.09766-5.51367,0-10-4.48633-10-10,0-4.4375,2.85254-8.2832,7.09766-9.56934.35449-.10645.73633-.00977.99707.25.26074.26074.35645.64355.25.99609-.22852.75781-.34473,1.53906-.34473,2.32324,0,4.41113,3.58887,8,8,8,.78418,0,1.56543-.11621,2.32324-.34473.35156-.1084.73535-.01074.99609.25s.35742.64453.25.99707Z"/></g></svg>