<?xml version="1.0" encoding="UTF-8"?><svg xmlns="http://www.w3.org/2000/svg" width="32" height="32" viewBox="0 0 32 32"><defs><style>.uuid-a775a7a0-80e5-4262-8444-4108088aef3c{fill:none;}.uuid-5adcd9b3-5550-4234-b7d0-dadf1cdfa04c{fill:#151515;}</style></defs><g id="uuid-41a82216-b6bb-4dde-8052-413a7fc85760"><rect class="uuid-a775a7a0-80e5-4262-8444-4108088aef3c" width="32" height="32"/></g><g id="uuid-4256b485-b94e-4b29-bc3b-5707617b045a"><path class="uuid-5adcd9b3-5550-4234-b7d0-dadf1cdfa04c" d="M29.5,3H2.5c-.82715,0-1.5.67285-1.5,1.5v17c0,.82715.67285,1.5,1.5,1.5h9.5v4h-4c-.55225,0-1,.44775-1,1s.44775,1,1,1h16c.55225,0,1-.44775,1-1s-.44775-1-1-1h-4v-4h9.5c.82715,0,1.5-.67285,1.5-1.5V4.5c0-.82715-.67285-1.5-1.5-1.5ZM8.00488,17.89117c-1.03552,0-1.875-.83948-1.875-1.875s.83948-1.875,1.875-1.875,1.875.83948,1.875,1.875-.83948,1.875-1.875,1.875ZM8.00488,11.87769c-1.03552,0-1.875-.83948-1.875-1.875,0-1.03558.83948-1.875,1.875-1.875s1.875.83942,1.875,1.875c0,1.03552-.83948,1.875-1.875,1.875ZM18,27h-4v-4h4v4ZM25,17.125h-9c-.62109,0-1.125-.50391-1.125-1.125s.50391-1.125,1.125-1.125h9c.62109,0,1.125.50391,1.125,1.125s-.50391,1.125-1.125,1.125ZM25,11.125h-9c-.62109,0-1.125-.50391-1.125-1.125s.50391-1.125,1.125-1.125h9c.62109,0,1.125.50391,1.125,1.125s-.50391,1.125-1.125,1.125Z"/></g></svg>