<?xml version="1.0" encoding="UTF-8"?><svg xmlns="http://www.w3.org/2000/svg" width="32" height="32" viewBox="0 0 32 32"><defs><style>.uuid-e1e7e081-026f-4188-b1d7-6426dbed1e2a{fill:none;}.uuid-c5bedf50-f413-4536-a748-fb2b7a598a19{fill:#151515;}</style></defs><g id="uuid-a4590efa-29a3-4fa8-b92b-d0ef2f8b3f4a"><rect class="uuid-e1e7e081-026f-4188-b1d7-6426dbed1e2a" width="32" height="32"/></g><g id="uuid-7a2006b2-7b8b-4047-9d76-e27faf26ffe2"><path class="uuid-c5bedf50-f413-4536-a748-fb2b7a598a19" d="M29.5,3H2.5c-.82715,0-1.5.67285-1.5,1.5v17c0,.82715.67285,1.5,1.5,1.5h9.5v4h-4c-.55225,0-1,.44775-1,1s.44775,1,1,1h16c.55225,0,1-.44775,1-1s-.44775-1-1-1h-4v-4h9.5c.82715,0,1.5-.67285,1.5-1.5V4.5c0-.82715-.67285-1.5-1.5-1.5ZM18,27h-4v-4h4v4ZM29,21H3V5h26v16Z"/><path class="uuid-c5bedf50-f413-4536-a748-fb2b7a598a19" d="M15,11h8c.55225,0,1-.44775,1-1s-.44775-1-1-1h-8c-.55225,0-1,.44775-1,1s.44775,1,1,1Z"/><path class="uuid-c5bedf50-f413-4536-a748-fb2b7a598a19" d="M15,17h8c.55225,0,1-.44775,1-1s-.44775-1-1-1h-8c-.55225,0-1,.44775-1,1s.44775,1,1,1Z"/><circle class="uuid-c5bedf50-f413-4536-a748-fb2b7a598a19" cx="9.00488" cy="10.0033" r="1.625"/><circle class="uuid-c5bedf50-f413-4536-a748-fb2b7a598a19" cx="9.00488" cy="16.0033" r="1.625"/></g></svg>