<?xml version="1.0" encoding="UTF-8"?><svg xmlns="http://www.w3.org/2000/svg" viewBox="0 0 32 32"><defs><style>.uuid-5caca750-49f1-46c5-8958-df7e49261305{fill:none;}.uuid-5caca750-49f1-46c5-8958-df7e49261305,.uuid-833483d2-87af-459a-93d5-7b7c3f5135ed{stroke-width:0px;}.uuid-833483d2-87af-459a-93d5-7b7c3f5135ed{fill:#151515;}</style></defs><g id="uuid-fcd442de-1213-4940-aef9-0ac6e7549b0d"><rect class="uuid-5caca750-49f1-46c5-8958-df7e49261305" x="0" width="32" height="32"/></g><g id="uuid-d9d7fb55-52c8-4cb6-afad-b30323815485"><path class="uuid-833483d2-87af-459a-93d5-7b7c3f5135ed" d="M29.5,2H2.5c-.8271,0-1.5.6729-1.5,1.5v17c0,.8271.6729,1.5,1.5,1.5h9.5v6h-4c-.5522,0-1,.4478-1,1s.4478,1,1,1h16c.5522,0,1-.4478,1-1s-.4478-1-1-1h-4v-6h9.5c.8271,0,1.5-.6729,1.5-1.5V3.5c0-.8271-.6729-1.5-1.5-1.5ZM18,28h-4v-6h4v6ZM29,20H3V4h26v16Z"/><path class="uuid-833483d2-87af-459a-93d5-7b7c3f5135ed" d="M15,10h8c.5522,0,1-.4478,1-1s-.4478-1-1-1h-8c-.5522,0-1,.4478-1,1s.4478,1,1,1Z"/><path class="uuid-833483d2-87af-459a-93d5-7b7c3f5135ed" d="M15,16h8c.5522,0,1-.4478,1-1s-.4478-1-1-1h-8c-.5522,0-1,.4478-1,1s.4478,1,1,1Z"/><circle class="uuid-833483d2-87af-459a-93d5-7b7c3f5135ed" cx="9" cy="9.0002" r="1.5"/><circle class="uuid-833483d2-87af-459a-93d5-7b7c3f5135ed" cx="9" cy="15.0002" r="1.5"/></g></svg>