<?xml version="1.0" encoding="UTF-8"?><svg xmlns="http://www.w3.org/2000/svg" viewBox="0 0 32 32"><defs><style>.uuid-cb26d2b8-3e52-47e8-a785-daf5c998c8cb{fill:none;}.uuid-cb26d2b8-3e52-47e8-a785-daf5c998c8cb,.uuid-f38340ef-9f98-416d-a6c0-bc2fbbd6468e{stroke-width:0px;}.uuid-f38340ef-9f98-416d-a6c0-bc2fbbd6468e{fill:#151515;}</style></defs><g id="uuid-d4c7760a-d6d7-4c9f-a4a4-b9f23ddaa020"><rect class="uuid-cb26d2b8-3e52-47e8-a785-daf5c998c8cb" width="32" height="32"/></g><g id="uuid-e6a7740d-f5ac-455b-8c95-345815822842"><path class="uuid-f38340ef-9f98-416d-a6c0-bc2fbbd6468e" d="M29.5,2H2.5c-.8271,0-1.5.6729-1.5,1.5v17c0,.8271.6729,1.5,1.5,1.5h9.5v6h-4c-.5527,0-1,.4473-1,1s.4473,1,1,1h16c.5527,0,1-.4473,1-1s-.4473-1-1-1h-4v-6h9.5c.8271,0,1.5-.6729,1.5-1.5V3.5c0-.8271-.6729-1.5-1.5-1.5ZM9,16.5099c-.8284,0-1.5-.6716-1.5-1.5s.6716-1.5,1.5-1.5,1.5.6716,1.5,1.5-.6716,1.5-1.5,1.5ZM9,10.5099c-.8284,0-1.5-.6716-1.5-1.5s.6716-1.5,1.5-1.5,1.5.6716,1.5,1.5-.6716,1.5-1.5,1.5ZM18,28h-4v-6h4v6ZM23,16.125h-8c-.6211,0-1.125-.5039-1.125-1.125s.5039-1.125,1.125-1.125h8c.6211,0,1.125.5039,1.125,1.125s-.5039,1.125-1.125,1.125ZM23,10.125h-8c-.6211,0-1.125-.5039-1.125-1.125s.5039-1.125,1.125-1.125h8c.6211,0,1.125.5039,1.125,1.125s-.5039,1.125-1.125,1.125Z"/></g></svg>