<?xml version="1.0" encoding="UTF-8"?><svg xmlns="http://www.w3.org/2000/svg" width="32" height="32" viewBox="0 0 32 32"><defs><style>.uuid-1c05743c-eb3a-41c9-ad83-14d9d289a267{fill:none;}.uuid-8b25c706-5797-4208-8fcc-0f0c03ec9774{fill:#151515;}</style></defs><g id="uuid-0f0d5514-73ae-4739-830a-f335a6befaed"><rect class="uuid-1c05743c-eb3a-41c9-ad83-14d9d289a267" width="32" height="32"/></g><g id="uuid-0c53c8c3-04f6-4079-9e40-fdfd2b988f99"><path class="uuid-8b25c706-5797-4208-8fcc-0f0c03ec9774" d="M28,21c-1.10254,0-2-.89746-2-2v-4c0-4.88403-3.52252-8.95508-8.15881-9.82269.40515-.44446.65881-1.02966.65881-1.67731,0-1.37891-1.12109-2.5-2.5-2.5s-2.5,1.12109-2.5,2.5c0,.64764.25366,1.23285.65881,1.67731-4.63629.86761-8.15881,4.93866-8.15881,9.82269v4c0,1.10254-.89746,2-2,2-.55273,0-1,.44727-1,1v3.5c0,.82715.67285,1.5,1.5,1.5h7.5c0,2.20605,1.79395,4,4,4s4-1.79395,4-4h7.5c.82715,0,1.5-.67285,1.5-1.5v-3.5c0-.55273-.44727-1-1-1ZM27,25H5v-2.12695c1.72363-.44434,3-2.0127,3-3.87305v-4c0-4.41113,3.58887-8,8-8s8,3.58887,8,8v4c0,1.86035,1.27637,3.42871,3,3.87305v2.12695Z"/><path class="uuid-8b25c706-5797-4208-8fcc-0f0c03ec9774" d="M16,17.25c.69043,0,1.25-.55957,1.25-1.25v-4c0-.69043-.55957-1.25-1.25-1.25s-1.25.55957-1.25,1.25v4c0,.69043.55957,1.25,1.25,1.25Z"/><circle class="uuid-8b25c706-5797-4208-8fcc-0f0c03ec9774" cx="16" cy="21.01099" r="1.75"/></g></svg>