<?xml version="1.0" encoding="UTF-8"?><svg xmlns="http://www.w3.org/2000/svg" width="32" height="32" viewBox="0 0 32 32"><defs><style>.uuid-0ddb5880-7a80-455b-a666-7e81966f11e0{fill:none;}.uuid-1bfa20bf-02cb-4d4d-93a5-56f814120741{fill:#151515;}</style></defs><g id="uuid-db9a86a7-92b6-4daf-8137-090854124c75"><rect class="uuid-0ddb5880-7a80-455b-a666-7e81966f11e0" width="32" height="32"/></g><g id="uuid-6954f6a8-c95b-420a-bf03-5673d450b704"><path class="uuid-1bfa20bf-02cb-4d4d-93a5-56f814120741" d="M28,21c-1.10254,0-2-.89746-2-2v-4c0-4.88403-3.52252-8.95508-8.15881-9.82269.40515-.44446.65881-1.02966.65881-1.67731,0-1.37891-1.12109-2.5-2.5-2.5s-2.5,1.12109-2.5,2.5c0,.64764.25366,1.23285.65881,1.67731-4.63629.86761-8.15881,4.93866-8.15881,9.82269v4c0,1.10254-.89746,2-2,2-.55273,0-1,.44727-1,1v3.5c0,.82715.67285,1.5,1.5,1.5h7.5c0,2.20605,1.79395,4,4,4s4-1.79395,4-4h7.5c.82715,0,1.5-.67285,1.5-1.5v-3.5c0-.55273-.44727-1-1-1ZM14.5,11c0-.82812.67188-1.5,1.5-1.5s1.5.67188,1.5,1.5v5c0,.82812-.67188,1.5-1.5,1.5s-1.5-.67188-1.5-1.5v-5ZM16,24.01367c-1.10455,0-2-.89545-2-2,0-1.10461.89545-2,2-2s2,.89539,2,2c0,1.10455-.89545,2-2,2Z"/></g></svg>