<?xml version="1.0" encoding="UTF-8"?><svg xmlns="http://www.w3.org/2000/svg" width="32" height="32" viewBox="0 0 32 32"><defs><style>.uuid-5e38047f-ce9a-4600-8618-d817e941042c{fill:none;}.uuid-33e7cc54-b27c-4968-9bf3-b11b14f9cef5{fill:#151515;}</style></defs><g id="uuid-e4b9b29e-1186-4ff6-a826-27a7683a20c5"><rect class="uuid-5e38047f-ce9a-4600-8618-d817e941042c" width="32" height="32"/></g><g id="uuid-775a4424-84a6-4199-9b24-af74c6f34143"><path class="uuid-33e7cc54-b27c-4968-9bf3-b11b14f9cef5" d="M16,2c-7.71973,0-14,6.28027-14,14s6.28027,14,14,14,14-6.28027,14-14S23.71973,2,16,2ZM16,28c-6.61719,0-12-5.3833-12-12s5.38281-12,12-12,12,5.3833,12,12-5.38281,12-12,12Z"/><path class="uuid-33e7cc54-b27c-4968-9bf3-b11b14f9cef5" d="M16.26184,7.00372c-.14197-.00403-.26184.11456-.26184.25659v17.47937c0,.14203.11987.26062.26184.25659,4.84943-.13855,8.73816-4.11328,8.73816-8.99628s-3.88873-8.85773-8.73816-8.99628Z"/></g></svg>