<?xml version="1.0" encoding="UTF-8"?><svg xmlns="http://www.w3.org/2000/svg" width="32" height="32" viewBox="0 0 32 32"><defs><style>.uuid-3f1b3b95-e97b-4874-8e05-adf8fc25b82e{fill:none;}.uuid-b5274276-ed7a-419e-95be-98ecbc95b003{fill:#151515;}</style></defs><g id="uuid-4637f516-768b-4620-b630-66d9ec10f8e2"><rect class="uuid-3f1b3b95-e97b-4874-8e05-adf8fc25b82e" width="32" height="32"/></g><g id="uuid-b3355f7a-32ff-430e-b5b3-0f8cdd639f19"><path class="uuid-b5274276-ed7a-419e-95be-98ecbc95b003" d="M21,16c-.55273,0-1,.44727-1,1v1.5755c-1.28992-1.28687-3.29395-3.28351-3.29395-3.28351,0,0-3.18359-3.17188-4.10742-4.0957-1.2832-1.28418-2.98926-1.99023-4.80371-1.99023-1.81543,0-3.52148.70605-4.80469,1.99023-1.2832,1.2832-1.99023,2.98926-1.99023,4.80371s.70703,3.52051,1.99023,4.80371c1.2832,1.28418,2.98926,1.99023,4.80469,1.99023,1.81445,0,3.52051-.70605,4.80371-1.99023l1.10742-1.10547c.3916-.38965.3916-1.02344.00195-1.41406-.39062-.39258-1.02344-.39062-1.41406-.00195l-1.10938,1.10742c-.90527.90625-2.10938,1.4043-3.38965,1.4043-1.28125,0-2.48535-.49805-3.39062-1.4043-.90527-.90527-1.4043-2.10938-1.4043-3.38965s.49902-2.48438,1.4043-3.38965c.90527-.90625,2.10938-1.4043,3.39062-1.4043,1.28027,0,2.48438.49805,3.38965,1.4043.92383.92383,4.10938,4.09766,4.10938,4.09766,0,0,2.01343,2.00604,3.30243,3.29199h-1.59637c-.55273,0-1,.44727-1,1s.44727,1,1,1h3.5c.82715,0,1.5-.67285,1.5-1.5v-3.5c0-.55273-.44727-1-1-1Z"/><path class="uuid-b5274276-ed7a-419e-95be-98ecbc95b003" d="M29.00977,11.19629c-1.2832-1.28418-2.98926-1.99121-4.80469-1.99121-1.81445,0-3.52051.70703-4.80371,1.99121l-1.10645,1.10449c-.3916.38965-.39355,1.02344-.00391,1.41406.38867.39062,1.02344.39355,1.41406.00391l1.11035-1.1084c.90527-.90625,2.10938-1.40527,3.38965-1.40527,1.28125,0,2.48535.49902,3.39062,1.40527.90527.90527,1.4043,2.10938,1.4043,3.38965s-.49902,2.48438-1.4043,3.38965c-.74512.74609-1.68945,1.21582-2.73242,1.36035-.54688.0752-.92969.58008-.85352,1.12695.06934.50098.49707.86328.98926.86328.04492,0,.0918-.00293.1377-.00977,1.47852-.2041,2.81836-.87012,3.87305-1.92676,1.2832-1.2832,1.99023-2.98926,1.99023-4.80371s-.70703-3.52051-1.99023-4.80371Z"/></g></svg>