<?xml version="1.0" encoding="UTF-8"?><svg xmlns="http://www.w3.org/2000/svg" viewBox="0 0 32 32"><defs><style>.uuid-3f9bc4b8-c170-4b6e-945e-099f04788ff2{fill:none;}.uuid-3f9bc4b8-c170-4b6e-945e-099f04788ff2,.uuid-ecf1a13b-2d3a-4527-8eea-c85315715c86{stroke-width:0px;}.uuid-ecf1a13b-2d3a-4527-8eea-c85315715c86{fill:#151515;}</style></defs><g id="uuid-3c3b937f-c474-489e-8879-b5545861f3fc"><rect class="uuid-3f9bc4b8-c170-4b6e-945e-099f04788ff2" width="32" height="32"/></g><g id="uuid-37432636-3c12-4794-acfe-574255ad569b"><path class="uuid-ecf1a13b-2d3a-4527-8eea-c85315715c86" d="M20,10H4.4141l7.293-7.293c.3906-.3906.3906-1.0234,0-1.4141s-1.0234-.3906-1.4141,0L1.6465,9.9395c-.585.585-.585,1.5361,0,2.1211l8.6465,8.6465c.1953.1953.4512.293.707.293s.5117-.0977.707-.293c.3906-.3906.3906-1.0234,0-1.4141l-7.293-7.293h15.5859c4.9629,0,9,4.0376,9,9v9c0,.5522.4473,1,1,1s1-.4478,1-1v-9c0-6.0654-4.9346-11-11-11Z"/></g></svg>