<?xml version="1.0" encoding="UTF-8"?><svg xmlns="http://www.w3.org/2000/svg" width="32" height="32" viewBox="0 0 32 32"><defs><style>.uuid-4a7f3781-eb53-48aa-81cb-2dbb847d259c{fill:none;}.uuid-c007f151-5fe3-404c-8883-8b878be16c62{fill:#151515;}</style></defs><g id="uuid-885a7b46-b9e5-404a-b6e5-ac073a6828c0"><rect class="uuid-4a7f3781-eb53-48aa-81cb-2dbb847d259c" width="32" height="32"/></g><g id="uuid-21330c1b-9d38-45a5-875a-e6ee3e68f73d"><path class="uuid-c007f151-5fe3-404c-8883-8b878be16c62" d="M16,1c-5.383,0-10.35168,2.94531-13,7.52051V2c0-.55273-.44727-1-1-1s-1,.44727-1,1v8.5c0,.82715.67285,1.5,1.5,1.5h8.5c.55273,0,1-.44727,1-1s-.44727-1-1-1h-6.52441c2.21851-4.23706,6.67419-7,11.52441-7,7.16797,0,13,5.83203,13,13s-5.83203,13-13,13c-4.24805,0-8.2373-2.08301-10.66992-5.57227-.31543-.45117-.9375-.56348-1.39258-.24805-.45312.31641-.56347.93945-.24804,1.39258,2.80664,4.02441,7.40918,6.42773,12.31055,6.42773,8.27148,0,15-6.72852,15-15S24.27148,1,16,1Z"/></g></svg>