<?xml version="1.0" encoding="UTF-8"?><svg xmlns="http://www.w3.org/2000/svg" width="32" height="32" viewBox="0 0 32 32"><defs><style>.uuid-caa5d16b-3ba7-492c-8292-9d74613d0e51{fill:none;}.uuid-fe598383-ec65-4552-b066-9d25a5f43ac8{fill:#151515;}</style></defs><g id="uuid-fc3e6e43-170c-462c-9c02-be89be310fb1"><rect class="uuid-caa5d16b-3ba7-492c-8292-9d74613d0e51" width="32" height="32"/></g><g id="uuid-0229b748-258c-4ff7-977c-d848f713cd53"><path class="uuid-fe598383-ec65-4552-b066-9d25a5f43ac8" d="M19,10H5.41406l6.29297-6.29297c.39062-.39062.39062-1.02344,0-1.41406s-1.02344-.39062-1.41406,0l-7.64648,7.64648c-.2832.2832-.43945.66016-.43945,1.06055s.15625.77734.43945,1.06055l7.64648,7.64648c.19531.19531.45117.29297.70703.29297s.51172-.09766.70703-.29297c.39062-.39062.39062-1.02344,0-1.41406l-6.29297-6.29297h13.58594c4.96289,0,9,4.0376,9,9v8c0,.55225.44727,1,1,1s1-.44775,1-1v-8c0-6.06543-4.93457-11-11-11Z"/></g></svg>