<?xml version="1.0" encoding="UTF-8"?><svg id="uuid-ac959a9b-7d54-42c8-908d-88aca9788a86" xmlns="http://www.w3.org/2000/svg" viewBox="0 0 32 32"><defs><style>.uuid-9c5287b4-1932-4a4e-8069-e002ef9bcfa9{fill:#151515;stroke-width:0px;}</style></defs><path class="uuid-9c5287b4-1932-4a4e-8069-e002ef9bcfa9" d="M1,0c.5527,0,1,.4478,1,1v7.2573C4.7833,3.2324,10.1241,0,16,0c8.8223,0,16,7.1777,16,16,0,8.8223-7.1777,16-16,16-5.5225,0-10.583-2.791-13.5361-7.4658-.2949-.4673-.1553-1.0845.3115-1.3794.4668-.2954,1.085-.1558,1.3799.311,2.584,4.0913,7.0127,6.5342,11.8447,6.5342,7.7197,0,14-6.2803,14-14,0-7.7197-6.2803-14-14-14-5.4368,0-10.346,3.1647-12.6435,8h7.6435c.5527,0,1,.4478,1,1,0,.5522-.4473,1-1,1H1.5C.6729,12,0,11.3271,0,10.5V1C0,.4478.4473,0,1,0Z"/></svg>