<?xml version="1.0" encoding="UTF-8"?><svg xmlns="http://www.w3.org/2000/svg" width="32" height="32" viewBox="0 0 32 32"><defs><style>.uuid-2de67fad-ce8c-4e9c-98e9-f009b13af622{fill:none;}.uuid-7d7d14bf-6381-4448-9af3-c043a96df162{fill:#151515;}</style></defs><g id="uuid-23222b9a-816d-461b-a6c4-dce35157dc00"><rect class="uuid-2de67fad-ce8c-4e9c-98e9-f009b13af622" width="32" height="32"/></g><g id="uuid-8b78e013-adfa-4816-ba52-b05333fd93e1"><path class="uuid-7d7d14bf-6381-4448-9af3-c043a96df162" d="M16,1C7.72852,1,1,7.729,1,16s6.72852,15,15,15,15-6.729,15-15S24.27148,1,16,1ZM3,16c0-3.24091,1.19989-6.20129,3.16852-8.48035.03967.06366.06915.13208.12445.18738l18,18c.0553.0553.12366.08478.18732.12445-2.27905,1.96863-5.23956,3.16852-8.48029,3.16852-7.16797,0-13-5.83154-13-13ZM25.83148,24.48035c-.03967-.06366-.06915-.13208-.12445-.18738L7.70703,6.29297c-.0553-.0553-.12366-.08478-.18732-.12445,2.27905-1.96863,5.23956-3.16852,8.48029-3.16852,7.16797,0,13,5.83154,13,13,0,3.24091-1.19989,6.20129-3.16852,8.48035Z"/></g></svg>