<?xml version="1.0" encoding="UTF-8"?><svg xmlns="http://www.w3.org/2000/svg" viewBox="0 0 32 32"><defs><style>.uuid-27f8fd59-8061-4adf-9c1a-212890464392{fill:none;}.uuid-27f8fd59-8061-4adf-9c1a-212890464392,.uuid-227f4195-783f-4239-a420-7a1fd199a771{stroke-width:0px;}.uuid-227f4195-783f-4239-a420-7a1fd199a771{fill:#151515;}</style></defs><g id="uuid-01917744-ddd3-4440-a8c2-23028102831e"><rect class="uuid-27f8fd59-8061-4adf-9c1a-212890464392" width="32" height="32"/></g><g id="uuid-21c01d94-839f-4dd4-abd6-de4eb9b4ee73"><path class="uuid-227f4195-783f-4239-a420-7a1fd199a771" d="M16,0C7.1777,0,0,7.1777,0,16s7.1777,16,16,16,16-7.1777,16-16S24.8223,0,16,0ZM2,16c0-3.5005,1.3004-6.697,3.4318-9.1542l19.7224,19.7224c-2.4572,2.1313-5.6536,3.4318-9.1542,3.4318-7.7197,0-14-6.2803-14-14ZM26.5682,25.1542L6.8458,5.4318c2.4572-2.1313,5.6536-3.4318,9.1542-3.4318,7.7197,0,14,6.2803,14,14,0,3.5005-1.3004,6.697-3.4318,9.1542Z"/></g></svg>