<?xml version="1.0" encoding="UTF-8"?><svg xmlns="http://www.w3.org/2000/svg" viewBox="0 0 32 32"><defs><style>.uuid-0ca5ef6f-c23e-4921-983f-7f403f752919{fill:none;}.uuid-0ca5ef6f-c23e-4921-983f-7f403f752919,.uuid-e34a8862-af69-4971-8384-0a8f5951136b{stroke-width:0px;}.uuid-e34a8862-af69-4971-8384-0a8f5951136b{fill:#151515;}</style></defs><g id="uuid-e105147b-c8dc-4b07-b4df-0110ed4c4070"><rect class="uuid-0ca5ef6f-c23e-4921-983f-7f403f752919" width="32" height="32"/></g><g id="uuid-70807865-d110-4f18-89c8-509bfda1c2ab"><circle class="uuid-e34a8862-af69-4971-8384-0a8f5951136b" cx="8" cy="20" r="1.5"/><circle class="uuid-e34a8862-af69-4971-8384-0a8f5951136b" cx="2" cy="14" r="1.5"/><circle class="uuid-e34a8862-af69-4971-8384-0a8f5951136b" cx="2" cy="8" r="1.5"/><circle class="uuid-e34a8862-af69-4971-8384-0a8f5951136b" cx="14" cy="2" r="1.5"/><circle class="uuid-e34a8862-af69-4971-8384-0a8f5951136b" cx="8" cy="2" r="1.5"/><circle class="uuid-e34a8862-af69-4971-8384-0a8f5951136b" cx="20" cy="8" r="1.5"/><circle class="uuid-e34a8862-af69-4971-8384-0a8f5951136b" cx="2" cy="2.0002" r="1.5"/><circle class="uuid-e34a8862-af69-4971-8384-0a8f5951136b" cx="2" cy="20.0002" r="1.5"/><circle class="uuid-e34a8862-af69-4971-8384-0a8f5951136b" cx="20" cy="2.0099" r="1.5"/><path class="uuid-e34a8862-af69-4971-8384-0a8f5951136b" d="M29.5,11H12.5c-.8271,0-1.5.6729-1.5,1.5v17c0,.8271.6729,1.5,1.5,1.5h17c.8271,0,1.5-.6729,1.5-1.5V12.5c0-.8271-.6729-1.5-1.5-1.5ZM29,29H13V13h16v16Z"/></g></svg>