<?xml version="1.0" encoding="UTF-8"?><svg xmlns="http://www.w3.org/2000/svg" width="32" height="32" viewBox="0 0 32 32"><defs><style>.uuid-bf50cdb8-0e55-47e7-880a-b6b5d2b1d880{fill:none;}.uuid-eef3cbea-9586-4cac-94cd-ebd6f3773717{fill:#151515;}</style></defs><g id="uuid-17ab411e-582e-4ed9-a015-09448e3a52a0"><rect class="uuid-bf50cdb8-0e55-47e7-880a-b6b5d2b1d880" width="32" height="32"/></g><g id="uuid-cca5dfb0-0eac-4851-8c9a-c4d8f992e8a4"><path class="uuid-eef3cbea-9586-4cac-94cd-ebd6f3773717" d="M29.5,4H9c-.13379,0-.26434.02722-.38519.07776-.12158.05078-.23108.12421-.32269.21606L1.29364,11.2923c-.09186.09167-.16516.20123-.21594.32281-.05048.12091-.0777.2514-.0777.38489v14.5c0,.82715.67285,1.5,1.5,1.5h27c.82715,0,1.5-.67285,1.5-1.5V5.5c0-.82715-.67285-1.5-1.5-1.5ZM8,7.41406v3.58594h-3.58594l3.58594-3.58594ZM29,26H3v-13h5.5c.82715,0,1.5-.67285,1.5-1.5v-5.5h19v20Z"/><path class="uuid-eef3cbea-9586-4cac-94cd-ebd6f3773717" d="M13,13h9v6h-12v-3c0-.55225-.44727-1-1-1s-1,.44775-1,1v3h-2c-.55273,0-1,.44775-1,1s.44727,1,1,1h2v2c0,.55225.44727,1,1,1s1-.44775,1-1v-2h12v2c0,.55225.44727,1,1,1s1-.44775,1-1v-2h2c.55273,0,1-.44775,1-1s-.44727-1-1-1h-2v-6h2c.55273,0,1-.44775,1-1s-.44727-1-1-1h-2v-2c0-.55225-.44727-1-1-1s-1,.44775-1,1v2h-9c-.55273,0-1,.44775-1,1s.44727,1,1,1Z"/></g></svg>