<?xml version="1.0" encoding="UTF-8"?><svg xmlns="http://www.w3.org/2000/svg" width="32" height="32" viewBox="0 0 32 32"><defs><style>.uuid-e6b78ae0-e865-4222-be37-d7a375299527{fill:none;}.uuid-d5cff409-3914-4a67-88af-8696a460e5bb{fill:#151515;}</style></defs><g id="uuid-9c529820-f011-48e6-b4ae-61d3d9f11865"><rect class="uuid-e6b78ae0-e865-4222-be37-d7a375299527" width="32" height="32"/></g><g id="uuid-824bcf69-8f56-4d39-9c80-9482be1a29c9"><path class="uuid-d5cff409-3914-4a67-88af-8696a460e5bb" d="M8.875,11.875v-7.6001c-.15131.02631-.29529.08484-.40527.19482L1.46973,11.46973c-.10999.10999-.16852.25409-.19482.40527h7.6001Z"/><path class="uuid-d5cff409-3914-4a67-88af-8696a460e5bb" d="M29.5,4.25H11.125v8.25c0,.896-.72852,1.625-1.625,1.625H1.25v12.375c0,.68945.56055,1.25,1.25,1.25h27c.68945,0,1.25-.56055,1.25-1.25V5.5c0-.68945-.56055-1.25-1.25-1.25ZM27,19.875c.62109,0,1.125.50391,1.125,1.125s-.50391,1.125-1.125,1.125h-1.875v1.875c0,.62109-.50391,1.125-1.125,1.125s-1.125-.50391-1.125-1.125v-1.875h-13.75v1.875c0,.62109-.50391,1.125-1.125,1.125s-1.125-.50391-1.125-1.125v-1.875h-1.875c-.62109,0-1.125-.50391-1.125-1.125s.50391-1.125,1.125-1.125h1.875v-1.875c0-.62109.50391-1.125,1.125-1.125s1.125.50391,1.125,1.125v1.875h13.75v-7.75h-7.875c-.62109,0-1.125-.50391-1.125-1.125s.50391-1.125,1.125-1.125h7.875v-1.875c0-.62109.50391-1.125,1.125-1.125s1.125.50391,1.125,1.125v1.875h1.875c.62109,0,1.125.50391,1.125,1.125s-.50391,1.125-1.125,1.125h-1.875v7.75h1.875Z"/></g></svg>