<svg xmlns="http://www.w3.org/2000/svg" viewBox="0 0 32 32">
  <defs>
    <style>
      .uuid-e34a8862-af69-4971-8384-0a8f5951136b{stroke-width:0;fill:#151515}
    </style>
  </defs>
  <path d="M0 0h32v32H0z" id="uuid-e105147b-c8dc-4b07-b4df-0110ed4c4070" stroke-width="0" fill="none"/>
  <g id="uuid-70807865-d110-4f18-89c8-509bfda1c2ab">
    <circle class="uuid-e34a8862-af69-4971-8384-0a8f5951136b" cx="8" cy="20" r="1.5"/>
    <circle class="uuid-e34a8862-af69-4971-8384-0a8f5951136b" cx="2" cy="14" r="1.5"/>
    <circle class="uuid-e34a8862-af69-4971-8384-0a8f5951136b" cx="2" cy="8" r="1.5"/>
    <circle class="uuid-e34a8862-af69-4971-8384-0a8f5951136b" cx="14" cy="2" r="1.5"/>
    <circle class="uuid-e34a8862-af69-4971-8384-0a8f5951136b" cx="8" cy="2" r="1.5"/>
    <circle class="uuid-e34a8862-af69-4971-8384-0a8f5951136b" cx="20" cy="8" r="1.5"/>
    <circle class="uuid-e34a8862-af69-4971-8384-0a8f5951136b" cx="2" cy="2" r="1.5"/>
    <circle class="uuid-e34a8862-af69-4971-8384-0a8f5951136b" cx="2" cy="20" r="1.5"/>
    <circle class="uuid-e34a8862-af69-4971-8384-0a8f5951136b" cx="20" cy="2.01" r="1.5"/>
    <path class="uuid-e34a8862-af69-4971-8384-0a8f5951136b" d="M29.5 11h-17c-.827 0-1.5.673-1.5 1.5v17c0 .827.673 1.5 1.5 1.5h17c.827 0 1.5-.673 1.5-1.5v-17c0-.827-.673-1.5-1.5-1.5ZM29 29H13V13h16v16Z"/>
  </g>
</svg>
