<?xml version="1.0" encoding="UTF-8"?><svg xmlns="http://www.w3.org/2000/svg" width="32" height="32" viewBox="0 0 32 32"><defs><style>.uuid-a0f693eb-e737-4d8a-837b-1fa174891b9f{fill:none;}.uuid-b2adca87-99d9-4174-8b4c-8965e8a466ad{fill:#151515;}</style></defs><g id="uuid-0b55dfd1-b9e3-48f9-891b-ac2bad09532c"><rect class="uuid-a0f693eb-e737-4d8a-837b-1fa174891b9f" width="32" height="32"/></g><g id="uuid-10dfccbf-1191-4834-bcdc-7630eaee21ae"><path class="uuid-b2adca87-99d9-4174-8b4c-8965e8a466ad" d="M28,31c-.25977,0-.51562-.10156-.70703-.29297l-11.29297-11.29297-11.29297,11.29297c-.28711.28613-.7168.37305-1.08984.2168-.37402-.1543-.61719-.51953-.61719-.92383V2.5c0-.82715.67285-1.5,1.5-1.5h23c.82715,0,1.5.67285,1.5,1.5v27.5c0,.4043-.24316.76953-.61719.92383-.12402.05176-.25391.07617-.38281.07617ZM16,17.20703c.40039,0,.77734.15625,1.06055.43945l9.93945,9.93945V3H5v24.58594l9.93945-9.93945c.2832-.2832.66016-.43945,1.06055-.43945Z"/></g></svg>