<?xml version="1.0" encoding="UTF-8"?><svg xmlns="http://www.w3.org/2000/svg" width="32" height="32" viewBox="0 0 32 32"><defs><style>.uuid-cd7f8a55-4f4d-4964-bba1-ce7e9d19888c{fill:none;}.uuid-bf68de2c-a681-4a94-9612-0ba524ef5dce{fill:#151515;}</style></defs><g id="uuid-7838ec7f-7ab3-4b76-b762-4f2abaa5df85"><rect class="uuid-cd7f8a55-4f4d-4964-bba1-ce7e9d19888c" width="32" height="32"/></g><g id="uuid-7525c24f-82c3-49f2-b6e5-e992c13a161e"><path class="uuid-bf68de2c-a681-4a94-9612-0ba524ef5dce" d="M27,7c0-2.20557-1.79395-4-4-4s-4,1.79443-4,4c0,1.85834,1.27948,3.41083,3,3.85803v2.14197c0,1.10303-.89746,2-2,2h-6c-1.12994,0-2.16174.39099-3,1.02557v-7.16754c1.72052-.4472,3-1.99969,3-3.85803,0-2.20557-1.79395-4-4-4s-4,1.79443-4,4c0,1.85834,1.27948,3.41083,3,3.85803v14.28394c-1.72052.4472-3,1.99969-3,3.85803,0,2.20557,1.79395,4,4,4s4-1.79443,4-4c0-1.85834-1.27948-3.41083-3-3.85803v-3.14197c0-1.6543,1.3457-3,3-3h6c2.20605,0,4-1.79443,4-4v-2.14197c1.72052-.4472,3-1.99969,3-3.85803Z"/></g></svg>