<?xml version="1.0" encoding="UTF-8"?><svg xmlns="http://www.w3.org/2000/svg" width="32" height="32" viewBox="0 0 32 32"><defs><style>.uuid-8d0cc0e6-28b6-467d-b3cf-60cd3fae94b9{fill:none;}.uuid-4536a98c-f2f9-4160-ab3c-e3ec618a9eb5{fill:#151515;}</style></defs><g id="uuid-8f0a4717-1f39-423f-9be2-69378f14b192"><rect class="uuid-8d0cc0e6-28b6-467d-b3cf-60cd3fae94b9" width="32" height="32"/></g><g id="uuid-ebe03f12-ce32-4093-92d3-dbbb7caddfe3"><path class="uuid-4536a98c-f2f9-4160-ab3c-e3ec618a9eb5" d="M23,3c-2.20605,0-4,1.79443-4,4,0,1.85834,1.27948,3.41083,3,3.85803v2.14197c0,1.10303-.89746,2-2,2h-6c-1.12994,0-2.16174.39099-3,1.02557v-7.16754c1.72052-.4472,3-1.99969,3-3.85803,0-2.20557-1.79395-4-4-4s-4,1.79443-4,4c0,1.85834,1.27948,3.41083,3,3.85803v14.28394c-1.72052.4472-3,1.99969-3,3.85803,0,2.20557,1.79395,4,4,4s4-1.79443,4-4c0-1.85834-1.27948-3.41083-3-3.85803v-3.14197c0-1.6543,1.3457-3,3-3h6c2.20605,0,4-1.79443,4-4v-2.14197c1.72052-.4472,3-1.99969,3-3.85803,0-2.20557-1.79395-4-4-4ZM12,27c0,1.10303-.89746,2-2,2s-2-.89697-2-2,.89746-2,2-2,2,.89697,2,2ZM10,7c-1.10254,0-2-.89697-2-2s.89746-2,2-2,2,.89697,2,2-.89746,2-2,2ZM23,9c-1.10254,0-2-.89697-2-2s.89746-2,2-2,2,.89697,2,2-.89746,2-2,2Z"/></g></svg>