<?xml version="1.0" encoding="UTF-8"?><svg xmlns="http://www.w3.org/2000/svg" viewBox="0 0 32 32"><defs><style>.uuid-5e0251b8-f059-44de-8be6-4fb976bc4d5a{fill:none;}.uuid-5e0251b8-f059-44de-8be6-4fb976bc4d5a,.uuid-e69841ac-0f7f-4860-9529-8136b13c8b6b{stroke-width:0px;}.uuid-e69841ac-0f7f-4860-9529-8136b13c8b6b{fill:#151515;}</style></defs><g id="uuid-4b8d7a70-ba1b-4049-8b46-085240b4db1e"><rect class="uuid-5e0251b8-f059-44de-8be6-4fb976bc4d5a" width="32" height="32"/></g><g id="uuid-cce3e959-6140-42a6-96ec-82f3e9daaddf"><path class="uuid-e69841ac-0f7f-4860-9529-8136b13c8b6b" d="M9,21c0-1.6543,1.3457-3,3-3h9c2.7568,0,5-2.2432,5-5v-2.142c1.7205-.4472,3-1.9997,3-3.858,0-2.2056-1.7939-4-4-4s-4,1.7944-4,4c0,1.8583,1.2795,3.4108,3,3.858v2.142c0,1.6543-1.3457,3-3,3h-9c-1.1299,0-2.1617.391-3,1.0256V7.858c1.7205-.4472,3-1.9997,3-3.858,0-2.2056-1.7939-4-4-4s-4,1.7944-4,4c0,1.8583,1.2795,3.4108,3,3.858v16.2839c-1.7205.4472-3,1.9997-3,3.858,0,2.2056,1.7939,4,4,4s4-1.7944,4-4c0-1.8583-1.2795-3.4108-3-3.858v-3.142ZM6,4c0-1.103.8975-2,2-2s2,.897,2,2-.8975,2-2,2-2-.897-2-2ZM10,28c0,1.103-.8975,2-2,2s-2-.897-2-2,.8975-2,2-2,2,.897,2,2ZM25,9c-1.1025,0-2-.897-2-2s.8975-2,2-2,2,.897,2,2-.8975,2-2,2Z"/></g></svg>