<?xml version="1.0" encoding="UTF-8"?><svg xmlns="http://www.w3.org/2000/svg" viewBox="0 0 32 32"><defs><style>.uuid-8f3d1daf-80ce-4dc2-b203-79ecd662dac0{fill:none;}.uuid-8f3d1daf-80ce-4dc2-b203-79ecd662dac0,.uuid-c0b02195-72d2-4639-9663-c4e00b2f6284{stroke-width:0px;}.uuid-c0b02195-72d2-4639-9663-c4e00b2f6284{fill:#151515;}</style></defs><g id="uuid-18068ff7-6d70-4911-9dad-4b8ce5a4fb8a"><rect class="uuid-8f3d1daf-80ce-4dc2-b203-79ecd662dac0" x="0" width="32" height="32"/></g><g id="uuid-1d20b208-44c8-4231-9e8e-0617f690a309"><path class="uuid-c0b02195-72d2-4639-9663-c4e00b2f6284" d="M29,7c0-2.2061-1.7944-4-4-4s-4,1.7939-4,4c0,1.8587,1.2797,3.4108,3,3.858v2.142c0,1.6543-1.3457,3-3,3h-9c-1.1299,0-2.1617.391-3,1.0256V7.858c1.7203-.4471,3-1.9993,3-3.858,0-2.2061-1.7944-4-4-4s-4,1.7939-4,4c0,1.8587,1.2797,3.4108,3,3.858v16.2841c-1.7203.4471-3,1.9993-3,3.858,0,2.2061,1.7944,4,4,4s4-1.7939,4-4c0-1.8587-1.2797-3.4108-3-3.858v-3.142c0-1.6543,1.3457-3,3-3h9c2.7568,0,5-2.2432,5-5v-2.142c1.7203-.4471,3-1.9993,3-3.858Z"/></g></svg>