<?xml version="1.0" encoding="UTF-8"?><svg xmlns="http://www.w3.org/2000/svg" width="32" height="32" viewBox="0 0 32 32"><defs><style>.uuid-72260036-1d3e-4e0b-9c48-2e7bcc8f02a2{fill:none;}.uuid-e194d355-54df-4341-844c-63e0146d6f49{fill:#151515;}</style></defs><g id="uuid-1f8d9144-f931-4937-8372-b3740613962b"><rect class="uuid-72260036-1d3e-4e0b-9c48-2e7bcc8f02a2" width="32" height="32"/></g><g id="uuid-0b6d4bbf-d215-4a03-b0f4-3c3c51d639ce"><path class="uuid-e194d355-54df-4341-844c-63e0146d6f49" d="M16,8c-4.41113,0-8,3.58887-8,8s3.58887,8,8,8,8-3.58887,8-8-3.58887-8-8-8ZM16,22c-3.30859,0-6-2.69141-6-6s2.69141-6,6-6,6,2.69141,6,6-2.69141,6-6,6Z"/><path class="uuid-e194d355-54df-4341-844c-63e0146d6f49" d="M16,6c.55273,0,1-.44727,1-1V1c0-.55273-.44727-1-1-1s-1,.44727-1,1v4c0,.55273.44727,1,1,1Z"/><path class="uuid-e194d355-54df-4341-844c-63e0146d6f49" d="M16,26c-.55273,0-1,.44727-1,1v4c0,.55273.44727,1,1,1s1-.44727,1-1v-4c0-.55273-.44727-1-1-1Z"/><path class="uuid-e194d355-54df-4341-844c-63e0146d6f49" d="M31,15h-4c-.55273,0-1,.44727-1,1s.44727,1,1,1h4c.55273,0,1-.44727,1-1s-.44727-1-1-1Z"/><path class="uuid-e194d355-54df-4341-844c-63e0146d6f49" d="M6,16c0-.55273-.44727-1-1-1H1c-.55273,0-1,.44727-1,1s.44727,1,1,1h4c.55273,0,1-.44727,1-1Z"/><path class="uuid-e194d355-54df-4341-844c-63e0146d6f49" d="M7.29297,23.29297l-3,3c-.39062.39062-.39062,1.02344,0,1.41406.19531.19531.45117.29297.70703.29297s.51172-.09766.70703-.29297l3-3c.39062-.39062.39062-1.02344,0-1.41406s-1.02344-.39062-1.41406,0Z"/><path class="uuid-e194d355-54df-4341-844c-63e0146d6f49" d="M24,9c.25586,0,.51172-.09766.70703-.29297l3-3c.39062-.39062.39062-1.02344,0-1.41406s-1.02344-.39062-1.41406,0l-3,3c-.39062.39062-.39062,1.02344,0,1.41406.19531.19531.45117.29297.70703.29297Z"/><path class="uuid-e194d355-54df-4341-844c-63e0146d6f49" d="M7.29297,8.70703c.19531.19531.45117.29297.70703.29297s.51172-.09766.70703-.29297c.39062-.39062.39062-1.02344,0-1.41406l-3-3c-.39062-.39062-1.02344-.39062-1.41406,0s-.39062,1.02344,0,1.41406l3,3Z"/><path class="uuid-e194d355-54df-4341-844c-63e0146d6f49" d="M24.70703,23.29297c-.39062-.39062-1.02344-.39062-1.41406,0s-.39062,1.02344,0,1.41406l3,3c.19531.19531.45117.29297.70703.29297s.51172-.09766.70703-.29297c.39062-.39062.39062-1.02344,0-1.41406l-3-3Z"/></g></svg>