<?xml version="1.0" encoding="UTF-8"?><svg xmlns="http://www.w3.org/2000/svg" width="32" height="32" viewBox="0 0 32 32"><defs><style>.uuid-dd43b3a6-ec0e-405f-83dd-ffa1792b7086{fill:none;}.uuid-53e238b1-98c3-4797-b80a-01dd1562577c{fill:#151515;}</style></defs><g id="uuid-a3f363b0-ddd2-48f1-9582-7ec80d14cc79"><rect class="uuid-dd43b3a6-ec0e-405f-83dd-ffa1792b7086" width="32" height="32"/></g><g id="uuid-63fd0ae9-834d-4f5d-a678-bec588e33b1f"><path class="uuid-53e238b1-98c3-4797-b80a-01dd1562577c" d="M16,8c-4.41113,0-8,3.58887-8,8s3.58887,8,8,8,8-3.58887,8-8-3.58887-8-8-8ZM16,22c-3.30859,0-6-2.69141-6-6s2.69141-6,6-6,6,2.69141,6,6-2.69141,6-6,6Z"/><circle class="uuid-53e238b1-98c3-4797-b80a-01dd1562577c" cx="7" cy="7.00177" r="1.375"/><circle class="uuid-53e238b1-98c3-4797-b80a-01dd1562577c" cx="3.99512" cy="16.00177" r="1.375"/><circle class="uuid-53e238b1-98c3-4797-b80a-01dd1562577c" cx="7" cy="25.00177" r="1.375"/><circle class="uuid-53e238b1-98c3-4797-b80a-01dd1562577c" cx="16" cy="28.00177" r="1.375"/><circle class="uuid-53e238b1-98c3-4797-b80a-01dd1562577c" cx="25" cy="25.00177" r="1.375"/><circle class="uuid-53e238b1-98c3-4797-b80a-01dd1562577c" cx="28" cy="16.00177" r="1.375"/><circle class="uuid-53e238b1-98c3-4797-b80a-01dd1562577c" cx="25" cy="7.0036" r="1.375"/><circle class="uuid-53e238b1-98c3-4797-b80a-01dd1562577c" cx="16" cy="4.01172" r="1.375"/></g></svg>