<?xml version="1.0" encoding="UTF-8"?><svg xmlns="http://www.w3.org/2000/svg" width="32" height="32" viewBox="0 0 32 32"><defs><style>.uuid-763111d9-6973-4eae-832d-6951cf209b2e{fill:none;}.uuid-0c02df99-0bff-4698-8ca9-3cc92ba0a01f{fill:#151515;}</style></defs><g id="uuid-3a0cfc9b-6f6d-439a-a7ed-59057aea0ebc"><rect class="uuid-763111d9-6973-4eae-832d-6951cf209b2e" width="32" height="32"/></g><g id="uuid-66b51e2e-a36b-427b-b88f-2718472ebbe1"><circle class="uuid-0c02df99-0bff-4698-8ca9-3cc92ba0a01f" cx="16" cy="16" r="8"/><path class="uuid-0c02df99-0bff-4698-8ca9-3cc92ba0a01f" d="M16,6c.55273,0,1-.44727,1-1V1c0-.55273-.44727-1-1-1s-1,.44727-1,1v4c0,.55273.44727,1,1,1Z"/><path class="uuid-0c02df99-0bff-4698-8ca9-3cc92ba0a01f" d="M16,26c-.55273,0-1,.44727-1,1v4c0,.55273.44727,1,1,1s1-.44727,1-1v-4c0-.55273-.44727-1-1-1Z"/><path class="uuid-0c02df99-0bff-4698-8ca9-3cc92ba0a01f" d="M31,15h-4c-.55273,0-1,.44727-1,1s.44727,1,1,1h4c.55273,0,1-.44727,1-1s-.44727-1-1-1Z"/><path class="uuid-0c02df99-0bff-4698-8ca9-3cc92ba0a01f" d="M6,16c0-.55273-.44727-1-1-1H1c-.55273,0-1,.44727-1,1s.44727,1,1,1h4c.55273,0,1-.44727,1-1Z"/><path class="uuid-0c02df99-0bff-4698-8ca9-3cc92ba0a01f" d="M7.29297,23.29297l-3,3c-.39062.39062-.39062,1.02344,0,1.41406.19531.19531.45117.29297.70703.29297s.51172-.09766.70703-.29297l3-3c.39062-.39062.39062-1.02344,0-1.41406s-1.02344-.39062-1.41406,0Z"/><path class="uuid-0c02df99-0bff-4698-8ca9-3cc92ba0a01f" d="M24,9c.25586,0,.51172-.09766.70703-.29297l3-3c.39062-.39062.39062-1.02344,0-1.41406s-1.02344-.39062-1.41406,0l-3,3c-.39062.39062-.39062,1.02344,0,1.41406.19531.19531.45117.29297.70703.29297Z"/><path class="uuid-0c02df99-0bff-4698-8ca9-3cc92ba0a01f" d="M7.29297,8.70703c.19531.19531.45117.29297.70703.29297s.51172-.09766.70703-.29297c.39062-.39062.39062-1.02344,0-1.41406l-3-3c-.39062-.39062-1.02344-.39062-1.41406,0s-.39062,1.02344,0,1.41406l3,3Z"/><path class="uuid-0c02df99-0bff-4698-8ca9-3cc92ba0a01f" d="M24.70703,23.29297c-.39062-.39062-1.02344-.39062-1.41406,0s-.39062,1.02344,0,1.41406l3,3c.19531.19531.45117.29297.70703.29297s.51172-.09766.70703-.29297c.39062-.39062.39062-1.02344,0-1.41406l-3-3Z"/></g></svg>