<?xml version="1.0" encoding="UTF-8"?><svg xmlns="http://www.w3.org/2000/svg" width="32" height="32" viewBox="0 0 32 32"><defs><style>.uuid-7e2815eb-efeb-48a3-9d1e-59cdacd29fd2{fill:none;}.uuid-3936e2a6-98ca-4fcf-af07-dc11e2007e99{fill:#151515;}</style></defs><g id="uuid-342f2a97-b5d0-4987-adc9-eab1de496698"><rect class="uuid-7e2815eb-efeb-48a3-9d1e-59cdacd29fd2" width="32" height="32"/></g><g id="uuid-d2d7786f-6d5b-4e9b-8b9f-37230feb3c66"><path class="uuid-3936e2a6-98ca-4fcf-af07-dc11e2007e99" d="M14.875,11.125h-7.875v2.875h-1.58594l-1.70703-1.70703c-.39062-.39062-1.02344-.39062-1.41406,0s-.39062,1.02344,0,1.41406l2,2c.1875.1875.44189.29297.70703.29297h2v3H2c-.55225,0-1,.44775-1,1s.44775,1,1,1h5v1c0,.68817.08478,1.35571.23175,2h-2.23175c-.26514,0-.51953.10547-.70703.29297l-2,2c-.39062.39062-.39062,1.02344,0,1.41406.19531.19531.45117.29297.70703.29297s.51172-.09766.70703-.29297l1.70703-1.70703h2.53571c1.31616,2.63763,3.88611,4.53607,6.92523,4.91888V11.125Z"/><path class="uuid-3936e2a6-98ca-4fcf-af07-dc11e2007e99" d="M8.97504,4.3891c-1.01086,1.26306-1.6839,2.80341-1.8963,4.4859h17.84253c-.2124-1.6825-.88544-3.22284-1.8963-4.4859l1.68207-1.68207c.39062-.39062.39062-1.02344,0-1.41406s-1.02344-.39062-1.41406,0l-1.68207,1.68207c-1.54028-1.23273-3.48932-1.97504-5.6109-1.97504s-4.07062.74231-5.6109,1.97504l-1.68207-1.68207c-.39062-.39062-1.02344-.39062-1.41406,0s-.39062,1.02344,0,1.41406l1.68207,1.68207Z"/><path class="uuid-3936e2a6-98ca-4fcf-af07-dc11e2007e99" d="M30,19h-5v-3h2c.26514,0,.51953-.10547.70703-.29297l2-2c.39062-.39062.39062-1.02344,0-1.41406s-1.02344-.39062-1.41406,0l-1.70703,1.70703h-1.58594v-2.875h-7.875v19.79388c3.03912-.38281,5.60907-2.28125,6.92523-4.91888h2.53571l1.70703,1.70703c.19531.19531.45117.29297.70703.29297s.51172-.09766.70703-.29297c.39062-.39062.39062-1.02344,0-1.41406l-2-2c-.1875-.1875-.44189-.29297-.70703-.29297h-2.23175c.14697-.64429.23175-1.31183.23175-2v-1h5c.55225,0,1-.44775,1-1s-.44775-1-1-1Z"/></g></svg>