<?xml version="1.0" encoding="UTF-8"?><svg xmlns="http://www.w3.org/2000/svg" viewBox="0 0 32 32"><defs><style>.uuid-b85f0aab-b616-451d-b483-b8536c535747{fill:none;}.uuid-b85f0aab-b616-451d-b483-b8536c535747,.uuid-9efce8f6-94d0-41be-8247-e870ecf2427e{stroke-width:0px;}.uuid-9efce8f6-94d0-41be-8247-e870ecf2427e{fill:#151515;}</style></defs><g id="uuid-7fadd3d1-8a6d-4370-a661-0594d0d6eae7"><rect class="uuid-b85f0aab-b616-451d-b483-b8536c535747" x="0" width="32" height="32"/></g><g id="uuid-b323eacd-1bd5-4b79-91ad-aedd10a4abe0"><path class="uuid-9efce8f6-94d0-41be-8247-e870ecf2427e" d="M31,20h-4.3007c-.133-1.4334-.549-2.7845-1.1908-4h2.4915c.2651,0,.5195-.1055.707-.293l2-2c.3906-.3906.3906-1.0234,0-1.4141s-1.0234-.3906-1.4141,0l-1.707,1.707h-3.4445c-1.2894-1.4975-2.9784-2.6406-4.9059-3.2504,1.5165-1.0363,2.5145-2.778,2.5145-4.7496,0-3.1709-2.5796-5.75-5.75-5.75s-5.75,2.5791-5.75,5.75c0,1.9716.998,3.7133,2.5145,4.7496-1.9275.6098-3.6165,1.7529-4.9059,3.2504h-3.4445l-1.707-1.707c-.3906-.3906-1.0234-.3906-1.4141,0s-.3906,1.0234,0,1.4141l2,2c.1875.1875.4419.293.707.293h2.4915c-.6418,1.2155-1.0578,2.5666-1.1908,4H1c-.5522,0-1,.4473-1,1s.4478,1,1,1h4.3007c.133,1.4334.549,2.7845,1.1908,4h-2.4915c-.2651,0-.5195.1055-.707.293l-2,2c-.3906.3906-.3906,1.0234,0,1.4141.1953.1953.4512.293.707.293s.5117-.0977.707-.293l1.707-1.707h3.4445c1.9729,2.2913,4.8875,3.75,8.1414,3.75s6.1685-1.4587,8.1414-3.75h3.4445l1.707,1.707c.1953.1953.4512.293.707.293s.5117-.0977.707-.293c.3906-.3906.3906-1.0234,0-1.4141l-2-2c-.1875-.1875-.4419-.293-.707-.293h-2.4915c.6418-1.2155,1.0578-2.5666,1.1908-4h4.3007c.5522,0,1-.4473,1-1s-.4478-1-1-1Z"/></g></svg>