<?xml version="1.0" encoding="UTF-8"?><svg xmlns="http://www.w3.org/2000/svg" width="32" height="32" viewBox="0 0 32 32"><defs><style>.uuid-73df0e34-6218-4bff-a2aa-c9e2e745a170{fill:none;}.uuid-5eef4ba5-cb75-4f55-ad2f-f253549c5d1e{fill:#151515;}</style></defs><g id="uuid-95eea6d1-1a87-45d3-b865-16ecb9cf0f76"><rect class="uuid-73df0e34-6218-4bff-a2aa-c9e2e745a170" width="32" height="32"/></g><g id="uuid-4bc316d5-69d8-45ad-bd9c-afffffb394ea"><path class="uuid-5eef4ba5-cb75-4f55-ad2f-f253549c5d1e" d="M30,19h-5v-3h2c.26514,0,.51953-.10547.70703-.29297l2-2c.39062-.39062.39062-1.02344,0-1.41406s-1.02344-.39062-1.41406,0l-1.70703,1.70703h-1.58594v-4c0-2.12158-.74231-4.07062-1.97504-5.6109l1.68207-1.68207c.39062-.39062.39062-1.02344,0-1.41406s-1.02344-.39062-1.41406,0l-1.68207,1.68207c-1.54028-1.23273-3.48932-1.97504-5.6109-1.97504s-4.07062.74231-5.6109,1.97504l-1.68207-1.68207c-.39062-.39062-1.02344-.39062-1.41406,0s-.39062,1.02344,0,1.41406l1.68207,1.68207c-1.23273,1.54028-1.97504,3.48932-1.97504,5.6109v4h-1.58594l-1.70703-1.70703c-.39062-.39062-1.02344-.39062-1.41406,0s-.39062,1.02344,0,1.41406l2,2c.1875.1875.44189.29297.70703.29297h2v3H2c-.55225,0-1,.44775-1,1s.44775,1,1,1h5v1c0,.68817.08478,1.35571.23175,2h-2.23175c-.26514,0-.51953.10547-.70703.29297l-2,2c-.39062.39062-.39062,1.02344,0,1.41406.19531.19531.45117.29297.70703.29297s.51172-.09766.70703-.29297l1.70703-1.70703h2.53571c1.4762,2.95831,4.5257,5,8.05023,5s6.57404-2.04169,8.05023-5h2.53571l1.70703,1.70703c.19531.19531.45117.29297.70703.29297s.51172-.09766.70703-.29297c.39062-.39062.39062-1.02344,0-1.41406l-2-2c-.1875-.1875-.44189-.29297-.70703-.29297h-2.23175c.14697-.64429.23175-1.31183.23175-2v-1h5c.55225,0,1-.44775,1-1s-.44775-1-1-1ZM15,28.92017c-3.3866-.48779-6-3.4007-6-6.92017v-11h6v17.92017ZM9.07983,9c.48779-3.3866,3.4007-6,6.92017-6s6.43237,2.6134,6.92017,6h-13.84033ZM23,22c0,3.51947-2.6134,6.43237-6,6.92017V11h6v11Z"/></g></svg>