<?xml version="1.0" encoding="UTF-8"?><svg xmlns="http://www.w3.org/2000/svg" viewBox="0 0 32 32"><defs><style>.uuid-0f62e940-2aae-420f-89b7-b0189ca6ae90{fill:none;}.uuid-0f62e940-2aae-420f-89b7-b0189ca6ae90,.uuid-f16af136-8968-4300-91ca-f55fba77f1a3{stroke-width:0px;}.uuid-f16af136-8968-4300-91ca-f55fba77f1a3{fill:#151515;}</style></defs><g id="uuid-56e3850d-4617-4294-93c8-94c0799d84fd"><rect class="uuid-0f62e940-2aae-420f-89b7-b0189ca6ae90" width="32" height="32"/></g><g id="uuid-03f8a20b-a3fa-46a1-bebc-d41d7a11966b"><path class="uuid-f16af136-8968-4300-91ca-f55fba77f1a3" d="M31,20h-4.0507c-.1297-1.4305-.5373-2.7794-1.1636-4h2.2143c.2656,0,.5195-.1055.707-.293l2-2c.3906-.3906.3906-1.0234,0-1.4141s-1.0234-.3906-1.4141,0l-1.707,1.707h-3.1074c-1.2374-1.4961-2.8677-2.6489-4.7249-3.3263,1.3677-1.1006,2.2463-2.7855,2.2463-4.6737,0-3.3086-2.6914-6-6-6s-6,2.6914-6,6c0,1.8882.8786,3.5731,2.2463,4.6737-1.8572.6774-3.4874,1.8302-4.7249,3.3263h-3.1074l-1.707-1.707c-.3906-.3906-1.0234-.3906-1.4141,0s-.3906,1.0234,0,1.4141l2,2c.1875.1875.4414.293.707.293h2.2143c-.6263,1.2206-1.0339,2.5695-1.1636,4H1c-.5527,0-1,.4478-1,1s.4473,1,1,1h4.0507c.1297,1.4305.5373,2.7794,1.1636,4h-2.2143c-.2656,0-.5195.1055-.707.293l-2,2c-.3906.3906-.3906,1.0234,0,1.4141.1953.1953.4512.293.707.293s.5117-.0977.707-.293l1.707-1.707h3.1074c2.0193,2.4415,5.0702,4,8.4786,4s6.4593-1.5585,8.4786-4h3.1074l1.707,1.707c.1953.1953.4512.293.707.293s.5117-.0977.707-.293c.3906-.3906.3906-1.0234,0-1.4141l-2-2c-.1875-.1875-.4414-.293-.707-.293h-2.2143c.6263-1.2206,1.0339-2.5695,1.1636-4h4.0507c.5527,0,1-.4478,1-1s-.4473-1-1-1ZM12,6c0-2.2056,1.7939-4,4-4s4,1.7944,4,4-1.7939,4-4,4-4-1.7944-4-4ZM16,30c-4.9629,0-9-4.0376-9-9s4.0371-9,9-9,9,4.0376,9,9-4.0371,9-9,9Z"/></g></svg>