<?xml version="1.0" encoding="UTF-8"?><svg xmlns="http://www.w3.org/2000/svg" viewBox="0 0 32 32"><defs><style>.uuid-04dad852-56c0-4ed5-bd3d-3bbc0dcd12dd{fill:none;}.uuid-04dad852-56c0-4ed5-bd3d-3bbc0dcd12dd,.uuid-9823c6fd-0b1a-4461-b864-a1bb9fa17de0{stroke-width:0px;}.uuid-9823c6fd-0b1a-4461-b864-a1bb9fa17de0{fill:#151515;}</style></defs><g id="uuid-deaeee20-7d36-4563-a69e-dbe649f72dac"><rect class="uuid-04dad852-56c0-4ed5-bd3d-3bbc0dcd12dd" x="0" width="32" height="32"/></g><g id="uuid-3ff27d54-98b1-4ed1-8666-7eaf8e10152f"><path class="uuid-9823c6fd-0b1a-4461-b864-a1bb9fa17de0" d="M31.1641,6.2754c-.1938-.4473-.5981-.769-1.0811-.8608-.4912-.0938-.9976.061-1.3501.4146l-5.2388,5.2393c-.3833.3833-.9121.5737-1.4561.5215-.5483-.0522-1.0249-.3394-1.3418-.8081-.4692-.6934-.3354-1.7046.3115-2.3516l5.1631-5.1631c.3535-.353.5083-.8579.4146-1.3501-.0918-.4829-.4136-.8872-.8604-1.0806C24.3735.2495,22.9404-.0322,21.4414-.0078c-5.54.0996-10.2056,4.8667-10.188,10.4102.0034.9512.1367,1.8882.3965,2.7944L1.4844,23.3628C.5078,24.3389-.0317,25.6909.0044,27.0718c.0366,1.4009.6318,2.6899,1.6758,3.6304.9331.8403,2.1123,1.2549,3.3076,1.2544,1.3638,0,2.749-.54,3.812-1.603l10.0034-10.0034c.9077.2603,1.8457.3936,2.7969.3965h.0288c5.5312,0,10.2812-4.6606,10.3789-10.1909.0264-1.4912-.2578-2.9316-.8438-4.2803ZM21.6294,18.7466h-.0229c-.9395-.0029-1.8623-.1636-2.7441-.4771-.3638-.1294-.7695-.0381-1.042.2354l-10.4346,10.4346c-1.2212,1.2217-3.1807,1.3452-4.3672.2764-.6323-.5693-.9927-1.3496-1.0151-2.1963-.022-.8472.2959-1.6436.895-2.2427l10.5967-10.5972c.2729-.2729.3643-.6787.2354-1.042-.313-.8799-.4736-1.8027-.4771-2.7422-.0142-4.4751,3.752-8.3232,8.2241-8.4033.0522-.001.1045-.0015.1567-.0015.8867,0,1.7505.1367,2.5771.4072l-4.6177,4.6182c-1.334,1.334-1.5669,3.3892-.5537,4.8862.6475.958,1.6709,1.5698,2.8076,1.6782,1.1387.1128,2.2534-.2905,3.0605-1.0981l4.6938-4.6938c.2861.8735.4229,1.7896.4058,2.7319-.0786,4.4644-3.9131,8.2261-8.3784,8.2261Z"/><circle class="uuid-9823c6fd-0b1a-4461-b864-a1bb9fa17de0" cx="6" cy="26.0099" r="1.5"/></g></svg>