<?xml version="1.0" encoding="UTF-8"?><svg xmlns="http://www.w3.org/2000/svg" width="32" height="32" viewBox="0 0 32 32"><defs><style>.uuid-f8546a9b-72e6-43c2-a1bc-c644d452bed2{fill:none;}.uuid-2f9334ba-1b97-486a-a370-f2a24c789df3{fill:#151515;}</style></defs><g id="uuid-5b0ad06b-674e-4bd2-8139-b10246fef16b"><rect class="uuid-f8546a9b-72e6-43c2-a1bc-c644d452bed2" width="32" height="32"/></g><g id="uuid-a0404f64-65c4-46d8-b8ab-90c68397d73a"><path class="uuid-2f9334ba-1b97-486a-a370-f2a24c789df3" d="M30.32959,8.1709c-.07666-.25244-.27979-.44629-.53564-.51025-.25439-.06494-.52686.01025-.7124.19727l-3.61182,3.61182c-1.31934,1.31934-3.62012,1.31934-4.93945,0-.65967-.65967-1.02295-1.53662-1.02295-2.46973s.36328-1.81006,1.02295-2.46973l3.61182-3.61182c.18652-.18652.26123-.45703.19727-.7124-.06396-.25586-.25781-.45898-.51025-.53564-.92041-.27881-1.87256-.42041-2.8291-.42041-5.37598,0-9.75,4.37402-9.75,9.75,0,1.07715.17822,2.13721.52979,3.15918L2.96973,22.96973c-.80957.80957-1.25537,1.88574-1.25537,3.03027s.4458,2.2207,1.25537,3.03027,1.88574,1.25537,3.03027,1.25537,2.2207-.4458,3.03027-1.25537l8.81055-8.81006c1.02197.35156,2.08203.52979,3.15918.52979,5.37598,0,9.75-4.37402,9.75-9.75,0-.95654-.1416-1.90869-.42041-2.8291ZM6.00488,27.87769c-1.03552,0-1.875-.83948-1.875-1.875,0-1.03558.83948-1.875,1.875-1.875s1.875.83942,1.875,1.875c0,1.03552-.83948,1.875-1.875,1.875Z"/></g></svg>