<?xml version="1.0" encoding="UTF-8"?><svg xmlns="http://www.w3.org/2000/svg" width="32" height="32" viewBox="0 0 32 32"><defs><style>.uuid-a1b57bbe-ec96-4cab-81db-1c4190d4513a{fill:none;}.uuid-72dd4476-f38a-4aac-993e-143566ccc93c{fill:#151515;}</style></defs><g id="uuid-c7439bb3-e138-4871-aa1e-4a8608fc80eb"><rect class="uuid-a1b57bbe-ec96-4cab-81db-1c4190d4513a" width="32" height="32"/></g><g id="uuid-c3fc80c8-a826-41b9-b091-5568ed10a230"><path class="uuid-72dd4476-f38a-4aac-993e-143566ccc93c" d="M29.9292,6.51416c-.14404-.28662-.41748-.48682-.73438-.5376-.31738-.04932-.63916.05322-.86572.28027l-5.03613,5.03613c-.71289.71289-1.87305.71289-2.58594,0s-.71289-1.87305,0-2.58594l5.03613-5.03613c.22705-.22705.33105-.54883.28027-.86572s-.25098-.59033-.5376-.73438c-1.41211-.71045-2.9209-1.0708-4.48584-1.0708-5.51416,0-10,4.48584-10,10,0,1.05273.16602,2.08984.49365,3.09229L2.32715,23.25879c-1.76807,1.76807-1.76807,4.64551,0,6.41406.88428.88428,2.0459,1.32617,3.20703,1.32617,1.16162,0,2.32324-.44189,3.20703-1.32617l9.1665-9.1665c1.00244.32764,2.03955.49365,3.09229.49365,5.51416,0,10-4.48584,10-10,0-1.56494-.36035-3.07373-1.0708-4.48584ZM21,19c-1.01855,0-2.02002-.19482-2.97656-.5791-.36963-.14795-.79639-.0625-1.07959.22119l-9.6167,9.6167c-.98828.98779-2.59668.98877-3.58594,0-.98828-.98877-.98828-2.59766,0-3.58594l9.6167-9.6167c.2832-.2832.37012-.70801.22119-1.07959-.38428-.95654-.5791-1.95801-.5791-2.97656,0-4.41113,3.58887-8,8-8,.77148,0,1.52686.10986,2.25781.32812l-3.96484,3.96484c-.72314.72314-1.12158,1.68457-1.12158,2.70703s.39844,1.98389,1.12158,2.70703c1.49219,1.49316,3.92188,1.49316,5.41406,0l3.96484-3.96484c.21826.73096.32812,1.48633.32812,2.25781,0,4.41113-3.58887,8-8,8Z"/><circle class="uuid-72dd4476-f38a-4aac-993e-143566ccc93c" cx="7" cy="24.99866" r="1.25"/></g></svg>