<?xml version="1.0" encoding="UTF-8"?><svg xmlns="http://www.w3.org/2000/svg" viewBox="0 0 32 32"><defs><style>.uuid-614374ff-9fcb-4c57-9e79-1178ce150039{fill:none;}.uuid-614374ff-9fcb-4c57-9e79-1178ce150039,.uuid-1e278713-d8b7-43e7-ab1e-a38aebc31c37{stroke-width:0px;}.uuid-1e278713-d8b7-43e7-ab1e-a38aebc31c37{fill:#151515;}</style></defs><g id="uuid-f3b21034-5996-41ed-a922-d9286a2b232a"><rect class="uuid-614374ff-9fcb-4c57-9e79-1178ce150039" x="0" width="32" height="32"/></g><g id="uuid-9c8398f2-3bbd-476b-ac37-e2f595f9c415"><path class="uuid-1e278713-d8b7-43e7-ab1e-a38aebc31c37" d="M30.7051,6.4736c-.1279-.2949-.395-.5068-.7148-.5684-.3296-.0596-.667.042-.9038.2773l-5.2388,5.2393c-.4893.4893-1.1646.7295-1.8564.666-.6997-.0674-1.3066-.4316-1.709-1.0264-.6108-.9023-.4546-2.1582.3721-2.9854l5.1631-5.1631c.2358-.2363.3394-.5732.2773-.9023-.061-.3203-.2734-.5879-.5688-.7168-1.2852-.5566-2.6519-.8311-4.0752-.8018-5.2734.0938-9.7144,4.6318-9.6973,9.9092.0034,1.0029.1587,1.9893.4619,2.9375L1.8379,23.7158c-.8931.8936-1.3667,2.0811-1.334,3.3438.0332,1.2617.5698,2.4238,1.5112,3.2705.8218.7412,1.8848,1.1055,2.9653,1.1055,1.2456,0,2.5146-.4844,3.4658-1.4355l10.2153-10.2148c.9502.3027,1.938.458,2.9399.4609h.0288c5.2642,0,9.7847-4.4355,9.8774-9.6992.0249-1.4189-.2451-2.7891-.8027-4.0732ZM6,27.5021c-.8284,0-1.5-.6716-1.5-1.5s.6716-1.5,1.5-1.5,1.5.6716,1.5,1.5-.6716,1.5-1.5,1.5Z"/></g></svg>