<svg id="a559b6ea-5130-4dbc-b8d0-d41edb16fb97" data-name="Icons" xmlns="http://www.w3.org/2000/svg" viewBox="0 0 16 16"><path d="M3.52,10.83h0a.67.67,0,0,0-.67.67.68.68,0,0,0,.69.67.67.67,0,1,0,0-1.34ZM6,5.17h6.5a.67.67,0,0,0,0-1.34H6A.67.67,0,1,0,6,5.17ZM3.52,7.33h0A.67.67,0,0,0,2.83,8a.68.68,0,0,0,.69.67.67.67,0,1,0,0-1.34Zm9,0H6A.68.68,0,1,0,6,8.67h6.5a.68.68,0,0,0,0-1.35Zm-9-3.49h0a.67.67,0,0,0-.67.67.68.68,0,0,0,.69.67.67.67,0,0,0,0-1.34Zm9,7H6a.67.67,0,1,0,0,1.34h6.5a.67.67,0,0,0,0-1.34Z"/></svg>