<?xml version="1.0" encoding="UTF-8"?><svg xmlns="http://www.w3.org/2000/svg" width="32" height="32" viewBox="0 0 32 32"><defs><style>.uuid-7bee2769-e402-43c2-994c-aa2d5fb8eaab{fill:none;}.uuid-981a8ca2-f3dc-4330-8607-677cf20ed977{fill:#151515;}</style></defs><g id="uuid-d0b0d027-3c70-48f4-87be-eeb1f1d0013e"><rect class="uuid-7bee2769-e402-43c2-994c-aa2d5fb8eaab" width="32" height="32"/></g><g id="uuid-d44988c9-91b9-46a6-ac1e-c1c6562d98c4"><path class="uuid-981a8ca2-f3dc-4330-8607-677cf20ed977" d="M28.5,5h-5.5v-2c0-.55273-.44775-1-1-1s-1,.44727-1,1v2h-10v-2c0-.55273-.44775-1-1-1s-1,.44727-1,1v2H3.50684c-.82715,0-1.5.67285-1.5,1.5v7c0,.00995.00275.0191.00293.02899v8.42261c-.00085.01697-.00977.03125-.00977.0484,0,.27911.11505.53021.29919.71155.00153.00153.00201.00372.00354.00525l6.98956,6.98956c.09167.09186.20123.16516.32281.21594.00177.00073.00342.00134.00513.00208.12146.04987.25043.07562.37976.07562h18.5c.82715,0,1.5-.67285,1.5-1.5V6.5c0-.82715-.67285-1.5-1.5-1.5ZM9,7v2c0,.55273.44775,1,1,1s1-.44727,1-1v-2h10v2c0,.55273.44775,1,1,1s1-.44727,1-1v-2h5v6H4.00977v-6h4.99023ZM9,26.58594l-3.58594-3.58594h3.58594v3.58594ZM11,28v-5.5c0-.82715-.67285-1.5-1.5-1.5h-5.49023v-6h23.99023v13H11Z"/></g></svg>