<?xml version="1.0" encoding="UTF-8"?><svg xmlns="http://www.w3.org/2000/svg" width="32" height="32" viewBox="0 0 32 32"><defs><style>.uuid-54db2cc7-9def-421f-a05e-f571b769f67a{fill:none;}.uuid-a82140be-5e76-4422-afc1-773c27f29416{fill:#151515;}</style></defs><g id="uuid-99c8c5f6-dc50-4018-89e2-7b0bc2b318ee"><rect class="uuid-54db2cc7-9def-421f-a05e-f571b769f67a" width="32" height="32"/></g><g id="uuid-0d4ddf10-cd91-4735-ad51-a764a4bd39cc"><path class="uuid-a82140be-5e76-4422-afc1-773c27f29416" d="M30,11.875v-5.375c0-.82715-.67285-1.5-1.5-1.5h-5.5v-2c0-.55273-.44775-1-1-1s-1,.44727-1,1v2h-10v-2c0-.55273-.44775-1-1-1s-1,.44727-1,1v2H3.50977c-.82715,0-1.5.67285-1.5,1.5v5.375h27.99023Z"/><polygon class="uuid-a82140be-5e76-4422-afc1-773c27f29416" points="8.875 29.28906 8.875 23.125 2.71094 23.125 8.875 29.28906"/><path class="uuid-a82140be-5e76-4422-afc1-773c27f29416" d="M2.00977,14.125v6.75h7.49023c.896,0,1.625.72852,1.625,1.625v7.5h17.375c.82715,0,1.5-.67285,1.5-1.5v-14.375H2.00977Z"/></g></svg>