<?xml version="1.0" encoding="UTF-8"?><svg xmlns="http://www.w3.org/2000/svg" width="32" height="32" viewBox="0 0 32 32"><defs><style>.uuid-ead3ba1a-f528-4f6a-909b-5e379d7f5365{fill:none;}.uuid-370d1598-9251-4259-89a7-60fdeed545af{fill:#151515;}</style></defs><g id="uuid-e3a7afe7-f529-4c3f-9b00-e3e43fd888a7"><rect class="uuid-ead3ba1a-f528-4f6a-909b-5e379d7f5365" width="32" height="32"/></g><g id="uuid-461c83e8-9ca8-4fee-9937-d827241e1bab"><path class="uuid-370d1598-9251-4259-89a7-60fdeed545af" d="M22,29.99658c-2.20361,0-4.27539-.85791-5.8335-2.4165L4.41943,15.83301c-3.21631-3.21631-3.21631-8.4502,0-11.66699l2.52002-2.51953c.28223-.28271.65869-.43896,1.05957-.43945h.00098c.40039,0,.77734.15625,1.06055.43945l5.29297,5.29297c.2832.2832.43945.66016.43945,1.06055s-.15625.77734-.43945,1.06055l-2.93945,2.93945,8.58594,8.58594,2.93945-2.93945c.58496-.58496,1.53613-.58496,2.12109,0l5.29297,5.29297c.58398.58398.58447,1.53516.00098,2.12012l-2.521,2.52051c-1.55811,1.55859-3.62988,2.4165-5.8335,2.4165ZM8,3.41406l-2.1665,2.16602c-2.43652,2.43701-2.43652,6.40234,0,8.83887l11.74707,11.74707c1.18066,1.18066,2.75,1.83057,4.41943,1.83057s3.23877-.6499,4.41943-1.83057l2.1665-2.16602-4.58594-4.58594-2.93945,2.93945c-.58496.58496-1.53613.58496-2.12109,0l-9.29297-9.29297c-.2832-.2832-.43945-.66016-.43945-1.06055s.15625-.77734.43945-1.06055l2.93945-2.93945-4.58594-4.58594ZM12.93945,8.35352h.00977-.00977Z"/></g></svg>