<?xml version="1.0" encoding="UTF-8"?><svg xmlns="http://www.w3.org/2000/svg" viewBox="0 0 32 32"><defs><style>.uuid-5ca516f2-9ce4-4c89-96a7-91f2fac4efe9{fill:none;}.uuid-5ca516f2-9ce4-4c89-96a7-91f2fac4efe9,.uuid-0fa720dd-ddf1-4238-85a0-cc3a6c54ccdf{stroke-width:0px;}.uuid-0fa720dd-ddf1-4238-85a0-cc3a6c54ccdf{fill:#151515;}</style></defs><g id="uuid-5ce1b929-337d-41cc-9292-0bb6446c023d"><rect class="uuid-5ca516f2-9ce4-4c89-96a7-91f2fac4efe9" x="0" width="32" height="32"/></g><g id="uuid-b4aec809-8cfa-4b56-ae2d-197f372ceebf"><path class="uuid-0fa720dd-ddf1-4238-85a0-cc3a6c54ccdf" d="M23.5186,32.0327c-1.8706,0-3.6299-.73-4.9556-2.0557L2.0332,13.4473C.7114,12.126-.0161,10.3687-.0161,8.5s.7275-3.626,2.0493-4.9473L4.9395.6465C5.5244.0615,6.4756.0615,7.0605.6465l5.293,5.293c.585.585.585,1.5361,0,2.1211l-3.3096,3.3096,11.603,11.6021,3.2891-3.3193c.2827-.2852.6602-.4429,1.062-.4443.3579-.002.7798.1553,1.064.4395l5.293,5.293c.582.582.5845,1.5312.0054,2.1162l-2.8901,2.917c-1.3203,1.3257-3.0757,2.0566-4.9438,2.0586h-.0078ZM6,2.4141l-2.5527,2.5527c-.9438.9438-1.4634,2.1987-1.4634,3.5332s.5195,2.5894,1.4634,3.5332l16.5298,16.5298c.9478.9478,2.2056,1.4697,3.5415,1.4697h.0059c1.333-.0015,2.5854-.5229,3.5269-1.4683l2.5376-2.561-4.5854-4.5859-3.2896,3.3198c-.2827.2852-.6602.4434-1.0625.4438h-.0029c-.4014,0-.7783-.1562-1.0615-.4404L7.2764,12.4307c-.585-.585-.585-1.5361,0-2.1211l3.3096-3.3096L6,2.4141ZM29.9409,26.355h.0098-.0098Z"/></g></svg>