<?xml version="1.0" encoding="UTF-8"?><svg xmlns="http://www.w3.org/2000/svg" width="32" height="32" viewBox="0 0 32 32"><defs><style>.uuid-dcf7dbb9-d736-44b9-802b-0473f2697080{fill:none;}.uuid-ae6cef51-d297-4a55-b3f9-c3be18bceba4{fill:#151515;}</style></defs><g id="uuid-12609695-5ca0-417d-ac46-6b897cc872b8"><rect class="uuid-dcf7dbb9-d736-44b9-802b-0473f2697080" width="32" height="32"/></g><g id="uuid-d36d524c-2bd6-430b-ab8c-3ccf409cab40"><path class="uuid-ae6cef51-d297-4a55-b3f9-c3be18bceba4" d="M29.35352,23.93896l-4.29297-4.29297c-.56641-.56641-1.55469-.56641-2.12109,0l-2.93945,2.93945-10.58594-10.58594,2.93945-2.93945c.2832-.2832.43945-.66016.43945-1.06055s-.15625-.77734-.43945-1.06055l-4.29297-4.29297c-.58496-.58496-1.53613-.58496-2.12109,0l-1.52588,1.52588c-1.55664,1.55664-2.41406,3.62646-2.41406,5.82764,0,2.20166.85742,4.27148,2.41406,5.82764l11.75879,11.75879c1.60645,1.60693,3.71729,2.41016,5.82764,2.41016s4.22119-.80322,5.82764-2.41016l1.52588-1.52588c.2832-.2832.43945-.66016.43945-1.06055s-.15625-.77734-.43945-1.06055Z"/></g></svg>