<?xml version="1.0" encoding="UTF-8"?><svg xmlns="http://www.w3.org/2000/svg" viewBox="0 0 32 32"><defs><style>.uuid-3f02b395-6f2b-447c-9c31-dd3b6f0d0d18{fill:none;}.uuid-3f02b395-6f2b-447c-9c31-dd3b6f0d0d18,.uuid-b7340a24-a4a4-40a4-b2d6-70df1e05111c{stroke-width:0px;}.uuid-b7340a24-a4a4-40a4-b2d6-70df1e05111c{fill:#151515;}</style></defs><g id="uuid-18a143e4-f57a-4a37-b77c-49d6a546fc0c"><rect class="uuid-3f02b395-6f2b-447c-9c31-dd3b6f0d0d18" width="32" height="32"/></g><g id="uuid-e2c8be1f-09b6-4d16-9262-6e47fb525486"><path class="uuid-b7340a24-a4a4-40a4-b2d6-70df1e05111c" d="M31.1934,25.1182l-5.293-5.293c-.2363-.2363-.5498-.3662-.8838-.3662h-.002c-.335,0-.6494.1309-.8867.3691l-3.4658,3.499-11.9561-11.957,3.4854-3.4863c.4873-.4873.4873-1.2803,0-1.7676L6.8984.8232c-.4863-.4883-1.2812-.4883-1.7676,0l-2.9062,2.9062C.9502,5.0039.248,6.6982.248,8.5s.7021,3.4961,1.9766,4.7705l16.5303,16.5293c1.2783,1.2783,2.9746,1.9824,4.7783,1.9824h.0068c1.8018-.001,3.4941-.7061,4.7686-1.9844l2.8896-2.917c.4824-.4873.4805-1.2783-.0049-1.7627Z"/></g></svg>