<?xml version="1.0" encoding="UTF-8"?><svg xmlns="http://www.w3.org/2000/svg" width="32" height="32" viewBox="0 0 32 32"><defs><style>.uuid-5e646f23-bdbe-40a9-8851-fd33f9b6e5c9{fill:none;}.uuid-c05c6bcd-8492-462b-b0c2-1628be725e88{fill:#151515;}</style></defs><g id="uuid-c40e4115-da16-460e-b422-17ecb60cf301"><rect class="uuid-5e646f23-bdbe-40a9-8851-fd33f9b6e5c9" width="32" height="32"/></g><g id="uuid-43be144a-4f83-4c82-a9c2-8e3447d09db5"><path class="uuid-c05c6bcd-8492-462b-b0c2-1628be725e88" d="M3,8c.55225,0,1-.44775,1-1v-1c0-.55225-.44775-1-1-1s-1,.44775-1,1v1c0,.55225.44775,1,1,1Z"/><path class="uuid-c05c6bcd-8492-462b-b0c2-1628be725e88" d="M29,5c-.55225,0-1,.44775-1,1v1c0,.55225.44775,1,1,1s1-.44775,1-1v-1c0-.55225-.44775-1-1-1Z"/><path class="uuid-c05c6bcd-8492-462b-b0c2-1628be725e88" d="M27,11h-.06482l-1.95715-9.20801c-.09814-.46191-.50586-.79199-.97803-.79199H8c-.47217,0-.87988.33008-.97803.79199l-1.95715,9.20801h-.06482c-1.6543,0-3,1.3457-3,3v7.5c0,.82715.67285,1.5,1.5,1.5h25c.82715,0,1.5-.67285,1.5-1.5v-7.5c0-1.6543-1.3457-3-3-3ZM8.80957,3h14.38086l1.70026,8H7.10931l1.70026-8ZM7.125,18c0,.62109-.50391,1.125-1.125,1.125s-1.125-.50391-1.125-1.125v-2c0-.62109.50391-1.125,1.125-1.125s1.125.50391,1.125,1.125v2ZM20,18.125h-8c-.62109,0-1.125-.50391-1.125-1.125s.50391-1.125,1.125-1.125h8c.62109,0,1.125.50391,1.125,1.125s-.50391,1.125-1.125,1.125ZM27.125,18c0,.62109-.50391,1.125-1.125,1.125s-1.125-.50391-1.125-1.125v-2c0-.62109.50391-1.125,1.125-1.125s1.125.50391,1.125,1.125v2Z"/><path class="uuid-c05c6bcd-8492-462b-b0c2-1628be725e88" d="M29,25H3c-.55225,0-1,.44775-1,1s.44775,1,1,1h1v2c0,1.10303.89697,2,2,2h2c1.10303,0,2-.89697,2-2v-2h12v2c0,1.10303.89697,2,2,2h2c1.10303,0,2-.89697,2-2v-2h1c.55225,0,1-.44775,1-1s-.44775-1-1-1Z"/></g></svg>