<?xml version="1.0" encoding="UTF-8"?><svg xmlns="http://www.w3.org/2000/svg" viewBox="0 0 32 32"><defs><style>.uuid-a5cbd166-43fb-40d9-9614-bc39d900a745{fill:none;}.uuid-a5cbd166-43fb-40d9-9614-bc39d900a745,.uuid-5b58db32-b998-42e4-8d78-6985a9566b3b{stroke-width:0px;}.uuid-5b58db32-b998-42e4-8d78-6985a9566b3b{fill:#151515;}</style></defs><g id="uuid-7da9eac0-c9df-442a-baa4-5f0c205492d7"><rect class="uuid-a5cbd166-43fb-40d9-9614-bc39d900a745" width="32" height="32"/></g><g id="uuid-9b4c3373-f589-4c64-a0f3-3e7d9f6647d5"><path class="uuid-5b58db32-b998-42e4-8d78-6985a9566b3b" d="M3,9c.5527,0,1-.4473,1-1v-1c0-.5527-.4473-1-1-1s-1,.4473-1,1v1c0,.5527.4473,1,1,1Z"/><path class="uuid-5b58db32-b998-42e4-8d78-6985a9566b3b" d="M29,9c.5527,0,1-.4473,1-1v-1c0-.5527-.4473-1-1-1s-1,.4473-1,1v1c0,.5527.4473,1,1,1Z"/><path class="uuid-5b58db32-b998-42e4-8d78-6985a9566b3b" d="M30,25H2c-.5527,0-1,.4473-1,1s.4473,1,1,1h1v2c0,1.1025.8975,2,2,2h3c1.1025,0,2-.8975,2-2v-2h12v2c0,1.1025.8975,2,2,2h3c1.1025,0,2-.8975,2-2v-2h1c.5527,0,1-.4473,1-1s-.4473-1-1-1Z"/><path class="uuid-5b58db32-b998-42e4-8d78-6985a9566b3b" d="M28,11h-1.0639l-1.9576-9.208c-.0986-.4619-.5068-.792-.9785-.792H8c-.4717,0-.8799.3301-.9785.792l-1.9576,9.208h-1.0639c-1.6543,0-3,1.3457-3,3v7.5c0,.8271.6729,1.5,1.5,1.5h27c.8271,0,1.5-.6729,1.5-1.5v-7.5c0-1.6543-1.3457-3-3-3ZM8.8096,3h14.3809l1.7003,8H7.1093l1.7003-8ZM7.125,18c0,.6211-.5039,1.125-1.125,1.125s-1.125-.5039-1.125-1.125v-2c0-.6211.5039-1.125,1.125-1.125s1.125.5039,1.125,1.125v2ZM20,18.125h-8c-.6211,0-1.125-.5039-1.125-1.125s.5039-1.125,1.125-1.125h8c.6211,0,1.125.5039,1.125,1.125s-.5039,1.125-1.125,1.125ZM27.125,18c0,.6211-.5039,1.125-1.125,1.125s-1.125-.5039-1.125-1.125v-2c0-.6211.5039-1.125,1.125-1.125s1.125.5039,1.125,1.125v2Z"/></g></svg>