<svg xmlns="http://www.w3.org/2000/svg" viewBox="0 0 32 32">
  <defs>
    <style>
      .uuid-5b58db32-b998-42e4-8d78-6985a9566b3b{stroke-width:0;fill:#151515}
    </style>
  </defs>
  <path d="M0 0h32v32H0z" id="uuid-7da9eac0-c9df-442a-baa4-5f0c205492d7" stroke-width="0" fill="none"/>
  <g id="uuid-9b4c3373-f589-4c64-a0f3-3e7d9f6647d5">
    <path class="uuid-5b58db32-b998-42e4-8d78-6985a9566b3b" d="M3 9a1 1 0 0 0 1-1V7a1 1 0 1 0-2 0v1a1 1 0 0 0 1 1Zm26 0a1 1 0 0 0 1-1V7a1 1 0 1 0-2 0v1a1 1 0 0 0 1 1Zm1 16H2a1 1 0 1 0 0 2h1v2c0 1.103.897 2 2 2h3c1.103 0 2-.897 2-2v-2h12v2c0 1.103.897 2 2 2h3c1.103 0 2-.897 2-2v-2h1a1 1 0 1 0 0-2Z"/>
    <path class="uuid-5b58db32-b998-42e4-8d78-6985a9566b3b" d="M28 11h-1.064l-1.958-9.208A1.001 1.001 0 0 0 24 1H8c-.472 0-.88.33-.979.792L5.064 11H4c-1.654 0-3 1.346-3 3v7.5c0 .827.673 1.5 1.5 1.5h27c.827 0 1.5-.673 1.5-1.5V14c0-1.654-1.346-3-3-3ZM8.81 3h14.38l1.7 8H7.11l1.7-8ZM7.125 18a1.125 1.125 0 0 1-2.25 0v-2a1.125 1.125 0 0 1 2.25 0v2ZM20 18.125h-8a1.125 1.125 0 0 1 0-2.25h8a1.125 1.125 0 0 1 0 2.25ZM27.125 18a1.125 1.125 0 0 1-2.25 0v-2a1.125 1.125 0 0 1 2.25 0v2Z"/>
  </g>
</svg>
