<svg xmlns="http://www.w3.org/2000/svg" viewBox="0 0 32 32">
  <defs>
    <style>
      .uuid-35f575b0-21e5-4591-8362-f29f408a13f6{stroke-width:0;fill:#151515}
    </style>
  </defs>
  <path d="M0 0h32v32H0z" id="uuid-80d3eea8-26fa-403a-9903-a44efa7a72a1" stroke-width="0" fill="none"/>
  <g id="uuid-ee8cdc62-1e64-4b9c-8893-f32d83e13f8b">
    <path class="uuid-35f575b0-21e5-4591-8362-f29f408a13f6" d="M28 11h-1.065l-1.957-9.208A1 1 0 0 0 24 1H8a1 1 0 0 0-.978.792L5.065 11H4c-1.654 0-3 1.346-3 3v7.5c0 .827.673 1.5 1.5 1.5h27c.827 0 1.5-.673 1.5-1.5V14c0-1.654-1.346-3-3-3ZM8.81 3h14.38l1.7 8H7.11l1.7-8ZM29 21H3v-7c0-.551.449-1 1-1h24c.551 0 1 .449 1 1v7Z"/>
    <path class="uuid-35f575b0-21e5-4591-8362-f29f408a13f6" d="M7 15a1 1 0 0 0-1 1v2a1 1 0 0 0 2 0v-2a1 1 0 0 0-1-1ZM3 9a1 1 0 0 0 1-1V7a1 1 0 0 0-2 0v1a1 1 0 0 0 1 1Zm26 0a1 1 0 0 0 1-1V7a1 1 0 0 0-2 0v1a1 1 0 0 0 1 1Zm-4 6a1 1 0 0 0-1 1v2a1 1 0 0 0 2 0v-2a1 1 0 0 0-1-1Zm-5 1h-8a1 1 0 0 0 0 2h8a1 1 0 0 0 0-2Zm10 9H2a1 1 0 0 0 0 2h1v2c0 1.103.897 2 2 2h3c1.103 0 2-.897 2-2v-2h12v2c0 1.103.897 2 2 2h3c1.103 0 2-.897 2-2v-2h1a1 1 0 0 0 0-2ZM8.002 29H5v-2h3l.002 2Zm19 0H24v-2h3l.001 2Z"/>
  </g>
</svg>
