<?xml version="1.0" encoding="UTF-8"?><svg xmlns="http://www.w3.org/2000/svg" width="32" height="32" viewBox="0 0 32 32"><defs><style>.uuid-bda436ab-5c2e-4696-bdee-1c852013778a{fill:none;}.uuid-927b718a-a409-40b2-be15-0c44d58e5949{fill:#151515;}</style></defs><g id="uuid-4ee00fa1-c331-4027-bae5-02b5b0a795ba"><rect class="uuid-bda436ab-5c2e-4696-bdee-1c852013778a" width="32" height="32"/></g><g id="uuid-766506d9-b2e9-4ee3-8771-38137a0a633d"><path class="uuid-927b718a-a409-40b2-be15-0c44d58e5949" d="M27,11h-.06482l-1.95715-9.20801c-.09814-.46191-.50586-.79199-.97803-.79199H8c-.47217,0-.87988.33008-.97803.79199l-1.95715,9.20801h-.06482c-1.6543,0-3,1.3457-3,3v7.5c0,.82715.67285,1.5,1.5,1.5h25c.82715,0,1.5-.67285,1.5-1.5v-7.5c0-1.6543-1.3457-3-3-3ZM8.80957,3h14.38086l1.70026,8H7.10931l1.70026-8ZM28,21H4v-7c0-.55127.44873-1,1-1h22c.55127,0,1,.44873,1,1v7Z"/><path class="uuid-927b718a-a409-40b2-be15-0c44d58e5949" d="M7,15c-.55225,0-1,.44775-1,1v2c0,.55225.44775,1,1,1s1-.44775,1-1v-2c0-.55225-.44775-1-1-1Z"/><path class="uuid-927b718a-a409-40b2-be15-0c44d58e5949" d="M3,8c.55225,0,1-.44775,1-1v-1c0-.55225-.44775-1-1-1s-1,.44775-1,1v1c0,.55225.44775,1,1,1Z"/><path class="uuid-927b718a-a409-40b2-be15-0c44d58e5949" d="M29,5c-.55225,0-1,.44775-1,1v1c0,.55225.44775,1,1,1s1-.44775,1-1v-1c0-.55225-.44775-1-1-1Z"/><path class="uuid-927b718a-a409-40b2-be15-0c44d58e5949" d="M25,15c-.55225,0-1,.44775-1,1v2c0,.55225.44775,1,1,1s1-.44775,1-1v-2c0-.55225-.44775-1-1-1Z"/><path class="uuid-927b718a-a409-40b2-be15-0c44d58e5949" d="M20,16h-8c-.55225,0-1,.44775-1,1s.44775,1,1,1h8c.55225,0,1-.44775,1-1s-.44775-1-1-1Z"/><path class="uuid-927b718a-a409-40b2-be15-0c44d58e5949" d="M29,25H3c-.55225,0-1,.44775-1,1s.44775,1,1,1h1v2c0,1.10303.89697,2,2,2h2c1.10303,0,2-.89697,2-2v-2h12v2c0,1.10303.89697,2,2,2h2c1.10303,0,2-.89697,2-2v-2h1c.55225,0,1-.44775,1-1s-.44775-1-1-1Z"/></g></svg>