<?xml version="1.0" encoding="UTF-8"?><svg xmlns="http://www.w3.org/2000/svg" viewBox="0 0 32 32"><defs><style>.uuid-03523d95-8140-40cc-8a48-d94f7c2ccd13{fill:none;}.uuid-03523d95-8140-40cc-8a48-d94f7c2ccd13,.uuid-35f575b0-21e5-4591-8362-f29f408a13f6{stroke-width:0px;}.uuid-35f575b0-21e5-4591-8362-f29f408a13f6{fill:#151515;}</style></defs><g id="uuid-80d3eea8-26fa-403a-9903-a44efa7a72a1"><rect class="uuid-03523d95-8140-40cc-8a48-d94f7c2ccd13" x="0" width="32" height="32"/></g><g id="uuid-ee8cdc62-1e64-4b9c-8893-f32d83e13f8b"><path class="uuid-35f575b0-21e5-4591-8362-f29f408a13f6" d="M28,11h-1.0648l-1.9572-9.208c-.0981-.4619-.5059-.792-.978-.792H8c-.4722,0-.8799.3301-.978.792l-1.9572,9.208h-1.0648c-1.6543,0-3,1.3457-3,3v7.5c0,.8271.6729,1.5,1.5,1.5h27c.8271,0,1.5-.6729,1.5-1.5v-7.5c0-1.6543-1.3457-3-3-3ZM8.8096,3h14.3809l1.7003,8H7.1093l1.7003-8ZM29,21H3v-7c0-.5513.4487-1,1-1h24c.5513,0,1,.4487,1,1v7Z"/><path class="uuid-35f575b0-21e5-4591-8362-f29f408a13f6" d="M7,15c-.5522,0-1,.4478-1,1v2c0,.5522.4478,1,1,1s1-.4478,1-1v-2c0-.5522-.4478-1-1-1Z"/><path class="uuid-35f575b0-21e5-4591-8362-f29f408a13f6" d="M3,9c.5522,0,1-.4478,1-1v-1c0-.5522-.4478-1-1-1s-1,.4478-1,1v1c0,.5522.4478,1,1,1Z"/><path class="uuid-35f575b0-21e5-4591-8362-f29f408a13f6" d="M29,9c.5522,0,1-.4478,1-1v-1c0-.5522-.4478-1-1-1s-1,.4478-1,1v1c0,.5522.4478,1,1,1Z"/><path class="uuid-35f575b0-21e5-4591-8362-f29f408a13f6" d="M25,15c-.5522,0-1,.4478-1,1v2c0,.5522.4478,1,1,1s1-.4478,1-1v-2c0-.5522-.4478-1-1-1Z"/><path class="uuid-35f575b0-21e5-4591-8362-f29f408a13f6" d="M20,16h-8c-.5522,0-1,.4478-1,1s.4478,1,1,1h8c.5522,0,1-.4478,1-1s-.4478-1-1-1Z"/><path class="uuid-35f575b0-21e5-4591-8362-f29f408a13f6" d="M30,25H2c-.5522,0-1,.4478-1,1s.4478,1,1,1h1v2c0,1.103.897,2,2,2h3c1.103,0,2-.897,2-2v-2h12v2c0,1.103.897,2,2,2h3c1.103,0,2-.897,2-2v-2h1c.5522,0,1-.4478,1-1s-.4478-1-1-1ZM8.0015,29h-3.0015v-2h3.0005l.001,2ZM27.0015,29h-3.0015v-2h3.0005l.001,2Z"/></g></svg>