<?xml version="1.0" encoding="UTF-8"?><svg xmlns="http://www.w3.org/2000/svg" width="32" height="32" viewBox="0 0 32 32"><defs><style>.uuid-dd6eebe1-4ac7-482e-9b28-f6ce703cbdd2{fill:none;}.uuid-564cd605-8634-4b83-b2bf-8dc95e24b362{fill:#151515;}</style></defs><g id="uuid-ca29b84b-4b98-4e1e-b0d7-6f07e91261bf"><rect class="uuid-dd6eebe1-4ac7-482e-9b28-f6ce703cbdd2" width="32" height="32"/></g><g id="uuid-6f4bb95b-3d42-4641-919d-6a080b3ad415"><path class="uuid-564cd605-8634-4b83-b2bf-8dc95e24b362" d="M31,10v-2.5c0-.82715-.67285-1.5-1.5-1.5H2.5c-.82715,0-1.5.67285-1.5,1.5v2.5h30Z"/><path class="uuid-564cd605-8634-4b83-b2bf-8dc95e24b362" d="M1,13v11.5c0,.82715.67285,1.5,1.5,1.5h27c.82715,0,1.5-.67285,1.5-1.5v-11.5H1ZM16,21.25H7c-.69043,0-1.25-.55957-1.25-1.25s.55957-1.25,1.25-1.25h9c.69043,0,1.25.55957,1.25,1.25s-.55957,1.25-1.25,1.25Z"/></g></svg>