<svg xmlns="http://www.w3.org/2000/svg" viewBox="0 0 32 32">
  <defs>
    <style>
      .uuid-f0859990-5fa5-4b02-ae9a-63d6246f75c3{stroke-width:0;fill:#151515}
    </style>
  </defs>
  <path d="M0 0h32v32H0z" id="uuid-ddba8ca0-7810-4d6e-8dea-e559e3a1aa16" stroke-width="0" fill="none"/>
  <g id="uuid-6c580e2d-f93e-42cd-bd00-439702362353">
    <path class="uuid-f0859990-5fa5-4b02-ae9a-63d6246f75c3" d="M29.5 6h-27C1.673 6 1 6.673 1 7.5v17c0 .827.673 1.5 1.5 1.5h27c.827 0 1.5-.673 1.5-1.5v-17c0-.827-.673-1.5-1.5-1.5ZM29 8v3H3V8h26ZM3 24v-8h26v8H3Z"/>
    <path class="uuid-f0859990-5fa5-4b02-ae9a-63d6246f75c3" d="M16 19H7a1 1 0 0 0 0 2h9a1 1 0 0 0 0-2Z"/>
  </g>
</svg>
