<?xml version="1.0" encoding="UTF-8"?><svg xmlns="http://www.w3.org/2000/svg" viewBox="0 0 32 32"><defs><style>.uuid-e2c1a08a-84b1-4987-8df2-698f02412eca{fill:none;}.uuid-e2c1a08a-84b1-4987-8df2-698f02412eca,.uuid-bed2f103-5af2-4721-bae9-c488850c2252{stroke-width:0px;}.uuid-bed2f103-5af2-4721-bae9-c488850c2252{fill:#151515;}</style></defs><g id="uuid-3171c22d-702a-4815-b946-969217e595a0"><rect class="uuid-e2c1a08a-84b1-4987-8df2-698f02412eca" width="32" height="32"/></g><g id="uuid-e7de2fd9-3ef4-402a-afa8-c40d40d93e19"><path class="uuid-bed2f103-5af2-4721-bae9-c488850c2252" d="M31,10v-2.5c0-.8271-.6729-1.5-1.5-1.5H2.5c-.8271,0-1.5.6729-1.5,1.5v2.5h30Z"/><path class="uuid-bed2f103-5af2-4721-bae9-c488850c2252" d="M1,14v10.5c0,.8271.6729,1.5,1.5,1.5h27c.8271,0,1.5-.6729,1.5-1.5v-10.5H1ZM16,21.125H7c-.6211,0-1.125-.5039-1.125-1.125s.5039-1.125,1.125-1.125h9c.6211,0,1.125.5039,1.125,1.125s-.5039,1.125-1.125,1.125Z"/></g></svg>