<?xml version="1.0" encoding="UTF-8"?><svg xmlns="http://www.w3.org/2000/svg" viewBox="0 0 32 32"><defs><style>.uuid-987054d4-9b65-48b8-9c42-649f51cfea99{fill:none;}.uuid-987054d4-9b65-48b8-9c42-649f51cfea99,.uuid-f0859990-5fa5-4b02-ae9a-63d6246f75c3{stroke-width:0px;}.uuid-f0859990-5fa5-4b02-ae9a-63d6246f75c3{fill:#151515;}</style></defs><g id="uuid-ddba8ca0-7810-4d6e-8dea-e559e3a1aa16"><rect class="uuid-987054d4-9b65-48b8-9c42-649f51cfea99" x="0" width="32" height="32"/></g><g id="uuid-6c580e2d-f93e-42cd-bd00-439702362353"><path class="uuid-f0859990-5fa5-4b02-ae9a-63d6246f75c3" d="M29.5,6H2.5c-.8271,0-1.5.6729-1.5,1.5v17c0,.8271.6729,1.5,1.5,1.5h27c.8271,0,1.5-.6729,1.5-1.5V7.5c0-.8271-.6729-1.5-1.5-1.5ZM29,8v3H3v-3h26ZM3,24v-8h26v8H3Z"/><path class="uuid-f0859990-5fa5-4b02-ae9a-63d6246f75c3" d="M16,19H7c-.5522,0-1,.4478-1,1s.4478,1,1,1h9c.5522,0,1-.4478,1-1s-.4478-1-1-1Z"/></g></svg>