<?xml version="1.0" encoding="UTF-8"?><svg xmlns="http://www.w3.org/2000/svg" width="32" height="32" viewBox="0 0 32 32"><defs><style>.uuid-7e14809b-40e0-4d11-8ee6-b8c218a5b42b{fill:none;}.uuid-1bc54192-ad76-4f8e-9b7d-cf5f36b1ce31{fill:#151515;}</style></defs><g id="uuid-10a25ce0-a089-46ed-bc23-83e4bf0f81ff"><rect class="uuid-7e14809b-40e0-4d11-8ee6-b8c218a5b42b" width="32" height="32"/></g><g id="uuid-8f4265f8-45f6-46c8-b841-e3fa3a20edc9"><path class="uuid-1bc54192-ad76-4f8e-9b7d-cf5f36b1ce31" d="M28.5,10h-3.5V3c0-.4043-.24316-.76953-.61719-.92383-.37402-.15625-.80371-.06934-1.08984.2168l-7.29297,7.29297-7.29297-7.29297c-.28613-.28613-.71484-.37207-1.08984-.2168-.37402.1543-.61719.51953-.61719.92383v7h-3.49316c-.82715,0-1.5.67285-1.5,1.5v17c0,.82715.67285,1.5,1.5,1.5h24.99316c.82715,0,1.5-.67285,1.5-1.5V11.5c0-.82715-.67285-1.5-1.5-1.5ZM23,20.58594l-6,6v-15.17188l6-6v15.17188ZM9,5.41406l6,6v15.17188l-6-6V5.41406ZM4.00684,12h2.99316v9c0,.26562.10547.51953.29297.70703l6.29297,6.29297H4.00684V12ZM28,28h-9.58594l6.29297-6.29297c.1875-.1875.29297-.44141.29297-.70703v-9h3v16Z"/></g></svg>