<?xml version="1.0" encoding="UTF-8"?><svg xmlns="http://www.w3.org/2000/svg" width="32" height="32" viewBox="0 0 32 32"><defs><style>.uuid-533940ec-7096-460e-8c31-f54c40d72bb4{fill:none;}.uuid-04bddb23-2697-4c45-ba10-fa258f62f9c6{fill:#151515;}</style></defs><g id="uuid-e36f83f1-2f12-4b7f-95aa-966e7dcbf09f"><rect class="uuid-533940ec-7096-460e-8c31-f54c40d72bb4" width="32" height="32"/></g><g id="uuid-e0d121e2-2f2e-46ff-99c7-86e65bbd1a0a"><path class="uuid-04bddb23-2697-4c45-ba10-fa258f62f9c6" d="M26.20801,16.72168l-7.20801-1.53125v-5.19043c0-1.6543-1.3457-3-3-3-.81152,0-1.56641.31641-2.10742.87305-.57617.56055-.89258,1.31543-.89258,2.12695v7.58594l-.79297-.79297c-1.2168-1.2168-3.19727-1.2168-4.41406,0-.58887.58887-.91309,1.37207-.91309,2.20703s.32422,1.61816.91309,2.20703l1.2168,1.21777c.11133,2.32324,1.13086,4.54102,2.83496,6.13867,1.68652,1.58203,3.85059,2.43457,6.14746,2.43457.19922,0,.40039-.00684.60156-.01953,4.71387-.2998,8.40625-4.3623,8.40625-9.24805v-4.03027c0-.47266-.33008-.87988-.79199-.97852ZM25,21.73047c0,3.83301-2.87012,7.01855-6.53418,7.25195-1.97168.12402-3.82715-.54102-5.25391-1.87793-1.42578-1.33789-2.21191-3.15039-2.21191-5.10449,0-.26562-.10547-.51953-.29297-.70703l-1.5-1.5c-.27051-.27051-.32715-.58008-.32715-.79297s.05664-.52246.32715-.79297c.21289-.21289.49414-.3291.79297-.3291s.58008.11621.79297.3291l2.5,2.5c.28711.28711.7168.37402,1.08984.2168.37402-.1543.61719-.51953.61719-.92383v-10c0-.2666.10254-.51367.30664-.71289.17969-.18457.42676-.28711.69336-.28711.55176,0,1,.44824,1,1v6c0,.47168.33008.87988.79199.97852l7.20801,1.53125v3.2207Z"/><path class="uuid-04bddb23-2697-4c45-ba10-fa258f62f9c6" d="M28.5,2H3.5c-.82715,0-1.5.67285-1.5,1.5v5c0,.82715.67285,1.5,1.5,1.5h5.5c.55273,0,1-.44727,1-1s-.44727-1-1-1h-5v-4h24v4h-5c-.55273,0-1,.44727-1,1s.44727,1,1,1h5.5c.82715,0,1.5-.67285,1.5-1.5V3.5c0-.82715-.67285-1.5-1.5-1.5Z"/><path class="uuid-04bddb23-2697-4c45-ba10-fa258f62f9c6" d="M29,12h-6c-.55273,0-1,.44727-1,1s.44727,1,1,1h6c.55273,0,1-.44727,1-1s-.44727-1-1-1Z"/><path class="uuid-04bddb23-2697-4c45-ba10-fa258f62f9c6" d="M10,13c0-.55273-.44727-1-1-1H3.5c-.82715,0-1.5.67285-1.5,1.5v5.5c0,.55273.44727,1,1,1s1-.44727,1-1v-5h5c.55273,0,1-.44727,1-1Z"/></g></svg>