<?xml version="1.0" encoding="UTF-8"?><svg xmlns="http://www.w3.org/2000/svg" width="32" height="32" viewBox="0 0 32 32"><defs><style>.uuid-6be73f1d-d032-4a40-8b6b-9605553b1bd6{fill:none;}.uuid-9c16ec61-184b-459b-9fee-20f52ccb9d57{fill:#151515;}</style></defs><g id="uuid-396a7927-c5c0-437c-9c8d-749c4ad5da7c"><rect class="uuid-6be73f1d-d032-4a40-8b6b-9605553b1bd6" width="32" height="32"/></g><g id="uuid-3ba14356-ae8f-4a54-86aa-54d34905c526"><path class="uuid-9c16ec61-184b-459b-9fee-20f52ccb9d57" d="M6,21v-11h-2.49316c-.82715,0-1.5.67285-1.5,1.5v17c0,.82715.67285,1.5,1.5,1.5h10.66479l-7.58582-7.58582c-.37512-.37506-.58582-.88373-.58582-1.41418Z"/><path class="uuid-9c16ec61-184b-459b-9fee-20f52ccb9d57" d="M28.5,10h-2.5v11c0,.53046-.21069,1.03912-.58575,1.41418l-7.58582,7.58582h10.67157c.82715,0,1.5-.67285,1.5-1.5V11.5c0-.82715-.67285-1.5-1.5-1.5Z"/><path class="uuid-9c16ec61-184b-459b-9fee-20f52ccb9d57" d="M8.07322,21.07322l6.5,6.5c.15749.15749.42678.04595.42678-.17678V10.10355c0-.0663-.02634-.12989-.07322-.17678l-6.5-6.5c-.15749-.15749-.42678-.04595-.42678.17678v17.29289c0,.0663.02634.12989.07322.17678Z"/><path class="uuid-9c16ec61-184b-459b-9fee-20f52ccb9d57" d="M23.57322,3.42678l-6.5,6.5c-.04688.04688-.07322.11047-.07322.17678v17.29289c0,.22273.26929.33427.42678.17678l6.5-6.5c.04688-.04688.07322-.11047.07322-.17678V3.60355c0-.22273-.26929-.33427-.42678-.17678Z"/></g></svg>