<?xml version="1.0" encoding="UTF-8"?><svg xmlns="http://www.w3.org/2000/svg" width="32" height="32" viewBox="0 0 32 32"><defs><style>.uuid-160d7364-c45a-4660-9713-90f5365a0528{fill:none;}.uuid-73d27098-a9e7-4188-9133-d198f4b09bcf{fill:#151515;}</style></defs><g id="uuid-4b78ac31-b6ea-47cf-8959-84875d054473"><rect class="uuid-160d7364-c45a-4660-9713-90f5365a0528" width="32" height="32"/></g><g id="uuid-041d32bb-01fa-40f7-bc39-965e9b406886"><path class="uuid-73d27098-a9e7-4188-9133-d198f4b09bcf" d="M25.80194,17.6579l-7.80194-1.6579v-5.888c0-1.0567-.77032-2.01508-1.82324-2.10449-.61896-.05255-1.18854.17316-1.58673.58246-.37006.36005-.59003.86005-.59003,1.41003v9.39642c0,.22272-.26929.33429-.42676.17676l-1.99176-1.9917c-.80859-.80865-2.13849-.92914-2.99103-.16699-.48175.43066-.71045,1.00806-.71045,1.58551,0,.53998.20001,1.07996.62,1.5l1.5,1.5c0,4.58997,3.87,8.27997,8.53003,7.97998,4.25-.27002,7.46997-3.98999,7.46997-8.25v-3.82751c0-.11804-.08258-.22003-.19806-.24457Z"/><path class="uuid-73d27098-a9e7-4188-9133-d198f4b09bcf" d="M28.5,2H3.5c-.82715,0-1.5.67285-1.5,1.5v5c0,.82715.67285,1.5,1.5,1.5h5.5c.55273,0,1-.44727,1-1s-.44727-1-1-1h-5v-4h24v4h-5c-.55273,0-1,.44727-1,1s.44727,1,1,1h5.5c.82715,0,1.5-.67285,1.5-1.5V3.5c0-.82715-.67285-1.5-1.5-1.5Z"/><path class="uuid-73d27098-a9e7-4188-9133-d198f4b09bcf" d="M29,12h-6c-.55273,0-1,.44727-1,1s.44727,1,1,1h6c.55273,0,1-.44727,1-1s-.44727-1-1-1Z"/><path class="uuid-73d27098-a9e7-4188-9133-d198f4b09bcf" d="M10,13c0-.55273-.44727-1-1-1H3.5c-.82715,0-1.5.67285-1.5,1.5v5.5c0,.55273.44727,1,1,1s1-.44727,1-1v-5h5c.55273,0,1-.44727,1-1Z"/></g></svg>