<?xml version="1.0" encoding="UTF-8"?><svg xmlns="http://www.w3.org/2000/svg" width="32" height="32" viewBox="0 0 32 32"><defs><style>.uuid-fc5f504b-a540-4e64-8a01-89fea3355a86{fill:none;}.uuid-a58ee1e5-273d-4b34-b0d1-756f34d37131{fill:#151515;}</style></defs><g id="uuid-fab2e29c-12d5-4db9-b1d9-7459ccc75269"><rect class="uuid-fc5f504b-a540-4e64-8a01-89fea3355a86" width="32" height="32"/></g><g id="uuid-bf466eae-6896-4196-b1fd-f20550837054"><path class="uuid-a58ee1e5-273d-4b34-b0d1-756f34d37131" d="M16,1C7.729,1,1,7.729,1,16s6.729,15,15,15,15-6.729,15-15S24.271,1,16,1ZM16,29c-7.16846,0-13-5.83154-13-13S8.83154,3,16,3s13,5.83154,13,13-5.83154,13-13,13Z"/><path class="uuid-a58ee1e5-273d-4b34-b0d1-756f34d37131" d="M22.29297,11.29297l-8.29297,8.29297-4.29297-4.29297c-.39062-.39062-1.02344-.39062-1.41406,0s-.39062,1.02344,0,1.41406l4.64648,4.64648c.29248.29248.67627.43848,1.06055.43848s.76807-.146,1.06055-.43848l8.64648-8.64648c.39062-.39062.39062-1.02344,0-1.41406s-1.02344-.39062-1.41406,0Z"/></g></svg>