<?xml version="1.0" encoding="UTF-8"?><svg xmlns="http://www.w3.org/2000/svg" viewBox="0 0 32 32"><defs><style>.uuid-6dd9221c-a4eb-4cc5-994c-69a545114f94{fill:none;}.uuid-6dd9221c-a4eb-4cc5-994c-69a545114f94,.uuid-de0a4e54-90b9-4e94-be51-6f745bfbd952{stroke-width:0px;}.uuid-de0a4e54-90b9-4e94-be51-6f745bfbd952{fill:#151515;}</style></defs><g id="uuid-33f96857-f027-48f0-aca2-eb9b4c84b596"><rect class="uuid-6dd9221c-a4eb-4cc5-994c-69a545114f94" x="0" width="32" height="32"/></g><g id="uuid-9c5b8380-55fe-4ca3-8590-28758e7fde10"><path class="uuid-de0a4e54-90b9-4e94-be51-6f745bfbd952" d="M16,0C7.1777,0,0,7.1777,0,16s7.1777,16,16,16,16-7.1777,16-16S24.8223,0,16,0ZM23.7954,12.7959l-8.6465,8.6465c-.3169.3164-.7329.4746-1.1489.4746s-.832-.1582-1.1489-.4746l-4.6465-4.6465c-.4395-.4395-.4395-1.1523,0-1.5918s1.1514-.4395,1.5908,0l4.2046,4.2051,8.2046-8.2051c.4395-.4395,1.1514-.4395,1.5908,0s.4395,1.1523,0,1.5918Z"/></g></svg>