<?xml version="1.0" encoding="UTF-8"?><svg xmlns="http://www.w3.org/2000/svg" width="32" height="32" viewBox="0 0 32 32"><defs><style>.uuid-e5266ea5-ffeb-48e5-af2e-af249b093e1a{fill:none;}.uuid-8c723ef6-b29d-4793-8f37-09f454f8c1bd{fill:#151515;}</style></defs><g id="uuid-90728099-ecd1-4a0c-b2f1-fb7b7c1ce93e"><rect class="uuid-e5266ea5-ffeb-48e5-af2e-af249b093e1a" width="32" height="32"/></g><g id="uuid-b60c9e84-521d-4925-86b0-36bbb587a52d"><path class="uuid-8c723ef6-b29d-4793-8f37-09f454f8c1bd" d="M25.5,6h-2.5v-.5c0-.82715-.67285-1.5-1.5-1.5h-1.62646c-.44531-1.72363-2.01318-3-3.87354-3s-3.42822,1.27637-3.87354,3h-1.62646c-.82715,0-1.5.67285-1.5,1.5v.5h-2.5c-.82715,0-1.5.67285-1.5,1.5v22c0,.82715.67285,1.5,1.5,1.5h19c.82715,0,1.5-.67285,1.5-1.5V7.5c0-.82715-.67285-1.5-1.5-1.5ZM11,7v-1h2c.55225,0,1-.44727,1-1,0-1.10254.89697-2,2-2s2,.89746,2,2c0,.55273.44775,1,1,1h2v2h-10v-1ZM22.79541,15.7959l-7.64648,7.64648c-.31689.31641-.73291.47461-1.14893.47461s-.83203-.1582-1.14893-.47461l-3.64648-3.64648c-.43945-.43945-.43945-1.15234,0-1.5918s1.15137-.43945,1.59082,0l3.20459,3.20508,7.20459-7.20508c.43945-.43945,1.15137-.43945,1.59082,0s.43945,1.15234,0,1.5918Z"/></g></svg>