<?xml version="1.0" encoding="UTF-8"?><svg xmlns="http://www.w3.org/2000/svg" width="32" height="32" viewBox="0 0 32 32"><defs><style>.uuid-82f5a2e9-c807-4156-9ec5-b8446dce8b95{fill:none;}.uuid-63b19770-8b36-4e78-a3e1-a82343cca771{fill:#151515;}</style></defs><g id="uuid-4bf7ec60-b4ba-4bf1-85de-87c1b562f802"><rect class="uuid-82f5a2e9-c807-4156-9ec5-b8446dce8b95" width="32" height="32"/></g><g id="uuid-aeb4c7bb-f5ac-4ca1-a351-3579a86b07d3"><path class="uuid-63b19770-8b36-4e78-a3e1-a82343cca771" d="M21.29297,14.29297l-7.29297,7.29297-3.29297-3.29297c-.39062-.39062-1.02344-.39062-1.41406,0s-.39062,1.02344,0,1.41406l3.64648,3.64648c.29248.29297.67627.43848,1.06055.43848s.76807-.14551,1.06055-.43848l7.64648-7.64648c.39062-.39062.39062-1.02344,0-1.41406s-1.02344-.39062-1.41406,0Z"/><path class="uuid-63b19770-8b36-4e78-a3e1-a82343cca771" d="M25.5,6h-2.5v-.5c0-.82715-.67285-1.5-1.5-1.5h-1.62646c-.44531-1.72363-2.01318-3-3.87354-3s-3.42822,1.27637-3.87354,3h-1.62646c-.82715,0-1.5.67285-1.5,1.5v.5h-2.5c-.82715,0-1.5.67285-1.5,1.5v22c0,.82715.67285,1.5,1.5,1.5h19c.82715,0,1.5-.67285,1.5-1.5V7.5c0-.82715-.67285-1.5-1.5-1.5ZM11,6h2c.55225,0,1-.44727,1-1,0-1.10254.89697-2,2-2s2,.89746,2,2c0,.55273.44775,1,1,1h2v2h-10v-2ZM25,29H7V8h2v.5c0,.82715.67285,1.5,1.5,1.5h11c.82715,0,1.5-.67285,1.5-1.5v-.5h2v21Z"/></g></svg>