<?xml version="1.0" encoding="UTF-8"?><svg xmlns="http://www.w3.org/2000/svg" viewBox="0 0 32 32"><defs><style>.uuid-b30d0114-c877-499d-a11c-3693a7bc6e38{fill:none;}.uuid-b30d0114-c877-499d-a11c-3693a7bc6e38,.uuid-eef4cab0-5cac-4ce7-974f-309a9d9d83f9{stroke-width:0px;}.uuid-eef4cab0-5cac-4ce7-974f-309a9d9d83f9{fill:#151515;}</style></defs><g id="uuid-77487cef-3b77-45c6-ab9e-072bd3bd7e5a"><rect class="uuid-b30d0114-c877-499d-a11c-3693a7bc6e38" x="0" width="32" height="32"/></g><g id="uuid-fcdeb42a-5636-4f65-94a7-25ce4294628a"><path class="uuid-eef4cab0-5cac-4ce7-974f-309a9d9d83f9" d="M32,18c0-2.7568-2.2432-5-5-5s-5,2.2432-5,5c0,2.3956,1.6955,4.3991,3.9483,4.8842-.4418,3.9962-3.8363,7.1158-7.9483,7.1158-4.4111,0-8-3.5889-8-8v-1.0587c1.9227-.2098,3.713-1.0232,5.1543-2.3744,1.8086-1.6953,2.8457-4.0889,2.8457-6.5669V2.5c0-.8271-.6729-1.5-1.5-1.5h-3.5c-.5522,0-1,.4478-1,1s.4478,1,1,1h3v9c0,1.9556-.7861,3.77-2.2139,5.1079-1.4258,1.3379-3.2954,2.002-5.2544,1.877-3.6626-.2373-6.5317-3.4258-6.5317-7.2588V3h3c.5522,0,1-.4478,1-1s-.4478-1-1-1H1.5c-.8271,0-1.5.6729-1.5,1.5v9.2261c0,4.743,3.4838,8.7032,8,9.2084v1.0656c0,5.5142,4.4858,10,10,10,5.2092,0,9.4954-4.0048,9.9542-9.0965,2.3013-.4473,4.0458-2.4734,4.0458-4.9035ZM27,21c-1.6543,0-3-1.3457-3-3s1.3457-3,3-3,3,1.3457,3,3-1.3457,3-3,3Z"/></g></svg>