<?xml version="1.0" encoding="UTF-8"?><svg xmlns="http://www.w3.org/2000/svg" viewBox="0 0 32 32"><defs><style>.uuid-d2ebac8f-6073-44b0-9aee-010c126927c6{fill:none;}.uuid-d2ebac8f-6073-44b0-9aee-010c126927c6,.uuid-a1c6a860-5334-47ff-be3b-4d90b9acbad2{stroke-width:0px;}.uuid-a1c6a860-5334-47ff-be3b-4d90b9acbad2{fill:#151515;}</style></defs><g id="uuid-e011635f-5d29-42e8-aae9-20d3ac720def"><rect class="uuid-d2ebac8f-6073-44b0-9aee-010c126927c6" x="0" width="32" height="32"/></g><g id="uuid-04e67619-e733-4f95-8cd8-0e70b73639b6"><path class="uuid-a1c6a860-5334-47ff-be3b-4d90b9acbad2" d="M31.75,18c0-2.6191-2.1309-4.75-4.75-4.75s-4.75,2.1309-4.75,4.75c0,2.2639,1.5948,4.1562,3.7181,4.6297-.3231,4.117-3.7695,7.3703-7.9681,7.3703-4.4111,0-8-3.5889-8-8v-1.0591c1.9225-.2096,3.7128-1.0226,5.1538-2.3735,1.8091-1.6953,2.8462-4.0889,2.8462-6.5674V2.5c0-.8271-.6729-1.5-1.5-1.5h-3.5c-.5522,0-1,.4473-1,1s.4478,1,1,1h3v9c0,1.9561-.7861,3.7695-2.2139,5.1084-1.4263,1.3369-3.2896,2.0088-5.2544,1.876-3.6626-.2373-6.5317-3.4258-6.5317-7.2588V3h3c.5522,0,1-.4473,1-1s-.4478-1-1-1H1.5c-.8271,0-1.5.6729-1.5,1.5v9.2256c0,4.7435,3.4838,8.7029,8,9.2083v1.0661c0,5.5137,4.4858,10,10,10,5.2948,0,9.6296-4.1395,9.9671-9.3501,2.1568-.4481,3.7829-2.3622,3.7829-4.6499Z"/></g></svg>