<?xml version="1.0" encoding="UTF-8"?><svg xmlns="http://www.w3.org/2000/svg" width="32" height="32" viewBox="0 0 32 32"><defs><style>.uuid-af070f4b-bc8c-4e1c-b147-bedf8941a80a{fill:none;}.uuid-2f8b831a-d5b6-42e1-a46e-ef687b003be5{fill:#151515;}</style></defs><g id="uuid-cf48ebc4-41bf-4ad8-9e99-10a022e36015"><rect class="uuid-af070f4b-bc8c-4e1c-b147-bedf8941a80a" width="32" height="32"/></g><g id="uuid-e40dbd67-5094-4969-a1a9-dd52318ae3e4"><path class="uuid-2f8b831a-d5b6-42e1-a46e-ef687b003be5" d="M16,1C7.729,1,1,7.729,1,16s6.729,15,15,15,15-6.729,15-15S24.271,1,16,1ZM23.79541,12.79541l-8.64648,8.64648c-.31689.31689-.73291.4751-1.14893.4751s-.83203-.1582-1.14893-.4751l-4.64648-4.64648c-.43945-.43945-.43945-1.15137,0-1.59082s1.15137-.43945,1.59082,0l4.20459,4.20459,8.20459-8.20459c.43945-.43945,1.15137-.43945,1.59082,0s.43945,1.15137,0,1.59082Z"/></g></svg>