<?xml version="1.0" encoding="UTF-8"?><svg xmlns="http://www.w3.org/2000/svg" width="32" height="32" viewBox="0 0 32 32"><defs><style>.uuid-8215d7c6-d255-4df8-a22c-208caf566637{fill:none;}.uuid-83788d64-ea64-47dd-bc28-6ae6e30245d8{fill:#151515;}</style></defs><g id="uuid-6a7c0f62-5e5a-43be-b709-6b039b5cafa8"><rect class="uuid-8215d7c6-d255-4df8-a22c-208caf566637" width="32" height="32"/></g><g id="uuid-d544bb46-f517-458a-b1d6-1a0cad7588a9"><path class="uuid-83788d64-ea64-47dd-bc28-6ae6e30245d8" d="M31,18c0-2.75684-2.24316-5-5-5s-5,2.24316-5,5c0,2.39191,1.69067,4.39209,3.93835,4.88104-.43549,3.44458-3.3775,6.11896-6.93835,6.11896-3.85986,0-7-3.14014-7-7v-1.06946c3.93994-.49463,7-3.85876,7-7.93054V3.5c0-.82715-.67285-1.5-1.5-1.5h-2.5c-.55225,0-1,.44775-1,1s.44775,1,1,1h2v9c0,3.30859-2.69141,6-6,6s-6-2.69141-6-6V4h2c.55225,0,1-.44775,1-1s-.44775-1-1-1h-2.5c-.82715,0-1.5.67285-1.5,1.5v9.5c0,4.07178,3.06006,7.43591,7,7.93054v1.06946c0,4.9624,4.0376,9,9,9,4.65741,0,8.49945-3.55682,8.95422-8.0965,2.30139-.44733,4.04578-2.47339,4.04578-4.9035Z"/></g></svg>