<?xml version="1.0" encoding="UTF-8"?><svg xmlns="http://www.w3.org/2000/svg" viewBox="0 0 32 32"><defs><style>.uuid-927c6ab6-e365-4109-97d3-ae964d5c5bd4{fill:none;}.uuid-927c6ab6-e365-4109-97d3-ae964d5c5bd4,.uuid-f0b27ab1-e1e6-4c8e-936d-9412c65becb9{stroke-width:0px;}.uuid-f0b27ab1-e1e6-4c8e-936d-9412c65becb9{fill:#151515;}</style></defs><g id="uuid-90182709-4dcc-428a-9898-0d427219ba00"><rect class="uuid-927c6ab6-e365-4109-97d3-ae964d5c5bd4" x="0" width="32" height="32"/></g><g id="uuid-157690ab-1826-41a6-9ecf-16e5ccc3c20a"><path class="uuid-f0b27ab1-e1e6-4c8e-936d-9412c65becb9" d="M29.5,8c.8271,0,1.5-.6729,1.5-1.5V2.5c0-.8271-.6729-1.5-1.5-1.5H2.5c-.8271,0-1.5.6729-1.5,1.5v27c0,.8271.6729,1.5,1.5,1.5h27c.8271,0,1.5-.6729,1.5-1.5V12.5c0-.8271-.6729-1.5-1.5-1.5h-1.5v-3h1.5ZM27.5,13h1.5v16h-11v-3.5859l2.707-2.707c.1875-.1875.293-.4419.293-.707v-4.142c1.7203-.4473,3-1.9997,3-3.858,0-2.2056-1.7944-4-4-4s-4,1.7944-4,4c0,1.8583,1.2797,3.4107,3,3.858v3.728l-2.707,2.707c-.1875.1875-.293.4419-.293.707v4H3V3h9v3.5859l-2.707,2.707c-.1875.1875-.293.4419-.293.707v7.142c-1.7203.4473-3,1.9997-3,3.858,0,2.2056,1.7944,4,4,4s4-1.7944,4-4c0-1.8583-1.2797-3.4107-3-3.858v-6.728l2.707-2.707c.1875-.1875.293-.4419.293-.707V3h15v3h-1.5c-.8271,0-1.5.6729-1.5,1.5v4c0,.8271.6729,1.5,1.5,1.5ZM20,16c-1.103,0-2-.897-2-2s.897-2,2-2,2,.897,2,2-.897,2-2,2ZM10,19c1.103,0,2,.897,2,2s-.897,2-2,2-2-.897-2-2,.897-2,2-2Z"/></g></svg>