<?xml version="1.0" encoding="UTF-8"?><svg xmlns="http://www.w3.org/2000/svg" width="32" height="32" viewBox="0 0 32 32"><defs><style>.uuid-cd3a921f-620a-4199-a394-e90f0e1eaad7{fill:none;}.uuid-be2f317d-c5e6-4fd0-8a16-d1110808ff8d{fill:#151515;}</style></defs><g id="uuid-6da15bd5-3af9-4329-acb4-87e512f94588"><rect class="uuid-cd3a921f-620a-4199-a394-e90f0e1eaad7" width="32" height="32"/></g><g id="uuid-d8570cdd-081f-4bca-acf1-1512aa562eac"><path class="uuid-be2f317d-c5e6-4fd0-8a16-d1110808ff8d" d="M28.5,6.875c.7583,0,1.375-.6167,1.375-1.375v-2c0-.7583-.6167-1.375-1.375-1.375h-14.375v5.875c0,.29834-.11865.58447-.32959.79541l-2.67041,2.67041v4.75732c1.0976.44629,1.875,1.52081,1.875,2.77686,0,1.6543-1.3457,3-3,3s-3-1.3457-3-3c0-1.25604.7774-2.33057,1.875-2.77686v-5.22314c0-.29834.11865-.58447.32959-.79541l2.67041-2.67041V2.125H3.5c-.7583,0-1.375.6167-1.375,1.375v25c0,.7583.6167,1.375,1.375,1.375h12.375v-5.875c0-.29834.11865-.58447.32959-.79541l2.67041-2.67041v-3.75739c-1.0976-.44629-1.875-1.52075-1.875-2.77679,0-1.6543,1.3457-3,3-3s3,1.3457,3,3c0,1.25604-.7774,2.33057-1.875,2.77686v4.22314c0,.29834-.11865.58447-.32959.79541l-2.67041,2.67041v5.40918h10.375c.7583,0,1.375-.6167,1.375-1.375v-15c0-.7583-.6167-1.375-1.375-1.375h-1.625v-5.25h1.625Z"/></g></svg>