<svg xmlns="http://www.w3.org/2000/svg" viewBox="0 0 32 32">
  <defs>
    <style>
      .uuid-e18bd76c-eceb-43f0-95ae-89f85209acca{stroke-width:0;fill:#151515}
    </style>
  </defs>
  <path d="M0 0h32v32H0z" id="uuid-61fcba50-3b7b-4d64-a04c-453e2ca6785e" stroke-width="0" fill="none"/>
  <g id="uuid-96945837-dc3a-430b-bd0f-72c1597b4f91">
    <path class="uuid-e18bd76c-eceb-43f0-95ae-89f85209acca" d="M29.5 7c.827 0 1.5-.673 1.5-1.5v-3c0-.827-.673-1.5-1.5-1.5H13.125v6c0 .299-.119.585-.33.796l-2.67 2.67v6.715C11.781 17.67 13 19.187 13 21c0 2.206-1.794 4-4 4s-4-1.794-4-4c0-1.813 1.22-3.33 2.875-3.82V10c0-.299.119-.585.33-.796l2.67-2.67V1H2.5C1.673 1 1 1.673 1 2.5v27c0 .827.673 1.5 1.5 1.5h13.375v-6c0-.299.119-.585.33-.796l2.67-2.67V17.82C17.219 17.33 16 15.813 16 14c0-2.206 1.794-4 4-4s4 1.794 4 4c0 1.813-1.22 3.33-2.875 3.82V22c0 .299-.119.585-.33.796l-2.67 2.67V31H29.5c.827 0 1.5-.673 1.5-1.5v-16c0-.827-.673-1.5-1.5-1.5H28V7h1.5Z"/>
    <circle class="uuid-e18bd76c-eceb-43f0-95ae-89f85209acca" cx="20" cy="14" r="2"/>
    <circle class="uuid-e18bd76c-eceb-43f0-95ae-89f85209acca" cx="9" cy="21" r="2"/>
  </g>
</svg>
