<?xml version="1.0" encoding="UTF-8"?><svg xmlns="http://www.w3.org/2000/svg" width="32" height="32" viewBox="0 0 32 32"><defs><style>.uuid-b49ddb12-b56e-4bdd-99bc-9b4fdbe7df76{fill:none;}.uuid-097656d5-b35f-45b6-83b1-826b81da7429{fill:#151515;}</style></defs><g id="uuid-f90584ac-6290-4987-b75d-9f867c10b0bb"><rect class="uuid-b49ddb12-b56e-4bdd-99bc-9b4fdbe7df76" width="32" height="32"/></g><g id="uuid-eb524e13-4aa8-42c5-a581-ab131c72e24f"><path class="uuid-097656d5-b35f-45b6-83b1-826b81da7429" d="M3,2c-.55225,0-1,.44727-1,1v26c0,.55273.44775,1,1,1s1-.44727,1-1V3c0-.55273-.44775-1-1-1Z"/><path class="uuid-097656d5-b35f-45b6-83b1-826b81da7429" d="M29,2c-.55225,0-1,.44727-1,1v12H9c-.55225,0-1,.44727-1,1s.44775,1,1,1h19v12c0,.55273.44775,1,1,1s1-.44727,1-1V3c0-.55273-.44775-1-1-1Z"/></g></svg>