<?xml version="1.0" encoding="UTF-8"?><svg xmlns="http://www.w3.org/2000/svg" width="32" height="32" viewBox="0 0 32 32"><defs><style>.uuid-0bff3367-75f4-415d-be9d-04ae90942f1b{fill:none;}.uuid-3726a905-a58b-42ae-beea-ea49dee87cf5{fill:#151515;}</style></defs><g id="uuid-9fe3746b-3626-47da-90e0-e378a41c3d7f"><rect class="uuid-0bff3367-75f4-415d-be9d-04ae90942f1b" width="32" height="32"/></g><g id="uuid-056dad85-cc6b-4913-ad0f-fb783a5b69fb"><path class="uuid-3726a905-a58b-42ae-beea-ea49dee87cf5" d="M25.5,6h-2.5v-.5c0-.82715-.67285-1.5-1.5-1.5h-1.62646c-.44531-1.72363-2.01318-3-3.87354-3s-3.42822,1.27637-3.87354,3h-1.62646c-.82715,0-1.5.67285-1.5,1.5v.5h-2.5c-.82715,0-1.5.67285-1.5,1.5v22c0,.82715.67285,1.5,1.5,1.5h19c.82715,0,1.5-.67285,1.5-1.5V7.5c0-.82715-.67285-1.5-1.5-1.5ZM11,6h2c.55225,0,1-.44727,1-1,0-1.10254.89697-2,2-2s2,.89746,2,2c0,.55273.44775,1,1,1h2v2h-10v-2ZM25,29H7V8h2v.5c0,.82715.67285,1.5,1.5,1.5h11c.82715,0,1.5-.67285,1.5-1.5v-.5h2v21Z"/></g></svg>