<?xml version="1.0" encoding="UTF-8"?><svg xmlns="http://www.w3.org/2000/svg" width="32" height="32" viewBox="0 0 32 32"><defs><style>.uuid-e743dab4-731c-4fe9-848b-37abb492ae19{fill:none;}.uuid-19bfb7a4-207d-49be-93a3-f30d2404d1e1{fill:#151515;}</style></defs><g id="uuid-79b0fa57-c8c8-4413-b2a3-b5890b337e22"><rect class="uuid-e743dab4-731c-4fe9-848b-37abb492ae19" width="32" height="32"/></g><g id="uuid-6b55440a-9d9c-45f2-85f7-3d3bb4a7b9e4"><path class="uuid-19bfb7a4-207d-49be-93a3-f30d2404d1e1" d="M25.5,6h-2.5v-.5c0-.82715-.67285-1.5-1.5-1.5h-1.62646c-.44531-1.72363-2.01318-3-3.87354-3s-3.42822,1.27637-3.87354,3h-1.62646c-.82715,0-1.5.67285-1.5,1.5v.5h-2.5c-.82715,0-1.5.67285-1.5,1.5v22c0,.82715.67285,1.5,1.5,1.5h19c.82715,0,1.5-.67285,1.5-1.5V7.5c0-.82715-.67285-1.5-1.5-1.5ZM11,6h2c.55225,0,1-.44727,1-1,0-1.10254.89697-2,2-2s2,.89746,2,2c0,.55273.44775,1,1,1h2v2h-10v-2Z"/></g></svg>