<svg xmlns="http://www.w3.org/2000/svg" viewBox="0 0 32 32">
  <defs>
    <style>
      .uuid-88438b58-0e41-463d-b64d-bbe94252e23c{stroke-width:0;fill:#151515}
    </style>
  </defs>
  <path d="M0 0h32v32H0z" id="uuid-68d2af0c-2f92-4ec2-ac45-0bd5c90f0730" stroke-width="0" fill="none"/>
  <g id="uuid-63effb7b-ac5f-4b63-9a6f-6c352c108985">
    <path class="uuid-88438b58-0e41-463d-b64d-bbe94252e23c" d="M16 0C7.178 0 0 7.178 0 16s7.178 16 16 16 16-7.178 16-16S24.822 0 16 0Zm1 29.95V27a1 1 0 0 0-2 0v2.95C8.079 29.456 2.543 23.92 2.05 17H5a1 1 0 0 0 0-2H2.05C2.568 7.747 8.619 2 16 2s13.433 5.747 13.95 13H27a1 1 0 0 0 0 2h2.95c-.494 6.921-6.03 12.457-12.95 12.95Z"/>
    <path class="uuid-88438b58-0e41-463d-b64d-bbe94252e23c" d="M17 15.586V7a1 1 0 0 0-2 0v9a1 1 0 0 0 .293.707l4 4a.997.997 0 0 0 1.414 0 1 1 0 0 0 0-1.414L17 15.586Z"/>
  </g>
</svg>
