<?xml version="1.0" encoding="UTF-8"?><svg xmlns="http://www.w3.org/2000/svg" width="32" height="32" viewBox="0 0 32 32"><defs><style>.uuid-706ff9f4-d9fc-42dc-9f78-cef86a52957d{fill:none;}.uuid-63f5f664-937e-49fe-a094-94d2fbfddca3{fill:#151515;}</style></defs><g id="uuid-5085879e-a7d8-4b35-a2d2-0738eab4add2"><rect class="uuid-706ff9f4-d9fc-42dc-9f78-cef86a52957d" width="32" height="32"/></g><g id="uuid-8323f870-d76b-4cad-b191-7e0419a885d9"><path class="uuid-63f5f664-937e-49fe-a094-94d2fbfddca3" d="M16,1C7.729,1,1,7.729,1,16s6.729,15,15,15,15-6.729,15-15S24.271,1,16,1ZM17,28.94934v-2.94934c0-.55225-.44775-1-1-1s-1,.44775-1,1v2.94934c-6.37036-.4884-11.46094-5.57898-11.94934-11.94934h2.94934c.55225,0,1-.44775,1-1s-.44775-1-1-1h-2.94934c.51379-6.70148,6.11841-12,12.94934-12s12.43555,5.29852,12.94934,12h-2.94934c-.55225,0-1,.44775-1,1s.44775,1,1,1h2.94934c-.4884,6.37036-5.57898,11.46094-11.94934,11.94934Z"/><path class="uuid-63f5f664-937e-49fe-a094-94d2fbfddca3" d="M17,15.58594v-7.58594c0-.55225-.44775-1-1-1s-1,.44775-1,1v8c0,.26514.10547.51953.29297.70703l4,4c.19531.19531.45117.29297.70703.29297s.51172-.09766.70703-.29297c.39062-.39062.39062-1.02344,0-1.41406l-3.70703-3.70703Z"/></g></svg>