<?xml version="1.0" encoding="UTF-8"?><svg xmlns="http://www.w3.org/2000/svg" width="32" height="32" viewBox="0 0 32 32"><defs><style>.uuid-37cca2b9-fdf6-4e38-aeb9-78a51e6d7c3c{fill:none;}.uuid-7019be43-61fa-4c3e-995d-af843f52f81f{fill:#151515;}</style></defs><g id="uuid-17b37d87-19ab-46eb-bd9b-64080d029cf5"><rect class="uuid-37cca2b9-fdf6-4e38-aeb9-78a51e6d7c3c" width="32" height="32"/></g><g id="uuid-97118349-a724-4537-b6e4-27a6c066f8b7"><path class="uuid-7019be43-61fa-4c3e-995d-af843f52f81f" d="M27,17.125c-.62109,0-1.125-.50391-1.125-1.125s.50391-1.125,1.125-1.125h3.94299c-.5791-7.74579-7.0517-13.875-14.94299-13.875S1.63611,7.12921,1.05701,14.875h3.94299c.62109,0,1.125.50391,1.125,1.125s-.50391,1.125-1.125,1.125H1.05701c.55121,7.37305,6.44495,13.26678,13.81799,13.81799v-3.94299c0-.62109.50391-1.125,1.125-1.125s1.125.50391,1.125,1.125v3.94299c7.37305-.55121,13.26678-6.44495,13.81799-13.81799h-3.94299ZM20.79541,20.79541c-.21973.21973-.50732.32959-.79541.32959s-.57568-.10986-.79541-.32959l-4-4c-.21094-.21094-.32959-.49707-.32959-.79541V7c0-.62109.50391-1.125,1.125-1.125s1.125.50391,1.125,1.125v8.53418l3.67041,3.67041c.43945.43945.43945,1.15137,0,1.59082Z"/></g></svg>