<?xml version="1.0" encoding="UTF-8"?><svg xmlns="http://www.w3.org/2000/svg" viewBox="0 0 32 32"><defs><style>.uuid-dda34b2e-280f-4449-aa53-27042eae2ea1{fill:none;}.uuid-dda34b2e-280f-4449-aa53-27042eae2ea1,.uuid-61a23162-e012-4cb4-825a-aca0b5d89f8c{stroke-width:0px;}.uuid-61a23162-e012-4cb4-825a-aca0b5d89f8c{fill:#151515;}</style></defs><g id="uuid-c92cb364-0bce-42b4-829a-6dafa5cd90c0"><rect class="uuid-dda34b2e-280f-4449-aa53-27042eae2ea1" width="32" height="32"/></g><g id="uuid-79b91517-156e-4212-830a-dc8cb9d2f097"><path class="uuid-61a23162-e012-4cb4-825a-aca0b5d89f8c" d="M29,17.25c-.6904,0-1.25-.5596-1.25-1.25s.5596-1.25,1.25-1.25h2.9366C31.295,6.5115,24.4003,0,16,0S.705,6.5115.0634,14.75h2.9366c.6904,0,1.25.5596,1.25,1.25s-.5596,1.25-1.25,1.25H.0634c.6094,7.8246,6.862,14.0772,14.6866,14.6866v-2.9366c0-.6904.5596-1.25,1.25-1.25s1.25.5596,1.25,1.25v2.9366c7.8246-.6094,14.0772-6.862,14.6866-14.6866h-2.9366ZM20.7959,20.7959c-.2197.2197-.5078.3291-.7959.3291s-.5762-.1094-.7959-.3291l-4-4c-.2109-.2109-.3291-.4971-.3291-.7959V7c0-.6211.5039-1.125,1.125-1.125s1.125.5039,1.125,1.125v8.5342l3.6709,3.6699c.4385.4395.4385,1.1523,0,1.5918Z"/></g></svg>