<?xml version="1.0" encoding="UTF-8"?><svg xmlns="http://www.w3.org/2000/svg" width="32" height="32" viewBox="0 0 32 32"><defs><style>.uuid-87cdb594-1ab4-4c52-9e54-460ed3a1d8f2{fill:none;}.uuid-def4e9e9-2e64-4d10-97fb-6ce28fe59bf6{fill:#151515;}</style></defs><g id="uuid-34c381ab-df89-4086-b37e-f21b111058df"><rect class="uuid-87cdb594-1ab4-4c52-9e54-460ed3a1d8f2" width="32" height="32"/></g><g id="uuid-91b049d4-f195-44bf-a121-6cd9e142bac0"><path class="uuid-def4e9e9-2e64-4d10-97fb-6ce28fe59bf6" d="M17.41406,16l11.29297-11.29297c.39062-.39062.39062-1.02344,0-1.41406s-1.02344-.39062-1.41406,0l-11.29297,11.29297L4.70703,3.29297c-.39062-.39062-1.02344-.39062-1.41406,0s-.39062,1.02344,0,1.41406l11.29297,11.29297L3.29297,27.29297c-.39062.39062-.39062,1.02344,0,1.41406.19531.19531.45117.29297.70703.29297s.51172-.09766.70703-.29297l11.29297-11.29297,11.29297,11.29297c.19531.19531.45117.29297.70703.29297s.51172-.09766.70703-.29297c.39062-.39062.39062-1.02344,0-1.41406l-11.29297-11.29297Z"/></g></svg>