<?xml version="1.0" encoding="UTF-8"?><svg xmlns="http://www.w3.org/2000/svg" width="32" height="32" viewBox="0 0 32 32"><defs><style>.uuid-e024001e-4c01-4fde-9e15-9ce6737e63b2{fill:none;}.uuid-7c7ea745-cc0e-4633-a86c-76b97ef5cf5e{fill:#151515;}</style></defs><g id="uuid-11637dab-3f2d-4bb3-84e3-9c2654177b30"><rect class="uuid-e024001e-4c01-4fde-9e15-9ce6737e63b2" width="32" height="32"/></g><g id="uuid-4c72c07c-2973-4365-a5a3-5a031cc83609"><path class="uuid-7c7ea745-cc0e-4633-a86c-76b97ef5cf5e" d="M16,1C7.72852,1,1,7.729,1,16s6.72852,15,15,15,15-6.729,15-15S24.27148,1,16,1ZM22.7959,21.20459c.43848.43945.43848,1.15137,0,1.59082-.21973.21973-.50781.32959-.7959.32959s-.57617-.10986-.7959-.32959l-5.2041-5.2041-5.2041,5.2041c-.21973.21973-.50781.32959-.7959.32959s-.57617-.10986-.7959-.32959c-.43848-.43945-.43848-1.15137,0-1.59082l5.20459-5.20459-5.20459-5.20459c-.43848-.43945-.43848-1.15137,0-1.59082.43945-.43945,1.15234-.43945,1.5918,0l5.2041,5.2041,5.2041-5.2041c.43945-.43945,1.15234-.43945,1.5918,0,.43848.43945.43848,1.15137,0,1.59082l-5.20459,5.20459,5.20459,5.20459Z"/></g></svg>