<?xml version="1.0" encoding="UTF-8"?><svg xmlns="http://www.w3.org/2000/svg" viewBox="0 0 32 32"><defs><style>.uuid-8673c6b7-95a7-43b8-89fd-bb45f7c27c12{fill:none;}.uuid-8673c6b7-95a7-43b8-89fd-bb45f7c27c12,.uuid-552397dc-ca41-4ca3-8765-8bb2fb6a027e{stroke-width:0px;}.uuid-552397dc-ca41-4ca3-8765-8bb2fb6a027e{fill:#151515;}</style></defs><g id="uuid-9121613d-a6f8-4355-bff3-8a4d1aa6d0c7"><rect class="uuid-8673c6b7-95a7-43b8-89fd-bb45f7c27c12" width="32" height="32"/></g><g id="uuid-f68d36ff-0863-4854-a38f-41af3e39f846"><path class="uuid-552397dc-ca41-4ca3-8765-8bb2fb6a027e" d="M16,0C7.1777,0,0,7.1777,0,16s7.1777,16,16,16,16-7.1777,16-16S24.8223,0,16,0ZM21.7959,20.2041c.4385.4395.4385,1.1523,0,1.5918-.2197.2197-.5078.3291-.7959.3291s-.5762-.1094-.7959-.3291l-4.2041-4.2041-4.2041,4.2041c-.2197.2197-.5078.3291-.7959.3291s-.5762-.1094-.7959-.3291c-.4385-.4395-.4385-1.1523,0-1.5918l4.2041-4.2041-4.2041-4.2041c-.4385-.4395-.4385-1.1523,0-1.5918.4395-.4395,1.1523-.4395,1.5918,0l4.2041,4.2041,4.2041-4.2041c.4395-.4395,1.1523-.4395,1.5918,0,.4385.4395.4385,1.1523,0,1.5918l-4.2041,4.2041,4.2041,4.2041Z"/></g></svg>