<svg xmlns="http://www.w3.org/2000/svg" viewBox="0 0 32 32">
  <defs>
    <style>
      .uuid-af7714e3-2a2a-4b26-bf5f-401107bf86ff{stroke-width:0;fill:#151515}
    </style>
  </defs>
  <path d="M0 0h32v32H0z" id="uuid-0121d604-4f73-4c54-9e6e-22017a4c1cb1" stroke-width="0" fill="none"/>
  <g id="uuid-7b4d9a10-1257-4d1f-86d4-2b691a26963c">
    <path class="uuid-af7714e3-2a2a-4b26-bf5f-401107bf86ff" d="M21.707 10.293a1 1 0 0 0-1.414 0L16 14.586l-4.293-4.293a1 1 0 1 0-1.414 1.414L14.586 16l-4.293 4.293a1 1 0 1 0 1.414 1.414L16 17.414l4.293 4.293a.997.997 0 0 0 1.414 0 1 1 0 0 0 0-1.414L17.414 16l4.293-4.293a1 1 0 0 0 0-1.414Z"/>
    <path class="uuid-af7714e3-2a2a-4b26-bf5f-401107bf86ff" d="M16 0C7.178 0 0 7.178 0 16s7.178 16 16 16 16-7.178 16-16S24.822 0 16 0Zm0 30C8.28 30 2 23.72 2 16S8.28 2 16 2s14 6.28 14 14-6.28 14-14 14Z"/>
  </g>
</svg>
