<?xml version="1.0" encoding="UTF-8"?><svg xmlns="http://www.w3.org/2000/svg" viewBox="0 0 32 32"><defs><style>.uuid-9ffff7a0-3fdc-4835-8b6f-ab8d3ba0c9f0{fill:none;}.uuid-9ffff7a0-3fdc-4835-8b6f-ab8d3ba0c9f0,.uuid-cfb4bed9-909e-427e-b578-33d567ddc6a2{stroke-width:0px;}.uuid-cfb4bed9-909e-427e-b578-33d567ddc6a2{fill:#151515;}</style></defs><g id="uuid-0334539c-449a-482e-8e75-e833d2f8251d"><rect class="uuid-9ffff7a0-3fdc-4835-8b6f-ab8d3ba0c9f0" x="0" width="32" height="32"/></g><g id="uuid-02eb875a-e6a1-4de1-981c-cf7325035639"><path class="uuid-cfb4bed9-909e-427e-b578-33d567ddc6a2" d="M17.5908,16l11.2046-11.2046c.4395-.4395.4395-1.1514,0-1.5908s-1.1514-.4395-1.5908,0l-11.2046,11.2046L4.7954,3.2046c-.4395-.4395-1.1514-.4395-1.5908,0s-.4395,1.1514,0,1.5908l11.2046,11.2046L3.2046,27.2046c-.4395.4395-.4395,1.1514,0,1.5908.2197.2197.5073.3296.7954.3296s.5757-.1099.7954-.3296l11.2046-11.2046,11.2046,11.2046c.2197.2197.5073.3296.7954.3296s.5757-.1099.7954-.3296c.4395-.4395.4395-1.1514,0-1.5908l-11.2046-11.2046Z"/></g></svg>