<?xml version="1.0" encoding="UTF-8"?><svg xmlns="http://www.w3.org/2000/svg" viewBox="0 0 32 32"><defs><style>.uuid-e1aaaf1d-252b-49f7-9f43-09599e6f3e5e{fill:none;}.uuid-e1aaaf1d-252b-49f7-9f43-09599e6f3e5e,.uuid-af7714e3-2a2a-4b26-bf5f-401107bf86ff{stroke-width:0px;}.uuid-af7714e3-2a2a-4b26-bf5f-401107bf86ff{fill:#151515;}</style></defs><g id="uuid-0121d604-4f73-4c54-9e6e-22017a4c1cb1"><rect class="uuid-e1aaaf1d-252b-49f7-9f43-09599e6f3e5e" x="0" width="32" height="32"/></g><g id="uuid-7b4d9a10-1257-4d1f-86d4-2b691a26963c"><path class="uuid-af7714e3-2a2a-4b26-bf5f-401107bf86ff" d="M21.707,10.293c-.3906-.3906-1.0234-.3906-1.4141,0l-4.293,4.293-4.293-4.293c-.3906-.3906-1.0234-.3906-1.4141,0s-.3906,1.0234,0,1.4141l4.293,4.293-4.293,4.293c-.3906.3906-.3906,1.0234,0,1.4141.1953.1953.4512.293.707.293s.5117-.0977.707-.293l4.293-4.293,4.293,4.293c.1953.1953.4512.293.707.293s.5117-.0977.707-.293c.3906-.3906.3906-1.0234,0-1.4141l-4.293-4.293,4.293-4.293c.3906-.3906.3906-1.0234,0-1.4141Z"/><path class="uuid-af7714e3-2a2a-4b26-bf5f-401107bf86ff" d="M16,0C7.1777,0,0,7.1777,0,16s7.1777,16,16,16,16-7.1777,16-16S24.8223,0,16,0ZM16,30c-7.7197,0-14-6.2803-14-14S8.2803,2,16,2s14,6.2803,14,14-6.2803,14-14,14Z"/></g></svg>