<?xml version="1.0" encoding="UTF-8"?><svg xmlns="http://www.w3.org/2000/svg" width="32" height="32" viewBox="0 0 32 32"><defs><style>.uuid-0d742900-80d7-4783-84eb-715fcc6a1dcb{fill:none;}.uuid-19147ec5-9715-4ad5-8258-ad055d198233{fill:#151515;}</style></defs><g id="uuid-472950e5-84b4-4dff-9131-f8e4ba387e24"><rect class="uuid-0d742900-80d7-4783-84eb-715fcc6a1dcb" width="32" height="32"/></g><g id="uuid-aaacdb66-ef6d-4d57-9a3c-db0485f7d0a9"><path class="uuid-19147ec5-9715-4ad5-8258-ad055d198233" d="M16,1C7.72852,1,1,7.729,1,16s6.72852,15,15,15,15-6.729,15-15S24.27148,1,16,1ZM16,29c-7.16797,0-13-5.83154-13-13S8.83203,3,16,3s13,5.83154,13,13-5.83203,13-13,13Z"/><path class="uuid-19147ec5-9715-4ad5-8258-ad055d198233" d="M21.70703,10.29297c-.39062-.39062-1.02344-.39062-1.41406,0l-4.29297,4.29297-4.29297-4.29297c-.39062-.39062-1.02344-.39062-1.41406,0s-.39062,1.02344,0,1.41406l4.29297,4.29297-4.29297,4.29297c-.39062.39062-.39062,1.02344,0,1.41406.19531.19531.45117.29297.70703.29297s.51172-.09766.70703-.29297l4.29297-4.29297,4.29297,4.29297c.19531.19531.45117.29297.70703.29297s.51172-.09766.70703-.29297c.39062-.39062.39062-1.02344,0-1.41406l-4.29297-4.29297,4.29297-4.29297c.39062-.39062.39062-1.02344,0-1.41406Z"/></g></svg>