<?xml version="1.0" encoding="UTF-8"?><svg xmlns="http://www.w3.org/2000/svg" width="32" height="32" viewBox="0 0 32 32"><defs><style>.uuid-ae714d66-06a2-464c-b16c-68404bc8e5de{fill:none;}.uuid-80bbcc5e-0281-4e04-9b2c-c2817d1ff56c{fill:#151515;}</style></defs><g id="uuid-fc8efa4a-ed4e-4c58-a48c-92ade7a4fe0b"><rect class="uuid-ae714d66-06a2-464c-b16c-68404bc8e5de" width="32" height="32"/></g><g id="uuid-a9f67e12-bd71-4e8d-aa33-fb6af9002882"><path class="uuid-80bbcc5e-0281-4e04-9b2c-c2817d1ff56c" d="M26.99609,14.22803c.00293-.07715.00391-.15283.00391-.22803,0-4.9624-4.03711-9-9-9-3.89941,0-7.33301,2.53223-8.54004,6.15625-.48047-.104-.96875-.15625-1.45996-.15625-3.85938,0-7,3.14014-7,7s3.14062,7,7,7h17.5c3.03223,0,5.5-2.46729,5.5-5.5,0-2.50244-1.66406-4.62061-4.00391-5.27197ZM25.5,23H8c-2.75684,0-5-2.24316-5-5s2.24316-5,5-5c.60938,0,1.21484.11426,1.79883.33984.27441.10645.58203.08545.84082-.05566.25879-.1416.44141-.39014.5-.67871.65625-3.24805,3.54199-5.60547,6.86035-5.60547,3.85938,0,7,3.14014,7,7,0,.31104-.02832.61523-.06738.91553-.03418.26904.04199.54004.21094.75195.16895.21143.41699.34521.68652.37109,1.80762.17139,3.16992,1.65967,3.16992,3.46143,0,1.92969-1.57031,3.5-3.5,3.5Z"/></g></svg>