<?xml version="1.0" encoding="UTF-8"?><svg xmlns="http://www.w3.org/2000/svg" width="32" height="32" viewBox="0 0 32 32"><defs><style>.uuid-e6aa2dc6-5710-44ae-ae25-3412da41674c{fill:none;}.uuid-693b39f6-1ecd-4d7a-88ed-187bff96ddfd{fill:#151515;}</style></defs><g id="uuid-1650c06d-ca39-41b8-80d3-1f85d36b7d66"><rect class="uuid-e6aa2dc6-5710-44ae-ae25-3412da41674c" width="32" height="32"/></g><g id="uuid-504bf01a-4f92-4283-8c23-d7b92a4b7cd9"><path class="uuid-693b39f6-1ecd-4d7a-88ed-187bff96ddfd" d="M26.99609,10.22803c.00293-.07715.00391-.15283.00391-.22803,0-4.9624-4.03711-9-9-9-3.89941,0-7.33301,2.53223-8.54004,6.15625-.48047-.104-.96875-.15625-1.45996-.15625-3.85938,0-7,3.14014-7,7s3.14062,7,7,7h3c.55273,0,1-.44775,1-1s-.44727-1-1-1h-3c-2.75684,0-5-2.24316-5-5s2.24316-5,5-5c.60938,0,1.21484.11426,1.79883.33984.27344.10547.58203.08594.84082-.05566s.44141-.39014.5-.67871c.65625-3.24805,3.54199-5.60547,6.86035-5.60547,3.85938,0,7,3.14014,7,7,0,.31104-.02832.61523-.06738.91553-.03418.26904.04199.54004.21094.75195.16895.21143.41699.34521.68652.37109,1.80762.17139,3.16992,1.65967,3.16992,3.46143,0,1.92969-1.57031,3.5-3.5,3.5h-4.5c-.55273,0-1,.44775-1,1s.44727,1,1,1h4.5c3.03223,0,5.5-2.46729,5.5-5.5,0-2.50244-1.66406-4.62061-4.00391-5.27197Z"/><path class="uuid-693b39f6-1ecd-4d7a-88ed-187bff96ddfd" d="M19.29297,25.29297l-2.29297,2.29297v-12.58594c0-.55225-.44727-1-1-1s-1,.44775-1,1v12.58594l-2.29297-2.29297c-.39062-.39062-1.02344-.39062-1.41406,0s-.39062,1.02344,0,1.41406l3.64648,3.64648c.29199.29248.67676.43848,1.06055.43848s.76855-.146,1.06055-.43848l3.64648-3.64648c.39062-.39062.39062-1.02344,0-1.41406s-1.02344-.39062-1.41406,0Z"/></g></svg>