<?xml version="1.0" encoding="UTF-8"?><svg xmlns="http://www.w3.org/2000/svg" viewBox="0 0 32 32"><defs><style>.uuid-623c4d98-8967-42b4-b84e-cd5337e33169{fill:none;}.uuid-623c4d98-8967-42b4-b84e-cd5337e33169,.uuid-0c919837-9b99-47c0-a4b4-b076bc5eeedf{stroke-width:0px;}.uuid-0c919837-9b99-47c0-a4b4-b076bc5eeedf{fill:#151515;}</style></defs><g id="uuid-aadd73a2-867c-4c94-b22c-3f2f3803bc13"><rect class="uuid-623c4d98-8967-42b4-b84e-cd5337e33169" width="32" height="32"/></g><g id="uuid-e86d0597-694d-4778-bf49-21bfeed090e4"><path class="uuid-0c919837-9b99-47c0-a4b4-b076bc5eeedf" d="M27.7393,20.4199c.0068-.1387.0107-.2793.0107-.4199,0-5.376-4.374-9.75-9.75-9.75-4.0361,0-7.5928,2.4414-9.0596,6.1436-.4736-.0957-.9551-.1436-1.4404-.1436-3.998,0-7.25,3.252-7.25,7.25s3.252,7.25,7.25,7.25h19c2.8945,0,5.25-2.3555,5.25-5.25,0-2.4531-1.6787-4.5215-4.0107-5.0801Z"/><circle class="uuid-0c919837-9b99-47c0-a4b4-b076bc5eeedf" cx="2.25" cy="10.9999" r="1.5"/><circle class="uuid-0c919837-9b99-47c0-a4b4-b076bc5eeedf" cx="5.5231" cy="6.2661" r="1.5"/><circle class="uuid-0c919837-9b99-47c0-a4b4-b076bc5eeedf" cx="10.3391" cy="3.1072" r="1.5"/><circle class="uuid-0c919837-9b99-47c0-a4b4-b076bc5eeedf" cx="15.9848" cy="2" r="1.5"/><circle class="uuid-0c919837-9b99-47c0-a4b4-b076bc5eeedf" cx="21.6398" cy="3.0971" r="1.5"/><circle class="uuid-0c919837-9b99-47c0-a4b4-b076bc5eeedf" cx="26.4529" cy="6.2409" r="1.5"/><circle class="uuid-0c919837-9b99-47c0-a4b4-b076bc5eeedf" cx="29.75" cy="11.0099" r="1.5"/></g></svg>