<?xml version="1.0" encoding="UTF-8"?><svg xmlns="http://www.w3.org/2000/svg" viewBox="0 0 32 32"><defs><style>.uuid-755f1f75-5529-4d45-8a91-e7f81b1ae6d7{fill:none;}.uuid-755f1f75-5529-4d45-8a91-e7f81b1ae6d7,.uuid-e35a3f23-3758-4aa2-92af-ecaabb53916a{stroke-width:0px;}.uuid-e35a3f23-3758-4aa2-92af-ecaabb53916a{fill:#151515;}</style></defs><g id="uuid-1f629838-46bd-4b33-ae6a-93d1d0b8a6bc"><rect class="uuid-755f1f75-5529-4d45-8a91-e7f81b1ae6d7" width="32" height="32"/></g><g id="uuid-8e855490-ff54-4d0c-a905-f4e2c7e248ca"><path class="uuid-e35a3f23-3758-4aa2-92af-ecaabb53916a" d="M27.9971,13.2285c.002-.0771.0029-.1533.0029-.2285,0-5.5137-4.4863-10-10-10-4.0703,0-7.6641,2.4199-9.2139,6.1104-.4238-.0732-.8535-.1104-1.2861-.1104-4.1357,0-7.5,3.3643-7.5,7.5s3.3643,7.5,7.5,7.5h8.375v-10.2839l-3.0791,3.0798c-.4395.4395-1.1523.4395-1.5918,0-.4385-.4395-.4385-1.1523,0-1.5918l4.6465-4.6465c.6348-.6328,1.6641-.6328,2.2988,0l4.6465,4.6465c.4385.4395.4385,1.1523,0,1.5918-.2197.2197-.5078.3291-.7959.3291s-.5762-.1094-.7959-.3291l-3.0791-3.0798v10.2839h8.375c3.0322,0,5.5-2.4678,5.5-5.5,0-2.5-1.6641-4.6191-4.0029-5.2715Z"/><path class="uuid-e35a3f23-3758-4aa2-92af-ecaabb53916a" d="M16,26v2c0,.5527.4473,1,1,1s1-.4473,1-1v-4h-2v2Z"/></g></svg>