<?xml version="1.0" encoding="UTF-8"?><svg xmlns="http://www.w3.org/2000/svg" width="32" height="32" viewBox="0 0 32 32"><defs><style>.uuid-801ea8cb-6c85-4124-9956-111bfc3f8777{fill:none;}.uuid-5fe048eb-eaba-49e2-9c44-4b1fb3a5a905{fill:#151515;}</style></defs><g id="uuid-eed705ba-e6dd-426e-ad27-ca8b4121815e"><rect class="uuid-801ea8cb-6c85-4124-9956-111bfc3f8777" width="32" height="32"/></g><g id="uuid-6c8d5893-0e79-4809-94e7-343019d87223"><path class="uuid-5fe048eb-eaba-49e2-9c44-4b1fb3a5a905" d="M26.7373,17.41943c.00879-.14453.0127-.2832.0127-.41943,0-4.82471-3.9248-8.75-8.75-8.75-3.86816,0-7.26562,2.56299-8.37207,6.20264-.53418-.13477-1.0791-.20264-1.62793-.20264-3.72168,0-6.75,3.02783-6.75,6.75s3.02832,6.75,6.75,6.75h17.5c2.89453,0,5.25-2.35498,5.25-5.25,0-2.45557-1.67969-4.52344-4.0127-5.08057Z"/><circle class="uuid-5fe048eb-eaba-49e2-9c44-4b1fb3a5a905" cx="2.99976" cy="10.79095" r="1.625"/><circle class="uuid-5fe048eb-eaba-49e2-9c44-4b1fb3a5a905" cx="6.01953" cy="6.18036" r="1.625"/><circle class="uuid-5fe048eb-eaba-49e2-9c44-4b1fb3a5a905" cx="10.58008" cy="3.08643" r="1.625"/><circle class="uuid-5fe048eb-eaba-49e2-9c44-4b1fb3a5a905" cx="15.98486" cy="2" r="1.625"/><circle class="uuid-5fe048eb-eaba-49e2-9c44-4b1fb3a5a905" cx="21.38965" cy="3.07635" r="1.625"/><circle class="uuid-5fe048eb-eaba-49e2-9c44-4b1fb3a5a905" cx="25.95996" cy="6.16034" r="1.625"/><circle class="uuid-5fe048eb-eaba-49e2-9c44-4b1fb3a5a905" cx="29" cy="10.79095" r="1.625"/></g></svg>