<?xml version="1.0" encoding="UTF-8"?><svg xmlns="http://www.w3.org/2000/svg" viewBox="0 0 32 32"><defs><style>.uuid-5720dafc-cd18-4158-a7e6-0f8a915bafef{fill:none;}.uuid-5720dafc-cd18-4158-a7e6-0f8a915bafef,.uuid-fd9c2f34-79f8-4b67-a930-8f8db19fa19f{stroke-width:0px;}.uuid-fd9c2f34-79f8-4b67-a930-8f8db19fa19f{fill:#151515;}</style></defs><g id="uuid-31cfc509-232b-49fa-871b-1c61bc1efc7b"><rect class="uuid-5720dafc-cd18-4158-a7e6-0f8a915bafef" width="32" height="32"/></g><g id="uuid-5682ab60-5cfb-4532-be09-aac9a70e0dbc"><path class="uuid-fd9c2f34-79f8-4b67-a930-8f8db19fa19f" d="M27.9971,20.2285c.002-.0771.0029-.1533.0029-.2285,0-5.5142-4.4863-10-10-10-4.0703,0-7.6641,2.4199-9.2139,6.1104-.4238-.0732-.8535-.1104-1.2861-.1104-4.1357,0-7.5,3.3643-7.5,7.5s3.3643,7.5,7.5,7.5h19c3.0322,0,5.5-2.4673,5.5-5.5,0-2.5-1.6641-4.6191-4.0029-5.2715ZM26.5,29H7.5c-3.0322,0-5.5-2.4673-5.5-5.5s2.4678-5.5,5.5-5.5c.5518,0,1.0977.082,1.624.2441.5264.1602,1.083-.1323,1.248-.6553,1.0547-3.3428,4.1201-5.5889,7.6279-5.5889,4.4111,0,8,3.5889,8,8,0,.3145-.0234.623-.0586.9282-.0312.2666.0459.5347.2148.7437s.4141.3413.6816.3672c1.8027.1758,3.1621,1.6636,3.1621,3.4609,0,1.9297-1.5703,3.5-3.5,3.5Z"/><circle class="uuid-fd9c2f34-79f8-4b67-a930-8f8db19fa19f" cx="2.25" cy="10.9999" r="1.5"/><circle class="uuid-fd9c2f34-79f8-4b67-a930-8f8db19fa19f" cx="5.5231" cy="6.2661" r="1.5"/><circle class="uuid-fd9c2f34-79f8-4b67-a930-8f8db19fa19f" cx="10.3391" cy="3.1072" r="1.5"/><circle class="uuid-fd9c2f34-79f8-4b67-a930-8f8db19fa19f" cx="15.9848" cy="2" r="1.5"/><circle class="uuid-fd9c2f34-79f8-4b67-a930-8f8db19fa19f" cx="21.6398" cy="3.0971" r="1.5"/><circle class="uuid-fd9c2f34-79f8-4b67-a930-8f8db19fa19f" cx="26.4529" cy="6.2409" r="1.5"/><circle class="uuid-fd9c2f34-79f8-4b67-a930-8f8db19fa19f" cx="29.75" cy="11.0099" r="1.5"/></g></svg>