<svg xmlns="http://www.w3.org/2000/svg" viewBox="0 0 32 32">
  <defs>
    <style>
      .uuid-d0fb0831-2d9e-4400-9117-4c3cd04cd91a{stroke-width:0;fill:#151515}
    </style>
  </defs>
  <path d="M0 0h32v32H0z" id="uuid-aaff0742-24f4-4d81-8dcf-96dba1595ffc" stroke-width="0" fill="none"/>
  <g id="uuid-b585b3bc-8570-40e8-89ff-3767fd454888">
    <path class="uuid-d0fb0831-2d9e-4400-9117-4c3cd04cd91a" d="M27.997 10.229A8.81 8.81 0 0 0 28 10c0-5.514-4.486-10-10-10a9.956 9.956 0 0 0-9.214 6.11A7.552 7.552 0 0 0 7.5 6C3.364 6 0 9.364 0 13.5S3.364 21 7.5 21H11a1 1 0 1 0 0-2H7.5A5.506 5.506 0 0 1 2 13.5a5.506 5.506 0 0 1 7.124-5.256 1.003 1.003 0 0 0 1.248-.655A7.966 7.966 0 0 1 18 1.999c4.411 0 8 3.59 8 8 0 .315-.023.624-.059.93a.998.998 0 0 0 .897 1.11A3.476 3.476 0 0 1 30 15.499c0 1.93-1.57 3.5-3.5 3.5H21a1 1 0 1 0 0 2h5.5c3.032 0 5.5-2.466 5.5-5.5a5.46 5.46 0 0 0-4.003-5.27Z"/>
    <path class="uuid-d0fb0831-2d9e-4400-9117-4c3cd04cd91a" d="M20.293 24.293 17 27.586V15a1 1 0 1 0-2 0v12.586l-3.293-3.293a1 1 0 1 0-1.414 1.414l4.646 4.647c.292.292.677.438 1.06.438s.77-.146 1.061-.438l4.647-4.647a1 1 0 1 0-1.414-1.414Z"/>
  </g>
</svg>
