<?xml version="1.0" encoding="UTF-8"?><svg xmlns="http://www.w3.org/2000/svg" width="32" height="32" viewBox="0 0 32 32"><defs><style>.uuid-bd42e9b7-b033-4151-bc90-8da10c2924c2{fill:none;}.uuid-258e1986-f407-4b92-b23c-51420e77a166{fill:#151515;}</style></defs><g id="uuid-5cfde985-da0d-4aec-9c75-ac5f2ace270f"><rect class="uuid-bd42e9b7-b033-4151-bc90-8da10c2924c2" width="32" height="32"/></g><g id="uuid-f5ae7d23-d522-41d1-905b-f80593cf437c"><path class="uuid-258e1986-f407-4b92-b23c-51420e77a166" d="M19.5,20.5h-.5v-2c0-1.6543-1.3457-3-3-3s-3,1.3457-3,3v2h-.5c-.82715,0-1.5.67285-1.5,1.5v5c0,.82715.67285,1.5,1.5,1.5h7c.82715,0,1.5-.67285,1.5-1.5v-5c0-.82715-.67285-1.5-1.5-1.5ZM15,18.5c0-.55176.44824-1,1-1s1,.44824,1,1v2h-2v-2Z"/><path class="uuid-258e1986-f407-4b92-b23c-51420e77a166" d="M26.99609,13.22656c.00293-.07617.00391-.15137.00391-.22656,0-4.96289-4.03711-9-9-9-3.89746,0-7.33105,2.5332-8.53906,6.1582-.48145-.10547-.96973-.1582-1.46094-.1582-3.85938,0-7,3.14062-7,7,0,3.43652,2.45508,6.33691,5.83691,6.89648.54199.09473,1.05957-.2793,1.14941-.82324.09082-.54492-.27832-1.05957-.82324-1.14941-2.41211-.39941-4.16309-2.46973-4.16309-4.92383,0-2.75684,2.24316-5,5-5,.60742,0,1.21289.11523,1.79883.34277.27441.10645.58301.08691.8418-.05566.25781-.1416.44141-.38965.5-.67871.65723-3.25,3.54199-5.6084,6.85938-5.6084,3.85938,0,7,3.14062,7,7,0,.2793-.02344.58008-.06934.89551-.04004.27051.0332.5459.20215.76172.16895.21484.41895.35254.69141.37793,1.81055.17383,3.17578,1.66309,3.17578,3.46484,0,1.92969-1.57031,3.5-3.5,3.5h-.5c-.55273,0-1,.44727-1,1s.44727,1,1,1h.5c3.03223,0,5.5-2.46777,5.5-5.5,0-2.5-1.66406-4.61816-4.00391-5.27344Z"/></g></svg>