<?xml version="1.0" encoding="UTF-8"?><svg xmlns="http://www.w3.org/2000/svg" width="32" height="32" viewBox="0 0 32 32"><defs><style>.uuid-8cfaffc4-f6d4-4318-a767-b7a5f6be2cba{fill:none;}.uuid-e25ea0c3-2fd3-438d-be7a-fda851e7e04e{fill:#151515;}</style></defs><g id="uuid-464c69bb-130c-40fa-96ae-06dad08d56a3"><rect class="uuid-8cfaffc4-f6d4-4318-a767-b7a5f6be2cba" width="32" height="32"/></g><g id="uuid-fdb05a8d-0a7a-4f28-8971-5ca140bf18ad"><path class="uuid-e25ea0c3-2fd3-438d-be7a-fda851e7e04e" d="M16,28c0,.55225.44727,1,1,1s1-.44775,1-1v-4.25h-2v4.25Z"/><path class="uuid-e25ea0c3-2fd3-438d-be7a-fda851e7e04e" d="M26.7373,13.41943c.00879-.14453.0127-.2832.0127-.41943,0-4.82471-3.9248-8.75-8.75-8.75-3.86816,0-7.26562,2.56299-8.37207,6.20264-.53418-.13477-1.0791-.20264-1.62793-.20264-3.72168,0-6.75,3.02783-6.75,6.75s3.02832,6.75,6.75,6.75h7.875v-9.034l-2.0791,2.07941c-.43945.43945-1.15234.43945-1.5918,0-.43848-.43945-.43848-1.15137,0-1.59082l3.64648-3.64648c.61523-.61426,1.68359-.61426,2.29883,0l3.64648,3.64648c.43848.43945.43848,1.15137,0,1.59082-.21973.21973-.50781.32959-.7959.32959s-.57617-.10986-.7959-.32959l-2.0791-2.07941v9.034h7.375c2.89453,0,5.25-2.35498,5.25-5.25,0-2.45557-1.67969-4.52344-4.0127-5.08057Z"/></g></svg>