<?xml version="1.0" encoding="UTF-8"?><svg xmlns="http://www.w3.org/2000/svg" width="32" height="32" viewBox="0 0 32 32"><defs><style>.uuid-a4030ba9-2f7e-4231-825f-bd774b6fb280{fill:none;}.uuid-967603ec-1e03-4ad1-b99e-9075395172c7{fill:#151515;}</style></defs><g id="uuid-260d254d-d981-4964-95d9-7c9325d04819"><rect class="uuid-a4030ba9-2f7e-4231-825f-bd774b6fb280" width="32" height="32"/></g><g id="uuid-9d366aab-b2fd-4aeb-8d5d-419fb7b92f3a"><path class="uuid-967603ec-1e03-4ad1-b99e-9075395172c7" d="M26.99609,13.22803c.00293-.07715.00391-.15283.00391-.22803,0-4.9624-4.03711-9-9-9-3.89941,0-7.33301,2.53223-8.54004,6.15625-.48047-.104-.96875-.15625-1.45996-.15625-3.85938,0-7,3.14014-7,7s3.14062,7,7,7h4c.55273,0,1-.44775,1-1s-.44727-1-1-1h-4c-2.75684,0-5-2.24316-5-5s2.24316-5,5-5c.60938,0,1.21484.11426,1.79883.33984.27441.10645.58105.08545.84082-.05566.25879-.1416.44141-.39014.5-.67871.65625-3.24805,3.54199-5.60547,6.86035-5.60547,3.85938,0,7,3.14014,7,7,0,.31104-.02832.61523-.06738.91553-.03418.26904.04199.54004.21094.75195.16895.21143.41699.34521.68652.37109,1.80762.17139,3.16992,1.65967,3.16992,3.46143,0,1.92969-1.57031,3.5-3.5,3.5h-3.5c-.55273,0-1,.44775-1,1s.44727,1,1,1h3.5c3.03223,0,5.5-2.46729,5.5-5.5,0-2.50244-1.66406-4.62061-4.00391-5.27197Z"/><path class="uuid-967603ec-1e03-4ad1-b99e-9075395172c7" d="M21.70703,17.70703c.39062-.39062.39062-1.02344,0-1.41406l-3.64648-3.64648c-.58398-.58496-1.53711-.58496-2.12109,0l-3.64648,3.64648c-.39062.39062-.39062,1.02344,0,1.41406s1.02344.39062,1.41406,0l2.29297-2.29297v12.58594c0,.55225.44727,1,1,1s1-.44775,1-1v-12.58594l2.29297,2.29297c.19531.19531.45117.29297.70703.29297s.51172-.09766.70703-.29297Z"/></g></svg>