<?xml version="1.0" encoding="UTF-8"?><svg xmlns="http://www.w3.org/2000/svg" width="32" height="32" viewBox="0 0 32 32"><defs><style>.uuid-07c55248-ccc5-460b-9b0b-9ce79737bc33{fill:none;}.uuid-235cf03e-49b3-4dde-818b-8dd6656c555a{fill:#151515;}</style></defs><g id="uuid-bc6b133d-a0ac-4ddf-8621-0a2ab8144672"><rect class="uuid-07c55248-ccc5-460b-9b0b-9ce79737bc33" width="32" height="32"/></g><g id="uuid-f6af5bdc-ed55-4e60-9f7c-db7f19ffdec0"><path class="uuid-235cf03e-49b3-4dde-818b-8dd6656c555a" d="M19.29297,25.29297l-2.29297,2.29297v-6.83594h-2v6.83594l-2.29297-2.29297c-.39062-.39062-1.02344-.39062-1.41406,0s-.39062,1.02344,0,1.41406l3.64648,3.64648c.29199.29248.67676.43848,1.06055.43848s.76855-.146,1.06055-.43848l3.64648-3.64648c.39062-.39062.39062-1.02344,0-1.41406s-1.02344-.39062-1.41406,0Z"/><path class="uuid-235cf03e-49b3-4dde-818b-8dd6656c555a" d="M26.7373,10.41943c.00879-.14453.0127-.2832.0127-.41943,0-4.82471-3.9248-8.75-8.75-8.75-3.86816,0-7.26562,2.56299-8.37207,6.20264-.53418-.13477-1.0791-.20264-1.62793-.20264-3.72168,0-6.75,3.02783-6.75,6.75s3.02832,6.75,6.75,6.75h6.875v-6.75c0-.62109.50391-1.125,1.125-1.125s1.125.50391,1.125,1.125v6.75h8.375c2.89453,0,5.25-2.35498,5.25-5.25,0-2.45557-1.67969-4.52344-4.0127-5.08057Z"/></g></svg>