<?xml version="1.0" encoding="UTF-8"?><svg xmlns="http://www.w3.org/2000/svg" width="32" height="32" viewBox="0 0 32 32"><defs><style>.uuid-d87df28d-4d34-4f96-9c73-9f598500bf05{fill:none;}.uuid-d0158d8a-474c-47f6-be90-593561a37935{fill:#151515;}</style></defs><g id="uuid-6455a01e-5c7a-435e-be01-2da85f9d35f7"><rect class="uuid-d87df28d-4d34-4f96-9c73-9f598500bf05" width="32" height="32"/></g><g id="uuid-5b25d675-8fff-463c-8b12-d80967fb0a1c"><path class="uuid-d0158d8a-474c-47f6-be90-593561a37935" d="M26.99658,11.22852c.00244-.07715.00342-.15332.00342-.22852,0-4.96289-4.0376-9-9-9-3.89941,0-7.3335,2.53223-8.54004,6.15625-.47998-.10352-.96826-.15625-1.45996-.15625-3.85986,0-7,3.14062-7,7,0,2.49121,1.34082,4.81445,3.49951,6.0625.15771.0918.32959.13477.49951.13477.34521,0,.68115-.17871.8667-.49902.27637-.47852.11279-1.08984-.36523-1.36621-1.54248-.89258-2.50049-2.55176-2.50049-4.33203,0-2.75684,2.24316-5,5-5,.61133,0,1.21631.11426,1.79883.33984.27393.10645.58252.08691.84131-.05566.2583-.1416.44141-.38965.49951-.67871.65625-3.24805,3.5415-5.60547,6.86035-5.60547,3.85986,0,7,3.14062,7,7,0,.27441-.02148.56445-.06738.91309-.03516.26855.04053.54102.20947.75293.16943.21191.41748.34668.6875.37207,1.80762.17188,3.17041,1.66016,3.17041,3.46191,0,.81055-.26904,1.57129-.77734,2.2002-.34766.42969-.28076,1.05957.14844,1.40625.4292.3457,1.05957.28125,1.40625-.14844.78857-.97461,1.22266-2.20312,1.22266-3.45801,0-2.50293-1.66406-4.62012-4.00342-5.27148Z"/><path class="uuid-d0158d8a-474c-47f6-be90-593561a37935" d="M22.65674,16.34277c-1.12146-1.12146-2.51807-1.86682-4.03729-2.17755-.00336-.00067-.00659-.00177-.00995-.0025-.22644-.04602-.45636-.07892-.68781-.10529-.03729-.00433-.0733-.01257-.11078-.01636-.26776-.02679-.53821-.04108-.81091-.04108-4.41113,0-8,3.58887-8,8s3.58887,8,8,8,8-3.58887,8-8c0-2.19647-.89069-4.18829-2.3288-5.63544-.00623-.00659-.00806-.01538-.01447-.02179ZM17,28c-3.30859,0-6-2.69141-6-6,0-2.96722,2.16687-5.43134,5-5.90967v5.90967c0,.4043.24365.76953.61719.92383.12402.05176.25391.07617.38281.07617.26025,0,.51562-.10156.70703-.29297l4.17792-4.17834c.69922.98108,1.11505,2.17737,1.11505,3.47131,0,3.30859-2.69141,6-6,6Z"/></g></svg>