<?xml version="1.0" encoding="UTF-8"?><svg xmlns="http://www.w3.org/2000/svg" viewBox="0 0 32 32"><defs><style>.uuid-db86b028-e823-4060-98c1-15a9289e9f61{fill:none;}.uuid-db86b028-e823-4060-98c1-15a9289e9f61,.uuid-752e7263-7f4f-49dd-959a-e98dfe6e20e5{stroke-width:0px;}.uuid-752e7263-7f4f-49dd-959a-e98dfe6e20e5{fill:#151515;}</style></defs><g id="uuid-84765d3e-6461-4294-8491-7edac42f2151"><rect class="uuid-db86b028-e823-4060-98c1-15a9289e9f61" width="32" height="32"/></g><g id="uuid-a66d28f4-d17f-4032-b84e-8e8e4bd70fbb"><path class="uuid-752e7263-7f4f-49dd-959a-e98dfe6e20e5" d="M20.293,24.293l-3.293,3.293v-6.5859h-2v6.5859l-3.293-3.293c-.3906-.3906-1.0234-.3906-1.4141,0s-.3906,1.0234,0,1.4141l4.6465,4.6465c.292.293.6768.4385,1.0605.4385s.7686-.1455,1.0605-.4385l4.6465-4.6465c.3906-.3906.3906-1.0234,0-1.4141s-1.0234-.3906-1.4141,0Z"/><path class="uuid-752e7263-7f4f-49dd-959a-e98dfe6e20e5" d="M27.9971,10.2285c.002-.0771.0029-.1533.0029-.2285,0-5.5137-4.4863-10-10-10-4.0703,0-7.6641,2.4199-9.2139,6.1104-.4238-.0732-.8535-.1104-1.2861-.1104C3.3643,6,0,9.3643,0,13.5s3.3643,7.5,7.5,7.5h7.375v-6c0-.6211.5039-1.125,1.125-1.125s1.125.5039,1.125,1.125v6h9.375c3.0322,0,5.5-2.4678,5.5-5.5,0-2.5-1.6641-4.6191-4.0029-5.2715Z"/></g></svg>