<?xml version="1.0" encoding="UTF-8"?><svg xmlns="http://www.w3.org/2000/svg" width="32" height="32" viewBox="0 0 32 32"><defs><style>.uuid-f2623045-01a3-4710-b4d9-a2e60477dcec{fill:none;}.uuid-2d98e5dd-8096-449e-972a-72b4b6ea3941{fill:#151515;}</style></defs><g id="uuid-40952302-95e2-4ca5-ad06-c25427663f94"><rect class="uuid-f2623045-01a3-4710-b4d9-a2e60477dcec" width="32" height="32"/></g><g id="uuid-3718d6d0-b491-4711-8011-964ee39157d5"><path class="uuid-2d98e5dd-8096-449e-972a-72b4b6ea3941" d="M23.07001,16.75c.34998,1.84998,1.97998,3.25,3.92999,3.25,2.21002,0,4-1.79004,4-4s-1.78998-4-4-4c-1.95001,0-3.58002,1.39996-3.92999,3.25h-2.13c-.12-.82001-.44-1.57001-.91998-2.21002l4.72998-4.72998c.64001.42999,1.41998.69,2.25.69,2.21002,0,4-1.79004,4-4s-1.78998-4-4-4-4,1.78998-4,4c0,.82996.26001,1.60999.69,2.25l-4.72998,4.72998c-.57001-.42999-1.24005-.72998-1.96002-.88v-2.22998c1.72998-.44,3-2.01001,3-3.87,0-2.21002-1.78998-4-4-4s-4,1.78998-4,4c0,1.85999,1.27002,3.42999,3,3.87v2.22998c-.71997.15002-1.39001.45001-1.96002.88l-4.72998-4.72998c.42999-.64001.69-1.42004.69-2.25,0-2.21002-1.78998-4-4-4S1,2.78998,1,5s1.78998,4,4,4c.83002,0,1.60999-.26001,2.25-.69l4.72998,4.72998c-.47998.64001-.79999,1.39001-.91998,2.21002h-2.13c-.34998-1.85004-1.97998-3.25-3.92999-3.25-2.21002,0-4,1.78998-4,4s1.78998,4,4,4c1.95001,0,3.58002-1.40002,3.92999-3.25h2.13c.12.82001.44,1.57001.91998,2.20996l-4.72998,4.73004c-.64001-.42999-1.41998-.69-2.25-.69-2.21002,0-4,1.78998-4,4s1.78998,4,4,4,4-1.79004,4-4c0-.83002-.26001-1.60999-.69-2.25l4.72998-4.73004c.57001.43005,1.24005.73004,1.96002.88v2.23004c-1.72998.44-3,2.01001-3,3.87,0,2.20996,1.78998,4,4,4s4-1.79004,4-4c0-1.85999-1.27002-3.42999-3-3.87v-2.23004c.71997-.14996,1.39001-.44995,1.96002-.88l4.72998,4.73004c-.42999.64001-.69,1.41998-.69,2.25,0,2.20996,1.78998,4,4,4s4-1.79004,4-4-1.78998-4-4-4c-.83002,0-1.60999.26001-2.25.69l-4.72998-4.73004c.47998-.63995.79999-1.38995.91998-2.20996h2.13ZM25,5c0-1.10004.90002-2,2-2s2,.89996,2,2c0,1.09998-.90002,2-2,2-.28003,0-.53998-.06-.78003-.16003-.46997-.19995-.85999-.58997-1.06-1.06-.09998-.23999-.15997-.5-.15997-.77997ZM5.78003,6.83997c-.24005.10004-.5.16003-.78003.16003-1.09998,0-2-.90002-2-2,0-1.10004.90002-2,2-2s2,.89996,2,2c0,.27997-.06.53998-.15997.77997-.20001.47003-.59003.86005-1.06,1.06ZM7,27c0,1.09998-.90002,2-2,2s-2-.90002-2-2c0-1.10004.90002-2,2-2,.28003,0,.53998.06.78003.15997.46997.20001.85999.59003,1.06,1.06.09998.23999.15997.5.15997.78003ZM26.21997,25.15997c.24005-.09998.5-.15997.78003-.15997,1.09998,0,2,.89996,2,2,0,1.09998-.90002,2-2,2s-2-.90002-2-2c0-.28003.06-.54004.15997-.78003.20001-.46997.59003-.85999,1.06-1.06ZM25,16c0-.26001.04999-.52002.15002-.75.28998-.73004,1.00995-1.25,1.84998-1.25,1.09998,0,2,.89996,2,2,0,1.09998-.90002,2-2,2-.84003,0-1.56-.52002-1.84998-1.25-.10004-.23004-.15002-.48999-.15002-.75ZM19,16c0,.26001-.03003.51001-.09998.75-.07001.26996-.18005.52997-.32001.76996-.25.44-.62.81-1.06,1.06-.16003.10004-.34003.18005-.52002.24005-.31.12-.65002.17999-1,.17999s-.69-.06-1-.17999c-.17999-.06-.35999-.14001-.52002-.24005-.44-.25-.81-.62-1.06-1.06-.13995-.23999-.25-.5-.32001-.76996-.06995-.23999-.09998-.48999-.09998-.75s.03003-.51001.09998-.75c.07001-.27002.18005-.53003.32001-.77002.25-.44.62-.81,1.06-1.06.16003-.09998.34003-.17999.52002-.23999.31-.12.65002-.17999,1-.17999s.69.06,1,.17999c.17999.06.35999.14001.52002.23999.44.25.81.62,1.06,1.06.13995.23999.25.5.32001.77002.06995.23999.09998.48999.09998.75ZM14,5c0-1.10004.90002-2,2-2s2,.89996,2,2c0,.73999-.40002,1.38-1,1.72998-.28998.16998-.64001.27002-1,.27002s-.71002-.10004-1-.27002c-.59998-.34998-1-.98999-1-1.72998ZM7,16c0,.26001-.04999.51996-.15002.75-.28998.72998-1.00995,1.25-1.84998,1.25-1.09998,0-2-.90002-2-2,0-1.10004.90002-2,2-2,.84003,0,1.56.51996,1.84998,1.25.10004.22998.15002.48999.15002.75ZM18,27c0,1.09998-.90002,2-2,2s-2-.90002-2-2c0-.73999.40002-1.38,1-1.73004.28998-.16998.64001-.26996,1-.26996s.71002.09998,1,.26996c.59998.35004,1,.99005,1,1.73004Z"/></g></svg>