<?xml version="1.0" encoding="UTF-8"?><svg xmlns="http://www.w3.org/2000/svg" width="32" height="32" viewBox="0 0 32 32"><defs><style>.uuid-abcedfad-c8cf-4353-b4a6-3b3dad28b4f4{fill:none;}.uuid-beea1cd9-1062-42e8-addb-e9de63cb7139{fill:#151515;}</style></defs><g id="uuid-b63abfb4-5684-41c9-8105-84eaaf4e5bee"><rect class="uuid-abcedfad-c8cf-4353-b4a6-3b3dad28b4f4" width="32" height="32"/></g><g id="uuid-863ad35e-196b-4e5c-a136-aaa210378ea2"><path class="uuid-beea1cd9-1062-42e8-addb-e9de63cb7139" d="M23.32587,16.75c.34863,1.70935,1.86359,3,3.67413,3,2.06738,0,3.75-1.68262,3.75-3.75s-1.68262-3.75-3.75-3.75c-1.81055,0-3.3255,1.29065-3.67413,3h-2.65173c-.12006-.7489-.40961-1.43683-.8374-2.02618l5.09869-5.09869c.5929.39307,1.30164.62488,2.06458.62488,2.06738,0,3.75-1.68262,3.75-3.75s-1.68262-3.75-3.75-3.75-3.75,1.68262-3.75,3.75c0,.76294.23181,1.47168.62488,2.06458l-5.09869,5.09869c-.58936-.4278-1.27728-.71735-2.02618-.8374v-2.65173c1.70935-.34863,3-1.86359,3-3.67413,0-2.06738-1.68262-3.75-3.75-3.75s-3.75,1.68262-3.75,3.75c0,1.81055,1.29065,3.3255,3,3.67413v2.65173c-.7489.12006-1.43683.40961-2.02618.8374l-5.09869-5.09869c.39307-.5929.62488-1.30164.62488-2.06458,0-2.06738-1.68262-3.75-3.75-3.75s-3.75,1.68262-3.75,3.75,1.68262,3.75,3.75,3.75c.76294,0,1.47168-.23181,2.06458-.62488l5.09869,5.09869c-.4278.58936-.71735,1.27728-.8374,2.02618h-2.65173c-.34863-1.70935-1.86359-3-3.67413-3-2.06738,0-3.75,1.68262-3.75,3.75s1.68262,3.75,3.75,3.75c1.81055,0,3.3255-1.29065,3.67413-3h2.65173c.12006.7489.40961,1.43683.8374,2.02618l-5.09869,5.09869c-.5929-.39307-1.30164-.62488-2.06458-.62488-2.06738,0-3.75,1.68262-3.75,3.75s1.68262,3.75,3.75,3.75,3.75-1.68262,3.75-3.75c0-.76294-.23181-1.47168-.62488-2.06458l5.09869-5.09869c.58936.4278,1.27728.71735,2.02618.8374v2.65173c-1.70935.34863-3,1.86359-3,3.67413,0,2.06738,1.68262,3.75,3.75,3.75s3.75-1.68262,3.75-3.75c0-1.81055-1.29065-3.3255-3-3.67413v-2.65173c.7489-.12006,1.43683-.40961,2.02618-.8374l5.09869,5.09869c-.39307.5929-.62488,1.30164-.62488,2.06458,0,2.06738,1.68262,3.75,3.75,3.75s3.75-1.68262,3.75-3.75-1.68262-3.75-3.75-3.75c-.76294,0-1.47168.23181-2.06458.62488l-5.09869-5.09869c.4278-.58936.71735-1.27728.8374-2.02618h2.65173Z"/></g></svg>