<?xml version="1.0" encoding="UTF-8"?><svg xmlns="http://www.w3.org/2000/svg" width="32" height="32" viewBox="0 0 32 32"><defs><style>.uuid-418ca9e5-1ff5-4ca4-a108-58dc5a48d2ef{fill:none;}.uuid-64fbd642-f7cb-47cf-b488-344afea3713a{fill:#151515;}</style></defs><g id="uuid-f7b6289d-dcc2-4119-9480-73d7eca2e641"><rect class="uuid-418ca9e5-1ff5-4ca4-a108-58dc5a48d2ef" width="32" height="32"/></g><g id="uuid-77e07066-3857-449d-b43d-2076f0ab168f"><path class="uuid-64fbd642-f7cb-47cf-b488-344afea3713a" d="M9.70703,8.29297c-.39062-.39062-1.02344-.39062-1.41406,0L1.64648,14.93945c-.58496.58496-.58496,1.53613,0,2.12109l6.64648,6.64648c.19531.19531.45117.29297.70703.29297s.51172-.09766.70703-.29297c.39062-.39062.39062-1.02344,0-1.41406l-6.29297-6.29297,6.29297-6.29297c.39062-.39062.39062-1.02344,0-1.41406Z"/><path class="uuid-64fbd642-f7cb-47cf-b488-344afea3713a" d="M30.35352,14.93945l-6.64648-6.64648c-.39062-.39062-1.02344-.39062-1.41406,0s-.39062,1.02344,0,1.41406l6.29297,6.29297-6.29297,6.29297c-.39062.39062-.39062,1.02344,0,1.41406.19531.19531.45117.29297.70703.29297s.51172-.09766.70703-.29297l6.64648-6.64648c.58496-.58496.58496-1.53613,0-2.12109Z"/><path class="uuid-64fbd642-f7cb-47cf-b488-344afea3713a" d="M18.12109,6.02197c-.54248-.11719-1.07129.22949-1.18604.77002l-3.82617,18c-.11475.54053.22998,1.07129.77002,1.18604.07031.01514.14014.02197.20898.02197.46191,0,.87744-.32178.97705-.79199l3.82617-18c.11475-.54053-.22998-1.07129-.77002-1.18604Z"/></g></svg>