<?xml version="1.0" encoding="UTF-8"?><svg xmlns="http://www.w3.org/2000/svg" viewBox="0 0 32 32"><defs><style>.uuid-1fd4395f-f5d6-4a57-b25b-e602fa1d1b19{fill:none;}.uuid-1fd4395f-f5d6-4a57-b25b-e602fa1d1b19,.uuid-b0456c54-66da-4f85-b06b-a1645469e6ca{stroke-width:0px;}.uuid-b0456c54-66da-4f85-b06b-a1645469e6ca{fill:#151515;}</style></defs><g id="uuid-c93662a4-a95e-4358-ba77-76d702140dfa"><rect class="uuid-1fd4395f-f5d6-4a57-b25b-e602fa1d1b19" width="32" height="32"/></g><g id="uuid-945b767f-9fbc-4691-9978-a097a9a8f458"><path class="uuid-b0456c54-66da-4f85-b06b-a1645469e6ca" d="M31.3535,14.9395l-6.6465-6.6465c-.3906-.3906-1.0234-.3906-1.4141,0s-.3906,1.0234,0,1.4141l6.293,6.293-6.293,6.293c-.3906.3906-.3906,1.0234,0,1.4141.1953.1953.4512.293.707.293s.5117-.0977.707-.293l6.6465-6.6465c.585-.585.585-1.5361,0-2.1211Z"/><path class="uuid-b0456c54-66da-4f85-b06b-a1645469e6ca" d="M8.707,8.293c-.3906-.3906-1.0234-.3906-1.4141,0L.6465,14.9395c-.585.585-.585,1.5361,0,2.1211l6.6465,6.6465c.1953.1953.4512.293.707.293s.5117-.0977.707-.293c.3906-.3906.3906-1.0234,0-1.4141l-6.293-6.293,6.293-6.293c.3906-.3906.3906-1.0234,0-1.4141Z"/><path class="uuid-b0456c54-66da-4f85-b06b-a1645469e6ca" d="M18.1211,6.022c-.541-.1162-1.0703.229-1.1865.77l-3.8262,18c-.1143.5405.2305,1.0713.7705,1.186.0703.0151.1396.022.209.022.4619,0,.877-.3218.9775-.792l3.8262-18c.1143-.5405-.2305-1.0713-.7705-1.186Z"/></g></svg>