<?xml version="1.0" encoding="UTF-8"?><svg xmlns="http://www.w3.org/2000/svg" viewBox="0 0 32 32"><defs><style>.uuid-62b95daf-26fe-401a-96e1-e658cc5e9ca8{fill:none;}.uuid-62b95daf-26fe-401a-96e1-e658cc5e9ca8,.uuid-c244372c-6732-4ee5-bf67-c246011e3a58{stroke-width:0px;}.uuid-c244372c-6732-4ee5-bf67-c246011e3a58{fill:#151515;}</style></defs><g id="uuid-79d0298a-d0d4-44ff-983f-da6ebb746ba6"><rect class="uuid-62b95daf-26fe-401a-96e1-e658cc5e9ca8" x="0" width="32" height="32"/></g><g id="uuid-21e85acd-490d-41fa-9a24-86b4aa635984"><path class="uuid-c244372c-6732-4ee5-bf67-c246011e3a58" d="M25.5,9H6.5c-.8271,0-1.5.6729-1.5,1.5v19c0,.8271.6729,1.5,1.5,1.5h19c.8271,0,1.5-.6729,1.5-1.5V10.5c0-.8271-.6729-1.5-1.5-1.5ZM25,29H7V11h18v18Z"/><path class="uuid-c244372c-6732-4ee5-bf67-c246011e3a58" d="M8,7h16c.5522,0,1-.4478,1-1s-.4478-1-1-1H8c-.5522,0-1,.4478-1,1s.4478,1,1,1Z"/><path class="uuid-c244372c-6732-4ee5-bf67-c246011e3a58" d="M10,3h12c.5522,0,1-.4478,1-1s-.4478-1-1-1h-12c-.5522,0-1,.4478-1,1s.4478,1,1,1Z"/></g></svg>