<?xml version="1.0" encoding="UTF-8"?><svg xmlns="http://www.w3.org/2000/svg" width="32" height="32" viewBox="0 0 32 32"><defs><style>.uuid-95f713e6-73f7-48a1-b6f9-8a0221841eb2{fill:none;}.uuid-2d7aa547-89e1-4da6-a4c9-c02aca989d9c{fill:#151515;}</style></defs><g id="uuid-78a797a6-7905-4d49-8164-6f2e0487462a"><rect class="uuid-95f713e6-73f7-48a1-b6f9-8a0221841eb2" width="32" height="32"/></g><g id="uuid-a529d71e-7837-4983-b85d-2a85753c0e3e"><path class="uuid-2d7aa547-89e1-4da6-a4c9-c02aca989d9c" d="M28.5,11H3.5c-.82715,0-1.5.67285-1.5,1.5v17c0,.82715.67285,1.5,1.5,1.5h25c.82715,0,1.5-.67285,1.5-1.5V12.5c0-.82715-.67285-1.5-1.5-1.5ZM28,29H4V13h24v16Z"/><path class="uuid-2d7aa547-89e1-4da6-a4c9-c02aca989d9c" d="M7,3h18c.55225,0,1-.44775,1-1s-.44775-1-1-1H7c-.55225,0-1,.44775-1,1s.44775,1,1,1Z"/><path class="uuid-2d7aa547-89e1-4da6-a4c9-c02aca989d9c" d="M5,8h22c.55225,0,1-.44775,1-1s-.44775-1-1-1H5c-.55225,0-1,.44775-1,1s.44775,1,1,1Z"/></g></svg>