<?xml version="1.0" encoding="UTF-8"?><svg xmlns="http://www.w3.org/2000/svg" width="32" height="32" viewBox="0 0 32 32"><defs><style>.uuid-c0ff47a9-f302-4dc8-ba93-bd172c469ee0{fill:none;}.uuid-b2d78836-d390-4105-bdf3-8235cd1aff4e{fill:#151515;}</style></defs><g id="uuid-2b289c07-b2de-47c6-bac1-e4c337e86242"><rect class="uuid-c0ff47a9-f302-4dc8-ba93-bd172c469ee0" width="32" height="32"/></g><g id="uuid-7dbc91bb-e8fb-47e6-8a5b-03ee0514bcbf"><path class="uuid-b2d78836-d390-4105-bdf3-8235cd1aff4e" d="M31,8.875v-4.375c0-.82715-.67285-1.5-1.5-1.5H2.5c-.82715,0-1.5.67285-1.5,1.5v4.375h30Z"/><path class="uuid-b2d78836-d390-4105-bdf3-8235cd1aff4e" d="M1,11.125v16.375c0,.82715.67285,1.5,1.5,1.5h27c.82715,0,1.5-.67285,1.5-1.5V11.125H1ZM17.125,25c0,.62109-.50391,1.125-1.125,1.125s-1.125-.50391-1.125-1.125v-10c0-.62109.50391-1.125,1.125-1.125s1.125.50391,1.125,1.125v10Z"/></g></svg>