<?xml version="1.0" encoding="UTF-8"?><svg xmlns="http://www.w3.org/2000/svg" width="32" height="32" viewBox="0 0 32 32"><defs><style>.uuid-9d40cac8-31c2-4a10-a840-f7a648fa9542{fill:none;}.uuid-2cac9e06-f65b-488e-a40f-33406ee6c6da{fill:#151515;}</style></defs><g id="uuid-d4075094-6f86-4898-ba17-e8bc016f0a10"><rect class="uuid-9d40cac8-31c2-4a10-a840-f7a648fa9542" width="32" height="32"/></g><g id="uuid-4afe17af-aa17-438e-8bf6-18f05c30ff67"><path class="uuid-2cac9e06-f65b-488e-a40f-33406ee6c6da" d="M16,25c.55225,0,1-.44727,1-1v-10c0-.55273-.44775-1-1-1s-1,.44727-1,1v10c0,.55273.44775,1,1,1Z"/><path class="uuid-2cac9e06-f65b-488e-a40f-33406ee6c6da" d="M29.5,3H2.5c-.82715,0-1.5.67285-1.5,1.5v23c0,.82715.67285,1.5,1.5,1.5h27c.82715,0,1.5-.67285,1.5-1.5V4.5c0-.82715-.67285-1.5-1.5-1.5ZM29,27H3V11h26v16Z"/></g></svg>