<?xml version="1.0" encoding="UTF-8"?><svg xmlns="http://www.w3.org/2000/svg" width="32" height="32" viewBox="0 0 32 32"><defs><style>.uuid-8a509a49-2dfc-4e2d-ad4a-53374e16fca6{fill:none;}.uuid-a4c15c4c-1026-439c-9b1d-2dd9c8a19690{fill:#151515;}</style></defs><g id="uuid-7d5ae289-7121-415d-8593-4f63892887b4"><rect class="uuid-8a509a49-2dfc-4e2d-ad4a-53374e16fca6" width="32" height="32"/></g><g id="uuid-fd6125cc-8f81-41cb-afa5-5dcf643f8c47"><path class="uuid-a4c15c4c-1026-439c-9b1d-2dd9c8a19690" d="M21.71582,17.125l3.07959,3.07959c.43945.43945.43945,1.15137,0,1.59082-.21973.21973-.50732.32959-.79541.32959s-.57568-.10986-.79541-.32959l-4.64648-4.64648c-.63379-.6333-.63379-1.66455,0-2.29785l4.64648-4.64648c.43945-.43945,1.15137-.43945,1.59082,0s.43945,1.15137,0,1.59082l-3.07959,3.07959h8.28418V3.5c0-.82715-.67285-1.5-1.5-1.5H3.5c-.82715,0-1.5.67285-1.5,1.5v11.375h8.28418l-3.07959-3.07959c-.43945-.43945-.43945-1.15137,0-1.59082s1.15137-.43945,1.59082,0l4.64648,4.64648c.63379.6333.63379,1.66455,0,2.29785l-4.64648,4.64648c-.21973.21973-.50732.32959-.79541.32959s-.57568-.10986-.79541-.32959c-.43945-.43945-.43945-1.15137,0-1.59082l3.07959-3.07959H2v11.375c0,.82715.67285,1.5,1.5,1.5h25c.82715,0,1.5-.67285,1.5-1.5v-11.375h-8.28418Z"/></g></svg>