<?xml version="1.0" encoding="UTF-8"?><svg xmlns="http://www.w3.org/2000/svg" viewBox="0 0 32 32"><defs><style>.uuid-111a3d82-d7df-4345-bd8a-ff3379d1481a{fill:none;}.uuid-111a3d82-d7df-4345-bd8a-ff3379d1481a,.uuid-1af2c6b6-8cbe-4778-86f7-790c3f0c10e8{stroke-width:0px;}.uuid-1af2c6b6-8cbe-4778-86f7-790c3f0c10e8{fill:#151515;}</style></defs><g id="uuid-41dc882e-021b-43ae-85df-f87ce224243a"><rect class="uuid-111a3d82-d7df-4345-bd8a-ff3379d1481a" x="0" width="32" height="32"/></g><g id="uuid-df860960-805e-46d6-8958-a3d87dff3560"><path class="uuid-1af2c6b6-8cbe-4778-86f7-790c3f0c10e8" d="M2,12c.5522,0,1-.4478,1-1V3h8c.5522,0,1-.4478,1-1s-.4478-1-1-1H2.5c-.8271,0-1.5.6729-1.5,1.5v8.5c0,.5522.4478,1,1,1Z"/><path class="uuid-1af2c6b6-8cbe-4778-86f7-790c3f0c10e8" d="M11,29H3v-8c0-.5522-.4478-1-1-1s-1,.4478-1,1v8.5c0,.8271.6729,1.5,1.5,1.5h8.5c.5522,0,1-.4478,1-1s-.4478-1-1-1Z"/><path class="uuid-1af2c6b6-8cbe-4778-86f7-790c3f0c10e8" d="M30,20c-.5522,0-1,.4478-1,1v8h-8c-.5522,0-1,.4478-1,1s.4478,1,1,1h8.5c.8271,0,1.5-.6729,1.5-1.5v-8.5c0-.5522-.4478-1-1-1Z"/><path class="uuid-1af2c6b6-8cbe-4778-86f7-790c3f0c10e8" d="M21,3h8v8c0,.5522.4478,1,1,1s1-.4478,1-1V2.5c0-.8271-.6729-1.5-1.5-1.5h-8.5c-.5522,0-1,.4478-1,1s.4478,1,1,1Z"/><path class="uuid-1af2c6b6-8cbe-4778-86f7-790c3f0c10e8" d="M9.707,10.293c-.3906-.3906-1.0234-.3906-1.4141,0s-.3906,1.0234,0,1.4141l3.293,3.293H1c-.5522,0-1,.4478-1,1s.4478,1,1,1h10.5859l-3.293,3.293c-.3906.3906-.3906,1.0234,0,1.4141.1953.1953.4512.293.707.293s.5117-.0977.707-.293l4.6465-4.6465c.585-.585.585-1.5361,0-2.1211l-4.6465-4.6465Z"/><path class="uuid-1af2c6b6-8cbe-4778-86f7-790c3f0c10e8" d="M31,15h-10.5859l3.293-3.293c.3906-.3906.3906-1.0234,0-1.4141s-1.0234-.3906-1.4141,0l-4.6465,4.6465c-.585.585-.585,1.5361,0,2.1211l4.6465,4.6465c.1953.1953.4512.293.707.293s.5117-.0977.707-.293c.3906-.3906.3906-1.0234,0-1.4141l-3.293-3.293h10.5859c.5522,0,1-.4478,1-1s-.4478-1-1-1Z"/></g></svg>