<?xml version="1.0" encoding="UTF-8"?><svg xmlns="http://www.w3.org/2000/svg" viewBox="0 0 32 32"><defs><style>.uuid-b347f7f6-28a0-410f-8453-0b94caa38ad5{fill:none;}.uuid-b347f7f6-28a0-410f-8453-0b94caa38ad5,.uuid-3a4554ce-8cd9-4406-b76a-dc11d4731f54{stroke-width:0px;}.uuid-3a4554ce-8cd9-4406-b76a-dc11d4731f54{fill:#151515;}</style></defs><g id="uuid-68b36438-ac2e-4183-9d98-ccc1258349b0"><rect class="uuid-b347f7f6-28a0-410f-8453-0b94caa38ad5" x="0" width="32" height="32"/></g><g id="uuid-ac3f2bfa-8867-4c75-9e89-b2c8144bf8a4"><path class="uuid-3a4554ce-8cd9-4406-b76a-dc11d4731f54" d="M24.707,20.293c.3906.3906.3906,1.0234,0,1.4141-.1953.1953-.4512.293-.707.293s-.5117-.0977-.707-.293l-4.6465-4.6465c-.585-.585-.585-1.5361,0-2.1211l4.6465-4.6465c.3906-.3906,1.0234-.3906,1.4141,0s.3906,1.0234,0,1.4141l-3.293,3.293h9.5859V2.5c0-.8271-.6729-1.5-1.5-1.5H2.5c-.8271,0-1.5.6729-1.5,1.5v12.5h9.5859l-3.293-3.293c-.3906-.3906-.3906-1.0234,0-1.4141s1.0234-.3906,1.4141,0l4.6465,4.6465c.585.585.585,1.5361,0,2.1211l-4.6465,4.6465c-.1953.1953-.4512.293-.707.293s-.5117-.0977-.707-.293c-.3906-.3906-.3906-1.0234,0-1.4141l3.293-3.293H1v12.5c0,.8271.6729,1.5,1.5,1.5h27c.8271,0,1.5-.6729,1.5-1.5v-12.5h-9.5859l3.293,3.293Z"/></g></svg>