<?xml version="1.0" encoding="UTF-8"?><svg xmlns="http://www.w3.org/2000/svg" width="32" height="32" viewBox="0 0 32 32"><defs><style>.uuid-cebac518-d251-479a-b5b5-028793193ebd{fill:none;}.uuid-2241f938-4d9b-4aa5-9ebd-361c28ab0c19{fill:#151515;}</style></defs><g id="uuid-c1f3c60b-3e99-4d6a-9bea-d1890c9a057c"><rect class="uuid-cebac518-d251-479a-b5b5-028793193ebd" width="32" height="32"/></g><g id="uuid-72851bcc-b498-4838-90a8-b8cf62f84b1a"><path class="uuid-2241f938-4d9b-4aa5-9ebd-361c28ab0c19" d="M22,4h6v6c0,.55225.44775,1,1,1s1-.44775,1-1V3.5c0-.82715-.67285-1.5-1.5-1.5h-6.5c-.55225,0-1,.44775-1,1s.44775,1,1,1Z"/><path class="uuid-2241f938-4d9b-4aa5-9ebd-361c28ab0c19" d="M3,11c.55225,0,1-.44775,1-1v-6h6c.55225,0,1-.44775,1-1s-.44775-1-1-1H3.5c-.82715,0-1.5.67285-1.5,1.5v6.5c0,.55225.44775,1,1,1Z"/><path class="uuid-2241f938-4d9b-4aa5-9ebd-361c28ab0c19" d="M10,28h-6v-6c0-.55225-.44775-1-1-1s-1,.44775-1,1v6.5c0,.82715.67285,1.5,1.5,1.5h6.5c.55225,0,1-.44775,1-1s-.44775-1-1-1Z"/><path class="uuid-2241f938-4d9b-4aa5-9ebd-361c28ab0c19" d="M29,21c-.55225,0-1,.44775-1,1v6h-6c-.55225,0-1,.44775-1,1s.44775,1,1,1h6.5c.82715,0,1.5-.67285,1.5-1.5v-6.5c0-.55225-.44775-1-1-1Z"/><path class="uuid-2241f938-4d9b-4aa5-9ebd-361c28ab0c19" d="M30,15h-9.58594l3.29297-3.29297c.39062-.39062.39062-1.02344,0-1.41406s-1.02344-.39062-1.41406,0l-4.64648,4.64648c-.58496.58496-.58496,1.53613,0,2.12109l4.64648,4.64648c.19531.19531.45117.29297.70703.29297s.51172-.09766.70703-.29297c.39062-.39062.39062-1.02344,0-1.41406l-3.29297-3.29297h9.58594c.55225,0,1-.44775,1-1s-.44775-1-1-1Z"/><path class="uuid-2241f938-4d9b-4aa5-9ebd-361c28ab0c19" d="M9.70703,10.29297c-.39062-.39062-1.02344-.39062-1.41406,0s-.39062,1.02344,0,1.41406l3.29297,3.29297H2c-.55225,0-1,.44775-1,1s.44775,1,1,1h9.58594l-3.29297,3.29297c-.39062.39062-.39062,1.02344,0,1.41406.19531.19531.45117.29297.70703.29297s.51172-.09766.70703-.29297l4.64648-4.64648c.58496-.58496.58496-1.53613,0-2.12109l-4.64648-4.64648Z"/></g></svg>