<?xml version="1.0" encoding="UTF-8"?><svg xmlns="http://www.w3.org/2000/svg" width="32" height="32" viewBox="0 0 32 32"><defs><style>.uuid-0aa1a990-4cca-488b-b985-e32fad410040{fill:none;}.uuid-0203c4c0-8d51-483b-a6d6-5d868bebedf7{fill:#151515;}</style></defs><g id="uuid-d14b88ba-afba-4d1f-8fed-49f33a2e0f0a"><rect class="uuid-0aa1a990-4cca-488b-b985-e32fad410040" width="32" height="32"/></g><g id="uuid-7b8527ac-89de-4bb2-9730-7cdaf9201ce2"><path class="uuid-0203c4c0-8d51-483b-a6d6-5d868bebedf7" d="M29.5,4H2.5c-.82715,0-1.5.67285-1.5,1.5v16c0,.82715.67285,1.5,1.5,1.5h5.5v6c0,.4043.24365.76904.61719.92383.12402.05127.25391.07617.38281.07617.26025,0,.51562-.10156.70703-.29297l6.70703-6.70703h13.08594c.82715,0,1.5-.67285,1.5-1.5V5.5c0-.82715-.67285-1.5-1.5-1.5ZM29,21h-13c-.26514,0-.51953.10547-.70703.29297l-5.29297,5.29297v-4.08594c0-.82715-.67285-1.5-1.5-1.5H3V6h26v15Z"/></g></svg>