<?xml version="1.0" encoding="UTF-8"?><svg xmlns="http://www.w3.org/2000/svg" viewBox="0 0 32 32"><defs><style>.uuid-b5e08cef-ddc4-4258-bc3c-1e2863704a78{fill:none;}.uuid-b5e08cef-ddc4-4258-bc3c-1e2863704a78,.uuid-7f54f02f-a82d-4286-ab45-6e454e2709d6{stroke-width:0px;}.uuid-7f54f02f-a82d-4286-ab45-6e454e2709d6{fill:#151515;}</style></defs><g id="uuid-8c72dcb5-6207-4511-bcdd-9be80b613164"><rect class="uuid-b5e08cef-ddc4-4258-bc3c-1e2863704a78" x="0" width="32" height="32"/></g><g id="uuid-2d7fcd6f-28f2-4801-8b9b-6fc82fe5ff9e"><path class="uuid-7f54f02f-a82d-4286-ab45-6e454e2709d6" d="M9,30c-.1289,0-.2588-.0249-.3828-.0762-.3735-.1548-.6172-.5195-.6172-.9238v-6H2.5c-.8271,0-1.5-.6729-1.5-1.5V5.5c0-.8271.6729-1.5,1.5-1.5h27c.8271,0,1.5.6729,1.5,1.5v16c0,.8271-.6729,1.5-1.5,1.5h-13.0859l-6.707,6.707c-.1914.1914-.4468.293-.707.293ZM3,21h6c.5522,0,1,.4478,1,1v4.5859l5.293-5.293c.1875-.1875.4419-.293.707-.293h13V6H3v15Z"/></g></svg>