<?xml version="1.0" encoding="UTF-8"?><svg xmlns="http://www.w3.org/2000/svg" width="32" height="32" viewBox="0 0 32 32"><defs><style>.uuid-86119d1a-e60a-4e50-a4d1-c5f82d0da5a6{fill:none;}.uuid-8038a17c-5090-4454-ae99-0d7e7996831c{fill:#151515;}</style></defs><g id="uuid-bc06245b-d408-4be5-8290-855919ed37bf"><rect class="uuid-86119d1a-e60a-4e50-a4d1-c5f82d0da5a6" width="32" height="32"/></g><g id="uuid-87af67cc-f686-4145-8d7b-3f7c32cdfc00"><path class="uuid-8038a17c-5090-4454-ae99-0d7e7996831c" d="M21,15.25c.55273,0,1-.44727,1-1V2.71387c0-.55273-.44727-1-1-1H2c-.55273,0-1,.44727-1,1v11.53613c0,.55273.44727,1,1,1h4v3.75c0,.41992.2627.79492.65723.93945.1123.04102.22754.06055.34277.06055.28906,0,.57129-.12598.76465-.35547l3.7002-4.39453h9.53516ZM10.23535,13.60547l-2.23535,2.6543v-2.00977c0-.55273-.44727-1-1-1H3V3.71387h17v9.53613h-9c-.29492,0-.5752.12988-.76465.35547Z"/><path class="uuid-8038a17c-5090-4454-ae99-0d7e7996831c" d="M30,12h-4c-.55273,0-1,.44727-1,1s.44727,1,1,1h3v9.54004h-4c-.55273,0-1,.44727-1,1v2.00977l-2.23535-2.6543c-.18945-.22559-.46973-.35547-.76465-.35547h-9v-2.54004c0-.55273-.44727-1-1-1s-1,.44727-1,1v3.54004c0,.55273.44727,1,1,1h9.53516l3.7002,4.39453c.19336.22949.47559.35547.76465.35547.11523,0,.23047-.01953.34277-.06055.39453-.14453.65723-.51953.65723-.93945v-3.75h4c.55273,0,1-.44727,1-1v-11.54004c0-.55273-.44727-1-1-1Z"/></g></svg>