<?xml version="1.0" encoding="UTF-8"?><svg xmlns="http://www.w3.org/2000/svg" width="32" height="32" viewBox="0 0 32 32"><defs><style>.uuid-30f0199d-6c6b-44f4-b1b9-a0a1182b4d2d{fill:none;}.uuid-0ab6b958-f6be-4a58-9ee2-9778bf737b5e{fill:#151515;}</style></defs><g id="uuid-10dfe05a-1808-4b6f-af55-74be428b92f2"><rect class="uuid-30f0199d-6c6b-44f4-b1b9-a0a1182b4d2d" width="32" height="32"/></g><g id="uuid-fcd4e1eb-62f5-4f9d-98c4-c757252b7f0a"><path class="uuid-0ab6b958-f6be-4a58-9ee2-9778bf737b5e" d="M21,15.25c.55273,0,1-.44727,1-1V2.71387c0-.55273-.44727-1-1-1H2c-.55273,0-1,.44727-1,1v11.53613c0,.55273.44727,1,1,1h4v3.75c0,.41992.2627.79492.65723.93945.1123.04102.22754.06055.34277.06055.28906,0,.57129-.12598.76465-.35547l3.7002-4.39453h9.53516Z"/><path class="uuid-0ab6b958-f6be-4a58-9ee2-9778bf737b5e" d="M30,12h-4c-.55273,0-1,.44727-1,1v4c0,.55176-.44824,1-1,1h-11c-.26562,0-.51953.10547-.70703.29297l-2,2c-.1875.1875-.29297.44141-.29297.70703v3.54004c0,.55273.44727,1,1,1h9.53516l3.7002,4.39453c.19336.22949.47559.35547.76465.35547.11523,0,.23047-.01953.34277-.06055.39453-.14453.65723-.51953.65723-.93945v-3.75h4c.55273,0,1-.44727,1-1v-11.54004c0-.55273-.44727-1-1-1Z"/></g></svg>