<?xml version="1.0" encoding="UTF-8"?><svg xmlns="http://www.w3.org/2000/svg" viewBox="0 0 32 32"><defs><style>.uuid-f10d699c-6656-4bf0-b3b5-4d21ca948bdc{fill:none;}.uuid-f10d699c-6656-4bf0-b3b5-4d21ca948bdc,.uuid-ad12572d-c8db-4198-b43c-143f1b291ba9{stroke-width:0px;}.uuid-ad12572d-c8db-4198-b43c-143f1b291ba9{fill:#151515;}</style></defs><g id="uuid-5abdebe4-fabc-47a5-98e7-5ff0d1d992cd"><rect class="uuid-f10d699c-6656-4bf0-b3b5-4d21ca948bdc" x="0" width="32" height="32"/></g><g id="uuid-a6e4bf4e-927e-4f2b-a7d4-0ad05115b69c"><path class="uuid-ad12572d-c8db-4198-b43c-143f1b291ba9" d="M11,1c-.5522,0-1,.4478-1,1v8H2c-.5522,0-1,.4478-1,1s.4478,1,1,1h8.5c.8271,0,1.5-.6729,1.5-1.5V2c0-.5522-.4478-1-1-1Z"/><path class="uuid-ad12572d-c8db-4198-b43c-143f1b291ba9" d="M10.5,20H2c-.5522,0-1,.4478-1,1s.4478,1,1,1h8v8c0,.5522.4478,1,1,1s1-.4478,1-1v-8.5c0-.8271-.6729-1.5-1.5-1.5Z"/><path class="uuid-ad12572d-c8db-4198-b43c-143f1b291ba9" d="M30,20h-8.5c-.8271,0-1.5.6729-1.5,1.5v8.5c0,.5522.4478,1,1,1s1-.4478,1-1v-8h8c.5522,0,1-.4478,1-1s-.4478-1-1-1Z"/><path class="uuid-ad12572d-c8db-4198-b43c-143f1b291ba9" d="M21.5,12h8.5c.5522,0,1-.4478,1-1s-.4478-1-1-1h-8V2c0-.5522-.4478-1-1-1s-1,.4478-1,1v8.5c0,.8271.6729,1.5,1.5,1.5Z"/></g></svg>