<?xml version="1.0" encoding="UTF-8"?><svg xmlns="http://www.w3.org/2000/svg" width="32" height="32" viewBox="0 0 32 32"><defs><style>.uuid-7550a524-b0c1-43dd-8659-e35ce486a805{fill:none;}.uuid-e4cc4603-3806-4caf-9d66-d26a5207a850{fill:#151515;}</style></defs><g id="uuid-3fa6d430-6264-432d-b11f-ecad4d46c4d8"><rect class="uuid-7550a524-b0c1-43dd-8659-e35ce486a805" width="32" height="32"/></g><g id="uuid-dd564462-d2b8-4abe-82db-f86445a7e8d7"><path class="uuid-e4cc4603-3806-4caf-9d66-d26a5207a850" d="M8.875,10c0-.14105.01672-.27783.02118-.41785-4.48798,1.33978-7.77118,5.50012-7.77118,10.41785,0,5.99658,4.87842,10.875,10.875,10.875,4.91772,0,9.07806-3.2832,10.41785-7.77118-.14001.00446-.27679.02118-.41785.02118-7.2373,0-13.125-5.8877-13.125-13.125Z"/><path class="uuid-e4cc4603-3806-4caf-9d66-d26a5207a850" d="M20.80591,20.80591c-.55383-5.04376-4.56805-9.05798-9.61182-9.61182.55383,5.04376,4.56805,9.05798,9.61182,9.61182Z"/><path class="uuid-e4cc4603-3806-4caf-9d66-d26a5207a850" d="M20,1.125c-4.91772,0-9.07806,3.2832-10.41785,7.77118.14001-.00446.27679-.02118.41785-.02118,7.2373,0,13.125,5.8877,13.125,13.125,0,.14105-.01672.27783-.02118.41785,4.48798-1.33978,7.77118-5.50012,7.77118-10.41785,0-5.99658-4.87842-10.875-10.875-10.875Z"/></g></svg>