<?xml version="1.0" encoding="UTF-8"?><svg xmlns="http://www.w3.org/2000/svg" viewBox="0 0 32 32"><defs><style>.uuid-c5d7978c-19bc-487c-ba87-4df0cd877a19{fill:none;}.uuid-c5d7978c-19bc-487c-ba87-4df0cd877a19,.uuid-ba03d932-7c28-4093-9eac-702b5a86e0e6{stroke-width:0px;}.uuid-ba03d932-7c28-4093-9eac-702b5a86e0e6{fill:#151515;}</style></defs><g id="uuid-183deda5-fc48-44a9-b224-f25430e29452"><rect class="uuid-c5d7978c-19bc-487c-ba87-4df0cd877a19" x="0" width="32" height="32"/></g><g id="uuid-782a7a23-8f9c-494a-88c2-426028b903c0"><path class="uuid-ba03d932-7c28-4093-9eac-702b5a86e0e6" d="M21.3999,24.2002c-7.499,0-13.6001-6.1016-13.6001-13.6006,0-.3151.0182-.6453.0471-.9916C3.2935,11.1393,0,15.4373,0,20.5c0,6.3408,5.1587,11.5,11.5,11.5,5.0627,0,9.3604-3.2935,10.8918-7.8464-.3454.0287-.6755.0466-.9919.0466Z"/><path class="uuid-ba03d932-7c28-4093-9eac-702b5a86e0e6" d="M21.3999,22.2002c.2451,0,.4976-.0098.7686-.0312.0215-.2725.0317-.5244.0317-.7686,0-6.3965-5.2036-11.6006-11.6001-11.6006-.2451,0-.4976.0098-.7686.0312-.0215.2725-.0317.5244-.0317.7686,0,6.3965,5.2036,11.6006,11.6001,11.6006Z"/><path class="uuid-ba03d932-7c28-4093-9eac-702b5a86e0e6" d="M20.5,0c-5.0627,0-9.3604,3.2935-10.8918,7.8464.3454-.0287.6755-.0466.9919-.0466,7.499,0,13.6001,6.1016,13.6001,13.6006,0,.3151-.0182.6453-.0471.9916,4.5535-1.5313,7.8469-5.8293,7.8469-10.892,0-6.3408-5.1587-11.5-11.5-11.5Z"/></g></svg>