<?xml version="1.0" encoding="UTF-8"?><svg xmlns="http://www.w3.org/2000/svg" width="32" height="32" viewBox="0 0 32 32"><defs><style>.uuid-3ef2b86d-3b1e-43d1-b15b-0e8183274e87{fill:none;}.uuid-159b4053-96e9-4929-a537-0c6c61b60897{fill:#151515;}</style></defs><g id="uuid-608d725d-a4eb-4582-87d2-fe3a5846d9af"><rect class="uuid-3ef2b86d-3b1e-43d1-b15b-0e8183274e87" width="32" height="32"/></g><g id="uuid-752682e2-7e80-43f9-b1ba-0d9cabd63404"><path class="uuid-159b4053-96e9-4929-a537-0c6c61b60897" d="M20,1c-5.14642,0-9.46625,3.55743-10.66095,8.33905C4.55743,10.53375,1,14.85358,1,20c0,6.06543,4.93457,11,11,11,5.14642,0,9.46625-3.55743,10.66095-8.33905,4.78162-1.1947,8.33905-5.51453,8.33905-10.66095,0-6.06543-4.93457-11-11-11ZM12,29c-4.9624,0-9-4.0376-9-9,0-3.91852,2.52203-7.25128,6.02454-8.48383-.00708.16162-.02454.3205-.02454.48383,0,6.06543,4.93457,11,11,11,.16333,0,.3222-.01746.48383-.02454-1.23254,3.5025-4.56531,6.02454-8.48383,6.02454ZM20.94885,20.94885c-.31201.03284-.6283.05115-.94885.05115-4.9624,0-9-4.0376-9-9,0-.32056.01831-.63684.05115-.94885.31201-.03284.6283-.05115.94885-.05115,4.9624,0,9,4.0376,9,9,0,.32056-.01831.63684-.05115.94885ZM22.97546,20.48383c.00708-.16162.02454-.3205.02454-.48383,0-6.06543-4.93457-11-11-11-.16333,0-.3222.01746-.48383.02454,1.23254-3.5025,4.56531-6.02454,8.48383-6.02454,4.9624,0,9,4.0376,9,9,0,3.91852-2.52203,7.25128-6.02454,8.48383Z"/></g></svg>