<?xml version="1.0" encoding="UTF-8"?><svg xmlns="http://www.w3.org/2000/svg" width="32" height="32" viewBox="0 0 32 32"><defs><style>.uuid-57919e4d-5209-4d9c-a8f9-1bc8b1bb1b5a{fill:none;}.uuid-ca39ba9a-50f4-4cf9-a835-faf8aa8d9d6a{fill:#151515;}</style></defs><g id="uuid-2f3c748d-e7c6-4aea-b3c5-0311a82418a9"><rect class="uuid-57919e4d-5209-4d9c-a8f9-1bc8b1bb1b5a" width="32" height="32"/></g><g id="uuid-f4ee2f14-b1df-4b6d-841e-85faeb918919"><path class="uuid-ca39ba9a-50f4-4cf9-a835-faf8aa8d9d6a" d="M22.5,11h6.5c.55273,0,1-.44775,1-1s-.44727-1-1-1h-6V3c0-.55225-.44727-1-1-1s-1,.44775-1,1v6.5c0,.82715.67285,1.5,1.5,1.5Z"/><path class="uuid-ca39ba9a-50f4-4cf9-a835-faf8aa8d9d6a" d="M10,2c-.55273,0-1,.44775-1,1v6H3c-.55273,0-1,.44775-1,1s.44727,1,1,1h6.5c.82715,0,1.5-.67285,1.5-1.5V3c0-.55225-.44727-1-1-1Z"/><path class="uuid-ca39ba9a-50f4-4cf9-a835-faf8aa8d9d6a" d="M9.5,21H3c-.55273,0-1,.44775-1,1s.44727,1,1,1h6v6c0,.55225.44727,1,1,1s1-.44775,1-1v-6.5c0-.82715-.67285-1.5-1.5-1.5Z"/><path class="uuid-ca39ba9a-50f4-4cf9-a835-faf8aa8d9d6a" d="M29,21h-6.5c-.82715,0-1.5.67285-1.5,1.5v6.5c0,.55225.44727,1,1,1s1-.44775,1-1v-6h6c.55273,0,1-.44775,1-1s-.44727-1-1-1Z"/></g></svg>