<?xml version="1.0" encoding="UTF-8"?><svg xmlns="http://www.w3.org/2000/svg" width="32" height="32" viewBox="0 0 32 32"><defs><style>.uuid-4d7f295c-1a5f-4a22-af14-a03c75d0c691{fill:none;}.uuid-5acdac80-7da9-4949-affd-d37f0820b064{fill:#151515;}</style></defs><g id="uuid-d2eb23bc-60e8-45e2-afde-9ca8d779d70d"><rect class="uuid-4d7f295c-1a5f-4a22-af14-a03c75d0c691" width="32" height="32"/></g><g id="uuid-0f07325a-a470-419d-be19-24859dc9c1e7"><circle class="uuid-5acdac80-7da9-4949-affd-d37f0820b064" cx="16" cy="16" r="3"/><path class="uuid-5acdac80-7da9-4949-affd-d37f0820b064" d="M3,16c0-3.47217,1.35254-6.73682,3.80762-9.19238.39062-.39062.39062-1.02344,0-1.41406s-1.02344-.39062-1.41406,0c-2.83301,2.83301-4.39355,6.59961-4.39355,10.60645s1.56055,7.77344,4.39355,10.60645c.19531.19531.45117.29297.70703.29297s.51172-.09766.70703-.29297c.39062-.39062.39062-1.02344,0-1.41406-2.45508-2.45557-3.80762-5.72021-3.80762-9.19238Z"/><path class="uuid-5acdac80-7da9-4949-affd-d37f0820b064" d="M26.60645,5.39355c-.39062-.39062-1.02344-.39062-1.41406,0s-.39062,1.02344,0,1.41406c2.45508,2.45557,3.80762,5.72021,3.80762,9.19238s-1.35254,6.73682-3.80762,9.19238c-.39062.39062-.39062,1.02344,0,1.41406.19531.19531.45117.29297.70703.29297s.51172-.09766.70703-.29297c2.83301-2.83301,4.39355-6.59961,4.39355-10.60645s-1.56055-7.77344-4.39355-10.60645Z"/><path class="uuid-5acdac80-7da9-4949-affd-d37f0820b064" d="M11.0498,9.63623c-.39062-.39062-1.02344-.39062-1.41406,0-3.50879,3.50879-3.50879,9.21875,0,12.72754.19531.19531.45117.29297.70703.29297s.51172-.09766.70703-.29297c.39062-.39062.39062-1.02344,0-1.41406-2.72949-2.72949-2.72949-7.16992,0-9.89941.39062-.39062.39062-1.02344,0-1.41406Z"/><path class="uuid-5acdac80-7da9-4949-affd-d37f0820b064" d="M22.36426,9.63623c-.39062-.39062-1.02344-.39062-1.41406,0s-.39062,1.02344,0,1.41406c2.72949,2.72949,2.72949,7.16992,0,9.89941-.39062.39062-.39062,1.02344,0,1.41406.19531.19531.45117.29297.70703.29297s.51172-.09766.70703-.29297c3.50879-3.50879,3.50879-9.21875,0-12.72754Z"/></g></svg>