<svg xmlns="http://www.w3.org/2000/svg" viewBox="0 0 32 32">
  <defs>
    <style>
      .uuid-db5dab64-cb82-4302-8aee-244cf0ffa467{stroke-width:0;fill:#151515}
    </style>
  </defs>
  <path d="M0 0h32v32H0z" id="uuid-cb49e17f-f1d7-467e-8441-57f661b8eeb7" stroke-width="0" fill="none"/>
  <g id="uuid-0144a5fc-f29e-46c7-9557-95f9a6c1acab">
    <circle class="uuid-db5dab64-cb82-4302-8aee-244cf0ffa467" cx="16" cy="16" r="4"/>
    <path class="uuid-db5dab64-cb82-4302-8aee-244cf0ffa467" d="M27.314 4.686a1 1 0 1 0-1.415 1.415C28.544 8.744 30 12.26 30 16s-1.456 7.256-4.1 9.9a1 1 0 1 0 1.413 1.414C30.336 24.293 32 20.274 32 16s-1.664-8.293-4.687-11.313Z"/>
    <path class="uuid-db5dab64-cb82-4302-8aee-244cf0ffa467" d="M23.071 8.929a1 1 0 1 0-1.414 1.414C23.167 11.854 24 13.863 24 16s-.832 4.145-2.343 5.657a1 1 0 1 0 1.414 1.414C24.96 21.181 26 18.67 26 16s-1.04-5.182-2.929-7.071Zm-12.728 0a1 1 0 0 0-1.414 0C7.04 10.819 6 13.33 6 16s1.04 5.182 2.929 7.071a.997.997 0 0 0 1.414 0 1 1 0 0 0 0-1.414C8.832 20.145 8 18.137 8 16s.832-4.146 2.343-5.657a1 1 0 0 0 0-1.414Z"/>
    <path class="uuid-db5dab64-cb82-4302-8aee-244cf0ffa467" d="M2 16c0-3.74 1.456-7.256 4.1-9.9a1 1 0 1 0-1.413-1.413C1.664 7.707 0 11.726 0 16s1.664 8.293 4.686 11.313a.997.997 0 0 0 1.414 0 1 1 0 0 0 0-1.414A13.905 13.905 0 0 1 2 16Z"/>
  </g>
</svg>
