<?xml version="1.0" encoding="UTF-8"?><svg xmlns="http://www.w3.org/2000/svg" viewBox="0 0 32 32"><defs><style>.uuid-90c1f526-9633-4429-a2c1-b431ed13a8b3{fill:none;}.uuid-90c1f526-9633-4429-a2c1-b431ed13a8b3,.uuid-db5dab64-cb82-4302-8aee-244cf0ffa467{stroke-width:0px;}.uuid-db5dab64-cb82-4302-8aee-244cf0ffa467{fill:#151515;}</style></defs><g id="uuid-cb49e17f-f1d7-467e-8441-57f661b8eeb7"><rect class="uuid-90c1f526-9633-4429-a2c1-b431ed13a8b3" width="32" height="32"/></g><g id="uuid-0144a5fc-f29e-46c7-9557-95f9a6c1acab"><circle class="uuid-db5dab64-cb82-4302-8aee-244cf0ffa467" cx="16" cy="16" r="4"/><path class="uuid-db5dab64-cb82-4302-8aee-244cf0ffa467" d="M27.3135,4.6865c-.3906-.3906-1.0234-.3906-1.4141,0s-.3906,1.0234,0,1.4141c2.6445,2.6436,4.1006,6.1592,4.1006,9.8994s-1.4561,7.2559-4.1006,9.8994c-.3906.3906-.3906,1.0234,0,1.4141.1953.1953.4512.293.707.293s.5117-.0977.707-.293c3.0225-3.0205,4.6865-7.0391,4.6865-11.3135s-1.6641-8.293-4.6865-11.3135Z"/><path class="uuid-db5dab64-cb82-4302-8aee-244cf0ffa467" d="M23.0713,8.9287c-.3906-.3906-1.0234-.3906-1.4141,0-.3906.3896-.3906,1.0234,0,1.4141,1.5107,1.5117,2.3428,3.5205,2.3428,5.6572s-.832,4.1455-2.3428,5.6572c-.3906.3906-.3906,1.0244,0,1.4141.1953.1953.4512.293.707.293s.5117-.0977.707-.293c1.8887-1.8896,2.9287-4.4014,2.9287-7.0713s-1.04-5.1816-2.9287-7.0713Z"/><path class="uuid-db5dab64-cb82-4302-8aee-244cf0ffa467" d="M10.3428,8.9287c-.3906-.3906-1.0234-.3906-1.4141,0-1.8887,1.8896-2.9287,4.4014-2.9287,7.0713s1.04,5.1816,2.9287,7.0713c.1953.1953.4512.293.707.293s.5117-.0977.707-.293c.3906-.3896.3906-1.0234,0-1.4141-1.5107-1.5117-2.3428-3.5205-2.3428-5.6572s.832-4.1455,2.3428-5.6572c.3906-.3906.3906-1.0244,0-1.4141Z"/><path class="uuid-db5dab64-cb82-4302-8aee-244cf0ffa467" d="M2,16c0-3.7402,1.4561-7.2559,4.1006-9.8994.3906-.3906.3906-1.0234,0-1.4141s-1.0234-.3906-1.4141,0C1.6641,7.707,0,11.7256,0,16s1.6641,8.293,4.6865,11.3135c.1953.1953.4512.293.707.293s.5117-.0977.707-.293c.3906-.3906.3906-1.0234,0-1.4141-2.6445-2.6436-4.1006-6.1592-4.1006-9.8994Z"/></g></svg>