<?xml version="1.0" encoding="UTF-8"?><svg xmlns="http://www.w3.org/2000/svg" viewBox="0 0 32 32"><defs><style>.uuid-2eaae87d-391f-4cd1-a3bf-0ee179ad0104{fill:none;}.uuid-2eaae87d-391f-4cd1-a3bf-0ee179ad0104,.uuid-4954203b-df6f-4653-ac4a-4ff044f90455{stroke-width:0px;}.uuid-4954203b-df6f-4653-ac4a-4ff044f90455{fill:#151515;}</style></defs><g id="uuid-e1744cd8-b8b4-48e0-bbde-42e8ada26e4e"><rect class="uuid-2eaae87d-391f-4cd1-a3bf-0ee179ad0104" width="32" height="32"/></g><g id="uuid-a7349759-ff94-48fc-a468-05ab67743a72"><path class="uuid-4954203b-df6f-4653-ac4a-4ff044f90455" d="M16,12c-2.2061,0-4,1.7944-4,4s1.7939,4,4,4,4-1.7944,4-4-1.7939-4-4-4ZM16,18c-1.1025,0-2-.897-2-2s.8975-2,2-2,2,.897,2,2-.8975,2-2,2Z"/><path class="uuid-4954203b-df6f-4653-ac4a-4ff044f90455" d="M27.3135,4.6865c-.3906-.3906-1.0234-.3906-1.4141,0s-.3906,1.0239,0,1.4141c2.6445,2.644,4.1006,6.1597,4.1006,9.8994s-1.4561,7.2554-4.1006,9.8994c-.3906.3901-.3906,1.0234,0,1.4141.1953.1953.4512.293.707.293s.5117-.0977.707-.293c3.0225-3.0215,4.6865-7.0396,4.6865-11.3135s-1.6641-8.292-4.6865-11.3135Z"/><path class="uuid-4954203b-df6f-4653-ac4a-4ff044f90455" d="M23.0713,8.9292c-.3906-.3906-1.0234-.3906-1.4141,0-.3906.3901-.3906,1.0234,0,1.4141,1.5107,1.5112,2.3428,3.52,2.3428,5.6567s-.832,4.1455-2.3428,5.6567c-.3906.3906-.3906,1.0239,0,1.4141.1953.1953.4512.293.707.293s.5117-.0977.707-.293c1.8887-1.8892,2.9287-4.4004,2.9287-7.0708s-1.04-5.1816-2.9287-7.0708Z"/><path class="uuid-4954203b-df6f-4653-ac4a-4ff044f90455" d="M10.3428,8.9292c-.3906-.3906-1.0234-.3906-1.4141,0-1.8887,1.8892-2.9287,4.4004-2.9287,7.0708s1.04,5.1816,2.9287,7.0708c.1953.1953.4512.293.707.293s.5117-.0977.707-.293c.3906-.3901.3906-1.0234,0-1.4141-1.5107-1.5112-2.3428-3.52-2.3428-5.6567s.832-4.1455,2.3428-5.6567c.3906-.3906.3906-1.0239,0-1.4141Z"/><path class="uuid-4954203b-df6f-4653-ac4a-4ff044f90455" d="M2,16c0-3.7397,1.4561-7.2554,4.1006-9.8994.3906-.3901.3906-1.0234,0-1.4141s-1.0234-.3906-1.4141,0C1.6641,7.708,0,11.7261,0,16s1.6641,8.292,4.6865,11.3135c.1953.1953.4512.293.707.293s.5117-.0977.707-.293c.3906-.3906.3906-1.0239,0-1.4141-2.6445-2.644-4.1006-6.1597-4.1006-9.8994Z"/></g></svg>