<?xml version="1.0" encoding="UTF-8"?><svg xmlns="http://www.w3.org/2000/svg" viewBox="0 0 32 32"><defs><style>.uuid-591d5238-afc8-481b-8116-d8a95240dd40{fill:none;}.uuid-591d5238-afc8-481b-8116-d8a95240dd40,.uuid-217935e4-b8f1-4b33-ac59-01dcc73b3ca3{stroke-width:0px;}.uuid-217935e4-b8f1-4b33-ac59-01dcc73b3ca3{fill:#151515;}</style></defs><g id="uuid-f23f23a3-a3dd-43ce-9d1a-1e3eaa8fcdf6"><rect class="uuid-591d5238-afc8-481b-8116-d8a95240dd40" width="32" height="32"/></g><g id="uuid-eaa15eb1-4eca-41de-80d6-6d30cfd72c94"><path class="uuid-217935e4-b8f1-4b33-ac59-01dcc73b3ca3" d="M22,16c-.5527,0-1,.4473-1,1,0,2.7568-2.2432,5-5,5-1.2728,0-2.4234-.4928-3.307-1.2789l3.307-3.307,1.293,1.293c.3906.3906,1.0234.3906,1.4141,0s.3906-1.0234,0-1.4141l-1.6465-1.6465c-.584-.5859-1.5371-.5859-2.1211,0l-3.4586,3.4586c-.3005-.642-.4809-1.3506-.4809-2.105,0-2.7568,2.2432-5,5-5,.5527,0,1-.4473,1-1v-4h2.5c.8271,0,1.5-.6729,1.5-1.5v-3c0-.8271-.6729-1.5-1.5-1.5h-7c-.8271,0-1.5.6729-1.5,1.5v3c0,.8271.6729,1.5,1.5,1.5h2.5v3.0799c-3.3862.488-6,3.4011-6,6.9201,0,1.3116.3694,2.5357.9998,3.5862L1.293,29.293c-.3906.3906-.3906,1.0234,0,1.4141.1953.1953.4512.293.707.293s.5117-.0977.707-.293l8.5626-8.5626c1.2474,1.1479,2.9058,1.8556,4.7303,1.8556,3.8594,0,7-3.1406,7-7,0-.5527-.4473-1-1-1Z"/><path class="uuid-217935e4-b8f1-4b33-ac59-01dcc73b3ca3" d="M30.707,29.293l-7-7c-.3906-.3906-1.0234-.3906-1.4141,0s-.3906,1.0234,0,1.4141l7,7c.1953.1953.4512.293.707.293s.5117-.0977.707-.293c.3906-.3906.3906-1.0234,0-1.4141Z"/></g></svg>