<?xml version="1.0" encoding="UTF-8"?><svg xmlns="http://www.w3.org/2000/svg" width="32" height="32" viewBox="0 0 32 32"><defs><style>.uuid-099a7bdc-c782-4997-adba-10cba60b0437{fill:none;}.uuid-58fb2229-5a2a-424c-a5a4-fc4a5ae1a04c{fill:#151515;}</style></defs><g id="uuid-487991ef-953f-40ec-a651-39fc43e738e1"><rect class="uuid-099a7bdc-c782-4997-adba-10cba60b0437" width="32" height="32"/></g><g id="uuid-df7ca238-3ffc-4e81-9919-fd2e1ca8caee"><path class="uuid-58fb2229-5a2a-424c-a5a4-fc4a5ae1a04c" d="M22,16c-.55273,0-1,.44775-1,1,0,2.75684-2.24316,5-5,5-1.27283,0-2.4234-.4928-3.30701-1.27893l3.30701-3.30701,1.29297,1.29297c.39062.39062,1.02344.39062,1.41406,0s.39062-1.02344,0-1.41406l-1.64648-1.64648c-.58398-.58496-1.53711-.58496-2.12109,0l-3.45856,3.45856c-.30054-.64203-.4809-1.35059-.4809-2.10504,0-2.75684,2.24316-5,5-5,.55273,0,1-.44775,1-1v-3.25h2.5c.68945,0,1.25-.56055,1.25-1.25v-3c0-.68945-.56055-1.25-1.25-1.25h-7c-.68945,0-1.25.56055-1.25,1.25v3c0,.68945.56055,1.25,1.25,1.25h2.5v2.3299c-3.38623.48785-6,3.40063-6,6.9201,0,1.31171.36938,2.53583.99969,3.58624l-7.70673,7.70673c-.39062.39062-.39062,1.02344,0,1.41406.19531.19531.45117.29297.70703.29297s.51172-.09766.70703-.29297l7.5625-7.5625c1.24738,1.14789,2.90594,1.85547,4.73047,1.85547,3.85938,0,7-3.14014,7-7,0-.55225-.44727-1-1-1Z"/><path class="uuid-58fb2229-5a2a-424c-a5a4-fc4a5ae1a04c" d="M29.70703,28.29297l-6-6c-.39062-.39062-1.02344-.39062-1.41406,0s-.39062,1.02344,0,1.41406l6,6c.19531.19531.45117.29297.70703.29297s.51172-.09766.70703-.29297c.39062-.39062.39062-1.02344,0-1.41406Z"/></g></svg>