<?xml version="1.0" encoding="UTF-8"?><svg xmlns="http://www.w3.org/2000/svg" viewBox="0 0 32 32"><defs><style>.uuid-d131caaf-3436-439d-815c-a7b60e806846{fill:none;}.uuid-d131caaf-3436-439d-815c-a7b60e806846,.uuid-a797c6f5-9aae-4ae1-8c83-7c31be07e4ae{stroke-width:0px;}.uuid-a797c6f5-9aae-4ae1-8c83-7c31be07e4ae{fill:#151515;}</style></defs><g id="uuid-23d927c9-58f3-4d6a-aef6-5d925fb401ec"><rect class="uuid-d131caaf-3436-439d-815c-a7b60e806846" width="32" height="32"/></g><g id="uuid-df5eff03-0784-4a6a-bc02-fdcd62584c9c"><path class="uuid-a797c6f5-9aae-4ae1-8c83-7c31be07e4ae" d="M22,16c-.5527,0-1,.4478-1,1,0,2.7568-2.2432,5-5,5-1.2728,0-2.4234-.4928-3.307-1.2789l3.307-3.307,1.293,1.293c.3906.3906,1.0234.3906,1.4141,0s.3906-1.0234,0-1.4141l-1.6465-1.6465c-.584-.585-1.5371-.585-2.1211,0l-3.4586,3.4586c-.3005-.642-.4809-1.3506-.4809-2.105,0-2.7568,2.2432-5,5-5,.5527,0,1-.4478,1-1v-4h2.5c.8271,0,1.5-.6729,1.5-1.5v-3.5c0-.5522-.4473-1-1-1s-1,.4478-1,1v3h-6v-3c0-.5522-.4473-1-1-1s-1,.4478-1,1v3.5c0,.8271.6729,1.5,1.5,1.5h2.5v3.0799c-3.3862.4879-6,3.4006-6,6.9201,0,1.3117.3694,2.5358.9997,3.5862L1.293,29.293c-.3906.3906-.3906,1.0234,0,1.4141.1953.1953.4512.293.707.293s.5117-.0977.707-.293l8.5625-8.5625c1.2474,1.1479,2.9059,1.8555,4.7305,1.8555,3.8594,0,7-3.1401,7-7,0-.5522-.4473-1-1-1Z"/><path class="uuid-a797c6f5-9aae-4ae1-8c83-7c31be07e4ae" d="M30.707,29.293l-7-7c-.3906-.3906-1.0234-.3906-1.4141,0s-.3906,1.0234,0,1.4141l7,7c.1953.1953.4512.293.707.293s.5117-.0977.707-.293c.3906-.3906.3906-1.0234,0-1.4141Z"/></g></svg>