<?xml version="1.0" encoding="UTF-8"?><svg xmlns="http://www.w3.org/2000/svg" width="32" height="32" viewBox="0 0 32 32"><defs><style>.uuid-e8eca4cd-ad66-440a-8ebe-1f7b397df933{fill:none;}.uuid-9a222a55-7dec-4a17-9745-13783eac1b08{fill:#151515;}</style></defs><g id="uuid-f8f92866-ac92-42cb-977d-199597f98138"><rect class="uuid-e8eca4cd-ad66-440a-8ebe-1f7b397df933" width="32" height="32"/></g><g id="uuid-432475ad-c630-4ea1-bbe7-029814fb5295"><path class="uuid-9a222a55-7dec-4a17-9745-13783eac1b08" d="M22,16c-.55273,0-1,.44775-1,1,0,2.75684-2.24316,5-5,5-1.27283,0-2.4234-.4928-3.30701-1.27893l3.30701-3.30701,1.29297,1.29297c.39062.39062,1.02344.39062,1.41406,0s.39062-1.02344,0-1.41406l-1.64648-1.64648c-.58398-.58496-1.53711-.58496-2.12109,0l-3.45856,3.45856c-.30054-.64203-.4809-1.35059-.4809-2.10504,0-2.75684,2.24316-5,5-5,.55273,0,1-.44775,1-1v-3h2.5c.82715,0,1.5-.67285,1.5-1.5v-3.5c0-.55225-.44727-1-1-1s-1,.44775-1,1v3h-6v-3c0-.55225-.44727-1-1-1s-1,.44775-1,1v3.5c0,.82715.67285,1.5,1.5,1.5h2.5v2.07129c-3.3877.48682-6,3.4082-6,6.92871,0,1.31171.36938,2.53583.99969,3.58624l-7.70673,7.70673c-.39062.39062-.39062,1.02344,0,1.41406.19531.19531.45117.29297.70703.29297s.51172-.09766.70703-.29297l7.5625-7.5625c1.24738,1.14789,2.90594,1.85547,4.73047,1.85547,3.85938,0,7-3.14014,7-7,0-.55225-.44727-1-1-1Z"/><path class="uuid-9a222a55-7dec-4a17-9745-13783eac1b08" d="M29.70703,28.29297l-6-6c-.39062-.39062-1.02344-.39062-1.41406,0s-.39062,1.02344,0,1.41406l6,6c.19531.19531.45117.29297.70703.29297s.51172-.09766.70703-.29297c.39062-.39062.39062-1.02344,0-1.41406Z"/></g></svg>