<?xml version="1.0" encoding="UTF-8"?><svg xmlns="http://www.w3.org/2000/svg" width="32" height="32" viewBox="0 0 32 32"><defs><style>.uuid-84713b61-9032-4a77-8f29-544e003b3f76{fill:none;}.uuid-79a76918-0834-4639-a11d-d7761735c509{fill:#151515;}</style></defs><g id="uuid-d888ed4d-6aa5-4ae5-830e-3ac783cd863e"><rect class="uuid-84713b61-9032-4a77-8f29-544e003b3f76" width="32" height="32"/></g><g id="uuid-13c16a34-840b-4774-a4b7-99396da1b8ac"><path class="uuid-79a76918-0834-4639-a11d-d7761735c509" d="M9,7h-2V3c0-.55225-.44727-1-1-1s-1,.44775-1,1v4h-2c-.55273,0-1,.44775-1,1s.44727,1,1,1h2v20c0,.55225.44727,1,1,1s1-.44775,1-1V9h2c.55273,0,1-.44775,1-1s-.44727-1-1-1Z"/><path class="uuid-79a76918-0834-4639-a11d-d7761735c509" d="M19,23h-2V3c0-.55225-.44727-1-1-1s-1,.44775-1,1v20h-2c-.55273,0-1,.44775-1,1s.44727,1,1,1h2v4c0,.55225.44727,1,1,1s1-.44775,1-1v-4h2c.55273,0,1-.44775,1-1s-.44727-1-1-1Z"/><path class="uuid-79a76918-0834-4639-a11d-d7761735c509" d="M29,15.01367h-2V3c0-.55225-.44727-1-1-1s-1,.44775-1,1v12.01367h-2c-.55273,0-1,.44775-1,1s.44727,1,1,1h2v11.98633c0,.55225.44727,1,1,1s1-.44775,1-1v-11.98633h2c.55273,0,1-.44775,1-1s-.44727-1-1-1Z"/></g></svg>