<?xml version="1.0" encoding="UTF-8"?><svg xmlns="http://www.w3.org/2000/svg" viewBox="0 0 32 32"><defs><style>.uuid-e6267605-85df-416a-ab8b-496326e5292b{fill:none;}.uuid-e6267605-85df-416a-ab8b-496326e5292b,.uuid-1c009c34-c5f6-4a63-b5ca-07278a67b0b2{stroke-width:0px;}.uuid-1c009c34-c5f6-4a63-b5ca-07278a67b0b2{fill:#151515;}</style></defs><g id="uuid-16c83649-4fc3-4d67-a925-7ed6b50056c4"><rect class="uuid-e6267605-85df-416a-ab8b-496326e5292b" width="32" height="32"/></g><g id="uuid-6d9e03af-f12e-4d08-b6e8-a7569caa36f5"><path class="uuid-1c009c34-c5f6-4a63-b5ca-07278a67b0b2" d="M8,6.875h-2V2c0-.5522-.4473-1-1-1s-1,.4478-1,1v4.875h-2c-.6211,0-1.125.5039-1.125,1.125s.5039,1.125,1.125,1.125h2v20.875c0,.5522.4473,1,1,1s1-.4478,1-1V9.125h2c.6211,0,1.125-.5039,1.125-1.125s-.5039-1.125-1.125-1.125Z"/><path class="uuid-1c009c34-c5f6-4a63-b5ca-07278a67b0b2" d="M19,23.875h-2V2c0-.5522-.4473-1-1-1s-1,.4478-1,1v21.875h-2c-.6211,0-1.125.5039-1.125,1.125s.5039,1.125,1.125,1.125h2v3.875c0,.5522.4473,1,1,1s1-.4478,1-1v-3.875h2c.6211,0,1.125-.5039,1.125-1.125s-.5039-1.125-1.125-1.125Z"/><path class="uuid-1c009c34-c5f6-4a63-b5ca-07278a67b0b2" d="M30,14.875h-2V2c0-.5522-.4473-1-1-1s-1,.4478-1,1v12.875h-2c-.6211,0-1.125.5039-1.125,1.125s.5039,1.125,1.125,1.125h2v12.875c0,.5522.4473,1,1,1s1-.4478,1-1v-12.875h2c.6211,0,1.125-.5039,1.125-1.125s-.5039-1.125-1.125-1.125Z"/></g></svg>