<?xml version="1.0" encoding="UTF-8"?><svg xmlns="http://www.w3.org/2000/svg" width="32" height="32" viewBox="0 0 32 32"><defs><style>.uuid-3af9e608-8519-4c71-9413-beba662b3248{fill:none;}.uuid-d74eadca-1be7-4c57-8de1-eefc7645f9ab{fill:#151515;}</style></defs><g id="uuid-ca048841-9d22-4b6b-9b33-0944cbf2c1c7"><rect class="uuid-3af9e608-8519-4c71-9413-beba662b3248" width="32" height="32"/></g><g id="uuid-9db00d28-bc01-4a63-bd05-b4fa0ac03ce5"><path class="uuid-d74eadca-1be7-4c57-8de1-eefc7645f9ab" d="M16,30.85645c-.17285,0-.3457-.04492-.5-.13379l-12-6.92871c-.30957-.17871-.5-.50879-.5-.86621v-13.85547c0-.35742.19043-.6875.5-.86621L15.5,1.27734c.30859-.17773.69141-.17773,1,0l12,6.92871c.30957.17871.5.50879.5.86621v13.85547c0,.35742-.19043.6875-.5.86621l-12,6.92871c-.1543.08887-.32715.13379-.5.13379ZM5,22.35059l11,6.35156,11-6.35156v-12.70117l-11-6.35156-11,6.35156v12.70117ZM28,22.92773h.00977-.00977Z"/></g></svg>