<?xml version="1.0" encoding="UTF-8"?><svg xmlns="http://www.w3.org/2000/svg" width="32" height="32" viewBox="0 0 32 32"><defs><style>.uuid-aecb2697-9f5e-423d-a978-b1055641993e{fill:none;}.uuid-8c4202c2-e9ff-47a5-95ee-4f9bfa0a7c06{fill:#151515;}</style></defs><g id="uuid-1c4b1f69-26bc-49a6-9512-291f8d6b4717"><rect class="uuid-aecb2697-9f5e-423d-a978-b1055641993e" width="32" height="32"/></g><g id="uuid-33738f63-af45-40af-982f-53953988e76b"><path class="uuid-8c4202c2-e9ff-47a5-95ee-4f9bfa0a7c06" d="M27,6c-.55273,0-1,.44775-1,1v22H10c-.55273,0-1,.44775-1,1s.44727,1,1,1h16.61328c.76465,0,1.38672-.625,1.38672-1.39307V7c0-.55225-.44727-1-1-1Z"/><path class="uuid-8c4202c2-e9ff-47a5-95ee-4f9bfa0a7c06" d="M23,24.5V2.5c0-.82715-.67285-1.5-1.5-1.5h-10.5c-.13379,0-.26434.02722-.38519.07776-.12158.05078-.23108.12421-.32269.21606l-5.99847,5.99847c-.09186.09167-.16516.20123-.21594.32281-.05048.12091-.0777.2514-.0777.38489v16.5c0,.82715.67285,1.5,1.5,1.5h16c.82715,0,1.5-.67285,1.5-1.5ZM10,4.41406v2.58594h-2.58594l2.58594-2.58594ZM21,24H6v-15h4.61328c.76465,0,1.38672-.62207,1.38672-1.38623V3h9v21Z"/></g></svg>