<?xml version="1.0" encoding="UTF-8"?><svg xmlns="http://www.w3.org/2000/svg" viewBox="0 0 32 32"><defs><style>.uuid-1c40eb22-f4b4-4e74-8c1c-9addf8728827{fill:none;}.uuid-1c40eb22-f4b4-4e74-8c1c-9addf8728827,.uuid-7bd14619-6ae2-42a9-8d9d-1d386c99ac3d{stroke-width:0px;}.uuid-7bd14619-6ae2-42a9-8d9d-1d386c99ac3d{fill:#151515;}</style></defs><g id="uuid-6aa36346-6482-46a4-8f5f-36923253700e"><rect class="uuid-1c40eb22-f4b4-4e74-8c1c-9addf8728827" width="32" height="32"/></g><g id="uuid-58315300-a9a6-478a-863c-7ffc1e676e18"><path class="uuid-7bd14619-6ae2-42a9-8d9d-1d386c99ac3d" d="M28,6c-.5527,0-1,.4473-1,1v23H10c-.5527,0-1,.4473-1,1s.4473,1,1,1h17.5c.8271,0,1.5-.6729,1.5-1.5V7c0-.5527-.4473-1-1-1Z"/><path class="uuid-7bd14619-6ae2-42a9-8d9d-1d386c99ac3d" d="M11,0c-.2656,0-.5195.1055-.707.293L3.293,7.293c-.1875.1875-.293.4414-.293.707h8V0Z"/><path class="uuid-7bd14619-6ae2-42a9-8d9d-1d386c99ac3d" d="M23,24.5V1.5c0-.8271-.6729-1.5-1.5-1.5h-8.5v8.5c0,.8271-.6729,1.5-1.5,1.5H3v14.5c0,.8271.6729,1.5,1.5,1.5h17c.8271,0,1.5-.6729,1.5-1.5Z"/></g></svg>