<?xml version="1.0" encoding="UTF-8"?><svg xmlns="http://www.w3.org/2000/svg" width="32" height="32" viewBox="0 0 32 32"><defs><style>.uuid-31cce96a-04c2-45f7-96f4-7bf5e114e8b5{fill:none;}.uuid-8fc245c7-217f-460d-9af0-5c643c4bfb5c{fill:#151515;}</style></defs><g id="uuid-b2f506c4-4d3d-44c7-8456-cf86ae5bd8e5"><rect class="uuid-31cce96a-04c2-45f7-96f4-7bf5e114e8b5" width="32" height="32"/></g><g id="uuid-87df6fee-3409-4f6a-b692-55d387261c4c"><path class="uuid-8fc245c7-217f-460d-9af0-5c643c4bfb5c" d="M27,6c-.55273,0-1,.44775-1,1v22H10c-.55273,0-1,.44775-1,1s.44727,1,1,1h16.61328c.76465,0,1.38672-.625,1.38672-1.39307V7c0-.55225-.44727-1-1-1Z"/><path class="uuid-8fc245c7-217f-460d-9af0-5c643c4bfb5c" d="M22.75,24.5V2.5c0-.68945-.56055-1.25-1.25-1.25h-8.375v7.36377c0,.8335-.67773,1.51123-1.51172,1.51123h-7.36328v14.375c0,.68945.56055,1.25,1.25,1.25h16c.68945,0,1.25-.56055,1.25-1.25Z"/><path class="uuid-8fc245c7-217f-460d-9af0-5c643c4bfb5c" d="M10.875,1.2749c-.15131.02631-.29529.08484-.40527.19482l-6,6c-.10999.10999-.16852.25409-.19482.40527h6.6001V1.2749Z"/></g></svg>