<svg xmlns="http://www.w3.org/2000/svg" viewBox="0 0 32 32">
  <defs>
    <style>
      .uuid-7bd14619-6ae2-42a9-8d9d-1d386c99ac3d{stroke-width:0;fill:#151515}
    </style>
  </defs>
  <path d="M0 0h32v32H0z" id="uuid-6aa36346-6482-46a4-8f5f-36923253700e" stroke-width="0" fill="none"/>
  <g id="uuid-58315300-a9a6-478a-863c-7ffc1e676e18">
    <path class="uuid-7bd14619-6ae2-42a9-8d9d-1d386c99ac3d" d="M28 6a1 1 0 0 0-1 1v23H10a1 1 0 1 0 0 2h17.5c.827 0 1.5-.673 1.5-1.5V7a1 1 0 0 0-1-1ZM11 0a1 1 0 0 0-.707.293l-7 7A1 1 0 0 0 3 8h8V0Z"/>
    <path class="uuid-7bd14619-6ae2-42a9-8d9d-1d386c99ac3d" d="M23 24.5v-23c0-.827-.673-1.5-1.5-1.5H13v8.5c0 .827-.673 1.5-1.5 1.5H3v14.5c0 .827.673 1.5 1.5 1.5h17c.827 0 1.5-.673 1.5-1.5Z"/>
  </g>
</svg>
