<?xml version="1.0" encoding="UTF-8"?><svg xmlns="http://www.w3.org/2000/svg" viewBox="0 0 32 32"><defs><style>.uuid-da8f088b-a8c6-41a0-a27a-005988f5e363{fill:none;}.uuid-da8f088b-a8c6-41a0-a27a-005988f5e363,.uuid-80aa8b00-fdeb-4e3a-961c-39e8ef8ab2ef{stroke-width:0px;}.uuid-80aa8b00-fdeb-4e3a-961c-39e8ef8ab2ef{fill:#151515;}</style></defs><g id="uuid-a5318350-8989-4160-8c1b-1e9b3a630b2e"><rect class="uuid-da8f088b-a8c6-41a0-a27a-005988f5e363" width="32" height="32"/></g><g id="uuid-ef8a37e9-1f4a-454d-957a-fb9cb44484de"><path class="uuid-80aa8b00-fdeb-4e3a-961c-39e8ef8ab2ef" d="M23,24.5V1.5c0-.8271-.6729-1.5-1.5-1.5h-10.5c-.1338,0-.2643.0272-.3852.0778-.1216.0508-.2311.1242-.3227.2161L3.2936,7.2923c-.0919.0917-.1652.2012-.2159.3228-.0505.1209-.0777.2514-.0777.3849v16.5c0,.8271.6729,1.5,1.5,1.5h17c.8271,0,1.5-.6729,1.5-1.5ZM10,3.4141v3.5859h-3.5859l3.5859-3.5859ZM21,24H5v-15h5.5c.8271,0,1.5-.6729,1.5-1.5V2h9v22Z"/><path class="uuid-80aa8b00-fdeb-4e3a-961c-39e8ef8ab2ef" d="M28,6c-.5527,0-1,.4478-1,1v23H10c-.5527,0-1,.4478-1,1s.4473,1,1,1h17.5c.8271,0,1.5-.6729,1.5-1.5V7c0-.5522-.4473-1-1-1Z"/></g></svg>