<svg xmlns="http://www.w3.org/2000/svg" viewBox="0 0 32 32">
  <path d="M29 15a1 1 0 0 1 1 1v12.5c0 .827-.673 1.5-1.5 1.5h-25c-.827 0-1.5-.673-1.5-1.5v-25C2 2.673 2.673 2 3.5 2H16a1 1 0 1 1 0 2H4v24h24V16a1 1 0 0 1 1-1Zm1.543-10c0 .334-.13.647-.366.884L27.53 8.53l-10 10a.754.754 0 0 1-.195.14l-6 3a.753.753 0 0 1-.865-.14.749.749 0 0 1-.14-.865l3-6a.754.754 0 0 1 .14-.195l10-10 2.646-2.647a1.25 1.25 0 0 1 1.768 0l2.293 2.293c.236.237.366.55.366.884Zm-1.604 0L27 3.06 25.06 5 27 6.94 28.94 5Z"/>
</svg>
