<?xml version="1.0" encoding="UTF-8"?><svg xmlns="http://www.w3.org/2000/svg" viewBox="0 0 32 32"><defs><style>.uuid-7fd3fdc2-93dd-47ed-ada6-4b4b8e7325de{fill:none;}.uuid-7fd3fdc2-93dd-47ed-ada6-4b4b8e7325de,.uuid-9f23a2e7-e70e-4c1b-8665-12c8416896a6{stroke-width:0px;}.uuid-9f23a2e7-e70e-4c1b-8665-12c8416896a6{fill:#151515;}</style></defs><g id="uuid-f560504a-5225-48dc-9435-a8dcd3e99477"><rect class="uuid-7fd3fdc2-93dd-47ed-ada6-4b4b8e7325de" width="32" height="32"/></g><g id="uuid-e7b3909c-8ef3-410b-b6cc-05e2c140acb3"><path class="uuid-9f23a2e7-e70e-4c1b-8665-12c8416896a6" d="M30,29H2c-.5527,0-1,.4478-1,1s.4473,1,1,1h28c.5527,0,1-.4478,1-1s-.4473-1-1-1Z"/><path class="uuid-9f23a2e7-e70e-4c1b-8665-12c8416896a6" d="M5.5,25h7c.8271,0,1.5-.6729,1.5-1.5v-7c0-.8271-.6729-1.5-1.5-1.5h-7c-.8271,0-1.5.6729-1.5,1.5v7c0,.8271.6729,1.5,1.5,1.5ZM6,17h6v6h-6v-6Z"/><path class="uuid-9f23a2e7-e70e-4c1b-8665-12c8416896a6" d="M18,16.5v7c0,.8271.6729,1.5,1.5,1.5h7c.8271,0,1.5-.6729,1.5-1.5v-7c0-.8271-.6729-1.5-1.5-1.5h-7c-.8271,0-1.5.6729-1.5,1.5ZM20,17h6v6h-6v-6Z"/><path class="uuid-9f23a2e7-e70e-4c1b-8665-12c8416896a6" d="M12.5,11h7c.8271,0,1.5-.6729,1.5-1.5V2.5c0-.8271-.6729-1.5-1.5-1.5h-7c-.8271,0-1.5.6729-1.5,1.5v7c0,.8271.6729,1.5,1.5,1.5ZM13,3h6v6h-6V3Z"/></g></svg>