<?xml version="1.0" encoding="UTF-8"?><svg xmlns="http://www.w3.org/2000/svg" width="32" height="32" viewBox="0 0 32 32"><defs><style>.uuid-7aed2771-5f43-4880-8507-e0652d1fa11f{fill:none;}.uuid-ab74a270-b35f-4362-92a8-9f8ee8b98782{fill:#151515;}</style></defs><g id="uuid-107d4831-1d02-4bf8-98e4-f327b459d1b6"><rect class="uuid-7aed2771-5f43-4880-8507-e0652d1fa11f" width="32" height="32"/></g><g id="uuid-9b610715-f03e-4746-8872-64fdb33e685b"><path class="uuid-ab74a270-b35f-4362-92a8-9f8ee8b98782" d="M12.5,12h7c.82715,0,1.5-.67285,1.5-1.5V3.5c0-.82715-.67285-1.5-1.5-1.5h-7c-.82715,0-1.5.67285-1.5,1.5v7c0,.82715.67285,1.5,1.5,1.5ZM13,4h6v6h-6v-6Z"/><path class="uuid-ab74a270-b35f-4362-92a8-9f8ee8b98782" d="M5.5,25h7c.82715,0,1.5-.67285,1.5-1.5v-7c0-.82715-.67285-1.5-1.5-1.5h-7c-.82715,0-1.5.67285-1.5,1.5v7c0,.82715.67285,1.5,1.5,1.5ZM6,17h6v6h-6v-6Z"/><path class="uuid-ab74a270-b35f-4362-92a8-9f8ee8b98782" d="M29,28H3c-.55225,0-1,.44775-1,1s.44775,1,1,1h26c.55225,0,1-.44775,1-1s-.44775-1-1-1Z"/><path class="uuid-ab74a270-b35f-4362-92a8-9f8ee8b98782" d="M18,16.5v7c0,.82715.67285,1.5,1.5,1.5h7c.82715,0,1.5-.67285,1.5-1.5v-7c0-.82715-.67285-1.5-1.5-1.5h-7c-.82715,0-1.5.67285-1.5,1.5ZM20,17h6v6h-6v-6Z"/></g></svg>