<?xml version="1.0" encoding="UTF-8"?><svg xmlns="http://www.w3.org/2000/svg" width="32" height="32" viewBox="0 0 32 32"><defs><style>.uuid-0caf8b87-39d1-41d4-9866-fee24e1583c8{fill:none;}.uuid-3ec45c3d-6d60-45d6-8f72-d55841760cfc{fill:#151515;}</style></defs><g id="uuid-eb734a55-bf97-4b17-982a-2520c9ab761f"><rect class="uuid-0caf8b87-39d1-41d4-9866-fee24e1583c8" width="32" height="32"/></g><g id="uuid-f1e5b091-f8be-4651-9a6f-4f1f55180b0f"><path class="uuid-3ec45c3d-6d60-45d6-8f72-d55841760cfc" d="M16,29c-7.16846,0-13-5.83154-13-13,0-5.57666,3.54443-10.52246,8.81982-12.30713.36133-.12305.76123-.02832,1.03027.24316.26904.271.35986.67139.23486,1.03223-.38818,1.1167-.58496,2.30518-.58496,3.53174,0,6.06543,4.93457,11,11,11,1.22559,0,2.41357-.19678,3.53223-.58496.35986-.12451.76074-.03418,1.03174.23486.27148.26904.36572.66895.24316,1.03027-1.78467,5.27539-6.73047,8.81982-12.30713,8.81982ZM10.67236,6.37549c-3.45703,1.90674-5.67236,5.56836-5.67236,9.62451,0,6.06543,4.93457,11,11,11,4.05615,0,7.71777-2.21582,9.625-5.67236-.69531.11475-1.40527.17236-2.125.17236-7.16846,0-13-5.83154-13-13,0-.72021.05762-1.42969.17236-2.12451Z"/></g></svg>