<?xml version="1.0" encoding="UTF-8"?><svg xmlns="http://www.w3.org/2000/svg" width="32" height="32" viewBox="0 0 32 32"><defs><style>.uuid-a948b707-20bf-4268-a125-de6468c100b1{fill:none;}.uuid-fb4117c9-bf95-4b3a-9531-84804aed64f3{fill:#151515;}</style></defs><g id="uuid-49b4669d-eeb4-492f-8b6c-62e9c72f49f8"><rect class="uuid-a948b707-20bf-4268-a125-de6468c100b1" width="32" height="32"/></g><g id="uuid-e31acdd2-5e0e-4c69-9716-f4c0d85c1338"><path class="uuid-fb4117c9-bf95-4b3a-9531-84804aed64f3" d="M28.06396,19.1499c-.271-.26904-.67188-.35938-1.03174-.23486-1.11865.38818-2.30664.58496-3.53223.58496-6.06543,0-11-4.93457-11-11,0-1.22656.19678-2.41504.58496-3.53174.125-.36084.03418-.76123-.23486-1.03223-.26904-.27148-.66895-.36621-1.03027-.24316-5.27539,1.78467-8.81982,6.73047-8.81982,12.30713,0,7.16846,5.83154,13,13,13,5.57666,0,10.52246-3.54443,12.30713-8.81982.12256-.36133.02832-.76123-.24316-1.03027Z"/></g></svg>