<?xml version="1.0" encoding="UTF-8"?><svg xmlns="http://www.w3.org/2000/svg" width="32" height="32" viewBox="0 0 32 32"><defs><style>.uuid-5dfa8195-2156-47a2-bd68-bf727a710d2e{fill:none;}.uuid-e77aa7e6-a34a-4b99-8db5-5cd2021a3b97{fill:#151515;}</style></defs><g id="uuid-0938ead4-b724-4d25-b5d5-c9934a0fe068"><rect class="uuid-5dfa8195-2156-47a2-bd68-bf727a710d2e" width="32" height="32"/></g><g id="uuid-717e07a7-56bb-42e8-9c67-5d03f078aa82"><path class="uuid-e77aa7e6-a34a-4b99-8db5-5cd2021a3b97" d="M25.70703,19.29297c-.39062-.39062-1.02344-.39062-1.41406,0s-.39062,1.02344,0,1.41406l2.29297,2.29297H8c-2.20605,0-4-1.79395-4-4s1.79395-4,4-4h3.58594l3.70703,3.70703c.19531.19531.45117.29297.70703.29297s.51172-.09766.70703-.29297l3.70703-3.70703h3.58594c3.30859,0,6-2.69141,6-6s-2.69141-6-6-6H3c-.55273,0-1,.44727-1,1s.44727,1,1,1h21c2.20605,0,4,1.79395,4,4s-1.79395,4-4,4h-3.58594l-3.70703-3.70703c-.39062-.39062-1.02344-.39062-1.41406,0l-3.70703,3.70703h-3.58594c-3.30859,0-6,2.69141-6,6s2.69141,6,6,6h18.58594l-2.29297,2.29297c-.39062.39062-.39062,1.02344,0,1.41406.19531.19531.45117.29297.70703.29297s.51172-.09766.70703-.29297l4-4c.39062-.39062.39062-1.02344,0-1.41406l-4-4Z"/></g></svg>