<?xml version="1.0" encoding="UTF-8"?><svg xmlns="http://www.w3.org/2000/svg" width="32" height="32" viewBox="0 0 32 32"><defs><style>.uuid-996f8278-6e66-4bd7-80fb-13d967491965{fill:none;}.uuid-01ec665d-c346-49ee-856e-b633a1096d28{fill:#151515;}</style></defs><g id="uuid-17912cd6-534e-4558-9222-1f7600ae1ea9"><rect class="uuid-996f8278-6e66-4bd7-80fb-13d967491965" width="32" height="32"/></g><g id="uuid-b48434c5-e735-4ee2-a212-f17de6b8ca10"><path class="uuid-01ec665d-c346-49ee-856e-b633a1096d28" d="M25.70703,21.29297c-.39062-.39062-1.02344-.39062-1.41406,0s-.39062,1.02344,0,1.41406l2.29297,2.29297H8c-2.20605,0-4-1.79395-4-4s1.79395-4,4-4h16c3.30859,0,6-2.69141,6-6s-2.69141-6-6-6h-13.10107c-.46466-2.2793-2.4845-4-4.89893-4C3.24316,1,1,3.24316,1,6s2.24316,5,5,5c2.41443,0,4.43427-1.7207,4.89893-4h13.10107c2.20605,0,4,1.79395,4,4s-1.79395,4-4,4H8c-3.30859,0-6,2.69141-6,6s2.69141,6,6,6h18.58594l-2.29297,2.29297c-.39062.39062-.39062,1.02344,0,1.41406.19531.19531.45117.29297.70703.29297s.51172-.09766.70703-.29297l4-4c.39062-.39062.39062-1.02344,0-1.41406l-4-4Z"/></g></svg>