<?xml version="1.0" encoding="UTF-8"?><svg xmlns="http://www.w3.org/2000/svg" width="32" height="32" viewBox="0 0 32 32"><defs><style>.uuid-4819bec1-2327-481a-98ff-38fb453974ad{fill:none;}.uuid-fc440e0f-571a-4fd7-871b-e68addb7952a{fill:#151515;}</style></defs><g id="uuid-8237e60d-3c81-4913-82f9-213d62e51b7d"><rect class="uuid-4819bec1-2327-481a-98ff-38fb453974ad" width="32" height="32"/></g><g id="uuid-1371313a-c6be-49fd-ab51-e2c727ddd92b"><path class="uuid-fc440e0f-571a-4fd7-871b-e68addb7952a" d="M22.5,7.5c0-3.58398-2.91602-6.5-6.5-6.5s-6.5,2.91602-6.5,6.5,2.91602,6.5,6.5,6.5,6.5-2.91602,6.5-6.5ZM16,12c-2.48145,0-4.5-2.01855-4.5-4.5s2.01855-4.5,4.5-4.5,4.5,2.01855,4.5,4.5-2.01855,4.5-4.5,4.5Z"/><path class="uuid-fc440e0f-571a-4fd7-871b-e68addb7952a" d="M24.5,18c-3.58398,0-6.5,2.91602-6.5,6.5s2.91602,6.5,6.5,6.5,6.5-2.91602,6.5-6.5-2.91602-6.5-6.5-6.5ZM24.5,29c-2.48145,0-4.5-2.01855-4.5-4.5s2.01855-4.5,4.5-4.5,4.5,2.01855,4.5,4.5-2.01855,4.5-4.5,4.5Z"/><path class="uuid-fc440e0f-571a-4fd7-871b-e68addb7952a" d="M4,1c-.55225,0-1,.44775-1,1v11c0,.55225.44775,1,1,1s1-.44775,1-1V2c0-.55225-.44775-1-1-1Z"/><path class="uuid-fc440e0f-571a-4fd7-871b-e68addb7952a" d="M28,14c.55225,0,1-.44775,1-1V2c0-.55225-.44775-1-1-1s-1,.44775-1,1v11c0,.55225.44775,1,1,1Z"/><path class="uuid-fc440e0f-571a-4fd7-871b-e68addb7952a" d="M12,18c-.55225,0-1,.44775-1,1v11c0,.55225.44775,1,1,1s1-.44775,1-1v-11c0-.55225-.44775-1-1-1Z"/><path class="uuid-fc440e0f-571a-4fd7-871b-e68addb7952a" d="M4,18c-.55225,0-1,.44775-1,1v11c0,.55225.44775,1,1,1s1-.44775,1-1v-11c0-.55225-.44775-1-1-1Z"/></g></svg>