<?xml version="1.0" encoding="UTF-8"?><svg xmlns="http://www.w3.org/2000/svg" width="32" height="32" viewBox="0 0 32 32"><defs><style>.uuid-0c88f83d-de32-4011-aa23-c9dc70815a46{fill:none;}.uuid-5c61bfc7-f060-4127-a18f-1830b6d2f2d6{fill:#151515;}</style></defs><g id="uuid-ee078553-3253-485e-9306-2a9d66e77d87"><rect class="uuid-0c88f83d-de32-4011-aa23-c9dc70815a46" width="32" height="32"/></g><g id="uuid-4b784323-90ef-440a-b512-6270828cf6f5"><circle class="uuid-5c61bfc7-f060-4127-a18f-1830b6d2f2d6" cx="26" cy="24" r="5"/><path class="uuid-5c61bfc7-f060-4127-a18f-1830b6d2f2d6" d="M13.70703,19.29297c-.39062-.39062-1.02344-.39062-1.41406,0s-.39062,1.02344,0,1.41406l2.29297,2.29297h-6.58594c-2.20605,0-4-1.79395-4-4s1.79395-4,4-4h16c3.30859,0,6-2.69141,6-6s-2.69141-6-6-6H3c-.55273,0-1,.44727-1,1s.44727,1,1,1h21c2.20605,0,4,1.79395,4,4s-1.79395,4-4,4H8c-3.30859,0-6,2.69141-6,6s2.69141,6,6,6h6.58594l-2.29297,2.29297c-.39062.39062-.39062,1.02344,0,1.41406.19531.19531.45117.29297.70703.29297s.51172-.09766.70703-.29297l4-4c.39062-.39062.39062-1.02344,0-1.41406l-4-4Z"/></g></svg>