<?xml version="1.0" encoding="UTF-8"?><svg xmlns="http://www.w3.org/2000/svg" viewBox="0 0 32 32"><defs><style>.uuid-789421e0-8559-485e-9705-ddf68ba0cd5f{fill:none;}.uuid-789421e0-8559-485e-9705-ddf68ba0cd5f,.uuid-364ffb4f-267a-4471-b271-770075602ef2{stroke-width:0px;}.uuid-364ffb4f-267a-4471-b271-770075602ef2{fill:#151515;}</style></defs><g id="uuid-62d86b22-338f-4e29-b088-b43f52d6dbf8"><rect class="uuid-789421e0-8559-485e-9705-ddf68ba0cd5f" x="0" width="32" height="32"/></g><g id="uuid-39ea3953-3926-4565-97a4-2e79613bb44c"><path class="uuid-364ffb4f-267a-4471-b271-770075602ef2" d="M23,7c0-3.8599-3.1401-7-7-7s-7,3.1401-7,7,3.1401,7,7,7,7-3.1401,7-7ZM16,12c-2.7568,0-5-2.2432-5-5s2.2432-5,5-5,5,2.2432,5,5-2.2432,5-5,5Z"/><path class="uuid-364ffb4f-267a-4471-b271-770075602ef2" d="M25,18c-3.8599,0-7,3.1401-7,7s3.1401,7,7,7,7-3.1401,7-7-3.1401-7-7-7ZM25,30c-2.7568,0-5-2.2432-5-5s2.2432-5,5-5,5,2.2432,5,5-2.2432,5-5,5Z"/><path class="uuid-364ffb4f-267a-4471-b271-770075602ef2" d="M3,0c-.5522,0-1,.4478-1,1v12c0,.5522.4478,1,1,1s1-.4478,1-1V1c0-.5522-.4478-1-1-1Z"/><path class="uuid-364ffb4f-267a-4471-b271-770075602ef2" d="M3,18c-.5522,0-1,.4478-1,1v12c0,.5522.4478,1,1,1s1-.4478,1-1v-12c0-.5522-.4478-1-1-1Z"/><path class="uuid-364ffb4f-267a-4471-b271-770075602ef2" d="M12,18c-.5522,0-1,.4478-1,1v12c0,.5522.4478,1,1,1s1-.4478,1-1v-12c0-.5522-.4478-1-1-1Z"/><path class="uuid-364ffb4f-267a-4471-b271-770075602ef2" d="M29,14c.5522,0,1-.4478,1-1V1c0-.5522-.4478-1-1-1s-1,.4478-1,1v12c0,.5522.4478,1,1,1Z"/></g></svg>