<?xml version="1.0" encoding="UTF-8"?><svg xmlns="http://www.w3.org/2000/svg" width="32" height="32" viewBox="0 0 32 32"><defs><style>.uuid-9761529a-826b-490f-9066-011cdf6c7a0b{fill:none;}.uuid-ab269ba3-c096-4eac-ad4f-fdddac855a2f{fill:#151515;}</style></defs><g id="uuid-bb895fd7-820e-40d5-86fb-b6e2717f0b73"><rect class="uuid-9761529a-826b-490f-9066-011cdf6c7a0b" width="32" height="32"/></g><g id="uuid-48abcebd-1e6c-474a-a9c2-90b47d7742e1"><path class="uuid-ab269ba3-c096-4eac-ad4f-fdddac855a2f" d="M25.70703,19.29297c-.39062-.39062-1.02344-.39062-1.41406,0s-.39062,1.02344,0,1.41406l2.29297,2.29297H8c-2.21002,0-4-1.79004-4-4s1.78998-4,4-4h3.58002l3.70996,3.70996c.20001.19.45001.29004.71002.29004s.51001-.10004.71002-.29004l3.70996-3.70996h3.58002c3.31,0,6-2.69,6-6s-2.69-6-6-6H3c-.54999,0-1,.45001-1,1s.45001,1,1,1h21c2.21002,0,4,1.78998,4,4s-1.78998,4-4,4h-3.58002l-3.70996-3.71002c-.39001-.39001-1.03003-.39001-1.42004,0l-3.70996,3.71002h-3.58002c-3.31,0-6,2.69-6,6s2.69,6,6,6h18.58594l-2.29297,2.29297c-.39062.39062-.39062,1.02344,0,1.41406.19531.19531.45117.29297.70703.29297s.51172-.09766.70703-.29297l4-4c.39062-.39062.39062-1.02344,0-1.41406l-4-4ZM13.40997,14l1-1,1.59003-1.59003,1.59003,1.59003,1,1-1,1-1.59003,1.58997-1.59003-1.58997-1-1Z"/></g></svg>