<?xml version="1.0" encoding="UTF-8"?><svg xmlns="http://www.w3.org/2000/svg" width="32" height="32" viewBox="0 0 32 32"><defs><style>.uuid-c04a082b-70dc-4f41-8b9b-815b02b1034a{fill:none;}.uuid-307b7c8a-efb8-4ff7-9d9f-84901695d36c{fill:#151515;}</style></defs><g id="uuid-e8f0eb9a-31b9-4cd7-b7e9-6a826b990cba"><rect class="uuid-c04a082b-70dc-4f41-8b9b-815b02b1034a" width="32" height="32"/></g><g id="uuid-91f94127-e891-41f8-8455-59cdaa1472de"><path class="uuid-307b7c8a-efb8-4ff7-9d9f-84901695d36c" d="M26,19c-2.75684,0-5,2.24316-5,5s2.24316,5,5,5,5-2.24316,5-5-2.24316-5-5-5ZM26,27c-1.6543,0-3-1.3457-3-3s1.3457-3,3-3,3,1.3457,3,3-1.3457,3-3,3Z"/><path class="uuid-307b7c8a-efb8-4ff7-9d9f-84901695d36c" d="M13.70703,19.29297c-.39062-.39062-1.02344-.39062-1.41406,0s-.39062,1.02344,0,1.41406l2.29297,2.29297h-6.58594c-2.20605,0-4-1.79395-4-4s1.79395-4,4-4h16c3.30859,0,6-2.69141,6-6s-2.69141-6-6-6H3c-.55273,0-1,.44727-1,1s.44727,1,1,1h21c2.20605,0,4,1.79395,4,4s-1.79395,4-4,4H8c-3.30859,0-6,2.69141-6,6s2.69141,6,6,6h6.58594l-2.29297,2.29297c-.39062.39062-.39062,1.02344,0,1.41406.19531.19531.45117.29297.70703.29297s.51172-.09766.70703-.29297l4-4c.39062-.39062.39062-1.02344,0-1.41406l-4-4Z"/></g></svg>