<?xml version="1.0" encoding="UTF-8"?><svg xmlns="http://www.w3.org/2000/svg" viewBox="0 0 32 32"><defs><style>.uuid-4213f2a9-f125-480c-a74d-1339f30d747c{fill:none;}.uuid-4213f2a9-f125-480c-a74d-1339f30d747c,.uuid-1df0f935-0922-4a75-9f08-c593cbf07dc1{stroke-width:0px;}.uuid-1df0f935-0922-4a75-9f08-c593cbf07dc1{fill:#151515;}</style></defs><g id="uuid-1ee374a7-56bf-4a25-88c7-d42960d9296e"><rect class="uuid-4213f2a9-f125-480c-a74d-1339f30d747c" width="32" height="32"/></g><g id="uuid-08f5e143-4d25-48fe-b47c-dfd267af56d1"><path class="uuid-1df0f935-0922-4a75-9f08-c593cbf07dc1" d="M29.5,1H2.5c-.8271,0-1.5.6729-1.5,1.5v27c0,.8271.6729,1.5,1.5,1.5h27c.8271,0,1.5-.6729,1.5-1.5V2.5c0-.8271-.6729-1.5-1.5-1.5ZM27.7959,22.7959c-.2197.2197-.5078.3291-.7959.3291s-.5762-.1094-.7959-.3291l-10.2041-10.2051-5.8506,5.8516c-.6152.6133-1.6836.6133-2.2988,0l-3.6465-3.6465c-.4385-.4395-.4385-1.1523,0-1.5918.4395-.4395,1.1523-.4395,1.5918,0l3.2041,3.2051,5.8506-5.8516c.6348-.6328,1.6641-.6328,2.2988,0l10.6465,10.6465c.4385.4395.4385,1.1523,0,1.5918Z"/></g></svg>