<?xml version="1.0" encoding="UTF-8"?><svg xmlns="http://www.w3.org/2000/svg" viewBox="0 0 32 32"><defs><style>.uuid-3154eafa-513b-4c4a-acc6-686c458372a4{fill:none;}.uuid-3154eafa-513b-4c4a-acc6-686c458372a4,.uuid-2d511b91-6963-4843-89ee-7590b5665330{stroke-width:0px;}.uuid-2d511b91-6963-4843-89ee-7590b5665330{fill:#151515;}</style></defs><g id="uuid-e46d04dd-db0b-4769-bb2c-7f66b9693d44"><rect class="uuid-3154eafa-513b-4c4a-acc6-686c458372a4" x="0" width="32" height="32"/></g><g id="uuid-b63505d9-b24f-4d31-9595-ed2ae29a0ab9"><path class="uuid-2d511b91-6963-4843-89ee-7590b5665330" d="M2,6c.5522,0,1-.4478,1-1v-3c0-.5522-.4478-1-1-1s-1,.4478-1,1v3c0,.5522.4478,1,1,1Z"/><path class="uuid-2d511b91-6963-4843-89ee-7590b5665330" d="M30,29H3v-12c0-.5522-.4478-1-1-1s-1,.4478-1,1v12.5c0,.8271.6729,1.5,1.5,1.5h27.5c.5522,0,1-.4478,1-1s-.4478-1-1-1Z"/><path class="uuid-2d511b91-6963-4843-89ee-7590b5665330" d="M7.9395,17.3535c.5664.5664,1.5547.5664,2.1211,0l5.9395-5.9395,13.293,13.293c.1953.1953.4512.293.707.293s.5117-.0977.707-.293c.3906-.3906.3906-1.0234,0-1.4141l-13.6465-13.6465c-.585-.585-1.5361-.585-2.1211,0l-5.9395,5.9395-6.293-6.293c-.3906-.3906-1.0234-.3906-1.4141,0s-.3906,1.0234,0,1.4141l6.6465,6.6465Z"/></g></svg>