<?xml version="1.0" encoding="UTF-8"?><svg xmlns="http://www.w3.org/2000/svg" width="32" height="32" viewBox="0 0 32 32"><defs><style>.uuid-2666c7e7-79d6-40a9-9d26-7cda1819c602{fill:none;}.uuid-07d83f89-2fcf-472c-afd0-fa5aa35df4af{fill:#151515;}</style></defs><g id="uuid-6b6be8bc-b5ad-4d87-bb4f-40fbf6e749b6"><rect class="uuid-2666c7e7-79d6-40a9-9d26-7cda1819c602" width="32" height="32"/></g><g id="uuid-8bb438d7-a1ee-4892-8b31-828dc7828fd2"><path class="uuid-07d83f89-2fcf-472c-afd0-fa5aa35df4af" d="M28.5,2H3.5c-.82715,0-1.5.67285-1.5,1.5v25c0,.82715.67285,1.5,1.5,1.5h25c.82715,0,1.5-.67285,1.5-1.5V3.5c0-.82715-.67285-1.5-1.5-1.5ZM26.79541,21.79541c-.21973.21973-.50732.32959-.79541.32959s-.57568-.10986-.79541-.32959l-8.20459-8.20459-5.85107,5.85107c-.63379.63379-1.66406.63379-2.29785,0l-3.64648-3.64648c-.43945-.43945-.43945-1.15137,0-1.59082s1.15137-.43945,1.59082,0l3.20459,3.20459,5.85107-5.85107c.63379-.63379,1.66406-.63379,2.29785,0l8.64648,8.64648c.43945.43945.43945,1.15137,0,1.59082Z"/></g></svg>