<?xml version="1.0" encoding="UTF-8"?><svg xmlns="http://www.w3.org/2000/svg" width="32" height="32" viewBox="0 0 32 32"><defs><style>.uuid-9b961545-0881-4f8a-8307-0239fed664b4{fill:none;}.uuid-eb351db8-bad7-41c4-b0a1-952af588ec4b{fill:#151515;}</style></defs><g id="uuid-fa8b083e-a89f-4b93-a52b-61825756190b"><rect class="uuid-9b961545-0881-4f8a-8307-0239fed664b4" width="32" height="32"/></g><g id="uuid-d4c9412c-fd57-4bc7-8706-0cbf06aa31d9"><path class="uuid-eb351db8-bad7-41c4-b0a1-952af588ec4b" d="M3,6c.55225,0,1-.44775,1-1v-2c0-.55225-.44775-1-1-1s-1,.44775-1,1v2c0,.55225.44775,1,1,1Z"/><path class="uuid-eb351db8-bad7-41c4-b0a1-952af588ec4b" d="M29,28H4v-11c0-.55225-.44775-1-1-1s-1,.44775-1,1v11.5c0,.82715.67285,1.5,1.5,1.5h25.5c.55225,0,1-.44775,1-1s-.44775-1-1-1Z"/><path class="uuid-eb351db8-bad7-41c4-b0a1-952af588ec4b" d="M8.93945,17.35352c.58496.58496,1.53613.58496,2.12109,0l5.93945-5.93945,11.29297,11.29297c.19531.19531.45117.29297.70703.29297s.51172-.09766.70703-.29297c.39062-.39062.39062-1.02344,0-1.41406l-11.64648-11.64648c-.58496-.58496-1.53613-.58496-2.12109,0l-5.93945,5.93945-6.29297-6.29297c-.39062-.39062-1.02344-.39062-1.41406,0s-.39062,1.02344,0,1.41406l6.64648,6.64648Z"/></g></svg>