<?xml version="1.0" encoding="UTF-8"?><svg xmlns="http://www.w3.org/2000/svg" width="32" height="32" viewBox="0 0 32 32"><defs><style>.uuid-4bdebb3b-f7a1-437f-8f3f-19a364f60969{fill:none;}.uuid-00dc8ffe-96ed-4028-8889-3a2a42df3ac7{fill:#151515;}</style></defs><g id="uuid-6b7c352c-9c89-46d3-b52b-0d2922536cad"><rect class="uuid-4bdebb3b-f7a1-437f-8f3f-19a364f60969" width="32" height="32"/></g><g id="uuid-b04ce351-e813-4125-a5a7-638a88e1d5ed"><path class="uuid-00dc8ffe-96ed-4028-8889-3a2a42df3ac7" d="M16,1C8.14941,1,2,4.51367,2,9v14c0,4.48633,6.14941,8,14,8s14-3.51367,14-8v-14c0-4.48633-6.14941-8-14-8ZM28,23c0,3.25195-5.49512,6-12,6s-12-2.74805-12-6v-2.83899c2.42676,2.31512,6.83905,3.83899,12,3.83899s9.57324-1.52386,12-3.83899v2.83899ZM23.07812,14.90527c.16113.38281.53223.6123.92236.6123.12939,0,.26074-.02539.3877-.07812,1.48718-.62628,2.69165-1.40564,3.61182-2.28217v2.84271c0,3.25195-5.49512,6-12,6s-12-2.74805-12-6v-2.84271c.92017.87653,2.12463,1.65588,3.61182,2.28217.51025.21191,1.09521-.02441,1.31006-.53418.21387-.50879-.0249-1.09473-.53369-1.30957-2.74805-1.15625-4.38818-2.875-4.38818-4.5957,0-3.25195,5.49512-6,12-6s12,2.74805,12,6c0,1.7207-1.64014,3.43945-4.38818,4.5957-.50879.21484-.74756.80078-.53369,1.30957Z"/><path class="uuid-00dc8ffe-96ed-4028-8889-3a2a42df3ac7" d="M21.88379,7.11621c-.48828-.48828-1.2793-.48828-1.76758,0l-4.11621,4.11621-4.11621-4.11621c-.48828-.48828-1.2793-.48828-1.76758,0s-.48828,1.2793,0,1.76758l4.11621,4.11621-4.11621,4.11621c-.48828.48828-.48828,1.2793,0,1.76758.24414.24414.56396.36621.88379.36621s.63965-.12207.88379-.36621l4.11621-4.11621,4.11621,4.11621c.24414.24414.56396.36621.88379.36621s.63965-.12207.88379-.36621c.48828-.48828.48828-1.2793,0-1.76758l-4.11621-4.11621,4.11621-4.11621c.48828-.48828.48828-1.2793,0-1.76758Z"/></g></svg>