<?xml version="1.0" encoding="UTF-8"?><svg xmlns="http://www.w3.org/2000/svg" width="32" height="32" viewBox="0 0 32 32"><defs><style>.uuid-bd5ad454-659c-4d98-9169-6357e4a5c533{fill:none;}.uuid-92f48c47-c153-4355-a089-2a51662b35be{fill:#151515;}</style></defs><g id="uuid-56462436-ddfd-462b-95df-79bb31c91601"><rect class="uuid-bd5ad454-659c-4d98-9169-6357e4a5c533" width="32" height="32"/></g><g id="uuid-c212898d-a69b-4506-a787-5cc66bf4f0f7"><path class="uuid-92f48c47-c153-4355-a089-2a51662b35be" d="M3.07129,20.3125v3.1875c0,3.52344,5.92041,6.5,12.92871,6.5s12.92871-2.97656,12.92871-6.5v-3.1875c-2.56055,2.52344-7.34033,4.1875-12.92871,4.1875s-10.36816-1.66406-12.92871-4.1875Z"/><path class="uuid-92f48c47-c153-4355-a089-2a51662b35be" d="M24.09033,14.64062c-.22949-.50293-.00781-1.0957.49463-1.3252.61462-.28021,1.16077-.58832,1.65417-.91278.09637-.06317.1933-.12616.28522-.19104.19434-.13763.37744-.2785.54956-.42218.03711-.03088.07861-.0603.11475-.09143.2135-.18494.40826-.37451.58411-.56781.02631-.02887.04779-.0589.0733-.08795.14313-.16357.27319-.32953.38867-.49786.03491-.0509.06622-.10248.09863-.15393.09467-.15015.17773-.30194.25-.45502.02734-.05811.05524-.11609.07935-.17474.06342-.15363.11176-.30865.1521-.46442.01422-.05542.03375-.11017.0451-.16595.04279-.20905.06879-.41925.06879-.63031,0-3.52344-5.92041-6.5-12.92871-6.5S3.07129,4.97656,3.07129,8.5c0,.21106.026.42126.06879.63031.01135.05579.03088.11053.0451.16595.04034.15576.08868.31079.1521.46442.02411.05865.052.11664.07935.17474.07227.15308.15533.30487.25.45502.03241.05145.06372.10303.09863.15393.11548.16833.24554.33429.38867.49786.02551.02905.047.05908.0733.08795.17584.1933.37061.38287.58411.56781.03613.03113.07764.06055.11475.09143.17212.14368.35522.28455.54956.42218.09192.06488.18884.12787.28522.19104.49341.32446,1.03955.63257,1.65417.91278.50244.22949.72412.82227.49463,1.3252-.229.50293-.82031.72461-1.32471.49512-1.43262-.65332-2.61572-1.44434-3.51367-2.33008v3.19434c0,3.52344,5.92041,6.5,12.92871,6.5s12.92871-2.97656,12.92871-6.5v-3.19434c-.89795.88574-2.08105,1.67676-3.51367,2.33008-.50342.22656-1.09619.00781-1.32471-.49512ZM21.88379,17.11621c.48828.48828.48828,1.2793,0,1.76758-.24414.24414-.56396.36621-.88379.36621s-.63965-.12207-.88379-.36621l-4.11621-4.11621-4.11621,4.11621c-.24414.24414-.56396.36621-.88379.36621s-.63965-.12207-.88379-.36621c-.48828-.48828-.48828-1.2793,0-1.76758l4.11621-4.11621-4.11621-4.11621c-.48828-.48828-.48828-1.2793,0-1.76758s1.2793-.48828,1.76758,0l4.11621,4.11621,4.11621-4.11621c.48828-.48828,1.2793-.48828,1.76758,0s.48828,1.2793,0,1.76758l-4.11621,4.11621,4.11621,4.11621Z"/></g></svg>