<?xml version="1.0" encoding="UTF-8"?><svg xmlns="http://www.w3.org/2000/svg" viewBox="0 0 32 32"><defs><style>.uuid-a9446dab-0ec4-4db8-880e-4e6ef4dfc7c3{fill:none;}.uuid-a9446dab-0ec4-4db8-880e-4e6ef4dfc7c3,.uuid-ca8e2d55-42ba-468d-8467-301c10c878f6{stroke-width:0px;}.uuid-ca8e2d55-42ba-468d-8467-301c10c878f6{fill:#151515;}</style></defs><g id="uuid-ee54cc7e-5287-4b2d-a350-d0c6ebf76889"><rect class="uuid-a9446dab-0ec4-4db8-880e-4e6ef4dfc7c3" x="0" width="32" height="32"/></g><g id="uuid-5e412b1c-a535-4115-ba88-57a4f1e07cae"><path class="uuid-ca8e2d55-42ba-468d-8467-301c10c878f6" d="M29.5,2H2.5c-.8271,0-1.5.6729-1.5,1.5v17c0,.8271.6729,1.5,1.5,1.5h9.5v6h-4c-.5522,0-1,.4478-1,1s.4478,1,1,1h16c.5522,0,1-.4478,1-1s-.4478-1-1-1h-4v-6h9.5c.8271,0,1.5-.6729,1.5-1.5V3.5c0-.8271-.6729-1.5-1.5-1.5ZM18,28h-4v-6h4v6ZM29,20H3V4h26v16Z"/></g></svg>