<?xml version="1.0" encoding="UTF-8"?><svg xmlns="http://www.w3.org/2000/svg" width="32" height="32" viewBox="0 0 32 32"><defs><style>.uuid-0fc8e045-2445-4f5a-9a59-bc25b501e492{fill:none;}.uuid-71f39260-8d95-497b-b359-68f60e7b66c6{fill:#151515;}</style></defs><g id="uuid-1b6ea286-28ed-40e3-9200-59b0fddf912e"><rect class="uuid-0fc8e045-2445-4f5a-9a59-bc25b501e492" width="32" height="32"/></g><g id="uuid-be5f13b6-9ded-47d2-ad8b-b692a860fbe8"><path class="uuid-71f39260-8d95-497b-b359-68f60e7b66c6" d="M29.5,3H2.5c-.82715,0-1.5.67285-1.5,1.5v17c0,.82715.67285,1.5,1.5,1.5h9.5v4h-4c-.55225,0-1,.44775-1,1s.44775,1,1,1h16c.55225,0,1-.44775,1-1s-.44775-1-1-1h-4v-4h9.5c.82715,0,1.5-.67285,1.5-1.5V4.5c0-.82715-.67285-1.5-1.5-1.5ZM18,27h-4v-4h4v4Z"/></g></svg>