<?xml version="1.0" encoding="UTF-8"?><svg xmlns="http://www.w3.org/2000/svg" width="32" height="32" viewBox="0 0 32 32"><defs><style>.uuid-7dfa3dac-374f-4a9f-afc7-7f5a675f83b8{fill:none;}.uuid-4b0d7eef-eede-4152-b3d7-80e74fd02001{fill:#151515;}</style></defs><g id="uuid-f49fc02d-e62b-4bd0-b38f-6c6fdc01e0f0"><rect class="uuid-7dfa3dac-374f-4a9f-afc7-7f5a675f83b8" width="32" height="32"/></g><g id="uuid-9e107b6c-25d6-4383-b3ff-87aad5411a9c"><path class="uuid-4b0d7eef-eede-4152-b3d7-80e74fd02001" d="M29.5,3H2.5c-.82715,0-1.5.67285-1.5,1.5v17c0,.82715.67285,1.5,1.5,1.5h9.5v4h-4c-.55225,0-1,.44775-1,1s.44775,1,1,1h16c.55225,0,1-.44775,1-1s-.44775-1-1-1h-4v-4h9.5c.82715,0,1.5-.67285,1.5-1.5V4.5c0-.82715-.67285-1.5-1.5-1.5ZM18,27h-4v-4h4v4ZM29,21H3V5h26v16Z"/></g></svg>