<?xml version="1.0" encoding="UTF-8"?><svg xmlns="http://www.w3.org/2000/svg" viewBox="0 0 32 32"><defs><style>.uuid-87d02b02-d836-417a-8805-334926cebb57{fill:none;}.uuid-87d02b02-d836-417a-8805-334926cebb57,.uuid-0bb2c0a2-9569-488a-8451-97a14e925aa9{stroke-width:0px;}.uuid-0bb2c0a2-9569-488a-8451-97a14e925aa9{fill:#151515;}</style></defs><g id="uuid-b4178914-13a5-47b0-94d3-111e241b83d7"><rect class="uuid-87d02b02-d836-417a-8805-334926cebb57" x="0" width="32" height="32"/></g><g id="uuid-b0dd6d04-b570-472f-b381-934862277830"><path class="uuid-0bb2c0a2-9569-488a-8451-97a14e925aa9" d="M29.5,2H2.5c-.8271,0-1.5.6729-1.5,1.5v17c0,.8271.6729,1.5,1.5,1.5h9.5v6h-4c-.5522,0-1,.4473-1,1s.4478,1,1,1h16c.5522,0,1-.4473,1-1s-.4478-1-1-1h-4v-6h9.5c.8271,0,1.5-.6729,1.5-1.5V3.5c0-.8271-.6729-1.5-1.5-1.5ZM18,28h-4v-6h4v6Z"/></g></svg>