<?xml version="1.0" encoding="UTF-8"?><svg xmlns="http://www.w3.org/2000/svg" width="32" height="32" viewBox="0 0 32 32"><defs><style>.uuid-01770e64-d332-4ed6-ac10-2a88eceaddad{fill:none;}.uuid-9c1ffa8d-e8c9-4dc7-8708-8cc1dea23002{fill:#151515;}</style></defs><g id="uuid-2fdff496-9148-4cf6-b984-b0598e205b83"><rect class="uuid-01770e64-d332-4ed6-ac10-2a88eceaddad" width="32" height="32"/></g><g id="uuid-705f4200-68ef-4c49-8f6c-3e52b5180bb3"><path class="uuid-9c1ffa8d-e8c9-4dc7-8708-8cc1dea23002" d="M31.67578,25.7832l-6.67578-14.99609V3h1c.55273,0,1-.44727,1-1s-.44727-1-1-1h-1.5c-.82715,0-1.5.67285-1.5,1.5v8.5c0,.14062.0293.27832.08691.40625l2.93567,6.59375h-5.02258c-.55273,0-1,.44727-1,1s.44727,1,1,1h5.91302l2.93658,6.5957c.23926.53906.19238,1.13184-.12793,1.62598-.32129.49512-.84375.77832-1.43359.77832H11.71094c-.58887,0-1.11133-.2832-1.43262-.77734-.32031-.49512-.36719-1.08789-.12793-1.62695l1.41992-3.18945c.22461-.50391-.00195-1.09473-.50684-1.31934-.50391-.22656-1.0957.00293-1.31934.50684l-1.41992,3.18848c-.51367,1.15234-.40918,2.47168.27734,3.5293s1.84863,1.68848,3.10938,1.68848h16.57715c1.26074,0,2.42383-.63086,3.11035-1.68848s.79102-2.37695.27734-3.52832Z"/><path class="uuid-9c1ffa8d-e8c9-4dc7-8708-8cc1dea23002" d="M15,3h1v7c0,.55273.44727,1,1,1s1-.44727,1-1V2.5c0-.82715-.67285-1.5-1.5-1.5h-1.5c-.55273,0-1,.44727-1,1s.44727,1,1,1Z"/><path class="uuid-9c1ffa8d-e8c9-4dc7-8708-8cc1dea23002" d="M10,11c2.20605,0,4-1.79395,4-4s-1.79395-4-4-4-4,1.79395-4,4,1.79395,4,4,4ZM10,5c1.10254,0,2,.89746,2,2s-.89746,2-2,2-2-.89746-2-2,.89746-2,2-2Z"/><path class="uuid-9c1ffa8d-e8c9-4dc7-8708-8cc1dea23002" d="M10,17c0-2.20605-1.79395-4-4-4s-4,1.79395-4,4,1.79395,4,4,4,4-1.79395,4-4ZM6,19c-1.10254,0-2-.89746-2-2s.89746-2,2-2,2,.89746,2,2-.89746,2-2,2Z"/><path class="uuid-9c1ffa8d-e8c9-4dc7-8708-8cc1dea23002" d="M3,11c.55273,0,1-.44727,1-1v-6c0-.55273-.44727-1-1-1s-1,.44727-1,1v6c0,.55273.44727,1,1,1Z"/><path class="uuid-9c1ffa8d-e8c9-4dc7-8708-8cc1dea23002" d="M17,13c-.55273,0-1,.44727-1,1v6c0,.55273.44727,1,1,1s1-.44727,1-1v-6c0-.55273-.44727-1-1-1Z"/><path class="uuid-9c1ffa8d-e8c9-4dc7-8708-8cc1dea23002" d="M12,14v6c0,.55273.44727,1,1,1s1-.44727,1-1v-6c0-.55273-.44727-1-1-1s-1,.44727-1,1Z"/></g></svg>