<?xml version="1.0" encoding="UTF-8"?><svg xmlns="http://www.w3.org/2000/svg" width="32" height="32" viewBox="0 0 32 32"><defs><style>.uuid-38012f98-daf2-46f2-9b89-bab894584118{fill:none;}.uuid-951e9d41-afe5-4daf-98f1-ce0602fdf7dd{fill:#151515;}</style></defs><g id="uuid-bc83508f-0641-40c4-80bb-7f91a9e6a321"><rect class="uuid-38012f98-daf2-46f2-9b89-bab894584118" width="32" height="32"/></g><g id="uuid-0f1bd475-c606-4abe-a923-e5e03ad523cd"><path class="uuid-951e9d41-afe5-4daf-98f1-ce0602fdf7dd" d="M4.25,10.42871c.2373-.49902.02441-1.0957-.47461-1.33203-.5-.23682-1.0957-.02295-1.33203.47461C-.26758,15.28613.91895,22.13232,5.39355,26.60645c.19531.19531.45117.29297.70703.29297s.51172-.09766.70703-.29297c.39062-.39062.39062-1.02344,0-1.41406-3.87891-3.87793-4.90625-9.81104-2.55762-14.76367Z"/><path class="uuid-951e9d41-afe5-4daf-98f1-ce0602fdf7dd" d="M9.05469,15.12451c.06836-.54785-.31934-1.04785-.86816-1.1167-.55078-.07227-1.04785.31982-1.11621.86768-.34863,2.7793.58594,5.50879,2.56543,7.48828.19531.19531.45117.29297.70703.29297s.51172-.09766.70703-.29297c.39062-.39014.39062-1.02344,0-1.41406-1.53906-1.53955-2.2666-3.66309-1.99512-5.8252Z"/><path class="uuid-951e9d41-afe5-4daf-98f1-ce0602fdf7dd" d="M27.27905,25.86499c2.39789-2.73438,3.72095-6.19427,3.72095-9.86499,0-4.00684-1.56055-7.77344-4.39355-10.60645-.39062-.39062-1.02344-.39062-1.41406,0s-.39062,1.02344,0,1.41406c2.45508,2.45557,3.80762,5.72021,3.80762,9.19238,0,3.13605-1.11255,6.09662-3.13507,8.45087l-2.83557-2.83557c2.82397-3.53015,2.60455-8.70941-.6651-11.97906-.39062-.39062-1.02344-.39062-1.41406,0s-.39062,1.02344,0,1.41406c2.48895,2.48895,2.70062,6.39655.65039,9.13623L3.70703,2.29297c-.39062-.39062-1.02344-.39062-1.41406,0s-.39062,1.02344,0,1.41406l26,26c.19531.19531.45117.29297.70703.29297s.51172-.09766.70703-.29297c.39062-.39062.39062-1.02344,0-1.41406l-2.42798-2.42798Z"/></g></svg>