<?xml version="1.0" encoding="UTF-8"?><svg xmlns="http://www.w3.org/2000/svg" viewBox="0 0 32 32"><defs><style>.uuid-2b4b4f57-dd60-4751-b50b-5f89aa64aabc{fill:none;}.uuid-2b4b4f57-dd60-4751-b50b-5f89aa64aabc,.uuid-c725e296-083c-41c2-9bde-4f61a6c9440d{stroke-width:0px;}.uuid-c725e296-083c-41c2-9bde-4f61a6c9440d{fill:#151515;}</style></defs><g id="uuid-ba5bb114-56e2-4866-892d-f70f8deac82d"><rect class="uuid-2b4b4f57-dd60-4751-b50b-5f89aa64aabc" x="0" width="32" height="32"/></g><g id="uuid-d36df9af-9f6d-44d2-be27-d51ad65b337c"><path class="uuid-c725e296-083c-41c2-9bde-4f61a6c9440d" d="M8,16c0-.792.1152-1.5737.3423-2.3237.1602-.5288-.1387-1.0869-.667-1.2471-.5283-.1592-1.0874.1382-1.2471.667-.2842.9385-.4282,1.9155-.4282,2.9038,0,2.6714,1.0405,5.1826,2.9292,7.0708.1953.1953.4512.293.707.293s.5117-.0977.707-.293c.3906-.3906.3906-1.0239,0-1.4141-1.5112-1.5107-2.3433-3.5195-2.3433-5.6567Z"/><path class="uuid-c725e296-083c-41c2-9bde-4f61a6c9440d" d="M2,16c0-2.3403.5884-4.6558,1.7021-6.6963.2646-.4849.0859-1.0923-.3989-1.3569-.4858-.2642-1.0913-.0854-1.3569.3989-1.2734,2.3335-1.9463,4.98-1.9463,7.6543,0,4.2734,1.6646,8.2915,4.6865,11.3135.1953.1953.4512.293.707.293s.5117-.0977.707-.293c.3906-.3906.3906-1.0234,0-1.4141-2.644-2.6445-4.1006-6.1602-4.1006-9.8994Z"/><path class="uuid-c725e296-083c-41c2-9bde-4f61a6c9440d" d="M27.9861,26.5721c2.5858-2.924,4.0139-6.6343,4.0139-10.5721,0-4.2739-1.6646-8.292-4.6865-11.3135-.3906-.3906-1.0234-.3906-1.4141,0s-.3906,1.0239,0,1.4141c2.6445,2.644,4.1006,6.1597,4.1006,9.8994,0,3.4036-1.2175,6.6138-3.4279,9.158l-2.8291-2.8291c1.4617-1.7812,2.257-3.9938,2.257-6.3289,0-2.6714-1.0405-5.1826-2.9292-7.0708-.3906-.3906-1.0234-.3906-1.4141,0s-.3906,1.0239,0,1.4141c1.5112,1.5107,2.3433,3.5195,2.3433,5.6567,0,1.7996-.5963,3.5042-1.6849,4.901L2.707,1.293c-.3906-.3906-1.0234-.3906-1.4141,0s-.3906,1.0234,0,1.4141l28,28c.1953.1953.4512.293.707.293s.5117-.0977.707-.293c.3906-.3906.3906-1.0234,0-1.4141l-2.7209-2.7209Z"/></g></svg>