<?xml version="1.0" encoding="UTF-8"?><svg xmlns="http://www.w3.org/2000/svg" width="32" height="32" viewBox="0 0 32 32"><defs><style>.uuid-c922b195-76d0-4b87-b69b-f2501ad32bbb{fill:none;}.uuid-e22e5036-b34d-4426-b57e-9ff11ea8e039{fill:#151515;}</style></defs><g id="uuid-238b7cb9-b28a-4159-a5db-284ea14b8e72"><rect class="uuid-c922b195-76d0-4b87-b69b-f2501ad32bbb" width="32" height="32"/></g><g id="uuid-7605c663-7e5e-4fe8-bc16-f6004422cb68"><path class="uuid-e22e5036-b34d-4426-b57e-9ff11ea8e039" d="M30.28711,17.37598l-2.16992-10.20703c-.38965-1.83643-2.03516-3.16895-3.91309-3.16895h-14.2962c-.20709-.58075-.7569-1-1.4079-1H3.5c-.82715,0-1.5.67285-1.5,1.5v16c0,.82715.67285,1.5,1.5,1.5h5c.651,0,1.20081-.41925,1.4079-1h.5921c2.4502,0,4.46875,1.99316,4.5,4.44141.0166,1.41211.72266,2.62598,1.84277,3.16748.54395.2627,1.1084.39355,1.66309.39355.64844,0,1.2832-.1792,1.85156-.53564,1.02832-.64502,1.64258-1.75391,1.64258-2.9668v-4.5h5.35254c.90918,0,1.75879-.40527,2.33105-1.1123s.79199-1.62256.60352-2.51172ZM8,20h-4V5h4v15ZM28.12988,18.62939c-.19141.23535-.47461.37061-.77734.37061h-5.85254c-.82715,0-1.5.67285-1.5,1.5v5c0,.52002-.26367.99561-.70508,1.27246-.26855.16895-.83301.39941-1.58105.03564-.51758-.25-.70801-.88135-.71387-1.39062-.04492-3.53857-2.96094-6.41748-6.5-6.41748h-.5V6h14.2041c.93848,0,1.76172.66602,1.95605,1.58447l2.16992,10.20752c.06348.29639-.00977.60156-.2002.8374Z"/></g></svg>