<?xml version="1.0" encoding="UTF-8"?><svg xmlns="http://www.w3.org/2000/svg" viewBox="0 0 32 32"><defs><style>.uuid-56ec3f9d-f6d0-48f4-8c45-99eafc57f93e{fill:none;}.uuid-56ec3f9d-f6d0-48f4-8c45-99eafc57f93e,.uuid-bb62ee0d-42fb-4250-8718-98483f0d03ae{stroke-width:0px;}.uuid-bb62ee0d-42fb-4250-8718-98483f0d03ae{fill:#151515;}</style></defs><g id="uuid-50671301-92b4-4b50-8cdb-53c0fbd154bd"><rect class="uuid-56ec3f9d-f6d0-48f4-8c45-99eafc57f93e" x="0" width="32" height="32"/></g><g id="uuid-4ec85623-4a78-42b6-9779-d237bc92a290"><path class="uuid-bb62ee0d-42fb-4250-8718-98483f0d03ae" d="M27.3047,12.223h-5.691c-.2955,0-.5347-.2391-.5347-.5346s.2391-.5347.5347-.5347h3.7425c.5983,0,1.1727-.2527,1.5768-.6934.4104-.447.6067-1.0286.5535-1.6384-.095-1.0901-1.1142-1.9454-2.3203-1.9454h-2.4832c-.2955,0-.5347-.2391-.5347-.5347s.2391-.5346.5347-.5346h1.0693c.9824,0,1.8946-.653,2.087-1.6164.0548-.2745.0674-.5645.0305-.8629-.1693-1.369-1.4477-2.3326-2.8271-2.3326h-9.9832C7.1569.9954,2.3665,5.7859,2.3665,11.6884c0,.6824.056,1.3646.1593,2.0389.2635,1.7208.8051,3.4658,1.7762,4.9221.9186,1.3776,2.123,2.4622,3.4706,3.412,1.6001,1.1276,4.1832,2.8492,6.0813,4.1033,1.8535,1.1142,2.4133,1.7786,2.4133,3.167l.0034.1359c.0093.1855.0377.366.0829.5397.0151.058.0426.1101.0614.1664.0376.1125.0722.2266.1238.332.0307.0627.0735.1174.1089.1772.0537.0909.1031.1848.1668.2684.0447.0585.1001.1072.1494.1618.0674.0748.1307.1534.2061.2202.0565.0499.122.0884.1826.1335.0792.059.1547.1226.2404.1727.0686.0402.1447.067.217.101.087.041.1709.0873.2627.1188.077.0264.1599.0381.2398.0575.0948.0231.1872.0521.2857.0646.0831.0106.1702.005.2554.0079.0941.0032.1857.0156.282.0088.0075-.0005.0142-.0034.0217-.004.0077-.0005.0148.001.0225.0004.0934-.0081.1799-.0345.2697-.0526.0732-.0149.1492-.0218.2198-.043.0989-.0295.1901-.0744.2834-.1155.0621-.0274.1279-.0475.1873-.0797.0814-.0441.1542-.101.2302-.1535.0636-.0438.1311-.0815.1907-.1307.0554-.0458.1022-.1011.1539-.1513.0706-.0684.1443-.1331.2076-.2088.0299-.0359.0527-.0775.0809-.1149.0748-.0989.1495-.1976.2116-.306.0129-.0226.0211-.048.0334-.071.0689-.1281.1335-.2589.1836-.3971.0054-.0151.0074-.0313.0126-.0464.051-.1478.0944-.299.1221-.4548.0114-.0638.0103-.13.0176-.1948.0121-.1082.0294-.2154.0295-.3256,0-.0014-.0003-.0026-.0003-.004,0-.001.0003-.0019.0003-.0029,0-.02-.0041-.038-.0042-.0579-.0025-.3199-.025-.6299-.0666-.9302-.0154-.1111-.0431-.2159-.0634-.3245-.0381-.204-.0763-.4077-.1303-.6031-.0342-.124-.0779-.2428-.118-.3636-.0568-.1709-.1136-.3416-.1812-.5065-.0515-.1259-.1089-.2481-.1661-.3707-.0703-.1508-.1415-.3006-.2194-.4468-.0671-.126-.1376-.2498-.2097-.3726-.0789-.1343-.1595-.2674-.2436-.3983-.0815-.1267-.1639-.2521-.2495-.3758-.0815-.1177-.1644-.2337-.2488-.3489-.0973-.1327-.1943-.2648-.2946-.3945-.0708-.0914-.1425-.1813-.2145-.2714-.1236-.155-.2466-.3094-.3721-.4609,0-.0001-.0002-.0002-.0002-.0003-.1489-.1796-.2982-.3589-.4471-.5347l-.3638-.3676c.0973-.1021.2328-.1671.3853-.1671h6.9504c.5983,0,1.1727-.2527,1.5768-.6934.4104-.447.6067-1.0286.5535-1.6384-.095-1.0901-1.1142-1.9454-2.3203-1.9454h-4.6218c-.2955,0-.5346-.2391-.5346-.5347s.2391-.5347.5346-.5347h6.9504c.5983,0,1.1727-.2527,1.5768-.6934.4104-.4469.6067-1.0286.5534-1.6384-.095-1.0902-1.1142-1.9454-2.3203-1.9454Z"/></g></svg>