<?xml version="1.0" encoding="UTF-8"?><svg xmlns="http://www.w3.org/2000/svg" width="32" height="32" viewBox="0 0 32 32"><defs><style>.uuid-5fd476e4-69a0-411f-95df-c10a9aa34dd8{fill:none;}.uuid-5f0b8d70-2302-4211-98dd-2f26ceb538f1{fill:#151515;}</style></defs><g id="uuid-573c808f-1944-4fd0-a76c-5fb5239ea352"><rect class="uuid-5fd476e4-69a0-411f-95df-c10a9aa34dd8" width="32" height="32"/></g><g id="uuid-ff3afab9-e919-4ed3-b849-73b2d1899941"><path class="uuid-5f0b8d70-2302-4211-98dd-2f26ceb538f1" d="M7.58301,3H3.41699c-.78125,0-1.41699.67285-1.41699,1.5v16c0,.82715.63574,1.5,1.41699,1.5h4.16602c.78125,0,1.41699-.67285,1.41699-1.5V4.5c0-.82715-.63574-1.5-1.41699-1.5Z"/><path class="uuid-5f0b8d70-2302-4211-98dd-2f26ceb538f1" d="M29.79785,17.47998l-2.16992-10.20703c-.34082-1.60693-1.78125-2.77295-3.42383-2.77295h-13.2041v16.05048c2.48877.25439,4.46796,2.33484,4.5,4.88556.01367,1.2207.6123,2.26416,1.56055,2.72266.47266.22852.96387.34277,1.44434.34277.55762-.00049,1.10059-.15332,1.58691-.45801.88184-.55322,1.4082-1.50391,1.4082-2.54346v-5h5.85254c.75781,0,1.46582-.33789,1.94238-.92676.47754-.58936.66016-1.35205.50293-2.09326Z"/></g></svg>