<?xml version="1.0" encoding="UTF-8"?><svg xmlns="http://www.w3.org/2000/svg" viewBox="0 0 32 32"><defs><style>.uuid-03ee890c-12dd-4a2f-a5cf-64bc3a92fdf4{fill:none;}.uuid-03ee890c-12dd-4a2f-a5cf-64bc3a92fdf4,.uuid-473b62f2-82d1-4268-bcfd-f0a3902864fa{stroke-width:0px;}.uuid-473b62f2-82d1-4268-bcfd-f0a3902864fa{fill:#151515;}</style></defs><g id="uuid-9e0df63f-485f-4a7e-aa9c-ac5b86c275dc"><rect class="uuid-03ee890c-12dd-4a2f-a5cf-64bc3a92fdf4" x="0" width="32" height="32"/></g><g id="uuid-e230e4e2-2731-450c-abef-7dc6042d9685"><path class="uuid-473b62f2-82d1-4268-bcfd-f0a3902864fa" d="M29.9863,14.1895c-.1201-1.3828-1.1099-2.5342-2.4302-2.9849.3379-.6074.4917-1.3101.4302-2.0151-.1201-1.3828-1.1099-2.5342-2.4302-2.9849.3379-.6074.4917-1.3101.4302-2.0151-.1558-1.7886-1.7651-3.1895-3.6636-3.1895h-9.3228C6.9346,1,2,5.9346,2,12c0,.6714.0542,1.3638.1606,2.0581.3008,1.9648.9126,3.6494,1.8174,5.0063.8452,1.2686,1.958,2.3657,3.5015,3.4536,1.5117,1.0654,3.9409,2.6841,5.7485,3.877,1.7002,1.0225,1.772,1.3843,1.7725,2.1318l.0044.1499c.0469.9434.4829,1.8408,1.1958,2.4624.6436.561,1.4492.8608,2.2959.8608.104,0,.2085-.0044.3135-.0137,1.7886-.1548,3.1899-1.7642,3.1899-3.6636,0-2.1802-.915-3.9199-1.9351-5.3228h4.4351c.9785,0,1.9189-.4136,2.5806-1.1353.6606-.7212.9912-1.6958.9058-2.6753-.0425-.4868-.1924-.9453-.4272-1.3545.5776-.1836,1.105-.5161,1.5215-.9702.6606-.7212.9912-1.6958.9058-2.6753ZM27.6064,15.5132c-.2881.314-.6807.4868-1.1064.4868h-6.5c-.5522,0-1,.4478-1,1s.4478,1,1,1h4.3228c.856,0,1.606.6113,1.6714,1.3633.0371.4282-.1006.8364-.3877,1.1499-.2881.314-.6807.4868-1.1064.4868h-6.5093c-.2812-.0151-.4673.0752-.6572.2373-.4214.3569-.4736.9883-.1162,1.4092,1.5767,1.8599,2.7827,3.459,2.7827,5.6763,0,.8564-.6113,1.606-1.3628,1.6714-.4165.0371-.8125-.0928-1.1221-.3628-.3101-.2705-.4927-.645-.5122-1.0312l-.0029-.1001c0-1.835-.9233-2.7261-2.7056-3.7964-1.7603-1.1626-4.1714-2.769-5.6626-3.8203-1.3354-.9409-2.2856-1.8716-2.9897-2.9282-.7422-1.1128-1.248-2.5254-1.5049-4.1997-.0908-.5947-.1372-1.1851-.1372-1.7554,0-4.9624,4.0376-9,9-9h9.3228c.856,0,1.606.6113,1.6714,1.3633.0371.4282-.1006.8364-.3877,1.1499-.2881.314-.6807.4868-1.1064.4868-.5522,0-1,.4478-1,1s.4478,1,1,1h1.8228c.856,0,1.606.6113,1.6714,1.3633.0371.4282-.1006.8364-.3877,1.1499-.2881.314-.6807.4868-1.1064.4868h-3.5c-.5522,0-1,.4478-1,1s.4478,1,1,1h5.3228c.856,0,1.606.6113,1.6714,1.3633.0371.4282-.1006.8364-.3877,1.1499Z"/></g></svg>