<?xml version="1.0" encoding="UTF-8"?><svg xmlns="http://www.w3.org/2000/svg" viewBox="0 0 32 32"><defs><style>.uuid-8b5e3a23-422c-4701-88c8-0fa5080f2a56{fill:none;}.uuid-8b5e3a23-422c-4701-88c8-0fa5080f2a56,.uuid-6d80a775-40ef-4171-bf7b-616decbe65ac{stroke-width:0px;}.uuid-6d80a775-40ef-4171-bf7b-616decbe65ac{fill:#151515;}</style></defs><g id="uuid-d4d52b24-5eda-4eb4-ac38-3859d9a3f5c8"><rect class="uuid-8b5e3a23-422c-4701-88c8-0fa5080f2a56" width="32" height="32"/></g><g id="uuid-6b349cce-f471-43d2-a821-074f635fc8bc"><path class="uuid-6d80a775-40ef-4171-bf7b-616decbe65ac" d="M16,1c-.5527,0-1,.4478-1,1v28c0,.5522.4473,1,1,1s1-.4478,1-1V2c0-.5522-.4473-1-1-1Z"/><path class="uuid-6d80a775-40ef-4171-bf7b-616decbe65ac" d="M30.3535,14.9395l-3.6465-3.6465c-.3906-.3906-1.0234-.3906-1.4141,0s-.3906,1.0234,0,1.4141l2.293,2.293h-6.5859c-.5527,0-1,.4478-1,1s.4473,1,1,1h6.5859l-2.293,2.293c-.3906.3906-.3906,1.0234,0,1.4141.1953.1953.4512.293.707.293s.5117-.0977.707-.293l3.6465-3.6465c.585-.585.585-1.5361,0-2.1211Z"/><circle class="uuid-6d80a775-40ef-4171-bf7b-616decbe65ac" cx="9" cy="8.0002" r="1.5"/><circle class="uuid-6d80a775-40ef-4171-bf7b-616decbe65ac" cx="2" cy="3.0002" r="1.5"/><circle class="uuid-6d80a775-40ef-4171-bf7b-616decbe65ac" cx="2" cy="12.0099" r="1.5"/><circle class="uuid-6d80a775-40ef-4171-bf7b-616decbe65ac" cx="2" cy="19.9999" r="1.5"/><circle class="uuid-6d80a775-40ef-4171-bf7b-616decbe65ac" cx="2" cy="28.9999" r="1.5"/><circle class="uuid-6d80a775-40ef-4171-bf7b-616decbe65ac" cx="9" cy="16.0002" r="1.5"/><circle class="uuid-6d80a775-40ef-4171-bf7b-616decbe65ac" cx="9" cy="24.0002" r="1.5"/></g></svg>