<?xml version="1.0" encoding="UTF-8"?><svg xmlns="http://www.w3.org/2000/svg" width="32" height="32" viewBox="0 0 32 32"><defs><style>.uuid-96d92117-6793-4aff-9227-6aead227c833{fill:none;}.uuid-d1123774-043b-4866-97f9-5c5251314e5f{fill:#151515;}</style></defs><g id="uuid-fffbabf9-da7b-4353-96f6-2e5b37edaf67"><rect class="uuid-96d92117-6793-4aff-9227-6aead227c833" width="32" height="32"/></g><g id="uuid-8c465351-d8fa-4615-aa9e-835f4d011871"><path class="uuid-d1123774-043b-4866-97f9-5c5251314e5f" d="M16,2c-.55273,0-1,.44775-1,1v26c0,.55225.44727,1,1,1s1-.44775,1-1V3c0-.55225-.44727-1-1-1Z"/><path class="uuid-d1123774-043b-4866-97f9-5c5251314e5f" d="M30.35352,14.93945l-3.64648-3.64648c-.39062-.39062-1.02344-.39062-1.41406,0s-.39062,1.02344,0,1.41406l2.29297,2.29297h-6.58594c-.55273,0-1,.44775-1,1s.44727,1,1,1h6.58594l-2.29297,2.29297c-.39062.39062-.39062,1.02344,0,1.41406.19531.19531.45117.29297.70703.29297s.51172-.09766.70703-.29297l3.64648-3.64648c.2832-.2832.43945-.66016.43945-1.06055s-.15625-.77734-.43945-1.06055Z"/><circle class="uuid-d1123774-043b-4866-97f9-5c5251314e5f" cx="3.00488" cy="4.0033" r="1.625"/><circle class="uuid-d1123774-043b-4866-97f9-5c5251314e5f" cx="3.00488" cy="12.00378" r="1.625"/><circle class="uuid-d1123774-043b-4866-97f9-5c5251314e5f" cx="3.00488" cy="20.0033" r="1.625"/><circle class="uuid-d1123774-043b-4866-97f9-5c5251314e5f" cx="3.00488" cy="28.0033" r="1.625"/><circle class="uuid-d1123774-043b-4866-97f9-5c5251314e5f" cx="10" cy="8.00977" r="1.625"/><circle class="uuid-d1123774-043b-4866-97f9-5c5251314e5f" cx="10" cy="15.99866" r="1.625"/><circle class="uuid-d1123774-043b-4866-97f9-5c5251314e5f" cx="10" cy="24.01294" r="1.625"/></g></svg>