<svg xmlns="http://www.w3.org/2000/svg" viewBox="0 0 32 32">
  <defs>
    <style>
      .uuid-6d80a775-40ef-4171-bf7b-616decbe65ac{stroke-width:0;fill:#151515}
    </style>
  </defs>
  <path d="M0 0h32v32H0z" id="uuid-d4d52b24-5eda-4eb4-ac38-3859d9a3f5c8" stroke-width="0" fill="none"/>
  <g id="uuid-6b349cce-f471-43d2-a821-074f635fc8bc">
    <path class="uuid-6d80a775-40ef-4171-bf7b-616decbe65ac" d="M16 1a1 1 0 0 0-1 1v28a1 1 0 1 0 2 0V2a1 1 0 0 0-1-1Zm14.354 13.94-3.647-3.647a1 1 0 1 0-1.414 1.414L27.586 15H21a1 1 0 1 0 0 2h6.586l-2.293 2.293a1 1 0 1 0 1.414 1.414l3.646-3.646a1.501 1.501 0 0 0 0-2.121Z"/>
    <circle class="uuid-6d80a775-40ef-4171-bf7b-616decbe65ac" cx="9" cy="8" r="1.5"/>
    <circle class="uuid-6d80a775-40ef-4171-bf7b-616decbe65ac" cx="2" cy="3" r="1.5"/>
    <circle class="uuid-6d80a775-40ef-4171-bf7b-616decbe65ac" cx="2" cy="12.01" r="1.5"/>
    <circle class="uuid-6d80a775-40ef-4171-bf7b-616decbe65ac" cx="2" cy="20" r="1.5"/>
    <circle class="uuid-6d80a775-40ef-4171-bf7b-616decbe65ac" cx="2" cy="29" r="1.5"/>
    <circle class="uuid-6d80a775-40ef-4171-bf7b-616decbe65ac" cx="9" cy="16" r="1.5"/>
    <circle class="uuid-6d80a775-40ef-4171-bf7b-616decbe65ac" cx="9" cy="24" r="1.5"/>
  </g>
</svg>
