<?xml version="1.0" encoding="UTF-8"?><svg xmlns="http://www.w3.org/2000/svg" viewBox="0 0 32 32"><defs><style>.uuid-d338112c-9b64-48a3-97cb-78ce6bab3fb1{fill:none;}.uuid-d338112c-9b64-48a3-97cb-78ce6bab3fb1,.uuid-49c98bfa-7f5b-410a-8f88-22f485c7e938{stroke-width:0px;}.uuid-49c98bfa-7f5b-410a-8f88-22f485c7e938{fill:#151515;}</style></defs><g id="uuid-dc4228d0-2abf-41ff-bfc3-8c6a219c5c90"><rect class="uuid-d338112c-9b64-48a3-97cb-78ce6bab3fb1" width="32" height="32"/></g><g id="uuid-eae4605f-eff4-4bd8-86e3-c8dbf4230aa3"><path class="uuid-49c98bfa-7f5b-410a-8f88-22f485c7e938" d="M26.5,1h-14.5c-.134,0-.2648.0272-.3859.0779-.1215.0508-.2308.1245-.3223.2163-.0005.0005-.0013.0007-.0018.0012l-6.8555,6.9019c-.2564.181-.4345.465-.4345.8027,0,.0083.0046.0152.0048.0234-.0002.0082-.0048.0156-.0048.0239v20.4526c0,.8271.6729,1.5,1.5,1.5h21c.8271,0,1.5-.6729,1.5-1.5V2.5c0-.8271-.6729-1.5-1.5-1.5ZM11,4.4256v3.5744h-3.5504l3.5504-3.5744ZM26,29H6V10h5.5c.8271,0,1.5-.6729,1.5-1.5V3h13v26Z"/></g></svg>