<?xml version="1.0" encoding="UTF-8"?><svg xmlns="http://www.w3.org/2000/svg" width="32" height="32" viewBox="0 0 32 32"><defs><style>.uuid-1d4b8f5b-91d9-4965-a578-6b8013d73d01{fill:none;}.uuid-735c81f8-be98-4ed9-85b9-967a556e9961{fill:#151515;}</style></defs><g id="uuid-9d9881e9-d949-4893-99d9-9924db322936"><rect class="uuid-1d4b8f5b-91d9-4965-a578-6b8013d73d01" width="32" height="32"/></g><g id="uuid-0141b7bb-0f80-4088-8d22-c20b7aca097c"><path class="uuid-735c81f8-be98-4ed9-85b9-967a556e9961" d="M26.5,1h-14.5c-.13379,0-.26434.02722-.38519.07776-.12158.05078-.23108.12421-.32269.21606l-6.99847,6.99847c-.09186.09167-.16516.20123-.21594.32281-.05048.12091-.0777.2514-.0777.38489v20.5c0,.82715.67285,1.5,1.5,1.5h21c.82715,0,1.5-.67285,1.5-1.5V2.5c0-.82715-.67285-1.5-1.5-1.5ZM11,4.41406v3.58594h-3.58594l3.58594-3.58594ZM26,29H6V10h5.5c.82715,0,1.5-.67285,1.5-1.5V3h13v26Z"/></g></svg>