<?xml version="1.0" encoding="UTF-8"?><svg xmlns="http://www.w3.org/2000/svg" viewBox="0 0 32 32"><defs><style>.uuid-789868f5-ac42-466f-ae92-b871d6b7f7b9{fill:none;}.uuid-789868f5-ac42-466f-ae92-b871d6b7f7b9,.uuid-d9f02efc-671e-45f2-8221-991983d513ff{stroke-width:0px;}.uuid-d9f02efc-671e-45f2-8221-991983d513ff{fill:#151515;}</style></defs><g id="uuid-7225918f-3609-45be-9c6a-fa6c0600585f"><rect class="uuid-789868f5-ac42-466f-ae92-b871d6b7f7b9" x="0" width="32" height="32"/></g><g id="uuid-74363741-d160-40de-a57d-988868798d35"><path class="uuid-d9f02efc-671e-45f2-8221-991983d513ff" d="M2.707,16.707L16,3.4141l13.293,13.293c.1953.1953.4512.293.707.293s.5117-.0977.707-.293c.3906-.3906.3906-1.0234,0-1.4141L17.0605,1.6465c-.584-.585-1.5371-.585-2.1211,0L1.293,15.293c-.3906.3906-.3906,1.0234,0,1.4141s1.0234.3906,1.4141,0Z"/><path class="uuid-d9f02efc-671e-45f2-8221-991983d513ff" d="M17.0605,15.6465c-.584-.585-1.5371-.585-2.1211,0L1.293,29.293c-.3906.3906-.3906,1.0234,0,1.4141s1.0234.3906,1.4141,0l13.293-13.293,13.293,13.293c.1953.1953.4512.293.707.293s.5117-.0977.707-.293c.3906-.3906.3906-1.0234,0-1.4141l-13.6465-13.6465Z"/></g></svg>