<?xml version="1.0" encoding="UTF-8"?><svg xmlns="http://www.w3.org/2000/svg" width="32" height="32" viewBox="0 0 32 32"><defs><style>.uuid-070ae570-a5df-4546-b6bf-11dbc4dc4954{fill:none;}.uuid-ccd5d663-a8f5-4333-97dc-2289eb20a5f2{fill:#151515;}</style></defs><g id="uuid-d76f7550-ca68-4f96-9947-f0ad40e3c074"><rect class="uuid-070ae570-a5df-4546-b6bf-11dbc4dc4954" width="32" height="32"/></g><g id="uuid-0578dd0b-bb4f-4418-86fa-e635ec664e98"><path class="uuid-ccd5d663-a8f5-4333-97dc-2289eb20a5f2" d="M30.35352,14.93945L17.70703,2.29297c-.28711-.28662-.7168-.37256-1.08984-.2168-.37354.15479-.61719.51953-.61719.92383v8c0,.26514.10547.51953.29297.70703l3.58594,3.58594c.38965.38965.38965,1.02441,0,1.41406l-3.58594,3.58594c-.1875.1875-.29297.44189-.29297.70703v8c0,.4043.24365.76904.61719.92383.12402.05127.25391.07617.38281.07617.26025,0,.51562-.10156.70703-.29297l12.64648-12.64648c.58496-.58496.58496-1.53613,0-2.12109Z"/><path class="uuid-ccd5d663-a8f5-4333-97dc-2289eb20a5f2" d="M16.35352,14.93945L3.70703,2.29297c-.28662-.28662-.71631-.37256-1.08984-.2168-.37354.15479-.61719.51953-.61719.92383v26c0,.4043.24365.76904.61719.92383.12402.05127.25391.07617.38281.07617.26025,0,.51562-.10156.70703-.29297l12.64648-12.64648c.58496-.58496.58496-1.53613,0-2.12109Z"/></g></svg>