<?xml version="1.0" encoding="UTF-8"?><svg xmlns="http://www.w3.org/2000/svg" viewBox="0 0 32 32"><defs><style>.uuid-2bc9a8b7-4078-4905-8c51-71f4193aa180{fill:none;}.uuid-2bc9a8b7-4078-4905-8c51-71f4193aa180,.uuid-fdfb71f7-8acc-42d5-b673-fc90e4d4945c{stroke-width:0px;}.uuid-fdfb71f7-8acc-42d5-b673-fc90e4d4945c{fill:#151515;}</style></defs><g id="uuid-c1bc5a0d-653d-464c-85ac-8d0e2eb450ec"><rect class="uuid-2bc9a8b7-4078-4905-8c51-71f4193aa180" width="32" height="32"/></g><g id="uuid-a02dac4a-635d-4dc5-8164-035929f48b7e"><path class="uuid-fdfb71f7-8acc-42d5-b673-fc90e4d4945c" d="M30.3535,14.9395L16.707,1.293c-.3906-.3906-1.0234-.3906-1.4141,0s-.3906,1.0234,0,1.4141l13.293,13.293-13.293,13.293c-.3906.3906-.3906,1.0234,0,1.4141.1953.1953.4512.293.707.293s.5117-.0977.707-.293l13.6465-13.6465c.585-.585.585-1.5361,0-2.1211Z"/><path class="uuid-fdfb71f7-8acc-42d5-b673-fc90e4d4945c" d="M16.3535,14.9395L2.707,1.293c-.3906-.3906-1.0234-.3906-1.4141,0s-.3906,1.0234,0,1.4141l13.293,13.293L1.293,29.293c-.3906.3906-.3906,1.0234,0,1.4141.1953.1953.4512.293.707.293s.5117-.0977.707-.293l13.6465-13.6465c.585-.585.585-1.5361,0-2.1211Z"/></g></svg>