<svg xmlns="http://www.w3.org/2000/svg" viewBox="0 0 32 32">
  <defs>
    <style>
      .uuid-739e3226-f4e8-4b39-a7b4-fbc70ddab553{stroke-width:0;fill:#151515}
    </style>
  </defs>
  <path d="M0 0h32v32H0z" id="uuid-8832751a-13a7-48f0-830c-bfe205aac9ec" stroke-width="0" fill="none"/>
  <g id="uuid-193aa60b-58f4-4d17-9e30-1178a4dc87ec">
    <path class="uuid-739e3226-f4e8-4b39-a7b4-fbc70ddab553" d="M29.293 15.293 16 28.586 2.707 15.293a1 1 0 1 0-1.414 1.414l13.646 13.647c.292.292.677.438 1.06.438s.77-.146 1.061-.438l13.647-13.647a1 1 0 1 0-1.414-1.414Z"/>
    <path class="uuid-739e3226-f4e8-4b39-a7b4-fbc70ddab553" d="M14.94 16.354c.292.292.676.438 1.06.438s.769-.146 1.06-.439L30.708 2.707a1 1 0 1 0-1.414-1.414L16 14.586 2.707 1.293a1 1 0 1 0-1.414 1.414l13.646 13.647Z"/>
  </g>
</svg>
