<svg xmlns="http://www.w3.org/2000/svg" viewBox="0 0 32 32">
  <defs>
    <style>
      .uuid-71ac5cd8-22b6-44ac-b63d-661b0c61e001{stroke-width:0;fill:#151515}
    </style>
  </defs>
  <path d="M0 0h32v32H0z" id="uuid-fdde4464-f42c-42a1-86bd-caebdad83d90" stroke-width="0" fill="none"/>
  <g id="uuid-2bce9c4f-6c22-42c6-82c7-3a3e6c3138be">
    <path class="uuid-71ac5cd8-22b6-44ac-b63d-661b0c61e001" d="m10.414 16 5.293-5.293A1 1 0 0 0 16 10V2a1 1 0 0 0-1.707-.707L.647 14.939a1.501 1.501 0 0 0 0 2.122l13.646 13.646A.999.999 0 0 0 16 30v-8a1 1 0 0 0-.293-.707L10.414 16Z"/>
    <path class="uuid-71ac5cd8-22b6-44ac-b63d-661b0c61e001" d="M30.383 1.076a.993.993 0 0 0-1.09.217L15.647 14.939a1.501 1.501 0 0 0 0 2.122l13.646 13.646A.999.999 0 0 0 31 30V2a1 1 0 0 0-.617-.924Z"/>
  </g>
</svg>
