<?xml version="1.0" encoding="UTF-8"?><svg xmlns="http://www.w3.org/2000/svg" viewBox="0 0 32 32"><defs><style>.uuid-6cd529f6-4ca5-4f46-8901-202efe8c6345{fill:none;}.uuid-6cd529f6-4ca5-4f46-8901-202efe8c6345,.uuid-2825fe9c-d6b7-4be1-b6ca-f0397d788d27{stroke-width:0px;}.uuid-2825fe9c-d6b7-4be1-b6ca-f0397d788d27{fill:#151515;}</style></defs><g id="uuid-5a092f51-dbe5-4363-8c58-d02f2e73e4b7"><rect class="uuid-6cd529f6-4ca5-4f46-8901-202efe8c6345" width="32" height="32"/></g><g id="uuid-3769ec5c-7d78-42c9-960c-178d2805d87b"><path class="uuid-2825fe9c-d6b7-4be1-b6ca-f0397d788d27" d="M31.3535,14.9395L17.707,1.293c-.2866-.2871-.7168-.374-1.0898-.2168-.3735.1543-.6172.5195-.6172.9238v8c0,.2656.1055.5195.293.707l5.293,5.293-5.293,5.293c-.1875.1875-.293.4414-.293.707v8c0,.4043.2437.7695.6172.9238.124.0518.2539.0762.3828.0762.2603,0,.5156-.1016.707-.293l13.6465-13.6465c.585-.585.585-1.5361,0-2.1211Z"/><path class="uuid-2825fe9c-d6b7-4be1-b6ca-f0397d788d27" d="M16.3535,14.9395L2.707,1.293c-.2871-.2871-.7153-.374-1.0898-.2168-.3735.1543-.6172.5195-.6172.9238v28c0,.4043.2437.7695.6172.9238.124.0518.2539.0762.3828.0762.2603,0,.5156-.1016.707-.293l13.6465-13.6465c.585-.585.585-1.5361,0-2.1211Z"/></g></svg>