<svg xmlns="http://www.w3.org/2000/svg" viewBox="0 0 32 32">
  <defs>
    <style>
      .uuid-d9f02efc-671e-45f2-8221-991983d513ff{stroke-width:0;fill:#151515}
    </style>
  </defs>
  <path d="M0 0h32v32H0z" id="uuid-7225918f-3609-45be-9c6a-fa6c0600585f" stroke-width="0" fill="none"/>
  <g id="uuid-74363741-d160-40de-a57d-988868798d35">
    <path class="uuid-d9f02efc-671e-45f2-8221-991983d513ff" d="M2.707 16.707 16 3.414l13.293 13.293a.997.997 0 0 0 1.414 0 1 1 0 0 0 0-1.414L17.061 1.647a1.501 1.501 0 0 0-2.122 0L1.293 15.293a1 1 0 1 0 1.414 1.414Z"/>
    <path class="uuid-d9f02efc-671e-45f2-8221-991983d513ff" d="M17.06 15.646a1.501 1.501 0 0 0-2.12 0L1.292 29.294a1 1 0 1 0 1.414 1.414L16 17.414l13.293 13.293a.997.997 0 0 0 1.414 0 1 1 0 0 0 0-1.414L17.061 15.647Z"/>
  </g>
</svg>
