<svg xmlns="http://www.w3.org/2000/svg" viewBox="0 0 32 32">
  <defs>
    <style>
      .uuid-1c0cf09a-c8ef-4be9-8d52-88001036a4c2{stroke-width:0;fill:#151515}
    </style>
  </defs>
  <path d="M0 0h32v32H0z" id="uuid-e56560b9-3b91-4101-b6df-b7669f9c214e" stroke-width="0" fill="none"/>
  <g id="uuid-062fe0b8-82d4-428f-9938-66800713b4e1">
    <path class="uuid-1c0cf09a-c8ef-4be9-8d52-88001036a4c2" d="M2 16h8a1 1 0 0 0 .707-.293L16 10.414l5.293 5.293A1 1 0 0 0 22 16h8a.999.999 0 0 0 .707-1.707L17.061.647a1.5 1.5 0 0 0-2.122 0L1.293 14.293A.999.999 0 0 0 2 16Z"/>
    <path class="uuid-1c0cf09a-c8ef-4be9-8d52-88001036a4c2" d="M17.06 15.646a1.5 1.5 0 0 0-2.12 0L1.292 29.294A.999.999 0 0 0 2 31h28a.999.999 0 0 0 .707-1.707L17.061 15.647Z"/>
  </g>
</svg>
