<?xml version="1.0" encoding="UTF-8"?><svg xmlns="http://www.w3.org/2000/svg" viewBox="0 0 32 32"><defs><style>.uuid-a309bf6c-7f25-4110-9d30-96be7f760d38{fill:none;}.uuid-a309bf6c-7f25-4110-9d30-96be7f760d38,.uuid-3ca5e92e-484b-4522-a287-829f25bc1a74{stroke-width:0px;}.uuid-3ca5e92e-484b-4522-a287-829f25bc1a74{fill:#151515;}</style></defs><g id="uuid-b12240e8-dee8-42fe-a8ca-f39db1149e03"><rect class="uuid-a309bf6c-7f25-4110-9d30-96be7f760d38" width="32" height="32"/></g><g id="uuid-6daf3ec4-792a-42a5-9c3d-3d968d320db0"><path class="uuid-3ca5e92e-484b-4522-a287-829f25bc1a74" d="M3.4141,16L16.707,2.707c.3906-.3906.3906-1.0234,0-1.4141s-1.0234-.3906-1.4141,0L1.6465,14.9395c-.585.585-.585,1.5361,0,2.1211l13.6465,13.6465c.1953.1953.4512.293.707.293s.5117-.0977.707-.293c.3906-.3906.3906-1.0234,0-1.4141L3.4141,16Z"/><path class="uuid-3ca5e92e-484b-4522-a287-829f25bc1a74" d="M17.4141,16L30.707,2.707c.3906-.3906.3906-1.0234,0-1.4141s-1.0234-.3906-1.4141,0l-13.6465,13.6465c-.585.585-.585,1.5361,0,2.1211l13.6465,13.6465c.1953.1953.4512.293.707.293s.5117-.0977.707-.293c.3906-.3906.3906-1.0234,0-1.4141l-13.293-13.293Z"/></g></svg>