<?xml version="1.0" encoding="UTF-8"?><svg xmlns="http://www.w3.org/2000/svg" width="32" height="32" viewBox="0 0 32 32"><defs><style>.uuid-fed04705-6b70-4fc2-95ab-644d77bd7209{fill:none;}.uuid-58ca3a1d-61cf-404b-bef2-35c618acdb6b{fill:#151515;}</style></defs><g id="uuid-89409180-1a10-4b6e-9f3c-0560fc6eea70"><rect class="uuid-fed04705-6b70-4fc2-95ab-644d77bd7209" width="32" height="32"/></g><g id="uuid-ccf122f9-f50a-4bf4-b162-46012d63c2eb"><path class="uuid-58ca3a1d-61cf-404b-bef2-35c618acdb6b" d="M30.35352,14.93945L17.70703,2.29297c-.39062-.39062-1.02344-.39062-1.41406,0s-.39062,1.02344,0,1.41406l12.29297,12.29297-12.29297,12.29297c-.39062.39062-.39062,1.02344,0,1.41406.19531.19531.45117.29297.70703.29297s.51172-.09766.70703-.29297l12.64648-12.64648c.58496-.58496.58496-1.53613,0-2.12109Z"/><path class="uuid-58ca3a1d-61cf-404b-bef2-35c618acdb6b" d="M16.35352,14.93945L3.70703,2.29297c-.39062-.39062-1.02344-.39062-1.41406,0s-.39062,1.02344,0,1.41406l12.29297,12.29297L2.29297,28.29297c-.39062.39062-.39062,1.02344,0,1.41406.19531.19531.45117.29297.70703.29297s.51172-.09766.70703-.29297l12.64648-12.64648c.58496-.58496.58496-1.53613,0-2.12109Z"/></g></svg>