<?xml version="1.0" encoding="UTF-8"?><svg xmlns="http://www.w3.org/2000/svg" width="32" height="32" viewBox="0 0 32 32"><defs><style>.uuid-d2a4e657-d27c-4b8a-80fb-541421b5515e{fill:none;}.uuid-dc80776c-8bc7-4d79-9ba3-f5bf1bbcd1e7{fill:#151515;}</style></defs><g id="uuid-858c920e-c80e-44f1-939e-e27432e79cf3"><rect class="uuid-d2a4e657-d27c-4b8a-80fb-541421b5515e" width="32" height="32"/></g><g id="uuid-66236e8c-4f1c-4594-b9b1-e327b71aa365"><path class="uuid-dc80776c-8bc7-4d79-9ba3-f5bf1bbcd1e7" d="M12.12109,16.70703c-.38965-.38965-.38965-1.02441,0-1.41406l3.58594-3.58594c.1875-.1875.29297-.44189.29297-.70703V3c0-.4043-.24365-.76904-.61719-.92383-.37549-.15576-.80371-.06982-1.08984.2168L1.64648,14.93945c-.58496.58496-.58496,1.53613,0,2.12109l12.64648,12.64648c.19141.19141.44678.29297.70703.29297.12891,0,.25879-.0249.38281-.07617.37354-.15479.61719-.51953.61719-.92383v-8c0-.26514-.10547-.51953-.29297-.70703l-3.58594-3.58594Z"/><path class="uuid-dc80776c-8bc7-4d79-9ba3-f5bf1bbcd1e7" d="M29.38281,2.07617c-.37598-.15576-.80371-.06982-1.08984.2168l-12.64648,12.64648c-.58496.58496-.58496,1.53613,0,2.12109l12.64648,12.64648c.19141.19141.44678.29297.70703.29297.12891,0,.25879-.0249.38281-.07617.37354-.15479.61719-.51953.61719-.92383V3c0-.4043-.24365-.76904-.61719-.92383Z"/></g></svg>