<svg xmlns="http://www.w3.org/2000/svg" viewBox="0 0 32 32">
  <defs>
    <style>
      .uuid-3ca5e92e-484b-4522-a287-829f25bc1a74{stroke-width:0;fill:#151515}
    </style>
  </defs>
  <path d="M0 0h32v32H0z" id="uuid-b12240e8-dee8-42fe-a8ca-f39db1149e03" stroke-width="0" fill="none"/>
  <g id="uuid-6daf3ec4-792a-42a5-9c3d-3d968d320db0">
    <path class="uuid-3ca5e92e-484b-4522-a287-829f25bc1a74" d="M3.414 16 16.707 2.707a1 1 0 1 0-1.414-1.414L1.647 14.939a1.501 1.501 0 0 0 0 2.122l13.646 13.646a.997.997 0 0 0 1.414 0 1 1 0 0 0 0-1.414L3.414 16Z"/>
    <path class="uuid-3ca5e92e-484b-4522-a287-829f25bc1a74" d="M17.414 16 30.707 2.707a1 1 0 1 0-1.414-1.414L15.646 14.939a1.501 1.501 0 0 0 0 2.122l13.647 13.646a.997.997 0 0 0 1.414 0 1 1 0 0 0 0-1.414L17.414 16Z"/>
  </g>
</svg>
