<?xml version="1.0" encoding="UTF-8"?><svg xmlns="http://www.w3.org/2000/svg" width="32" height="32" viewBox="0 0 32 32"><defs><style>.uuid-f6728848-002c-4ae1-8809-c7361c923a45{fill:none;}.uuid-64611dbd-ab85-4408-8ecc-ae221968d5a8{fill:#151515;}</style></defs><g id="uuid-a2a96655-17de-4cf5-91f8-d221c1dafb01"><rect class="uuid-f6728848-002c-4ae1-8809-c7361c923a45" width="32" height="32"/></g><g id="uuid-b58781a9-11b1-43c7-ba2d-d014ab8ff323"><path class="uuid-64611dbd-ab85-4408-8ecc-ae221968d5a8" d="M3,16h8c.26514,0,.51953-.10547.70703-.29297l3.58594-3.58594c.38965-.38965,1.02441-.38965,1.41406,0l3.58594,3.58594c.1875.1875.44189.29297.70703.29297h8c.4043,0,.76904-.24365.92383-.61719.15479-.37402.06934-.80371-.2168-1.08984L17.06055,1.64648c-.58496-.58496-1.53613-.58496-2.12109,0L2.29297,14.29297c-.28613.28613-.37158.71582-.2168,1.08984.15479.37354.51953.61719.92383.61719Z"/><path class="uuid-64611dbd-ab85-4408-8ecc-ae221968d5a8" d="M17.06055,15.64648c-.58496-.58496-1.53613-.58496-2.12109,0L2.29297,28.29297c-.28613.28613-.37158.71582-.2168,1.08984.15479.37354.51953.61719.92383.61719h26c.4043,0,.76904-.24365.92383-.61719.15479-.37402.06934-.80371-.2168-1.08984l-12.64648-12.64648Z"/></g></svg>