<svg xmlns="http://www.w3.org/2000/svg" viewBox="0 0 32 32">
  <defs>
    <style>
      .uuid-fdfb71f7-8acc-42d5-b673-fc90e4d4945c{stroke-width:0;fill:#151515}
    </style>
  </defs>
  <path d="M0 0h32v32H0z" id="uuid-c1bc5a0d-653d-464c-85ac-8d0e2eb450ec" stroke-width="0" fill="none"/>
  <g id="uuid-a02dac4a-635d-4dc5-8164-035929f48b7e">
    <path class="uuid-fdfb71f7-8acc-42d5-b673-fc90e4d4945c" d="M30.354 14.94 16.706 1.293a1 1 0 1 0-1.414 1.414L28.586 16 15.293 29.293a1 1 0 1 0 1.414 1.414l13.646-13.646a1.501 1.501 0 0 0 0-2.121Z"/>
    <path class="uuid-fdfb71f7-8acc-42d5-b673-fc90e4d4945c" d="M16.354 14.94 2.707 1.293a1 1 0 1 0-1.414 1.414L14.586 16 1.293 29.293a1 1 0 1 0 1.414 1.414l13.646-13.646a1.501 1.501 0 0 0 0-2.121Z"/>
  </g>
</svg>
