<?xml version="1.0" encoding="UTF-8"?><svg xmlns="http://www.w3.org/2000/svg" width="32" height="32" viewBox="0 0 32 32"><defs><style>.uuid-e9faa7ff-64bd-4f00-b3f9-7101af143838{fill:none;}.uuid-6e3736ff-7215-422d-9add-b467fc2694c8{fill:#151515;}</style></defs><g id="uuid-e8f8aa84-d92d-44de-9b0d-6d2b6b8d551e"><rect class="uuid-e9faa7ff-64bd-4f00-b3f9-7101af143838" width="32" height="32"/></g><g id="uuid-afe5ffb3-4f1e-4d88-af62-cea3bbe4112e"><path class="uuid-6e3736ff-7215-422d-9add-b467fc2694c8" d="M3.70703,15.70703L16,3.41406l12.29297,12.29297c.19531.19531.45117.29297.70703.29297s.51172-.09766.70703-.29297c.39062-.39062.39062-1.02344,0-1.41406L17.06055,1.64648c-.58496-.58496-1.53613-.58496-2.12109,0L2.29297,14.29297c-.39062.39062-.39062,1.02344,0,1.41406s1.02344.39062,1.41406,0Z"/><path class="uuid-6e3736ff-7215-422d-9add-b467fc2694c8" d="M17.06055,15.64648c-.58496-.58496-1.53613-.58496-2.12109,0L2.29297,28.29297c-.39062.39062-.39062,1.02344,0,1.41406s1.02344.39062,1.41406,0l12.29297-12.29297,12.29297,12.29297c.19531.19531.45117.29297.70703.29297s.51172-.09766.70703-.29297c.39062-.39062.39062-1.02344,0-1.41406l-12.64648-12.64648Z"/></g></svg>