<?xml version="1.0" encoding="UTF-8"?><svg xmlns="http://www.w3.org/2000/svg" viewBox="0 0 32 32"><defs><style>.uuid-795c6bc1-7c1f-4406-850e-6647594fd32b{fill:none;}.uuid-795c6bc1-7c1f-4406-850e-6647594fd32b,.uuid-0a5b546e-a6a8-40c8-9b5a-604959f86e14{stroke-width:0px;}.uuid-0a5b546e-a6a8-40c8-9b5a-604959f86e14{fill:#151515;}</style></defs><g id="uuid-153303b5-10c7-4c27-8699-c1da09aa4c99"><rect class="uuid-795c6bc1-7c1f-4406-850e-6647594fd32b" x="0" width="32" height="32"/></g><g id="uuid-1f603fe0-5b2e-4ccf-b424-ffcaeeedce5d"><path class="uuid-0a5b546e-a6a8-40c8-9b5a-604959f86e14" d="M30,16h-8c-.2651,0-.5195.1055-.707.293l-5.293,5.293-5.293-5.293c-.1875-.1875-.4419-.293-.707-.293H2c-.4043,0-.769.2432-.9238.6172s-.0693.8037.2168,1.0898l13.6465,13.6465c.2925.293.6763.4385,1.0605.4385s.7681-.1455,1.0605-.4385l13.6465-13.6465c.2861-.2861.3716-.7158.2168-1.0898s-.5195-.6172-.9238-.6172Z"/><path class="uuid-0a5b546e-a6a8-40c8-9b5a-604959f86e14" d="M14.9395,16.3535c.2925.293.6763.4385,1.0605.4385s.7681-.1455,1.0605-.4385L30.707,2.707c.2861-.2861.3716-.7158.2168-1.0898s-.5195-.6172-.9238-.6172H2c-.4043,0-.769.2432-.9238.6172s-.0693.8037.2168,1.0898l13.6465,13.6465Z"/></g></svg>