<svg xmlns="http://www.w3.org/2000/svg" viewBox="0 0 32 32">
  <defs>
    <style>
      .uuid-2825fe9c-d6b7-4be1-b6ca-f0397d788d27{stroke-width:0;fill:#151515}
    </style>
  </defs>
  <path d="M0 0h32v32H0z" id="uuid-5a092f51-dbe5-4363-8c58-d02f2e73e4b7" stroke-width="0" fill="none"/>
  <g id="uuid-3769ec5c-7d78-42c9-960c-178d2805d87b">
    <path class="uuid-2825fe9c-d6b7-4be1-b6ca-f0397d788d27" d="M31.354 14.94 17.706 1.293A1 1 0 0 0 16 2v8a1 1 0 0 0 .293.707L21.586 16l-5.293 5.293A1 1 0 0 0 16 22v8a1 1 0 0 0 1.707.707l13.646-13.646a1.501 1.501 0 0 0 0-2.122Z"/>
    <path class="uuid-2825fe9c-d6b7-4be1-b6ca-f0397d788d27" d="M16.354 14.94 2.707 1.293A1 1 0 0 0 1 2v28a1 1 0 0 0 1.707.707l13.646-13.646a1.501 1.501 0 0 0 0-2.122Z"/>
  </g>
</svg>
