<?xml version="1.0" encoding="UTF-8"?><svg xmlns="http://www.w3.org/2000/svg" width="32" height="32" viewBox="0 0 32 32"><defs><style>.uuid-c83ae223-2de3-48f2-881c-f3785b442872{fill:none;}.uuid-265997a6-250c-4e52-9c95-6f675a0a9431{fill:#151515;}</style></defs><g id="uuid-7b2a6603-7d8f-454a-8e33-ec336caa5ee2"><rect class="uuid-c83ae223-2de3-48f2-881c-f3785b442872" width="32" height="32"/></g><g id="uuid-7f8acc1a-5713-4f56-b85d-df33b8ec663b"><path class="uuid-265997a6-250c-4e52-9c95-6f675a0a9431" d="M3.41406,16L15.70703,3.70703c.39062-.39062.39062-1.02344,0-1.41406s-1.02344-.39062-1.41406,0L1.64648,14.93945c-.58496.58496-.58496,1.53613,0,2.12109l12.64648,12.64648c.19531.19531.45117.29297.70703.29297s.51172-.09766.70703-.29297c.39062-.39062.39062-1.02344,0-1.41406L3.41406,16Z"/><path class="uuid-265997a6-250c-4e52-9c95-6f675a0a9431" d="M17.41406,16L29.70703,3.70703c.39062-.39062.39062-1.02344,0-1.41406s-1.02344-.39062-1.41406,0l-12.64648,12.64648c-.58496.58496-.58496,1.53613,0,2.12109l12.64648,12.64648c.19531.19531.45117.29297.70703.29297s.51172-.09766.70703-.29297c.39062-.39062.39062-1.02344,0-1.41406l-12.29297-12.29297Z"/></g></svg>