<?xml version="1.0" encoding="UTF-8"?><svg xmlns="http://www.w3.org/2000/svg" viewBox="0 0 32 32"><defs><style>.uuid-f774c9e8-ebf0-4989-b890-469d90bcea8f{fill:none;}.uuid-f774c9e8-ebf0-4989-b890-469d90bcea8f,.uuid-739e3226-f4e8-4b39-a7b4-fbc70ddab553{stroke-width:0px;}.uuid-739e3226-f4e8-4b39-a7b4-fbc70ddab553{fill:#151515;}</style></defs><g id="uuid-8832751a-13a7-48f0-830c-bfe205aac9ec"><rect class="uuid-f774c9e8-ebf0-4989-b890-469d90bcea8f" width="32" height="32"/></g><g id="uuid-193aa60b-58f4-4d17-9e30-1178a4dc87ec"><path class="uuid-739e3226-f4e8-4b39-a7b4-fbc70ddab553" d="M29.293,15.293l-13.293,13.293L2.707,15.293c-.3906-.3906-1.0234-.3906-1.4141,0s-.3906,1.0234,0,1.4141l13.6465,13.6465c.292.2925.6768.4385,1.0605.4385s.7686-.146,1.0605-.4385l13.6465-13.6465c.3906-.3906.3906-1.0234,0-1.4141s-1.0234-.3906-1.4141,0Z"/><path class="uuid-739e3226-f4e8-4b39-a7b4-fbc70ddab553" d="M14.9395,16.3535c.292.2925.6768.4385,1.0605.4385s.7686-.146,1.0605-.4385L30.707,2.707c.3906-.3906.3906-1.0234,0-1.4141s-1.0234-.3906-1.4141,0l-13.293,13.293L2.707,1.293c-.3906-.3906-1.0234-.3906-1.4141,0s-.3906,1.0234,0,1.4141l13.6465,13.6465Z"/></g></svg>