<?xml version="1.0" encoding="UTF-8"?><svg xmlns="http://www.w3.org/2000/svg" viewBox="0 0 32 32"><defs><style>.uuid-5d3ad008-2193-4b73-8e89-f1df3d4f2962{fill:none;}.uuid-5d3ad008-2193-4b73-8e89-f1df3d4f2962,.uuid-1c0cf09a-c8ef-4be9-8d52-88001036a4c2{stroke-width:0px;}.uuid-1c0cf09a-c8ef-4be9-8d52-88001036a4c2{fill:#151515;}</style></defs><g id="uuid-e56560b9-3b91-4101-b6df-b7669f9c214e"><rect class="uuid-5d3ad008-2193-4b73-8e89-f1df3d4f2962" width="32" height="32"/></g><g id="uuid-062fe0b8-82d4-428f-9938-66800713b4e1"><path class="uuid-1c0cf09a-c8ef-4be9-8d52-88001036a4c2" d="M2,16h8c.2656,0,.5195-.1055.707-.293l5.293-5.293,5.293,5.293c.1875.1875.4414.293.707.293h8c.4043,0,.7695-.2432.9238-.6172.1553-.374.0693-.8037-.2168-1.0898L17.0605.6465c-.584-.5859-1.5371-.5859-2.1211,0L1.293,14.293c-.2861.2861-.3721.7158-.2168,1.0898.1543.374.5195.6172.9238.6172Z"/><path class="uuid-1c0cf09a-c8ef-4be9-8d52-88001036a4c2" d="M17.0605,15.6465c-.584-.5859-1.5371-.5859-2.1211,0L1.293,29.293c-.2861.2861-.3721.7158-.2168,1.0898.1543.374.5195.6172.9238.6172h28c.4043,0,.7695-.2432.9238-.6172.1553-.374.0693-.8037-.2168-1.0898l-13.6465-13.6465Z"/></g></svg>