<?xml version="1.0" encoding="UTF-8"?><svg xmlns="http://www.w3.org/2000/svg" width="32" height="32" viewBox="0 0 32 32"><defs><style>.uuid-08bbbfa4-a529-4d83-99c5-9e90577038ab{fill:none;}.uuid-ca975499-87a8-4e92-b3e7-c36c0674ba78{fill:#151515;}</style></defs><g id="uuid-d9d2589b-5590-495b-9ea2-46e255784a19"><rect class="uuid-08bbbfa4-a529-4d83-99c5-9e90577038ab" width="32" height="32"/></g><g id="uuid-af799de7-8531-4421-bc7f-a27c9efeb4ed"><path class="uuid-ca975499-87a8-4e92-b3e7-c36c0674ba78" d="M28.29297,16.29297l-12.29297,12.29297L3.70703,16.29297c-.39062-.39062-1.02344-.39062-1.41406,0s-.39062,1.02344,0,1.41406l12.64648,12.64648c.29199.29248.67676.43848,1.06055.43848s.76855-.146,1.06055-.43848l12.64648-12.64648c.39062-.39062.39062-1.02344,0-1.41406s-1.02344-.39062-1.41406,0Z"/><path class="uuid-ca975499-87a8-4e92-b3e7-c36c0674ba78" d="M14.93945,16.35352c.29199.29248.67676.43848,1.06055.43848s.76855-.146,1.06055-.43848L29.70703,3.70703c.39062-.39062.39062-1.02344,0-1.41406s-1.02344-.39062-1.41406,0l-12.29297,12.29297L3.70703,2.29297c-.39062-.39062-1.02344-.39062-1.41406,0s-.39062,1.02344,0,1.41406l12.64648,12.64648Z"/></g></svg>