<?xml version="1.0" encoding="UTF-8"?><svg xmlns="http://www.w3.org/2000/svg" viewBox="0 0 32 32"><defs><style>.uuid-1ef9c538-562a-4f5e-873b-e8b6cd6aea65{fill:none;}.uuid-1ef9c538-562a-4f5e-873b-e8b6cd6aea65,.uuid-71ac5cd8-22b6-44ac-b63d-661b0c61e001{stroke-width:0px;}.uuid-71ac5cd8-22b6-44ac-b63d-661b0c61e001{fill:#151515;}</style></defs><g id="uuid-fdde4464-f42c-42a1-86bd-caebdad83d90"><rect class="uuid-1ef9c538-562a-4f5e-873b-e8b6cd6aea65" x="0" width="32" height="32"/></g><g id="uuid-2bce9c4f-6c22-42c6-82c7-3a3e6c3138be"><path class="uuid-71ac5cd8-22b6-44ac-b63d-661b0c61e001" d="M10.4141,16l5.293-5.293c.1875-.1875.293-.4414.293-.707V2c0-.4043-.2437-.7695-.6172-.9238-.375-.1572-.8037-.0703-1.0898.2168L.6465,14.9395c-.585.585-.585,1.5361,0,2.1211l13.6465,13.6465c.1914.1914.4468.293.707.293.1289,0,.2588-.0244.3828-.0762.3735-.1543.6172-.5195.6172-.9238v-8c0-.2656-.1055-.5195-.293-.707l-5.293-5.293Z"/><path class="uuid-71ac5cd8-22b6-44ac-b63d-661b0c61e001" d="M30.3828,1.0762c-.375-.1572-.8042-.0703-1.0898.2168l-13.6465,13.6465c-.585.585-.585,1.5361,0,2.1211l13.6465,13.6465c.1914.1914.4468.293.707.293.1289,0,.2588-.0244.3828-.0762.3735-.1543.6172-.5195.6172-.9238V2c0-.4043-.2437-.7695-.6172-.9238Z"/></g></svg>