<?xml version="1.0" encoding="UTF-8"?><svg xmlns="http://www.w3.org/2000/svg" width="32" height="32" viewBox="0 0 32 32"><defs><style>.uuid-8cbbb6b7-4c83-4232-9b01-4c4eb290d1b1{fill:none;}.uuid-9016c6ad-8364-4315-88cc-328d2a2ec38e{fill:#151515;}</style></defs><g id="uuid-db6c1548-6400-43a0-a3bf-b64964c0317f"><rect class="uuid-8cbbb6b7-4c83-4232-9b01-4c4eb290d1b1" width="32" height="32"/></g><g id="uuid-09d0fcb6-d1dc-413e-9eac-ca653e806ab5"><path class="uuid-9016c6ad-8364-4315-88cc-328d2a2ec38e" d="M29,16h-8c-.26562,0-.51953.10547-.70703.29297l-3.58594,3.58545c-.39062.39062-1.02344.39014-1.41406.00049l-3.58594-3.58594c-.1875-.1875-.44141-.29297-.70703-.29297H3c-.4043,0-.76953.24365-.92383.61719-.15527.37402-.06934.80371.2168,1.08984l12.64648,12.64648c.29199.29248.67676.43848,1.06055.43848s.76855-.146,1.06055-.43848l12.64648-12.64648c.28613-.28613.37207-.71582.2168-1.08984-.1543-.37354-.51953-.61719-.92383-.61719Z"/><path class="uuid-9016c6ad-8364-4315-88cc-328d2a2ec38e" d="M14.93945,16.35352c.29199.29248.67676.43848,1.06055.43848s.76855-.146,1.06055-.43848L29.70703,3.70703c.28613-.28613.37207-.71582.2168-1.08984-.1543-.37354-.51953-.61719-.92383-.61719H3c-.4043,0-.76953.24365-.92383.61719-.15527.37402-.06934.80371.2168,1.08984l12.64648,12.64648Z"/></g></svg>