<svg xmlns="http://www.w3.org/2000/svg" viewBox="0 0 32 32">
  <defs>
    <style>
      .uuid-0a5b546e-a6a8-40c8-9b5a-604959f86e14{stroke-width:0;fill:#151515}
    </style>
  </defs>
  <path d="M0 0h32v32H0z" id="uuid-153303b5-10c7-4c27-8699-c1da09aa4c99" stroke-width="0" fill="none"/>
  <g id="uuid-1f603fe0-5b2e-4ccf-b424-ffcaeeedce5d">
    <path class="uuid-0a5b546e-a6a8-40c8-9b5a-604959f86e14" d="M30 16h-8a1 1 0 0 0-.707.293L16 21.586l-5.293-5.293A1 1 0 0 0 10 16H2a1 1 0 0 0-.707 1.707l13.646 13.646c.293.293.677.439 1.061.439s.768-.145 1.06-.439l13.647-13.646A1 1 0 0 0 30 16Z"/>
    <path class="uuid-0a5b546e-a6a8-40c8-9b5a-604959f86e14" d="M14.94 16.354c.292.293.676.438 1.06.438s.768-.145 1.06-.439L30.708 2.707A1 1 0 0 0 30 1H2a1 1 0 0 0-.707 1.707l13.646 13.646Z"/>
  </g>
</svg>
