<?xml version="1.0" encoding="UTF-8"?><svg xmlns="http://www.w3.org/2000/svg" width="32" height="32" viewBox="0 0 32 32"><defs><style>.uuid-9b428299-1961-4d0f-b64a-269c9ab3783d{fill:none;}.uuid-c1d3c49d-998b-4ae1-abd0-7110790f35f2{fill:#151515;}</style></defs><g id="uuid-6c48f4a1-2715-47de-8045-b4a051f38f3c"><rect class="uuid-9b428299-1961-4d0f-b64a-269c9ab3783d" width="32" height="32"/></g><g id="uuid-8ad54c0d-7cf6-4ccd-82ce-e20d1676d7b1"><path class="uuid-c1d3c49d-998b-4ae1-abd0-7110790f35f2" d="M29,28H3c-.55225,0-1,.44775-1,1s.44775,1,1,1h26c.55225,0,1-.44775,1-1s-.44775-1-1-1Z"/><path class="uuid-c1d3c49d-998b-4ae1-abd0-7110790f35f2" d="M14.93945,24.35352c.29248.29248.67627.43848,1.06055.43848s.76807-.146,1.06055-.43848l8.64648-8.64648c.39062-.39062.39062-1.02344,0-1.41406s-1.02344-.39062-1.41406,0l-7.29297,7.29297V3c0-.55225-.44775-1-1-1s-1,.44775-1,1v18.58594l-7.29297-7.29297c-.39062-.39062-1.02344-.39062-1.41406,0s-.39062,1.02344,0,1.41406l8.64648,8.64648Z"/></g></svg>