<?xml version="1.0" encoding="UTF-8"?><svg xmlns="http://www.w3.org/2000/svg" viewBox="0 0 32 32"><defs><style>.uuid-e3993f49-1e99-43a4-a1b1-602920ab8b3d{fill:none;}.uuid-e3993f49-1e99-43a4-a1b1-602920ab8b3d,.uuid-94904fe4-4043-4464-ab5a-975c35c90436{stroke-width:0px;}.uuid-94904fe4-4043-4464-ab5a-975c35c90436{fill:#151515;}</style></defs><g id="uuid-bcc74936-e8a2-4a5e-8570-482efd46fd7a"><rect class="uuid-e3993f49-1e99-43a4-a1b1-602920ab8b3d" x="0" width="32" height="32"/></g><g id="uuid-332633d3-c3b9-467e-b204-f00355acfc5b"><path class="uuid-94904fe4-4043-4464-ab5a-975c35c90436" d="M30,29H2c-.5522,0-1,.4478-1,1s.4478,1,1,1h28c.5522,0,1-.4478,1-1s-.4478-1-1-1Z"/><path class="uuid-94904fe4-4043-4464-ab5a-975c35c90436" d="M14.9395,25.3535c.2925.2925.6763.4385,1.0605.4385s.7681-.146,1.0605-.4385l8.6465-8.6465c.3906-.3906.3906-1.0234,0-1.4141s-1.0234-.3906-1.4141,0l-7.293,7.293V2c0-.5522-.4478-1-1-1s-1,.4478-1,1v20.5859l-7.293-7.293c-.3906-.3906-1.0234-.3906-1.4141,0s-.3906,1.0234,0,1.4141l8.6465,8.6465Z"/></g></svg>