<?xml version="1.0" encoding="UTF-8"?><svg xmlns="http://www.w3.org/2000/svg" width="32" height="32" viewBox="0 0 32 32"><defs><style>.uuid-874e8751-b454-42bb-b01c-0276db5b8b26{fill:none;}.uuid-bf591bbe-169f-4ed1-a4f6-66a1b9050b0f{fill:#151515;}</style></defs><g id="uuid-ae34e272-4131-4a5c-9c08-a83e70557544"><rect class="uuid-874e8751-b454-42bb-b01c-0276db5b8b26" width="32" height="32"/></g><g id="uuid-bc68bb49-88e7-4c71-ae52-3ced7ae16a21"><circle class="uuid-bf591bbe-169f-4ed1-a4f6-66a1b9050b0f" cx="16" cy="15" r="1.875"/><path class="uuid-bf591bbe-169f-4ed1-a4f6-66a1b9050b0f" d="M26.5166,11.10254L17.55176,2.1377c-.15747-.15747-.42676-.04596-.42676.17676v8.73621c2.0238.57867,3.42688,2.64374,2.88159,4.94836-.34796,1.47089-1.54236,2.66382-3.01385,3.0094-2.70294.6347-5.11774-1.41034-5.11774-4.00842,0-1.88184,1.27435-3.45593,3-3.94934V2.31445c0-.22272-.26929-.33423-.42676-.17676L5.4834,11.10254c-.23981.23975-.34186.58466-.27124.91632l2.59644,12.18909c.09839.46185.50629.79205.97852.79205h14.42578c.47223,0,.88013-.3302.97852-.79205l2.59644-12.18909c.07062-.33167-.03143-.67657-.27124-.91632Z"/><rect class="uuid-bf591bbe-169f-4ed1-a4f6-66a1b9050b0f" x="8" y="27" width="16" height="4" rx="1" ry="1"/></g></svg>