<?xml version="1.0" encoding="UTF-8"?><svg xmlns="http://www.w3.org/2000/svg" viewBox="0 0 32 32"><defs><style>.uuid-0e33dbcd-0c8c-4c84-8c33-d1b2f1c92f8c{fill:none;}.uuid-0e33dbcd-0c8c-4c84-8c33-d1b2f1c92f8c,.uuid-5d21d2e9-75f1-4a36-a148-44d9574d022e{stroke-width:0px;}.uuid-5d21d2e9-75f1-4a36-a148-44d9574d022e{fill:#151515;}</style></defs><g id="uuid-8a7377a0-22d3-4316-b931-c4d94287031a"><rect class="uuid-0e33dbcd-0c8c-4c84-8c33-d1b2f1c92f8c" x="0" width="32" height="32"/></g><g id="uuid-f5b8074c-0d0a-4709-bf77-594de0d288c8"><path class="uuid-5d21d2e9-75f1-4a36-a148-44d9574d022e" d="M7,19H3V3h16v4c0,.5522.4478,1,1,1s1-.4478,1-1V2.5c0-.8271-.6729-1.5-1.5-1.5H2.5c-.8271,0-1.5.6729-1.5,1.5v17c0,.8271.6729,1.5,1.5,1.5h4.5c.5522,0,1-.4478,1-1s-.4478-1-1-1Z"/><path class="uuid-5d21d2e9-75f1-4a36-a148-44d9574d022e" d="M29.5,11H12.5c-.8271,0-1.5.6729-1.5,1.5v17c0,.8271.6729,1.5,1.5,1.5h17c.8271,0,1.5-.6729,1.5-1.5V12.5c0-.8271-.6729-1.5-1.5-1.5ZM29,29H13V13h16v16Z"/></g></svg>