<?xml version="1.0" encoding="UTF-8"?><svg xmlns="http://www.w3.org/2000/svg" width="32" height="32" viewBox="0 0 32 32"><defs><style>.uuid-22195d37-e8cb-46c8-9c96-07acc2befc3d{fill:none;}.uuid-3b4dc358-81cb-4ddc-9d34-c2b55214c89e{fill:#151515;}</style></defs><g id="uuid-f08af327-6311-4514-8d7d-ae895b0eaeca"><rect class="uuid-22195d37-e8cb-46c8-9c96-07acc2befc3d" width="32" height="32"/></g><g id="uuid-fe90a84c-ba27-49f7-94ba-130d8924f2c1"><path class="uuid-3b4dc358-81cb-4ddc-9d34-c2b55214c89e" d="M28.5,12h-15c-.82715,0-1.5.67285-1.5,1.5v15c0,.82715.67285,1.5,1.5,1.5h15c.82715,0,1.5-.67285,1.5-1.5v-15c0-.82715-.67285-1.5-1.5-1.5ZM28,28h-14v-14h14v14Z"/><path class="uuid-3b4dc358-81cb-4ddc-9d34-c2b55214c89e" d="M8,18h-4V4h14v4c0,.55225.44775,1,1,1s1-.44775,1-1V3.5c0-.82715-.67285-1.5-1.5-1.5H3.5c-.82715,0-1.5.67285-1.5,1.5v15c0,.82715.67285,1.5,1.5,1.5h4.5c.55225,0,1-.44775,1-1s-.44775-1-1-1Z"/></g></svg>