<svg xmlns="http://www.w3.org/2000/svg" viewBox="0 0 32 32">
  <defs>
    <style>
      .uuid-5d21d2e9-75f1-4a36-a148-44d9574d022e{stroke-width:0;fill:#151515}
    </style>
  </defs>
  <path d="M0 0h32v32H0z" id="uuid-8a7377a0-22d3-4316-b931-c4d94287031a" stroke-width="0" fill="none"/>
  <g id="uuid-f5b8074c-0d0a-4709-bf77-594de0d288c8">
    <path class="uuid-5d21d2e9-75f1-4a36-a148-44d9574d022e" d="M7 19H3V3h16v4a1 1 0 0 0 2 0V2.5c0-.827-.673-1.5-1.5-1.5h-17C1.673 1 1 1.673 1 2.5v17c0 .827.673 1.5 1.5 1.5H7a1 1 0 0 0 0-2Z"/>
    <path class="uuid-5d21d2e9-75f1-4a36-a148-44d9574d022e" d="M29.5 11h-17c-.827 0-1.5.673-1.5 1.5v17c0 .827.673 1.5 1.5 1.5h17c.827 0 1.5-.673 1.5-1.5v-17c0-.827-.673-1.5-1.5-1.5ZM29 29H13V13h16v16Z"/>
  </g>
</svg>
