<?xml version="1.0" encoding="UTF-8"?><svg xmlns="http://www.w3.org/2000/svg" viewBox="0 0 32 32"><defs><style>.uuid-bfbd3839-7f08-40c9-9e45-ba370e9c8f53{fill:none;}.uuid-bfbd3839-7f08-40c9-9e45-ba370e9c8f53,.uuid-d50b47ac-d6f2-4c5c-9d9f-f6e887b43aa5{stroke-width:0px;}.uuid-d50b47ac-d6f2-4c5c-9d9f-f6e887b43aa5{fill:#151515;}</style></defs><g id="uuid-cf1ade28-9da2-4397-a91e-003353bcb6ab"><rect class="uuid-bfbd3839-7f08-40c9-9e45-ba370e9c8f53" width="32" height="32"/></g><g id="uuid-3335e551-4e18-4bb7-b439-8149f227041f"><path class="uuid-d50b47ac-d6f2-4c5c-9d9f-f6e887b43aa5" d="M20.0605,7.6465c-.584-.5859-1.5371-.5859-2.1211,0l-12.6367,12.6367c-.0444.0444-.0656.1005-.0999.1505-.0353.0508-.0809.0917-.1071.1503L1.0859,29.5938c-.168.3779-.0859.8203.207,1.1133.1914.1914.4473.293.707.293.1377,0,.2764-.0283.4062-.0859l9.0098-4.0098c.0604-.0269.1027-.0735.1548-.1101.0483-.0336.1028-.0538.1459-.0969l12.6367-12.6367c.585-.585.585-1.5361,0-2.1211l-4.293-4.293ZM6.3319,22.7264l2.9417,2.9417-5.3009,2.3593,2.3593-5.3009Z"/><path class="uuid-d50b47ac-d6f2-4c5c-9d9f-f6e887b43aa5" d="M30.3535,5.9395l-4.293-4.293c-.584-.5859-1.5371-.5859-2.1211,0l-2.293,2.293c-.585.585-.585,1.5361,0,2.1211l4.293,4.293c.292.293.6768.4385,1.0605.4385s.7686-.1455,1.0605-.4385l2.293-2.293c.585-.585.585-1.5361,0-2.1211Z"/></g></svg>