<?xml version="1.0" encoding="UTF-8"?><svg xmlns="http://www.w3.org/2000/svg" width="32" height="32" viewBox="0 0 32 32"><defs><style>.uuid-18312a79-77c0-4fa9-85f1-cadd6f13c025{fill:none;}.uuid-7a47a58a-7e13-4d5c-8411-a48173e62ef4{fill:#151515;}</style></defs><g id="uuid-886cb7d7-b6c5-4931-9187-d7ec964d5562"><rect class="uuid-18312a79-77c0-4fa9-85f1-cadd6f13c025" width="32" height="32"/></g><g id="uuid-78d33ffe-1f72-407d-accd-d0042b79504c"><path class="uuid-7a47a58a-7e13-4d5c-8411-a48173e62ef4" d="M19.06055,8.64648c-.58398-.58496-1.53711-.58496-2.12109,0l-10.64648,10.64648c-.1048.1048-.17651.22809-.2251.35846l-3.98096,8.94183c-.00366.00818-.0022.01691-.00562.02515-.02905.06995-.0365.14484-.04913.21985-.00903.0545-.0285.10748-.02844.16174-.00006.05426.01941.10724.02844.16174.01263.07501.02008.1499.04913.21985.00342.00824.00195.01697.00562.02515.04449.1004.10541.1875.17542.26453.01331.01465.03058.02478.04486.0387.07343.07159.15558.12915.24579.17462.01532.00775.0249.02191.04077.02899.01428.00635.02948.00378.04388.0094.11407.0448.23309.07587.35742.07666.00134,0,.00262.00085.00397.00085.00031,0,.00067-.00012.00098-.00012s.00067.00012.00098.00012c.00134,0,.00262-.00085.00397-.00085.12433-.00079.24341-.03186.35748-.07666.0144-.00562.02954-.00305.04382-.0094l8.94342-3.98163c.12994-.04858.25281-.12036.35736-.22491l10.64648-10.64648c.2832-.2832.43945-.66016.43945-1.06055s-.15625-.77734-.43945-1.06055l-4.29297-4.29297ZM7.32623,21.7403l2.93329,2.93329-5.28717,2.35388,2.35388-5.28717Z"/><path class="uuid-7a47a58a-7e13-4d5c-8411-a48173e62ef4" d="M29.35352,6.93945l-4.29297-4.29297c-.58398-.58496-1.53711-.58496-2.12109,0l-2.29297,2.29297c-.2832.2832-.43945.66016-.43945,1.06055s.15625.77734.43945,1.06055l4.29297,4.29297c.29199.29248.67676.43848,1.06055.43848s.76855-.146,1.06055-.43848l2.29297-2.29297c.2832-.2832.43945-.66016.43945-1.06055s-.15625-.77734-.43945-1.06055Z"/></g></svg>