<?xml version="1.0" encoding="UTF-8"?><svg xmlns="http://www.w3.org/2000/svg" width="32" height="32" viewBox="0 0 32 32"><defs><style>.uuid-4bc1240e-f30e-40be-8728-1de94c774ab5{fill:none;}.uuid-dc81f458-c120-4f6b-af41-a0dbc0cdc897{fill:#151515;}</style></defs><g id="uuid-f2ff9304-bf6c-4df9-a7f1-90a0bebe0a1f"><rect class="uuid-4bc1240e-f30e-40be-8728-1de94c774ab5" width="32" height="32"/></g><g id="uuid-4129a0ac-4465-4dd4-99e5-484a0aca9811"><path class="uuid-dc81f458-c120-4f6b-af41-a0dbc0cdc897" d="M22.83691,13.45264c-.18457-.28223-.49902-.45264-.83691-.45264h-4V2c0-.47314-.33203-.88184-.79492-.979-.46875-.09473-.93262.14453-1.12109.57812l-7,16c-.13574.30908-.10547.66602.0791.94824s.49902.45264.83691.45264h4v11c0,.47314.33203.88184.79492.979.06934.01416.1377.021.20508.021.39062,0,.75488-.22949.91602-.59912l7-16c.13574-.30908.10547-.66602-.0791-.94824Z"/></g></svg>