<?xml version="1.0" encoding="UTF-8"?><svg xmlns="http://www.w3.org/2000/svg" viewBox="0 0 32 32"><defs><style>.uuid-3a8aefe1-5802-4c83-b5f0-b3fbb25add68{fill:none;}.uuid-3a8aefe1-5802-4c83-b5f0-b3fbb25add68,.uuid-547bf34b-b2b2-4ecf-a9a8-7e1fe53566f4{stroke-width:0px;}.uuid-547bf34b-b2b2-4ecf-a9a8-7e1fe53566f4{fill:#151515;}</style></defs><g id="uuid-07d421b5-5b5d-4d89-b115-81bd41792fcd"><rect class="uuid-3a8aefe1-5802-4c83-b5f0-b3fbb25add68" width="32" height="32"/></g><g id="uuid-5b98d1dc-5e74-48cb-ac55-4f0552ebdd93"><path class="uuid-547bf34b-b2b2-4ecf-a9a8-7e1fe53566f4" d="M22.8369,13.4531c-.1846-.2832-.499-.4531-.8369-.4531h-4V2c0-.4736-.332-.8818-.7949-.9785-.4717-.0977-.9316.1445-1.1211.5781l-7,16c-.1357.3086-.1055.665.0791.9473.1846.2832.499.4531.8369.4531h4v11c0,.4736.332.8818.7949.9785.0693.0146.1377.0215.2051.0215.3906,0,.7549-.2295.916-.5996l7-16c.1357-.3086.1055-.665-.0791-.9473Z"/></g></svg>