<?xml version="1.0" encoding="UTF-8"?><svg xmlns="http://www.w3.org/2000/svg" viewBox="0 0 32 32"><defs><style>.uuid-cb575428-3711-4d56-b94c-4f389876af6b{fill:none;}.uuid-cb575428-3711-4d56-b94c-4f389876af6b,.uuid-e437c583-bd2a-4dcc-a58c-7da042cb796b{stroke-width:0px;}.uuid-e437c583-bd2a-4dcc-a58c-7da042cb796b{fill:#151515;}</style></defs><g id="uuid-46ebfe97-11a7-4ed2-8bea-5e35d11ac535"><rect class="uuid-cb575428-3711-4d56-b94c-4f389876af6b" x="0" width="32" height="32"/></g><g id="uuid-ef8376b8-fe48-45ae-b506-0436151c5b68"><path class="uuid-e437c583-bd2a-4dcc-a58c-7da042cb796b" d="M22.8369,13.4526c-.1846-.2822-.4995-.4526-.8369-.4526h-4V2c0-.4731-.332-.8818-.7954-.979-.4624-.0952-.9307.1445-1.1206.5781l-7,16c-.1353.3091-.1055.666.0791.9482s.4995.4526.8369.4526h4v11c0,.4731.332.8818.7954.979.0684.0142.1372.021.2051.021.3906,0,.7539-.2295.9155-.5991l7-16c.1353-.3091.1055-.666-.0791-.9482ZM16,25.2192v-7.2192c0-.5522-.4478-1-1-1h-3.4712l4.4712-10.2192v7.2192c0,.5522.4478,1,1,1h3.4712l-4.4712,10.2192Z"/></g></svg>