<?xml version="1.0" encoding="UTF-8"?><svg xmlns="http://www.w3.org/2000/svg" width="32" height="32" viewBox="0 0 32 32"><defs><style>.uuid-5813cf77-633f-42a3-a9b5-92114ac2a936{fill:none;}.uuid-7703df6a-739c-40bf-87ac-05f0336983ab{fill:#151515;}</style></defs><g id="uuid-f730b163-1cca-4cbd-87f4-cae6e00a1a43"><rect class="uuid-5813cf77-633f-42a3-a9b5-92114ac2a936" width="32" height="32"/></g><g id="uuid-2128bdcc-e615-4749-bc85-878b40209c65"><path class="uuid-7703df6a-739c-40bf-87ac-05f0336983ab" d="M16,9c2.20605,0,4-1.79443,4-4s-1.79395-4-4-4-4,1.79443-4,4,1.79395,4,4,4ZM16,3c1.10254,0,2,.89697,2,2s-.89746,2-2,2-2-.89697-2-2,.89746-2,2-2Z"/><path class="uuid-7703df6a-739c-40bf-87ac-05f0336983ab" d="M16,12c-2.20605,0-4,1.79443-4,4s1.79395,4,4,4,4-1.79443,4-4-1.79395-4-4-4ZM16,18c-1.10254,0-2-.89697-2-2s.89746-2,2-2,2,.89697,2,2-.89746,2-2,2Z"/><path class="uuid-7703df6a-739c-40bf-87ac-05f0336983ab" d="M16,23c-2.20605,0-4,1.79443-4,4s1.79395,4,4,4,4-1.79443,4-4-1.79395-4-4-4ZM16,29c-1.10254,0-2-.89697-2-2s.89746-2,2-2,2,.89697,2,2-.89746,2-2,2Z"/></g></svg>