<?xml version="1.0" encoding="UTF-8"?><svg xmlns="http://www.w3.org/2000/svg" viewBox="0 0 32 32"><defs><style>.uuid-3b53e235-e414-4664-906a-68de6b552dd5{fill:none;}.uuid-3b53e235-e414-4664-906a-68de6b552dd5,.uuid-c9945372-9ba4-4574-bf80-b465701f8c76{stroke-width:0px;}.uuid-c9945372-9ba4-4574-bf80-b465701f8c76{fill:#151515;}</style></defs><g id="uuid-43bc39a7-e0c8-4a45-93de-d4aae598cb2d"><rect class="uuid-3b53e235-e414-4664-906a-68de6b552dd5" width="32" height="32"/></g><g id="uuid-a00a78fd-fe49-4f8a-8151-4b663101af7a"><path class="uuid-c9945372-9ba4-4574-bf80-b465701f8c76" d="M16,12c-2.2061,0-4,1.7944-4,4s1.7939,4,4,4,4-1.7944,4-4-1.7939-4-4-4ZM16,18c-1.1025,0-2-.897-2-2s.8975-2,2-2,2,.897,2,2-.8975,2-2,2Z"/><path class="uuid-c9945372-9ba4-4574-bf80-b465701f8c76" d="M16,24c-2.2061,0-4,1.7944-4,4s1.7939,4,4,4,4-1.7944,4-4-1.7939-4-4-4ZM16,30c-1.1025,0-2-.897-2-2s.8975-2,2-2,2,.897,2,2-.8975,2-2,2Z"/><path class="uuid-c9945372-9ba4-4574-bf80-b465701f8c76" d="M16,8c2.2061,0,4-1.7944,4-4s-1.7939-4-4-4-4,1.7944-4,4,1.7939,4,4,4ZM16,2c1.1025,0,2,.897,2,2s-.8975,2-2,2-2-.897-2-2,.8975-2,2-2Z"/></g></svg>