<?xml version="1.0" encoding="UTF-8"?><svg xmlns="http://www.w3.org/2000/svg" width="32" height="32" viewBox="0 0 32 32"><defs><style>.uuid-7b87efb6-382a-47af-bdf2-e123630775cf{fill:none;}.uuid-8ef375a6-e5b4-4900-b676-146c662bd5a9{fill:#151515;}</style></defs><g id="uuid-45b0ca08-fcb8-4b20-99bb-dd3a1e9c0d0a"><rect class="uuid-7b87efb6-382a-47af-bdf2-e123630775cf" width="32" height="32"/></g><g id="uuid-b164b434-8951-467d-a7b7-bb00313b4477"><path class="uuid-8ef375a6-e5b4-4900-b676-146c662bd5a9" d="M27,12c-2.20605,0-4,1.79443-4,4s1.79395,4,4,4,4-1.79443,4-4-1.79395-4-4-4ZM27,18c-1.10254,0-2-.89697-2-2s.89746-2,2-2,2,.89697,2,2-.89746,2-2,2Z"/><path class="uuid-8ef375a6-e5b4-4900-b676-146c662bd5a9" d="M16,12c-2.20605,0-4,1.79443-4,4s1.79395,4,4,4,4-1.79443,4-4-1.79395-4-4-4ZM16,18c-1.10254,0-2-.89697-2-2s.89746-2,2-2,2,.89697,2,2-.89746,2-2,2Z"/><path class="uuid-8ef375a6-e5b4-4900-b676-146c662bd5a9" d="M5,12c-2.20605,0-4,1.79443-4,4s1.79395,4,4,4,4-1.79443,4-4-1.79395-4-4-4ZM5,18c-1.10254,0-2-.89697-2-2s.89746-2,2-2,2,.89697,2,2-.89746,2-2,2Z"/></g></svg>