<?xml version="1.0" encoding="UTF-8"?><svg xmlns="http://www.w3.org/2000/svg" viewBox="0 0 32 32"><defs><style>.uuid-3763a414-c40e-4fb9-baf3-729b20954038{fill:none;}.uuid-3763a414-c40e-4fb9-baf3-729b20954038,.uuid-443eb055-770e-4bff-9963-b8509211cce7{stroke-width:0px;}.uuid-443eb055-770e-4bff-9963-b8509211cce7{fill:#151515;}</style></defs><g id="uuid-fc3e003b-0c81-498f-af36-9890814b91ab"><rect class="uuid-3763a414-c40e-4fb9-baf3-729b20954038" width="32" height="32"/></g><g id="uuid-27a5f691-ac40-422a-9dbd-30e97045e883"><path class="uuid-443eb055-770e-4bff-9963-b8509211cce7" d="M16,12c-2.2056,0-4,1.7944-4,4s1.7944,4,4,4,4-1.7944,4-4-1.7944-4-4-4ZM16,18c-1.103,0-2-.897-2-2s.897-2,2-2,2,.897,2,2-.897,2-2,2Z"/><path class="uuid-443eb055-770e-4bff-9963-b8509211cce7" d="M28,12c-2.2056,0-4,1.7944-4,4s1.7944,4,4,4,4-1.7944,4-4-1.7944-4-4-4ZM28,18c-1.103,0-2-.897-2-2s.897-2,2-2,2,.897,2,2-.897,2-2,2Z"/><path class="uuid-443eb055-770e-4bff-9963-b8509211cce7" d="M4,12c-2.2056,0-4,1.7944-4,4s1.7944,4,4,4,4-1.7944,4-4-1.7944-4-4-4ZM4,18c-1.103,0-2-.897-2-2s.897-2,2-2,2,.897,2,2-.897,2-2,2Z"/></g></svg>