<?xml version="1.0" encoding="UTF-8"?><svg xmlns="http://www.w3.org/2000/svg" width="32" height="32" viewBox="0 0 32 32"><defs><style>.uuid-df3313ea-6737-4cef-8684-8973d9da1bfc{fill:none;}.uuid-1eecdff0-142d-445f-9a36-2026f40100ef{fill:#151515;}</style></defs><g id="uuid-981f4439-d63a-4d14-865b-f18a2044bc71"><rect class="uuid-df3313ea-6737-4cef-8684-8973d9da1bfc" width="32" height="32"/></g><g id="uuid-74b892c5-5897-4d54-9f6b-27f80f0fabdf"><path class="uuid-1eecdff0-142d-445f-9a36-2026f40100ef" d="M16,1C7.72852,1,1,7.729,1,16s6.72852,15,15,15,15-6.729,15-15S24.27148,1,16,1ZM12.7959,20.20459c.43848.43945.43848,1.15137,0,1.59082-.21973.21973-.50781.32959-.7959.32959s-.57617-.10986-.7959-.32959l-4.64648-4.64648c-.63281-.6333-.63281-1.66455,0-2.29785l4.64648-4.64648c.43945-.43945,1.15234-.43945,1.5918,0,.43848.43945.43848,1.15137,0,1.59082l-4.20508,4.20459,4.20508,4.20459ZM25.44238,17.14893l-4.64648,4.64648c-.21973.21973-.50781.32959-.7959.32959s-.57617-.10986-.7959-.32959c-.43848-.43945-.43848-1.15137,0-1.59082l4.20508-4.20459-4.20508-4.20459c-.43848-.43945-.43848-1.15137,0-1.59082.43945-.43945,1.15234-.43945,1.5918,0l4.64648,4.64648c.63281.6333.63281,1.66455,0,2.29785Z"/></g></svg>