<?xml version="1.0" encoding="UTF-8"?><svg xmlns="http://www.w3.org/2000/svg" viewBox="0 0 32 32"><defs><style>.uuid-88397811-6a9d-4553-b6cc-24e7b4310a39{fill:none;}.uuid-88397811-6a9d-4553-b6cc-24e7b4310a39,.uuid-8234f370-cc52-4ebf-871c-efe1b5599c08{stroke-width:0px;}.uuid-8234f370-cc52-4ebf-871c-efe1b5599c08{fill:#151515;}</style></defs><g id="uuid-d569166e-394d-49cc-8f4a-80f49fb90b96"><rect class="uuid-88397811-6a9d-4553-b6cc-24e7b4310a39" width="32" height="32"/></g><g id="uuid-3f444ad1-71ca-440c-9959-384374e865e7"><path class="uuid-8234f370-cc52-4ebf-871c-efe1b5599c08" d="M15.5938,11.0864l-9,4c-.3613.1602-.5938.5186-.5938.9136s.2324.7534.5938.9136l9,4c.1299.0576.2676.0864.4062.0864s.2764-.0288.4062-.0864l9-4c.3613-.1602.5938-.5186.5938-.9136s-.2324-.7534-.5938-.9136l-9-4c-.2598-.1152-.5527-.1152-.8125,0ZM16,18.9058l-6.5381-2.9058,6.5381-2.9058,6.5381,2.9058-6.5381,2.9058Z"/><circle class="uuid-8234f370-cc52-4ebf-871c-efe1b5599c08" cx="16" cy="5.3401" r="1.5"/><circle class="uuid-8234f370-cc52-4ebf-871c-efe1b5599c08" cx="11.3348" cy="7.8972" r="1.5"/><circle class="uuid-8234f370-cc52-4ebf-871c-efe1b5599c08" cx="20.6649" cy="7.8972" r="1.5"/><circle class="uuid-8234f370-cc52-4ebf-871c-efe1b5599c08" cx="25.3348" cy="10.4473" r="1.5"/><circle class="uuid-8234f370-cc52-4ebf-871c-efe1b5599c08" cx="30" cy="13.0099" r="1.5"/><circle class="uuid-8234f370-cc52-4ebf-871c-efe1b5599c08" cx="20.6649" cy="24.102" r="1.5"/><circle class="uuid-8234f370-cc52-4ebf-871c-efe1b5599c08" cx="25.3346" cy="21.5521" r="1.5"/><circle class="uuid-8234f370-cc52-4ebf-871c-efe1b5599c08" cx="30" cy="19.0099" r="1.5"/><circle class="uuid-8234f370-cc52-4ebf-871c-efe1b5599c08" cx="6.6649" cy="10.4473" r="1.5"/><circle class="uuid-8234f370-cc52-4ebf-871c-efe1b5599c08" cx="2" cy="13.0002" r="1.5"/><circle class="uuid-8234f370-cc52-4ebf-871c-efe1b5599c08" cx="11.3346" cy="24.1021" r="1.5"/><circle class="uuid-8234f370-cc52-4ebf-871c-efe1b5599c08" cx="6.6649" cy="21.5521" r="1.5"/><circle class="uuid-8234f370-cc52-4ebf-871c-efe1b5599c08" cx="2" cy="19.0002" r="1.5"/><circle class="uuid-8234f370-cc52-4ebf-871c-efe1b5599c08" cx="16" cy="26.6601" r="1.5"/></g></svg>