<svg xmlns="http://www.w3.org/2000/svg" viewBox="0 0 32 32">
  <defs>
    <style>
      .uuid-8234f370-cc52-4ebf-871c-efe1b5599c08{stroke-width:0;fill:#151515}
    </style>
  </defs>
  <path d="M0 0h32v32H0z" id="uuid-d569166e-394d-49cc-8f4a-80f49fb90b96" stroke-width="0" fill="none"/>
  <g id="uuid-3f444ad1-71ca-440c-9959-384374e865e7">
    <path class="uuid-8234f370-cc52-4ebf-871c-efe1b5599c08" d="m15.594 11.086-9 4a1 1 0 0 0 0 1.828l9 4a1 1 0 0 0 .812 0l9-4a1 1 0 0 0 0-1.828l-9-4a.998.998 0 0 0-.812 0Zm.406 7.82L9.462 16 16 13.094 22.538 16 16 18.906Z"/>
    <circle class="uuid-8234f370-cc52-4ebf-871c-efe1b5599c08" cx="16" cy="5.34" r="1.5"/>
    <circle class="uuid-8234f370-cc52-4ebf-871c-efe1b5599c08" cx="11.335" cy="7.897" r="1.5"/>
    <circle class="uuid-8234f370-cc52-4ebf-871c-efe1b5599c08" cx="20.665" cy="7.897" r="1.5"/>
    <circle class="uuid-8234f370-cc52-4ebf-871c-efe1b5599c08" cx="25.335" cy="10.447" r="1.5"/>
    <circle class="uuid-8234f370-cc52-4ebf-871c-efe1b5599c08" cx="30" cy="13.01" r="1.5"/>
    <circle class="uuid-8234f370-cc52-4ebf-871c-efe1b5599c08" cx="20.665" cy="24.102" r="1.5"/>
    <circle class="uuid-8234f370-cc52-4ebf-871c-efe1b5599c08" cx="25.335" cy="21.552" r="1.5"/>
    <circle class="uuid-8234f370-cc52-4ebf-871c-efe1b5599c08" cx="30" cy="19.01" r="1.5"/>
    <circle class="uuid-8234f370-cc52-4ebf-871c-efe1b5599c08" cx="6.665" cy="10.447" r="1.5"/>
    <circle class="uuid-8234f370-cc52-4ebf-871c-efe1b5599c08" cx="2" cy="13" r="1.5"/>
    <circle class="uuid-8234f370-cc52-4ebf-871c-efe1b5599c08" cx="11.335" cy="24.102" r="1.5"/>
    <circle class="uuid-8234f370-cc52-4ebf-871c-efe1b5599c08" cx="6.665" cy="21.552" r="1.5"/>
    <circle class="uuid-8234f370-cc52-4ebf-871c-efe1b5599c08" cx="2" cy="19" r="1.5"/>
    <circle class="uuid-8234f370-cc52-4ebf-871c-efe1b5599c08" cx="16" cy="26.66" r="1.5"/>
  </g>
</svg>
