<?xml version="1.0" encoding="UTF-8"?><svg xmlns="http://www.w3.org/2000/svg" width="32" height="32" viewBox="0 0 32 32"><defs><style>.uuid-5094074c-8c50-446f-bbf2-18854d631ab7{fill:none;}.uuid-e69bc24d-7923-4634-8ea6-210a416216b1{fill:#151515;}</style></defs><g id="uuid-016179d6-f509-472c-b01c-9b41bffbc59e"><rect class="uuid-5094074c-8c50-446f-bbf2-18854d631ab7" width="32" height="32"/></g><g id="uuid-3e438ed2-23cd-4c79-9334-be72a32a217f"><path class="uuid-e69bc24d-7923-4634-8ea6-210a416216b1" d="M16,1C7.72852,1,1,7.729,1,16s6.72852,15,15,15,15-6.729,15-15S24.27148,1,16,1ZM16,29c-7.16797,0-13-5.83154-13-13S8.83203,3,16,3s13,5.83154,13,13-5.83203,13-13,13Z"/><path class="uuid-e69bc24d-7923-4634-8ea6-210a416216b1" d="M13.70703,10.29297c-.39062-.39062-1.02344-.39062-1.41406,0l-4.64648,4.64648c-.58496.58496-.58496,1.53613,0,2.12109l4.64648,4.64648c.19531.19531.45117.29297.70703.29297s.51172-.09766.70703-.29297c.39062-.39062.39062-1.02344,0-1.41406l-4.29297-4.29297,4.29297-4.29297c.39062-.39062.39062-1.02344,0-1.41406Z"/><path class="uuid-e69bc24d-7923-4634-8ea6-210a416216b1" d="M19.70703,10.29297c-.39062-.39062-1.02344-.39062-1.41406,0s-.39062,1.02344,0,1.41406l4.29297,4.29297-4.29297,4.29297c-.39062.39062-.39062,1.02344,0,1.41406.19531.19531.45117.29297.70703.29297s.51172-.09766.70703-.29297l4.64648-4.64648c.58496-.58496.58496-1.53613,0-2.12109l-4.64648-4.64648Z"/></g></svg>