<?xml version="1.0" encoding="UTF-8"?><svg xmlns="http://www.w3.org/2000/svg" viewBox="0 0 32 32"><defs><style>.uuid-de8a7f35-faf9-4eb1-9059-a34b094e150e{fill:none;}.uuid-de8a7f35-faf9-4eb1-9059-a34b094e150e,.uuid-ddac5ee4-a5a9-4293-a780-5e92d7a8ad87{stroke-width:0px;}.uuid-ddac5ee4-a5a9-4293-a780-5e92d7a8ad87{fill:#151515;}</style></defs><g id="uuid-5f870e38-32ca-4ad1-bf47-eac485c781b1"><rect class="uuid-de8a7f35-faf9-4eb1-9059-a34b094e150e" width="32" height="32"/></g><g id="uuid-000cb1ed-f8f5-4bb5-a7c5-d9ae8e5b5485"><path class="uuid-ddac5ee4-a5a9-4293-a780-5e92d7a8ad87" d="M30.1719,11.7573L20.2422,1.8286c-1.1328-1.1333-2.6396-1.7573-4.2422-1.7573s-3.1094.624-4.2422,1.7573L1.8281,11.7573c-2.3389,2.3394-2.3389,6.146,0,8.4854l9.9297,9.9287c1.1328,1.1333,2.6396,1.7573,4.2422,1.7573s3.1094-.624,4.2422-1.7573l9.9297-9.9287c2.3389-2.3394,2.3389-6.146,0-8.4854ZM28.7578,18.8286l-9.9297,9.9287c-1.5117,1.5107-4.1445,1.5107-5.6562,0L3.2422,18.8286c-1.5596-1.5596-1.5596-4.0977,0-5.6572L13.1719,3.2427c.7559-.7554,1.7598-1.1714,2.8281-1.1714s2.0723.416,2.8281,1.1714l9.9297,9.9287c1.5596,1.5596,1.5596,4.0977,0,5.6572Z"/><path class="uuid-ddac5ee4-a5a9-4293-a780-5e92d7a8ad87" d="M22,15h-5v-5c0-.5522-.4473-1-1-1s-1,.4478-1,1v5h-5c-.5527,0-1,.4478-1,1s.4473,1,1,1h5v5c0,.5522.4473,1,1,1s1-.4478,1-1v-5h5c.5527,0,1-.4478,1-1s-.4473-1-1-1Z"/></g></svg>