<?xml version="1.0" encoding="UTF-8"?><svg xmlns="http://www.w3.org/2000/svg" viewBox="0 0 32 32"><defs><style>.uuid-0b57bcdd-480d-42a7-8d99-2644aa19b93d{fill:none;}.uuid-0b57bcdd-480d-42a7-8d99-2644aa19b93d,.uuid-298df374-2ac5-40f5-877d-cb3314baf9ef{stroke-width:0px;}.uuid-298df374-2ac5-40f5-877d-cb3314baf9ef{fill:#151515;}</style></defs><g id="uuid-878f5770-73ae-4480-b375-8b72653e615b"><rect class="uuid-0b57bcdd-480d-42a7-8d99-2644aa19b93d" x="0" width="32" height="32"/></g><g id="uuid-d18ebebc-b218-4bb1-b71f-a1374b2e0efd"><path class="uuid-298df374-2ac5-40f5-877d-cb3314baf9ef" d="M30.1714,11.7578L20.2427,1.8281c-2.3398-2.3398-6.1455-2.3398-8.4854,0L1.8286,11.7578C.6953,12.8906.0713,14.3975.0713,16s.624,3.1094,1.7573,4.2422l9.9287,9.9297c1.1699,1.1699,2.7061,1.7539,4.2427,1.7539s3.0732-.584,4.2427-1.7539l9.9287-9.9297c1.1333-1.1328,1.7573-2.6396,1.7573-4.2422s-.624-3.1094-1.7573-4.2422ZM22,17.125h-4.875v4.875c0,.6211-.5039,1.125-1.125,1.125s-1.125-.5039-1.125-1.125v-4.875h-4.875c-.6211,0-1.125-.5039-1.125-1.125s.5039-1.125,1.125-1.125h4.875v-4.875c0-.6211.5039-1.125,1.125-1.125s1.125.5039,1.125,1.125v4.875h4.875c.6211,0,1.125.5039,1.125,1.125s-.5039,1.125-1.125,1.125Z"/></g></svg>