<?xml version="1.0" encoding="UTF-8"?><svg xmlns="http://www.w3.org/2000/svg" width="32" height="32" viewBox="0 0 32 32"><defs><style>.uuid-aa39e90c-ebc1-459e-83b7-c209bc085f98{fill:none;}.uuid-949e2e0d-6138-49b2-8d6f-51c5c91c4444{fill:#151515;}</style></defs><g id="uuid-b0729c4b-0074-4189-a58f-40219d761685"><rect class="uuid-aa39e90c-ebc1-459e-83b7-c209bc085f98" width="32" height="32"/></g><g id="uuid-86cdbd43-9995-4f57-b6ab-072008129324"><path class="uuid-949e2e0d-6138-49b2-8d6f-51c5c91c4444" d="M28.74902,10.36426l-7.11328-7.11328C18.52832.14355,13.47168.14355,10.36426,3.25098l-7.11328,7.11328C.14404,13.47168.14404,18.52832,3.25098,21.63574l7.11328,7.11328c1.55371,1.55371,3.59473,2.33057,5.63574,2.33057s4.08203-.77686,5.63574-2.33057l7.11328-7.11328c3.10693-3.10742,3.10693-8.16406,0-11.27148ZM27.33496,20.22168l-7.11328,7.11328c-2.32812,2.32715-6.11523,2.32715-8.44336,0l-7.11328-7.11328c-2.32715-2.32764-2.32715-6.11572,0-8.44336l7.11328-7.11328c2.32812-2.32715,6.11523-2.32715,8.44336,0l7.11328,7.11328c2.32715,2.32764,2.32715,6.11572,0,8.44336Z"/><path class="uuid-949e2e0d-6138-49b2-8d6f-51c5c91c4444" d="M23,15h-6v-6c0-.55225-.44775-1-1-1s-1,.44775-1,1v6h-6c-.55225,0-1,.44775-1,1s.44775,1,1,1h6v6c0,.55225.44775,1,1,1s1-.44775,1-1v-6h6c.55225,0,1-.44775,1-1s-.44775-1-1-1Z"/></g></svg>