<?xml version="1.0" encoding="UTF-8"?><svg xmlns="http://www.w3.org/2000/svg" width="32" height="32" viewBox="0 0 32 32"><defs><style>.uuid-07bd86df-dc32-47ba-91e6-1495c242c02c{fill:none;}.uuid-6438995b-e86d-4eb6-b82c-75c4532862eb{fill:#151515;}</style></defs><g id="uuid-3644d89e-5de0-4644-9a5f-33071d81961e"><rect class="uuid-07bd86df-dc32-47ba-91e6-1495c242c02c" width="32" height="32"/></g><g id="uuid-3ae55d1d-c466-4e9a-bb4d-ca864a628fc9"><path class="uuid-6438995b-e86d-4eb6-b82c-75c4532862eb" d="M28.74902,10.36426l-7.11328-7.11328C18.52832.14355,13.47168.14355,10.36426,3.25098l-7.11328,7.11328C.14404,13.47168.14404,18.52832,3.25098,21.63574l7.11328,7.11328c1.55371,1.55371,3.59473,2.33057,5.63574,2.33057s4.08203-.77686,5.63574-2.33057l7.11328-7.11328c3.10693-3.10742,3.10693-8.16406,0-11.27148ZM23,17.125h-5.875v5.875c0,.62109-.50391,1.125-1.125,1.125s-1.125-.50391-1.125-1.125v-5.875h-5.875c-.62109,0-1.125-.50391-1.125-1.125s.50391-1.125,1.125-1.125h5.875v-5.875c0-.62109.50391-1.125,1.125-1.125s1.125.50391,1.125,1.125v5.875h5.875c.62109,0,1.125.50391,1.125,1.125s-.50391,1.125-1.125,1.125Z"/></g></svg>