<?xml version="1.0" encoding="UTF-8"?><svg xmlns="http://www.w3.org/2000/svg" width="32" height="32" viewBox="0 0 32 32"><defs><style>.uuid-10c9292d-68f3-452b-9f4b-03a2de63572c{fill:none;}.uuid-a804c4b7-f5eb-4edc-8491-d40cc24ba06e{fill:#151515;}</style></defs><g id="uuid-f6464f8d-6ad5-4412-875e-9d536a7cf4fa"><rect class="uuid-10c9292d-68f3-452b-9f4b-03a2de63572c" width="32" height="32"/></g><g id="uuid-86d4765e-b233-4fb2-9602-2af19b6719e2"><path class="uuid-a804c4b7-f5eb-4edc-8491-d40cc24ba06e" d="M27.5,1H4.5c-.82715,0-1.5.67285-1.5,1.5v27c0,.82715.67285,1.5,1.5,1.5h23c.82715,0,1.5-.67285,1.5-1.5V2.5c0-.82715-.67285-1.5-1.5-1.5ZM17,13v-4h4v4h-4ZM11,13v-4h4v4h-4ZM5,13v-4h4v4h-4ZM15,7h-4V3h4v4ZM17,3h4v4h-4V3ZM23,9h4v4h-4v-4ZM27,7h-4V3h4v4ZM9,3v4h-4V3h4ZM12,29v-8h3v8h-3ZM17,29v-8h3v8h-3ZM22,29v-8.5c0-.82715-.67285-1.5-1.5-1.5h-9c-.82715,0-1.5.67285-1.5,1.5v8.5h-5v-14h22v14h-5Z"/></g></svg>