<?xml version="1.0" encoding="UTF-8"?><svg xmlns="http://www.w3.org/2000/svg" width="32" height="32" viewBox="0 0 32 32"><defs><style>.uuid-3dfc79a5-3e0f-4046-8220-471acd2b37f3{fill:none;}.uuid-897a515c-ccdc-45f5-9566-6cfa2443a0fd{fill:#151515;}</style></defs><g id="uuid-1d5f0a98-73a6-41c7-8724-8665e280add1"><rect class="uuid-3dfc79a5-3e0f-4046-8220-471acd2b37f3" width="32" height="32"/></g><g id="uuid-d5098aa3-a2e7-4388-8209-ccb5abf6ccff"><rect class="uuid-897a515c-ccdc-45f5-9566-6cfa2443a0fd" x="17.125" y="22.125" width="3.75" height="8.875"/><rect class="uuid-897a515c-ccdc-45f5-9566-6cfa2443a0fd" x="11.125" y="22.125" width="3.75" height="8.875"/><path class="uuid-897a515c-ccdc-45f5-9566-6cfa2443a0fd" d="M27.5,1H4.5c-.82715,0-1.5.67285-1.5,1.5v27c0,.82715.67285,1.5,1.5,1.5h4.375v-9.5c0-.89648.729-1.625,1.625-1.625h11c.896,0,1.625.72852,1.625,1.625v9.5h4.375c.82715,0,1.5-.67285,1.5-1.5V2.5c0-.82715-.67285-1.5-1.5-1.5ZM9,13h-4v-4h4v4ZM9,7h-4V3h4v4ZM15,13h-4v-4h4v4ZM15,7h-4V3h4v4ZM21,13h-4v-4h4v4ZM21,7h-4V3h4v4ZM27,13h-4v-4h4v4ZM27,7h-4V3h4v4Z"/></g></svg>