<?xml version="1.0" encoding="UTF-8"?><svg xmlns="http://www.w3.org/2000/svg" width="32" height="32" viewBox="0 0 32 32"><defs><style>.uuid-e0b6104f-2be8-4b43-abc5-90db631dc2f3{fill:none;}.uuid-65dceb60-849f-44d8-9778-daf7865e235b{fill:#151515;}</style></defs><g id="uuid-a40995a9-c49b-43d6-bc9f-053bc5791911"><rect class="uuid-e0b6104f-2be8-4b43-abc5-90db631dc2f3" width="32" height="32"/></g><g id="uuid-ad13acb3-e7d0-4f02-b724-86b3d9a3c88a"><path class="uuid-65dceb60-849f-44d8-9778-daf7865e235b" d="M16,1C7.729,1,1,7.729,1,16s6.729,15,15,15,15-6.729,15-15S24.271,1,16,1ZM14.5,9c0-.82861.67139-1.5,1.5-1.5s1.5.67139,1.5,1.5v7c0,.82861-.67139,1.5-1.5,1.5s-1.5-.67139-1.5-1.5v-7ZM16,25.00098c-1.10455,0-2-.89545-2-2,0-1.10461.89545-2,2-2,1.10461,0,2,.89539,2,2,0,1.10455-.89539,2-2,2Z"/></g></svg>