<?xml version="1.0" encoding="UTF-8"?><svg xmlns="http://www.w3.org/2000/svg" width="32" height="32" viewBox="0 0 32 32"><defs><style>.uuid-66df92cc-c0be-4ff8-a667-853ede3bec0e{fill:none;}.uuid-337db6ca-3ce9-4ffa-b404-20d116167f34{fill:#151515;}</style></defs><g id="uuid-325231d4-82a2-416f-b19b-f9e56ed27e8b"><rect class="uuid-66df92cc-c0be-4ff8-a667-853ede3bec0e" width="32" height="32"/></g><g id="uuid-72793aec-d5b8-4fe5-bf87-a2d63c2e7633"><path class="uuid-337db6ca-3ce9-4ffa-b404-20d116167f34" d="M16,17.25c.69043,0,1.25-.55957,1.25-1.25v-7c0-.69043-.55957-1.25-1.25-1.25s-1.25.55957-1.25,1.25v7c0,.69043.55957,1.25,1.25,1.25Z"/><path class="uuid-337db6ca-3ce9-4ffa-b404-20d116167f34" d="M16,1C7.729,1,1,7.729,1,16s6.729,15,15,15,15-6.729,15-15S24.271,1,16,1ZM16,29c-7.16846,0-13-5.83154-13-13S8.83154,3,16,3s13,5.83154,13,13-5.83154,13-13,13Z"/><circle class="uuid-337db6ca-3ce9-4ffa-b404-20d116167f34" cx="16" cy="22.01117" r="1.75"/></g></svg>