<?xml version="1.0" encoding="UTF-8"?><svg xmlns="http://www.w3.org/2000/svg" viewBox="0 0 32 32"><defs><style>.uuid-0d9e0005-79e1-4c38-b782-2314ba44b466{fill:none;}.uuid-0d9e0005-79e1-4c38-b782-2314ba44b466,.uuid-31eb60ae-eccc-4cd8-984b-359e8282b874{stroke-width:0px;}.uuid-31eb60ae-eccc-4cd8-984b-359e8282b874{fill:#151515;}</style></defs><g id="uuid-3fd41cb7-ae26-448b-bc79-bc6d42f02533"><rect class="uuid-0d9e0005-79e1-4c38-b782-2314ba44b466" x="0" width="32" height="32"/></g><g id="uuid-34ef91dc-b77a-460e-93bc-7fac479d301c"><path class="uuid-31eb60ae-eccc-4cd8-984b-359e8282b874" d="M16,0C7.1777,0,0,7.1777,0,16s7.1777,16,16,16,16-7.1777,16-16S24.8223,0,16,0ZM14.75,9c0-.6904.5596-1.25,1.25-1.25s1.25.5596,1.25,1.25v8c0,.6904-.5596,1.25-1.25,1.25s-1.25-.5596-1.25-1.25v-8ZM16,25.5099c-.8284,0-1.5-.6716-1.5-1.5s.6716-1.5,1.5-1.5,1.5.6716,1.5,1.5-.6716,1.5-1.5,1.5Z"/></g></svg>