<?xml version="1.0" encoding="UTF-8"?><svg xmlns="http://www.w3.org/2000/svg" viewBox="0 0 32 32"><defs><style>.uuid-309e8893-a8cb-44cf-9965-a6cf0795ef7f{fill:none;}.uuid-309e8893-a8cb-44cf-9965-a6cf0795ef7f,.uuid-6928c619-f811-4368-84c5-4985483b7834{stroke-width:0px;}.uuid-6928c619-f811-4368-84c5-4985483b7834{fill:#151515;}</style></defs><g id="uuid-7d06f19a-b3d6-479e-912a-084a7fa83449"><rect class="uuid-309e8893-a8cb-44cf-9965-a6cf0795ef7f" width="32" height="32"/></g><g id="uuid-dec7bc94-b325-43df-a7f5-b22cba9a0515"><path class="uuid-6928c619-f811-4368-84c5-4985483b7834" d="M29.5,1H2.5c-.8271,0-1.5.6729-1.5,1.5v27c0,.8271.6729,1.5,1.5,1.5h27c.8271,0,1.5-.6729,1.5-1.5V2.5c0-.8271-.6729-1.5-1.5-1.5ZM14,6h4c.5522,0,1,.4473,1,1s-.4478,1-1,1h-4c-.5522,0-1-.4473-1-1s.4478-1,1-1ZM25.5,25c0,.2764-.2236.5-.5.5h-3v-3.5c0-.5527-.4478-1-1-1s-1,.4473-1,1v3.5h-3v-3.5c0-.5527-.4478-1-1-1s-1,.4473-1,1v3.5h-3v-3.5c0-.5527-.4478-1-1-1s-1,.4473-1,1v3.5h-3c-.2764,0-.5-.2236-.5-.5v-11c0-.2764.2236-.5.5-.5h4.5v-2.5c0-.2764.2236-.5.5-.5h8c.2764,0,.5.2236.5.5v2.5h4.5c.2764,0,.5.2236.5.5v11Z"/></g></svg>