<?xml version="1.0" encoding="UTF-8"?><svg xmlns="http://www.w3.org/2000/svg" width="32" height="32" viewBox="0 0 32 32"><defs><style>.uuid-dc7d1c37-517d-4384-9706-528c9a18ae2f{fill:none;}.uuid-ea2d32f6-3338-4d69-aca3-4232bffe8f70{fill:#151515;}</style></defs><g id="uuid-e5e88725-0b6c-465a-aead-f3c39af31f83"><rect class="uuid-dc7d1c37-517d-4384-9706-528c9a18ae2f" width="32" height="32"/></g><g id="uuid-b7476416-121e-4bb5-88ad-a514aee03035"><path class="uuid-ea2d32f6-3338-4d69-aca3-4232bffe8f70" d="M28.5,2H3.5c-.82715,0-1.5.67285-1.5,1.5v25c0,.82715.67285,1.5,1.5,1.5h25c.82715,0,1.5-.67285,1.5-1.5V3.5c0-.82715-.67285-1.5-1.5-1.5ZM28,28H4V4h24v24Z"/><path class="uuid-ea2d32f6-3338-4d69-aca3-4232bffe8f70" d="M8.5,25h15c.82715,0,1.5-.67285,1.5-1.5v-8c0-.82715-.67285-1.5-1.5-1.5h-2.5v-1.5c0-.82715-.67285-1.5-1.5-1.5h-7c-.82715,0-1.5.67285-1.5,1.5v1.5h-2.5c-.82715,0-1.5.67285-1.5,1.5v8c0,.82715.67285,1.5,1.5,1.5ZM9,16h2.5c.82715,0,1.5-.67285,1.5-1.5v-1.5h6v1.5c0,.82715.67285,1.5,1.5,1.5h2.5v7h-2v-3c0-.55225-.44775-1-1-1s-1,.44775-1,1v3h-2v-3c0-.55225-.44775-1-1-1s-1,.44775-1,1v3h-2v-3c0-.55225-.44775-1-1-1s-1,.44775-1,1v3h-2v-7Z"/><path class="uuid-ea2d32f6-3338-4d69-aca3-4232bffe8f70" d="M14,9h4c.55225,0,1-.44775,1-1s-.44775-1-1-1h-4c-.55225,0-1,.44775-1,1s.44775,1,1,1Z"/></g></svg>