<svg xmlns="http://www.w3.org/2000/svg" viewBox="0 0 32 32">
  <defs>
    <style>
      .uuid-88a0af8b-532e-4147-a4c1-f21009aa23c7{stroke-width:0;fill:#151515}
    </style>
  </defs>
  <path d="M0 0h32v32H0z" id="uuid-93f106db-61a0-400b-aa83-e5479745e6a5" stroke-width="0" fill="none"/>
  <g id="uuid-51ae4ac0-9cc4-4a45-be4b-db8ce5af5bb6">
    <path class="uuid-88a0af8b-532e-4147-a4c1-f21009aa23c7" d="M29.5 1h-27C1.673 1 1 1.673 1 2.5v27c0 .827.673 1.5 1.5 1.5h27c.827 0 1.5-.673 1.5-1.5v-27c0-.827-.673-1.5-1.5-1.5ZM29 29H3V3h26v26Z"/>
    <path class="uuid-88a0af8b-532e-4147-a4c1-f21009aa23c7" d="M7 26h18a1 1 0 0 0 1-1V14a1 1 0 0 0-1-1h-4v-2a1 1 0 0 0-1-1h-8a1 1 0 0 0-1 1v2H7a1 1 0 0 0-1 1v11a1 1 0 0 0 1 1Zm1-11h4a1 1 0 0 0 1-1v-2h6v2a1 1 0 0 0 1 1h4v9h-3v-3a1 1 0 1 0-2 0v3h-2v-3a1 1 0 1 0-2 0v3h-2v-3a1 1 0 1 0-2 0v3H8v-9Zm6-7h4a1 1 0 1 0 0-2h-4a1 1 0 1 0 0 2Z"/>
  </g>
</svg>
