<?xml version="1.0" encoding="UTF-8"?><svg xmlns="http://www.w3.org/2000/svg" width="32" height="32" viewBox="0 0 32 32"><defs><style>.uuid-b3870200-8fc9-480b-bcb3-d2fb797479d1{fill:none;}.uuid-efc56757-dcd2-4bff-9414-d77e115d86d3{fill:#151515;}</style></defs><g id="uuid-7b0b1f21-e918-4bbd-a0c3-a2af2229e441"><rect class="uuid-b3870200-8fc9-480b-bcb3-d2fb797479d1" width="32" height="32"/></g><g id="uuid-79113346-e1ef-4129-8371-99031d2d347c"><path class="uuid-efc56757-dcd2-4bff-9414-d77e115d86d3" d="M28.5,2H3.5c-.82715,0-1.5.67285-1.5,1.5v25c0,.82715.67285,1.5,1.5,1.5h25c.82715,0,1.5-.67285,1.5-1.5V3.5c0-.82715-.67285-1.5-1.5-1.5ZM14,5.875h4c.62109,0,1.125.50391,1.125,1.125s-.50391,1.125-1.125,1.125h-4c-.62109,0-1.125-.50391-1.125-1.125s.50391-1.125,1.125-1.125ZM25,24c0,.55225-.44775,1-1,1h-2v-4c0-.55225-.44775-1-1-1s-1,.44775-1,1v4h-3v-4c0-.55225-.44775-1-1-1s-1,.44775-1,1v4h-3v-4c0-.55225-.44775-1-1-1s-1,.44775-1,1v4h-2c-.55225,0-1-.44775-1-1v-9.25049c0-.55225.44775-1,1-1h3v-1.74951c0-.55225.44775-1,1-1h8c.55225,0,1,.44775,1,1v1.74951h3c.55225,0,1,.44775,1,1v9.25049Z"/></g></svg>