<?xml version="1.0" encoding="UTF-8"?><svg xmlns="http://www.w3.org/2000/svg" viewBox="0 0 32 32"><defs><style>.uuid-5da9c3d2-5bd5-4030-8fd9-5fb8b53bffc1{fill:none;}.uuid-5da9c3d2-5bd5-4030-8fd9-5fb8b53bffc1,.uuid-88a0af8b-532e-4147-a4c1-f21009aa23c7{stroke-width:0px;}.uuid-88a0af8b-532e-4147-a4c1-f21009aa23c7{fill:#151515;}</style></defs><g id="uuid-93f106db-61a0-400b-aa83-e5479745e6a5"><rect class="uuid-5da9c3d2-5bd5-4030-8fd9-5fb8b53bffc1" x="0" width="32" height="32"/></g><g id="uuid-51ae4ac0-9cc4-4a45-be4b-db8ce5af5bb6"><path class="uuid-88a0af8b-532e-4147-a4c1-f21009aa23c7" d="M29.5,1H2.5c-.8271,0-1.5.6729-1.5,1.5v27c0,.8271.6729,1.5,1.5,1.5h27c.8271,0,1.5-.6729,1.5-1.5V2.5c0-.8271-.6729-1.5-1.5-1.5ZM29,29H3V3h26v26Z"/><path class="uuid-88a0af8b-532e-4147-a4c1-f21009aa23c7" d="M7,26h18c.5527,0,1-.4478,1-1v-11c0-.5522-.4473-1-1-1h-4v-2c0-.5522-.4473-1-1-1h-8c-.5527,0-1,.4478-1,1v2h-4c-.5527,0-1,.4478-1,1v11c0,.5522.4473,1,1,1ZM8,15h4c.5527,0,1-.4478,1-1v-2h6v2c0,.5522.4473,1,1,1h4v9h-3v-3c0-.5522-.4473-1-1-1s-1,.4478-1,1v3h-2v-3c0-.5522-.4473-1-1-1s-1,.4478-1,1v3h-2v-3c0-.5522-.4473-1-1-1s-1,.4478-1,1v3h-3v-9Z"/><path class="uuid-88a0af8b-532e-4147-a4c1-f21009aa23c7" d="M14,8h4c.5527,0,1-.4478,1-1s-.4473-1-1-1h-4c-.5527,0-1,.4478-1,1s.4473,1,1,1Z"/></g></svg>