<?xml version="1.0" encoding="UTF-8"?><svg xmlns="http://www.w3.org/2000/svg" viewBox="0 0 32 32"><defs><style>.uuid-d8f947c3-24d5-4347-84f1-96caf45bd0f2{fill:none;}.uuid-d8f947c3-24d5-4347-84f1-96caf45bd0f2,.uuid-9e9f5eb5-74e3-4c0f-98da-dd75ccf23951{stroke-width:0px;}.uuid-9e9f5eb5-74e3-4c0f-98da-dd75ccf23951{fill:#151515;}</style></defs><g id="uuid-4a4906fa-f9e2-4c63-8277-bffe88a8f858"><rect class="uuid-d8f947c3-24d5-4347-84f1-96caf45bd0f2" x="0" width="32" height="32"/></g><g id="uuid-9be8f06f-e78d-466d-8258-29b06e15bff5"><path class="uuid-9e9f5eb5-74e3-4c0f-98da-dd75ccf23951" d="M11,1H2.5c-.8271,0-1.5.6729-1.5,1.5v8.5c0,.5522.4478,1,1,1s1-.4478,1-1V3h8c.5522,0,1-.4478,1-1s-.4478-1-1-1Z"/><path class="uuid-9e9f5eb5-74e3-4c0f-98da-dd75ccf23951" d="M11,29H3v-8c0-.5522-.4478-1-1-1s-1,.4478-1,1v8.5c0,.8271.6729,1.5,1.5,1.5h8.5c.5522,0,1-.4478,1-1s-.4478-1-1-1Z"/><path class="uuid-9e9f5eb5-74e3-4c0f-98da-dd75ccf23951" d="M30,20c-.5522,0-1,.4478-1,1v8h-8c-.5522,0-1,.4478-1,1s.4478,1,1,1h8.5c.8271,0,1.5-.6729,1.5-1.5v-8.5c0-.5522-.4478-1-1-1Z"/><path class="uuid-9e9f5eb5-74e3-4c0f-98da-dd75ccf23951" d="M29.5,1h-8.5c-.5522,0-1,.4478-1,1s.4478,1,1,1h8v8c0,.5522.4478,1,1,1s1-.4478,1-1V2.5c0-.8271-.6729-1.5-1.5-1.5Z"/></g></svg>