<?xml version="1.0" encoding="UTF-8"?><svg xmlns="http://www.w3.org/2000/svg" width="32" height="32" viewBox="0 0 32 32"><defs><style>.uuid-b3b8ac6e-1770-4938-a7f4-20f52af0ec08{fill:none;}.uuid-693769e3-fd26-4871-8f66-1d3203b9acdf{fill:#151515;}</style></defs><g id="uuid-848d8b11-a7f8-4722-9a9e-dc40fb796eb0"><rect class="uuid-b3b8ac6e-1770-4938-a7f4-20f52af0ec08" width="32" height="32"/></g><g id="uuid-443d0f15-95f1-4aa2-8fe6-fdf4339044b5"><path class="uuid-693769e3-fd26-4871-8f66-1d3203b9acdf" d="M28.5,2h-6.5c-.55225,0-1,.44775-1,1s.44775,1,1,1h6v6c0,.55225.44775,1,1,1s1-.44775,1-1V3.5c0-.82715-.67285-1.5-1.5-1.5Z"/><path class="uuid-693769e3-fd26-4871-8f66-1d3203b9acdf" d="M10,2H3.5c-.82715,0-1.5.67285-1.5,1.5v6.5c0,.55225.44775,1,1,1s1-.44775,1-1v-6h6c.55225,0,1-.44775,1-1s-.44775-1-1-1Z"/><path class="uuid-693769e3-fd26-4871-8f66-1d3203b9acdf" d="M10,28h-6v-6c0-.55225-.44775-1-1-1s-1,.44775-1,1v6.5c0,.82715.67285,1.5,1.5,1.5h6.5c.55225,0,1-.44775,1-1s-.44775-1-1-1Z"/><path class="uuid-693769e3-fd26-4871-8f66-1d3203b9acdf" d="M29,21c-.55225,0-1,.44775-1,1v6h-6c-.55225,0-1,.44775-1,1s.44775,1,1,1h6.5c.82715,0,1.5-.67285,1.5-1.5v-6.5c0-.55225-.44775-1-1-1Z"/></g></svg>