<?xml version="1.0" encoding="UTF-8"?><svg xmlns="http://www.w3.org/2000/svg" width="32" height="32" viewBox="0 0 32 32"><defs><style>.uuid-f344f3a0-aaf0-4237-a267-80d1b762ad95{fill:none;}.uuid-cfcaff64-ee52-414e-aa23-9a80670c774b{fill:#151515;}</style></defs><g id="uuid-f001ec07-e5ae-4b91-8a18-6fa76ad1295e"><rect class="uuid-f344f3a0-aaf0-4237-a267-80d1b762ad95" width="32" height="32"/></g><g id="uuid-51253a8f-2317-4f00-a8e9-3f9649e9f2c8"><path class="uuid-cfcaff64-ee52-414e-aa23-9a80670c774b" d="M28.5,2h-6.5c-.55273,0-1,.44727-1,1s.44727,1,1,1h4.58594l-7.29297,7.29297c-.39062.39062-.39062,1.02344,0,1.41406.19531.19531.45117.29297.70703.29297s.51172-.09766.70703-.29297l7.29297-7.29297v4.58594c0,.55273.44727,1,1,1s1-.44727,1-1V3.5c0-.82715-.67285-1.5-1.5-1.5Z"/><path class="uuid-cfcaff64-ee52-414e-aa23-9a80670c774b" d="M29,21c-.55273,0-1,.44727-1,1v4.58594l-7.29297-7.29297c-.39062-.39062-1.02344-.39062-1.41406,0s-.39062,1.02344,0,1.41406l7.29297,7.29297h-4.58594c-.55273,0-1,.44727-1,1s.44727,1,1,1h6.5c.82715,0,1.5-.67285,1.5-1.5v-6.5c0-.55273-.44727-1-1-1Z"/><path class="uuid-cfcaff64-ee52-414e-aa23-9a80670c774b" d="M5.41406,4h4.58594c.55273,0,1-.44727,1-1s-.44727-1-1-1H3.5c-.82715,0-1.5.67285-1.5,1.5v6.5c0,.55273.44727,1,1,1s1-.44727,1-1v-4.58594l7.29297,7.29297c.19531.19531.45117.29297.70703.29297s.51172-.09766.70703-.29297c.39062-.39062.39062-1.02344,0-1.41406l-7.29297-7.29297Z"/><path class="uuid-cfcaff64-ee52-414e-aa23-9a80670c774b" d="M11.29297,19.29297l-7.29297,7.29297v-4.58594c0-.55273-.44727-1-1-1s-1,.44727-1,1v6.5c0,.82715.67285,1.5,1.5,1.5h6.5c.55273,0,1-.44727,1-1s-.44727-1-1-1h-4.58594l7.29297-7.29297c.39062-.39062.39062-1.02344,0-1.41406s-1.02344-.39062-1.41406,0Z"/></g></svg>