<?xml version="1.0" encoding="UTF-8"?><svg xmlns="http://www.w3.org/2000/svg" width="32" height="32" viewBox="0 0 32 32"><defs><style>.uuid-916b4223-eed3-4030-a518-21e65dd5d5d7{fill:none;}.uuid-7f599a22-714f-4e5a-a616-bf9f9ac0f276{fill:#151515;}</style></defs><g id="uuid-e88b5810-7f65-4159-9055-467de090ef27"><rect class="uuid-916b4223-eed3-4030-a518-21e65dd5d5d7" width="32" height="32"/></g><g id="uuid-49eb9d0a-77d4-48dc-bab4-6220aa3e0f8a"><path class="uuid-7f599a22-714f-4e5a-a616-bf9f9ac0f276" d="M24.13397,16c1.80304-2.15027,3.32202-4.26605,4.42657-6.1958,2.09131-3.65381,2.47705-6.18115,1.14648-7.51123-2.22418-2.22418-8.00128.80212-13.7074,5.57947C10.29309,3.09497,4.51636.06726,2.29297,2.29297c-1.33057,1.33008-.94482,3.85742,1.14648,7.51123,1.10455,1.92975,2.62354,4.04553,4.42657,6.1958-1.80304,2.15027-3.32202,4.26605-4.42657,6.1958-2.09131,3.65381-2.47705,6.18115-1.14648,7.51123.51074.51074,1.20801.74512,2.0498.74512,2.82349,0,7.26141-2.63959,11.65735-6.32007,4.39606,3.68048,8.83398,6.32007,11.6571,6.32007.84131,0,1.53906-.23438,2.0498-.74512,1.33057-1.33008.94482-3.85742-1.14648-7.51123-1.10455-1.92975-2.62354-4.04553-4.42657-6.1958ZM27.62939,3.51074c.31006,0,.53418.06738.66357.19629.31934.31982.42383,1.79785-1.46826,5.104-1.00586,1.75708-2.38422,3.68481-4.01721,5.65479-.81213-.90662-1.66943-1.81311-2.56482-2.7085-.88348-.88342-1.7934-1.74188-2.71326-2.56421,4.81873-3.99005,8.54553-5.68237,10.09998-5.68237ZM3.70703,3.70703c.12939-.12891.35303-.19629.66357-.19629,1.55481,0,5.28143,1.6925,10.09967,5.68213-.9198.82239-1.82953,1.68085-2.71295,2.56445-.89685.89685-1.75537,1.80487-2.56873,2.71295C4.39984,8.68774,2.93121,4.48285,3.70703,3.70703ZM3.70703,28.29297c-.31934-.31982-.42383-1.79785,1.46826-5.104,1.00586-1.75708,2.38422-3.68481,4.01721-5.65479.81213.90662,1.66943,1.81311,2.56482,2.7085.8847.8847,1.79675,1.74188,2.7179,2.56531-5.78284,4.79083-9.98749,6.25977-10.76819,5.48499ZM13.17139,18.82861c-.97021-.97028-1.85602-1.91345-2.66681-2.82538.84033-.94604,1.72925-1.89429,2.66681-2.83185.97235-.97235,1.91486-1.85394,2.82861-2.66614.91376.81219,1.85626,1.69379,2.82861,2.66614.97021.97028,1.85602,1.91345,2.66681,2.82538-.84033.94604-1.72925,1.89429-2.66681,2.83185-.97137.97144-1.91553,1.85834-2.82837,2.66992-.91296-.81158-1.85736-1.69849-2.82886-2.66992ZM28.29297,28.29297c-.77716.77521-4.98328-.69379-10.7677-5.48517.92102-.82336,1.83282-1.68048,2.71741-2.56512.89685-.89685,1.75537-1.80487,2.56873-2.71295,4.78876,5.78253,6.25739,9.98743,5.48157,10.76324Z"/><circle class="uuid-7f599a22-714f-4e5a-a616-bf9f9ac0f276" cx="16" cy="15.99988" r="1.5"/></g></svg>