<?xml version="1.0" encoding="UTF-8"?><svg xmlns="http://www.w3.org/2000/svg" viewBox="0 0 32 32"><defs><style>.uuid-dfbd1307-ab78-4f90-a360-c28bbf5b87fd{fill:none;}.uuid-dfbd1307-ab78-4f90-a360-c28bbf5b87fd,.uuid-18a50dbc-4e9d-4128-a9de-3e6e1faa8c06{stroke-width:0px;}.uuid-18a50dbc-4e9d-4128-a9de-3e6e1faa8c06{fill:#151515;}</style></defs><g id="uuid-a8e806ad-871b-4b96-bd5e-7a35e480a39e"><rect class="uuid-dfbd1307-ab78-4f90-a360-c28bbf5b87fd" x="0" width="32" height="32"/></g><g id="uuid-f189e8b7-d964-4271-976b-4aafe3310526"><path class="uuid-18a50dbc-4e9d-4128-a9de-3e6e1faa8c06" d="M30.707,1.293c-2.4039-2.4039-8.593.8098-14.7068,5.9101C9.8868,2.1025,3.6981-1.1113,1.293,1.293c-2.4047,2.4047.8093,8.5936,5.9099,14.707C2.1023,22.1134-1.1117,28.3024,1.293,30.707c.5581.5581,1.3193.814,2.2373.814,3.0361,0,7.7753-2.8008,12.4698-6.7174,4.6946,3.9168,9.4338,6.7174,12.4697,6.7174.9175,0,1.6792-.2559,2.2373-.814,2.4047-2.4047-.8093-8.5936-5.9099-14.707,5.1005-6.1134,8.3145-12.3024,5.9099-14.707ZM28.415,2.4326c.3979,0,.6953.0918.8779.2744,1.037,1.037-.8687,5.7617-5.8154,11.7587-.9219-1.0385-1.8856-2.0661-2.8813-3.0619s-2.0237-1.9597-3.0623-2.8817c4.9413-4.0762,9.0192-6.0895,10.8812-6.0895ZM22.1699,16c-.9125,1.0353-1.9037,2.0981-2.9877,3.1821-1.084,1.0839-2.1469,2.0751-3.1821,2.9875-1.0353-.9124-2.0981-1.9036-3.1821-2.9875-1.084-1.084-2.0753-2.1469-2.9877-3.1821.9125-1.0353,1.9037-2.0981,2.9877-3.1821,1.0845-1.0844,2.1465-2.0723,3.1821-2.9851,1.0356.9128,2.0977,1.9007,3.1821,2.9851,1.084,1.084,2.0753,2.1469,2.9877,3.1821ZM2.707,2.707c.1826-.1826.4795-.2744.8779-.2744,1.8619,0,5.9401,2.0135,10.8813,6.0895-1.0386.922-2.0665,1.8857-3.0624,2.8817-.9958.9958-1.9594,2.0234-2.8813,3.0619C3.5757,8.4687,1.67,3.744,2.707,2.707ZM2.707,29.293c-1.037-1.037.8687-5.7617,5.8154-11.7587.9219,1.0385,1.8856,2.0661,2.8813,3.0619s2.0234,1.9595,3.0617,2.8813c-5.9973,4.9467-10.7219,6.8521-11.7585,5.8155ZM29.293,29.293c-1.0358,1.0358-5.7604-.8687-11.7584-5.8156,1.0383-.9218,2.066-1.8856,3.0616-2.8812s1.9594-2.0234,2.8813-3.0619c4.9467,5.997,6.8524,10.7217,5.8154,11.7587Z"/><circle class="uuid-18a50dbc-4e9d-4128-a9de-3e6e1faa8c06" cx="16" cy="16.0099" r="1.5"/></g></svg>