<svg xmlns="http://www.w3.org/2000/svg" viewBox="0 0 32 32">
  <defs>
    <style>
      .uuid-1ca1315f-a216-4cbb-90da-51f8e67e31ed{stroke-width:0;fill:#151515}
    </style>
  </defs>
  <path d="M0 0h32v32H0z" id="uuid-5d2dd7b2-2d93-44e6-a560-0e1ef503f0df" stroke-width="0" fill="none"/>
  <g id="uuid-861befaf-835b-4ec0-b90c-da430cfeb3e0">
    <path class="uuid-1ca1315f-a216-4cbb-90da-51f8e67e31ed" d="M30 18a1 1 0 0 0-1 1v8.586L14.707 13.293a1 1 0 1 0-1.414 1.414L27.586 29H19a1 1 0 0 0 0 2h10.5c.827 0 1.5-.673 1.5-1.5V19a1 1 0 0 0-1-1Z"/>
    <path class="uuid-1ca1315f-a216-4cbb-90da-51f8e67e31ed" d="M29.5 1h-27C1.673 1 1 1.673 1 2.5v27c0 .827.673 1.5 1.5 1.5H12a1 1 0 0 0 0-2H3V3h26v9a1 1 0 0 0 2 0V2.5c0-.827-.673-1.5-1.5-1.5Z"/>
  </g>
</svg>
