<?xml version="1.0" encoding="UTF-8"?><svg xmlns="http://www.w3.org/2000/svg" viewBox="0 0 32 32"><defs><style>.uuid-da155b9f-296c-4d2d-b9e1-c308ecdddf16{fill:none;}.uuid-da155b9f-296c-4d2d-b9e1-c308ecdddf16,.uuid-1ca1315f-a216-4cbb-90da-51f8e67e31ed{stroke-width:0px;}.uuid-1ca1315f-a216-4cbb-90da-51f8e67e31ed{fill:#151515;}</style></defs><g id="uuid-5d2dd7b2-2d93-44e6-a560-0e1ef503f0df"><rect class="uuid-da155b9f-296c-4d2d-b9e1-c308ecdddf16" x="0" width="32" height="32"/></g><g id="uuid-861befaf-835b-4ec0-b90c-da430cfeb3e0"><path class="uuid-1ca1315f-a216-4cbb-90da-51f8e67e31ed" d="M30,18c-.5522,0-1,.4478-1,1v8.5859l-14.293-14.293c-.3906-.3906-1.0234-.3906-1.4141,0s-.3906,1.0234,0,1.4141l14.293,14.293h-8.5859c-.5522,0-1,.4478-1,1s.4478,1,1,1h10.5c.8271,0,1.5-.6729,1.5-1.5v-10.5c0-.5522-.4478-1-1-1Z"/><path class="uuid-1ca1315f-a216-4cbb-90da-51f8e67e31ed" d="M29.5,1H2.5c-.8271,0-1.5.6729-1.5,1.5v27c0,.8271.6729,1.5,1.5,1.5h9.5c.5522,0,1-.4478,1-1s-.4478-1-1-1H3V3h26v9c0,.5522.4478,1,1,1s1-.4478,1-1V2.5c0-.8271-.6729-1.5-1.5-1.5Z"/></g></svg>