<?xml version="1.0" encoding="UTF-8"?><svg xmlns="http://www.w3.org/2000/svg" width="32" height="32" viewBox="0 0 32 32"><defs><style>.uuid-fb26a3bf-7ed1-4efe-81eb-9e14fbd9749b{fill:none;}.uuid-e04c3ca3-e4e4-4bf6-a02f-3d15df4c52d8{fill:#151515;}</style></defs><g id="uuid-0d55eba1-772b-4fcc-8508-5a90574e6e30"><rect class="uuid-fb26a3bf-7ed1-4efe-81eb-9e14fbd9749b" width="32" height="32"/></g><g id="uuid-12846738-a2c1-4176-b6af-c5e801196913"><path class="uuid-e04c3ca3-e4e4-4bf6-a02f-3d15df4c52d8" d="M28.5,2H3.5c-.82715,0-1.5.67285-1.5,1.5v25c0,.82715.67285,1.5,1.5,1.5h25c.82715,0,1.5-.67285,1.5-1.5V3.5c0-.82715-.67285-1.5-1.5-1.5ZM25.125,23.5c0,.896-.72852,1.625-1.625,1.625h-10.5c-.62109,0-1.125-.50391-1.125-1.125s.50391-1.125,1.125-1.125h8.28369l-11.07959-11.07959c-.43848-.43945-.43848-1.15137,0-1.59082.43945-.43945,1.15234-.43945,1.5918,0l11.0791,11.0791v-8.28369c0-.62109.50391-1.125,1.125-1.125s1.125.50391,1.125,1.125v10.5Z"/></g></svg>