<?xml version="1.0" encoding="UTF-8"?><svg xmlns="http://www.w3.org/2000/svg" width="32" height="32" viewBox="0 0 32 32"><defs><style>.uuid-2f9a7a09-b171-4d16-9456-042f6fa0b1e6{fill:none;}.uuid-4b920290-ed1b-49bb-8db4-885677d46536{fill:#151515;}</style></defs><g id="uuid-91da7ce7-6065-4419-bf9f-158eb18c141d"><rect class="uuid-2f9a7a09-b171-4d16-9456-042f6fa0b1e6" width="32" height="32"/></g><g id="uuid-fc8a67d6-bcd0-4d19-93c7-35504e60bbcf"><path class="uuid-4b920290-ed1b-49bb-8db4-885677d46536" d="M28.5,2H3.5c-.82715,0-1.5.67285-1.5,1.5v25c0,.82715.67285,1.5,1.5,1.5h7.5c.55273,0,1-.44775,1-1s-.44727-1-1-1h-7V4h24v7c0,.55225.44727,1,1,1s1-.44775,1-1V3.5c0-.82715-.67285-1.5-1.5-1.5Z"/><path class="uuid-4b920290-ed1b-49bb-8db4-885677d46536" d="M29,17c-.55273,0-1,.44775-1,1v8.58594l-13.29297-13.29297c-.39062-.39062-1.02344-.39062-1.41406,0s-.39062,1.02344,0,1.41406l13.29297,13.29297h-8.58594c-.55273,0-1,.44775-1,1s.44727,1,1,1h10.5c.82715,0,1.5-.67285,1.5-1.5v-10.5c0-.55225-.44727-1-1-1Z"/></g></svg>