<?xml version="1.0" encoding="UTF-8"?><svg xmlns="http://www.w3.org/2000/svg" viewBox="0 0 32 32"><defs><style>.uuid-c3510b0d-8010-43e6-ad7f-e56af4e8d99e{fill:none;}.uuid-c3510b0d-8010-43e6-ad7f-e56af4e8d99e,.uuid-dd3cb4bd-a9ae-47f0-9329-d7156e8da286{stroke-width:0px;}.uuid-dd3cb4bd-a9ae-47f0-9329-d7156e8da286{fill:#151515;}</style></defs><g id="uuid-02c09628-55eb-4272-ae62-43d3ef8196fc"><rect class="uuid-c3510b0d-8010-43e6-ad7f-e56af4e8d99e" width="32" height="32"/></g><g id="uuid-7e9caa73-32df-4415-a6c9-4c09299c9da6"><path class="uuid-dd3cb4bd-a9ae-47f0-9329-d7156e8da286" d="M29.5,1H2.5c-.8271,0-1.5.6729-1.5,1.5v27c0,.8271.6729,1.5,1.5,1.5h27c.8271,0,1.5-.6729,1.5-1.5V2.5c0-.8271-.6729-1.5-1.5-1.5ZM26.125,24.5c0,.8965-.7285,1.625-1.625,1.625h-10.5c-.6211,0-1.125-.5039-1.125-1.125s.5039-1.125,1.125-1.125h8.2832l-14.0791-14.0791c-.4385-.4395-.4385-1.1523,0-1.5918.4395-.4395,1.1523-.4395,1.5918,0l14.0791,14.0791v-8.2832c0-.6211.5039-1.125,1.125-1.125s1.125.5039,1.125,1.125v10.5Z"/></g></svg>