<?xml version="1.0" encoding="UTF-8"?><svg xmlns="http://www.w3.org/2000/svg" width="32" height="32" viewBox="0 0 32 32"><defs><style>.uuid-6488994a-bbb9-42de-933d-897e380c3d62{fill:none;}.uuid-573d384e-fc7f-448f-aee9-68d85c06fcd8{fill:#151515;}</style></defs><g id="uuid-f9b5ab6f-34f1-4d4f-9403-e45b1e49f59c"><rect class="uuid-6488994a-bbb9-42de-933d-897e380c3d62" width="32" height="32"/></g><g id="uuid-6444b58e-5457-476f-a956-8e3ab2d0212a"><path class="uuid-573d384e-fc7f-448f-aee9-68d85c06fcd8" d="M29,20c-.55273,0-1,.44775-1,1v7H4V4h7c.55273,0,1-.44775,1-1s-.44727-1-1-1H3.5c-.82715,0-1.5.67285-1.5,1.5v25c0,.82715.67285,1.5,1.5,1.5h25c.82715,0,1.5-.67285,1.5-1.5v-7.5c0-.55225-.44727-1-1-1Z"/><path class="uuid-573d384e-fc7f-448f-aee9-68d85c06fcd8" d="M28.5,2h-10.5c-.55273,0-1,.44775-1,1s.44727,1,1,1h8.58594l-13.29297,13.29297c-.39062.39062-.39062,1.02344,0,1.41406.19531.19531.45117.29297.70703.29297s.51172-.09766.70703-.29297l13.29297-13.29297v8.58594c0,.55225.44727,1,1,1s1-.44775,1-1V3.5c0-.82715-.67285-1.5-1.5-1.5Z"/></g></svg>