<?xml version="1.0" encoding="UTF-8"?><svg xmlns="http://www.w3.org/2000/svg" viewBox="0 0 32 32"><defs><style>.uuid-b9a4e06e-2ee4-4dc1-a078-2ad4cbc220d0{fill:none;}.uuid-b9a4e06e-2ee4-4dc1-a078-2ad4cbc220d0,.uuid-8a36e0ea-5d23-4536-8799-0152983f0d44{stroke-width:0px;}.uuid-8a36e0ea-5d23-4536-8799-0152983f0d44{fill:#151515;}</style></defs><g id="uuid-055a4e31-2e95-4b1b-ab30-07668125d81e"><rect class="uuid-b9a4e06e-2ee4-4dc1-a078-2ad4cbc220d0" x="0" width="32" height="32"/></g><g id="uuid-84408a78-9d7f-4c5b-8827-3618b842dc58"><path class="uuid-8a36e0ea-5d23-4536-8799-0152983f0d44" d="M29.5,1h-10.5c-.5522,0-1,.4478-1,1s.4478,1,1,1h8.5859l-14.293,14.293c-.3906.3906-.3906,1.0234,0,1.4141.1953.1953.4512.293.707.293s.5117-.0977.707-.293l14.293-14.293v8.5859c0,.5522.4478,1,1,1s1-.4478,1-1V2.5c0-.8271-.6729-1.5-1.5-1.5Z"/><path class="uuid-8a36e0ea-5d23-4536-8799-0152983f0d44" d="M30,19c-.5522,0-1,.4478-1,1v9H3V3h9c.5522,0,1-.4478,1-1s-.4478-1-1-1H2.5c-.8271,0-1.5.6729-1.5,1.5v27c0,.8271.6729,1.5,1.5,1.5h27c.8271,0,1.5-.6729,1.5-1.5v-9.5c0-.5522-.4478-1-1-1Z"/></g></svg>