<svg xmlns="http://www.w3.org/2000/svg" viewBox="0 0 32 32">
  <defs>
    <style>
      .uuid-8a36e0ea-5d23-4536-8799-0152983f0d44{stroke-width:0;fill:#151515}
    </style>
  </defs>
  <path d="M0 0h32v32H0z" id="uuid-055a4e31-2e95-4b1b-ab30-07668125d81e" stroke-width="0" fill="none"/>
  <g id="uuid-84408a78-9d7f-4c5b-8827-3618b842dc58">
    <path class="uuid-8a36e0ea-5d23-4536-8799-0152983f0d44" d="M29.5 1H19a1 1 0 0 0 0 2h8.586L13.293 17.293a1 1 0 1 0 1.414 1.414L29 4.414V13a1 1 0 0 0 2 0V2.5c0-.827-.673-1.5-1.5-1.5Z"/>
    <path class="uuid-8a36e0ea-5d23-4536-8799-0152983f0d44" d="M30 19a1 1 0 0 0-1 1v9H3V3h9a1 1 0 0 0 0-2H2.5C1.673 1 1 1.673 1 2.5v27c0 .827.673 1.5 1.5 1.5h27c.827 0 1.5-.673 1.5-1.5V20a1 1 0 0 0-1-1Z"/>
  </g>
</svg>
