<?xml version="1.0" encoding="UTF-8"?><svg xmlns="http://www.w3.org/2000/svg" width="32" height="32" viewBox="0 0 32 32"><defs><style>.uuid-78034b24-6b1d-44ac-a092-cdf9cdc41bef{fill:none;}.uuid-8605087e-06b1-4a2e-bd22-b28fec966b5e{fill:#151515;}</style></defs><g id="uuid-1c2c25a9-58ca-4507-8074-647f5ed3ddcc"><rect class="uuid-78034b24-6b1d-44ac-a092-cdf9cdc41bef" width="32" height="32"/></g><g id="uuid-ddfbe663-ccfe-4710-8750-ffb88956ad7c"><path class="uuid-8605087e-06b1-4a2e-bd22-b28fec966b5e" d="M28.5,2H3.5c-.82715,0-1.5.67285-1.5,1.5v25c0,.82715.67285,1.5,1.5,1.5h25c.82715,0,1.5-.67285,1.5-1.5V3.5c0-.82715-.67285-1.5-1.5-1.5ZM25.125,19c0,.62109-.50391,1.125-1.125,1.125s-1.125-.50391-1.125-1.125v-8.28369l-11.0791,11.0791c-.21973.21973-.50781.32959-.7959.32959s-.57617-.10986-.7959-.32959c-.43848-.43945-.43848-1.15137,0-1.59082l11.07959-11.07959h-8.28369c-.62109,0-1.125-.50391-1.125-1.125s.50391-1.125,1.125-1.125h10.5c.89648,0,1.625.729,1.625,1.625v10.5Z"/></g></svg>