<?xml version="1.0" encoding="UTF-8"?><svg xmlns="http://www.w3.org/2000/svg" width="32" height="32" viewBox="0 0 32 32"><defs><style>.uuid-747f0115-f451-4375-ada1-40621621adf5{fill:none;}.uuid-284a2921-eabe-4405-ac9b-c0ea2edf2458{fill:#151515;}</style></defs><g id="uuid-95b2e132-202e-4d25-a024-9d12f6e7cd0e"><rect class="uuid-747f0115-f451-4375-ada1-40621621adf5" width="32" height="32"/></g><g id="uuid-a6ae7c5e-0475-4155-93b9-0e0b1259323f"><path class="uuid-284a2921-eabe-4405-ac9b-c0ea2edf2458" d="M28.5,2H3.5c-.82715,0-1.5.67285-1.5,1.5v3.5c0,.26514.10547.51953.29297.70703l9.70703,9.70703v12.58594c0,.32129.1543.62305.41504.81104.17285.12451.37793.18896.58496.18896.10645,0,.21289-.01709.31641-.05127l6-2c.4082-.13623.68359-.51807.68359-.94873v-10.58594l9.70703-9.70703c.1875-.1875.29297-.44189.29297-.70703v-3.5c0-.82715-.67285-1.5-1.5-1.5ZM28,6.58594l-9.70703,9.70703c-.1875.1875-.29297.44189-.29297.70703v10.2793l-4,1.3335v-11.61279c0-.26514-.10547-.51953-.29297-.70703L4,6.58594v-2.58594h24v2.58594Z"/></g></svg>