<?xml version="1.0" encoding="UTF-8"?><svg xmlns="http://www.w3.org/2000/svg" width="32" height="32" viewBox="0 0 32 32"><defs><style>.uuid-892b3198-2d4e-41cb-b319-241e2d711915{fill:none;}.uuid-5bd8e8c9-419c-4faf-88ea-5296532d392a{fill:#151515;}</style></defs><g id="uuid-9b9b09f1-1cb7-4f7a-a11e-1769a51f4b2a"><rect class="uuid-892b3198-2d4e-41cb-b319-241e2d711915" width="32" height="32"/></g><g id="uuid-0d91e922-cc74-4097-b840-b14b55d9ddf5"><path class="uuid-5bd8e8c9-419c-4faf-88ea-5296532d392a" d="M28.5,2.125H3.5c-.75781,0-1.375.6167-1.375,1.375v3.5c0,.23193.0918.45459.25586.61865l9.74414,9.74365v12.6377c0,.28125.13477.54541.36328.70996.15137.1084.33008.16504.51172.16504.09277,0,.18652-.01465.27637-.04492l6-2c.35742-.11914.59863-.45361.59863-.83008v-10.6377l9.74414-9.74365c.16406-.16406.25586-.38672.25586-.61865v-3.5c0-.7583-.61719-1.375-1.375-1.375Z"/></g></svg>