<?xml version="1.0" encoding="UTF-8"?><svg xmlns="http://www.w3.org/2000/svg" viewBox="0 0 32 32"><defs><style>.uuid-7ffda4f3-5e79-41c1-bbdf-fd7ae511aa25{fill:none;}.uuid-7ffda4f3-5e79-41c1-bbdf-fd7ae511aa25,.uuid-8f446e31-cf51-4fb7-a7bc-1660ac0ab681{stroke-width:0px;}.uuid-8f446e31-cf51-4fb7-a7bc-1660ac0ab681{fill:#151515;}</style></defs><g id="uuid-ec418ccb-6cc7-4e88-b351-71b25954c153"><rect class="uuid-7ffda4f3-5e79-41c1-bbdf-fd7ae511aa25" width="32" height="32"/></g><g id="uuid-9012adc2-51e1-4986-9d2c-20cd34dde358"><path class="uuid-8f446e31-cf51-4fb7-a7bc-1660ac0ab681" d="M29.5,1.25H2.5c-.6895,0-1.25.5605-1.25,1.25v4.5c0,.1992.0791.3896.2197.5303l10.7803,10.7803v12.0723c0,.3779.1689.7324.4629.9707.2256.1826.502.2793.7861.2793.0859,0,.1738-.0088.2607-.0273l4.999-1.0635c.5742-.1211.9912-.6348.9912-1.2227v-11.0088l10.7803-10.7803c.1406-.1406.2197-.3311.2197-.5303V2.5c0-.6895-.5605-1.25-1.25-1.25Z"/></g></svg>