<?xml version="1.0" encoding="UTF-8"?><svg xmlns="http://www.w3.org/2000/svg" width="32" height="32" viewBox="0 0 32 32"><defs><style>.uuid-8289f1cc-1256-41fb-b055-b7a61d20de6e{fill:none;}.uuid-6523e265-669c-4978-b0da-55ffe2d038f3{fill:#151515;}</style></defs><g id="uuid-cdf97831-5bfc-4508-9671-3e856097cea9"><rect class="uuid-8289f1cc-1256-41fb-b055-b7a61d20de6e" width="32" height="32"/></g><g id="uuid-9f694dfc-cdc3-4a67-bf9e-9f41bea63365"><path class="uuid-6523e265-669c-4978-b0da-55ffe2d038f3" d="M25,23h-3.00195c-1.65332,0-2.99805-1.34473-2.99805-2.99805v-4.00195c0-.88184-.38525-1.71484-1.05762-2.28613-.6709-.57129-1.56104-.81641-2.43896-.67383-1.42725.23242-2.50342,1.55176-2.50342,3.06738v.89258c0,.55273.44775,1,1,1s1-.44727,1-1v-.89258c0-.53809.3623-1.01758.82471-1.09277.30518-.05078.59473.03027.82227.22266.22461.19043.35303.46875.35303.7627v4.00195c0,2.75586,2.24219,4.99805,4.99805,4.99805h3.00195c.55225,0,1-.44727,1-1s-.44775-1-1-1Z"/><path class="uuid-6523e265-669c-4978-b0da-55ffe2d038f3" d="M22,27h-2c-2.75684,0-5-2.24316-5-5,0-.55273-.44775-1-1-1s-1,.44727-1,1c0,3.85938,3.14014,7,7,7h2c.55225,0,1-.44727,1-1s-.44775-1-1-1Z"/><path class="uuid-6523e265-669c-4978-b0da-55ffe2d038f3" d="M25,18c-1.10303,0-2-.89746-2-2,0-3.85938-3.14014-7-7-7s-7,3.14062-7,7v4c0,.55273.44775,1,1,1s1-.44727,1-1v-4c0-2.75684,2.24316-5,5-5s5,2.24316,5,5c0,2.20605,1.79443,4,4,4,.55225,0,1-.44727,1-1s-.44775-1-1-1Z"/><path class="uuid-6523e265-669c-4978-b0da-55ffe2d038f3" d="M16,5c-1.74805,0-3.43213.36719-5.00635,1.0918-.50195.23047-.72119.82422-.49023,1.32617s.82568.72266,1.32617.49023c1.31006-.60254,2.71338-.9082,4.17041-.9082,4.82764,0,8.96436,3.44043,9.83545,8.18066.08838.48242.50879.81934.98242.81934.05957,0,.12061-.00488.18164-.0166.54346-.09961.90283-.62109.80273-1.16406-1.04541-5.68945-6.00928-9.81934-11.80225-9.81934Z"/><path class="uuid-6523e265-669c-4978-b0da-55ffe2d038f3" d="M6.6543,11.10938c-.49219-.25098-1.09424-.05566-1.3457.43555-.86816,1.69922-1.30859,3.53418-1.30859,5.45508,0,.36719.0166.73145.04883,1.08984.04736.51953.4834.91016.99512.91016.02979,0,.06055-.00098.09131-.00391.5498-.0498.95557-.53613.90576-1.08594-.02734-.2998-.04102-.60352-.04102-.91016,0-1.60059.3667-3.12988,1.08984-4.54492.25098-.49219.05615-1.09375-.43555-1.3457Z"/><path class="uuid-6523e265-669c-4978-b0da-55ffe2d038f3" d="M4.81934,8c.2749,0,.54785-.1123.74561-.33301,2.65479-2.96582,6.4585-4.66699,10.43506-4.66699,1.60156,0,3.17139.26758,4.66699.7959.51758.18262,1.0918-.08789,1.27588-.60938.18408-.52051-.08887-1.0918-.60986-1.27539-1.70947-.60449-3.50391-.91113-5.33301-.91113-4.54492,0-8.8916,1.94336-11.92529,5.33301-.36816.41113-.3335,1.04395.07812,1.41211.19092.1709.4292.25488.6665.25488Z"/><path class="uuid-6523e265-669c-4978-b0da-55ffe2d038f3" d="M13.50049,29.13477c-1.54248-.89258-2.50049-2.55176-2.50049-4.33203,0-.55273-.44775-1-1-1s-1,.44727-1,1c0,2.49121,1.34082,4.81445,3.49951,6.0625.15771.0918.32959.13477.49951.13477.34521,0,.68115-.17871.8667-.49902.27637-.47852.11279-1.08984-.36523-1.36621Z"/></g></svg>