<?xml version="1.0" encoding="UTF-8"?><svg xmlns="http://www.w3.org/2000/svg" viewBox="0 0 32 32"><defs><style>.uuid-12ac4134-c2cc-428f-987c-9cf323b40c40{fill:none;}.uuid-12ac4134-c2cc-428f-987c-9cf323b40c40,.uuid-56d2e836-4c33-4e2a-a4bd-72d48c655ad8{stroke-width:0px;}.uuid-56d2e836-4c33-4e2a-a4bd-72d48c655ad8{fill:#151515;}</style></defs><g id="uuid-1f6cba65-6f5a-4db1-a7ec-13eb01a6b712"><rect class="uuid-12ac4134-c2cc-428f-987c-9cf323b40c40" x="0" width="32" height="32"/></g><g id="uuid-19b16741-1177-471f-a025-a9cda3ab2717"><path class="uuid-56d2e836-4c33-4e2a-a4bd-72d48c655ad8" d="M29.5,8h-1.6904l-.6816-3.208c-.0986-.4619-.5068-.792-.9785-.792h-9.2988c-.4717,0-.8799.3301-.9785.792l-.6816,3.208h-7.6904c-.8271,0-1.5.6729-1.5,1.5v16.5h-3V9c0-.5527-.4473-1-1-1s-1,.4473-1,1v17.5c0,.8271.6729,1.5,1.5,1.5h27c.8271,0,1.5-.6729,1.5-1.5V9.5c0-.8271-.6729-1.5-1.5-1.5Z"/></g></svg>