<?xml version="1.0" encoding="UTF-8"?><svg xmlns="http://www.w3.org/2000/svg" width="32" height="32" viewBox="0 0 32 32"><defs><style>.uuid-4b38dd32-aac4-4ab4-b2a4-64eaf099e605{fill:none;}.uuid-200c088f-d684-40dd-a353-ae2573a52649{fill:#151515;}</style></defs><g id="uuid-b76437c0-08ad-4f77-b958-8082321fb018"><rect class="uuid-4b38dd32-aac4-4ab4-b2a4-64eaf099e605" width="32" height="32"/></g><g id="uuid-3ac95a30-4dbf-4893-810b-c36d95304bf8"><path class="uuid-200c088f-d684-40dd-a353-ae2573a52649" d="M30.77734,12.27148c-.19043-.23438-.47559-.37109-.77734-.37109H5.83984c-.45117,0-.84668.30176-.96484.7373l-1.875,6.88483v-9.52252h3c.47266,0,.87988-.33008.97852-.79199l.68066-3.20801h7.68164l.68066,3.20801c.09863.46191.50586.79199.97852.79199h11c.55273,0,1-.44727,1-1s-.44727-1-1-1h-10.19043l-.68066-3.20801c-.09863-.46191-.50586-.79199-.97852-.79199H6.84961c-.47266,0-.87988.33008-.97852.79199l-.68066,3.20801h-2.69043c-.82715,0-1.5.67285-1.5,1.5v17.5c0,.03821.01758.07062.02173.10773.00629.05756.01733.11005.03345.16565.02563.08826.06183.16718.10925.24347.01758.02869.02008.06354.04065.09058.01227.01605.03247.02234.04559.03748.06586.07654.14441.13556.23041.18927.03516.02191.06354.05078.10114.06812.12799.05945.26727.09772.41779.09772h25c.47168,0,.87988-.33008.97852-.79199l3-14.09961c.0625-.29492-.01172-.60254-.20117-.83691ZM26.19043,26H3.30859l3.29492-12.09961h22.16113l-2.57422,12.09961Z"/></g></svg>