<?xml version="1.0" encoding="UTF-8"?><svg xmlns="http://www.w3.org/2000/svg" width="32" height="32" viewBox="0 0 32 32"><defs><style>.uuid-ad74edf9-f53f-47ba-b1e5-4707a2cc70bd{fill:none;}.uuid-972987a7-8134-4d1b-852a-dde07848ff98{fill:#151515;}</style></defs><g id="uuid-48d504b7-ea18-4e0e-bd36-50c1e91be890"><rect class="uuid-ad74edf9-f53f-47ba-b1e5-4707a2cc70bd" width="32" height="32"/></g><g id="uuid-a49bb1a3-16fe-4bc4-9b83-b3e8f07d5c6a"><path class="uuid-972987a7-8134-4d1b-852a-dde07848ff98" d="M26,22.5v-14c0-.82715-.67285-1.5-1.5-1.5h-7.84082l-.68066-3.20801c-.09863-.46191-.50586-.79199-.97852-.79199H6.84961c-.47266,0-.87988.33008-.97852.79199l-.68066,3.20801h-2.69043c-.82715,0-1.5.67285-1.5,1.5v14c0,.82715.67285,1.5,1.5,1.5h22c.82715,0,1.5-.67285,1.5-1.5ZM24,22H3v-13h3c.47266,0,.87988-.33008.97852-.79199l.68066-3.20801h6.53125l.68066,3.20801c.09863.46191.50586.79199.97852.79199h8.15039v13Z"/><path class="uuid-972987a7-8134-4d1b-852a-dde07848ff98" d="M30,10c-.55273,0-1,.44727-1,1v16H5c-.55273,0-1,.44727-1,1s.44727,1,1,1h24.5c.82715,0,1.5-.67285,1.5-1.5V11c0-.55273-.44727-1-1-1Z"/></g></svg>