<?xml version="1.0" encoding="UTF-8"?><svg xmlns="http://www.w3.org/2000/svg" viewBox="0 0 32 32"><defs><style>.uuid-aa15dbe4-3e96-4179-a7a8-00df8644c618{fill:none;}.uuid-aa15dbe4-3e96-4179-a7a8-00df8644c618,.uuid-2729104c-85d6-46fa-ae99-9c83b8ddb8e3{stroke-width:0px;}.uuid-2729104c-85d6-46fa-ae99-9c83b8ddb8e3{fill:#151515;}</style></defs><g id="uuid-f36b7973-e11b-4fe8-a2a7-c30eac5ed893"><rect class="uuid-aa15dbe4-3e96-4179-a7a8-00df8644c618" width="32" height="32"/></g><g id="uuid-ed6559f2-7192-42af-a1f1-aba499f18e88"><path class="uuid-2729104c-85d6-46fa-ae99-9c83b8ddb8e3" d="M29.5,8h-1.6904l-.6816-3.208c-.0986-.4619-.5068-.792-.9785-.792h-9.2988c-.4717,0-.8799.3301-.9785.792l-.6816,3.208h-7.6904c-.8271,0-1.5.6729-1.5,1.5v12.5c0,.5522.4473,1,1,1s1-.4478,1-1v-12h8c.4717,0,.8799-.3301.9785-.792l.6816-3.208h7.6797l.6816,3.208c.0986.4619.5068.792.9785.792h2v16H3V9c0-.5522-.4473-1-1-1s-1,.4478-1,1v17.5c0,.8271.6729,1.5,1.5,1.5h27c.8271,0,1.5-.6729,1.5-1.5V9.5c0-.8271-.6729-1.5-1.5-1.5Z"/></g></svg>