<?xml version="1.0" encoding="UTF-8"?><svg xmlns="http://www.w3.org/2000/svg" width="32" height="32" viewBox="0 0 32 32"><defs><style>.uuid-32891bd6-dd7f-4f96-82b6-7f358b28aaa8{fill:none;}.uuid-1f75f387-5524-4a49-93ac-28f311cb8894{fill:#151515;}</style></defs><g id="uuid-6fcc6cdf-5018-4a0b-a403-9f753fc6b6f7"><rect class="uuid-32891bd6-dd7f-4f96-82b6-7f358b28aaa8" width="32" height="32"/></g><g id="uuid-4690b870-b9f0-4e53-8959-68901a462e88"><path class="uuid-1f75f387-5524-4a49-93ac-28f311cb8894" d="M26,22.5v-14c0-.82715-.67285-1.5-1.5-1.5h-7.84082l-.68066-3.20801c-.09863-.46191-.50586-.79199-.97852-.79199H6.84961c-.47266,0-.87988.33008-.97852.79199l-.68066,3.20801h-2.69043c-.82715,0-1.5.67285-1.5,1.5v14c0,.82715.67285,1.5,1.5,1.5h22c.82715,0,1.5-.67285,1.5-1.5Z"/><path class="uuid-1f75f387-5524-4a49-93ac-28f311cb8894" d="M30,10c-.55273,0-1,.44727-1,1v16H5c-.55273,0-1,.44727-1,1s.44727,1,1,1h24.5c.82715,0,1.5-.67285,1.5-1.5V11c0-.55273-.44727-1-1-1Z"/></g></svg>