<?xml version="1.0" encoding="UTF-8"?><svg xmlns="http://www.w3.org/2000/svg" width="32" height="32" viewBox="0 0 32 32"><defs><style>.uuid-b69450d0-f5ee-4757-a518-f3cc88c20b1f{fill:none;}.uuid-6c0aa4a3-5eea-4e0c-9f03-cf006bd75ca7{fill:#151515;}</style></defs><g id="uuid-f0d83bcc-8ec2-4060-9b32-baf633f3fe00"><rect class="uuid-b69450d0-f5ee-4757-a518-f3cc88c20b1f" width="32" height="32"/></g><g id="uuid-ae4f963f-9be2-42fd-8394-bd9c4a7aca66"><path class="uuid-6c0aa4a3-5eea-4e0c-9f03-cf006bd75ca7" d="M29.35352,9.93945l-7.64648-7.64648c-.39062-.39062-1.02344-.39062-1.41406,0s-.39062,1.02344,0,1.41406l6.29297,6.29297h-13.58594c-6.06543,0-11,4.93457-11,11v8c0,.55225.44775,1,1,1s1-.44775,1-1v-8c0-4.9624,4.0376-9,9-9h13.58594l-6.29297,6.29297c-.39062.39062-.39062,1.02344,0,1.41406.19531.19531.45117.29297.70703.29297s.51172-.09766.70703-.29297l7.64648-7.64648c.2832-.2832.43945-.66016.43945-1.06055s-.15625-.77734-.43945-1.06055Z"/></g></svg>