<?xml version="1.0" encoding="UTF-8"?><svg xmlns="http://www.w3.org/2000/svg" viewBox="0 0 32 32"><defs><style>.uuid-a5062e73-b921-46ab-b92c-23b4c4db7400{fill:none;}.uuid-a5062e73-b921-46ab-b92c-23b4c4db7400,.uuid-65600759-0c43-4ed4-b320-9c1ed329ee08{stroke-width:0px;}.uuid-65600759-0c43-4ed4-b320-9c1ed329ee08{fill:#151515;}</style></defs><g id="uuid-88e60bdb-3037-4741-bfc6-9281708759f8"><rect class="uuid-a5062e73-b921-46ab-b92c-23b4c4db7400" width="32" height="32"/></g><g id="uuid-a31b8a2f-4cf2-4825-b43c-c005e9104b6c"><path class="uuid-65600759-0c43-4ed4-b320-9c1ed329ee08" d="M30.3535,9.9395L21.707,1.293c-.3906-.3906-1.0234-.3906-1.4141,0s-.3906,1.0234,0,1.4141l7.293,7.293h-15.5859c-6.0654,0-11,4.9346-11,11v9c0,.5522.4473,1,1,1s1-.4478,1-1v-9c0-4.9624,4.0371-9,9-9h15.5859l-7.293,7.293c-.3906.3906-.3906,1.0234,0,1.4141.1953.1953.4512.293.707.293s.5117-.0977.707-.293l8.6465-8.6465c.585-.585.585-1.5361,0-2.1211Z"/></g></svg>