<?xml version="1.0" encoding="UTF-8"?><svg xmlns="http://www.w3.org/2000/svg" width="32" height="32" viewBox="0 0 32 32"><defs><style>.uuid-0a2bc369-28d6-4e9e-9cbe-21c6a6f264ce{fill:none;}.uuid-3bfd481e-6286-453a-a06b-9c68b3cf267e{fill:#151515;}</style></defs><g id="uuid-139a6f4a-a5d0-4693-a005-16608492a1c4"><rect class="uuid-0a2bc369-28d6-4e9e-9cbe-21c6a6f264ce" width="32" height="32"/></g><g id="uuid-f8629f4d-9485-4114-9dd6-6ea4f2efba3a"><path class="uuid-3bfd481e-6286-453a-a06b-9c68b3cf267e" d="M28,8h-2.10107c-.12988-.63715-.38434-1.22852-.73193-1.75293l1.54004-1.54004c.39062-.39062.39062-1.02344,0-1.41406s-1.02344-.39062-1.41406,0l-1.54004,1.54004c-.52441-.3476-1.11578-.60205-1.75293-.73193v-2.10107c0-.55273-.44775-1-1-1s-1,.44727-1,1v2.10107c-.63715.12988-1.22852.38434-1.75293.73193l-1.54004-1.54004c-.39062-.39062-1.02344-.39062-1.41406,0s-.39062,1.02344,0,1.41406l1.54004,1.54004c-.3476.52441-.60205,1.11578-.73193,1.75293h-2.10107c-.55225,0-1,.44727-1,1s.44775,1,1,1h2.10107c.12988.63715.38434,1.22852.73193,1.75293l-1.54004,1.54004c-.39062.39062-.39062,1.02344,0,1.41406.19531.19531.45117.29297.70703.29297s.51172-.09766.70703-.29297l1.54004-1.54004c.52441.3476,1.11578.60205,1.75293.73193v2.10107c0,.55273.44775,1,1,1s1-.44727,1-1v-2.10107c.63715-.12988,1.22852-.38434,1.75293-.73193l1.54004,1.54004c.19531.19531.45117.29297.70703.29297s.51172-.09766.70703-.29297c.39062-.39062.39062-1.02344,0-1.41406l-1.54004-1.54004c.3476-.52441.60205-1.11578.73193-1.75293h2.10107c.55225,0,1-.44727,1-1s-.44775-1-1-1ZM21,12c-1.6543,0-3-1.3457-3-3s1.3457-3,3-3,3,1.3457,3,3-1.3457,3-3,3Z"/><path class="uuid-3bfd481e-6286-453a-a06b-9c68b3cf267e" d="M18,22h-2.10107c-.12988-.63715-.38434-1.22852-.73193-1.75293l1.54004-1.54004c.39062-.39062.39062-1.02344,0-1.41406s-1.02344-.39062-1.41406,0l-1.54004,1.54004c-.52441-.3476-1.11578-.60205-1.75293-.73193v-2.10107c0-.55273-.44775-1-1-1s-1,.44727-1,1v2.10107c-.63715.12988-1.22852.38434-1.75293.73193l-1.54004-1.54004c-.39062-.39062-1.02344-.39062-1.41406,0s-.39062,1.02344,0,1.41406l1.54004,1.54004c-.3476.52441-.60205,1.11578-.73193,1.75293h-2.10107c-.55225,0-1,.44727-1,1s.44775,1,1,1h2.10107c.12988.63715.38434,1.22852.73193,1.75293l-1.54004,1.54004c-.39062.39062-.39062,1.02344,0,1.41406.19531.19531.45117.29297.70703.29297s.51172-.09766.70703-.29297l1.54004-1.54004c.52441.3476,1.11578.60205,1.75293.73193v2.10107c0,.55273.44775,1,1,1s1-.44727,1-1v-2.10107c.63715-.12988,1.22852-.38434,1.75293-.73193l1.54004,1.54004c.19531.19531.45117.29297.70703.29297s.51172-.09766.70703-.29297c.39062-.39062.39062-1.02344,0-1.41406l-1.54004-1.54004c.3476-.52441.60205-1.11578.73193-1.75293h2.10107c.55225,0,1-.44727,1-1s-.44775-1-1-1ZM11,26c-1.6543,0-3-1.3457-3-3s1.3457-3,3-3,3,1.3457,3,3-1.3457,3-3,3Z"/></g></svg>