<svg xmlns="http://www.w3.org/2000/svg" viewBox="0 0 16 16">
  <path d="M14.4 6.8c0-.2-.3-.4-.5-.4h-1.3c-.1-.2-.1-.3-.2-.5l.9-.9c.2-.2.2-.4.1-.6-.5-.7-1-1.2-1.7-1.7-.2-.1-.5-.1-.6.1l-.9.9c-.2-.2-.4-.3-.5-.3V2.1c0-.2-.2-.4-.4-.5-.8-.2-1.6-.2-2.4 0-.2 0-.4.2-.4.5v1.3c-.3 0-.4.1-.6.2L5 2.7c-.2-.2-.4-.2-.6-.1-.7.5-1.2 1-1.7 1.7-.2.2-.2.5 0 .6l.9.9c-.1.2-.2.4-.2.6H2.1c-.2 0-.4.2-.5.4-.1.4-.1.8-.1 1.2 0 .4 0 .8.1 1.2 0 .2.3.4.5.4h1.3c.1.2.1.4.2.5l-.9.9c-.2.2-.2.4-.1.6.5.7 1 1.2 1.7 1.7.2.1.5.1.6-.1l.9-.9c.2.1.4.2.5.2v1.3c0 .2.2.4.4.5.4.1.8.1 1.2.1.4 0 .8 0 1.2-.1.2 0 .4-.3.4-.5v-1.3c.2-.1.3-.1.5-.2l.9.9c.2.2.4.2.6.1.7-.5 1.2-1 1.7-1.7.1-.2.1-.5-.1-.6l-.9-.9c.1-.2.1-.3.2-.5h1.3c.2 0 .4-.2.5-.4.1-.4.1-.8.1-1.2.2-.4.2-.8.1-1.2zm-.9 1.8h-1.2c-.2 0-.4.2-.5.4-.1.3-.2.7-.4 1-.1.2-.1.4.1.6l.9.9c-.3.3-.5.6-.9.9l-.8-.8c-.2-.2-.4-.2-.6-.1-.3.2-.6.3-1 .4-.2.1-.4.3-.4.5v1.2c-.4 0-.8.1-1.2 0v-1.2c0-.2-.2-.4-.4-.5-.4-.1-.7-.2-1-.4-.2-.1-.4-.1-.6.1l-.9.9c-.3-.3-.6-.5-.9-.9l.8-.8c.2-.2.2-.4.1-.6-.1-.5-.3-.9-.4-1.2 0-.2-.2-.4-.5-.4H2.5V7.4h1.2c.3 0 .5-.2.5-.4.1-.4.2-.7.4-1 .1-.2.1-.4-.1-.6l-.8-.9c.3-.3.6-.6.9-.8l.9.9c.1.1.4.1.5 0 .3-.2.6-.3 1-.4.3 0 .4-.2.4-.5V2.5h1.2v1.2c.1.3.2.5.4.5.3.1.7.2 1 .4.2.1.4.1.6-.1l.8-.8c.3.3.6.5.9.9l-.9.9c-.2.2-.2.4-.1.6.2.3.3.6.4 1 .1.2.3.4.5.4h1.2v.6c.1.1.1.3.1.5zm-5.4-3C6.8 5.6 5.7 6.7 5.7 8s1.1 2.4 2.4 2.4 2.4-1.1 2.4-2.4-1.1-2.4-2.4-2.4zm0 3.8c-.8 0-1.4-.6-1.4-1.4s.6-1.4 1.4-1.4 1.4.6 1.4 1.4-.6 1.4-1.4 1.4z"/>
</svg>
