<?xml version="1.0" encoding="utf-8"?>
<!-- Generator: Adobe Illustrator 24.1.2, SVG Export Plug-In . SVG Version: 6.00 Build 0)  -->
<svg version="1.1" id="Icons" xmlns="http://www.w3.org/2000/svg" xmlns:xlink="http://www.w3.org/1999/xlink" x="0px" y="0px"
	 viewBox="0 0 16 16" style="enable-background:new 0 0 16 16;" xml:space="preserve">
<style type="text/css">
	.st0{fill:#FFFFFF;}
	.st1{fill:#EE0000;}
</style>
<path d="M14.4,6.8c0-0.2-0.3-0.4-0.5-0.4h-1.3c-0.1-0.2-0.1-0.3-0.2-0.5L13.3,5c0.2-0.2,0.2-0.4,0.1-0.6c-0.5-0.7-1-1.2-1.7-1.7
	c-0.2-0.1-0.5-0.1-0.6,0.1l-0.9,0.9C10,3.5,9.8,3.4,9.7,3.4V2.1c0-0.2-0.2-0.4-0.4-0.5c-0.8-0.2-1.6-0.2-2.4,0
	c-0.2,0-0.4,0.2-0.4,0.5v1.3C6.2,3.4,6.1,3.5,5.9,3.6L5,2.7C4.8,2.5,4.6,2.5,4.4,2.6c-0.7,0.5-1.2,1-1.7,1.7
	C2.5,4.5,2.5,4.8,2.7,4.9l0.9,0.9C3.5,6,3.4,6.2,3.4,6.4H2.1c-0.2,0-0.4,0.2-0.5,0.4C1.5,7.2,1.5,7.6,1.5,8c0,0.4,0,0.8,0.1,1.2
	c0,0.2,0.3,0.4,0.5,0.4h1.3c0.1,0.2,0.1,0.4,0.2,0.5l-0.9,0.9c-0.2,0.2-0.2,0.4-0.1,0.6c0.5,0.7,1,1.2,1.7,1.7
	c0.2,0.1,0.5,0.1,0.6-0.1l0.9-0.9c0.2,0.1,0.4,0.2,0.5,0.2v1.3c0,0.2,0.2,0.4,0.4,0.5c0.4,0.1,0.8,0.1,1.2,0.1c0.4,0,0.8,0,1.2-0.1
	c0.2,0,0.4-0.3,0.4-0.5v-1.3c0.2-0.1,0.3-0.1,0.5-0.2l0.9,0.9c0.2,0.2,0.4,0.2,0.6,0.1c0.7-0.5,1.2-1,1.7-1.7
	c0.1-0.2,0.1-0.5-0.1-0.6l-0.9-0.9c0.1-0.2,0.1-0.3,0.2-0.5h1.3c0.2,0,0.4-0.2,0.5-0.4c0.1-0.4,0.1-0.8,0.1-1.2
	C14.5,7.6,14.5,7.2,14.4,6.8z M13.5,8.6h-1.2c-0.2,0-0.4,0.2-0.5,0.4c-0.1,0.3-0.2,0.7-0.4,1c-0.1,0.2-0.1,0.4,0.1,0.6l0.9,0.9
	c-0.3,0.3-0.5,0.6-0.9,0.9l-0.8-0.8c-0.2-0.2-0.4-0.2-0.6-0.1c-0.3,0.2-0.6,0.3-1,0.4c-0.2,0.1-0.4,0.3-0.4,0.5v1.2
	c-0.4,0-0.8,0.1-1.2,0v-1.2c0-0.2-0.2-0.4-0.4-0.5c-0.4-0.1-0.7-0.2-1-0.4c-0.2-0.1-0.4-0.1-0.6,0.1l-0.9,0.9
	c-0.3-0.3-0.6-0.5-0.9-0.9l0.8-0.8c0.2-0.2,0.2-0.4,0.1-0.6C4.5,9.7,4.3,9.3,4.2,9C4.2,8.8,4,8.6,3.7,8.6H2.5c0-0.2,0-0.4,0-0.6
	c0-0.2,0-0.4,0-0.6h1.2C4,7.4,4.2,7.2,4.2,7c0.1-0.4,0.2-0.7,0.4-1c0.1-0.2,0.1-0.4-0.1-0.6L3.7,4.5C4,4.2,4.3,3.9,4.6,3.7l0.9,0.9
	C5.6,4.7,5.9,4.7,6,4.6c0.3-0.2,0.6-0.3,1-0.4C7.3,4.2,7.4,4,7.4,3.7V2.5c0.4,0,0.8,0,1.2,0v1.2C8.7,4,8.8,4.2,9,4.2
	c0.3,0.1,0.7,0.2,1,0.4c0.2,0.1,0.4,0.1,0.6-0.1l0.8-0.8c0.3,0.3,0.6,0.5,0.9,0.9l-0.9,0.9c-0.2,0.2-0.2,0.4-0.1,0.6
	c0.2,0.3,0.3,0.6,0.4,1c0.1,0.2,0.3,0.4,0.5,0.4h1.2c0,0.2,0,0.4,0,0.6C13.5,8.2,13.5,8.4,13.5,8.6z M8.1,5.6C6.8,5.6,5.7,6.7,5.7,8
	s1.1,2.4,2.4,2.4s2.4-1.1,2.4-2.4S9.4,5.6,8.1,5.6z M8.1,9.4C7.3,9.4,6.7,8.8,6.7,8s0.6-1.4,1.4-1.4S9.5,7.2,9.5,8S8.9,9.4,8.1,9.4z
	"/>
</svg>
