<svg xmlns="http://www.w3.org/2000/svg" viewBox="0 0 16 16">
  <path d="M14.1 6.8c0-.1-.1-.2-.2-.2h-1.4c-.1-.3-.2-.5-.3-.8l1-1c.1-.1.1-.2 0-.3-.4-.6-1-1.2-1.6-1.6-.1-.1-.2-.1-.3 0l-1 1-.9-.3V2.1c0-.1-.1-.2-.2-.2-.8-.1-1.5-.2-2.3 0-.1 0-.2.1-.2.2v1.4c-.3.1-.6.2-.9.4l-1-1c-.1-.1-.2-.1-.3 0-.6.4-1.2 1-1.6 1.6-.1.1-.1.2 0 .3l1 1c-.1.3-.3.5-.3.8H2.1c-.1 0-.2.1-.2.2-.1.4-.2.8-.2 1.2s0 .8.1 1.2c0 .1.1.2.2.2h1.4c.1.3.2.6.4.8l-1 1c-.1.1-.1.2 0 .3.4.6 1 1.2 1.6 1.6.1.1.2.1.3 0l1-1c.3.1.5.3.8.3v1.4c0 .1.1.2.2.2.4.1.8.1 1.1.1.4 0 .8 0 1.2-.1.1 0 .2-.1.2-.2v-1.5c.3-.1.6-.2.8-.3l1 1c.1.1.2.1.3 0 .6-.4 1.2-1 1.6-1.6.1-.1.1-.2 0-.3l-1-1c.1-.3.2-.5.3-.8h1.4c.1 0 .2-.1.2-.2.1-.4.1-.8.1-1.2s.3-.7.2-1.1zm-6 3.1C7 9.9 6.2 9.1 6.2 8c0-1.1.9-1.9 1.9-1.9 1.1 0 1.9.8 1.9 1.9 0 1.1-.8 1.9-1.9 1.9z"/>
</svg>
