<?xml version="1.0" encoding="utf-8"?>
<!-- Generator: Adobe Illustrator 24.1.2, SVG Export Plug-In . SVG Version: 6.00 Build 0)  -->
<svg version="1.1" id="Icons" xmlns="http://www.w3.org/2000/svg" xmlns:xlink="http://www.w3.org/1999/xlink" x="0px" y="0px"
	 viewBox="0 0 16 16" style="enable-background:new 0 0 16 16;" xml:space="preserve">
<style type="text/css">
	.st0{fill:#FFFFFF;}
	.st1{fill:#EE0000;}
</style>
<path d="M14.1,6.8c0-0.1-0.1-0.2-0.2-0.2h-1.4c-0.1-0.3-0.2-0.5-0.3-0.8l1-1c0.1-0.1,0.1-0.2,0-0.3c-0.4-0.6-1-1.2-1.6-1.6
	c-0.1-0.1-0.2-0.1-0.3,0l-1,1C10,3.8,9.7,3.7,9.4,3.6V2.1c0-0.1-0.1-0.2-0.2-0.2c-0.8-0.1-1.5-0.2-2.3,0C6.8,1.9,6.7,2,6.7,2.1v1.4
	C6.4,3.6,6.1,3.7,5.8,3.9l-1-1c-0.1-0.1-0.2-0.1-0.3,0c-0.6,0.4-1.2,1-1.6,1.6c-0.1,0.1-0.1,0.2,0,0.3l1,1C3.8,6.1,3.6,6.3,3.6,6.6
	H2.1C2,6.6,1.9,6.7,1.9,6.8C1.8,7.2,1.7,7.6,1.7,8s0,0.8,0.1,1.2c0,0.1,0.1,0.2,0.2,0.2h1.4c0.1,0.3,0.2,0.6,0.4,0.8l-1,1
	c-0.1,0.1-0.1,0.2,0,0.3c0.4,0.6,1,1.2,1.6,1.6c0.1,0.1,0.2,0.1,0.3,0l1-1c0.3,0.1,0.5,0.3,0.8,0.3v1.4c0,0.1,0.1,0.2,0.2,0.2
	c0.4,0.1,0.8,0.1,1.1,0.1c0.4,0,0.8,0,1.2-0.1c0.1,0,0.2-0.1,0.2-0.2v-1.5c0.3-0.1,0.6-0.2,0.8-0.3l1,1c0.1,0.1,0.2,0.1,0.3,0
	c0.6-0.4,1.2-1,1.6-1.6c0.1-0.1,0.1-0.2,0-0.3l-1-1c0.1-0.3,0.2-0.5,0.3-0.8h1.4c0.1,0,0.2-0.1,0.2-0.2c0.1-0.4,0.1-0.8,0.1-1.2
	S14.2,7.2,14.1,6.8z M8.1,9.9C7,9.9,6.2,9.1,6.2,8c0-1.1,0.9-1.9,1.9-1.9C9.2,6.1,10,6.9,10,8C10,9.1,9.2,9.9,8.1,9.9z"/>
</svg>
