<svg xmlns="http://www.w3.org/2000/svg" viewBox="0 0 16 16">
  <path d="M12.24 3.76A6 6 0 1 0 8 14a6 6 0 0 0 4.24-10.24Zm-.71.71a5 5 0 0 1 .86 1.2h-2a8.74 8.74 0 0 0-1.25-2.52 4.93 4.93 0 0 1 2.39 1.32Zm-2 4.86H6.44a7.43 7.43 0 0 1 0-2.66h3.11a7.43 7.43 0 0 1 0 2.66Zm-.24-3.66H6.7A7.56 7.56 0 0 1 8 3.29a7.39 7.39 0 0 1 1.29 2.38Zm-4.83-1.2a4.93 4.93 0 0 1 2.39-1.32 8.74 8.74 0 0 0-1.21 2.52h-2a5 5 0 0 1 .82-1.2ZM3 8a4.93 4.93 0 0 1 .2-1.34h2.23a8.48 8.48 0 0 0 0 2.66H3.19A5.33 5.33 0 0 1 3 8Zm1.46 3.53a4.89 4.89 0 0 1-.87-1.21h2.05a8.3 8.3 0 0 0 1.21 2.53 4.93 4.93 0 0 1-2.39-1.31ZM8 12.72a7.44 7.44 0 0 1-1.3-2.39h2.6A7.28 7.28 0 0 1 8 12.72Zm3.54-1.18a4.93 4.93 0 0 1-2.39 1.32 8.3 8.3 0 0 0 1.21-2.53h2a4.78 4.78 0 0 1-.83 1.21Zm-1-2.21a8.48 8.48 0 0 0 0-2.66h2.23a5 5 0 0 1 0 2.66Z"/>
</svg>
