<svg id="Icons" xmlns="http://www.w3.org/2000/svg" viewBox="0 0 16 16"><title>UI_Icon-Red_Hat-Globe-A-Black-RGB</title><path d="M12.24,3.76A6,6,0,1,0,8,14H8A6,6,0,0,0,12.24,3.76Zm-.71.71a5,5,0,0,1,.86,1.2h-2A8.74,8.74,0,0,0,9.14,3.15,4.93,4.93,0,0,1,11.53,4.47Zm-2,4.86H6.44a7.43,7.43,0,0,1,0-2.66H9.55A7.43,7.43,0,0,1,9.55,9.33ZM9.29,5.67H6.7A7.56,7.56,0,0,1,8,3.29,7.39,7.39,0,0,1,9.29,5.67ZM4.46,4.47A4.93,4.93,0,0,1,6.85,3.15,8.74,8.74,0,0,0,5.64,5.67h-2A5,5,0,0,1,4.46,4.47ZM3,8a4.93,4.93,0,0,1,.2-1.34H5.43a8.48,8.48,0,0,0,0,2.66H3.19A5.33,5.33,0,0,1,3,8Zm1.46,3.53a4.89,4.89,0,0,1-.87-1.21H5.64a8.3,8.3,0,0,0,1.21,2.53A4.93,4.93,0,0,1,4.46,11.54ZM8,12.72a7.44,7.44,0,0,1-1.3-2.39H9.3A7.28,7.28,0,0,1,8,12.72Zm3.54-1.18a4.93,4.93,0,0,1-2.39,1.32,8.3,8.3,0,0,0,1.21-2.53h2A4.78,4.78,0,0,1,11.53,11.54Zm-1-2.21a8.48,8.48,0,0,0,0-2.66h2.23a5,5,0,0,1,0,2.66Z"/></svg>