<?xml version="1.0" encoding="UTF-8"?><svg xmlns="http://www.w3.org/2000/svg" viewBox="0 0 32 32"><defs><style>.uuid-545291e3-6505-4234-8135-79211e1194b3{fill:none;}.uuid-545291e3-6505-4234-8135-79211e1194b3,.uuid-dd25f352-a0df-414c-bbe9-d504bcadceb2{stroke-width:0px;}.uuid-dd25f352-a0df-414c-bbe9-d504bcadceb2{fill:#151515;}</style></defs><g id="uuid-3386884a-d665-4bf8-9ba7-7afd301b9f28"><rect class="uuid-545291e3-6505-4234-8135-79211e1194b3" x="0" width="32" height="32"/></g><g id="uuid-f21d666a-9a39-4bf9-877a-227d7b23793d"><path class="uuid-dd25f352-a0df-414c-bbe9-d504bcadceb2" d="M2,9h28c.4746,0,.8843-.334.9795-.7988.0957-.4648-.1494-.9336-.5854-1.1201L16.394,1.0811c-.252-.1074-.5361-.1074-.7881,0L1.606,7.0811c-.436.1865-.6812.6553-.5854,1.1201.0952.4648.5049.7988.9795.7988Z"/><path class="uuid-dd25f352-a0df-414c-bbe9-d504bcadceb2" d="M3,25c0,.5527.4478,1,1,1h24c.5522,0,1-.4473,1-1s-.4478-1-1-1H4c-.5522,0-1,.4473-1,1Z"/><path class="uuid-dd25f352-a0df-414c-bbe9-d504bcadceb2" d="M30,29H2c-.5522,0-1,.4473-1,1s.4478,1,1,1h28c.5522,0,1-.4473,1-1s-.4478-1-1-1Z"/><path class="uuid-dd25f352-a0df-414c-bbe9-d504bcadceb2" d="M20,20v-7c0-.5527-.4478-1-1-1s-1,.4473-1,1v7c0,.5527.4478,1,1,1s1-.4473,1-1Z"/><path class="uuid-dd25f352-a0df-414c-bbe9-d504bcadceb2" d="M26,20v-7c0-.5527-.4478-1-1-1s-1,.4473-1,1v7c0,.5527.4478,1,1,1s1-.4473,1-1Z"/><path class="uuid-dd25f352-a0df-414c-bbe9-d504bcadceb2" d="M8,20v-7c0-.5527-.4478-1-1-1s-1,.4473-1,1v7c0,.5527.4478,1,1,1s1-.4473,1-1Z"/><path class="uuid-dd25f352-a0df-414c-bbe9-d504bcadceb2" d="M14,20v-7c0-.5527-.4478-1-1-1s-1,.4473-1,1v7c0,.5527.4478,1,1,1s1-.4473,1-1Z"/></g></svg>