<?xml version="1.0" encoding="UTF-8"?><svg xmlns="http://www.w3.org/2000/svg" viewBox="0 0 32 32"><defs><style>.uuid-7d70193b-cb37-4d87-a9f3-7570dbffdda9{fill:none;}.uuid-7d70193b-cb37-4d87-a9f3-7570dbffdda9,.uuid-3ce72fcc-450f-4ac2-ab67-cd4c441fb3a4{stroke-width:0px;}.uuid-3ce72fcc-450f-4ac2-ab67-cd4c441fb3a4{fill:#151515;}</style></defs><g id="uuid-f94a5227-f4d9-4ff2-8af9-f1e4e9143d3c"><rect class="uuid-7d70193b-cb37-4d87-a9f3-7570dbffdda9" width="32" height="32"/></g><g id="uuid-233c9dd3-5e1f-4dfd-ba09-5f53fe60afcf"><path class="uuid-3ce72fcc-450f-4ac2-ab67-cd4c441fb3a4" d="M2,9h28c.4746,0,.8838-.334.9795-.7988.0957-.4653-.1494-.9331-.5859-1.1201L16.3936,1.0811c-.25-.1084-.5371-.1084-.7871,0L1.6064,7.0811c-.4365.187-.6816.6548-.5859,1.1201.0957.4648.5049.7988.9795.7988ZM16,3.0879l9.1279,3.9121H6.8721l9.1279-3.9121Z"/><path class="uuid-3ce72fcc-450f-4ac2-ab67-cd4c441fb3a4" d="M3,25c0,.5522.4473,1,1,1h24c.5527,0,1-.4478,1-1s-.4473-1-1-1H4c-.5527,0-1,.4478-1,1Z"/><path class="uuid-3ce72fcc-450f-4ac2-ab67-cd4c441fb3a4" d="M30,29H2c-.5527,0-1,.4478-1,1s.4473,1,1,1h28c.5527,0,1-.4478,1-1s-.4473-1-1-1Z"/><path class="uuid-3ce72fcc-450f-4ac2-ab67-cd4c441fb3a4" d="M20,20v-7c0-.5522-.4473-1-1-1s-1,.4478-1,1v7c0,.5522.4473,1,1,1s1-.4478,1-1Z"/><path class="uuid-3ce72fcc-450f-4ac2-ab67-cd4c441fb3a4" d="M26,20v-7c0-.5522-.4473-1-1-1s-1,.4478-1,1v7c0,.5522.4473,1,1,1s1-.4478,1-1Z"/><path class="uuid-3ce72fcc-450f-4ac2-ab67-cd4c441fb3a4" d="M8,20v-7c0-.5522-.4473-1-1-1s-1,.4478-1,1v7c0,.5522.4473,1,1,1s1-.4478,1-1Z"/><path class="uuid-3ce72fcc-450f-4ac2-ab67-cd4c441fb3a4" d="M14,20v-7c0-.5522-.4473-1-1-1s-1,.4478-1,1v7c0,.5522.4473,1,1,1s1-.4478,1-1Z"/></g></svg>