<?xml version="1.0" encoding="UTF-8"?><svg xmlns="http://www.w3.org/2000/svg" width="32" height="32" viewBox="0 0 32 32"><defs><style>.uuid-068e9244-9135-42a5-8093-ab5fcc41725e{fill:none;}.uuid-81ef6810-51d6-4f70-8c49-7b4b0891089e{fill:#151515;}</style></defs><g id="uuid-756ae482-404f-4908-b6e8-f8a004d0614b"><rect class="uuid-068e9244-9135-42a5-8093-ab5fcc41725e" width="32" height="32"/></g><g id="uuid-b4471960-9834-4584-882c-78595328d0ec"><path class="uuid-81ef6810-51d6-4f70-8c49-7b4b0891089e" d="M29,28H3c-.55225,0-1,.44775-1,1s.44775,1,1,1h26c.55225,0,1-.44775,1-1s-.44775-1-1-1Z"/><path class="uuid-81ef6810-51d6-4f70-8c49-7b4b0891089e" d="M4,24c0,.55225.44775,1,1,1h22c.55225,0,1-.44775,1-1s-.44775-1-1-1H5c-.55225,0-1,.44775-1,1Z"/><path class="uuid-81ef6810-51d6-4f70-8c49-7b4b0891089e" d="M8,20v-7c0-.55225-.44775-1-1-1s-1,.44775-1,1v7c0,.55225.44775,1,1,1s1-.44775,1-1Z"/><path class="uuid-81ef6810-51d6-4f70-8c49-7b4b0891089e" d="M14,20v-7c0-.55225-.44775-1-1-1s-1,.44775-1,1v7c0,.55225.44775,1,1,1s1-.44775,1-1Z"/><path class="uuid-81ef6810-51d6-4f70-8c49-7b4b0891089e" d="M20,20v-7c0-.55225-.44775-1-1-1s-1,.44775-1,1v7c0,.55225.44775,1,1,1s1-.44775,1-1Z"/><path class="uuid-81ef6810-51d6-4f70-8c49-7b4b0891089e" d="M26,20v-7c0-.55225-.44775-1-1-1s-1,.44775-1,1v7c0,.55225.44775,1,1,1s1-.44775,1-1Z"/><path class="uuid-81ef6810-51d6-4f70-8c49-7b4b0891089e" d="M3,10h26c.46973,0,.87598-.32666.97656-.78564.10107-.4585-.13086-.92529-.55762-1.12256l-12.78906-5.90234c-.39941-.18506-.85791-.18506-1.2583-.00098L2.58105,8.0918c-.42676.19727-.65869.66406-.55762,1.12256.10059.45898.50684.78564.97656.78564ZM16,4.10156l8.44727,3.89844H7.55273l8.44727-3.89844Z"/></g></svg>