<?xml version="1.0" encoding="UTF-8"?><svg xmlns="http://www.w3.org/2000/svg" width="32" height="32" viewBox="0 0 32 32"><defs><style>.uuid-91c2063d-f15e-490a-bfa0-ff2feb44a528{fill:none;}.uuid-24de1e27-09c8-4ead-b6a1-d08dd0202f9a{fill:#151515;}</style></defs><g id="uuid-0b01d922-b47d-4fe0-8bd4-eb3a5ee523a5"><rect class="uuid-91c2063d-f15e-490a-bfa0-ff2feb44a528" width="32" height="32"/></g><g id="uuid-bfcf7cae-e8c4-41d6-b4e8-a72040050a2a"><path class="uuid-24de1e27-09c8-4ead-b6a1-d08dd0202f9a" d="M29,28H3c-.55225,0-1,.44775-1,1s.44775,1,1,1h26c.55225,0,1-.44775,1-1s-.44775-1-1-1Z"/><path class="uuid-24de1e27-09c8-4ead-b6a1-d08dd0202f9a" d="M4,24c0,.55225.44775,1,1,1h22c.55225,0,1-.44775,1-1s-.44775-1-1-1H5c-.55225,0-1,.44775-1,1Z"/><path class="uuid-24de1e27-09c8-4ead-b6a1-d08dd0202f9a" d="M8,20v-7c0-.55225-.44775-1-1-1s-1,.44775-1,1v7c0,.55225.44775,1,1,1s1-.44775,1-1Z"/><path class="uuid-24de1e27-09c8-4ead-b6a1-d08dd0202f9a" d="M14,20v-7c0-.55225-.44775-1-1-1s-1,.44775-1,1v7c0,.55225.44775,1,1,1s1-.44775,1-1Z"/><path class="uuid-24de1e27-09c8-4ead-b6a1-d08dd0202f9a" d="M20,20v-7c0-.55225-.44775-1-1-1s-1,.44775-1,1v7c0,.55225.44775,1,1,1s1-.44775,1-1Z"/><path class="uuid-24de1e27-09c8-4ead-b6a1-d08dd0202f9a" d="M26,20v-7c0-.55225-.44775-1-1-1s-1,.44775-1,1v7c0,.55225.44775,1,1,1s1-.44775,1-1Z"/><path class="uuid-24de1e27-09c8-4ead-b6a1-d08dd0202f9a" d="M3,10h26c.46973,0,.87598-.32666.97656-.78564.10107-.4585-.13086-.92529-.55762-1.12256l-13-6c-.26562-.12207-.57227-.12207-.83789,0L2.58105,8.0918c-.42676.19727-.65869.66406-.55762,1.12256.10059.45898.50684.78564.97656.78564Z"/></g></svg>