<?xml version="1.0" encoding="UTF-8"?><svg xmlns="http://www.w3.org/2000/svg" width="32" height="32" viewBox="0 0 32 32"><defs><style>.uuid-0c76de95-0eec-43d6-9f02-742443ef7165{fill:none;}.uuid-07a4ac43-3641-447d-b1be-17314691728d{fill:#151515;}</style></defs><g id="uuid-a87d8f35-4ef3-430d-96bd-728f8df0461a"><rect class="uuid-0c76de95-0eec-43d6-9f02-742443ef7165" width="32" height="32"/></g><g id="uuid-d022dc48-3be9-474a-a430-ace1b54d66a1"><path class="uuid-07a4ac43-3641-447d-b1be-17314691728d" d="M30.53906,11.20752L16.53906,3.125c-.30957-.17871-.69043-.17871-1,0L1.53906,11.20752c-.30957.17871-.5.50879-.5.86621s.19043.6875.5.86621l3.47211,2.00464c-.0011.01935-.01117.03577-.01117.05542v5.22998c0,.35742.19092.6875.5.86621l10,5.77002c.15479.08936.32764.13379.5.13379s.34473-.04443.49951-.13379l9-5.18994c.30957-.17871.50049-.50879.50049-.86621v-5.24945l4.53906-2.62067c.30957-.17871.5-.50879.5-.86621s-.19043-.6875-.5-.86621ZM24,20.23242l-8,4.61328-9-5.19336v-3.55951l8.53906,4.93011c.15479.08936.32715.13379.5.13379s.34521-.04443.5-.13379l7.46094-4.30762v3.51709ZM16.03906,19.00195l-12-6.92822,12-6.92773,4.91547,2.83777-5.45453,3.15051c-.47852.27588-.64209.8877-.36572,1.36572.18506.3208.521.5.8667.5.16943,0,.3418-.04297.49902-.13428l6.45392-3.72772,5.08514,2.93573-12,6.92822Z"/><path class="uuid-07a4ac43-3641-447d-b1be-17314691728d" d="M29,16c-.55225,0-1,.44775-1,1v11c0,.55225.44775,1,1,1s1-.44775,1-1v-11c0-.55225-.44775-1-1-1Z"/></g></svg>