<?xml version="1.0" encoding="UTF-8"?><svg xmlns="http://www.w3.org/2000/svg" viewBox="0 0 32 32"><defs><style>.uuid-625b9c79-4bc9-4d40-a18f-644db76d0303{fill:none;}.uuid-625b9c79-4bc9-4d40-a18f-644db76d0303,.uuid-53d3aff8-4d29-43e1-94fe-ee10ff9ce71e{stroke-width:0px;}.uuid-53d3aff8-4d29-43e1-94fe-ee10ff9ce71e{fill:#151515;}</style></defs><g id="uuid-6653f850-50c6-4da1-a475-f9dbc2a0f363"><rect class="uuid-625b9c79-4bc9-4d40-a18f-644db76d0303" x="0" width="32" height="32"/></g><g id="uuid-967ff4ea-3028-4f23-8fd3-8ad35f3bacc0"><path class="uuid-53d3aff8-4d29-43e1-94fe-ee10ff9ce71e" d="M15.5,20.1787c.1284,0,.2568-.0332.3721-.0986l13.5-7.7148c.2339-.1338.3779-.3818.3779-.6514s-.144-.5176-.3779-.6514l-5.3586-3.0619-8.0173,4.5814c-.1562.0898-.3271.1318-.4951.1318-.3472,0-.6846-.1807-.8691-.5039-.2739-.4795-.1074-1.0898.3721-1.3643l6.9941-3.9967-6.1259-3.5004c-.2305-.1309-.5137-.1309-.7441,0L1.6279,11.0625c-.2339.1338-.3779.3818-.3779.6514s.144.5176.3779.6514l13.5,7.7148c.1152.0654.2437.0986.3721.0986Z"/><path class="uuid-53d3aff8-4d29-43e1-94fe-ee10ff9ce71e" d="M24.7681,17.2676l-9.2681,5.2969-9.2681-5.2969c-.2324-.1318-.5181-.1318-.7485.0029-.2314.1338-.3735.3809-.3735.6484v3.0811c0,.2695.144.5176.3779.6514l9.6401,5.5098c.1152.0654.2437.0986.3721.0986s.2568-.0332.3721-.0986l9.6401-5.5098c.2339-.1338.3779-.3818.3779-.6514v-3.0811c0-.2676-.1421-.5146-.3735-.6484-.2305-.1338-.5161-.1338-.7485-.0029Z"/><path class="uuid-53d3aff8-4d29-43e1-94fe-ee10ff9ce71e" d="M29,15c-.5522,0-1,.4473-1,1v11c0,.5527.4478,1,1,1s1-.4473,1-1v-11c0-.5527-.4478-1-1-1Z"/></g></svg>