<?xml version="1.0" encoding="UTF-8"?><svg xmlns="http://www.w3.org/2000/svg" viewBox="0 0 32 32"><defs><style>.uuid-42ec3725-ddd0-4d22-bea0-760058917bea{fill:none;}.uuid-42ec3725-ddd0-4d22-bea0-760058917bea,.uuid-e3dcd261-e4c4-4087-bda1-9433385de55c{stroke-width:0px;}.uuid-e3dcd261-e4c4-4087-bda1-9433385de55c{fill:#151515;}</style></defs><g id="uuid-d82edcc5-af2e-4553-93d4-e0cef7e2329b"><rect class="uuid-42ec3725-ddd0-4d22-bea0-760058917bea" x="0" width="32" height="32"/></g><g id="uuid-1fbc0303-dc57-46ba-8383-97d51a503067"><path class="uuid-e3dcd261-e4c4-4087-bda1-9433385de55c" d="M29.4927,12.5844c.6549-.3796.6448-1.3474.0033-1.7382,0,0-13.5-7.7144-13.5-7.7144-.3171-.1505-.6751-.1525-.9922,0,0,0-13.5,7.7143-13.5,7.7143-.1379.1053-.2669.2339-.3721.3721-.2367.4731-.1002,1.0987.3754,1.3661,0,0,3.3697,1.9256,3.3697,1.9256-.0034.0335-.0195.0626-.0195.0969v6.3931c.0302.1686.0481.3465.1483.4928.078.1608.223.2653.3556.3759l9.6426,5.5059c.3114.1707.6808.1717.9922,0,0,0,9.6426-5.5058,9.6426-5.5058.1323-.1105.278-.215.3555-.3757.0999-.1463.1186-.3243.1484-.493,0,0,0-6.3931,0-6.3931,0-.0344-.0162-.0634-.0195-.0969l3.3697-1.9256ZM15.5,18.277l-11.4846-6.5627,11.4846-6.5627,4.7345,2.7054-5.2306,2.9891c-.8895.468-.4879,1.9061.4971,1.8681.1679,0,.3388-.0425.4951-.1318l6.2537-3.5738,4.7348,2.7056-11.4846,6.5627ZM24.1426,20.4191l-8.6426,4.9349-8.6426-4.9349v-4.7773l8.1461,4.6549c.1503.0862.3256.1327.4975.1321.1713.0003.3458-.0462.4955-.1321l8.1461-4.6549v4.7773Z"/><path class="uuid-e3dcd261-e4c4-4087-bda1-9433385de55c" d="M29,15c-.5527,0-1,.4478-1,1v11c0,.5522.4473,1,1,1s1-.4478,1-1v-11c0-.5522-.4473-1-1-1Z"/></g></svg>