<?xml version="1.0" encoding="UTF-8"?><svg xmlns="http://www.w3.org/2000/svg" width="32" height="32" viewBox="0 0 32 32"><defs><style>.uuid-3edf7585-2499-4002-9752-64756a13b8b7{fill:none;}.uuid-e6bb2e6e-3c73-4e18-ba59-d6759c6c88b0{fill:#151515;}</style></defs><g id="uuid-6d5ef2fc-11fd-46a1-8a57-39a204849014"><rect class="uuid-3edf7585-2499-4002-9752-64756a13b8b7" width="32" height="32"/></g><g id="uuid-1afa3f48-d108-4183-89df-14dfd4e92123"><path class="uuid-e6bb2e6e-3c73-4e18-ba59-d6759c6c88b0" d="M30.03906,11.20801l-5.21027-3.00824-7.28632,4.20844c-.17725.10254-.37061.15088-.56152.15088-.38867,0-.7666-.20166-.9751-.5625-.31104-.53809-.12646-1.22607.41162-1.53662l6.16187-3.55896-6.04272-3.48889c-.30859-.17627-.68994-.17578-.99756.00146L2.03955,11.20752c-.30859.17822-.50049.50977-.50049.8667,0,.35645.19189.68799.50049.86621l13.49707,7.79199c.15479.09033.32861.13525.50244.13525.17285,0,.3457-.04443.5-.13379l13.5-7.79395c.30859-.17822.5-.50977.5-.86572,0-.35645-.19141-.68799-.5-.86621Z"/><path class="uuid-e6bb2e6e-3c73-4e18-ba59-d6759c6c88b0" d="M29,16c-.55225,0-1,.44775-1,1v11c0,.55225.44775,1,1,1s1-.44775,1-1v-11c0-.55225-.44775-1-1-1Z"/><path class="uuid-e6bb2e6e-3c73-4e18-ba59-d6759c6c88b0" d="M16.03906,22.86768c-.53101,0-1.05334-.14111-1.50238-.4032l-9.52924-5.50134c-.00049.01294-.00745.0238-.00745.03687v4.12402c0,.44336.23828.85742.62549,1.08301l9.74854,5.625c.19336.11133.40967.16748.62646.16748.21582,0,.43164-.05566.62402-.1665l8.75391-5.04785c.3833-.22363.62158-.6377.62158-1.08105v-4.12292l-8.45868,4.88348c-.45532.26367-.97479.40302-1.50226.40302Z"/></g></svg>