<?xml version="1.0" encoding="UTF-8"?><svg xmlns="http://www.w3.org/2000/svg" width="32" height="32" viewBox="0 0 32 32"><defs><style>.uuid-381ecb2e-5013-49f8-a40b-4753a46bf8c0{fill:none;}.uuid-1221ac3a-563b-4974-80f7-3af9182e68d0{fill:#151515;}</style></defs><g id="uuid-198565b4-3399-4d76-8747-157422049464"><rect class="uuid-381ecb2e-5013-49f8-a40b-4753a46bf8c0" width="32" height="32"/></g><g id="uuid-318940c6-b542-4a69-a9da-bf723f1f9b27"><path class="uuid-1221ac3a-563b-4974-80f7-3af9182e68d0" d="M29.75,6h-5.5c-.68945,0-1.25.56055-1.25,1.25v5.5c0,.68945.56055,1.25,1.25,1.25h5.5c.68945,0,1.25-.56055,1.25-1.25v-5.5c0-.68945-.56055-1.25-1.25-1.25ZM29,12h-4v-4h4v4Z"/><path class="uuid-1221ac3a-563b-4974-80f7-3af9182e68d0" d="M29.75,18h-5.5c-.68945,0-1.25.56055-1.25,1.25v5.5c0,.68945.56055,1.25,1.25,1.25h5.5c.68945,0,1.25-.56055,1.25-1.25v-5.5c0-.68945-.56055-1.25-1.25-1.25ZM29,24h-4v-4h4v4Z"/><path class="uuid-1221ac3a-563b-4974-80f7-3af9182e68d0" d="M18.75,6h-5.5c-.68945,0-1.25.56055-1.25,1.25v5.5c0,.68945.56055,1.25,1.25,1.25h5.5c.68945,0,1.25-.56055,1.25-1.25v-5.5c0-.68945-.56055-1.25-1.25-1.25ZM18,12h-4v-4h4v4Z"/><path class="uuid-1221ac3a-563b-4974-80f7-3af9182e68d0" d="M18.75,18h-5.5c-.68945,0-1.25.56055-1.25,1.25v5.5c0,.68945.56055,1.25,1.25,1.25h5.5c.68945,0,1.25-.56055,1.25-1.25v-5.5c0-.68945-.56055-1.25-1.25-1.25ZM18,24h-4v-4h4v4Z"/><path class="uuid-1221ac3a-563b-4974-80f7-3af9182e68d0" d="M7.75,6H2.25c-.68945,0-1.25.56055-1.25,1.25v5.5c0,.68945.56055,1.25,1.25,1.25h5.5c.68945,0,1.25-.56055,1.25-1.25v-5.5c0-.68945-.56055-1.25-1.25-1.25ZM7,12H3v-4h4v4Z"/><path class="uuid-1221ac3a-563b-4974-80f7-3af9182e68d0" d="M7.75,18H2.25c-.68945,0-1.25.56055-1.25,1.25v5.5c0,.68945.56055,1.25,1.25,1.25h5.5c.68945,0,1.25-.56055,1.25-1.25v-5.5c0-.68945-.56055-1.25-1.25-1.25ZM7,24H3v-4h4v4Z"/></g></svg>