<?xml version="1.0" encoding="UTF-8"?><svg xmlns="http://www.w3.org/2000/svg" viewBox="0 0 32 32"><defs><style>.uuid-c69caa0d-e9fd-40da-9b89-72b27bb2d680{fill:none;}.uuid-c69caa0d-e9fd-40da-9b89-72b27bb2d680,.uuid-184ba86e-0693-45d1-957d-a49808da0c83{stroke-width:0px;}.uuid-184ba86e-0693-45d1-957d-a49808da0c83{fill:#151515;}</style></defs><g id="uuid-245be1f2-1f87-4f8b-8e14-13fa2ef9d9ea"><rect class="uuid-c69caa0d-e9fd-40da-9b89-72b27bb2d680" x="0" width="32" height="32"/></g><g id="uuid-6bfd01cc-280e-42fb-9295-dde63717ffe8"><path class="uuid-184ba86e-0693-45d1-957d-a49808da0c83" d="M24.5,0h-5c-.8271,0-1.5.6729-1.5,1.5v5c0,.8271.6729,1.5,1.5,1.5h5c.8271,0,1.5-.6729,1.5-1.5V1.5c0-.8271-.6729-1.5-1.5-1.5ZM24,6h-4V2h4v4Z"/><path class="uuid-184ba86e-0693-45d1-957d-a49808da0c83" d="M24.5,24h-5c-.8271,0-1.5.6729-1.5,1.5v5c0,.8271.6729,1.5,1.5,1.5h5c.8271,0,1.5-.6729,1.5-1.5v-5c0-.8271-.6729-1.5-1.5-1.5ZM24,30h-4v-4h4v4Z"/><path class="uuid-184ba86e-0693-45d1-957d-a49808da0c83" d="M24.5,12h-5c-.8271,0-1.5.6729-1.5,1.5v5c0,.8271.6729,1.5,1.5,1.5h5c.8271,0,1.5-.6729,1.5-1.5v-5c0-.8271-.6729-1.5-1.5-1.5ZM24,18h-4v-4h4v4Z"/><path class="uuid-184ba86e-0693-45d1-957d-a49808da0c83" d="M12.5,0h-5c-.8271,0-1.5.6729-1.5,1.5v5c0,.8271.6729,1.5,1.5,1.5h5c.8271,0,1.5-.6729,1.5-1.5V1.5c0-.8271-.6729-1.5-1.5-1.5ZM12,6h-4V2h4v4Z"/><path class="uuid-184ba86e-0693-45d1-957d-a49808da0c83" d="M12.5,24h-5c-.8271,0-1.5.6729-1.5,1.5v5c0,.8271.6729,1.5,1.5,1.5h5c.8271,0,1.5-.6729,1.5-1.5v-5c0-.8271-.6729-1.5-1.5-1.5ZM12,30h-4v-4h4v4Z"/><path class="uuid-184ba86e-0693-45d1-957d-a49808da0c83" d="M12.5,12h-5c-.8271,0-1.5.6729-1.5,1.5v5c0,.8271.6729,1.5,1.5,1.5h5c.8271,0,1.5-.6729,1.5-1.5v-5c0-.8271-.6729-1.5-1.5-1.5ZM12,18h-4v-4h4v4Z"/></g></svg>