<?xml version="1.0" encoding="UTF-8"?><svg xmlns="http://www.w3.org/2000/svg" viewBox="0 0 32 32"><defs><style>.uuid-e09d92bc-d12d-4038-a1fc-4af1515909be{fill:none;}.uuid-e09d92bc-d12d-4038-a1fc-4af1515909be,.uuid-6d7b8c27-55bd-40ca-b21f-d8a644829df2{stroke-width:0px;}.uuid-6d7b8c27-55bd-40ca-b21f-d8a644829df2{fill:#151515;}</style></defs><g id="uuid-d6344a1c-815c-4aa4-b595-6d007bdf337d"><rect class="uuid-e09d92bc-d12d-4038-a1fc-4af1515909be" x="0" width="32" height="32"/></g><g id="uuid-112b58c8-1230-4542-82c2-c943b7efe9a6"><path class="uuid-6d7b8c27-55bd-40ca-b21f-d8a644829df2" d="M6.5,6H1.5c-.8271,0-1.5.6729-1.5,1.5v5c0,.8271.6729,1.5,1.5,1.5h5c.8271,0,1.5-.6729,1.5-1.5v-5c0-.8271-.6729-1.5-1.5-1.5ZM6,12H2v-4h4v4Z"/><path class="uuid-6d7b8c27-55bd-40ca-b21f-d8a644829df2" d="M30.5,6h-5c-.8271,0-1.5.6729-1.5,1.5v5c0,.8271.6729,1.5,1.5,1.5h5c.8271,0,1.5-.6729,1.5-1.5v-5c0-.8271-.6729-1.5-1.5-1.5ZM30,12h-4v-4h4v4Z"/><path class="uuid-6d7b8c27-55bd-40ca-b21f-d8a644829df2" d="M18.5,6h-5c-.8271,0-1.5.6729-1.5,1.5v5c0,.8271.6729,1.5,1.5,1.5h5c.8271,0,1.5-.6729,1.5-1.5v-5c0-.8271-.6729-1.5-1.5-1.5ZM18,12h-4v-4h4v4Z"/><path class="uuid-6d7b8c27-55bd-40ca-b21f-d8a644829df2" d="M6.5,18H1.5c-.8271,0-1.5.6729-1.5,1.5v5c0,.8271.6729,1.5,1.5,1.5h5c.8271,0,1.5-.6729,1.5-1.5v-5c0-.8271-.6729-1.5-1.5-1.5ZM6,24H2v-4h4v4Z"/><path class="uuid-6d7b8c27-55bd-40ca-b21f-d8a644829df2" d="M30.5,18h-5c-.8271,0-1.5.6729-1.5,1.5v5c0,.8271.6729,1.5,1.5,1.5h5c.8271,0,1.5-.6729,1.5-1.5v-5c0-.8271-.6729-1.5-1.5-1.5ZM30,24h-4v-4h4v4Z"/><path class="uuid-6d7b8c27-55bd-40ca-b21f-d8a644829df2" d="M18.5,18h-5c-.8271,0-1.5.6729-1.5,1.5v5c0,.8271.6729,1.5,1.5,1.5h5c.8271,0,1.5-.6729,1.5-1.5v-5c0-.8271-.6729-1.5-1.5-1.5ZM18,24h-4v-4h4v4Z"/></g></svg>