<?xml version="1.0" encoding="UTF-8"?><svg xmlns="http://www.w3.org/2000/svg" width="32" height="32" viewBox="0 0 32 32"><defs><style>.uuid-f374a6fe-db9d-4579-85c9-5fcaa03b7b0e{fill:none;}.uuid-57145afa-facf-42e2-9b43-58f03f82aac7{fill:#151515;}</style></defs><g id="uuid-4f2c5c56-d97a-4d86-b3f7-37ae25fa2ddd"><rect class="uuid-f374a6fe-db9d-4579-85c9-5fcaa03b7b0e" width="32" height="32"/></g><g id="uuid-2a81e770-a7e1-477f-81f0-f9881c07c626"><path class="uuid-57145afa-facf-42e2-9b43-58f03f82aac7" d="M12.75,1h-5.5c-.68945,0-1.25.56055-1.25,1.25v5.5c0,.68945.56055,1.25,1.25,1.25h5.5c.68945,0,1.25-.56055,1.25-1.25V2.25c0-.68945-.56055-1.25-1.25-1.25ZM12,7h-4V3h4v4Z"/><path class="uuid-57145afa-facf-42e2-9b43-58f03f82aac7" d="M24.75,1h-5.5c-.68945,0-1.25.56055-1.25,1.25v5.5c0,.68945.56055,1.25,1.25,1.25h5.5c.68945,0,1.25-.56055,1.25-1.25V2.25c0-.68945-.56055-1.25-1.25-1.25ZM24,7h-4V3h4v4Z"/><path class="uuid-57145afa-facf-42e2-9b43-58f03f82aac7" d="M12.75,12h-5.5c-.68945,0-1.25.56055-1.25,1.25v5.5c0,.68945.56055,1.25,1.25,1.25h5.5c.68945,0,1.25-.56055,1.25-1.25v-5.5c0-.68945-.56055-1.25-1.25-1.25ZM12,18h-4v-4h4v4Z"/><path class="uuid-57145afa-facf-42e2-9b43-58f03f82aac7" d="M24.75,12h-5.5c-.68945,0-1.25.56055-1.25,1.25v5.5c0,.68945.56055,1.25,1.25,1.25h5.5c.68945,0,1.25-.56055,1.25-1.25v-5.5c0-.68945-.56055-1.25-1.25-1.25ZM24,18h-4v-4h4v4Z"/><path class="uuid-57145afa-facf-42e2-9b43-58f03f82aac7" d="M12.75,23h-5.5c-.68945,0-1.25.56055-1.25,1.25v5.5c0,.68945.56055,1.25,1.25,1.25h5.5c.68945,0,1.25-.56055,1.25-1.25v-5.5c0-.68945-.56055-1.25-1.25-1.25ZM12,29h-4v-4h4v4Z"/><path class="uuid-57145afa-facf-42e2-9b43-58f03f82aac7" d="M24.75,23h-5.5c-.68945,0-1.25.56055-1.25,1.25v5.5c0,.68945.56055,1.25,1.25,1.25h5.5c.68945,0,1.25-.56055,1.25-1.25v-5.5c0-.68945-.56055-1.25-1.25-1.25ZM24,29h-4v-4h4v4Z"/></g></svg>