<?xml version="1.0" encoding="UTF-8"?><svg xmlns="http://www.w3.org/2000/svg" width="32" height="32" viewBox="0 0 32 32"><defs><style>.uuid-d34f82cc-756c-4560-bbdf-c30a74b5619b{fill:none;}.uuid-8d21d7bb-33a5-4f06-a5c9-056df8838cc8{fill:#151515;}</style></defs><g id="uuid-b41e5721-6854-4099-8dbc-34a931815710"><rect class="uuid-d34f82cc-756c-4560-bbdf-c30a74b5619b" width="32" height="32"/></g><g id="uuid-a1d3d5a8-4dd8-47ee-9c13-93d7e430cd59"><circle class="uuid-8d21d7bb-33a5-4f06-a5c9-056df8838cc8" cx="16" cy="16.01489" r="1.625"/><path class="uuid-8d21d7bb-33a5-4f06-a5c9-056df8838cc8" d="M27.5,1H4.5c-.82715,0-1.5.67285-1.5,1.5v27c0,.82715.67285,1.5,1.5,1.5h23c.82715,0,1.5-.67285,1.5-1.5V2.5c0-.82715-.67285-1.5-1.5-1.5ZM5.12012,5.00098c0-1.03552.83948-1.875,1.875-1.875s1.875.83948,1.875,1.875-.83948,1.875-1.875,1.875-1.875-.83948-1.875-1.875ZM10.41602,26.27734c-.09277.13965-.24902.22266-.41602.22266h-2c-.20215,0-.38477-.12207-.46191-.30859s-.03418-.40234.1084-.54492l3.03009-3.03009c.47089.3797.98492.70563,1.53033.97919l-1.79089,2.68176ZM16,24.5c-1.18451,0-2.31244-.24506-3.33789-.68481l2.17676-3.25952c.30664-.45996.18262-1.08008-.27637-1.3877-.17676-.11719-.38965-.16113-.57227-.16797-.25293.00293-.50488.10059-.69727.29297l-2.99347,2.99347c-1.71454-1.55621-2.7995-3.79431-2.7995-6.28644,0-4.68652,3.81348-8.5,8.5-8.5s8.5,3.81348,8.5,8.5-3.81348,8.5-8.5,8.5ZM25,28.87781c-1.03552,0-1.875-.83948-1.875-1.875s.83948-1.875,1.875-1.875,1.875.83948,1.875,1.875-.83948,1.875-1.875,1.875ZM25.00488,6.87781c-1.03552,0-1.875-.83942-1.875-1.875,0-1.03552.83948-1.875,1.875-1.875s1.875.83948,1.875,1.875c0,1.03558-.83948,1.875-1.875,1.875Z"/></g></svg>