<?xml version="1.0" encoding="UTF-8"?><svg xmlns="http://www.w3.org/2000/svg" width="32" height="32" viewBox="0 0 32 32"><defs><style>.uuid-8fdbf7b0-fc5a-48d3-953d-f6767e95f00f{fill:none;}.uuid-0f1e73f5-2918-4e37-b9f6-371ef11a802e{fill:#151515;}</style></defs><g id="uuid-ef26313d-df09-4bf5-bbd2-85d016df00bf"><rect class="uuid-8fdbf7b0-fc5a-48d3-953d-f6767e95f00f" width="32" height="32"/></g><g id="uuid-b4388c69-9b7f-4935-8bdb-94261bc755a1"><path class="uuid-0f1e73f5-2918-4e37-b9f6-371ef11a802e" d="M27.5,1H4.5c-.82715,0-1.5.67285-1.5,1.5v27c0,.82715.67285,1.5,1.5,1.5h23c.82715,0,1.5-.67285,1.5-1.5V2.5c0-.82715-.67285-1.5-1.5-1.5ZM27,29H5V3h22v26Z"/><path class="uuid-0f1e73f5-2918-4e37-b9f6-371ef11a802e" d="M9.9458,22.64014l-2.65283,2.65283c-.28613.28613-.37207.71582-.2168,1.08984.1543.37402.51953.61719.92383.61719h2c.33398,0,.64648-.16699.83203-.44434l1.54999-2.32098c1.1084.48889,2.33069.76532,3.61798.76532,4.96289,0,9-4.03711,9-9s-4.03711-9-9-9-9,4.03711-9,9c0,2.63031,1.14099,4.9931,2.9458,6.64014ZM16,9c3.85938,0,7,3.14062,7,7s-3.14062,7-7,7c-.87549,0-1.71057-.1687-2.48383-.46368l1.32269-1.98065c.30664-.45996.18262-1.08008-.27637-1.3877-.17676-.11719-.38965-.16113-.57227-.16797-.25293.00293-.50488.10059-.69727.29297l-1.93329,1.93329c-1.4436-1.28326-2.35968-3.14771-2.35968-5.22626,0-3.85938,3.14062-7,7-7Z"/><circle class="uuid-0f1e73f5-2918-4e37-b9f6-371ef11a802e" cx="16" cy="16.01489" r="1.625"/><circle class="uuid-0f1e73f5-2918-4e37-b9f6-371ef11a802e" cx="8" cy="6.00342" r="1.625"/><circle class="uuid-0f1e73f5-2918-4e37-b9f6-371ef11a802e" cx="24" cy="6.01306" r="1.625"/><circle class="uuid-0f1e73f5-2918-4e37-b9f6-371ef11a802e" cx="24" cy="26.00342" r="1.625"/></g></svg>