<?xml version="1.0" encoding="UTF-8"?><svg xmlns="http://www.w3.org/2000/svg" viewBox="0 0 32 32"><defs><style>.uuid-08c10fe3-b793-4e83-88de-03162b0319fa{fill:none;}.uuid-08c10fe3-b793-4e83-88de-03162b0319fa,.uuid-fbf9654f-7f4f-4b6f-a6af-754075a4334a{stroke-width:0px;}.uuid-fbf9654f-7f4f-4b6f-a6af-754075a4334a{fill:#151515;}</style></defs><g id="uuid-6414cb61-06f4-4d90-95af-29cd93aa712c"><rect class="uuid-08c10fe3-b793-4e83-88de-03162b0319fa" x="0" width="32" height="32"/></g><g id="uuid-d89a97b1-2724-401b-ab20-b00a3b41678e"><path class="uuid-fbf9654f-7f4f-4b6f-a6af-754075a4334a" d="M31.5984,19.515c.0479-.2126.0898-.4268.1292-.6425.0545-.2956.0989-.5926.1364-.8911.0214-.1725.046-.3436.0618-.5178.0449-.4855.0742-.9731.0742-1.4636C32,7.1777,24.8223,0,16,0S0,7.1777,0,16s7.1777,16,16,16c7.3726,0,13.5795-5.0196,15.4259-11.8157.061-.2224.1213-.4446.1725-.6693ZM16,30c-7.7197,0-14-6.2803-14-14C2,8.6178,7.7471,2.567,15,2.0507v13.9493c0,.4336.2793.8174.6914.9512l13.2739,4.3098c-2.0846,5.1183-7.1067,8.739-12.9653,8.739Z"/></g></svg>