<?xml version="1.0" encoding="UTF-8"?><svg xmlns="http://www.w3.org/2000/svg" viewBox="0 0 32 32"><defs><style>.uuid-223085b2-9bb9-4a3f-8965-676f5d138367{fill:none;}.uuid-223085b2-9bb9-4a3f-8965-676f5d138367,.uuid-c5f42373-4d41-46ca-ac33-641211044c1c{stroke-width:0px;}.uuid-c5f42373-4d41-46ca-ac33-641211044c1c{fill:#151515;}</style></defs><g id="uuid-900e910b-1932-4e1d-a7f5-254dee4e8801"><rect class="uuid-223085b2-9bb9-4a3f-8965-676f5d138367" x="0" width="32" height="32"/></g><g id="uuid-89b05036-e84c-424f-a236-efd061ea2de0"><path class="uuid-c5f42373-4d41-46ca-ac33-641211044c1c" d="M30.577,9.4388c-.1458-.3265-.2982-.6483-.4639-.9614-.0468-.0874-.0969-.1724-.1452-.2589-.2125-.3842-.4395-.7573-.6809-1.1196-.0153-.0228-.0304-.0456-.0458-.0684-2.0229-3.0027-5.003-5.223-8.4578-6.2986-.0406-.0128-.0823-.0226-.1231-.035-.4144-.1254-.8351-.2333-1.2619-.3253-.1281-.0278-.2568-.0529-.3861-.0777-.3616-.0687-.7269-.1238-1.0959-.1677-.1394-.0167-.2775-.037-.418-.0501-.4948-.0458-.9934-.0759-1.4984-.0759C7.1777,0,0,7.1777,0,16s7.1777,16,16,16,16-7.1777,16-16c0-2.3394-.5168-4.5563-1.423-6.5612ZM16,30c-7.7197,0-14-6.2803-14-14C2,8.6178,7.7471,2.567,15,2.0507v13.9493c0,.3203.1533.6211.4121.8086.1729.126.3794.1914.5879.1914.1035,0,.208-.0156.3086-.0488l13.2676-4.3077c.2667,1.0776.4238,2.1978.4238,3.3566,0,7.7197-6.2803,14-14,14Z"/></g></svg>