<?xml version="1.0" encoding="UTF-8"?><svg xmlns="http://www.w3.org/2000/svg" width="32" height="32" viewBox="0 0 32 32"><defs><style>.uuid-c11bc8d6-1807-452e-9523-2754d6fbc364{fill:none;}.uuid-b0584878-e04e-451e-a929-d6acaaa3bf28{fill:#151515;}</style></defs><g id="uuid-bef87c1e-f17c-41d6-9ad3-134c447a2e8c"><rect class="uuid-c11bc8d6-1807-452e-9523-2754d6fbc364" width="32" height="32"/></g><g id="uuid-c5794c6b-bba0-4d72-8077-dac308f39728"><path class="uuid-b0584878-e04e-451e-a929-d6acaaa3bf28" d="M24.82196,3.8739c-.00067-.00049-.00098-.00134-.00165-.00183-2.56934-1.87891-5.61963-2.87207-8.82031-2.87207C7.729,1,1,7.72852,1,16s6.729,15,15,15,15-6.72852,15-15c0-4.78314-2.30975-9.31622-6.17804-12.1261ZM16,29c-7.16846,0-13-5.83203-13-13,0-6.83203,5.29736-12.44922,12-12.96191v12.96191c0,.43359.27881.81738.69092.95117.10156.0332.20605.04883.30908.04883h.00012c.14081.00006.27496-.03906.40228-.09576.03003-.01331.05682-.0271.08545-.0434.12195-.06903.23523-.15442.32123-.27295l7.61914-10.48047c2.87939,2.45215,4.57178,6.08008,4.57178,9.89258,0,7.16797-5.83154,13-13,13Z"/></g></svg>