<?xml version="1.0" encoding="UTF-8"?><svg xmlns="http://www.w3.org/2000/svg" viewBox="0 0 32 32"><defs><style>.uuid-3e4e2f26-efa7-4c41-a367-19730d29dbd6{fill:none;}.uuid-3e4e2f26-efa7-4c41-a367-19730d29dbd6,.uuid-fb35dfdc-64d6-491c-b149-4cb796ce407d{stroke-width:0px;}.uuid-fb35dfdc-64d6-491c-b149-4cb796ce407d{fill:#151515;}</style></defs><g id="uuid-fe4e2a91-d239-41a3-9256-dc53d7936a6a"><rect class="uuid-3e4e2f26-efa7-4c41-a367-19730d29dbd6" width="32" height="32"/></g><g id="uuid-6018a59e-dcaa-4e14-b009-102024e1635d"><path class="uuid-fb35dfdc-64d6-491c-b149-4cb796ce407d" d="M16,0C7.1777,0,0,7.1777,0,16c0,3.1273.9155,6.0387,2.4728,8.5062.0103.0187.0107.0399.0223.0582.041.0648.0866.1254.1284.1895.0814.124.1643.246.249.3675,2.3564,3.4055,5.8743,5.7148,9.8512,6.5385.0275.0057.0546.0128.0822.0184.4738.0955.9541.1675,1.4395.2203.0933.0103.187.018.2807.0266.4874.0444.9778.0747,1.4739.0747,8.8223,0,16-7.1777,16-16S24.8223,0,16,0ZM15,2.0507v13.3995l-11.3245,7.183c-1.0676-1.9755-1.6755-4.2344-1.6755-6.6332C2,8.6178,7.7471,2.567,15,2.0507Z"/></g></svg>