<?xml version="1.0" encoding="UTF-8"?><svg xmlns="http://www.w3.org/2000/svg" width="32" height="32" viewBox="0 0 32 32"><defs><style>.uuid-8623846c-7c9b-4160-932f-f66603bf107a{fill:none;}.uuid-dfef54e9-8594-4cd7-841a-8ed13f7a31dd{fill:#151515;}</style></defs><g id="uuid-2fc77347-6ecf-4aca-b985-eaa949b91d7e"><rect class="uuid-8623846c-7c9b-4160-932f-f66603bf107a" width="32" height="32"/></g><g id="uuid-de8abee6-5d1d-4406-be3c-d8f97bd2464e"><path class="uuid-dfef54e9-8594-4cd7-841a-8ed13f7a31dd" d="M31,16c0-8.27148-6.72852-15-15-15S1,7.72852,1,16s6.72852,15,15,15c6.52734,0,12.2627-4.16797,14.27148-10.37109.00018-.00055,0-.0011.00018-.00165.48334-1.49585.72833-3.05231.72833-4.62726ZM16,29c-7.16797,0-13-5.83203-13-13,0-6.83203,5.29688-12.44922,12-12.96191v12.96191c0,.43359.2793.81738.69141.95117l12.33295,4.00006c-1.99023,4.85352-6.70404,8.04877-12.02435,8.04877Z"/></g></svg>