<?xml version="1.0" encoding="UTF-8"?><svg xmlns="http://www.w3.org/2000/svg" viewBox="0 0 32 32"><defs><style>.uuid-7bc88464-5b92-432d-9184-9a5ce0f96dc8{fill:none;}.uuid-7bc88464-5b92-432d-9184-9a5ce0f96dc8,.uuid-36e4cc0c-9272-4e56-9fd5-87409c255917{stroke-width:0px;}.uuid-36e4cc0c-9272-4e56-9fd5-87409c255917{fill:#151515;}</style></defs><g id="uuid-41957974-12f9-4076-b328-320f3cec27c7"><rect class="uuid-7bc88464-5b92-432d-9184-9a5ce0f96dc8" width="32" height="32"/></g><g id="uuid-be65e60d-58cb-4d96-bb18-d748b332a894"><path class="uuid-36e4cc0c-9272-4e56-9fd5-87409c255917" d="M16,0C7.1777,0,0,7.1777,0,16c0,5.2693,2.5719,9.9377,6.5141,12.8548.0283.0261.0448.0604.0767.0837.1099.08.2256.1489.337.2259.0989.0684.1988.1345.2993.2006.321.2114.648.4099.9808.5965.0906.0507.1795.1035.2712.1525.876.469,1.7874.8556,2.7291,1.1511.0575.0181.1167.0319.1744.0493.404.1217.8127.2269,1.2261.316.1304.0283.2617.053.3933.0781.3618.0685.7264.1239,1.0939.1674.1375.0164.2738.0357.4124.0486.4937.0455.9902.0756,1.4915.0756,8.8223,0,16-7.1777,16-16S24.8223,0,16,0ZM2,16C2,8.6178,7.7471,2.567,15,2.0507v13.6241l-8.0137,11.0211c-3.0449-2.5701-4.9863-6.4086-4.9863-10.6959Z"/></g></svg>