<?xml version="1.0" encoding="UTF-8"?><svg xmlns="http://www.w3.org/2000/svg" viewBox="0 0 32 32"><defs><style>.uuid-c347b37a-618f-4188-b6bc-e6b50ca88340{fill:none;}.uuid-c347b37a-618f-4188-b6bc-e6b50ca88340,.uuid-c9dc926f-f11b-4c09-bdb7-5aacc17c4e2b{stroke-width:0px;}.uuid-c9dc926f-f11b-4c09-bdb7-5aacc17c4e2b{fill:#151515;}</style></defs><g id="uuid-7ac612e5-9b0a-4a1f-bff2-2aaa211b5b64"><rect class="uuid-c347b37a-618f-4188-b6bc-e6b50ca88340" x="0" width="32" height="32"/></g><g id="uuid-821a09c4-37b1-4310-a6e1-802275786068"><path class="uuid-c9dc926f-f11b-4c09-bdb7-5aacc17c4e2b" d="M25.4531,3.1207c-.0201-.0173-.0305-.0413-.0522-.0572-.0792-.058-.163-.1073-.243-.1637-.1537-.1078-.3093-.2121-.4669-.3146-.2777-.1815-.5604-.3524-.8472-.5153-.1144-.0647-.227-.1317-.3431-.1937-.8714-.4667-1.7792-.8505-2.7179-1.1447-.0438-.0137-.0888-.0241-.1327-.0375-.4182-.127-.842-.2355-1.2707-.3276-.1212-.0262-.2431-.0491-.3652-.0725-.3702-.0704-.7435-.1273-1.1201-.1714-.1328-.0157-.2642-.0344-.3979-.0468-.4949-.0457-.9929-.0758-1.4961-.0758C7.1777,0,0,7.1777,0,16s7.1777,16,16,16,16-7.1777,16-16c0-5.2841-2.5859-9.9641-6.5469-12.8793ZM16,30c-7.7197,0-14-6.2803-14-14C2,8.6178,7.7471,2.567,15,2.0507v13.9493c0,.4336.2788.8174.6909.9512.1021.0332.2061.0488.3091.0488.314,0,.6172-.1484.8091-.4121l8.1992-11.2888c3.0482,2.5702,4.9918,6.411,4.9918,10.7009,0,7.7197-6.2803,14-14,14Z"/></g></svg>