<?xml version="1.0" encoding="UTF-8"?><svg xmlns="http://www.w3.org/2000/svg" viewBox="0 0 32 32"><defs><style>.uuid-07a436d7-5e69-4b2f-896f-a17b122e3ad4{fill:none;}.uuid-07a436d7-5e69-4b2f-896f-a17b122e3ad4,.uuid-a7abfece-74c7-4c93-957f-95e585ec7fec{stroke-width:0px;}.uuid-a7abfece-74c7-4c93-957f-95e585ec7fec{fill:#151515;}</style></defs><g id="uuid-ac750081-ac95-4539-97b5-8e6a84371ca2"><rect class="uuid-07a436d7-5e69-4b2f-896f-a17b122e3ad4" width="32" height="32"/></g><g id="uuid-aa908549-c675-4813-aa90-5068b138ed22"><path class="uuid-a7abfece-74c7-4c93-957f-95e585ec7fec" d="M30.7355,22.2325c.0027-.0063.0054-.0126.0081-.0189.1967-.4681.3731-.9443.5242-1.4295.0112-.0357.0203-.0723.0313-.1081.1307-.4302.2424-.8659.3367-1.3063.0162-.0749.0348-.1486.0499-.2239.0907-.4551.1596-.9146.2108-1.3771.0116-.1047.0203-.2101.0298-.3155.0438-.4825.0736-.9667.0736-1.4532C32,7.1777,24.8223,0,16,0S0,7.1777,0,16s7.1777,16,16,16c5.9758,0,11.1885-3.2988,13.9357-8.1656.0308-.04.0655-.0759.0906-.1215.2643-.4797.4965-.9759.7092-1.4803ZM16,30c-7.7197,0-14-6.2803-14-14C2,8.6178,7.7471,2.567,15,2.0507v13.9493c0,.3643.1982.7002.5186.876l12.2241,6.7211c-2.4977,3.8474-6.8237,6.4029-11.7426,6.4029Z"/></g></svg>