<?xml version="1.0" encoding="UTF-8"?><svg xmlns="http://www.w3.org/2000/svg" width="32" height="32" viewBox="0 0 32 32"><defs><style>.uuid-2d11831a-c180-49ce-9bef-68ee1d5a86d6{fill:none;}.uuid-41530117-4f0f-47d8-9bbe-d77d52cda337{fill:#151515;}</style></defs><g id="uuid-fc67b548-3b77-4994-82d7-5bdda36bc636"><rect class="uuid-2d11831a-c180-49ce-9bef-68ee1d5a86d6" width="32" height="32"/></g><g id="uuid-37305416-4d6c-4dad-a224-5f41dff4d82e"><path class="uuid-41530117-4f0f-47d8-9bbe-d77d52cda337" d="M30.27148,11.37207c-.00031-.00098-.0011-.00159-.0014-.00256-2.00946-6.20276-7.74365-10.36951-14.27008-10.36951C7.729,1,1,7.72852,1,16s6.729,15,15,15,15-6.72852,15-15c0-1.57617-.24512-3.13281-.72852-4.62793ZM16,29c-7.16846,0-13-5.83203-13-13,0-6.83203,5.29736-12.44922,12-12.96191v12.96191c0,.32031.15332.62109.41211.80859.07849.05713.16492.09753.25415.12952.02435.00873.04865.01416.07349.02087.0705.01929.14178.03046.21484.03387.01538.00073.03003.00714.04541.00714.00897,0,.0177-.00397.02667-.00421.09467-.00256.18945-.01416.28192-.04462l12.33112-3.99963c.23926.99597.36029,2.01733.36029,3.04846,0,7.16797-5.83154,13-13,13Z"/></g></svg>