<?xml version="1.0" encoding="UTF-8"?><svg xmlns="http://www.w3.org/2000/svg" width="32" height="32" viewBox="0 0 32 32"><defs><style>.uuid-6b7206b3-9778-4d8b-ae4e-1b9b1ed6a389{fill:none;}.uuid-c18ae4b8-b8b7-49f8-ba20-83bf948e8303{fill:#151515;}</style></defs><g id="uuid-f6a1887e-523f-4a2d-a8e9-7a45c3e8e106"><rect class="uuid-6b7206b3-9778-4d8b-ae4e-1b9b1ed6a389" width="32" height="32"/></g><g id="uuid-6311b3a7-8940-4a6a-9a7f-c3fa0a873c2d"><path class="uuid-c18ae4b8-b8b7-49f8-ba20-83bf948e8303" d="M31,16c0-8.27148-6.72852-15-15-15S1,7.72852,1,16s6.72852,15,15,15c3.2002,0,6.25098-.99316,8.82031-2.87207.00067-.00049.00098-.00134.00165-.00183,3.86829-2.80988,6.17804-7.34198,6.17804-12.1261ZM16,29c-7.16797,0-13-5.83203-13-13,0-6.83203,5.29688-12.44922,12-12.96191v12.96191c0,.21094.06738.41699.19141.58789l7.62109,10.4834c-2.04004,1.26465-4.37597,1.92871-6.8125,1.92871Z"/></g></svg>