<?xml version="1.0" encoding="UTF-8"?><svg xmlns="http://www.w3.org/2000/svg" viewBox="0 0 32 32"><defs><style>.uuid-3c7d55cc-e5af-4d97-b857-794561b03098{fill:none;}.uuid-3c7d55cc-e5af-4d97-b857-794561b03098,.uuid-ec33caf5-790e-443b-b1e2-5d9ccfa80c2f{stroke-width:0px;}.uuid-ec33caf5-790e-443b-b1e2-5d9ccfa80c2f{fill:#151515;}</style></defs><g id="uuid-020c400d-9674-45f5-9a03-a123a47e9757"><rect class="uuid-3c7d55cc-e5af-4d97-b857-794561b03098" width="32" height="32"/></g><g id="uuid-b06319e9-ed86-4125-af34-b9e296b89b87"><path class="uuid-ec33caf5-790e-443b-b1e2-5d9ccfa80c2f" d="M28.2582,26.2635c.0757-.0903.1472-.1835.2209-.2755.2194-.2743.4297-.5547.6302-.8422.0786-.1124.1584-.2233.2343-.3377.2023-.3063.391-.6208.5717-.9399.09-.1584.1777-.3174.2623-.4791.1704-.3265.3322-.6572.4799-.9946.0754-.1722.1425-.348.2119-.5233.0999-.252.1929-.5065.2799-.7634.067-.1982.1334-.3961.1927-.5977.1008-.3406.1883-.6852.2662-1.0327.0338-.1517.0672-.303.0967-.4562.0813-.4193.1467-.8422.1942-1.2688.0111-.1017.0185-.2042.0277-.3065.0439-.4791.0732-.9608.0732-1.446C32,7.1777,24.8223,0,16,0S0,7.1777,0,16s7.1777,16,16,16c3.4799,0,6.6943-1.1292,9.3229-3.0232.0239-.0145.0506-.0206.0736-.0374.2528-.1833.499-.3741.7392-.5709.0385-.0316.0751-.0653.1133-.0973.3198-.267.6252-.548.9213-.8375.0757-.074.1519-.1469.2261-.2224.3002-.3054.5881-.621.8618-.948ZM2,16C2,8.6178,7.7471,2.567,15,2.0507v13.9493c0,.2109.0664.417.1904.5879l8.1949,11.2835c-2.147,1.3406-4.673,2.1286-7.3853,2.1286-7.7197,0-14-6.2803-14-14Z"/></g></svg>