<?xml version="1.0" encoding="UTF-8"?><svg xmlns="http://www.w3.org/2000/svg" viewBox="0 0 32 32"><defs><style>.uuid-ee5dd1ed-f13f-4250-8d71-f74f8651fd74{fill:none;}.uuid-ee5dd1ed-f13f-4250-8d71-f74f8651fd74,.uuid-ab945d7f-f25f-451c-be12-7a3f61bcdaf1{stroke-width:0px;}.uuid-ab945d7f-f25f-451c-be12-7a3f61bcdaf1{fill:#151515;}</style></defs><g id="uuid-4630eda8-e7c1-45a8-8a63-f75178b4de4f"><rect class="uuid-ee5dd1ed-f13f-4250-8d71-f74f8651fd74" x="0" width="32" height="32"/></g><g id="uuid-087cc218-54ff-424f-b03d-1b0af7bd941e"><path class="uuid-ab945d7f-f25f-451c-be12-7a3f61bcdaf1" d="M16,0C7.1777,0,0,7.1777,0,16c0,1.7227.2814,3.3792.7876,4.9353.0013.0043,0,.0086.0015.0129.1346.415.2851.8214.4503,1.2188.0453.1082.0995.2112.1471.3181.1568.3552.3231.7039.5034,1.0435.046.0858.0954.169.1429.2538.2087.3765.4312.7422.6676,1.0977.0244.0363.0484.0726.073.1087,2.0224,2.9879,4.9915,5.1989,8.4299,6.2744.0586.0185.1187.0328.1776.0506.3978.1194.801.2234,1.2101.312.1357.0296.2721.0563.4091.0824.3556.0673.7148.1214,1.0774.1649.1426.0172.2836.0379.4272.0513.4938.0458.9916.0757,1.4955.0757,8.8223,0,16-7.1777,16-16S24.8223,0,16,0ZM15,2.0507v13.2228l-12.5742,4.0912c-.2679-1.08-.4258-2.2029-.4258-3.3647C2,8.6178,7.7471,2.567,15,2.0507Z"/></g></svg>