<?xml version="1.0" encoding="UTF-8"?><svg xmlns="http://www.w3.org/2000/svg" viewBox="0 0 32 32"><defs><style>.uuid-590493fa-c91c-402a-a5f9-624647eed2d3{fill:none;}.uuid-590493fa-c91c-402a-a5f9-624647eed2d3,.uuid-dcc41f99-1914-40b2-a397-bcdad6da0e2a{stroke-width:0px;}.uuid-dcc41f99-1914-40b2-a397-bcdad6da0e2a{fill:#151515;}</style></defs><g id="uuid-9fa4abcc-ecf4-47cb-9d07-71a9347be127"><rect class="uuid-590493fa-c91c-402a-a5f9-624647eed2d3" x="0" width="32" height="32"/></g><g id="uuid-5ef6f9bd-0790-47e3-a9d0-83b9d16f4883"><path class="uuid-dcc41f99-1914-40b2-a397-bcdad6da0e2a" d="M16,0c-3.4852,0-6.7039,1.1328-9.3347,3.032-.0199.0125-.043.0145-.0623.0285-.2581.1871-.5095.3815-.7544.5826-.0295.0242-.0568.0506-.0861.0751-.3262.2719-.6373.5583-.9388.8534-.0723.0707-.1451.1404-.2161.2125-.3028.3078-.5931.626-.8689.9558-.0729.0869-.1416.1768-.2126.2652-.2235.2791-.4377.5648-.6417.8575-.0726.104-.1471.2061-.2173.3118-.2074.3133-.4004.6353-.5851.962-.0883.1555-.1744.3117-.2575.4704-.1718.3288-.3348.662-.4834,1.002-.0741.1693-.14.3424-.2083.5147-.1012.2551-.1955.5129-.2836.7732-.0657.1945-.131.3885-.1893.5862-.1016.3431-.1896.6904-.2682,1.0405-.0337.1513-.0671.3021-.0964.455-.0814.4193-.1467.8423-.1942,1.269-.0111.1017-.0185.2042-.0277.3065-.0439.4791-.0732.9608-.0732,1.446,0,8.8223,7.1777,16,16,16s16-7.1777,16-16S24.8223,0,16,0ZM15,12.9219l-6.386-8.7929c1.8799-1.174,4.0526-1.9122,6.386-2.0783v10.8712Z"/></g></svg>