<?xml version="1.0" encoding="UTF-8"?><svg xmlns="http://www.w3.org/2000/svg" width="32" height="32" viewBox="0 0 32 32"><defs><style>.uuid-c816d1a0-7020-4bdc-ad77-22f55f0b481e{fill:none;}.uuid-f9fa00f0-4e23-46f4-a0de-597be7f0a978{fill:#151515;}</style></defs><g id="uuid-9d7dd1b7-8297-45d5-880a-7fe3f8cc4fe2"><rect class="uuid-c816d1a0-7020-4bdc-ad77-22f55f0b481e" width="32" height="32"/></g><g id="uuid-73a8dd98-9cef-49ac-9fa3-3e84eb05a2fc"><path class="uuid-f9fa00f0-4e23-46f4-a0de-597be7f0a978" d="M31,16c0-8.27148-6.72852-15-15-15S1,7.72852,1,16s6.72852,15,15,15c5.45801,0,10.49512-2.97559,13.14453-7.76562.00018-.00037.00018-.00073.00037-.0011.00018-.00031.00043-.00055.00061-.00085,1.21289-2.20508,1.85449-4.70605,1.85449-7.23242ZM16,29c-7.16797,0-13-5.83203-13-13,0-6.83203,5.29688-12.44922,12-12.96191v12.96191c0,.36426.19824.7002.51758.87598l11.3584,6.24902c-2.39941,3.64746-6.48047,5.875-10.87598,5.875Z"/></g></svg>