<?xml version="1.0" encoding="UTF-8"?><svg xmlns="http://www.w3.org/2000/svg" viewBox="0 0 32 32"><defs><style>.uuid-de52d7c4-6829-4f73-97f5-b57710e8b56d{fill:none;}.uuid-de52d7c4-6829-4f73-97f5-b57710e8b56d,.uuid-2c3a15fe-3e9c-4327-94ef-1e0bd6e9ded1{stroke-width:0px;}.uuid-2c3a15fe-3e9c-4327-94ef-1e0bd6e9ded1{fill:#151515;}</style></defs><g id="uuid-9cb891db-6965-4471-8733-11950ed8fe49"><rect class="uuid-de52d7c4-6829-4f73-97f5-b57710e8b56d" x="0" width="32" height="32"/></g><g id="uuid-82878618-ebd1-459e-a694-cfaf1229d3ad"><path class="uuid-2c3a15fe-3e9c-4327-94ef-1e0bd6e9ded1" d="M16,0C8.9128,0,2.8958,4.6362.7996,11.0317c-.0021.006-.0071.01-.0091.0161-.0043.0131-.007.0266-.0113.0396-.0673.2079-.1215.4207-.1804.6321-.0741.2641-.1451.5286-.2052.7959-.0428.1917-.0804.3846-.1162.5789-.0582.3133-.1054.6283-.1447.9451-.0201.163-.0432.3246-.0583.4891-.045.4878-.0745.9779-.0745,1.4714,0,8.8223,7.1777,16,16,16s16-7.1777,16-16S24.8223,0,16,0ZM15,2.0507v12.5724l-11.9622-3.8924C5.0041,5.9115,9.5787,2.4366,15,2.0507Z"/></g></svg>