<?xml version="1.0" encoding="UTF-8"?><svg xmlns="http://www.w3.org/2000/svg" width="32" height="32" viewBox="0 0 32 32"><defs><style>.uuid-f1e76f8c-0bfd-4760-8a0b-f2eb72306240{fill:none;}.uuid-cf9b60da-fb87-4b5c-b2ad-573011be3d60{fill:#151515;}</style></defs><g id="uuid-0957f4e7-39bc-4525-a9e7-a64543029946"><rect class="uuid-f1e76f8c-0bfd-4760-8a0b-f2eb72306240" width="32" height="32"/></g><g id="uuid-aee8379a-2f1d-46a9-9166-e06fe2674f21"><path class="uuid-cf9b60da-fb87-4b5c-b2ad-573011be3d60" d="M16,7c-.55225,0-1,.44775-1,1v8c0,.26514.10547.51953.29297.70703l4,4c.19531.19531.45117.29297.70703.29297s.51172-.09766.70703-.29297c.39062-.39062.39062-1.02344,0-1.41406l-3.70703-3.70703v-7.58594c0-.55225-.44775-1-1-1Z"/><path class="uuid-cf9b60da-fb87-4b5c-b2ad-573011be3d60" d="M16,1c-5.45087,0-10.35065,2.89227-13,7.51501V3c0-.55225-.44775-1-1-1s-1,.44775-1,1v7.5c0,.82715.67285,1.5,1.5,1.5h7.5c.55225,0,1-.44775,1-1s-.44775-1-1-1h-5.5238c.06073-.11609.1181-.2345.18219-.34833.01904-.03424.03638-.06964.05573-.10364,2.29047-3.98297,6.6076-6.54803,11.28589-6.54803,6.83093,0,12.43555,5.29852,12.94934,12h-2.94934c-.55225,0-1,.44775-1,1s.44775,1,1,1h2.94934c-.4884,6.37036-5.57898,11.46094-11.94934,11.94934v-2.94934c0-.55225-.44775-1-1-1s-1,.44775-1,1v2.93896c-.13855-.01074-.27893-.01019-.41663-.02539-.14923-.01654-.29645-.04041-.44427-.06201-.32025-.04651-.63727-.10553-.95154-.17542-.16669-.03741-.33405-.07288-.49847-.1167-.31641-.08356-.62683-.18494-.93518-.29181-.28461-.09949-.56378-.20966-.8396-.32819-.22119-.09436-.44214-.18878-.65765-.2951-.23987-.11914-.47369-.2489-.70526-.3822-.13837-.07922-.27454-.16193-.40997-.24622-.25067-.15668-.50006-.31537-.73932-.48834-.03131-.02258-.06055-.04828-.09167-.07111-.51605-.38013-1.00037-.8006-1.45563-1.2514-.08325-.08264-.16888-.16229-.25006-.24731-.19904-.20795-.38916-.4245-.57434-.64526-.11481-.13739-.22479-.27942-.33429-.42206-1.32507-1.71863-2.24139-3.77319-2.56476-6.03204-.07764-.54688-.58838-.92334-1.13135-.84814-.54688.07812-.92676.58447-.84814,1.13135.33484,2.34015,1.21765,4.4931,2.49976,6.3446.01569.02783.01868.05933.03735.08606.13739.1969.29816.37134.44397.56042.11597.14966.23083.2995.35217.44458.22107.26532.44818.52234.68549.77032.07996.08331.16431.16187.24609.24335.55328.55206,1.14014,1.06219,1.76697,1.51819.0141.01031.02722.02191.04144.03217.2843.20526.57776.39362.87512.57819.14746.09198.29608.18127.44684.26825.27411.15729.54834.31128.83173.45093.23792.11804.4834.22089.72784.32648.33191.14221.66577.27612,1.00769.39429.34998.12201.70312.23566,1.06348.33173.19196.05078.38568.09259.5799.13574.36053.08087.72485.14758,1.09369.2016.17157.02496.34155.05286.5144.07184.5387.05969,1.08234.09967,1.63422.09967,8.271,0,15-6.729,15-15S24.271,1,16,1Z"/></g></svg>