<svg xmlns="http://www.w3.org/2000/svg" viewBox="0 0 32 32">
  <defs>
    <style>
      .uuid-9e6b3aaf-8546-4406-a4a1-12be3b8843af{stroke-width:0;fill:#151515}
    </style>
  </defs>
  <path d="M0 0h32v32H0z" id="uuid-f4c9faf9-1956-4dc6-8b89-43883d914ddc" stroke-width="0" fill="none"/>
  <g id="uuid-a19ba448-1849-4012-b50c-c51abe7d2ff8">
    <path class="uuid-9e6b3aaf-8546-4406-a4a1-12be3b8843af" d="M16 0C10.124 0 4.783 3.232 2 8.257V2a1 1 0 0 0-2 0v9a1 1 0 0 0 1 1h9a1 1 0 0 0 0-2H3.357C5.654 5.164 10.562 2 16 2c7.382 0 13.433 5.747 13.95 13H27a1 1 0 0 0 0 2h2.95c-.494 6.921-6.03 12.457-12.95 12.95V27a1 1 0 0 0-2 0v2.954c-6.55-.47-12-5.503-12.877-12.086a1 1 0 1 0-1.982.264C1.194 26.038 8.012 32 16 32c8.822 0 16-7.178 16-16S24.822 0 16 0Z"/>
    <path class="uuid-9e6b3aaf-8546-4406-a4a1-12be3b8843af" d="M16 6a1 1 0 0 0-1 1v9a1 1 0 0 0 .293.707l4 4a.997.997 0 0 0 1.414 0 1 1 0 0 0 0-1.414L17 15.586V7a1 1 0 0 0-1-1Z"/>
  </g>
</svg>
