<?xml version="1.0" encoding="UTF-8"?><svg xmlns="http://www.w3.org/2000/svg" viewBox="0 0 32 32"><defs><style>.uuid-c9d10631-9da0-4dfc-8ef5-3e177de27229{fill:none;}.uuid-c9d10631-9da0-4dfc-8ef5-3e177de27229,.uuid-9e6b3aaf-8546-4406-a4a1-12be3b8843af{stroke-width:0px;}.uuid-9e6b3aaf-8546-4406-a4a1-12be3b8843af{fill:#151515;}</style></defs><g id="uuid-f4c9faf9-1956-4dc6-8b89-43883d914ddc"><rect class="uuid-c9d10631-9da0-4dfc-8ef5-3e177de27229" x="0" width="32" height="32"/></g><g id="uuid-a19ba448-1849-4012-b50c-c51abe7d2ff8"><path class="uuid-9e6b3aaf-8546-4406-a4a1-12be3b8843af" d="M16,0C10.1236,0,4.7833,3.232,2,8.2567V2c0-.5522-.4478-1-1-1s-1,.4478-1,1v9c0,.5522.4478,1,1,1h9c.5522,0,1-.4478,1-1s-.4478-1-1-1H3.3567C5.6536,5.1644,10.5625,2,16,2c7.3822,0,13.433,5.7471,13.9493,13h-2.9493c-.5522,0-1,.4478-1,1s.4478,1,1,1h2.9493c-.4927,6.9213-6.0281,12.4567-12.9493,12.9493v-2.9493c0-.5522-.4478-1-1-1s-1,.4478-1,1v2.9536c-6.5503-.4705-11.9995-5.5025-12.8765-12.0854-.0732-.5479-.5825-.9326-1.123-.8594-.5479.0728-.9321.5757-.8594,1.123,1.0532,7.9062,7.8711,13.8682,15.8589,13.8682,8.8223,0,16-7.1777,16-16S24.8223,0,16,0Z"/><path class="uuid-9e6b3aaf-8546-4406-a4a1-12be3b8843af" d="M16,6c-.5522,0-1,.4478-1,1v9c0,.2651.1055.5195.293.707l4,4c.1953.1953.4512.293.707.293s.5117-.0977.707-.293c.3906-.3906.3906-1.0234,0-1.4141l-3.707-3.707V7c0-.5522-.4478-1-1-1Z"/></g></svg>