<?xml version="1.0" encoding="UTF-8"?><svg xmlns="http://www.w3.org/2000/svg" viewBox="0 0 32 32"><defs><style>.uuid-7cde05b9-071f-4bf0-91cb-6d442c52de6a{fill:none;}.uuid-7cde05b9-071f-4bf0-91cb-6d442c52de6a,.uuid-313c8047-8ac6-4194-80b1-9574934a65ec{stroke-width:0px;}.uuid-313c8047-8ac6-4194-80b1-9574934a65ec{fill:#151515;}</style></defs><g id="uuid-f00977df-f239-4c8e-ae66-c0811e1d4616"><rect class="uuid-7cde05b9-071f-4bf0-91cb-6d442c52de6a" x="0" width="32" height="32"/></g><g id="uuid-c45d8327-7ea9-4b2c-8a95-bdfade76fc0b"><path class="uuid-313c8047-8ac6-4194-80b1-9574934a65ec" d="M30.707,15.293l-2-2L17.0605,1.6465c-.585-.5859-1.5361-.5859-2.1211,0L3.293,13.293l-2,2c-.3906.3906-.3906,1.0234,0,1.4141s1.0234.3906,1.4141,0l.293-.293v13.0859c0,.8271.6729,1.5,1.5,1.5h6.5c.5522,0,1-.4473,1-1v-11h8v11c0,.5527.4478,1,1,1h6.5c.8271,0,1.5-.6729,1.5-1.5v-13.0859l.293.293c.1953.1953.4512.293.707.293s.5117-.0977.707-.293c.3906-.3906.3906-1.0234,0-1.4141Z"/></g></svg>