<?xml version="1.0" encoding="UTF-8"?><svg xmlns="http://www.w3.org/2000/svg" width="32" height="32" viewBox="0 0 32 32"><defs><style>.uuid-2ac6d252-8dc9-49aa-aa2f-4b1b93cf5c54{fill:none;}.uuid-12961e01-7960-4ee8-9035-cd6413e252e7{fill:#151515;}</style></defs><g id="uuid-e3c6cb7b-e7dd-4ba7-a6f1-ccfcebedb5df"><rect class="uuid-2ac6d252-8dc9-49aa-aa2f-4b1b93cf5c54" width="32" height="32"/></g><g id="uuid-50f09649-ee45-4cde-b552-bde506ca668c"><path class="uuid-12961e01-7960-4ee8-9035-cd6413e252e7" d="M30.70703,15.43311l-1.99902-1.99902c-.00043-.00043-.00055-.00104-.00098-.00146L17.07568,1.81152c-.55762-.58691-1.6123-.56787-2.13281-.01904L3.29297,13.43262c-.00043.00043-.00055.00104-.00098.00146l-1.99902,1.99902c-.39062.39062-.39062,1.02344,0,1.41406.19531.19531.45117.29297.70703.29297s.51172-.09766.70703-.29297l.29297-.29297v12.9458c0,.82715.67285,1.5,1.5,1.5h23c.82715,0,1.5-.67285,1.5-1.5v-12.9458l.29297.29297c.19531.19531.45117.29297.70703.29297s.51172-.09766.70703-.29297c.39062-.39062.39062-1.02344,0-1.41406ZM12,19h8v10h-8v-10Z"/></g></svg>