<?xml version="1.0" encoding="UTF-8"?><svg xmlns="http://www.w3.org/2000/svg" width="32" height="32" viewBox="0 0 32 32"><defs><style>.uuid-398a2872-1cb1-4acf-82a6-adae90cb7992{fill:none;}.uuid-ca51f85b-95b2-477b-8e28-bc2242a5b8c3{fill:#151515;}</style></defs><g id="uuid-3706085b-a667-4ec2-a59c-3edf56e4112d"><rect class="uuid-398a2872-1cb1-4acf-82a6-adae90cb7992" width="32" height="32"/></g><g id="uuid-59db60f6-b7d9-4b17-9cb0-6b1d7259f89b"><path class="uuid-ca51f85b-95b2-477b-8e28-bc2242a5b8c3" d="M8,22.75h17.5c2.89453,0,5.25-2.35498,5.25-5.25,0-2.45557-1.67969-4.52344-4.0127-5.08057.00879-.14453.0127-.2832.0127-.41943,0-4.82471-3.9248-8.75-8.75-8.75-3.86816,0-7.26562,2.56299-8.37207,6.20264-.53418-.13477-1.0791-.20264-1.62793-.20264-3.72168,0-6.75,3.02783-6.75,6.75s3.02832,6.75,6.75,6.75Z"/><path class="uuid-ca51f85b-95b2-477b-8e28-bc2242a5b8c3" d="M29,27H3c-.55273,0-1,.44775-1,1s.44727,1,1,1h26c.55273,0,1-.44775,1-1s-.44727-1-1-1Z"/></g></svg>