<?xml version="1.0" encoding="UTF-8"?><svg xmlns="http://www.w3.org/2000/svg" viewBox="0 0 32 32"><defs><style>.uuid-cc2afb5a-d194-4808-94a5-8381c43be760{fill:none;}.uuid-cc2afb5a-d194-4808-94a5-8381c43be760,.uuid-a4cb9ddc-ede2-4049-bae7-a6886c31a0d5{stroke-width:0px;}.uuid-a4cb9ddc-ede2-4049-bae7-a6886c31a0d5{fill:#151515;}</style></defs><g id="uuid-322841a5-d877-459b-ae71-696f0063ab7a"><rect class="uuid-cc2afb5a-d194-4808-94a5-8381c43be760" x="0" width="32" height="32"/></g><g id="uuid-01cb4de5-8085-444f-a9da-3e8e79497ff4"><path class="uuid-a4cb9ddc-ede2-4049-bae7-a6886c31a0d5" d="M7.5,23h19c3.0327,0,5.5-2.4673,5.5-5.5,0-2.5-1.6646-4.6191-4.0029-5.2715.002-.0771.0029-.1533.0029-.2285,0-5.5142-4.4858-10-10-10-4.0698,0-7.6646,2.4199-9.2144,6.1104-.4238-.0732-.8535-.1104-1.2856-.1104-4.1357,0-7.5,3.3643-7.5,7.5s3.3643,7.5,7.5,7.5ZM7.5,10c.5513,0,1.0977.082,1.623.2437.5239.1602,1.082-.1304,1.248-.6543,1.0557-3.3433,4.1216-5.5894,7.6289-5.5894,4.4111,0,8,3.5889,8,8,0,.3145-.0229.623-.0586.9282-.0312.2666.0464.5347.2148.7437s.4141.3413.6816.3672c1.8027.1758,3.1621,1.6636,3.1621,3.4609,0,1.9297-1.5703,3.5-3.5,3.5H7.5c-3.0327,0-5.5-2.4673-5.5-5.5s2.4673-5.5,5.5-5.5Z"/><path class="uuid-a4cb9ddc-ede2-4049-bae7-a6886c31a0d5" d="M30,26H2c-.5522,0-1,.4478-1,1s.4478,1,1,1h28c.5522,0,1-.4478,1-1s-.4478-1-1-1Z"/></g></svg>