<?xml version="1.0" encoding="UTF-8"?><svg xmlns="http://www.w3.org/2000/svg" width="32" height="32" viewBox="0 0 32 32"><defs><style>.uuid-6592cfeb-7967-4e54-aa2c-0ae70e54d418{fill:none;}.uuid-31070334-8052-40ce-9227-1d21cec85be4{fill:#151515;}</style></defs><g id="uuid-324e681d-29e6-44c2-8d90-ed83465e3589"><rect class="uuid-6592cfeb-7967-4e54-aa2c-0ae70e54d418" width="32" height="32"/></g><g id="uuid-78bb83ca-b630-4584-afd7-02c96f8e7538"><path class="uuid-31070334-8052-40ce-9227-1d21cec85be4" d="M8,23h17.5c3.03223,0,5.5-2.46729,5.5-5.5,0-2.50244-1.66406-4.62061-4.00391-5.27197.00293-.07715.00391-.15283.00391-.22803,0-4.9624-4.03711-9-9-9-3.89941,0-7.33301,2.53223-8.54004,6.15625-.48047-.104-.96875-.15625-1.45996-.15625-3.85938,0-7,3.14014-7,7s3.14062,7,7,7ZM8,11c.60938,0,1.21484.11426,1.79883.33984.27441.10596.58203.08594.84082-.05566s.44141-.39014.5-.67871c.65625-3.24805,3.54199-5.60547,6.86035-5.60547,3.85938,0,7,3.14014,7,7,0,.31104-.02832.61523-.06738.91553-.03418.26904.04199.54004.21094.75195.16895.21143.41699.34521.68652.37109,1.80762.17139,3.16992,1.65967,3.16992,3.46143,0,1.92969-1.57031,3.5-3.5,3.5H8c-2.75684,0-5-2.24316-5-5s2.24316-5,5-5Z"/><path class="uuid-31070334-8052-40ce-9227-1d21cec85be4" d="M29,27H3c-.55273,0-1,.44775-1,1s.44727,1,1,1h26c.55273,0,1-.44775,1-1s-.44727-1-1-1Z"/></g></svg>