<?xml version="1.0" encoding="UTF-8"?><svg xmlns="http://www.w3.org/2000/svg" viewBox="0 0 32 32"><defs><style>.uuid-6c21e921-09ca-4959-8d68-8aac1e37c575{fill:none;}.uuid-6c21e921-09ca-4959-8d68-8aac1e37c575,.uuid-cbb68ba0-fde5-436d-9e83-946d039388ce{stroke-width:0px;}.uuid-cbb68ba0-fde5-436d-9e83-946d039388ce{fill:#151515;}</style></defs><g id="uuid-2f0282a6-facb-4b99-9c2a-d6fee4e2ddab"><rect class="uuid-6c21e921-09ca-4959-8d68-8aac1e37c575" x="0" width="32" height="32"/></g><g id="uuid-e8665910-1493-4337-95e7-143727e0a511"><path class="uuid-cbb68ba0-fde5-436d-9e83-946d039388ce" d="M7.5,22.75h19c2.895,0,5.25-2.3555,5.25-5.25,0-2.4531-1.6792-4.5215-4.0103-5.0801.0063-.1387.0103-.2793.0103-.4199,0-5.376-4.374-9.75-9.75-9.75-4.0361,0-7.5928,2.4414-9.0601,6.1436-.4731-.0957-.9551-.1436-1.4399-.1436C3.5024,8.25.25,11.502.25,15.5s3.2524,7.25,7.25,7.25Z"/><path class="uuid-cbb68ba0-fde5-436d-9e83-946d039388ce" d="M30,26H2c-.5522,0-1,.4473-1,1s.4478,1,1,1h28c.5522,0,1-.4473,1-1s-.4478-1-1-1Z"/></g></svg>