<?xml version="1.0" encoding="UTF-8"?><svg xmlns="http://www.w3.org/2000/svg" width="32" height="32" viewBox="0 0 32 32"><defs><style>.uuid-b05047fa-c951-4be6-9012-b08a50a86bee{fill:none;}.uuid-8928ca01-5e92-43a3-89e5-83dcccf2b0e7{fill:#151515;}</style></defs><g id="uuid-be244c2f-8ee1-40d9-93d4-a2adc132597f"><rect class="uuid-b05047fa-c951-4be6-9012-b08a50a86bee" width="32" height="32"/></g><g id="uuid-9d051ae7-1e85-4001-a0a2-67af59d86002"><path class="uuid-8928ca01-5e92-43a3-89e5-83dcccf2b0e7" d="M29.5,3H2.5c-.82715,0-1.5.67285-1.5,1.5v23c0,.82715.67285,1.5,1.5,1.5h27c.82715,0,1.5-.67285,1.5-1.5V4.5c0-.82715-.67285-1.5-1.5-1.5ZM29,27H3V5h26v22Z"/><circle class="uuid-8928ca01-5e92-43a3-89e5-83dcccf2b0e7" cx="21" cy="11" r="3"/><path class="uuid-8928ca01-5e92-43a3-89e5-83dcccf2b0e7" d="M6.25,25h19.5c.68945,0,1.25-.56055,1.25-1.25v-2.75c0-.26562-.10547-.51953-.29297-.70703l-3.82324-3.82324c-.48633-.48828-1.28125-.48828-1.76758,0l-3.07324,3.07324-7.11719-8.00586c-.22656-.25781-.55371-.41113-.89746-.42188-.33105-.02539-.67969.12207-.92285.36523l-3.8125,3.8125c-.1875.1875-.29297.44141-.29297.70703v7.75c0,.68945.56055,1.25,1.25,1.25Z"/></g></svg>