<?xml version="1.0" encoding="UTF-8"?><svg xmlns="http://www.w3.org/2000/svg" width="32" height="32" viewBox="0 0 32 32"><defs><style>.uuid-4dad012e-9e56-4a0d-9fa8-ccab73b34190{fill:none;}.uuid-a28bd92f-2e6e-4b81-89b5-e437fa36b49f{fill:#151515;}</style></defs><g id="uuid-10f285fc-8571-4e9d-ad50-2a984ceb5321"><rect class="uuid-4dad012e-9e56-4a0d-9fa8-ccab73b34190" width="32" height="32"/></g><g id="uuid-4ce61c2e-0114-46b7-af07-f4fe6815dc22"><path class="uuid-a28bd92f-2e6e-4b81-89b5-e437fa36b49f" d="M28.5,2H3.59131l13.28369,13.28369V7c0-.62109.50391-1.125,1.125-1.125s1.125.50391,1.125,1.125v10.5c0,.89648-.729,1.625-1.625,1.625H7c-.62109,0-1.125-.50391-1.125-1.125s.50391-1.125,1.125-1.125h8.28369L2,3.59131v24.90869c0,.82715.67285,1.5,1.5,1.5h25c.82715,0,1.5-.67285,1.5-1.5V3.5c0-.82715-.67285-1.5-1.5-1.5Z"/></g></svg>