<?xml version="1.0" encoding="UTF-8"?><svg xmlns="http://www.w3.org/2000/svg" width="32" height="32" viewBox="0 0 32 32"><defs><style>.uuid-728a3ce7-71fa-44b2-ab78-18732dd81b63{fill:none;}.uuid-d545a753-a982-4901-a0e7-459e52e0ce32{fill:#151515;}</style></defs><g id="uuid-dd4c1118-0587-4bff-ba8a-9c0ff216dc96"><rect class="uuid-728a3ce7-71fa-44b2-ab78-18732dd81b63" width="32" height="32"/></g><g id="uuid-c9c84f2d-4a55-4f51-99e6-29eaa0cfb199"><path class="uuid-d545a753-a982-4901-a0e7-459e52e0ce32" d="M28.5,2h-12.5c-.55225,0-1,.44727-1,1s.44775,1,1,1h12v24H4v-12c0-.55273-.44775-1-1-1s-1,.44727-1,1v12.5c0,.82715.67285,1.5,1.5,1.5h25c.82715,0,1.5-.67285,1.5-1.5V3.5c0-.82715-.67285-1.5-1.5-1.5Z"/><path class="uuid-d545a753-a982-4901-a0e7-459e52e0ce32" d="M17.58594,19h-8.58594c-.55225,0-1,.44727-1,1s.44775,1,1,1h10.5c.82715,0,1.5-.67285,1.5-1.5v-10.5c0-.55273-.44775-1-1-1s-1,.44727-1,1v8.58594L4.70703,3.29297c-.39062-.39062-1.02344-.39062-1.41406,0s-.39062,1.02344,0,1.41406l14.29297,14.29297Z"/></g></svg>