<?xml version="1.0" encoding="UTF-8"?><svg xmlns="http://www.w3.org/2000/svg" width="32" height="32" viewBox="0 0 32 32"><defs><style>.uuid-1108aa7a-e90d-4610-8658-f768fc2352f7{fill:none;}.uuid-c2a2c2e4-833b-4e85-a1ee-5c471a65c702{fill:#151515;}</style></defs><g id="uuid-b31d38af-3dab-4d40-80a8-31401708608e"><rect class="uuid-1108aa7a-e90d-4610-8658-f768fc2352f7" width="32" height="32"/></g><g id="uuid-1954032b-b2c0-4fce-a31c-c502178847d4"><path class="uuid-c2a2c2e4-833b-4e85-a1ee-5c471a65c702" d="M28.5,2h-2.5c-.55273,0-1,.44727-1,1s.44727,1,1,1h2v24h-2c-.55273,0-1,.44727-1,1s.44727,1,1,1h2.5c.82715,0,1.5-.67285,1.5-1.5V3.5c0-.82715-.67285-1.5-1.5-1.5Z"/><path class="uuid-c2a2c2e4-833b-4e85-a1ee-5c471a65c702" d="M15.70703,6.29297c-.39062-.39062-1.02344-.39062-1.41406,0s-.39062,1.02344,0,1.41406l7.29297,7.29297H3c-.55273,0-1,.44727-1,1s.44727,1,1,1h18.58594l-7.29297,7.29297c-.39062.39062-.39062,1.02344,0,1.41406.19531.19531.45117.29297.70703.29297s.51172-.09766.70703-.29297l8.64648-8.64648c.2832-.2832.43945-.66016.43945-1.06055s-.15625-.77734-.43945-1.06055L15.70703,6.29297Z"/></g></svg>