<?xml version="1.0" encoding="UTF-8"?><svg xmlns="http://www.w3.org/2000/svg" viewBox="0 0 32 32"><defs><style>.uuid-f530ba09-d128-4a0b-8c97-68330f2e904b{fill:none;}.uuid-f530ba09-d128-4a0b-8c97-68330f2e904b,.uuid-596d731d-16cc-42a0-9a24-1a7d4a08b99b{stroke-width:0px;}.uuid-596d731d-16cc-42a0-9a24-1a7d4a08b99b{fill:#151515;}</style></defs><g id="uuid-727282a3-2741-4987-bf92-56ce09f42232"><rect class="uuid-f530ba09-d128-4a0b-8c97-68330f2e904b" width="32" height="32"/></g><g id="uuid-2fd9f12c-f6aa-4ced-b3ec-9ed40831ed51"><path class="uuid-596d731d-16cc-42a0-9a24-1a7d4a08b99b" d="M16,0c-.5303,0-1.0674.0264-1.5967.0791-.5498.0547-.9512.5439-.8965,1.0938.0508.5166.4863.9014.9941.9014.0332,0,.0664-.002.0996-.0049.4639-.0459.9346-.0693,1.3994-.0693,7.7197,0,14,6.2803,14,14s-6.2803,14-14,14c-.4648,0-.9355-.0234-1.3994-.0693-.541-.0508-1.04.3467-1.0938.8965-.0547.5498.3467,1.0391.8965,1.0938.5293.0527,1.0664.0791,1.5967.0791,8.8223,0,16-7.1777,16-16S24.8223,0,16,0Z"/><path class="uuid-596d731d-16cc-42a0-9a24-1a7d4a08b99b" d="M14.707,21.707l9-9c.3906-.3906.3906-1.0234,0-1.4141s-1.0234-.3906-1.4141,0l-8.293,8.293-4.293-4.293c-.3906-.3906-1.0234-.3906-1.4141,0s-.3906,1.0234,0,1.4141l5,5c.1953.1953.4512.293.707.293s.5117-.0977.707-.293Z"/><path class="uuid-596d731d-16cc-42a0-9a24-1a7d4a08b99b" d="M1.0918,13.9785c.0791.0166.1572.0244.2344.0244.5205,0,.9873-.3623,1.0996-.8916.2012-.9492.5039-1.8799.8994-2.7656.2529-.5674-.001-1.2334-.5684-1.4863s-1.2334.002-1.4863.5684c-.46,1.0303-.8115,2.1123-1.0459,3.2168-.1289.6074.2598,1.2051.8672,1.334Z"/><path class="uuid-596d731d-16cc-42a0-9a24-1a7d4a08b99b" d="M2.4287,18.9014c-.1289-.6084-.7305-.998-1.334-.8672-.6084.1289-.9961.7266-.8672,1.334.2344,1.1035.5869,2.1855,1.0488,3.2158.1865.418.5977.665,1.0273.665.1533,0,.3096-.0312.459-.0986.5674-.2539.8203-.9189.5664-1.4863-.3965-.8848-.6992-1.8145-.9004-2.7627Z"/><path class="uuid-596d731d-16cc-42a0-9a24-1a7d4a08b99b" d="M5.9834,5.958c.2686,0,.5371-.0947.752-.2881.7207-.6484,1.5137-1.2227,2.3564-1.708.5381-.3096.7236-.998.4131-1.5361-.3096-.5381-.998-.7256-1.5361-.4131-.9785.5635-1.8994,1.2305-2.7373,1.9834-.4619.415-.5,1.127-.085,1.5889.2227.2471.5293.373.8369.373Z"/><path class="uuid-596d731d-16cc-42a0-9a24-1a7d4a08b99b" d="M9.1025,28.042c-.8418-.4834-1.6357-1.0576-2.3594-1.7061-.4629-.4131-1.1729-.376-1.5889.0869-.415.4629-.376,1.1738.0869,1.5889.8408.7529,1.7627,1.4199,2.7402,1.9814.1768.1016.3691.1494.5596.1494.3896,0,.7686-.2021.9766-.5645.3096-.5391.123-1.2266-.415-1.5361Z"/></g></svg>