<?xml version="1.0" encoding="UTF-8"?><svg xmlns="http://www.w3.org/2000/svg" width="32" height="32" viewBox="0 0 32 32"><defs><style>.uuid-d662eff5-f62f-4694-98c0-16e39a307a37{fill:none;}.uuid-e33f2416-5022-4efa-9013-5e6f806f8b64{fill:#151515;}</style></defs><g id="uuid-df201cb0-57d5-4400-991f-6a18de29efae"><rect class="uuid-d662eff5-f62f-4694-98c0-16e39a307a37" width="32" height="32"/></g><g id="uuid-ba2b1125-159c-4111-9b60-b4886172e0e4"><path class="uuid-e33f2416-5022-4efa-9013-5e6f806f8b64" d="M16,1c-.55273,0-1,.44775-1,1s.44727,1,1,1c7.16797,0,13,5.83154,13,13s-5.83203,13-13,13c-.69922,0-1.40039-.05566-2.08301-.16602-.54688-.0918-1.05859.28271-1.14648.82812-.08789.54492.2832,1.05859.82812,1.14648.78711.12695,1.5957.19141,2.40137.19141,8.27148,0,15-6.729,15-15S24.27148,1,16,1Z"/><path class="uuid-e33f2416-5022-4efa-9013-5e6f806f8b64" d="M5.29883,23.38379c-.31445-.45508-.93945-.56836-1.39062-.25342-.45508.31396-.56836.93701-.25391,1.39111,1.03711,1.50049,2.32422,2.78662,3.82422,3.82373.17285.12012.37109.17773.56738.17773.31738,0,.62891-.15039.82324-.43115.31445-.4541.20117-1.07715-.25391-1.39111-1.30078-.8999-2.41602-2.01562-3.31641-3.31689Z"/><path class="uuid-e33f2416-5022-4efa-9013-5e6f806f8b64" d="M2,15c-.55273,0-1,.44775-1,1,0,.80225.06445,1.60986.19141,2.40088.0791.4917.50391.84131.98633.84131.05273,0,.10547-.00391.15918-.0127.5459-.0874.91699-.60059.8291-1.146-.11035-.68604-.16602-1.38721-.16602-2.0835,0-.55225-.44727-1-1-1Z"/></g></svg>