<?xml version="1.0" encoding="UTF-8"?><svg xmlns="http://www.w3.org/2000/svg" width="32" height="32" viewBox="0 0 32 32"><defs><style>.uuid-fffbb09d-9b27-4aba-8d8f-2c7f9b77caf5{fill:none;}.uuid-deddd8b3-8354-45ff-a70c-cee99ee695b2{fill:#151515;}</style></defs><g id="uuid-665e4c18-622b-4fa6-840d-e420f0e7333b"><rect class="uuid-fffbb09d-9b27-4aba-8d8f-2c7f9b77caf5" width="32" height="32"/></g><g id="uuid-9296ef34-8e4b-49df-9cca-a04f3c35e7b4"><path class="uuid-deddd8b3-8354-45ff-a70c-cee99ee695b2" d="M16,1c-.80225,0-1.60986.06445-2.40088.19141-.54492.08789-.91602.60059-.82861,1.14551.0791.49219.50342.8418.98584.8418.05273,0,.10645-.00391.16016-.0127.68604-.11035,1.38721-.16602,2.0835-.16602,7.16846,0,13,5.83203,13,13s-5.83154,13-13,13c-.69629,0-1.39746-.05566-2.0835-.16602-.54688-.09082-1.05811.2832-1.146.8291-.0874.54492.28369,1.05762.82861,1.14551.79102.12695,1.59863.19141,2.40088.19141,8.271,0,15-6.72852,15-15S24.271,1,16,1Z"/><path class="uuid-deddd8b3-8354-45ff-a70c-cee99ee695b2" d="M8.29297,15.29297c-.39062.39062-.39062,1.02344,0,1.41406l4.64648,4.64648c.29248.29297.67627.43848,1.06055.43848s.76807-.14551,1.06055-.43848l8.64648-8.64648c.39062-.39062.39062-1.02344,0-1.41406s-1.02344-.39062-1.41406,0l-8.29297,8.29297-4.29297-4.29297c-.39062-.39062-1.02344-.39062-1.41406,0Z"/><path class="uuid-deddd8b3-8354-45ff-a70c-cee99ee695b2" d="M4.5625,8.92188c.31348,0,.62256-.14648.81738-.42188.8999-1.27246,2.00879-2.36328,3.29541-3.24316.45605-.31152.57275-.93359.26123-1.38965-.31104-.45508-.93213-.57324-1.39014-.26074-1.48291,1.01367-2.76123,2.27148-3.79932,3.7373-.31885.45117-.21191,1.0752.23877,1.39453.17529.12402.37695.18359.57666.18359Z"/><path class="uuid-deddd8b3-8354-45ff-a70c-cee99ee695b2" d="M3.2041,13.69238c.09717-.54395-.26416-1.06348-.80811-1.16113-.5415-.09863-1.06299.26465-1.16064.80762-.15625.87207-.23535,1.76758-.23535,2.66113,0,.89746.07959,1.79492.23682,2.66895.0874.48438.5083.82324.9834.82324.05859,0,.11816-.00488.17822-.01562.54346-.09766.90479-.61816.80713-1.16113-.13623-.75781-.20557-1.53613-.20557-2.31543,0-.77539.06885-1.55273.2041-2.30762Z"/><path class="uuid-deddd8b3-8354-45ff-a70c-cee99ee695b2" d="M5.38525,23.50781c-.31934-.45117-.94287-.55762-1.39404-.23828-.45068.31934-.55713.94434-.23779,1.39453,1.03857,1.46582,2.31738,2.72168,3.80225,3.73535.17236.11719.36816.17383.5625.17383.31934,0,.6333-.15234.82715-.43652.31104-.45605.19385-1.07812-.2627-1.38965-1.2876-.87891-2.39697-1.96875-3.29736-3.23926Z"/></g></svg>