<?xml version="1.0" encoding="UTF-8"?><svg xmlns="http://www.w3.org/2000/svg" viewBox="0 0 32 32"><defs><style>.uuid-30a76329-c1a6-4708-b9e0-6899ac7e0c1d{fill:none;}.uuid-30a76329-c1a6-4708-b9e0-6899ac7e0c1d,.uuid-bf536cf0-661b-4226-b21d-3618a741bdee{stroke-width:0px;}.uuid-bf536cf0-661b-4226-b21d-3618a741bdee{fill:#151515;}</style></defs><g id="uuid-5c07d7e9-aa12-4cad-8181-0330c2ea4539"><rect class="uuid-30a76329-c1a6-4708-b9e0-6899ac7e0c1d" width="32" height="32"/></g><g id="uuid-38e52311-9639-4486-8bd8-e638b011c01a"><path class="uuid-bf536cf0-661b-4226-b21d-3618a741bdee" d="M30,29H3v-3c0-.5522-.4473-1-1-1s-1,.4478-1,1v3.5c0,.8271.6729,1.5,1.5,1.5h27.5c.5527,0,1-.4478,1-1s-.4473-1-1-1Z"/><path class="uuid-bf536cf0-661b-4226-b21d-3618a741bdee" d="M2,15c.5527,0,1-.4478,1-1V2c0-.5522-.4473-1-1-1s-1,.4478-1,1v12c0,.5522.4473,1,1,1Z"/><path class="uuid-bf536cf0-661b-4226-b21d-3618a741bdee" d="M2,22c.2559,0,.5117-.0977.707-.293l6.293-6.293,5.9395,5.9395c.584.585,1.5371.585,2.1211,0l13.6465-13.6465c.3906-.3906.3906-1.0234,0-1.4141s-1.0234-.3906-1.4141,0l-13.293,13.293-5.9395-5.9395c-.5664-.5664-1.5547-.5664-2.1211,0l-6.6465,6.6465c-.3906.3906-.3906,1.0234,0,1.4141.1953.1953.4512.293.707.293Z"/></g></svg>