<?xml version="1.0" encoding="UTF-8"?><svg xmlns="http://www.w3.org/2000/svg" width="32" height="32" viewBox="0 0 32 32"><defs><style>.uuid-51aab8f3-694b-41ef-a2b4-3a095dd8a462{fill:none;}.uuid-7f67226a-ee32-4a51-b3b9-e92b1567d9b8{fill:#151515;}</style></defs><g id="uuid-40dabfb8-9768-4b53-93f3-b7507cc2bb17"><rect class="uuid-51aab8f3-694b-41ef-a2b4-3a095dd8a462" width="32" height="32"/></g><g id="uuid-e1c2012d-5c23-47fb-86d4-04b3392ff04f"><path class="uuid-7f67226a-ee32-4a51-b3b9-e92b1567d9b8" d="M3,14c.55273,0,1-.44775,1-1V3c0-.55225-.44727-1-1-1s-1,.44775-1,1v10c0,.55225.44727,1,1,1Z"/><path class="uuid-7f67226a-ee32-4a51-b3b9-e92b1567d9b8" d="M29,28H4v-3c0-.55225-.44727-1-1-1s-1,.44775-1,1v3.5c0,.82715.67285,1.5,1.5,1.5h25.5c.55273,0,1-.44775,1-1s-.44727-1-1-1Z"/><path class="uuid-7f67226a-ee32-4a51-b3b9-e92b1567d9b8" d="M3,21c.25586,0,.51172-.09766.70703-.29297l6.29297-6.29297,5.93945,5.93945c.58398.58496,1.53711.58496,2.12109,0l11.64648-11.64648c.39062-.39062.39062-1.02344,0-1.41406s-1.02344-.39062-1.41406,0l-11.29297,11.29297-5.93945-5.93945c-.58398-.58496-1.53711-.58496-2.12109,0l-6.64648,6.64648c-.39062.39062-.39062,1.02344,0,1.41406.19531.19531.45117.29297.70703.29297Z"/></g></svg>