<?xml version="1.0" encoding="UTF-8"?><svg xmlns="http://www.w3.org/2000/svg" viewBox="0 0 32 32"><defs><style>.uuid-97964235-f48c-46fa-ad86-bd60fe630ffe{fill:none;}.uuid-97964235-f48c-46fa-ad86-bd60fe630ffe,.uuid-1a5eba8e-6d63-41e2-bb3e-13283ddf2bfc{stroke-width:0px;}.uuid-1a5eba8e-6d63-41e2-bb3e-13283ddf2bfc{fill:#151515;}</style></defs><g id="uuid-48183c44-8079-4eda-b69a-9cb0ae8f61e6"><rect class="uuid-97964235-f48c-46fa-ad86-bd60fe630ffe" width="32" height="32"/></g><g id="uuid-bcaa3593-2bc7-429d-8ab9-3933757cb353"><path class="uuid-1a5eba8e-6d63-41e2-bb3e-13283ddf2bfc" d="M29.5,1H2.5c-.8271,0-1.5.6729-1.5,1.5v27c0,.8271.6729,1.5,1.5,1.5h27c.8271,0,1.5-.6729,1.5-1.5V2.5c0-.8271-.6729-1.5-1.5-1.5ZM27.7954,10.7959l-10.6465,10.6465c-.3169.3164-.7329.4746-1.1489.4746s-.832-.1582-1.1489-.4746l-5.8511-5.8516-3.2046,3.2051c-.4395.4395-1.1514.4395-1.5908,0s-.4395-1.1523,0-1.5918l3.6465-3.6465c.6133-.6133,1.6846-.6133,2.2979,0l5.8511,5.8516,10.2046-10.2051c.4395-.4395,1.1514-.4395,1.5908,0s.4395,1.1523,0,1.5918Z"/></g></svg>