<?xml version="1.0" encoding="UTF-8"?><svg xmlns="http://www.w3.org/2000/svg" width="32" height="32" viewBox="0 0 32 32"><defs><style>.uuid-7a25ad5a-8336-4816-b1a2-32240045dcce{fill:none;}.uuid-90b398dc-d6f6-4f9a-852a-5df7952b4d1b{fill:#151515;}</style></defs><g id="uuid-8c178808-421c-4319-bb4e-41e0ac88af56"><rect class="uuid-7a25ad5a-8336-4816-b1a2-32240045dcce" width="32" height="32"/></g><g id="uuid-be979111-e411-468c-a4d8-d84f40f6c02a"><path class="uuid-90b398dc-d6f6-4f9a-852a-5df7952b4d1b" d="M28.5,2H3.5c-.82715,0-1.5.67285-1.5,1.5v25c0,.82715.67285,1.5,1.5,1.5h25c.82715,0,1.5-.67285,1.5-1.5V3.5c0-.82715-.67285-1.5-1.5-1.5ZM26.7959,12.79541l-8.64648,8.64648c-.31738.31689-.7334.4751-1.14941.4751s-.83203-.1582-1.14941-.4751l-5.85059-5.85107-3.2041,3.20459c-.43945.43945-1.15234.43945-1.5918,0-.43848-.43945-.43848-1.15137,0-1.59082l3.64648-3.64648c.63477-.63379,1.66406-.63379,2.29883,0l5.85059,5.85107,8.2041-8.20459c.43945-.43945,1.15234-.43945,1.5918,0,.43848.43945.43848,1.15137,0,1.59082Z"/></g></svg>