<?xml version="1.0" encoding="UTF-8"?><svg xmlns="http://www.w3.org/2000/svg" viewBox="0 0 32 32"><defs><style>.uuid-8834b3fa-851c-4916-93dc-020d61977a89{fill:none;}.uuid-8834b3fa-851c-4916-93dc-020d61977a89,.uuid-c4866c17-3667-4663-b528-9a35fc5ac344{stroke-width:0px;}.uuid-c4866c17-3667-4663-b528-9a35fc5ac344{fill:#151515;}</style></defs><g id="uuid-070e25d6-42e7-4f47-bdd3-5590a50a5758"><rect class="uuid-8834b3fa-851c-4916-93dc-020d61977a89" width="32" height="32"/></g><g id="uuid-c5f14bf5-5e38-4a16-b09a-3e311ea294d4"><path class="uuid-c4866c17-3667-4663-b528-9a35fc5ac344" d="M16,15c-.5527,0-1,.4478-1,1v7c0,.5522.4473,1,1,1s1-.4478,1-1v-7c0-.5522-.4473-1-1-1Z"/><path class="uuid-c4866c17-3667-4663-b528-9a35fc5ac344" d="M16,0C7.1777,0,0,7.1777,0,16s7.1777,16,16,16,16-7.1777,16-16S24.8223,0,16,0ZM16,30c-7.7197,0-14-6.2803-14-14S8.2803,2,16,2s14,6.2803,14,14-6.2803,14-14,14Z"/><circle class="uuid-c4866c17-3667-4663-b528-9a35fc5ac344" cx="16" cy="10.0002" r="1.5"/></g></svg>