<?xml version="1.0" encoding="UTF-8"?><svg xmlns="http://www.w3.org/2000/svg" viewBox="0 0 32 32"><defs><style>.uuid-39112c10-7e67-438c-a10e-fb673cdf434a{fill:none;}.uuid-39112c10-7e67-438c-a10e-fb673cdf434a,.uuid-b9b726d6-1930-49b2-be74-73ce6225ef0b{stroke-width:0px;}.uuid-b9b726d6-1930-49b2-be74-73ce6225ef0b{fill:#151515;}</style></defs><g id="uuid-3b6e76e0-0549-4a89-96ea-340def56f65d"><rect class="uuid-39112c10-7e67-438c-a10e-fb673cdf434a" width="32" height="32"/></g><g id="uuid-f0d3721f-2ac4-4e44-b17b-a88b5611fa91"><path class="uuid-b9b726d6-1930-49b2-be74-73ce6225ef0b" d="M16,0C7.1777,0,0,7.1777,0,16s7.1777,16,16,16,16-7.1777,16-16S24.8223,0,16,0ZM17.25,23c0,.6904-.5596,1.25-1.25,1.25s-1.25-.5596-1.25-1.25v-8c0-.6904.5596-1.25,1.25-1.25s1.25.5596,1.25,1.25v8ZM16,9.5001c-.8284,0-1.5-.6716-1.5-1.5s.6716-1.5,1.5-1.5,1.5.6716,1.5,1.5-.6716,1.5-1.5,1.5Z"/></g></svg>