<?xml version="1.0" encoding="UTF-8"?><svg xmlns="http://www.w3.org/2000/svg" width="32" height="32" viewBox="0 0 32 32"><defs><style>.uuid-86ea5a7b-96f9-4659-8f32-56261ca57336{fill:none;}.uuid-43977fe1-433b-43a5-85fb-d44480c4e91c{fill:#151515;}</style></defs><g id="uuid-7c53950c-0adc-496d-b01c-d0c58185585a"><rect class="uuid-86ea5a7b-96f9-4659-8f32-56261ca57336" width="32" height="32"/></g><g id="uuid-1c983630-0f81-44b7-80bb-df21c81d5008"><path class="uuid-43977fe1-433b-43a5-85fb-d44480c4e91c" d="M16,1C7.72852,1,1,7.729,1,16s6.72852,15,15,15,15-6.729,15-15S24.27148,1,16,1ZM17.5,23c0,.82861-.67188,1.5-1.5,1.5s-1.5-.67139-1.5-1.5v-5.15656l-.1875.03986c-.10547.02246-.21094.0332-.31445.0332-.69238,0-1.31543-.4834-1.46484-1.18848-.17285-.81006.34473-1.60693,1.1543-1.7793l1.95605-.41602c.11176-.0238.22284-.0318.33258-.03033.00818-.00012.01569-.00238.02386-.00238.82812,0,1.5.67139,1.5,1.5v7ZM17.41992,10.41992c-.37988.37012-.88965.58008-1.41992.58008s-1.04004-.20996-1.41016-.58008c-.37988-.37988-.58984-.89014-.58984-1.41992,0-.13037.00977-.26025.04004-.39014.01953-.12988.05957-.25.10938-.37012.05078-.12988.11035-.23975.19043-.3501.07031-.10986.15039-.20996.25-.2998.74023-.75,2.08008-.75,2.83008,0,.08984.08984.16992.18994.24023.2998.08008.11035.13965.22021.18945.3501.0498.12012.08984.24023.11035.37012.03027.12988.04004.25977.04004.39014,0,.52979-.20996,1.04004-.58008,1.41992Z"/></g></svg>