<?xml version="1.0" encoding="UTF-8"?><svg xmlns="http://www.w3.org/2000/svg" width="32" height="32" viewBox="0 0 32 32"><defs><style>.uuid-f0321fa1-1ae6-4af8-b4a3-39dec5321ca7{fill:none;}.uuid-61a5db61-573b-4772-a939-adfaddc6833c{fill:#151515;}</style></defs><g id="uuid-6c93650d-f96c-4f95-8d89-804e334cc415"><rect class="uuid-f0321fa1-1ae6-4af8-b4a3-39dec5321ca7" width="32" height="32"/></g><g id="uuid-4e31890a-95d1-465f-905a-aa68e87157f7"><path class="uuid-61a5db61-573b-4772-a939-adfaddc6833c" d="M16,1C7.72852,1,1,7.729,1,16s6.72852,15,15,15,15-6.729,15-15S24.27148,1,16,1ZM16,29c-7.16797,0-13-5.83154-13-13S8.83203,3,16,3s13,5.83154,13,13-5.83203,13-13,13Z"/><path class="uuid-61a5db61-573b-4772-a939-adfaddc6833c" d="M15.69629,14.77734l-1.95605.41602c-.67578.14355-1.10645.80762-.96289,1.48291.14355.67432.80957,1.10303,1.48242.9624l.49023-.104v5.46533c0,.69043.55957,1.25,1.25,1.25s1.25-.55957,1.25-1.25v-7c0-.77686-.79102-1.37988-1.55371-1.22266Z"/><circle class="uuid-61a5db61-573b-4772-a939-adfaddc6833c" cx="16" cy="10.0022" r="1.75"/></g></svg>