<?xml version="1.0" encoding="UTF-8"?><svg xmlns="http://www.w3.org/2000/svg" width="32" height="32" viewBox="0 0 32 32"><defs><style>.uuid-f07cbe84-a502-44e3-bc1b-7c985f82cda1{fill:none;}.uuid-7118e749-5e30-4e2a-8abf-1d1a788a3f20{fill:#151515;}</style></defs><g id="uuid-e9d22f3d-852b-4eca-8576-ce2766bf71f5"><rect class="uuid-f07cbe84-a502-44e3-bc1b-7c985f82cda1" width="32" height="32"/></g><g id="uuid-735130d9-d1d0-4f51-8571-86c7d41895f5"><rect class="uuid-7118e749-5e30-4e2a-8abf-1d1a788a3f20" x="22" y="22" width="8" height="8" rx="1.25" ry="1.25"/><rect class="uuid-7118e749-5e30-4e2a-8abf-1d1a788a3f20" x="22" y="12" width="8" height="8" rx="1.25" ry="1.25"/><rect class="uuid-7118e749-5e30-4e2a-8abf-1d1a788a3f20" x="2" y="12" width="8" height="8" rx="1.25" ry="1.25"/><rect class="uuid-7118e749-5e30-4e2a-8abf-1d1a788a3f20" x="22" y="2" width="8" height="8" rx="1.25" ry="1.25"/><path class="uuid-7118e749-5e30-4e2a-8abf-1d1a788a3f20" d="M19,7c.55225,0,1-.44727,1-1s-.44775-1-1-1h-2.5c-.82715,0-1.5.67285-1.5,1.5v8.5h-2c-.55225,0-1,.44727-1,1s.44775,1,1,1h2v8.5c0,.82715.67285,1.5,1.5,1.5h2.5c.55225,0,1-.44727,1-1s-.44775-1-1-1h-2v-8h2c.55225,0,1-.44727,1-1s-.44775-1-1-1h-2V7h2Z"/></g></svg>