<?xml version="1.0" encoding="UTF-8"?><svg xmlns="http://www.w3.org/2000/svg" width="32" height="32" viewBox="0 0 32 32"><defs><style>.uuid-ba278135-ac2a-4819-bb2d-a4a5df02035c{fill:none;}.uuid-aab0eed4-7080-457a-bfe4-5e2069aa7fd5{fill:#151515;}</style></defs><g id="uuid-7562f6b8-ba81-4bd7-8cd0-4f740d08d99f"><rect class="uuid-ba278135-ac2a-4819-bb2d-a4a5df02035c" width="32" height="32"/></g><g id="uuid-ef03cb95-a2df-4623-b679-9720e20818b9"><path class="uuid-aab0eed4-7080-457a-bfe4-5e2069aa7fd5" d="M28.75,22h-5.5c-.68945,0-1.25.56055-1.25,1.25v5.5c0,.68945.56055,1.25,1.25,1.25h5.5c.68945,0,1.25-.56055,1.25-1.25v-5.5c0-.68945-.56055-1.25-1.25-1.25ZM28,28h-4v-4h4v4Z"/><path class="uuid-aab0eed4-7080-457a-bfe4-5e2069aa7fd5" d="M28.75,12h-5.5c-.68945,0-1.25.56055-1.25,1.25v5.5c0,.68945.56055,1.25,1.25,1.25h5.5c.68945,0,1.25-.56055,1.25-1.25v-5.5c0-.68945-.56055-1.25-1.25-1.25ZM28,18h-4v-4h4v4Z"/><path class="uuid-aab0eed4-7080-457a-bfe4-5e2069aa7fd5" d="M8.75,12H3.25c-.68945,0-1.25.56055-1.25,1.25v5.5c0,.68945.56055,1.25,1.25,1.25h5.5c.68945,0,1.25-.56055,1.25-1.25v-5.5c0-.68945-.56055-1.25-1.25-1.25ZM8,18h-4v-4h4v4Z"/><path class="uuid-aab0eed4-7080-457a-bfe4-5e2069aa7fd5" d="M28.75,2h-5.5c-.68945,0-1.25.56055-1.25,1.25v5.5c0,.68945.56055,1.25,1.25,1.25h5.5c.68945,0,1.25-.56055,1.25-1.25V3.25c0-.68945-.56055-1.25-1.25-1.25ZM28,8h-4v-4h4v4Z"/><path class="uuid-aab0eed4-7080-457a-bfe4-5e2069aa7fd5" d="M19,7c.55225,0,1-.44727,1-1s-.44775-1-1-1h-2.5c-.82715,0-1.5.67285-1.5,1.5v8.5h-2c-.55225,0-1,.44727-1,1s.44775,1,1,1h2v8.5c0,.82715.67285,1.5,1.5,1.5h2.5c.55225,0,1-.44727,1-1s-.44775-1-1-1h-2v-8h2c.55225,0,1-.44727,1-1s-.44775-1-1-1h-2V7h2Z"/></g></svg>