<?xml version="1.0" encoding="UTF-8"?><svg xmlns="http://www.w3.org/2000/svg" width="32" height="32" viewBox="0 0 32 32"><defs><style>.uuid-348e8180-92ba-40cb-a40d-41bc20009a8c{fill:none;}.uuid-c654a28d-da3d-4014-9e4f-f4ec0139ef39{fill:#151515;}</style></defs><g id="uuid-d94a38dc-1963-40ab-bfed-fcb4807a3cb7"><rect class="uuid-348e8180-92ba-40cb-a40d-41bc20009a8c" width="32" height="32"/></g><g id="uuid-97dfd6a1-2e2d-4da8-84a9-bfed1e2f9c29"><path class="uuid-c654a28d-da3d-4014-9e4f-f4ec0139ef39" d="M19,26h-6c-.55225,0-1,.44775-1,1,0,2.20557,1.79443,4,4,4s4-1.79443,4-4c0-.55225-.44775-1-1-1Z"/><path class="uuid-c654a28d-da3d-4014-9e4f-f4ec0139ef39" d="M25.5,10.5c0-5.23828-4.26172-9.5-9.5-9.5S6.5,5.26172,6.5,10.5c0,2.80109,1.22772,5.44409,3.36737,7.25476l1.07013,5.05579c.146.68896.76318,1.18945,1.46777,1.18945h7.18945c.70459,0,1.32178-.50049,1.46777-1.18945l1.07013-5.05579c2.13965-1.81067,3.36737-4.45367,3.36737-7.25476ZM8.5,10.5c0-4.13574,3.36426-7.5,7.5-7.5s7.5,3.36426,7.5,7.5c0,2.09998-.88196,4.08087-2.41693,5.5h-10.16614c-1.53497-1.41913-2.41693-3.40002-2.41693-5.5Z"/></g></svg>