<?xml version="1.0" encoding="UTF-8"?><svg xmlns="http://www.w3.org/2000/svg" viewBox="0 0 32 32"><defs><style>.uuid-f1ae10e3-1942-482c-b38b-f75012f574dd{fill:none;}.uuid-f1ae10e3-1942-482c-b38b-f75012f574dd,.uuid-f5d18c9b-907e-4850-b0e4-9627a1890b01{stroke-width:0px;}.uuid-f5d18c9b-907e-4850-b0e4-9627a1890b01{fill:#151515;}</style></defs><g id="uuid-b6a5f03d-ce54-409a-b5d5-e5cb2d882a44"><rect class="uuid-f1ae10e3-1942-482c-b38b-f75012f574dd" width="32" height="32"/></g><g id="uuid-47fc8ea2-73f2-4c1e-afd1-1ed05cc1acd5"><path class="uuid-f5d18c9b-907e-4850-b0e4-9627a1890b01" d="M19,27h-6c-.5527,0-1,.4478-1,1,0,2.2056,1.7939,4,4,4s4-1.7944,4-4c0-.5522-.4473-1-1-1ZM16,30c-.7393,0-1.3857-.4028-1.7314-1h3.4629c-.3457.5972-.9922,1-1.7314,1Z"/><path class="uuid-f5d18c9b-907e-4850-b0e4-9627a1890b01" d="M26,10c0-5.5142-4.4863-10-10-10S6,4.4858,6,10c0,2.7233,1.0941,5.2731,3.0209,7.1406.0032.0228-.0042.0445.0006.0674l1.3223,6.209c.1953.917,1.0186,1.583,1.9561,1.583h7.4004c.9375,0,1.7607-.666,1.957-1.584l1.3213-6.208c.0048-.0229-.0026-.0446.0007-.0674,1.9268-1.8676,3.0208-4.4174,3.0208-7.1406ZM8,10c0-4.4111,3.5889-8,8-8s8,3.5889,8,8c0,2.3208-.9883,4.4883-2.7227,6h-10.5547c-1.7344-1.5117-2.7227-3.6792-2.7227-6ZM12.2998,23l-1.0642-5h9.5288l-1.0642,5h-7.4004Z"/></g></svg>