<?xml version="1.0" encoding="UTF-8"?><svg xmlns="http://www.w3.org/2000/svg" viewBox="0 0 32 32"><defs><style>.uuid-6d414689-395c-4eba-bd84-2a6ba002eb3a{fill:none;}.uuid-6d414689-395c-4eba-bd84-2a6ba002eb3a,.uuid-4b4dadb9-5058-43dc-82b9-1579dbf58ee0{stroke-width:0px;}.uuid-4b4dadb9-5058-43dc-82b9-1579dbf58ee0{fill:#151515;}</style></defs><g id="uuid-9ff0b1a8-0475-4c53-80bf-d55dd97a7429"><rect class="uuid-6d414689-395c-4eba-bd84-2a6ba002eb3a" width="32" height="32"/></g><g id="uuid-38ae8a57-9949-4d02-a3b2-21ef476b1f2d"><path class="uuid-4b4dadb9-5058-43dc-82b9-1579dbf58ee0" d="M19,27.25h-6c-.4141,0-.75.3359-.75.75,0,2.0674,1.6826,3.75,3.75,3.75s3.75-1.6826,3.75-3.75c0-.4141-.3359-.75-.75-.75Z"/><path class="uuid-4b4dadb9-5058-43dc-82b9-1579dbf58ee0" d="M26,10c0-5.5137-4.4863-10-10-10S6,4.4863,6,10c0,2.7241,1.0945,5.2742,3.0224,7.1418.0032.0222-.0056.0441-.0009.0662l1.3223,6.209c.1953.917,1.0186,1.583,1.9561,1.583h7.4004c.9375,0,1.7607-.666,1.957-1.584l1.3213-6.208c.0047-.0221-.0041-.0439-.0009-.0662,1.9279-1.8676,3.0224-4.4177,3.0224-7.1418ZM8,10c0-4.4111,3.5889-8,8-8s8,3.5889,8,8c0,2.3213-.9883,4.4883-2.7227,6h-10.5547c-1.7344-1.5117-2.7227-3.6787-2.7227-6Z"/></g></svg>