<?xml version="1.0" encoding="UTF-8"?><svg xmlns="http://www.w3.org/2000/svg" width="32" height="32" viewBox="0 0 32 32"><defs><style>.uuid-b6e1765b-c91a-42a2-93ff-2568bdbb7218{fill:none;}.uuid-ef2134ef-51c5-478a-bc82-5637f2d3b9bb{fill:#151515;}</style></defs><g id="uuid-07f21187-96d3-4f76-abca-80a3369e1e3b"><rect class="uuid-b6e1765b-c91a-42a2-93ff-2568bdbb7218" width="32" height="32"/></g><g id="uuid-c075aeee-d6d0-4dfd-a9b8-74e0a26fa8f2"><path class="uuid-ef2134ef-51c5-478a-bc82-5637f2d3b9bb" d="M14.93945,12.35352c.29248.29248.67627.43848,1.06055.43848s.76807-.146,1.06055-.43848l3.64648-3.64648c.39062-.39062.39062-1.02344,0-1.41406s-1.02344-.39062-1.41406,0l-2.29297,2.29297V2c0-.55225-.44775-1-1-1s-1,.44775-1,1v7.58594l-2.29297-2.29297c-.39062-.39062-1.02344-.39062-1.41406,0s-.39062,1.02344,0,1.41406l3.64648,3.64648Z"/><path class="uuid-ef2134ef-51c5-478a-bc82-5637f2d3b9bb" d="M29.5,16H2.5c-.82715,0-1.5.67285-1.5,1.5v11c0,.82715.67285,1.5,1.5,1.5h27c.82715,0,1.5-.67285,1.5-1.5v-11c0-.82715-.67285-1.5-1.5-1.5ZM13,24.125h-5c-.62109,0-1.125-.50391-1.125-1.125s.50391-1.125,1.125-1.125h5c.62109,0,1.125.50391,1.125,1.125s-.50391,1.125-1.125,1.125ZM23.00488,24.89117c-1.03552,0-1.875-.83948-1.875-1.875s.83948-1.875,1.875-1.875,1.875.83948,1.875,1.875-.83948,1.875-1.875,1.875Z"/></g></svg>