<?xml version="1.0" encoding="UTF-8"?><svg xmlns="http://www.w3.org/2000/svg" width="32" height="32" viewBox="0 0 32 32"><defs><style>.uuid-de13d3b9-2e05-4d10-a10e-6f71b9f2e40b{fill:none;}.uuid-bf1e8aa8-366e-4908-9725-4b7fa246d3c6{fill:#151515;}</style></defs><g id="uuid-609d9f6f-7838-4761-b200-1f48ef3a70de"><rect class="uuid-de13d3b9-2e05-4d10-a10e-6f71b9f2e40b" width="32" height="32"/></g><g id="uuid-6c41b125-ed92-4026-8da0-32a97f2b33f4"><path class="uuid-bf1e8aa8-366e-4908-9725-4b7fa246d3c6" d="M29.5,16H2.5c-.82715,0-1.5.67285-1.5,1.5v11c0,.82715.67285,1.5,1.5,1.5h27c.82715,0,1.5-.67285,1.5-1.5v-11c0-.82715-.67285-1.5-1.5-1.5ZM29,28H3v-10h26v10Z"/><path class="uuid-bf1e8aa8-366e-4908-9725-4b7fa246d3c6" d="M8,24h5c.55225,0,1-.44775,1-1s-.44775-1-1-1h-5c-.55225,0-1,.44775-1,1s.44775,1,1,1Z"/><path class="uuid-bf1e8aa8-366e-4908-9725-4b7fa246d3c6" d="M14.93945,12.35352c.29248.29248.67627.43848,1.06055.43848s.76807-.146,1.06055-.43848l3.64648-3.64648c.39062-.39062.39062-1.02344,0-1.41406s-1.02344-.39062-1.41406,0l-2.29297,2.29297V2c0-.55225-.44775-1-1-1s-1,.44775-1,1v7.58594l-2.29297-2.29297c-.39062-.39062-1.02344-.39062-1.41406,0s-.39062,1.02344,0,1.41406l3.64648,3.64648Z"/><circle class="uuid-bf1e8aa8-366e-4908-9725-4b7fa246d3c6" cx="23.00488" cy="23.01489" r="1.625"/></g></svg>