<?xml version="1.0" encoding="UTF-8"?><svg xmlns="http://www.w3.org/2000/svg" viewBox="0 0 32 32"><defs><style>.uuid-85cc86ef-8347-4fe7-a225-666a216177ea{fill:none;}.uuid-85cc86ef-8347-4fe7-a225-666a216177ea,.uuid-7e6b8ac3-6147-420d-b3f5-ce77c316d5ae{stroke-width:0px;}.uuid-7e6b8ac3-6147-420d-b3f5-ce77c316d5ae{fill:#151515;}</style></defs><g id="uuid-2f3e0515-61f9-46a1-872e-57b1f9d8ef66"><rect class="uuid-85cc86ef-8347-4fe7-a225-666a216177ea" width="32" height="32"/></g><g id="uuid-c1e968cf-3d81-4d42-8687-edfb01a641d5"><path class="uuid-7e6b8ac3-6147-420d-b3f5-ce77c316d5ae" d="M7,26h5c.5527,0,1-.4478,1-1s-.4473-1-1-1h-5c-.5527,0-1,.4478-1,1s.4473,1,1,1Z"/><path class="uuid-7e6b8ac3-6147-420d-b3f5-ce77c316d5ae" d="M29.5,19H2.5c-.8271,0-1.5.6729-1.5,1.5v9c0,.8271.6729,1.5,1.5,1.5h27c.8271,0,1.5-.6729,1.5-1.5v-9c0-.8271-.6729-1.5-1.5-1.5ZM29,29H3v-8h26v8Z"/><path class="uuid-7e6b8ac3-6147-420d-b3f5-ce77c316d5ae" d="M14.9395,15.5605c.292.2925.6768.4385,1.0605.4385s.7686-.146,1.0605-.4385l4.6465-4.6465c.3906-.3906.3906-1.0234,0-1.4141s-1.0234-.3906-1.4141,0l-3.293,3.293V2.207c0-.5522-.4473-1-1-1s-1,.4478-1,1v10.5859l-3.293-3.293c-.3906-.3906-1.0234-.3906-1.4141,0s-.3906,1.0234,0,1.4141l4.6465,4.6465Z"/><circle class="uuid-7e6b8ac3-6147-420d-b3f5-ce77c316d5ae" cx="25" cy="25.0002" r="1.5"/></g></svg>