<?xml version="1.0" encoding="UTF-8"?><svg xmlns="http://www.w3.org/2000/svg" viewBox="0 0 32 32"><defs><style>.uuid-e75d2a34-68d3-4124-a90c-36b5ecef8d5e{fill:none;}.uuid-e75d2a34-68d3-4124-a90c-36b5ecef8d5e,.uuid-ad2c5f57-a722-4237-9521-1bd53b5cf239{stroke-width:0px;}.uuid-ad2c5f57-a722-4237-9521-1bd53b5cf239{fill:#151515;}</style></defs><g id="uuid-28eb2804-650f-4332-b6b5-78d0a96292de"><rect class="uuid-e75d2a34-68d3-4124-a90c-36b5ecef8d5e" width="32" height="32"/></g><g id="uuid-7e86b564-a611-43bf-8480-e29d3b0add8e"><path class="uuid-ad2c5f57-a722-4237-9521-1bd53b5cf239" d="M14.9395,15.5605c.2925.293.6763.4385,1.0605.4385s.7681-.1455,1.0605-.4385l4.6465-4.6465c.3906-.3906.3906-1.0234,0-1.4141s-1.0234-.3906-1.4141,0l-3.293,3.293V2.207c0-.5527-.4478-1-1-1s-1,.4473-1,1v10.5859l-3.293-3.293c-.3906-.3906-1.0234-.3906-1.4141,0s-.3906,1.0234,0,1.4141l4.6465,4.6465Z"/><path class="uuid-ad2c5f57-a722-4237-9521-1bd53b5cf239" d="M29.5,19.25H2.5c-.6895,0-1.25.5605-1.25,1.25v9c0,.6895.5605,1.25,1.25,1.25h27c.6895,0,1.25-.5605,1.25-1.25v-9c0-.6895-.5605-1.25-1.25-1.25ZM12,26.125h-5c-.6211,0-1.125-.5039-1.125-1.125s.5039-1.125,1.125-1.125h5c.6211,0,1.125.5039,1.125,1.125s-.5039,1.125-1.125,1.125ZM25,26.5001c-.8284,0-1.5-.6716-1.5-1.5s.6716-1.5,1.5-1.5,1.5.6716,1.5,1.5-.6716,1.5-1.5,1.5Z"/></g></svg>