<?xml version="1.0" encoding="UTF-8"?><svg xmlns="http://www.w3.org/2000/svg" width="32" height="32" viewBox="0 0 32 32"><defs><style>.uuid-6175d3f7-2818-479e-97cd-750b6886f0de{fill:none;}.uuid-66792f1f-4561-4050-82fd-c297f20e0d11{fill:#151515;}</style></defs><g id="uuid-ba958680-8bf1-4c75-b909-6d9a064d1073"><rect class="uuid-6175d3f7-2818-479e-97cd-750b6886f0de" width="32" height="32"/></g><g id="uuid-e1af28a4-985d-4836-a0aa-d0d44d4816c8"><path class="uuid-66792f1f-4561-4050-82fd-c297f20e0d11" d="M30.70703,6.29297l-2.64648-2.64648c-.58496-.58496-1.53613-.58496-2.12109,0l-13.64648,13.64648c-.03741.03741-.05396.08539-.08423.12683-1.17303-.88696-2.62811-1.4198-4.20874-1.4198-3.85986,0-7,3.14014-7,7s3.14014,7,7,7,7-3.14014,7-7c0-1.58063-.53284-3.03571-1.4198-4.20874.0415-.03027.08942-.04681.12683-.08423l4.29297-4.29297,2.29297,2.29297c.19531.19531.45117.29297.70703.29297s.51172-.09766.70703-.29297c.39062-.39062.39062-1.02344,0-1.41406l-2.29297-2.29297,3.08594-3.08594,3.79297,3.79297c.19531.19531.45117.29297.70703.29297s.51172-.09766.70703-.29297c.39062-.39062.39062-1.02344,0-1.41406l-3.79297-3.79297,3.08594-3.08594,2.29297,2.29297c.39062.39062,1.02344.39062,1.41406,0s.39062-1.02344,0-1.41406ZM8,28c-2.75684,0-5-2.24316-5-5s2.24316-5,5-5,5,2.24316,5,5-2.24316,5-5,5Z"/></g></svg>