<?xml version="1.0" encoding="UTF-8"?><svg xmlns="http://www.w3.org/2000/svg" width="32" height="32" viewBox="0 0 32 32"><defs><style>.uuid-7654f23d-c6c0-424e-9e83-0d5662327245{fill:none;}.uuid-84f93c0c-ac10-443f-a850-27faacddb6af{fill:#151515;}</style></defs><g id="uuid-fb3e855a-803c-4665-aa1d-f08616e24066"><rect class="uuid-7654f23d-c6c0-424e-9e83-0d5662327245" width="32" height="32"/></g><g id="uuid-3587f56d-8059-432e-8985-6bff5dc2a7cd"><path class="uuid-84f93c0c-ac10-443f-a850-27faacddb6af" d="M28.12451,13c-.55225,0-1,.44727-1,1v8.42285l-11.62451,6.71094c-.47852.27637-.64209.8877-.36621,1.36621.18555.32129.52148.5.86719.5.16943,0,.3418-.04297.49902-.13379l12.12451-7c.30957-.17871.5-.50879.5-.86621v-9c0-.55273-.44775-1-1-1Z"/><path class="uuid-84f93c0c-ac10-443f-a850-27faacddb6af" d="M3.87549,21c.55225,0,1-.44727,1-1v-10.42285l11.12451-6.42285,1.5.86621c.47949.27539,1.08984.11035,1.36621-.36621.27588-.47852.11182-1.08984-.36621-1.36621l-2-1.1543c-.31006-.17871-.69092-.17676-1,0L3.37549,8.13379c-.30957.17871-.5.50879-.5.86621v11c0,.55273.44775,1,1,1Z"/><path class="uuid-84f93c0c-ac10-443f-a850-27faacddb6af" d="M12.92291,24.61792c-.05084-.12274-.12415-.23346-.21674-.32581l-2.99915-2.99915c-.28662-.28711-.7168-.37305-1.08984-.2168-.37354.1543-.61719.51953-.61719.92383v2H2c-.55225,0-1,.44727-1,1s.44775,1,1,1h6v2c0,.4043.24365.76953.61719.92383.12402.05176.25391.07617.38281.07617.26025,0,.51562-.10156.70703-.29297l2.99915-2.99915c.09259-.09235.16589-.20306.21667-.32581.10107-.24438.10114-.51978.00006-.76416Z"/><path class="uuid-84f93c0c-ac10-443f-a850-27faacddb6af" d="M30.92285,7.38208c.10107-.24438.10114-.51978.00006-.76416-.05084-.12274-.12415-.23346-.21674-.32581l-2.99915-2.99915c-.28662-.28613-.7168-.37305-1.08984-.2168-.37354.1543-.61719.51953-.61719.92383v2h-6c-.55225,0-1,.44727-1,1s.44775,1,1,1h6v2c0,.4043.24365.76953.61719.92383.12402.05176.25391.07617.38281.07617.26025,0,.51562-.10156.70703-.29297l2.99915-2.99915c.09259-.09235.16589-.20306.21667-.32581Z"/></g></svg>