<?xml version="1.0" encoding="UTF-8"?><svg xmlns="http://www.w3.org/2000/svg" width="32" height="32" viewBox="0 0 32 32"><defs><style>.uuid-cd43d184-bb17-4e10-a1cc-7d9313a4f377{fill:none;}.uuid-feb5e9d9-fc71-48d6-a197-e88e29c6273e{fill:#151515;}</style></defs><g id="uuid-454e33e4-b7fc-4953-99df-4e9607bf2a80"><rect class="uuid-cd43d184-bb17-4e10-a1cc-7d9313a4f377" width="32" height="32"/></g><g id="uuid-28b25230-f7f0-4def-bc55-573a14d16732"><path class="uuid-feb5e9d9-fc71-48d6-a197-e88e29c6273e" d="M27.67627,25.78271l-3.20068-7.18945c-.00037-.00073-.00092-.00134-.00128-.00208l-3.4743-7.80359V3h1c.55225,0,1-.44775,1-1s-.44775-1-1-1h-1.5c-.82715,0-1.5.67285-1.5,1.5v8.5c0,.14014.0293.27881.08643.40674l2.93536,6.59326h-12.04358l2.93536-6.59326c.05713-.12793.08643-.2666.08643-.40674V2.5c0-.82715-.67285-1.5-1.5-1.5h-1.5c-.55225,0-1,.44775-1,1s.44775,1,1,1h1v7.7876l-3.4743,7.80359c-.00037.00073-.00092.00134-.00128.00208l-3.20068,7.18945c-.51318,1.15186-.40918,2.4707.27734,3.52832.08582.1322.17908.25775.27905.37622.69965.82935,1.72772,1.31274,2.8313,1.31274h16.57715c1.10358,0,2.13165-.4834,2.8313-1.31274.09998-.11847.19324-.24402.27905-.37622.68652-1.05762.79053-2.37646.27734-3.52832Z"/></g></svg>