<?xml version="1.0" encoding="UTF-8"?><svg xmlns="http://www.w3.org/2000/svg" viewBox="0 0 32 32"><defs><style>.uuid-cef7f141-5035-415d-85bd-c0b7f09a9c13{fill:none;}.uuid-cef7f141-5035-415d-85bd-c0b7f09a9c13,.uuid-9cc4e2ee-2f1f-4be1-8d2a-f03ec2f74c3a{stroke-width:0px;}.uuid-9cc4e2ee-2f1f-4be1-8d2a-f03ec2f74c3a{fill:#151515;}</style></defs><g id="uuid-322dcffe-ad7e-49a7-a9c0-10490826a76f"><rect class="uuid-cef7f141-5035-415d-85bd-c0b7f09a9c13" width="32" height="32"/></g><g id="uuid-d6d94f49-6a04-4d85-9a34-45e2374f7b25"><path class="uuid-9cc4e2ee-2f1f-4be1-8d2a-f03ec2f74c3a" d="M28.0342,25.374l-3.46-7.7803c-.0005-.001-.0013-.0018-.0018-.0029l-3.5724-8.0137V3h1c.5527,0,1-.4473,1-1s-.4473-1-1-1h-1.5c-.8271,0-1.5.6729-1.5,1.5v7.29c0,.1406.0293.2793.0869.4072l3.0328,6.8027h-12.2394l3.0328-6.8027c.0576-.1279.0869-.2666.0869-.4072V2.5c0-.8271-.6729-1.5-1.5-1.5h-1.5098c-.5527,0-1,.4473-1,1s.4473,1,1,1h1.0098v6.5771l-3.5724,8.0137c-.0005.001-.0013.0018-.0018.0029l-3.46,7.7803c-.5518,1.2412-.4385,2.6641.3037,3.8057.7402,1.1396,1.9932,1.8203,3.3506,1.8203h16.7598c1.3574,0,2.6104-.6807,3.3506-1.8203.7422-1.1416.8555-2.5645.3037-3.8057Z"/></g></svg>