<?xml version="1.0" encoding="UTF-8"?><svg xmlns="http://www.w3.org/2000/svg" viewBox="0 0 32 32"><defs><style>.uuid-e9dbb908-9e42-4769-9557-2be6c99f347c{fill:none;}.uuid-e9dbb908-9e42-4769-9557-2be6c99f347c,.uuid-8f45a92d-e19a-470b-acd7-11539fd8f36d{stroke-width:0px;}.uuid-8f45a92d-e19a-470b-acd7-11539fd8f36d{fill:#151515;}</style></defs><g id="uuid-d744ca65-4fc7-4194-8a1e-440ce4a912df"><rect class="uuid-e9dbb908-9e42-4769-9557-2be6c99f347c" x="0" width="32" height="32"/></g><g id="uuid-2ab3748f-1d63-4136-926e-8b33e5bc73d2"><path class="uuid-8f45a92d-e19a-470b-acd7-11539fd8f36d" d="M28.0347,25.373l-7.0347-15.7998V3h1c.5522,0,1-.4478,1-1s-.4478-1-1-1h-1.5c-.8271,0-1.5.6729-1.5,1.5v7.2856c0,.1401.0293.2788.0864.4067l3.0309,6.8076h-12.2347l3.0309-6.8076c.0571-.1279.0864-.2666.0864-.4067V2.5c0-.8271-.6729-1.5-1.5-1.5h-1.5098c-.5522,0-1,.4478-1,1s.4478,1,1,1h1.0098v6.5732l-7.0347,15.7998c-.5532,1.2422-.4409,2.665.2998,3.8057.7402,1.1401,1.9946,1.8213,3.3545,1.8213h16.7607c1.3599,0,2.6143-.6812,3.3545-1.8213.7407-1.1406.853-2.5635.2998-3.8057ZM26.0576,28.0894c-.376.5786-.9873.9106-1.6772.9106H7.6196c-.6899,0-1.3013-.332-1.6772-.9106-.376-.5791-.4307-1.2725-.1499-1.9028l3.1996-7.1865h14.0157l3.1996,7.1865c.2808.6304.2261,1.3237-.1499,1.9028Z"/></g></svg>