<?xml version="1.0" encoding="UTF-8"?><svg xmlns="http://www.w3.org/2000/svg" width="32" height="32" viewBox="0 0 32 32"><defs><style>.uuid-091fbaa5-0259-446c-9970-dacca3d6549d{fill:none;}.uuid-5e717e95-2404-45eb-9b7f-d517b64c2df0{fill:#151515;}</style></defs><g id="uuid-afbde171-7031-4539-a43d-f2f023c0be6a"><rect class="uuid-091fbaa5-0259-446c-9970-dacca3d6549d" width="32" height="32"/></g><g id="uuid-660f4cf4-2f77-4b3e-a5fd-bc5a4f57ffa2"><path class="uuid-5e717e95-2404-45eb-9b7f-d517b64c2df0" d="M27.67627,25.7832l-6.67627-14.99561V3h1c.55225,0,1-.44775,1-1s-.44775-1-1-1h-1.5c-.82715,0-1.5.67285-1.5,1.5v8.5c0,.14014.0293.27881.08643.40674l2.93536,6.59326h-12.04358l2.93536-6.59326c.05713-.12793.08643-.2666.08643-.40674V2.5c0-.82715-.67285-1.5-1.5-1.5h-1.5c-.55225,0-1,.44775-1,1s.44775,1,1,1h1v7.7876l-6.67627,14.99561c-.5127,1.15137-.40918,2.47021.27734,3.52783s1.84912,1.68896,3.11035,1.68896h16.57715c1.26123,0,2.42383-.63135,3.11035-1.68896s.79004-2.37646.27734-3.52783ZM25.72168,28.22168c-.32129.49463-.84326.77832-1.43311.77832H7.71143c-.58984,0-1.11182-.28369-1.43311-.77832-.3208-.49414-.36719-1.08643-.12744-1.625l2.93689-6.59668h13.82446l2.93689,6.59668c.23975.53857.19336,1.13086-.12744,1.625Z"/></g></svg>