<?xml version="1.0" encoding="UTF-8"?><svg xmlns="http://www.w3.org/2000/svg" viewBox="0 0 32 32"><defs><style>.uuid-cb2108ab-6d50-4b82-8aa8-642420097692{fill:none;}.uuid-cb2108ab-6d50-4b82-8aa8-642420097692,.uuid-3c69b636-2197-4129-8cf6-6dde37f938fb{stroke-width:0px;}.uuid-3c69b636-2197-4129-8cf6-6dde37f938fb{fill:#151515;}</style></defs><g id="uuid-01c65e8d-6f8b-4292-8b26-5221b26fe86f"><rect class="uuid-cb2108ab-6d50-4b82-8aa8-642420097692" x="0" width="32" height="32"/></g><g id="uuid-0eebd2d2-6a03-4668-b7cf-18648dec762f"><path class="uuid-3c69b636-2197-4129-8cf6-6dde37f938fb" d="M16,0C7.1777,0,0,7.1777,0,16s7.1777,16,16,16,16-7.1777,16-16S24.8223,0,16,0ZM16,30c-.092,0-.181-.012-.2726-.0138-1.975-2.4375-3.4122-5.2419-4.215-8.2362h8.9752c-.8028,2.9943-2.24,5.7987-4.215,8.2362-.0916.0018-.1805.0138-.2726.0138ZM11.1729,20.25c-.2719-1.393-.4229-2.814-.4229-4.25s.151-2.857.4229-4.25h9.6542c.2719,1.393.4229,2.814.4229,4.25s-.1509,2.857-.4229,4.25h-9.6542ZM2,16c0-1.4818.2355-2.9086.664-4.25h6.9725c-.2543,1.3946-.3865,2.8164-.3865,4.25s.1322,2.8554.3865,4.25H2.664c-.4285-1.3414-.664-2.7682-.664-4.25ZM16,2c.092,0,.181.012.2726.0138,1.975,2.4375,3.4122,5.2419,4.215,8.2362h-8.9752c.8028-2.9943,2.24-5.7987,4.215-8.2362.0916-.0018.1805-.0138.2726-.0138ZM22.3635,11.75h6.9725c.4285,1.3414.664,2.7682.664,4.25s-.2355,2.9086-.664,4.25h-6.9725c.2543-1.3946.3865-2.8164.3865-4.25s-.1322-2.8554-.3865-4.25ZM28.7505,10.25h-6.7265c-.7198-2.8764-1.9589-5.6093-3.6942-8.0398,4.6542.7847,8.5299,3.8643,10.4207,8.0398ZM13.6701,2.2102c-1.7352,2.4305-2.9744,5.1634-3.6942,8.0398H3.2495c1.8907-4.1755,5.7665-7.2551,10.4207-8.0398ZM3.2495,21.75h6.7265c.7198,2.8764,1.9589,5.6093,3.6942,8.0398-4.6542-.7847-8.5299-3.8643-10.4207-8.0398ZM18.3299,29.7898c1.7352-2.4305,2.9744-5.1634,3.6942-8.0398h6.7265c-1.8907,4.1755-5.7665,7.2551-10.4207,8.0398Z"/></g></svg>