<?xml version="1.0" encoding="UTF-8"?><svg xmlns="http://www.w3.org/2000/svg" width="32" height="32" viewBox="0 0 32 32"><defs><style>.uuid-4a83f368-6848-48a8-9da5-1a3be5ba99e0{fill:none;}.uuid-e89ce729-914f-490a-a2cd-7dc11af72758{fill:#151515;}</style></defs><g id="uuid-b661242d-9803-41a3-8bac-5db03fb4c8d9"><rect class="uuid-4a83f368-6848-48a8-9da5-1a3be5ba99e0" width="32" height="32"/></g><g id="uuid-a4261d1c-edea-4150-a02a-c59e6eb91f40"><path class="uuid-e89ce729-914f-490a-a2cd-7dc11af72758" d="M20.51721,12h-9.03442c-.23212,1.31525-.35779,2.65228-.35779,4s.12561,2.68469.35779,4h9.03442c.23218-1.31531.35779-2.65228.35779-4s-.12567-2.68475-.35779-4Z"/><path class="uuid-e89ce729-914f-490a-a2cd-7dc11af72758" d="M8.875,16c0-1.3468.12628-2.68176.33789-4H1.55811c-.35394,1.2757-.55811,2.61316-.55811,4s.20416,2.7243.55811,4h7.65479c-.21161-1.31824-.33789-2.6532-.33789-4Z"/><path class="uuid-e89ce729-914f-490a-a2cd-7dc11af72758" d="M11.93225,22c.79688,2.95728,2.16681,5.75708,4.06775,8.22266,1.90094-2.46558,3.27087-5.26538,4.06775-8.22266h-8.1355Z"/><path class="uuid-e89ce729-914f-490a-a2cd-7dc11af72758" d="M20.06775,10c-.79688-2.95728-2.16681-5.75708-4.06775-8.22266-1.90094,2.46558-3.27087,5.26538-4.06775,8.22266h8.1355Z"/><path class="uuid-e89ce729-914f-490a-a2cd-7dc11af72758" d="M22.37878,22c-.76703,3.13977-2.11389,6.12823-4.01068,8.79437,5.10388-.81494,9.35608-4.19965,11.37073-8.79437h-7.36005Z"/><path class="uuid-e89ce729-914f-490a-a2cd-7dc11af72758" d="M9.62122,22H2.26117c2.01465,4.59473,6.26685,7.97943,11.37073,8.79437-1.89679-2.66614-3.24365-5.6546-4.01068-8.79437Z"/><path class="uuid-e89ce729-914f-490a-a2cd-7dc11af72758" d="M9.62122,10c.76703-3.13977,2.11389-6.12823,4.01068-8.79437-5.10388.81494-9.35608,4.19965-11.37073,8.79437h7.36005Z"/><path class="uuid-e89ce729-914f-490a-a2cd-7dc11af72758" d="M30.44189,20c.35394-1.2757.55811-2.61316.55811-4s-.20416-2.7243-.55811-4h-7.65479c.21161,1.31824.33789,2.6532.33789,4s-.12628,2.68176-.33789,4h7.65479Z"/><path class="uuid-e89ce729-914f-490a-a2cd-7dc11af72758" d="M22.37878,10h7.36005c-2.01465-4.59473-6.26685-7.97943-11.37073-8.79437,1.89679,2.66614,3.24365,5.6546,4.01068,8.79437Z"/></g></svg>