<?xml version="1.0" encoding="UTF-8"?><svg xmlns="http://www.w3.org/2000/svg" viewBox="0 0 32 32"><defs><style>.uuid-c15a19ac-cc75-4b0e-bd55-72212acf03b7{fill:none;}.uuid-c15a19ac-cc75-4b0e-bd55-72212acf03b7,.uuid-1d1e573e-cea9-4c20-9114-308fae34299d{stroke-width:0px;}.uuid-1d1e573e-cea9-4c20-9114-308fae34299d{fill:#151515;}</style></defs><g id="uuid-9a0f4d7f-46e1-4860-acc4-3ddb5decea1a"><rect class="uuid-c15a19ac-cc75-4b0e-bd55-72212acf03b7" x="0" width="32" height="32"/></g><g id="uuid-bb396930-f962-412f-a569-6065d6d2f261"><path class="uuid-1d1e573e-cea9-4c20-9114-308fae34299d" d="M11.4885,21.75c.8303,3.2536,2.3636,6.2974,4.511,8.9293,2.1487-2.6329,3.6813-5.6749,4.5112-8.9293h-9.0222Z"/><path class="uuid-1d1e573e-cea9-4c20-9114-308fae34299d" d="M22.0493,10.25h8.8644C28.7004,4.5308,23.3005.4033,16.8975.0455c2.5108,2.9724,4.2593,6.4675,5.1519,10.2045Z"/><path class="uuid-1d1e573e-cea9-4c20-9114-308fae34299d" d="M31.3787,11.6325c-.1128.0679-.2375.1175-.3787.1175h-8.6257c.2428,1.3951.3757,2.8154.3757,4.25,0,1.4354-.1344,2.8552-.3769,4.25h8.6269c.1412,0,.2659.0496.3787.1175.3956-1.3904.6213-2.8519.6213-4.3675s-.2256-2.9771-.6213-4.3675Z"/><path class="uuid-1d1e573e-cea9-4c20-9114-308fae34299d" d="M21.25,16c0-1.4357-.1346-2.8574-.3931-4.25h-9.7162c-.2581,1.3918-.3906,2.8137-.3906,4.25s.1346,2.8574.3932,4.25h9.7162c.2581-1.3918.3906-2.8137.3906-4.25Z"/><path class="uuid-1d1e573e-cea9-4c20-9114-308fae34299d" d="M9.9508,10.25C10.8425,6.5137,12.5863,3.0187,15.0945.0459,8.695.4067,3.2986,4.5332,1.0864,10.25h8.8644Z"/><path class="uuid-1d1e573e-cea9-4c20-9114-308fae34299d" d="M22.0493,21.75c-.8917,3.7363-2.6356,7.2313-5.1437,10.2041,6.3995-.3608,11.7959-4.4873,14.0082-10.2041h-8.8644Z"/><path class="uuid-1d1e573e-cea9-4c20-9114-308fae34299d" d="M9.9507,21.75H1.0864c2.2133,5.7192,7.6132,9.8467,14.0162,10.2045-2.5108-2.9724-4.2593-6.4675-5.1519-10.2045Z"/><path class="uuid-1d1e573e-cea9-4c20-9114-308fae34299d" d="M1,20.25h8.6258c-.2428-1.3951-.3758-2.8154-.3758-4.25,0-1.4354.1345-2.8552.377-4.25H1c-.1412,0-.2659-.0496-.3787-.1175-.3956,1.3904-.6213,2.8519-.6213,4.3675s.2256,2.9771.6213,4.3675c.1128-.0679.2375-.1175.3787-.1175Z"/><path class="uuid-1d1e573e-cea9-4c20-9114-308fae34299d" d="M20.5115,10.25c-.8303-3.2536-2.3636-6.2974-4.511-8.9293-2.1487,2.6329-3.6813,5.6749-4.5112,8.9293h9.0222Z"/></g></svg>