<?xml version="1.0" encoding="UTF-8"?><svg xmlns="http://www.w3.org/2000/svg" width="32" height="32" viewBox="0 0 32 32"><defs><style>.uuid-dd8d5123-128d-43d7-a91d-618371e23750{fill:none;}.uuid-bdf096a4-48e8-4d97-909c-48eed7af88e9{fill:#151515;}</style></defs><g id="uuid-435cca81-1256-4838-8ddf-c2463e233931"><rect class="uuid-dd8d5123-128d-43d7-a91d-618371e23750" width="32" height="32"/></g><g id="uuid-50c6fef0-290a-4eaa-bfe9-aa1438dc5b82"><path class="uuid-bdf096a4-48e8-4d97-909c-48eed7af88e9" d="M16,1C7.729,1,1,7.729,1,16s6.729,15,15,15,15-6.729,15-15S24.271,1,16,1ZM16,29c-.01715,0-.03369-.0025-.05084-.00256-1.80499-2.4978-3.03906-5.28998-3.68042-8.24744h7.46252c-.64136,2.95746-1.87543,5.74963-3.68042,8.24744-.01715.00006-.03369.00256-.05084.00256ZM11.99243,19.25c-.15527-1.06744-.24243-2.15137-.24243-3.25s.08716-2.18256.24243-3.25h8.01514c.15527,1.06744.24243,2.15137.24243,3.25s-.08716,2.18256-.24243,3.25h-8.01514ZM3,16c0-1.12396.15839-2.20911.4278-3.25h7.05859c-.14551,1.0694-.23639,2.15173-.23639,3.25s.09088,2.1806.23639,3.25H3.4278c-.26941-1.04089-.4278-2.12604-.4278-3.25ZM16,3c.01715,0,.03369.0025.05084.00256,1.80499,2.4978,3.03906,5.28998,3.68042,8.24744h-7.46252c.64136-2.95746,1.87543-5.74963,3.68042-8.24744.01715-.00006.03369-.00256.05084-.00256ZM21.51361,12.75h7.05859c.26941,1.04089.4278,2.12604.4278,3.25s-.15839,2.20911-.4278,3.25h-7.05859c.14551-1.0694.23639-2.15173.23639-3.25s-.09088-2.1806-.23639-3.25ZM28.08881,11.25h-6.83069c-.58057-2.86792-1.67078-5.59839-3.27454-8.08228,4.61865.71198,8.43732,3.85291,10.10522,8.08228ZM14.01642,3.16772c-1.60376,2.48389-2.69397,5.21436-3.27454,8.08228H3.91119c1.66791-4.22937,5.48657-7.3703,10.10522-8.08228ZM3.91119,20.75h6.83069c.58057,2.86792,1.67078,5.59839,3.27454,8.08228-4.61865-.71198-8.43732-3.85291-10.10522-8.08228ZM17.98358,28.83228c1.60376-2.48389,2.69397-5.21436,3.27454-8.08228h6.83069c-1.66791,4.22937-5.48657,7.3703-10.10522,8.08228Z"/></g></svg>