<?xml version="1.0" encoding="UTF-8"?><svg xmlns="http://www.w3.org/2000/svg" width="32" height="32" viewBox="0 0 32 32"><defs><style>.uuid-e6408ce1-2883-4e93-8a2a-37d981e43901{fill:none;}.uuid-18eaa99f-d304-494b-a178-fddc2d47b256{fill:#151515;}</style></defs><g id="uuid-c15b2b6f-4699-44a5-a8f0-b0420a7b1515"><rect class="uuid-e6408ce1-2883-4e93-8a2a-37d981e43901" width="32" height="32"/></g><g id="uuid-4595b9f7-eb57-451f-8a9f-b10a8643b824"><path class="uuid-18eaa99f-d304-494b-a178-fddc2d47b256" d="M28.5,10h-11.5v20h11.5c.82715,0,1.5-.67285,1.5-1.5V11.5c0-.82715-.67285-1.5-1.5-1.5ZM23,26.125h-2c-.62109,0-1.125-.50391-1.125-1.125s.50391-1.125,1.125-1.125h2c.62109,0,1.125.50391,1.125,1.125s-.50391,1.125-1.125,1.125ZM26,21.125h-5c-.62109,0-1.125-.50391-1.125-1.125s.50391-1.125,1.125-1.125h5c.62109,0,1.125.50391,1.125,1.125s-.50391,1.125-1.125,1.125ZM26,16.125h-5c-.62109,0-1.125-.50391-1.125-1.125s.50391-1.125,1.125-1.125h5c.62109,0,1.125.50391,1.125,1.125s-.50391,1.125-1.125,1.125Z"/><path class="uuid-18eaa99f-d304-494b-a178-fddc2d47b256" d="M6,21v-11h-2.49316c-.82715,0-1.5.67285-1.5,1.5v17c0,.82715.67285,1.5,1.5,1.5h10.66479l-7.58582-7.58582c-.37512-.37506-.58582-.88373-.58582-1.41418Z"/><path class="uuid-18eaa99f-d304-494b-a178-fddc2d47b256" d="M8.42676,3.42676c-.15747-.15747-.42676-.04596-.42676.17676v17.29291c0,.06628.02637.12988.07324.17676l6.5,6.5c.15747.15753.42676.04596.42676-.17676V10.10352c0-.06628-.02637-.12988-.07324-.17676l-6.5-6.5Z"/></g></svg>