<?xml version="1.0" encoding="UTF-8"?><svg xmlns="http://www.w3.org/2000/svg" width="32" height="32" viewBox="0 0 32 32"><defs><style>.uuid-0639f838-3cc5-46c5-be18-d53617f46aaf{fill:none;}.uuid-2b0bbc8e-0752-4ff5-bd72-09c1026c13cf{fill:#151515;}</style></defs><g id="uuid-91f5053e-b36c-4142-943c-456b7f0cc3bb"><rect class="uuid-0639f838-3cc5-46c5-be18-d53617f46aaf" width="32" height="32"/></g><g id="uuid-581e2a23-972f-4cd2-9755-1ac1f9329b60"><path class="uuid-2b0bbc8e-0752-4ff5-bd72-09c1026c13cf" d="M28.5,10h-12.08594l-7.70703-7.70703c-.28613-.28613-.71484-.37207-1.08984-.2168-.37402.1543-.61719.51953-.61719.92383v7h-3.49316c-.82715,0-1.5.67285-1.5,1.5v17c0,.82715.67285,1.5,1.5,1.5h24.99316c.82715,0,1.5-.67285,1.5-1.5V11.5c0-.82715-.67285-1.5-1.5-1.5ZM4.00684,28V12h2.99316v9c0,.26562.10547.51953.29297.70703l6.29297,6.29297H4.00684ZM15,26.58594l-6-6V5.41406l6,6v15.17188ZM28,28h-11V12h11v16Z"/><path class="uuid-2b0bbc8e-0752-4ff5-bd72-09c1026c13cf" d="M20,16h5c.55273,0,1-.44727,1-1s-.44727-1-1-1h-5c-.55273,0-1,.44727-1,1s.44727,1,1,1Z"/><path class="uuid-2b0bbc8e-0752-4ff5-bd72-09c1026c13cf" d="M20,21h5c.55273,0,1-.44727,1-1s-.44727-1-1-1h-5c-.55273,0-1,.44727-1,1s.44727,1,1,1Z"/><path class="uuid-2b0bbc8e-0752-4ff5-bd72-09c1026c13cf" d="M20,26h2c.55273,0,1-.44727,1-1s-.44727-1-1-1h-2c-.55273,0-1,.44727-1,1s.44727,1,1,1Z"/></g></svg>