<svg xmlns="http://www.w3.org/2000/svg" viewBox="0 0 32 32">
  <defs/>
  <path fill="none" d="M0 0h32v32H0z"/>
  <path d="M16 25c-4.963 0-9-4.038-9-9s4.037-9 9-9 9 4.038 9 9-4.037 9-9 9Zm0-16c-3.86 0-7 3.14-7 7s3.14 7 7 7 7-3.14 7-7-3.14-7-7-7ZM16 5a1 1 0 0 1-1-1V1a1 1 0 1 1 2 0v3a1 1 0 0 1-1 1ZM16 32a1 1 0 0 1-1-1v-3a1 1 0 1 1 2 0v3a1 1 0 0 1-1 1ZM4 17H1a1 1 0 1 1 0-2h3a1 1 0 1 1 0 2ZM31 17h-3a1 1 0 1 1 0-2h3a1 1 0 1 1 0 2ZM5.394 27.606a1 1 0 0 1-.707-1.707l2.12-2.12a1 1 0 1 1 1.415 1.413L6.1 27.313a.997.997 0 0 1-.707.293ZM24.485 8.515a1 1 0 0 1-.707-1.707L25.9 4.686a1 1 0 1 1 1.415 1.415l-2.122 2.12a.997.997 0 0 1-.707.294ZM7.515 8.515a.997.997 0 0 1-.707-.293L4.686 6.1a1 1 0 1 1 1.415-1.415l2.12 2.122a1 1 0 0 1-.706 1.707ZM26.606 27.606a.997.997 0 0 1-.707-.293l-2.12-2.12a1 1 0 1 1 1.413-1.415l2.122 2.121a1 1 0 0 1-.707 1.707Z" />
</svg>

