<?xml version="1.0" encoding="UTF-8"?><svg xmlns="http://www.w3.org/2000/svg" width="32" height="32" viewBox="0 0 32 32"><defs><style>.uuid-0209fb8d-db70-4484-8610-635d3130d949{fill:none;}.uuid-05af5f03-03cb-4256-8c66-b516e5797e05{fill:#151515;}</style></defs><g id="uuid-13bf3899-8120-4d05-9389-951b775017bc"><rect class="uuid-0209fb8d-db70-4484-8610-635d3130d949" width="32" height="32"/></g><g id="uuid-8a34c8f5-3abb-4aa3-911a-3ad42655047c"><path class="uuid-05af5f03-03cb-4256-8c66-b516e5797e05" d="M16,7c-4.96289,0-9,4.0376-9,9s4.03711,9,9,9,9-4.0376,9-9-4.03711-9-9-9ZM16,23c-3.85938,0-7-3.14014-7-7s3.14062-7,7-7,7,3.14014,7,7-3.14062,7-7,7Z"/><path class="uuid-05af5f03-03cb-4256-8c66-b516e5797e05" d="M16,5c.55273,0,1-.44775,1-1V1c0-.55225-.44727-1-1-1s-1,.44775-1,1v3c0,.55225.44727,1,1,1Z"/><path class="uuid-05af5f03-03cb-4256-8c66-b516e5797e05" d="M16,27c-.55273,0-1,.44775-1,1v3c0,.55225.44727,1,1,1s1-.44775,1-1v-3c0-.55225-.44727-1-1-1Z"/><path class="uuid-05af5f03-03cb-4256-8c66-b516e5797e05" d="M31,15h-3c-.55273,0-1,.44775-1,1s.44727,1,1,1h3c.55273,0,1-.44775,1-1s-.44727-1-1-1Z"/><path class="uuid-05af5f03-03cb-4256-8c66-b516e5797e05" d="M5,16c0-.55225-.44727-1-1-1H1c-.55273,0-1,.44775-1,1s.44727,1,1,1h3c.55273,0,1-.44775,1-1Z"/><path class="uuid-05af5f03-03cb-4256-8c66-b516e5797e05" d="M6.29297,24.29297l-2,2c-.39062.39062-.39062,1.02344,0,1.41406.19531.19531.45117.29297.70703.29297s.51172-.09766.70703-.29297l2-2c.39062-.39062.39062-1.02344,0-1.41406s-1.02344-.39062-1.41406,0Z"/><path class="uuid-05af5f03-03cb-4256-8c66-b516e5797e05" d="M25,8c.25586,0,.51172-.09766.70703-.29297l2-2c.39062-.39062.39062-1.02344,0-1.41406s-1.02344-.39062-1.41406,0l-2,2c-.39062.39062-.39062,1.02344,0,1.41406.19531.19531.45117.29297.70703.29297Z"/><path class="uuid-05af5f03-03cb-4256-8c66-b516e5797e05" d="M6.29297,7.70703c.19531.19531.45117.29297.70703.29297s.51172-.09766.70703-.29297c.39062-.39062.39062-1.02344,0-1.41406l-2-2c-.39062-.39062-1.02344-.39062-1.41406,0s-.39062,1.02344,0,1.41406l2,2Z"/><path class="uuid-05af5f03-03cb-4256-8c66-b516e5797e05" d="M25.70703,24.29297c-.39062-.39062-1.02344-.39062-1.41406,0s-.39062,1.02344,0,1.41406l2,2c.19531.19531.45117.29297.70703.29297s.51172-.09766.70703-.29297c.39062-.39062.39062-1.02344,0-1.41406l-2-2Z"/></g></svg>