<?xml version="1.0" encoding="UTF-8"?><svg xmlns="http://www.w3.org/2000/svg" width="32" height="32" viewBox="0 0 32 32"><defs><style>.uuid-8176365e-8c9b-4710-ae11-5e5528284398{fill:none;}.uuid-bf113b1a-795d-4e29-85ea-a245141f87e1{fill:#151515;}</style></defs><g id="uuid-9597c313-2f8b-408b-ae33-f41d7c3d8ea6"><rect class="uuid-8176365e-8c9b-4710-ae11-5e5528284398" width="32" height="32"/></g><g id="uuid-c6291a03-5da2-4f35-8b65-0d93317989b1"><path class="uuid-bf113b1a-795d-4e29-85ea-a245141f87e1" d="M16,7c-4.96289,0-9,4.0376-9,9s4.03711,9,9,9,9-4.0376,9-9-4.03711-9-9-9Z"/><path class="uuid-bf113b1a-795d-4e29-85ea-a245141f87e1" d="M16,5c.55273,0,1-.44775,1-1V1c0-.55225-.44727-1-1-1s-1,.44775-1,1v3c0,.55225.44727,1,1,1Z"/><path class="uuid-bf113b1a-795d-4e29-85ea-a245141f87e1" d="M16,27c-.55273,0-1,.44775-1,1v3c0,.55225.44727,1,1,1s1-.44775,1-1v-3c0-.55225-.44727-1-1-1Z"/><path class="uuid-bf113b1a-795d-4e29-85ea-a245141f87e1" d="M31,15h-3c-.55273,0-1,.44775-1,1s.44727,1,1,1h3c.55273,0,1-.44775,1-1s-.44727-1-1-1Z"/><path class="uuid-bf113b1a-795d-4e29-85ea-a245141f87e1" d="M5,16c0-.55225-.44727-1-1-1H1c-.55273,0-1,.44775-1,1s.44727,1,1,1h3c.55273,0,1-.44775,1-1Z"/><path class="uuid-bf113b1a-795d-4e29-85ea-a245141f87e1" d="M6.29297,24.29297l-2,2c-.39062.39062-.39062,1.02344,0,1.41406.19531.19531.45117.29297.70703.29297s.51172-.09766.70703-.29297l2-2c.39062-.39062.39062-1.02344,0-1.41406s-1.02344-.39062-1.41406,0Z"/><path class="uuid-bf113b1a-795d-4e29-85ea-a245141f87e1" d="M25,8c.25586,0,.51172-.09766.70703-.29297l2-2c.39062-.39062.39062-1.02344,0-1.41406s-1.02344-.39062-1.41406,0l-2,2c-.39062.39062-.39062,1.02344,0,1.41406.19531.19531.45117.29297.70703.29297Z"/><path class="uuid-bf113b1a-795d-4e29-85ea-a245141f87e1" d="M6.29297,7.70703c.19531.19531.45117.29297.70703.29297s.51172-.09766.70703-.29297c.39062-.39062.39062-1.02344,0-1.41406l-2-2c-.39062-.39062-1.02344-.39062-1.41406,0s-.39062,1.02344,0,1.41406l2,2Z"/><path class="uuid-bf113b1a-795d-4e29-85ea-a245141f87e1" d="M25.70703,24.29297c-.39062-.39062-1.02344-.39062-1.41406,0s-.39062,1.02344,0,1.41406l2,2c.19531.19531.45117.29297.70703.29297s.51172-.09766.70703-.29297c.39062-.39062.39062-1.02344,0-1.41406l-2-2Z"/></g></svg>