<?xml version="1.0" encoding="UTF-8"?><svg xmlns="http://www.w3.org/2000/svg" width="32" height="32" viewBox="0 0 32 32"><defs><style>.uuid-a80d8c19-03e3-4222-9de9-06f589a74150{fill:none;}.uuid-f38331df-776d-4c3f-a8c9-56c4f11380db{fill:#151515;}</style></defs><g id="uuid-74ed7b6d-72d7-4089-a4ef-09022bf24f63"><rect class="uuid-a80d8c19-03e3-4222-9de9-06f589a74150" width="32" height="32"/></g><g id="uuid-c9abf636-4563-48d0-aeb1-7b829b9da00f"><path class="uuid-f38331df-776d-4c3f-a8c9-56c4f11380db" d="M29.68359,12.1123c-.57227-.70703-1.42188-1.1123-2.33105-1.1123h-5.35254v-4.5c0-1.21289-.61426-2.32178-1.64258-2.9668-1.05469-.66162-2.33496-.71191-3.51465-.14209-1.12012.5415-1.82617,1.75537-1.84277,3.16602-.03125,2.44971-2.0498,4.44287-4.5,4.44287h-.5921c-.20709-.58075-.7569-1-1.4079-1H3.5c-.82715,0-1.5.67285-1.5,1.5v16c0,.82715.67285,1.5,1.5,1.5h5c.651,0,1.20081-.41925,1.4079-1h14.2962c1.87793,0,3.52344-1.33252,3.91309-3.16846l2.16992-10.20752c.18848-.88916-.03125-1.80469-.60352-2.51172ZM8,27h-4v-15h4v15ZM26.16016,24.41602c-.19434.91797-1.01758,1.58398-1.95605,1.58398h-14.2041v-13h.5c3.53906,0,6.45508-2.87891,6.5-6.41895.00586-.50781.19629-1.13916.71387-1.38916.74805-.36182,1.3125-.13232,1.58105.03564.44141.27686.70508.75244.70508,1.27246v5c0,.82715.67285,1.5,1.5,1.5h5.85254c.30273,0,.58594.13525.77734.37061.19043.23584.26367.54102.2002.8374l-2.16992,10.20801Z"/></g></svg>