<?xml version="1.0" encoding="UTF-8"?><svg xmlns="http://www.w3.org/2000/svg" width="32" height="32" viewBox="0 0 32 32"><defs><style>.uuid-936196f9-75fd-4e14-ac3e-8a2e0d5e5f58{fill:none;}.uuid-65bc2e46-16e6-4b02-8556-875fcc426ee8{fill:#151515;}</style></defs><g id="uuid-920f1861-aef8-4cc5-95ca-f5e8c055a130"><rect class="uuid-936196f9-75fd-4e14-ac3e-8a2e0d5e5f58" width="32" height="32"/></g><g id="uuid-dfe3be12-e2af-45be-b048-0f67f4b72f23"><path class="uuid-65bc2e46-16e6-4b02-8556-875fcc426ee8" d="M7.58301,10H3.41699c-.78125,0-1.41699.67285-1.41699,1.5v16c0,.82715.63574,1.5,1.41699,1.5h4.16602c.78125,0,1.41699-.67285,1.41699-1.5V11.5c0-.82715-.63574-1.5-1.41699-1.5Z"/><path class="uuid-65bc2e46-16e6-4b02-8556-875fcc426ee8" d="M29.29492,12.42676c-.47656-.58887-1.18457-.92676-1.94238-.92676h-5.85254v-5c0-1.03955-.52637-1.99023-1.4082-2.54346-.9043-.56641-2.00977-.60791-3.03125-.11523-.94824.4585-1.54688,1.50195-1.56055,2.72217-.03204,2.55121-2.01123,4.63165-4.5,4.88605v16.05048h13.2041c1.64258,0,3.08301-1.16602,3.42383-2.77246l2.16992-10.20752c.15723-.74121-.02539-1.50391-.50293-2.09326Z"/></g></svg>