<?xml version="1.0" encoding="UTF-8"?><svg xmlns="http://www.w3.org/2000/svg" viewBox="0 0 32 32"><defs><style>.uuid-697b8283-48a5-4406-8089-a779bccc8b68{fill:none;}.uuid-697b8283-48a5-4406-8089-a779bccc8b68,.uuid-fe1fefef-1034-49de-b641-1c4c2738946e{stroke-width:0px;}.uuid-fe1fefef-1034-49de-b641-1c4c2738946e{fill:#151515;}</style></defs><g id="uuid-97fc8b43-a137-42d7-aec0-e6b4f9dc9d3f"><rect class="uuid-697b8283-48a5-4406-8089-a779bccc8b68" x="0" width="32" height="32"/></g><g id="uuid-0a693994-bcd1-408a-97dd-d39446337a0d"><path class="uuid-fe1fefef-1034-49de-b641-1c4c2738946e" d="M21.3638,19.777h5.6911c1.2061,0,2.2253-.8552,2.3203-1.9454.0533-.6098-.1431-1.1915-.5534-1.6384-.4041-.4407-.9784-.6934-1.5768-.6934h-6.9504c-.2955,0-.5346-.2391-.5346-.5346s.2391-.5346.5346-.5346h4.6218c1.2061,0,2.2253-.8552,2.3203-1.9454.0533-.6098-.1431-1.1915-.5534-1.6384-.4041-.4407-.9784-.6934-1.5768-.6934h-6.9504c-.1524,0-.2879-.065-.3853-.1671l.3638-.3676c.1489-.1758.2982-.3551.4471-.5346h0s.0002-.0002.0003-.0003c.1256-.1515.2485-.3059.3721-.4608.0719-.0901.1436-.1799.2145-.2714.1004-.1297.1974-.2618.2946-.3945.0845-.1152.1674-.2312.2489-.3489.0855-.1237.168-.2491.2494-.3758.0841-.1309.1647-.2639.2436-.3982.0721-.1229.1425-.2466.2097-.3727.0779-.1461.1491-.296.2194-.4467.0571-.1226.1146-.2449.1661-.3708.0675-.1649.1243-.3356.1811-.5065.0401-.1208.0838-.2396.118-.3636.054-.1955.0922-.3992.1303-.6031.0203-.1087.048-.2134.0634-.3246.0416-.3003.0641-.6103.0666-.9302.0001-.0199.0042-.0379.0042-.058,0-.001-.0003-.0019-.0003-.0029,0-.0014.0003-.0026.0003-.004-.0001-.1102-.0174-.2174-.0295-.3256-.0073-.0647-.0062-.1309-.0176-.1947-.0277-.1559-.0711-.3069-.122-.4548-.0052-.0151-.0072-.0314-.0127-.0465-.0501-.1382-.1147-.269-.1836-.3971-.0124-.023-.0205-.0484-.0334-.071-.0621-.1084-.1369-.2071-.2117-.306-.0282-.0374-.051-.079-.0809-.1149-.0633-.0758-.1371-.1404-.2076-.2088-.0517-.0503-.0985-.1055-.1539-.1513-.0596-.0492-.1271-.0869-.1906-.1307-.076-.0525-.1488-.1094-.2303-.1535-.0595-.0322-.1252-.0522-.1873-.0796-.0933-.0412-.1844-.086-.2834-.1156-.0706-.0211-.1466-.0281-.2198-.0429-.0897-.0181-.1763-.0445-.2697-.0526-.0077-.0007-.0148.001-.0225.0004-.0075-.0006-.0142-.0034-.0217-.0039-.0963-.0069-.188.0056-.282.0087-.0852.0029-.1723-.0027-.2554.0079-.0985.0126-.1909.0416-.2857.0646-.0799.0194-.1628.0311-.2398.0575-.0918.0315-.1757.0778-.2627.1188-.0724.034-.1485.0608-.2171.101-.0857.0501-.1611.1137-.2404.1728-.0605.0451-.1261.0835-.1825.1335-.0754.0668-.1387.1454-.2061.2202-.0493.0546-.1046.1032-.1493.1618-.0638.0836-.1131.1775-.1668.2684-.0354.0598-.0782.1145-.1089.1772-.0516.1054-.0861.2194-.1237.332-.0188.0563-.0463.1085-.0614.1664-.0452.1737-.0737.3541-.083.5397l-.0034.1359c0,1.3884-.5599,2.0528-2.4133,3.167-1.8981,1.2542-4.4812,2.9758-6.0813,4.1034-1.3477.9497-2.5521,2.0344-3.4707,3.412-.9711,1.4564-1.5126,3.2013-1.7762,4.9221-.1032.6743-.1593,1.3565-.1593,2.0389,0,5.9024,4.7904,10.6929,10.6929,10.6929h9.9832c1.3795,0,2.6579-.9636,2.8272-2.3326.0369-.2984.0243-.5883-.0305-.8629-.1924-.9634-1.1045-1.6163-2.087-1.6163h-1.0693c-.2955,0-.5346-.2391-.5346-.5346s.2391-.5346.5346-.5346h2.4832c1.2061,0,2.2253-.8552,2.3203-1.9454.0533-.6098-.1431-1.1915-.5534-1.6384-.4041-.4407-.9784-.6934-1.5768-.6934h-3.7425c-.2955,0-.5346-.2391-.5346-.5346s.2391-.5346.5346-.5346Z"/></g></svg>