<?xml version="1.0" encoding="UTF-8"?><svg xmlns="http://www.w3.org/2000/svg" viewBox="0 0 32 32"><defs><style>.uuid-030d48c2-0c59-4ff3-970f-24f0826e1a1d{fill:none;}.uuid-030d48c2-0c59-4ff3-970f-24f0826e1a1d,.uuid-c2f3bf8a-c07e-4967-a563-f331b0d81295{stroke-width:0px;}.uuid-c2f3bf8a-c07e-4967-a563-f331b0d81295{fill:#151515;}</style></defs><g id="uuid-7cb87459-cd64-4ea3-8bcd-9ff7c48922bb"><rect class="uuid-030d48c2-0c59-4ff3-970f-24f0826e1a1d" x="0" width="32" height="32"/></g><g id="uuid-6d5f7919-4eb4-47bc-ae97-7b2fcacae0ca"><path class="uuid-c2f3bf8a-c07e-4967-a563-f331b0d81295" d="M29.9863,17.8105c.0854-.9795-.2451-1.9541-.9058-2.6753-.4165-.4541-.9438-.7866-1.5215-.9702.2349-.4092.3848-.8677.4272-1.3545.0854-.9795-.2451-1.9541-.9058-2.6753-.6616-.7217-1.6021-1.1353-2.5806-1.1353h-4.4351c1.02-1.4028,1.9351-3.1426,1.9351-5.3228,0-1.8984-1.4009-3.5078-3.1899-3.6636-.9585-.0845-1.8867.2173-2.6094.8472-.7129.6216-1.1489,1.519-1.1968,2.4854l-.0039.1538c0,.7207-.0718,1.0825-1.8081,2.1274-1.7715,1.1704-4.2007,2.7891-5.7124,3.8545-1.5435,1.0879-2.6562,2.1851-3.5015,3.4536-.9048,1.3569-1.5166,3.0415-1.8174,5.0063-.1064.6943-.1606,1.3867-.1606,2.0581,0,6.0654,4.9346,11,11,11h9.3228c1.8984,0,3.5078-1.4009,3.6636-3.1895.0615-.7051-.0923-1.4077-.4302-2.0151,1.3203-.4507,2.3101-1.6021,2.4302-2.9849.0615-.7051-.0923-1.4077-.4302-2.0151,1.3203-.4507,2.3101-1.6021,2.4302-2.9849ZM26.3228,19h-5.3228c-.5522,0-1,.4478-1,1s.4478,1,1,1h3.5c.4258,0,.8184.1729,1.1064.4868.2871.3135.4248.7217.3877,1.1499-.0654.752-.8154,1.3633-1.6714,1.3633h-2.3228c-.5522,0-1,.4478-1,1s.4478,1,1,1h.5c.4258,0,.8184.1729,1.1064.4868.2871.3135.4248.7217.3877,1.1499-.0654.752-.8154,1.3633-1.6714,1.3633h-9.3228c-4.9624,0-9-4.0376-9-9,0-.5703.0464-1.1606.1372-1.7554.2568-1.6743.7627-3.0869,1.5049-4.1997.7041-1.0566,1.6543-1.9873,2.9897-2.9282,1.4912-1.0513,3.9023-2.6577,5.6265-3.7979,1.8184-1.0928,2.7417-1.9839,2.7412-3.792l.0024-.104c.0205-.4092.2031-.7837.5132-1.0542.2754-.2402.6211-.3687.9858-.3687.0449,0,.0903.002.1357.0059.752.0654,1.3633.8154,1.3633,1.6714,0,2.2173-1.2061,3.8164-2.7827,5.6763-.3574.4209-.3052,1.0522.1162,1.4092.188.1592.4175.2373.646.2373h6.5205c.4258,0,.8184.1729,1.1064.4868.2871.3135.4248.7217.3877,1.1499-.0654.752-.8154,1.3633-1.6714,1.3633h-4.3228c-.5522,0-1,.4478-1,1s.4478,1,1,1h6.5c.4258,0,.8184.1729,1.1064.4868.2871.3135.4248.7217.3877,1.1499-.0654.752-.8154,1.3633-1.6714,1.3633Z"/></g></svg>