<?xml version="1.0" encoding="UTF-8"?><svg xmlns="http://www.w3.org/2000/svg" width="32" height="32" viewBox="0 0 32 32"><defs><style>.uuid-fc8fe20f-29d4-40b2-b958-a56c18640eb9{fill:none;}.uuid-6a9e3c90-ec4c-4b19-83dd-d3d350cb3763{fill:#151515;}</style></defs><g id="uuid-8b997bdc-539f-4714-b43b-a659f840d4c0"><rect class="uuid-fc8fe20f-29d4-40b2-b958-a56c18640eb9" width="32" height="32"/></g><g id="uuid-a9e887d7-fd5f-4f1a-b6ea-a49a24c71a71"><path class="uuid-6a9e3c90-ec4c-4b19-83dd-d3d350cb3763" d="M17.4707,11.49902c-.49023-.26318-1.09277-.07812-1.35449.40771-.26172.48633-.0791,1.09277.40723,1.354.46484.25.87988.55908,1.2666.94629,1.03906,1.03955,1.6123,2.42041,1.6123,3.88818,0,1.46729-.57324,2.84814-1.61328,3.88818l-5.39551,5.40674c-1.04688,1.03809-2.43066,1.60986-3.89648,1.60986-1.46484,0-2.84863-.57178-3.8916-1.60547-2.13867-2.14746-2.13867-5.6416-.00195-7.78613l2.91016-2.8999c.39062-.39014.39258-1.02295.00195-1.41455-.38965-.39062-1.02246-.39307-1.41406-.00244l-2.91211,2.90283c-2.91504,2.92529-2.91504,7.68604.00391,10.61572,1.42383,1.41211,3.30762,2.18994,5.30371,2.18994,1.99707,0,3.88086-.77783,5.30859-2.19336l5.39844-5.40967c1.41699-1.41748,2.19824-3.30029,2.19824-5.30176,0-2.00195-.78125-3.88477-2.19824-5.30225-.51953-.52002-1.10352-.95557-1.7334-1.29395Z"/><path class="uuid-6a9e3c90-ec4c-4b19-83dd-d3d350cb3763" d="M28.80664,3.18994c-1.42383-1.41211-3.30762-2.18994-5.30371-2.18994-1.99707,0-3.88086.77783-5.30859,2.19336l-5.39844,5.40967c-1.41699,1.41748-2.19824,3.30029-2.19824,5.30176,0,2.00195.78125,3.88477,2.19824,5.30225.51953.52002,1.10352.95557,1.7334,1.29395.15137.08105.31348.11914.47266.11914.35645,0,.70117-.19092.88184-.52686.26172-.48633.0791-1.09277-.40723-1.354-.46484-.25-.87988-.55908-1.2666-.94629-1.03906-1.03955-1.6123-2.42041-1.6123-3.88818,0-1.46729.57324-2.84814,1.61328-3.88818l5.39551-5.40674c1.04688-1.03809,2.43066-1.60986,3.89648-1.60986,1.46484,0,2.84863.57178,3.8916,1.60547,2.13867,2.14746,2.13867,5.6416.00195,7.78613l-2.91016,2.8999c-.39062.39014-.39258,1.02295-.00195,1.41455.38867.38965,1.02148.39209,1.41406.00244l2.91211-2.90283c2.91504-2.92529,2.91504-7.68604-.00391-10.61572Z"/></g></svg>