<?xml version="1.0" encoding="UTF-8"?><svg xmlns="http://www.w3.org/2000/svg" viewBox="0 0 32 32"><defs><style>.uuid-38079265-7813-4bd3-a08c-c958c8512379{fill:none;}.uuid-38079265-7813-4bd3-a08c-c958c8512379,.uuid-77167c9d-14f1-4d9a-b12a-03c20b22e9ca{stroke-width:0px;}.uuid-77167c9d-14f1-4d9a-b12a-03c20b22e9ca{fill:#151515;}</style></defs><g id="uuid-bdf117c1-fd3e-4b31-b055-077510ae429e"><rect class="uuid-38079265-7813-4bd3-a08c-c958c8512379" width="32" height="32"/></g><g id="uuid-6ff468c1-0876-4df5-824c-b787df136397"><path class="uuid-77167c9d-14f1-4d9a-b12a-03c20b22e9ca" d="M29.7212,2.2788c-3.0337-3.0347-7.9707-3.0337-11.0034,0l-6.1646,6.1646c-3.0337,3.0337-3.0337,7.9697,0,11.0034.5308.5308,1.2529,1.0552,1.9814,1.4385.1484.0781.3076.1147.4644.1147.3594,0,.707-.1943.8862-.5347.2568-.4888.0693-1.0933-.4199-1.3506-.5493-.2886-1.1094-.6934-1.498-1.082-2.2539-2.2539-2.2539-5.9214,0-8.1753l6.1646-6.1646c2.2544-2.2544,5.9219-2.2534,8.1753,0s2.2539,5.9214,0,8.1753l-3.4048,3.4048c-.3906.3906-.3906,1.0234,0,1.4141s1.0234.3906,1.4141,0l3.4048-3.4048c3.0337-3.0337,3.0337-7.9697,0-11.0034Z"/><path class="uuid-77167c9d-14f1-4d9a-b12a-03c20b22e9ca" d="M17.4653,11.1147c-.4888-.2588-1.0938-.0688-1.3506.4199s-.0693,1.0933.4199,1.3506c.5493.2886,1.1094.6934,1.498,1.082,2.2539,2.2539,2.2539,5.9214,0,8.1753l-6.1646,6.1646c-2.2539,2.2544-5.9214,2.2534-8.1753,0-2.2539-2.2539-2.2539-5.9214,0-8.1753l3.4048-3.4048c.3906-.3906.3906-1.0234,0-1.4141s-1.0234-.3906-1.4141,0l-3.4048,3.4048c-3.0337,3.0337-3.0337,7.9697,0,11.0034,1.5166,1.5171,3.5093,2.2754,5.5015,2.2754s3.9854-.7583,5.502-2.2754l6.1646-6.1646c3.0337-3.0337,3.0337-7.9697,0-11.0034-.5308-.5308-1.2529-1.0552-1.9814-1.4385Z"/></g></svg>