<?xml version="1.0" encoding="UTF-8"?><svg xmlns="http://www.w3.org/2000/svg" viewBox="0 0 32 32"><defs><style>.uuid-f84518b8-a704-4ec2-894e-4aa8932ebf74{fill:none;}.uuid-f84518b8-a704-4ec2-894e-4aa8932ebf74,.uuid-65692ab3-5ee5-4f32-812e-0c4635051b79{stroke-width:0px;}.uuid-65692ab3-5ee5-4f32-812e-0c4635051b79{fill:#151515;}</style></defs><g id="uuid-48b2c519-b902-4d52-9326-76e4a4371fba"><rect class="uuid-f84518b8-a704-4ec2-894e-4aa8932ebf74" x="0" width="32" height="32"/></g><g id="uuid-68feb74d-a0f3-4875-ba04-5aed37fbf135"><path class="uuid-65692ab3-5ee5-4f32-812e-0c4635051b79" d="M5.293,6.707c.1953.1953.4512.293.707.293s.5117-.0977.707-.293c.3906-.3906.3906-1.0234,0-1.4141l-3-3c-.3906-.3906-1.0234-.3906-1.4141,0s-.3906,1.0234,0,1.4141l3,3Z"/><path class="uuid-65692ab3-5ee5-4f32-812e-0c4635051b79" d="M10,7c.5522,0,1-.4478,1-1V2c0-.5522-.4478-1-1-1s-1,.4478-1,1v4c0,.5522.4478,1,1,1Z"/><path class="uuid-65692ab3-5ee5-4f32-812e-0c4635051b79" d="M2,11h4c.5522,0,1-.4478,1-1s-.4478-1-1-1H2c-.5522,0-1,.4478-1,1s.4478,1,1,1Z"/><path class="uuid-65692ab3-5ee5-4f32-812e-0c4635051b79" d="M26.707,25.293c-.3906-.3906-1.0234-.3906-1.4141,0s-.3906,1.0234,0,1.4141l3,3c.1953.1953.4512.293.707.293s.5117-.0977.707-.293c.3906-.3906.3906-1.0234,0-1.4141l-3-3Z"/><path class="uuid-65692ab3-5ee5-4f32-812e-0c4635051b79" d="M22,25c-.5522,0-1,.4478-1,1v4c0,.5522.4478,1,1,1s1-.4478,1-1v-4c0-.5522-.4478-1-1-1Z"/><path class="uuid-65692ab3-5ee5-4f32-812e-0c4635051b79" d="M30,21h-4c-.5522,0-1,.4478-1,1s.4478,1,1,1h4c.5522,0,1-.4478,1-1s-.4478-1-1-1Z"/><path class="uuid-65692ab3-5ee5-4f32-812e-0c4635051b79" d="M26.3164,16.687l3.4048-3.4048c3.0337-3.0337,3.0337-7.9697,0-11.0034-3.0337-3.0347-7.9707-3.0337-11.0034,0l-6.1646,6.1646c-3.0337,3.0337-3.0337,7.9697,0,11.0034.5308.5308,1.2529,1.0552,1.9814,1.4385.1484.0781.3076.1147.4644.1147.3594,0,.707-.1943.8862-.5347.2568-.4888.0693-1.0933-.4199-1.3506-.5493-.2886-1.1094-.6934-1.498-1.082-2.2539-2.2539-2.2539-5.9214,0-8.1753l6.1646-6.1646c2.2539-2.2544,5.9214-2.2534,8.1753,0,2.2539,2.2539,2.2539,5.9214,0,8.1753l-3.4048,3.4048c-.3906.3906-.3906,1.0234,0,1.4141s1.0234.3906,1.4141,0Z"/><path class="uuid-65692ab3-5ee5-4f32-812e-0c4635051b79" d="M19.4468,12.5532c-.5308-.5308-1.2529-1.0552-1.9814-1.4385-.4893-.2588-1.0933-.0688-1.3506.4199-.2568.4888-.0693,1.0933.4199,1.3506.5493.2886,1.1094.6934,1.498,1.082,2.2539,2.2539,2.2539,5.9214,0,8.1753l-6.1646,6.1646c-2.2544,2.2544-5.9219,2.2534-8.1753,0s-2.2539-5.9214,0-8.1753l3.4048-3.4048c.3906-.3906.3906-1.0234,0-1.4141s-1.0234-.3906-1.4141,0l-3.4048,3.4048c-3.0337,3.0337-3.0337,7.9697,0,11.0034,1.5166,1.5171,3.5093,2.2754,5.5015,2.2754s3.9854-.7583,5.502-2.2754l6.1646-6.1646c3.0337-3.0337,3.0337-7.9697,0-11.0034Z"/></g></svg>