<?xml version="1.0" encoding="UTF-8"?><svg xmlns="http://www.w3.org/2000/svg" width="32" height="32" viewBox="0 0 32 32"><defs><style>.uuid-00c0ae93-6561-4dac-b837-f3c6a520bffe{fill:none;}.uuid-82687e45-ddae-4aa5-b2eb-bdf580f0c97e{fill:#151515;}</style></defs><g id="uuid-725b81a8-c4b8-4298-ac8a-b31f0a6813b1"><rect class="uuid-00c0ae93-6561-4dac-b837-f3c6a520bffe" width="32" height="32"/></g><g id="uuid-5f41c145-bd34-4ce5-9077-af27b60136fa"><path class="uuid-82687e45-ddae-4aa5-b2eb-bdf580f0c97e" d="M19.2041,12.79297c-.51953-.52002-1.10352-.95557-1.7334-1.29395-.49023-.26318-1.09375-.07812-1.35449.40771-.26172.48633-.0791,1.09277.40723,1.354.46484.25.87988.55908,1.2666.94629,1.03906,1.03955,1.6123,2.42041,1.6123,3.88818,0,1.46729-.57324,2.84814-1.61328,3.88818l-5.39551,5.40674c-1.04688,1.03809-2.43066,1.60986-3.89648,1.60986-1.46484,0-2.84863-.57178-3.8916-1.60547-2.13867-2.14746-2.13867-5.6416-.00195-7.78613l2.91016-2.8999c.39062-.39014.39258-1.02295.00195-1.41455-.38965-.39062-1.02246-.39307-1.41406-.00244l-2.91211,2.90283c-2.91504,2.92529-2.91504,7.68604.00391,10.61572,1.42383,1.41211,3.30762,2.18994,5.30371,2.18994,1.99707,0,3.88086-.77783,5.30859-2.19336l5.39844-5.40967c1.41699-1.41748,2.19824-3.30029,2.19824-5.30176,0-2.00195-.78125-3.88477-2.19824-5.30225Z"/><path class="uuid-82687e45-ddae-4aa5-b2eb-bdf580f0c97e" d="M25.89844,16.7085l2.91211-2.90283c2.91504-2.92529,2.91504-7.68604-.00391-10.61572-1.42383-1.41211-3.30762-2.18994-5.30371-2.18994-1.99707,0-3.88086.77783-5.30859,2.19336l-5.39844,5.40967c-1.41699,1.41748-2.19824,3.30029-2.19824,5.30176,0,2.00195.78125,3.88477,2.19824,5.30225.51953.52002,1.10352.95557,1.7334,1.29395.15137.08105.31348.11914.47266.11914.35645,0,.70117-.19092.88184-.52686.26172-.48633.0791-1.09277-.40723-1.354-.46484-.25-.87988-.55908-1.2666-.94629-1.03906-1.03955-1.6123-2.42041-1.6123-3.88818,0-1.46729.57324-2.84814,1.61328-3.88818l5.39551-5.40674c1.04688-1.03809,2.43066-1.60986,3.89648-1.60986,1.46484,0,2.84863.57178,3.8916,1.60547,2.13867,2.14746,2.13867,5.6416.00195,7.78613l-2.91016,2.8999c-.39062.39014-.39258,1.02295-.00195,1.41455.38867.38965,1.02148.39209,1.41406.00244Z"/><path class="uuid-82687e45-ddae-4aa5-b2eb-bdf580f0c97e" d="M3,11h3c.55273,0,1-.44775,1-1s-.44727-1-1-1h-3c-.55273,0-1,.44775-1,1s.44727,1,1,1Z"/><path class="uuid-82687e45-ddae-4aa5-b2eb-bdf580f0c97e" d="M10,7c.55273,0,1-.44775,1-1v-3c0-.55225-.44727-1-1-1s-1,.44775-1,1v3c0,.55225.44727,1,1,1Z"/><path class="uuid-82687e45-ddae-4aa5-b2eb-bdf580f0c97e" d="M5.29297,6.70703c.19531.19531.45117.29297.70703.29297s.51172-.09766.70703-.29297c.39062-.39062.39062-1.02344,0-1.41406l-2-2c-.39062-.39062-1.02344-.39062-1.41406,0s-.39062,1.02344,0,1.41406l2,2Z"/><path class="uuid-82687e45-ddae-4aa5-b2eb-bdf580f0c97e" d="M29,21h-3c-.55273,0-1,.44775-1,1s.44727,1,1,1h3c.55273,0,1-.44775,1-1s-.44727-1-1-1Z"/><path class="uuid-82687e45-ddae-4aa5-b2eb-bdf580f0c97e" d="M22,25c-.55273,0-1,.44775-1,1v3c0,.55225.44727,1,1,1s1-.44775,1-1v-3c0-.55225-.44727-1-1-1Z"/><path class="uuid-82687e45-ddae-4aa5-b2eb-bdf580f0c97e" d="M26.6748,25.26221c-.40625-.37354-1.04004-.34521-1.41309.06299-.37207.40771-.34375,1.04004.06348,1.4126l2,1.82861c.19141.17578.43359.26221.6748.26221.27051,0,.54102-.10938.73828-.3252.37207-.40771.34375-1.04004-.06348-1.4126l-2-1.82861Z"/></g></svg>