<svg id="Icons" xmlns="http://www.w3.org/2000/svg" viewBox="0 0 16 16"><path d="M15,9.37H14a.63.63,0,0,0-.62.63.62.62,0,0,0,.62.62h1a.63.63,0,0,0,.63-.62A.64.64,0,0,0,15,9.37Z"/><path d="M10,13.37a.63.63,0,0,0-.62.63v1a.62.62,0,0,0,.62.62.63.63,0,0,0,.63-.62V14A.64.64,0,0,0,10,13.37Z"/><path d="M12.44,11.56a.62.62,0,0,0-.88.88L13,13.86a.62.62,0,0,0,.44.18.66.66,0,0,0,.45-.18.64.64,0,0,0,0-.89Z"/><path d="M2.63,6A.64.64,0,0,0,2,5.37H1A.63.63,0,0,0,.38,6,.62.62,0,0,0,1,6.62H2A.63.63,0,0,0,2.63,6Z"/><path d="M6,2.62A.63.63,0,0,0,6.63,2V1A.64.64,0,0,0,6,.37.63.63,0,0,0,5.38,1V2A.62.62,0,0,0,6,2.62Z"/><path d="M3.56,4.44a.63.63,0,0,0,.88,0,.61.61,0,0,0,0-.88L3,2.14A.63.63,0,0,0,2.14,3Z"/><path d="M12.21,5.91l-.63.62a.63.63,0,1,0,.89.88l.62-.62a3,3,0,0,0,0-4.15,3,3,0,0,0-4.15,0L6.1,5.49a2.93,2.93,0,0,0,0,4.15.63.63,0,0,0,.88,0,.64.64,0,0,0,0-.89A1.68,1.68,0,0,1,7,6.37L9.83,3.53a1.72,1.72,0,0,1,2.38,0A1.7,1.7,0,0,1,12.21,5.91Z"/><path d="M10.35,8.84a2.9,2.9,0,0,0-.86-2.07.63.63,0,0,0-.88,0,.64.64,0,0,0,0,.89,1.68,1.68,0,0,1,0,2.37L6.17,12.47A1.68,1.68,0,0,1,3.3,11.28a1.67,1.67,0,0,1,.5-1.19L3.94,10a.64.64,0,0,0,0-.89.63.63,0,0,0-.88,0l-.15.15a2.93,2.93,0,0,0,4.15,4.15L9.5,10.92A2.93,2.93,0,0,0,10.35,8.84Z"/></svg>