<?xml version="1.0" encoding="UTF-8"?><svg xmlns="http://www.w3.org/2000/svg" width="32" height="32" viewBox="0 0 32 32"><defs><style>.uuid-855e819f-819f-469e-aa50-b10323aa53a6{fill:none;}.uuid-9092939d-6a95-422d-81c6-10260ca23ce4{fill:#151515;}</style></defs><g id="uuid-2dba207b-eafe-461d-a3a1-4a33f832ee99"><rect class="uuid-855e819f-819f-469e-aa50-b10323aa53a6" width="32" height="32"/></g><g id="uuid-b5cf3235-c914-49fd-8858-baa94f7cfea5"><path class="uuid-9092939d-6a95-422d-81c6-10260ca23ce4" d="M24.91602,9.5c-2.27539-2.27588-6.59961-6.61523-7.85547-7.87793-.56738-.56885-1.55664-.56787-2.12207.00195l-.53418.53613c-1.81543,1.8208-5.89844,5.91748-7.32031,7.33984-2.44531,2.4458-3.75684,5.69775-3.69043,9.15674.06543,3.45752,1.50195,6.65918,4.04395,9.01514,2.40137,2.22559,5.48145,3.33838,8.5625,3.33789,3.08105,0,6.16211-1.11279,8.5625-3.33789,2.54199-2.35596,3.97852-5.55762,4.04395-9.01514.06641-3.45898-1.24414-6.71094-3.69043-9.15674ZM23.20312,26.20508c-3.97266,3.68164-10.43359,3.68164-14.40625,0-2.13965-1.9834-3.34863-4.67725-3.4043-7.58594-.05469-2.91064,1.04785-5.64697,3.10547-7.70508,1.42285-1.42285,5.50684-5.52051,7.32227-7.34229l.17969-.17969c1.57715,1.58398,5.40723,5.42676,7.50195,7.52197,2.05762,2.05811,3.16016,4.79443,3.10547,7.70508-.05566,2.90869-1.26465,5.60254-3.4043,7.58594Z"/><path class="uuid-9092939d-6a95-422d-81c6-10260ca23ce4" d="M22.5,17.5c-.55273,0-1,.44775-1,1,0,3.03271-2.46777,5.5-5.5,5.5-.55273,0-1,.44775-1,1s.44727,1,1,1c4.13574,0,7.5-3.36426,7.5-7.5,0-.55225-.44727-1-1-1Z"/></g></svg>