<?xml version="1.0" encoding="UTF-8"?><svg xmlns="http://www.w3.org/2000/svg" viewBox="0 0 32 32"><defs><style>.uuid-897456f0-8d99-4411-ab45-0a6454bcebbf{fill:none;}.uuid-897456f0-8d99-4411-ab45-0a6454bcebbf,.uuid-acd806d0-83fd-4bb1-8bcb-0393c318b2c8{stroke-width:0px;}.uuid-acd806d0-83fd-4bb1-8bcb-0393c318b2c8{fill:#151515;}</style></defs><g id="uuid-be003995-6dd0-4ca9-a868-46aaf73b6f0c"><rect class="uuid-897456f0-8d99-4411-ab45-0a6454bcebbf" x="0" width="32" height="32"/></g><g id="uuid-30994e2b-6061-40cf-915f-063ddb9cc8f1"><path class="uuid-acd806d0-83fd-4bb1-8bcb-0393c318b2c8" d="M25.77,10.4258L17.0649,1.6533c-.5684-.5723-1.5615-.5723-2.1299,0L6.186,10.4727c-2.1865,2.5107-3.314,5.7373-3.1743,9.0859.2788,6.6836,5.7329,12.1426,12.416,12.4287.1938.0088.3867.0127.5791.0127,3.3706,0,6.543-1.2705,8.9863-3.6113,2.584-2.4746,4.0068-5.8096,4.0068-9.3887,0-3.1406-1.1313-6.1689-3.23-8.5742ZM16,27.125c-.6211,0-1.125-.5039-1.125-1.125s.5039-1.125,1.125-1.125c3.2393,0,5.875-2.6357,5.875-5.875,0-.6211.5039-1.125,1.125-1.125s1.125.5039,1.125,1.125c0,4.4805-3.645,8.125-8.125,8.125Z"/></g></svg>