<?xml version="1.0" encoding="UTF-8"?><svg xmlns="http://www.w3.org/2000/svg" viewBox="0 0 32 32"><defs><style>.uuid-02a8ee24-c262-4958-9f4d-75a5d232521b{fill:none;}.uuid-02a8ee24-c262-4958-9f4d-75a5d232521b,.uuid-05e81af9-1ac1-4d42-9c2d-5d01ac1d4b33{stroke-width:0px;}.uuid-05e81af9-1ac1-4d42-9c2d-5d01ac1d4b33{fill:#151515;}</style></defs><g id="uuid-770871b2-9a92-4c76-a4eb-246907992124"><rect class="uuid-02a8ee24-c262-4958-9f4d-75a5d232521b" width="32" height="32"/></g><g id="uuid-093f616e-0c12-4491-8e74-7dffee7e12f9"><path class="uuid-05e81af9-1ac1-4d42-9c2d-5d01ac1d4b33" d="M23,18c-.5527,0-1,.4478-1,1,0,3.3086-2.6914,6-6,6-.5527,0-1,.4478-1,1s.4473,1,1,1c4.4111,0,8-3.5889,8-8,0-.5522-.4473-1-1-1Z"/><path class="uuid-05e81af9-1ac1-4d42-9c2d-5d01ac1d4b33" d="M25.7695,10.4253L17.0645,1.6528c-.5684-.5713-1.5605-.5713-2.1289,0L6.1865,10.4727c-2.1875,2.5098-3.3154,5.7363-3.1748,9.0854.2783,6.6826,5.7324,12.1426,12.416,12.4297.1934.0083.3867.0127.5791.0127,3.3711,0,6.543-1.2705,8.9863-3.6108,2.584-2.4756,4.0068-5.8101,4.0068-9.3896,0-3.1406-1.1318-6.1689-3.2305-8.5747ZM23.6094,26.9453c-2.1855,2.0938-5.0654,3.1689-8.0957,3.0444-5.6543-.2432-10.2686-4.8618-10.5039-10.5151-.1182-2.8354.835-5.5659,2.6406-7.6401L16,3.4199l8.3057,8.3667c1.7373,1.9941,2.6943,4.5557,2.6943,7.2134,0,3.0288-1.2041,5.8506-3.3906,7.9453Z"/></g></svg>