<?xml version="1.0" encoding="UTF-8"?><svg xmlns="http://www.w3.org/2000/svg" width="32" height="32" viewBox="0 0 32 32"><defs><style>.uuid-8f84020d-bf02-420b-9bd7-0dd4e1f21664{fill:none;}.uuid-37af7cd0-c4a8-49e2-8039-bdd3874a4da8{fill:#151515;}</style></defs><g id="uuid-581eb058-6cc5-4f78-8a78-964cdda778ef"><rect class="uuid-8f84020d-bf02-420b-9bd7-0dd4e1f21664" width="32" height="32"/></g><g id="uuid-14dcf544-f8d5-4390-b6aa-eb8f1dde6f0c"><path class="uuid-37af7cd0-c4a8-49e2-8039-bdd3874a4da8" d="M24.91602,9.5c-2.27539-2.27588-6.59961-6.61523-7.85547-7.87793-.56738-.56885-1.55664-.56787-2.12207.00195l-.53418.53613c-1.81543,1.8208-5.89844,5.91748-7.32031,7.33984-2.44531,2.4458-3.75684,5.69775-3.69043,9.15674.06543,3.45752,1.50195,6.65918,4.04395,9.01514,2.40137,2.22559,5.48145,3.33838,8.5625,3.33789,3.08105,0,6.16211-1.11279,8.5625-3.33789,2.54199-2.35596,3.97852-5.55762,4.04395-9.01514.06641-3.45898-1.24414-6.71094-3.69043-9.15674ZM16,26.125c-.62109,0-1.125-.50391-1.125-1.125s.50391-1.125,1.125-1.125c2.96387,0,5.375-2.41113,5.375-5.375,0-.62109.50391-1.125,1.125-1.125s1.125.50391,1.125,1.125c0,4.20459-3.4209,7.625-7.625,7.625Z"/></g></svg>