<?xml version="1.0" encoding="UTF-8"?><svg xmlns="http://www.w3.org/2000/svg" width="32" height="32" viewBox="0 0 32 32"><defs><style>.uuid-3c714a25-7c13-4602-8a4a-d4a6d1298f8a{fill:none;}.uuid-89087e22-7d2e-40fc-a4e9-1bc0bf76eadc{fill:#151515;}</style></defs><g id="uuid-06985289-ccd3-418e-b48e-e6ef56efc5f3"><rect class="uuid-3c714a25-7c13-4602-8a4a-d4a6d1298f8a" width="32" height="32"/></g><g id="uuid-dada846a-6102-4f67-a75a-42942e02d7e4"><path class="uuid-89087e22-7d2e-40fc-a4e9-1bc0bf76eadc" d="M30,15H9c-.55225,0-1,.44775-1,1s.44775,1,1,1h21c.55225,0,1-.44775,1-1s-.44775-1-1-1Z"/><path class="uuid-89087e22-7d2e-40fc-a4e9-1bc0bf76eadc" d="M30,25H9c-.55225,0-1,.44775-1,1s.44775,1,1,1h21c.55225,0,1-.44775,1-1s-.44775-1-1-1Z"/><path class="uuid-89087e22-7d2e-40fc-a4e9-1bc0bf76eadc" d="M9,7h21c.55225,0,1-.44775,1-1s-.44775-1-1-1H9c-.55225,0-1,.44775-1,1s.44775,1,1,1Z"/><circle class="uuid-89087e22-7d2e-40fc-a4e9-1bc0bf76eadc" cx="2" cy="6.00995" r="1.5"/><circle class="uuid-89087e22-7d2e-40fc-a4e9-1bc0bf76eadc" cx="2" cy="16.00995" r="1.5"/><circle class="uuid-89087e22-7d2e-40fc-a4e9-1bc0bf76eadc" cx="2" cy="26.00995" r="1.5"/></g></svg>