<?xml version="1.0" encoding="UTF-8"?><svg xmlns="http://www.w3.org/2000/svg" width="32" height="32" viewBox="0 0 32 32"><defs><style>.uuid-a8ae47af-49c4-4bc2-a24b-711db863ac83{fill:none;}.uuid-2750b417-9d5a-495b-b9df-8f48b88d6c56{fill:#151515;}</style></defs><g id="uuid-32c32773-178e-4b32-8ba4-4dd72e66164d"><rect class="uuid-a8ae47af-49c4-4bc2-a24b-711db863ac83" width="32" height="32"/></g><g id="uuid-23246544-b4b4-4ceb-8ec3-679bece5351a"><path class="uuid-2750b417-9d5a-495b-b9df-8f48b88d6c56" d="M24.56299,4.32812C19.76123-.12305,12.23877-.12305,7.43701,4.32812c-2.54248,2.35645-3.97852,5.55859-4.04395,9.01562-.06543,3.45898,1.24512,6.71094,3.69092,9.15625,1.30859,1.30859,4.86914,4.88086,6.84326,6.8623l1.01074,1.01367c.28418.28516.66113.44238,1.06201.44238h.00098c.39893,0,.77441-.15527,1.05859-.43945l.12207-.12305c1.39453-1.40039,5.52734-5.54883,7.73438-7.75586,2.4458-2.44531,3.75635-5.69727,3.69092-9.15625-.06543-3.45703-1.50146-6.65918-4.04395-9.01562ZM23.50195,21.08594c-2.09521,2.09473-5.92383,5.93848-7.50195,7.52246l-.65576-.6582c-1.9751-1.98145-5.53711-5.55566-6.84619-6.86426-2.05762-2.05762-3.16064-4.79395-3.10547-7.7041.05518-2.90918,1.26416-5.60352,3.40381-7.58691,3.97217-3.68066,10.43506-3.68262,14.40723,0,2.13965,1.9834,3.34863,4.67773,3.40381,7.58691.05518,2.91016-1.04785,5.64648-3.10547,7.7041Z"/><path class="uuid-2750b417-9d5a-495b-b9df-8f48b88d6c56" d="M16,8.5c-2.75684,0-5,2.24316-5,5s2.24316,5,5,5,5-2.24316,5-5-2.24316-5-5-5ZM16,16.5c-1.6543,0-3-1.3457-3-3s1.3457-3,3-3,3,1.3457,3,3-1.3457,3-3,3Z"/></g></svg>