<?xml version="1.0" encoding="UTF-8"?><svg xmlns="http://www.w3.org/2000/svg" width="32" height="32" viewBox="0 0 32 32"><defs><style>.uuid-c57a6b70-51da-4ca2-8646-fb328733c464{fill:none;}.uuid-e3cea8d1-02d1-4f9d-9158-752d87f8cfa5{fill:#151515;}</style></defs><g id="uuid-b0cc1dc2-fe55-482c-b052-4b6abf0f7ab7"><rect class="uuid-c57a6b70-51da-4ca2-8646-fb328733c464" width="32" height="32"/></g><g id="uuid-b75acb8e-ebfe-41ad-9b3a-597ae7b5cfde"><path class="uuid-e3cea8d1-02d1-4f9d-9158-752d87f8cfa5" d="M24.56299,4.32812C19.76123-.12305,12.23877-.12305,7.43701,4.32812c-2.54248,2.35645-3.97852,5.55859-4.04395,9.01562-.06543,3.45898,1.24512,6.71094,3.69092,9.15625,1.30859,1.30859,4.86914,4.88086,6.84326,6.8623l1.01074,1.01367c.28418.28516.66113.44238,1.06201.44238h.00098c.39893,0,.77441-.15527,1.05859-.43945l.12207-.12305c1.39453-1.40039,5.52734-5.54883,7.73438-7.75586,2.4458-2.44531,3.75635-5.69727,3.69092-9.15625-.06543-3.45703-1.50146-6.65918-4.04395-9.01562ZM16,18c-2.48145,0-4.5-2.01855-4.5-4.5s2.01855-4.5,4.5-4.5,4.5,2.01855,4.5,4.5-2.01855,4.5-4.5,4.5Z"/></g></svg>