<?xml version="1.0" encoding="UTF-8"?><svg xmlns="http://www.w3.org/2000/svg" viewBox="0 0 32 32"><defs><style>.uuid-17336d30-ca1c-4993-97c7-635d34b5530f{fill:none;}.uuid-17336d30-ca1c-4993-97c7-635d34b5530f,.uuid-a49e8811-38fd-4451-ad18-5b9f5417b8df{stroke-width:0px;}.uuid-a49e8811-38fd-4451-ad18-5b9f5417b8df{fill:#151515;}</style></defs><g id="uuid-d5b17cf6-3624-4c80-98f9-66064fb57730"><rect class="uuid-17336d30-ca1c-4993-97c7-635d34b5530f" width="32" height="32"/></g><g id="uuid-8a7c3d5f-1f23-4a88-ba7c-38dd57233fe6"><path class="uuid-a49e8811-38fd-4451-ad18-5b9f5417b8df" d="M25.5,11h-1.5v-3c0-4.4111-3.5889-8-8-8s-8,3.5889-8,8v3h-1.5c-.8271,0-1.5.6729-1.5,1.5v17c0,.8271.6729,1.5,1.5,1.5h19c.8271,0,1.5-.6729,1.5-1.5V12.5c0-.8271-.6729-1.5-1.5-1.5ZM10,8c0-3.3086,2.6914-6,6-6s6,2.6914,6,6v3h-12v-3ZM25,29H7V13h18v16Z"/><circle class="uuid-a49e8811-38fd-4451-ad18-5b9f5417b8df" cx="16" cy="21.0002" r="1.5"/></g></svg>