<?xml version="1.0" encoding="UTF-8"?><svg xmlns="http://www.w3.org/2000/svg" width="32" height="32" viewBox="0 0 32 32"><defs><style>.uuid-6d362b4e-2f01-49de-a2b1-9950c7d9d4cd{fill:none;}.uuid-0be05d5d-f72b-4412-9d1a-c54c04bbf0ed{fill:#151515;}</style></defs><g id="uuid-607ee31e-09be-4cd6-9fbd-2a785eca98af"><rect class="uuid-6d362b4e-2f01-49de-a2b1-9950c7d9d4cd" width="32" height="32"/></g><g id="uuid-80c461c4-b21e-45ed-8113-7eda5c275505"><path class="uuid-0be05d5d-f72b-4412-9d1a-c54c04bbf0ed" d="M24.5,12.125h-1.5v-4.125c0-3.85986-3.14014-7-7-7s-7,3.14014-7,7v4.125h-1.5c-.7583,0-1.375.6167-1.375,1.375v15c0,.7583.6167,1.375,1.375,1.375h17c.7583,0,1.375-.6167,1.375-1.375v-15c0-.7583-.6167-1.375-1.375-1.375ZM16,22.76117c-.96649,0-1.75-.78351-1.75-1.75s.78351-1.75,1.75-1.75,1.75.78351,1.75,1.75-.78351,1.75-1.75,1.75ZM21,12h-10v-4c0-2.75684,2.24316-5,5-5s5,2.24316,5,5v4Z"/></g></svg>