<svg xmlns="http://www.w3.org/2000/svg" viewBox="0 0 32 32">
  <defs>
    <style>
      .uuid-a49e8811-38fd-4451-ad18-5b9f5417b8df{stroke-width:0;fill:#151515}
    </style>
  </defs>
  <path d="M0 0h32v32H0z" id="uuid-d5b17cf6-3624-4c80-98f9-66064fb57730" stroke-width="0" fill="none"/>
  <g id="uuid-8a7c3d5f-1f23-4a88-ba7c-38dd57233fe6">
    <path class="uuid-a49e8811-38fd-4451-ad18-5b9f5417b8df" d="M25.5 11H24V8c0-4.411-3.589-8-8-8S8 3.589 8 8v3H6.5c-.827 0-1.5.673-1.5 1.5v17c0 .827.673 1.5 1.5 1.5h19c.827 0 1.5-.673 1.5-1.5v-17c0-.827-.673-1.5-1.5-1.5ZM10 8c0-3.309 2.691-6 6-6s6 2.691 6 6v3H10V8Zm15 21H7V13h18v16Z"/>
    <circle class="uuid-a49e8811-38fd-4451-ad18-5b9f5417b8df" cx="16" cy="21" r="1.5"/>
  </g>
</svg>
