<?xml version="1.0" encoding="UTF-8"?><svg xmlns="http://www.w3.org/2000/svg" viewBox="0 0 32 32"><defs><style>.uuid-9307cc78-3131-4123-9082-2117bab80bc5{fill:none;}.uuid-9307cc78-3131-4123-9082-2117bab80bc5,.uuid-c7f719ab-96e7-40a9-b288-7d9833e2110d{stroke-width:0px;}.uuid-c7f719ab-96e7-40a9-b288-7d9833e2110d{fill:#151515;}</style></defs><g id="uuid-e57fff3e-1939-4011-97f6-fb70d077121a"><rect class="uuid-9307cc78-3131-4123-9082-2117bab80bc5" x="0" width="32" height="32"/></g><g id="uuid-dddc7443-0b8e-4ebc-b50c-fa029eef76e7"><path class="uuid-c7f719ab-96e7-40a9-b288-7d9833e2110d" d="M25.5,11.25h-1.5v-3.25c0-4.4111-3.5889-8-8-8s-8,3.5889-8,8v3.25h-1.5c-.6895,0-1.25.5605-1.25,1.25v17c0,.6895.5605,1.25,1.25,1.25h19c.6895,0,1.25-.5605,1.25-1.25V12.5c0-.6895-.5605-1.25-1.25-1.25ZM16,22.5001c-.8284,0-1.5-.6716-1.5-1.5s.6716-1.5,1.5-1.5,1.5.6716,1.5,1.5-.6716,1.5-1.5,1.5ZM22,11h-12v-3c0-3.3086,2.6914-6,6-6s6,2.6914,6,6v3Z"/></g></svg>