<?xml version="1.0" encoding="UTF-8"?><svg xmlns="http://www.w3.org/2000/svg" width="32" height="32" viewBox="0 0 32 32"><defs><style>.uuid-613788eb-6b2a-46b5-a0f7-4e8359f442ae{fill:none;}.uuid-b3054078-1b15-4ed1-b9e2-ece9429a2f78{fill:#151515;}</style></defs><g id="uuid-0dae681d-baac-4eb7-b53f-8d8495cf9b81"><rect class="uuid-613788eb-6b2a-46b5-a0f7-4e8359f442ae" width="32" height="32"/></g><g id="uuid-a8a10ed9-d0c1-4916-96ec-079b714711e4"><path class="uuid-b3054078-1b15-4ed1-b9e2-ece9429a2f78" d="M24.5,12h-1.5v-4c0-3.85986-3.14014-7-7-7s-7,3.14014-7,7v4h-1.5c-.82715,0-1.5.67285-1.5,1.5v15c0,.82715.67285,1.5,1.5,1.5h17c.82715,0,1.5-.67285,1.5-1.5v-15c0-.82715-.67285-1.5-1.5-1.5ZM11,8c0-2.75684,2.24316-5,5-5s5,2.24316,5,5v4h-10v-4ZM24,28H8v-14h16v14Z"/><path class="uuid-b3054078-1b15-4ed1-b9e2-ece9429a2f78" d="M17.49518,20.95221c-.01599-.49908-.27216-.93738-.66058-1.19806-.00195-.00128-.00305-.00287-.005-.00415-.01056-.00671-.02393-.01074-.03455-.01733-.23096-.1452-.50214-.23248-.79504-.23248-.01569,0-.03027.00415-.0459.00464-.03625.0011-.07117.00702-.10718.0108-.08051.0083-.15887.02112-.23505.04163-.03345.00903-.06567.01923-.09845.03058-.08057.02777-.15704.06219-.23071.10266-.02515.01379-.0506.02545-.07495.04065-.39532.24731-.6626.6723-.6972,1.16418-.00256.03503-.01056.06958-.01056.10468v.00018c0,.72705.51746,1.33276,1.2041,1.47021.04211.00848.08618.00818.12921.013.05542.00623.10956.01678.16669.01678.15686,0,.30518-.03082.44733-.0755.04022-.01227.08313-.02179.1225-.03503.005-.00201.00812-.00494.01306-.00702.0155-.00653.02893-.01666.04413-.02374.0719-.0343.1405-.07007.20258-.10889.00146-.00098.00226-.00208.00372-.00305.40186-.2691.66669-.72681.66669-1.24677v-.00018c0-.01605-.00427-.0318-.00482-.04779Z"/></g></svg>