<?xml version="1.0" encoding="UTF-8"?><svg xmlns="http://www.w3.org/2000/svg" width="32" height="32" viewBox="0 0 32 32"><defs><style>.uuid-d775fa76-ce3c-4591-bf2a-67de8cee3fa4{fill:none;}.uuid-07fc0d9c-7fd7-4380-a90d-e7abfc7175eb{fill:#151515;}</style></defs><g id="uuid-38d882f8-9849-438b-b553-877066ae3aa4"><rect class="uuid-d775fa76-ce3c-4591-bf2a-67de8cee3fa4" width="32" height="32"/></g><g id="uuid-5e4033aa-7a9f-4c12-b839-294301f4ea6f"><path class="uuid-07fc0d9c-7fd7-4380-a90d-e7abfc7175eb" d="M24.20605,22.79443c-1.81543,0-3.52148-.70703-4.80469-1.99023-.39062-.39062-.39062-1.02344,0-1.41406s1.02344-.39062,1.41406,0c1.87109,1.87061,4.91309,1.86865,6.78027,0,1.86914-1.86914,1.86914-4.91113,0-6.78027-1.86719-1.86768-4.90918-1.86963-6.78027,0-1.33887,1.33936-4.10938,4.09863-4.10938,4.09863-.00098,0-2.76855,2.75732-4.10742,4.0957-1.2832,1.2832-2.98926,1.99023-4.80469,1.99023-1.81445,0-3.52051-.70703-4.80371-1.99023-2.64941-2.64893-2.64941-6.95947,0-9.6084,1.2832-1.2832,2.98926-1.99023,4.80371-1.99023,1.81543,0,3.52148.70703,4.80469,1.99023.39062.39062.39062,1.02344,0,1.41406s-1.02344.39062-1.41406,0c-1.86914-1.86963-4.91113-1.86768-6.78027,0-1.86914,1.86914-1.86914,4.91113,0,6.78027,1.86914,1.86865,4.91113,1.87061,6.78027,0,1.33887-1.33936,4.10938-4.09863,4.10938-4.09863.00098,0,2.76855-2.75732,4.10742-4.0957,1.2832-1.2832,2.98926-1.99023,4.80469-1.99023,1.81445,0,3.52051.70703,4.80371,1.99023,2.64941,2.64893,2.64941,6.95947,0,9.6084-1.2832,1.2832-2.98926,1.99023-4.80371,1.99023Z"/></g></svg>