<?xml version="1.0" encoding="UTF-8"?><svg xmlns="http://www.w3.org/2000/svg" viewBox="0 0 32 32"><defs><style>.uuid-a6eb2516-c1fd-438e-bf9f-e587dede5a69{fill:none;}.uuid-a6eb2516-c1fd-438e-bf9f-e587dede5a69,.uuid-5137455c-b5b8-45c0-a11e-0ff3265652a8{stroke-width:0px;}.uuid-5137455c-b5b8-45c0-a11e-0ff3265652a8{fill:#151515;}</style></defs><g id="uuid-f4540754-b565-4db5-ac4f-e73cef32dec4"><rect class="uuid-a6eb2516-c1fd-438e-bf9f-e587dede5a69" x="0" width="32" height="32"/></g><g id="uuid-09fdde45-4a0e-4881-9585-cf1e76b43ca4"><path class="uuid-5137455c-b5b8-45c0-a11e-0ff3265652a8" d="M24.75,8.75c-2.6587,0-4.5864,1.5898-6.1211,3.1455l-2.0181,2.0469c-1.521,1.5439-3.0425,3.0879-4.5688,4.627-1.606,1.6191-2.8076,2.6807-4.792,2.6807-2.895,0-5.25-2.355-5.25-5.25s2.355-5.25,5.25-5.25c.999,0,1.9692.2808,2.8062.8115.3311.2104.6611.4839,1.022.8433l.1987.208c.3818.3989,1.0142.4136,1.4141.0322.3994-.3818.4136-1.0146.0322-1.4141l-.2158-.2251c-.4834-.4824-.9219-.8423-1.3799-1.1328-1.1577-.7349-2.4985-1.123-3.8774-1.123-3.9976,0-7.25,3.2524-7.25,7.25s3.2524,7.25,7.25,7.25c2.9663,0,4.7661-1.8145,6.2119-3.2725,1.5278-1.54,3.0508-3.0859,4.5737-4.6313l2.0171-2.0464c1.3066-1.3242,2.7803-2.5498,4.6973-2.5498,2.895,0,5.25,2.355,5.25,5.25s-2.355,5.25-5.25,5.25c-1.3701,0-2.4688-.4907-3.7559-1.6606l-.2944-.2954c-.3911-.3906-1.0234-.3921-1.4146-.0024-.3911.3901-.3921,1.0234-.0024,1.4146l.3301.3291c1.1333,1.0312,2.7417,2.2148,5.1372,2.2148,3.9976,0,7.25-3.2524,7.25-7.25s-3.2524-7.25-7.25-7.25Z"/></g></svg>