<?xml version="1.0" encoding="UTF-8"?><svg xmlns="http://www.w3.org/2000/svg" width="32" height="32" viewBox="0 0 32 32"><defs><style>.uuid-b20a8095-5fc7-439e-b511-5f8b348f9328{fill:none;}.uuid-67eaea7c-78d6-4f09-87aa-6a21699dee0b{fill:#151515;}</style></defs><g id="uuid-9c3760a0-d0f2-45d8-a66d-7ff385d8ea23"><rect class="uuid-b20a8095-5fc7-439e-b511-5f8b348f9328" width="32" height="32"/></g><g id="uuid-55b76639-0ec7-49cf-b6da-ca2e408e9029"><polygon class="uuid-67eaea7c-78d6-4f09-87aa-6a21699dee0b" points="1 6.59131 1 25.40869 10.40869 16 1 6.59131"/><polygon class="uuid-67eaea7c-78d6-4f09-87aa-6a21699dee0b" points="2.59131 5 12.7948 15.20386 12.7959 15.20459 12.79663 15.20569 16 18.40918 19.20337 15.20569 19.2041 15.20459 19.2052 15.20386 29.40869 5 2.59131 5"/><polygon class="uuid-67eaea7c-78d6-4f09-87aa-6a21699dee0b" points="21.59131 16 31 25.40869 31 6.59131 21.59131 16"/><path class="uuid-67eaea7c-78d6-4f09-87aa-6a21699dee0b" d="M20,17.59131l-2.85059,2.85059c-.31738.31689-.7334.4751-1.14941.4751s-.83203-.1582-1.14941-.4751l-2.85059-2.85059L2.59131,27h26.81738l-9.40869-9.40869Z"/></g></svg>