<svg xmlns="http://www.w3.org/2000/svg" viewBox="0 0 32 32">
  <defs>
    <style>
      .uuid-cd799c47-5738-4123-9ea4-4f63baf0542d{stroke-width:0;fill:#151515}
    </style>
  </defs>
  <path d="M0 0h32v32H0z" id="uuid-fc3c7915-be74-4edc-8a05-d60fb10d8e8e" stroke-width="0" fill="none"/>
  <g id="uuid-2de5ac4d-231a-424d-a75d-fd9c88c92fea">
    <path class="uuid-cd799c47-5738-4123-9ea4-4f63baf0542d" d="m20 17.06-3.116 3.117c-.244.244-.564.365-.884.365s-.64-.121-.884-.365L12 17.06l-9.883 9.883c.123.033.25.056.383.056h27c.133 0 .26-.023.384-.056L20 17.061ZM31 6.5c0-.133-.023-.26-.056-.384L21.061 16l9.883 9.883A1.47 1.47 0 0 0 31 25.5v-19Z"/>
    <path class="uuid-cd799c47-5738-4123-9ea4-4f63baf0542d" d="M16 18.94 29.883 5.055A1.482 1.482 0 0 0 29.5 5h-27c-.133 0-.26.023-.384.056L16 18.939ZM1.056 6.117A1.47 1.47 0 0 0 1 6.5v19c0 .133.023.26.056.384L10.939 16 1.056 6.117Z"/>
  </g>
</svg>
