<?xml version="1.0" encoding="UTF-8"?><svg xmlns="http://www.w3.org/2000/svg" viewBox="0 0 32 32"><defs><style>.uuid-934d25cc-c41f-4fcf-8f7a-c9b0f69d9670{fill:none;}.uuid-934d25cc-c41f-4fcf-8f7a-c9b0f69d9670,.uuid-cd799c47-5738-4123-9ea4-4f63baf0542d{stroke-width:0px;}.uuid-cd799c47-5738-4123-9ea4-4f63baf0542d{fill:#151515;}</style></defs><g id="uuid-fc3c7915-be74-4edc-8a05-d60fb10d8e8e"><rect class="uuid-934d25cc-c41f-4fcf-8f7a-c9b0f69d9670" x="0" width="32" height="32"/></g><g id="uuid-2de5ac4d-231a-424d-a75d-fd9c88c92fea"><path class="uuid-cd799c47-5738-4123-9ea4-4f63baf0542d" d="M20,17.0605l-3.1162,3.1162c-.2437.2441-.5635.3652-.8838.3652s-.6401-.1211-.8838-.3652l-3.1162-3.1162L2.1165,26.9441c.1232.0328.2502.0559.3835.0559h27c.1334,0,.2604-.0231.3835-.0559l-9.8835-9.8835Z"/><path class="uuid-cd799c47-5738-4123-9ea4-4f63baf0542d" d="M31,6.5c0-.1334-.0231-.2604-.0559-.3835l-9.8835,9.8835,9.8835,9.8835c.0328-.1232.0559-.2502.0559-.3835V6.5Z"/><path class="uuid-cd799c47-5738-4123-9ea4-4f63baf0542d" d="M16,18.9395l13.8835-13.8835c-.1232-.0328-.2502-.0559-.3835-.0559H2.5c-.1334,0-.2604.0231-.3835.0559l13.8835,13.8835Z"/><path class="uuid-cd799c47-5738-4123-9ea4-4f63baf0542d" d="M1.0559,6.1165c-.0328.1232-.0559.2502-.0559.3835v19c0,.1334.0231.2604.0559.3835l9.8835-9.8835L1.0559,6.1165Z"/></g></svg>