<?xml version="1.0" encoding="UTF-8"?><svg xmlns="http://www.w3.org/2000/svg" width="32" height="32" viewBox="0 0 32 32"><defs><style>.uuid-f09e2638-0d27-40e4-80af-d60f56f3cffc{fill:none;}.uuid-ee81b627-3f24-4fdf-b691-2a39d11baa37{fill:#151515;}</style></defs><g id="uuid-5f320e43-0962-4f30-ba39-1e1869c85d5b"><rect class="uuid-f09e2638-0d27-40e4-80af-d60f56f3cffc" width="32" height="32"/></g><g id="uuid-025b7e0e-a0ac-449d-91e3-a9ffcf935e84"><path class="uuid-ee81b627-3f24-4fdf-b691-2a39d11baa37" d="M21.5,11h6.5c.55273,0,1-.44775,1-1s-.44727-1-1-1h-6V3h6c.55273,0,1-.44775,1-1s-.44727-1-1-1h-6.5c-.82715,0-1.5.67285-1.5,1.5v2.5h-8.09998c-.46002-2.28003-2.48004-4-4.90002-4-2.76001,0-5,2.23999-5,5s2.23999,5,5,5c1.02002,0,1.96997-.31,2.76001-.83002l5.51001,5.51001c-.79004.89001-1.27002,2.04999-1.27002,3.32001s.47998,2.42999,1.27002,3.32001l-6.68964,6.67999h-4.58038c-.55273,0-1,.44775-1,1s.44727,1,1,1h24c.55273,0,1-.44775,1-1s-.44727-1-1-1H11.42004l5.46997-5.46997c.64001.29999,1.35999.46997,2.10999.46997,2.76001,0,5-2.23999,5-5s-2.23999-5-5-5c-.75,0-1.46997.16998-2.10999.46997l-5.71002-5.70996c.34003-.52002.59003-1.12.72003-1.76001h8.09998v2.5c0,.82715.67285,1.5,1.5,1.5ZM18.46997,16.04999c.17004-.02997.35004-.04999.53003-.04999,1.65002,0,3,1.34998,3,3s-1.34998,3-3,3c-.17999,0-.35999-.02002-.53003-.04999-.71997-.13-1.34998-.51001-1.78998-1.04999-.41998-.52002-.67999-1.19-.67999-1.90002s.26001-1.38.67999-1.90002c.44-.53998,1.07001-.91998,1.78998-1.04999ZM9.70001,7.28003c-.29004.62-.79004,1.12994-1.41003,1.41998-.38995.19-.82996.29999-1.28998.29999-1.65002,0-3-1.34998-3-3s1.34998-3,3-3c1.31,0,2.41998.84998,2.83002,2.02002.10999.31.16998.63995.16998.97998s-.06.66998-.16998.97998c-.04004.10004-.08002.20001-.13.30005Z"/></g></svg>