<?xml version="1.0" encoding="UTF-8"?><svg xmlns="http://www.w3.org/2000/svg" width="32" height="32" viewBox="0 0 32 32"><defs><style>.uuid-39be145e-2711-44eb-80ca-612549501cfd{fill:none;}.uuid-5f656dfd-d570-4229-bbff-f845dc0e0d04{fill:#151515;}</style></defs><g id="uuid-d459ff15-575b-419b-81d7-093c9c4b6b55"><rect class="uuid-39be145e-2711-44eb-80ca-612549501cfd" width="32" height="32"/></g><g id="uuid-76cc4e0d-80b9-479d-856f-d3c7609ff6f0"><path class="uuid-5f656dfd-d570-4229-bbff-f845dc0e0d04" d="M21.5,11h6.5c.55273,0,1-.44775,1-1s-.44727-1-1-1h-6V3h6c.55273,0,1-.44775,1-1s-.44727-1-1-1h-6.5c-.82715,0-1.5.67285-1.5,1.5v2.5h-8.10107c-.46466-2.2793-2.4845-4-4.89893-4-2.75684,0-5,2.24316-5,5s2.24316,5,5,5c1.01733,0,1.9624-.30902,2.75293-.83301l5.526,5.526c-.78613.88361-1.27893,2.03418-1.27893,3.30701s.4928,2.4234,1.27893,3.30701l-6.69299,6.69299h-4.58594c-.55273,0-1,.44775-1,1s.44727,1,1,1h24c.55273,0,1-.44775,1-1s-.44727-1-1-1H11.41406l5.4809-5.4809c.64203.30054,1.35059.4809,2.10504.4809,2.75684,0,5-2.24316,5-5s-2.24316-5-5-5c-.75446,0-1.46301.18036-2.10504.4809l-5.72797-5.72797c.3476-.52441.60205-1.11578.73193-1.75293h8.10107v2.5c0,.82715.67285,1.5,1.5,1.5Z"/></g></svg>