<?xml version="1.0" encoding="UTF-8"?><svg xmlns="http://www.w3.org/2000/svg" viewBox="0 0 32 32"><defs><style>.uuid-69ee29ce-273d-4fbd-8ced-8305169f18e7{fill:none;}.uuid-69ee29ce-273d-4fbd-8ced-8305169f18e7,.uuid-c3cab8aa-75f3-4dc3-adda-cba2488d1987{stroke-width:0px;}.uuid-c3cab8aa-75f3-4dc3-adda-cba2488d1987{fill:#151515;}</style></defs><g id="uuid-97dcf50b-dc8c-4b0b-89a3-ef2ee3439eaa"><rect class="uuid-69ee29ce-273d-4fbd-8ced-8305169f18e7" width="32" height="32"/></g><g id="uuid-b8dc46a9-d0fb-4491-bef0-858441da6d56"><path class="uuid-c3cab8aa-75f3-4dc3-adda-cba2488d1987" d="M23.5,11h6.5c.5522,0,1-.4473,1-1s-.4478-1-1-1h-6V3h6c.5522,0,1-.4473,1-1s-.4478-1-1-1h-6.5c-.8271,0-1.5.6729-1.5,1.5v2.5h-11.1011c-.4647-2.2793-2.4845-4-4.8989-4C3.2432,1,1,3.2432,1,6s2.2432,5,5,5c1.0173,0,1.9624-.309,2.7529-.833l5.0801,5.0801c-.524.7905-.833,1.7356-.833,2.7529s.309,1.9624.833,2.7529l-8.2471,8.2471h-3.5859c-.5522,0-1,.4473-1,1s.4478,1,1,1h28c.5522,0,1-.4473,1-1s-.4478-1-1-1H8.4141l6.833-6.833c.7905.524,1.7356.833,2.7529.833,2.7568,0,5-2.2432,5-5s-2.2432-5-5-5c-1.0173,0-1.9624.309-2.7529.833l-5.0801-5.0801c.3476-.5244.6021-1.1158.7319-1.7529h11.1011v2.5c0,.8271.6729,1.5,1.5,1.5Z"/></g></svg>