<?xml version="1.0" encoding="UTF-8"?><svg xmlns="http://www.w3.org/2000/svg" viewBox="0 0 32 32"><defs><style>.uuid-2336a37c-9eb2-48cb-8a1c-3773e60e0510{fill:none;}.uuid-2336a37c-9eb2-48cb-8a1c-3773e60e0510,.uuid-4997d353-6c1e-4c91-a2e9-96519ce171eb{stroke-width:0px;}.uuid-4997d353-6c1e-4c91-a2e9-96519ce171eb{fill:#151515;}</style></defs><g id="uuid-ad22cdcf-6a8d-4556-b532-9bdbfe0ded4b"><rect class="uuid-2336a37c-9eb2-48cb-8a1c-3773e60e0510" width="32" height="32"/></g><g id="uuid-16efcb50-21e2-4843-85a3-e73c202e22ea"><path class="uuid-4997d353-6c1e-4c91-a2e9-96519ce171eb" d="M23.5,11h6.5c.5522,0,1-.4478,1-1s-.4478-1-1-1h-6V3h6c.5522,0,1-.4478,1-1s-.4478-1-1-1h-6.5c-.8271,0-1.5.6729-1.5,1.5v2.5h-11.1011c-.4647-2.2793-2.4845-4-4.8989-4C3.2432,1,1,3.2432,1,6s2.2432,5,5,5c1.0173,0,1.9624-.309,2.7529-.833l5.0801,5.0801c-.524.7905-.833,1.7356-.833,2.7529s.309,1.9624.833,2.7529l-8.2471,8.2471h-3.5859c-.5522,0-1,.4478-1,1s.4478,1,1,1h28c.5522,0,1-.4478,1-1s-.4478-1-1-1H8.4141l6.833-6.833c.7905.524,1.7356.833,2.7529.833,2.7568,0,5-2.2432,5-5s-2.2432-5-5-5c-1.0173,0-1.9624.309-2.7529.833l-5.0801-5.0801c.3476-.5244.6021-1.1158.7319-1.7529h11.1011v2.5c0,.8271.6729,1.5,1.5,1.5ZM3,6c0-1.6543,1.3457-3,3-3s3,1.3457,3,3-1.3457,3-3,3-3-1.3457-3-3ZM21,18c0,1.6543-1.3457,3-3,3s-3-1.3457-3-3,1.3457-3,3-3,3,1.3457,3,3Z"/></g></svg>