<?xml version="1.0" encoding="UTF-8"?><svg xmlns="http://www.w3.org/2000/svg" width="32" height="32" viewBox="0 0 32 32"><defs><style>.uuid-3edc9399-c939-4497-8cba-74abe70a3c9d{fill:none;}.uuid-537d961d-f360-42d0-ad4e-82f4bfa6e20a{fill:#151515;}</style></defs><g id="uuid-a61399f9-86ee-492c-9937-d0eaae1f2d38"><rect class="uuid-3edc9399-c939-4497-8cba-74abe70a3c9d" width="32" height="32"/></g><g id="uuid-77b73b18-870f-454b-9603-1af77fe6e3aa"><path class="uuid-537d961d-f360-42d0-ad4e-82f4bfa6e20a" d="M12.5,25h7c.82715,0,1.5-.67285,1.5-1.5v-15c0-.82715-.67285-1.5-1.5-1.5h-7c-.82715,0-1.5.67285-1.5,1.5v15c0,.82715.67285,1.5,1.5,1.5ZM13,9h6v14h-6v-14Z"/><path class="uuid-537d961d-f360-42d0-ad4e-82f4bfa6e20a" d="M29,12c.55273,0,1-.44727,1-1s-.44727-1-1-1h-3v-3h3c.55273,0,1-.44727,1-1s-.44727-1-1-1h-3v-1.5c0-.82715-.67285-1.5-1.5-1.5H7.5c-.82715,0-1.5.67285-1.5,1.5v1.5h-3c-.55273,0-1,.44727-1,1s.44727,1,1,1h3v3h-3c-.55273,0-1,.44727-1,1s.44727,1,1,1h3v3h-3c-.55273,0-1,.44727-1,1s.44727,1,1,1h3v3h-3c-.55273,0-1,.44727-1,1s.44727,1,1,1h3v3h-3c-.55273,0-1,.44727-1,1s.44727,1,1,1h3v1.5c0,.82715.67285,1.5,1.5,1.5h17c.82715,0,1.5-.67285,1.5-1.5v-1.5h3c.55273,0,1-.44727,1-1s-.44727-1-1-1h-3v-3h3c.55273,0,1-.44727,1-1s-.44727-1-1-1h-3v-3h3c.55273,0,1-.44727,1-1s-.44727-1-1-1h-3v-3h3ZM24,28H8V4h16v24Z"/></g></svg>