<?xml version="1.0" encoding="UTF-8"?><svg xmlns="http://www.w3.org/2000/svg" width="32" height="32" viewBox="0 0 32 32"><defs><style>.uuid-1d8a8205-b36c-423d-ac97-3b2641105cff{fill:none;}.uuid-d9ba1ca3-927c-4950-8bed-20eac24eb827{fill:#151515;}</style></defs><g id="uuid-8b90f702-39f0-4424-9cde-27e42f1e7e7a"><rect class="uuid-1d8a8205-b36c-423d-ac97-3b2641105cff" width="32" height="32"/></g><g id="uuid-94371867-d796-4f7e-a054-df4f574143dd"><rect class="uuid-d9ba1ca3-927c-4950-8bed-20eac24eb827" x="13.125" y="9.125" width="5.75" height="13.75"/><path class="uuid-d9ba1ca3-927c-4950-8bed-20eac24eb827" d="M29,12c.55273,0,1-.44727,1-1s-.44727-1-1-1h-3.25v-3h3.25c.55273,0,1-.44727,1-1s-.44727-1-1-1h-3.25v-1.5c0-.68945-.56055-1.25-1.25-1.25H7.5c-.68945,0-1.25.56055-1.25,1.25v1.5h-3.25c-.55273,0-1,.44727-1,1s.44727,1,1,1h3.25v3h-3.25c-.55273,0-1,.44727-1,1s.44727,1,1,1h3.25v3h-3.25c-.55273,0-1,.44727-1,1s.44727,1,1,1h3.25v3h-3.25c-.55273,0-1,.44727-1,1s.44727,1,1,1h3.25v3h-3.25c-.55273,0-1,.44727-1,1s.44727,1,1,1h3.25v1.5c0,.68945.56055,1.25,1.25,1.25h17c.68945,0,1.25-.56055,1.25-1.25v-1.5h3.25c.55273,0,1-.44727,1-1s-.44727-1-1-1h-3.25v-3h3.25c.55273,0,1-.44727,1-1s-.44727-1-1-1h-3.25v-3h3.25c.55273,0,1-.44727,1-1s-.44727-1-1-1h-3.25v-3h3.25ZM21.125,23.5c0,.89648-.72852,1.625-1.625,1.625h-7c-.89648,0-1.625-.72852-1.625-1.625v-15c0-.89648.72852-1.625,1.625-1.625h7c.89648,0,1.625.72852,1.625,1.625v15Z"/></g></svg>