<?xml version="1.0" encoding="UTF-8"?><svg xmlns="http://www.w3.org/2000/svg" viewBox="0 0 32 32"><defs><style>.uuid-0172c941-5be4-42f6-9397-91647e8fde5b{fill:none;}.uuid-0172c941-5be4-42f6-9397-91647e8fde5b,.uuid-9dfd8f40-4470-4a11-ba91-a0d95c076e3d{stroke-width:0px;}.uuid-9dfd8f40-4470-4a11-ba91-a0d95c076e3d{fill:#151515;}</style></defs><g id="uuid-c707fe4a-9fb1-40c5-b9b9-144306702c27"><rect class="uuid-0172c941-5be4-42f6-9397-91647e8fde5b" width="32" height="32"/></g><g id="uuid-4986fc4d-1447-457a-a505-1729e689e01c"><path class="uuid-9dfd8f40-4470-4a11-ba91-a0d95c076e3d" d="M30,15H2c-.5527,0-1,.4478-1,1s.4473,1,1,1h28c.5527,0,1-.4478,1-1s-.4473-1-1-1Z"/><path class="uuid-9dfd8f40-4470-4a11-ba91-a0d95c076e3d" d="M2,7h28c.5527,0,1-.4478,1-1s-.4473-1-1-1H2c-.5527,0-1,.4478-1,1s.4473,1,1,1Z"/><path class="uuid-9dfd8f40-4470-4a11-ba91-a0d95c076e3d" d="M30,25H2c-.5527,0-1,.4478-1,1s.4473,1,1,1h28c.5527,0,1-.4478,1-1s-.4473-1-1-1Z"/></g></svg>