<?xml version="1.0" encoding="UTF-8"?><svg xmlns="http://www.w3.org/2000/svg" width="32" height="32" viewBox="0 0 32 32"><defs><style>.uuid-9d93a70d-a24d-4913-a6f5-92113676d038{fill:none;}.uuid-4418afc4-b489-4bca-a75a-dfaea6513026{fill:#151515;}</style></defs><g id="uuid-a0324826-e4da-4428-b8b4-b67fab2d45af"><rect class="uuid-9d93a70d-a24d-4913-a6f5-92113676d038" width="32" height="32"/></g><g id="uuid-762cd1c0-14f2-47b1-bb64-afee7a9aea15"><path class="uuid-4418afc4-b489-4bca-a75a-dfaea6513026" d="M30,15H2c-.55273,0-1,.44775-1,1s.44727,1,1,1h28c.55273,0,1-.44775,1-1s-.44727-1-1-1Z"/><path class="uuid-4418afc4-b489-4bca-a75a-dfaea6513026" d="M30,25H2c-.55273,0-1,.44775-1,1s.44727,1,1,1h28c.55273,0,1-.44775,1-1s-.44727-1-1-1Z"/><path class="uuid-4418afc4-b489-4bca-a75a-dfaea6513026" d="M2,7h28c.55273,0,1-.44775,1-1s-.44727-1-1-1H2c-.55273,0-1,.44775-1,1s.44727,1,1,1Z"/></g></svg>