<?xml version="1.0" encoding="UTF-8"?><svg xmlns="http://www.w3.org/2000/svg" width="32" height="32" viewBox="0 0 32 32"><defs><style>.uuid-328baee3-7838-46f2-8717-a1bd58ff15f9{fill:none;}.uuid-164872d5-72d9-4286-b8e8-3ddbe7d817d4{fill:#151515;}</style></defs><g id="uuid-51dab922-d22c-41c5-9c5b-99f5739555e9"><rect class="uuid-328baee3-7838-46f2-8717-a1bd58ff15f9" width="32" height="32"/></g><g id="uuid-fba88dae-ac20-4f69-8ec6-bcaa6928ce91"><path class="uuid-164872d5-72d9-4286-b8e8-3ddbe7d817d4" d="M16,22c3.85986,0,7-3.14062,7-7v-7c0-3.85938-3.14014-7-7-7s-7,3.14062-7,7v7c0,3.85938,3.14014,7,7,7ZM11,8c0-2.75684,2.24316-5,5-5s5,2.24316,5,5v7c0,2.75684-2.24316,5-5,5s-5-2.24316-5-5v-7Z"/><path class="uuid-164872d5-72d9-4286-b8e8-3ddbe7d817d4" d="M27,15c0-.55273-.44775-1-1-1s-1,.44727-1,1c0,4.96289-4.0376,9-9,9s-9-4.03711-9-9c0-.55273-.44775-1-1-1s-1,.44727-1,1c0,5.73132,4.40741,10.44702,10.01013,10.94989-.00092.01758-.01013.03235-.01013.05011v2.02051h-4.98047c-.55225,0-1,.44727-1,1s.44775,1,1,1h11.98047c.55225,0,1-.44727,1-1s-.44775-1-1-1h-5v-2.02051c0-.01776-.00922-.03253-.01013-.05011,5.60272-.50287,10.01013-5.21857,10.01013-10.94989Z"/></g></svg>