<?xml version="1.0" encoding="UTF-8"?><svg xmlns="http://www.w3.org/2000/svg" width="32" height="32" viewBox="0 0 32 32"><defs><style>.uuid-3edb49ce-0757-4023-a9a2-6abad628fd39{fill:none;}.uuid-aa766edc-6c10-422b-96ff-c8a959d5ec29{fill:#151515;}</style></defs><g id="uuid-0163f654-f0d6-4fb2-b6b8-502c0a9faa37"><rect class="uuid-3edb49ce-0757-4023-a9a2-6abad628fd39" width="32" height="32"/></g><g id="uuid-563d013c-8ef6-4318-aed9-d4c30552fdb4"><path class="uuid-aa766edc-6c10-422b-96ff-c8a959d5ec29" d="M16,22c3.85986,0,7-3.14062,7-7v-7c0-3.85938-3.14014-7-7-7s-7,3.14062-7,7v7c0,3.85938,3.14014,7,7,7Z"/><path class="uuid-aa766edc-6c10-422b-96ff-c8a959d5ec29" d="M27,15c0-.55273-.44775-1-1-1s-1,.44727-1,1c0,4.96289-4.0376,9-9,9s-9-4.03711-9-9c0-.55273-.44775-1-1-1s-1,.44727-1,1c0,5.73132,4.40741,10.44702,10.01013,10.94989-.00092.01758-.01013.03235-.01013.05011v2.02051h-4.98047c-.55225,0-1,.44727-1,1s.44775,1,1,1h11.98047c.55225,0,1-.44727,1-1s-.44775-1-1-1h-5v-2.02051c0-.01776-.00922-.03253-.01013-.05011,5.60272-.50287,10.01013-5.21857,10.01013-10.94989Z"/></g></svg>