<?xml version="1.0" encoding="UTF-8"?><svg xmlns="http://www.w3.org/2000/svg" viewBox="0 0 32 32"><defs><style>.uuid-0996e7fc-83b9-42e4-894d-7e09a90f7ad0{fill:none;}.uuid-0996e7fc-83b9-42e4-894d-7e09a90f7ad0,.uuid-dbfcfb7f-7b5f-4e4b-b8a0-43abadc18e28{stroke-width:0px;}.uuid-dbfcfb7f-7b5f-4e4b-b8a0-43abadc18e28{fill:#151515;}</style></defs><g id="uuid-10ec8095-7da2-4e92-b9f1-2f3565db1737"><rect class="uuid-0996e7fc-83b9-42e4-894d-7e09a90f7ad0" width="32" height="32"/></g><g id="uuid-089ea75a-a4d1-48a8-8558-c1c2bcb084b0"><path class="uuid-dbfcfb7f-7b5f-4e4b-b8a0-43abadc18e28" d="M29.5,1H12.5c-.8271,0-1.5.6729-1.5,1.5v4.5c0,.5522.4473,1,1,1s1-.4478,1-1V3h16v16h-4c-.5527,0-1,.4478-1,1s.4473,1,1,1h4.5c.8271,0,1.5-.6729,1.5-1.5V2.5c0-.8271-.6729-1.5-1.5-1.5Z"/><path class="uuid-dbfcfb7f-7b5f-4e4b-b8a0-43abadc18e28" d="M20,25c-.5527,0-1,.4478-1,1v3H3V13h8c.5527,0,1-.4478,1-1s-.4473-1-1-1H2.5c-.8271,0-1.5.6729-1.5,1.5v17c0,.8271.6729,1.5,1.5,1.5h17c.8271,0,1.5-.6729,1.5-1.5v-3.5c0-.5522-.4473-1-1-1Z"/><path class="uuid-dbfcfb7f-7b5f-4e4b-b8a0-43abadc18e28" d="M24,13c.2559,0,.5117-.0977.707-.293.3906-.3906.3906-1.0234,0-1.4141l-3.6465-3.6465c-.584-.585-1.5371-.585-2.1211,0l-3.6465,3.6465c-.3906.3906-.3906,1.0234,0,1.4141s1.0234.3906,1.4141,0l2.293-2.293v10.5859c0,.5522.4473,1,1,1s1-.4478,1-1v-10.5859l2.293,2.293c.1953.1953.4512.293.707.293Z"/></g></svg>