<svg xmlns="http://www.w3.org/2000/svg" viewBox="0 0 32 32">
  <defs>
    <style>
      .uuid-dbfcfb7f-7b5f-4e4b-b8a0-43abadc18e28{stroke-width:0;fill:#151515}
    </style>
  </defs>
  <path d="M0 0h32v32H0z" id="uuid-10ec8095-7da2-4e92-b9f1-2f3565db1737" stroke-width="0" fill="none"/>
  <g id="uuid-089ea75a-a4d1-48a8-8558-c1c2bcb084b0">
    <path class="uuid-dbfcfb7f-7b5f-4e4b-b8a0-43abadc18e28" d="M29.5 1h-17c-.827 0-1.5.673-1.5 1.5V7a1 1 0 1 0 2 0V3h16v16h-4a1 1 0 1 0 0 2h4.5c.827 0 1.5-.673 1.5-1.5v-17c0-.827-.673-1.5-1.5-1.5ZM20 25a1 1 0 0 0-1 1v3H3V13h8a1 1 0 1 0 0-2H2.5c-.827 0-1.5.673-1.5 1.5v17c0 .827.673 1.5 1.5 1.5h17c.827 0 1.5-.673 1.5-1.5V26a1 1 0 0 0-1-1Z"/>
    <path class="uuid-dbfcfb7f-7b5f-4e4b-b8a0-43abadc18e28" d="M24 13a1 1 0 0 0 .707-1.707L21.06 7.646a1.501 1.501 0 0 0-2.12 0l-3.647 3.647a1 1 0 1 0 1.414 1.414L19 10.414V21a1 1 0 1 0 2 0V10.414l2.293 2.293A.997.997 0 0 0 24 13Z"/>
  </g>
</svg>
