<?xml version="1.0" encoding="UTF-8"?><svg xmlns="http://www.w3.org/2000/svg" width="32" height="32" viewBox="0 0 32 32"><defs><style>.uuid-7975d80e-ef0b-4459-b7b6-4a006fa452e5{fill:none;}.uuid-a0c9b10f-8a52-4bf2-8685-b44b197c11a0{fill:#151515;}</style></defs><g id="uuid-8b0540a8-4d65-4154-bb0b-fe88bf038a8c"><rect class="uuid-7975d80e-ef0b-4459-b7b6-4a006fa452e5" width="32" height="32"/></g><g id="uuid-5acb874b-c6d4-4adf-a235-601ed70ad328"><path class="uuid-a0c9b10f-8a52-4bf2-8685-b44b197c11a0" d="M19,24c-.55225,0-1,.44775-1,1v3H4v-14h6c.55225,0,1-.44775,1-1s-.44775-1-1-1H3.5c-.82715,0-1.5.67285-1.5,1.5v15c0,.82715.67285,1.5,1.5,1.5h15c.82715,0,1.5-.67285,1.5-1.5v-3.5c0-.55225-.44775-1-1-1Z"/><path class="uuid-a0c9b10f-8a52-4bf2-8685-b44b197c11a0" d="M28.5,2h-15c-.82715,0-1.5.67285-1.5,1.5v5.5c0,.55225.44775,1,1,1s1-.44775,1-1v-5h14v14h-4c-.55225,0-1,.44775-1,1s.44775,1,1,1h4.5c.82715,0,1.5-.67285,1.5-1.5V3.5c0-.82715-.67285-1.5-1.5-1.5Z"/><path class="uuid-a0c9b10f-8a52-4bf2-8685-b44b197c11a0" d="M23.70703,14.70703c.39062-.39062.39062-1.02344,0-1.41406l-3.64648-3.64648c-.58496-.58496-1.53613-.58496-2.12109,0l-3.64648,3.64648c-.39062.39062-.39062,1.02344,0,1.41406s1.02344.39062,1.41406,0l2.29297-2.29297v7.58594c0,.55225.44775,1,1,1s1-.44775,1-1v-7.58594l2.29297,2.29297c.19531.19531.45117.29297.70703.29297s.51172-.09766.70703-.29297Z"/></g></svg>