<svg xmlns="http://www.w3.org/2000/svg" viewBox="0 0 32 32">
  <defs>
    <style>
      .uuid-554d282f-55c8-459a-a695-a930b0d28cc2{stroke-width:0;fill:#151515}
    </style>
  </defs>
  <path d="M0 0h32v32H0z" id="uuid-98cadb0e-bf7e-4e15-b101-66e66a7f7c19" stroke-width="0" fill="none"/>
  <g id="uuid-ed5fbd50-8bf5-45a3-866b-b4560831a46f">
    <path class="uuid-554d282f-55c8-459a-a695-a930b0d28cc2" d="M16 0C7.178 0 0 7.178 0 16s7.178 16 16 16 16-7.178 16-16S24.822 0 16 0Zm0 30C8.28 30 2 23.72 2 16S8.28 2 16 2s14 6.28 14 14-6.28 14-14 14Z"/>
    <path class="uuid-554d282f-55c8-459a-a695-a930b0d28cc2" d="M23.071 15H8.93a1 1 0 1 0 0 2h14.14a1 1 0 1 0 0-2Z"/>
  </g>
</svg>
