<?xml version="1.0" encoding="UTF-8"?><svg xmlns="http://www.w3.org/2000/svg" width="32" height="32" viewBox="0 0 32 32"><defs><style>.uuid-39054720-d077-4c28-9716-2c656f432fcc{fill:none;}.uuid-9d6cb229-9ec3-4210-86be-6f9c25c98d43{fill:#151515;}</style></defs><g id="uuid-cf22eafa-d272-4010-8a44-247eb4e8cf80"><rect class="uuid-39054720-d077-4c28-9716-2c656f432fcc" width="32" height="32"/></g><g id="uuid-381cbe70-6104-4d77-9cd2-72ff75d9d02c"><path class="uuid-9d6cb229-9ec3-4210-86be-6f9c25c98d43" d="M29.5,17.00977l-6-3.46423v-6.92639c0-.35742-.19043-.6875-.5-.86621l-6.5-3.75293c-.30957-.17773-.69043-.17773-1,0l-6.5,3.75293c-.30957.17871-.5.50879-.5.86621v6.92639l-6,3.46423c-.30957.17871-.5.50879-.5.86621v7.50488c0,.35742.19043.6875.5.86621l6.5,3.75293c.15479.08887.32715.13379.5.13379s.34521-.04492.5-.13379l6-3.46423,6,3.46423c.15479.08887.32715.13379.5.13379s.34521-.04492.5-.13379l6.5-3.75293c.30957-.17871.5-.50879.5-.86621v-7.50488c0-.35742-.19043-.6875-.5-.86621ZM16,4.02051l5.5,3.17578v6.34924l-5.5,3.17554-5.5-3.17554v-6.34924l5.5-3.17578ZM9.5,27.97949l-5.5-3.17578v-6.35059l5.49866-3.17499,5.50134,3.17633v6.34924l-5.5,3.17578ZM28,24.80371l-5.5,3.17578-5.5-3.17578v-6.34924l5.50134-3.17633,5.49866,3.17499v6.35059Z"/></g></svg>