<?xml version="1.0" encoding="UTF-8"?><svg xmlns="http://www.w3.org/2000/svg" width="32" height="32" viewBox="0 0 32 32"><defs><style>.uuid-af8f09e4-8e6d-47bb-aff7-77fc24c66f91{fill:none;}.uuid-748ee47c-0528-48ac-b0df-08a2f4ee3e38{fill:#151515;}</style></defs><g id="uuid-6f54bfef-3533-4f32-bd35-978a76ff211d"><rect class="uuid-af8f09e4-8e6d-47bb-aff7-77fc24c66f91" width="32" height="32"/></g><g id="uuid-c2dcbd90-4aea-4354-85be-ca38a810beb1"><path class="uuid-748ee47c-0528-48ac-b0df-08a2f4ee3e38" d="M29.25,17.44336l-6.25-3.60858v-7.21564c0-.17871-.0957-.34375-.25-.43262l-6.5-3.75293c-.1543-.08984-.3457-.08984-.5,0l-6.5,3.75293c-.1543.08887-.25.25391-.25.43262v7.21564l-6.25,3.60858c-.1543.08887-.25.25391-.25.43262v7.50488c0,.17871.0957.34375.25.43262l6.5,3.75293c.07715.04492.16406.06738.25.06738s.17285-.02246.25-.06738l6.25-3.60858,6.25,3.60858c.07715.04492.16406.06738.25.06738s.17285-.02246.25-.06738l6.5-3.75293c.1543-.08887.25-.25391.25-.43262v-7.50488c0-.17871-.0957-.34375-.25-.43262Z"/></g></svg>