<?xml version="1.0" encoding="UTF-8"?><svg xmlns="http://www.w3.org/2000/svg" width="32" height="32" viewBox="0 0 32 32"><defs><style>.uuid-eaafa4c8-c736-41d9-a225-64b670d96b96{fill:none;}.uuid-f44b4af1-3517-441f-9ecb-168bb8583889{fill:#151515;}</style></defs><g id="uuid-468eee22-0301-4a98-9190-6002a63df0ca"><rect class="uuid-eaafa4c8-c736-41d9-a225-64b670d96b96" width="32" height="32"/></g><g id="uuid-8d7cd633-9a3c-4ff3-8630-f847f4dae942"><path class="uuid-f44b4af1-3517-441f-9ecb-168bb8583889" d="M29.5,3H2.5c-.82715,0-1.5.67285-1.5,1.5v17c0,.82715.67285,1.5,1.5,1.5h9.5v4h-4c-.55273,0-1,.44727-1,1s.44727,1,1,1h16c.55273,0,1-.44727,1-1s-.44727-1-1-1h-4v-4h9.5c.82715,0,1.5-.67285,1.5-1.5V4.5c0-.82715-.67285-1.5-1.5-1.5ZM18,27h-4v-4h4v4ZM25.7959,9.7959l-6.64648,6.64648c-.63477.63281-1.66406.63281-2.29883,0l-3.85059-3.85156-5.2041,5.20508c-.21973.21973-.50781.3291-.7959.3291s-.57617-.10938-.7959-.3291c-.43848-.43945-.43848-1.15234,0-1.5918l5.64648-5.64648c.61523-.61328,1.68359-.61328,2.29883,0l3.85059,3.85156,6.2041-6.20508c.43945-.43945,1.15234-.43945,1.5918,0,.43848.43945.43848,1.15234,0,1.5918Z"/></g></svg>