<?xml version="1.0" encoding="UTF-8"?><svg xmlns="http://www.w3.org/2000/svg" width="32" height="32" viewBox="0 0 32 32"><defs><style>.uuid-34aed6ec-f91e-4633-931f-ed95bd6b6212{fill:none;}.uuid-10a4e7e2-ac69-4730-b16d-82776fa180a0{fill:#151515;}</style></defs><g id="uuid-0fd50de5-ae1b-41b2-a006-da7fa89372b8"><rect class="uuid-34aed6ec-f91e-4633-931f-ed95bd6b6212" width="32" height="32"/></g><g id="uuid-386fd03e-d5b6-46fd-a0e6-4594907d6d18"><path class="uuid-10a4e7e2-ac69-4730-b16d-82776fa180a0" d="M29.5,3H2.5c-.82715,0-1.5.67285-1.5,1.5v17c0,.82715.67285,1.5,1.5,1.5h9.5v4h-4c-.55273,0-1,.44727-1,1s.44727,1,1,1h16c.55273,0,1-.44727,1-1s-.44727-1-1-1h-4v-4h9.5c.82715,0,1.5-.67285,1.5-1.5V4.5c0-.82715-.67285-1.5-1.5-1.5ZM18,27h-4v-4h4v4ZM29,21H3V5h26v16Z"/><path class="uuid-10a4e7e2-ac69-4730-b16d-82776fa180a0" d="M7,18c.25586,0,.51172-.09766.70703-.29297l5.29297-5.29297,3.93945,3.93945c.58398.58594,1.53711.58594,2.12109,0l6.64648-6.64648c.39062-.39062.39062-1.02344,0-1.41406s-1.02344-.39062-1.41406,0l-6.29297,6.29297-3.93945-3.93945c-.58398-.58594-1.53711-.58594-2.12109,0l-5.64648,5.64648c-.39062.39062-.39062,1.02344,0,1.41406.19531.19531.45117.29297.70703.29297Z"/></g></svg>