<?xml version="1.0" encoding="UTF-8"?><svg xmlns="http://www.w3.org/2000/svg" width="32" height="32" viewBox="0 0 32 32"><defs><style>.uuid-ddce2d41-b157-4d6d-9486-eae85aff37a6{fill:none;}.uuid-c0566fb0-faf5-4717-9735-1dc851b43a8c{fill:#151515;}</style></defs><g id="uuid-6aa77927-48bb-44ce-a09f-1146c6d68d46"><rect class="uuid-ddce2d41-b157-4d6d-9486-eae85aff37a6" width="32" height="32"/></g><g id="uuid-dd247111-11b8-4e00-93f7-bcb13d3b0e1e"><path class="uuid-c0566fb0-faf5-4717-9735-1dc851b43a8c" d="M29.5,8h-11.69043l-.68066-3.20801c-.09863-.46191-.50586-.79199-.97852-.79199H6.84961c-.47266,0-.87988.33008-.97852.79199l-.68066,3.20801h-2.69043c-.82715,0-1.5.67285-1.5,1.5v17c0,.82715.67285,1.5,1.5,1.5h27c.82715,0,1.5-.67285,1.5-1.5V9.5c0-.82715-.67285-1.5-1.5-1.5ZM29,26H3V10h3c.47266,0,.87988-.33008.97852-.79199l.68066-3.20801h7.68164l.68066,3.20801c.09863.46191.50586.79199.97852.79199h12v16Z"/><path class="uuid-c0566fb0-faf5-4717-9735-1dc851b43a8c" d="M16.29297,13.29297c-.39062.39062-.39062,1.02344,0,1.41406l2.29297,2.29297h-8.58594c-.55273,0-1,.44727-1,1s.44727,1,1,1h8.58594l-2.29297,2.29297c-.39062.39062-.39062,1.02344,0,1.41406.19531.19531.45117.29297.70703.29297s.51172-.09766.70703-.29297l3.64648-3.64648c.2832-.2832.43945-.66016.43945-1.06055s-.15625-.77734-.43945-1.06055l-3.64648-3.64648c-.39062-.39062-1.02344-.39062-1.41406,0Z"/></g></svg>