<?xml version="1.0" encoding="UTF-8"?><svg xmlns="http://www.w3.org/2000/svg" width="32" height="32" viewBox="0 0 32 32"><defs><style>.uuid-1b825ede-a716-4250-afa7-8bb3c1f359ee{fill:none;}.uuid-d67808fe-a20c-458b-ac6f-b312b35d3e9f{fill:#151515;}</style></defs><g id="uuid-c904534d-5637-4bb1-9a1b-d3431b048bdd"><rect class="uuid-1b825ede-a716-4250-afa7-8bb3c1f359ee" width="32" height="32"/></g><g id="uuid-ff2bbb4b-9831-48d4-824b-18c54644506b"><path class="uuid-d67808fe-a20c-458b-ac6f-b312b35d3e9f" d="M29.5,8h-11.69043l-.68066-3.20801c-.09863-.46191-.50586-.79199-.97852-.79199H6.84961c-.47266,0-.87988.33008-.97852.79199l-.68066,3.20801h-2.69043c-.82715,0-1.5.67285-1.5,1.5v17c0,.82715.67285,1.5,1.5,1.5h27c.82715,0,1.5-.67285,1.5-1.5V9.5c0-.82715-.67285-1.5-1.5-1.5ZM21.44238,19.14941l-3.64648,3.64648c-.21973.21973-.50781.3291-.7959.3291s-.57617-.10938-.7959-.3291c-.43848-.43945-.43848-1.15234,0-1.5918l2.07971-2.0791h-8.28381c-.62109,0-1.125-.50391-1.125-1.125s.50391-1.125,1.125-1.125h8.28381l-2.07971-2.0791c-.43848-.43945-.43848-1.15234,0-1.5918.43945-.43945,1.15234-.43945,1.5918,0l3.64648,3.64648c.63281.63379.63281,1.66504,0,2.29883Z"/></g></svg>