<?xml version="1.0" encoding="UTF-8"?><svg xmlns="http://www.w3.org/2000/svg" width="32" height="32" viewBox="0 0 32 32"><defs><style>.uuid-91789b47-6497-493e-8e11-9154319c5690{fill:none;}.uuid-118e1d39-d513-43c2-80c8-d70e25ef47c5{fill:#151515;}</style></defs><g id="uuid-ca354dd0-e043-4e62-b033-0eeeda042c55"><rect class="uuid-91789b47-6497-493e-8e11-9154319c5690" width="32" height="32"/></g><g id="uuid-02a4e310-8423-4817-899a-3664fba4361b"><path class="uuid-118e1d39-d513-43c2-80c8-d70e25ef47c5" d="M17.43945,2.10156c-.34229-.1665-.75146-.125-1.05322.10889l-8.72949,6.78955H2.5c-.82715,0-1.5.67285-1.5,1.5v11c0,.82715.67285,1.5,1.5,1.5h5.15674l8.72949,6.78955c.17871.13916.39551.21045.61377.21045.14941,0,.2998-.03369.43945-.10156.34277-.16797.56055-.5166.56055-.89844V3c0-.38184-.21777-.73047-.56055-.89844Z"/><path class="uuid-118e1d39-d513-43c2-80c8-d70e25ef47c5" d="M27.41406,16l3.29297-3.29297c.39062-.39062.39062-1.02344,0-1.41406s-1.02344-.39062-1.41406,0l-3.29297,3.29297-3.29297-3.29297c-.39062-.39062-1.02344-.39062-1.41406,0s-.39062,1.02344,0,1.41406l3.29297,3.29297-3.29297,3.29297c-.39062.39062-.39062,1.02344,0,1.41406.19531.19531.45117.29297.70703.29297s.51172-.09766.70703-.29297l3.29297-3.29297,3.29297,3.29297c.19531.19531.45117.29297.70703.29297s.51172-.09766.70703-.29297c.39062-.39062.39062-1.02344,0-1.41406l-3.29297-3.29297Z"/></g></svg>