<?xml version="1.0" encoding="UTF-8"?><svg xmlns="http://www.w3.org/2000/svg" viewBox="0 0 32 32"><defs><style>.uuid-fced51ce-79df-42d4-9c34-fbf9d5b22e9b{fill:none;}.uuid-fced51ce-79df-42d4-9c34-fbf9d5b22e9b,.uuid-3b38e571-cde7-40f8-b258-1ac6282708dd{stroke-width:0px;}.uuid-3b38e571-cde7-40f8-b258-1ac6282708dd{fill:#151515;}</style></defs><g id="uuid-86ef0151-f257-4bc9-9ace-b579b8054f9e"><rect class="uuid-fced51ce-79df-42d4-9c34-fbf9d5b22e9b" x="0" width="32" height="32"/></g><g id="uuid-dc2e8916-c50d-4ab3-b004-145204868727"><path class="uuid-3b38e571-cde7-40f8-b258-1ac6282708dd" d="M27.4141,16l3.293-3.293c.3906-.3906.3906-1.0234,0-1.4141s-1.0234-.3906-1.4141,0l-3.293,3.293-3.293-3.293c-.3906-.3906-1.0234-.3906-1.4141,0s-.3906,1.0234,0,1.4141l3.293,3.293-3.293,3.293c-.3906.3906-.3906,1.0234,0,1.4141.1953.1953.4512.293.707.293s.5117-.0977.707-.293l3.293-3.293,3.293,3.293c.1953.1953.4512.293.707.293s.5117-.0977.707-.293c.3906-.3906.3906-1.0234,0-1.4141l-3.293-3.293Z"/><path class="uuid-3b38e571-cde7-40f8-b258-1ac6282708dd" d="M17.4062,2.1011c-.3408-.166-.7529-.1245-1.0537.1108l-8.6963,6.7881H2.5c-.8271,0-1.5.6729-1.5,1.5v11c0,.8271.6729,1.5,1.5,1.5h5.1562l8.6963,6.7881c.1787.1401.3965.2119.6152.2119.1494,0,.2998-.0332.4385-.1011.3438-.168.5615-.5166.5615-.8989V3c0-.3823-.2178-.731-.5615-.8989ZM15.9678,26.9507l-7.3525-5.7388c-.1758-.1372-.3926-.2119-.6152-.2119H3v-10h5c.2227,0,.4395-.0747.6152-.2119l7.3525-5.7388v21.9014Z"/></g></svg>