<?xml version="1.0" encoding="UTF-8"?><svg xmlns="http://www.w3.org/2000/svg" width="32" height="32" viewBox="0 0 32 32"><defs><style>.uuid-d6dcdd40-6456-4050-befb-91285d8ed962{fill:none;}.uuid-84e542e0-9789-4659-8630-3bc8c71a2a5c{fill:#151515;}</style></defs><g id="uuid-0506b81a-5c81-4a24-86e7-526b5f2a5701"><rect class="uuid-d6dcdd40-6456-4050-befb-91285d8ed962" width="32" height="32"/></g><g id="uuid-ed99cac4-0250-4fa3-85a2-ce106cccf658"><path class="uuid-84e542e0-9789-4659-8630-3bc8c71a2a5c" d="M17.43945,2.10156c-.34229-.1665-.75146-.125-1.05322.10889l-8.72949,6.78955H2.5c-.82715,0-1.5.67285-1.5,1.5v11c0,.82715.67285,1.5,1.5,1.5h5.15674l8.72949,6.78955c.17871.13916.39551.21045.61377.21045.14941,0,.2998-.03369.43945-.10156.34277-.16797.56055-.5166.56055-.89844V3c0-.38184-.21777-.73047-.56055-.89844ZM16,26.95557l-7.38623-5.74512c-.17529-.13623-.3916-.21045-.61377-.21045H3v-10h5c.22217,0,.43848-.07422.61377-.21045l7.38623-5.74512v21.91113Z"/><path class="uuid-84e542e0-9789-4659-8630-3bc8c71a2a5c" d="M27.41406,16l3.29297-3.29297c.39062-.39062.39062-1.02344,0-1.41406s-1.02344-.39062-1.41406,0l-3.29297,3.29297-3.29297-3.29297c-.39062-.39062-1.02344-.39062-1.41406,0s-.39062,1.02344,0,1.41406l3.29297,3.29297-3.29297,3.29297c-.39062.39062-.39062,1.02344,0,1.41406.19531.19531.45117.29297.70703.29297s.51172-.09766.70703-.29297l3.29297-3.29297,3.29297,3.29297c.19531.19531.45117.29297.70703.29297s.51172-.09766.70703-.29297c.39062-.39062.39062-1.02344,0-1.41406l-3.29297-3.29297Z"/></g></svg>