<?xml version="1.0" encoding="UTF-8"?><svg xmlns="http://www.w3.org/2000/svg" viewBox="0 0 32 32"><defs><style>.uuid-e000fd92-562f-4ac2-864c-e4d0f9b88f9c{fill:none;}.uuid-e000fd92-562f-4ac2-864c-e4d0f9b88f9c,.uuid-7906579e-c954-4003-9aee-e5b75f11d53c{stroke-width:0px;}.uuid-7906579e-c954-4003-9aee-e5b75f11d53c{fill:#151515;}</style></defs><g id="uuid-3bd2060c-c44a-4bf4-a815-07eb10ba68c4"><rect class="uuid-e000fd92-562f-4ac2-864c-e4d0f9b88f9c" width="32" height="32"/></g><g id="uuid-2c58f0ff-5fa0-4d09-bb3c-2f233273344e"><path class="uuid-7906579e-c954-4003-9aee-e5b75f11d53c" d="M27.4141,16l3.293-3.293c.3906-.3906.3906-1.0234,0-1.4141s-1.0234-.3906-1.4141,0l-3.293,3.293-3.293-3.293c-.3906-.3906-1.0234-.3906-1.4141,0s-.3906,1.0234,0,1.4141l3.293,3.293-3.293,3.293c-.3906.3906-.3906,1.0234,0,1.4141.1953.1953.4512.293.707.293s.5117-.0977.707-.293l3.293-3.293,3.293,3.293c.1953.1953.4512.293.707.293s.5117-.0977.707-.293c.3906-.3906.3906-1.0234,0-1.4141l-3.293-3.293Z"/><path class="uuid-7906579e-c954-4003-9aee-e5b75f11d53c" d="M17.4062,2.1016c-.3418-.168-.752-.124-1.0537.1104l-8.6963,6.7881H2.5c-.8271,0-1.5.6729-1.5,1.5v11c0,.8271.6729,1.5,1.5,1.5h5.1562l8.6963,6.7881c.1787.1396.3965.2119.6152.2119.1494,0,.2998-.0332.4385-.1016.3438-.167.5615-.5166.5615-.8984V3c0-.3818-.2178-.7314-.5615-.8984Z"/></g></svg>