<?xml version="1.0" encoding="UTF-8"?><svg xmlns="http://www.w3.org/2000/svg" width="32" height="32" viewBox="0 0 32 32"><defs><style>.uuid-2729c140-1182-4e12-baab-b2af5d79a22f{fill:none;}.uuid-b8f1cdde-7c70-4eec-af1a-984894b4b0fc{fill:#151515;}</style></defs><g id="uuid-09f1fd95-d85d-4736-a5a9-7e48b3e18129"><rect class="uuid-2729c140-1182-4e12-baab-b2af5d79a22f" width="32" height="32"/></g><g id="uuid-acfaea97-eeaf-4461-8597-246d323efc0c"><rect class="uuid-b8f1cdde-7c70-4eec-af1a-984894b4b0fc" x="2" y="2" width="28" height="6" rx="1.5" ry="1.5"/><rect class="uuid-b8f1cdde-7c70-4eec-af1a-984894b4b0fc" x="2.25" y="22.25" width="7.5" height="7.5" rx="1" ry="1"/><rect class="uuid-b8f1cdde-7c70-4eec-af1a-984894b4b0fc" x="12.25" y="22.25" width="7.5" height="7.5" rx="1" ry="1"/><rect class="uuid-b8f1cdde-7c70-4eec-af1a-984894b4b0fc" x="22.25" y="22.25" width="7.5" height="7.5" rx="1" ry="1"/><path class="uuid-b8f1cdde-7c70-4eec-af1a-984894b4b0fc" d="M16,10c-.55273,0-1,.44727-1,1v3H6.5c-.82715,0-1.5.67285-1.5,1.5v3.5c0,.55273.44727,1,1,1s1-.44727,1-1v-3h8v3c0,.55273.44727,1,1,1s1-.44727,1-1v-3h8v3c0,.55273.44727,1,1,1s1-.44727,1-1v-3.5c0-.82715-.67285-1.5-1.5-1.5h-8.5v-3c0-.55273-.44727-1-1-1Z"/></g></svg>