<?xml version="1.0" encoding="UTF-8"?><svg xmlns="http://www.w3.org/2000/svg" width="32" height="32" viewBox="0 0 32 32"><defs><style>.uuid-a03068f3-6576-4412-b4f1-f99d6e70ce36{fill:none;}.uuid-8c0673e7-8f52-4f20-91d3-4e62408746a6{fill:#151515;}</style></defs><g id="uuid-6e427005-903f-4990-8dc8-a38336c51419"><rect class="uuid-a03068f3-6576-4412-b4f1-f99d6e70ce36" width="32" height="32"/></g><g id="uuid-a0db1b21-7f34-4c5d-9b80-0bcf9ef9ec70"><rect class="uuid-8c0673e7-8f52-4f20-91d3-4e62408746a6" x="2" y="2" width="28" height="6" rx="1.5" ry="1.5"/><path class="uuid-8c0673e7-8f52-4f20-91d3-4e62408746a6" d="M8.75,22H3.25c-.68945,0-1.25.56055-1.25,1.25v5.5c0,.68945.56055,1.25,1.25,1.25h5.5c.68945,0,1.25-.56055,1.25-1.25v-5.5c0-.68945-.56055-1.25-1.25-1.25ZM8,28h-4v-4h4v4Z"/><path class="uuid-8c0673e7-8f52-4f20-91d3-4e62408746a6" d="M18.75,22h-5.5c-.68945,0-1.25.56055-1.25,1.25v5.5c0,.68945.56055,1.25,1.25,1.25h5.5c.68945,0,1.25-.56055,1.25-1.25v-5.5c0-.68945-.56055-1.25-1.25-1.25ZM18,28h-4v-4h4v4Z"/><path class="uuid-8c0673e7-8f52-4f20-91d3-4e62408746a6" d="M28.75,22h-5.5c-.68945,0-1.25.56055-1.25,1.25v5.5c0,.68945.56055,1.25,1.25,1.25h5.5c.68945,0,1.25-.56055,1.25-1.25v-5.5c0-.68945-.56055-1.25-1.25-1.25ZM28,28h-4v-4h4v4Z"/><path class="uuid-8c0673e7-8f52-4f20-91d3-4e62408746a6" d="M16,10c-.55273,0-1,.44727-1,1v3H6.5c-.82715,0-1.5.67285-1.5,1.5v3.5c0,.55273.44727,1,1,1s1-.44727,1-1v-3h8v3c0,.55273.44727,1,1,1s1-.44727,1-1v-3h8v3c0,.55273.44727,1,1,1s1-.44727,1-1v-3.5c0-.82715-.67285-1.5-1.5-1.5h-8.5v-3c0-.55273-.44727-1-1-1Z"/></g></svg>