<?xml version="1.0" encoding="UTF-8"?><svg xmlns="http://www.w3.org/2000/svg" width="32" height="32" viewBox="0 0 32 32"><defs><style>.uuid-b73d5765-de34-46d4-bd78-1583aa198aff{fill:none;}.uuid-170d7616-bb20-420b-9395-0e5ba52bea36{fill:#151515;}</style></defs><g id="uuid-6ef9c810-e50e-481e-a527-dee411af1151"><rect class="uuid-b73d5765-de34-46d4-bd78-1583aa198aff" width="32" height="32"/></g><g id="uuid-7845f4a7-afe7-4682-a22e-88126c006a0e"><path class="uuid-170d7616-bb20-420b-9395-0e5ba52bea36" d="M16,1C7.729,1,1,7.72852,1,16s6.729,15,15,15,15-6.72852,15-15S24.271,1,16,1ZM16,29c-7.16846,0-13-5.83203-13-13S8.83154,3,16,3s13,5.83203,13,13-5.83154,13-13,13Z"/><path class="uuid-170d7616-bb20-420b-9395-0e5ba52bea36" d="M21,11.17188v-1.17188c.55225,0,1-.44727,1-1s-.44775-1-1-1h-10c-.55225,0-1,.44727-1,1s.44775,1,1,1v1.17188c0,.80078.31201,1.55469.87891,2.12109l2.70703,2.70703-2.70703,2.70703c-.56689.56641-.87891,1.32031-.87891,2.12109v1.17188c-.55225,0-1,.44727-1,1s.44775,1,1,1h10c.55225,0,1-.44727,1-1s-.44775-1-1-1v-1.17188c0-.80078-.31201-1.55469-.87891-2.12109l-2.70703-2.70703,2.70703-2.70703c.56689-.56641.87891-1.32031.87891-2.12109ZM18.70703,20.12109c.18604.18652.29297.44434.29297.70703v1.17188h-6v-1.17188c0-.2627.10693-.52051.29297-.70703l2.70703-2.70703,2.70703,2.70703ZM19,11.17188c0,.2627-.10693.52051-.29297.70703l-2.70703,2.70703-2.70703-2.70703c-.18604-.18652-.29297-.44434-.29297-.70703v-1.17188h6v1.17188Z"/></g></svg>