<?xml version="1.0" encoding="UTF-8"?><svg xmlns="http://www.w3.org/2000/svg" width="32" height="32" viewBox="0 0 32 32"><defs><style>.uuid-1573bca8-9709-4460-96ec-dbf83e1dc9f3{fill:none;}.uuid-ebd368fd-d89f-4406-b360-89eb6ab35859{fill:#151515;}</style></defs><g id="uuid-2f08517f-24dc-42f0-8be4-dec5809d8dc5"><rect class="uuid-1573bca8-9709-4460-96ec-dbf83e1dc9f3" width="32" height="32"/></g><g id="uuid-a151b07c-ce14-4984-b698-7d34bf8518ff"><path class="uuid-ebd368fd-d89f-4406-b360-89eb6ab35859" d="M31.35352,14.93945l-3.74707-3.74707v-5.29883c0-.82715-.67285-1.5-1.5-1.5h-5.29883l-3.74707-3.74707c-.58496-.58496-1.53613-.58496-2.12109,0l-3.74707,3.74707h-5.29883c-.82715,0-1.5.67285-1.5,1.5v5.29883l-3.74707,3.74707c-.58496.58496-.58496,1.53613,0,2.12109l3.74707,3.74707v5.29883c0,.82715.67285,1.5,1.5,1.5h5.29883l3.74707,3.74707c.29248.29248.67627.43848,1.06055.43848s.76807-.146,1.06055-.43848l3.74707-3.74707h5.29883c.82715,0,1.5-.67285,1.5-1.5v-5.29883l3.74707-3.74707c.58496-.58496.58496-1.53613,0-2.12109ZM23,17.125h-5.875v5.875c0,.62109-.50391,1.125-1.125,1.125s-1.125-.50391-1.125-1.125v-5.875h-5.875c-.62109,0-1.125-.50391-1.125-1.125s.50391-1.125,1.125-1.125h5.875v-5.875c0-.62109.50391-1.125,1.125-1.125s1.125.50391,1.125,1.125v5.875h5.875c.62109,0,1.125.50391,1.125,1.125s-.50391,1.125-1.125,1.125Z"/></g></svg>