<?xml version="1.0" encoding="UTF-8"?><svg xmlns="http://www.w3.org/2000/svg" viewBox="0 0 32 32"><defs><style>.uuid-710873ed-c2e1-4d85-8812-bb43ef42bc3a{fill:none;}.uuid-710873ed-c2e1-4d85-8812-bb43ef42bc3a,.uuid-b90d4118-c1a6-4d35-942d-5b87abd3bf23{stroke-width:0px;}.uuid-b90d4118-c1a6-4d35-942d-5b87abd3bf23{fill:#151515;}</style></defs><g id="uuid-91a5d85d-311b-4de4-9a8e-352f3b4172b4"><rect class="uuid-710873ed-c2e1-4d85-8812-bb43ef42bc3a" width="32" height="32"/></g><g id="uuid-94032bc8-92e1-4f97-8592-44ec15ae9c5b"><path class="uuid-b90d4118-c1a6-4d35-942d-5b87abd3bf23" d="M30.1553,17.2666l-9.4219-2-2-9.4219c-.0732-.3467-.3789-.5947-.7334-.5947s-.6602.248-.7334.5947l-2,9.4219-9.4219,2c-.3467.0732-.5947.3789-.5947.7334s.248.6602.5947.7334l9.4219,2,2,9.4219c.0732.3467.3789.5947.7334.5947s.6602-.248.7334-.5947l2-9.4219,9.4219-2c.3467-.0732.5947-.3789.5947-.7334s-.248-.6602-.5947-.7334Z"/><path class="uuid-b90d4118-c1a6-4d35-942d-5b87abd3bf23" d="M6,11.75c.3545,0,.6602-.248.7334-.5947l.7744-3.6475,3.6475-.7744c.3467-.0732.5947-.3789.5947-.7334s-.248-.6602-.5947-.7334l-3.6475-.7744-.7744-3.6475c-.0732-.3467-.3789-.5947-.7334-.5947s-.6602.248-.7334.5947l-.7744,3.6475-3.6475.7744c-.3467.0732-.5947.3789-.5947.7334s.248.6602.5947.7334l3.6475.7744.7744,3.6475c.0732.3467.3789.5947.7334.5947Z"/></g></svg>