<?xml version="1.0" encoding="UTF-8"?><svg xmlns="http://www.w3.org/2000/svg" width="32" height="32" viewBox="0 0 32 32"><defs><style>.uuid-9ae13cec-cfd0-4627-b76c-4b3a81c1e8e6{fill:none;}.uuid-abf1d15c-b2c8-4c97-9f28-2549d2756fdc{fill:#151515;}</style></defs><g id="uuid-8ac4551b-76ce-4ee4-b271-a15ece9a3930"><rect class="uuid-9ae13cec-cfd0-4627-b76c-4b3a81c1e8e6" width="32" height="32"/></g><g id="uuid-d80edb12-b279-49ff-a889-0ef07beb753d"><path class="uuid-abf1d15c-b2c8-4c97-9f28-2549d2756fdc" d="M13.125,11.17188c0,.23047.09326.45605.25635.61816l2.61865,2.61865,2.61865-2.61865c.16309-.16211.25635-.3877.25635-.61816v-1.04688h-5.75v1.04688Z"/><path class="uuid-abf1d15c-b2c8-4c97-9f28-2549d2756fdc" d="M13.38135,20.20996c-.16309.16211-.25635.3877-.25635.61816v1.04688h5.75v-1.04688c0-.23047-.09326-.45605-.25635-.61816l-2.61865-2.61865-2.61865,2.61865Z"/><path class="uuid-abf1d15c-b2c8-4c97-9f28-2549d2756fdc" d="M16,1C7.729,1,1,7.72852,1,16s6.729,15,15,15,15-6.72852,15-15S24.271,1,16,1ZM20.20947,18.61816c.59033.59082.91553,1.375.91553,2.20996v1.07214c.55939.06494,1,.52295,1,1.09973,0,.62109-.50391,1.125-1.125,1.125h-10c-.62109,0-1.125-.50391-1.125-1.125,0-.57678.44061-1.03479,1-1.09973v-1.07214c0-.83496.3252-1.61914.91553-2.20996l2.61816-2.61816-2.61816-2.61816c-.59033-.59082-.91553-1.375-.91553-2.20996v-1.07214c-.55939-.06494-1-.52295-1-1.09973,0-.62109.50391-1.125,1.125-1.125h10c.62109,0,1.125.50391,1.125,1.125,0,.57678-.44061,1.03479-1,1.09973v1.07214c0,.83496-.3252,1.61914-.91553,2.20996l-2.61816,2.61816,2.61816,2.61816Z"/></g></svg>