<?xml version="1.0" encoding="UTF-8"?><svg xmlns="http://www.w3.org/2000/svg" viewBox="0 0 32 32"><defs><style>.uuid-67a42959-54fb-4d96-9c24-7ffc1a537ac4{fill:none;}.uuid-67a42959-54fb-4d96-9c24-7ffc1a537ac4,.uuid-3b0ad849-a43e-4c88-9845-f5a69fe88fea{stroke-width:0px;}.uuid-3b0ad849-a43e-4c88-9845-f5a69fe88fea{fill:#151515;}</style></defs><g id="uuid-ac460b35-2b41-49fc-97e0-9a5335107e1f"><rect class="uuid-67a42959-54fb-4d96-9c24-7ffc1a537ac4" x="0" width="32" height="32"/></g><g id="uuid-8140729f-63aa-44b7-bb69-bb570f3bf0be"><path class="uuid-3b0ad849-a43e-4c88-9845-f5a69fe88fea" d="M30.1816,17.144l-9.3438-1.9819-1.9819-9.3438c-.0859-.4043-.4429-.6934-.856-.6934s-.77.2891-.856.6934l-1.9819,9.3438-9.3438,1.9819c-.4043.0859-.6934.4429-.6934.856s.2891.77.6934.856l9.3438,1.9819,1.9819,9.3438c.0859.4043.4429.6934.856.6934s.77-.2891.856-.6934l1.9819-9.3438,9.3438-1.9819c.4043-.0859.6934-.4429.6934-.856s-.2891-.77-.6934-.856ZM19.9185,19.2441c-.3384.0718-.6025.3359-.6743.6743l-1.2441,5.8647-1.2441-5.8647c-.0718-.3384-.3359-.6025-.6743-.6743l-5.8647-1.2441,5.8647-1.2441c.3384-.0718.6025-.3359.6743-.6743l1.2441-5.8647,1.2441,5.8647c.0718.3384.3359.6025.6743.6743l5.8647,1.2441-5.8647,1.2441Z"/><path class="uuid-3b0ad849-a43e-4c88-9845-f5a69fe88fea" d="M6,11.75c.354,0,.6602-.248.7339-.5942l.7734-3.6484,3.6484-.7734c.3462-.0737.5942-.3799.5942-.7339s-.248-.6602-.5942-.7339l-3.6484-.7734-.7734-3.6484c-.0737-.3462-.3799-.5942-.7339-.5942s-.6602.248-.7339.5942l-.7734,3.6484-3.6484.7734c-.3462.0737-.5942.3799-.5942.7339s.248.6602.5942.7339l3.6484.7734.7734,3.6484c.0737.3462.3799.5942.7339.5942Z"/></g></svg>