<?xml version="1.0" encoding="UTF-8"?><svg xmlns="http://www.w3.org/2000/svg" width="32" height="32" viewBox="0 0 32 32"><defs><style>.uuid-5320ddd0-b5d1-4ba0-93cb-badc203f736a{fill:none;}.uuid-633cc82f-09a1-4cdb-8d54-1077c3bee428{fill:#151515;}</style></defs><g id="uuid-a65bee9a-4ac4-4a35-bea4-a53ac4424842"><rect class="uuid-5320ddd0-b5d1-4ba0-93cb-badc203f736a" width="32" height="32"/></g><g id="uuid-9dd0b9ab-3be0-4be8-b256-2f245391e8c1"><path class="uuid-633cc82f-09a1-4cdb-8d54-1077c3bee428" d="M31.35352,14.93945l-3.74707-3.74707v-5.29883c0-.82715-.67285-1.5-1.5-1.5h-5.29883l-3.74707-3.74707c-.58496-.58496-1.53613-.58496-2.12109,0l-3.74707,3.74707h-5.29883c-.82715,0-1.5.67285-1.5,1.5v5.29883l-3.74707,3.74707c-.58496.58496-.58496,1.53613,0,2.12109l3.74707,3.74707v5.29883c0,.82715.67285,1.5,1.5,1.5h5.29883l3.74707,3.74707c.29248.29248.67627.43848,1.06055.43848s.76807-.146,1.06055-.43848l3.74707-3.74707h5.29883c.82715,0,1.5-.67285,1.5-1.5v-5.29883l3.74707-3.74707c.58496-.58496.58496-1.53613,0-2.12109ZM25.89941,19.68652c-.1875.1875-.29297.44189-.29297.70703v5.21289h-5.21289c-.26514,0-.51953.10547-.70703.29297l-3.68652,3.68652-3.68652-3.68652c-.1875-.1875-.44189-.29297-.70703-.29297h-5.21289v-5.21289c0-.26514-.10547-.51953-.29297-.70703l-3.68652-3.68652,3.68652-3.68652c.1875-.1875.29297-.44189.29297-.70703v-5.21289h5.21289c.26514,0,.51953-.10547.70703-.29297l3.68652-3.68652,3.68652,3.68652c.1875.1875.44189.29297.70703.29297h5.21289v5.21289c0,.26514.10547.51953.29297.70703l3.68652,3.68652-3.68652,3.68652Z"/><path class="uuid-633cc82f-09a1-4cdb-8d54-1077c3bee428" d="M23,15h-6v-6c0-.55225-.44775-1-1-1s-1,.44775-1,1v6h-6c-.55225,0-1,.44775-1,1s.44775,1,1,1h6v6c0,.55225.44775,1,1,1s1-.44775,1-1v-6h6c.55225,0,1-.44775,1-1s-.44775-1-1-1Z"/></g></svg>