<?xml version="1.0" encoding="UTF-8"?><svg xmlns="http://www.w3.org/2000/svg" width="32" height="32" viewBox="0 0 32 32"><defs><style>.uuid-18e49ded-5125-42cb-a832-a6769bf2123a{fill:none;}.uuid-109be8cd-7c26-4e9a-817d-d1d191c847fb{fill:#151515;}</style></defs><g id="uuid-46d7d551-0c0d-44ff-9fc6-75aac9639db6"><rect class="uuid-18e49ded-5125-42cb-a832-a6769bf2123a" width="32" height="32"/></g><g id="uuid-534c33c3-9898-4166-b298-a7ad48f424a9"><path class="uuid-109be8cd-7c26-4e9a-817d-d1d191c847fb" d="M16,1C7.72852,1,1,7.72852,1,16s6.72852,15,15,15,15-6.72852,15-15S24.27148,1,16,1ZM8,17.87598c-1.03552,0-1.875-.83948-1.875-1.875s.83948-1.875,1.875-1.875,1.875.83948,1.875,1.875-.83948,1.875-1.875,1.875ZM16,17.87598c-1.03552,0-1.875-.83948-1.875-1.875s.83948-1.875,1.875-1.875,1.875.83948,1.875,1.875-.83948,1.875-1.875,1.875ZM24,17.87598c-1.03552,0-1.875-.83948-1.875-1.875s.83948-1.875,1.875-1.875,1.875.83948,1.875,1.875-.83948,1.875-1.875,1.875Z"/></g></svg>