<?xml version="1.0" encoding="UTF-8"?><svg xmlns="http://www.w3.org/2000/svg" width="32" height="32" viewBox="0 0 32 32"><defs><style>.uuid-0e32d1f2-4b2e-4f67-a81c-9a6df5d931a8{fill:none;}.uuid-543de02d-16b8-49ff-9dff-c43f8f7ec244{fill:#151515;}.uuid-06c579db-2681-4e06-a2ed-50e4efc399ec{fill:#e00;}</style></defs><g id="uuid-8ef1db40-22f4-4d27-9488-ce9f147fa31a"><rect class="uuid-0e32d1f2-4b2e-4f67-a81c-9a6df5d931a8" width="32" height="32"/></g><g id="uuid-2fcddd11-6a8d-4538-868f-066cad191509"><circle class="uuid-06c579db-2681-4e06-a2ed-50e4efc399ec" cx="23.5" cy="10.5" r="3.5"/><path class="uuid-543de02d-16b8-49ff-9dff-c43f8f7ec244" d="M28,21.25c-1.24023,0-2.25-1.00928-2.25-2.25v-2.18066c0-.229-.10449-.4458-.28418-.58789-.17969-.14258-.41699-.19531-.6377-.14209-.45898.10791-.89258.16064-1.32812.16064-3.1709,0-5.75-2.57959-5.75-5.75,0-1.33594.46875-2.63721,1.32031-3.66504.16113-.19482.21289-.45801.13867-.69971s-.26562-.4292-.50879-.49951c-.36163-.10425-.72809-.17316-1.09485-.23529.54242-.45898.89465-1.13593.89465-1.90045,0-1.37842-1.12109-2.5-2.5-2.5s-2.5,1.12158-2.5,2.5c0,.76135.34924,1.43591.88782,1.89484-4.6098.77209-8.13782,4.77948-8.13782,9.60516v4c0,1.24072-1.00977,2.25-2.25,2.25-.41406,0-.75.33594-.75.75v3.5c0,.68945.56055,1.25,1.25,1.25h7.52118c-.00525.08362-.02118.16577-.02118.25,0,2.20557,1.79395,4,4,4s4-1.79443,4-4c0-.08423-.01593-.16638-.02118-.25h7.52118c.68945,0,1.25-.56055,1.25-1.25v-3.5c0-.41406-.33594-.75-.75-.75Z"/></g></svg>