<?xml version="1.0" encoding="UTF-8"?><svg xmlns="http://www.w3.org/2000/svg" viewBox="0 0 32 32"><defs><style>.uuid-731eb945-55a8-4682-97d9-b16598836e26{fill:none;}.uuid-731eb945-55a8-4682-97d9-b16598836e26,.uuid-53b1f928-534e-41ab-bf12-2816719e6827{stroke-width:0px;}.uuid-53b1f928-534e-41ab-bf12-2816719e6827{fill:#151515;}</style></defs><g id="uuid-7a95f2a0-507a-4c97-bd8a-a84d2f66143d"><rect class="uuid-731eb945-55a8-4682-97d9-b16598836e26" x="0" width="32" height="32"/></g><g id="uuid-2e428b7f-deca-479b-98a9-ea0d0aed31af"><path class="uuid-53b1f928-534e-41ab-bf12-2816719e6827" d="M29,22c-.5327,0-1.0347-.2085-1.4131-.5869s-.5869-.8804-.5869-1.4131v-3.0898c0-.5522-.4478-1-1-1s-1,.4478-1,1v3.0898c0,1.0669.4165,2.0708,1.1729,2.8271.5137.5142,1.1421.8711,1.8271,1.0469v2.126H4v-2.1265c1.7231-.4453,3-2.0132,3-3.8735v-3.6602c0-4.917,3.688-9.0117,8.3945-9.3218,1.6055-.1055,3.2134.2188,4.6357.9351.4951.249,1.0942.0493,1.3428-.4434.2485-.4937.0498-1.0947-.4434-1.3428-.6412-.3228-1.3188-.5571-2.0089-.7473.364-.552.5792-1.2106.5792-1.9197,0-1.9297-1.5703-3.5-3.5-3.5s-3.5,1.5703-3.5,3.5c0,.7032.2128,1.356.5713,1.9051-4.6666,1.3234-8.0713,5.7512-8.0713,10.9348v3.6602c0,1.103-.897,2-2,2-.5522,0-1,.4478-1,1v3.5c0,.8271.6729,1.5,1.5,1.5h8.0505c.2524,2.2438,2.1392,4,4.4495,4s4.197-1.7562,4.4495-4h8.0505c.8271,0,1.5-.6729,1.5-1.5v-3.5c0-.5522-.4478-1-1-1ZM16,2c.8271,0,1.5.6729,1.5,1.5s-.6729,1.5-1.5,1.5-1.5-.6729-1.5-1.5.6729-1.5,1.5-1.5ZM16,30c-1.2072,0-2.2171-.8603-2.4494-2h4.8988c-.2323,1.1397-1.2422,2-2.4494,2Z"/></g></svg>