<svg id="b85b97d9-bd89-4ef8-a632-da6c389989f7" data-name="Icons" xmlns="http://www.w3.org/2000/svg" viewBox="0 0 16 16"><path d="M8,2.51a.75.75,0,1,0-.75-.75A.76.76,0,0,0,8,2.51Zm5,8.78L12.08,8.9V7A4.08,4.08,0,0,0,3.92,7V8.9L3,11.29a.6.6,0,0,0,0,.54.58.58,0,0,0,.48.25H5.94a1.1,1.1,0,0,0,0,.18,2.08,2.08,0,0,0,4.16,0,1.1,1.1,0,0,0,0-.18H12.5a.58.58,0,0,0,.48-.25A.6.6,0,0,0,13,11.29ZM8,13.18a.92.92,0,0,1-.92-.92,1.1,1.1,0,0,1,0-.18H8.9a1.1,1.1,0,0,1,0,.18A.92.92,0,0,1,8,13.18ZM4.35,10.93,5,9.22a.54.54,0,0,0,0-.21V7a2.92,2.92,0,1,1,5.84,0V9a.54.54,0,0,0,.05.21l.68,1.71Z"/></svg>