<?xml version="1.0" encoding="UTF-8"?><svg xmlns="http://www.w3.org/2000/svg" width="32" height="32" viewBox="0 0 32 32"><defs><style>.uuid-c001fe3d-3de9-414f-97e8-4a31cc30adc0{fill:none;}.uuid-2b7348fb-fcac-4193-9e64-18ae34ade4c3{fill:#151515;}</style></defs><g id="uuid-b7c251df-8c7c-40e0-9ccc-92fc67eb1f34"><rect class="uuid-c001fe3d-3de9-414f-97e8-4a31cc30adc0" width="32" height="32"/></g><g id="uuid-6c176e09-3547-4df2-b2a2-bd180b46dca5"><path class="uuid-2b7348fb-fcac-4193-9e64-18ae34ade4c3" d="M28,21.25c-1.24023,0-2.25-1.00928-2.25-2.25v-4c0-4.82568-3.52802-8.83307-8.13782-9.60516.53857-.45892.88782-1.13348.88782-1.89484,0-1.37842-1.12109-2.5-2.5-2.5s-2.5,1.12158-2.5,2.5c0,.76135.34924,1.43591.88782,1.89484-4.6098.77209-8.13782,4.77948-8.13782,9.60516v4c0,1.24072-1.00977,2.25-2.25,2.25-.41406,0-.75.33594-.75.75v3.5c0,.68945.56055,1.25,1.25,1.25h7.52118c-.00525.08362-.02118.16577-.02118.25,0,2.20557,1.79395,4,4,4s4-1.79443,4-4c0-.08423-.01593-.16638-.02118-.25h7.52118c.68945,0,1.25-.56055,1.25-1.25v-3.5c0-.41406-.33594-.75-.75-.75Z"/></g></svg>