<?xml version="1.0" encoding="UTF-8"?><svg xmlns="http://www.w3.org/2000/svg" width="32" height="32" viewBox="0 0 32 32"><defs><style>.uuid-d15c2262-96ef-4b7b-9cf0-c6c466e374ed{fill:none;}.uuid-61d3808a-180a-40b9-a7fd-237503c893ac{fill:#151515;}</style></defs><g id="uuid-f92fad41-57a8-481a-be55-ae623c585e7f"><rect class="uuid-d15c2262-96ef-4b7b-9cf0-c6c466e374ed" width="32" height="32"/></g><g id="uuid-607f3739-4604-4dba-a466-b1dce98d605b"><path class="uuid-61d3808a-180a-40b9-a7fd-237503c893ac" d="M28,21c-1.10254,0-2-.89697-2-2v-2c0-.55225-.44727-1-1-1s-1,.44775-1,1v2c0,1.86035,1.27637,3.42822,3,3.87354v2.12646H5v-2.12646c1.72363-.44531,3-2.01318,3-3.87354v-4c0-4.41113,3.58887-8,8-8,.91504,0,1.8125.15332,2.66699.45508.52148.18506,1.0918-.08936,1.27637-.60986.18359-.52051-.08984-1.0918-.61035-1.27588-.48657-.17194-.98492-.30005-1.49005-.39435.40405-.44427.65704-1.02856.65704-1.67499,0-1.37842-1.12109-2.5-2.5-2.5s-2.5,1.12158-2.5,2.5c0,.64746.25366,1.23273.65887,1.67725-4.63629.86755-8.15887,4.93823-8.15887,9.82275v4c0,1.10303-.89746,2-2,2-.55273,0-1,.44775-1,1v3.5c0,.82715.67285,1.5,1.5,1.5h7.5c0,2.20557,1.79395,4,4,4s4-1.79443,4-4h7.5c.82715,0,1.5-.67285,1.5-1.5v-3.5c0-.55225-.44727-1-1-1Z"/></g></svg>