<?xml version="1.0" encoding="UTF-8"?><svg xmlns="http://www.w3.org/2000/svg" width="32" height="32" viewBox="0 0 32 32"><defs><style>.uuid-50acb798-6311-4177-9757-d21cdb73463f{fill:none;}.uuid-dc8b114a-6f6c-4a77-bc3d-85c1f5a29586{fill:#151515;}</style></defs><g id="uuid-11b1a585-e282-43b4-bb94-04f3640f5f27"><rect class="uuid-50acb798-6311-4177-9757-d21cdb73463f" width="32" height="32"/></g><g id="uuid-7782449d-e79b-4611-8c41-52f8b3569ebb"><path class="uuid-dc8b114a-6f6c-4a77-bc3d-85c1f5a29586" d="M28,21c-1.10254,0-2-.89697-2-2v-4c0-4.88452-3.52258-8.9552-8.15887-9.82275.40521-.44452.65887-1.02979.65887-1.67725,0-1.37842-1.12109-2.5-2.5-2.5s-2.5,1.12158-2.5,2.5c0,.64746.25366,1.23273.65887,1.67725-4.63629.86755-8.15887,4.93823-8.15887,9.82275v4c0,1.10303-.89746,2-2,2-.55273,0-1,.44775-1,1v3.5c0,.82715.67285,1.5,1.5,1.5h7.5c0,2.20557,1.79395,4,4,4s4-1.79443,4-4h7.5c.82715,0,1.5-.67285,1.5-1.5v-3.5c0-.55225-.44727-1-1-1ZM27,25H5v-2.12646c1.72363-.44531,3-2.01318,3-3.87354v-4c0-4.41113,3.58887-8,8-8s8,3.58887,8,8v4c0,1.86035,1.27637,3.42822,3,3.87354v2.12646Z"/></g></svg>