<svg xmlns="http://www.w3.org/2000/svg" viewBox="0 0 16 16">
  <path d="M8 2.51a.75.75 0 1 0-.75-.75.76.76 0 0 0 .75.75Zm5 8.78-.92-2.39V7a4.08 4.08 0 0 0-8.16 0v1.9L3 11.29a.6.6 0 0 0 0 .54.58.58 0 0 0 .48.25h2.46a1.1 1.1 0 0 0 0 .18 2.08 2.08 0 0 0 4.16 0 1.1 1.1 0 0 0 0-.18h2.4a.58.58 0 0 0 .48-.25.6.6 0 0 0 .02-.54Zm-5 1.89a.92.92 0 0 1-.92-.92 1.1 1.1 0 0 1 0-.18H8.9a1.1 1.1 0 0 1 0 .18.92.92 0 0 1-.9.92Zm-3.65-2.25L5 9.22a.54.54 0 0 0 0-.21V7a2.92 2.92 0 1 1 5.84 0v2a.54.54 0 0 0 .05.21l.68 1.71Z"/>
</svg>
