<?xml version="1.0" encoding="UTF-8"?><svg xmlns="http://www.w3.org/2000/svg" viewBox="0 0 32 32"><defs><style>.uuid-5e48f966-fd35-4c88-a00a-0ecac7a3a709{fill:none;}.uuid-5e48f966-fd35-4c88-a00a-0ecac7a3a709,.uuid-a36a6915-adeb-447c-9c4d-0621f82fe51c{stroke-width:0px;}.uuid-a36a6915-adeb-447c-9c4d-0621f82fe51c{fill:#151515;}</style></defs><g id="uuid-db1bd1a1-54df-4098-ae70-bf07f8033cbd"><rect class="uuid-5e48f966-fd35-4c88-a00a-0ecac7a3a709" x="0" width="32" height="32"/></g><g id="uuid-bb4b8b23-8a0a-46c8-850c-561d9928aedf"><path class="uuid-a36a6915-adeb-447c-9c4d-0621f82fe51c" d="M29,22.25c-1.2402,0-2.25-1.0098-2.25-2.25v-4c0-2.96-1.2393-5.8193-3.3994-7.8447-1.3201-1.2372-2.8873-2.0926-4.5805-2.5408.4511-.5894.7299-1.3168.7299-2.1145,0-1.9297-1.5703-3.5-3.5-3.5s-3.5,1.5703-3.5,3.5c0,.7984.2793,1.5264.7312,2.116-4.6096,1.2565-7.9812,5.6161-7.9812,10.7267v3.6572c0,1.2402-1.0098,2.25-2.25,2.25-.4141,0-.75.3359-.75.75v3.5c0,.6895.5605,1.25,1.25,1.25h8.0253c.1327,2.3632,2.0789,4.25,4.4747,4.25s4.342-1.8868,4.4747-4.25h8.0253c.6895,0,1.25-.5605,1.25-1.25v-3.5c0-.4141-.3359-.75-.75-.75ZM16,2c.8271,0,1.5.6729,1.5,1.5s-.6729,1.5-1.5,1.5-1.5-.6729-1.5-1.5.6729-1.5,1.5-1.5ZM16,30c-1.2933,0-2.3473-.9899-2.4747-2.25h4.9495c-.1274,1.2601-1.1815,2.25-2.4747,2.25Z"/></g></svg>