<?xml version="1.0" encoding="UTF-8"?><svg xmlns="http://www.w3.org/2000/svg" width="32" height="32" viewBox="0 0 32 32"><defs><style>.uuid-4c249d7e-e8f8-4efc-a200-42d77fa8cf4f{fill:none;}.uuid-befd5610-8c21-4207-a324-161147cfac97{fill:#151515;}</style></defs><g id="uuid-09d133cf-fe99-4e4b-9ad3-d8a147e71146"><rect class="uuid-4c249d7e-e8f8-4efc-a200-42d77fa8cf4f" width="32" height="32"/></g><g id="uuid-416ebca2-697a-4f2e-98e5-a08eb177416c"><path class="uuid-befd5610-8c21-4207-a324-161147cfac97" d="M28,21.25c-1.24023,0-2.25-1.00928-2.25-2.25v-2.18066c0-.229-.10449-.4458-.28418-.58789-.17969-.14258-.41699-.19531-.6377-.14209-.45898.10791-.89258.16064-1.32812.16064-3.1709,0-5.75-2.57959-5.75-5.75,0-1.33594.46875-2.63721,1.32031-3.66504.16113-.19482.21289-.45801.13867-.69971s-.26562-.4292-.50879-.49951c-.36163-.10425-.72809-.17316-1.09485-.23529.54242-.45898.89465-1.13593.89465-1.90045,0-1.37842-1.12109-2.5-2.5-2.5s-2.5,1.12158-2.5,2.5c0,.76135.34924,1.43591.88782,1.89484-4.6098.77209-8.13782,4.77948-8.13782,9.60516v4c0,1.24072-1.00977,2.25-2.25,2.25-.41406,0-.75.33594-.75.75v3.5c0,.68945.56055,1.25,1.25,1.25h7.52118c-.00525.08362-.02118.16577-.02118.25,0,2.20557,1.79395,4,4,4s4-1.79443,4-4c0-.08423-.01593-.16638-.02118-.25h7.52118c.68945,0,1.25-.56055,1.25-1.25v-3.5c0-.41406-.33594-.75-.75-.75Z"/></g></svg>