<?xml version="1.0" encoding="UTF-8"?><svg xmlns="http://www.w3.org/2000/svg" viewBox="0 0 32 32"><defs><style>.uuid-9d31ba4e-9a50-418f-b82b-694a1e301255{fill:none;}.uuid-9d31ba4e-9a50-418f-b82b-694a1e301255,.uuid-ed4c0dca-d9ca-42a9-a1e2-4db4f93520e3{stroke-width:0px;}.uuid-ed4c0dca-d9ca-42a9-a1e2-4db4f93520e3{fill:#151515;}</style></defs><g id="uuid-0adb982d-fd2b-4af5-9402-05f8e7f2713a"><rect class="uuid-9d31ba4e-9a50-418f-b82b-694a1e301255" width="32" height="32"/></g><g id="uuid-d2151666-89be-4775-b40d-8c4371d2d659"><path class="uuid-ed4c0dca-d9ca-42a9-a1e2-4db4f93520e3" d="M29,22.25c-.5996,0-1.1641-.2344-1.5898-.6602s-.6602-.9902-.6602-1.5898v-3.0898c0-.2227-.0996-.4346-.2705-.5771-.1719-.1416-.4014-.2012-.6162-.1602-.2754.0508-.5664.0771-.8633.0771-2.8945,0-5.25-2.3555-5.25-5.25,0-1.2695.46-2.4932,1.2939-3.4453.1533-.1738.2168-.4092.1729-.6377-.0449-.2275-.1914-.4219-.3994-.5264-.6572-.3311-1.3526-.5697-2.0621-.7582.4597-.5924.7447-1.3264.7447-2.1324,0-1.9297-1.5703-3.5-3.5-3.5s-3.5,1.5703-3.5,3.5c0,.7982.2792,1.5261.7308,2.1155-4.6091,1.2604-7.9808,5.6201-7.9808,10.7243v3.6602c0,1.2402-1.0098,2.25-2.25,2.25-.4141,0-.75.3359-.75.75v3.5c0,.6895.5605,1.25,1.25,1.25h8.0253c.1327,2.3632,2.0789,4.25,4.4747,4.25s4.342-1.8868,4.4747-4.25h8.0253c.6895,0,1.25-.5605,1.25-1.25v-3.5c0-.4141-.3359-.75-.75-.75ZM16,2c.8271,0,1.5.6729,1.5,1.5s-.6729,1.5-1.5,1.5-1.5-.6729-1.5-1.5.6729-1.5,1.5-1.5ZM16,30c-1.2933,0-2.3473-.9899-2.4747-2.25h4.9495c-.1274,1.2601-1.1815,2.25-2.4747,2.25Z"/></g></svg>