<svg xmlns="http://www.w3.org/2000/svg" viewBox="0 0 32 32">
  <defs>
    <style>
      .uuid-1b293921-94f2-4466-b2dd-5e55f23404d9{stroke-width:0;fill:#151515}
    </style>
  </defs>
  <path d="M0 0h32v32H0z" id="uuid-9b7762ae-a647-4652-b726-5b5c013f6a88" stroke-width="0" fill="none"/>
  <g id="uuid-dd739e77-ebd1-434b-a2f1-723c7481b3a1">
    <path class="uuid-1b293921-94f2-4466-b2dd-5e55f23404d9" d="M16 0C7.178 0 0 7.178 0 16s7.178 16 16 16 16-7.178 16-16S24.822 0 16 0Zm0 30C8.28 30 2 23.72 2 16S8.28 2 16 2s14 6.28 14 14-6.28 14-14 14Z"/>
    <path class="uuid-1b293921-94f2-4466-b2dd-5e55f23404d9" d="M16 7.929a1 1 0 0 0-1 1V23.07a1 1 0 0 0 2 0V8.93a1 1 0 0 0-1-1Z"/>
  </g>
</svg>
