<?xml version="1.0" encoding="UTF-8"?><svg xmlns="http://www.w3.org/2000/svg" width="32" height="32" viewBox="0 0 32 32"><defs><style>.uuid-2ff01a3d-d0ad-4b7c-aca6-6a53f9075605{fill:none;}.uuid-82fe7a0f-2754-421a-8379-3ed10651bfb2{fill:#151515;}</style></defs><g id="uuid-a910af51-6196-47b8-8950-e1d1b5a7c8e1"><rect class="uuid-2ff01a3d-d0ad-4b7c-aca6-6a53f9075605" width="32" height="32"/></g><g id="uuid-26b7dc23-9411-43d5-b83e-99ac0d610117"><path class="uuid-82fe7a0f-2754-421a-8379-3ed10651bfb2" d="M16,1C7.72852,1,1,7.729,1,16s6.72852,15,15,15,15-6.729,15-15S24.27148,1,16,1ZM16,29c-7.16797,0-13-5.83154-13-13S8.83203,3,16,3s13,5.83154,13,13-5.83203,13-13,13Z"/><path class="uuid-82fe7a0f-2754-421a-8379-3ed10651bfb2" d="M16,9c-.55273,0-1,.44775-1,1v12c0,.55225.44727,1,1,1s1-.44775,1-1v-12c0-.55225-.44727-1-1-1Z"/></g></svg>