<?xml version="1.0" encoding="UTF-8"?><svg xmlns="http://www.w3.org/2000/svg" viewBox="0 0 32 32"><defs><style>.uuid-99eae503-c0e2-4165-96f6-ab13be63a595{fill:none;}.uuid-99eae503-c0e2-4165-96f6-ab13be63a595,.uuid-1b293921-94f2-4466-b2dd-5e55f23404d9{stroke-width:0px;}.uuid-1b293921-94f2-4466-b2dd-5e55f23404d9{fill:#151515;}</style></defs><g id="uuid-9b7762ae-a647-4652-b726-5b5c013f6a88"><rect class="uuid-99eae503-c0e2-4165-96f6-ab13be63a595" x="0" width="32" height="32"/></g><g id="uuid-dd739e77-ebd1-434b-a2f1-723c7481b3a1"><path class="uuid-1b293921-94f2-4466-b2dd-5e55f23404d9" d="M16,0C7.1777,0,0,7.1777,0,16s7.1777,16,16,16,16-7.1777,16-16S24.8223,0,16,0ZM16,30c-7.7197,0-14-6.2803-14-14S8.2803,2,16,2s14,6.2803,14,14-6.2803,14-14,14Z"/><path class="uuid-1b293921-94f2-4466-b2dd-5e55f23404d9" d="M16,7.9287c-.5522,0-1,.4478-1,1v14.1426c0,.5522.4478,1,1,1s1-.4478,1-1v-14.1426c0-.5522-.4478-1-1-1Z"/></g></svg>