<?xml version="1.0" encoding="UTF-8"?><svg xmlns="http://www.w3.org/2000/svg" width="32" height="32" viewBox="0 0 32 32"><defs><style>.uuid-c4e1d585-2ab3-4adc-83b8-d0b58ed0864b{fill:none;}.uuid-3237a568-205b-4c04-8cd0-3db42fec1546{fill:#151515;}</style></defs><g id="uuid-a7cae8ba-bfa6-4b85-9924-c16efa2fc990"><rect class="uuid-c4e1d585-2ab3-4adc-83b8-d0b58ed0864b" width="32" height="32"/></g><g id="uuid-3ac8cdd5-4be7-4a10-80f4-ddcbfb635fab"><rect class="uuid-3237a568-205b-4c04-8cd0-3db42fec1546" x="7.125" y="9.125" width="5.75" height="13.75"/><path class="uuid-3237a568-205b-4c04-8cd0-3db42fec1546" d="M29.5,3H2.5c-.82715,0-1.5.67285-1.5,1.5v23c0,.82715.67285,1.5,1.5,1.5h27c.82715,0,1.5-.67285,1.5-1.5V4.5c0-.82715-.67285-1.5-1.5-1.5ZM15.125,23.5c0,.89648-.729,1.625-1.625,1.625h-7c-.896,0-1.625-.72852-1.625-1.625v-15c0-.89648.729-1.625,1.625-1.625h7c.896,0,1.625.72852,1.625,1.625v15Z"/></g></svg>