<?xml version="1.0" encoding="UTF-8"?><svg xmlns="http://www.w3.org/2000/svg" width="32" height="32" viewBox="0 0 32 32"><defs><style>.uuid-238ed893-3130-4c02-a92b-92195feac7d4{fill:none;}.uuid-3bf13fd6-e945-492d-a44f-ae33c8da3a4f{fill:#151515;}</style></defs><g id="uuid-4e308e2c-8b75-4744-b020-cd7be5d45ee3"><rect class="uuid-238ed893-3130-4c02-a92b-92195feac7d4" width="32" height="32"/></g><g id="uuid-e9ae54e3-6a93-405c-88d0-a3e87a1df9ab"><rect class="uuid-3bf13fd6-e945-492d-a44f-ae33c8da3a4f" x="19.125" y="9.125" width="5.75" height="13.75"/><path class="uuid-3bf13fd6-e945-492d-a44f-ae33c8da3a4f" d="M2.5,29h27c.82715,0,1.5-.67285,1.5-1.5V4.5c0-.82715-.67285-1.5-1.5-1.5H2.5c-.82715,0-1.5.67285-1.5,1.5v23c0,.82715.67285,1.5,1.5,1.5ZM16.875,8.5c0-.89648.729-1.625,1.625-1.625h7c.896,0,1.625.72852,1.625,1.625v15c0,.89648-.729,1.625-1.625,1.625h-7c-.896,0-1.625-.72852-1.625-1.625v-15Z"/></g></svg>