<?xml version="1.0" encoding="UTF-8"?><svg xmlns="http://www.w3.org/2000/svg" width="32" height="32" viewBox="0 0 32 32"><defs><style>.uuid-b88b3ba9-5ba5-452e-b385-420cb321e89d{fill:none;}.uuid-533f51b5-5b0b-45a8-8722-e6bef153addf{fill:#151515;}</style></defs><g id="uuid-95dcebdc-f751-47a7-a1d0-f4cf02be4b84"><rect class="uuid-b88b3ba9-5ba5-452e-b385-420cb321e89d" width="32" height="32"/></g><g id="uuid-3d29a129-db1f-452f-b509-7bf53f78bd54"><path class="uuid-533f51b5-5b0b-45a8-8722-e6bef153addf" d="M19.06055,8.64648c-.58398-.58496-1.53711-.58496-2.12109,0l-10.64648,10.64648c-.1048.1048-.17651.22809-.2251.35846l-3.98096,8.94183c-.00366.00818-.0022.01691-.00562.02515-.02905.06995-.0365.14484-.04913.21985-.00903.0545-.0285.10748-.02844.16174-.00006.05426.01941.10724.02844.16174.01263.07501.02008.1499.04913.21985.00342.00824.00195.01697.00562.02515.04449.1004.10541.1875.17542.26453.01331.01465.03058.02478.04486.0387.07343.07159.15558.12915.24579.17462.01532.00775.0249.02191.04077.02899.01428.00635.02948.00378.04388.0094.11407.0448.23309.07587.35742.07666.00134,0,.00262.00085.00397.00085.00031,0,.00067-.00012.00098-.00012s.00067.00012.00098.00012c.00134,0,.00262-.00085.00397-.00085.12433-.00079.24341-.03186.35748-.07666.0144-.00562.02954-.00305.04382-.0094l8.94342-3.98163c.12994-.04858.25281-.12036.35736-.22491l10.64648-10.64648c.2832-.2832.43945-.66016.43945-1.06055s-.15625-.77734-.43945-1.06055l-4.29297-4.29297ZM4.97235,27.02747l2.35388-5.28717,2.93329,2.93329-5.28717,2.35388Z"/><path class="uuid-533f51b5-5b0b-45a8-8722-e6bef153addf" d="M27.06055,11.35352l2.29297-2.29297c.2832-.2832.43945-.66016.43945-1.06055s-.15625-.77734-.43945-1.06055l-4.29297-4.29297c-.58398-.58496-1.53711-.58496-2.12109,0l-2.29297,2.29297c-.2832.2832-.43945.66016-.43945,1.06055s.15625.77734.43945,1.06055l4.29297,4.29297c.29199.29248.67676.43848,1.06055.43848s.76855-.146,1.06055-.43848Z"/><path class="uuid-533f51b5-5b0b-45a8-8722-e6bef153addf" d="M3,11h3c.55273,0,1-.44727,1-1s-.44727-1-1-1h-3c-.55273,0-1,.44727-1,1s.44727,1,1,1Z"/><path class="uuid-533f51b5-5b0b-45a8-8722-e6bef153addf" d="M10,7c.55273,0,1-.44727,1-1v-3c0-.55273-.44727-1-1-1s-1,.44727-1,1v3c0,.55273.44727,1,1,1Z"/><path class="uuid-533f51b5-5b0b-45a8-8722-e6bef153addf" d="M5.29297,6.70703c.19531.19531.45117.29297.70703.29297s.51172-.09766.70703-.29297c.39062-.39062.39062-1.02344,0-1.41406l-2-2c-.39062-.39062-1.02344-.39062-1.41406,0s-.39062,1.02344,0,1.41406l2,2Z"/><path class="uuid-533f51b5-5b0b-45a8-8722-e6bef153addf" d="M29,21h-3c-.55273,0-1,.44727-1,1s.44727,1,1,1h3c.55273,0,1-.44727,1-1s-.44727-1-1-1Z"/><path class="uuid-533f51b5-5b0b-45a8-8722-e6bef153addf" d="M22,25c-.55273,0-1,.44727-1,1v3c0,.55273.44727,1,1,1s1-.44727,1-1v-3c0-.55273-.44727-1-1-1Z"/><path class="uuid-533f51b5-5b0b-45a8-8722-e6bef153addf" d="M26.6748,25.26172c-.40723-.37109-1.04004-.34473-1.41309.06348-.37207.4082-.34375,1.04004.06348,1.41309l2,1.82812c.19238.1748.43359.26172.6748.26172.27051,0,.54102-.10938.73828-.3252.37207-.4082.34375-1.04004-.06348-1.41309l-2-1.82812Z"/></g></svg>