<?xml version="1.0" encoding="UTF-8"?><svg xmlns="http://www.w3.org/2000/svg" width="32" height="32" viewBox="0 0 32 32"><defs><style>.uuid-4dff68b0-b2bc-4453-8d17-05eeeb90b7dd{fill:none;}.uuid-e0b9d0ae-533c-4362-b191-1642ff6c75d1{fill:#151515;}</style></defs><g id="uuid-564cf47f-bd43-4397-af87-6717c124a710"><rect class="uuid-4dff68b0-b2bc-4453-8d17-05eeeb90b7dd" width="32" height="32"/></g><g id="uuid-f7bb67b0-5526-4f3b-87bb-390c14e8a3a8"><path class="uuid-e0b9d0ae-533c-4362-b191-1642ff6c75d1" d="M12.37958,26.03448L29.70703,8.70703c.39062-.39062.39062-1.02344,0-1.41406l-5-5c-.39062-.39062-1.02344-.39062-1.41406,0L5.9541,19.63184c-.04822.04822-.07214.10864-.10846.16333-.03485.052-.08014.0943-.10541.15405l-.00537.0127c-.00024.00055-.00043.00098-.00067.00153l-3.65509,8.64691c-.00098.00238-.00049.00488-.00146.00726-.04718.11401-.07092.23669-.07361.36176-.00018.0069-.00403.01373-.00403.02063s.00385.01373.00403.02063c.00269.12506.02643.24774.07361.36176.00098.00238.00049.00488.00146.00726.04584.1084.11188.20056.18726.28265.02081.02277.04596.03986.06897.06079.06885.06219.14343.11359.22571.15417.01837.00909.03021.02557.04932.03363.01361.00574.02808.00336.04181.00848.11133.04175.22717.07062.34784.07062.12073,0,.23663-.02887.34796-.07062.01373-.00513.02808-.00275.04169-.00848l8.64691-3.65509c.00055-.00018.00098-.00043.00153-.00067l.0127-.00537c.06384-.02698.10962-.07458.16455-.11237.05084-.03467.10773-.0564.15283-.1015l.00897-.00897c.00079-.00085.00165-.00159.00244-.00244ZM7.00403,22.09583l2.90015,2.90015-5.02368,2.12354,2.12354-5.02368ZM24,4.41406l3.58594,3.58594-2.08594,2.08594-3.58594-3.58594,2.08594-2.08594ZM20.5,7.91406l3.58594,3.58594-12.4248,12.4248-3.58594-3.58594,12.4248-12.4248Z"/><path class="uuid-e0b9d0ae-533c-4362-b191-1642ff6c75d1" d="M3,11h3c.55273,0,1-.44727,1-1s-.44727-1-1-1h-3c-.55273,0-1,.44727-1,1s.44727,1,1,1Z"/><path class="uuid-e0b9d0ae-533c-4362-b191-1642ff6c75d1" d="M10,7c.55273,0,1-.44727,1-1v-3c0-.55273-.44727-1-1-1s-1,.44727-1,1v3c0,.55273.44727,1,1,1Z"/><path class="uuid-e0b9d0ae-533c-4362-b191-1642ff6c75d1" d="M5.29297,6.70703c.19531.19531.45117.29297.70703.29297s.51172-.09766.70703-.29297c.39062-.39062.39062-1.02344,0-1.41406l-2-2c-.39062-.39062-1.02344-.39062-1.41406,0s-.39062,1.02344,0,1.41406l2,2Z"/><path class="uuid-e0b9d0ae-533c-4362-b191-1642ff6c75d1" d="M29,21h-3c-.55273,0-1,.44727-1,1s.44727,1,1,1h3c.55273,0,1-.44727,1-1s-.44727-1-1-1Z"/><path class="uuid-e0b9d0ae-533c-4362-b191-1642ff6c75d1" d="M22,25c-.55273,0-1,.44727-1,1v3c0,.55273.44727,1,1,1s1-.44727,1-1v-3c0-.55273-.44727-1-1-1Z"/><path class="uuid-e0b9d0ae-533c-4362-b191-1642ff6c75d1" d="M26.6748,25.26172c-.40723-.37109-1.04004-.34473-1.41309.06348-.37207.4082-.34375,1.04004.06348,1.41309l2,1.82812c.19238.1748.43359.26172.6748.26172.27051,0,.54102-.10938.73828-.3252.37207-.4082.34375-1.04004-.06348-1.41309l-2-1.82812Z"/></g></svg>