<?xml version="1.0" encoding="UTF-8"?><svg xmlns="http://www.w3.org/2000/svg" width="32" height="32" viewBox="0 0 32 32"><defs><style>.uuid-b15ed928-f302-46be-ae53-a9bf47f65d1d{fill:none;}.uuid-4d3f443c-abf1-491e-bd54-a8ec6ec80719{fill:#151515;}</style></defs><g id="uuid-77470825-c46c-4890-9a98-7c60763cbdfe"><rect class="uuid-b15ed928-f302-46be-ae53-a9bf47f65d1d" width="32" height="32"/></g><g id="uuid-47b4e012-c29e-44c4-8b10-0588535eef41"><path class="uuid-4d3f443c-abf1-491e-bd54-a8ec6ec80719" d="M29.35352,14.93945l-3.64648-3.64648c-.39062-.39062-1.02344-.39062-1.41406,0s-.39062,1.02344,0,1.41406l2.29297,2.29297H9c-.55225,0-1,.44727-1,1s.44775,1,1,1h17.58594l-2.29297,2.29297c-.39062.39062-.39062,1.02344,0,1.41406.19531.19531.45117.29297.70703.29297s.51172-.09766.70703-.29297l3.64648-3.64648c.2832-.2832.43945-.66016.43945-1.06055s-.15625-.77734-.43945-1.06055Z"/><path class="uuid-4d3f443c-abf1-491e-bd54-a8ec6ec80719" d="M3,2c-.55225,0-1,.44727-1,1v26c0,.55273.44775,1,1,1s1-.44727,1-1V3c0-.55273-.44775-1-1-1Z"/><path class="uuid-4d3f443c-abf1-491e-bd54-a8ec6ec80719" d="M19,21c-.55225,0-1,.44727-1,1v7c0,.55273.44775,1,1,1s1-.44727,1-1v-7c0-.55273-.44775-1-1-1Z"/><path class="uuid-4d3f443c-abf1-491e-bd54-a8ec6ec80719" d="M19,11c.55225,0,1-.44727,1-1V3c0-.55273-.44775-1-1-1s-1,.44727-1,1v7c0,.55273.44775,1,1,1Z"/></g></svg>