<?xml version="1.0" encoding="UTF-8"?><svg xmlns="http://www.w3.org/2000/svg" width="32" height="32" viewBox="0 0 32 32"><defs><style>.uuid-0cdc713b-daa4-4da0-a9a6-d479165456d1{fill:none;}.uuid-8747943e-1237-4190-a19d-13d3100b94b8{fill:#151515;}</style></defs><g id="uuid-43b0d19f-8efe-4303-b3ac-84ce8bee674e"><rect class="uuid-0cdc713b-daa4-4da0-a9a6-d479165456d1" width="32" height="32"/></g><g id="uuid-cbf01e3f-eae8-4b10-9b2a-da8d8834719c"><path class="uuid-8747943e-1237-4190-a19d-13d3100b94b8" d="M30,24H9V5.16992c0-2.22461-1.66309-4.05371-3.78711-4.16504-1.10059-.04199-2.16309.33105-2.9668,1.09375-.79199.75195-1.24609,1.80957-1.24609,2.90137,0,.55273.44775,1,1,1s1-.44727,1-1c0-.55371.22119-1.06934.62354-1.4502.40186-.38281.93408-.58203,1.48535-.54688,1.04297.05469,1.89111,1.02637,1.89111,2.16699v19.33008c0,.82715.67285,1.5,1.5,1.5h21.5c.55225,0,1-.44727,1-1s-.44775-1-1-1Z"/><path class="uuid-8747943e-1237-4190-a19d-13d3100b94b8" d="M13.5,21h15c.82715,0,1.5-.67285,1.5-1.5V4.5c0-.82715-.67285-1.5-1.5-1.5h-5.5v7c0,.55273-.44775,1-1,1h-2c-.55225,0-1-.44727-1-1V3h-5.5c-.82715,0-1.5.67285-1.5,1.5v15c0,.82715.67285,1.5,1.5,1.5Z"/><circle class="uuid-8747943e-1237-4190-a19d-13d3100b94b8" cx="10.99976" cy="29.01306" r="1.625"/><circle class="uuid-8747943e-1237-4190-a19d-13d3100b94b8" cx="26.99976" cy="29.00342" r="1.625"/></g></svg>