<?xml version="1.0" encoding="UTF-8"?><svg xmlns="http://www.w3.org/2000/svg" width="32" height="32" viewBox="0 0 32 32"><defs><style>.uuid-07544323-fbc9-4668-9e70-80578ed2da97{fill:none;}.uuid-85d4d219-e71b-4558-a76e-0171cbe6bfa3{fill:#151515;}</style></defs><g id="uuid-4961ef1b-34ec-48f2-a068-1bff9ebb3e84"><rect class="uuid-07544323-fbc9-4668-9e70-80578ed2da97" width="32" height="32"/></g><g id="uuid-9844b04c-813a-4d7f-a916-107635254917"><path class="uuid-85d4d219-e71b-4558-a76e-0171cbe6bfa3" d="M30,24H9V5.16992c0-2.22461-1.66309-4.05371-3.78711-4.16504-1.10596-.05176-2.16309.33203-2.9668,1.09375-.79199.75195-1.24609,1.80957-1.24609,2.90137,0,.55273.44775,1,1,1s1-.44727,1-1c0-.55371.22119-1.06934.62354-1.4502.40186-.38281.93213-.58301,1.48535-.54688,1.04297.05469,1.89111,1.02637,1.89111,2.16699v19.33008c0,.82715.67285,1.5,1.5,1.5h21.5c.55225,0,1-.44727,1-1s-.44775-1-1-1Z"/><path class="uuid-85d4d219-e71b-4558-a76e-0171cbe6bfa3" d="M13.5,21h15c.82715,0,1.5-.67285,1.5-1.5V4.5c0-.82715-.67285-1.5-1.5-1.5h-15c-.82715,0-1.5.67285-1.5,1.5v15c0,.82715.67285,1.5,1.5,1.5ZM14,5h5v5c0,.55273.44775,1,1,1h2c.55225,0,1-.44727,1-1v-5h5v14h-14V5Z"/><circle class="uuid-85d4d219-e71b-4558-a76e-0171cbe6bfa3" cx="11.00488" cy="29.00342" r="1.625"/><circle class="uuid-85d4d219-e71b-4558-a76e-0171cbe6bfa3" cx="26.99463" cy="29.00342" r="1.625"/></g></svg>