<?xml version="1.0" encoding="UTF-8"?><svg xmlns="http://www.w3.org/2000/svg" width="32" height="32" viewBox="0 0 32 32"><defs><style>.uuid-03ceae04-c040-4887-bfd9-53c31ab13bb6{fill:none;}.uuid-4918ec8e-d215-49a8-b9da-95e6eabe3083{fill:#151515;}</style></defs><g id="uuid-bc406f8b-ff04-47fc-830c-fa9821cfa079"><rect class="uuid-03ceae04-c040-4887-bfd9-53c31ab13bb6" width="32" height="32"/></g><g id="uuid-7153e316-c8dd-470e-ba56-a40b8a3a0ac1"><path class="uuid-4918ec8e-d215-49a8-b9da-95e6eabe3083" d="M28.5,2h-4c-.82715,0-1.5.67285-1.5,1.5v25c0,.82715.67285,1.5,1.5,1.5h4c.82715,0,1.5-.67285,1.5-1.5V3.5c0-.82715-.67285-1.5-1.5-1.5ZM28,28h-3V4h3v24Z"/><path class="uuid-4918ec8e-d215-49a8-b9da-95e6eabe3083" d="M19,15H5.41406l5.29297-5.29297c.39062-.39062.39062-1.02344,0-1.41406s-1.02344-.39062-1.41406,0l-6.64648,6.64648c-.58496.58496-.58496,1.53613,0,2.12109l6.64648,6.64648c.19531.19531.45117.29297.70703.29297s.51172-.09766.70703-.29297c.39062-.39062.39062-1.02344,0-1.41406l-5.29297-5.29297h13.58594c.55273,0,1-.44727,1-1s-.44727-1-1-1Z"/></g></svg>