<?xml version="1.0" encoding="UTF-8"?><svg xmlns="http://www.w3.org/2000/svg" width="32" height="32" viewBox="0 0 32 32"><defs><style>.uuid-48c2196a-44f5-4bac-a3bb-ecd36d606b24{fill:none;}.uuid-bda9ef88-0317-43af-a42e-ae6c34984bda{fill:#151515;}</style></defs><g id="uuid-d0d8b12e-c6f9-444a-9eee-2a6b6140d3f4"><rect class="uuid-48c2196a-44f5-4bac-a3bb-ecd36d606b24" width="32" height="32"/></g><g id="uuid-93f74219-7748-474a-a8c3-2581c6f4e355"><path class="uuid-bda9ef88-0317-43af-a42e-ae6c34984bda" d="M28.5,2h-4c-.82715,0-1.5.67285-1.5,1.5v25c0,.82715.67285,1.5,1.5,1.5h4c.82715,0,1.5-.67285,1.5-1.5V3.5c0-.82715-.67285-1.5-1.5-1.5ZM28,28h-3V4h3v24Z"/><path class="uuid-bda9ef88-0317-43af-a42e-ae6c34984bda" d="M12.70703,8.29297c-.39062-.39062-1.02344-.39062-1.41406,0s-.39062,1.02344,0,1.41406l5.29297,5.29297H3c-.55225,0-1,.44727-1,1s.44775,1,1,1h13.58594l-5.29297,5.29297c-.39062.39062-.39062,1.02344,0,1.41406.19531.19531.45117.29297.70703.29297s.51172-.09766.70703-.29297l6.64648-6.64648c.58496-.58496.58496-1.53613,0-2.12109l-6.64648-6.64648Z"/></g></svg>