<?xml version="1.0" encoding="UTF-8"?><svg xmlns="http://www.w3.org/2000/svg" width="32" height="32" viewBox="0 0 32 32"><defs><style>.uuid-8f8e2b8d-fea9-4735-9d58-070c52010489{fill:none;}.uuid-b3c54b82-4c7b-4e01-a24d-70e38327a1f4{fill:#151515;}</style></defs><g id="uuid-afa8889e-7cca-47b6-a409-35a6c83566ce"><rect class="uuid-8f8e2b8d-fea9-4735-9d58-070c52010489" width="32" height="32"/></g><g id="uuid-709bf7cd-537f-4a9e-a7a2-0780e15be618"><rect class="uuid-b3c54b82-4c7b-4e01-a24d-70e38327a1f4" x="23" y="2" width="7" height="28" rx="1.5" ry="1.5"/><path class="uuid-b3c54b82-4c7b-4e01-a24d-70e38327a1f4" d="M12.70703,8.29297c-.39062-.39062-1.02344-.39062-1.41406,0s-.39062,1.02344,0,1.41406l5.29297,5.29297H3c-.55225,0-1,.44727-1,1s.44775,1,1,1h13.58594l-5.29297,5.29297c-.39062.39062-.39062,1.02344,0,1.41406.19531.19531.45117.29297.70703.29297s.51172-.09766.70703-.29297l6.64648-6.64648c.58496-.58496.58496-1.53613,0-2.12109l-6.64648-6.64648Z"/></g></svg>