<?xml version="1.0" encoding="UTF-8"?><svg xmlns="http://www.w3.org/2000/svg" width="32" height="32" viewBox="0 0 32 32"><defs><style>.uuid-69602485-9c6d-4f55-83a1-b662cafe5c80{fill:none;}.uuid-d3a163b1-097e-4107-863d-9733b7e23669{fill:#151515;}</style></defs><g id="uuid-e71e0895-8bd4-409e-86b7-6d18e6811bfa"><rect class="uuid-69602485-9c6d-4f55-83a1-b662cafe5c80" width="32" height="32"/></g><g id="uuid-fcddc5c0-8bff-48fd-bec1-504e4dc71350"><rect class="uuid-d3a163b1-097e-4107-863d-9733b7e23669" x="23" y="2" width="7" height="28" rx="1.5" ry="1.5"/><path class="uuid-d3a163b1-097e-4107-863d-9733b7e23669" d="M19,15H5.41406l5.29297-5.29297c.39062-.39062.39062-1.02344,0-1.41406s-1.02344-.39062-1.41406,0l-6.64648,6.64648c-.58496.58496-.58496,1.53613,0,2.12109l6.64648,6.64648c.19531.19531.45117.29297.70703.29297s.51172-.09766.70703-.29297c.39062-.39062.39062-1.02344,0-1.41406l-5.29297-5.29297h13.58594c.55273,0,1-.44727,1-1s-.44727-1-1-1Z"/></g></svg>