<?xml version="1.0" encoding="UTF-8"?><svg xmlns="http://www.w3.org/2000/svg" width="32" height="32" viewBox="0 0 32 32"><defs><style>.uuid-80e8007d-6fa5-445c-807e-7354def893bc{fill:none;}.uuid-a8f6a0bb-882d-4395-b1ff-88d0e4618822{fill:#151515;}</style></defs><g id="uuid-aa0ec2a6-37b2-4a5c-9e9c-26b6d6001667"><rect class="uuid-80e8007d-6fa5-445c-807e-7354def893bc" width="32" height="32"/></g><g id="uuid-25e97831-80f1-4a20-a36b-921e8637564f"><path class="uuid-a8f6a0bb-882d-4395-b1ff-88d0e4618822" d="M24,5c-.55225,0-1,.44727-1,1v16.5c0,3.58398-2.91602,6.5-6.5,6.5s-6.5-2.91602-6.5-6.5V7c0-2.20605,1.79443-4,4-4s4,1.79395,4,4v15.5c0,.82715-.67285,1.5-1.5,1.5s-1.5-.67285-1.5-1.5v-14.5c0-.55273-.44775-1-1-1s-1,.44727-1,1v14.5c0,1.92969,1.57031,3.5,3.5,3.5s3.5-1.57031,3.5-3.5V7c0-3.30859-2.69141-6-6-6s-6,2.69141-6,6v15.5c0,4.68652,3.81299,8.5,8.5,8.5s8.5-3.81348,8.5-8.5V6c0-.55273-.44775-1-1-1Z"/></g></svg>