<?xml version="1.0" encoding="UTF-8"?><svg xmlns="http://www.w3.org/2000/svg" width="32" height="32" viewBox="0 0 32 32"><defs><style>.uuid-3ffd52f7-1cb0-4073-bed4-49d309b1bb84{fill:none;}.uuid-49e73f01-ef45-4593-b0b4-cef6667fb6ad{fill:#151515;}</style></defs><g id="uuid-0a7ac502-7654-431e-b8a6-fae8d311fc82"><rect class="uuid-3ffd52f7-1cb0-4073-bed4-49d309b1bb84" width="32" height="32"/></g><g id="uuid-bd85d438-c310-4dff-b856-21904fa1e4d6"><path class="uuid-49e73f01-ef45-4593-b0b4-cef6667fb6ad" d="M26,21c-2.41443,0-4.43427,1.7207-4.89893,4h-13.10107c-2.20605,0-4-1.79395-4-4s1.79395-4,4-4h16c3.30859,0,6-2.69141,6-6s-2.69141-6-6-6h-13.10107c-.46466-2.2793-2.4845-4-4.89893-4C3.24316,1,1,3.24316,1,6s2.24316,5,5,5c2.41443,0,4.43427-1.7207,4.89893-4h13.10107c2.20605,0,4,1.79395,4,4s-1.79395,4-4,4H8c-3.30859,0-6,2.69141-6,6s2.69141,6,6,6h13.10107c.46466,2.2793,2.4845,4,4.89893,4,2.75684,0,5-2.24316,5-5s-2.24316-5-5-5ZM6,9c-1.6543,0-3-1.3457-3-3s1.3457-3,3-3,3,1.3457,3,3-1.3457,3-3,3ZM26,29c-1.6543,0-3-1.3457-3-3s1.3457-3,3-3,3,1.3457,3,3-1.3457,3-3,3Z"/></g></svg>