<?xml version="1.0" encoding="UTF-8"?><svg xmlns="http://www.w3.org/2000/svg" width="32" height="32" viewBox="0 0 32 32"><defs><style>.uuid-764f37d1-19ed-4034-b0c1-41b1053532d9{fill:none;}.uuid-79bf334e-38e1-4e8c-9e75-2caffe3f370b{fill:#151515;}</style></defs><g id="uuid-52f32849-32cf-4783-8dcc-0d25137bf83d"><rect class="uuid-764f37d1-19ed-4034-b0c1-41b1053532d9" width="32" height="32"/></g><g id="uuid-1a95e3cc-9698-4892-8198-9386732317b0"><path class="uuid-79bf334e-38e1-4e8c-9e75-2caffe3f370b" d="M26,21c-2.41443,0-4.43427,1.7207-4.89893,4h-13.10107c-2.20605,0-4-1.79395-4-4s1.79395-4,4-4h16c3.30859,0,6-2.69141,6-6s-2.69141-6-6-6h-13.10107c-.46466-2.2793-2.4845-4-4.89893-4C3.24316,1,1,3.24316,1,6s2.24316,5,5,5c2.41443,0,4.43427-1.7207,4.89893-4h13.10107c2.20605,0,4,1.79395,4,4s-1.79395,4-4,4H8c-3.30859,0-6,2.69141-6,6s2.69141,6,6,6h13.10107c.46466,2.2793,2.4845,4,4.89893,4,2.75684,0,5-2.24316,5-5s-2.24316-5-5-5Z"/></g></svg>