<?xml version="1.0" encoding="UTF-8"?><svg xmlns="http://www.w3.org/2000/svg" width="32" height="32" viewBox="0 0 32 32"><defs><style>.uuid-b4bdbda4-096c-4a0f-837f-3b22266b05ca{fill:none;}.uuid-9e5f118e-78be-477b-b447-fec56eb2a6b6{fill:#151515;}</style></defs><g id="uuid-211e1b5a-2c02-4171-aa79-418acee42ce5"><rect class="uuid-b4bdbda4-096c-4a0f-837f-3b22266b05ca" width="32" height="32"/></g><g id="uuid-67d0b9a2-e666-4703-8345-bd8fe1a9f90c"><path class="uuid-9e5f118e-78be-477b-b447-fec56eb2a6b6" d="M16,1.25C7.86719,1.25,1.25,7.8667,1.25,16s6.61719,14.75,14.75,14.75,14.75-6.6167,14.75-14.75S24.13281,1.25,16,1.25ZM14.375,21.75c0,.34473-.28027.625-.625.625h-3.5c-.34473,0-.625-.28027-.625-.625v-11.5c0-.34473.28027-.625.625-.625h3.5c.34473,0,.625.28027.625.625v11.5ZM22.375,21.75c0,.34473-.28027.625-.625.625h-3.5c-.34473,0-.625-.28027-.625-.625v-11.5c0-.34473.28027-.625.625-.625h3.5c.34473,0,.625.28027.625.625v11.5Z"/></g></svg>