<?xml version="1.0" encoding="UTF-8"?><svg xmlns="http://www.w3.org/2000/svg" viewBox="0 0 32 32"><defs><style>.uuid-13888856-693e-4d10-a4f7-515d14413812{fill:none;}.uuid-13888856-693e-4d10-a4f7-515d14413812,.uuid-81003656-5c44-4171-89fe-cab7bb0fdafe{stroke-width:0px;}.uuid-81003656-5c44-4171-89fe-cab7bb0fdafe{fill:#151515;}</style></defs><g id="uuid-9cdec8e0-82f3-41e4-8574-bd0c56dec306"><rect class="uuid-13888856-693e-4d10-a4f7-515d14413812" x="0" width="32" height="32"/></g><g id="uuid-8852255e-9c89-4c43-bd75-173cb26cce79"><path class="uuid-81003656-5c44-4171-89fe-cab7bb0fdafe" d="M16-.0449C7.165-.0449-.0225,7.1426-.0225,15.9775s7.1875,16.0225,16.0225,16.0225,16.0225-7.1875,16.0225-16.0225S24.835-.0449,16-.0449ZM14,22.5c0,.2761-.2238.5-.5.5h-4c-.2761,0-.5-.2239-.5-.5v-13c0-.2762.2239-.5.5-.5h4c.2762,0,.5.2238.5.5v13ZM23,22.5c0,.2761-.2238.5-.5.5h-4c-.2761,0-.5-.2239-.5-.5v-13c0-.2762.2239-.5.5-.5h4c.2762,0,.5.2238.5.5v13Z"/></g></svg>