<?xml version="1.0" encoding="UTF-8"?><svg xmlns="http://www.w3.org/2000/svg" width="32" height="32" viewBox="0 0 32 32"><defs><style>.uuid-74564c82-3680-4163-8bbe-c2e12324c541{fill:none;}.uuid-dfdf70e3-6905-4da8-9035-48bd6480ce55{fill:#151515;}</style></defs><g id="uuid-c8a54ca7-3bfd-485a-b757-957fd18832d4"><rect class="uuid-74564c82-3680-4163-8bbe-c2e12324c541" width="32" height="32"/></g><g id="uuid-12ec31f7-c6e3-4796-958a-9c1660203978"><path class="uuid-dfdf70e3-6905-4da8-9035-48bd6480ce55" d="M12.5,1H4.5c-.82715,0-1.5.67285-1.5,1.5v27c0,.82715.67285,1.5,1.5,1.5h8c.82715,0,1.5-.67285,1.5-1.5V2.5c0-.82715-.67285-1.5-1.5-1.5ZM12,29h-7V3h7v26Z"/><path class="uuid-dfdf70e3-6905-4da8-9035-48bd6480ce55" d="M27.5,1h-8c-.82715,0-1.5.67285-1.5,1.5v27c0,.82715.67285,1.5,1.5,1.5h8c.82715,0,1.5-.67285,1.5-1.5V2.5c0-.82715-.67285-1.5-1.5-1.5ZM27,29h-7V3h7v26Z"/></g></svg>