<?xml version="1.0" encoding="UTF-8"?><svg xmlns="http://www.w3.org/2000/svg" viewBox="0 0 32 32"><defs><style>.uuid-2411effa-d392-474d-9c31-dcca983653e6{fill:none;}.uuid-2411effa-d392-474d-9c31-dcca983653e6,.uuid-50039382-6b69-4322-815b-98990fbc1f44{stroke-width:0px;}.uuid-50039382-6b69-4322-815b-98990fbc1f44{fill:#151515;}</style></defs><g id="uuid-29505b55-2017-4223-91de-36fee50812c5"><rect class="uuid-2411effa-d392-474d-9c31-dcca983653e6" width="32" height="32"/></g><g id="uuid-899577a1-8b13-48f0-ae2a-064dafe763a3"><path class="uuid-50039382-6b69-4322-815b-98990fbc1f44" d="M12.5,1h-7c-.8271,0-1.5.6729-1.5,1.5v27c0,.8271.6729,1.5,1.5,1.5h7c.8271,0,1.5-.6729,1.5-1.5V2.5c0-.8271-.6729-1.5-1.5-1.5ZM12,29h-6V3h6v26Z"/><path class="uuid-50039382-6b69-4322-815b-98990fbc1f44" d="M26.5,1h-7c-.8271,0-1.5.6729-1.5,1.5v27c0,.8271.6729,1.5,1.5,1.5h7c.8271,0,1.5-.6729,1.5-1.5V2.5c0-.8271-.6729-1.5-1.5-1.5ZM26,29h-6V3h6v26Z"/></g></svg>