<?xml version="1.0" encoding="utf-8"?>
<!-- Generator: Adobe Illustrator 24.1.2, SVG Export Plug-In . SVG Version: 6.00 Build 0)  -->
<svg version="1.1" id="Icons" xmlns="http://www.w3.org/2000/svg" xmlns:xlink="http://www.w3.org/1999/xlink" x="0px" y="0px"
	 viewBox="0 0 16 16" style="enable-background:new 0 0 16 16;" xml:space="preserve">
<style type="text/css">
	.st0{fill:#FFFFFF;}
	.st1{fill:#EE0000;}
</style>
<path d="M7,2.4H4C3.7,2.4,3.4,2.7,3.4,3v10c0,0.3,0.3,0.6,0.6,0.6h3c0.3,0,0.6-0.3,0.6-0.6V3C7.6,2.7,7.3,2.4,7,2.4z M6.4,12.4H4.6
	V3.6h1.8V12.4z M12,2.4H9C8.7,2.4,8.4,2.7,8.4,3v10c0,0.3,0.3,0.6,0.6,0.6h3c0.3,0,0.6-0.3,0.6-0.6V3C12.6,2.7,12.3,2.4,12,2.4z
	 M11.4,12.4H9.6V3.6h1.8V12.4z"/>
</svg>
