<?xml version="1.0" encoding="UTF-8"?><svg xmlns="http://www.w3.org/2000/svg" viewBox="0 0 32 32"><defs><style>.uuid-6d67d732-d538-44da-8ccb-a9ef8337f77b{fill:none;}.uuid-6d67d732-d538-44da-8ccb-a9ef8337f77b,.uuid-19d3864d-a331-4ef4-86aa-6d46396c1bdd{stroke-width:0px;}.uuid-19d3864d-a331-4ef4-86aa-6d46396c1bdd{fill:#151515;}</style></defs><g id="uuid-817bad98-4419-4745-8e1d-9c25d70eafd4"><rect class="uuid-6d67d732-d538-44da-8ccb-a9ef8337f77b" width="32" height="32"/></g><g id="uuid-becfb6ac-22a7-45ad-a99d-466849ed81de"><path class="uuid-19d3864d-a331-4ef4-86aa-6d46396c1bdd" d="M26,29h-1v-3.7573c0-1.0679-.416-2.0723-1.1719-2.8286l-6.4141-6.4141,6.4141-6.4141c.7559-.7563,1.1719-1.7607,1.1719-2.8286v-3.7573h1c.5527,0,1-.4478,1-1s-.4473-1-1-1H6c-.5527,0-1,.4478-1,1s.4473,1,1,1h1v3.7573c0,1.0679.416,2.0723,1.1719,2.8286l6.4141,6.4141-6.4141,6.4141c-.7559.7563-1.1719,1.7607-1.1719,2.8286v3.7573h-1c-.5527,0-1,.4478-1,1s.4473,1,1,1h20c.5527,0,1-.4478,1-1s-.4473-1-1-1ZM23,3v3h-14v-3h14ZM9,25.2427c0-.5337.208-1.0361.5859-1.4146l6.4141-6.4141,6.4141,6.4141c.3779.3784.5859.8809.5859,1.4146v3.7573h-14v-3.7573Z"/></g></svg>