<?xml version="1.0" encoding="UTF-8"?><svg xmlns="http://www.w3.org/2000/svg" width="32" height="32" viewBox="0 0 32 32"><defs><style>.uuid-3af9146a-9f56-43e5-a05a-1351fc1d1655{fill:none;}.uuid-51458b22-e917-4fef-baea-fa3a923138d0{fill:#151515;}</style></defs><g id="uuid-6a20594f-e7da-4fc9-8909-01fe98fa61ef"><rect class="uuid-3af9146a-9f56-43e5-a05a-1351fc1d1655" width="32" height="32"/></g><g id="uuid-de582ba0-bebd-4414-bcd9-a1f01f8af33d"><path class="uuid-51458b22-e917-4fef-baea-fa3a923138d0" d="M30,15h-12.00439c-.54883,0-.99561-.44678-.99561-.99561V2c0-.55225-.44775-1-1-1-4.25928,0-8.33301,1.82178-11.17725,4.99805C1.98145,9.1709.62256,13.43799,1.09424,17.70459c.76172,6.88721,6.31348,12.43896,13.20068,13.20117.55713.06152,1.11377.0918,1.66846.0918,3.69385,0,7.27979-1.34961,10.03857-3.82031,3.17627-2.84424,4.99805-6.91846,4.99805-11.17725,0-.55225-.44775-1-1-1ZM24.66797,25.6875c-2.79004,2.49902-6.39111,3.65186-10.15332,3.22998-5.96484-.65967-10.77295-5.46826-11.43213-11.43262-.41602-3.75684.73145-7.3623,3.22998-10.15283,2.2417-2.50342,5.36426-4.03613,8.6875-4.29346v10.96582c0,1.65186,1.34375,2.99561,2.99561,2.99561h10.96582c-.25732,3.32324-1.79004,6.4458-4.29346,8.6875Z"/><path class="uuid-51458b22-e917-4fef-baea-fa3a923138d0" d="M21,12h8.06982c.32861,0,.63672-.16162.82324-.43213s.22852-.61572.11133-.92285c-1.51318-3.9834-4.66602-7.13623-8.64941-8.64941-.30664-.11719-.65234-.0752-.92285.11133s-.43213.49463-.43213.82324v8.06982c0,.55225.44775,1,1,1Z"/></g></svg>