<?xml version="1.0" encoding="UTF-8"?><svg xmlns="http://www.w3.org/2000/svg" viewBox="0 0 32 32"><defs><style>.uuid-224971ff-1204-45c4-9abf-a7db31b76ed8{fill:none;}.uuid-224971ff-1204-45c4-9abf-a7db31b76ed8,.uuid-dd8bbadd-7b86-4249-8571-7a3414f1052f{stroke-width:0px;}.uuid-dd8bbadd-7b86-4249-8571-7a3414f1052f{fill:#151515;}</style></defs><g id="uuid-86d1f538-8ba4-42be-8c6f-e97576ab33e1"><rect class="uuid-224971ff-1204-45c4-9abf-a7db31b76ed8" x="0" width="32" height="32"/></g><g id="uuid-b48e7aaf-876f-4bf7-9984-12cc2cc44d82"><path class="uuid-dd8bbadd-7b86-4249-8571-7a3414f1052f" d="M21.5,12h8.6279c.3247,0,.6294-.1572.8164-.4229.1875-.2656.2349-.6045.1265-.9111-1.6182-4.5693-5.167-8.1182-9.7368-9.7363-.3071-.1104-.6465-.0615-.9111.126-.2651.1875-.4229.4912-.4229.8164v8.6279c0,.8271.6729,1.5,1.5,1.5Z"/><path class="uuid-dd8bbadd-7b86-4249-8571-7a3414f1052f" d="M31,15h-14V1c0-.5527-.4478-1-1-1C11.5869,0,7.4771,1.7578,4.4277,4.9502,1.3804,8.1416-.186,12.333.0171,16.7539c.376,8.1641,7.0649,14.8525,15.2285,15.2285.2559.0117.5103.0176.7642.0176,4.1377,0,8.0327-1.5566,11.0391-4.4277,3.1929-3.0488,4.9512-7.1582,4.9512-11.5723,0-.5527-.4478-1-1-1Z"/></g></svg>