<?xml version="1.0" encoding="UTF-8"?><svg xmlns="http://www.w3.org/2000/svg" width="32" height="32" viewBox="0 0 32 32"><defs><style>.uuid-faede6d4-6b4a-4adf-8e0a-0764e7700c45{fill:none;}.uuid-e07e6ea8-02c3-4d3a-8173-33e5e92e2938{fill:#151515;}</style></defs><g id="uuid-67354b5d-8d9c-4e33-a846-9cd1de21d4d5"><rect class="uuid-faede6d4-6b4a-4adf-8e0a-0764e7700c45" width="32" height="32"/></g><g id="uuid-64f906ed-5435-4341-8261-2de8624a4252"><path class="uuid-e07e6ea8-02c3-4d3a-8173-33e5e92e2938" d="M30,15h-12.00439c-.54883,0-.99561-.44678-.99561-.99561V2c0-.55225-.44775-1-1-1-4.25928,0-8.33301,1.82178-11.17725,4.99805C1.98145,9.1709.62256,13.43799,1.09424,17.70459c.76172,6.88721,6.31348,12.43896,13.20068,13.20117.55713.06152,1.11377.0918,1.66846.0918,3.69385,0,7.27979-1.34961,10.03857-3.82031,3.17627-2.84424,4.99805-6.91846,4.99805-11.17725,0-.55225-.44775-1-1-1Z"/><path class="uuid-e07e6ea8-02c3-4d3a-8173-33e5e92e2938" d="M21,12h8.06982c.32861,0,.63672-.16162.82324-.43213s.22852-.61572.11133-.92285c-1.51318-3.9834-4.66602-7.13623-8.64941-8.64941-.30664-.11719-.65234-.0752-.92285.11133s-.43213.49463-.43213.82324v8.06982c0,.55225.44775,1,1,1Z"/></g></svg>