<?xml version="1.0" encoding="UTF-8"?><svg xmlns="http://www.w3.org/2000/svg" viewBox="0 0 32 32"><defs><style>.uuid-13d23bee-3cbd-4a0b-9dc0-0b6ef4802305{fill:none;}.uuid-13d23bee-3cbd-4a0b-9dc0-0b6ef4802305,.uuid-1125a79a-b574-4feb-b9d5-6401677ef5b3{stroke-width:0px;}.uuid-1125a79a-b574-4feb-b9d5-6401677ef5b3{fill:#151515;}</style></defs><g id="uuid-f707c96c-f438-4e1d-91ad-7c31d011c193"><rect class="uuid-13d23bee-3cbd-4a0b-9dc0-0b6ef4802305" width="32" height="32"/></g><g id="uuid-0cd49869-d175-40ef-a308-02fc2260a583"><path class="uuid-1125a79a-b574-4feb-b9d5-6401677ef5b3" d="M21.5,12h8.6279c.3252,0,.6289-.1577.8164-.4229s.2344-.605.126-.9111c-1.6182-4.5698-5.167-8.1187-9.7363-9.7368-.3057-.1079-.6465-.061-.9111.1265-.2656.187-.4229.4917-.4229.8164v8.6279c0,.8271.6729,1.5,1.5,1.5Z"/><path class="uuid-1125a79a-b574-4feb-b9d5-6401677ef5b3" d="M31,15h-14V1c0-.5522-.4473-1-1-1C11.5859,0,7.4766,1.7583,4.4277,4.9512,1.3799,8.1421-.1855,12.334.0176,16.7544c.376,8.1636,7.0645,14.8525,15.2285,15.2285.2549.0117.5088.0176.7627.0176,4.1387,0,8.0342-1.5566,11.041-4.4282,3.1924-3.0493,4.9502-7.1592,4.9502-11.5723,0-.5522-.4473-1-1-1ZM25.668,26.126c-2.792,2.666-6.46,4.0322-10.3301,3.8589-7.1416-.3286-12.9932-6.1807-13.3223-13.3223-.1787-3.8696,1.1914-7.5381,3.8584-10.3301,2.4355-2.5513,5.6465-4.0557,9.126-4.2979v13.4653c0,.8271.6729,1.5,1.5,1.5h13.4658c-.2422,3.4795-1.7471,6.6895-4.2979,9.126Z"/></g></svg>