<svg xmlns="http://www.w3.org/2000/svg" viewBox="0 0 32 32">
  <defs>
    <style>
      .uuid-dd8bbadd-7b86-4249-8571-7a3414f1052f{stroke-width:0;fill:#151515}
    </style>
  </defs>
  <path d="M0 0h32v32H0z" id="uuid-86d1f538-8ba4-42be-8c6f-e97576ab33e1" stroke-width="0" fill="none"/>
  <g id="uuid-b48e7aaf-876f-4bf7-9984-12cc2cc44d82">
    <path class="uuid-dd8bbadd-7b86-4249-8571-7a3414f1052f" d="M21.5 12h8.628a1 1 0 0 0 .943-1.334A15.924 15.924 0 0 0 21.334.93 1 1 0 0 0 20 1.872V10.5c0 .827.673 1.5 1.5 1.5Z"/>
    <path class="uuid-dd8bbadd-7b86-4249-8571-7a3414f1052f" d="M31 15H17V1a1 1 0 0 0-1-1A15.863 15.863 0 0 0 4.428 4.95C1.38 8.142-.186 12.333.018 16.754c.375 8.164 7.064 14.852 15.228 15.228.255.012.51.018.764.018a15.86 15.86 0 0 0 11.039-4.428A15.86 15.86 0 0 0 32 16a1 1 0 0 0-1-1Z"/>
  </g>
</svg>
