<?xml version="1.0" encoding="UTF-8"?><svg xmlns="http://www.w3.org/2000/svg" width="32" height="32" viewBox="0 0 32 32"><defs><style>.uuid-1a1b2149-fd55-4616-b3fc-ecefd403ecc0{fill:none;}.uuid-4e9c4b2d-a8db-4774-995d-bfce7f19da37{fill:#151515;}</style></defs><g id="uuid-f714c1e5-051f-4d86-89df-826a23f41c56"><rect class="uuid-1a1b2149-fd55-4616-b3fc-ecefd403ecc0" width="32" height="32"/></g><g id="uuid-d241da6d-3853-4a66-95c0-b7cd8b8cf63f"><path class="uuid-4e9c4b2d-a8db-4774-995d-bfce7f19da37" d="M1.53906,13.94922l14,8.08301c.15479.08936.32715.13379.5.13379s.34521-.04443.5-.13379l14-8.08301c.30957-.17871.5-.50879.5-.86621s-.19043-.6875-.5-.86621l-14-8.08301c-.30957-.17871-.69043-.17871-1,0L1.53906,12.2168c-.30957.17871-.5.50879-.5.86621s.19043.6875.5.86621Z"/><path class="uuid-4e9c4b2d-a8db-4774-995d-bfce7f19da37" d="M29.53906,18.06006l-13.5,7.79395-13.5-7.79395c-.48047-.27734-1.08984-.11279-1.36621.36621-.27588.47852-.1123,1.08984.36621,1.36621l14,8.08252c.15479.08936.32715.13379.5.13379s.34521-.04443.5-.13379l14-8.08252c.47852-.27637.64209-.8877.36621-1.36621-.27686-.479-.88818-.64355-1.36621-.36621Z"/></g></svg>