<svg xmlns="http://www.w3.org/2000/svg" viewBox="0 0 32 32">
  <defs>
    <style>
      .uuid-f64741d3-0140-4c2b-8ae2-96adfdd572c0{stroke-width:0;fill:#151515}
    </style>
  </defs>
  <path d="M0 0h32v32H0z" id="uuid-ed353c03-82d3-4c0d-ac93-ee0e1345bff7" stroke-width="0" fill="none"/>
  <g id="uuid-b918568f-cf00-4392-80cc-8f47dbefb8cd">
    <path class="uuid-f64741d3-0140-4c2b-8ae2-96adfdd572c0" d="m1.504 13.868 14 8a.998.998 0 0 0 .992 0l14-8a1 1 0 0 0 0-1.736l-14-8a1 1 0 0 0-.992 0l-14 8a1 1 0 0 0 0 1.736ZM16 6.152 27.984 13 16 19.848 4.016 13 16 6.152Z"/>
    <path class="uuid-f64741d3-0140-4c2b-8ae2-96adfdd572c0" d="M29.504 18.132 16 25.848 2.496 18.132a.999.999 0 1 0-.992 1.736l14 8a.998.998 0 0 0 .992 0l14-8a1 1 0 1 0-.992-1.736Z"/>
  </g>
</svg>
