<svg xmlns="http://www.w3.org/2000/svg" viewBox="0 0 32 32">
  <defs>
    <style>
      .uuid-1b7bb518-cf94-4528-996d-456755cca38f{stroke-width:0;fill:#151515}
    </style>
  </defs>
  <path d="M0 0h32v32H0z" id="uuid-8de26a76-0070-4e2d-b111-91065e3b6259" stroke-width="0" fill="none"/>
  <g id="uuid-693d305a-d80c-4b4a-a4c8-a3cdf027d152">
    <path class="uuid-1b7bb518-cf94-4528-996d-456755cca38f" d="m1.504 13.868 14 8a.998.998 0 0 0 .992 0l14-8a1 1 0 0 0 0-1.736l-14-8a1 1 0 0 0-.992 0l-14 8a1 1 0 0 0 0 1.736Z"/>
    <path class="uuid-1b7bb518-cf94-4528-996d-456755cca38f" d="M29.504 18.132 16 25.849 2.496 18.132a1 1 0 1 0-.992 1.736l14 8a.998.998 0 0 0 .992 0l14-8a1 1 0 0 0-.992-1.736Z"/>
  </g>
</svg>
