<?xml version="1.0" encoding="UTF-8"?><svg xmlns="http://www.w3.org/2000/svg" viewBox="0 0 32 32"><defs><style>.uuid-1cb44167-964a-4137-a8af-6b0e46a8a7fb{fill:none;}.uuid-1cb44167-964a-4137-a8af-6b0e46a8a7fb,.uuid-f64741d3-0140-4c2b-8ae2-96adfdd572c0{stroke-width:0px;}.uuid-f64741d3-0140-4c2b-8ae2-96adfdd572c0{fill:#151515;}</style></defs><g id="uuid-ed353c03-82d3-4c0d-ac93-ee0e1345bff7"><rect class="uuid-1cb44167-964a-4137-a8af-6b0e46a8a7fb" width="32" height="32"/></g><g id="uuid-b918568f-cf00-4392-80cc-8f47dbefb8cd"><path class="uuid-f64741d3-0140-4c2b-8ae2-96adfdd572c0" d="M1.5039,13.8682l14,8c.1533.0879.3252.1318.4961.1318s.3428-.0439.4961-.1318l14-8c.3115-.1777.5039-.5093.5039-.8682s-.1924-.6904-.5039-.8682l-14-8c-.3066-.1758-.6855-.1758-.9922,0L1.5039,12.1318c-.3115.1777-.5039.5093-.5039.8682s.1924.6904.5039.8682ZM16,6.1519l11.9844,6.8481-11.9844,6.8481-11.9844-6.8481,11.9844-6.8481Z"/><path class="uuid-f64741d3-0140-4c2b-8ae2-96adfdd572c0" d="M29.5039,18.1318l-13.5039,7.7163-13.5039-7.7163c-.4805-.2744-1.0908-.1079-1.3643.3721-.2744.4795-.1074,1.0903.3721,1.3643l14,8c.1533.0879.3252.1318.4961.1318s.3428-.0439.4961-.1318l14-8c.4795-.2739.6465-.8848.3721-1.3643-.2744-.48-.8848-.6465-1.3643-.3721Z"/></g></svg>