<?xml version="1.0" encoding="UTF-8"?><svg xmlns="http://www.w3.org/2000/svg" viewBox="0 0 32 32"><defs><style>.uuid-799273e8-daf6-4237-a673-1dce414acc9b{fill:none;}.uuid-799273e8-daf6-4237-a673-1dce414acc9b,.uuid-1b7bb518-cf94-4528-996d-456755cca38f{stroke-width:0px;}.uuid-1b7bb518-cf94-4528-996d-456755cca38f{fill:#151515;}</style></defs><g id="uuid-8de26a76-0070-4e2d-b111-91065e3b6259"><rect class="uuid-799273e8-daf6-4237-a673-1dce414acc9b" width="32" height="32"/></g><g id="uuid-693d305a-d80c-4b4a-a4c8-a3cdf027d152"><path class="uuid-1b7bb518-cf94-4528-996d-456755cca38f" d="M1.5039,13.8682l14,8c.1538.0879.3247.1318.4961.1318s.3423-.0439.4961-.1318l14-8c.3115-.1777.5039-.5098.5039-.8682s-.1924-.6904-.5039-.8682l-14-8c-.3076-.1758-.6846-.1758-.9922,0L1.5039,12.1318c-.3115.1777-.5039.5098-.5039.8682s.1924.6904.5039.8682Z"/><path class="uuid-1b7bb518-cf94-4528-996d-456755cca38f" d="M29.5039,18.1318l-13.5039,7.7168-13.5039-7.7168c-.4785-.2754-1.0894-.1074-1.3643.3721-.2739.4795-.1074,1.0898.3721,1.3643l14,8c.1538.0879.3247.1318.4961.1318s.3423-.0439.4961-.1318l14-8c.4795-.2744.646-.8848.3721-1.3643-.2734-.4795-.8838-.6475-1.3643-.3721Z"/></g></svg>