<?xml version="1.0" encoding="UTF-8"?><svg xmlns="http://www.w3.org/2000/svg" width="32" height="32" viewBox="0 0 32 32"><defs><style>.uuid-7d694f33-be8f-4897-8912-0efcfedf2011{fill:none;}.uuid-fbd6f34d-7806-440a-8b64-66de8bb9af53{fill:#151515;}</style></defs><g id="uuid-efbe53e7-d4fa-487f-993f-9c06ce5f88a1"><rect class="uuid-7d694f33-be8f-4897-8912-0efcfedf2011" width="32" height="32"/></g><g id="uuid-cdbe7d74-0b92-428f-b64c-6740b4601de9"><path class="uuid-fbd6f34d-7806-440a-8b64-66de8bb9af53" d="M4,13h9.5c.82715,0,1.5-.67285,1.5-1.5V2c0-.4043-.24316-.76953-.61719-.92383-.37305-.15625-.80273-.07031-1.08984.2168L3.29297,11.29297c-.28613.28613-.37207.71582-.2168,1.08984.1543.37402.51953.61719.92383.61719ZM13,4.41406v6.58594h-6.58594l6.58594-6.58594Z"/><path class="uuid-fbd6f34d-7806-440a-8b64-66de8bb9af53" d="M28.5,16H3.5c-.82715,0-1.5.67285-1.5,1.5v11c0,.82715.67285,1.5,1.5,1.5h5.5c.55273,0,1-.44727,1-1,0-3.30859,2.69141-6,6-6s6,2.69141,6,6c0,.55273.44727,1,1,1h5.5c.82715,0,1.5-.67285,1.5-1.5v-11c0-.82715-.67285-1.5-1.5-1.5ZM28,28h-4.0625c-.49316-3.94043-3.86523-7-7.9375-7s-7.44434,3.05957-7.9375,7h-4.0625v-10h24v10Z"/><path class="uuid-fbd6f34d-7806-440a-8b64-66de8bb9af53" d="M19.5,13h8c.82715,0,1.5-.67285,1.5-1.5V3.5c0-.82715-.67285-1.5-1.5-1.5h-8c-.82715,0-1.5.67285-1.5,1.5v8c0,.82715.67285,1.5,1.5,1.5ZM20,4h7v7h-7v-7Z"/></g></svg>