<svg xmlns="http://www.w3.org/2000/svg" viewBox="0 0 32 32">
  <defs>
    <style>
      .uuid-fbe7d172-a31e-4a2c-930c-186971dff5b8{stroke-width:0;fill:#151515}
    </style>
  </defs>
  <path d="M0 0h32v32H0z" id="uuid-d4380f62-e6f6-4861-b0b6-ddd8048e7287" stroke-width="0" fill="none"/>
  <g id="uuid-34834ec2-ca7c-4444-80bc-02b98509f187">
    <path class="uuid-fbe7d172-a31e-4a2c-930c-186971dff5b8" d="M16-.044C7.165-.044-.023 7.143-.023 15.977S7.165 32 16 32s16.023-7.188 16.023-16.023S24.835-.044 16-.044ZM16 30C8.268 30 1.977 23.71 1.977 15.977S8.267 1.956 16 1.956s14.023 6.29 14.023 14.022S23.733 30 16 30Z"/>
    <path class="uuid-fbe7d172-a31e-4a2c-930c-186971dff5b8" d="M22.697 15.493 11.846 9.681a.575.575 0 0 0-.846.506v11.626c0 .434.463.711.846.506l10.85-5.813a.575.575 0 0 0 0-1.013Z"/>
  </g>
</svg>
