<?xml version="1.0" encoding="UTF-8"?><svg xmlns="http://www.w3.org/2000/svg" viewBox="0 0 32 32"><defs><style>.uuid-0de332a3-2ccd-45ed-a2a0-334c0daefbe6{fill:none;}.uuid-0de332a3-2ccd-45ed-a2a0-334c0daefbe6,.uuid-fbe7d172-a31e-4a2c-930c-186971dff5b8{stroke-width:0px;}.uuid-fbe7d172-a31e-4a2c-930c-186971dff5b8{fill:#151515;}</style></defs><g id="uuid-d4380f62-e6f6-4861-b0b6-ddd8048e7287"><rect class="uuid-0de332a3-2ccd-45ed-a2a0-334c0daefbe6" x="0" width="32" height="32"/></g><g id="uuid-34834ec2-ca7c-4444-80bc-02b98509f187"><path class="uuid-fbe7d172-a31e-4a2c-930c-186971dff5b8" d="M16-.0444C7.165-.0444-.0225,7.1431-.0225,15.9775s7.1875,16.0225,16.0225,16.0225,16.0225-7.1875,16.0225-16.0225S24.835-.0444,16-.0444ZM16,30c-7.7324,0-14.0225-6.2905-14.0225-14.0225S8.2676,1.9556,16,1.9556s14.0225,6.29,14.0225,14.022-6.29,14.0225-14.0225,14.0225Z"/><path class="uuid-fbe7d172-a31e-4a2c-930c-186971dff5b8" d="M22.6967,15.4935l-10.8507-5.8129c-.3828-.2051-.846.0723-.846.5065v11.6257c0,.4343.4632.7116.846.5065l10.8507-5.8129c.4044-.2166.4044-.7964,0-1.0131Z"/></g></svg>