<?xml version="1.0" encoding="UTF-8"?><svg xmlns="http://www.w3.org/2000/svg" width="32" height="32" viewBox="0 0 32 32"><defs><style>.uuid-7634609b-6125-4bf8-b917-dc99c5330710{fill:none;}.uuid-a39de80b-02d1-462e-bac8-2277f82f6a30{fill:#151515;}</style></defs><g id="uuid-eb1512a5-9e41-4f26-b791-8418f16a0f88"><rect class="uuid-7634609b-6125-4bf8-b917-dc99c5330710" width="32" height="32"/></g><g id="uuid-9239730c-7aaa-4f98-bdc7-d722c72637c3"><path class="uuid-a39de80b-02d1-462e-bac8-2277f82f6a30" d="M4,13h9.5c.82715,0,1.5-.67285,1.5-1.5V2c0-.4043-.24316-.76953-.61719-.92383-.37305-.15625-.80273-.07031-1.08984.2168L3.29297,11.29297c-.28613.28613-.37207.71582-.2168,1.08984.1543.37402.51953.61719.92383.61719Z"/><path class="uuid-a39de80b-02d1-462e-bac8-2277f82f6a30" d="M28.5,16H3.5c-.82715,0-1.5.67285-1.5,1.5v11c0,.82715.67285,1.5,1.5,1.5h5.5c.55273,0,1-.44727,1-1,0-3.30859,2.69141-6,6-6s6,2.69141,6,6c0,.55273.44727,1,1,1h5.5c.82715,0,1.5-.67285,1.5-1.5v-11c0-.82715-.67285-1.5-1.5-1.5Z"/><rect class="uuid-a39de80b-02d1-462e-bac8-2277f82f6a30" x="18" y="2" width="11" height="11" rx="1.5" ry="1.5"/></g></svg>