<?xml version="1.0" encoding="UTF-8"?><svg xmlns="http://www.w3.org/2000/svg" width="32" height="32" viewBox="0 0 32 32"><defs><style>.uuid-8333d951-6f3f-4df4-abcc-3c3b947459fe{fill:none;}.uuid-a4205a5c-a8f2-4f46-8eae-066048fcfdc5{fill:#151515;}</style></defs><g id="uuid-6c1d7ce7-5c81-4da5-996d-9dfe97c341ca"><rect class="uuid-8333d951-6f3f-4df4-abcc-3c3b947459fe" width="32" height="32"/></g><g id="uuid-0768a06e-9822-4b6b-b5a5-975adede284a"><path class="uuid-a4205a5c-a8f2-4f46-8eae-066048fcfdc5" d="M16,1.25C7.8667,1.25,1.25,7.8667,1.25,16s6.6167,14.75,14.75,14.75,14.75-6.6167,14.75-14.75S24.1333,1.25,16,1.25ZM22.88232,16.44727l-10.65869,5.32861c-.0708.03516-.14697.05273-.22363.05273-.09131,0-.18262-.0249-.2627-.07471-.14746-.09131-.2373-.25195-.2373-.42529v-10.65723c0-.17334.08984-.33398.2373-.42529.14697-.09229.33057-.09863.48633-.02197l10.65869,5.32861c.16943.08496.27637.25781.27637.44727s-.10693.3623-.27637.44727Z"/></g></svg>