<?xml version="1.0" encoding="UTF-8"?><svg xmlns="http://www.w3.org/2000/svg" width="32" height="32" viewBox="0 0 32 32"><defs><style>.uuid-cff76f7d-fb2a-4289-8740-bb2ecfbcd2e7{fill:none;}.uuid-4e17655f-9e80-493a-b1f3-88dfe942ddde{fill:#151515;}</style></defs><g id="uuid-b26a41ed-0210-43d3-90fe-13c2cd3b62cf"><rect class="uuid-cff76f7d-fb2a-4289-8740-bb2ecfbcd2e7" width="32" height="32"/></g><g id="uuid-1f1813ec-a167-420e-94ba-4f89476d5071"><path class="uuid-4e17655f-9e80-493a-b1f3-88dfe942ddde" d="M16,1C7.729,1,1,7.729,1,16s6.729,15,15,15,15-6.729,15-15S24.271,1,16,1ZM16,29c-7.16846,0-13-5.83154-13-13S8.83154,3,16,3s13,5.83154,13,13-5.83154,13-13,13Z"/><path class="uuid-4e17655f-9e80-493a-b1f3-88dfe942ddde" d="M23.10596,15.10547l-10.65869-5.32861c-.30957-.15479-.67822-.1377-.97314.04395-.29492.18213-.47412.50391-.47412.85059v10.65723c0,.34668.1792.66846.47412.85059.16064.09912.34326.14941.52588.14941.15283,0,.30615-.03516.44727-.10547l10.65869-5.32861c.33887-.16943.55273-.51562.55273-.89453s-.21387-.7251-.55273-.89453Z"/></g></svg>