<?xml version="1.0" encoding="UTF-8"?><svg xmlns="http://www.w3.org/2000/svg" width="32" height="32" viewBox="0 0 32 32"><defs><style>.uuid-2b4cab5a-4951-4760-9719-f23ff4754ec8{fill:none;}.uuid-9472876e-114e-46c9-8d79-0d50bdf082e7{fill:#151515;}</style></defs><g id="uuid-09865dcd-0bab-42e5-8254-2dd92156b0bd"><rect class="uuid-2b4cab5a-4951-4760-9719-f23ff4754ec8" width="32" height="32"/></g><g id="uuid-8c707475-3acc-46d3-86b2-1474d61841cd"><path class="uuid-9472876e-114e-46c9-8d79-0d50bdf082e7" d="M22.5,7h-1.5V2c0-.55273-.44727-1-1-1s-1,.44727-1,1v5h-6V2c0-.55273-.44727-1-1-1s-1,.44727-1,1v5h-1.5c-.82715,0-1.5.67285-1.5,1.5v6.5c0,4.07178,3.06006,7.43591,7,7.93054v7.06946c0,.55273.44727,1,1,1s1-.44727,1-1v-7.06946c3.93994-.49463,7-3.85876,7-7.93054v-6.5c0-.82715-.67285-1.5-1.5-1.5Z"/></g></svg>