<?xml version="1.0" encoding="UTF-8"?><svg xmlns="http://www.w3.org/2000/svg" width="32" height="32" viewBox="0 0 32 32"><defs><style>.uuid-8afbd912-45d9-472e-954f-13b74c41cb9f{fill:none;}.uuid-0264cbda-2a4c-4d36-a8c2-4814e732174e{fill:#151515;}</style></defs><g id="uuid-4a81b8be-8c66-43d8-bf80-afc4c0fd0ccc"><rect class="uuid-8afbd912-45d9-472e-954f-13b74c41cb9f" width="32" height="32"/></g><g id="uuid-7792eb10-a4fa-4378-b33a-309e9732b000"><path class="uuid-0264cbda-2a4c-4d36-a8c2-4814e732174e" d="M22.5,7h-1.5V2c0-.55273-.44727-1-1-1s-1,.44727-1,1v5h-6V2c0-.55273-.44727-1-1-1s-1,.44727-1,1v5h-1.5c-.82715,0-1.5.67285-1.5,1.5v6.5c0,4.07178,3.06006,7.43591,7,7.93054v7.06946c0,.55273.44727,1,1,1s1-.44727,1-1v-7.06946c3.93994-.49463,7-3.85876,7-7.93054v-6.5c0-.82715-.67285-1.5-1.5-1.5ZM22,15c0,3.30859-2.69141,6-6,6s-6-2.69141-6-6v-6h12v6Z"/></g></svg>