<?xml version="1.0" encoding="UTF-8"?><svg xmlns="http://www.w3.org/2000/svg" width="32" height="32" viewBox="0 0 32 32"><defs><style>.uuid-ced2117a-3dbf-4f53-a1fa-ced9552b52c9{fill:none;}.uuid-e9b8a5e1-72b6-47cb-967e-82b9d18d3abe{fill:#151515;}</style></defs><g id="uuid-dc7ad561-30c2-4885-a794-a1bc7753f17f"><rect class="uuid-ced2117a-3dbf-4f53-a1fa-ced9552b52c9" width="32" height="32"/></g><g id="uuid-1c6a3ecb-dee7-4fe3-b9fc-3eb538c48a3c"><path class="uuid-e9b8a5e1-72b6-47cb-967e-82b9d18d3abe" d="M23,23.91699c-.41602,0-.83203-.1582-1.14941-.47461l-12.85059-12.85156-6.2041,6.20508c-.43945.43945-1.15234.43945-1.5918,0-.43848-.43945-.43848-1.15234,0-1.5918l6.64648-6.64648c.63477-.63281,1.66406-.63281,2.29883,0l12.85059,12.85156,6.2041-6.20508c.43945-.43945,1.15234-.43945,1.5918,0,.43848.43945.43848,1.15234,0,1.5918l-6.64648,6.64648c-.31738.31641-.7334.47461-1.14941.47461Z"/></g></svg>