<?xml version="1.0" encoding="UTF-8"?><svg xmlns="http://www.w3.org/2000/svg" width="32" height="32" viewBox="0 0 32 32"><defs><style>.uuid-ebc6d3a9-d15d-4787-9547-35998f67bf73{fill:none;}.uuid-01e29efa-c1d2-4d84-9e38-7165e0913e49{fill:#151515;}</style></defs><g id="uuid-4fc03ac5-c59f-4530-97dc-c0a9b48b17d6"><rect class="uuid-ebc6d3a9-d15d-4787-9547-35998f67bf73" width="32" height="32"/></g><g id="uuid-6e42eea3-c0aa-4724-abf0-c9d3f9aa2af6"><path class="uuid-01e29efa-c1d2-4d84-9e38-7165e0913e49" d="M24.61621,5.96387c-.43457-.33887-1.06348-.2627-1.40381.17188-.34033.43555-.26367,1.06348.17139,1.4043,2.93359,2.29395,4.61621,5.74219,4.61621,9.45996,0,6.61719-5.3833,12-12,12s-12-5.38281-12-12c0-3.71777,1.68262-7.16602,4.61621-9.45996.43506-.34082.51172-.96875.17139-1.4043-.34082-.43457-.96924-.51074-1.40381-.17188-3.42139,2.67578-5.38379,6.69824-5.38379,11.03613,0,7.71973,6.28027,14,14,14s14-6.28027,14-14c0-4.33789-1.9624-8.36035-5.38379-11.03613Z"/><path class="uuid-01e29efa-c1d2-4d84-9e38-7165e0913e49" d="M16,18c.55225,0,1-.44727,1-1V2c0-.55273-.44775-1-1-1s-1,.44727-1,1v15c0,.55273.44775,1,1,1Z"/></g></svg>