<?xml version="1.0" encoding="UTF-8"?><svg xmlns="http://www.w3.org/2000/svg" width="32" height="32" viewBox="0 0 32 32"><defs><style>.uuid-e47c1fc4-54b1-413e-b2f3-fd97a8828792{fill:none;}.uuid-b2428238-f98c-46f9-86fd-5163a414d8c4{fill:#151515;}</style></defs><g id="uuid-03ffc75a-ded3-4c0b-8db4-6bba22548046"><rect class="uuid-e47c1fc4-54b1-413e-b2f3-fd97a8828792" width="32" height="32"/></g><g id="uuid-a00bd043-16d0-4944-8755-959e83770ef4"><path class="uuid-b2428238-f98c-46f9-86fd-5163a414d8c4" d="M29.5,7h-5.5v-2.5c0-.82715-.67285-1.5-1.5-1.5h-13c-.82715,0-1.5.67285-1.5,1.5v2.5H2.5c-.82715,0-1.5.67285-1.5,1.5v14c0,.82715.67285,1.5,1.5,1.5h5.5v3.5c0,.82715.67285,1.5,1.5,1.5h13c.82715,0,1.5-.67285,1.5-1.5v-3.5h5.5c.82715,0,1.5-.67285,1.5-1.5v-14c0-.82715-.67285-1.5-1.5-1.5ZM10,5h12v4h-12v-4ZM22,27h-12v-8h12v8Z"/></g></svg>