<?xml version="1.0" encoding="UTF-8"?><svg xmlns="http://www.w3.org/2000/svg" viewBox="0 0 32 32"><defs><style>.uuid-d77ec8e0-5d94-4c50-a38d-e9f47d14d839{fill:none;}.uuid-d77ec8e0-5d94-4c50-a38d-e9f47d14d839,.uuid-64780107-818e-4258-944d-2356965797d8{stroke-width:0px;}.uuid-64780107-818e-4258-944d-2356965797d8{fill:#151515;}</style></defs><g id="uuid-26b43a09-d0f6-48d9-85c0-c31083130b47"><rect class="uuid-d77ec8e0-5d94-4c50-a38d-e9f47d14d839" width="32" height="32"/></g><g id="uuid-b6bf40fe-fc87-4985-a9e6-e48c555e4da3"><path class="uuid-64780107-818e-4258-944d-2356965797d8" d="M29.5,7h-5.5v-2.5c0-.8271-.6729-1.5-1.5-1.5h-13c-.8271,0-1.5.6729-1.5,1.5v2.5H2.5c-.8271,0-1.5.6729-1.5,1.5v14c0,.8271.6729,1.5,1.5,1.5h5.5v3.5c0,.8271.6729,1.5,1.5,1.5h13c.8271,0,1.5-.6729,1.5-1.5v-3.5h5.5c.8271,0,1.5-.6729,1.5-1.5v-14c0-.8271-.6729-1.5-1.5-1.5ZM10,5h12v4h-12v-4ZM22,27h-12v-8h12v8Z"/></g></svg>