<?xml version="1.0" encoding="UTF-8"?><svg xmlns="http://www.w3.org/2000/svg" viewBox="0 0 32 32"><defs><style>.uuid-aa6fdde6-3c43-4c06-ae75-f6d94aae0016{fill:none;}.uuid-aa6fdde6-3c43-4c06-ae75-f6d94aae0016,.uuid-7ce3cfe3-2248-4366-9f94-a4862a684727{stroke-width:0px;}.uuid-7ce3cfe3-2248-4366-9f94-a4862a684727{fill:#151515;}</style></defs><g id="uuid-ff5a31df-83cb-49f0-955d-d24f870bc17a"><rect class="uuid-aa6fdde6-3c43-4c06-ae75-f6d94aae0016" x="0" width="32" height="32"/></g><g id="uuid-4bb8ff23-e9c9-4264-a2e8-5f5167e6060d"><path class="uuid-7ce3cfe3-2248-4366-9f94-a4862a684727" d="M29.5,7h-5.5v-2.5c0-.8271-.6729-1.5-1.5-1.5h-13c-.8271,0-1.5.6729-1.5,1.5v2.5H2.5c-.8271,0-1.5.6729-1.5,1.5v14c0,.8271.6729,1.5,1.5,1.5h5.5v3.5c0,.8271.6729,1.5,1.5,1.5h13c.8271,0,1.5-.6729,1.5-1.5v-3.5h5.5c.8271,0,1.5-.6729,1.5-1.5v-14c0-.8271-.6729-1.5-1.5-1.5ZM10,5h12v4h-12v-4ZM22,27h-12v-8h12v8ZM29,22h-5v-3h1c.5522,0,1-.4478,1-1s-.4478-1-1-1H7c-.5522,0-1,.4478-1,1s.4478,1,1,1h1v3H3v-13h5v.5c0,.8271.6729,1.5,1.5,1.5h13c.8271,0,1.5-.6729,1.5-1.5v-.5h5v13Z"/></g></svg>