<?xml version="1.0" encoding="UTF-8"?><svg xmlns="http://www.w3.org/2000/svg" width="32" height="32" viewBox="0 0 32 32"><defs><style>.uuid-4daaf6e1-0c23-4336-a38e-e0090b619a74{fill:none;}.uuid-606f53e2-b1f8-4e4b-a8ca-10f260a4b8cf{fill:#151515;}</style></defs><g id="uuid-090bf94f-8718-4923-ab76-46f373373a9b"><rect class="uuid-4daaf6e1-0c23-4336-a38e-e0090b619a74" width="32" height="32"/></g><g id="uuid-dd7b4ab4-b051-458c-a7e7-7a4349944eb9"><path class="uuid-606f53e2-b1f8-4e4b-a8ca-10f260a4b8cf" d="M29,13c.55225,0,1-.44727,1-1s-.44775-1-1-1c-2.75684,0-5,2.24316-5,5s2.24316,5,5,5c.55225,0,1-.44727,1-1s-.44775-1-1-1c-1.6543,0-3-1.3457-3-3s1.3457-3,3-3Z"/><path class="uuid-606f53e2-b1f8-4e4b-a8ca-10f260a4b8cf" d="M29,29c-.66943,0-1.33936-.05078-2-.15234v-2.27246c0-.44727-.29688-.83984-.72705-.96191-.7583-.21484-1.47949-.5127-2.14404-.88477-.39209-.2168-.87939-.15039-1.19531.16602l-1.604,1.60449c-.53955-.39648-1.04932-.83398-1.52197-1.30664-.47461-.47461-.91211-.98438-1.30664-1.52148l1.604-1.60449c.31641-.31641.38428-.80469.16602-1.19531-.37207-.66504-.66943-1.38574-.88428-2.14355-.12207-.43066-.51465-.72754-.96191-.72754h-2.27295c-.10107-.65918-.15186-1.3291-.15186-2s.05078-1.34082.15186-2h2.27295c.44727,0,.83984-.29688.96191-.72754.21484-.75781.51221-1.47852.88428-2.14355.21826-.39062.15039-.87891-.16602-1.19531l-1.604-1.60449c.39453-.53711.83203-1.04688,1.30664-1.52148.47363-.47363.9834-.91113,1.52197-1.30664l1.604,1.60449c.31592.31543.8042.38379,1.19531.16602.66455-.37207,1.38574-.66992,2.14404-.88477.43018-.12207.72705-.51465.72705-.96191v-2.27246c.66064-.10156,1.33057-.15234,2-.15234.55225,0,1-.44727,1-1s-.44775-1-1-1c-1.07959,0-2.16016.11523-3.21143.34277-.46045.09961-.78857.50684-.78857.97754v2.37305c-.3999.14062-.79053.30176-1.16846.48145l-1.67627-1.67676c-.33252-.33301-.85254-.3877-1.24902-.13379-.9043.58301-1.74951,1.26562-2.5127,2.0293-.76611.76562-1.44873,1.6123-2.02881,2.51367-.25488.39551-.19922.91504.13379,1.24805l1.67627,1.67676c-.17969.37793-.34082.76758-.48145,1.16797h-2.37354c-.4707,0-.87793.32812-.97754.78809-.22705,1.0498-.34229,2.13086-.34229,3.21191s.11523,2.16211.34229,3.21191c.09961.45996.50684.78809.97754.78809h2.37354c.14062.40039.30176.79004.48145,1.16797l-1.67627,1.67676c-.33301.33301-.38867.85254-.13379,1.24805.58008.90137,1.2627,1.74805,2.02832,2.51367.76221.7627,1.60742,1.44531,2.51318,2.0293.39648.25293.9165.2002,1.24902-.13379l1.67627-1.67676c.37793.17969.76855.34082,1.16846.48145v2.37305c0,.4707.32812.87793.78857.97754,1.05127.22754,2.13184.34277,3.21143.34277.55225,0,1-.44727,1-1s-.44775-1-1-1Z"/><path class="uuid-606f53e2-b1f8-4e4b-a8ca-10f260a4b8cf" d="M10.16357,1.6748c-.18018-.52344-.74854-.7998-1.271-.62012l-5.34863,1.8418c-.52197.17969-.7998.74902-.61963,1.27051.17969.52344.74756.79883,1.271.62012l3.01794-1.03888c-2.10126,3.72955-3.21326,7.93195-3.21326,12.25177,0,4.82422,1.37695,9.50684,3.98193,13.54199.19141.29688.51318.45801.84131.45801.18555,0,.37354-.05176.5415-.16016.46387-.29883.59717-.91797.29785-1.38184-2.396-3.71191-3.6626-8.01953-3.6626-12.45801,0-4.03455,1.05713-7.95569,3.04724-11.42493l1.0675,3.09875c.14258.41504.53027.6748.94531.6748.10791,0,.21777-.01758.32568-.05469.52197-.17969.7998-.74902.61963-1.27051l-1.8418-5.34863Z"/></g></svg>