<?xml version="1.0" encoding="UTF-8"?><svg xmlns="http://www.w3.org/2000/svg" width="32" height="32" viewBox="0 0 32 32"><defs><style>.uuid-50837a03-ed20-4f93-b073-06817e4e04a7{fill:none;}.uuid-0617e4ec-8ba5-4880-be21-95977317de32{fill:#151515;}</style></defs><g id="uuid-cb65b703-0ff1-41f2-abab-6091808aedab"><rect class="uuid-50837a03-ed20-4f93-b073-06817e4e04a7" width="32" height="32"/></g><g id="uuid-08cb7447-d2dd-49b6-80f3-21f6f24afe20"><path class="uuid-0617e4ec-8ba5-4880-be21-95977317de32" d="M10.16357,1.6748c-.18018-.52344-.74854-.7998-1.271-.62012l-5.34863,1.8418c-.52197.17969-.7998.74902-.61963,1.27051.17969.52344.74756.79883,1.271.62012l3.01794-1.03888c-2.10126,3.72955-3.21326,7.93195-3.21326,12.25177,0,4.82422,1.37695,9.50684,3.98193,13.54199.19141.29688.51318.45801.84131.45801.18555,0,.37354-.05176.5415-.16016.46387-.29883.59717-.91797.29785-1.38184-2.396-3.71191-3.6626-8.01953-3.6626-12.45801,0-4.03455,1.05713-7.95569,3.04724-11.42493l1.0675,3.09875c.14258.41504.53027.6748.94531.6748.10791,0,.21777-.01758.32568-.05469.52197-.17969.7998-.74902.61963-1.27051l-1.8418-5.34863Z"/><path class="uuid-0617e4ec-8ba5-4880-be21-95977317de32" d="M29,10.75h.5V2c0-.13281-.05273-.25977-.14648-.35352s-.2207-.14648-.35352-.14648c-1.04395,0-2.08887.11133-3.10596.33203-.22998.0498-.39404.25293-.39404.48828v2.73242c-.61475.19629-1.20703.44043-1.76855.72949l-1.92969-1.93066c-.16699-.16602-.42676-.19434-.62451-.06641-.87451.56348-1.69189,1.22363-2.43018,1.96191-.74121.74121-1.40137,1.55859-1.96191,2.43066-.12744.19824-.09961.45801.06689.62402l1.92969,1.92969c-.28906.56152-.53271,1.1543-.72852,1.76855h-2.7334c-.23535,0-.43896.16406-.48877.39453-.21973,1.01465-.33105,2.05957-.33105,3.10547s.11133,2.09082.33105,3.10547c.0498.23047.25342.39453.48877.39453h2.7334c.1958.61426.43945,1.20703.72852,1.76855l-1.92969,1.92969c-.1665.16602-.19434.42578-.06689.62402.56055.87207,1.2207,1.68945,1.96191,2.43066.73682.7373,1.5542,1.39746,2.43018,1.96191.19775.12793.45752.10059.62451-.06641l1.92969-1.93066c.56152.28906,1.15381.5332,1.76855.72949v2.73242c0,.23535.16406.43848.39404.48828,1.01709.2207,2.06201.33203,3.10596.33203.13281,0,.25977-.05273.35352-.14648s.14648-.2207.14648-.35352v-8.75h-.5c-2.89502,0-5.25-2.35547-5.25-5.25s2.35498-5.25,5.25-5.25Z"/></g></svg>