<?xml version="1.0" encoding="UTF-8"?><svg xmlns="http://www.w3.org/2000/svg" width="32" height="32" viewBox="0 0 32 32"><defs><style>.uuid-c22a5a21-5199-4e83-805b-edb264976755{fill:none;}.uuid-66fb70e7-0bd1-442e-bb38-3656e4a8c94d{fill:#151515;}</style></defs><g id="uuid-6b510341-20cd-4f38-ad4e-535c6b415c9c"><rect class="uuid-c22a5a21-5199-4e83-805b-edb264976755" width="32" height="32"/></g><g id="uuid-48797214-0e9b-4fea-afa4-fef1d5f7e21f"><path class="uuid-66fb70e7-0bd1-442e-bb38-3656e4a8c94d" d="M20.35406,15.70215c2.19141-1.42859,3.64594-3.89685,3.64594-6.70215,0-4.41113-3.58887-8-8-8s-8,3.58887-8,8c0,2.8053,1.45453,5.27356,3.64594,6.70215-5.59259,1.83618-9.64594,7.09894-9.64594,13.29785,0,.55225.44727,1,1,1h26c.55273,0,1-.44775,1-1,0-6.19891-4.05334-11.46167-9.64594-13.29785ZM10,9c0-3.30859,2.69141-6,6-6s6,2.69141,6,6-2.69141,6-6,6-6-2.69141-6-6ZM4.04102,28c.50977-6.15039,5.67871-11,11.95898-11s11.44922,4.84961,11.95898,11H4.04102Z"/></g></svg>