<?xml version="1.0" encoding="UTF-8"?><svg xmlns="http://www.w3.org/2000/svg" viewBox="0 0 32 32"><defs><style>.uuid-fa702591-f5ac-4e17-848c-2edbac65e2bc{fill:none;}.uuid-fa702591-f5ac-4e17-848c-2edbac65e2bc,.uuid-6d016a75-5d75-4d88-96a9-5e60a2992bb1{stroke-width:0px;}.uuid-6d016a75-5d75-4d88-96a9-5e60a2992bb1{fill:#151515;}</style></defs><g id="uuid-e7d02cd1-e69a-4d06-81da-01dbee59f035"><rect class="uuid-fa702591-f5ac-4e17-848c-2edbac65e2bc" x="0" width="32" height="32"/></g><g id="uuid-1a670a2d-21ff-46b3-aee2-b87f7ce74dee"><path class="uuid-6d016a75-5d75-4d88-96a9-5e60a2992bb1" d="M20.383,14.6846c2.1756-1.4314,3.617-3.8914,3.617-6.6846,0-4.4111-3.5889-8-8-8s-8,3.5889-8,8c0,2.7932,1.4414,5.2532,3.617,6.6846-5.9984,1.9286-10.3857,7.7275-10.6082,14.7646-.0132.4014.1406.7988.4224,1.0898.2837.293.6787.4609,1.085.4609h26.9678c.4062,0,.8013-.168,1.085-.4609.2817-.291.4355-.6885.4224-1.0889-.2225-7.0379-4.6099-12.837-10.6082-14.7656ZM10,8c0-3.3086,2.6914-6,6-6s6,2.6914,6,6-2.6914,6-6,6-6-2.6914-6-6ZM3.0327,29c.4746-7.3306,6.0815-13,12.9673-13s12.4922,5.6689,12.9673,13H3.0327Z"/></g></svg>