<?xml version="1.0" encoding="UTF-8"?><svg xmlns="http://www.w3.org/2000/svg" viewBox="0 0 32 32"><defs><style>.uuid-d4c5b580-1101-4845-83ac-53b27ec8d19f{fill:none;}.uuid-d4c5b580-1101-4845-83ac-53b27ec8d19f,.uuid-16082134-b68b-404c-b1b0-5fac77beedbe{stroke-width:0px;}.uuid-16082134-b68b-404c-b1b0-5fac77beedbe{fill:#151515;}</style></defs><g id="uuid-da29cbbe-25e4-4fdf-a492-12e40c0fde7f"><rect class="uuid-d4c5b580-1101-4845-83ac-53b27ec8d19f" x="0" width="32" height="32"/></g><g id="uuid-8eba731a-a4fe-455b-917e-579c55b8f7d5"><path class="uuid-16082134-b68b-404c-b1b0-5fac77beedbe" d="M30,1H2c-.5522,0-1,.4478-1,1s.4478,1,1,1h28c.5522,0,1-.4478,1-1s-.4478-1-1-1Z"/><path class="uuid-16082134-b68b-404c-b1b0-5fac77beedbe" d="M17.0605,6.6465c-.585-.585-1.5361-.585-2.1211,0L6.293,15.293c-.3906.3906-.3906,1.0234,0,1.4141s1.0234.3906,1.4141,0l7.293-7.293v20.5859c0,.5522.4478,1,1,1s1-.4478,1-1V9.4141l7.293,7.293c.1953.1953.4512.293.707.293s.5117-.0977.707-.293c.3906-.3906.3906-1.0234,0-1.4141l-8.6465-8.6465Z"/></g></svg>