<?xml version="1.0" encoding="UTF-8"?><svg xmlns="http://www.w3.org/2000/svg" width="32" height="32" viewBox="0 0 32 32"><defs><style>.uuid-024460c7-70f8-4ead-ac87-45a811c1191f{fill:none;}.uuid-ecdb1d7b-ae59-4163-b896-e0c26fb40d0f{fill:#151515;}</style></defs><g id="uuid-c31ed9cf-6482-486f-b8b5-64556ed50a69"><rect class="uuid-024460c7-70f8-4ead-ac87-45a811c1191f" width="32" height="32"/></g><g id="uuid-07ba3fe3-0ada-42a3-b0e3-61940a9284be"><path class="uuid-ecdb1d7b-ae59-4163-b896-e0c26fb40d0f" d="M28.5,2H3.5c-.82715,0-1.5.67285-1.5,1.5v2.5c0,.55225.44727,1,1,1s1-.44775,1-1v-2h24v2c0,.55225.44727,1,1,1s1-.44775,1-1v-2.5c0-.82715-.67285-1.5-1.5-1.5Z"/><path class="uuid-ecdb1d7b-ae59-4163-b896-e0c26fb40d0f" d="M17.06055,7.64648c-.58398-.58496-1.53711-.58496-2.12109,0l-8.64648,8.64648c-.39062.39062-.39062,1.02344,0,1.41406s1.02344.39062,1.41406,0l7.29297-7.29297v18.58594c0,.55225.44727,1,1,1s1-.44775,1-1V10.41406l7.29297,7.29297c.19531.19531.45117.29297.70703.29297s.51172-.09766.70703-.29297c.39062-.39062.39062-1.02344,0-1.41406l-8.64648-8.64648Z"/></g></svg>