<?xml version="1.0" encoding="UTF-8"?><svg xmlns="http://www.w3.org/2000/svg" width="32" height="32" viewBox="0 0 32 32"><defs><style>.uuid-401a6b0d-2157-44ed-9378-5130360222dc{fill:none;}.uuid-18962a94-5d17-4fc5-922c-1385331d8026{fill:#151515;}</style></defs><g id="uuid-c1c14ca9-6b9f-43d3-a858-52ad6edec5fe"><rect class="uuid-401a6b0d-2157-44ed-9378-5130360222dc" width="32" height="32"/></g><g id="uuid-4d872cf7-08fb-4460-94b5-bef1280b212f"><path class="uuid-18962a94-5d17-4fc5-922c-1385331d8026" d="M25,12.5c-.52148,0-1.0332.11963-1.5.34521v-5.34521c0-.55127-.44824-1-1-1h-5.3457c.22656-.46729.3457-.97852.3457-1.5,0-1.92969-1.57031-3.5-3.5-3.5s-3.5,1.57031-3.5,3.5c0,.52148.11914,1.03271.3457,1.5h-5.3457c-.55176,0-1,.44873-1,1v6.27832c0,.19727.11621.37646.29688.45703.18262.08057.3916.04736.53809-.08545.46484-.41895,1.05664-.6499,1.66504-.6499,1.37891,0,2.5,1.12158,2.5,2.5s-1.12109,2.5-2.5,2.5c-.6084,0-1.2002-.23096-1.66504-.6499-.14746-.13232-.35645-.16504-.53809-.08545-.18066.08057-.29688.25977-.29688.45703v6.27832c0,.55127.44824,1,1,1h5.3457c-.22656.46729-.3457.97852-.3457,1.5,0,1.92969,1.57031,3.5,3.5,3.5s3.5-1.57031,3.5-3.5c0-.52148-.11914-1.03271-.3457-1.5h5.3457c.55176,0,1-.44873,1-1v-5.34521c.4668.22559.97852.34521,1.5.34521,1.92969,0,3.5-1.57031,3.5-3.5s-1.57031-3.5-3.5-3.5Z"/></g></svg>