<?xml version="1.0" encoding="UTF-8"?><svg xmlns="http://www.w3.org/2000/svg" width="32" height="32" viewBox="0 0 32 32"><defs><style>.uuid-ca3801b7-1726-464f-ac37-7a3d893fbcb4{fill:none;}.uuid-545d38f7-7343-4d4e-9d05-26b83cc9d96b{fill:#151515;}</style></defs><g id="uuid-efc01d47-1ea7-470f-a95f-f584322f2b28"><rect class="uuid-ca3801b7-1726-464f-ac37-7a3d893fbcb4" width="32" height="32"/></g><g id="uuid-f78728a7-6426-4156-8798-87d7d71a424b"><path class="uuid-545d38f7-7343-4d4e-9d05-26b83cc9d96b" d="M25,12c-.33984,0-.67578.04395-1,.12939v-4.62939c0-.82715-.67285-1.5-1.5-1.5h-4.62988c.08594-.32471.12988-.66064.12988-1,0-2.20557-1.79395-4-4-4s-4,1.79443-4,4c0,.33936.04395.67529.12988,1h-4.62988c-.82715,0-1.5.67285-1.5,1.5v6.27832c0,.39502.23242.75293.59375.91357.3584.16016.7832.09473,1.0752-.17041.37402-.33643.8457-.52148,1.33105-.52148,1.10254,0,2,.89697,2,2s-.89746,2-2,2c-.48535,0-.95703-.18506-1.33105-.52148-.29297-.26416-.7168-.33008-1.0752-.17041-.36133.16064-.59375.51855-.59375.91357v6.27832c0,.82715.67285,1.5,1.5,1.5h4.62988c-.08594.32471-.12988.66064-.12988,1,0,2.20557,1.79395,4,4,4s4-1.79443,4-4c0-.33936-.04395-.67529-.12988-1h4.62988c.82715,0,1.5-.67285,1.5-1.5v-4.62939c.32422.08545.66016.12939,1,.12939,2.20605,0,4-1.79443,4-4s-1.79395-4-4-4ZM25,18c-.48535,0-.95703-.18506-1.33105-.52148-.29297-.26416-.7168-.33008-1.0752-.17041-.36133.16064-.59375.51855-.59375.91357v5.77832h-5.77832c-.39453,0-.75293.23242-.91309.59326-.16113.36084-.09473.78223.16992,1.07568.23828.26465.52148.70996.52148,1.33105,0,1.10303-.89746,2-2,2s-2-.89697-2-2c0-.62109.2832-1.06641.52148-1.33105.26465-.29346.33105-.71484.16992-1.07568-.16016-.36084-.51855-.59326-.91309-.59326h-5.77832v-4.12939c.32422.08545.66016.12939,1,.12939,2.20605,0,4-1.79443,4-4s-1.79395-4-4-4c-.33984,0-.67578.04395-1,.12939v-4.12939h5.77832c.39453,0,.75293-.23242.91309-.59326.16113-.36084.09473-.78223-.16992-1.07568-.23828-.26465-.52148-.70996-.52148-1.33105,0-1.10303.89746-2,2-2s2,.89697,2,2c0,.62109-.2832,1.06641-.52148,1.33105-.26465.29346-.33105.71484-.16992,1.07568.16016.36084.51855.59326.91309.59326h5.77832v5.77832c0,.39502.23242.75293.59375.91357.3584.16016.7832.09473,1.0752-.17041.37402-.33643.8457-.52148,1.33105-.52148,1.10254,0,2,.89697,2,2s-.89746,2-2,2Z"/></g></svg>