<?xml version="1.0" encoding="UTF-8"?><svg xmlns="http://www.w3.org/2000/svg" viewBox="0 0 32 32"><defs><style>.uuid-bf592fa0-2e8d-4aaf-9006-0612959885ee{fill:none;}.uuid-bf592fa0-2e8d-4aaf-9006-0612959885ee,.uuid-48fba2e8-c40f-45bf-b9cc-53c9a997bad5{stroke-width:0px;}.uuid-48fba2e8-c40f-45bf-b9cc-53c9a997bad5{fill:#151515;}</style></defs><g id="uuid-e03e9105-1abb-4058-8b9b-8120863dfda1"><rect class="uuid-bf592fa0-2e8d-4aaf-9006-0612959885ee" x="0" width="32" height="32"/></g><g id="uuid-dba1ff1d-264d-4420-a679-8f14342885c1"><path class="uuid-48fba2e8-c40f-45bf-b9cc-53c9a997bad5" d="M29.4092,15.0879c-.3057-1.5498-1.4893-2.8701-3.0166-3.3633-.9766-.3174-1.9629-.2988-2.8926.043v-4.2676c0-.5518-.4482-1-1-1h-5.2676c.3418-.9297.3584-1.916.043-2.8926-.4932-1.5273-1.8135-2.7109-3.3633-3.0166-1.3516-.2666-2.7227.0732-3.7676.9316s-1.6445,2.126-1.6445,3.4775c0,.5137.0898,1.0156.2676,1.5H3.5c-.5518,0-1,.4482-1,1v5.0547c0,.1787.0957.3447.251.4336s.3457.0879.501-.001c.6182-.3613,1.6123-.7031,2.834-.3115,1.1865.3838,2.1055,1.4062,2.3428,2.6055.208,1.0557-.0557,2.127-.7236,2.9395-1.0527,1.2812-2.9355,1.6758-4.4541.792-.1523-.0879-.3438-.0889-.5-.001-.1553.0898-.251.2549-.251.4336v5.0547c0,.5518.4482,1,1,1h5.2676c-.3418.9287-.3594,1.9141-.0439,2.8896.4932,1.5273,1.8125,2.7129,3.3623,3.0195.3018.0596.6055.0898.9062.0898,1.042,0,2.0518-.3545,2.8633-1.0205,1.0449-.8584,1.6445-2.127,1.6445-3.4785,0-.5137-.0898-1.0156-.2676-1.5h5.2676c.5518,0,1-.4482,1-1v-4.2676c1.7598.6455,3.793.0654,4.9775-1.377.8594-1.0449,1.1982-2.418.9316-3.7676Z"/></g></svg>