<?xml version="1.0" encoding="UTF-8"?><svg xmlns="http://www.w3.org/2000/svg" viewBox="0 0 32 32"><defs><style>.uuid-2c1d07e3-4e4d-4293-8325-2aa5acb4a281{fill:none;}.uuid-2c1d07e3-4e4d-4293-8325-2aa5acb4a281,.uuid-b904c09e-2629-405c-b825-702cc9685c40{stroke-width:0px;}.uuid-b904c09e-2629-405c-b825-702cc9685c40{fill:#151515;}</style></defs><g id="uuid-cfc25557-345b-43d1-a5ea-20960479c27f"><rect class="uuid-2c1d07e3-4e4d-4293-8325-2aa5acb4a281" x="0" width="32" height="32"/></g><g id="uuid-eef1afa9-c54b-4795-8faf-e1f18b5d44d3"><path class="uuid-b904c09e-2629-405c-b825-702cc9685c40" d="M16,0C7.1777,0,0,7.1777,0,16s7.1777,16,16,16,16-7.1777,16-16S24.8223,0,16,0ZM16,25.5003c-.8284,0-1.5-.6716-1.5-1.5s.6716-1.5,1.5-1.5,1.5.6716,1.5,1.5-.6716,1.5-1.5,1.5ZM17.125,16.9916v2.0084c0,.6211-.5039,1.125-1.125,1.125s-1.125-.5039-1.125-1.125v-3c0-.6211.5039-1.125,1.125-1.125,1.5854,0,2.875-1.29,2.875-2.875s-1.2896-2.875-2.875-2.875-2.875,1.29-2.875,2.875c0,.6211-.5039,1.125-1.125,1.125s-1.125-.5039-1.125-1.125c0-2.8262,2.2988-5.125,5.125-5.125s5.125,2.2988,5.125,5.125c0,2.4386-1.715,4.4763-4,4.9916Z"/></g></svg>