<svg id="a38754b0-101d-4553-b822-c1b26dc1aa07" data-name="Icons" xmlns="http://www.w3.org/2000/svg" viewBox="0 0 16 16"><path d="M8,12.33H8a.67.67,0,0,0-.67.68.68.68,0,0,0,.69.67.68.68,0,0,0,0-1.35ZM8,2.38A3.64,3.64,0,0,0,4.37,6,.63.63,0,0,0,5,6.63.62.62,0,0,0,5.62,6a2.38,2.38,0,1,1,4.75,0,2.24,2.24,0,0,1,0,.52,2.58,2.58,0,0,1-.41.89c-.05.06-.09.12-.15.18A1.75,1.75,0,0,1,9.34,8L9.24,8a6,6,0,0,0-.58.4,3.68,3.68,0,0,0-1.32,2.66.64.64,0,0,0,.6.65H8a.63.63,0,0,0,.62-.6,2.4,2.4,0,0,1,.87-1.74,3.58,3.58,0,0,1,.45-.31L10,9a3.39,3.39,0,0,0,.68-.59,2.75,2.75,0,0,0,.22-.26,3.6,3.6,0,0,0,.63-1.36,3.56,3.56,0,0,0,.08-.8A3.63,3.63,0,0,0,8,2.38Z"/></svg>