<?xml version="1.0" encoding="UTF-8"?><svg xmlns="http://www.w3.org/2000/svg" width="32" height="32" viewBox="0 0 32 32"><defs><style>.uuid-333bba2a-45a0-417a-8687-77e8d2606a62{fill:none;}.uuid-733e8fbe-60a3-40d5-a7d0-6924199a8ea0{fill:#151515;}</style></defs><g id="uuid-2a7ebb25-ee22-4194-a3a4-4e76cab8abd2"><rect class="uuid-333bba2a-45a0-417a-8687-77e8d2606a62" width="32" height="32"/></g><g id="uuid-0bc06b28-8158-4291-8082-c722ec6f7e1c"><path class="uuid-733e8fbe-60a3-40d5-a7d0-6924199a8ea0" d="M16,1C7.729,1,1,7.729,1,16s6.729,15,15,15,15-6.729,15-15S24.271,1,16,1ZM16,29c-7.16846,0-13-5.83154-13-13S8.83154,3,16,3s13,5.83154,13,13-5.83154,13-13,13Z"/><path class="uuid-733e8fbe-60a3-40d5-a7d0-6924199a8ea0" d="M16,7c-2.75684,0-5,2.24316-5,5,0,.55225.44775,1,1,1s1-.44775,1-1c0-1.6543,1.3457-3,3-3s3,1.3457,3,3-1.3457,3-3,3c-.55225,0-1,.44775-1,1v3c0,.55225.44775,1,1,1s1-.44775,1-1v-2.10059c2.2793-.46436,4-2.48486,4-4.89941,0-2.75684-2.24316-5-5-5Z"/><circle class="uuid-733e8fbe-60a3-40d5-a7d0-6924199a8ea0" cx="16" cy="23.99988" r="1.75"/></g></svg>