<svg xmlns="http://www.w3.org/2000/svg" viewBox="0 0 32 32">
  <defs>
    <style>
      .uuid-cd7860b4-2b15-42ab-a4a8-a167fe980d4f{stroke-width:0;fill:#151515}
    </style>
  </defs>
  <path d="M0 0h32v32H0z" id="uuid-740ca099-c436-4986-8abb-aa7675b8747c" stroke-width="0" fill="none"/>
  <g id="uuid-b960b17d-5ba2-4301-a365-c085234f7147">
    <path class="uuid-cd7860b4-2b15-42ab-a4a8-a167fe980d4f" d="M16 0c-4.963 0-9 4.038-9 9a1 1 0 1 0 2 0c0-3.86 3.14-7 7-7s7 3.14 7 7-3.14 7-7 7a1 1 0 0 0-1 1v6a1 1 0 1 0 2 0v-5.055c4.494-.5 8-4.32 8-8.945 0-4.962-4.037-9-9-9Z"/>
    <circle class="uuid-cd7860b4-2b15-42ab-a4a8-a167fe980d4f" cx="16" cy="30" r="1.5"/>
  </g>
</svg>
