<?xml version="1.0" encoding="UTF-8"?><svg xmlns="http://www.w3.org/2000/svg" width="32" height="32" viewBox="0 0 32 32"><defs><style>.uuid-b04a0b7c-2e68-43e2-8076-dd6f27a6164b{fill:none;}.uuid-b90d4d63-5d6b-4aab-a894-f79a4ed5781c{fill:#151515;}</style></defs><g id="uuid-026f5f2d-1cbc-4980-b986-d23c7bb0d8b2"><rect class="uuid-b04a0b7c-2e68-43e2-8076-dd6f27a6164b" width="32" height="32"/></g><g id="uuid-623648fe-b0e7-4d1e-bd4b-4282abfb1ce1"><path class="uuid-b90d4d63-5d6b-4aab-a894-f79a4ed5781c" d="M16,1c-4.41113,0-8,3.58887-8,8,0,.55225.44727,1,1,1s1-.44775,1-1c0-3.30859,2.69141-6,6-6s6,2.69141,6,6-2.69141,6-6,6c-.55273,0-1,.44775-1,1v6c0,.55225.44727,1,1,1s1-.44775,1-1v-5.06201c3.94043-.49414,7-3.86572,7-7.93799,0-4.41113-3.58887-8-8-8Z"/><circle class="uuid-b90d4d63-5d6b-4aab-a894-f79a4ed5781c" cx="16" cy="29.01294" r="1.625"/></g></svg>