<?xml version="1.0" encoding="UTF-8"?><svg xmlns="http://www.w3.org/2000/svg" viewBox="0 0 32 32"><defs><style>.uuid-832c660f-7d81-4720-a73e-032b58f9059e{fill:none;}.uuid-832c660f-7d81-4720-a73e-032b58f9059e,.uuid-cd7860b4-2b15-42ab-a4a8-a167fe980d4f{stroke-width:0px;}.uuid-cd7860b4-2b15-42ab-a4a8-a167fe980d4f{fill:#151515;}</style></defs><g id="uuid-740ca099-c436-4986-8abb-aa7675b8747c"><rect class="uuid-832c660f-7d81-4720-a73e-032b58f9059e" width="32" height="32"/></g><g id="uuid-b960b17d-5ba2-4301-a365-c085234f7147"><path class="uuid-cd7860b4-2b15-42ab-a4a8-a167fe980d4f" d="M16,0C11.0371,0,7,4.0376,7,9c0,.5522.4473,1,1,1s1-.4478,1-1c0-3.8599,3.1406-7,7-7s7,3.1401,7,7-3.1406,7-7,7c-.5527,0-1,.4478-1,1v6c0,.5522.4473,1,1,1s1-.4478,1-1v-5.0552c4.4941-.499,8-4.3203,8-8.9448,0-4.9624-4.0371-9-9-9Z"/><circle class="uuid-cd7860b4-2b15-42ab-a4a8-a167fe980d4f" cx="16" cy="30.0002" r="1.5"/></g></svg>