<?xml version="1.0" encoding="UTF-8"?><svg xmlns="http://www.w3.org/2000/svg" width="32" height="32" viewBox="0 0 32 32"><defs><style>.uuid-699d32a6-43f4-441b-9801-d0be84efb7da{fill:none;}.uuid-5bc4d3f0-2ec7-4c2a-bbdb-0b9a09593ebc{fill:#151515;}</style></defs><g id="uuid-754a0611-fbd6-4c16-9c8e-f169baf754f4"><rect class="uuid-699d32a6-43f4-441b-9801-d0be84efb7da" width="32" height="32"/></g><g id="uuid-af9138b8-bbc5-44ad-b605-3e45b84e0b6b"><path class="uuid-5bc4d3f0-2ec7-4c2a-bbdb-0b9a09593ebc" d="M16,1C7.729,1,1,7.729,1,16s6.729,15,15,15,15-6.729,15-15S24.271,1,16,1ZM16,27.01367c-1.10455,0-2-.89545-2-2s.89545-2,2-2c1.10461,0,2,.89545,2,2s-.89539,2-2,2ZM17.25,17.09961v1.90039c0,.69043-.55957,1.25-1.25,1.25s-1.25-.55957-1.25-1.25v-3c0-.69043.55957-1.25,1.25-1.25,1.5166,0,2.75-1.2334,2.75-2.75s-1.2334-2.75-2.75-2.75-2.75,1.2334-2.75,2.75c0,.69043-.55957,1.25-1.25,1.25s-1.25-.55957-1.25-1.25c0-2.89502,2.35498-5.25,5.25-5.25s5.25,2.35498,5.25,5.25c0,2.46436-1.70654,4.5376-4,5.09961Z"/></g></svg>