<?xml version="1.0" encoding="UTF-8"?><svg xmlns="http://www.w3.org/2000/svg" viewBox="0 0 32 32"><defs><style>.uuid-cd31a9a8-140d-41b9-bb26-ba6d76c29fbf{fill:none;}.uuid-cd31a9a8-140d-41b9-bb26-ba6d76c29fbf,.uuid-e0fd0443-52e5-4943-9649-d5fe9e1441ba{stroke-width:0px;}.uuid-e0fd0443-52e5-4943-9649-d5fe9e1441ba{fill:#151515;}</style></defs><g id="uuid-c94c6874-b881-4b2d-b74d-89e95876a720"><rect class="uuid-cd31a9a8-140d-41b9-bb26-ba6d76c29fbf" width="32" height="32"/></g><g id="uuid-7cbfed76-39d1-4235-9826-fcc4f3635de4"><path class="uuid-e0fd0443-52e5-4943-9649-d5fe9e1441ba" d="M16,7c-2.7568,0-5,2.2432-5,5,0,.5522.4473,1,1,1s1-.4478,1-1c0-1.6543,1.3457-3,3-3s3,1.3457,3,3-1.3457,3-3,3c-.5527,0-1,.4478-1,1v3c0,.5522.4473,1,1,1s1-.4478,1-1v-2.1011c2.2793-.4647,4-2.4845,4-4.8989,0-2.7568-2.2432-5-5-5Z"/><path class="uuid-e0fd0443-52e5-4943-9649-d5fe9e1441ba" d="M16,0C7.1777,0,0,7.1777,0,16s7.1777,16,16,16,16-7.1777,16-16S24.8223,0,16,0ZM16,30c-7.7197,0-14-6.2803-14-14S8.2803,2,16,2s14,6.2803,14,14-6.2803,14-14,14Z"/><circle class="uuid-e0fd0443-52e5-4943-9649-d5fe9e1441ba" cx="16" cy="23.9999" r="1.5"/></g></svg>