<?xml version="1.0" encoding="UTF-8"?><svg xmlns="http://www.w3.org/2000/svg" width="32" height="32" viewBox="0 0 32 32"><defs><style>.uuid-bdbf72f7-1c2f-4ca0-b331-55bf8449527b{fill:none;}.uuid-afb3e73a-8fd1-4c46-8d83-41400a81b31a{fill:#151515;}</style></defs><g id="uuid-d5209df7-6a0c-4776-8c4d-4e09224cea6d"><rect class="uuid-bdbf72f7-1c2f-4ca0-b331-55bf8449527b" width="32" height="32"/></g><g id="uuid-4b706ef5-4c39-48d0-9f13-45733584dcf1"><path class="uuid-afb3e73a-8fd1-4c46-8d83-41400a81b31a" d="M21.29297,19.70703c.19531.19531.45117.29297.70703.29297s.51172-.09766.70703-.29297l7.64648-7.64648c.2832-.2832.43945-.66016.43945-1.06055s-.15625-.77734-.43945-1.06055l-7.64648-7.64648c-.39062-.39062-1.02344-.39062-1.41406,0s-.39062,1.02344,0,1.41406l6.29297,6.29297H11c-5.51416,0-10,4.48584-10,10s4.48584,10,10,10h15c.55225,0,1-.44775,1-1s-.44775-1-1-1h-15c-4.41113,0-8-3.58887-8-8s3.58887-8,8-8h16.58594l-6.29297,6.29297c-.39062.39062-.39062,1.02344,0,1.41406Z"/></g></svg>