<?xml version="1.0" encoding="UTF-8"?><svg xmlns="http://www.w3.org/2000/svg" viewBox="0 0 32 32"><defs><style>.uuid-26e46b11-f6ea-4c80-a72d-9eb18fe5652b{fill:none;}.uuid-26e46b11-f6ea-4c80-a72d-9eb18fe5652b,.uuid-0b6341e6-49d6-442a-aa9b-51e317137069{stroke-width:0px;}.uuid-0b6341e6-49d6-442a-aa9b-51e317137069{fill:#151515;}</style></defs><g id="uuid-0cd608e6-c025-4088-8efc-8de6c972a81b"><rect class="uuid-26e46b11-f6ea-4c80-a72d-9eb18fe5652b" width="32" height="32"/></g><g id="uuid-6869218c-7094-4d37-a1e1-759120e620dd"><path class="uuid-0b6341e6-49d6-442a-aa9b-51e317137069" d="M31,0c-.5527,0-1,.4478-1,1v7.2573C27.2167,3.2324,21.8759,0,16,0,7.1777,0,0,7.1777,0,16s7.1777,16,16,16c5.5225,0,10.583-2.791,13.5361-7.4658.2949-.4673.1553-1.0845-.3115-1.3794-.4668-.2954-1.085-.1558-1.3799.311-2.584,4.0913-7.0127,6.5342-11.8447,6.5342-7.7197,0-14-6.2803-14-14S8.2803,2,16,2c5.4368,0,10.346,3.1647,12.6435,8h-7.6435c-.5527,0-1,.4478-1,1s.4473,1,1,1h9.5c.8271,0,1.5-.6729,1.5-1.5V1c0-.5522-.4473-1-1-1Z"/></g></svg>