<?xml version="1.0" encoding="UTF-8"?><svg xmlns="http://www.w3.org/2000/svg" width="32" height="32" viewBox="0 0 32 32"><defs><style>.uuid-dd3cdb80-1a37-477e-a688-e2802bdc3812{fill:none;}.uuid-8f720632-b9f5-45bd-a954-7d927e952c0e{fill:#151515;}</style></defs><g id="uuid-bea53fe9-f0a4-472d-8bd6-9b25916f9705"><rect class="uuid-dd3cdb80-1a37-477e-a688-e2802bdc3812" width="32" height="32"/></g><g id="uuid-7d1c3c99-116b-48a6-8c29-bc898c12e95b"><path class="uuid-8f720632-b9f5-45bd-a954-7d927e952c0e" d="M30,1c-.55225,0-1,.44775-1,1v6.52051c-2.64807-4.5752-7.61615-7.52051-13-7.52051C7.729,1,1,7.729,1,16s6.729,15,15,15c4.90088,0,9.50293-2.40283,12.31104-6.42773.31592-.45312.20459-1.07617-.24805-1.39258-.45264-.31543-1.07666-.20508-1.39258.24805-2.43408,3.48926-6.42285,5.57227-10.67041,5.57227-7.16846,0-13-5.83154-13-13S8.83154,3,16,3c4.85107,0,9.3064,2.76294,11.5238,7h-6.5238c-.55225,0-1,.44775-1,1s.44775,1,1,1h8.5c.82715,0,1.5-.67285,1.5-1.5V2c0-.55225-.44775-1-1-1Z"/></g></svg>