<?xml version="1.0" encoding="UTF-8"?><svg xmlns="http://www.w3.org/2000/svg" width="32" height="32" viewBox="0 0 32 32"><defs><style>.uuid-a279952b-bcc4-428c-941d-898dc5857f1b{fill:none;}.uuid-aa3e3ed2-54d2-40cb-8801-9c0efe061ead{fill:#151515;}</style></defs><g id="uuid-81c74fdc-9a30-4afc-bcdd-e4bbebcbaeb5"><rect class="uuid-a279952b-bcc4-428c-941d-898dc5857f1b" width="32" height="32"/></g><g id="uuid-aaec389e-1932-422d-adfb-c515d7e3b8e7"><path class="uuid-aa3e3ed2-54d2-40cb-8801-9c0efe061ead" d="M27,23.2168v-5.77441c0-.35742-.19043-.6875-.5-.86621l-4.5-2.59802v-5.19495c0-.35742-.19043-.6875-.5-.86621l-5-2.88672c-.30859-.17773-.69141-.17773-1,0l-5,2.88672c-.30957.17871-.5.50879-.5.86621v5.19495l-4.5,2.59802c-.30957.17871-.5.50879-.5.86621v5.77441c0,.35742.19043.6875.5.86621l5,2.88672c.1543.08887.32715.13379.5.13379s.3457-.04492.5-.13379l4.5-2.59802,4.5,2.59802c.1543.08887.32715.13379.5.13379s.3457-.04492.5-.13379l5-2.88672c.30957-.17871.5-.50879.5-.86621ZM15,22.63965l-4,2.30957-4-2.30957v-4.62012l3.9978-2.30829,4.0022,2.31061v4.6178ZM12,13.97815v-4.6178l4-2.30957,4,2.30957v4.6178l-4,2.30933-4-2.30933ZM25,22.63965l-4,2.30957-4-2.30957v-4.6178l4.0022-2.31061,3.9978,2.30829v4.62012Z"/><path class="uuid-aa3e3ed2-54d2-40cb-8801-9c0efe061ead" d="M29.5,3h-2.5c-.55273,0-1,.44727-1,1s.44727,1,1,1h2v22h-2c-.55273,0-1,.44727-1,1s.44727,1,1,1h2.5c.82715,0,1.5-.67285,1.5-1.5V4.5c0-.82715-.67285-1.5-1.5-1.5Z"/><path class="uuid-aa3e3ed2-54d2-40cb-8801-9c0efe061ead" d="M5,27h-2V5h2c.55273,0,1-.44727,1-1s-.44727-1-1-1h-2.5c-.82715,0-1.5.67285-1.5,1.5v23c0,.82715.67285,1.5,1.5,1.5h2.5c.55273,0,1-.44727,1-1s-.44727-1-1-1Z"/></g></svg>