<?xml version="1.0" encoding="UTF-8"?><svg xmlns="http://www.w3.org/2000/svg" width="32" height="32" viewBox="0 0 32 32"><defs><style>.uuid-9c802f61-e81a-4e62-a61d-d4f7b28f758b{fill:none;}.uuid-ee0bd47a-fa26-4377-8b83-7cfae46e0739{fill:#151515;}</style></defs><g id="uuid-2925592e-6787-4357-9a9b-bb631e5a6fa3"><rect class="uuid-9c802f61-e81a-4e62-a61d-d4f7b28f758b" width="32" height="32"/></g><g id="uuid-97868d24-cf5b-462c-a862-9489a96bffeb"><path class="uuid-ee0bd47a-fa26-4377-8b83-7cfae46e0739" d="M29,3c-.55225,0-1,.44727-1,1v24c0,.55273.44775,1,1,1s1-.44727,1-1V4c0-.55273-.44775-1-1-1Z"/><path class="uuid-ee0bd47a-fa26-4377-8b83-7cfae46e0739" d="M3,3c-.55225,0-1,.44727-1,1v24c0,.55273.44775,1,1,1s1-.44727,1-1V4c0-.55273-.44775-1-1-1Z"/><path class="uuid-ee0bd47a-fa26-4377-8b83-7cfae46e0739" d="M7.30762,19.75232v4.86292c0,2.11719,3.49268,4.38477,8.69238,4.38477s8.69238-2.26758,8.69238-4.38477v-4.86292c-1.92432,1.6026-5.06659,2.63245-8.69238,2.63245s-6.76807-1.02985-8.69238-2.63245Z"/><path class="uuid-ee0bd47a-fa26-4377-8b83-7cfae46e0739" d="M16,3c-5.19958,0-8.69214,2.26746-8.69238,4.38458h0v.00018c0,2.11719,3.49268,4.38477,8.69238,4.38477s8.69238-2.26758,8.69238-4.38477v-.00018h0c-.00024-2.11713-3.4928-4.38458-8.69238-4.38458Z"/><path class="uuid-ee0bd47a-fa26-4377-8b83-7cfae46e0739" d="M7.30762,11.13708v4.86292c0,2.11719,3.49268,4.38477,8.69238,4.38477s8.69238-2.26758,8.69238-4.38477v-4.86292c-1.92432,1.6026-5.06659,2.63245-8.69238,2.63245s-6.76807-1.02985-8.69238-2.63245Z"/></g></svg>