<?xml version="1.0" encoding="UTF-8"?><svg xmlns="http://www.w3.org/2000/svg" width="32" height="32" viewBox="0 0 32 32"><defs><style>.uuid-47872a5c-b70f-43e8-883e-4c8db0adcff1{fill:none;}.uuid-39fc32b6-2c48-493f-aed6-4e406d38870c{fill:#151515;}</style></defs><g id="uuid-11413fc0-c4b0-4426-803a-f17553b6bc73"><rect class="uuid-47872a5c-b70f-43e8-883e-4c8db0adcff1" width="32" height="32"/></g><g id="uuid-be13c240-7847-43dd-81a6-3c383053b748"><path class="uuid-39fc32b6-2c48-493f-aed6-4e406d38870c" d="M26.5,23.2168v-5.77441c0-.17871-.0957-.34375-.25-.43262l-4.75-2.74237v-5.48419c0-.17871-.0957-.34375-.25-.43262l-5-2.88672c-.1543-.08984-.3457-.08984-.5,0l-5,2.88672c-.1543.08887-.25.25391-.25.43262v5.48419l-4.75,2.74237c-.1543.08887-.25.25391-.25.43262v5.77441c0,.17871.0957.34375.25.43262l5,2.88672c.07715.04492.16406.06738.25.06738s.17285-.02246.25-.06738l4.75-2.74237,4.75,2.74237c.07715.04492.16406.06738.25.06738s.17285-.02246.25-.06738l5-2.88672c.1543-.08887.25-.25391.25-.43262Z"/><path class="uuid-39fc32b6-2c48-493f-aed6-4e406d38870c" d="M29.5,3h-2.5c-.55273,0-1,.44727-1,1s.44727,1,1,1h2v22h-2c-.55273,0-1,.44727-1,1s.44727,1,1,1h2.5c.82715,0,1.5-.67285,1.5-1.5V4.5c0-.82715-.67285-1.5-1.5-1.5Z"/><path class="uuid-39fc32b6-2c48-493f-aed6-4e406d38870c" d="M5,27h-2V5h2c.55273,0,1-.44727,1-1s-.44727-1-1-1h-2.5c-.82715,0-1.5.67285-1.5,1.5v23c0,.82715.67285,1.5,1.5,1.5h2.5c.55273,0,1-.44727,1-1s-.44727-1-1-1Z"/></g></svg>