<?xml version="1.0" encoding="UTF-8"?><svg xmlns="http://www.w3.org/2000/svg" width="32" height="32" viewBox="0 0 32 32"><defs><style>.uuid-35905738-6040-4abf-ba40-fa0ac3b582af{fill:none;}.uuid-c793315d-ac55-466b-9a91-06634d9d9040{fill:#151515;}</style></defs><g id="uuid-c51de147-8967-40a4-bd13-0816767bc18d"><rect class="uuid-35905738-6040-4abf-ba40-fa0ac3b582af" width="32" height="32"/></g><g id="uuid-cf01f306-bf89-49c6-b1f6-5dc4c435787f"><path class="uuid-c793315d-ac55-466b-9a91-06634d9d9040" d="M16,2c-5.60742,0-10,2.63574-10,6v16c0,3.36426,4.39258,6,10,6s10-2.63574,10-6V8c0-3.36426-4.39258-6-10-6ZM24,16c0,1.8916-3.28516,4-8,4s-8-2.1084-8-4v-4.36926c1.80963,1.44568,4.68848,2.36926,8,2.36926s6.19037-.92358,8-2.36926v4.36926ZM16,4c4.71484,0,8,2.1084,8,4s-3.28516,4-8,4-8-2.1084-8-4,3.28516-4,8-4ZM16,28c-4.71484,0-8-2.1084-8-4v-4.36926c1.80963,1.44568,4.68848,2.36926,8,2.36926s6.19037-.92358,8-2.36926v4.36926c0,1.8916-3.28516,4-8,4Z"/><path class="uuid-c793315d-ac55-466b-9a91-06634d9d9040" d="M29,3c-.55273,0-1,.44727-1,1v24c0,.55273.44727,1,1,1s1-.44727,1-1V4c0-.55273-.44727-1-1-1Z"/><path class="uuid-c793315d-ac55-466b-9a91-06634d9d9040" d="M3,3c-.55273,0-1,.44727-1,1v24c0,.55273.44727,1,1,1s1-.44727,1-1V4c0-.55273-.44727-1-1-1Z"/></g></svg>