<?xml version="1.0" encoding="UTF-8"?><svg xmlns="http://www.w3.org/2000/svg" width="32" height="32" viewBox="0 0 32 32"><defs><style>.uuid-8073ed05-0d64-43eb-9d67-7a3b3e1f8929{fill:none;}.uuid-8decc7cc-cffd-41c9-a720-dfd7d8961ff0{fill:#151515;}</style></defs><g id="uuid-d5da471a-4c10-42e6-a9c1-b5492496f29c"><rect class="uuid-8073ed05-0d64-43eb-9d67-7a3b3e1f8929" width="32" height="32"/></g><g id="uuid-52254119-0aa2-470f-999c-f9d9fa07ebac"><path class="uuid-8decc7cc-cffd-41c9-a720-dfd7d8961ff0" d="M24.5,18.14844l-4.75-2.7417v-5.48389c0-.35742-.19043-.6875-.5-.86621l-5.25-3.03125c-.30957-.17773-.69043-.17773-1,0l-5.25,3.03125c-.30957.17871-.5.50879-.5.86621v5.48389l-4.75,2.7417c-.30957.17871-.5.50879-.5.86621v6.0625c0,.35742.19043.6875.5.86621l5.25,3.03125c.15479.08887.32715.13379.5.13379s.34521-.04492.5-.13379l4.75-2.74255,4.75,2.74255c.15479.08887.32715.13379.5.13379s.34521-.04492.5-.13379l5.25-3.03125c.30957-.17871.5-.50879.5-.86621v-6.0625c0-.35742-.19043-.6875-.5-.86621ZM13.5,8.0459l4.25,2.4541v4.90674l-4.25,2.45312-4.25-2.45312v-4.90674l4.25-2.4541ZM8.25,26.9541l-4.25-2.4541v-4.9082l4.24872-2.45239,4.25128,2.45386v4.90674l-4.25,2.4541ZM23,24.5l-4.25,2.4541-4.25-2.4541v-4.90674l4.25128-2.45386,4.24872,2.45239v4.9082Z"/><path class="uuid-8decc7cc-cffd-41c9-a720-dfd7d8961ff0" d="M29.5,15.14844l-4.75-2.7417v-5.48389c0-.35742-.19043-.6875-.5-.86621l-5.25-3.03125c-.47949-.27637-1.09033-.11328-1.36621.36621-.27588.47852-.1123,1.08984.36621,1.36621l4.75,2.74219v5.48535c0,.04333.01929.08026.02466.12219.00867.06818.0177.1333.04004.19824.02167.06317.05212.11823.08539.17499.03076.05304.06079.10339.10144.15051.04736.05499.10205.0979.16028.14148.03192.02393.0528.05737.0882.07782l4.75,2.74121v5.48535c0,.55273.44775,1,1,1s1-.44727,1-1v-6.0625c0-.35742-.19043-.6875-.5-.86621Z"/></g></svg>