<?xml version="1.0" encoding="UTF-8"?><svg xmlns="http://www.w3.org/2000/svg" width="32" height="32" viewBox="0 0 32 32"><defs><style>.uuid-65b0c910-9f0f-434b-9b72-c574749f212e{fill:none;}.uuid-fcc56388-bac1-4503-9d22-4c83a22843fe{fill:#151515;}</style></defs><g id="uuid-a0bb595e-590d-4795-9bd3-46e0e4fd86c9"><rect class="uuid-65b0c910-9f0f-434b-9b72-c574749f212e" width="32" height="32"/></g><g id="uuid-73f80c87-23f4-4bce-bf2d-58b9af3275d0"><path class="uuid-fcc56388-bac1-4503-9d22-4c83a22843fe" d="M24.25,18.58203l-5-2.88599v-5.77319c0-.17871-.0957-.34375-.25-.43262l-5.25-3.03125c-.1543-.08984-.3457-.08984-.5,0l-5.25,3.03125c-.1543.08887-.25.25391-.25.43262v5.77319l-5,2.88599c-.1543.08887-.25.25391-.25.43262v6.0625c0,.17871.0957.34375.25.43262l5.25,3.03125c.07715.04492.16406.06738.25.06738s.17285-.02246.25-.06738l5-2.8869,5,2.8869c.07715.04492.16406.06738.25.06738s.17285-.02246.25-.06738l5.25-3.03125c.1543-.08887.25-.25391.25-.43262v-6.0625c0-.17871-.0957-.34375-.25-.43262Z"/><path class="uuid-fcc56388-bac1-4503-9d22-4c83a22843fe" d="M29.5,15.14844l-4.75-2.7417v-5.48389c0-.35742-.19043-.6875-.5-.86621l-5.25-3.03125c-.47852-.27637-1.08887-.11328-1.36621.36621-.27637.47852-.1123,1.08984.36621,1.36621l4.75,2.74219v5.48535c0,.04254.01904.07874.02417.11987.00861.0694.01788.13562.04071.20166.02142.06232.05157.11658.08429.17267.03101.05359.06128.10443.10236.15192.04749.05499.10223.09802.16052.14154.03186.02386.05261.05719.08795.07758l4.75,2.74121v5.48535c0,.55273.44727,1,1,1s1-.44727,1-1v-6.0625c0-.35742-.19043-.6875-.5-.86621Z"/></g></svg>