<svg xmlns="http://www.w3.org/2000/svg" viewBox="0 0 32 32">
  <defs>
    <style>
      .uuid-3f7b7237-5e85-42bf-a721-b7867df991d7{stroke-width:0;fill:#151515}
    </style>
  </defs>
  <path d="M0 0h32v32H0z" id="uuid-baeaa8a2-48fb-4c43-a44d-1efc8f0dfd22" stroke-width="0" fill="none"/>
  <g id="uuid-458d1716-4e25-41b3-813b-626ad0086b43">
    <path class="uuid-3f7b7237-5e85-42bf-a721-b7867df991d7" d="M24.662 20H7.338a1 1 0 0 0-.865 1.501C8.435 24.893 12.086 27 16 27s7.565-2.107 9.527-5.499A.998.998 0 0 0 24.662 20Z"/>
    <path class="uuid-3f7b7237-5e85-42bf-a721-b7867df991d7" d="M16 0C7.178 0 0 7.178 0 16s7.178 16 16 16 16-7.178 16-16S24.822 0 16 0Zm0 30C8.28 30 2 23.72 2 16S8.28 2 16 2s14 6.28 14 14-6.28 14-14 14Z"/>
  </g>
</svg>
