<svg xmlns="http://www.w3.org/2000/svg" viewBox="0 0 32 32">
  <defs>
    <style>
      .uuid-92d94835-88c2-4d4c-8159-1d0a05ea3978{stroke-width:0;fill:#151515}
    </style>
  </defs>
  <path d="M0 0h32v32H0z" id="uuid-6992977c-58f2-4508-8921-a71718b3ed59" stroke-width="0" fill="none"/>
  <g id="uuid-c217d028-1a65-4b70-b36a-98d03b901a34">
    <path class="uuid-92d94835-88c2-4d4c-8159-1d0a05ea3978" d="M16 5C9.935 5 5 9.935 5 16s4.935 11 11 11 11-4.935 11-11S22.065 5 16 5Z"/>
    <path class="uuid-92d94835-88c2-4d4c-8159-1d0a05ea3978" d="M16 0C7.178 0 0 7.178 0 16s7.178 16 16 16 16-7.178 16-16S24.822 0 16 0Zm0 30C8.28 30 2 23.72 2 16S8.28 2 16 2s14 6.28 14 14-6.28 14-14 14Z"/>
  </g>
</svg>
