<?xml version="1.0" encoding="UTF-8"?><svg xmlns="http://www.w3.org/2000/svg" viewBox="0 0 32 32"><defs><style>.uuid-63116971-3309-440a-938d-5b3f0c53f9ef{fill:none;}.uuid-63116971-3309-440a-938d-5b3f0c53f9ef,.uuid-e6a5880f-3192-4343-b1fb-1c02c20d8f49{stroke-width:0px;}.uuid-e6a5880f-3192-4343-b1fb-1c02c20d8f49{fill:#151515;}</style></defs><g id="uuid-534ac4af-1f39-4717-ac2e-c0d83f2a165e"><rect class="uuid-63116971-3309-440a-938d-5b3f0c53f9ef" x="0" width="32" height="32"/></g><g id="uuid-aee04ace-db9f-43d7-aedd-d44136f02822"><path class="uuid-e6a5880f-3192-4343-b1fb-1c02c20d8f49" d="M25.5278,10.499c-.1792-.3086-.5088-.499-.8657-.499H7.3379c-.3569,0-.6865.1904-.8657.499-.9629,1.6646-1.4722,3.5669-1.4722,5.501,0,6.0654,4.9346,11,11,11s11-4.9346,11-11c0-1.9341-.5093-3.8364-1.4722-5.501Z"/><path class="uuid-e6a5880f-3192-4343-b1fb-1c02c20d8f49" d="M16,0C7.1777,0,0,7.1777,0,16s7.1777,16,16,16,16-7.1777,16-16S24.8223,0,16,0ZM16,30c-7.7197,0-14-6.2803-14-14S8.2803,2,16,2s14,6.2803,14,14-6.2803,14-14,14Z"/></g></svg>