<svg xmlns="http://www.w3.org/2000/svg" viewBox="0 0 32 32">
  <defs>
    <style>
      .uuid-e6a5880f-3192-4343-b1fb-1c02c20d8f49{stroke-width:0;fill:#151515}
    </style>
  </defs>
  <path d="M0 0h32v32H0z" id="uuid-534ac4af-1f39-4717-ac2e-c0d83f2a165e" stroke-width="0" fill="none"/>
  <g id="uuid-aee04ace-db9f-43d7-aedd-d44136f02822">
    <path class="uuid-e6a5880f-3192-4343-b1fb-1c02c20d8f49" d="M25.528 10.499a1.001 1.001 0 0 0-.866-.499H7.338a1 1 0 0 0-.866.499A10.999 10.999 0 0 0 5 16c0 6.065 4.935 11 11 11s11-4.935 11-11c0-1.934-.51-3.836-1.472-5.501Z"/>
    <path class="uuid-e6a5880f-3192-4343-b1fb-1c02c20d8f49" d="M16 0C7.178 0 0 7.178 0 16s7.178 16 16 16 16-7.178 16-16S24.822 0 16 0Zm0 30C8.28 30 2 23.72 2 16S8.28 2 16 2s14 6.28 14 14-6.28 14-14 14Z"/>
  </g>
</svg>
