<?xml version="1.0" encoding="UTF-8"?><svg xmlns="http://www.w3.org/2000/svg" width="32" height="32" viewBox="0 0 32 32"><defs><style>.uuid-d4106778-cca4-4e3b-b978-e33034b741b4{fill:none;}.uuid-042c4174-ea21-4f9c-b1ef-d92a36d281a1{fill:#151515;}</style></defs><g id="uuid-ca06b3ed-d075-4921-b18b-1224afc9e445"><rect class="uuid-d4106778-cca4-4e3b-b978-e33034b741b4" width="32" height="32"/></g><g id="uuid-52952684-39f8-4650-8cbc-3132345d6bf0"><path class="uuid-042c4174-ea21-4f9c-b1ef-d92a36d281a1" d="M16,1C7.729,1,1,7.729,1,16s6.729,15,15,15,15-6.729,15-15S24.271,1,16,1ZM16,29c-7.16846,0-13-5.83154-13-13S8.83154,3,16,3s13,5.83154,13,13-5.83154,13-13,13Z"/><path class="uuid-042c4174-ea21-4f9c-b1ef-d92a36d281a1" d="M24.35919,20H7.62714c-.36877,0-.62427.39258-.45081.71802,1.40692,2.6391,3.98175,4.58923,7.00366,5.12195,4.54358.80573,8.66589-1.46912,10.61566-5.08954.18219-.33832-.05225-.75043-.43646-.75043Z"/></g></svg>