<svg xmlns="http://www.w3.org/2000/svg" viewBox="0 0 32 32">
  <defs>
    <style>
      .uuid-ddd94b28-5613-4288-b838-b99ca92679f8{stroke-width:0;fill:#151515}
    </style>
  </defs>
  <path d="M0 0h32v32H0z" id="uuid-72b9d00e-3e93-4bc1-a1c9-335392a5fcda" stroke-width="0" fill="none"/>
  <g id="uuid-b2661a92-8b15-4802-8f34-d59c13212657">
    <path class="uuid-ddd94b28-5613-4288-b838-b99ca92679f8" d="M26.5 1H12a1 1 0 0 0-.708.295h-.002L4.436 8.197A.982.982 0 0 0 4 9c0 .008.005.015.005.023 0 .009-.005.016-.005.024V29.5c0 .827.673 1.5 1.5 1.5h21c.827 0 1.5-.673 1.5-1.5v-27c0-.827-.673-1.5-1.5-1.5ZM11 4.426V8H7.45L11 4.426ZM26 29H6V10h5.5c.827 0 1.5-.673 1.5-1.5V3h13v26Z"/>
    <path class="uuid-ddd94b28-5613-4288-b838-b99ca92679f8" d="M10 14a1 1 0 0 0 0 2h6a1 1 0 0 0 0-2h-6Zm-1 6a1 1 0 0 0 1 1h12a1 1 0 0 0 0-2H10a1 1 0 0 0-1 1Zm13 4H10a1 1 0 0 0 0 2h12a1 1 0 0 0 0-2Z"/>
  </g>
</svg>
