<?xml version="1.0" encoding="UTF-8"?><svg xmlns="http://www.w3.org/2000/svg" viewBox="0 0 32 32"><defs><style>.uuid-e6648287-8a7b-4609-9850-53f66af3e91b{fill:none;}.uuid-e6648287-8a7b-4609-9850-53f66af3e91b,.uuid-4eefdb16-10f8-493c-b482-4572a3af1f83{stroke-width:0px;}.uuid-4eefdb16-10f8-493c-b482-4572a3af1f83{fill:#151515;}</style></defs><g id="uuid-9513b1ad-9d9a-4b43-8416-b228e1f499b4"><rect class="uuid-e6648287-8a7b-4609-9850-53f66af3e91b" x="0" width="32" height="32"/></g><g id="uuid-8d339ad5-8340-4003-bc60-542026c05dfa"><path class="uuid-4eefdb16-10f8-493c-b482-4572a3af1f83" d="M26.5,1.25h-12.375v8.25c0,.8965-.729,1.625-1.625,1.625H4.25v18.375c0,.6895.5605,1.25,1.25,1.25h21c.6895,0,1.25-.5605,1.25-1.25V2.5c0-.6895-.5605-1.25-1.25-1.25ZM10,14.875h6c.6211,0,1.125.5039,1.125,1.125s-.5039,1.125-1.125,1.125h-6c-.6211,0-1.125-.5039-1.125-1.125s.5039-1.125,1.125-1.125ZM22,27.125h-12c-.6211,0-1.125-.5039-1.125-1.125s.5039-1.125,1.125-1.125h12c.6211,0,1.125.5039,1.125,1.125s-.5039,1.125-1.125,1.125ZM22,22.125h-12c-.6211,0-1.125-.5039-1.125-1.125s.5039-1.125,1.125-1.125h12c.6211,0,1.125.5039,1.125,1.125s-.5039,1.125-1.125,1.125Z"/><path class="uuid-4eefdb16-10f8-493c-b482-4572a3af1f83" d="M11.875,8.875V1.275c-.152.0266-.2968.0858-.4072.1967l-7,7.0479c-.0974.0981-.1517.2234-.1836.3555h7.5908Z"/></g></svg>