<?xml version="1.0" encoding="UTF-8"?><svg xmlns="http://www.w3.org/2000/svg" width="32" height="32" viewBox="0 0 32 32"><defs><style>.uuid-727c0696-382c-4d4c-8e9d-260e09286872{fill:none;}.uuid-1b6a5af4-7ee4-4d64-b9e6-e550c96d5dfc{fill:#151515;}</style></defs><g id="uuid-d040ed85-2552-4c2f-8629-5d8222d34df6"><rect class="uuid-727c0696-382c-4d4c-8e9d-260e09286872" width="32" height="32"/></g><g id="uuid-11183dea-4362-4499-a1d9-40ea7b901f16"><path class="uuid-1b6a5af4-7ee4-4d64-b9e6-e550c96d5dfc" d="M26.5,1h-14.5c-.13354,0-.2641.02722-.38501.07776-.12134.05072-.23083.1239-.32233.21552l-6.99939,6.99939c-.09161.09149-.16479.20099-.21552.32233-.05054.12091-.07776.25146-.07776.38501v20.5c0,.82715.67285,1.5,1.5,1.5h21c.82715,0,1.5-.67285,1.5-1.5V2.5c0-.82715-.67285-1.5-1.5-1.5ZM11,4.41406v3.58594h-3.58594l3.58594-3.58594ZM26,29H6V10h5.5c.82715,0,1.5-.67285,1.5-1.5V3h13v26Z"/><path class="uuid-1b6a5af4-7ee4-4d64-b9e6-e550c96d5dfc" d="M9,15c0,.55225.44775,1,1,1h6c.55225,0,1-.44775,1-1s-.44775-1-1-1h-6c-.55225,0-1,.44775-1,1Z"/><path class="uuid-1b6a5af4-7ee4-4d64-b9e6-e550c96d5dfc" d="M9,20c0,.55225.44775,1,1,1h12c.55225,0,1-.44775,1-1s-.44775-1-1-1h-12c-.55225,0-1,.44775-1,1Z"/><path class="uuid-1b6a5af4-7ee4-4d64-b9e6-e550c96d5dfc" d="M22,24h-12c-.55225,0-1,.44775-1,1s.44775,1,1,1h12c.55225,0,1-.44775,1-1s-.44775-1-1-1Z"/></g></svg>