<?xml version="1.0" encoding="UTF-8"?><svg xmlns="http://www.w3.org/2000/svg" viewBox="0 0 32 32"><defs><style>.uuid-4da29dff-a255-4793-a115-58ffadfd4032{fill:none;}.uuid-4da29dff-a255-4793-a115-58ffadfd4032,.uuid-3f7b7237-5e85-42bf-a721-b7867df991d7{stroke-width:0px;}.uuid-3f7b7237-5e85-42bf-a721-b7867df991d7{fill:#151515;}</style></defs><g id="uuid-baeaa8a2-48fb-4c43-a44d-1efc8f0dfd22"><rect class="uuid-4da29dff-a255-4793-a115-58ffadfd4032" x="0" width="32" height="32"/></g><g id="uuid-458d1716-4e25-41b3-813b-626ad0086b43"><path class="uuid-3f7b7237-5e85-42bf-a721-b7867df991d7" d="M24.6621,20H7.3379c-.3574,0-.6875.1909-.8662.5005s-.1787.6909.001,1.0005c1.9619,3.3921,5.6133,5.499,9.5273,5.499s7.5654-2.1069,9.5273-5.499c.1797-.3096.1797-.6909.001-1.0005s-.5088-.5005-.8662-.5005Z"/><path class="uuid-3f7b7237-5e85-42bf-a721-b7867df991d7" d="M16,0C7.1777,0,0,7.1777,0,16s7.1777,16,16,16,16-7.1777,16-16S24.8223,0,16,0ZM16,30c-7.7197,0-14-6.2803-14-14S8.2803,2,16,2s14,6.2803,14,14-6.2803,14-14,14Z"/></g></svg>