<?xml version="1.0" encoding="UTF-8"?><svg xmlns="http://www.w3.org/2000/svg" width="32" height="32" viewBox="0 0 32 32"><defs><style>.uuid-0a98c8ea-9d0e-4742-9f3a-7313013d1a54{fill:none;}.uuid-7149ca2d-5cea-4393-8a36-653355b9d68e{fill:#151515;}</style></defs><g id="uuid-b44edcee-e92e-4d1a-94b6-102538b62f4b"><rect class="uuid-0a98c8ea-9d0e-4742-9f3a-7313013d1a54" width="32" height="32"/></g><g id="uuid-532b20a8-fa12-4ef8-8f05-dfa8bba88603"><path class="uuid-7149ca2d-5cea-4393-8a36-653355b9d68e" d="M16,1C7.72852,1,1,7.729,1,16s6.72852,15,15,15,15-6.729,15-15S24.27148,1,16,1ZM16,29c-7.16797,0-13-5.83154-13-13S8.83203,3,16,3s13,5.83154,13,13-5.83203,13-13,13Z"/><path class="uuid-7149ca2d-5cea-4393-8a36-653355b9d68e" d="M24.2923,10.42303c-.18262-.27008-.49335-.42303-.81934-.42303h-14.94525c-.32635,0-.63751.1532-.82031.42352-1.38348,2.04639-2.03088,4.6347-1.54926,7.37195.7135,4.05548,3.96399,7.32562,8.0188,8.04297,6.32172,1.11841,11.82306-3.7215,11.82306-9.83844,0-2.06372-.63098-3.98444-1.7077-5.57697Z"/></g></svg>