<?xml version="1.0" encoding="UTF-8"?><svg xmlns="http://www.w3.org/2000/svg" viewBox="0 0 32 32"><defs><style>.uuid-9099c533-ad8d-4b11-bade-5ec80f2ccf29{fill:none;}.uuid-9099c533-ad8d-4b11-bade-5ec80f2ccf29,.uuid-92d94835-88c2-4d4c-8159-1d0a05ea3978{stroke-width:0px;}.uuid-92d94835-88c2-4d4c-8159-1d0a05ea3978{fill:#151515;}</style></defs><g id="uuid-6992977c-58f2-4508-8921-a71718b3ed59"><rect class="uuid-9099c533-ad8d-4b11-bade-5ec80f2ccf29" x="0" width="32" height="32"/></g><g id="uuid-c217d028-1a65-4b70-b36a-98d03b901a34"><path class="uuid-92d94835-88c2-4d4c-8159-1d0a05ea3978" d="M16,5c-6.0654,0-11,4.9346-11,11s4.9346,11,11,11,11-4.9346,11-11-4.9346-11-11-11Z"/><path class="uuid-92d94835-88c2-4d4c-8159-1d0a05ea3978" d="M16,0C7.1777,0,0,7.1777,0,16s7.1777,16,16,16,16-7.1777,16-16S24.8223,0,16,0ZM16,30c-7.7197,0-14-6.2803-14-14S8.2803,2,16,2s14,6.2803,14,14-6.2803,14-14,14Z"/></g></svg>