<?xml version="1.0" encoding="UTF-8"?><svg xmlns="http://www.w3.org/2000/svg" width="32" height="32" viewBox="0 0 32 32"><defs><style>.uuid-18a09b8c-0b5e-49b5-a960-6ffa0c2cfc85{fill:none;}.uuid-6be61f30-6aa6-49fd-a0ca-23ef032756d0{fill:#151515;}</style></defs><g id="uuid-711aca12-5eb1-4588-b46d-3108796e3ba2"><rect class="uuid-18a09b8c-0b5e-49b5-a960-6ffa0c2cfc85" width="32" height="32"/></g><g id="uuid-0f0288bc-4c96-4604-8552-bc44ba47214a"><path class="uuid-6be61f30-6aa6-49fd-a0ca-23ef032756d0" d="M24.5,8H2.5c-.82715,0-1.5.67285-1.5,1.5v18c0,.82715.67285,1.5,1.5,1.5h22c.82715,0,1.5-.67285,1.5-1.5V9.5c0-.82715-.67285-1.5-1.5-1.5ZM24,27H3v-12h21v12Z"/><path class="uuid-6be61f30-6aa6-49fd-a0ca-23ef032756d0" d="M29.5,3H6c-.55273,0-1,.44727-1,1s.44727,1,1,1h23v19c0,.55273.44727,1,1,1s1-.44727,1-1V4.5c0-.82715-.67285-1.5-1.5-1.5Z"/></g></svg>