<?xml version="1.0" encoding="UTF-8"?><svg xmlns="http://www.w3.org/2000/svg" width="32" height="32" viewBox="0 0 32 32"><defs><style>.uuid-a5ed07ea-8166-408f-8282-55190dbdb35f{fill:none;}.uuid-d30461c5-fcba-4fb4-8e34-dafd7a521e04{fill:#151515;}</style></defs><g id="uuid-7304b96b-ba77-4bc4-b9c1-0fae3d05c26b"><rect class="uuid-a5ed07ea-8166-408f-8282-55190dbdb35f" width="32" height="32"/></g><g id="uuid-28dbb202-a0ba-44b3-8944-8887aaec84bf"><path class="uuid-d30461c5-fcba-4fb4-8e34-dafd7a521e04" d="M29.5,3H6c-.55273,0-1,.44727-1,1s.44727,1,1,1h23v19c0,.55273.44727,1,1,1s1-.44727,1-1V4.5c0-.82715-.67285-1.5-1.5-1.5Z"/><path class="uuid-d30461c5-fcba-4fb4-8e34-dafd7a521e04" d="M24.5,8H2.5c-.82715,0-1.5.67285-1.5,1.5v3.375h25v-3.375c0-.82715-.67285-1.5-1.5-1.5Z"/><path class="uuid-d30461c5-fcba-4fb4-8e34-dafd7a521e04" d="M1,27.5c0,.82715.67285,1.5,1.5,1.5h22c.82715,0,1.5-.67285,1.5-1.5v-12.375H1v12.375Z"/></g></svg>