<?xml version="1.0" encoding="UTF-8"?><svg xmlns="http://www.w3.org/2000/svg" width="32" height="32" viewBox="0 0 32 32"><defs><style>.uuid-342cfa94-5bc5-453b-991f-f938a7771011{fill:none;}.uuid-eccf2427-f9cb-4d93-a9de-c50f47518bf2{fill:#151515;}</style></defs><g id="uuid-2c8751ed-d2d4-4ee4-852b-95eb55187c40"><rect class="uuid-342cfa94-5bc5-453b-991f-f938a7771011" width="32" height="32"/></g><g id="uuid-583d79a0-d75e-483a-9f7d-b61f3f7bf2a9"><path class="uuid-eccf2427-f9cb-4d93-a9de-c50f47518bf2" d="M27.5,21H4.5c-.82715,0-1.5.67285-1.5,1.5v6.5c0,.55273.44727,1,1,1s1-.44727,1-1v-6h22v6c0,.55273.44727,1,1,1s1-.44727,1-1v-6.5c0-.82715-.67285-1.5-1.5-1.5Z"/><path class="uuid-eccf2427-f9cb-4d93-a9de-c50f47518bf2" d="M4,12h2v4.5c0,.82715.67285,1.5,1.5,1.5h17c.82715,0,1.5-.67285,1.5-1.5v-4.5h2c.55273,0,1-.44727,1-1s-.44727-1-1-1h-2v-4.5c0-.82715-.67285-1.5-1.5-1.5h-4.5v-2c0-.55273-.44727-1-1-1s-1,.44727-1,1v2h-4v-2c0-.55273-.44727-1-1-1s-1,.44727-1,1v2h-4.5c-.82715,0-1.5.67285-1.5,1.5v4.5h-2c-.55273,0-1,.44727-1,1s.44727,1,1,1ZM8,6h16v10H8V6Z"/><circle class="uuid-eccf2427-f9cb-4d93-a9de-c50f47518bf2" cx="13" cy="11.01306" r="1.625"/><circle class="uuid-eccf2427-f9cb-4d93-a9de-c50f47518bf2" cx="19" cy="11.00342" r="1.625"/></g></svg>