<?xml version="1.0" encoding="UTF-8"?><svg xmlns="http://www.w3.org/2000/svg" width="32" height="32" viewBox="0 0 32 32"><defs><style>.uuid-2f54eb75-358e-4195-ba13-2d83e08e041f{fill:none;}.uuid-dc868392-54c8-4465-bb84-493a0eac8f70{fill:#151515;}</style></defs><g id="uuid-b9288eab-cbc0-4287-a336-cc87731ea3c6"><rect class="uuid-2f54eb75-358e-4195-ba13-2d83e08e041f" width="32" height="32"/></g><g id="uuid-935240ca-ad90-46f5-b644-9c27dc7cf551"><rect class="uuid-dc868392-54c8-4465-bb84-493a0eac8f70" x="3" y="21" width="26" height="9" rx="1.5" ry="1.5"/><path class="uuid-dc868392-54c8-4465-bb84-493a0eac8f70" d="M4,12h2v4.5c0,.82715.67285,1.5,1.5,1.5h17c.82715,0,1.5-.67285,1.5-1.5v-4.5h2c.55273,0,1-.44727,1-1s-.44727-1-1-1h-2v-4.5c0-.82715-.67285-1.5-1.5-1.5h-4.5v-2c0-.55273-.44727-1-1-1s-1,.44727-1,1v2h-4v-2c0-.55273-.44727-1-1-1s-1,.44727-1,1v2h-4.5c-.82715,0-1.5.67285-1.5,1.5v4.5h-2c-.55273,0-1,.44727-1,1s.44727,1,1,1ZM20,9.12781c1.03552,0,1.875.83948,1.875,1.875,0,1.03558-.83948,1.875-1.875,1.875s-1.875-.83942-1.875-1.875c0-1.03552.83948-1.875,1.875-1.875ZM12,9.12781c1.03552,0,1.875.83948,1.875,1.875,0,1.03558-.83948,1.875-1.875,1.875s-1.875-.83942-1.875-1.875c0-1.03552.83948-1.875,1.875-1.875Z"/></g></svg>