<?xml version="1.0" encoding="UTF-8"?><svg xmlns="http://www.w3.org/2000/svg" width="32" height="32" viewBox="0 0 32 32"><defs><style>.uuid-fc57265f-d90b-4bfb-aeb0-67b23eb41cb9{fill:none;}.uuid-88eccf8e-0ecf-49d5-bd45-0808c22ba4b2{fill:#151515;}</style></defs><g id="uuid-f2db9307-2268-4ebb-9f13-ff5982f0b39e"><rect class="uuid-fc57265f-d90b-4bfb-aeb0-67b23eb41cb9" width="32" height="32"/></g><g id="uuid-948b6ddd-94f3-4c65-89d3-762b04444928"><path class="uuid-88eccf8e-0ecf-49d5-bd45-0808c22ba4b2" d="M19,29h-6c-.55225,0-1,.44727-1,1s.44775,1,1,1h6c.55225,0,1-.44727,1-1s-.44775-1-1-1Z"/><path class="uuid-88eccf8e-0ecf-49d5-bd45-0808c22ba4b2" d="M27.20361,19.66309l-6.20361-2.76514V6c0-.26562-.10547-.51953-.29297-.70703l-3.64648-3.64648-.35352-.35352c-.39062-.39062-1.02344-.39062-1.41406,0l-.35352.35352-3.64648,3.64648c-.1875.1875-.29297.44141-.29297.70703v10.89795l-6.20361,2.76514c-.18018.08105-.29639.25977-.29639.45703v3.37988c0,.55176.44873,1,1,1h5.5v1c0,.82715.67285,1.5,1.5,1.5h7c.82715,0,1.5-.67285,1.5-1.5v-1h5.5c.55127,0,1-.44824,1-1v-3.37988c0-.19727-.11621-.37598-.29639-.45703ZM18.93945,9l-5.93945,5.93945v-5.93945h5.93945ZM13,17.06055l6-6v4.87891l-6,6v-4.87891ZM13,25v-.93945l6-6v6.93945h-6Z"/></g></svg>