<?xml version="1.0" encoding="UTF-8"?><svg xmlns="http://www.w3.org/2000/svg" width="32" height="32" viewBox="0 0 32 32"><defs><style>.uuid-73d06b38-3f24-457f-8735-3649c3bf2df2{fill:none;}.uuid-1c3303bd-1d4c-4a90-a331-5b9440c72c58{fill:#151515;}</style></defs><g id="uuid-27e98e91-f13a-4ee2-965e-0de9a27b6f3c"><rect class="uuid-73d06b38-3f24-457f-8735-3649c3bf2df2" width="32" height="32"/></g><g id="uuid-8e098567-871c-473a-9110-d01cc040e40e"><path class="uuid-1c3303bd-1d4c-4a90-a331-5b9440c72c58" d="M19,29h-6c-.55225,0-1,.44727-1,1s.44775,1,1,1h6c.55225,0,1-.44727,1-1s-.44775-1-1-1Z"/><path class="uuid-1c3303bd-1d4c-4a90-a331-5b9440c72c58" d="M27.40723,19.20703l-6.40723-2.8559V6c0-.26562-.10547-.51953-.29297-.70703l-3.64648-3.64648c-.58496-.58594-1.53613-.58594-2.12109,0l-3.64648,3.64648c-.1875.1875-.29297.44141-.29297.70703v10.35114l-6.40723,2.8559c-.36035.16016-.59277.51855-.59277.91309v3.37988c0,.82715.67285,1.5,1.5,1.5h5.5v.5c0,.82715.67285,1.5,1.5,1.5h7c.82715,0,1.5-.67285,1.5-1.5v-.5h5.5c.82715,0,1.5-.67285,1.5-1.5v-3.37988c0-.39453-.23242-.75293-.59277-.91309ZM13,9h5.93945l-5.93945,5.93945v-5.93945ZM13,17.06055l6-6v4.87891l-6,6v-4.87891ZM16,3.41406l3,3v.58594h-6v-.58594l3-3ZM6,23v-2.23047l5-2.22852v4.45898h-5ZM19,25h-6v-.93945l6-6v6.93945ZM26,23h-5v-4.45898l5,2.22852v2.23047Z"/></g></svg>