<?xml version="1.0" encoding="UTF-8"?><svg xmlns="http://www.w3.org/2000/svg" width="32" height="32" viewBox="0 0 32 32"><defs><style>.uuid-0f151784-a2b7-43c4-92c4-87e0c67db2f5{fill:none;}.uuid-16549aee-a4eb-4e67-8252-1bae5fe276f9{fill:#151515;}</style></defs><g id="uuid-cd3a0b59-e861-4c09-8dd6-ba535efc9c30"><rect class="uuid-0f151784-a2b7-43c4-92c4-87e0c67db2f5" width="32" height="32"/></g><g id="uuid-6e53f6f4-c852-48e1-830b-cc122534fed4"><path class="uuid-16549aee-a4eb-4e67-8252-1bae5fe276f9" d="M12.70575,26.29169l-2.99872-2.99872c-.28613-.28613-.71484-.37207-1.08984-.2168-.37402.1543-.61719.51953-.61719.92383v2H2c-.55273,0-1,.44727-1,1s.44727,1,1,1h6v2c0,.4043.24316.76953.61719.92383.12402.05176.25391.07617.38281.07617.25977,0,.51562-.10156.70703-.29297l2.99872-2.99872c.09277-.09247.16638-.20349.21729-.32648.10095-.24426.10095-.51935,0-.76361-.0509-.12311-.12451-.23407-.21729-.32654Z"/><path class="uuid-16549aee-a4eb-4e67-8252-1bae5fe276f9" d="M20,6h6v2c0,.4043.24316.76953.61719.92383.12402.05176.25391.07617.38281.07617.25977,0,.51562-.10156.70703-.29297l2.99872-2.99872c.09277-.09247.16638-.20349.21729-.32648.10095-.24426.10095-.51935,0-.76361-.0509-.12311-.12451-.23407-.21729-.32654l-2.99872-2.99872c-.28613-.28516-.71484-.37207-1.08984-.2168-.37402.1543-.61719.51953-.61719.92383v2h-6c-.55273,0-1,.44727-1,1s.44727,1,1,1Z"/><path class="uuid-16549aee-a4eb-4e67-8252-1bae5fe276f9" d="M30.37793,11.71387c-.05737-.19366-.17932-.34247-.32294-.46387h-8.79492c-.16974-.83569-.37329-1.66766-.63312-2.47852-.12598-.39355-.5459-.61426-.94238-.48535-.39453.12598-.6123.54785-.48535.94238.21167.66229.38074,1.34021.5293,2.02148h-7.45789c.64178-2.95831,1.88153-5.74872,3.68768-8.24786.01404-.00006.02759-.00214.04169-.00214.55273,0,1-.44727,1-1s-.44727-1-1-1C7.72852,1,1,7.72852,1,16c0,2.25.48633,4.41309,1.44434,6.42969.1709.35938.53027.57031.9043.57031.14355,0,.29004-.03125.42871-.09668.49805-.2373.71094-.83398.47363-1.33301-.12775-.26868-.2276-.54578-.33588-.82031h15.81427c-.64178,2.95831-1.88153,5.74872-3.68768,8.24786-.01404.00006-.02759.00214-.04169.00214-.55273,0-1,.44727-1,1s.44727,1,1,1c8.27148,0,15-6.72852,15-15,0-1.45996-.20898-2.90234-.62207-4.28613ZM3.42462,19.25c-.27185-1.05347-.42462-2.13733-.42462-3.25,0-1.12396.15839-2.20911.42786-3.25h7.05859c-.14557,1.06946-.23645,2.15173-.23645,3.25,0,1.08948.09644,2.17584.24402,3.25H3.42462ZM3.91132,11.25c1.66797-4.22906,5.48676-7.37024,10.10504-8.08228-1.60364,2.48419-2.69391,5.21454-3.27441,8.08228H3.91132ZM12.00488,19.25c-.1571-1.0722-.25488-2.15973-.25488-3.25,0-1.09882.08887-2.18243.24426-3.25h8.00085c.1571,1.0722.25488,2.15973.25488,3.25,0,1.09882-.08887,2.18243-.24426,3.25h-8.00085ZM17.98364,28.83228c1.60364-2.48419,2.69397-5.2146,3.27441-8.08228h6.83063c-1.66797,4.22906-5.48676,7.37024-10.10504,8.08228ZM28.57214,19.25h-7.05859c.14557-1.06946.23645-2.15173.23645-3.25,0-1.08948-.09644-2.17584-.24402-3.25h7.07599c.27228,1.05603.41803,2.1452.41803,3.25,0,1.12396-.15839,2.20911-.42786,3.25Z"/></g></svg>