<?xml version="1.0" encoding="UTF-8"?><svg xmlns="http://www.w3.org/2000/svg" viewBox="0 0 32 32"><defs><style>.uuid-7dc0583d-dd38-459e-9f70-5a0343bc3464{fill:none;}.uuid-7dc0583d-dd38-459e-9f70-5a0343bc3464,.uuid-499fdb02-41b9-428f-a334-2d7904532d19{stroke-width:0px;}.uuid-499fdb02-41b9-428f-a334-2d7904532d19{fill:#151515;}</style></defs><g id="uuid-449fe117-211c-4df2-86ea-ea2d6331391a"><rect class="uuid-7dc0583d-dd38-459e-9f70-5a0343bc3464" x="0" width="32" height="32"/></g><g id="uuid-a860a8eb-49fb-4937-b38d-ab2b05bd6674"><path class="uuid-499fdb02-41b9-428f-a334-2d7904532d19" d="M1.3569,25.3467c-.7075.708-1.0967,1.6484-1.0967,2.6484s.3896,1.9404,1.0967,2.6475c.73.7305,1.689,1.0957,2.6484,1.0957.9585,0,1.918-.3652,2.6479-1.0957.707-.707,1.0967-1.6475,1.0967-2.6475s-.3892-1.9404-1.0967-2.6484c-1.4609-1.459-3.8364-1.459-5.2964,0Z"/><path class="uuid-499fdb02-41b9-428f-a334-2d7904532d19" d="M1.3872,12.2051c-.6377.0586-1.1372.6084-1.1372,1.252v5.0449c0,.6865.5571,1.2471,1.2407,1.249,2.8906.0146,6.1592.2139,8.3555,2.4014,2.2256,2.2334,2.3926,4.6426,2.4033,8.3438.001.6914.5615,1.2539,1.249,1.2539h5.0444c.6431,0,1.1929-.499,1.252-1.1357.48-5.167-1.2529-10.1436-4.7554-13.6553-3.5122-3.502-8.4902-5.2344-13.6523-4.7539Z"/><path class="uuid-499fdb02-41b9-428f-a334-2d7904532d19" d="M23.3145,8.6855C17.5532,2.9248,9.5806-.1348,1.4463.2891.7817.3252.2607.877.2593,1.5449l-.0083,4.96c-.001.6807.5542,1.2402,1.2383,1.248,7.3433.0771,12.4731,1.9658,16.6323,6.125,4.1587,4.1592,6.0483,9.2891,6.126,16.6328.0073.6836.5649,1.2383,1.2432,1.2383h.0044l4.9595-.0088c.6699,0,1.2217-.5225,1.2559-1.1885.4258-8.1338-2.6343-16.1045-8.396-21.8662Z"/></g></svg>