<?xml version="1.0" encoding="UTF-8"?><svg xmlns="http://www.w3.org/2000/svg" width="32" height="32" viewBox="0 0 32 32"><defs><style>.uuid-8d2f909d-76f0-4c43-b1d7-a90146d616db{fill:none;}.uuid-f39eae36-8068-4545-b32b-c8a61d276e3b{fill:#151515;}</style></defs><g id="uuid-98ebaa07-0297-4e48-bc89-ba1ee8e1cc05"><rect class="uuid-8d2f909d-76f0-4c43-b1d7-a90146d616db" width="32" height="32"/></g><g id="uuid-0d6de4e9-f98a-4a72-a6b4-c983733d9c43"><path class="uuid-f39eae36-8068-4545-b32b-c8a61d276e3b" d="M3,2.25c-.41406,0-.75.33594-.75.75v5c0,.41406.33594.75.75.75,11.16602,0,20.25,9.08398,20.25,20.25,0,.41406.33594.75.75.75h5c.41406,0,.75-.33594.75-.75C29.75,14.25,17.75,2.25,3,2.25Z"/><path class="uuid-f39eae36-8068-4545-b32b-c8a61d276e3b" d="M3,12.25c-.41406,0-.75.33594-.75.75v5c0,.41406.33594.75.75.75,5.65234,0,10.25,4.59814,10.25,10.25,0,.41406.33594.75.75.75h5c.41406,0,.75-.33594.75-.75,0-9.23584-7.51367-16.75-16.75-16.75Z"/><circle class="uuid-f39eae36-8068-4545-b32b-c8a61d276e3b" cx="5" cy="27" r="3.75"/></g></svg>