<?xml version="1.0" encoding="UTF-8"?><svg xmlns="http://www.w3.org/2000/svg" viewBox="0 0 32 32"><defs><style>.uuid-396fd2f1-2430-4bb1-be4a-39e31a46f13a{fill:none;}.uuid-396fd2f1-2430-4bb1-be4a-39e31a46f13a,.uuid-222078a6-04c8-4244-a1df-3f23588f0833{stroke-width:0px;}.uuid-222078a6-04c8-4244-a1df-3f23588f0833{fill:#151515;}</style></defs><g id="uuid-0bb1b976-e022-4ff3-9ac3-75d1a90fdd9a"><rect class="uuid-396fd2f1-2430-4bb1-be4a-39e31a46f13a" width="32" height="32"/></g><g id="uuid-2282d783-b886-41ba-884f-b2e1021eedb6"><path class="uuid-222078a6-04c8-4244-a1df-3f23588f0833" d="M1.2686,25.2588c-1.5088,1.5083-1.5088,3.9634,0,5.4727.7544.7544,1.7456,1.1313,2.7363,1.1313s1.9824-.377,2.7368-1.1313c1.5088-1.5093,1.5088-3.9644,0-5.4727-1.5088-1.5088-3.9644-1.5088-5.4731,0ZM5.5044,29.4941c-.8271.8262-2.1714.8262-2.9985,0-.8262-.8267-.8262-2.1714,0-2.998.4136-.4131.9565-.6201,1.4995-.6201.5425,0,1.0854.207,1.499.6201.8262.8267.8262,2.1714,0,2.998Z"/><path class="uuid-222078a6-04c8-4244-a1df-3f23588f0833" d="M1.374,12.0806c-.7002.0649-1.249.6694-1.249,1.3765v5.0449c0,.7534.6123,1.3701,1.3652,1.374,2.8662.0142,6.105.2104,8.2671,2.3643,2.1919,2.2007,2.3564,4.5879,2.3672,8.2568.0015.7598.6177,1.3779,1.374,1.3779h5.0444c.707,0,1.3115-.5488,1.3765-1.249.4834-5.2036-1.2627-10.2163-4.792-13.7549-3.5366-3.5269-8.5435-5.2764-13.7534-4.7905ZM18.2051,30.125h-4.3325c-.0254-3.6948-.3066-6.5415-2.8774-9.1226-2.4175-2.4082-5.791-2.8301-9.1201-2.873v-4.3345c4.6201-.3384,8.8789,1.1855,12.0151,4.3135,3.1299,3.1382,4.6548,7.394,4.3149,12.0166Z"/><path class="uuid-222078a6-04c8-4244-a1df-3f23588f0833" d="M23.4028,8.5972C17.6172,2.8105,9.6245-.25,1.4424.1646.7104.2021.1357.8081.1343,1.5439l-.0083,4.9609c-.0015.7485.6094,1.3643,1.3618,1.3726,7.3086.0771,12.4111,1.9556,16.5454,6.0894,4.1338,4.1343,6.0122,9.2368,6.0894,16.5454.0083.7515.6226,1.3618,1.3701,1.3618h.0024l4.9609-.0083c.7358-.0015,1.3418-.5762,1.3794-1.3071.4277-8.1704-2.646-16.1748-8.4326-21.9614ZM30.1035,30.1162l-4.2363.0073c-.1426-7.6064-2.1846-12.9819-6.5967-17.394S9.4829,6.2754,1.8765,6.1328l.0073-4.2363c7.5503-.3042,14.9282,2.5845,20.2817,7.938s8.2354,12.7275,7.938,20.2817Z"/></g></svg>