<?xml version="1.0" encoding="UTF-8"?><svg xmlns="http://www.w3.org/2000/svg" width="32" height="32" viewBox="0 0 32 32"><defs><style>.uuid-2c0091bb-1d34-4d18-9284-04cf49b0ed3d{fill:none;}.uuid-3c3325b1-8e90-414b-ab7d-b77d31a6bcc4{fill:#151515;}</style></defs><g id="uuid-87e46a15-4049-4ea6-9325-15021b3e77e1"><rect class="uuid-2c0091bb-1d34-4d18-9284-04cf49b0ed3d" width="32" height="32"/></g><g id="uuid-c260ecb9-9e33-4e23-a1af-1189e7f2b73f"><path class="uuid-3c3325b1-8e90-414b-ab7d-b77d31a6bcc4" d="M3,2c-.55273,0-1,.44775-1,1v5c0,.55225.44727,1,1,1,11.02832,0,20,8.97217,20,20,0,.55225.44727,1,1,1h5c.55273,0,1-.44775,1-1C30,14.1123,17.8877,2,3,2ZM24.97754,28c-.50977-11.33643-9.6416-20.46729-20.97754-20.97754v-3.00293c12.99121.51367,23.4668,10.98877,23.98047,23.98047h-3.00293Z"/><path class="uuid-3c3325b1-8e90-414b-ab7d-b77d31a6bcc4" d="M3,12c-.55273,0-1,.44775-1,1v5c0,.55225.44727,1,1,1,5.51367,0,10,4.48584,10,10,0,.55225.44727,1,1,1h5c.55273,0,1-.44775,1-1,0-9.37402-7.62598-17-17-17ZM14.95898,28c-.48242-5.8208-5.13867-10.47607-10.95898-10.9585v-3.0083c7.47559.49463,13.47266,6.49121,13.9668,13.9668h-3.00781Z"/><path class="uuid-3c3325b1-8e90-414b-ab7d-b77d31a6bcc4" d="M5,23c-2.20605,0-4,1.79443-4,4s1.79395,4,4,4,4-1.79443,4-4-1.79395-4-4-4ZM5,29c-1.10254,0-2-.89697-2-2s.89746-2,2-2,2,.89697,2,2-.89746,2-2,2Z"/></g></svg>