<?xml version="1.0" encoding="UTF-8"?><svg xmlns="http://www.w3.org/2000/svg" width="32" height="32" viewBox="0 0 32 32"><defs><style>.uuid-4b9454c6-6e37-4517-a787-3d9cced358b7{fill:none;}.uuid-840c6ab9-4ef7-4971-b044-2dccad05d466{fill:#151515;}</style></defs><g id="uuid-636af6dd-f8d5-4c31-a0e7-ba6e04f8c5f9"><rect class="uuid-4b9454c6-6e37-4517-a787-3d9cced358b7" width="32" height="32"/></g><g id="uuid-90d94b01-a52e-4cc7-8263-5a79f31f0da9"><path class="uuid-840c6ab9-4ef7-4971-b044-2dccad05d466" d="M11.57227,26.83594h0c-.47266,0-.87988-.33008-.97852-.79199l-1.70703-8.03711H2c-.55273,0-1-.44727-1-1s.44727-1,1-1h7.69698c.47206,0,.87977.33023.97782.79199l.89746,4.22656,3.44922-16.22656c.09863-.46191.50586-.79199.97852-.79199.47168,0,.87988.33008.97852.79199l3.28223,15.40625.72363-3.4043c.09814-.46171.5058-.79189.97782-.79199l8.0377-.00174c.55231-.00012,1.00011.44758,1.00011.99989h0c0,.55223-.44767.99989-.99989.99989h-7.22765l-1.53223,7.20996c-.09863.46191-.50586.79199-.97852.79199-.47168,0-.87988-.33008-.97852-.79199l-3.28223-15.40625-3.4502,16.2334c-.09863.46191-.50684.79199-.97852.79199Z"/></g></svg>