<?xml version="1.0" encoding="UTF-8"?><svg xmlns="http://www.w3.org/2000/svg" width="32" height="32" viewBox="0 0 32 32"><defs><style>.uuid-3fdc196f-4a97-4d3f-b832-dac23a4bc42e{fill:none;}.uuid-ecfd1936-f7c8-4231-9051-dc35a56283c0{fill:#151515;}</style></defs><g id="uuid-207cfad2-327a-4e55-804d-e72e7a4730e3"><rect class="uuid-3fdc196f-4a97-4d3f-b832-dac23a4bc42e" width="32" height="32"/></g><g id="uuid-53f3e5e3-55fa-4fa6-a87b-5fcf7f5ac9b5"><path class="uuid-ecfd1936-f7c8-4231-9051-dc35a56283c0" d="M16,6c.55225,0,1-.44727,1-1v-2c0-.55273-.44775-1-1-1s-1,.44727-1,1v2c0,.55273.44775,1,1,1Z"/><rect class="uuid-ecfd1936-f7c8-4231-9051-dc35a56283c0" x="8.125" y="18.125" width="15.75" height="5.75"/><path class="uuid-ecfd1936-f7c8-4231-9051-dc35a56283c0" d="M29.70703,7.29297l-5-5c-.1875-.1875-.44189-.29297-.70703-.29297h-3.75c-.68945,0-1.25.56055-1.25,1.25v5.75h-8V3.25c0-.68945-.56055-1.25-1.25-1.25H3.25c-.68945,0-1.25.56055-1.25,1.25v25.5c0,.68945.56055,1.25,1.25,1.25h25.5c.68945,0,1.25-.56055,1.25-1.25V8c0-.26562-.10547-.51953-.29297-.70703ZM26.125,24.5c0,.89648-.729,1.625-1.625,1.625H7.5c-.896,0-1.625-.72852-1.625-1.625v-7c0-.89648.729-1.625,1.625-1.625h17c.896,0,1.625.72852,1.625,1.625v7Z"/></g></svg>