<?xml version="1.0" encoding="UTF-8"?><svg xmlns="http://www.w3.org/2000/svg" width="32" height="32" viewBox="0 0 32 32"><defs><style>.uuid-d5a36f3b-813b-40bf-97ba-ccb16b0f173f{fill:none;}.uuid-ade5b5fe-c684-4faf-b618-68d757dbda04{fill:#151515;}</style></defs><g id="uuid-ed51d638-ebe1-4ba4-b37e-fe8f266509de"><rect class="uuid-d5a36f3b-813b-40bf-97ba-ccb16b0f173f" width="32" height="32"/></g><g id="uuid-8971a788-4120-439c-9c6f-a24e0f243492"><path class="uuid-ade5b5fe-c684-4faf-b618-68d757dbda04" d="M8.5,15c-.82715,0-1.5.67285-1.5,1.5v7c0,.82715.67285,1.5,1.5,1.5h15c.82715,0,1.5-.67285,1.5-1.5v-7c0-.82715-.67285-1.5-1.5-1.5h-15ZM23,23h-14v-6h14v6Z"/><path class="uuid-ade5b5fe-c684-4faf-b618-68d757dbda04" d="M29.70703,7.29297l-5-5c-.1875-.1875-.44189-.29297-.70703-.29297h-3.75c-.68945,0-1.25.56055-1.25,1.25v5.75h-8V3.25c0-.68945-.56055-1.25-1.25-1.25H3.25c-.68945,0-1.25.56055-1.25,1.25v25.5c0,.68945.56055,1.25,1.25,1.25h25.5c.68945,0,1.25-.56055,1.25-1.25V8c0-.26562-.10547-.51953-.29297-.70703ZM28,28H4V4h5v5.75c0,.68945.56055,1.25,1.25,1.25h9.5c.68945,0,1.25-.56055,1.25-1.25v-5.75h2.58594l4.41406,4.41406v19.58594Z"/><path class="uuid-ade5b5fe-c684-4faf-b618-68d757dbda04" d="M16,6c.55225,0,1-.44727,1-1v-2c0-.55273-.44775-1-1-1s-1,.44727-1,1v2c0,.55273.44775,1,1,1Z"/></g></svg>