<?xml version="1.0" encoding="UTF-8"?><svg xmlns="http://www.w3.org/2000/svg" width="32" height="32" viewBox="0 0 32 32"><defs><style>.uuid-017afa07-b506-454e-a47a-c55b65302858{fill:none;}.uuid-5f819e6c-5e61-4eff-a5e4-d68ad34d1c95{fill:#151515;}</style></defs><g id="uuid-3ade2ed6-4b6f-45b5-9f90-f7afc660f8fb"><rect class="uuid-017afa07-b506-454e-a47a-c55b65302858" width="32" height="32"/></g><g id="uuid-b0276bbf-878f-45fb-b5fa-1f01bda55e94"><path class="uuid-5f819e6c-5e61-4eff-a5e4-d68ad34d1c95" d="M20.01953,18.19287c.10394,2.66583,2.28967,4.80713,4.98047,4.80713s4.87653-2.1413,4.98047-4.80713c.00092-.00476.00061-.00958.00146-.01434.0022-.06061.01807-.11737.01807-.17853,0-.03674-.01709-.06793-.02094-.10364-.00366-.03528.00653-.06885-.00104-.10437l-2.34552-11.03442c.21967-.18341.36749-.44879.36749-.75757,0-.55273-.44775-1-1-1h-10v-3c0-.55273-.44775-1-1-1s-1,.44727-1,1v3H5c-.55225,0-1,.44727-1,1,0,.30878.14783.57416.36749.75757l-2.34552,11.03442c-.00757.03552.00262.06909-.00104.10437-.00385.03571-.02094.06689-.02094.10364,0,.06116.01587.11792.01807.17853.00085.00476.00055.00958.00146.01434.10394,2.66583,2.28967,4.80713,4.98047,4.80713s4.87653-2.1413,4.98047-4.80713c.00092-.00476.00061-.00958.00146-.01434.0022-.06061.01807-.11737.01807-.17853,0-.03674-.01709-.06793-.02094-.10364-.00366-.03528.00653-.06885-.00104-.10437l-2.29401-10.79199h5.31598v20H3c-.55225,0-1,.44727-1,1s.44775,1,1,1h25c.55225,0,1-.44727,1-1s-.44775-1-1-1h-11V7h5.31598l-2.29401,10.79199c-.00757.03552.00262.06909-.00104.10437-.00385.03571-.02094.06689-.02094.10364,0,.06116.01587.11792.01807.17853.00085.00476.00055.00958.00146.01434ZM9.7652,17h-5.5304l2.12567-10h1.27905l2.12567,10ZM25.63953,7l2.12567,10h-5.5304l2.12567-10h1.27905Z"/></g></svg>