<?xml version="1.0" encoding="UTF-8"?><svg xmlns="http://www.w3.org/2000/svg" width="32" height="32" viewBox="0 0 32 32"><defs><style>.uuid-b2dc4172-204e-4a34-9626-46efd2d96088{fill:none;}.uuid-6a86f727-66e0-452d-ac8c-0d5dfaaec76f{fill:#151515;}</style></defs><g id="uuid-f1ea5350-8653-4789-99bc-da86e10a3d46"><rect class="uuid-b2dc4172-204e-4a34-9626-46efd2d96088" width="32" height="32"/></g><g id="uuid-76612c38-b7f5-47cd-b2e4-66a8d82a20d4"><path class="uuid-6a86f727-66e0-452d-ac8c-0d5dfaaec76f" d="M30.7959,29.20459l-8.55682-8.55682c1.72308-2.078,2.76093-4.74371,2.76093-7.64777,0-6.6167-5.38281-12-12-12S1,6.3833,1,13s5.38281,12,12,12c2.90424,0,5.56989-1.03778,7.64783-2.76086l8.55627,8.55627c.21973.21973.50781.32959.7959.32959s.57617-.10986.7959-.32959c.43848-.43945.43848-1.15137,0-1.59082ZM3,13C3,7.48584,7.48633,3,13,3s10,4.48584,10,10-4.48633,10-10,10S3,18.51416,3,13Z"/></g></svg>