<?xml version="1.0" encoding="UTF-8"?><svg xmlns="http://www.w3.org/2000/svg" viewBox="0 0 32 32"><defs><style>.uuid-d05187fd-9015-45b0-bdb8-69179f839567{fill:none;}.uuid-d05187fd-9015-45b0-bdb8-69179f839567,.uuid-84a42420-9ac2-42db-b79e-284976ef3009{stroke-width:0px;}.uuid-84a42420-9ac2-42db-b79e-284976ef3009{fill:#151515;}</style></defs><g id="uuid-5442d183-2d0e-4ec4-8123-04f0f6a145ec"><rect class="uuid-d05187fd-9015-45b0-bdb8-69179f839567" width="32" height="32"/></g><g id="uuid-773f2ebd-5fea-407b-8c18-ef68e9e4a78b"><path class="uuid-84a42420-9ac2-42db-b79e-284976ef3009" d="M31.7954,30.2046l-8.8497-8.8497c1.9028-2.2614,3.0543-5.1749,3.0543-8.3549C26,5.8315,20.1685,0,13,0S0,5.8315,0,13s5.8315,13,13,13c3.18,0,6.0934-1.1515,8.3549-3.0543l8.8497,8.8497c.2197.2197.5073.3296.7954.3296s.5757-.1099.7954-.3296c.4395-.4395.4395-1.1514,0-1.5908ZM13,24c-6.0654,0-11-4.9346-11-11S6.9346,2,13,2s11,4.9346,11,11-4.9346,11-11,11Z"/></g></svg>