<?xml version="1.0" encoding="UTF-8"?><svg xmlns="http://www.w3.org/2000/svg" width="32" height="32" viewBox="0 0 32 32"><defs><style>.uuid-1bf4af16-4c12-4c1a-8907-2a424f64fe39{fill:none;}.uuid-453f14b9-5826-48a2-9968-bac534ab7e57{fill:#151515;}</style></defs><g id="uuid-a84b83f4-3b2b-413d-b78b-4fe84fe0fedb"><rect class="uuid-1bf4af16-4c12-4c1a-8907-2a424f64fe39" width="32" height="32"/></g><g id="uuid-22a6c21c-3d51-494d-9df1-ffc3c111a66d"><path class="uuid-453f14b9-5826-48a2-9968-bac534ab7e57" d="M9.70703,14.29297c-.39062-.39062-1.02344-.39062-1.41406,0s-.39062,1.02344,0,1.41406l4.64648,4.64648c.29248.29248.67627.43848,1.06055.43848s.76807-.146,1.06055-.43848l8.64648-8.64648c.39062-.39062.39062-1.02344,0-1.41406s-1.02344-.39062-1.41406,0l-8.29297,8.29297-4.29297-4.29297Z"/><path class="uuid-453f14b9-5826-48a2-9968-bac534ab7e57" d="M28.2085,3.58203l-12-2.56006c-.1377-.0293-.2793-.0293-.41699,0L3.7915,3.58203c-.46143.09863-.7915.50635-.7915.97803v13.43994c0,7.16846,5.83154,13,13,13s13-5.83154,13-13V4.56006c0-.47168-.33008-.87939-.7915-.97803ZM27,18c0,6.06543-4.93457,11-11,11s-11-4.93457-11-11V5.36914l11-2.34668,11,2.34668v12.63086Z"/></g></svg>