<?xml version="1.0" encoding="UTF-8"?><svg xmlns="http://www.w3.org/2000/svg" viewBox="0 0 32 32"><defs><style>.uuid-8b256a0e-6b2f-4d2c-a634-8deec53f4e8b{fill:none;}.uuid-8b256a0e-6b2f-4d2c-a634-8deec53f4e8b,.uuid-dd16affd-8d01-48c7-bc68-a2aa0e101071{stroke-width:0px;}.uuid-dd16affd-8d01-48c7-bc68-a2aa0e101071{fill:#151515;}</style></defs><g id="uuid-ccfab35a-8f82-4df8-99f4-fab89b2c86cc"><rect class="uuid-8b256a0e-6b2f-4d2c-a634-8deec53f4e8b" x="0" width="32" height="32"/></g><g id="uuid-78c862c8-221c-4fc8-913a-fc6be1cd7a96"><path class="uuid-dd16affd-8d01-48c7-bc68-a2aa0e101071" d="M29.1562,3.0361L16.1562.2666c-.1025-.0215-.21-.0215-.3125,0L2.8438,3.0361c-.3462.0732-.5938.3799-.5938.7334v14.2305c0,7.582,6.1685,13.75,13.75,13.75s13.75-6.168,13.75-13.75V3.7695c0-.3535-.2476-.6602-.5938-.7334ZM23.7954,12.7959l-8.6465,8.6465c-.3169.3164-.7329.4746-1.1489.4746s-.832-.1582-1.1489-.4746l-4.6465-4.6465c-.4395-.4395-.4395-1.1523,0-1.5918s1.1514-.4395,1.5908,0l4.2046,4.2051,8.2046-8.2051c.4395-.4395,1.1514-.4395,1.5908,0s.4395,1.1523,0,1.5918Z"/></g></svg>