<svg xmlns="http://www.w3.org/2000/svg" viewBox="0 0 32 32">
  <defs>
    <style>
      .uuid-0407dd0a-b9cc-4a09-b401-4598b96006d3{stroke-width:0;fill:#151515}
    </style>
  </defs>
  <path d="M0 0h32v32H0z" id="uuid-fc4e68c3-d79a-4890-99df-228c60fb326e" stroke-width="0" fill="none"/>
  <g id="uuid-dd3187b1-5770-45fb-96e6-6a292cee4815">
    <path class="uuid-0407dd0a-b9cc-4a09-b401-4598b96006d3" d="m29.209 2.791-13-2.77a1 1 0 0 0-.417 0l-13 2.77A1.001 1.001 0 0 0 2 3.77V18c0 7.72 6.28 14 14 14s14-6.28 14-14V3.77c0-.472-.33-.88-.791-.979ZM28 18c0 6.617-5.383 12-12 12S4 24.617 4 18V4.58l12-2.557 12 2.556V18Z"/>
    <path class="uuid-0407dd0a-b9cc-4a09-b401-4598b96006d3" d="M15 9v7a1 1 0 1 0 2 0V9a1 1 0 1 0-2 0Z"/>
    <circle class="uuid-0407dd0a-b9cc-4a09-b401-4598b96006d3" cx="16" cy="22.002" r="1.5"/>
  </g>
</svg>
