<?xml version="1.0" encoding="UTF-8"?><svg xmlns="http://www.w3.org/2000/svg" width="32" height="32" viewBox="0 0 32 32"><defs><style>.uuid-60e4d91c-a9f8-4f8b-8701-b81c088deec4{fill:none;}.uuid-be0ae61c-0f7c-4821-a2fa-bb748fc24fb5{fill:#151515;}</style></defs><g id="uuid-3d4e5143-2289-4bf8-89a5-7cabb7372150"><rect class="uuid-60e4d91c-a9f8-4f8b-8701-b81c088deec4" width="32" height="32"/></g><g id="uuid-222e9f21-0fd7-4532-b43a-b7dc7dfb8535"><path class="uuid-be0ae61c-0f7c-4821-a2fa-bb748fc24fb5" d="M28.20898,3.58203l-12-2.55957c-.13867-.0293-.2793-.0293-.41797,0L3.79102,3.58203c-.46094.09766-.79102.50586-.79102.97754v13.44043c0,7.16797,5.83203,13,13,13s13-5.83203,13-13V4.55957c0-.47168-.33008-.87988-.79102-.97754ZM14.5,9c0-.82812.67188-1.5,1.5-1.5s1.5.67188,1.5,1.5v7c0,.82812-.67188,1.5-1.5,1.5s-1.5-.67188-1.5-1.5v-7ZM16,25.0011c-1.10455,0-2-.89545-2-2s.89545-2,2-2,2,.89545,2,2-.89545,2-2,2Z"/></g></svg>