<?xml version="1.0" encoding="UTF-8"?><svg xmlns="http://www.w3.org/2000/svg" viewBox="0 0 32 32"><defs><style>.uuid-f24d9439-2536-4608-b221-6db1a9bc3257{fill:none;}.uuid-f24d9439-2536-4608-b221-6db1a9bc3257,.uuid-0407dd0a-b9cc-4a09-b401-4598b96006d3{stroke-width:0px;}.uuid-0407dd0a-b9cc-4a09-b401-4598b96006d3{fill:#151515;}</style></defs><g id="uuid-fc4e68c3-d79a-4890-99df-228c60fb326e"><rect class="uuid-f24d9439-2536-4608-b221-6db1a9bc3257" x="0" width="32" height="32"/></g><g id="uuid-dd3187b1-5770-45fb-96e6-6a292cee4815"><path class="uuid-0407dd0a-b9cc-4a09-b401-4598b96006d3" d="M29.2085,2.791L16.2085.0215c-.1377-.0293-.2793-.0293-.417,0L2.7915,2.791c-.4614.0986-.7915.5068-.7915.9785v14.2305c0,7.7197,6.2803,14,14,14s14-6.2803,14-14V3.7695c0-.4717-.3301-.8799-.7915-.9785ZM28,18c0,6.6172-5.3833,12-12,12s-12-5.3828-12-12V4.5791l12-2.5566,12,2.5566v13.4209Z"/><path class="uuid-0407dd0a-b9cc-4a09-b401-4598b96006d3" d="M15,9v7c0,.5527.4478,1,1,1s1-.4473,1-1v-7c0-.5527-.4478-1-1-1s-1,.4473-1,1Z"/><circle class="uuid-0407dd0a-b9cc-4a09-b401-4598b96006d3" cx="16" cy="22.0022" r="1.5"/></g></svg>