<?xml version="1.0" encoding="UTF-8"?><svg xmlns="http://www.w3.org/2000/svg" viewBox="0 0 32 32"><defs><style>.uuid-9d2f9a72-32d1-49ff-b938-9459d3039caf{fill:none;}.uuid-9d2f9a72-32d1-49ff-b938-9459d3039caf,.uuid-ccc339fe-6420-4945-b837-be6bb3cab89a{stroke-width:0px;}.uuid-ccc339fe-6420-4945-b837-be6bb3cab89a{fill:#151515;}</style></defs><g id="uuid-e9668874-c309-4201-80cd-ac898a3d6b0f"><rect class="uuid-9d2f9a72-32d1-49ff-b938-9459d3039caf" x="0" width="32" height="32"/></g><g id="uuid-79f35908-9af6-4cb9-8633-35042ec0de83"><path class="uuid-ccc339fe-6420-4945-b837-be6bb3cab89a" d="M29.1562,3.0361L16.1562.2666c-.1035-.0215-.209-.0215-.3125,0L2.8438,3.0361c-.3467.0732-.5938.3799-.5938.7334v14.2305c0,7.582,6.168,13.75,13.75,13.75s13.75-6.168,13.75-13.75V3.7695c0-.3535-.2471-.6602-.5938-.7334ZM14.75,9c0-.6904.5596-1.25,1.25-1.25s1.25.5596,1.25,1.25v8c0,.6904-.5596,1.25-1.25,1.25s-1.25-.5596-1.25-1.25v-8ZM16,25.5003c-.8284,0-1.5-.6716-1.5-1.5s.6716-1.5,1.5-1.5,1.5.6716,1.5,1.5-.6716,1.5-1.5,1.5Z"/></g></svg>