<?xml version="1.0" encoding="UTF-8"?><svg xmlns="http://www.w3.org/2000/svg" width="32" height="32" viewBox="0 0 32 32"><defs><style>.uuid-cbfec6b1-b4ac-4b58-bba7-c08fe357fcad{fill:none;}.uuid-b1998968-6006-43cc-b1e3-153861e45d3e{fill:#151515;}</style></defs><g id="uuid-e0ce90de-97ab-4528-a5ae-ff5b8111b5e7"><rect class="uuid-cbfec6b1-b4ac-4b58-bba7-c08fe357fcad" width="32" height="32"/></g><g id="uuid-1b35f643-948d-4889-be5b-19443ca71363"><path class="uuid-b1998968-6006-43cc-b1e3-153861e45d3e" d="M14.75,9v7c0,.69043.55957,1.25,1.25,1.25s1.25-.55957,1.25-1.25v-7c0-.69043-.55957-1.25-1.25-1.25s-1.25.55957-1.25,1.25Z"/><path class="uuid-b1998968-6006-43cc-b1e3-153861e45d3e" d="M28.20898,3.58203l-12-2.55957c-.13867-.0293-.2793-.0293-.41797,0L3.79102,3.58203c-.46094.09766-.79102.50586-.79102.97754v13.44043c0,7.16797,5.83203,13,13,13s13-5.83203,13-13V4.55957c0-.47168-.33008-.87988-.79102-.97754ZM27,18c0,6.06543-4.93457,11-11,11s-11-4.93457-11-11V5.36914l11-2.34668,11,2.34668v12.63086Z"/><circle class="uuid-b1998968-6006-43cc-b1e3-153861e45d3e" cx="16" cy="22.00012" r="1.75"/></g></svg>