<?xml version="1.0" encoding="UTF-8"?><svg xmlns="http://www.w3.org/2000/svg" width="32" height="32" viewBox="0 0 32 32"><defs><style>.uuid-1d392ab7-ae4f-4d19-9212-53ced6a04700{fill:none;}.uuid-6b22ade1-63ba-43ce-9079-875332be6987{fill:#151515;}</style></defs><g id="uuid-33f2dd5a-8de0-433c-bffd-1a067d3c2073"><rect class="uuid-1d392ab7-ae4f-4d19-9212-53ced6a04700" width="32" height="32"/></g><g id="uuid-62f333fd-db58-471b-b1fe-ab6605d3d740"><path class="uuid-6b22ade1-63ba-43ce-9079-875332be6987" d="M16,31c-7.16846,0-13-5.83154-13-13V4.56006c0-.47168.33008-.87939.7915-.97803L15.7915,1.02197c.1377-.0293.2793-.0293.41699,0l12,2.56006c.46143.09863.7915.50635.7915.97803v13.43994c0,7.16846-5.83154,13-13,13ZM5,5.36914v12.63086c0,6.06543,4.93457,11,11,11s11-4.93457,11-11V5.36914l-11-2.34668-11,2.34668Z"/></g></svg>