<?xml version="1.0" encoding="UTF-8"?><svg xmlns="http://www.w3.org/2000/svg" width="32" height="32" viewBox="0 0 32 32"><defs><style>.uuid-1be48bee-053f-4fa1-a231-85ca7c02118a{fill:none;}.uuid-499cd1f2-1b5f-4e7e-97a7-72fff428902e{fill:#151515;}</style></defs><g id="uuid-abe29482-dbc4-471e-a7e2-69c0b1d146c8"><rect class="uuid-1be48bee-053f-4fa1-a231-85ca7c02118a" width="32" height="32"/></g><g id="uuid-95be8004-5ea6-4c16-88cb-032f49374ef7"><path class="uuid-499cd1f2-1b5f-4e7e-97a7-72fff428902e" d="M28.2085,3.58203l-12-2.56006c-.1377-.0293-.2793-.0293-.41699,0L3.7915,3.58203c-.46143.09863-.7915.50635-.7915.97803v13.43994c0,7.16846,5.83154,13,13,13s13-5.83154,13-13V4.56006c0-.47168-.33008-.87939-.7915-.97803ZM23.79541,11.79541l-8.64648,8.64648c-.31689.31689-.73291.4751-1.14893.4751s-.83203-.1582-1.14893-.4751l-4.64648-4.64648c-.43945-.43945-.43945-1.15137,0-1.59082s1.15137-.43945,1.59082,0l4.20459,4.20459,8.20459-8.20459c.43945-.43945,1.15137-.43945,1.59082,0s.43945,1.15137,0,1.59082Z"/></g></svg>