<?xml version="1.0" encoding="UTF-8"?><svg xmlns="http://www.w3.org/2000/svg" viewBox="0 0 32 32"><defs><style>.uuid-dee3698d-6cde-4a74-870e-b59f466b2554{fill:none;}.uuid-dee3698d-6cde-4a74-870e-b59f466b2554,.uuid-b08785d0-4938-4a48-8f25-16deccff8727{stroke-width:0px;}.uuid-b08785d0-4938-4a48-8f25-16deccff8727{fill:#151515;}</style></defs><g id="uuid-1daec9fa-2e36-4026-8429-d9073b0687a9"><rect class="uuid-dee3698d-6cde-4a74-870e-b59f466b2554" width="32" height="32"/></g><g id="uuid-f771b06d-b966-4001-b9e6-aa878a57ab42"><path class="uuid-b08785d0-4938-4a48-8f25-16deccff8727" d="M11.707,7.707l3.293-3.293v10.5859c0,.5527.4473,1,1,1s1-.4473,1-1V4.4141l3.293,3.293c.1953.1953.4512.293.707.293s.5117-.0977.707-.293c.3906-.3906.3906-1.0234,0-1.4141l-4.6465-4.6465c-.584-.5859-1.5371-.5859-2.1211,0l-4.6465,4.6465c-.3906.3906-.3906,1.0234,0,1.4141s1.0234.3906,1.4141,0Z"/><path class="uuid-b08785d0-4938-4a48-8f25-16deccff8727" d="M29.5,19.25H2.5c-.6895,0-1.25.5605-1.25,1.25v9c0,.6895.5605,1.25,1.25,1.25h27c.6895,0,1.25-.5605,1.25-1.25v-9c0-.6895-.5605-1.25-1.25-1.25ZM12,26.125h-5c-.6211,0-1.125-.5039-1.125-1.125s.5039-1.125,1.125-1.125h5c.6211,0,1.125.5039,1.125,1.125s-.5039,1.125-1.125,1.125ZM25,26.5001c-.8284,0-1.5-.6716-1.5-1.5s.6716-1.5,1.5-1.5,1.5.6716,1.5,1.5-.6716,1.5-1.5,1.5Z"/></g></svg>