<?xml version="1.0" encoding="UTF-8"?><svg xmlns="http://www.w3.org/2000/svg" viewBox="0 0 32 32"><defs><style>.uuid-b17e8c88-0aeb-4645-a62e-7ca1a894c0b3{fill:none;}.uuid-b17e8c88-0aeb-4645-a62e-7ca1a894c0b3,.uuid-b9a79115-4ebb-41cf-8c74-49388e5ed2d2{stroke-width:0px;}.uuid-b9a79115-4ebb-41cf-8c74-49388e5ed2d2{fill:#151515;}</style></defs><g id="uuid-a51e8efd-2bd5-45f5-8fb0-28fbf78d91b9"><rect class="uuid-b17e8c88-0aeb-4645-a62e-7ca1a894c0b3" width="32" height="32"/></g><g id="uuid-9bda0165-45ab-42da-b60f-589116e03efe"><path class="uuid-b9a79115-4ebb-41cf-8c74-49388e5ed2d2" d="M29.5,10.25H2.5c-.6895,0-1.25.5605-1.25,1.25v9c0,.6895.5605,1.25,1.25,1.25h27c.6895,0,1.25-.5605,1.25-1.25v-9c0-.6895-.5605-1.25-1.25-1.25ZM13,17.125h-6c-.6211,0-1.125-.5039-1.125-1.125s.5039-1.125,1.125-1.125h6c.6211,0,1.125.5039,1.125,1.125s-.5039,1.125-1.125,1.125ZM24,17.5003c-.8284,0-1.5-.6716-1.5-1.5s.6716-1.5,1.5-1.5,1.5.6716,1.5,1.5-.6716,1.5-1.5,1.5Z"/></g></svg>