<?xml version="1.0" encoding="UTF-8"?><svg xmlns="http://www.w3.org/2000/svg" width="32" height="32" viewBox="0 0 32 32"><defs><style>.uuid-8fd4d589-f865-4fd1-98b8-d5597ce66458{fill:none;}.uuid-ae45d651-e7eb-4e9b-bc7c-695efd350911{fill:#151515;}</style></defs><g id="uuid-57e0a724-745e-46f0-a9ec-dfa0fa5b7ab3"><rect class="uuid-8fd4d589-f865-4fd1-98b8-d5597ce66458" width="32" height="32"/></g><g id="uuid-efd3ad20-c24e-4aa7-932e-4b19ff13468d"><path class="uuid-ae45d651-e7eb-4e9b-bc7c-695efd350911" d="M12.70703,6.70703l2.29297-2.29297v7.58594c0,.55225.44775,1,1,1s1-.44775,1-1v-7.58594l2.29297,2.29297c.19531.19531.45117.29297.70703.29297s.51172-.09766.70703-.29297c.39062-.39062.39062-1.02344,0-1.41406l-3.64648-3.64648c-.58496-.58496-1.53613-.58496-2.12109,0l-3.64648,3.64648c-.39062.39062-.39062,1.02344,0,1.41406s1.02344.39062,1.41406,0Z"/><path class="uuid-ae45d651-e7eb-4e9b-bc7c-695efd350911" d="M29.5,16H2.5c-.82715,0-1.5.67285-1.5,1.5v11c0,.82715.67285,1.5,1.5,1.5h27c.82715,0,1.5-.67285,1.5-1.5v-11c0-.82715-.67285-1.5-1.5-1.5ZM13,24.125h-5c-.62109,0-1.125-.50391-1.125-1.125s.50391-1.125,1.125-1.125h5c.62109,0,1.125.50391,1.125,1.125s-.50391,1.125-1.125,1.125ZM23.00488,24.89117c-1.03552,0-1.875-.83948-1.875-1.875s.83948-1.875,1.875-1.875,1.875.83948,1.875,1.875-.83948,1.875-1.875,1.875Z"/></g></svg>