<?xml version="1.0" encoding="UTF-8"?><svg xmlns="http://www.w3.org/2000/svg" viewBox="0 0 32 32"><defs><style>.uuid-b0244802-20df-48a1-97e2-2996446566e6{fill:none;}.uuid-b0244802-20df-48a1-97e2-2996446566e6,.uuid-698fa6a4-86fb-4e7c-85be-a2cafa737018{stroke-width:0px;}.uuid-698fa6a4-86fb-4e7c-85be-a2cafa737018{fill:#151515;}</style></defs><g id="uuid-b302c1d9-e3bf-4151-8d4d-772c5c40a8c4"><rect class="uuid-b0244802-20df-48a1-97e2-2996446566e6" width="32" height="32"/></g><g id="uuid-7adbafca-6eca-443d-80d5-7898ecb84181"><path class="uuid-698fa6a4-86fb-4e7c-85be-a2cafa737018" d="M29.5.5H2.5c-.5518,0-1,.4482-1,1v7c0,.5518.4482,1,1,1h27c.5518,0,1-.4482,1-1V1.5c0-.5518-.4482-1-1-1ZM12,6.125h-5c-.6211,0-1.125-.5039-1.125-1.125s.5039-1.125,1.125-1.125h5c.6211,0,1.125.5039,1.125,1.125s-.5039,1.125-1.125,1.125ZM25,6.5003c-.8284,0-1.5-.6716-1.5-1.5s.6716-1.5,1.5-1.5,1.5.6716,1.5,1.5-.6716,1.5-1.5,1.5Z"/><path class="uuid-698fa6a4-86fb-4e7c-85be-a2cafa737018" d="M29.5,11.5H2.5c-.5518,0-1,.4482-1,1v7c0,.5518.4482,1,1,1h27c.5518,0,1-.4482,1-1v-7c0-.5518-.4482-1-1-1ZM12,17.125h-5c-.6211,0-1.125-.5039-1.125-1.125s.5039-1.125,1.125-1.125h5c.6211,0,1.125.5039,1.125,1.125s-.5039,1.125-1.125,1.125ZM25,17.5099c-.8284,0-1.5-.6716-1.5-1.5s.6716-1.5,1.5-1.5,1.5.6716,1.5,1.5-.6716,1.5-1.5,1.5Z"/><path class="uuid-698fa6a4-86fb-4e7c-85be-a2cafa737018" d="M29.5,22.5H2.5c-.5518,0-1,.4482-1,1v7c0,.5518.4482,1,1,1h27c.5518,0,1-.4482,1-1v-7c0-.5518-.4482-1-1-1ZM12,28.125h-5c-.6211,0-1.125-.5039-1.125-1.125s.5039-1.125,1.125-1.125h5c.6211,0,1.125.5039,1.125,1.125s-.5039,1.125-1.125,1.125ZM25,28.5001c-.8284,0-1.5-.6716-1.5-1.5s.6716-1.5,1.5-1.5,1.5.6716,1.5,1.5-.6716,1.5-1.5,1.5Z"/></g></svg>