<svg xmlns="http://www.w3.org/2000/svg" viewBox="0 0 32 32">
  <defs>
    <style>
      .uuid-a1e89446-5a84-47ff-a978-e539e3be65f9{stroke-width:0;fill:#151515}
    </style>
  </defs>
  <path d="M0 0h32v32H0z" id="uuid-502e13c9-3c99-447e-84c4-6a9f838ca825" stroke-width="0" fill="none"/>
  <g id="uuid-1db4a18d-3e44-47f6-9bb5-0ea4461e6ba6">
    <path class="uuid-a1e89446-5a84-47ff-a978-e539e3be65f9" d="M7 26h5a1 1 0 1 0 0-2H7a1 1 0 1 0 0 2Z"/>
    <path class="uuid-a1e89446-5a84-47ff-a978-e539e3be65f9" d="M29.5 19h-27c-.827 0-1.5.673-1.5 1.5v9c0 .827.673 1.5 1.5 1.5h27c.827 0 1.5-.673 1.5-1.5v-9c0-.827-.673-1.5-1.5-1.5ZM29 29H3v-8h26v8ZM11.707 7.707 15 4.414V15a1 1 0 1 0 2 0V4.414l3.293 3.293a.997.997 0 0 0 1.414 0 1 1 0 0 0 0-1.414l-4.646-4.646a1.501 1.501 0 0 0-2.122 0l-4.646 4.646a1 1 0 1 0 1.414 1.414Z"/>
    <circle class="uuid-a1e89446-5a84-47ff-a978-e539e3be65f9" cx="25" cy="25" r="1.5"/>
  </g>
</svg>
