<?xml version="1.0" encoding="UTF-8"?><svg xmlns="http://www.w3.org/2000/svg" width="32" height="32" viewBox="0 0 32 32"><defs><style>.uuid-6df2109e-c4cc-41cc-b7dd-aae5d89448ba{fill:none;}.uuid-0e760a2c-dcc0-4f6f-a9af-567c93407ae2{fill:#151515;}</style></defs><g id="uuid-3d90f91c-dec3-4d90-b5a7-963259951a25"><rect class="uuid-6df2109e-c4cc-41cc-b7dd-aae5d89448ba" width="32" height="32"/></g><g id="uuid-dcb6b0da-ccb4-4c86-9d05-780c0fe95c3d"><path class="uuid-0e760a2c-dcc0-4f6f-a9af-567c93407ae2" d="M12.70703,6.70703l2.29297-2.29297v7.58594c0,.55225.44775,1,1,1s1-.44775,1-1v-7.58594l2.29297,2.29297c.19531.19531.45117.29297.70703.29297s.51172-.09766.70703-.29297c.39062-.39062.39062-1.02344,0-1.41406l-3.64648-3.64648c-.58496-.58496-1.53613-.58496-2.12109,0l-3.64648,3.64648c-.39062.39062-.39062,1.02344,0,1.41406s1.02344.39062,1.41406,0Z"/><path class="uuid-0e760a2c-dcc0-4f6f-a9af-567c93407ae2" d="M29.5,16H2.5c-.82715,0-1.5.67285-1.5,1.5v11c0,.82715.67285,1.5,1.5,1.5h27c.82715,0,1.5-.67285,1.5-1.5v-11c0-.82715-.67285-1.5-1.5-1.5ZM29,28H3v-10h26v10Z"/><path class="uuid-0e760a2c-dcc0-4f6f-a9af-567c93407ae2" d="M8,24h5c.55225,0,1-.44775,1-1s-.44775-1-1-1h-5c-.55225,0-1,.44775-1,1s.44775,1,1,1Z"/><path class="uuid-0e760a2c-dcc0-4f6f-a9af-567c93407ae2" d="M23.00488,24.63989c.89746,0,1.625-.72754,1.625-1.625,0-.00256-.00073-.00494-.00073-.00751,0-.0025.00073-.00488.00073-.00739,0-.43018-.18018-.8501-.47998-1.15039-.1308-.1286-.28595-.22437-.45068-.29846-.02539-.01202-.04889-.02686-.07495-.03766-.01312-.00513-.02698-.00769-.04022-.01245-.18042-.06909-.37445-.11115-.57916-.11115-.14258,0-.27832.02417-.4101.05865-.27728.06561-.53888.19495-.74518.40106-.2998.31006-.46973.72021-.46973,1.15039,0,.00256.00073.005.00073.00757,0,.0025-.00073.00482-.00073.00732,0,.89746.72754,1.625,1.625,1.625Z"/></g></svg>