<?xml version="1.0" encoding="UTF-8"?><svg xmlns="http://www.w3.org/2000/svg" viewBox="0 0 32 32"><defs><style>.uuid-dabef098-4830-47c1-b8f2-1b8ba727170c{fill:none;}.uuid-dabef098-4830-47c1-b8f2-1b8ba727170c,.uuid-e66ac19c-e26e-4088-be09-ddf4d56cdc96{stroke-width:0px;}.uuid-e66ac19c-e26e-4088-be09-ddf4d56cdc96{fill:#151515;}</style></defs><g id="uuid-16199563-289a-49b4-8f0c-38ee7c116a95"><rect class="uuid-dabef098-4830-47c1-b8f2-1b8ba727170c" x="0" width="32" height="32"/></g><g id="uuid-de336427-cc8c-4337-b2e0-c7b341844a14"><path class="uuid-e66ac19c-e26e-4088-be09-ddf4d56cdc96" d="M29.5,10H2.5c-.8271,0-1.5.6729-1.5,1.5v9c0,.8271.6729,1.5,1.5,1.5h27c.8271,0,1.5-.6729,1.5-1.5v-9c0-.8271-.6729-1.5-1.5-1.5ZM29,20H3v-8h26v8Z"/><path class="uuid-e66ac19c-e26e-4088-be09-ddf4d56cdc96" d="M7,17h6c.5527,0,1-.4478,1-1s-.4473-1-1-1h-6c-.5527,0-1,.4478-1,1s.4473,1,1,1Z"/><circle class="uuid-e66ac19c-e26e-4088-be09-ddf4d56cdc96" cx="24" cy="15.9999" r="1.5"/></g></svg>