<?xml version="1.0" encoding="UTF-8"?><svg xmlns="http://www.w3.org/2000/svg" viewBox="0 0 32 32"><defs><style>.uuid-fcfbaf2f-b698-48d9-92c4-8b3c92ffc4b0{fill:none;}.uuid-fcfbaf2f-b698-48d9-92c4-8b3c92ffc4b0,.uuid-a1e89446-5a84-47ff-a978-e539e3be65f9{stroke-width:0px;}.uuid-a1e89446-5a84-47ff-a978-e539e3be65f9{fill:#151515;}</style></defs><g id="uuid-502e13c9-3c99-447e-84c4-6a9f838ca825"><rect class="uuid-fcfbaf2f-b698-48d9-92c4-8b3c92ffc4b0" x="0" width="32" height="32"/></g><g id="uuid-1db4a18d-3e44-47f6-9bb5-0ea4461e6ba6"><path class="uuid-a1e89446-5a84-47ff-a978-e539e3be65f9" d="M7,26h5c.5527,0,1-.4478,1-1s-.4473-1-1-1h-5c-.5527,0-1,.4478-1,1s.4473,1,1,1Z"/><path class="uuid-a1e89446-5a84-47ff-a978-e539e3be65f9" d="M29.5,19H2.5c-.8271,0-1.5.6729-1.5,1.5v9c0,.8271.6729,1.5,1.5,1.5h27c.8271,0,1.5-.6729,1.5-1.5v-9c0-.8271-.6729-1.5-1.5-1.5ZM29,29H3v-8h26v8Z"/><path class="uuid-a1e89446-5a84-47ff-a978-e539e3be65f9" d="M11.707,7.707l3.293-3.293v10.5859c0,.5522.4473,1,1,1s1-.4478,1-1V4.4141l3.293,3.293c.1953.1953.4512.293.707.293s.5117-.0977.707-.293c.3906-.3906.3906-1.0234,0-1.4141l-4.6465-4.6465c-.584-.585-1.5371-.585-2.1211,0l-4.6465,4.6465c-.3906.3906-.3906,1.0234,0,1.4141s1.0234.3906,1.4141,0Z"/><circle class="uuid-a1e89446-5a84-47ff-a978-e539e3be65f9" cx="25" cy="25.0002" r="1.5"/></g></svg>