<?xml version="1.0" encoding="UTF-8"?><svg xmlns="http://www.w3.org/2000/svg" width="32" height="32" viewBox="0 0 32 32"><defs><style>.uuid-6a753cf3-d93e-438d-9a34-0218cd768c03{fill:none;}.uuid-652dc7cd-510c-4c58-8f2a-d75c4d358500{fill:#151515;}</style></defs><g id="uuid-f6a7a003-b86c-4613-8523-f340b175e687"><rect class="uuid-6a753cf3-d93e-438d-9a34-0218cd768c03" width="32" height="32"/></g><g id="uuid-eca6eda8-b7cd-4f9b-979e-3af581f16ed0"><path class="uuid-652dc7cd-510c-4c58-8f2a-d75c4d358500" d="M29.5,9H2.5c-.82715,0-1.5.67285-1.5,1.5v11c0,.82715.67285,1.5,1.5,1.5h27c.82715,0,1.5-.67285,1.5-1.5v-11c0-.82715-.67285-1.5-1.5-1.5ZM13,17.125h-5c-.62109,0-1.125-.50391-1.125-1.125s.50391-1.125,1.125-1.125h5c.62109,0,1.125.50391,1.125,1.125s-.50391,1.125-1.125,1.125ZM23.00488,17.89117c-1.03552,0-1.875-.83948-1.875-1.875s.83948-1.875,1.875-1.875,1.875.83948,1.875,1.875-.83948,1.875-1.875,1.875Z"/></g></svg>