<svg xmlns="http://www.w3.org/2000/svg" viewBox="0 0 32 32">
  <defs>
    <style>
      .uuid-e66ac19c-e26e-4088-be09-ddf4d56cdc96{stroke-width:0;fill:#151515}
    </style>
  </defs>
  <path d="M0 0h32v32H0z" id="uuid-16199563-289a-49b4-8f0c-38ee7c116a95" stroke-width="0" fill="none"/>
  <g id="uuid-de336427-cc8c-4337-b2e0-c7b341844a14">
    <path class="uuid-e66ac19c-e26e-4088-be09-ddf4d56cdc96" d="M29.5 10h-27c-.827 0-1.5.673-1.5 1.5v9c0 .827.673 1.5 1.5 1.5h27c.827 0 1.5-.673 1.5-1.5v-9c0-.827-.673-1.5-1.5-1.5ZM29 20H3v-8h26v8Z"/>
    <path class="uuid-e66ac19c-e26e-4088-be09-ddf4d56cdc96" d="M7 17h6a1 1 0 1 0 0-2H7a1 1 0 1 0 0 2Z"/>
    <circle class="uuid-e66ac19c-e26e-4088-be09-ddf4d56cdc96" cx="24" cy="16" r="1.5"/>
  </g>
</svg>
