<?xml version="1.0" encoding="UTF-8"?><svg xmlns="http://www.w3.org/2000/svg" width="32" height="32" viewBox="0 0 32 32"><defs><style>.uuid-9fc79428-c28b-4027-b952-d527f199a685{fill:none;}.uuid-5edccdfd-658f-45fd-b061-44ec5dd37c1c{fill:#151515;}</style></defs><g id="uuid-25c1d72a-443a-4b0a-a0f6-a7670d023a27"><rect class="uuid-9fc79428-c28b-4027-b952-d527f199a685" width="32" height="32"/></g><g id="uuid-226ec2f3-c012-4783-a524-a3db614ccf83"><path class="uuid-5edccdfd-658f-45fd-b061-44ec5dd37c1c" d="M29.5,9H2.5c-.82715,0-1.5.67285-1.5,1.5v11c0,.82715.67285,1.5,1.5,1.5h27c.82715,0,1.5-.67285,1.5-1.5v-11c0-.82715-.67285-1.5-1.5-1.5ZM29,21H3v-10h26v10Z"/><path class="uuid-5edccdfd-658f-45fd-b061-44ec5dd37c1c" d="M8,17h5c.55225,0,1-.44775,1-1s-.44775-1-1-1h-5c-.55225,0-1,.44775-1,1s.44775,1,1,1Z"/><circle class="uuid-5edccdfd-658f-45fd-b061-44ec5dd37c1c" cx="23.00488" cy="16.01489" r="1.625"/></g></svg>