<?xml version="1.0" encoding="UTF-8"?><svg xmlns="http://www.w3.org/2000/svg" width="32" height="32" viewBox="0 0 32 32"><defs><style>.uuid-ecfc6f50-9b00-4023-9a9f-bd9eaf80270e{fill:none;}.uuid-24c404de-fa4b-42a3-8c56-c5d1ffd08b8e{fill:#151515;}</style></defs><g id="uuid-a330b4bd-a9ed-4d99-a317-83356b7fc2c9"><rect class="uuid-ecfc6f50-9b00-4023-9a9f-bd9eaf80270e" width="32" height="32"/></g><g id="uuid-b9b0007a-3bfd-42b4-8264-744afb522d9a"><path class="uuid-24c404de-fa4b-42a3-8c56-c5d1ffd08b8e" d="M28.5,1H3.5c-.82715,0-1.5.67285-1.5,1.5v27c0,.82715.67285,1.5,1.5,1.5h25c.82715,0,1.5-.67285,1.5-1.5V2.5c0-.82715-.67285-1.5-1.5-1.5ZM28,29H4V3h24v26Z"/><path class="uuid-24c404de-fa4b-42a3-8c56-c5d1ffd08b8e" d="M8,9h5c.55225,0,1-.44775,1-1s-.44775-1-1-1h-5c-.55225,0-1,.44775-1,1s.44775,1,1,1Z"/><path class="uuid-24c404de-fa4b-42a3-8c56-c5d1ffd08b8e" d="M8,25h5c.55225,0,1-.44775,1-1s-.44775-1-1-1h-5c-.55225,0-1,.44775-1,1s.44775,1,1,1Z"/><path class="uuid-24c404de-fa4b-42a3-8c56-c5d1ffd08b8e" d="M8,17h5c.55225,0,1-.44775,1-1s-.44775-1-1-1h-5c-.55225,0-1,.44775-1,1s.44775,1,1,1Z"/><circle class="uuid-24c404de-fa4b-42a3-8c56-c5d1ffd08b8e" cx="23.00488" cy="8.01294" r="1.625"/><circle class="uuid-24c404de-fa4b-42a3-8c56-c5d1ffd08b8e" cx="23.00488" cy="16.01294" r="1.625"/><circle class="uuid-24c404de-fa4b-42a3-8c56-c5d1ffd08b8e" cx="22.99976" cy="24.01489" r="1.625"/></g></svg>