<?xml version="1.0" encoding="UTF-8"?><svg xmlns="http://www.w3.org/2000/svg" width="32" height="32" viewBox="0 0 32 32"><defs><style>.uuid-666ea9ae-f80e-457a-81df-5b0163a5a616{fill:none;}.uuid-2f85b290-467a-42fd-b71e-c520c353e38e{fill:#151515;}</style></defs><g id="uuid-69a53bc2-1ea3-4a0e-9f87-dae196e4a6f8"><rect class="uuid-666ea9ae-f80e-457a-81df-5b0163a5a616" width="32" height="32"/></g><g id="uuid-fa4d5788-58c3-42c7-aecd-10f8797b4166"><path class="uuid-2f85b290-467a-42fd-b71e-c520c353e38e" d="M16,11c-2.75684,0-5,2.24316-5,5s2.24316,5,5,5,5-2.24316,5-5-2.24316-5-5-5ZM16,19c-1.6543,0-3-1.3457-3-3s1.3457-3,3-3,3,1.3457,3,3-1.3457,3-3,3Z"/><path class="uuid-2f85b290-467a-42fd-b71e-c520c353e38e" d="M30.65723,12.78857c-.09961-.46045-.50684-.78857-.97754-.78857h-2.37305c-.14062-.3999-.30176-.79053-.48145-1.16846l1.67676-1.67627c.33301-.33252.38867-.85303.13379-1.24902-.58398-.90576-1.2666-1.75098-2.0293-2.5127-.76562-.76611-1.6123-1.44873-2.51367-2.02881-.39453-.25342-.91406-.2002-1.24805.13379l-1.67676,1.67627c-.37793-.17969-.76758-.34082-1.16797-.48145v-2.37354c0-.4707-.32812-.87793-.78809-.97754-2.09961-.4541-4.32422-.4541-6.42383,0-.45996.09961-.78809.50684-.78809.97754v2.37354c-.40039.14062-.79004.30176-1.16797.48145l-1.67676-1.67627c-.33301-.33398-.85449-.38721-1.24805-.13379-.90137.58008-1.74805,1.2627-2.51367,2.02832-.7627.76221-1.44531,1.60742-2.0293,2.51318-.25488.396-.19922.9165.13379,1.24902l1.67676,1.67627c-.17969.37793-.34082.76855-.48145,1.16846h-2.37305c-.4707,0-.87793.32812-.97754.78857-.22754,1.05078-.34277,2.13135-.34277,3.21143,0,1.07959.11523,2.16016.34277,3.21143.09961.46045.50684.78857.97754.78857h2.37305c.14062.3999.30176.79053.48145,1.16846l-1.67676,1.67627c-.33301.33252-.38867.85303-.13379,1.24902.58301.9043,1.26562,1.74951,2.0293,2.5127.76562.76611,1.6123,1.44873,2.51367,2.02881.39355.25439.91504.19971,1.24805-.13379l1.67676-1.67627c.37793.17969.76758.34082,1.16797.48145v2.37354c0,.4707.32812.87793.78809.97754,1.0498.22705,2.13086.34229,3.21191.34229s2.16211-.11523,3.21191-.34229c.45996-.09961.78809-.50684.78809-.97754v-2.37354c.40039-.14062.79004-.30176,1.16797-.48145l1.67676,1.67627c.33398.3335.85352.38818,1.24805.13379.90137-.58008,1.74805-1.2627,2.51367-2.02881.76367-.76318,1.44629-1.6084,2.0293-2.5127.25488-.396.19922-.9165-.13379-1.24902l-1.67676-1.67627c.17969-.37793.34082-.76855.48145-1.16846h2.37305c.4707,0,.87793-.32812.97754-.78857.22754-1.05127.34277-2.13184.34277-3.21143,0-1.08008-.11523-2.16064-.34277-3.21143ZM28.84766,18h-2.27246c-.44727,0-.83984.29688-.96191.72705-.21484.7583-.5127,1.47949-.88477,2.14404-.21777.39062-.15039.87891.16602,1.19531l1.60449,1.604c-.39551.53857-.83301,1.04834-1.30664,1.52197-.47461.47461-.98438.91211-1.52148,1.30664l-1.60449-1.604c-.31641-.31689-.80469-.38428-1.19531-.16602-.66504.37207-1.38574.66943-2.14355.88428-.43066.12207-.72754.51465-.72754.96191v2.27295c-1.31836.20215-2.68164.20215-4,0v-2.27295c0-.44727-.29688-.83984-.72754-.96191-.75781-.21484-1.47852-.51221-2.14355-.88428-.39062-.21777-.87793-.1499-1.19531.16602l-1.60449,1.604c-.53711-.39453-1.04688-.83203-1.52148-1.30664-.47363-.47363-.91113-.9834-1.30664-1.52197l1.60449-1.604c.31641-.31641.38379-.80469.16602-1.19531-.37207-.66455-.66992-1.38574-.88477-2.14404-.12207-.43018-.51465-.72705-.96191-.72705h-2.27246c-.10156-.66064-.15234-1.33057-.15234-2,0-.66992.05078-1.33936.15234-2h2.27246c.44727,0,.83984-.29688.96191-.72705.21484-.7583.5127-1.47949.88477-2.14404.21777-.39062.15039-.87891-.16602-1.19531l-1.60449-1.604c.39648-.53955.83398-1.04932,1.30664-1.52197.47461-.47461.98438-.91211,1.52148-1.30664l1.60449,1.604c.31641.31641.80469.3833,1.19531.16602.66504-.37207,1.38574-.66943,2.14355-.88428.43066-.12207.72754-.51465.72754-.96191v-2.27295c1.31836-.20215,2.68164-.20215,4,0v2.27295c0,.44727.29688.83984.72754.96191.75781.21484,1.47852.51221,2.14355.88428.3916.21777.87891.15039,1.19531-.16602l1.60449-1.604c.53711.39453,1.04688.83203,1.52148,1.30713.47266.47217.91113.98193,1.30664,1.52148l-1.60449,1.604c-.31641.31641-.38379.80469-.16602,1.19531.37207.66455.66992,1.38574.88477,2.14404.12207.43018.51465.72705.96191.72705h2.27246c.10156.66064.15234,1.33008.15234,2,0,.66943-.05078,1.33936-.15234,2Z"/></g></svg>