<?xml version="1.0" encoding="UTF-8"?><svg xmlns="http://www.w3.org/2000/svg" viewBox="0 0 32 32"><defs><style>.uuid-c942b9c6-0266-4243-9015-a000ae4cb060{fill:none;}.uuid-c942b9c6-0266-4243-9015-a000ae4cb060,.uuid-ae7e9804-d1a8-4567-b6b6-64d5c72a0f0b{stroke-width:0px;}.uuid-ae7e9804-d1a8-4567-b6b6-64d5c72a0f0b{fill:#151515;}</style></defs><g id="uuid-a738e205-d53a-471e-b6be-f57f12b5657c"><rect class="uuid-c942b9c6-0266-4243-9015-a000ae4cb060" x="0" width="32" height="32"/></g><g id="uuid-16aaaad1-f6d9-4b43-a371-829ee01f29a4"><path class="uuid-ae7e9804-d1a8-4567-b6b6-64d5c72a0f0b" d="M31.2695,13.3301c-.082-.4814-.5-.8301-.9932-.8301l-3.3291-.001c-.1963-.6143-.4424-1.209-.7354-1.7617l2.3545-2.3535c.3467-.3486.3945-.8906.1143-1.2891-1.0352-1.4707-2.3047-2.7402-3.7754-3.7744-.3965-.2822-.9404-.2334-1.29.1143l-2.3467,2.3477c-.5586-.2871-1.1533-.5332-1.7686-.7207V1.7236c0-.4922-.3486-.9092-.8291-.9932-1.7617-.3066-3.5791-.3066-5.3428,0-.4795.084-.8281.501-.8281.9932l-.001,3.3291c-.6143.1963-1.209.4424-1.7617.7354l-2.3535-2.3545c-.3496-.3467-.8896-.3945-1.2891-.1143-1.4707,1.0352-2.7402,2.3047-3.7744,3.7754-.2812.3984-.2334.9404.1143,1.29l2.3477,2.3467c-.2871.5586-.5332,1.1533-.7207,1.7686H1.7236c-.4932,0-.9111.3486-.9922.8281-.1533.8789-.2314,1.7783-.2314,2.6719s.0781,1.793.2305,2.6699c.082.4814.5.8301.9932.8301l3.3291.001c.1963.6143.4424,1.209.7354,1.7617l-2.3545,2.3535c-.3467.3486-.3945.8906-.1143,1.2891,1.0352,1.4707,2.3047,2.7402,3.7754,3.7744.3975.2822.9414.2334,1.29-.1143l2.3467-2.3477c.5586.2871,1.1533.5332,1.7686.7207v3.3379c0,.4922.3486.9092.8291.9932.8809.1533,1.7793.2305,2.6709.2305s1.79-.0771,2.6719-.2305c.4795-.084.8281-.501.8281-.9932l.001-3.3291c.6143-.1963,1.209-.4424,1.7617-.7354l2.3535,2.3545c.3486.3457.8896.3936,1.2891.1143,1.4707-1.0352,2.7402-2.3047,3.7744-3.7754.2812-.3984.2334-.9404-.1143-1.29l-2.3477-2.3467c.2871-.5586.5332-1.1533.7207-1.7686h3.3379c.4932,0,.9111-.3486.9922-.8281.1533-.8789.2314-1.7783.2314-2.6719s-.0781-1.793-.2305-2.6699ZM16,20c-2.2061,0-4-1.7939-4-4s1.7939-4,4-4,4,1.7939,4,4-1.7939,4-4,4Z"/></g></svg>