<?xml version="1.0" encoding="UTF-8"?><svg xmlns="http://www.w3.org/2000/svg" width="32" height="32" viewBox="0 0 32 32"><defs><style>.uuid-a14aef41-5ded-426b-adbd-4a51ef21d5ec{fill:none;}.uuid-294a4cbb-cf66-42a8-8eaf-99b3f802616e{fill:#151515;}</style></defs><g id="uuid-3aeb65df-f820-4539-91b3-169dd727770a"><rect class="uuid-a14aef41-5ded-426b-adbd-4a51ef21d5ec" width="32" height="32"/></g><g id="uuid-a707930a-ced7-4560-b206-e0a0f14faa5b"><path class="uuid-294a4cbb-cf66-42a8-8eaf-99b3f802616e" d="M30.16797,12.89404c-.0498-.22998-.25293-.39404-.48828-.39404h-2.73242c-.19629-.61475-.44043-1.20703-.72949-1.76855l1.93066-1.92969c.16699-.1665.19434-.42676.06641-.62451-.56445-.87598-1.22461-1.69336-1.96191-2.43018-.74121-.74121-1.55859-1.40137-2.43066-1.96191-.19727-.12793-.45703-.1001-.62402.06689l-1.92969,1.92969c-.56152-.28906-1.1543-.53271-1.76855-.72852v-2.7334c0-.23535-.16406-.43896-.39453-.48877-2.0293-.43945-4.18164-.43945-6.21094,0-.23047.0498-.39453.25342-.39453.48877v2.7334c-.61426.1958-1.20703.43945-1.76855.72852l-1.92969-1.92969c-.16699-.16699-.42676-.19482-.62402-.06689-.87207.56055-1.68945,1.2207-2.43066,1.96191-.7373.73682-1.39746,1.5542-1.96191,2.43018-.12793.19775-.10059.45801.06641.62451l1.93066,1.92969c-.28906.56152-.5332,1.15381-.72949,1.76855h-2.73242c-.23535,0-.43848.16406-.48828.39404-.2207,1.0166-.33203,2.06152-.33203,3.10596,0,1.04395.11133,2.08887.33203,3.10596.0498.22998.25293.39404.48828.39404h2.73242c.19629.61475.44043,1.20703.72949,1.76855l-1.93066,1.92969c-.16699.1665-.19434.42676-.06641.62451.56348.87451,1.22363,1.69189,1.96191,2.43018.74121.74121,1.55859,1.40137,2.43066,1.96191.19727.12744.45703.10059.62402-.06689l1.92969-1.92969c.56152.28906,1.1543.53271,1.76855.72852v2.7334c0,.23535.16406.43896.39453.48877,1.01465.21973,2.05957.33105,3.10547.33105s2.09082-.11133,3.10547-.33105c.23047-.0498.39453-.25342.39453-.48877v-2.7334c.61426-.1958,1.20703-.43945,1.76855-.72852l1.92969,1.92969c.16699.16748.42676.19434.62402.06689.87207-.56055,1.68945-1.2207,2.43066-1.96191.73828-.73828,1.39844-1.55566,1.96191-2.43018.12793-.19775.10059-.45801-.06641-.62451l-1.93066-1.92969c.28906-.56152.5332-1.15381.72949-1.76855h2.73242c.23535,0,.43848-.16406.48828-.39404.2207-1.01709.33203-2.06201.33203-3.10596,0-1.04443-.11133-2.08936-.33203-3.10596ZM16,21.25c-2.89453,0-5.25-2.35498-5.25-5.25s2.35547-5.25,5.25-5.25,5.25,2.35498,5.25,5.25-2.35547,5.25-5.25,5.25Z"/></g></svg>