<?xml version="1.0" encoding="UTF-8"?><svg xmlns="http://www.w3.org/2000/svg" width="32" height="32" viewBox="0 0 32 32"><defs><style>.uuid-9a9b6632-3021-4d0f-be00-18c79e612781{fill:none;}.uuid-9ed99e8e-c6bc-423f-a418-8f549460399a{fill:#151515;}</style></defs><g id="uuid-67e4a849-6643-4ebd-9527-ba89ac1b4049"><rect class="uuid-9a9b6632-3021-4d0f-be00-18c79e612781" width="32" height="32"/></g><g id="uuid-08e2ead0-572c-41d8-b597-03b3aa26ca97"><path class="uuid-9ed99e8e-c6bc-423f-a418-8f549460399a" d="M29.40674,7.875l-13-5.78809c-.25879-.11523-.55469-.11523-.81348,0L2.59326,7.875c-.36084.16016-.59326.51855-.59326.91309v9.21191c0,.33887.17139.6543.45557.83887.28418.18359.64258.21387.95117.07422l12.59326-5.60645,12.59326,5.60645c.12988.05859.26855.08691.40674.08691.19043,0,.37988-.05469.54443-.16113.28418-.18457.45557-.5.45557-.83887v-9.21191c0-.39453-.23242-.75293-.59326-.91309Z"/><path class="uuid-9ed99e8e-c6bc-423f-a418-8f549460399a" d="M29.40674,23.08691l-13-5.78809c-.25879-.11523-.55469-.11523-.81348,0l-13,5.78809c-.36084.16016-.59326.51855-.59326.91309v5c0,.33887.17139.6543.45557.83887s.64258.21387.95117.07422l12.59326-5.60645,12.59326,5.60645c.12988.05859.26855.08691.40674.08691.19043,0,.37988-.05469.54443-.16113.28418-.18457.45557-.5.45557-.83887v-5c0-.39453-.23242-.75293-.59326-.91309Z"/></g></svg>