<?xml version="1.0" encoding="UTF-8"?><svg xmlns="http://www.w3.org/2000/svg" width="32" height="32" viewBox="0 0 32 32"><defs><style>.uuid-0bf35180-1da4-466c-a9b7-0a5ae581d926{fill:none;}.uuid-aca36657-1ce2-4bd8-bf5e-9b5b46646d05{fill:#151515;}</style></defs><g id="uuid-bb1ebd28-b0de-4fef-be46-18331f5ebcc8"><rect class="uuid-0bf35180-1da4-466c-a9b7-0a5ae581d926" width="32" height="32"/></g><g id="uuid-54e4a231-e57f-4cd8-a3d9-7341d1a35aa8"><path class="uuid-aca36657-1ce2-4bd8-bf5e-9b5b46646d05" d="M29.54443,13.16113c-.2832-.18359-.6416-.21289-.95117-.07422l-12.59326,5.60645L3.40674,13.08691c-.30908-.13867-.66699-.10938-.95117.07422-.28418.18457-.45557.5-.45557.83887v9.21191c0,.39453.23242.75293.59326.91309l13,5.78809c.12939.05762.26807.08691.40674.08691s.27734-.0293.40674-.08691l13-5.78809c.36084-.16016.59326-.51855.59326-.91309v-9.21191c0-.33887-.17139-.6543-.45557-.83887Z"/><path class="uuid-aca36657-1ce2-4bd8-bf5e-9b5b46646d05" d="M29.54443,2.16113c-.2832-.18359-.6416-.21387-.95117-.07422l-12.59326,5.60645L3.40674,2.08691c-.30908-.13965-.66699-.11035-.95117.07422s-.45557.5-.45557.83887v5c0,.39453.23242.75293.59326.91309l13,5.78809c.12939.05762.26807.08691.40674.08691s.27734-.0293.40674-.08691l13-5.78809c.36084-.16016.59326-.51855.59326-.91309V3c0-.33887-.17139-.6543-.45557-.83887Z"/></g></svg>