<?xml version="1.0" encoding="UTF-8"?><svg xmlns="http://www.w3.org/2000/svg" width="32" height="32" viewBox="0 0 32 32"><defs><style>.uuid-5754fce7-0ee2-467d-bb45-00b951b1fe54{fill:none;}.uuid-09db823c-c955-4cfa-b9da-97f9fc1cfcf9{fill:#151515;}</style></defs><g id="uuid-0ab1895c-85c7-4eaa-ae9f-e7674ed0faa5"><rect class="uuid-5754fce7-0ee2-467d-bb45-00b951b1fe54" width="32" height="32"/></g><g id="uuid-b546f448-21b3-4a5b-8af5-da804e2d7553"><path class="uuid-09db823c-c955-4cfa-b9da-97f9fc1cfcf9" d="M29.40674,7.875l-13-5.78809c-.25879-.11523-.55469-.11523-.81348,0L2.59326,7.875c-.36084.16016-.59326.51855-.59326.91309v20.21191c0,.33887.17139.6543.45557.83887.28369.18457.64258.21387.95117.07422l12.59326-5.60645,12.59326,5.60645c.12988.05859.26855.08691.40674.08691.19043,0,.37988-.05469.54443-.16113.28418-.18457.45557-.5.45557-.83887V8.78809c0-.39453-.23242-.75293-.59326-.91309Z"/></g></svg>