<?xml version="1.0" encoding="UTF-8"?><svg xmlns="http://www.w3.org/2000/svg" width="32" height="32" viewBox="0 0 32 32"><defs><style>.uuid-8d974a0a-acd1-4899-a937-066a68544f5e{fill:none;}.uuid-a5fb259a-2a3f-4525-85f8-eecf10eb3aaa{fill:#151515;}</style></defs><g id="uuid-25342490-9ac7-4373-ae41-c49d147952fb"><rect class="uuid-8d974a0a-acd1-4899-a937-066a68544f5e" width="32" height="32"/></g><g id="uuid-3a3d3047-e500-4253-b086-f99d4528f55e"><path class="uuid-a5fb259a-2a3f-4525-85f8-eecf10eb3aaa" d="M27,23c-1.20038,0-2.26605.54224-2.99976,1.38196l-15.09137-7.54565c.05774-.27014.09113-.54913.09113-.8363s-.03339-.56616-.09113-.8363l15.09137-7.54565c.7337.83972,1.79938,1.38196,2.99976,1.38196,2.20605,0,4-1.79443,4-4s-1.79395-4-4-4-4,1.79443-4,4c0,.28717.03339.56616.09113.8363l-15.09137,7.54565c-.7337-.83972-1.79938-1.38196-2.99976-1.38196-2.20605,0-4,1.79443-4,4s1.79395,4,4,4c1.20038,0,2.26605-.54224,2.99976-1.38196l15.09137,7.54565c-.05774.27014-.09113.54913-.09113.8363,0,2.20557,1.79395,4,4,4s4-1.79443,4-4-1.79395-4-4-4Z"/></g></svg>