<?xml version="1.0" encoding="UTF-8"?><svg xmlns="http://www.w3.org/2000/svg" viewBox="0 0 32 32"><defs><style>.uuid-92863216-7747-4947-9c95-d63b0e931070{fill:none;}.uuid-92863216-7747-4947-9c95-d63b0e931070,.uuid-279299e0-d785-4d7f-b141-3c8781b512ed{stroke-width:0px;}.uuid-279299e0-d785-4d7f-b141-3c8781b512ed{fill:#151515;}</style></defs><g id="uuid-e00f33f9-c17e-4f0b-8bb0-0c6beb760231"><rect class="uuid-92863216-7747-4947-9c95-d63b0e931070" x="0" width="32" height="32"/></g><g id="uuid-78b76a41-aa47-40c6-adc3-7331daafacb2"><path class="uuid-279299e0-d785-4d7f-b141-3c8781b512ed" d="M27,22.25c-1.5499,0-2.9158.7571-3.7834,1.9092l-13.6768-6.8381c.1234-.4222.2102-.8596.2102-1.321,0-.4454-.0814-.8682-.1966-1.2773l13.6924-6.8465c.8691,1.1312,2.2207,1.8738,3.7542,1.8738,2.6191,0,4.75-2.1309,4.75-4.75S29.6191.25,27,.25s-4.75,2.1309-4.75,4.75c0,.3698.0522.7258.1326,1.0715l-13.7673,6.884c-.872-1.0338-2.1601-1.7054-3.6152-1.7054-2.6191,0-4.75,2.1309-4.75,4.75s2.1309,4.75,4.75,4.75c1.4385,0,2.7139-.6563,3.5857-1.6697l13.7834,6.8914c-.0738.332-.1191.6743-.1191,1.0283,0,2.6191,2.1309,4.75,4.75,4.75s4.75-2.1309,4.75-4.75-2.1309-4.75-4.75-4.75Z"/></g></svg>