<?xml version="1.0" encoding="UTF-8"?><svg xmlns="http://www.w3.org/2000/svg" width="32" height="32" viewBox="0 0 32 32"><defs><style>.uuid-bc357d98-08f3-46da-9a54-e436eaafec69{fill:none;}.uuid-f9455133-4e35-46b9-a361-8a487badef94{fill:#151515;}</style></defs><g id="uuid-6ea32eb6-3c09-4814-a6bb-b2e41de6090b"><rect class="uuid-bc357d98-08f3-46da-9a54-e436eaafec69" width="32" height="32"/></g><g id="uuid-8464efed-5a9f-4cc2-8214-c9deccb0f085"><path class="uuid-f9455133-4e35-46b9-a361-8a487badef94" d="M10.70703,8.70703l4.29297-4.29297v18.58594c0,.55225.44727,1,1,1s1-.44775,1-1V4.41406l4.29297,4.29297c.19531.19531.45117.29297.70703.29297s.51172-.09766.70703-.29297c.39062-.39062.39062-1.02344,0-1.41406l-5.64648-5.64648c-.58398-.58496-1.53711-.58496-2.12109,0l-5.64648,5.64648c-.39062.39062-.39062,1.02344,0,1.41406s1.02344.39062,1.41406,0Z"/><path class="uuid-f9455133-4e35-46b9-a361-8a487badef94" d="M24.5,14h-2.5c-.55273,0-1,.44775-1,1s.44727,1,1,1h2v13H8v-13h2c.55273,0,1-.44775,1-1s-.44727-1-1-1h-2.5c-.82715,0-1.5.67285-1.5,1.5v14c0,.82715.67285,1.5,1.5,1.5h17c.82715,0,1.5-.67285,1.5-1.5v-14c0-.82715-.67285-1.5-1.5-1.5Z"/></g></svg>