<?xml version="1.0" encoding="UTF-8"?><svg xmlns="http://www.w3.org/2000/svg" width="32" height="32" viewBox="0 0 32 32"><defs><style>.uuid-48a57d74-1035-4f23-9368-842b34eaa600{fill:none;}.uuid-e7a1890c-de91-41da-b96e-27c1df05a717{fill:#151515;}</style></defs><g id="uuid-ace453e4-e23b-443d-8b5d-83f2a60f271d"><rect class="uuid-48a57d74-1035-4f23-9368-842b34eaa600" width="32" height="32"/></g><g id="uuid-96d1a631-ec5e-4724-a818-af2806404ba1"><path class="uuid-e7a1890c-de91-41da-b96e-27c1df05a717" d="M24.5,14h-7.375v10c0,.62109-.50391,1.125-1.125,1.125s-1.125-.50391-1.125-1.125v-10h-7.375c-.82715,0-1.5.67285-1.5,1.5v14c0,.82715.67285,1.5,1.5,1.5h17c.82715,0,1.5-.67285,1.5-1.5v-14c0-.82715-.67285-1.5-1.5-1.5Z"/><path class="uuid-e7a1890c-de91-41da-b96e-27c1df05a717" d="M10.70703,8.70703l4.29297-4.29297v9.58594h2V4.41406l4.29297,4.29297c.19531.19531.45117.29297.70703.29297s.51172-.09766.70703-.29297c.39062-.39062.39062-1.02344,0-1.41406l-5.64648-5.64648c-.58398-.58496-1.53711-.58496-2.12109,0l-5.64648,5.64648c-.39062.39062-.39062,1.02344,0,1.41406s1.02344.39062,1.41406,0Z"/></g></svg>