<?xml version="1.0" encoding="UTF-8"?><svg xmlns="http://www.w3.org/2000/svg" width="32" height="32" viewBox="0 0 32 32"><defs><style>.uuid-50da525e-b0ae-4a87-93dd-47d174f08706{fill:none;}.uuid-4ea319ed-4acd-4307-9440-720e8b09a54f{fill:#151515;}</style></defs><g id="uuid-d2243d71-5c45-4d2c-8f2f-af0efdc99f05"><rect class="uuid-50da525e-b0ae-4a87-93dd-47d174f08706" width="32" height="32"/></g><g id="uuid-a2330f02-c691-4250-ac3c-e7a0b95ee002"><path class="uuid-4ea319ed-4acd-4307-9440-720e8b09a54f" d="M27,23c-1.21002,0-2.28998.53003-3.02002,1.38l-15.07001-7.53998c.06-.27002.09003-.55005.09003-.84003s-.03003-.57001-.09003-.84003l15.07001-7.53998c.73004.84998,1.81,1.38,3.02002,1.38,2.21002,0,4-1.78998,4-4s-1.78998-4-4-4-4,1.78998-4,4c0,.28998.03003.57001.09003.84003l-15.07001,7.53998c-.73004-.84998-1.81-1.38-3.02002-1.38-2.21002,0-4,1.78998-4,4s1.78998,4,4,4c1.21002,0,2.28998-.53003,3.02002-1.38l15.07001,7.53998c-.06.27002-.09003.55005-.09003.84003,0,2.21002,1.78998,4,4,4s4-1.78998,4-4-1.78998-4-4-4ZM25.01001,4.88c.06-1.04999.92999-1.88,1.98999-1.88,1.09998,0,2,.90002,2,2s-.90002,2-2,2c-.40997,0-.78998-.12-1.10999-.33002-.53003-.37-.89001-.97998-.89001-1.66998,0-.03998,0-.08002.01001-.12ZM6.10999,17.66998c-.32001.21002-.70001.33002-1.10999.33002-1.09998,0-2-.90002-2-2s.90002-2,2-2c.40997,0,.78998.12,1.10999.33002.53003.37.89001.97998.89001,1.66998s-.35999,1.29999-.89001,1.66998ZM27,29c-1.06,0-1.92999-.83002-1.98999-1.88-.01001-.03998-.01001-.08002-.01001-.12,0-.69.35999-1.29999.89001-1.66998.32001-.21002.70001-.33002,1.10999-.33002,1.09998,0,2,.90002,2,2s-.90002,2-2,2Z"/></g></svg>