<svg xmlns="http://www.w3.org/2000/svg" viewBox="0 0 16 16">
  <path d="M11 9.43a2.57 2.57 0 0 0-1.89.84L6.45 8.75A2.6 2.6 0 0 0 6.57 8a2.55 2.55 0 0 0-.12-.74l2.66-1.51A2.57 2.57 0 1 0 11 1.43 2.59 2.59 0 0 0 8.42 4a2.6 2.6 0 0 0 .12.74L5.88 6.27a2.57 2.57 0 1 0 0 3.48l2.66 1.52a2.55 2.55 0 0 0-.12.74A2.58 2.58 0 1 0 11 9.43Zm0-6.85A1.43 1.43 0 1 1 9.57 4 1.43 1.43 0 0 1 11 2.58ZM4 9.43A1.43 1.43 0 1 1 5.42 8 1.43 1.43 0 0 1 4 9.43Zm7 4A1.43 1.43 0 1 1 12.42 12 1.43 1.43 0 0 1 11 13.43Z"/>
</svg>
