<?xml version="1.0" encoding="UTF-8"?><svg xmlns="http://www.w3.org/2000/svg" width="32" height="32" viewBox="0 0 32 32"><defs><style>.uuid-f6c1dc70-510d-4456-8bd4-f25e01d98744{fill:none;}.uuid-263d1ebb-47f1-4b12-9d39-aeda2fb307eb{fill:#151515;}</style></defs><g id="uuid-82b4f12d-217e-4eba-85fd-7c29ffc28d9c"><rect class="uuid-f6c1dc70-510d-4456-8bd4-f25e01d98744" width="32" height="32"/></g><g id="uuid-0ea88fcd-6163-462f-8502-2ff3b0a0d433"><path class="uuid-263d1ebb-47f1-4b12-9d39-aeda2fb307eb" d="M29.5,3.25H2.5c-.68945,0-1.25.56055-1.25,1.25v23c0,.68945.56055,1.25,1.25,1.25h27c.68945,0,1.25-.56055,1.25-1.25V4.5c0-.68945-.56055-1.25-1.25-1.25ZM8,20.125h-2c-.62109,0-1.125-.50391-1.125-1.125s.50391-1.125,1.125-1.125h2c.62109,0,1.125.50391,1.125,1.125s-.50391,1.125-1.125,1.125ZM8,15.125h-2c-.62109,0-1.125-.50391-1.125-1.125s.50391-1.125,1.125-1.125h2c.62109,0,1.125.50391,1.125,1.125s-.50391,1.125-1.125,1.125ZM8,10.125h-2c-.62109,0-1.125-.50391-1.125-1.125s.50391-1.125,1.125-1.125h2c.62109,0,1.125.50391,1.125,1.125s-.50391,1.125-1.125,1.125ZM15.125,24c0,.62109-.50391,1.125-1.125,1.125s-1.125-.50391-1.125-1.125V8c0-.62109.50391-1.125,1.125-1.125s1.125.50391,1.125,1.125v16Z"/></g></svg>