<?xml version="1.0" encoding="UTF-8"?><svg xmlns="http://www.w3.org/2000/svg" width="32" height="32" viewBox="0 0 32 32"><defs><style>.uuid-be3a2302-c275-4e0c-b918-da6fd5248491{fill:none;}.uuid-8df3bf6f-877f-498b-9fe6-ef0d5caabbe8{fill:#151515;}</style></defs><g id="uuid-03564873-7434-44dd-a15f-b5cc0498bdf5"><rect class="uuid-be3a2302-c275-4e0c-b918-da6fd5248491" width="32" height="32"/></g><g id="uuid-bf64a6fa-c96c-433f-b500-3ed6a18115ac"><path class="uuid-8df3bf6f-877f-498b-9fe6-ef0d5caabbe8" d="M29.5,3H2.5c-.82715,0-1.5.67285-1.5,1.5v23c0,.82715.67285,1.5,1.5,1.5h27c.82715,0,1.5-.67285,1.5-1.5V4.5c0-.82715-.67285-1.5-1.5-1.5ZM29,27H3V5h26v22Z"/><path class="uuid-8df3bf6f-877f-498b-9fe6-ef0d5caabbe8" d="M12,25c.55225,0,1-.44727,1-1V8c0-.55273-.44775-1-1-1s-1,.44727-1,1v16c0,.55273.44775,1,1,1Z"/><path class="uuid-8df3bf6f-877f-498b-9fe6-ef0d5caabbe8" d="M6,10h2c.55225,0,1-.44727,1-1s-.44775-1-1-1h-2c-.55225,0-1,.44727-1,1s.44775,1,1,1Z"/><path class="uuid-8df3bf6f-877f-498b-9fe6-ef0d5caabbe8" d="M6,14h2c.55225,0,1-.44727,1-1s-.44775-1-1-1h-2c-.55225,0-1,.44727-1,1s.44775,1,1,1Z"/><path class="uuid-8df3bf6f-877f-498b-9fe6-ef0d5caabbe8" d="M6,18h2c.55225,0,1-.44727,1-1s-.44775-1-1-1h-2c-.55225,0-1,.44727-1,1s.44775,1,1,1Z"/></g></svg>