<?xml version="1.0" encoding="UTF-8"?><svg xmlns="http://www.w3.org/2000/svg" viewBox="0 0 32 32"><defs><style>.uuid-77a54530-e6a2-4149-bbc2-790d093d8992{fill:none;}.uuid-77a54530-e6a2-4149-bbc2-790d093d8992,.uuid-4b55b455-8086-4e95-8f47-565a2e12fccc{stroke-width:0px;}.uuid-4b55b455-8086-4e95-8f47-565a2e12fccc{fill:#151515;}</style></defs><g id="uuid-01205885-d2bb-4200-bf17-7140bb4f00ed"><rect class="uuid-77a54530-e6a2-4149-bbc2-790d093d8992" width="32" height="32"/></g><g id="uuid-12765d12-4bba-47bb-a784-cb02efe807d6"><path class="uuid-4b55b455-8086-4e95-8f47-565a2e12fccc" d="M14,9c.2559,0,.5117-.0977.707-.293.3906-.3906.3906-1.0234,0-1.4141L9.0605,1.6465c-.585-.585-1.5361-.585-2.1211,0L1.293,7.293c-.3906.3906-.3906,1.0234,0,1.4141s1.0234.3906,1.4141,0l4.293-4.293v25.5859c0,.5522.4478,1,1,1s1-.4478,1-1V4.4141l4.293,4.293c.1953.1953.4512.293.707.293Z"/><path class="uuid-4b55b455-8086-4e95-8f47-565a2e12fccc" d="M30,29h-15c-.5522,0-1,.4478-1,1s.4478,1,1,1h15c.5522,0,1-.4478,1-1s-.4478-1-1-1Z"/><path class="uuid-4b55b455-8086-4e95-8f47-565a2e12fccc" d="M14,23c0,.5522.4478,1,1,1h10c.5522,0,1-.4478,1-1s-.4478-1-1-1h-10c-.5522,0-1,.4478-1,1Z"/><path class="uuid-4b55b455-8086-4e95-8f47-565a2e12fccc" d="M14,16c0,.5522.4478,1,1,1h6c.5522,0,1-.4478,1-1s-.4478-1-1-1h-6c-.5522,0-1,.4478-1,1Z"/></g></svg>