<?xml version="1.0" encoding="UTF-8"?><svg xmlns="http://www.w3.org/2000/svg" width="32" height="32" viewBox="0 0 32 32"><defs><style>.uuid-f5b4276b-9117-4281-b45a-ec0969ecfdd8{fill:none;}.uuid-be28bb34-53cb-4569-a190-b65f7c7b98d6{fill:#151515;}</style></defs><g id="uuid-4374cf19-e8b3-4d76-b49b-b8c1f7ac64bd"><rect class="uuid-f5b4276b-9117-4281-b45a-ec0969ecfdd8" width="32" height="32"/></g><g id="uuid-afce5255-b371-4f65-ad69-2a28335377e1"><path class="uuid-be28bb34-53cb-4569-a190-b65f7c7b98d6" d="M29,15h-14c-.55225,0-1,.44775-1,1s.44775,1,1,1h14c.55225,0,1-.44775,1-1s-.44775-1-1-1Z"/><path class="uuid-be28bb34-53cb-4569-a190-b65f7c7b98d6" d="M25,21h-10c-.55225,0-1,.44727-1,1s.44775,1,1,1h10c.55225,0,1-.44727,1-1s-.44775-1-1-1Z"/><path class="uuid-be28bb34-53cb-4569-a190-b65f7c7b98d6" d="M21,27h-6c-.55225,0-1,.44727-1,1s.44775,1,1,1h6c.55225,0,1-.44727,1-1s-.44775-1-1-1Z"/><path class="uuid-be28bb34-53cb-4569-a190-b65f7c7b98d6" d="M15,10c.25586,0,.51172-.09766.70703-.29297.39062-.39062.39062-1.02344,0-1.41406l-5.64648-5.64648c-.58496-.58496-1.53613-.58496-2.12109,0l-5.64648,5.64648c-.39062.39062-.39062,1.02344,0,1.41406s1.02344.39062,1.41406,0l4.29297-4.29297v23.58594c0,.55273.44775,1,1,1s1-.44727,1-1V5.41406l4.29297,4.29297c.19531.19531.45117.29297.70703.29297Z"/></g></svg>