<?xml version="1.0" encoding="UTF-8"?><svg xmlns="http://www.w3.org/2000/svg" viewBox="0 0 32 32"><defs><style>.uuid-a87707fd-22a0-4b95-a4b8-845c927a3c64{fill:none;}.uuid-a87707fd-22a0-4b95-a4b8-845c927a3c64,.uuid-c973dc0c-7c6d-4d09-8394-5a975c90fef8{stroke-width:0px;}.uuid-c973dc0c-7c6d-4d09-8394-5a975c90fef8{fill:#151515;}</style></defs><g id="uuid-168a1ad2-aefa-490a-b36a-689106c874b2"><rect class="uuid-a87707fd-22a0-4b95-a4b8-845c927a3c64" width="32" height="32"/></g><g id="uuid-07d4e95f-954c-4720-a1d7-70f0a9c11836"><path class="uuid-c973dc0c-7c6d-4d09-8394-5a975c90fef8" d="M30,15h-15c-.5522,0-1,.4478-1,1s.4478,1,1,1h15c.5522,0,1-.4478,1-1s-.4478-1-1-1Z"/><path class="uuid-c973dc0c-7c6d-4d09-8394-5a975c90fef8" d="M15,10h10c.5522,0,1-.4478,1-1s-.4478-1-1-1h-10c-.5522,0-1,.4478-1,1s.4478,1,1,1Z"/><path class="uuid-c973dc0c-7c6d-4d09-8394-5a975c90fef8" d="M15,3h6c.5522,0,1-.4478,1-1s-.4478-1-1-1h-6c-.5522,0-1,.4478-1,1s.4478,1,1,1Z"/><path class="uuid-c973dc0c-7c6d-4d09-8394-5a975c90fef8" d="M13.293,23.293l-4.293,4.293V2c0-.5522-.4478-1-1-1s-1,.4478-1,1v25.5859l-4.293-4.293c-.3906-.3906-1.0234-.3906-1.4141,0s-.3906,1.0234,0,1.4141l5.6465,5.6465c.2925.2925.6763.4385,1.0605.4385s.7681-.146,1.0605-.4385l5.6465-5.6465c.3906-.3906.3906-1.0234,0-1.4141s-1.0234-.3906-1.4141,0Z"/></g></svg>