<?xml version="1.0" encoding="UTF-8"?><svg xmlns="http://www.w3.org/2000/svg" width="32" height="32" viewBox="0 0 32 32"><defs><style>.uuid-d7bba30c-4691-4615-94a1-5acb56e87e5a{fill:none;}.uuid-26a7f1fd-930f-467f-a98c-b3905b2bf76b{fill:#151515;}</style></defs><g id="uuid-4fa3d2a5-bdc5-4043-a18d-0efac5a1de7a"><rect class="uuid-d7bba30c-4691-4615-94a1-5acb56e87e5a" width="32" height="32"/></g><g id="uuid-820095b7-55a4-44e9-9fb1-e77b07784241"><path class="uuid-26a7f1fd-930f-467f-a98c-b3905b2bf76b" d="M14.29297,22.29297l-4.29297,4.29297V3c0-.55225-.44727-1-1-1s-1,.44775-1,1v23.58594l-4.29297-4.29297c-.39062-.39062-1.02344-.39062-1.41406,0s-.39062,1.02344,0,1.41406l5.64648,5.64648c.29199.29248.67676.43848,1.06055.43848s.76855-.146,1.06055-.43848l5.64648-5.64648c.39062-.39062.39062-1.02344,0-1.41406s-1.02344-.39062-1.41406,0Z"/><path class="uuid-26a7f1fd-930f-467f-a98c-b3905b2bf76b" d="M29,3h-14c-.55273,0-1,.44775-1,1s.44727,1,1,1h14c.55273,0,1-.44775,1-1s-.44727-1-1-1Z"/><path class="uuid-26a7f1fd-930f-467f-a98c-b3905b2bf76b" d="M25,9h-10c-.55273,0-1,.44775-1,1s.44727,1,1,1h10c.55273,0,1-.44775,1-1s-.44727-1-1-1Z"/><path class="uuid-26a7f1fd-930f-467f-a98c-b3905b2bf76b" d="M21,15h-6c-.55273,0-1,.44775-1,1s.44727,1,1,1h6c.55273,0,1-.44775,1-1s-.44727-1-1-1Z"/></g></svg>