<?xml version="1.0" encoding="UTF-8"?><svg xmlns="http://www.w3.org/2000/svg" width="32" height="32" viewBox="0 0 32 32"><defs><style>.uuid-ec66bb26-18c8-4ed7-8194-066627f564fd{fill:none;}.uuid-ace7dae7-92b1-435e-985a-3adb9d45095c{fill:#151515;}</style></defs><g id="uuid-1a367ed9-1b4c-4cfb-8743-3d3cd52bf78a"><rect class="uuid-ec66bb26-18c8-4ed7-8194-066627f564fd" width="32" height="32"/></g><g id="uuid-21157134-6692-43d6-9866-a260f735ea03"><path class="uuid-ace7dae7-92b1-435e-985a-3adb9d45095c" d="M29,27h-14c-.55225,0-1,.44727-1,1s.44775,1,1,1h14c.55225,0,1-.44727,1-1s-.44775-1-1-1Z"/><path class="uuid-ace7dae7-92b1-435e-985a-3adb9d45095c" d="M14,22c0,.55273.44775,1,1,1h10c.55225,0,1-.44727,1-1s-.44775-1-1-1h-10c-.55225,0-1,.44727-1,1Z"/><path class="uuid-ace7dae7-92b1-435e-985a-3adb9d45095c" d="M14,16c0,.55225.44775,1,1,1h6c.55225,0,1-.44775,1-1s-.44775-1-1-1h-6c-.55225,0-1,.44775-1,1Z"/><path class="uuid-ace7dae7-92b1-435e-985a-3adb9d45095c" d="M15,10c.25586,0,.51172-.09766.70703-.29297.39062-.39062.39062-1.02344,0-1.41406l-5.64648-5.64648c-.58496-.58496-1.53613-.58496-2.12109,0l-5.64648,5.64648c-.39062.39062-.39062,1.02344,0,1.41406s1.02344.39062,1.41406,0l4.29297-4.29297v23.58594c0,.55273.44775,1,1,1s1-.44727,1-1V5.41406l4.29297,4.29297c.19531.19531.45117.29297.70703.29297Z"/></g></svg>