<?xml version="1.0" encoding="UTF-8"?><svg xmlns="http://www.w3.org/2000/svg" width="32" height="32" viewBox="0 0 32 32"><defs><style>.uuid-de43129b-3a07-4843-9452-a8967d8008bf{fill:none;}.uuid-cf080980-5aff-47e7-8908-2dfc425f6098{fill:#151515;}</style></defs><g id="uuid-af982bd6-fa17-42ec-92db-1a725b04ba9a"><rect class="uuid-de43129b-3a07-4843-9452-a8967d8008bf" width="32" height="32"/></g><g id="uuid-61c4228e-5824-4496-bf51-03fe07ceb571"><path class="uuid-cf080980-5aff-47e7-8908-2dfc425f6098" d="M14.29297,22.29297l-4.29297,4.29297V3c0-.55225-.44727-1-1-1s-1,.44775-1,1v23.58594l-4.29297-4.29297c-.39062-.39062-1.02344-.39062-1.41406,0s-.39062,1.02344,0,1.41406l5.64648,5.64648c.29199.29248.67676.43848,1.06055.43848s.76855-.146,1.06055-.43848l5.64648-5.64648c.39062-.39062.39062-1.02344,0-1.41406s-1.02344-.39062-1.41406,0Z"/><path class="uuid-cf080980-5aff-47e7-8908-2dfc425f6098" d="M29,15h-14c-.55273,0-1,.44775-1,1s.44727,1,1,1h14c.55273,0,1-.44775,1-1s-.44727-1-1-1Z"/><path class="uuid-cf080980-5aff-47e7-8908-2dfc425f6098" d="M15,11h10c.55273,0,1-.44775,1-1s-.44727-1-1-1h-10c-.55273,0-1,.44775-1,1s.44727,1,1,1Z"/><path class="uuid-cf080980-5aff-47e7-8908-2dfc425f6098" d="M15,5h6c.55273,0,1-.44775,1-1s-.44727-1-1-1h-6c-.55273,0-1,.44775-1,1s.44727,1,1,1Z"/></g></svg>