<?xml version="1.0" encoding="UTF-8"?><svg xmlns="http://www.w3.org/2000/svg" viewBox="0 0 32 32"><defs><style>.uuid-28a802b0-3ed6-446a-b1bf-ef3a49a73ae3{fill:none;}.uuid-28a802b0-3ed6-446a-b1bf-ef3a49a73ae3,.uuid-34179beb-2edc-4cd8-b75f-f2224b069ce0{stroke-width:0px;}.uuid-34179beb-2edc-4cd8-b75f-f2224b069ce0{fill:#151515;}</style></defs><g id="uuid-8f6dc6c6-30c5-4f51-b950-48f9aa992c85"><rect class="uuid-28a802b0-3ed6-446a-b1bf-ef3a49a73ae3" width="32" height="32"/></g><g id="uuid-01498e41-2e57-4653-bbf1-5282105f5304"><path class="uuid-34179beb-2edc-4cd8-b75f-f2224b069ce0" d="M14,9c.2559,0,.5117-.0977.707-.293.3906-.3906.3906-1.0234,0-1.4141L9.0605,1.6465c-.584-.585-1.5371-.585-2.1211,0L1.293,7.293c-.3906.3906-.3906,1.0234,0,1.4141s1.0234.3906,1.4141,0l4.293-4.293v25.5859c0,.5522.4473,1,1,1s1-.4478,1-1V4.4141l4.293,4.293c.1953.1953.4512.293.707.293Z"/><path class="uuid-34179beb-2edc-4cd8-b75f-f2224b069ce0" d="M30,15h-15c-.5527,0-1,.4478-1,1s.4473,1,1,1h15c.5527,0,1-.4478,1-1s-.4473-1-1-1Z"/><path class="uuid-34179beb-2edc-4cd8-b75f-f2224b069ce0" d="M25,22h-10c-.5527,0-1,.4478-1,1s.4473,1,1,1h10c.5527,0,1-.4478,1-1s-.4473-1-1-1Z"/><path class="uuid-34179beb-2edc-4cd8-b75f-f2224b069ce0" d="M14,30c0-.5522.4478-1,1-1h6c.5522,0,1,.4478,1,1,0,.5522-.4478,1-1,1h-6c-.5522,0-1-.4478-1-1Z"/></g></svg>