<?xml version="1.0" encoding="UTF-8"?><svg xmlns="http://www.w3.org/2000/svg" viewBox="0 0 32 32"><defs><style>.uuid-c443b093-f8a1-442a-a05a-d2a02899bbce{fill:none;}.uuid-c443b093-f8a1-442a-a05a-d2a02899bbce,.uuid-61ff773b-8264-4bf0-9320-12480f9f22f7{stroke-width:0px;}.uuid-61ff773b-8264-4bf0-9320-12480f9f22f7{fill:#151515;}</style></defs><g id="uuid-5dde24c8-ef14-4cdd-ae5c-157488d9f7aa"><rect class="uuid-c443b093-f8a1-442a-a05a-d2a02899bbce" x="0" width="32" height="32"/></g><g id="uuid-fcf468fe-8817-42cd-909e-4acbc0df8d15"><path class="uuid-61ff773b-8264-4bf0-9320-12480f9f22f7" d="M13.293,23.293l-4.293,4.293V2c0-.5522-.4478-1-1-1s-1,.4478-1,1v25.5859l-4.293-4.293c-.3906-.3906-1.0234-.3906-1.4141,0s-.3906,1.0234,0,1.4141l5.6465,5.6465c.2925.2925.6763.4385,1.0605.4385s.7681-.146,1.0605-.4385l5.6465-5.6465c.3906-.3906.3906-1.0234,0-1.4141s-1.0234-.3906-1.4141,0Z"/><path class="uuid-61ff773b-8264-4bf0-9320-12480f9f22f7" d="M30,1h-15c-.5522,0-1,.4478-1,1s.4478,1,1,1h15c.5522,0,1-.4478,1-1s-.4478-1-1-1Z"/><path class="uuid-61ff773b-8264-4bf0-9320-12480f9f22f7" d="M25,8h-10c-.5522,0-1,.4478-1,1s.4478,1,1,1h10c.5522,0,1-.4478,1-1s-.4478-1-1-1Z"/><path class="uuid-61ff773b-8264-4bf0-9320-12480f9f22f7" d="M21,15h-6c-.5522,0-1,.4478-1,1s.4478,1,1,1h6c.5522,0,1-.4478,1-1s-.4478-1-1-1Z"/></g></svg>