<?xml version="1.0" encoding="UTF-8"?><svg xmlns="http://www.w3.org/2000/svg" width="32" height="32" viewBox="0 0 32 32"><defs><style>.uuid-16439f70-273c-41a5-902b-78db3265ed9b{fill:none;}.uuid-233e2a9c-ec7e-45e7-91c7-9e7312b2965a{fill:#151515;}</style></defs><g id="uuid-20ab0a34-6497-46f0-bb19-a6d2a1123d37"><rect class="uuid-16439f70-273c-41a5-902b-78db3265ed9b" width="32" height="32"/></g><g id="uuid-729ae55b-9dbb-4762-baee-1e519714efff"><path class="uuid-233e2a9c-ec7e-45e7-91c7-9e7312b2965a" d="M16,1C7.72852,1,1,7.72852,1,16s6.72852,15,15,15,15-6.72852,15-15S24.27148,1,16,1ZM16,4.14038c1.03552,0,1.875.83948,1.875,1.875s-.83948,1.875-1.875,1.875-1.875-.83948-1.875-1.875.83948-1.875,1.875-1.875ZM6,17.89038c-1.03552,0-1.875-.83948-1.875-1.875s.83948-1.875,1.875-1.875,1.875.83948,1.875,1.875-.83948,1.875-1.875,1.875ZM8.99512,10.87598c-1.03552,0-1.875-.83948-1.875-1.875s.83948-1.875,1.875-1.875,1.875.83948,1.875,1.875-.83948,1.875-1.875,1.875ZM20,26.125h-8c-.62109,0-1.125-.50391-1.125-1.125s.50391-1.125,1.125-1.125h8c.62109,0,1.125.50391,1.125,1.125s-.50391,1.125-1.125,1.125ZM23.7959,9.7959l-5.23199,5.23199c.11542.30328.1861.62878.1861.97211,0,1.5166-1.2334,2.75-2.75,2.75s-2.75-1.2334-2.75-2.75,1.2334-2.75,2.75-2.75c.34332,0,.66882.07068.97211.1861l5.23199-5.23199c.43945-.43945,1.15234-.43945,1.5918,0,.43848.43945.43848,1.15234,0,1.5918ZM26,17.89038c-1.03552,0-1.875-.83948-1.875-1.875s.83948-1.875,1.875-1.875,1.875.83948,1.875,1.875-.83948,1.875-1.875,1.875Z"/></g></svg>