<?xml version="1.0" encoding="UTF-8"?><svg xmlns="http://www.w3.org/2000/svg" width="32" height="32" viewBox="0 0 32 32"><defs><style>.uuid-533724dc-6200-4eab-9b9a-5842b99c9554{fill:none;}.uuid-520bd8ba-66ed-4470-922f-c0ae1284d60f{fill:#151515;}</style></defs><g id="uuid-c0dd06d9-00a3-4c8f-9b68-715cc476328b"><rect class="uuid-533724dc-6200-4eab-9b9a-5842b99c9554" width="32" height="32"/></g><g id="uuid-dc704f81-558b-4bea-ac85-570e0bdc01a0"><path class="uuid-520bd8ba-66ed-4470-922f-c0ae1284d60f" d="M16,1C7.729,1,1,7.72852,1,16s6.729,15,15,15,15-6.72852,15-15S24.271,1,16,1ZM16,29c-7.16846,0-13-5.83203-13-13S8.83154,3,16,3s13,5.83203,13,13-5.83154,13-13,13Z"/><path class="uuid-520bd8ba-66ed-4470-922f-c0ae1284d60f" d="M21.29297,9.29297l-4.00763,4.00763c-.39111-.18713-.82361-.3006-1.28534-.3006-1.6543,0-3,1.3457-3,3s1.3457,3,3,3,3-1.3457,3-3c0-.46173-.11346-.89423-.3006-1.28534l4.00763-4.00763c.39062-.39062.39062-1.02344,0-1.41406s-1.02344-.39062-1.41406,0Z"/><path class="uuid-520bd8ba-66ed-4470-922f-c0ae1284d60f" d="M20,23h-8c-.55225,0-1,.44727-1,1s.44775,1,1,1h8c.55225,0,1-.44727,1-1s-.44775-1-1-1Z"/><circle class="uuid-520bd8ba-66ed-4470-922f-c0ae1284d60f" cx="7.0049" cy="16.01123" r="1.625"/><circle class="uuid-520bd8ba-66ed-4470-922f-c0ae1284d60f" cx="9.99976" cy="10.01123" r="1.625"/><circle class="uuid-520bd8ba-66ed-4470-922f-c0ae1284d60f" cx="16.00488" cy="7.00345" r="1.625"/><circle class="uuid-520bd8ba-66ed-4470-922f-c0ae1284d60f" cx="24.99976" cy="16.01123" r="1.625"/></g></svg>