<?xml version="1.0" encoding="UTF-8"?><svg xmlns="http://www.w3.org/2000/svg" viewBox="0 0 32 32"><defs><style>.uuid-1c9e1454-3323-4674-bcc9-6999fb1957be{fill:none;}.uuid-1c9e1454-3323-4674-bcc9-6999fb1957be,.uuid-6d1f6081-4809-465a-b821-ebe972944f66{stroke-width:0px;}.uuid-6d1f6081-4809-465a-b821-ebe972944f66{fill:#151515;}</style></defs><g id="uuid-3b193edc-1a69-4f0b-9f0e-f75f369da7b2"><rect class="uuid-1c9e1454-3323-4674-bcc9-6999fb1957be" width="32" height="32"/></g><g id="uuid-637736ca-0589-4d4b-9a17-2865c07b3351"><path class="uuid-6d1f6081-4809-465a-b821-ebe972944f66" d="M31.9414,11.6631c-.1309-.3667-.4629-.6235-.8506-.6592l-10.418-.9468-3.8047-8.4668c-.1611-.3594-.5186-.5903-.9121-.5903h-.0039c-.3955.0015-.7529.2358-.9111.5977l-3.7188,8.46-10.4131.9463c-.3867.0352-.7178.2915-.8496.6567s-.04.7739.2344,1.0479l7.6533,7.6201-1.9268,9.4722c-.0781.3828.0742.7759.3896,1.0063.3154.231.7344.2563,1.0771.0659l8.4707-4.729,8.5586,4.731c.1504.084.3174.125.4834.125.21,0,.4189-.0664.5947-.1963.3154-.2329.4648-.6284.3838-1.0112l-2.0088-9.4644,7.7324-7.6157c.2773-.2734.3701-.6826.2393-1.0493ZM22.1758,19.2876c-.2422.2393-.3467.5864-.2764.9199l1.668,7.8579-7.1279-3.9404c-.3008-.167-.668-.166-.9707.002l-7.0547,3.9385,1.5996-7.8662c.0674-.3296-.0352-.6704-.2734-.9077l-6.5176-6.4893,8.8682-.8062c.3623-.0332.6777-.2603.8242-.5938l3.0508-6.9399,3.1221,6.9473c.1484.3296.4619.5537.8213.5864l8.8525.8047-6.5859,6.4868Z"/></g></svg>