<?xml version="1.0" encoding="UTF-8"?><svg xmlns="http://www.w3.org/2000/svg" viewBox="0 0 32 32"><defs><style>.uuid-41dd2079-c68a-43d3-aec0-6078cf0f4075{fill:none;}.uuid-41dd2079-c68a-43d3-aec0-6078cf0f4075,.uuid-5238d0e3-f49f-4c69-8d01-051219a08764{stroke-width:0px;}.uuid-5238d0e3-f49f-4c69-8d01-051219a08764{fill:#151515;}</style></defs><g id="uuid-b9180d61-bc10-405a-8b93-a15fcda641ec"><rect class="uuid-41dd2079-c68a-43d3-aec0-6078cf0f4075" x="0" width="32" height="32"/></g><g id="uuid-cd71e3d8-437f-4d2f-a570-f91779dc888c"><path class="uuid-5238d0e3-f49f-4c69-8d01-051219a08764" d="M31.9414,11.6631c-.1309-.3662-.4629-.624-.8511-.6592l-10.418-.9473-3.8047-8.4668c-.1616-.3594-.5186-.5898-.9121-.5898h-.0039c-.3955.002-.7524.2363-.9116.5977l-3.7183,8.46-10.4121.9463c-.3872.0352-.7183.291-.8501.6562-.1318.3662-.0405.7744.2349,1.0488l7.6519,7.6191-1.9263,9.4727c-.0776.3828.0742.7764.3901,1.0068.3164.2314.7378.2568,1.0771.0654l8.4712-4.7295,8.5576,4.7314c.1514.084.3179.125.4839.125.21,0,.4194-.0664.5952-.1963.3145-.2334.4644-.6279.3828-1.0117l-2.0078-9.4639,7.7314-7.6152c.2773-.2734.3711-.6836.2397-1.0498Z"/></g></svg>