<?xml version="1.0" encoding="UTF-8"?><svg xmlns="http://www.w3.org/2000/svg" width="32" height="32" viewBox="0 0 32 32"><defs><style>.uuid-9092c501-391b-4582-8b9e-adce1c6a664c{fill:none;}.uuid-67bbd161-7b3a-4c55-976b-66459caa8666{fill:#151515;}</style></defs><g id="uuid-ff5bc647-158a-4192-b009-4c09d08b97e9"><rect class="uuid-9092c501-391b-4582-8b9e-adce1c6a664c" width="32" height="32"/></g><g id="uuid-e3dcffee-ec0f-4b77-8071-7a6d1ff9937b"><path class="uuid-67bbd161-7b3a-4c55-976b-66459caa8666" d="M24,30c-.18359,0-.36768-.05078-.52979-.15234l-7.47021-4.66797-7.47021,4.66797c-.33789.21191-.77051.20215-1.09814-.02539-.32861-.22656-.49072-.62695-.41211-1.01855l1.88477-9.4248L1.15576,12.76025c-.30566-.26123-.42529-.67969-.30371-1.06299s.46094-.65625.86133-.69287l10.24512-.94482,3.11914-7.4458c.15576-.37207.51953-.61377.92236-.61377s.7666.2417.92236.61377l3.11914,7.4458,10.24512.94482c.40039.03662.73975.30957.86133.69287s.00195.80176-.30371,1.06299l-7.74854,6.61865,1.88477,9.4248c.07861.3916-.0835.79199-.41211,1.01855-.17041.11816-.36914.17773-.56836.17773ZM16,23c.18408,0,.36768.05078.52979.15234l6.03516,3.77148-1.54541-7.72754c-.07129-.35547.05566-.72168.33105-.95703l6.39355-5.46094-8.48486-.78271c-.36816-.03369-.6875-.26807-.83057-.60938l-2.42871-5.79785-2.42871,5.79785c-.14307.34131-.4624.57568-.83057.60938l-8.48486.78271,6.39355,5.46094c.27539.23535.40234.60156.33105.95703l-1.54541,7.72754,6.03516-3.77148c.16211-.10156.3457-.15234.52979-.15234Z"/></g></svg>