<?xml version="1.0" encoding="UTF-8"?><svg xmlns="http://www.w3.org/2000/svg" width="32" height="32" viewBox="0 0 32 32"><defs><style>.uuid-a2fe8cab-0376-4e07-8433-76bfe59964ba{fill:none;}.uuid-a4de0720-3b4c-4ee3-9226-7de3f1fde0b6{fill:#151515;}</style></defs><g id="uuid-8dc1fe5a-6b57-4341-ba7e-580e3ae8eae7"><rect class="uuid-a2fe8cab-0376-4e07-8433-76bfe59964ba" width="32" height="32"/></g><g id="uuid-48fb5dfc-5a2f-4ebc-9370-bdf79f7618b2"><path class="uuid-a4de0720-3b4c-4ee3-9226-7de3f1fde0b6" d="M31.14795,11.69727c-.12158-.3833-.46094-.65625-.86133-.69287l-10.24512-.94482-3.11914-7.4458c-.15576-.37207-.51953-.61377-.92236-.61377s-.7666.2417-.92236.61377l-3.11914,7.4458-10.24512.94482c-.40039.03662-.73975.30957-.86133.69287s-.00195.80176.30371,1.06299l7.74854,6.61865-1.88477,9.4248c-.07861.3916.0835.79199.41211,1.01855.32764.22754.76025.2373,1.09814.02539l7.47021-4.66797,7.47021,4.66797c.16211.10156.34619.15234.52979.15234.19922,0,.39795-.05957.56836-.17773.32861-.22656.49072-.62695.41211-1.01855l-1.88477-9.4248,7.74854-6.61865c.30566-.26123.42529-.67969.30371-1.06299Z"/></g></svg>