<?xml version="1.0" encoding="UTF-8"?><svg xmlns="http://www.w3.org/2000/svg" width="32" height="32" viewBox="0 0 32 32"><defs><style>.uuid-bef6ed25-c24b-4541-959d-e4a0c7677e50{fill:none;}.uuid-bd636ff0-3406-4436-adda-38fba759d843{fill:#151515;}</style></defs><g id="uuid-d2a0c463-69b7-43b7-b063-c4b05942365d"><rect class="uuid-bef6ed25-c24b-4541-959d-e4a0c7677e50" width="32" height="32"/></g><g id="uuid-348cc2c7-9cfb-4647-838b-8bbfc8ec5997"><path class="uuid-bd636ff0-3406-4436-adda-38fba759d843" d="M26,30H6.00684c-2.20557,0-4-1.79395-4-4V6.00684c0-2.20605,1.79443-4,4-4h19.99316c2.20557,0,4,1.79395,4,4v19.99316c0,2.20605-1.79443,4-4,4ZM6.00684,4.00684c-1.10303,0-2,.89746-2,2v19.99316c0,1.10254.89697,2,2,2h19.99316c1.10303,0,2-.89746,2-2V6.00684c0-1.10254-.89697-2-2-2H6.00684Z"/></g></svg>