<?xml version="1.0" encoding="UTF-8"?><svg xmlns="http://www.w3.org/2000/svg" viewBox="0 0 32 32"><defs><style>.uuid-d087b943-a2f0-4b74-bf9d-266a4a71d60b{fill:none;}.uuid-d087b943-a2f0-4b74-bf9d-266a4a71d60b,.uuid-067d76b3-f781-4076-8c82-3d891c785379{stroke-width:0px;}.uuid-067d76b3-f781-4076-8c82-3d891c785379{fill:#151515;}</style></defs><g id="uuid-bc117f7a-d8ce-4d31-a264-d488ac1af797"><rect class="uuid-d087b943-a2f0-4b74-bf9d-266a4a71d60b" width="32" height="32"/></g><g id="uuid-9bf0b71d-0fb3-491a-a12a-11fd2671006d"><path class="uuid-067d76b3-f781-4076-8c82-3d891c785379" d="M31,8.5723C31,3.7656,24.4111,0,16,0S1,3.7656,1,8.5723c0,.1447.0248.285.0366.4277h-.0366v14.4277c0,4.8066,6.5889,8.5723,15,8.5723s15-3.7656,15-8.5723v-14.4277h-.0366c.0118-.1427.0366-.2831.0366-.4277ZM3,15.8438v-2.949c2.5674,2.5574,7.3694,4.2493,13,4.2493s10.4326-1.6919,13-4.2493v2.949c0,3.6079-5.9531,6.6562-13,6.6562s-13-3.0483-13-6.6562ZM16,2c7.0469,0,13,3.0098,13,6.5723s-5.9531,6.5718-13,6.5718S3,12.1348,3,8.5723s5.9531-6.5723,13-6.5723ZM29,23.4277c0,3.5625-5.9531,6.5723-13,6.5723s-13-3.0098-13-6.5723v-3.2189c2.5674,2.5826,7.3694,4.2912,13,4.2912s10.4326-1.7086,13-4.2912v3.2189Z"/></g></svg>