<?xml version="1.0" encoding="UTF-8"?><svg xmlns="http://www.w3.org/2000/svg" width="32" height="32" viewBox="0 0 32 32"><defs><style>.uuid-9347aecb-b45f-48e7-b2b5-f725781a17f8{fill:none;}.uuid-c06b1dc1-467d-4954-80fc-7a8e15ebc80e{fill:#151515;}</style></defs><g id="uuid-96f38688-76a9-4a75-bb10-de1ae2270988"><rect class="uuid-9347aecb-b45f-48e7-b2b5-f725781a17f8" width="32" height="32"/></g><g id="uuid-9e6fd034-c7c5-46a4-ab1c-f9ef6a90bb0f"><path class="uuid-c06b1dc1-467d-4954-80fc-7a8e15ebc80e" d="M16,15c7.0083,0,12.92871-2.97656,12.92871-6.5s-5.92041-6.5-12.92871-6.5S3.07129,4.97656,3.07129,8.5s5.92041,6.5,12.92871,6.5Z"/><path class="uuid-c06b1dc1-467d-4954-80fc-7a8e15ebc80e" d="M3.07129,12.81201v3.18799c0,3.52344,5.92041,6.5,12.92871,6.5s12.92871-2.97656,12.92871-6.5v-3.18799c-2.56055,2.52441-7.34033,4.18799-12.92871,4.18799s-10.36816-1.66357-12.92871-4.18799Z"/><path class="uuid-c06b1dc1-467d-4954-80fc-7a8e15ebc80e" d="M3.07129,20.3125v3.1875c0,3.52344,5.92041,6.5,12.92871,6.5s12.92871-2.97656,12.92871-6.5v-3.1875c-2.56055,2.52344-7.34033,4.1875-12.92871,4.1875s-10.36816-1.66406-12.92871-4.1875Z"/></g></svg>