<?xml version="1.0" encoding="UTF-8"?><svg xmlns="http://www.w3.org/2000/svg" width="32" height="32" viewBox="0 0 32 32"><defs><style>.uuid-eed166eb-65ba-4c11-93bc-c7f535679941{fill:none;}.uuid-75396583-28f8-4155-92bf-b2d046c42a1a{fill:#151515;}</style></defs><g id="uuid-e05b187b-5dc1-4b91-bdbd-12ee452d23c0"><rect class="uuid-eed166eb-65ba-4c11-93bc-c7f535679941" width="32" height="32"/></g><g id="uuid-78ed4305-4ebf-4d36-9749-6e53adabff52"><path class="uuid-75396583-28f8-4155-92bf-b2d046c42a1a" d="M16.65137,27.2207c-1.37109.50977-2.98047.7793-4.65137.7793-4.71484,0-8-2.1084-8-4v-4.36926c1.80963,1.44568,4.68848,2.36926,8,2.36926.3584,0,.71191-.01172,1.05957-.03223.55078-.03223.97168-.50586.93848-1.05762-.03223-.55176-.5127-.96582-1.05762-.93848-.30859.01855-.62305.02832-.94043.02832-4.71484,0-8-2.1084-8-4v-4.36926c1.80963,1.44568,4.68848,2.36926,8,2.36926,5.60742,0,10-2.63574,10-6s-4.39258-6-10-6S2,4.63574,2,8v16c0,3.36426,4.39258,6,10,6,1.90625,0,3.75586-.3125,5.34863-.9043.51758-.19238.78125-.76855.58887-1.28613-.19141-.5166-.7666-.78223-1.28613-.58887ZM12,4c4.71484,0,8,2.1084,8,4s-3.28516,4-8,4-8-2.1084-8-4,3.28516-4,8-4Z"/><path class="uuid-75396583-28f8-4155-92bf-b2d046c42a1a" d="M29.70703,26.29297l-2.8219-2.8219c.6991-.98102,1.11487-2.17725,1.11487-3.47107,0-3.30859-2.69141-6-6-6s-6,2.69141-6,6,2.69141,6,6,6c1.29382,0,2.49005-.41577,3.47107-1.11487l2.8219,2.8219c.19531.19531.45117.29297.70703.29297s.51172-.09766.70703-.29297c.39062-.39062.39062-1.02344,0-1.41406ZM22,24c-2.20605,0-4-1.79395-4-4s1.79395-4,4-4,4,1.79395,4,4-1.79395,4-4,4Z"/></g></svg>