<?xml version="1.0" encoding="UTF-8"?><svg xmlns="http://www.w3.org/2000/svg" width="32" height="32" viewBox="0 0 32 32"><defs><style>.uuid-6d520600-567c-4618-913c-307f9da43c8f{fill:none;}.uuid-c3166418-5f2c-4a58-8423-f1001a89d785{fill:#151515;}</style></defs><g id="uuid-20a95282-07a6-45e2-8075-9eebdc5ee2e5"><rect class="uuid-6d520600-567c-4618-913c-307f9da43c8f" width="32" height="32"/></g><g id="uuid-4ad28bc3-20a9-4d03-b846-6d4c2dbb9c5d"><path class="uuid-c3166418-5f2c-4a58-8423-f1001a89d785" d="M14.34149,22.30347c-.53796.04816-1.08502.0813-1.64911.0813-3.62579,0-6.76807-1.02985-8.69238-2.63245v4.86292c0,2.11719,3.49268,4.38477,8.69238,4.38477,2.72119,0,4.96759-.62378,6.4978-1.51929-2.31854-.87402-4.12872-2.78833-4.84869-5.17725Z"/><path class="uuid-c3166418-5f2c-4a58-8423-f1001a89d785" d="M29.70703,26.29297l-2.8219-2.8219c.6991-.98102,1.11487-2.17725,1.11487-3.47107,0-3.30859-2.69141-6-6-6s-6,2.69141-6,6,2.69141,6,6,6c1.29382,0,2.49005-.41577,3.47107-1.11487l2.8219,2.8219c.19531.19531.45117.29297.70703.29297s.51172-.09766.70703-.29297c.39062-.39062.39062-1.02344,0-1.41406ZM22,24c-2.20557,0-4-1.79395-4-4s1.79443-4,4-4,4,1.79395,4,4-1.79443,4-4,4Z"/><path class="uuid-c3166418-5f2c-4a58-8423-f1001a89d785" d="M12.69238,11.76953c5.19971,0,8.69238-2.26758,8.69238-4.38477s-3.49268-4.38477-8.69238-4.38477S4,5.26758,4,7.38477s3.49268,4.38477,8.69238,4.38477Z"/><path class="uuid-c3166418-5f2c-4a58-8423-f1001a89d785" d="M12.69238,20.38477c.44336,0,.86926-.02203,1.28668-.05353-.00452-.11072-.01678-.21942-.01678-.33124,0-3.22052,1.9082-5.99695,4.64954-7.27844-1.68427.6615-3.70972,1.04797-5.91943,1.04797-3.62579,0-6.76807-1.02985-8.69238-2.63245v4.86292c0,2.11719,3.49268,4.38477,8.69238,4.38477Z"/></g></svg>