<svg xmlns="http://www.w3.org/2000/svg" viewBox="0 0 32 32">
  <defs>
    <style>
      .uuid-aac4e86d-87d2-463a-8c0d-bdf245ed0b3a{stroke-width:0;fill:#151515}
    </style>
  </defs>
  <path d="M0 0h32v32H0z" id="uuid-2175bc14-715b-4f9f-aee9-71395ad082b6" stroke-width="0" fill="none"/>
  <g id="uuid-577615ba-1fd3-4a10-9a0c-82172542a180">
    <path class="uuid-aac4e86d-87d2-463a-8c0d-bdf245ed0b3a" d="M16 25.5c-6.1 0-11.295-1.964-14-4.92v2.848C2 27.61 8.268 31 16 31s14-3.39 14-7.572v-2.849c-2.705 2.957-7.9 4.92-14 4.92Z"/>
    <path class="uuid-aac4e86d-87d2-463a-8c0d-bdf245ed0b3a" d="M16 18.144c-6.1 0-11.295-1.946-14-4.878v2.578C2 20.072 8.268 23.5 16 23.5s14-3.428 14-7.656v-2.578c-2.705 2.932-7.9 4.878-14 4.878Z"/>
    <ellipse class="uuid-aac4e86d-87d2-463a-8c0d-bdf245ed0b3a" cx="16" cy="8.572" rx="14" ry="7.572"/>
  </g>
</svg>
