<?xml version="1.0" encoding="UTF-8"?><svg xmlns="http://www.w3.org/2000/svg" width="32" height="32" viewBox="0 0 32 32"><defs><style>.uuid-94549d75-467a-4519-ad95-af7c80fdaac5{fill:none;}.uuid-87c98273-9874-4da9-9097-9c5d146efba3{fill:#151515;}</style></defs><g id="uuid-e64dbd8f-d2ef-4ae7-b13d-919cb39fa48a"><rect class="uuid-94549d75-467a-4519-ad95-af7c80fdaac5" width="32" height="32"/></g><g id="uuid-7405be7c-d0dd-4f49-9144-da5782a49f46"><path class="uuid-87c98273-9874-4da9-9097-9c5d146efba3" d="M16,1C8.14941,1,2,4.51416,2,9v14c0,4.48633,6.14941,8,14,8s14-3.51367,14-8v-14c0-4.48584-6.14941-8-14-8ZM16,3c6.50488,0,12,2.74756,12,6s-5.49512,6-12,6-12-2.74756-12-6,5.49512-6,12-6ZM4,13.16077c2.42676,2.31512,6.83905,3.83923,12,3.83923s9.57324-1.52411,12-3.83923v2.83923c0,3.25195-5.49512,6-12,6s-12-2.74805-12-6v-2.83923ZM16,29c-6.50488,0-12-2.74805-12-6v-2.83899c2.42676,2.31512,6.83905,3.83899,12,3.83899s9.57324-1.52386,12-3.83899v2.83899c0,3.25195-5.49512,6-12,6Z"/></g></svg>