<?xml version="1.0" encoding="UTF-8"?><svg xmlns="http://www.w3.org/2000/svg" width="32" height="32" viewBox="0 0 32 32"><defs><style>.uuid-f927fedc-6e0e-4037-a8b0-5b91b1df8683{fill:none;}.uuid-ca9c3ada-e772-444b-a67a-fc85d724b250{fill:#151515;}</style></defs><g id="uuid-a0be85a0-1400-475e-aea0-d410793e3dcd"><rect class="uuid-f927fedc-6e0e-4037-a8b0-5b91b1df8683" width="32" height="32"/></g><g id="uuid-88f7c4d2-0621-4da9-9312-853bfd1e5197"><path class="uuid-ca9c3ada-e772-444b-a67a-fc85d724b250" d="M29.70703,22.29297c-.39062-.39062-1.02344-.39062-1.41406,0l-4.29297,4.29297V3c0-.55225-.44727-1-1-1s-1,.44775-1,1v23.58594l-4.29297-4.29297c-.39062-.39062-1.02344-.39062-1.41406,0s-.39062,1.02344,0,1.41406l5.64648,5.64648c.29199.29297.67676.43848,1.06055.43848s.76855-.14551,1.06055-.43848l5.64648-5.64648c.39062-.39062.39062-1.02344,0-1.41406Z"/><path class="uuid-ca9c3ada-e772-444b-a67a-fc85d724b250" d="M15.70703,8.29297l-5.64648-5.64648c-.58398-.58496-1.53711-.58496-2.12109,0l-5.64648,5.64648c-.39062.39062-.39062,1.02344,0,1.41406s1.02344.39062,1.41406,0l4.29297-4.29297v23.58594c0,.55273.44727,1,1,1s1-.44727,1-1V5.41406l4.29297,4.29297c.19531.19531.45117.29297.70703.29297s.51172-.09766.70703-.29297c.39062-.39062.39062-1.02344,0-1.41406Z"/></g></svg>