<?xml version="1.0" encoding="UTF-8"?><svg xmlns="http://www.w3.org/2000/svg" width="32" height="32" viewBox="0 0 32 32"><defs><style>.uuid-911d566d-4bad-4764-bf06-6ce1bb9d1c38{fill:none;}.uuid-225b1942-2c3d-4a8e-acda-a4aff05935cc{fill:#151515;}</style></defs><g id="uuid-4207d375-c4e0-476f-8d81-2b88ee144dbd"><rect class="uuid-911d566d-4bad-4764-bf06-6ce1bb9d1c38" width="32" height="32"/></g><g id="uuid-621ab880-a2d0-4312-9112-eb9af0dd7dcf"><path class="uuid-225b1942-2c3d-4a8e-acda-a4aff05935cc" d="M29,22H5.41406l4.29297-4.29297c.39062-.39062.39062-1.02344,0-1.41406s-1.02344-.39062-1.41406,0l-5.64648,5.64648c-.58496.58496-.58496,1.53613,0,2.12109l5.64648,5.64648c.19531.19531.45117.29297.70703.29297s.51172-.09766.70703-.29297c.39062-.39062.39062-1.02344,0-1.41406l-4.29297-4.29297h23.58594c.55225,0,1-.44727,1-1s-.44775-1-1-1Z"/><path class="uuid-225b1942-2c3d-4a8e-acda-a4aff05935cc" d="M3,10h23.58594l-4.29297,4.29297c-.39062.39062-.39062,1.02344,0,1.41406.19531.19531.45117.29297.70703.29297s.51172-.09766.70703-.29297l5.64648-5.64648c.58496-.58496.58496-1.53613,0-2.12109l-5.64648-5.64648c-.39062-.39062-1.02344-.39062-1.41406,0s-.39062,1.02344,0,1.41406l4.29297,4.29297H3c-.55225,0-1,.44775-1,1s.44775,1,1,1Z"/></g></svg>