<?xml version="1.0" encoding="UTF-8"?><svg xmlns="http://www.w3.org/2000/svg" viewBox="0 0 32 32"><defs><style>.uuid-31a5793a-9818-44f4-9a29-9dc2c25a2053{fill:none;}.uuid-31a5793a-9818-44f4-9a29-9dc2c25a2053,.uuid-96200cbb-1eb9-40d4-975a-43cba27377bf{stroke-width:0px;}.uuid-96200cbb-1eb9-40d4-975a-43cba27377bf{fill:#151515;}</style></defs><g id="uuid-414ca051-9196-4670-940b-177706b16d43"><rect class="uuid-31a5793a-9818-44f4-9a29-9dc2c25a2053" x="0" width="32" height="32"/></g><g id="uuid-114982bb-1586-49ac-8da0-2b2d83e4910d"><path class="uuid-96200cbb-1eb9-40d4-975a-43cba27377bf" d="M30.707,23.293c-.3906-.3906-1.0234-.3906-1.4141,0l-4.293,4.293V3c0-.5522-.4473-1-1-1s-1,.4478-1,1v24.5859l-4.293-4.293c-.3906-.3906-1.0234-.3906-1.4141,0s-.3906,1.0234,0,1.4141l5.6465,5.6465c.292.2925.6768.4385,1.0605.4385s.7686-.146,1.0605-.4385l5.6465-5.6465c.3906-.3906.3906-1.0234,0-1.4141Z"/><path class="uuid-96200cbb-1eb9-40d4-975a-43cba27377bf" d="M9.0605,1.6465c-.584-.585-1.5371-.585-2.1211,0L1.293,7.293c-.3906.3906-.3906,1.0234,0,1.4141s1.0234.3906,1.4141,0l4.293-4.293v24.5859c0,.5522.4473,1,1,1s1-.4478,1-1V4.4141l4.293,4.293c.1953.1953.4512.293.707.293s.5117-.0977.707-.293c.3906-.3906.3906-1.0234,0-1.4141L9.0605,1.6465Z"/></g></svg>