<?xml version="1.0" encoding="UTF-8"?><svg xmlns="http://www.w3.org/2000/svg" viewBox="0 0 32 32"><defs><style>.uuid-4e0fcae8-6fa3-41b2-9884-eaa70d4ca3af{fill:none;}.uuid-4e0fcae8-6fa3-41b2-9884-eaa70d4ca3af,.uuid-dfc4afdf-e926-44a1-bae8-5291c293c137{stroke-width:0px;}.uuid-dfc4afdf-e926-44a1-bae8-5291c293c137{fill:#151515;}</style></defs><g id="uuid-f1bb508b-e86a-4dea-9b33-9dedbccbd14f"><rect class="uuid-4e0fcae8-6fa3-41b2-9884-eaa70d4ca3af" x="0" width="32" height="32"/></g><g id="uuid-8db4b63a-43b7-494c-a873-2d2af2e31761"><path class="uuid-dfc4afdf-e926-44a1-bae8-5291c293c137" d="M30.3535,6.9395l-5.6465-5.6465c-.3906-.3906-1.0234-.3906-1.4141,0s-.3906,1.0234,0,1.4141l4.293,4.293H3c-.5527,0-1,.4478-1,1s.4473,1,1,1h24.5859l-4.293,4.293c-.3906.3906-.3906,1.0234,0,1.4141.1953.1953.4512.293.707.293s.5117-.0977.707-.293l5.6465-5.6465c.585-.585.585-1.5361,0-2.1211Z"/><path class="uuid-dfc4afdf-e926-44a1-bae8-5291c293c137" d="M29,23H4.4141l4.293-4.293c.3906-.3906.3906-1.0234,0-1.4141s-1.0234-.3906-1.4141,0l-5.6465,5.6465c-.585.585-.585,1.5361,0,2.1211l5.6465,5.6465c.1953.1953.4512.293.707.293s.5117-.0977.707-.293c.3906-.3906.3906-1.0234,0-1.4141l-4.293-4.293h24.5859c.5527,0,1-.4478,1-1s-.4473-1-1-1Z"/></g></svg>