<svg xmlns="http://www.w3.org/2000/svg" viewBox="0 0 16 16">
  <path d="M3.45 7a1.15 1.15 0 0 0-.38.26 1 1 0 0 0-.25.37 1.08 1.08 0 0 0-.08.37 1.17 1.17 0 0 0 .33.8 1.14 1.14 0 0 0 .8.32 1.07 1.07 0 0 0 .79-.33A1.13 1.13 0 0 0 3.45 7Zm0 4.14a1.15 1.15 0 0 0-.38.26 1 1 0 0 0-.25.37 1.08 1.08 0 0 0-.08.42 1.17 1.17 0 0 0 .33.8 1.13 1.13 0 0 0 .8.32 1.07 1.07 0 0 0 .79-.33 1.13 1.13 0 0 0-1.21-1.84ZM12.14 5a1.1 1.1 0 0 0 .79-.33 1.08 1.08 0 0 0 .33-.8 1.1 1.1 0 0 0-.26-.79 1.13 1.13 0 0 0-1.22-.27 1.14 1.14 0 0 0-.39.26 1.08 1.08 0 0 0-.25.38 1.24 1.24 0 0 0-.08.41A1.14 1.14 0 0 0 12.14 5ZM3.45 2.81a1.15 1.15 0 0 0-.38.26 1.08 1.08 0 0 0-.25.38 1 1 0 0 0-.08.41 1.15 1.15 0 0 0 .33.8 1.14 1.14 0 0 0 .8.33 1.11 1.11 0 0 0 .79-.33 1.14 1.14 0 0 0 .34-.8 1.1 1.1 0 0 0-.32-.78 1.13 1.13 0 0 0-1.23-.27ZM11.73 7a1.14 1.14 0 0 0-.39.26 1.13 1.13 0 0 0-.25.37A1.3 1.3 0 0 0 11 8a1.12 1.12 0 0 0 .34.8 1.1 1.1 0 0 0 .79.32A1.09 1.09 0 0 0 13.26 8a1.08 1.08 0 0 0-.26-.78A1.11 1.11 0 0 0 11.73 7Zm-4.14 4.09a1 1 0 0 0-.39.26 1 1 0 0 0-.25.37 1.3 1.3 0 0 0-.08.42 1.13 1.13 0 0 0 .33.79 1.09 1.09 0 0 0 .8.33 1.11 1.11 0 0 0 1.12-1.12 1.1 1.1 0 0 0-.31-.78 1.13 1.13 0 0 0-1.22-.27Zm0-8.28a1.1 1.1 0 0 0-.39.26 1.14 1.14 0 0 0-.2.38 1.24 1.24 0 0 0-.08.41A1.13 1.13 0 0 0 8 5a1.11 1.11 0 0 0 1.12-1.14 1.1 1.1 0 0 0-.31-.78 1.13 1.13 0 0 0-1.22-.27Zm4.14 8.28a1.14 1.14 0 0 0-.39.26 1.13 1.13 0 0 0-.25.37 1.3 1.3 0 0 0-.08.42 1.14 1.14 0 0 0 1.13 1.12 1.13 1.13 0 0 0 .8-.32 1.14 1.14 0 0 0 .32-.8 1.08 1.08 0 0 0-.31-.78 1.13 1.13 0 0 0-1.22-.27ZM7.59 7a1 1 0 0 0-.39.26 1 1 0 0 0-.2.32 1.3 1.3 0 0 0-.13.42 1.14 1.14 0 0 0 .34.8A1.12 1.12 0 1 0 7.59 7Z"/>
</svg>
