<?xml version="1.0" encoding="UTF-8"?><svg xmlns="http://www.w3.org/2000/svg" width="32" height="32" viewBox="0 0 32 32"><defs><style>.uuid-57cfb5d1-c3da-43a7-9cfb-5b12dcf6d1b6{fill:none;}.uuid-cc0a99e3-e76e-42e9-b9fc-e2a37139ce3b{fill:#151515;}</style></defs><g id="uuid-f5fddf07-6702-49d9-b37c-0b3e4a0aa20e"><rect class="uuid-57cfb5d1-c3da-43a7-9cfb-5b12dcf6d1b6" width="32" height="32"/></g><g id="uuid-d999eb14-db58-4a69-aeb1-d7af6d26e9b1"><path class="uuid-cc0a99e3-e76e-42e9-b9fc-e2a37139ce3b" d="M1,2c0,.55225.44727,1,1,1h6.52051C3.94531,5.64807,1,10.61615,1,16c0,7.83887,6.11816,14.41113,13.92969,14.9624.55078.03906,1.0293-.37646,1.06738-.92725.00195-.02393.00293-.04785.00293-.07129,0-.52002-.40234-.95947-.92969-.99658-6.76855-.47754-12.07031-6.17334-12.07031-12.96729,0-4.85107,2.76294-9.3064,7-11.5238v6.5238c0,.55225.44727,1,1,1s1-.44775,1-1V2.5c0-.82715-.67285-1.5-1.5-1.5H2c-.55273,0-1,.44775-1,1Z"/><path class="uuid-cc0a99e3-e76e-42e9-b9fc-e2a37139ce3b" d="M16.00293,1.96484c-.03711.54541.37598,1.02881.92676,1.06787,6.76855.47754,12.07031,6.17334,12.07031,12.96729,0,4.85107-2.76294,9.3064-7,11.5238v-6.5238c0-.55225-.44727-1-1-1s-1,.44775-1,1v8.5c0,.82715.67285,1.5,1.5,1.5h8.5c.55273,0,1-.44775,1-1s-.44727-1-1-1h-6.52051c4.5752-2.64807,7.52051-7.61615,7.52051-13,0-7.83887-6.11816-14.41113-13.92969-14.9624-.55078-.03906-1.0293.37646-1.06738.92725Z"/></g></svg>