<?xml version="1.0" encoding="UTF-8"?><svg xmlns="http://www.w3.org/2000/svg" width="32" height="32" viewBox="0 0 32 32"><defs><style>.uuid-7731c2cf-981a-46d7-a93f-12c02c38dda5{fill:none;}.uuid-25f3ec87-10ed-4142-8df7-3e48827bede7{fill:#151515;}</style></defs><g id="uuid-5b045078-82e8-453c-8213-234599003b4a"><rect class="uuid-7731c2cf-981a-46d7-a93f-12c02c38dda5" width="32" height="32"/></g><g id="uuid-c2f4dd1f-0cf3-4e38-a7b6-5f2bfd6ffd86"><path class="uuid-25f3ec87-10ed-4142-8df7-3e48827bede7" d="M30,1c-.55225,0-1,.44727-1,1v6.52051c-2.64807-4.5752-7.61615-7.52051-13-7.52051C8.16113,1,1.58887,7.11816,1.0376,14.92969c-.03906.55078.37646,1.0293.92725,1.06738.02393.00195.04785.00293.07129.00293.52002,0,.95947-.40234.99658-.92969.47754-6.76855,6.17334-12.07031,12.96729-12.07031,4.85107,0,9.3064,2.76294,11.5238,7h-6.5238c-.55225,0-1,.44727-1,1s.44775,1,1,1h8.5c.82715,0,1.5-.67285,1.5-1.5V2c0-.55273-.44775-1-1-1Z"/><path class="uuid-25f3ec87-10ed-4142-8df7-3e48827bede7" d="M30.03516,16.00293c-.54541-.03711-1.02881.37598-1.06787.92676-.47754,6.76855-6.17334,12.07031-12.96729,12.07031-4.85107,0-9.3064-2.76294-11.5238-7h6.5238c.55225,0,1-.44727,1-1s-.44775-1-1-1H2.5c-.82715,0-1.5.67285-1.5,1.5v8.5c0,.55273.44775,1,1,1s1-.44727,1-1v-6.52051c2.64807,4.5752,7.61615,7.52051,13,7.52051,7.83887,0,14.41113-6.11816,14.9624-13.92969.03906-.55078-.37646-1.0293-.92725-1.06738Z"/></g></svg>