<?xml version="1.0" encoding="UTF-8"?><svg xmlns="http://www.w3.org/2000/svg" viewBox="0 0 32 32"><defs><style>.uuid-26f3fba1-a4e9-4339-a726-9ac52bc2501b{fill:none;}.uuid-26f3fba1-a4e9-4339-a726-9ac52bc2501b,.uuid-a30ecd20-64e2-404c-b4dd-e5e2eca80872{stroke-width:0px;}.uuid-a30ecd20-64e2-404c-b4dd-e5e2eca80872{fill:#151515;}</style></defs><g id="uuid-22f44231-4934-445e-b4c4-cd9d4e933284"><rect class="uuid-26f3fba1-a4e9-4339-a726-9ac52bc2501b" width="32" height="32"/></g><g id="uuid-69544bb4-0f80-4285-98fa-33560ef5f7ab"><path class="uuid-a30ecd20-64e2-404c-b4dd-e5e2eca80872" d="M31.0332,16.002c-.5503-.0371-1.0273.3818-1.064.9321-.4829,7.3267-6.6187,13.0659-13.9692,13.0659-5.4132,0-10.3177-3.1286-12.631-8h6.631c.5522,0,1-.4478,1-1s-.4478-1-1-1H1.5c-.8271,0-1.5.6729-1.5,1.5v8.5c0,.5522.4478,1,1,1s1-.4478,1-1v-6.2836c2.794,5.0734,8.1368,8.2836,14,8.2836,8.4004,0,15.4131-6.5601,15.9653-14.9341.0361-.5513-.3813-1.0273-.9321-1.064Z"/><path class="uuid-a30ecd20-64e2-404c-b4dd-e5e2eca80872" d="M31,1c-.5522,0-1,.4478-1,1v6.2658C27.2064,3.2029,21.8658,0,16,0,7.5996,0,.5869,6.5601.0347,14.9341c-.0361.5513.3813,1.0273.9321,1.064.0225.0015.0449.002.0669.002.5225,0,.9619-.4058.9971-.9341.4829-7.3267,6.6187-13.0659,13.9692-13.0659,5.423,0,10.3323,3.1286,12.6415,8h-6.6415c-.5522,0-1,.4478-1,1s.4478,1,1,1h8.5c.8271,0,1.5-.6729,1.5-1.5V2c0-.5522-.4478-1-1-1Z"/></g></svg>