<?xml version="1.0" encoding="UTF-8"?><svg xmlns="http://www.w3.org/2000/svg" width="32" height="32" viewBox="0 0 32 32"><defs><style>.uuid-5cc6351b-a666-4d64-9967-7fe67e0000e8{fill:none;}.uuid-1407d5c0-364c-4db0-8b20-425ddbaf3fc2{fill:#151515;}</style></defs><g id="uuid-bd54f9f7-5a07-427b-81fa-f8611dc43a89"><rect class="uuid-5cc6351b-a666-4d64-9967-7fe67e0000e8" width="32" height="32"/></g><g id="uuid-3cb20ee8-3955-4582-bcb6-61691486b4be"><path class="uuid-1407d5c0-364c-4db0-8b20-425ddbaf3fc2" d="M31,8.875v-4.375c0-.82715-.67285-1.5-1.5-1.5H2.5c-.82715,0-1.5.67285-1.5,1.5v4.375h30Z"/><path class="uuid-1407d5c0-364c-4db0-8b20-425ddbaf3fc2" d="M1,11.125v16.375c0,.82715.67285,1.5,1.5,1.5h27c.82715,0,1.5-.67285,1.5-1.5V11.125H1ZM27,21.125h-9.875v3.875c0,.62109-.50391,1.125-1.125,1.125s-1.125-.50391-1.125-1.125v-3.875H5c-.62109,0-1.125-.50391-1.125-1.125s.50391-1.125,1.125-1.125h9.875v-3.875c0-.62109.50391-1.125,1.125-1.125s1.125.50391,1.125,1.125v3.875h9.875c.62109,0,1.125.50391,1.125,1.125s-.50391,1.125-1.125,1.125Z"/></g></svg>