<?xml version="1.0" encoding="UTF-8"?><svg xmlns="http://www.w3.org/2000/svg" viewBox="0 0 32 32"><defs><style>.uuid-90a4dc64-474c-4810-a023-bd99cb488531{fill:none;}.uuid-90a4dc64-474c-4810-a023-bd99cb488531,.uuid-bd412ee0-45a0-483c-9f1b-50e36b5f296e{stroke-width:0px;}.uuid-bd412ee0-45a0-483c-9f1b-50e36b5f296e{fill:#151515;}</style></defs><g id="uuid-c03ffa21-41fd-4039-9df8-dccea1b49a9d"><rect class="uuid-90a4dc64-474c-4810-a023-bd99cb488531" width="32" height="32"/></g><g id="uuid-ab7308f0-40aa-45dc-b217-4174a4963251"><path class="uuid-bd412ee0-45a0-483c-9f1b-50e36b5f296e" d="M29.5,3H2.5c-.8271,0-1.5.6729-1.5,1.5v23c0,.8271.6729,1.5,1.5,1.5h27c.8271,0,1.5-.6729,1.5-1.5V4.5c0-.8271-.6729-1.5-1.5-1.5ZM3,11h12v7H3v-7ZM17,11h12v7h-12v-7ZM29,5v4H3v-4h26ZM3,20h12v7H3v-7ZM17,27v-7h12v7h-12Z"/></g></svg>