<?xml version="1.0" encoding="UTF-8"?><svg xmlns="http://www.w3.org/2000/svg" width="32" height="32" viewBox="0 0 32 32"><defs><style>.uuid-8bc7b5bb-c60b-4e4b-9ad5-0bf23eb6d4e6{fill:none;}.uuid-7bd5bdb1-d1c3-48a9-b47b-b91d9c784495{fill:#151515;}</style></defs><g id="uuid-8304ae59-3ab2-4d99-93b3-a45e0c4ffe47"><rect class="uuid-8bc7b5bb-c60b-4e4b-9ad5-0bf23eb6d4e6" width="32" height="32"/></g><g id="uuid-aa206bbe-a724-45fc-9f2e-782ac632af76"><path class="uuid-7bd5bdb1-d1c3-48a9-b47b-b91d9c784495" d="M6,20h9v4c0,.55273.44775,1,1,1s1-.44727,1-1v-4h9c.55225,0,1-.44727,1-1s-.44775-1-1-1h-9v-4c0-.55273-.44775-1-1-1s-1,.44727-1,1v4H6c-.55225,0-1,.44727-1,1s.44775,1,1,1Z"/><path class="uuid-7bd5bdb1-d1c3-48a9-b47b-b91d9c784495" d="M29.5,3H2.5c-.82715,0-1.5.67285-1.5,1.5v23c0,.82715.67285,1.5,1.5,1.5h27c.82715,0,1.5-.67285,1.5-1.5V4.5c0-.82715-.67285-1.5-1.5-1.5ZM29,27H3V11h26v16Z"/></g></svg>