<?xml version="1.0" encoding="UTF-8"?><svg xmlns="http://www.w3.org/2000/svg" width="32" height="32" viewBox="0 0 32 32"><defs><style>.uuid-32085fac-af22-4312-8996-d59bdd81a45a{fill:none;}.uuid-69b6bcbb-429c-483c-b895-aa3d63eb7c22{fill:#151515;}</style></defs><g id="uuid-e418730a-6c6a-4da6-a49f-947671d1ade9"><rect class="uuid-32085fac-af22-4312-8996-d59bdd81a45a" width="32" height="32"/></g><g id="uuid-6b6348e3-f89b-484d-bb95-171964bdb1f1"><path class="uuid-69b6bcbb-429c-483c-b895-aa3d63eb7c22" d="M7.70703,7.70703c.39062-.39062.39062-1.02344,0-1.41406L3.70703,2.29297c-.39062-.39062-1.02344-.39062-1.41406,0s-.39062,1.02344,0,1.41406l4,4c.19531.19531.45117.29297.70703.29297s.51172-.09766.70703-.29297Z"/><path class="uuid-69b6bcbb-429c-483c-b895-aa3d63eb7c22" d="M29.35352,17.93945l-10.64648-10.64648c-.1875-.1875-.44189-.29297-.70703-.29297h-6c-.26514,0-.51953.10547-.70703.29297l-4,4c-.1875.1875-.29297.44141-.29297.70703v6c0,.26562.10547.51953.29297.70703l10.64648,10.64648c.29248.29297.67627.43848,1.06055.43848s.76807-.14551,1.06055-.43848l9.29297-9.29297c.2832-.2832.43945-.66016.43945-1.06055s-.15625-.77734-.43945-1.06055ZM14.00488,15.87598c-1.03552,0-1.875-.83948-1.875-1.875s.83948-1.875,1.875-1.875,1.875.83948,1.875,1.875-.83948,1.875-1.875,1.875Z"/></g></svg>