<?xml version="1.0" encoding="UTF-8"?><svg xmlns="http://www.w3.org/2000/svg" viewBox="0 0 32 32"><defs><style>.uuid-dee2ce06-40df-4f4d-8894-1f7c4d7dc80f{fill:none;}.uuid-dee2ce06-40df-4f4d-8894-1f7c4d7dc80f,.uuid-c8f6bfee-3f97-4202-9efa-9a6ccc7138bb{stroke-width:0px;}.uuid-c8f6bfee-3f97-4202-9efa-9a6ccc7138bb{fill:#151515;}</style></defs><g id="uuid-94a36f1b-1a7b-4d05-91d8-436a58aa98f1"><rect class="uuid-dee2ce06-40df-4f4d-8894-1f7c4d7dc80f" width="32" height="32"/></g><g id="uuid-cc69615f-0031-447f-b9b8-af45dd6cab7c"><path class="uuid-c8f6bfee-3f97-4202-9efa-9a6ccc7138bb" d="M6.707,5.293L2.707,1.293c-.3906-.3906-1.0234-.3906-1.4141,0s-.3906,1.0234,0,1.4141l4,4c.1953.1953.4512.293.707.293s.5117-.0977.707-.293c.3906-.3906.3906-1.0234,0-1.4141Z"/><path class="uuid-c8f6bfee-3f97-4202-9efa-9a6ccc7138bb" d="M30.127,18.0664l-11.5967-11.5967c-.1406-.1406-.3311-.2197-.5303-.2197h-6c-.1992,0-.3896.0791-.5303.2197l-5,5c-.1406.1406-.2197.3311-.2197.5303v6c0,.1982.0781.3877.2178.5283l11.5459,11.6426c.2363.2383.5508.3701.8867.3701h.001c.335,0,.6494-.1299.8838-.3662l10.3418-10.3408c.4873-.4873.4873-1.2803,0-1.7676ZM13,14.5001c-.8284,0-1.5-.6716-1.5-1.5s.6716-1.5,1.5-1.5,1.5.6716,1.5,1.5-.6716,1.5-1.5,1.5Z"/></g></svg>