<?xml version="1.0" encoding="UTF-8"?><svg xmlns="http://www.w3.org/2000/svg" viewBox="0 0 32 32"><defs><style>.uuid-2c5528e4-cee7-4dbf-9197-c640198e2303{fill:none;}.uuid-2c5528e4-cee7-4dbf-9197-c640198e2303,.uuid-ad2cedd4-f064-4177-bf3b-cc8772f0feba{stroke-width:0px;}.uuid-ad2cedd4-f064-4177-bf3b-cc8772f0feba{fill:#151515;}</style></defs><g id="uuid-5873e33c-6d2c-4bde-9470-612b21ea052d"><rect class="uuid-2c5528e4-cee7-4dbf-9197-c640198e2303" width="32" height="32"/></g><g id="uuid-e03f9132-33a1-4341-9df9-7596bb80f4ec"><path class="uuid-ad2cedd4-f064-4177-bf3b-cc8772f0feba" d="M6.707,6.707c.3906-.3906.3906-1.0234,0-1.4141L2.707,1.293c-.3906-.3906-1.0234-.3906-1.4141,0s-.3906,1.0234,0,1.4141l4,4c.1953.1953.4512.293.707.293s.5117-.0977.707-.293Z"/><path class="uuid-ad2cedd4-f064-4177-bf3b-cc8772f0feba" d="M30.3037,17.8896l-11.5967-11.5967c-.1875-.1875-.4414-.293-.707-.293h-6c-.2656,0-.5195.1055-.707.293l-5,5c-.1875.1875-.293.4419-.293.707v6c0,.2637.1045.5171.29.7041l11.5449,11.6421c.2832.2861.6602.4443,1.0625.4453h.0039c.4014,0,.7783-.1562,1.0605-.4395l10.3418-10.3413c.2832-.2837.4395-.6606.4395-1.0615s-.1562-.7773-.4395-1.0596ZM18.9033,28.5825l-10.9033-10.9941v-5.1743l4.4141-4.4141h5.1719l10.9502,10.9502-9.6328,9.6323Z"/><circle class="uuid-ad2cedd4-f064-4177-bf3b-cc8772f0feba" cx="14" cy="14.0002" r="1.5"/></g></svg>