<?xml version="1.0" encoding="UTF-8"?><svg xmlns="http://www.w3.org/2000/svg" width="32" height="32" viewBox="0 0 32 32"><defs><style>.uuid-a29ce255-ada2-4795-b69f-e6d4a2493614{fill:none;}.uuid-0105e083-b858-41c7-ad7c-942fae741ac1{fill:#151515;}</style></defs><g id="uuid-6bdf536b-6f3e-4106-9af9-758724b7e93e"><rect class="uuid-a29ce255-ada2-4795-b69f-e6d4a2493614" width="32" height="32"/></g><g id="uuid-49cb4b86-f317-4f1b-a812-807c59e02a59"><path class="uuid-0105e083-b858-41c7-ad7c-942fae741ac1" d="M7.70703,7.70703c.39062-.39062.39062-1.02344,0-1.41406L3.70703,2.29297c-.39062-.39062-1.02344-.39062-1.41406,0s-.39062,1.02344,0,1.41406l4,4c.19531.19531.45117.29297.70703.29297s.51172-.09766.70703-.29297Z"/><path class="uuid-0105e083-b858-41c7-ad7c-942fae741ac1" d="M29.35352,17.93945l-10.64648-10.64648c-.1875-.1875-.44189-.29297-.70703-.29297h-6c-.26514,0-.51953.10547-.70703.29297l-4,4c-.1875.1875-.29297.44141-.29297.70703v6c0,.26562.10547.51953.29297.70703l10.64648,10.64648c.29248.29297.67627.43848,1.06055.43848s.76807-.14551,1.06055-.43848l9.29297-9.29297c.2832-.2832.43945-.66016.43945-1.06055s-.15625-.77734-.43945-1.06055ZM19,27.58594l-10-10v-5.17188l3.41406-3.41406h5.17188l10,10-8.58594,8.58594Z"/><circle class="uuid-0105e083-b858-41c7-ad7c-942fae741ac1" cx="14.00488" cy="14.00098" r="1.625"/></g></svg>