<?xml version="1.0" encoding="UTF-8"?><svg xmlns="http://www.w3.org/2000/svg" width="32" height="32" viewBox="0 0 32 32"><defs><style>.uuid-2d8f5b62-41e9-4f43-8104-fb29c5f4be27{fill:none;}.uuid-fdfa2421-2749-4065-993d-9ef24d3b74a6{fill:#151515;}</style></defs><g id="uuid-d5b7a775-9f2c-4377-890c-4bc387af39c9"><rect class="uuid-2d8f5b62-41e9-4f43-8104-fb29c5f4be27" width="32" height="32"/></g><g id="uuid-e25b8460-1c51-4266-9108-4259bbc7510e"><path class="uuid-fdfa2421-2749-4065-993d-9ef24d3b74a6" d="M21,13h-10c-.55225,0-1,.44727-1,1s.44775,1,1,1h10c.55225,0,1-.44727,1-1s-.44775-1-1-1Z"/><path class="uuid-fdfa2421-2749-4065-993d-9ef24d3b74a6" d="M21,18h-10c-.55225,0-1,.44727-1,1s.44775,1,1,1h10c.55225,0,1-.44727,1-1s-.44775-1-1-1Z"/><path class="uuid-fdfa2421-2749-4065-993d-9ef24d3b74a6" d="M16,23h-5c-.55225,0-1,.44727-1,1s.44775,1,1,1h5c.55225,0,1-.44727,1-1s-.44775-1-1-1Z"/><path class="uuid-fdfa2421-2749-4065-993d-9ef24d3b74a6" d="M25.5,6h-2.5v-.5c0-.82715-.67285-1.5-1.5-1.5h-1.62646c-.44531-1.72363-2.01318-3-3.87354-3s-3.42822,1.27637-3.87354,3h-1.62646c-.82715,0-1.5.67285-1.5,1.5v.5h-2.5c-.82715,0-1.5.67285-1.5,1.5v22c0,.82715.67285,1.5,1.5,1.5h19c.82715,0,1.5-.67285,1.5-1.5V7.5c0-.82715-.67285-1.5-1.5-1.5ZM11,6h2c.55225,0,1-.44727,1-1,0-1.10254.89697-2,2-2s2,.89746,2,2c0,.55273.44775,1,1,1h2v2h-10v-2ZM25,29H7V8h2v.5c0,.82715.67285,1.5,1.5,1.5h11c.82715,0,1.5-.67285,1.5-1.5v-.5h2v21Z"/></g></svg>