<?xml version="1.0" encoding="UTF-8"?><svg xmlns="http://www.w3.org/2000/svg" width="32" height="32" viewBox="0 0 32 32"><defs><style>.uuid-8e23874d-c496-474d-a0e6-8a1a439df998{fill:none;}.uuid-34a39172-f815-4a80-9fe0-edfdd878b9fb{fill:#151515;}</style></defs><g id="uuid-ce39d093-dabe-4c0e-8311-59677de85718"><rect class="uuid-8e23874d-c496-474d-a0e6-8a1a439df998" width="32" height="32"/></g><g id="uuid-24453daf-0af9-4cf0-b58f-94d96f866c19"><path class="uuid-34a39172-f815-4a80-9fe0-edfdd878b9fb" d="M28.5,2H3.5c-.82715,0-1.5.67285-1.5,1.5v25c0,.82715.67285,1.5,1.5,1.5h25c.82715,0,1.5-.67285,1.5-1.5V3.5c0-.82715-.67285-1.5-1.5-1.5ZM28,28H4V4h24v24Z"/><path class="uuid-34a39172-f815-4a80-9fe0-edfdd878b9fb" d="M15,8.875h5c.4834,0,.875-.3916.875-.875s-.3916-.875-.875-.875h-5c-.4834,0-.875.3916-.875.875s.3916.875.875.875Z"/><path class="uuid-34a39172-f815-4a80-9fe0-edfdd878b9fb" d="M11.125,14c0,.4834.3916.875.875.875h5c.4834,0,.875-.3916.875-.875s-.3916-.875-.875-.875h-5c-.4834,0-.875.3916-.875.875Z"/><path class="uuid-34a39172-f815-4a80-9fe0-edfdd878b9fb" d="M20.125,14c0,.4834.3916.875.875.875h2.5c.7583,0,1.375-.61719,1.375-1.375v-5.5c0-.4834-.3916-.875-.875-.875s-.875.3916-.875.875v5.125h-2.125c-.4834,0-.875.3916-.875.875Z"/><path class="uuid-34a39172-f815-4a80-9fe0-edfdd878b9fb" d="M8,14.875c.4834,0,.875-.3916.875-.875v-5.125h2.125c.4834,0,.875-.3916.875-.875s-.3916-.875-.875-.875h-2.5c-.7583,0-1.375.61719-1.375,1.375v5.5c0,.4834.3916.875.875.875Z"/><path class="uuid-34a39172-f815-4a80-9fe0-edfdd878b9fb" d="M20.875,18c0-.4834-.3916-.875-.875-.875h-5c-.4834,0-.875.3916-.875.875s.3916.875.875.875h5c.4834,0,.875-.3916.875-.875Z"/><path class="uuid-34a39172-f815-4a80-9fe0-edfdd878b9fb" d="M17,23.125h-5c-.4834,0-.875.3916-.875.875s.3916.875.875.875h5c.4834,0,.875-.3916.875-.875s-.3916-.875-.875-.875Z"/><path class="uuid-34a39172-f815-4a80-9fe0-edfdd878b9fb" d="M24,17.125c-.4834,0-.875.3916-.875.875v5.125h-2.125c-.4834,0-.875.3916-.875.875s.3916.875.875.875h2.5c.7583,0,1.375-.61719,1.375-1.375v-5.5c0-.4834-.3916-.875-.875-.875Z"/><path class="uuid-34a39172-f815-4a80-9fe0-edfdd878b9fb" d="M8,24.875c.4834,0,.875-.3916.875-.875v-5.125h2.125c.4834,0,.875-.3916.875-.875s-.3916-.875-.875-.875h-2.5c-.7583,0-1.375.61719-1.375,1.375v5.5c0,.4834.3916.875.875.875Z"/></g></svg>