<?xml version="1.0" encoding="UTF-8"?><svg xmlns="http://www.w3.org/2000/svg" width="32" height="32" viewBox="0 0 32 32"><defs><style>.uuid-215b2fc4-e25c-40fd-b564-6a04171f5c40{fill:none;}.uuid-24e51aac-4222-4aff-8b0a-0c2e33a2cbcc{fill:#151515;}</style></defs><g id="uuid-2c113951-af14-4556-a73a-72fdfdfd6754"><rect class="uuid-215b2fc4-e25c-40fd-b564-6a04171f5c40" width="32" height="32"/></g><g id="uuid-f952c638-fefe-464b-8b6a-d55048809040"><path class="uuid-24e51aac-4222-4aff-8b0a-0c2e33a2cbcc" d="M28.5,2H3.5c-.82715,0-1.5.67285-1.5,1.5v25c0,.82715.67285,1.5,1.5,1.5h25c.82715,0,1.5-.67285,1.5-1.5V3.5c0-.82715-.67285-1.5-1.5-1.5ZM15,6h5c.55225,0,1,.44727,1,1s-.44775,1-1,1h-5c-.55225,0-1-.44727-1-1s.44775-1,1-1ZM12,12h5c.55225,0,1,.44727,1,1s-.44775,1-1,1h-5c-.55225,0-1-.44727-1-1s.44775-1,1-1ZM6,7.5c0-.82715.67285-1.5,1.5-1.5h2.5c.55225,0,1,.44727,1,1s-.44775,1-1,1h-2v5c0,.55273-.44775,1-1,1s-1-.44727-1-1v-5.5ZM10,20h-2v5c0,.55273-.44775,1-1,1s-1-.44727-1-1v-5.5c0-.82715.67285-1.5,1.5-1.5h2.5c.55225,0,1,.44727,1,1s-.44775,1-1,1ZM17,26h-5c-.55225,0-1-.44727-1-1s.44775-1,1-1h5c.55225,0,1,.44727,1,1s-.44775,1-1,1ZM20,20h-5c-.55225,0-1-.44727-1-1s.44775-1,1-1h5c.55225,0,1,.44727,1,1s-.44775,1-1,1ZM26,24.5c0,.82715-.67285,1.5-1.5,1.5h-2.5c-.55225,0-1-.44727-1-1s.44775-1,1-1h2v-5c0-.55273.44775-1,1-1s1,.44727,1,1v5.5ZM26,12.5c0,.82715-.67285,1.5-1.5,1.5h-2.5c-.55225,0-1-.44727-1-1s.44775-1,1-1h2v-5c0-.55273.44775-1,1-1s1,.44727,1,1v5.5Z"/></g></svg>