<?xml version="1.0" encoding="UTF-8"?><svg xmlns="http://www.w3.org/2000/svg" width="32" height="32" viewBox="0 0 32 32"><defs><style>.uuid-8696e692-93ef-4c96-9e1a-d3dcc3634cfc{fill:none;}.uuid-f3f955e1-873f-46b6-974d-51a7e1e5aec2{fill:#151515;}</style></defs><g id="uuid-c9194c44-c719-46a0-bf29-b35278c7e32b"><rect class="uuid-8696e692-93ef-4c96-9e1a-d3dcc3634cfc" width="32" height="32"/></g><g id="uuid-c4e55404-bf4b-427a-b616-9374b742f241"><circle class="uuid-f3f955e1-873f-46b6-974d-51a7e1e5aec2" cx="11" cy="11" r="2.125"/><path class="uuid-f3f955e1-873f-46b6-974d-51a7e1e5aec2" d="M26.60645,5.39355c-2.83301-2.83301-6.59961-4.39355-10.60645-4.39355s-7.77344,1.56055-10.60645,4.39355S1,11.99316,1,16s1.56055,7.77344,4.39355,10.60645,6.6001,4.39355,10.60645,4.39355c4.00684,0,7.77344-1.56055,10.60645-4.39355s4.39355-6.59961,4.39355-10.60645-1.56055-7.77344-4.39355-10.60645ZM11,7.125c2.13672,0,3.875,1.73828,3.875,3.875s-1.73828,3.875-3.875,3.875-3.875-1.73828-3.875-3.875,1.73828-3.875,3.875-3.875ZM11,25c-2.20557,0-4-1.79395-4-4s1.79443-4,4-4,4,1.79395,4,4-1.79443,4-4,4ZM21,25c-2.20557,0-4-1.79395-4-4s1.79443-4,4-4,4,1.79395,4,4-1.79443,4-4,4ZM21,15c-2.20557,0-4-1.79395-4-4s1.79443-4,4-4,4,1.79395,4,4-1.79443,4-4,4Z"/></g></svg>