<?xml version="1.0" encoding="UTF-8"?><svg xmlns="http://www.w3.org/2000/svg" width="32" height="32" viewBox="0 0 32 32"><defs><style>.uuid-c78af288-37fc-45ce-b629-12d62252a2f4{fill:none;}.uuid-47b2372d-208b-4993-8e10-ba50cfcc1aed{fill:#151515;}</style></defs><g id="uuid-9c872296-2684-490b-a69d-9d96fbc97605"><rect class="uuid-c78af288-37fc-45ce-b629-12d62252a2f4" width="32" height="32"/></g><g id="uuid-3d26b2cc-dffb-4b5c-9581-902b55929741"><path class="uuid-47b2372d-208b-4993-8e10-ba50cfcc1aed" d="M26.60645,5.39355c-2.83301-2.83301-6.59961-4.39355-10.60645-4.39355s-7.77344,1.56055-10.60645,4.39355S1,11.99316,1,16s1.56055,7.77344,4.39355,10.60645,6.6001,4.39355,10.60645,4.39355c4.00684,0,7.77344-1.56055,10.60645-4.39355s4.39355-6.59961,4.39355-10.60645-1.56055-7.77344-4.39355-10.60645ZM25.19238,25.19238c-2.45557,2.45508-5.72021,3.80762-9.19238,3.80762s-6.73682-1.35254-9.19238-3.80762c-2.45508-2.45508-3.80762-5.71973-3.80762-9.19238s1.35254-6.7373,3.80762-9.19238c2.45557-2.45508,5.72021-3.80762,9.19238-3.80762s6.73682,1.35254,9.19238,3.80762c2.45508,2.45508,3.80762,5.71973,3.80762,9.19238s-1.35254,6.7373-3.80762,9.19238Z"/><circle class="uuid-47b2372d-208b-4993-8e10-ba50cfcc1aed" cx="11" cy="11" r="3.75"/><path class="uuid-47b2372d-208b-4993-8e10-ba50cfcc1aed" d="M21,7c-2.20557,0-4,1.79395-4,4s1.79443,4,4,4,4-1.79395,4-4-1.79443-4-4-4ZM21,13c-1.10303,0-2-.89746-2-2s.89697-2,2-2,2,.89746,2,2-.89697,2-2,2Z"/><path class="uuid-47b2372d-208b-4993-8e10-ba50cfcc1aed" d="M11,17c-2.20557,0-4,1.79395-4,4s1.79443,4,4,4,4-1.79395,4-4-1.79443-4-4-4ZM11,23c-1.10303,0-2-.89746-2-2s.89697-2,2-2,2,.89746,2,2-.89697,2-2,2Z"/><path class="uuid-47b2372d-208b-4993-8e10-ba50cfcc1aed" d="M21,17c-2.20557,0-4,1.79395-4,4s1.79443,4,4,4,4-1.79395,4-4-1.79443-4-4-4ZM21,23c-1.10303,0-2-.89746-2-2s.89697-2,2-2,2,.89746,2,2-.89697,2-2,2Z"/></g></svg>