<?xml version="1.0" encoding="UTF-8"?><svg xmlns="http://www.w3.org/2000/svg" width="32" height="32" viewBox="0 0 32 32"><defs><style>.uuid-8a01a363-e6df-4f04-81de-1cec3242fb4c{fill:none;}.uuid-9591eb70-3e57-48c2-a84a-7133e8c36763{fill:#151515;}</style></defs><g id="uuid-08f1e90e-102a-49a2-87c6-20e0b68d997e"><rect class="uuid-8a01a363-e6df-4f04-81de-1cec3242fb4c" width="32" height="32"/></g><g id="uuid-73ea47f8-db4a-4bd8-8c2c-127e9caa7978"><path class="uuid-9591eb70-3e57-48c2-a84a-7133e8c36763" d="M13.75,2H3.25c-.68945,0-1.25.56055-1.25,1.25v10.5c0,.68945.56055,1.25,1.25,1.25h10.5c.68945,0,1.25-.56055,1.25-1.25V3.25c0-.68945-.56055-1.25-1.25-1.25ZM13,13H4V4h9v9Z"/><path class="uuid-9591eb70-3e57-48c2-a84a-7133e8c36763" d="M28.75,2h-10.5c-.68945,0-1.25.56055-1.25,1.25v10.5c0,.68945.56055,1.25,1.25,1.25h10.5c.68945,0,1.25-.56055,1.25-1.25V3.25c0-.68945-.56055-1.25-1.25-1.25ZM28,13h-9V4h9v9Z"/><path class="uuid-9591eb70-3e57-48c2-a84a-7133e8c36763" d="M13.75,17H3.25c-.68945,0-1.25.56055-1.25,1.25v10.5c0,.68945.56055,1.25,1.25,1.25h10.5c.68945,0,1.25-.56055,1.25-1.25v-10.5c0-.68945-.56055-1.25-1.25-1.25ZM13,28H4v-9h9v9Z"/><path class="uuid-9591eb70-3e57-48c2-a84a-7133e8c36763" d="M28.75,17h-10.5c-.68945,0-1.25.56055-1.25,1.25v10.5c0,.68945.56055,1.25,1.25,1.25h10.5c.68945,0,1.25-.56055,1.25-1.25v-10.5c0-.68945-.56055-1.25-1.25-1.25ZM28,28h-9v-9h9v9Z"/></g></svg>