<svg xmlns="http://www.w3.org/2000/svg" viewBox="0 0 16 16">
  <path d="m14 11.16-.69.69-.68-.69a.58.58 0 0 0-.81 0 .56.56 0 0 0 0 .81l1.09 1.1a.57.57 0 0 0 .4.16.57.57 0 0 0 .41-.16L14.78 12a.56.56 0 0 0 0-.81.58.58 0 0 0-.78-.03Zm-1.4-2.08.68-.68.69.68a.54.54 0 0 0 .41.17.54.54 0 0 0 .4-.17.56.56 0 0 0 0-.81l-1.09-1.09a.58.58 0 0 0-.81 0l-1.09 1.09a.57.57 0 0 0 .81.81Zm-3.33-2.8H7.11l.07-.09.05-.06a4.06 4.06 0 0 0 .71-1.23 3.86 3.86 0 0 0 .17-1.59 1.57 1.57 0 0 0-.72-1.2A1.41 1.41 0 0 0 6.16 2a1.33 1.33 0 0 0-.83 1.12v.18c0 .24 0 .24-.16.32L2.7 5.45a5 5 0 0 0-.7.63A4.41 4.41 0 0 0 .94 9.33a4.5 4.5 0 0 0 4.56 4h3.41a.58.58 0 0 0 .56-.46l1-5.07a1.29 1.29 0 0 0-1.2-1.52Z"/>
</svg>
