<?xml version="1.0" encoding="UTF-8"?><svg xmlns="http://www.w3.org/2000/svg" width="32" height="32" viewBox="0 0 32 32"><defs><style>.uuid-39da7da2-f962-4d73-b364-793c5f657721{fill:none;}.uuid-80de3bbf-21df-45be-9b0e-5efcd27b380d{fill:#151515;}</style></defs><g id="uuid-dda6703b-313b-4736-90de-677ce26f15d6"><rect class="uuid-39da7da2-f962-4d73-b364-793c5f657721" width="32" height="32"/></g><g id="uuid-1e1993f1-c220-43e8-bd3a-8d215b2c132e"><path class="uuid-80de3bbf-21df-45be-9b0e-5efcd27b380d" d="M21,11.52167V3h2c.55273,0,1-.44727,1-1s-.44727-1-1-1h-14c-.55273,0-1,.44727-1,1s.44727,1,1,1h2v8.52167c-2.40997,1.61652-4,4.36456-4,7.47833,0,.55273.44727,1,1,1h7v10c0,.55273.44727,1,1,1s1-.44727,1-1v-10h7c.55273,0,1-.44727,1-1,0-3.11377-1.59003-5.86182-4-7.47833ZM13,3h6v7.52502c-.94-.3338-1.9469-.52502-3-.52502s-2.06.19122-3,.52502V3ZM9.07129,18c.48633-3.3877,3.4082-6,6.92871-6s6.44238,2.6123,6.92871,6h-13.85742Z"/></g></svg>