<svg id="bf149472-e29a-4215-88ad-328e9801553f" data-name="Icons" xmlns="http://www.w3.org/2000/svg" viewBox="0 0 16 16"><path d="M14,11.16l-.69.69-.68-.69a.58.58,0,0,0-.81,0,.56.56,0,0,0,0,.81l1.09,1.1a.57.57,0,0,0,.4.16.57.57,0,0,0,.41-.16L14.78,12a.56.56,0,0,0,0-.81A.58.58,0,0,0,14,11.16Z"/><path d="M12.6,9.08l.68-.68.69.68a.54.54,0,0,0,.41.17.54.54,0,0,0,.4-.17.56.56,0,0,0,0-.81L13.69,7.18a.58.58,0,0,0-.81,0L11.79,8.27a.57.57,0,0,0,.81.81Z"/><path d="M9.27,6.28H7.11l.07-.09.05-.06A4.06,4.06,0,0,0,7.94,4.9a3.86,3.86,0,0,0,.17-1.59,1.57,1.57,0,0,0-.72-1.2A1.41,1.41,0,0,0,6.16,2a1.33,1.33,0,0,0-.83,1.12v.18c0,.24,0,.24-.16.32L2.7,5.45A5,5,0,0,0,2,6.08,4.41,4.41,0,0,0,.94,9.33a4.5,4.5,0,0,0,4.56,4H8.91a.58.58,0,0,0,.56-.46l1-5.07A1.29,1.29,0,0,0,9.27,6.28Z"/></svg>