<svg id="ab89cee4-ba04-44ff-a41f-a8bb6ee40ac8" data-name="Icons" xmlns="http://www.w3.org/2000/svg" viewBox="0 0 16 16"><path d="M14,11.16l-.68.69-.69-.69a.58.58,0,0,0-.81,0,.56.56,0,0,0,0,.81l1.09,1.1a.57.57,0,0,0,.41.16.57.57,0,0,0,.4-.16L14.78,12a.56.56,0,0,0,0-.81A.58.58,0,0,0,14,11.16ZM12.19,9.25a.54.54,0,0,0,.41-.17l.69-.68.68.68a.57.57,0,1,0,.81-.81L13.69,7.18a.58.58,0,0,0-.81,0L11.79,8.27a.56.56,0,0,0,0,.81A.54.54,0,0,0,12.19,9.25Zm-2.92-3H7.11l0,0,.1-.11h0A4.06,4.06,0,0,0,7.94,4.9a3.86,3.86,0,0,0,.17-1.59,1.54,1.54,0,0,0-.72-1.19,1.33,1.33,0,0,0-2.06,1v.18c0,.24,0,.24-.16.32L2.7,5.45A5,5,0,0,0,2,6.08,4.43,4.43,0,0,0,.94,9.33a4.5,4.5,0,0,0,4.56,4H8.91a.58.58,0,0,0,.56-.46l1-5.07A1.29,1.29,0,0,0,9.27,6.28ZM8.44,12.2H5.5a3.35,3.35,0,0,1-3.41-3,3.24,3.24,0,0,1,.8-2.4,4.31,4.31,0,0,1,.5-.47L5.8,4.57a1.33,1.33,0,0,0,.66-1.2l0-.13a.2.2,0,0,1,.09-.18h.08a.43.43,0,0,1,.14,0A.42.42,0,0,1,7,3.42a2.8,2.8,0,0,1-.12,1.12,3.06,3.06,0,0,1-.52.88l-.08.11a3.74,3.74,0,0,1-1,.84A.58.58,0,0,0,5,7a.59.59,0,0,0,.38.4.47.47,0,0,0,.17,0h0l3.66,0h0a.14.14,0,0,1,.1.05.17.17,0,0,1,0,.11Z"/></svg>