<?xml version="1.0" encoding="UTF-8"?><svg xmlns="http://www.w3.org/2000/svg" width="32" height="32" viewBox="0 0 32 32"><defs><style>.uuid-178cb242-7d2a-4d6d-afab-14bc73e0eb35{fill:none;}.uuid-c684375e-193a-4027-b12c-5d2815d2ec0c{fill:#151515;}</style></defs><g id="uuid-c771ef6a-6968-4dd8-93db-db6f364c88ba"><rect class="uuid-178cb242-7d2a-4d6d-afab-14bc73e0eb35" width="32" height="32"/></g><g id="uuid-5f229584-3d44-4e99-a433-ba4873686058"><path class="uuid-c684375e-193a-4027-b12c-5d2815d2ec0c" d="M20.75,11.66174V3h2.25c.55273,0,1-.44727,1-1s-.44727-1-1-1h-14c-.55273,0-1,.44727-1,1s.44727,1,1,1h2.25v8.66174c-2.40363,1.56116-4,4.2644-4,7.33826,0,.41406.33594.75.75.75h7v10.25c0,.55273.44727,1,1,1s1-.44727,1-1v-10.25h7c.41406,0,.75-.33594.75-.75,0-3.07385-1.59637-5.7771-4-7.33826Z"/></g></svg>