<?xml version="1.0" encoding="UTF-8"?><svg xmlns="http://www.w3.org/2000/svg" width="32" height="32" viewBox="0 0 32 32"><defs><style>.uuid-8b7a8dc9-c78a-4c54-9bda-4ac6d4d4b452{fill:none;}.uuid-a7a890a4-b82e-4dbf-853d-21fda81d0f78{fill:#151515;}</style></defs><g id="uuid-58787074-87bf-4d0c-b069-3d0da1ddc4d7"><rect class="uuid-8b7a8dc9-c78a-4c54-9bda-4ac6d4d4b452" width="32" height="32"/></g><g id="uuid-252dcb85-7286-489a-b6f2-64780a8ebdb3"><path class="uuid-a7a890a4-b82e-4dbf-853d-21fda81d0f78" d="M8.75,2H3.25c-.68945,0-1.25.56055-1.25,1.25v5.5c0,.68945.56055,1.25,1.25,1.25h5.5c.68945,0,1.25-.56055,1.25-1.25V3.25c0-.68945-.56055-1.25-1.25-1.25ZM8,8h-4v-4h4v4Z"/><path class="uuid-a7a890a4-b82e-4dbf-853d-21fda81d0f78" d="M18.75,2h-5.5c-.68945,0-1.25.56055-1.25,1.25v5.5c0,.68945.56055,1.25,1.25,1.25h5.5c.68945,0,1.25-.56055,1.25-1.25V3.25c0-.68945-.56055-1.25-1.25-1.25ZM18,8h-4v-4h4v4Z"/><path class="uuid-a7a890a4-b82e-4dbf-853d-21fda81d0f78" d="M28.75,2h-5.5c-.68945,0-1.25.56055-1.25,1.25v5.5c0,.68945.56055,1.25,1.25,1.25h5.5c.68945,0,1.25-.56055,1.25-1.25V3.25c0-.68945-.56055-1.25-1.25-1.25ZM28,8h-4v-4h4v4Z"/><path class="uuid-a7a890a4-b82e-4dbf-853d-21fda81d0f78" d="M8.75,12H3.25c-.68945,0-1.25.56055-1.25,1.25v5.5c0,.68945.56055,1.25,1.25,1.25h5.5c.68945,0,1.25-.56055,1.25-1.25v-5.5c0-.68945-.56055-1.25-1.25-1.25ZM8,18h-4v-4h4v4Z"/><path class="uuid-a7a890a4-b82e-4dbf-853d-21fda81d0f78" d="M18.75,12h-5.5c-.68945,0-1.25.56055-1.25,1.25v5.5c0,.68945.56055,1.25,1.25,1.25h5.5c.68945,0,1.25-.56055,1.25-1.25v-5.5c0-.68945-.56055-1.25-1.25-1.25ZM18,18h-4v-4h4v4Z"/><path class="uuid-a7a890a4-b82e-4dbf-853d-21fda81d0f78" d="M28.75,12h-5.5c-.68945,0-1.25.56055-1.25,1.25v5.5c0,.68945.56055,1.25,1.25,1.25h5.5c.68945,0,1.25-.56055,1.25-1.25v-5.5c0-.68945-.56055-1.25-1.25-1.25ZM28,18h-4v-4h4v4Z"/><path class="uuid-a7a890a4-b82e-4dbf-853d-21fda81d0f78" d="M8.75,22H3.25c-.68945,0-1.25.56055-1.25,1.25v5.5c0,.68945.56055,1.25,1.25,1.25h5.5c.68945,0,1.25-.56055,1.25-1.25v-5.5c0-.68945-.56055-1.25-1.25-1.25ZM8,28h-4v-4h4v4Z"/><path class="uuid-a7a890a4-b82e-4dbf-853d-21fda81d0f78" d="M18.75,22h-5.5c-.68945,0-1.25.56055-1.25,1.25v5.5c0,.68945.56055,1.25,1.25,1.25h5.5c.68945,0,1.25-.56055,1.25-1.25v-5.5c0-.68945-.56055-1.25-1.25-1.25ZM18,28h-4v-4h4v4Z"/><path class="uuid-a7a890a4-b82e-4dbf-853d-21fda81d0f78" d="M28.75,22h-5.5c-.68945,0-1.25.56055-1.25,1.25v5.5c0,.68945.56055,1.25,1.25,1.25h5.5c.68945,0,1.25-.56055,1.25-1.25v-5.5c0-.68945-.56055-1.25-1.25-1.25ZM28,28h-4v-4h4v4Z"/></g></svg>