<?xml version="1.0" encoding="UTF-8"?><svg xmlns="http://www.w3.org/2000/svg" viewBox="0 0 32 32"><defs><style>.uuid-1f2d65db-b047-4899-bfea-620793bd83bb{fill:none;}.uuid-1f2d65db-b047-4899-bfea-620793bd83bb,.uuid-1198fd6f-810b-4bff-a4b6-4c3ee4f04d57{stroke-width:0px;}.uuid-1198fd6f-810b-4bff-a4b6-4c3ee4f04d57{fill:#151515;}</style></defs><g id="uuid-a39bb93a-8ccb-462b-bf34-b55be5c34bf6"><rect class="uuid-1f2d65db-b047-4899-bfea-620793bd83bb" width="32" height="32"/></g><g id="uuid-85341cfa-adea-4024-98ed-15f979fa6709"><path class="uuid-1198fd6f-810b-4bff-a4b6-4c3ee4f04d57" d="M28,24.25c-.67,0-1.2906.1911-1.8356.5004l-4.7444-4.7444c.8317-1.1221,1.33-2.5052,1.33-4.0059s-.4984-2.8838-1.33-4.0059l2.7444-2.7444c.545.3093,1.1656.5004,1.8356.5004,2.0674,0,3.75-1.6826,3.75-3.75s-1.6826-3.75-3.75-3.75-3.75,1.6826-3.75,3.75c0,.67.1911,1.2906.5004,1.8356l-2.7444,2.7444c-1.1221-.8317-2.5052-1.33-4.0059-1.33s-2.8838.4984-4.0059,1.33l-4.7444-4.7444c.3093-.545.5004-1.1656.5004-1.8356C7.75,1.9326,6.0674.25,4,.25S.25,1.9326.25,4s1.6826,3.75,3.75,3.75c.67,0,1.2906-.1911,1.8356-.5004l4.7444,4.7444c-.8317,1.1221-1.33,2.5052-1.33,4.0059s.4984,2.8838,1.33,4.0059l-2.7444,2.7444c-.545-.3093-1.1656-.5004-1.8356-.5004-2.0674,0-3.75,1.6826-3.75,3.75s1.6826,3.75,3.75,3.75,3.75-1.6826,3.75-3.75c0-.67-.1911-1.2906-.5004-1.8356l2.7444-2.7444c1.1221.8317,2.5052,1.33,4.0059,1.33s2.8838-.4984,4.0059-1.33l4.7444,4.7444c-.3093.545-.5004,1.1656-.5004,1.8356,0,2.0674,1.6826,3.75,3.75,3.75s3.75-1.6826,3.75-3.75-1.6826-3.75-3.75-3.75Z"/></g></svg>