<?xml version="1.0" encoding="UTF-8"?><svg xmlns="http://www.w3.org/2000/svg" width="32" height="32" viewBox="0 0 32 32"><defs><style>.uuid-52230272-6a88-4644-b4d3-efde4a5a6429{fill:none;}.uuid-091148fd-fe76-4ab9-8119-d2d85009e846{fill:#151515;}</style></defs><g id="uuid-d66c7eb0-92ca-44d5-aaae-cce0125034a3"><rect class="uuid-52230272-6a88-4644-b4d3-efde4a5a6429" width="32" height="32"/></g><g id="uuid-e5c2a452-5654-4f36-a420-4bba40c8abbc"><path class="uuid-091148fd-fe76-4ab9-8119-d2d85009e846" d="M27,23.25c-.6701,0-1.29065.1911-1.83563.50031l-4.45758-4.45758c.65521-.93372,1.04321-2.06787,1.04321-3.29272s-.388-2.35901-1.04321-3.29272l2.45758-2.45758c.54498.3092,1.16553.50031,1.83563.50031,2.06787,0,3.75-1.68262,3.75-3.75s-1.68213-3.75-3.75-3.75-3.75,1.68262-3.75,3.75c0,.66998.1911,1.29059.50031,1.83563l-2.45758,2.45758c-.93378-.65521-2.06793-1.04321-3.29272-1.04321s-2.35895.388-3.29272,1.04321l-4.45758-4.45758c.3092-.54504.50031-1.16565.50031-1.83563,0-2.06738-1.68213-3.75-3.75-3.75s-3.75,1.68262-3.75,3.75,1.68213,3.75,3.75,3.75c.6701,0,1.29065-.1911,1.83563-.50031l4.45758,4.45758c-.65521.93372-1.04321,2.06787-1.04321,3.29272s.388,2.35901,1.04321,3.29272l-2.45758,2.45758c-.54498-.3092-1.16553-.50031-1.83563-.50031-2.06787,0-3.75,1.68262-3.75,3.75s1.68213,3.75,3.75,3.75,3.75-1.68262,3.75-3.75c0-.66998-.1911-1.29059-.50031-1.83563l2.45758-2.45758c.93378.65521,2.06793,1.04321,3.29272,1.04321s2.35895-.388,3.29272-1.04321l4.45758,4.45758c-.3092.54504-.50031,1.16565-.50031,1.83563,0,2.06738,1.68213,3.75,3.75,3.75s3.75-1.68262,3.75-3.75-1.68213-3.75-3.75-3.75Z"/></g></svg>