<?xml version="1.0" encoding="UTF-8"?><svg xmlns="http://www.w3.org/2000/svg" viewBox="0 0 32 32"><defs><style>.uuid-3c6d9eac-ec4c-40fb-a1e1-ceb33f33dbe8{fill:none;}.uuid-3c6d9eac-ec4c-40fb-a1e1-ceb33f33dbe8,.uuid-1f01b1af-5b8c-4595-9533-6b56fc13f96a{stroke-width:0px;}.uuid-1f01b1af-5b8c-4595-9533-6b56fc13f96a{fill:#151515;}</style></defs><g id="uuid-1beb3ac6-1392-4094-9233-e73fa64fc4b2"><rect class="uuid-3c6d9eac-ec4c-40fb-a1e1-ceb33f33dbe8" width="32" height="32"/></g><g id="uuid-d971de59-cb7e-44f1-a7cd-6e594f7a36d5"><path class="uuid-1f01b1af-5b8c-4595-9533-6b56fc13f96a" d="M28,24c-.7396,0-1.4243.2154-2.0192.5667l-4.3824-4.3824c.876-1.1689,1.4017-2.6146,1.4017-4.1843s-.5257-3.0154-1.4017-4.1843l2.3824-2.3824c.5949.3513,1.2796.5667,2.0192.5667,2.2061,0,4-1.7944,4-4s-1.7939-4-4-4-4,1.7944-4,4c0,.7396.2155,1.4242.5668,2.0192l-2.3825,2.3825c-1.1689-.876-2.6147-1.4017-4.1843-1.4017s-3.0153.5257-4.1843,1.4017l-4.3825-4.3825c.3513-.595.5668-1.2796.5668-2.0192C8,1.7944,6.2061,0,4,0S0,1.7944,0,4s1.7939,4,4,4c.7396,0,1.4243-.2154,2.0192-.5667l4.3824,4.3824c-.8759,1.1689-1.4017,2.6146-1.4017,4.1843s.5258,3.0154,1.4017,4.1843l-2.3824,2.3824c-.5949-.3513-1.2796-.5667-2.0192-.5667-2.2061,0-4,1.7944-4,4s1.7939,4,4,4,4-1.7944,4-4c0-.7396-.2155-1.4242-.5668-2.0192l2.3825-2.3825c1.1689.876,2.6146,1.4017,4.1843,1.4017s3.0154-.5257,4.1843-1.4017l4.3825,4.3825c-.3513.595-.5668,1.2796-.5668,2.0192,0,2.2056,1.7939,4,4,4s4-1.7944,4-4-1.7939-4-4-4ZM26,4c1.1025,0,2,.897,2,2s-.8975,2-2,2-2-.897-2-2,.8975-2,2-2ZM2,4c0-1.103.8975-2,2-2s2,.897,2,2-.8975,2-2,2-2-.897-2-2ZM6,28c-1.1025,0-2-.897-2-2s.8975-2,2-2,2,.897,2,2-.8975,2-2,2ZM11,16c0-2.7568,2.2432-5,5-5s5,2.2432,5,5-2.2432,5-5,5-5-2.2432-5-5ZM28,30c-1.1025,0-2-.897-2-2s.8975-2,2-2,2,.897,2,2-.8975,2-2,2Z"/></g></svg>