<?xml version="1.0" encoding="UTF-8"?><svg xmlns="http://www.w3.org/2000/svg" width="32" height="32" viewBox="0 0 32 32"><defs><style>.uuid-aba87a77-a3da-4106-9645-5134b83f552f{fill:none;}.uuid-c0dd0f1d-e60e-4f19-978a-dc7a50babd7f{fill:#151515;}</style></defs><g id="uuid-9687fab6-bffb-4c31-8dee-6fe55b7ff51a"><rect class="uuid-aba87a77-a3da-4106-9645-5134b83f552f" width="32" height="32"/></g><g id="uuid-d9d8738c-dbbe-41bb-8b7d-e0178f7c9978"><path class="uuid-c0dd0f1d-e60e-4f19-978a-dc7a50babd7f" d="M27,23c-.72998,0-1.42999.20001-2.01996.56l-4.09003-4.09003c.70001-.97998,1.10999-2.17999,1.10999-3.46997s-.40997-2.48999-1.10999-3.47003l2.09003-2.08997c.58997.35999,1.28998.56,2.01996.56,2.21002,0,4-1.79004,4-4s-1.78998-4-4-4-4,1.78998-4,4c0,.72998.20001,1.42999.56,2.01996l-2.08997,2.09003c-.98004-.70001-2.17999-1.10999-3.47003-1.10999s-2.48999.40997-3.46997,1.10999l-4.09003-4.09003c.35999-.58997.56-1.28998.56-2.01996,0-2.21002-1.78998-4-4-4S1,2.78998,1,5s1.79004,4,4,4c.73004,0,1.42999-.20001,2.02002-.56l4.08997,4.08997c-.69995.98004-1.10999,2.17999-1.10999,3.47003s.41003,2.48999,1.10999,3.46997l-2.08997,2.09003c-.59003-.35999-1.28998-.56-2.02002-.56-2.20996,0-4,1.78998-4,4s1.79004,4,4,4,4-1.79004,4-4c0-.73004-.20001-1.42999-.56-2.02002l2.09003-2.08997c.97998.69995,2.17999,1.10999,3.46997,1.10999s2.48999-.41003,3.47003-1.10999l4.08997,4.08997c-.35999.59003-.56,1.28998-.56,2.02002,0,2.20996,1.79004,4,4,4s4-1.79004,4-4-1.78998-4-4-4ZM23,7c0-1.10004.90002-2,2-2,1.10004,0,2,.89996,2,2,0,1.09998-.89996,2-2,2-.17999,0-.34998-.02002-.51001-.07001-.69-.17999-1.23999-.72998-1.41998-1.41998-.04999-.16003-.07001-.33002-.07001-.51001ZM5,7c-1.09998,0-2-.90002-2-2,0-1.10004.90002-2,2-2,1.10004,0,2,.89996,2,2,0,.17999-.01996.34998-.07001.51001-.17999.69-.72998,1.23999-1.41998,1.41998-.15997.04999-.33002.07001-.51001.07001ZM9,25c0,1.09998-.89996,2-2,2-1.09998,0-2-.90002-2-2,0-1.10004.90002-2,2-2,.17999,0,.35004.01996.51001.07001.69.17999,1.23999.72998,1.41998,1.41998.05005.15997.07001.33002.07001.51001ZM16,20c-.72998,0-1.42999-.20001-2.01996-.56-.59003-.33002-1.09003-.83002-1.42004-1.42004-.35999-.58997-.56-1.28998-.56-2.01996,0-.73004.20001-1.42999.56-2.02002.33002-.58997.83002-1.08997,1.42004-1.41998.58997-.35999,1.28998-.56,2.01996-.56.73004,0,1.42999.20001,2.02002.56.58997.33002,1.08997.83002,1.41998,1.41998.35999.59003.56,1.28998.56,2.02002,0,.72998-.20001,1.42999-.56,2.01996-.33002.59003-.83002,1.09003-1.41998,1.42004-.59003.35999-1.28998.56-2.02002.56ZM27,29c-1.09998,0-2-.90002-2-2,0-.17999.02002-.35004.07001-.51001.17999-.69.72998-1.23999,1.41998-1.41998.16003-.05005.33002-.07001.51001-.07001,1.10004,0,2,.89996,2,2,0,1.09998-.89996,2-2,2Z"/></g></svg>