<svg xmlns="http://www.w3.org/2000/svg" viewBox="0 0 32 32">
  <defs>
    <style>
      .uuid-a97bf788-6547-411e-9839-3816b3a25eef{stroke-width:0;fill:#151515}
    </style>
  </defs>
  <path d="M0 0h32v32H0z" id="uuid-6ee4af5f-bc75-4d12-8826-6100684b337b" stroke-width="0" fill="none"/>
  <g id="uuid-a778aa48-0d75-49e9-a833-897265c28882">
    <path class="uuid-a97bf788-6547-411e-9839-3816b3a25eef" d="M5 7h22a1 1 0 1 0 0-2h-6c0-2.757-2.243-5-5-5s-5 2.243-5 5H5a1 1 0 1 0 0 2Zm11-5c1.654 0 3 1.346 3 3h-6c0-1.654 1.346-3 3-3Zm11 8H5a1 1 0 1 0 0 2h1v17.5c0 .827.673 1.5 1.5 1.5h17c.827 0 1.5-.673 1.5-1.5V12h1a1 1 0 1 0 0-2Zm-3 19H8V12h16v17Z"/>
    <path class="uuid-a97bf788-6547-411e-9839-3816b3a25eef" d="M13 26a1 1 0 0 0 1-1v-9a1 1 0 1 0-2 0v9a1 1 0 0 0 1 1Zm6 0a1 1 0 0 0 1-1v-9a1 1 0 1 0-2 0v9a1 1 0 0 0 1 1Z"/>
  </g>
</svg>
