<?xml version="1.0" encoding="UTF-8"?><svg xmlns="http://www.w3.org/2000/svg" viewBox="0 0 32 32"><defs><style>.uuid-1bda6b72-681a-4777-93c1-a5c26d387026{fill:none;}.uuid-1bda6b72-681a-4777-93c1-a5c26d387026,.uuid-e9e449b0-e920-4dc1-a4cd-6bb303d04891{stroke-width:0px;}.uuid-e9e449b0-e920-4dc1-a4cd-6bb303d04891{fill:#151515;}</style></defs><g id="uuid-eacf90a2-10c1-46a5-a8e6-537293a8121f"><rect class="uuid-1bda6b72-681a-4777-93c1-a5c26d387026" width="32" height="32"/></g><g id="uuid-ccd33789-0b7b-4fab-aad8-e9dcae072b9e"><path class="uuid-e9e449b0-e920-4dc1-a4cd-6bb303d04891" d="M5,7h22c.5527,0,1-.4473,1-1s-.4473-1-1-1h-6c0-2.7568-2.2432-5-5-5s-5,2.2432-5,5h-6c-.5527,0-1,.4473-1,1s.4473,1,1,1ZM16,2c1.6543,0,3,1.3457,3,3h-6c0-1.6543,1.3457-3,3-3Z"/><path class="uuid-e9e449b0-e920-4dc1-a4cd-6bb303d04891" d="M27,10H5c-.5527,0-1,.4473-1,1s.4473,1,1,1h1.25v17.5c0,.6895.5605,1.25,1.25,1.25h17c.6895,0,1.25-.5605,1.25-1.25V12h1.25c.5527,0,1-.4473,1-1s-.4473-1-1-1ZM13.125,25c0,.6211-.5039,1.125-1.125,1.125s-1.125-.5039-1.125-1.125v-9c0-.6211.5039-1.125,1.125-1.125s1.125.5039,1.125,1.125v9ZM21.125,25c0,.6211-.5039,1.125-1.125,1.125s-1.125-.5039-1.125-1.125v-9c0-.6211.5039-1.125,1.125-1.125s1.125.5039,1.125,1.125v9Z"/></g></svg>