<?xml version="1.0" encoding="UTF-8"?><svg xmlns="http://www.w3.org/2000/svg" viewBox="0 0 32 32"><defs><style>.uuid-07077a3d-23fe-4950-94e7-242dc8551a4c{fill:none;}.uuid-07077a3d-23fe-4950-94e7-242dc8551a4c,.uuid-a97bf788-6547-411e-9839-3816b3a25eef{stroke-width:0px;}.uuid-a97bf788-6547-411e-9839-3816b3a25eef{fill:#151515;}</style></defs><g id="uuid-6ee4af5f-bc75-4d12-8826-6100684b337b"><rect class="uuid-07077a3d-23fe-4950-94e7-242dc8551a4c" width="32" height="32"/></g><g id="uuid-a778aa48-0d75-49e9-a833-897265c28882"><path class="uuid-a97bf788-6547-411e-9839-3816b3a25eef" d="M5,7h22c.5527,0,1-.4478,1-1s-.4473-1-1-1h-6c0-2.7568-2.2432-5-5-5s-5,2.2432-5,5h-6c-.5527,0-1,.4478-1,1s.4473,1,1,1ZM16,2c1.6543,0,3,1.3457,3,3h-6c0-1.6543,1.3457-3,3-3Z"/><path class="uuid-a97bf788-6547-411e-9839-3816b3a25eef" d="M27,10H5c-.5527,0-1,.4478-1,1s.4473,1,1,1h1v17.5c0,.8271.6729,1.5,1.5,1.5h17c.8271,0,1.5-.6729,1.5-1.5V12h1c.5527,0,1-.4478,1-1s-.4473-1-1-1ZM24,29H8V12h16v17Z"/><path class="uuid-a97bf788-6547-411e-9839-3816b3a25eef" d="M13,26c.5527,0,1-.4478,1-1v-9c0-.5522-.4473-1-1-1s-1,.4478-1,1v9c0,.5522.4473,1,1,1Z"/><path class="uuid-a97bf788-6547-411e-9839-3816b3a25eef" d="M19,26c.5527,0,1-.4478,1-1v-9c0-.5522-.4473-1-1-1s-1,.4478-1,1v9c0,.5522.4473,1,1,1Z"/></g></svg>