<?xml version="1.0" encoding="UTF-8"?><svg xmlns="http://www.w3.org/2000/svg" width="32" height="32" viewBox="0 0 32 32"><defs><style>.uuid-4d765a34-de33-41df-a4fd-3272ac91705b{fill:none;}.uuid-2d6e69c6-1cd9-48c0-9625-1d56d49a4c19{fill:#151515;}</style></defs><g id="uuid-34ebbcfe-1f52-4db0-9233-9cb59abd9f6d"><rect class="uuid-4d765a34-de33-41df-a4fd-3272ac91705b" width="32" height="32"/></g><g id="uuid-015f3edd-2e6d-46b8-8ee1-b366bcd47a94"><path class="uuid-2d6e69c6-1cd9-48c0-9625-1d56d49a4c19" d="M13,25c.55225,0,1-.44727,1-1v-8c0-.55273-.44775-1-1-1s-1,.44727-1,1v8c0,.55273.44775,1,1,1Z"/><path class="uuid-2d6e69c6-1cd9-48c0-9625-1d56d49a4c19" d="M19,25c.55225,0,1-.44727,1-1v-8c0-.55273-.44775-1-1-1s-1,.44727-1,1v8c0,.55273.44775,1,1,1Z"/><path class="uuid-2d6e69c6-1cd9-48c0-9625-1d56d49a4c19" d="M26,10H6c-.55225,0-1,.44727-1,1s.44775,1,1,1h1v16.5c0,.82715.67285,1.5,1.5,1.5h15c.82715,0,1.5-.67285,1.5-1.5V12h1c.55225,0,1-.44727,1-1s-.44775-1-1-1ZM23,28h-14V12h14v16Z"/><path class="uuid-2d6e69c6-1cd9-48c0-9625-1d56d49a4c19" d="M6,7h20c.55225,0,1-.44727,1-1s-.44775-1-1-1h-5.10107c-.46466-2.2793-2.4845-4-4.89893-4s-4.43427,1.7207-4.89893,4h-5.10107c-.55225,0-1,.44727-1,1s.44775,1,1,1ZM16,3c1.30194,0,2.40161.8385,2.81573,2h-5.63147c.41412-1.1615,1.51379-2,2.81573-2Z"/></g></svg>