<?xml version="1.0" encoding="UTF-8"?><svg xmlns="http://www.w3.org/2000/svg" width="32" height="32" viewBox="0 0 32 32"><defs><style>.uuid-d1400837-7bc7-4851-b3ae-f5b652d7bb5a{fill:none;}.uuid-d9680913-8d32-4f8b-aa70-8aa3bfe50d97{fill:#151515;}</style></defs><g id="uuid-11d7e02e-1573-4942-86a4-658f46acb99b"><rect class="uuid-d1400837-7bc7-4851-b3ae-f5b652d7bb5a" width="32" height="32"/></g><g id="uuid-1ce15a59-5f49-4767-86a8-c6a342b77cc1"><path class="uuid-d9680913-8d32-4f8b-aa70-8aa3bfe50d97" d="M6,7h20c.55225,0,1-.44727,1-1s-.44775-1-1-1h-5.10107c-.46466-2.2793-2.4845-4-4.89893-4s-4.43427,1.7207-4.89893,4h-5.10107c-.55225,0-1,.44727-1,1s.44775,1,1,1ZM16,3c1.30194,0,2.40161.8385,2.81573,2h-5.63147c.41412-1.1615,1.51379-2,2.81573-2Z"/><path class="uuid-d9680913-8d32-4f8b-aa70-8aa3bfe50d97" d="M26,10H6c-.55225,0-1,.44727-1,1s.44775,1,1,1h1v16.5c0,.82715.67285,1.5,1.5,1.5h15c.82715,0,1.5-.67285,1.5-1.5V12h1c.55225,0,1-.44727,1-1s-.44775-1-1-1ZM13.125,24c0,.62109-.50391,1.125-1.125,1.125s-1.125-.50391-1.125-1.125v-8c0-.62109.50391-1.125,1.125-1.125s1.125.50391,1.125,1.125v8ZM21.125,24c0,.62109-.50391,1.125-1.125,1.125s-1.125-.50391-1.125-1.125v-8c0-.62109.50391-1.125,1.125-1.125s1.125.50391,1.125,1.125v8Z"/></g></svg>