<?xml version="1.0" encoding="UTF-8"?><svg xmlns="http://www.w3.org/2000/svg" width="32" height="32" viewBox="0 0 32 32"><defs><style>.uuid-0b8133d0-269b-4858-b763-34b132235150{fill:none;}.uuid-135964ad-1018-473b-8fb4-e20aae5d088a{fill:#151515;}</style></defs><g id="uuid-9e485210-f476-4d69-ad30-909b59f27b9f"><rect class="uuid-0b8133d0-269b-4858-b763-34b132235150" width="32" height="32"/></g><g id="uuid-97d026dc-eab7-4201-8118-4ad594ac1ea5"><path class="uuid-135964ad-1018-473b-8fb4-e20aae5d088a" d="M23.5,7h-3.5V2.5c0-.82715-.67285-1.5-1.5-1.5h-5c-.82715,0-1.5.67285-1.5,1.5v4.5h-3.5c-.82715,0-1.5.67285-1.5,1.5v17c0,.82715.67285,1.5,1.5,1.5h15c.82715,0,1.5-.67285,1.5-1.5V8.5c0-.82715-.67285-1.5-1.5-1.5ZM14,3h4v4h-4V3ZM23,25h-14V9h14v16Z"/><path class="uuid-135964ad-1018-473b-8fb4-e20aae5d088a" d="M13,22c.55273,0,1-.44727,1-1v-8c0-.55273-.44727-1-1-1s-1,.44727-1,1v8c0,.55273.44727,1,1,1Z"/><path class="uuid-135964ad-1018-473b-8fb4-e20aae5d088a" d="M19,22c.55273,0,1-.44727,1-1v-8c0-.55273-.44727-1-1-1s-1,.44727-1,1v8c0,.55273.44727,1,1,1Z"/><circle class="uuid-135964ad-1018-473b-8fb4-e20aae5d088a" cx="10" cy="30.00342" r="1.625"/><circle class="uuid-135964ad-1018-473b-8fb4-e20aae5d088a" cx="22.00488" cy="30.01306" r="1.625"/></g></svg>