<?xml version="1.0" encoding="UTF-8"?><svg xmlns="http://www.w3.org/2000/svg" viewBox="0 0 32 32"><defs><style>.uuid-62551231-588e-4936-85ed-ce87cfb563c5{fill:none;}.uuid-62551231-588e-4936-85ed-ce87cfb563c5,.uuid-cb4547de-e7a8-4ef6-aa39-1eb781efb73d{stroke-width:0px;}.uuid-cb4547de-e7a8-4ef6-aa39-1eb781efb73d{fill:#151515;}</style></defs><g id="uuid-696af1ef-427c-4b8d-a105-2508eb14c2de"><rect class="uuid-62551231-588e-4936-85ed-ce87cfb563c5" x="0" width="32" height="32"/></g><g id="uuid-5362f147-fe5b-4651-913c-579751bfe20a"><path class="uuid-cb4547de-e7a8-4ef6-aa39-1eb781efb73d" d="M23.5,6h-3.5V1.5c0-.8271-.6729-1.5-1.5-1.5h-5c-.8271,0-1.5.6729-1.5,1.5v4.5h-3.5c-.8271,0-1.5.6729-1.5,1.5v18c0,.8271.6729,1.5,1.5,1.5h15c.8271,0,1.5-.6729,1.5-1.5V7.5c0-.8271-.6729-1.5-1.5-1.5ZM14,2h4v4h-4V2ZM23,25h-14V8h14v17Z"/><path class="uuid-cb4547de-e7a8-4ef6-aa39-1eb781efb73d" d="M13,11c-.5527,0-1,.4478-1,1v9c0,.5522.4473,1,1,1s1-.4478,1-1v-9c0-.5522-.4473-1-1-1Z"/><path class="uuid-cb4547de-e7a8-4ef6-aa39-1eb781efb73d" d="M18,12v9c0,.5522.4473,1,1,1s1-.4478,1-1v-9c0-.5522-.4473-1-1-1s-1,.4478-1,1Z"/><circle class="uuid-cb4547de-e7a8-4ef6-aa39-1eb781efb73d" cx="10" cy="30.0002" r="1.5"/><circle class="uuid-cb4547de-e7a8-4ef6-aa39-1eb781efb73d" cx="22" cy="30.0002" r="1.5"/></g></svg>