<?xml version="1.0" encoding="UTF-8"?><svg xmlns="http://www.w3.org/2000/svg" width="32" height="32" viewBox="0 0 32 32"><defs><style>.uuid-7c2ed080-52aa-4047-ab54-97aee9904d89{fill:none;}.uuid-8f8e48b7-9509-41c4-bcb2-73ef5a266987{fill:#151515;}</style></defs><g id="uuid-12b0e146-733e-4e4f-a3f6-b14ce4a10aa0"><rect class="uuid-7c2ed080-52aa-4047-ab54-97aee9904d89" width="32" height="32"/></g><g id="uuid-3e918d63-679a-40d3-81df-196d0c44d911"><path class="uuid-8f8e48b7-9509-41c4-bcb2-73ef5a266987" d="M23.5,7h-3.5V2.5c0-.82715-.67285-1.5-1.5-1.5h-5c-.82715,0-1.5.67285-1.5,1.5v4.5h-3.5c-.82715,0-1.5.67285-1.5,1.5v17c0,.82715.67285,1.5,1.5,1.5h15c.82715,0,1.5-.67285,1.5-1.5V8.5c0-.82715-.67285-1.5-1.5-1.5ZM14,3h4v4h-4V3ZM14.125,21c0,.62109-.50391,1.125-1.125,1.125s-1.125-.50391-1.125-1.125v-8c0-.62109.50391-1.125,1.125-1.125s1.125.50391,1.125,1.125v8ZM20.125,21c0,.62109-.50391,1.125-1.125,1.125s-1.125-.50391-1.125-1.125v-8c0-.62109.50391-1.125,1.125-1.125s1.125.50391,1.125,1.125v8Z"/><circle class="uuid-8f8e48b7-9509-41c4-bcb2-73ef5a266987" cx="22.00488" cy="30.01306" r="1.625"/><circle class="uuid-8f8e48b7-9509-41c4-bcb2-73ef5a266987" cx="10" cy="30.00345" r="1.625"/></g></svg>