<?xml version="1.0" encoding="UTF-8"?><svg xmlns="http://www.w3.org/2000/svg" width="32" height="32" viewBox="0 0 32 32"><defs><style>.uuid-f97c4bf5-0389-4c2a-808a-f2b46c1ffb32{fill:none;}.uuid-e3c58289-02a2-4c19-9ebb-363a28718f75{fill:#151515;}</style></defs><g id="uuid-dfdf7cb0-366f-42bf-a824-2ad9fef68a6c"><rect class="uuid-f97c4bf5-0389-4c2a-808a-f2b46c1ffb32" width="32" height="32"/></g><g id="uuid-fd94956f-06e2-4028-aa55-5d11ee79dbcc"><rect class="uuid-e3c58289-02a2-4c19-9ebb-363a28718f75" x="2" y="2" width="28" height="6" rx="1.5" ry="1.5"/><path class="uuid-e3c58289-02a2-4c19-9ebb-363a28718f75" d="M28.5,11h-15c-.82715,0-1.5.67285-1.5,1.5v5c0,.82715.67285,1.5,1.5,1.5h15c.82715,0,1.5-.67285,1.5-1.5v-5c0-.82715-.67285-1.5-1.5-1.5ZM28,17h-14v-4h14v4Z"/><path class="uuid-e3c58289-02a2-4c19-9ebb-363a28718f75" d="M28.5,22h-15c-.82715,0-1.5.67285-1.5,1.5v5c0,.82715.67285,1.5,1.5,1.5h15c.82715,0,1.5-.67285,1.5-1.5v-5c0-.82715-.67285-1.5-1.5-1.5ZM28,28h-14v-4h14v4Z"/><path class="uuid-e3c58289-02a2-4c19-9ebb-363a28718f75" d="M9,16c.55225,0,1-.44727,1-1s-.44775-1-1-1h-4v-3c0-.55273-.44775-1-1-1s-1,.44727-1,1v14.5c0,.82715.67285,1.5,1.5,1.5h4.5c.55225,0,1-.44727,1-1s-.44775-1-1-1h-4v-9h4Z"/></g></svg>