<?xml version="1.0" encoding="UTF-8"?><svg xmlns="http://www.w3.org/2000/svg" width="32" height="32" viewBox="0 0 32 32"><defs><style>.uuid-6d54fe4a-6dd0-486d-97a0-7847a901798d{fill:none;}.uuid-0e5ee401-1050-471a-8b04-8f76a2762839{fill:#151515;}</style></defs><g id="uuid-344d29a4-3f6b-4c87-b2ec-555413dd59ff"><rect class="uuid-6d54fe4a-6dd0-486d-97a0-7847a901798d" width="32" height="32"/></g><g id="uuid-1f93c9e6-4905-4b1d-861b-e4ffb81dc236"><rect class="uuid-0e5ee401-1050-471a-8b04-8f76a2762839" x="2" y="2" width="28" height="6" rx="1.5" ry="1.5"/><rect class="uuid-0e5ee401-1050-471a-8b04-8f76a2762839" x="12" y="13" width="18" height="6" rx="1.5" ry="1.5"/><rect class="uuid-0e5ee401-1050-471a-8b04-8f76a2762839" x="12" y="23" width="18" height="6" rx="1.5" ry="1.5"/><path class="uuid-0e5ee401-1050-471a-8b04-8f76a2762839" d="M9,17c.55225,0,1-.44727,1-1s-.44775-1-1-1h-4v-4c0-.55273-.44775-1-1-1s-1,.44727-1,1v14.5c0,.82715.67285,1.5,1.5,1.5h4.5c.55225,0,1-.44727,1-1s-.44775-1-1-1h-4v-8h4Z"/></g></svg>