<?xml version="1.0" encoding="UTF-8"?><svg xmlns="http://www.w3.org/2000/svg" width="32" height="32" viewBox="0 0 32 32"><defs><style>.uuid-024fcb57-2074-4c4d-8021-a0f2660797a0{fill:none;}.uuid-628c9a5e-efbd-40da-9dae-7776e0df3c53{fill:#151515;}</style></defs><g id="uuid-3d0cecde-bd83-4cae-b552-62e49c6b8386"><rect class="uuid-024fcb57-2074-4c4d-8021-a0f2660797a0" width="32" height="32"/></g><g id="uuid-f14530d0-db47-4e99-9e3b-abf122f21d68"><path class="uuid-628c9a5e-efbd-40da-9dae-7776e0df3c53" d="M30,14c-.55225,0-1,.44727-1,1v7.58594l-12.93945-12.93945c-.58496-.58594-1.53613-.58594-2.12109,0l-3.93945,3.93945L2.70703,6.29297c-.39062-.39062-1.02344-.39062-1.41406,0s-.39062,1.02344,0,1.41406l7.64648,7.64648c.56641.56641,1.55469.56641,2.12109,0l3.93945-3.93945,12.58594,12.58594h-7.58594c-.55225,0-1,.44727-1,1s.44775,1,1,1h9.5c.82715,0,1.5-.67285,1.5-1.5v-9.5c0-.55273-.44775-1-1-1Z"/></g></svg>