<?xml version="1.0" encoding="UTF-8"?><svg xmlns="http://www.w3.org/2000/svg" width="32" height="32" viewBox="0 0 32 32"><defs><style>.uuid-8942cc54-09a5-414e-83a3-e3e283dc72d8{fill:none;}.uuid-d9f886b6-86b2-4628-bd2e-6b695a2b8b38{fill:#151515;}</style></defs><g id="uuid-6b29a7f3-4a85-4898-9889-e9f6220543b7"><rect class="uuid-8942cc54-09a5-414e-83a3-e3e283dc72d8" width="32" height="32"/></g><g id="uuid-51e8dcca-3683-4b81-a3e4-82a50b1f14be"><path class="uuid-d9f886b6-86b2-4628-bd2e-6b695a2b8b38" d="M29.5,6h-9.5c-.55225,0-1,.44727-1,1s.44775,1,1,1h7.58594l-12.58594,12.58594-3.93945-3.93945c-.56641-.56641-1.55469-.56641-2.12109,0l-7.64648,7.64648c-.39062.39062-.39062,1.02344,0,1.41406.19531.19531.45117.29297.70703.29297s.51172-.09766.70703-.29297l7.29297-7.29297,3.93945,3.93945c.58496.58594,1.53613.58594,2.12109,0l12.93945-12.93945v7.58594c0,.55273.44775,1,1,1s1-.44727,1-1V7.5c0-.82715-.67285-1.5-1.5-1.5Z"/></g></svg>