<?xml version="1.0" encoding="UTF-8"?><svg xmlns="http://www.w3.org/2000/svg" width="32" height="32" viewBox="0 0 32 32"><defs><style>.uuid-8bc50ad3-3fc2-4756-8b31-1d48f8fb8152{fill:none;}.uuid-919d0f06-a88f-4c7c-8d2d-f801bbd48444{fill:#151515;}</style></defs><g id="uuid-de30efb5-2151-42d9-831a-6c40ee312df2"><rect class="uuid-8bc50ad3-3fc2-4756-8b31-1d48f8fb8152" width="32" height="32"/></g><g id="uuid-5c9b5e29-6bff-4e3b-9159-0ab4e76f4c7b"><path class="uuid-919d0f06-a88f-4c7c-8d2d-f801bbd48444" d="M30.99396,15.96997c-.00189-.06628-.02399-.13-.03949-.19598-.01562-.06543-.02417-.13184-.05188-.19153-.00446-.00964-.0033-.02014-.00806-.02972l-3.8623-7.72559c-.25684-.50977-.77051-.82715-1.34082-.82715h-4.69141v-1.5c0-.82715-.67285-1.5-1.5-1.5H2.5c-.82715,0-1.5.67285-1.5,1.5v16c0,.82715.67285,1.5,1.5,1.5h.64197c-.08356.32153-.14197.65265-.14197,1,0,2.20605,1.79395,4,4,4s4-1.79395,4-4c0-.34735-.05841-.67847-.14197-1h10.28394c-.08356.32153-.14197.65265-.14197,1,0,2.20605,1.79395,4,4,4s4-1.79395,4-4c0-.34735-.05841-.67847-.14197-1h.64197c.82715,0,1.5-.67285,1.5-1.5v-5.5c0-.01068-.00574-.01947-.00604-.03003ZM7,26c-1.10254,0-2-.89746-2-2s.89746-2,2-2,2,.89746,2,2-.89746,2-2,2ZM21,9h4.38281l2.99921,6h-7.38202v-6ZM25,26c-1.10254,0-2-.89746-2-2s.89746-2,2-2,2,.89746,2,2-.89746,2-2,2ZM29,21h-1.38202c-.70343-.61462-1.61243-1-2.61798-1s-1.91455.38538-2.61798,1h-1.38202v-4h8v4Z"/></g></svg>