<?xml version="1.0" encoding="UTF-8"?><svg xmlns="http://www.w3.org/2000/svg" width="32" height="32" viewBox="0 0 32 32"><defs><style>.uuid-1f8b6223-daa0-445a-b549-690f3469b3c5{fill:none;}.uuid-09523bbb-800a-4248-b2e0-a26ca5af3c0d{fill:#151515;}</style></defs><g id="uuid-a9777785-5d45-45e9-abc8-26df46a618ce"><rect class="uuid-1f8b6223-daa0-445a-b549-690f3469b3c5" width="32" height="32"/></g><g id="uuid-85f2d6d5-ca52-4302-bbe6-f6249251993f"><path class="uuid-09523bbb-800a-4248-b2e0-a26ca5af3c0d" d="M30.99487,15.96265c-.00098-.02686-.00763-.05237-.0108-.07922-.005-.034-.0047-.07056-.0141-.10345-.00751-.05261-.03101-.09723-.05261-.14282-.01093-.02777-.00922-.05719-.02283-.08441l-4-8c-.16992-.33887-.51562-.55273-.89453-.55273h-5v-1.5c0-.83002-.66998-1.5-1.5-1.5H2.5c-.83002,0-1.5.66998-1.5,1.5v16c0,.82996.66998,1.5,1.5,1.5h.63c-.09003.32001-.13.64996-.13,1,0,2.20996,1.78998,4,4,4s4-1.79004,4-4c0-.35004-.03998-.67999-.13-1h10.26001c-.09003.32001-.13.64996-.13,1,0,2.20996,1.78998,4,4,4s4-1.79004,4-4c0-.35004-.03998-.67999-.13-1h.63c.83002,0,1.5-.67004,1.5-1.5v-5.5c0-.01361-.00452-.02429-.00513-.03735ZM7,26c-1.09998,0-2-.90002-2-2,0-.35999.09998-.71002.27002-1,.34998-.60004.98999-1,1.72998-1s1.38.39996,1.72998,1c.17004.28998.27002.64001.27002,1,0,1.09998-.90002,2-2,2ZM19,16v5h-9.35999c-.71002-.62-1.63-1-2.64001-1s-1.92999.38-2.64001,1h-1.35999V6h16v10ZM21,9h4.38184l3,6h-7.38184v-6ZM25,26c-1.09998,0-2-.90002-2-2,0-.35999.09998-.71002.27002-1,.34998-.60004.98999-1,1.72998-1s1.38.39996,1.72998,1c.17004.28998.27002.64001.27002,1,0,1.09998-.90002,2-2,2ZM29,21h-1.35999c-.71002-.62-1.63-1-2.64001-1s-1.92999.38-2.64001,1h-1.35999v-4h8v4Z"/></g></svg>