<?xml version="1.0" encoding="UTF-8"?><svg xmlns="http://www.w3.org/2000/svg" viewBox="0 0 32 32"><defs><style>.uuid-5b5f0f9d-18af-4455-a7c4-4ff3155756b3{fill:none;}.uuid-5b5f0f9d-18af-4455-a7c4-4ff3155756b3,.uuid-fe28a4fa-dfd8-457d-8171-06a5db850a0e{stroke-width:0px;}.uuid-fe28a4fa-dfd8-457d-8171-06a5db850a0e{fill:#151515;}</style></defs><g id="uuid-38e61345-a95d-4e0b-9f0d-48020d6e10f0"><rect class="uuid-5b5f0f9d-18af-4455-a7c4-4ff3155756b3" x="0" width="32" height="32"/></g><g id="uuid-203fb7b9-c92c-43e3-b0c2-528616bb277e"><path class="uuid-fe28a4fa-dfd8-457d-8171-06a5db850a0e" d="M30.9921,15.9607c-.0043-.1111-.024-.2211-.0659-.3268-.0038-.0096-.0049-.0201-.009-.0297-.0015-.0034-.0016-.0071-.0032-.0104l-3.5596-8c-.1611-.3613-.5186-.5938-.9141-.5938h-5.4404v-1.5c0-.8271-.6729-1.5-1.5-1.5H2.5c-.8271,0-1.5.6729-1.5,1.5v16c0,.8271.6729,1.5,1.5,1.5h.642c-.0836.3215-.142.6526-.142,1,0,2.2061,1.7939,4,4,4s4-1.7939,4-4c0-.3474-.0584-.6785-.142-1h10.2839c-.0836.3215-.142.6526-.142,1,0,2.2061,1.7939,4,4,4s4-1.7939,4-4c0-.3474-.0584-.6785-.142-1h.642c.8271,0,1.5-.6729,1.5-1.5v-5.5c0-.0139-.0074-.0255-.0079-.0393ZM7,26c-1.1025,0-2-.8975-2-2s.8975-2,2-2,2,.8975,2,2-.8975,2-2,2ZM21,9h4.791l2.6699,6h-7.4609v-6ZM25,26c-1.1025,0-2-.8975-2-2s.8975-2,2-2,2,.8975,2,2-.8975,2-2,2ZM29,21h-1.382c-.7034-.6146-1.6124-1-2.618-1s-1.9146.3854-2.618,1h-1.382v-4h8v4Z"/></g></svg>