<?xml version="1.0" encoding="UTF-8"?><svg xmlns="http://www.w3.org/2000/svg" viewBox="0 0 32 32"><defs><style>.uuid-01c43fba-8243-4c53-9dcc-e934e6beae79{fill:none;}.uuid-01c43fba-8243-4c53-9dcc-e934e6beae79,.uuid-1386535e-1790-4092-98d7-1481c6661a14{stroke-width:0px;}.uuid-1386535e-1790-4092-98d7-1481c6661a14{fill:#151515;}</style></defs><g id="uuid-5901d474-d5d9-4af6-85fe-a9874ef97f02"><rect class="uuid-01c43fba-8243-4c53-9dcc-e934e6beae79" x="0" width="32" height="32"/></g><g id="uuid-a29654e2-0654-4bcb-b423-f3fa910d68f3"><path class="uuid-1386535e-1790-4092-98d7-1481c6661a14" d="M20.5,10H4.4141l7.293-7.293c.3906-.3906.3906-1.0234,0-1.4141s-1.0234-.3906-1.4141,0L1.6465,9.9395c-.585.585-.585,1.5361,0,2.1211l8.6465,8.6465c.1953.1953.4512.293.707.293s.5117-.0977.707-.293c.3906-.3906.3906-1.0234,0-1.4141l-7.293-7.293h16.0859c4.687,0,8.5,3.813,8.5,8.5s-3.813,8.5-8.5,8.5H7c-.5522,0-1,.4473-1,1s.4478,1,1,1h13.5c5.7896,0,10.5-4.71,10.5-10.5s-4.7104-10.5-10.5-10.5Z"/></g></svg>