<?xml version="1.0" encoding="UTF-8"?><svg xmlns="http://www.w3.org/2000/svg" width="32" height="32" viewBox="0 0 32 32"><defs><style>.uuid-0dfd9999-8b37-48d3-a61f-e62324452ea1{fill:none;}.uuid-eb9cc939-cfcf-4535-854a-23044cc30948{fill:#151515;}</style></defs><g id="uuid-c4c733c9-4bff-4778-addd-f2485a4c66ff"><rect class="uuid-0dfd9999-8b37-48d3-a61f-e62324452ea1" width="32" height="32"/></g><g id="uuid-ffd66dad-95de-44a6-ba5f-688ce85a7c31"><path class="uuid-eb9cc939-cfcf-4535-854a-23044cc30948" d="M21,10H4.41406l6.29297-6.29297c.39062-.39062.39062-1.02344,0-1.41406s-1.02344-.39062-1.41406,0L1.64648,9.93945c-.2832.2832-.43945.66016-.43945,1.06055s.15625.77734.43945,1.06055l7.64648,7.64648c.19531.19531.45117.29297.70703.29297s.51172-.09766.70703-.29297c.39062-.39062.39062-1.02344,0-1.41406l-6.29297-6.29297h16.58594c4.41113,0,8,3.58887,8,8s-3.58887,8-8,8H6c-.55273,0-1,.44727-1,1s.44727,1,1,1h15c5.51367,0,10-4.48633,10-10s-4.48633-10-10-10Z"/></g></svg>