<?xml version="1.0" encoding="UTF-8"?><svg xmlns="http://www.w3.org/2000/svg" width="32" height="32" viewBox="0 0 32 32"><defs><style>.uuid-b47d3607-70d2-4008-9178-e21ebc80abba{fill:none;}.uuid-472ced11-23d0-422f-8971-97f674f0e0ad{fill:#151515;}</style></defs><g id="uuid-5c49b1d5-dfce-4bfe-ab0b-100520d47938"><rect class="uuid-b47d3607-70d2-4008-9178-e21ebc80abba" width="32" height="32"/></g><g id="uuid-e46a10b9-7df6-4d24-a58e-09a29cde8640"><path class="uuid-472ced11-23d0-422f-8971-97f674f0e0ad" d="M28.74902,10.36426l-7.11328-7.11328C18.52832.14355,13.47168.14355,10.36426,3.25098l-7.11328,7.11328C.14355,13.47168.14355,18.52832,3.25098,21.63574l7.11328,7.11328c1.55371,1.55371,3.59473,2.33105,5.63574,2.33105s4.08203-.77734,5.63574-2.33105l7.11328-7.11328c3.10742-3.10742,3.10742-8.16406,0-11.27148ZM27.33496,20.22168l-7.11328,7.11328c-2.32812,2.32812-6.11523,2.32812-8.44336,0l-7.11328-7.11328c-1.12695-1.12793-1.74805-2.62695-1.74805-4.22168s.62109-3.09375,1.74805-4.22168l7.11328-7.11328c1.16406-1.16406,2.69238-1.74609,4.22168-1.74609s3.05762.58203,4.22168,1.74609l7.11328,7.11328c1.12695,1.12793,1.74805,2.62695,1.74805,4.22168s-.62109,3.09375-1.74805,4.22168Z"/><path class="uuid-472ced11-23d0-422f-8971-97f674f0e0ad" d="M16,7c-2.75684,0-5,2.24316-5,5,0,.55273.44727,1,1,1s1-.44727,1-1c0-1.6543,1.3457-3,3-3s3,1.3457,3,3-1.3457,3-3,3c-.55273,0-1,.44727-1,1v3c0,.55273.44727,1,1,1s1-.44727,1-1v-2.10059c2.2793-.46484,4-2.48438,4-4.89941,0-2.75684-2.24316-5-5-5Z"/><circle class="uuid-472ced11-23d0-422f-8971-97f674f0e0ad" cx="16" cy="24.00134" r="1.75"/></g></svg>