<?xml version="1.0" encoding="UTF-8"?><svg xmlns="http://www.w3.org/2000/svg" viewBox="0 0 32 32"><defs><style>.uuid-7b5980cd-af0a-4a18-a3d9-74ba06952876{fill:none;}.uuid-7b5980cd-af0a-4a18-a3d9-74ba06952876,.uuid-cac2cd20-8d0f-4892-973e-e3212ca55d48{stroke-width:0px;}.uuid-cac2cd20-8d0f-4892-973e-e3212ca55d48{fill:#151515;}</style></defs><g id="uuid-528ad2ab-d256-4752-90d0-90240e23066f"><rect class="uuid-7b5980cd-af0a-4a18-a3d9-74ba06952876" x="0" width="32" height="32"/></g><g id="uuid-71ddb6f3-1ef6-41f6-8a23-98bcc872dfa9"><path class="uuid-cac2cd20-8d0f-4892-973e-e3212ca55d48" d="M30.1714,11.7578L20.2427,1.8281c-2.3398-2.3398-6.1455-2.3398-8.4854,0L1.8286,11.7578C.6953,12.8906.0713,14.3975.0713,16s.624,3.1094,1.7573,4.2422l9.9287,9.9297c1.1699,1.1699,2.7061,1.7539,4.2427,1.7539s3.0732-.584,4.2427-1.7539l9.9287-9.9297c1.1333-1.1328,1.7573-2.6396,1.7573-4.2422s-.624-3.1094-1.7573-4.2422ZM16,25.5001c-.8284,0-1.5-.6716-1.5-1.5s.6716-1.5,1.5-1.5,1.5.6716,1.5,1.5-.6716,1.5-1.5,1.5ZM17.125,16.9916v2.0084c0,.6211-.5039,1.125-1.125,1.125s-1.125-.5039-1.125-1.125v-3c0-.6211.5039-1.125,1.125-1.125,1.5854,0,2.875-1.29,2.875-2.875s-1.2896-2.875-2.875-2.875-2.875,1.29-2.875,2.875c0,.6211-.5039,1.125-1.125,1.125s-1.125-.5039-1.125-1.125c0-2.8262,2.2988-5.125,5.125-5.125s5.125,2.2988,5.125,5.125c0,2.4386-1.715,4.4763-4,4.9916Z"/></g></svg>