<svg xmlns="http://www.w3.org/2000/svg" viewBox="0 0 32 32">
  <defs>
    <style>
      .uuid-992c0ae9-bb5a-4b0a-b9d9-9881479fa38b{stroke-width:0;fill:#151515}
    </style>
  </defs>
  <path d="M0 0h32v32H0z" id="uuid-5968532b-5222-4002-97de-f406f2eeab42" stroke-width="0" fill="none"/>
  <g id="uuid-f8b81fc1-471e-47a6-ac75-5bd3a2c68071">
    <path class="uuid-992c0ae9-bb5a-4b0a-b9d9-9881479fa38b" d="M30.171 11.757 20.243 1.83C19.109.695 17.603.07 16 .07s-3.11.624-4.243 1.758L1.83 11.757C.695 12.891.07 14.397.07 16s.624 3.11 1.758 4.242l9.928 9.93c1.17 1.17 2.706 1.754 4.243 1.754s3.073-.584 4.243-1.754l9.928-9.93c1.134-1.133 1.758-2.64 1.758-4.242s-.624-3.11-1.758-4.243Zm-1.414 7.071-9.928 9.93a4.007 4.007 0 0 1-5.658 0l-9.928-9.93C2.487 18.072 2.07 17.068 2.07 16s.416-2.073 1.172-2.829l9.928-9.928c.78-.78 1.805-1.17 2.829-1.17s2.049.39 2.829 1.17l9.928 9.928c.756.756 1.172 1.76 1.172 2.829s-.416 2.072-1.172 2.828Z"/>
    <path class="uuid-992c0ae9-bb5a-4b0a-b9d9-9881479fa38b" d="M16 7c-2.757 0-5 2.243-5 5a1 1 0 0 0 2 0c0-1.654 1.346-3 3-3s3 1.346 3 3-1.346 3-3 3a1 1 0 0 0-1 1v3a1 1 0 1 0 2 0v-2.101c2.28-.465 4-2.485 4-4.899 0-2.757-2.243-5-5-5Z"/>
    <circle class="uuid-992c0ae9-bb5a-4b0a-b9d9-9881479fa38b" cx="16" cy="24" r="1.5"/>
  </g>
</svg>
