<?xml version="1.0" encoding="UTF-8"?><svg xmlns="http://www.w3.org/2000/svg" viewBox="0 0 32 32"><defs><style>.uuid-8f953417-254f-4c74-8af0-3f2dfabcee39{fill:none;}.uuid-8f953417-254f-4c74-8af0-3f2dfabcee39,.uuid-992c0ae9-bb5a-4b0a-b9d9-9881479fa38b{stroke-width:0px;}.uuid-992c0ae9-bb5a-4b0a-b9d9-9881479fa38b{fill:#151515;}</style></defs><g id="uuid-5968532b-5222-4002-97de-f406f2eeab42"><rect class="uuid-8f953417-254f-4c74-8af0-3f2dfabcee39" x="0" width="32" height="32"/></g><g id="uuid-f8b81fc1-471e-47a6-ac75-5bd3a2c68071"><path class="uuid-992c0ae9-bb5a-4b0a-b9d9-9881479fa38b" d="M30.1714,11.7573L20.2427,1.8286c-1.1333-1.1333-2.6401-1.7573-4.2427-1.7573s-3.1094.624-4.2427,1.7573L1.8286,11.7573C.6953,12.8906.0713,14.3975.0713,16s.624,3.1094,1.7573,4.2422l9.9287,9.9297c1.1699,1.1699,2.7061,1.7539,4.2427,1.7539s3.0732-.584,4.2427-1.7539l9.9287-9.9297c1.1333-1.1328,1.7573-2.6396,1.7573-4.2422s-.624-3.1094-1.7573-4.2427ZM28.7573,18.8281l-9.9287,9.9297c-1.5596,1.5586-4.0977,1.5586-5.6572,0L3.2427,18.8281c-.7554-.7559-1.1714-1.7598-1.1714-2.8281s.416-2.0732,1.1714-2.8286L13.1714,3.2427c.7798-.7798,1.8042-1.1694,2.8286-1.1694s2.0488.3896,2.8286,1.1694l9.9287,9.9287c.7554.7554,1.1714,1.7603,1.1714,2.8286s-.416,2.0723-1.1714,2.8281Z"/><path class="uuid-992c0ae9-bb5a-4b0a-b9d9-9881479fa38b" d="M16,7c-2.7568,0-5,2.2432-5,5,0,.5522.4478,1,1,1s1-.4478,1-1c0-1.6543,1.3457-3,3-3s3,1.3457,3,3-1.3457,3-3,3c-.5522,0-1,.4478-1,1v3c0,.5527.4478,1,1,1s1-.4473,1-1v-2.1011c2.2793-.4647,4-2.4845,4-4.8989,0-2.7568-2.2432-5-5-5Z"/><circle class="uuid-992c0ae9-bb5a-4b0a-b9d9-9881479fa38b" cx="16" cy="24.0003" r="1.5"/></g></svg>