<?xml version="1.0" encoding="UTF-8"?><svg xmlns="http://www.w3.org/2000/svg" width="32" height="32" viewBox="0 0 32 32"><defs><style>.uuid-f38a7964-b74c-4b5f-b1f0-8d3ee63c9686{fill:none;}.uuid-b174fdd0-866d-42ae-bc55-c6b246606ae4{fill:#151515;}</style></defs><g id="uuid-b0bec59f-0d23-4d7b-b059-14500cd5a54c"><rect class="uuid-f38a7964-b74c-4b5f-b1f0-8d3ee63c9686" width="32" height="32"/></g><g id="uuid-f25bbdb5-cdab-4055-be3f-3b06545319a7"><path class="uuid-b174fdd0-866d-42ae-bc55-c6b246606ae4" d="M28.74902,10.36426l-7.11328-7.11328C18.52832.14355,13.47168.14355,10.36426,3.25098l-7.11328,7.11328C.14355,13.47168.14355,18.52832,3.25098,21.63574l7.11328,7.11328c1.55371,1.55371,3.59473,2.33105,5.63574,2.33105s4.08203-.77734,5.63574-2.33105l7.11328-7.11328c3.10742-3.10742,3.10742-8.16406,0-11.27148ZM16,27.0011c-1.10455,0-2-.89545-2-2s.89545-2,2-2,2,.89545,2,2-.89545,2-2,2ZM17.25,17.09961v1.90039c0,.69043-.55957,1.25-1.25,1.25s-1.25-.55957-1.25-1.25v-3c0-.69043.55957-1.25,1.25-1.25,1.5166,0,2.75-1.2334,2.75-2.75s-1.2334-2.75-2.75-2.75-2.75,1.2334-2.75,2.75c0,.69043-.55957,1.25-1.25,1.25s-1.25-.55957-1.25-1.25c0-2.89453,2.35547-5.25,5.25-5.25s5.25,2.35547,5.25,5.25c0,2.46387-1.70703,4.53711-4,5.09961Z"/></g></svg>