<svg xmlns="http://www.w3.org/2000/svg" viewBox="0 0 32 32">
  <defs>
    <style>
      .uuid-84363589-4052-477c-ba9e-5997132f72ac{stroke-width:0;fill:#151515}
    </style>
  </defs>
  <path d="M0 0h32v32H0z" id="uuid-e15f81fb-93e2-487d-8386-240e8ded86b2" stroke-width="0" fill="none"/>
  <g id="uuid-920b7506-3928-4baf-92e0-008f193f46a2">
    <path class="uuid-84363589-4052-477c-ba9e-5997132f72ac" d="M29.5 11H16V8c0-4.411-3.589-8-8-8S0 3.589 0 8v4a1 1 0 0 0 2 0V8c0-3.309 2.691-6 6-6s6 2.691 6 6v3h-3.5c-.827 0-1.5.673-1.5 1.5v17c0 .827.673 1.5 1.5 1.5h19c.827 0 1.5-.673 1.5-1.5v-17c0-.827-.673-1.5-1.5-1.5ZM29 29H11V13h18v16Z"/>
    <circle class="uuid-84363589-4052-477c-ba9e-5997132f72ac" cx="20" cy="21.01" r="1.5"/>
  </g>
</svg>
