<?xml version="1.0" encoding="UTF-8"?><svg xmlns="http://www.w3.org/2000/svg" viewBox="0 0 32 32"><defs><style>.uuid-25f05604-0125-4833-94e8-dcdf4795b8ca{fill:none;}.uuid-25f05604-0125-4833-94e8-dcdf4795b8ca,.uuid-84363589-4052-477c-ba9e-5997132f72ac{stroke-width:0px;}.uuid-84363589-4052-477c-ba9e-5997132f72ac{fill:#151515;}</style></defs><g id="uuid-e15f81fb-93e2-487d-8386-240e8ded86b2"><rect class="uuid-25f05604-0125-4833-94e8-dcdf4795b8ca" x="0" width="32" height="32"/></g><g id="uuid-920b7506-3928-4baf-92e0-008f193f46a2"><path class="uuid-84363589-4052-477c-ba9e-5997132f72ac" d="M29.5,11h-13.5v-3C16,3.5889,12.4111,0,8,0S0,3.5889,0,8v4c0,.5522.4478,1,1,1s1-.4478,1-1v-4c0-3.3086,2.6914-6,6-6s6,2.6914,6,6v3h-3.5c-.8271,0-1.5.6729-1.5,1.5v17c0,.8271.6729,1.5,1.5,1.5h19c.8271,0,1.5-.6729,1.5-1.5V12.5c0-.8271-.6729-1.5-1.5-1.5ZM29,29H11V13h18v16Z"/><circle class="uuid-84363589-4052-477c-ba9e-5997132f72ac" cx="20" cy="21.0099" r="1.5"/></g></svg>