<?xml version="1.0" encoding="UTF-8"?><svg xmlns="http://www.w3.org/2000/svg" width="32" height="32" viewBox="0 0 32 32"><defs><style>.uuid-85574f97-ca8f-42a4-8e85-f38e62a8d3a4{fill:none;}.uuid-9e0e2279-9b1d-4766-a61b-9f365ff0ea75{fill:#151515;}</style></defs><g id="uuid-3cb9f760-64f0-4d70-a5fb-f2c8a0ba3239"><rect class="uuid-85574f97-ca8f-42a4-8e85-f38e62a8d3a4" width="32" height="32"/></g><g id="uuid-b97acc7b-b820-43a9-b8d8-e5141cea1d68"><path class="uuid-9e0e2279-9b1d-4766-a61b-9f365ff0ea75" d="M28.5,12h-13.5v-4c0-3.85938-3.14062-7-7-7S1,4.14062,1,8v5c0,.55273.44727,1,1,1s1-.44727,1-1v-5c0-2.75684,2.24316-5,5-5s5,2.24316,5,5v4h-1.5c-.82715,0-1.5.67285-1.5,1.5v15c0,.82715.67285,1.5,1.5,1.5h17c.82715,0,1.5-.67285,1.5-1.5v-15c0-.82715-.67285-1.5-1.5-1.5ZM20,22.74957c-.96649,0-1.75-.78345-1.75-1.75,0-.96649.78351-1.75,1.75-1.75s1.75.78351,1.75,1.75c0,.96655-.78351,1.75-1.75,1.75Z"/></g></svg>