<?xml version="1.0" encoding="UTF-8"?><svg xmlns="http://www.w3.org/2000/svg" viewBox="0 0 32 32"><defs><style>.uuid-4d2f3569-a20b-4293-806f-b969cbe70ec7{fill:none;}.uuid-4d2f3569-a20b-4293-806f-b969cbe70ec7,.uuid-7e629a1e-3bcb-4dc1-ac48-c70a938d7679{stroke-width:0px;}.uuid-7e629a1e-3bcb-4dc1-ac48-c70a938d7679{fill:#151515;}</style></defs><g id="uuid-0ea3870f-aa37-422e-9ab5-31472f390c6a"><rect class="uuid-4d2f3569-a20b-4293-806f-b969cbe70ec7" x="0" width="32" height="32"/></g><g id="uuid-f7e6945e-047f-44c0-9f1d-5694419f0c5f"><path class="uuid-7e629a1e-3bcb-4dc1-ac48-c70a938d7679" d="M29.5,11.25h-13.5v-3.25C16,3.5889,12.4111,0,8,0S0,3.5889,0,8v4c0,.5527.4478,1,1,1s1-.4473,1-1v-4c0-3.3086,2.6914-6,6-6s6,2.6914,6,6v3.25h-3.5c-.6895,0-1.25.5605-1.25,1.25v17c0,.6895.5605,1.25,1.25,1.25h19c.6895,0,1.25-.5605,1.25-1.25V12.5c0-.6895-.5605-1.25-1.25-1.25ZM20,22.5099c-.8284,0-1.5-.6716-1.5-1.5s.6716-1.5,1.5-1.5,1.5.6716,1.5,1.5-.6716,1.5-1.5,1.5Z"/></g></svg>