<?xml version="1.0" encoding="UTF-8"?><svg xmlns="http://www.w3.org/2000/svg" width="32" height="32" viewBox="0 0 32 32"><defs><style>.uuid-e4c559aa-0a7f-4fcd-b4e5-520ad4ec378e{fill:none;}.uuid-a671e10f-36f1-47e3-b234-50326006477d{fill:#151515;}</style></defs><g id="uuid-f93926d5-63ca-487b-a458-bb8807dd2cb3"><rect class="uuid-e4c559aa-0a7f-4fcd-b4e5-520ad4ec378e" width="32" height="32"/></g><g id="uuid-932b3b43-8730-4b3d-ba65-071a88809ec0"><path class="uuid-a671e10f-36f1-47e3-b234-50326006477d" d="M28.5,12h-13.5v-4c0-3.85938-3.14062-7-7-7S1,4.14062,1,8v5c0,.55273.44727,1,1,1s1-.44727,1-1v-5c0-2.75684,2.24316-5,5-5s5,2.24316,5,5v4h-1.5c-.82715,0-1.5.67285-1.5,1.5v15c0,.82715.67285,1.5,1.5,1.5h17c.82715,0,1.5-.67285,1.5-1.5v-15c0-.82715-.67285-1.5-1.5-1.5ZM28,28H12v-14h16v14Z"/><circle class="uuid-a671e10f-36f1-47e3-b234-50326006477d" cx="20" cy="21.00012" r="1.5"/></g></svg>