<?xml version="1.0" encoding="UTF-8"?><svg xmlns="http://www.w3.org/2000/svg" width="32" height="32" viewBox="0 0 32 32"><defs><style>.uuid-0201aefd-d7f7-4192-92af-b6070f74881e{fill:none;}.uuid-4e11eb1e-0560-4c76-ae0b-9242a351bb86{fill:#151515;}</style></defs><g id="uuid-9a7d24b1-a1bf-4bee-b283-cbbec288a72f"><rect class="uuid-0201aefd-d7f7-4192-92af-b6070f74881e" width="32" height="32"/></g><g id="uuid-8e83bb44-1132-4eb2-b89b-e30539db4e14"><path class="uuid-4e11eb1e-0560-4c76-ae0b-9242a351bb86" d="M4.70703,11.29297c-.28613-.28711-.7168-.37402-1.08984-.2168-.37354.1543-.61719.51953-.61719.92383v6c0,7.16797,5.83154,13,13,13,1.86475,0,3.66553-.38672,5.35156-1.14844.29932-.13477.51318-.4082.57227-.73145.05859-.32324-.04443-.6543-.27686-.88672L4.70703,11.29297Z"/><path class="uuid-4e11eb1e-0560-4c76-ae0b-9242a351bb86" d="M29.70703,28.29297l-2.97009-2.97009c1.47943-2.1601,2.26306-4.67139,2.26306-7.32288V4.55957c0-.47168-.33008-.87988-.7915-.97754l-12-2.55957c-.1377-.0293-.2793-.0293-.41699,0L4.78491,3.37085,2.70703,1.29297c-.39062-.39062-1.02344-.39062-1.41406,0s-.39062,1.02344,0,1.41406l2.45984,2.45984c.00061.00061.00098.00146.00159.00208l20.96631,20.96582,3.57227,3.57227c.19531.19531.45117.29297.70703.29297s.51172-.09766.70703-.29297c.39062-.39062.39062-1.02344,0-1.41406Z"/></g></svg>