<?xml version="1.0" encoding="UTF-8"?><svg xmlns="http://www.w3.org/2000/svg" viewBox="0 0 32 32"><defs><style>.uuid-55cc1a3e-d471-4a72-9ff6-6675a8d97aec{fill:none;}.uuid-55cc1a3e-d471-4a72-9ff6-6675a8d97aec,.uuid-c82e048d-acb2-4042-822b-d40d58c821eb{stroke-width:0px;}.uuid-c82e048d-acb2-4042-822b-d40d58c821eb{fill:#151515;}</style></defs><g id="uuid-95bf6f44-ff35-424a-a83a-97ca3207339b"><rect class="uuid-55cc1a3e-d471-4a72-9ff6-6675a8d97aec" x="0" width="32" height="32"/></g><g id="uuid-fa41cf33-3826-4bea-b2ff-84d5aafd0108"><path class="uuid-c82e048d-acb2-4042-822b-d40d58c821eb" d="M3.5376,9.4775c-.2124-.2197-.5376-.2871-.8198-.1729-.2827.1152-.4678.3896-.4678.6953v8c0,7.582,6.1685,13.75,13.75,13.75,2.207,0,4.4014-.5361,6.3467-1.5498.21-.1094.356-.3115.394-.5459.0376-.2344-.0376-.4717-.2031-.6416L3.5376,9.4775Z"/><path class="uuid-c82e048d-acb2-4042-822b-d40d58c821eb" d="M30.707,29.293l-3.4348-3.4348c1.6171-2.3109,2.4778-5.0093,2.4778-7.8582V3.7695c0-.3535-.2476-.6602-.5938-.7334L16.1562.2666c-.1025-.0215-.21-.0215-.3125,0L4.1682,2.7542,1.707.293C1.3164-.0977.6836-.0977.293.293S-.0977,1.3164.293,1.707l29,29c.1953.1953.4512.293.707.293s.5117-.0977.707-.293c.3906-.3906.3906-1.0234,0-1.4141Z"/></g></svg>