<?xml version="1.0" encoding="UTF-8"?><svg xmlns="http://www.w3.org/2000/svg" width="32" height="32" viewBox="0 0 32 32"><defs><style>.uuid-aaaf0ea3-a2a8-4a4f-9a0e-77b630d8f699{fill:none;}.uuid-aad6cfdb-5522-45a0-ae4f-d39d76a01d88{fill:#151515;}</style></defs><g id="uuid-c9fe609f-83fa-47e3-9385-ce89469e58ea"><rect class="uuid-aaaf0ea3-a2a8-4a4f-9a0e-77b630d8f699" width="32" height="32"/></g><g id="uuid-b2b5577f-3852-4748-90c9-b0d557a63491"><path class="uuid-aad6cfdb-5522-45a0-ae4f-d39d76a01d88" d="M21.72705,27.39453c-1.72021,1.05078-3.7002,1.60547-5.72705,1.60547-6.06543,0-11-4.93457-11-11v-8c0-.55273-.44775-1-1-1s-1,.44727-1,1v8c0,7.16797,5.83154,13,13,13,2.39453,0,4.73535-.65625,6.76904-1.89844.47168-.28809.62012-.90332.33252-1.375-.2876-.4707-.90381-.62012-1.37451-.33203Z"/><path class="uuid-aad6cfdb-5522-45a0-ae4f-d39d76a01d88" d="M29.70703,28.29297l-2.97009-2.97009c1.47943-2.1601,2.26306-4.67139,2.26306-7.32288V4.55957c0-.47168-.33008-.87988-.7915-.97754l-12-2.55957c-.1377-.0293-.2793-.0293-.41699,0L4.78491,3.37085,2.70703,1.29297c-.39062-.39062-1.02344-.39062-1.41406,0s-.39062,1.02344,0,1.41406l27,27c.19531.19531.45117.29297.70703.29297s.51172-.09766.70703-.29297c.39062-.39062.39062-1.02344,0-1.41406ZM6.4696,5.05554l9.5304-2.03308,11,2.34668v12.63086c0,2.11536-.59076,4.12494-1.7063,5.87964L6.4696,5.05554Z"/></g></svg>