<?xml version="1.0" encoding="UTF-8"?><svg xmlns="http://www.w3.org/2000/svg" viewBox="0 0 32 32"><defs><style>.uuid-c18d7e4b-29f0-4099-afe8-0e8441939fc8{fill:none;}.uuid-c18d7e4b-29f0-4099-afe8-0e8441939fc8,.uuid-b8c954b3-0f2d-499e-a2a3-85fcb4dd961b{stroke-width:0px;}.uuid-b8c954b3-0f2d-499e-a2a3-85fcb4dd961b{fill:#151515;}</style></defs><g id="uuid-bc4832f8-3699-4f92-942a-b45b165850cf"><rect class="uuid-c18d7e4b-29f0-4099-afe8-0e8441939fc8" width="32" height="32"/></g><g id="uuid-15772a58-9551-44c1-a2e6-07a3e807473e"><path class="uuid-b8c954b3-0f2d-499e-a2a3-85fcb4dd961b" d="M21.5376,28.6484c-1.7207.8965-3.5835,1.3516-5.5376,1.3516-6.6167,0-12-5.3828-12-12v-8c0-.5522-.4478-1-1-1s-1,.4478-1,1v8c0,7.7197,6.2803,14,14,14,2.2471,0,4.4814-.5459,6.4624-1.5781.4897-.2549.6797-.8594.4243-1.3486-.2549-.4902-.8589-.6807-1.3491-.4248Z"/><path class="uuid-b8c954b3-0f2d-499e-a2a3-85fcb4dd961b" d="M30.707,29.293l-3.2556-3.2556c1.663-2.3613,2.5485-5.1216,2.5485-8.0374V3.77c0-.4722-.3301-.8799-.7915-.978L16.2085.022c-.1377-.0293-.2793-.0293-.417,0L3.9578,2.5437,1.707.293C1.3164-.0977.6836-.0977.293.293S-.0977,1.3164.293,1.707l29,29c.1953.1953.4512.293.707.293s.5117-.0977.707-.293c.3906-.3906.3906-1.0234,0-1.4141ZM16,2.0225l12,2.5571v13.4204c0,2.3826-.6831,4.6462-1.981,6.6049L5.6434,4.2294l10.3566-2.2069Z"/></g></svg>