<?xml version="1.0" encoding="UTF-8"?><svg xmlns="http://www.w3.org/2000/svg" viewBox="0 0 32 32"><defs><style>.uuid-1a667aec-d6f2-4125-a590-d50b5cf21795{fill:none;}.uuid-1a667aec-d6f2-4125-a590-d50b5cf21795,.uuid-843db427-d127-44f4-9a9f-8f3b951af9b9{stroke-width:0px;}.uuid-843db427-d127-44f4-9a9f-8f3b951af9b9{fill:#151515;}</style></defs><g id="uuid-9ae7143f-e64b-497f-b858-683a99dccead"><rect class="uuid-1a667aec-d6f2-4125-a590-d50b5cf21795" width="32" height="32"/></g><g id="uuid-a5ed686d-5bec-47a6-9d19-9e6278779dfa"><path class="uuid-843db427-d127-44f4-9a9f-8f3b951af9b9" d="M30,29H2c-.5522,0-1,.4473-1,1s.4478,1,1,1h28c.5522,0,1-.4473,1-1s-.4478-1-1-1Z"/><path class="uuid-843db427-d127-44f4-9a9f-8f3b951af9b9" d="M7.707,11.707l7.293-7.293v20.5859c0,.5527.4478,1,1,1s1-.4473,1-1V4.4141l7.293,7.293c.1953.1953.4512.293.707.293s.5117-.0977.707-.293c.3906-.3906.3906-1.0234,0-1.4141L17.0605,1.6465c-.585-.585-1.5361-.585-2.1211,0L6.293,10.293c-.3906.3906-.3906,1.0234,0,1.4141s1.0234.3906,1.4141,0Z"/></g></svg>