<?xml version="1.0" encoding="UTF-8"?><svg xmlns="http://www.w3.org/2000/svg" width="32" height="32" viewBox="0 0 32 32"><defs><style>.uuid-3f7b6530-ddfd-44c8-94ce-3fe5b3edad54{fill:none;}.uuid-127d3aa7-a528-428c-bb62-affb53d0d471{fill:#151515;}</style></defs><g id="uuid-47082470-d720-4e6e-a009-cdf91bc0c685"><rect class="uuid-3f7b6530-ddfd-44c8-94ce-3fe5b3edad54" width="32" height="32"/></g><g id="uuid-c5f0d1e4-4158-4b52-8390-301499f6f0a7"><path class="uuid-127d3aa7-a528-428c-bb62-affb53d0d471" d="M29,28H3c-.55225,0-1,.44727-1,1s.44775,1,1,1h26c.55225,0,1-.44727,1-1s-.44775-1-1-1Z"/><path class="uuid-127d3aa7-a528-428c-bb62-affb53d0d471" d="M7.70703,12.70703l7.29297-7.29297v18.58594c0,.55273.44775,1,1,1s1-.44727,1-1V5.41406l7.29297,7.29297c.19531.19531.45117.29297.70703.29297s.51172-.09766.70703-.29297c.39062-.39062.39062-1.02344,0-1.41406L17.06055,2.64648c-.58496-.58594-1.53613-.58594-2.12109,0L6.29297,11.29297c-.39062.39062-.39062,1.02344,0,1.41406s1.02344.39062,1.41406,0Z"/></g></svg>