<?xml version="1.0" encoding="UTF-8"?><svg xmlns="http://www.w3.org/2000/svg" viewBox="0 0 32 32"><defs><style>.uuid-8323f7d5-2c83-44fe-8950-ceefe0d169aa{fill:none;}.uuid-8323f7d5-2c83-44fe-8950-ceefe0d169aa,.uuid-7ec447d9-b2c8-4349-9c13-67cb80771285{stroke-width:0px;}.uuid-7ec447d9-b2c8-4349-9c13-67cb80771285{fill:#151515;}</style></defs><g id="uuid-bd40376f-ad42-43f1-999e-1108d62d40b8"><rect class="uuid-8323f7d5-2c83-44fe-8950-ceefe0d169aa" width="32" height="32"/></g><g id="uuid-8e51531a-d9f0-46e2-b5ec-4ec540a66618"><path class="uuid-7ec447d9-b2c8-4349-9c13-67cb80771285" d="M14,21c0-.5527-.4473-1-1-1H2.0625c.4932-3.9409,3.8652-7,7.9375-7,1.249,0,2.4453.2798,3.5547.8311.498.2461,1.0947.0435,1.3408-.4507.2461-.4946.0439-1.0947-.4502-1.3403-.2461-.1222-.4993-.2205-.7518-.3213,1.4014-1.0993,2.3065-2.8035,2.3065-4.7188,0-3.3086-2.6914-6-6-6s-6,2.6914-6,6c0,1.9139.9039,3.6172,2.3036,4.7166-3.6878,1.4739-6.3036,5.0757-6.3036,9.2834,0,.5527.4473,1,1,1h12c.5527,0,1-.4473,1-1ZM6,7c0-2.2056,1.7939-4,4-4s4,1.7944,4,4-1.7939,4-4,4-4-1.7944-4-4Z"/><path class="uuid-7ec447d9-b2c8-4349-9c13-67cb80771285" d="M25.6964,20.7166c1.3998-1.0993,2.3036-2.8027,2.3036-4.7166,0-3.3086-2.6914-6-6-6s-6,2.6914-6,6c0,1.9139.9039,3.6172,2.3036,4.7166-3.6878,1.4739-6.3036,5.076-6.3036,9.2834,0,.5527.4473,1,1,1h18c.5527,0,1-.4473,1-1,0-4.2074-2.6158-7.8094-6.3036-9.2834ZM18,16c0-2.2056,1.7939-4,4-4s4,1.7944,4,4-1.7939,4-4,4-4-1.7939-4-4ZM14.0625,29c.4932-3.9404,3.8652-7,7.9375-7s7.4443,3.0596,7.9375,7h-15.875Z"/></g></svg>