<?xml version="1.0" encoding="UTF-8"?><svg xmlns="http://www.w3.org/2000/svg" width="32" height="32" viewBox="0 0 32 32"><defs><style>.uuid-58e336a5-1054-4e11-8a67-fdcfc80a2123{fill:none;}.uuid-45061284-6db8-4671-948a-a1db4f50081c{fill:#151515;}</style></defs><g id="uuid-8a2670b0-ac15-47aa-a31a-3d9d7d3be25d"><rect class="uuid-58e336a5-1054-4e11-8a67-fdcfc80a2123" width="32" height="32"/></g><g id="uuid-b6f2a9ba-152a-405e-863f-e0e6267ab19f"><path class="uuid-45061284-6db8-4671-948a-a1db4f50081c" d="M25.62604,20.76923c1.43939-1.09698,2.37396-2.82379,2.37396-4.76923,0-3.30859-2.69141-6-6-6s-6,2.69141-6,6c0,1.94543.93457,3.67224,2.37396,4.76923-3.1604,1.39789-5.37396,4.55841-5.37396,8.23077,0,.55273.44775,1,1,1h16c.55225,0,1-.44727,1-1,0-3.67236-2.21356-6.83289-5.37396-8.23077ZM18,16c0-2.20605,1.79443-4,4-4s4,1.79395,4,4-1.79443,4-4,4-4-1.79395-4-4ZM15.07129,28c.48682-3.3877,3.4082-6,6.92871-6s6.44189,2.6123,6.92871,6h-13.85742Z"/><path class="uuid-45061284-6db8-4671-948a-a1db4f50081c" d="M14,21c0-.55273-.44775-1-1-1H3.07129c.48682-3.3877,3.4082-6,6.92871-6,1.23047,0,2.44092.32324,3.49951.93555.47852.27734,1.08936.11426,1.36621-.36426.27637-.47852.11328-1.08984-.36523-1.36621-.28333-.16388-.57941-.30182-.87799-.43323,1.44135-1.09686,2.3775-2.82483,2.3775-4.77185,0-3.30859-2.69141-6-6-6s-6,2.69141-6,6c0,1.94543.93457,3.67224,2.37396,4.76923-3.1604,1.39789-5.37396,4.55841-5.37396,8.23077,0,.55273.44775,1,1,1h11c.55225,0,1-.44727,1-1ZM6,8c0-2.20605,1.79443-4,4-4s4,1.79395,4,4-1.79443,4-4,4-4-1.79395-4-4Z"/></g></svg>