<?xml version="1.0" encoding="UTF-8"?><svg xmlns="http://www.w3.org/2000/svg" width="32" height="32" viewBox="0 0 32 32"><defs><style>.uuid-bee17023-5b31-4b39-b636-711c61f5d4c6{fill:none;}.uuid-b43e02a8-0e31-4977-96e1-642697b343b8{fill:#151515;}</style></defs><g id="uuid-5454aada-d8b1-40dd-b092-5ec9d2b4d10b"><rect class="uuid-bee17023-5b31-4b39-b636-711c61f5d4c6" width="32" height="32"/></g><g id="uuid-ca89920f-9096-4d85-bb52-a2eebc838ce6"><path class="uuid-b43e02a8-0e31-4977-96e1-642697b343b8" d="M15.1079,20.44721c.09492-.0772.11736-.20716.05383-.31172-.73401-1.20799-1.16173-2.62164-1.16173-4.13549,0-.81401.12713-1.59773.35494-2.338.03465-.11259-.01063-.23455-.11325-.29239-.36347-.20484-.73991-.38868-1.13396-.5391,1.90571-1.23031,3.04473-3.55051,2.51031-6.0766-.45826-2.16608-2.20991-3.91701-4.37645-4.37311-3.70979-.78098-6.99159,2.04267-6.99159,5.6192,0,2.02563,1.0553,3.80597,2.64227,4.83051-3.30228,1.26072-5.65564,4.45808-5.64218,8.20136.00144.40156.34835.71812.74991.71812h11.76562c.41356-.46794.85765-.9086,1.34228-1.30278Z"/><path class="uuid-b43e02a8-0e31-4977-96e1-642697b343b8" d="M25.10773,20.83051c1.58698-1.02454,2.64227-2.80487,2.64227-4.83051,0-3.1709-2.57959-5.75-5.75-5.75s-5.75,2.5791-5.75,5.75c0,2.02563,1.0553,3.80597,2.64227,4.83051-3.29291,1.25714-5.64227,4.43994-5.64227,8.16949,0,.41406.33594.75.75.75h16c.41406,0,.75-.33594.75-.75,0-3.72955-2.34937-6.91235-5.64227-8.16949Z"/></g></svg>