<?xml version="1.0" encoding="UTF-8"?><svg xmlns="http://www.w3.org/2000/svg" viewBox="0 0 32 32"><defs><style>.uuid-e09a6698-df58-430c-8f96-1327615160a0{fill:none;}.uuid-e09a6698-df58-430c-8f96-1327615160a0,.uuid-a22a501f-017b-4cd8-859b-fba198adfb77{stroke-width:0px;}.uuid-a22a501f-017b-4cd8-859b-fba198adfb77{fill:#151515;}</style></defs><g id="uuid-2131e8c3-3134-44a5-b246-f11c06882f7b"><rect class="uuid-e09a6698-df58-430c-8f96-1327615160a0" width="32" height="32"/></g><g id="uuid-d9cabd81-b3b4-4d3a-923a-d4accdb6414a"><path class="uuid-a22a501f-017b-4cd8-859b-fba198adfb77" d="M15.1592,20.1455c-.752-1.2324-1.1592-2.6572-1.1592-4.1455,0-1.1562.2517-2.253.695-3.2464-.6645-.3791-1.3786-.6808-2.1303-.8921,1.7435-.9236,2.9353-2.7552,2.9353-4.8615,0-3.0322-2.4673-5.5-5.5-5.5s-5.5,2.4678-5.5,5.5c0,2.1063,1.1918,3.9379,2.9353,4.8615-3.9946,1.123-6.9353,4.7899-6.9353,9.1385,0,.2764.2236.5.5.5h12.5571c.4955-.4897,1.0203-.9529,1.6021-1.3545Z"/><path class="uuid-a22a501f-017b-4cd8-859b-fba198adfb77" d="M24.5647,20.8615c1.7435-.9236,2.9353-2.7552,2.9353-4.8615,0-3.0322-2.4673-5.5-5.5-5.5s-5.5,2.4678-5.5,5.5c0,2.1063,1.1918,3.9379,2.9353,4.8615-3.9946,1.123-6.9353,4.7899-6.9353,9.1385,0,.2764.2236.5.5.5h18c.2764,0,.5-.2236.5-.5,0-4.3486-2.9407-8.0154-6.9353-9.1385Z"/></g></svg>