<?xml version="1.0" encoding="UTF-8"?><svg xmlns="http://www.w3.org/2000/svg" viewBox="0 0 32 32"><defs><style>.uuid-00a741c5-b541-4870-8b8f-a09360058507{fill:none;}.uuid-00a741c5-b541-4870-8b8f-a09360058507,.uuid-a97f1a1b-72f1-46bc-9a62-423b7e567cf6{stroke-width:0px;}.uuid-a97f1a1b-72f1-46bc-9a62-423b7e567cf6{fill:#151515;}</style></defs><g id="uuid-ccd99dea-fbdc-464e-a39f-d36b528bb138"><rect class="uuid-00a741c5-b541-4870-8b8f-a09360058507" width="32" height="32"/></g><g id="uuid-fa5c4809-143a-45e8-81b5-25cd986d4a84"><path class="uuid-a97f1a1b-72f1-46bc-9a62-423b7e567cf6" d="M31.8799,15.5288c-3.1416-5.8774-9.2266-9.5288-15.8799-9.5288S3.2617,9.6514.1201,15.5288c-.1572.2944-.1572.6479,0,.9424,3.1416,5.8774,9.2266,9.5288,15.8799,9.5288s12.7383-3.6514,15.8799-9.5288c.1572-.2944.1572-.6479,0-.9424ZM16,24c-5.7334,0-10.9932-3.0518-13.8535-8,2.8604-4.9482,8.1201-8,13.8535-8s10.9932,3.0518,13.8535,8c-2.8604,4.9482-8.1201,8-13.8535,8Z"/><path class="uuid-a97f1a1b-72f1-46bc-9a62-423b7e567cf6" d="M16,10c-3.3086,0-6,2.6914-6,6s2.6914,6,6,6,6-2.6914,6-6-2.6914-6-6-6ZM16,20c-2.2061,0-4-1.7939-4-4s1.7939-4,4-4,4,1.7944,4,4-1.7939,4-4,4Z"/></g></svg>