<?xml version="1.0" encoding="UTF-8"?><svg xmlns="http://www.w3.org/2000/svg" viewBox="0 0 32 32"><defs><style>.uuid-9a6fd554-2b52-44f2-9b31-f7788f475534{fill:none;}.uuid-9a6fd554-2b52-44f2-9b31-f7788f475534,.uuid-26c556f5-bdc0-4661-914e-beb855d3b5c0{stroke-width:0px;}.uuid-26c556f5-bdc0-4661-914e-beb855d3b5c0{fill:#151515;}</style></defs><g id="uuid-ec2fa201-2a26-465a-89a7-e9c483a90a28"><rect class="uuid-9a6fd554-2b52-44f2-9b31-f7788f475534" width="32" height="32"/></g><g id="uuid-0e6fd997-7b1e-44f9-918a-78608c42f98d"><path class="uuid-26c556f5-bdc0-4661-914e-beb855d3b5c0" d="M31.8799,16.4717c.1577-.2949.1577-.6484,0-.9434-3.1416-5.877-9.2266-9.5283-15.8799-9.5283-2.4738,0-4.8616.5054-7.1103,1.4756L2.707,1.293c-.3906-.3906-1.0234-.3906-1.4141,0s-.3906,1.0234,0,1.4141l28,28c.1953.1953.4512.293.707.293s.5117-.0977.707-.293c.3906-.3906.3906-1.0234,0-1.4141l-5.7134-5.7134c2.9147-1.6855,5.2922-4.1261,6.8863-7.1078ZM13.2578,11.8438c.7858-.5288,1.7243-.8438,2.7422-.8438,2.7568,0,5,2.2432,5,5,0,1.0178-.3173,1.9542-.846,2.7399l-6.8962-6.8962Z"/><path class="uuid-26c556f5-bdc0-4661-914e-beb855d3b5c0" d="M16.5616,20.9432c-.1867.0212-.3693.0568-.5616.0568-2.7568,0-5-2.2432-5-5,0-.1599.0325-.3109.0472-.467l-5.3241-5.2234c-.3696-.3633-.9536-.3838-1.3467-.0488-1.7471,1.4805-3.1792,3.2529-4.2563,5.2676-.1577.2949-.1577.6484,0,.9434,3.1416,5.877,9.2266,9.5283,15.8799,9.5283.9849,0,1.9727-.0801,2.9409-.2393l.2256-.0381c.3706-.0625.6748-.3281.7876-.6865s.0146-.75-.2539-1.0137l-3.1385-3.0792Z"/></g></svg>