<?xml version="1.0" encoding="UTF-8"?><svg xmlns="http://www.w3.org/2000/svg" width="32" height="32" viewBox="0 0 32 32"><defs><style>.uuid-896da364-4943-4ef6-b28d-9565939b0984{fill:none;}.uuid-5e4641fe-cc24-4854-8268-333c946fb96a{fill:#151515;}</style></defs><g id="uuid-37f5958d-ed5a-4c34-8825-82a1f90f7663"><rect class="uuid-896da364-4943-4ef6-b28d-9565939b0984" width="32" height="32"/></g><g id="uuid-4bd09c71-a8ff-4845-be32-02eebd840b53"><path class="uuid-5e4641fe-cc24-4854-8268-333c946fb96a" d="M30.56641,15.44727c-.76953-1.53613-5.08838-9.19727-14.56641-9.19727S2.20312,13.91113,1.43311,15.44824c-.17529.35059-.17529.75293,0,1.10352,0,.00098.00049.00098.00049.00098.76953,1.53613,5.08838,9.19727,14.56641,9.19727s13.79688-7.66113,14.56689-9.19824c.17529-.35059.17529-.75293-.00049-1.10449ZM16,21c-2.76141,0-5-2.23859-5-5s2.23859-5,5-5,5,2.23859,5,5-2.23859,5-5,5Z"/></g></svg>