<?xml version="1.0" encoding="UTF-8"?><svg xmlns="http://www.w3.org/2000/svg" viewBox="0 0 32 32"><defs><style>.uuid-95f55937-46af-414c-971a-4b5953334bfa{fill:none;}.uuid-95f55937-46af-414c-971a-4b5953334bfa,.uuid-d24003f3-60f8-4401-91ad-1d2603096e4d{stroke-width:0px;}.uuid-d24003f3-60f8-4401-91ad-1d2603096e4d{fill:#151515;}</style></defs><g id="uuid-6e2ff980-0f6c-428b-be16-30bd5076a2e1"><rect class="uuid-95f55937-46af-414c-971a-4b5953334bfa" width="32" height="32"/></g><g id="uuid-f8105c2d-c6d0-4104-8e9f-2b0eb847ccf7"><path class="uuid-d24003f3-60f8-4401-91ad-1d2603096e4d" d="M18.8252,23.752c-.9277.1641-1.8789.248-2.8252.248-5.7344,0-10.9932-3.0518-13.8535-8,.9287-1.6079,2.1211-3.0308,3.5488-4.2358.4229-.356.4756-.9868.1201-1.4092-.3564-.4214-.9873-.4766-1.4092-.1191-1.7607,1.4854-3.2031,3.2661-4.2861,5.293-.1572.2944-.1572.6479,0,.9424,3.1416,5.8774,9.2266,9.5288,15.8799,9.5288,1.0635,0,2.1318-.0938,3.1748-.2793.5439-.0967.9062-.6152.8096-1.1592-.0967-.543-.6045-.9082-1.1592-.8096Z"/><path class="uuid-d24003f3-60f8-4401-91ad-1d2603096e4d" d="M31.8799,16.4717c.1572-.2949.1572-.6484,0-.9429-3.1416-5.8774-9.2266-9.5288-15.8799-9.5288-2.474,0-4.8616.5053-7.1101,1.4758L2.707,1.293c-.3906-.3906-1.0234-.3906-1.4141,0s-.3906,1.0234,0,1.4141l28,28c.1953.1953.4512.293.707.293s.5117-.0977.707-.293c.3906-.3906.3906-1.0234,0-1.4141l-5.7135-5.7135c2.9138-1.6854,5.2914-4.1252,6.8864-7.1078ZM19.4385,18.0245l-5.4627-5.4627c.6125-.3622,1.3011-.5618,2.0242-.5618,2.2061,0,4,1.7944,4,4,0,.7238-.1996,1.4125-.5615,2.0245ZM23.532,22.118l-2.6494-2.6494c.7256-1.0172,1.1174-2.21,1.1174-3.4686,0-3.3086-2.6914-6-6-6-1.2571,0-2.4501.3919-3.4693,1.1166l-2.0989-2.0989c1.7764-.6624,3.6406-1.0177,5.5682-1.0177,5.7334,0,10.9932,3.0518,13.8535,8-1.4993,2.5935-3.6748,4.7019-6.3215,6.118Z"/><path class="uuid-d24003f3-60f8-4401-91ad-1d2603096e4d" d="M17,21c0-.5527-.4473-1-1-1-2.2061,0-4-1.7939-4-4,0-.5522-.4473-1-1-1s-1,.4478-1,1c0,3.3086,2.6914,6,6,6,.5527,0,1-.4473,1-1Z"/></g></svg>