<?xml version="1.0" encoding="UTF-8"?><svg xmlns="http://www.w3.org/2000/svg" width="32" height="32" viewBox="0 0 32 32"><defs><style>.uuid-fd54e6a2-be54-49bb-8e80-218d930f7485{fill:none;}.uuid-0aa39c2b-c096-4c17-8d55-1f98d3009031{fill:#151515;}</style></defs><g id="uuid-2e90eb98-fa13-4b25-ae5d-f355b47e4be7"><rect class="uuid-fd54e6a2-be54-49bb-8e80-218d930f7485" width="32" height="32"/></g><g id="uuid-21075fc0-f33c-4639-b07e-0c2033f4b6c9"><path class="uuid-0aa39c2b-c096-4c17-8d55-1f98d3009031" d="M17,21c0-.55273-.44775-1-1-1-2.20557,0-4-1.79395-4-4,0-.55273-.44775-1-1-1s-1,.44727-1,1c0,3.30859,2.69141,6,6,6,.55225,0,1-.44727,1-1Z"/><path class="uuid-0aa39c2b-c096-4c17-8d55-1f98d3009031" d="M19.34229,23.6084c-1.05957.25977-2.18408.3916-3.34229.3916-8.04688,0-11.93652-6.22266-12.88232-8,.42432-.79297,1.53662-2.64648,3.44824-4.35352.41211-.36816.44775-1,.08008-1.41211-.36816-.41211-1.00049-.44629-1.41211-.08008-2.33105,2.08203-3.59033,4.31543-4.02393,5.18066-.21143.42285-.21143.90723,0,1.33008.78174,1.55859,5.16846,9.33496,14.79004,9.33496,1.31836,0,2.60303-.15137,3.81787-.44824.53662-.13184.86475-.67285.7334-1.20996-.13135-.53613-.6792-.86426-1.20898-.7334Z"/><path class="uuid-0aa39c2b-c096-4c17-8d55-1f98d3009031" d="M30.70703,29.29297l-5.91138-5.91138c3.61444-2.38849,5.47882-5.68719,5.99487-6.71753.21094-.42188.21094-.90625-.00049-1.3291-.78174-1.55859-5.16846-9.33496-14.79004-9.33496-2.49213,0-4.84027.53802-6.9964,1.58954L2.70703,1.29297c-.39062-.39062-1.02344-.39062-1.41406,0s-.39062,1.02344,0,1.41406l21.18201,21.18201c.00195.00195.00397.00391.00586.00586l6.81213,6.81213c.19531.19531.45117.29297.70703.29297s.51172-.09766.70703-.29297c.39062-.39062.39062-1.02344,0-1.41406ZM19.4364,18.02234l-5.45886-5.45886c.61102-.35822,1.29999-.56348,2.02246-.56348,2.20557,0,4,1.79395,4,4,0,.72223-.20532,1.41113-.5636,2.02234ZM20.88873,19.47467c.71851-1.0127,1.11127-2.21442,1.11127-3.47467,0-3.30859-2.69141-6-6-6-1.26056,0-2.46222.3927-3.47473,1.11121l-2.00226-2.00226c1.70514-.72491,3.53717-1.10895,5.47699-1.10895,8.04639,0,11.93604,6.22168,12.88232,7.99902-.53821,1.00403-2.32513,3.92169-5.54523,5.92401l-2.44836-2.44836Z"/></g></svg>