<?xml version="1.0" encoding="UTF-8"?><svg xmlns="http://www.w3.org/2000/svg" width="32" height="32" viewBox="0 0 32 32"><defs><style>.uuid-ecf3545a-f01a-428b-aa74-df90e5a7390b{fill:none;}.uuid-422484bd-87cb-4add-941b-67061c11a99b{fill:#151515;}</style></defs><g id="uuid-1e348d45-abea-40f6-965a-014871ad44e7"><rect class="uuid-ecf3545a-f01a-428b-aa74-df90e5a7390b" width="32" height="32"/></g><g id="uuid-c5fabc39-a86a-42fd-b39f-84da4a464cdd"><path class="uuid-422484bd-87cb-4add-941b-67061c11a99b" d="M16,10c-3.30859,0-6,2.69141-6,6s2.69141,6,6,6,6-2.69141,6-6-2.69141-6-6-6ZM16,20c-2.20557,0-4-1.79395-4-4s1.79443-4,4-4,4,1.79395,4,4-1.79443,4-4,4Z"/><path class="uuid-422484bd-87cb-4add-941b-67061c11a99b" d="M30.79004,15.33496c-.78125-1.55859-5.16504-9.33496-14.79004-9.33496S1.99121,13.77637,1.20947,15.33594c-.21094.42188-.21094.90625,0,1.32812,0,0,.00049,0,.00049.00098.78125,1.55859,5.16504,9.33496,14.79004,9.33496s14.00879-7.77637,14.79053-9.33594c.21094-.42188.21094-.90625-.00049-1.3291ZM16,24c-8.04883,0-11.93652-6.22168-12.88232-8,.9458-1.77832,4.8335-8,12.88232-8,8.0498,0,11.9375,6.22363,12.88232,8-.9458,1.77832-4.8335,8-12.88232,8Z"/></g></svg>