<?xml version="1.0" encoding="UTF-8"?><svg xmlns="http://www.w3.org/2000/svg" width="32" height="32" viewBox="0 0 32 32"><defs><style>.uuid-1f5daa14-9126-4d2e-b4f9-adb9124a5294{fill:none;}.uuid-dbcb592b-a3c4-4fe6-9780-5b54ca7a6d89{fill:#151515;}</style></defs><g id="uuid-0549209d-51fb-497f-beb0-19ee8bf10856"><rect class="uuid-1f5daa14-9126-4d2e-b4f9-adb9124a5294" width="32" height="32"/></g><g id="uuid-1a6929fa-f8e7-4e38-b76b-3285030c5941"><path class="uuid-dbcb592b-a3c4-4fe6-9780-5b54ca7a6d89" d="M16.9632,20.90265c-.31213.06128-.63336.09735-.9632.09735-2.75684,0-5-2.24316-5-5,0-.32983.03613-.651.09735-.96313l-4.66718-4.66675c-.28076-.28223-.73291-.29199-1.02979-.0293-2.36328,2.11035-3.6333,4.44141-3.9668,5.10645-.17578.35156-.17578.75391,0,1.10547.77002,1.53613,5.09131,9.19727,14.56641,9.19727,1.29834,0,2.56299-.14844,3.75879-.44141.2627-.06445.4707-.26562.54346-.52637.07324-.26074-.00049-.54102-.19189-.73242l-3.14716-3.14716Z"/><path class="uuid-dbcb592b-a3c4-4fe6-9780-5b54ca7a6d89" d="M30.70703,29.29297l-6.09186-6.09186c3.591-2.35577,5.4411-5.62988,5.95123-6.64838,0,0,.00049,0,.00049-.00098.17529-.35059.17529-.75293-.00049-1.10449-.76953-1.53613-5.08838-9.19727-14.56641-9.19727-2.42365,0-4.70959.51508-6.81024,1.5257L2.70703,1.29297c-.39062-.39062-1.02344-.39062-1.41406,0s-.39062,1.02344,0,1.41406l28,28c.19531.19531.45117.29297.70703.29297s.51172-.09766.70703-.29297c.39062-.39062.39062-1.02344,0-1.41406ZM16,11c2.75684,0,5,2.24316,5,5,0,1.01794-.31104,1.96014-.83862,2.74731l-6.90875-6.90875c.78717-.52765,1.72943-.83856,2.74738-.83856Z"/></g></svg>