<?xml version="1.0" encoding="UTF-8"?><svg xmlns="http://www.w3.org/2000/svg" viewBox="0 0 32 32"><defs><style>.uuid-13295fed-6d4c-4c65-ac49-7851220ff022{fill:none;}.uuid-13295fed-6d4c-4c65-ac49-7851220ff022,.uuid-8be6baad-470e-4564-ac16-c2e92b719b80{stroke-width:0px;}.uuid-8be6baad-470e-4564-ac16-c2e92b719b80{fill:#151515;}</style></defs><g id="uuid-a623f447-c0fe-45c5-9b6d-92916349d3a8"><rect class="uuid-13295fed-6d4c-4c65-ac49-7851220ff022" x="0" width="32" height="32"/></g><g id="uuid-00da323d-dee8-4df8-9033-c9a25a227827"><path class="uuid-8be6baad-470e-4564-ac16-c2e92b719b80" d="M29.5,13H2.5c-.8271,0-1.5.6729-1.5,1.5v9c0,.8271.6729,1.5,1.5,1.5h27c.8271,0,1.5-.6729,1.5-1.5v-9c0-.8271-.6729-1.5-1.5-1.5ZM29,23H3v-8h26v8Z"/><path class="uuid-8be6baad-470e-4564-ac16-c2e92b719b80" d="M7,20h6c.5527,0,1-.4473,1-1s-.4473-1-1-1h-6c-.5527,0-1,.4473-1,1s.4473,1,1,1Z"/><circle class="uuid-8be6baad-470e-4564-ac16-c2e92b719b80" cx="24" cy="19.0003" r="1.5"/><circle class="uuid-8be6baad-470e-4564-ac16-c2e92b719b80" cx="29" cy="9.0002" r="1.5"/><circle class="uuid-8be6baad-470e-4564-ac16-c2e92b719b80" cx="22.5" cy="9" r="1.5"/><circle class="uuid-8be6baad-470e-4564-ac16-c2e92b719b80" cx="16" cy="9" r="1.5"/><circle class="uuid-8be6baad-470e-4564-ac16-c2e92b719b80" cx="9.5" cy="9" r="1.5"/><circle class="uuid-8be6baad-470e-4564-ac16-c2e92b719b80" cx="3" cy="9.0099" r="1.5"/></g></svg>