<?xml version="1.0" encoding="UTF-8"?><svg xmlns="http://www.w3.org/2000/svg" width="32" height="32" viewBox="0 0 32 32"><defs><style>.uuid-e22cecae-5e49-4555-9ef3-6fae5f66fcc1{fill:none;}.uuid-b0fea44f-9bfc-4fd1-b59a-8a219cceffd7{fill:#151515;}</style></defs><g id="uuid-f4958534-29c8-4515-9fd9-ce206fa69570"><rect class="uuid-e22cecae-5e49-4555-9ef3-6fae5f66fcc1" width="32" height="32"/></g><g id="uuid-bbcf57fa-6336-41a6-b578-7ac662a8425e"><circle class="uuid-b0fea44f-9bfc-4fd1-b59a-8a219cceffd7" cx="4.00488" cy="4.00098" r="1.625"/><circle class="uuid-b0fea44f-9bfc-4fd1-b59a-8a219cceffd7" cx="10" cy="4.00098" r="1.625"/><circle class="uuid-b0fea44f-9bfc-4fd1-b59a-8a219cceffd7" cx="15.99512" cy="4.00098" r="1.625"/><circle class="uuid-b0fea44f-9bfc-4fd1-b59a-8a219cceffd7" cx="22" cy="4.00391" r="1.625"/><circle class="uuid-b0fea44f-9bfc-4fd1-b59a-8a219cceffd7" cx="28" cy="4.00391" r="1.625"/><circle class="uuid-b0fea44f-9bfc-4fd1-b59a-8a219cceffd7" cx="4.00488" cy="28.00195" r="1.625"/><circle class="uuid-b0fea44f-9bfc-4fd1-b59a-8a219cceffd7" cx="10" cy="28.00195" r="1.625"/><circle class="uuid-b0fea44f-9bfc-4fd1-b59a-8a219cceffd7" cx="15.99512" cy="28.00195" r="1.625"/><circle class="uuid-b0fea44f-9bfc-4fd1-b59a-8a219cceffd7" cx="22" cy="28.00488" r="1.625"/><circle class="uuid-b0fea44f-9bfc-4fd1-b59a-8a219cceffd7" cx="28" cy="28.00488" r="1.625"/><path class="uuid-b0fea44f-9bfc-4fd1-b59a-8a219cceffd7" d="M29.5,9H2.5c-.82715,0-1.5.67285-1.5,1.5v11c0,.82715.67285,1.5,1.5,1.5h27c.82715,0,1.5-.67285,1.5-1.5v-11c0-.82715-.67285-1.5-1.5-1.5ZM13,17.125h-5c-.62109,0-1.125-.50391-1.125-1.125s.50391-1.125,1.125-1.125h5c.62109,0,1.125.50391,1.125,1.125s-.50391,1.125-1.125,1.125ZM23.00488,17.89117c-1.03552,0-1.875-.83948-1.875-1.875s.83948-1.875,1.875-1.875,1.875.83948,1.875,1.875-.83948,1.875-1.875,1.875Z"/></g></svg>