<?xml version="1.0" encoding="UTF-8"?><svg xmlns="http://www.w3.org/2000/svg" width="32" height="32" viewBox="0 0 32 32"><defs><style>.uuid-e73361e6-3088-4085-84d4-c731e1c05a73{fill:none;}.uuid-236f70f3-3705-44ca-9843-c0309bd1ae39{fill:#151515;}</style></defs><g id="uuid-50c2e7db-bd91-4fef-ac2f-076eb37eeda1"><rect class="uuid-e73361e6-3088-4085-84d4-c731e1c05a73" width="32" height="32"/></g><g id="uuid-344dfb67-2576-40a1-af71-d7f4cc959a71"><path class="uuid-236f70f3-3705-44ca-9843-c0309bd1ae39" d="M28.5,2h-15c-.82715,0-1.5.67285-1.5,1.5v8.5H3.5c-.82715,0-1.5.67285-1.5,1.5v15c0,.82715.67285,1.5,1.5,1.5h15c.82715,0,1.5-.67285,1.5-1.5v-8.5h8.5c.82715,0,1.5-.67285,1.5-1.5V3.5c0-.82715-.67285-1.5-1.5-1.5ZM18,28H4v-14h8v4.5c0,.82715.67285,1.5,1.5,1.5h4.5v8ZM18,18h-4v-4h4v4ZM28,18h-8v-4.5c0-.82715-.67285-1.5-1.5-1.5h-4.5V4h14v14Z"/></g></svg>