<svg xmlns="http://www.w3.org/2000/svg" viewBox="0 0 16 16">
  <path d="M9.3 2c-.2-.1-.5-.1-.7 0L4.8 4.9H2c-.3 0-.6.3-.6.6v5c0 .3.3.6.6.6h2.8L8.6 14c.2 0 .3.1.4.1.1 0 .2 0 .3-.1.2-.1.3-.3.3-.5v-11c0-.2-.2-.4-.3-.5zm2.4 3.6c-.2-.2-.6-.3-.8 0-.2.2-.3.6 0 .8.4.4.6 1 .6 1.6 0 .6-.2 1.2-.6 1.6-.2.2-.2.6 0 .8.1.1.2.1.4.1s.3-.1.4-.2c.6-.7.9-1.5.9-2.4 0-.8-.4-1.6-.9-2.3zm1.8-.9c-.2-.3-.6-.3-.8-.1-.3.2-.3.6-.1.8.5.7.8 1.6.8 2.6s-.3 1.9-.9 2.7c-.2.3-.1.6.1.8.1.1.2.1.3.1.2 0 .3-.1.5-.2.7-1 1.1-2.1 1.1-3.3.1-1.3-.3-2.5-1-3.4z"/>
</svg>
