<?xml version="1.0" encoding="UTF-8"?><svg xmlns="http://www.w3.org/2000/svg" viewBox="0 0 32 32"><defs><style>.uuid-5537755f-6055-4b00-a6b2-933f95703157{fill:none;}.uuid-5537755f-6055-4b00-a6b2-933f95703157,.uuid-fa025df3-9e09-44f4-812b-001e2b5a3bc5{stroke-width:0px;}.uuid-fa025df3-9e09-44f4-812b-001e2b5a3bc5{fill:#151515;}</style></defs><g id="uuid-c821ae88-8ad2-4ba3-86dd-7f0ae6ce0b4a"><rect class="uuid-5537755f-6055-4b00-a6b2-933f95703157" x="0" width="32" height="32"/></g><g id="uuid-dd16756a-388d-4469-8a63-7dd1da553edd"><path class="uuid-fa025df3-9e09-44f4-812b-001e2b5a3bc5" d="M17.4062,2.1011c-.3408-.1665-.7529-.1245-1.0537.1108l-8.6963,6.7881H2.5c-.8271,0-1.5.6729-1.5,1.5v11c0,.8271.6729,1.5,1.5,1.5h5.1562l8.6963,6.7881c.1787.1396.3965.2119.6152.2119.1494,0,.2998-.0332.4385-.1016.3438-.167.5615-.5166.5615-.8984V3c0-.3823-.2178-.731-.5615-.8989ZM15.9678,26.9512l-7.3525-5.7393c-.1758-.1377-.3926-.2119-.6152-.2119H3v-10h5c.2227,0,.4395-.0747.6152-.2119l7.3525-5.7388v21.9019Z"/><path class="uuid-fa025df3-9e09-44f4-812b-001e2b5a3bc5" d="M23.7773,9.7139c-.3467-.4282-.9775-.4961-1.4062-.1479-.4297.3477-.4961.9771-.1484,1.4067,1.1631,1.436,1.7773,3.1748,1.7773,5.0273,0,1.8262-.6309,3.6113-1.7764,5.0273-.3477.4297-.2812,1.0586.1484,1.4062.1846.1494.4072.2227.6279.2227.292,0,.5811-.127.7783-.3711,1.4326-1.7705,2.2217-4.0029,2.2217-6.2852s-.7891-4.5151-2.2227-6.2861Z"/></g></svg>