<?xml version="1.0" encoding="UTF-8"?><svg xmlns="http://www.w3.org/2000/svg" viewBox="0 0 32 32"><defs><style>.uuid-4428fb93-7d6e-4c8a-8ded-2f6e9793c62c{fill:none;}.uuid-4428fb93-7d6e-4c8a-8ded-2f6e9793c62c,.uuid-f21ba8ad-c62f-4fda-9658-e5f536225fe3{stroke-width:0px;}.uuid-f21ba8ad-c62f-4fda-9658-e5f536225fe3{fill:#151515;}</style></defs><g id="uuid-6ccb303c-2ba5-43e6-a1e3-4a0e8c67b4de"><rect class="uuid-4428fb93-7d6e-4c8a-8ded-2f6e9793c62c" x="0" width="32" height="32"/></g><g id="uuid-68bbeba4-3068-4bfd-9da3-902798e07674"><path class="uuid-f21ba8ad-c62f-4fda-9658-e5f536225fe3" d="M27.7334,5.1221c-.377-.4062-1.0088-.4307-1.4131-.0537-.4053.376-.4287,1.0088-.0537,1.4131,2.4072,2.5957,3.7334,5.9766,3.7334,9.5186s-1.3262,6.9229-3.7334,9.5186c-.375.4043-.3516,1.0371.0537,1.4131.1924.1787.4365.2666.6797.2666.2686,0,.5361-.1074.7334-.3203,2.751-2.9668,4.2666-6.8301,4.2666-10.8779s-1.5156-7.9111-4.2666-10.8779Z"/><path class="uuid-f21ba8ad-c62f-4fda-9658-e5f536225fe3" d="M22.3711,9.5654c-.4297.3477-.4961.9775-.1484,1.4062,1.1465,1.417,1.7773,3.2021,1.7773,5.0283s-.6309,3.6113-1.7764,5.0273c-.3477.4297-.2812,1.0586.1484,1.4062.1846.1494.4072.2227.6279.2227.292,0,.5811-.127.7783-.3711,1.4326-1.7705,2.2217-4.0029,2.2217-6.2852s-.7891-4.5146-2.2227-6.2861c-.3467-.4287-.9775-.4961-1.4062-.1484Z"/><path class="uuid-f21ba8ad-c62f-4fda-9658-e5f536225fe3" d="M17.4062,2.1016c-.3408-.168-.7529-.125-1.0537.1104l-8.6963,6.7881H2.5c-.8271,0-1.5.6729-1.5,1.5v11c0,.8271.6729,1.5,1.5,1.5h5.1562l8.6963,6.7881c.1787.1396.3965.2119.6152.2119.1494,0,.2998-.0332.4385-.1016.3438-.167.5615-.5166.5615-.8984V3c0-.3818-.2178-.7314-.5615-.8984Z"/></g></svg>