<?xml version="1.0" encoding="UTF-8"?><svg xmlns="http://www.w3.org/2000/svg" viewBox="0 0 32 32"><defs><style>.uuid-7cdd0b3c-1d84-4ce6-a3ec-cc0a026385c4{fill:none;}.uuid-7cdd0b3c-1d84-4ce6-a3ec-cc0a026385c4,.uuid-41430257-e72f-42f4-a4c7-57bea727adc0{stroke-width:0px;}.uuid-41430257-e72f-42f4-a4c7-57bea727adc0{fill:#151515;}</style></defs><g id="uuid-a9d47f68-9ee4-4266-a8f7-9aac224e430c"><rect class="uuid-7cdd0b3c-1d84-4ce6-a3ec-cc0a026385c4" x="0" width="32" height="32"/></g><g id="uuid-b5814197-de5f-41d3-9cff-3c2b5925668e"><path class="uuid-41430257-e72f-42f4-a4c7-57bea727adc0" d="M17.4062,2.1016c-.3428-.168-.752-.124-1.0537.1104l-8.6968,6.7881H2.5c-.8271,0-1.5.6729-1.5,1.5v11c0,.8271.6729,1.5,1.5,1.5h5.1558l8.6968,6.7881c.1792.1396.3965.2119.6152.2119.1494,0,.2993-.0332.4385-.1016.3438-.167.5615-.5166.5615-.8984V3c0-.3818-.2178-.7314-.5615-.8984ZM15.9678,26.9512l-7.3525-5.7393c-.1758-.1377-.3921-.2119-.6152-.2119H3v-10h5c.2231,0,.4395-.0742.6152-.2119l7.3525-5.7393v21.9023Z"/><path class="uuid-41430257-e72f-42f4-a4c7-57bea727adc0" d="M27.7334,5.1221c-.376-.4053-1.0083-.4297-1.4136-.0537-.4048.376-.4287,1.0088-.0532,1.4131,2.4077,2.5957,3.7334,5.9766,3.7334,9.5186s-1.3257,6.9229-3.7334,9.5186c-.3755.4043-.3516,1.0371.0532,1.4131.1929.1787.4365.2666.6802.2666.2686,0,.5361-.1074.7334-.3203,2.7515-2.9668,4.2666-6.8301,4.2666-10.8779s-1.5151-7.9111-4.2666-10.8779Z"/><path class="uuid-41430257-e72f-42f4-a4c7-57bea727adc0" d="M22.3716,9.5654c-.4292.3477-.4961.9766-.1484,1.4062,1.146,1.417,1.7769,3.2021,1.7769,5.0283s-.6309,3.6113-1.7769,5.0273c-.3477.4287-.2812,1.0586.1484,1.4062.1851.1494.4072.2227.6284.2227.291,0,.5801-.127.7778-.3711,1.4331-1.7705,2.2222-4.002,2.2222-6.2852s-.7891-4.5146-2.2222-6.2861c-.3477-.4297-.9775-.4961-1.4062-.1484Z"/></g></svg>