<svg xmlns="http://www.w3.org/2000/svg" viewBox="0 0 16 16">
  <path d="m13.3 8 1.1-1.1c.2-.2.2-.6 0-.8s-.6-.2-.8 0l-1.1 1.1-1.1-1.1c-.2-.2-.6-.2-.8 0s-.2.6 0 .8L11.7 8l-1.1 1.1c-.2.2-.2.6 0 .8.1.1.3.2.4.2s.3-.1.4-.2l1.1-1.1 1.1 1.1c.1.1.3.2.4.2s.3-.1.4-.2c.2-.2.2-.6 0-.8L13.3 8zm-4-6c-.2-.1-.5-.1-.6 0L4.8 4.9H2c-.3 0-.6.3-.6.6v5c0 .3.3.6.6.6h2.8L8.7 14c.1 0 .2.1.3.1.1 0 .2 0 .3-.1.2-.1.3-.3.3-.5v-11c0-.2-.1-.4-.3-.5zm-.9 10.3L5.3 10c-.1 0-.2-.1-.3-.1H2.6V6.1H5c.1 0 .2 0 .3-.1l3.1-2.3v8.6z"/>
</svg>
