<svg xmlns="http://www.w3.org/2000/svg" viewBox="0 0 32 32">
  <defs>
    <style>
      .uuid-f21ba8ad-c62f-4fda-9658-e5f536225fe3{stroke-width:0;fill:#151515}
    </style>
  </defs>
  <path d="M0 0h32v32H0z" id="uuid-6ccb303c-2ba5-43e6-a1e3-4a0e8c67b4de" stroke-width="0" fill="none"/>
  <g id="uuid-68bbeba4-3068-4bfd-9da3-902798e07674">
    <path class="uuid-f21ba8ad-c62f-4fda-9658-e5f536225fe3" d="M27.733 5.122a1 1 0 0 0-1.467 1.36C28.675 9.076 30 12.457 30 16s-1.326 6.923-3.733 9.519a1 1 0 0 0 1.466 1.36C30.484 23.91 32 20.047 32 16s-1.516-7.91-4.267-10.878Z"/>
    <path class="uuid-f21ba8ad-c62f-4fda-9658-e5f536225fe3" d="M22.371 9.565a1 1 0 0 0-.148 1.407C23.369 12.389 24 14.174 24 16s-.63 3.611-1.776 5.027a1 1 0 1 0 1.554 1.258C25.211 20.515 26 18.282 26 16s-.79-4.515-2.223-6.286a1 1 0 0 0-1.406-.149Zm-4.965-7.463a.999.999 0 0 0-1.054.11L7.656 9H2.5C1.673 9 1 9.673 1 10.5v11c0 .827.673 1.5 1.5 1.5h5.156l8.697 6.788A1 1 0 0 0 17.967 29V3a1 1 0 0 0-.562-.898Z"/>
  </g>
</svg>
