<?xml version="1.0" encoding="UTF-8"?><svg xmlns="http://www.w3.org/2000/svg" viewBox="0 0 32 32"><defs><style>.uuid-4cd41ad4-e2a5-4579-b9b5-e20729a2bef5{fill:none;}.uuid-4cd41ad4-e2a5-4579-b9b5-e20729a2bef5,.uuid-09e5ed6a-781c-490a-9090-ded78fcd9539{stroke-width:0px;}.uuid-09e5ed6a-781c-490a-9090-ded78fcd9539{fill:#151515;}</style></defs><g id="uuid-f2f83b85-1fb1-49d6-b180-6d44bd2e1a7d"><rect class="uuid-4cd41ad4-e2a5-4579-b9b5-e20729a2bef5" width="32" height="32"/></g><g id="uuid-fb9a7a5e-28f8-4ead-9b6f-92fc15310aeb"><path class="uuid-09e5ed6a-781c-490a-9090-ded78fcd9539" d="M23.7773,9.7139c-.3467-.4287-.9775-.4961-1.4062-.1484-.4297.3477-.4961.9775-.1484,1.4062,1.1465,1.417,1.7773,3.2021,1.7773,5.0283s-.6309,3.6113-1.7764,5.0273c-.3477.4297-.2812,1.0586.1484,1.4062.1846.1494.4072.2227.6279.2227.292,0,.5811-.127.7783-.3711,1.4326-1.7705,2.2217-4.0029,2.2217-6.2852s-.7891-4.5146-2.2227-6.2861Z"/><path class="uuid-09e5ed6a-781c-490a-9090-ded78fcd9539" d="M17.4062,2.1016c-.3418-.168-.7529-.125-1.0537.1104l-8.6963,6.7881H2.5c-.8271,0-1.5.6729-1.5,1.5v11c0,.8271.6729,1.5,1.5,1.5h5.1562l8.6963,6.7881c.1787.1396.3965.2119.6152.2119.1494,0,.2998-.0332.4385-.1016.3438-.167.5615-.5166.5615-.8984V3c0-.3818-.2178-.7314-.5615-.8984Z"/></g></svg>