<?xml version="1.0" encoding="utf-8"?>
<!-- Generator: Adobe Illustrator 24.1.2, SVG Export Plug-In . SVG Version: 6.00 Build 0)  -->
<svg version="1.1" id="Icons" xmlns="http://www.w3.org/2000/svg" xmlns:xlink="http://www.w3.org/1999/xlink" x="0px" y="0px"
	 viewBox="0 0 16 16" style="enable-background:new 0 0 16 16;" xml:space="preserve">
<style type="text/css">
	.st0{fill:#FFFFFF;}
	.st1{fill:#EE0000;}
</style>
<path d="M9.3,2C9.1,1.9,8.8,1.9,8.7,2L4.8,4.9H2c-0.3,0-0.6,0.3-0.6,0.6v5c0,0.3,0.3,0.6,0.6,0.6h2.8L8.7,14C8.8,14,8.9,14.1,9,14.1
	c0.1,0,0.2,0,0.3-0.1c0.2-0.1,0.3-0.3,0.3-0.5v-11C9.6,2.3,9.5,2.1,9.3,2z M13.3,8l1.1-1.1c0.2-0.2,0.2-0.6,0-0.8s-0.6-0.2-0.8,0
	l-1.1,1.1l-1.1-1.1c-0.2-0.2-0.6-0.2-0.8,0s-0.2,0.6,0,0.8L11.7,8l-1.1,1.1c-0.2,0.2-0.2,0.6,0,0.8c0.1,0.1,0.3,0.2,0.4,0.2
	s0.3-0.1,0.4-0.2l1.1-1.1l1.1,1.1c0.1,0.1,0.3,0.2,0.4,0.2s0.3-0.1,0.4-0.2c0.2-0.2,0.2-0.6,0-0.8L13.3,8z"/>
</svg>
