<?xml version="1.0" encoding="utf-8"?>
<!-- Generator: Adobe Illustrator 24.1.2, SVG Export Plug-In . SVG Version: 6.00 Build 0)  -->
<svg version="1.1" id="Icons" xmlns="http://www.w3.org/2000/svg" xmlns:xlink="http://www.w3.org/1999/xlink" x="0px" y="0px"
	 viewBox="0 0 16 16" style="enable-background:new 0 0 16 16;" xml:space="preserve">
<style type="text/css">
	.st0{fill:#FFFFFF;}
	.st1{fill:#EE0000;}
</style>
<path d="M9.3,2C9.1,1.9,8.8,1.9,8.6,2L4.8,4.9H2c-0.3,0-0.6,0.3-0.6,0.6v5c0,0.3,0.3,0.6,0.6,0.6h2.8L8.6,14C8.8,14,8.9,14.1,9,14.1
	c0.1,0,0.2,0,0.3-0.1c0.2-0.1,0.3-0.3,0.3-0.5v-11C9.6,2.3,9.4,2.1,9.3,2z M11.7,5.6c-0.2-0.2-0.6-0.3-0.8,0c-0.2,0.2-0.3,0.6,0,0.8
	c0.4,0.4,0.6,1,0.6,1.6c0,0.6-0.2,1.2-0.6,1.6c-0.2,0.2-0.2,0.6,0,0.8c0.1,0.1,0.2,0.1,0.4,0.1c0.2,0,0.3-0.1,0.4-0.2
	c0.6-0.7,0.9-1.5,0.9-2.4C12.6,7.1,12.2,6.3,11.7,5.6z M13.5,4.7c-0.2-0.3-0.6-0.3-0.8-0.1c-0.3,0.2-0.3,0.6-0.1,0.8
	C13.1,6.1,13.4,7,13.4,8c0,1-0.3,1.9-0.9,2.7c-0.2,0.3-0.1,0.6,0.1,0.8c0.1,0.1,0.2,0.1,0.3,0.1c0.2,0,0.3-0.1,0.5-0.2
	c0.7-1,1.1-2.1,1.1-3.3C14.6,6.8,14.2,5.6,13.5,4.7z"/>
</svg>
