<?xml version="1.0" encoding="UTF-8"?><svg xmlns="http://www.w3.org/2000/svg" width="32" height="32" viewBox="0 0 32 32"><defs><style>.uuid-222e4134-8f8b-498f-8aae-2b6cd6a02e90{fill:none;}.uuid-9261ba5d-c268-421d-ad4b-639ad3472925{fill:#151515;}</style></defs><g id="uuid-36bace72-ae02-4745-ad53-9ed1a53831db"><rect class="uuid-222e4134-8f8b-498f-8aae-2b6cd6a02e90" width="32" height="32"/></g><g id="uuid-3146e7d3-e628-4d8a-8c63-a54341ddbbcb"><path class="uuid-9261ba5d-c268-421d-ad4b-639ad3472925" d="M17.43945,2.10156c-.34375-.16797-.75098-.12598-1.05371.10938l-8.72852,6.78906H2.5c-.82715,0-1.5.67285-1.5,1.5v11c0,.82715.67285,1.5,1.5,1.5h5.15723l8.72852,6.78906c.17969.13965.39648.21094.61426.21094.14941,0,.2998-.0332.43945-.10156.34277-.16797.56055-.5166.56055-.89844V3c0-.38184-.21777-.73047-.56055-.89844ZM16,26.95508l-7.38574-5.74414c-.17578-.13672-.3916-.21094-.61426-.21094H3v-10h5c.22266,0,.43848-.07422.61426-.21094l7.38574-5.74414v21.91016Z"/><path class="uuid-9261ba5d-c268-421d-ad4b-639ad3472925" d="M22.75098,10.0498c-.36621-.41504-.99902-.45508-1.41113-.09082-.41504.36523-.45508.99707-.09082,1.41113,1.12891,1.28418,1.75098,2.92773,1.75098,4.62988s-.62207,3.3457-1.75098,4.62988c-.36426.41406-.32422,1.0459.09082,1.41113.18945.16699.4248.24902.66016.24902.27734,0,.55371-.11523.75098-.33984,1.4502-1.64844,2.24902-3.76172,2.24902-5.9502s-.79883-4.30176-2.24902-5.9502Z"/></g></svg>