<?xml version="1.0" encoding="UTF-8"?><svg xmlns="http://www.w3.org/2000/svg" width="32" height="32" viewBox="0 0 32 32"><defs><style>.uuid-f1ce16a2-0170-42b3-831a-77bc0d9635c2{fill:none;}.uuid-14533389-11a9-4dec-98f3-6ed9b9b23826{fill:#151515;}</style></defs><g id="uuid-c8d96f40-d1f9-42dd-a46b-0be9981958d8"><rect class="uuid-f1ce16a2-0170-42b3-831a-77bc0d9635c2" width="32" height="32"/></g><g id="uuid-a4ba4cc7-6477-4994-8dbf-ab4be19f5351"><path class="uuid-14533389-11a9-4dec-98f3-6ed9b9b23826" d="M17.43945,2.10156c-.34375-.16797-.75098-.12598-1.05371.10938l-8.72852,6.78906H2.5c-.82715,0-1.5.67285-1.5,1.5v11c0,.82715.67285,1.5,1.5,1.5h5.15723l8.72852,6.78906c.17969.13965.39648.21094.61426.21094.14941,0,.2998-.0332.43945-.10156.34277-.16797.56055-.5166.56055-.89844V3c0-.38184-.21777-.73047-.56055-.89844ZM16,26.95508l-7.38574-5.74414c-.17578-.13672-.3916-.21094-.61426-.21094H3v-10h5c.22266,0,.43848-.07422.61426-.21094l7.38574-5.74414v21.91016Z"/><path class="uuid-14533389-11a9-4dec-98f3-6ed9b9b23826" d="M26.71582,5.51172c-.38574-.39551-1.01855-.40137-1.41406-.01758-.39551.38574-.40332,1.01953-.01758,1.41406,2.39648,2.45508,3.71582,5.68359,3.71582,9.0918s-1.31934,6.63672-3.71582,9.0918c-.38574.39453-.37793,1.02832.01758,1.41406.19434.18945.44629.28418.69824.28418.25977,0,.51953-.10059.71582-.30176,2.7627-2.83008,4.28418-6.55566,4.28418-10.48828s-1.52148-7.6582-4.28418-10.48828Z"/><path class="uuid-14533389-11a9-4dec-98f3-6ed9b9b23826" d="M22.75098,10.0498c-.36621-.41504-.99805-.45508-1.41113-.09082-.41504.36523-.45508.99707-.09082,1.41113,1.12891,1.28418,1.75098,2.92773,1.75098,4.62988s-.62207,3.3457-1.75098,4.62988c-.36426.41406-.32422,1.0459.09082,1.41113.18945.16699.4248.24902.66016.24902.27734,0,.55371-.11523.75098-.33984,1.4502-1.64844,2.24902-3.76172,2.24902-5.9502s-.79883-4.30176-2.24902-5.9502Z"/></g></svg>