<?xml version="1.0" encoding="utf-8"?>
<!-- Generator: Adobe Illustrator 24.1.2, SVG Export Plug-In . SVG Version: 6.00 Build 0)  -->
<svg version="1.1" id="Icons" xmlns="http://www.w3.org/2000/svg" xmlns:xlink="http://www.w3.org/1999/xlink" x="0px" y="0px"
	 viewBox="0 0 16 16" style="enable-background:new 0 0 16 16;" xml:space="preserve">
<style type="text/css">
	.st0{fill:#FFFFFF;}
	.st1{fill:#EE0000;}
</style>
<path d="M11.7,5.6c-0.2-0.2-0.6-0.3-0.8,0c-0.2,0.2-0.3,0.6,0,0.8c0.4,0.4,0.6,1,0.6,1.6s-0.2,1.2-0.6,1.6c-0.2,0.2-0.2,0.6,0,0.8
	c0.1,0.1,0.2,0.1,0.4,0.1c0.2,0,0.3-0.1,0.4-0.2c0.6-0.7,0.9-1.5,0.9-2.4S12.2,6.3,11.7,5.6z M9.3,2C9.1,1.9,8.8,1.9,8.7,2L4.8,4.9
	H2c-0.3,0-0.6,0.3-0.6,0.6v5c0,0.3,0.3,0.6,0.6,0.6h2.8L8.7,14C8.8,14,8.9,14.1,9,14.1c0.1,0,0.2,0,0.3-0.1c0.2-0.1,0.3-0.3,0.3-0.5
	v-11C9.6,2.3,9.4,2.1,9.3,2z M8.4,12.3L5.3,10C5.2,10,5.1,9.9,5,9.9H2.6V6.1H5c0.1,0,0.2,0,0.3-0.1l3.1-2.3V12.3z"/>
</svg>
