<svg xmlns="http://www.w3.org/2000/svg" viewBox="0 0 32 32">
  <defs>
    <style>
      .uuid-04f5a6a5-647e-44de-a094-50f28829a63a{stroke-width:0;fill:#151515}
    </style>
  </defs>
  <path d="M0 0h32v32H0z" id="uuid-ae434707-6a3f-4ea0-bb6a-50dcbaaeaa8a" stroke-width="0" fill="none"/>
  <g id="uuid-627886d9-fbad-4da1-a559-c928428cc18b">
    <path class="uuid-04f5a6a5-647e-44de-a094-50f28829a63a" d="M31.433 27.75 17.288 3.25a1.503 1.503 0 0 0-1.298-.75h-.026a1.505 1.505 0 0 0-1.27.741l-.004.008v.001L.543 27.75a1.501 1.501 0 0 0 1.3 2.25h28.29a1.504 1.504 0 0 0 1.5-1.5c0-.259-.068-.519-.201-.75ZM2.71 28 15.99 5l13.28 23H2.708Z"/>
    <path class="uuid-04f5a6a5-647e-44de-a094-50f28829a63a" d="M15 13v6a1 1 0 0 0 2 0v-6a1 1 0 0 0-2 0Z"/>
    <circle class="uuid-04f5a6a5-647e-44de-a094-50f28829a63a" cx="16" cy="24" r="1.5"/>
  </g>
</svg>
