<?xml version="1.0" encoding="UTF-8"?><svg xmlns="http://www.w3.org/2000/svg" width="32" height="32" viewBox="0 0 32 32"><defs><style>.uuid-3a14b8b8-621b-4591-9dd6-6b2c396948e7{fill:none;}.uuid-62015134-0f81-4c2a-a194-6c169716ef1e{fill:#151515;}</style></defs><g id="uuid-5f5c102e-c32d-48ba-944e-76dfa7b28d63"><rect class="uuid-3a14b8b8-621b-4591-9dd6-6b2c396948e7" width="32" height="32"/></g><g id="uuid-9243e227-7cda-419e-bde9-3509648bb885"><path class="uuid-62015134-0f81-4c2a-a194-6c169716ef1e" d="M31.46094,27.77051L17.2998,2.30078c-.26465-.47656-.7666-.77148-1.31055-.77148-.54492,0-1.04688.29492-1.31152.77051L.5166,27.77051c-.26074.46875-.25488,1.02539.01758,1.48926s.75586.74023,1.29395.74023h28.32227c.53711,0,1.02051-.27637,1.29297-.74023.27246-.46289.27832-1.02051.01758-1.48926ZM2.67773,28L15.98828,4.05762l13.31152,23.94238H2.67773Z"/><path class="uuid-62015134-0f81-4c2a-a194-6c169716ef1e" d="M14.75,13v5c0,.69043.55957,1.25,1.25,1.25s1.25-.55957,1.25-1.25v-5c0-.69043-.55957-1.25-1.25-1.25s-1.25.55957-1.25,1.25Z"/><circle class="uuid-62015134-0f81-4c2a-a194-6c169716ef1e" cx="16" cy="24.01099" r="1.75"/></g></svg>