<?xml version="1.0" encoding="UTF-8"?><svg xmlns="http://www.w3.org/2000/svg" viewBox="0 0 32 32"><defs><style>.uuid-414100b7-ee65-4098-b863-09961417b9ce{fill:none;}.uuid-414100b7-ee65-4098-b863-09961417b9ce,.uuid-b27b7610-891f-45a2-8a5d-beb46c713277{stroke-width:0px;}.uuid-b27b7610-891f-45a2-8a5d-beb46c713277{fill:#151515;}</style></defs><g id="uuid-a711d01d-bc8a-42b2-ad8e-2ce0f2bdd30b"><rect class="uuid-414100b7-ee65-4098-b863-09961417b9ce" x="0" width="32" height="32"/></g><g id="uuid-48420821-5c7a-47f8-9d2c-c22ff65985d9"><path class="uuid-b27b7610-891f-45a2-8a5d-beb46c713277" d="M31.4331,27.75L17.2876,3.25c-.2666-.4619-.7642-.749-1.2979-.75h-.001c-.5332,0-1.0308.2871-1.2983.749-.0005,0-.0005.001-.001.001L.5449,27.75c-.1338.2314-.2007.4902-.2007.75,0,.2588.0669.5186.2002.75.2671.4629.7651.75,1.2993.75h28.29c.5342,0,1.0322-.2871,1.2993-.75.1333-.2314.2002-.4912.2002-.75,0-.2598-.0669-.5186-.2002-.75ZM14.75,11c0-.6904.5596-1.25,1.25-1.25s1.25.5596,1.25,1.25v7c0,.6904-.5596,1.25-1.25,1.25s-1.25-.5596-1.25-1.25v-7ZM16,26.5001c-.8284,0-1.5-.6716-1.5-1.5s.6716-1.5,1.5-1.5,1.5.6716,1.5,1.5-.6716,1.5-1.5,1.5Z"/></g></svg>