<?xml version="1.0" encoding="UTF-8"?><svg xmlns="http://www.w3.org/2000/svg" width="32" height="32" viewBox="0 0 32 32"><defs><style>.uuid-a6459f0e-437b-4652-af49-86da949f039a{fill:none;}.uuid-f3065a3b-a5de-41c0-bbb1-2d6f16bfb9b8{fill:#151515;}</style></defs><g id="uuid-f9b5924d-6628-46a0-b120-b27b6549abdf"><rect class="uuid-a6459f0e-437b-4652-af49-86da949f039a" width="32" height="32"/></g><g id="uuid-a1e5ac72-67fe-4f96-be2d-18250eb92081"><path class="uuid-f3065a3b-a5de-41c0-bbb1-2d6f16bfb9b8" d="M31.87402,28.51367L16.86328,1.51367c-.17676-.31641-.51074-.51367-.87402-.51367s-.69727.19727-.87402.51367L.10352,28.51367c-.17188.31055-.16797.6875.01172.99316s.50781.49316.8623.49316h30.02246c.35449,0,.68262-.1875.8623-.49316s.18359-.68262.01172-.99316ZM14.5,12c0-.82812.67188-1.5,1.5-1.5s1.5.67188,1.5,1.5v5c0,.82812-.67188,1.5-1.5,1.5s-1.5-.67188-1.5-1.5v-5ZM16,26.00134c-1.10455,0-2-.89545-2-2,0-1.10461.89545-2,2-2s2,.89539,2,2c0,1.10455-.89545,2-2,2Z"/></g></svg>