<?xml version="1.0" encoding="UTF-8"?><svg xmlns="http://www.w3.org/2000/svg" viewBox="0 0 32 32"><defs><style>.uuid-230a9701-e1f1-4819-8596-d3187aebb3b2{fill:none;}.uuid-230a9701-e1f1-4819-8596-d3187aebb3b2,.uuid-04f5a6a5-647e-44de-a094-50f28829a63a{stroke-width:0px;}.uuid-04f5a6a5-647e-44de-a094-50f28829a63a{fill:#151515;}</style></defs><g id="uuid-ae434707-6a3f-4ea0-bb6a-50dcbaaeaa8a"><rect class="uuid-230a9701-e1f1-4819-8596-d3187aebb3b2" x="0" width="32" height="32"/></g><g id="uuid-627886d9-fbad-4da1-a559-c928428cc18b"><path class="uuid-04f5a6a5-647e-44de-a094-50f28829a63a" d="M31.4331,27.75L17.2881,3.2505c-.2671-.4629-.7642-.7505-1.2983-.7505h-.001c-.0088.0005-.0166-.0005-.0249,0-.5215.0088-1.0049.291-1.269.7412-.002.0029-.0034.0059-.0049.0083,0,0,0,.0005-.0005.0005L.5444,27.7505c-.1333.231-.2002.4907-.2002.75s.0669.5186.2007.7495c.2671.4629.7646.75,1.2988.75h28.29c.5342,0,1.0317-.2871,1.2988-.7495.1338-.2314.2007-.4907.2007-.75s-.0669-.519-.2002-.7505ZM2.7095,28L15.9888,5l13.2793,23H2.7095Z"/><path class="uuid-04f5a6a5-647e-44de-a094-50f28829a63a" d="M15,13v6c0,.5522.4478,1,1,1s1-.4478,1-1v-6c0-.5522-.4478-1-1-1s-1,.4478-1,1Z"/><circle class="uuid-04f5a6a5-647e-44de-a094-50f28829a63a" cx="16" cy="24.0002" r="1.5"/></g></svg>