<?xml version="1.0" encoding="UTF-8"?><svg xmlns="http://www.w3.org/2000/svg" width="32" height="32" viewBox="0 0 32 32"><defs><style>.uuid-4af135b0-e7a8-4fcf-858a-b48a1192025f{fill:none;}.uuid-09a2fe4e-8345-425c-bde3-d3cab7298019{fill:#151515;}</style></defs><g id="uuid-33d35618-fa1c-4664-b472-4f42d0d2ead4"><rect class="uuid-4af135b0-e7a8-4fcf-858a-b48a1192025f" width="32" height="32"/></g><g id="uuid-750e830f-b7de-484b-81b2-3346a139d066"><path class="uuid-09a2fe4e-8345-425c-bde3-d3cab7298019" d="M12.5,4H2.5c-.82715,0-1.5.67285-1.5,1.5v7c0,.82715.67285,1.5,1.5,1.5h10c.82715,0,1.5-.67285,1.5-1.5v-7c0-.82715-.67285-1.5-1.5-1.5ZM12,12H3v-6h9v6Z"/><path class="uuid-09a2fe4e-8345-425c-bde3-d3cab7298019" d="M29.5,4h-10c-.82715,0-1.5.67285-1.5,1.5v7c0,.82715.67285,1.5,1.5,1.5h10c.82715,0,1.5-.67285,1.5-1.5v-7c0-.82715-.67285-1.5-1.5-1.5ZM29,12h-9v-6h9v6Z"/><path class="uuid-09a2fe4e-8345-425c-bde3-d3cab7298019" d="M12.5,18H2.5c-.82715,0-1.5.67285-1.5,1.5v7c0,.82715.67285,1.5,1.5,1.5h10c.82715,0,1.5-.67285,1.5-1.5v-7c0-.82715-.67285-1.5-1.5-1.5ZM12,26H3v-6h9v6Z"/><path class="uuid-09a2fe4e-8345-425c-bde3-d3cab7298019" d="M29.5,18h-10c-.82715,0-1.5.67285-1.5,1.5v7c0,.82715.67285,1.5,1.5,1.5h10c.82715,0,1.5-.67285,1.5-1.5v-7c0-.82715-.67285-1.5-1.5-1.5ZM29,26h-9v-6h9v6Z"/></g></svg>