<?xml version="1.0" encoding="UTF-8"?><svg xmlns="http://www.w3.org/2000/svg" viewBox="0 0 32 32"><defs><style>.uuid-553101e6-82cb-45ed-8187-0f6ab43aecc5{fill:none;}.uuid-553101e6-82cb-45ed-8187-0f6ab43aecc5,.uuid-48db8ba9-0709-46d9-ad25-792b1dd18a85{stroke-width:0px;}.uuid-48db8ba9-0709-46d9-ad25-792b1dd18a85{fill:#151515;}</style></defs><g id="uuid-51361240-950e-4e52-8388-9f8c12853748"><rect class="uuid-553101e6-82cb-45ed-8187-0f6ab43aecc5" x="0" width="32" height="32"/></g><g id="uuid-57b3f238-a9d4-4a64-945a-d1da05424de1"><path class="uuid-48db8ba9-0709-46d9-ad25-792b1dd18a85" d="M12.5,4H2.5c-.8271,0-1.5.6729-1.5,1.5v7c0,.8271.6729,1.5,1.5,1.5h10c.8271,0,1.5-.6729,1.5-1.5v-7c0-.8271-.6729-1.5-1.5-1.5ZM12,12H3v-6h9v6Z"/><path class="uuid-48db8ba9-0709-46d9-ad25-792b1dd18a85" d="M29.5,4h-10c-.8271,0-1.5.6729-1.5,1.5v7c0,.8271.6729,1.5,1.5,1.5h10c.8271,0,1.5-.6729,1.5-1.5v-7c0-.8271-.6729-1.5-1.5-1.5ZM29,12h-9v-6h9v6Z"/><path class="uuid-48db8ba9-0709-46d9-ad25-792b1dd18a85" d="M12.5,18H2.5c-.8271,0-1.5.6729-1.5,1.5v7c0,.8271.6729,1.5,1.5,1.5h10c.8271,0,1.5-.6729,1.5-1.5v-7c0-.8271-.6729-1.5-1.5-1.5ZM12,26H3v-6h9v6Z"/><path class="uuid-48db8ba9-0709-46d9-ad25-792b1dd18a85" d="M29.5,18h-10c-.8271,0-1.5.6729-1.5,1.5v7c0,.8271.6729,1.5,1.5,1.5h10c.8271,0,1.5-.6729,1.5-1.5v-7c0-.8271-.6729-1.5-1.5-1.5ZM29,26h-9v-6h9v6Z"/></g></svg>