<?xml version="1.0" encoding="UTF-8"?><svg xmlns="http://www.w3.org/2000/svg" width="32" height="32" viewBox="0 0 32 32"><defs><style>.uuid-92097eb8-20fd-4b04-ab43-7abf7f816c12{fill:none;}.uuid-255c294b-2858-4ed8-a681-1cbbf5dc9ed7{fill:#151515;}</style></defs><g id="uuid-2dbe67cf-b71b-4b9e-9025-beb2bd3b0825"><rect class="uuid-92097eb8-20fd-4b04-ab43-7abf7f816c12" width="32" height="32"/></g><g id="uuid-4341814b-f85b-4a7f-9ec2-fef634263f30"><path class="uuid-255c294b-2858-4ed8-a681-1cbbf5dc9ed7" d="M3,2c-.55225,0-1,.44727-1,1v26c0,.55273.44775,1,1,1s1-.44727,1-1V3c0-.55273-.44775-1-1-1Z"/><path class="uuid-255c294b-2858-4ed8-a681-1cbbf5dc9ed7" d="M29,2c-.55225,0-1,.44727-1,1v26c0,.55273.44775,1,1,1s1-.44727,1-1V3c0-.55273-.44775-1-1-1Z"/><path class="uuid-255c294b-2858-4ed8-a681-1cbbf5dc9ed7" d="M18.5,8h-8.5c-.55225,0-1,.44727-1,1s.44775,1,1,1h8.5c2.48145,0,4.5,2.01855,4.5,4.5s-2.01855,4.5-4.5,4.5h-7.08594l2.29297-2.29297c.39062-.39062.39062-1.02344,0-1.41406s-1.02344-.39062-1.41406,0l-3.64648,3.64648c-.2832.2832-.43945.66016-.43945,1.06055s.15625.77734.43945,1.06055l3.64648,3.64648c.19531.19531.45117.29297.70703.29297s.51172-.09766.70703-.29297c.39062-.39062.39062-1.02344,0-1.41406l-2.29297-2.29297h7.08594c3.58398,0,6.5-2.91602,6.5-6.5s-2.91602-6.5-6.5-6.5Z"/></g></svg>