<?xml version="1.0" encoding="UTF-8"?><svg xmlns="http://www.w3.org/2000/svg" width="32" height="32" viewBox="0 0 32 32"><defs><style>.uuid-5e8bec02-6944-4293-b21a-1188149c95ec{fill:none;}.uuid-fae9a41e-b250-4552-8f62-b2314704921d{fill:#151515;}</style></defs><g id="uuid-ec5de012-2d79-4717-b7d3-cc8b5bae1214"><rect class="uuid-5e8bec02-6944-4293-b21a-1188149c95ec" width="32" height="32"/></g><g id="uuid-6848341c-0b74-4422-90eb-d87d98a8b709"><path class="uuid-fae9a41e-b250-4552-8f62-b2314704921d" d="M31,12c0-5.51367-4.48584-10-10-10-1.82233,0-3.5271.49792-5,1.35309-1.4729-.85516-3.17767-1.35309-5-1.35309C5.48584,2,1,6.48633,1,12c0,3.69873,2.02368,6.92755,5.01733,8.65747-.00391.11469-.01733.22693-.01733.34253,0,5.51367,4.48584,10,10,10s10-4.48633,10-10c0-.1156-.01343-.22784-.01733-.34253,2.99365-1.72992,5.01733-4.95874,5.01733-8.65747ZM3,12c0-4.41113,3.58887-8,8-8,1.14252,0,2.22754.24487,3.21167.67828-1.96979,1.82764-3.21167,4.42932-3.21167,7.32172,0,.1156.01343.22784.01733.34253-2.28931,1.32294-4.00201,3.5238-4.6842,6.14178-2.01459-1.45416-3.33313-3.81555-3.33313-6.48431ZM18.97217,11.45099c-.93933-.29303-1.93762-.45099-2.97217-.45099s-2.03284.15796-2.97217.45099c.15698-2.29517,1.28021-4.32642,2.97217-5.68604,1.69196,1.35962,2.81519,3.39087,2.97217,5.68604ZM16,18.23505c-1.44592-1.16187-2.48041-2.81281-2.84888-4.70148.88647-.33948,1.84442-.53357,2.84888-.53357s1.9624.19409,2.84888.53357c-.36847,1.88867-1.40295,3.53961-2.84888,4.70148ZM20.66687,14.51569c1.61847,1.16821,2.78601,2.9209,3.18201,4.95074-.88647.33948-1.84442.53357-2.84888.53357-1.14252,0-2.22754-.24487-3.21167-.67828,1.37714-1.27777,2.39081-2.93439,2.87854-4.80603ZM14.21167,19.32172c-.98413.43341-2.06915.67828-3.21167.67828-1.00446,0-1.9624-.19409-2.84888-.53357.396-2.02985,1.56354-3.78253,3.18201-4.95074.48773,1.87164,1.5014,3.52826,2.87854,4.80603ZM16,29c-4.22583,0-7.68799-3.29602-7.97217-7.45099.93933.29303,1.93762.45099,2.97217.45099,1.82233,0,3.5271-.49792,5-1.35309,1.4729.85516,3.17767,1.35309,5,1.35309,1.03455,0,2.03284-.15796,2.97217-.45099-.28418,4.15497-3.74634,7.45099-7.97217,7.45099ZM25.66687,18.48431c-.68219-2.61798-2.3949-4.81885-4.6842-6.14178.00391-.11469.01733-.22693.01733-.34253,0-2.8924-1.24188-5.49408-3.21167-7.32172.98413-.43341,2.06915-.67828,3.21167-.67828,4.41113,0,8,3.58887,8,8,0,2.66876-1.31854,5.03015-3.33313,6.48431Z"/></g></svg>