<?xml version="1.0" encoding="UTF-8"?><svg xmlns="http://www.w3.org/2000/svg" width="32" height="32" viewBox="0 0 32 32"><defs><style>.uuid-3c34203d-e145-41d7-86eb-35adaca25beb{fill:none;}.uuid-94e2e8f0-602c-49c1-b416-92acae0a1e72{fill:#151515;}</style></defs><g id="uuid-e44b1ccc-f292-471e-bb7f-a2c78dcdbd8e"><rect class="uuid-3c34203d-e145-41d7-86eb-35adaca25beb" width="32" height="32"/></g><g id="uuid-d10a01f5-fb0f-4228-89aa-8f74d5b1706b"><path class="uuid-94e2e8f0-602c-49c1-b416-92acae0a1e72" d="M30.70703,29.29297l-8.55225-8.55225c1.7713-2.09155,2.84521-4.79144,2.84521-7.74072,0-6.61719-5.38281-12-12-12S1,6.38281,1,13s5.38281,12,12,12c2.94928,0,5.64917-1.07391,7.74072-2.84521l8.55225,8.55225c.19531.19531.45117.29297.70703.29297s.51172-.09766.70703-.29297c.39062-.39062.39062-1.02344,0-1.41406ZM13,23c-5.51367,0-10-4.48633-10-10S7.48633,3,13,3s10,4.48633,10,10-4.48633,10-10,10Z"/><path class="uuid-94e2e8f0-602c-49c1-b416-92acae0a1e72" d="M17,12h-3v-3c0-.55273-.44727-1-1-1s-1,.44727-1,1v3h-3c-.55273,0-1,.44727-1,1s.44727,1,1,1h3v3c0,.55273.44727,1,1,1s1-.44727,1-1v-3h3c.55273,0,1-.44727,1-1s-.44727-1-1-1Z"/></g></svg>