<?xml version="1.0" encoding="UTF-8"?><svg xmlns="http://www.w3.org/2000/svg" width="32" height="32" viewBox="0 0 32 32"><defs><style>.uuid-99f84312-da94-4d0d-b0c5-e4c9b2d42697{fill:none;}.uuid-e0b7d7e8-f5b8-443f-86f9-58e7f19d50dd{fill:#151515;}</style></defs><g id="uuid-c36feac8-3eca-44df-bdf9-5add121c0514"><rect class="uuid-99f84312-da94-4d0d-b0c5-e4c9b2d42697" width="32" height="32"/></g><g id="uuid-e81a49f1-bdb6-4f09-967d-16222eaecac9"><path class="uuid-e0b7d7e8-f5b8-443f-86f9-58e7f19d50dd" d="M30.70703,29.29297l-8.55225-8.55225c1.7713-2.09155,2.84521-4.79144,2.84521-7.74072,0-6.61719-5.38281-12-12-12S1,6.38281,1,13s5.38281,12,12,12c2.94928,0,5.64917-1.07391,7.74072-2.84521l8.55225,8.55225c.19531.19531.45117.29297.70703.29297s.51172-.09766.70703-.29297c.39062-.39062.39062-1.02344,0-1.41406ZM13,23c-5.51367,0-10-4.48633-10-10S7.48633,3,13,3s10,4.48633,10,10-4.48633,10-10,10Z"/><path class="uuid-e0b7d7e8-f5b8-443f-86f9-58e7f19d50dd" d="M18,12h-10c-.55273,0-1,.44727-1,1s.44727,1,1,1h10c.55273,0,1-.44727,1-1s-.44727-1-1-1Z"/></g></svg>