<svg id="b05e5530-5b8c-4033-bfe4-7b7db80d67c9" data-name="Icon" xmlns="http://www.w3.org/2000/svg" viewBox="0 0 36 36">
  <g>
    <path d="M31,9.38H24.52l-.75-3.51a.62.62,0,0,0-.61-.49H12.84a.62.62,0,0,0-.61.49l-.75,3.51H5a.61.61,0,0,0-.62.62V30a.61.61,0,0,0,.62.62H31a.61.61,0,0,0,.62-.62V10A.61.61,0,0,0,31,9.38ZM13.35,6.62h9.3l.59,2.76H12.76Zm17,22.76H5.62V10.62H30.38Z"/>
    <path d="M28,8.62h2a.62.62,0,1,0,0-1.24H28a.62.62,0,0,0,0,1.24Z"/>
    <path d="M6,8.62H8A.62.62,0,0,0,8,7.38H6A.62.62,0,1,0,6,8.62Z"/>
  </g>
</svg>
