<svg id="a05256d4-c4bd-4fda-b690-7106e6e66aef" data-name="Icon" xmlns="http://www.w3.org/2000/svg" viewBox="0 0 36 36">
  <path d="M18.62,9a.62.62,0,0,1-1.24,0A.62.62,0,0,1,18.62,9Z"/>
  <g>
    <path d="M6,24.62H30a.61.61,0,0,0,.62-.62V9A.61.61,0,0,0,30,8.38H21a.62.62,0,0,0,0,1.24h8.38V23.38H6.62V9.62H15a.62.62,0,0,0,0-1.24H6A.61.61,0,0,0,5.38,9V24A.61.61,0,0,0,6,24.62Z"/>
    <path d="M32,26.38H4a.62.62,0,0,0,0,1.24H32A.62.62,0,0,0,32,26.38Z"/>
    <path d="M17.24,20a.63.63,0,0,0,.74-.49l1.24-5.84a.64.64,0,0,0-.48-.75.63.63,0,0,0-.74.49l-1.24,5.84A.63.63,0,0,0,17.24,20Z"/>
    <path d="M21,19.5a.63.63,0,0,0,.88,0l2.56-2.56a.64.64,0,0,0,0-.89l-2.56-2.56c-.57-.58-1.47.32-.88.88l2.12,2.12L21,18.61A.62.62,0,0,0,21,19.5Z"/>
    <path d="M15,13.49a.61.61,0,0,0-.88,0l-2.56,2.56a.64.64,0,0,0,0,.89l2.56,2.56a.63.63,0,0,0,.88-.89l-2.12-2.12L15,14.37A.61.61,0,0,0,15,13.49Z"/>
  </g>
</svg>
