<svg id="ebc3dff9-251d-407f-8e0f-390472e8a886" data-name="Icon" xmlns="http://www.w3.org/2000/svg" viewBox="0 0 36 36">
  <path d="M29.86,20.31a2.77,2.77,0,0,0-1.79-2.58,2.77,2.77,0,0,0-2.16-4.46H21.58c1.67-2.42,3.09-6.63.43-8.48a2.64,2.64,0,0,0-2.36-.24A2.48,2.48,0,0,0,18.1,6.68c-.08.77,0,1.43-.74,1.8L11,13.05a10.07,10.07,0,0,0-4,4.49c-3,6.4,2,14.23,9.14,14.08,1.1,0,3.28,0,4.38,0h3a2.78,2.78,0,0,0,2.29-4.3,2.77,2.77,0,0,0,2-4.37A2.75,2.75,0,0,0,29.86,20.31ZM27.42,16a1.51,1.51,0,0,1-1.51,1.51H18.58a1.51,1.51,0,0,1,0-3h7.33A1.51,1.51,0,0,1,27.42,16Zm-20,5.59a8.8,8.8,0,0,1,4.28-7.53L18,9.53c1.3-.78,1.19-1.74,1.3-2.71.25-2,2.82-1.24,2.85.47a8.12,8.12,0,0,1-2.29,6H18.58a2.77,2.77,0,0,0-1.73,4.9,2.76,2.76,0,0,0,0,4.27,2.77,2.77,0,0,0,0,4.28,2.77,2.77,0,0,0-.58,3.65A8.77,8.77,0,0,1,7.39,21.62Zm16.16,8.75h-5a1.52,1.52,0,0,1,0-3h5A1.52,1.52,0,0,1,23.55,30.37Zm2.07-4.28h-7a1.51,1.51,0,0,1,0-3h7A1.51,1.51,0,0,1,25.62,26.09Zm1.47-4.27H18.58a1.52,1.52,0,0,1,0-3h8.51A1.52,1.52,0,0,1,27.09,21.82Z"/>
</svg>
