<svg id="bb43b803-e5a7-4918-9444-e7323d66b7a2" data-name="Icon" xmlns="http://www.w3.org/2000/svg" viewBox="0 0 36 36">
  <path d="M27.62,12.71V9.5A3.13,3.13,0,0,0,22,7.64a3.13,3.13,0,0,0-5,0,3.13,3.13,0,0,0-5,0A3.13,3.13,0,0,0,6.38,9.5V20C7,35.43,29,35.41,29.62,20V17A5.57,5.57,0,0,0,27.62,12.71ZM24.5,7.62A1.89,1.89,0,0,1,26.38,9.5v2.41A5.6,5.6,0,0,0,24,11.38H22.62V9.5A1.89,1.89,0,0,1,24.5,7.62Zm-5,0A1.89,1.89,0,0,1,21.38,9.5v1.88H17.62V9.5A1.89,1.89,0,0,1,19.5,7.62Zm-5,0A1.89,1.89,0,0,1,16.38,9.5v1.88H16a3.12,3.12,0,0,0,0,6.24h.36a1.87,1.87,0,0,1-3.74-.12v-8A1.89,1.89,0,0,1,14.5,7.62ZM7.62,9.5a1.88,1.88,0,0,1,3.76,0v8a1.88,1.88,0,0,1-3.76,0v-8ZM28.38,20C27.8,33.77,8.19,33.76,7.62,20v0A3.12,3.12,0,0,0,12,19.36a3.12,3.12,0,0,0,5.61-1.74h.8a5.63,5.63,0,0,0,5.59,5,.62.62,0,0,0,0-1.24,4.36,4.36,0,0,1-4.31-3.76H21a.62.62,0,0,0,0-1.24H16a1.88,1.88,0,0,1,0-3.76h8A4.39,4.39,0,0,1,28.38,17Z"/>
</svg>
