<svg id="b57ba9fe-3c4b-4d11-b59f-d610d1f532a2" data-name="Icon" xmlns="http://www.w3.org/2000/svg" viewBox="0 0 36 36">
  <path d="M28.06,14.37a2.57,2.57,0,0,0-3.64,1.4l-.8,2V8A2.62,2.62,0,0,0,19.4,5.94a2.64,2.64,0,0,0-4.8,0A2.62,2.62,0,0,0,10.38,8V9.77a2.63,2.63,0,0,0-4,2.23v9a10.63,10.63,0,0,0,3.36,7.75c5.95,5.73,16.07,2.38,17.65-5.8a32.9,32.9,0,0,1,1.24-3.8C29.38,17.41,30,15.45,28.06,14.37Zm0,2.63c-.55,1.65-1.6,4.2-1.91,5.69a9.48,9.48,0,0,1-8.54,7.66A9.4,9.4,0,0,1,7.63,21V12a1.38,1.38,0,0,1,2.76,0c0,1.33,0,4.72,0,6a.63.63,0,0,0,1.25,0V16c0-2,0-6,0-8a1.37,1.37,0,0,1,2.74,0c0,1.49,0,8.67,0,10a.63.63,0,0,0,1.25,0c0-1.29,0-11,0-11a1.38,1.38,0,1,1,2.76,0s0,9.67,0,11a.62.62,0,0,0,1.24,0V8a1.38,1.38,0,0,1,2.75,0V21a.62.62,0,0,0,1.2.23l2-5A1.3,1.3,0,0,1,28.07,17Z"/>
</svg>
