<svg id="bf3e657b-ea9c-4b96-94ab-70147a9e6862" data-name="Icon" xmlns="http://www.w3.org/2000/svg" viewBox="0 0 36 36">
  <circle cx="27" cy="23" r="0.62"/>
  <g>
    <path d="M31,17.38H5a.62.62,0,0,0-.62.62V28a.62.62,0,0,0,.62.62H31a.62.62,0,0,0,.62-.62V18A.62.62,0,0,0,31,17.38Zm-.62,10H5.62V18.62H30.38Z"/>
    <path d="M9,23.62h6a.62.62,0,0,0,0-1.24H9a.62.62,0,0,0,0,1.24Z"/>
    <path d="M17.24,14.46A.63.63,0,0,0,18,14l1.24-5.85A.62.62,0,1,0,18,7.87l-1.25,5.85A.63.63,0,0,0,17.24,14.46Z"/>
    <path d="M21,13.92a.61.61,0,0,0,.88,0l2.56-2.56a.61.61,0,0,0,0-.88L21.88,7.91c-.56-.58-1.47.32-.88.89l2.12,2.12L21,13A.61.61,0,0,0,21,13.92Z"/>
    <path d="M14.12,13.92A.63.63,0,1,0,15,13l-2.12-2.12L15,8.8c.58-.57-.31-1.47-.88-.89l-2.56,2.57a.61.61,0,0,0,0,.88Z"/>
  </g>
</svg>
