<svg xmlns="http://www.w3.org/2000/svg" viewBox="0 0 36 36">
  <path d="M15 13.62h6a.62.62 0 0 0 .62-.62V7a.62.62 0 0 0-.62-.62h-6a.62.62 0 0 0-.62.62v6a.62.62 0 0 0 .62.62Zm.62-6h4.76v4.76h-4.76Zm8.38 9h5a.62.62 0 0 0 .62-.62v-5a.62.62 0 0 0-.62-.62h-5a.62.62 0 0 0-.62.62v5a.62.62 0 0 0 .62.62Zm.62-5h3.76v3.76h-3.76ZM7 16.62h5a.62.62 0 0 0 .62-.62v-5a.62.62 0 0 0-.62-.62H7a.62.62 0 0 0-.62.62v5a.62.62 0 0 0 .62.62Zm.62-5h3.76v3.76H7.62Zm20.97 12.71a3.19 3.19 0 1 0-4.18 0 5.68 5.68 0 0 0-1 .63 5.52 5.52 0 0 0-3.26-4 3.18 3.18 0 1 0-4.24 0 5.52 5.52 0 0 0-3.26 4 5.68 5.68 0 0 0-1-.63 3.19 3.19 0 1 0-4.18 0 5.13 5.13 0 0 0-3 4.67.62.62 0 0 0 .62.62H31a.62.62 0 0 0 .62-.62 5.13 5.13 0 0 0-3.03-4.67Zm-4-2.4a2 2 0 0 1 3.9 0 2 2 0 0 1-3.94 0Zm1.95 3.19a3.88 3.88 0 0 1 3.81 3.26h-7.66a3.88 3.88 0 0 1 3.81-3.26Zm-10.49-6.55a2 2 0 0 1 3.9 0 2 2 0 0 1-3.9 0Zm1.95 3.2a4.24 4.24 0 0 1 4.23 4.4 5.1 5.1 0 0 0-.79 2.21h-6.88a5.1 5.1 0 0 0-.79-2.21 4.24 4.24 0 0 1 4.23-4.4Zm-10.45.16a2 2 0 0 1 3.9 0 2 2 0 0 1-3.9 0Zm2 3.19a3.88 3.88 0 0 1 3.81 3.26H5.69a3.88 3.88 0 0 1 3.81-3.26Z"/>
</svg>
