<svg id="a5c7d958-d504-440a-b5c6-6731ed60c905" data-name="Icon" xmlns="http://www.w3.org/2000/svg" viewBox="0 0 36 36">
  <g>
    <path d="M15,13.62h6a.62.62,0,0,0,.62-.62V7A.62.62,0,0,0,21,6.38H15a.62.62,0,0,0-.62.62v6A.62.62,0,0,0,15,13.62Zm.62-6h4.76v4.76H15.62Z"/>
    <path d="M24,16.62h5a.62.62,0,0,0,.62-.62V11a.62.62,0,0,0-.62-.62H24a.62.62,0,0,0-.62.62v5A.62.62,0,0,0,24,16.62Zm.62-5h3.76v3.76H24.62Z"/>
    <path d="M7,16.62h5a.62.62,0,0,0,.62-.62V11a.62.62,0,0,0-.62-.62H7a.62.62,0,0,0-.62.62v5A.62.62,0,0,0,7,16.62Zm.62-5h3.76v3.76H7.62Z"/>
    <path d="M28.59,24.33a3.19,3.19,0,1,0-4.18,0,5.68,5.68,0,0,0-1,.63,5.52,5.52,0,0,0-3.26-4,3.18,3.18,0,1,0-4.24,0,5.52,5.52,0,0,0-3.26,4,5.68,5.68,0,0,0-1-.63,3.19,3.19,0,1,0-4.18,0,5.13,5.13,0,0,0-3,4.67.62.62,0,0,0,.62.62H31a.62.62,0,0,0,.62-.62A5.13,5.13,0,0,0,28.59,24.33Zm-4-2.4a2,2,0,0,1,3.9,0A2,2,0,0,1,24.55,21.93Zm1.95,3.19a3.88,3.88,0,0,1,3.81,3.26H22.69A3.88,3.88,0,0,1,26.5,25.12ZM16.05,18.57a2,2,0,0,1,3.9,0A2,2,0,0,1,16.05,18.57ZM18,21.77a4.24,4.24,0,0,1,4.23,4.4,5.1,5.1,0,0,0-.79,2.21H14.56a5.1,5.1,0,0,0-.79-2.21A4.24,4.24,0,0,1,18,21.77Zm-10.45.16a2,2,0,0,1,3.9,0A2,2,0,0,1,7.55,21.93Zm2,3.19a3.88,3.88,0,0,1,3.81,3.26H5.69A3.88,3.88,0,0,1,9.5,25.12Z"/>
  </g>
</svg>
