<svg id="a834531e-4420-4004-a632-0ba68582f410" data-name="Icon" xmlns="http://www.w3.org/2000/svg" viewBox="0 0 36 36">
  <g>
    <path d="M22.5,4.38a6,6,0,0,0-3.76,1.3s0,0,0,0a6.11,6.11,0,0,0-2.21,5.93l-8,8.94a.62.62,0,0,0,0,.86l3,3a.62.62,0,0,0,.86,0l8.94-8a6.11,6.11,0,0,0,5.93-2.21h0s0,0,0,0A6.14,6.14,0,0,0,22.5,4.38ZM12,23.14,9.86,21,16.93,13A6.12,6.12,0,0,0,20,16.07ZM22.5,15.38A4.89,4.89,0,0,1,19.12,7L26,13.88A4.86,4.86,0,0,1,22.5,15.38Zm4.24-2.52-6.6-6.6A4.86,4.86,0,0,1,26.74,12.86Z"/>
    <path d="M15.56,16.56l-1,1a.62.62,0,0,0,.88.88l1-1a.62.62,0,0,0-.88-.88Z"/>
    <path d="M23.44,29.56a2.23,2.23,0,0,1,0-3.12,3.45,3.45,0,0,0-4.88-4.88l-7,7a2.21,2.21,0,0,1-3.12-3.12l1-1a.62.62,0,1,0-.88-.88l-1,1a3.45,3.45,0,0,0,4.88,4.88l7-7a2.21,2.21,0,0,1,3.12,3.12,3.46,3.46,0,0,0,0,4.88l1,1a.62.62,0,0,0,.88-.88Z"/>
  </g>
</svg>
