<svg id="a2ed0141-86bc-42ad-818e-344555e48e24" data-name="Icon" xmlns="http://www.w3.org/2000/svg" viewBox="0 0 36 36">
  <g>
    <path d="M12,12.62h3.74c2.73,2.67,1.8,2.66,4.52,0H24a.62.62,0,0,0,.62-.62V6A.62.62,0,0,0,24,5.38H12a.62.62,0,0,0-.62.62v6A.62.62,0,0,0,12,12.62Zm.62-6H23.38v4.76H20a.59.59,0,0,0-.44.18L18,13.12l-1.56-1.56a.59.59,0,0,0-.44-.18H12.62Z"/>
    <path d="M28.59,25.33a3.19,3.19,0,1,0-4.18,0,5.68,5.68,0,0,0-1,.63,5.52,5.52,0,0,0-3.26-4,3.18,3.18,0,1,0-4.24,0,5.52,5.52,0,0,0-3.26,4,5.68,5.68,0,0,0-1-.63,3.19,3.19,0,1,0-4.18,0,5.13,5.13,0,0,0-3,4.67.62.62,0,0,0,.62.62H31a.62.62,0,0,0,.62-.62A5.13,5.13,0,0,0,28.59,25.33Zm-4-2.4a2,2,0,0,1,3.9,0A2,2,0,0,1,24.55,22.93Zm1.95,3.19a3.88,3.88,0,0,1,3.81,3.26H22.69A3.88,3.88,0,0,1,26.5,26.12ZM16.05,19.57a2,2,0,0,1,3.9,0A2,2,0,0,1,16.05,19.57ZM18,22.77a4.24,4.24,0,0,1,4.23,4.4,5.1,5.1,0,0,0-.79,2.21H14.56a5.1,5.1,0,0,0-.79-2.21A4.24,4.24,0,0,1,18,22.77Zm-10.45.16a2,2,0,0,1,3.9,0A2,2,0,0,1,7.55,22.93Zm2,3.19a3.88,3.88,0,0,1,3.81,3.26H5.69A3.88,3.88,0,0,1,9.5,26.12Z"/>
  </g>
</svg>
