<svg id="aa6f4e2f-bac1-4dce-bf60-62d73ef72ac1" data-name="Icon" xmlns="http://www.w3.org/2000/svg" viewBox="0 0 36 36">
  <g>
    <path d="M12.87,24.29a3.86,3.86,0,1,0-4.74,0A7.12,7.12,0,0,0,3.37,31a.63.63,0,0,0,.63.62H17a.62.62,0,0,0,.62-.62A7.12,7.12,0,0,0,12.87,24.29Zm-5-3a2.63,2.63,0,0,1,5.25,0A2.63,2.63,0,0,1,7.87,21.25ZM4.66,30.38c.87-6.95,10.81-6.94,11.68,0Z"/>
    <path d="M27.87,10.29a3.86,3.86,0,1,0-4.74,0A7.12,7.12,0,0,0,18.37,17a.63.63,0,0,0,.63.62H32a.62.62,0,0,0,.62-.62A7.12,7.12,0,0,0,27.87,10.29Zm-5-3a2.63,2.63,0,0,1,5.25,0A2.63,2.63,0,0,1,22.87,7.25Zm-3.21,9.13c.87-6.95,10.81-6.94,11.68,0Z"/>
    <path d="M5.76,18.58a.63.63,0,0,0,.48-1.16A.63.63,0,0,0,5.76,18.58Z"/>
    <path d="M6.13,16.15a.63.63,0,0,0,.25-1.23.62.62,0,0,0-.73.49h0A.64.64,0,0,0,6.13,16.15Z"/>
    <path d="M6.76,13.75a.63.63,0,0,0,.5-1.15A.63.63,0,0,0,6.76,13.75Z"/>
    <path d="M11.86,8.31a.62.62,0,0,0,.32-.09h0a.63.63,0,1,0-.32.08Z"/>
    <path d="M16.52,6.71a.62.62,0,1,0-.08-1.24A.62.62,0,0,0,16.52,6.71Z"/>
    <path d="M14.11,7.27a.62.62,0,1,0-.21-1.21A.62.62,0,0,0,14.11,7.27Z"/>
    <path d="M9.88,9.79C11,9.7,10.37,8,9.45,8.71A.63.63,0,0,0,9.88,9.79Z"/>
    <path d="M8.24,11.65a.61.61,0,0,0,.5-.26h0a.63.63,0,1,0-.51.26Z"/>
    <path d="M18.56,6.48c.57.58,1.47-.31.88-.88A.62.62,0,0,0,18.56,6.48Z"/>
    <path d="M30.44,19.56a.62.62,0,0,0-.88.88A.62.62,0,0,0,30.44,19.56Z"/>
    <path d="M27.66,24.3a.62.62,0,0,0,1,.69A.62.62,0,0,0,27.66,24.3Z"/>
    <path d="M26.16,26.15c-.59.55.32,1.47.88.88S26.71,25.56,26.16,26.15Z"/>
    <path d="M29.56,21.84A.62.62,0,0,0,29.11,23,.62.62,0,0,0,29.56,21.84Z"/>
    <path d="M22.2,28.74a.63.63,0,0,0,.46,1.17A.63.63,0,0,0,22.2,28.74Z"/>
    <path d="M24.31,27.65A.63.63,0,0,0,25,28.7.63.63,0,0,0,24.31,27.65Z"/>
    <path d="M20.44,29.56c-.57-.59-1.46.31-.88.88S21,30.13,20.44,29.56Z"/>
  </g>
</svg>
