<svg xmlns="http://www.w3.org/2000/svg" viewBox="0 0 36 36"><defs><style>.cls-1{fill:#231f20;}</style></defs><g id="Layer_4" data-name="Layer 4"><path class="cls-1" d="M31.42,30.18a.75.75,0,0,0-.57,1.38A.75.75,0,0,0,31.42,30.18Z"/><path class="cls-1" d="M7.73,30.35a.75.75,0,0,0,0,1.5A.75.75,0,0,0,7.73,30.35Z"/><path class="cls-1" d="M20.73,30.22a.75.75,0,0,0,0,1.5A.75.75,0,0,0,20.73,30.22Z"/><path class="cls-1" d="M23.33,30.2a.75.75,0,0,0,0,1.5A.75.75,0,0,0,23.33,30.2Z"/><path class="cls-1" d="M12.93,30.3a.75.75,0,0,0,0,1.5A.75.75,0,0,0,12.93,30.3Z"/><path class="cls-1" d="M18.13,30.25a.75.75,0,0,0,0,1.5A.75.75,0,0,0,18.13,30.25Z"/><path class="cls-1" d="M15.53,30.27a.75.75,0,0,0,0,1.5A.75.75,0,0,0,15.53,30.27Z"/><path class="cls-1" d="M10.33,30.33a.75.75,0,0,0,0,1.5A.75.75,0,0,0,10.33,30.33Z"/><path class="cls-1" d="M28.53,30.15a.75.75,0,0,0,0,1.5A.75.75,0,0,0,28.53,30.15Z"/><path class="cls-1" d="M25.93,30.17a.75.75,0,0,0,0,1.5A.75.75,0,0,0,25.93,30.17Z"/><path class="cls-1" d="M5.66,30.59a.75.75,0,0,0-1,1.07A.75.75,0,0,0,5.66,30.59Z"/><path class="cls-1" d="M5,17.38a.75.75,0,0,0,0,1.5A.75.75,0,0,0,5,17.38Z"/><path class="cls-1" d="M5,20a.75.75,0,0,0,0,1.5A.75.75,0,0,0,5,20Z"/><path class="cls-1" d="M5.05,22.58a.75.75,0,0,0,0,1.5A.75.75,0,0,0,5.05,22.58Z"/><path class="cls-1" d="M5.08,25.18a.75.75,0,0,0,0,1.5A.75.75,0,0,0,5.08,25.18Z"/><path class="cls-1" d="M4.92,9.58a.75.75,0,0,0,0,1.5A.75.75,0,0,0,4.92,9.58Z"/><path class="cls-1" d="M5.1,27.78a.75.75,0,0,0,0,1.5A.75.75,0,0,0,5.1,27.78Z"/><path class="cls-1" d="M5,12.18a.75.75,0,0,0,0,1.5A.75.75,0,0,0,5,12.18Z"/><path class="cls-1" d="M4.9,7a.75.75,0,0,0,0,1.5A.75.75,0,0,0,4.9,7Z"/><path class="cls-1" d="M5,14.78a.75.75,0,0,0,0,1.5A.75.75,0,0,0,5,14.78Z"/><path class="cls-1" d="M4.34,4.6A.75.75,0,0,0,5.41,5.65C6.1,5,5,3.93,4.34,4.6Z"/><path class="cls-1" d="M10.07,4.33a.75.75,0,0,0,0,1.5A.75.75,0,0,0,10.07,4.33Z"/><path class="cls-1" d="M7.47,4.35a.75.75,0,0,0,0,1.5A.75.75,0,0,0,7.47,4.35Z"/><path class="cls-1" d="M25.67,4.17a.75.75,0,0,0,0,1.5A.75.75,0,0,0,25.67,4.17Z"/><path class="cls-1" d="M20.47,4.22a.75.75,0,0,0,0,1.5A.75.75,0,0,0,20.47,4.22Z"/><path class="cls-1" d="M23.07,4.2a.75.75,0,0,0,0,1.5A.75.75,0,0,0,23.07,4.2Z"/><path class="cls-1" d="M12.67,4.3a.75.75,0,0,0,0,1.5A.75.75,0,0,0,12.67,4.3Z"/><path class="cls-1" d="M28.27,4.15a.75.75,0,0,0,0,1.5A.75.75,0,0,0,28.27,4.15Z"/><path class="cls-1" d="M17.87,4.25a.75.75,0,0,0,0,1.5A.75.75,0,0,0,17.87,4.25Z"/><path class="cls-1" d="M15.27,4.28a.75.75,0,0,0,0,1.5A.75.75,0,0,0,15.27,4.28Z"/><path class="cls-1" d="M30.59,5.57a.75.75,0,0,0,.57-1.39A.75.75,0,0,0,30.59,5.57Z"/><path class="cls-1" d="M31,17.12a.75.75,0,0,0,0,1.5A.75.75,0,0,0,31,17.12Z"/><path class="cls-1" d="M31,19.72a.75.75,0,0,0,0,1.5A.75.75,0,0,0,31,19.72Z"/><path class="cls-1" d="M31,14.52A.75.75,0,0,0,31,16,.75.75,0,0,0,31,14.52Z"/><path class="cls-1" d="M31,11.92a.75.75,0,0,0,0,1.5A.75.75,0,0,0,31,11.92Z"/><path class="cls-1" d="M30.9,6.72a.75.75,0,0,0,0,1.5A.75.75,0,0,0,30.9,6.72Z"/><path class="cls-1" d="M31.05,22.32a.75.75,0,0,0,0,1.5A.75.75,0,0,0,31.05,22.32Z"/><path class="cls-1" d="M30.92,9.32a.75.75,0,0,0,0,1.5A.75.75,0,0,0,30.92,9.32Z"/><path class="cls-1" d="M31.1,27.52a.75.75,0,0,0,0,1.5A.75.75,0,0,0,31.1,27.52Z"/><path class="cls-1" d="M31.08,24.92a.75.75,0,0,0,0,1.5A.75.75,0,0,0,31.08,24.92Z"/></g></svg>