<svg xmlns="http://www.w3.org/2000/svg" viewBox="0 0 36 36">
  <path d="M6.38 14.29V17a.62.62 0 0 0 1.24 0v-4A4.39 4.39 0 0 1 12 8.62a.62.62 0 0 0 0-1.24 5.62 5.62 0 0 0-5.6 5.1A4.4 4.4 0 0 1 10 5.62h4.38V10A4.39 4.39 0 0 1 10 14.38a.62.62 0 0 0 0 1.24A5.62 5.62 0 0 0 15.62 10V5a.62.62 0 0 0-.62-.62h-5a5.63 5.63 0 0 0-3.62 9.91ZM26 4.38a5.53 5.53 0 0 0-4.29 2H19a.62.62 0 0 0 0 1.24h4A4.39 4.39 0 0 1 27.38 12a.62.62 0 1 0 1.24 0 5.62 5.62 0 0 0-5.1-5.6 4.4 4.4 0 0 1 6.86 3.6v4.38H26A4.39 4.39 0 0 1 21.62 10a.62.62 0 0 0-1.24 0A5.62 5.62 0 0 0 26 15.62h5a.62.62 0 0 0 .62-.62v-5A5.62 5.62 0 0 0 26 4.38Zm3.62 17.33V19a.62.62 0 0 0-1.24 0v4A4.39 4.39 0 0 1 24 27.38a.62.62 0 0 0 0 1.24 5.62 5.62 0 0 0 5.6-5.1 4.4 4.4 0 0 1-3.6 6.86h-4.38V26A4.39 4.39 0 0 1 26 21.62a.62.62 0 0 0 0-1.24A5.62 5.62 0 0 0 20.38 26v5a.62.62 0 0 0 .62.62h5a5.63 5.63 0 0 0 3.62-9.91ZM17 28.38h-4A4.39 4.39 0 0 1 8.62 24a.62.62 0 0 0-1.24 0 5.62 5.62 0 0 0 5.1 5.6A4.4 4.4 0 0 1 5.62 26v-4.38H10A4.39 4.39 0 0 1 14.38 26a.62.62 0 0 0 1.24 0A5.62 5.62 0 0 0 10 20.38H5a.62.62 0 0 0-.62.62v5a5.63 5.63 0 0 0 9.91 3.62H17a.62.62 0 0 0 0-1.24Z"/>
</svg>
