<svg id="a3e3512e-6701-4cba-90fd-a40f2dd0f017" data-name="Icon" xmlns="http://www.w3.org/2000/svg" viewBox="0 0 36 36">
  <path d="M22,31.62H14a.62.62,0,0,1-.62-.62V22.62H5A.62.62,0,0,1,4.38,22V14A.62.62,0,0,1,5,13.38h8.38V5A.62.62,0,0,1,14,4.38h8a.62.62,0,0,1,.62.62v8.38H31a.62.62,0,0,1,.62.62v8a.62.62,0,0,1-.62.62H22.62V31A.62.62,0,0,1,22,31.62Zm-7.38-1.24h6.76V22a.62.62,0,0,1,.62-.62h8.38V14.62H22a.62.62,0,0,1-.62-.62V5.62H14.62V14a.62.62,0,0,1-.62.62H5.62v6.76H14a.62.62,0,0,1,.62.62Z"/>
</svg>
