<svg xmlns="http://www.w3.org/2000/svg" viewBox="0 0 36 36">
  <path d="M25.29 19.92c-1.76-2-4.37-2-6.67-2.52V7.91A11.28 11.28 0 0 1 25 9.84a.63.63 0 0 0 .7-1.05 12.6 12.6 0 0 0-7.1-2.13V5a.62.62 0 0 0-1.24 0v1.7c-2.89 0-6.29 1.38-7 4.13C9.12 14.6 12 17.66 15.53 18l1.85.39v9.64a10.76 10.76 0 0 1-7-2.89c-.59-.55-1.45.4-.84.93a12 12 0 0 0 7.8 3.21V31a.62.62 0 0 0 1.24 0v-1.66c3.05.06 6.92-1.18 7.73-4.2a5.37 5.37 0 0 0-1.02-5.22Zm-9.5-3.12c-3-.29-5.19-2.68-4.26-5.58C12.13 9 15 8 17.38 8v9.19Zm9.38 8c-.69 2.5-4.05 3.37-6.55 3.34v-9.46c2 .45 4.39.54 5.73 2.07a4.11 4.11 0 0 1 .82 4Z"/>
</svg>
