<svg id="bd1aef6b-e5a1-4adc-9657-9cddc32a9200" data-name="Icon" xmlns="http://www.w3.org/2000/svg" viewBox="0 0 36 36">
  <g>
    <path d="M27,6.38H9A.62.62,0,0,0,8.38,7V31a.62.62,0,0,0,.62.62H27a.62.62,0,0,0,.62-.62V7A.62.62,0,0,0,27,6.38ZM9.62,7.62h7.76V30.38H9.62ZM26.38,30.38H18.62V7.62h7.76Z"/>
    <path d="M19.56,5.44c.68.64,1.31-.53,1.88-1s-.32-1.46-.88-.88L20,4.12l-.56-.56c-.56-.58-1.46.32-.88.88Z"/>
    <path d="M15.44,5.44,16,4.88l.56.56a.62.62,0,0,0,.88-.88c-.56-.46-1.2-1.64-1.88-1l-1,1C14,5.12,14.88,6,15.44,5.44Z"/>
  </g>
</svg>
