<svg id="b409e26e-aac1-43a9-bfb3-0247dfe8c130" data-name="Icon" xmlns="http://www.w3.org/2000/svg" viewBox="0 0 36 36">
  <path d="M19.62,10.41V9.5a2.6,2.6,0,0,0,1.91-1.88H23a.62.62,0,1,0,0-1.24H21.55a2.62,2.62,0,0,0-5.15.33A10.63,10.63,0,0,0,8.38,17V27a.62.62,0,0,0,1.24,0V17a9.4,9.4,0,0,1,7-9A2.64,2.64,0,0,0,18.38,9.5v.91a6.62,6.62,0,0,0-6,6.59c0,.32,0,7.42,0,8v6a.62.62,0,0,0,.62.62H25a.62.62,0,0,0,.62-.62V25c0-.6,0-7.65,0-8A6.64,6.64,0,0,0,19.62,10.41ZM19,5.59a1.36,1.36,0,0,1,1.24.79,19.18,19.18,0,0,0-2.52.08A1.38,1.38,0,0,1,19,5.59ZM17.85,7.7a20.27,20.27,0,0,1,2.35-.08A1.37,1.37,0,0,1,17.85,7.7ZM19,11.62a5.43,5.43,0,0,1,5.38,5.76H13.62A5.43,5.43,0,0,1,19,11.62Zm5.38,12.76H13.62V18.62H24.38Zm-10.76,6V25.62H24.38v4.76Z"/>
</svg>
