<svg id="f491b701-6872-403d-8eaa-297738d26ccf" data-name="Icon" xmlns="http://www.w3.org/2000/svg" viewBox="0 0 36 36">
  <g>
    <path d="M18,15.38a.62.62,0,0,0-.62.62v7a.62.62,0,0,0,1.24,0V16A.62.62,0,0,0,18,15.38Z"/>
    <path d="M18.24,12.42a.63.63,0,0,0-.48,1.16A.63.63,0,0,0,18.24,12.42Z"/>
    <path d="M18,3.38A14.64,14.64,0,0,0,3.38,18c.8,19.4,28.44,19.4,29.25,0A14.65,14.65,0,0,0,18,3.38Zm0,28A13.39,13.39,0,0,1,4.62,18C5.36.26,30.64.26,31.38,18A13.39,13.39,0,0,1,18,31.38Z"/>
  </g>
</svg>
