<svg id="ea145d71-ed21-4485-90ba-7e370e0f7696" data-name="Layer 1" xmlns="http://www.w3.org/2000/svg" viewBox="0 0 36 36">
  <g>
    <path d="M18,18.622A4.622,4.622,0,1,0,13.378,14,4.627,4.627,0,0,0,18,18.622Zm0-7.994A3.372,3.372,0,1,1,14.628,14,3.376,3.376,0,0,1,18,10.628Z"/>
    <path d="M17.558,27.17a.625.625,0,0,0,.884,0l6.365-6.364a9.626,9.626,0,1,0-13.614,0ZM12.078,8.078A8.375,8.375,0,0,1,23.922,19.922L18,25.844l-5.922-5.922A8.383,8.383,0,0,1,12.078,8.078Z"/>
    <path d="M31,30.375H5a.625.625,0,0,0,0,1.25H31a.625.625,0,0,0,0-1.25Z"/>
  </g>
</svg>
