<svg id="b7fb9610-77d8-4630-a13c-c907f4b35e9b" data-name="Icon" xmlns="http://www.w3.org/2000/svg" viewBox="0 0 36 36">
  <g>
    <path d="M25.64,29C13.32,37.31-1.31,22.67,7,10.36a.62.62,0,1,0-1-.72c-6.83,9.53.43,23.15,12,23A14.53,14.53,0,0,0,26.36,30a.62.62,0,0,0-.72-1Z"/>
    <path d="M28.34,7.66a14.7,14.7,0,0,0-20.68,0,.61.61,0,0,0,0,.88l4,4A.62.62,0,0,0,12,13.62h.74l1.75,1.76H13a.62.62,0,0,0-.61.73l2,11a.61.61,0,0,0,.61.51h6a.61.61,0,0,0,.61-.51l.71-3.9,5.14,5.13a.63.63,0,0,0,.88,0A14.7,14.7,0,0,0,28.34,7.66ZM20.48,26.38h-5l-1.77-9.76h2l5.51,5.51Zm1-5.74-4-4h4.74ZM27.89,27l-5.29-5.3,1-5.6a.62.62,0,0,0-.61-.73H16.26l-1.75-1.76H24a.62.62,0,1,0,0-1.24H18.62V10.26l1.82-1.82c.58-.56-.32-1.47-.88-.88l-2,2a.6.6,0,0,0-.18.44v2.38H13.26L9,8.11C21.94-2.89,38.88,14.07,27.89,27Z"/>
  </g>
</svg>
