<svg id="ba77d82e-6ea0-42c2-ae51-a075a3db53a7" data-name="Icon" xmlns="http://www.w3.org/2000/svg" viewBox="0 0 36 36">
  <g>
    <path d="M25.64,29A13.38,13.38,0,0,1,7,10.36a.62.62,0,1,0-1-.72A14.63,14.63,0,0,0,26.36,30a.62.62,0,0,0-.72-1Z"/>
    <path d="M28.34,7.66a14.7,14.7,0,0,0-20.68,0,.63.63,0,0,0,0,.88l4.81,4.82c-.49.64-2,4.11-.47,4.26h4.74L18,18.88a2.19,2.19,0,0,0-1.56.65,1,1,0,0,1-1.52,0,2.25,2.25,0,0,0-3.15,0,1,1,0,0,1-.76.35.62.62,0,0,0,0,1.24,2.19,2.19,0,0,0,1.57-.65,1,1,0,0,1,1.53,0,2.25,2.25,0,0,0,3.15,0,1,1,0,0,1,1.52,0,2.22,2.22,0,0,0,1.46.64l1.26,1.27H12a.62.62,0,0,0-.62.62v2a.62.62,0,0,0,.62.62H24a.63.63,0,0,0,.49-.25l3,3a.61.61,0,0,0,.88,0A14.7,14.7,0,0,0,28.34,7.66ZM12.66,16.38a5.31,5.31,0,0,1,.73-2.11l2.1,2.11Zm1.5-3.11a5.38,5.38,0,0,1,9.18,3.11H17.26Zm9.22,11.11H12.62v-.76H22.74l.64.64ZM27.89,27l-3.27-3.27V23a.62.62,0,0,0-.62-.62h-.74L21.6,20.72a2.81,2.81,0,0,0,.31-.25,1,1,0,0,1,1.52,0,2.19,2.19,0,0,0,1.57.65.62.62,0,0,0,0-1.24,1,1,0,0,1-.76-.35,2.24,2.24,0,0,0-3.14,0,1.76,1.76,0,0,1-.41.28l-2.18-2.19H24a.62.62,0,0,0,.62-.62,6.64,6.64,0,0,0-11.36-4.62L9,8.11A13.38,13.38,0,0,1,27.89,27Z"/>
  </g>
</svg>
