<svg id="e831350b-00b7-4afc-ab46-70ee86159c84" data-name="Icon" xmlns="http://www.w3.org/2000/svg" viewBox="0 0 36 36">
  <g>
    <path d="M18,10.38a5.05,5.05,0,0,0-5.05,5,.63.63,0,1,0,1.25,0A3.8,3.8,0,1,1,20,18.66c-1.34.88-3.29,1.53-3.34,3.65a.63.63,0,0,0,1.25,0c-.11-1.15,1.7-1.92,2.78-2.61A5.06,5.06,0,0,0,18,10.38Z"/>
    <path d="M17.5,24.42A.63.63,0,0,0,17,25.58.63.63,0,0,0,17.5,24.42Z"/>
    <path d="M18,3.38A14.64,14.64,0,0,0,3.38,18c.8,19.4,28.44,19.4,29.25,0A14.65,14.65,0,0,0,18,3.38Zm0,28A13.39,13.39,0,0,1,4.62,18C5.36.26,30.64.26,31.38,18A13.39,13.39,0,0,1,18,31.38Z"/>
  </g>
</svg>
