<svg id="adec750a-e079-4da1-b435-717c6dcfeb5e" data-name="Icon" xmlns="http://www.w3.org/2000/svg" viewBox="0 0 36 36">
  <g>
    <path d="M14,27.38H7a1.64,1.64,0,0,1-1.39-2.47l3.18-5.29.63,2.53a.63.63,0,0,0,1.22-.3l-1-4a.63.63,0,0,0-.52-.47H8.85l-4,1A.63.63,0,0,0,5,19.62h.15L7.69,19l-3.18,5.3A2.89,2.89,0,0,0,7,28.62h7A.62.62,0,0,0,14,27.38Z"/>
    <path d="M22.68,13l-2.53-.64a.63.63,0,0,0-.3,1.22l4,1a.69.69,0,0,0,.47-.07.71.71,0,0,0,.29-.39l1-4a.63.63,0,0,0-1.22-.3l-.63,2.54-3.3-5.48a2.89,2.89,0,0,0-4.93,0l-4.07,6.77a.63.63,0,0,0,.22.86.62.62,0,0,0,.86-.22L16.6,7.55a1.63,1.63,0,0,1,2.79,0Z"/>
    <path d="M31.47,24.27l-4-6.59a.62.62,0,1,0-1.07.64l3.95,6.59A1.63,1.63,0,0,1,29,27.37H21.48l1.94-1.94c.58-.56-.32-1.47-.89-.88l-3,3a.63.63,0,0,0,0,.88l3,3a.63.63,0,0,0,.89-.88l-1.94-1.94H29A2.89,2.89,0,0,0,31.47,24.27Z"/>
  </g>
</svg>
