<svg id="b765cc8e-263e-4e43-b278-525d92e2c292" data-name="Layer 1" xmlns="http://www.w3.org/2000/svg" viewBox="0 0 36 36">
  <path d="M29,23.375A1.377,1.377,0,0,1,27.625,22V18A9.639,9.639,0,0,0,19.89,8.564,1.871,1.871,0,0,0,20.625,7a2.625,2.625,0,0,0-5.25,0,1.871,1.871,0,0,0,.735,1.564A9.639,9.639,0,0,0,8.375,18v4A1.377,1.377,0,0,1,7,23.375.625.625,0,0,0,6.375,24v3A.625.625,0,0,0,7,27.625h7.407a3.554,3.554,0,0,0-.032.375,3.625,3.625,0,0,0,7.25,0,3.555,3.555,0,0,0-.03-.375H29A.625.625,0,0,0,29.625,27V24A.625.625,0,0,0,29,23.375ZM18,5.625A1.375,1.375,0,1,1,16.625,7,1.377,1.377,0,0,1,18,5.625ZM20.375,28a2.375,2.375,0,0,1-4.75,0,2.331,2.331,0,0,1,.048-.375h4.664A2.325,2.325,0,0,1,20.375,28Zm8-1.625H7.625V24.55a2.631,2.631,0,0,0,2-2.55V18a8.375,8.375,0,0,1,16.75,0v4a2.631,2.631,0,0,0,2,2.55Z"/>
</svg>
