<svg id="bad993a2-f78d-4bc2-b31a-64c1e095a94d" data-name="Icon" xmlns="http://www.w3.org/2000/svg" viewBox="0 0 36 36">
  <g>
    <path d="M8,8.62H28a.62.62,0,1,0,0-1.24H21.56a3.62,3.62,0,0,0-7.12,0H8A.62.62,0,0,0,8,8.62Zm10-3a2.38,2.38,0,0,1,2.28,1.76H15.72A2.38,2.38,0,0,1,18,5.62Z"/>
    <path d="M18,27.62a.62.62,0,0,0,.62-.62V15a.62.62,0,0,0-1.24,0V27A.62.62,0,0,0,18,27.62Z"/>
    <path d="M13,27.62a.62.62,0,0,0,.62-.62V15a.62.62,0,0,0-1.24,0V27A.62.62,0,0,0,13,27.62Z"/>
    <path d="M23,27.62a.62.62,0,0,0,.62-.62V15a.62.62,0,0,0-1.24,0V27A.62.62,0,0,0,23,27.62Z"/>
    <path d="M28,10.38H8a.62.62,0,0,0,0,1.24h.38V31a.62.62,0,0,0,.62.62H27a.62.62,0,0,0,.62-.62V11.62H28A.62.62,0,0,0,28,10.38Zm-1.62,20H9.62V11.62H26.38Z"/>
  </g>
</svg>
