<svg id="a911b74f-6656-4b41-8581-1a46686faa58" data-name="Icon" xmlns="http://www.w3.org/2000/svg" viewBox="0 0 36 36">
  <path d="M27,23.62a.62.62,0,1,0-.62-.62A.61.61,0,0,0,27,23.62Z"/>
  <g>
    <path d="M31,17.38H5a.61.61,0,0,0-.62.62V28a.61.61,0,0,0,.62.62H31a.61.61,0,0,0,.62-.62V18A.61.61,0,0,0,31,17.38Zm-.62,10H5.62V18.62H30.38Z"/>
    <path d="M9,23.62h6a.62.62,0,0,0,0-1.24H9a.62.62,0,0,0,0,1.24Z"/>
    <path d="M17.56,15.44a.62.62,0,0,0,.88,0l3.6-3.6c.58-.56-.32-1.47-.88-.88l-2.54,2.53V6a.62.62,0,0,0-1.24,0v7.49L14.84,11c-.56-.58-1.46.32-.88.88Z"/>
  </g>
</svg>
