<svg id="acb3d76b-1839-4a4f-b737-b27e1c23d6de" data-name="Icon" xmlns="http://www.w3.org/2000/svg" viewBox="0 0 36 36">
  <g>
    <path d="M9,24.62h1a.62.62,0,0,0,0-1.24H9a.62.62,0,0,0,0,1.24Z"/>
    <path d="M14.62,24a.61.61,0,0,0-.62-.62H13a.62.62,0,1,0,0,1.24h1A.61.61,0,0,0,14.62,24Z"/>
    <path d="M21,24.62h1a.62.62,0,0,0,0-1.24H21a.62.62,0,0,0,0,1.24Z"/>
    <path d="M14,21.62h1a.62.62,0,0,0,0-1.24H14a.62.62,0,1,0,0,1.24Z"/>
    <path d="M11,20.38H9a.62.62,0,0,0,0,1.24h2a.62.62,0,1,0,0-1.24Z"/>
    <path d="M22,21.62h1a.62.62,0,0,0,0-1.24H22a.62.62,0,0,0,0,1.24Z"/>
    <path d="M17,24.62h1a.62.62,0,0,0,0-1.24H17a.62.62,0,0,0,0,1.24Z"/>
    <path d="M17.38,21a.61.61,0,0,0,.62.62h1a.62.62,0,0,0,0-1.24H18A.61.61,0,0,0,17.38,21Z"/>
    <path d="M25,24.62h2a.62.62,0,0,0,0-1.24H25a.62.62,0,0,0,0,1.24Z"/>
    <path d="M27,26.38H26a.62.62,0,0,0,0,1.24h1a.62.62,0,0,0,0-1.24Z"/>
    <path d="M11,26.38H9a.62.62,0,1,0,0,1.24h2a.62.62,0,0,0,0-1.24Z"/>
    <path d="M26,21.62h1a.62.62,0,0,0,0-1.24H26a.62.62,0,0,0,0,1.24Z"/>
    <path d="M23,26.38H14a.62.62,0,1,0,0,1.24h9a.62.62,0,0,0,0-1.24Z"/>
    <path d="M31,16.38H18.51V15a2.63,2.63,0,0,0-2.62-2.62h-5a1.38,1.38,0,1,1,0-2.75h14a2.63,2.63,0,0,0,0-5.25h-7a.63.63,0,1,0,0,1.25h7a1.38,1.38,0,0,1,0,2.75h-14a2.63,2.63,0,1,0,0,5.25h5A1.37,1.37,0,0,1,17.26,15v1.38H5a.62.62,0,0,0-.62.62V31a.62.62,0,0,0,.62.63H31a.62.62,0,0,0,.62-.63V17A.62.62,0,0,0,31,16.38Zm-.62,14H5.62V17.63H30.38Z"/>
  </g>
</svg>
