<svg id="a438fb60-0344-4295-a266-38fff8202251" data-name="Icon" xmlns="http://www.w3.org/2000/svg" viewBox="0 0 36 36">
  <path d="M25,22.62a.62.62,0,1,0-.62-.62A.61.61,0,0,0,25,22.62Z"/>
  <path d="M11,22.62a.62.62,0,1,0-.62-.62A.61.61,0,0,0,11,22.62Z"/>
  <g>
    <path d="M31,30.38H5a.62.62,0,1,0,0,1.24H31a.62.62,0,0,0,0-1.24Z"/>
    <path d="M6,27.62H16a.62.62,0,0,0,.62-.62V5A.62.62,0,0,0,16,4.38H6A.62.62,0,0,0,5.38,5V27A.62.62,0,0,0,6,27.62Zm.62-22h8.76V26.38H6.62Z"/>
    <path d="M20,27.62H30a.62.62,0,0,0,.62-.62V5A.62.62,0,0,0,30,4.38H20a.62.62,0,0,0-.62.62V27A.62.62,0,0,0,20,27.62Zm.62-22h8.76V26.38H20.62Z"/>
    <path d="M13,11.38H9a.62.62,0,0,0,0,1.24h4a.62.62,0,0,0,0-1.24Z"/>
    <path d="M13,8.38H9A.62.62,0,0,0,9,9.62h4a.62.62,0,0,0,0-1.24Z"/>
    <path d="M27,11.38H23a.62.62,0,0,0,0,1.24h4a.62.62,0,1,0,0-1.24Z"/>
    <path d="M27,8.38H23a.62.62,0,1,0,0,1.24h4a.62.62,0,1,0,0-1.24Z"/>
  </g>
</svg>
