<svg id="f2a5669c-6129-4130-9ab0-6dd97f7f245a" data-name="Icon" xmlns="http://www.w3.org/2000/svg" viewBox="0 0 36 36">
  <path d="M27,18.62a.62.62,0,1,0-.62-.62A.61.61,0,0,0,27,18.62Z"/>
  <g>
    <path d="M31,12.38H5a.61.61,0,0,0-.62.62V23a.61.61,0,0,0,.62.62H31a.61.61,0,0,0,.62-.62V13A.61.61,0,0,0,31,12.38Zm-.62,10H5.62V13.62H30.38Z"/>
    <path d="M9,20.62A.61.61,0,0,0,9.62,20V16a.62.62,0,0,0-1.24,0v4A.61.61,0,0,0,9,20.62Z"/>
    <path d="M12,20.62a.61.61,0,0,0,.62-.62V16a.62.62,0,0,0-1.24,0v4A.61.61,0,0,0,12,20.62Z"/>
    <path d="M15,20.62a.61.61,0,0,0,.62-.62V16a.62.62,0,0,0-1.24,0v4A.61.61,0,0,0,15,20.62Z"/>
    <path d="M18,20.62a.61.61,0,0,0,.62-.62V16a.62.62,0,0,0-1.24,0v4A.61.61,0,0,0,18,20.62Z"/>
  </g>
</svg>
