<svg id="ae0cd407-e859-43b4-b9c0-779056d8e21a" data-name="Icon" xmlns="http://www.w3.org/2000/svg" viewBox="0 0 36 36">
  <g>
    <path d="M31,12.38H5a.63.63,0,0,0-.63.62V23a.63.63,0,0,0,.63.62H31a.62.62,0,0,0,.62-.62V13A.62.62,0,0,0,31,12.38Zm-.63,10H5.62V13.62H30.37Z"/>
    <path d="M9,20.62A.62.62,0,0,0,9.62,20V16A.62.62,0,0,0,9,15.38a.63.63,0,0,0-.63.62v4A.63.63,0,0,0,9,20.62Z"/>
    <path d="M12,20.62a.62.62,0,0,0,.62-.62V16a.62.62,0,0,0-.62-.62.63.63,0,0,0-.63.62v4A.63.63,0,0,0,12,20.62Z"/>
    <path d="M15,20.62a.62.62,0,0,0,.62-.62V16a.62.62,0,0,0-.62-.62.63.63,0,0,0-.63.62v4A.63.63,0,0,0,15,20.62Z"/>
    <path d="M18,20.62a.62.62,0,0,0,.62-.62V16a.62.62,0,0,0-.62-.62.63.63,0,0,0-.63.62v4A.63.63,0,0,0,18,20.62Z"/>
    <path d="M14.9,24.89a.63.63,0,1,0,.62.62A.63.63,0,0,0,14.9,24.89Z"/>
    <path d="M18,24.89a.63.63,0,1,0,0,1.25.63.63,0,1,0,0-1.25Z"/>
    <path d="M8.7,24.89a.63.63,0,1,0,.62.62A.63.63,0,0,0,8.7,24.89Z"/>
    <path d="M5.6,24.89a.63.63,0,1,0,.62.62A.63.63,0,0,0,5.6,24.89Z"/>
    <path d="M11.8,24.89a.63.63,0,1,0,.62.62A.63.63,0,0,0,11.8,24.89Z"/>
    <path d="M21.1,24.89a.63.63,0,1,0,.63.62A.62.62,0,0,0,21.1,24.89Z"/>
    <path d="M24.2,24.89a.63.63,0,1,0,.63.62A.62.62,0,0,0,24.2,24.89Z"/>
    <path d="M30.4,24.89a.63.63,0,1,0,.63.62A.62.62,0,0,0,30.4,24.89Z"/>
    <path d="M27.3,24.89a.63.63,0,1,0,.63.62A.62.62,0,0,0,27.3,24.89Z"/>
    <path d="M2.5,18.88a.63.63,0,1,0,.62.62A.63.63,0,0,0,2.5,18.88Z"/>
    <path d="M2.5,21.88a.63.63,0,1,0,.62.63A.63.63,0,0,0,2.5,21.88Z"/>
    <path d="M2.5,12.87a.63.63,0,1,0,.62.62A.63.63,0,0,0,2.5,12.87Z"/>
    <path d="M2.5,15.87a.63.63,0,1,0,.62.63A.63.63,0,0,0,2.5,15.87Z"/>
    <path d="M11.8,11.11a.63.63,0,1,0-.63-.62A.62.62,0,0,0,11.8,11.11Z"/>
    <path d="M18,11.11a.63.63,0,1,0-.63-.62A.63.63,0,0,0,18,11.11Z"/>
    <path d="M14.9,11.11a.63.63,0,1,0-.63-.62A.62.62,0,0,0,14.9,11.11Z"/>
    <path d="M21.1,11.11a.63.63,0,1,0-.62-.62A.63.63,0,0,0,21.1,11.11Z"/>
    <path d="M24.2,11.11a.63.63,0,1,0,0-1.25.63.63,0,0,0,0,1.25Z"/>
    <path d="M8.7,11.11a.63.63,0,1,0-.63-.62A.62.62,0,0,0,8.7,11.11Z"/>
    <path d="M27.3,11.11a.63.63,0,1,0-.62-.62A.63.63,0,0,0,27.3,11.11Z"/>
    <path d="M30.4,11.11a.63.63,0,1,0-.62-.62A.63.63,0,0,0,30.4,11.11Z"/>
    <path d="M5.6,11.11A.63.63,0,1,0,5,10.49.62.62,0,0,0,5.6,11.11Z"/>
    <path d="M33.5,21.88a.63.63,0,1,0,.63.63A.63.63,0,0,0,33.5,21.88Z"/>
    <path d="M33.5,12.87a.63.63,0,1,0,.63.62A.62.62,0,0,0,33.5,12.87Z"/>
    <path d="M33.5,18.88a.62.62,0,0,0-.62.62.63.63,0,1,0,1.25,0A.62.62,0,0,0,33.5,18.88Z"/>
    <path d="M33.5,15.87a.63.63,0,1,0,.63.63A.63.63,0,0,0,33.5,15.87Z"/>
    <path d="M33.5,9.86a.63.63,0,1,0,.63.62A.62.62,0,0,0,33.5,9.86Z"/>
    <path d="M2.49,9.86a.63.63,0,1,0,.63.62A.62.62,0,0,0,2.49,9.86Z"/>
    <path d="M2.49,24.89a.63.63,0,1,0,.63.62A.62.62,0,0,0,2.49,24.89Z"/>
    <path d="M33.5,24.89a.63.63,0,1,0,.63.62A.62.62,0,0,0,33.5,24.89Z"/>
    <path d="M27,17.37a.63.63,0,1,0,.63.62A.62.62,0,0,0,27,17.37Z"/>
  </g>
</svg>
