<svg id="f65f9621-3605-4e13-9961-3c75acada615" data-name="Icon" xmlns="http://www.w3.org/2000/svg" viewBox="0 0 36 36">
  <path d="M27,10.62a.62.62,0,1,0-.62-.62A.61.61,0,0,0,27,10.62Z"/>
  <path d="M27,18.62a.62.62,0,1,0-.62-.62A.61.61,0,0,0,27,18.62Z"/>
  <g>
    <path d="M23,30.38H5.62V5.62H30.38V22a.62.62,0,0,0,1.24,0V5A.62.62,0,0,0,31,4.38H5A.62.62,0,0,0,4.38,5V31a.62.62,0,0,0,.62.62H23a.62.62,0,0,0,0-1.24Z"/>
    <path d="M15,9.38H9a.62.62,0,0,0,0,1.24h6a.62.62,0,0,0,0-1.24Z"/>
    <path d="M15,25.38H9a.62.62,0,1,0,0,1.24h6a.62.62,0,0,0,0-1.24Z"/>
    <path d="M15,17.38H9a.62.62,0,0,0,0,1.24h6a.62.62,0,0,0,0-1.24Z"/>
    <path d="M24.38,28A3.63,3.63,0,0,0,28,31.63a3.43,3.43,0,0,0,1.28-.25l-4.9-4.9Z"/>
    <path d="M31.72,30.29l-.55-.56A3.6,3.6,0,0,0,31.63,28V24.55a.62.62,0,0,0-.5-.61l-3-.64a.57.57,0,0,0-.26,0l-2.59.55-.38-.38a.62.62,0,0,0-.88.88l.36.36h0l6,6h0l.45.45a.66.66,0,0,0,.45.18.62.62,0,0,0,.44-.18A.63.63,0,0,0,31.72,30.29Z"/>
  </g>
</svg>
