<svg id="bca3d330-6974-47bd-8f7f-77dbca1aed9d" data-name="Icon" xmlns="http://www.w3.org/2000/svg" viewBox="0 0 36 36">
  <path d="M27,10.62a.62.62,0,1,0-.62-.62A.61.61,0,0,0,27,10.62Z"/>
  <path d="M27,18.62a.62.62,0,1,0-.62-.62A.61.61,0,0,0,27,18.62Z"/>
  <g>
    <path d="M31,4.38H5A.62.62,0,0,0,4.38,5V31a.62.62,0,0,0,.62.62H23a.62.62,0,0,0,0-1.24H5.62V5.62H30.38V22a.62.62,0,0,0,1.24,0V5A.62.62,0,0,0,31,4.38Z"/>
    <path d="M15,9.38H9a.62.62,0,0,0,0,1.24h6a.62.62,0,0,0,0-1.24Z"/>
    <path d="M15,25.38H9a.62.62,0,1,0,0,1.24h6a.62.62,0,0,0,0-1.24Z"/>
    <path d="M15,17.38H9a.62.62,0,0,0,0,1.24h6a.62.62,0,0,0,0-1.24Z"/>
    <path d="M31.13,23.94l-3-.64a.57.57,0,0,0-.26,0l-3,.64a.61.61,0,0,0-.49.61V28a3.62,3.62,0,0,0,7.24,0V24.55A.61.61,0,0,0,31.13,23.94Z"/>
  </g>
</svg>
