<svg id="a78350aa-3e6a-45dc-9baa-035bc8683101" data-name="Layer 1" xmlns="http://www.w3.org/2000/svg" viewBox="0 0 36 36">
  <defs>
    <style>
      .f1135fcb-2a9d-4ef3-a31a-08281cd27864 {
        fill: #e00;
      }
    </style>
  </defs>
  <g>
    <circle cx="27" cy="19.999" r="0.625"/>
    <path class="f1135fcb-2a9d-4ef3-a31a-08281cd27864" d="M31,11.625H5a.625.625,0,0,1,0-1.25H31a.625.625,0,0,1,0,1.25Z"/>
    <g>
      <path d="M31,25.625H5A.625.625,0,0,1,4.375,25V15A.625.625,0,0,1,5,14.375H31a.625.625,0,0,1,.625.625V25A.625.625,0,0,1,31,25.625ZM5.625,24.375h24.75v-8.75H5.625Z"/>
      <path d="M15,20.625H9a.625.625,0,0,1,0-1.25h6a.625.625,0,0,1,0,1.25Z"/>
    </g>
  </g>
</svg>
