<svg id="bd015412-59ef-42de-8ac0-c9eae95b46e9" data-name="Icon" xmlns="http://www.w3.org/2000/svg" viewBox="0 0 36 36">
  <path d="M27,18.62a.62.62,0,1,0-.62-.62A.61.61,0,0,0,27,18.62Z"/>
  <g>
    <path d="M23,22.38H5.62V13.62H30.38V18a.62.62,0,0,0,1.24,0V13a.61.61,0,0,0-.62-.62H5a.61.61,0,0,0-.62.62V23a.61.61,0,0,0,.62.62H23a.62.62,0,0,0,0-1.24Z"/>
    <path d="M9,17.38a.62.62,0,0,0,0,1.24h6a.62.62,0,0,0,0-1.24Z"/>
    <path d="M25.37,24.45a3.61,3.61,0,0,0,4.91,3.39l-4.91-4.9Z"/>
    <path d="M32.71,26.74l-.55-.55a3.56,3.56,0,0,0,.46-1.74V21a.62.62,0,0,0-.49-.61l-3-.64a.57.57,0,0,0-.26,0l-2.59.55-.38-.38a.64.64,0,0,0-.89,0,.63.63,0,0,0,0,.88l.36.37h0l6,6h0l.45.45a.6.6,0,0,0,.88,0A.61.61,0,0,0,32.71,26.74Z"/>
  </g>
</svg>
