<svg id="a663804b-7de7-4b1c-92c3-171337865e66" data-name="Icon" xmlns="http://www.w3.org/2000/svg" viewBox="0 0 36 36">
  <path d="M27,18.62a.62.62,0,1,0-.62-.62A.61.61,0,0,0,27,18.62Z"/>
  <g>
    <path d="M23,22.38H5.62V13.62H30.38V18a.62.62,0,0,0,1.24,0V13a.61.61,0,0,0-.62-.62H5a.61.61,0,0,0-.62.62V23a.61.61,0,0,0,.62.62H23a.62.62,0,0,0,0-1.24Z"/>
    <path d="M9,17.38a.62.62,0,0,0,0,1.24h6a.62.62,0,0,0,0-1.24Z"/>
    <path d="M32.13,20.39l-3-.64a.57.57,0,0,0-.26,0l-3,.64a.62.62,0,0,0-.49.61v3.45a3.62,3.62,0,1,0,7.24,0V21A.62.62,0,0,0,32.13,20.39Z"/>
  </g>
</svg>
