<svg id="eda892a0-aa2f-4e22-bc36-b4b4632c19ba" data-name="Icon" xmlns="http://www.w3.org/2000/svg" viewBox="0 0 36 36">
  <path d="M27,26.62a.62.62,0,1,0-.62-.62A.61.61,0,0,0,27,26.62Z"/>
  <path d="M27,18.62a.62.62,0,1,0-.62-.62A.61.61,0,0,0,27,18.62Z"/>
  <path d="M27,10.62a.62.62,0,1,0-.62-.62A.61.61,0,0,0,27,10.62Z"/>
  <g>
    <path d="M31,4.38H5A.61.61,0,0,0,4.38,5V31a.61.61,0,0,0,.62.62H31a.61.61,0,0,0,.62-.62V5A.61.61,0,0,0,31,4.38Zm-.62,26H5.62V5.62H30.38Z"/>
    <path d="M9,10.62h6a.62.62,0,0,0,0-1.24H9a.62.62,0,0,0,0,1.24Z"/>
    <path d="M9,26.62h6a.62.62,0,0,0,0-1.24H9a.62.62,0,1,0,0,1.24Z"/>
    <path d="M9,18.62h6a.62.62,0,0,0,0-1.24H9a.62.62,0,0,0,0,1.24Z"/>
  </g>
</svg>
