<svg id="aae1359e-2188-43eb-b7c3-0b78f9f2eb9e" data-name="Icon" xmlns="http://www.w3.org/2000/svg" viewBox="0 0 36 36">
  <path d="M15.86,16.52a.62.62,0,1,0-.62-.62A.61.61,0,0,0,15.86,16.52Z"/>
  <path d="M15.86,20.74a.62.62,0,1,0-.62-.62A.61.61,0,0,0,15.86,20.74Z"/>
  <path d="M20.12,20.74a.62.62,0,1,0-.62-.62A.61.61,0,0,0,20.12,20.74Z"/>
  <path d="M20.12,16.52a.62.62,0,1,0-.62-.62A.61.61,0,0,0,20.12,16.52Z"/>
  <g>
    <path d="M22.58,9.43l-1-4.56A.73.73,0,0,0,21,4.39H15a.67.67,0,0,0-.59.49l-1,4.56a3.62,3.62,0,0,0-3,3.57V23a3.62,3.62,0,0,0,3,3.57l1,4.56a.65.65,0,0,0,.61.49h6a.59.59,0,0,0,.61-.5l1-4.56a3.62,3.62,0,0,0,3-3.57V13A3.62,3.62,0,0,0,22.58,9.43ZM15.51,5.62h5l.8,3.76H14.71Zm5,24.76h-5l-.8-3.76h6.58ZM24.38,23A2.39,2.39,0,0,1,22,25.38H14A2.39,2.39,0,0,1,11.62,23V13A2.39,2.39,0,0,1,14,10.62h8A2.39,2.39,0,0,1,24.38,13Z"/>
    <path d="M27,14.38a.62.62,0,0,0-.62.62v3a.62.62,0,0,0,1.24,0V15A.62.62,0,0,0,27,14.38Z"/>
    <path d="M21,17.34a.63.63,0,0,0-.62.63s0,0,0,0h0a.62.62,0,0,0,.63.62.61.61,0,0,0,.62-.62v0s0,0,0,0A.61.61,0,0,0,21,17.34Z"/>
    <path d="M15.63,18a.64.64,0,0,0-.63-.62.63.63,0,1,0,.63.62Z"/>
    <path d="M18,20.37a.64.64,0,0,0-.63.63.63.63,0,1,0,.63-.63Z"/>
    <path d="M18,15.63A.64.64,0,0,0,18.6,15a.62.62,0,0,0-.63-.61.62.62,0,0,0-.62.62A.63.63,0,0,0,18,15.63Z"/>
  </g>
</svg>
