<svg id="ac1f605d-451f-4b60-b83e-4d853f969bf5" data-name="Icon" xmlns="http://www.w3.org/2000/svg" viewBox="0 0 36 36">
  <g>
    <path d="M31,4.38H5A.61.61,0,0,0,4.38,5V31a.61.61,0,0,0,.62.62H23a.62.62,0,0,0,0-1.24H5.62V5.62H30.38V22a.62.62,0,0,0,1.24,0V5A.61.61,0,0,0,31,4.38Z"/>
    <path d="M15,9.38H9a.62.62,0,0,0,0,1.24h6a.62.62,0,0,0,0-1.24Z"/>
    <path d="M15,25.38H9a.62.62,0,1,0,0,1.24h6a.62.62,0,0,0,0-1.24Z"/>
    <path d="M15,17.38H9a.62.62,0,0,0,0,1.24h6a.62.62,0,0,0,0-1.24Z"/>
    <path d="M31.13,23.94l-3-.64a.57.57,0,0,0-.26,0l-3,.64a.61.61,0,0,0-.49.61V28a3.62,3.62,0,0,0,7.24,0V24.55A.61.61,0,0,0,31.13,23.94Z"/>
    <path d="M18,32.88a.63.63,0,0,0-.63.62.63.63,0,0,0,.63.62.62.62,0,0,0,.62-.62A.61.61,0,0,0,18,32.88Z"/>
    <path d="M14.9,32.88a.63.63,0,0,0-.63.62.63.63,0,0,0,.63.62.63.63,0,0,0,.63-.62A.62.62,0,0,0,14.9,32.88Z"/>
    <path d="M11.8,32.88a.63.63,0,0,0-.63.62.63.63,0,0,0,.63.62.63.63,0,0,0,.63-.62A.62.62,0,0,0,11.8,32.88Z"/>
    <path d="M5.6,32.88A.62.62,0,0,0,5,33.5a.63.63,0,0,0,.63.62.63.63,0,0,0,.63-.62A.63.63,0,0,0,5.6,32.88Z"/>
    <path d="M8.7,32.88a.62.62,0,0,0-.63.62.63.63,0,0,0,.63.62.63.63,0,0,0,.63-.62A.63.63,0,0,0,8.7,32.88Z"/>
    <path d="M27.3,32.88a.63.63,0,0,0-.63.62.63.63,0,0,0,.63.62.62.62,0,0,0,.62-.62A.61.61,0,0,0,27.3,32.88Z"/>
    <path d="M30.4,32.88a.63.63,0,0,0-.63.62.63.63,0,0,0,.63.62A.62.62,0,0,0,31,33.5.61.61,0,0,0,30.4,32.88Z"/>
    <path d="M24.2,32.88a.62.62,0,0,0-.63.62.63.63,0,0,0,.63.62.62.62,0,0,0,.62-.62A.61.61,0,0,0,24.2,32.88Z"/>
    <path d="M21.1,32.88a.63.63,0,0,0-.63.62.63.63,0,0,0,.63.62.62.62,0,0,0,.62-.62A.61.61,0,0,0,21.1,32.88Z"/>
    <path d="M2.5,15.52a.61.61,0,0,0,.62-.62.62.62,0,0,0-.62-.62.62.62,0,0,0-.62.62A.62.62,0,0,0,2.5,15.52Z"/>
    <path d="M2.5,12.43a.63.63,0,0,0,.62-.63.62.62,0,0,0-.62-.63.63.63,0,0,0-.62.63A.63.63,0,0,0,2.5,12.43Z"/>
    <path d="M2.5,6.22a.61.61,0,0,0,.62-.62A.62.62,0,0,0,2.5,5a.62.62,0,0,0-.62.62A.62.62,0,0,0,2.5,6.22Z"/>
    <path d="M2.5,9.32a.62.62,0,0,0,.62-.62.61.61,0,0,0-.62-.62.62.62,0,0,0-.62.62A.62.62,0,0,0,2.5,9.32Z"/>
    <path d="M2.5,18.62a.63.63,0,0,0,0-1.25.63.63,0,0,0,0,1.25Z"/>
    <path d="M2.5,27.92a.61.61,0,0,0,.62-.62.62.62,0,0,0-.62-.62.62.62,0,0,0-.62.62A.62.62,0,0,0,2.5,27.92Z"/>
    <path d="M2.5,31a.63.63,0,0,0,.62-.63.62.62,0,0,0-.62-.63.63.63,0,0,0-.62.63A.63.63,0,0,0,2.5,31Z"/>
    <path d="M2.5,24.83a.62.62,0,0,0,.62-.63.63.63,0,0,0-.62-.63.63.63,0,0,0-.62.63A.63.63,0,0,0,2.5,24.83Z"/>
    <path d="M2.5,21.73a.63.63,0,0,0,.62-.63.62.62,0,0,0-.62-.63.63.63,0,0,0-.62.63A.63.63,0,0,0,2.5,21.73Z"/>
    <path d="M30.4,3.13A.62.62,0,0,0,31,2.5a.63.63,0,0,0-.62-.63.64.64,0,0,0-.63.63A.63.63,0,0,0,30.4,3.13Z"/>
    <path d="M24.2,3.13a.62.62,0,0,0,.62-.63.63.63,0,0,0-.62-.63.63.63,0,0,0-.63.63A.63.63,0,0,0,24.2,3.13Z"/>
    <path d="M21.1,3.13a.62.62,0,0,0,.62-.63.63.63,0,0,0-.62-.63.64.64,0,0,0-.63.63A.63.63,0,0,0,21.1,3.13Z"/>
    <path d="M27.3,3.13a.62.62,0,0,0,.62-.63.63.63,0,0,0-.62-.63.64.64,0,0,0-.63.63A.63.63,0,0,0,27.3,3.13Z"/>
    <path d="M14.9,3.13a.63.63,0,0,0,.63-.63.63.63,0,0,0-.63-.63.64.64,0,0,0-.63.63A.63.63,0,0,0,14.9,3.13Z"/>
    <path d="M5.6,3.13a.63.63,0,0,0,.63-.63.64.64,0,0,0-.63-.63A.63.63,0,0,0,5,2.5.62.62,0,0,0,5.6,3.13Z"/>
    <path d="M18,3.13a.63.63,0,0,0,.63-.63A.63.63,0,0,0,18,1.87a.64.64,0,0,0-.63.63A.63.63,0,0,0,18,3.13Z"/>
    <path d="M8.7,3.13a.63.63,0,0,0,.63-.63.64.64,0,0,0-.63-.63.63.63,0,0,0-.63.63A.63.63,0,0,0,8.7,3.13Z"/>
    <path d="M11.8,3.13a.63.63,0,0,0,.63-.63.63.63,0,0,0-.63-.63.64.64,0,0,0-.63.63A.63.63,0,0,0,11.8,3.13Z"/>
    <path d="M33.5,12.43a.63.63,0,0,0,.62-.63.62.62,0,0,0-1.24,0A.63.63,0,0,0,33.5,12.43Z"/>
    <path d="M33.5,9.32a.63.63,0,1,0-.62-.62A.62.62,0,0,0,33.5,9.32Z"/>
    <path d="M33.5,6.23a.63.63,0,0,0,.62-.63.62.62,0,1,0-1.24,0A.63.63,0,0,0,33.5,6.23Z"/>
    <path d="M33.5,15.52a.62.62,0,0,0,.62-.62.62.62,0,1,0-1.24,0A.62.62,0,0,0,33.5,15.52Z"/>
    <path d="M33.5,18.63a.63.63,0,1,0-.62-.63A.63.63,0,0,0,33.5,18.63Z"/>
    <path d="M33.5,27.93a.63.63,0,1,0-.62-.63A.63.63,0,0,0,33.5,27.93Z"/>
    <path d="M33.5,31a.63.63,0,0,0,.62-.63.62.62,0,0,0-1.24,0A.63.63,0,0,0,33.5,31Z"/>
    <path d="M33.5,24.82a.62.62,0,0,0,.62-.62.62.62,0,1,0-1.24,0A.62.62,0,0,0,33.5,24.82Z"/>
    <path d="M33.5,21.73a.63.63,0,0,0,.62-.63.62.62,0,0,0-1.24,0A.63.63,0,0,0,33.5,21.73Z"/>
  </g>
  <path d="M27,17.37a.62.62,0,0,0-.62.63.63.63,0,0,0,.62.63.64.64,0,0,0,.63-.63A.63.63,0,0,0,27,17.37Z"/>
  <path d="M27,9.37a.62.62,0,0,0-.62.63.63.63,0,0,0,.62.63.64.64,0,0,0,.63-.63A.63.63,0,0,0,27,9.37Z"/>
  <path d="M2.5,3.13a.63.63,0,1,0-.63-.62A.62.62,0,0,0,2.5,3.13Z"/>
  <path d="M2.49,32.88a.62.62,0,1,0,0,1.24.62.62,0,1,0,0-1.24Z"/>
  <path d="M33.5,32.87a.63.63,0,0,0,0,1.26.63.63,0,0,0,0-1.26Z"/>
  <path d="M33.49,3.12a.63.63,0,0,0,.63-.62.63.63,0,0,0-.63-.62.62.62,0,0,0-.62.62A.61.61,0,0,0,33.49,3.12Z"/>
</svg>
