<svg id="afd7eb3f-d4b0-41f4-9c4a-5a156398987f" data-name="Icon" xmlns="http://www.w3.org/2000/svg" viewBox="0 0 36 36">
  <g>
    <path d="M27,25.37a.62.62,0,0,0-.62.63.63.63,0,0,0,.62.63.64.64,0,0,0,.63-.63A.63.63,0,0,0,27,25.37Z"/>
    <path d="M27,17.37a.62.62,0,0,0-.62.63.63.63,0,0,0,.62.63.64.64,0,0,0,.63-.63A.63.63,0,0,0,27,17.37Z"/>
    <path d="M27,9.37a.62.62,0,0,0-.62.63.63.63,0,0,0,.62.63.64.64,0,0,0,.63-.63A.63.63,0,0,0,27,9.37Z"/>
    <path d="M2.5,3.13a.63.63,0,1,0-.63-.62A.62.62,0,0,0,2.5,3.13Z"/>
    <path d="M2.49,32.88a.62.62,0,1,0,0,1.24.62.62,0,1,0,0-1.24Z"/>
    <path d="M33.5,32.87a.63.63,0,0,0,0,1.26.63.63,0,0,0,0-1.26Z"/>
    <path d="M33.49,3.12a.63.63,0,0,0,.63-.62.63.63,0,0,0-.63-.62.62.62,0,0,0-.62.62A.61.61,0,0,0,33.49,3.12Z"/>
    <path d="M31,4.38H5A.61.61,0,0,0,4.38,5V31a.61.61,0,0,0,.62.62H31a.61.61,0,0,0,.62-.62V5A.61.61,0,0,0,31,4.38Zm-.62,26H5.62V5.62H30.38Z"/>
    <path d="M9,10.62h6a.62.62,0,0,0,0-1.24H9a.62.62,0,0,0,0,1.24Z"/>
    <path d="M9,26.62h6a.62.62,0,0,0,0-1.24H9a.62.62,0,1,0,0,1.24Z"/>
    <path d="M9,18.62h6a.62.62,0,0,0,0-1.24H9a.62.62,0,0,0,0,1.24Z"/>
    <path d="M21.1,32.88a.62.62,0,1,0,0,1.24.62.62,0,1,0,0-1.24Z"/>
    <path d="M24.2,32.88a.62.62,0,1,0,.62.62A.61.61,0,0,0,24.2,32.88Z"/>
    <path d="M27.3,32.88a.62.62,0,1,0,0,1.24.62.62,0,0,0,0-1.24Z"/>
    <path d="M30.4,32.88a.62.62,0,0,0,0,1.24.62.62,0,1,0,0-1.24Z"/>
    <path d="M8.7,32.88a.62.62,0,1,0,.62.62A.61.61,0,0,0,8.7,32.88Z"/>
    <path d="M14.9,32.88a.62.62,0,1,0,0,1.24.62.62,0,1,0,0-1.24Z"/>
    <path d="M11.8,32.88a.62.62,0,1,0,0,1.24.62.62,0,1,0,0-1.24Z"/>
    <path d="M5.6,32.88a.62.62,0,0,0,0,1.24.62.62,0,1,0,0-1.24Z"/>
    <path d="M18,32.88a.62.62,0,1,0,0,1.24.62.62,0,0,0,0-1.24Z"/>
    <path d="M2.5,31a.63.63,0,0,0,.62-.63.63.63,0,0,0-1.25,0A.63.63,0,0,0,2.5,31Z"/>
    <path d="M2.5,21.72a.63.63,0,1,0-.63-.62A.62.62,0,0,0,2.5,21.72Z"/>
    <path d="M2.5,12.42a.63.63,0,1,0-.63-.62A.62.62,0,0,0,2.5,12.42Z"/>
    <path d="M2.5,15.52a.63.63,0,1,0-.63-.62A.62.62,0,0,0,2.5,15.52Z"/>
    <path d="M2.5,6.22a.63.63,0,1,0-.63-.62A.62.62,0,0,0,2.5,6.22Z"/>
    <path d="M2.5,24.82a.63.63,0,1,0-.63-.62A.62.62,0,0,0,2.5,24.82Z"/>
    <path d="M2.5,18.62A.63.63,0,1,0,1.87,18,.62.62,0,0,0,2.5,18.62Z"/>
    <path d="M2.5,27.92a.63.63,0,1,0-.63-.62A.62.62,0,0,0,2.5,27.92Z"/>
    <path d="M2.5,9.32a.63.63,0,1,0-.63-.62A.62.62,0,0,0,2.5,9.32Z"/>
    <path d="M11.8,3.12a.62.62,0,0,0,.62-.62.62.62,0,0,0-.62-.62.63.63,0,0,0-.63.62A.63.63,0,0,0,11.8,3.12Z"/>
    <path d="M14.9,3.12a.63.63,0,0,0,.63-.62.63.63,0,0,0-.63-.62.62.62,0,0,0-.62.62A.61.61,0,0,0,14.9,3.12Z"/>
    <path d="M18,3.12a.61.61,0,0,0,.62-.62A.62.62,0,0,0,18,1.88a.62.62,0,0,0-.62.62A.62.62,0,0,0,18,3.12Z"/>
    <path d="M5.6,3.12a.63.63,0,0,0,.63-.62.63.63,0,0,0-.63-.62A.62.62,0,0,0,5,2.5.62.62,0,0,0,5.6,3.12Z"/>
    <path d="M8.7,3.12a.61.61,0,0,0,.62-.62.62.62,0,1,0-1.24,0A.61.61,0,0,0,8.7,3.12Z"/>
    <path d="M21.1,3.12a.63.63,0,0,0,.63-.62.63.63,0,0,0-.63-.62.62.62,0,0,0-.62.62A.61.61,0,0,0,21.1,3.12Z"/>
    <path d="M27.3,3.12a.62.62,0,0,0,.62-.62.62.62,0,0,0-.62-.62.63.63,0,0,0-.63.62A.63.63,0,0,0,27.3,3.12Z"/>
    <path d="M30.4,3.12A.63.63,0,0,0,31,2.5a.63.63,0,0,0-.63-.62.62.62,0,0,0-.62.62A.61.61,0,0,0,30.4,3.12Z"/>
    <path d="M24.2,3.12a.61.61,0,0,0,.62-.62.62.62,0,0,0-1.24,0A.61.61,0,0,0,24.2,3.12Z"/>
    <path d="M33.5,26.67a.63.63,0,0,0,0,1.26.63.63,0,0,0,0-1.26Z"/>
    <path d="M33.5,5a.63.63,0,0,0,0,1.26A.63.63,0,0,0,33.5,5Z"/>
    <path d="M33.5,29.77a.63.63,0,0,0,0,1.26.63.63,0,0,0,0-1.26Z"/>
    <path d="M33.5,23.57a.62.62,0,0,0-.62.63.63.63,0,0,0,.62.63.64.64,0,0,0,.63-.63A.63.63,0,0,0,33.5,23.57Z"/>
    <path d="M33.5,11.17a.62.62,0,0,0-.62.63.63.63,0,0,0,.62.63.64.64,0,0,0,.63-.63A.63.63,0,0,0,33.5,11.17Z"/>
    <path d="M33.5,20.47a.62.62,0,0,0-.62.63.63.63,0,0,0,.62.63.64.64,0,0,0,.63-.63A.63.63,0,0,0,33.5,20.47Z"/>
    <path d="M33.5,8.07a.62.62,0,0,0-.62.63.63.63,0,0,0,.62.63.64.64,0,0,0,.63-.63A.63.63,0,0,0,33.5,8.07Z"/>
    <path d="M33.5,14.27a.63.63,0,0,0,0,1.26.63.63,0,1,0,0-1.26Z"/>
    <path d="M33.5,17.37a.63.63,0,0,0,0,1.26.63.63,0,0,0,0-1.26Z"/>
  </g>
</svg>
