<svg xmlns="http://www.w3.org/2000/svg" viewBox="0 0 36 36">
  <circle cx="2.495" cy="7.995" r=".625"/>
  <circle cx="2.495" cy="27.514" r=".625"/>
  <circle cx="33.505" cy="27.514" r=".625"/>
  <path d="M31 25.625H5A.625.625 0 0 1 4.375 25V15A.625.625 0 0 1 5 14.375h26a.625.625 0 0 1 .625.625v10a.625.625 0 0 1-.625.625Zm-25.375-1.25h24.75v-8.75H5.625Z"/>
  <path d="M15 20.625H9a.625.625 0 0 1 0-1.25h6a.625.625 0 0 1 0 1.25Z"/>
  <path d="M31 11.625H5a.625.625 0 0 1 0-1.25h26a.625.625 0 0 1 0 1.25Z" fill="#e00"/>
  <path d="M29.78 27.51a.623.623 0 0 1 .619-.62.626.626 0 0 1 .631.62.634.634 0 0 1-.631.63.632.632 0 0 1-.619-.63Zm-3.1 0a.623.623 0 0 1 .62-.62.626.626 0 0 1 .63.62.634.634 0 0 1-.63.63.632.632 0 0 1-.62-.63Zm-3.111 0a.626.626 0 0 1 .631-.62.622.622 0 0 1 .619.62.631.631 0 0 1-.619.63.635.635 0 0 1-.631-.63Zm-3.09 0a.618.618 0 0 1 .621-.62.632.632 0 0 1 .629.62.64.64 0 0 1-.629.63.626.626 0 0 1-.621-.63Zm-3.1 0a.616.616 0 0 1 .62-.62.623.623 0 0 1 .62.62.632.632 0 0 1-.62.63.625.625 0 0 1-.619-.63Zm-3.11 0a.625.625 0 0 1 .629-.62.623.623 0 0 1 .621.62.632.632 0 0 1-.621.63.634.634 0 0 1-.628-.63Zm-3.1 0a.625.625 0 0 1 .63-.62.623.623 0 0 1 .62.62.632.632 0 0 1-.62.63.634.634 0 0 1-.629-.63Zm-3.1 0a.626.626 0 0 1 .631-.62.622.622 0 0 1 .619.62.631.631 0 0 1-.619.63.635.635 0 0 1-.631-.63Zm-3.1 0a.625.625 0 0 1 .63-.62.624.624 0 0 1 .62.62.632.632 0 0 1-.62.63.634.634 0 0 1-.629-.63ZM1.87 24.72a.625.625 0 0 1 .63-.62.623.623 0 0 1 .62.62.625.625 0 0 1-.62.63.627.627 0 0 1-.63-.63Zm0-2.79a.625.625 0 0 1 .63-.62.623.623 0 0 1 .62.62.625.625 0 0 1-.62.63.627.627 0 0 1-.63-.63Zm0-2.78a.627.627 0 0 1 .63-.63.625.625 0 0 1 .62.63.623.623 0 0 1-.62.62.625.625 0 0 1-.63-.62Zm0-2.79a.625.625 0 0 1 .63-.62.623.623 0 0 1 .62.62.617.617 0 0 1-.62.62.618.618 0 0 1-.63-.62Zm0-2.79a.625.625 0 0 1 .63-.62.623.623 0 0 1 .62.62.625.625 0 0 1-.62.63.627.627 0 0 1-.63-.63Zm0-2.78a.627.627 0 0 1 .63-.63.625.625 0 0 1 .62.63.623.623 0 0 1-.62.62.625.625 0 0 1-.63-.62ZM29.78 8a.625.625 0 0 1 .619-.63.628.628 0 0 1 .631.63.626.626 0 0 1-.631.62.623.623 0 0 1-.619-.62Zm-3.1 0a.619.619 0 0 1 .62-.63.628.628 0 0 1 .63.63.626.626 0 0 1-.63.62.617.617 0 0 1-.62-.62Zm-3.1 0a.625.625 0 0 1 .62-.63.627.627 0 0 1 .63.63.625.625 0 0 1-.63.62.622.622 0 0 1-.62-.62Zm-3.1 0a.626.626 0 0 1 .621-.63.627.627 0 0 1 .629.63.624.624 0 0 1-.629.62.624.624 0 0 1-.622-.62Zm-3.11 0a.627.627 0 0 1 .63-.63.625.625 0 0 1 .62.63.623.623 0 0 1-.62.62.625.625 0 0 1-.63-.62Zm-3.1 0a.627.627 0 0 1 .629-.63.625.625 0 0 1 .621.63.623.623 0 0 1-.621.62.625.625 0 0 1-.629-.62Zm-3.1 0a.627.627 0 0 1 .63-.63.625.625 0 0 1 .62.63.623.623 0 0 1-.62.62.625.625 0 0 1-.63-.62Zm-3.1 0a.628.628 0 0 1 .63-.63.624.624 0 0 1 .619.63.622.622 0 0 1-.619.62.626.626 0 0 1-.631-.62Zm-3.1 0a.627.627 0 0 1 .63-.63.626.626 0 0 1 .62.63.624.624 0 0 1-.62.62.625.625 0 0 1-.63-.62Zm27.91 16.72a.623.623 0 0 1 .62-.62.625.625 0 0 1 .63.62.627.627 0 0 1-.63.63.625.625 0 0 1-.62-.63Zm0-2.78a.625.625 0 0 1 .62-.63.627.627 0 0 1 .63.63.625.625 0 0 1-.63.62.623.623 0 0 1-.62-.62Zm0-2.79a.625.625 0 0 1 .62-.63.627.627 0 0 1 .63.63.625.625 0 0 1-.63.62.623.623 0 0 1-.62-.62Zm0-2.79a.625.625 0 0 1 .62-.63.627.627 0 0 1 .63.63.619.619 0 0 1-.63.62.617.617 0 0 1-.62-.62Zm0-2.79a.623.623 0 0 1 .62-.62.625.625 0 0 1 .63.62.627.627 0 0 1-.63.63.625.625 0 0 1-.62-.63Zm0-2.78a.625.625 0 0 1 .62-.63.627.627 0 0 1 .63.63.625.625 0 0 1-.63.62.623.623 0 0 1-.62-.62Z"/>
  <circle cx="33.505" cy="7.998" r=".625"/>
  <circle cx="26.995" cy="20.009" r=".625"/>
</svg>
