<svg id="b41e3259-e9f7-458c-9674-87ae11978457" data-name="Icon" xmlns="http://www.w3.org/2000/svg" viewBox="0 0 36 36">
  <g>
    <path d="M23,22.38H5.62V13.62H30.37V18a.63.63,0,0,0,.63.62.62.62,0,0,0,.62-.62V13a.62.62,0,0,0-.62-.62H5a.63.63,0,0,0-.63.62V23a.63.63,0,0,0,.63.62H23a.62.62,0,0,0,0-1.24Z"/>
    <path d="M9,17.38a.62.62,0,1,0,0,1.24h6a.62.62,0,0,0,0-1.24Z"/>
    <path d="M32.13,20.39l-3-.64a.57.57,0,0,0-.26,0l-3,.64a.63.63,0,0,0-.5.61v3.45a3.63,3.63,0,1,0,7.25,0V21A.62.62,0,0,0,32.13,20.39Z"/>
    <path d="M17.14,24.89a.63.63,0,1,0,.63.62A.62.62,0,0,0,17.14,24.89Z"/>
    <path d="M14.21,24.89a.63.63,0,1,0,.63.62A.62.62,0,0,0,14.21,24.89Z"/>
    <path d="M8.35,24.89a.63.63,0,1,0,.63.62A.62.62,0,0,0,8.35,24.89Z"/>
    <path d="M11.28,24.89a.63.63,0,1,0,.63.62A.62.62,0,0,0,11.28,24.89Z"/>
    <path d="M5.42,24.89a.63.63,0,1,0,.63.62A.62.62,0,0,0,5.42,24.89Z"/>
    <path d="M20.07,24.89a.63.63,0,1,0,.63.62A.62.62,0,0,0,20.07,24.89Z"/>
    <path d="M2.5,15.87a.63.63,0,1,0,.62.63A.63.63,0,0,0,2.5,15.87Z"/>
    <path d="M2.5,18.88a.63.63,0,1,0,.62.62A.63.63,0,0,0,2.5,18.88Z"/>
    <path d="M2.5,12.87a.63.63,0,1,0,.62.62A.63.63,0,0,0,2.5,12.87Z"/>
    <path d="M2.5,21.88a.63.63,0,1,0,.62.63A.63.63,0,0,0,2.5,21.88Z"/>
    <path d="M21.1,11.11a.63.63,0,1,0,0-1.25.63.63,0,0,0,0,1.25Z"/>
    <path d="M30.4,11.11a.63.63,0,1,0-.62-.62A.63.63,0,0,0,30.4,11.11Z"/>
    <path d="M18,11.11a.63.63,0,1,0-.63-.62A.63.63,0,0,0,18,11.11Z"/>
    <path d="M27.3,11.11a.63.63,0,1,0-.62-.62A.63.63,0,0,0,27.3,11.11Z"/>
    <path d="M14.9,11.11a.63.63,0,1,0-.63-.62A.62.62,0,0,0,14.9,11.11Z"/>
    <path d="M24.2,11.11a.63.63,0,1,0-.62-.62A.63.63,0,0,0,24.2,11.11Z"/>
    <path d="M11.8,11.11a.63.63,0,1,0-.63-.62A.62.62,0,0,0,11.8,11.11Z"/>
    <path d="M5.6,11.11A.63.63,0,1,0,5,10.49.62.62,0,0,0,5.6,11.11Z"/>
    <path d="M8.7,11.11a.63.63,0,1,0-.63-.62A.62.62,0,0,0,8.7,11.11Z"/>
    <path d="M33.5,12.7a.63.63,0,1,0,.63.63A.63.63,0,0,0,33.5,12.7Z"/>
    <path d="M33.5,15.54a.63.63,0,1,0,.63.62A.62.62,0,0,0,33.5,15.54Z"/>
    <path d="M33.5,11.11a.63.63,0,1,0-.62-.63A.63.63,0,0,0,33.5,11.11Z"/>
    <path d="M2.49,9.86a.63.63,0,1,0,.63.62A.62.62,0,0,0,2.49,9.86Z"/>
    <path d="M2.49,24.89a.63.63,0,1,0,.63.62A.62.62,0,0,0,2.49,24.89Z"/>
    <path d="M23,24.89a.63.63,0,1,0,.63.62A.62.62,0,0,0,23,24.89Z"/>
    <path d="M33.5,18.38a.63.63,0,1,0,.63.62A.62.62,0,0,0,33.5,18.38Z"/>
    <path d="M26.38,18a.63.63,0,1,0,.62-.62A.63.63,0,0,0,26.38,18Z"/>
  </g>
</svg>
