<svg id="f0cf4854-02c9-4b39-974d-7bbcc818b865" data-name="Layer 1" xmlns="http://www.w3.org/2000/svg" viewBox="0 0 36 36">
  <defs>
    <style>
      .e6afcde9-e359-4422-ad96-ac7ec6890071 {
        fill: #e00;
      }
    </style>
  </defs>
  <g>
    <circle cx="2.495" cy="7.995" r="0.625"/>
    <circle cx="2.495" cy="27.514" r="0.625"/>
    <circle cx="33.505" cy="27.514" r="0.625"/>
    <g>
      <path d="M31,25.625H5A.625.625,0,0,1,4.375,25V15A.625.625,0,0,1,5,14.375H31a.625.625,0,0,1,.625.625V25A.625.625,0,0,1,31,25.625ZM5.625,24.375h24.75v-8.75H5.625Z"/>
      <path d="M15,20.625H9a.625.625,0,0,1,0-1.25h6a.625.625,0,0,1,0,1.25Z"/>
      <path class="e6afcde9-e359-4422-ad96-ac7ec6890071" d="M31,11.625H5a.625.625,0,0,1,0-1.25H31a.625.625,0,0,1,0,1.25Z"/>
    </g>
    <g>
      <path d="M29.78,27.51a.623.623,0,0,1,.619-.62h0a.626.626,0,0,1,.631.62h0a.634.634,0,0,1-.631.63h0A.632.632,0,0,1,29.78,27.51Zm-3.1,0a.623.623,0,0,1,.62-.62h0a.626.626,0,0,1,.63.62h0a.634.634,0,0,1-.63.63h0A.632.632,0,0,1,26.68,27.51Zm-3.111,0a.626.626,0,0,1,.631-.62h0a.622.622,0,0,1,.619.62h0a.631.631,0,0,1-.619.63h0A.635.635,0,0,1,23.569,27.51Zm-3.09,0a.618.618,0,0,1,.621-.62h0a.632.632,0,0,1,.629.62h0a.64.64,0,0,1-.629.63h0A.626.626,0,0,1,20.479,27.51Zm-3.1,0a.616.616,0,0,1,.62-.62h0a.623.623,0,0,1,.62.62h0a.632.632,0,0,1-.62.63h0A.625.625,0,0,1,17.38,27.51Zm-3.11,0a.625.625,0,0,1,.629-.62h0a.623.623,0,0,1,.621.62h0a.632.632,0,0,1-.621.63h0A.634.634,0,0,1,14.27,27.51Zm-3.1,0a.625.625,0,0,1,.63-.62h0a.623.623,0,0,1,.62.62h0a.632.632,0,0,1-.62.63h0A.634.634,0,0,1,11.17,27.51Zm-3.1,0a.626.626,0,0,1,.631-.62h0a.622.622,0,0,1,.619.62h0a.631.631,0,0,1-.619.63h0A.635.635,0,0,1,8.069,27.51Zm-3.1,0a.625.625,0,0,1,.63-.62h0a.624.624,0,0,1,.62.62h0a.632.632,0,0,1-.62.63h0A.634.634,0,0,1,4.97,27.51Z"/>
      <path d="M1.87,24.72a.625.625,0,0,1,.63-.62h0a.623.623,0,0,1,.62.62h0a.625.625,0,0,1-.62.63h0A.627.627,0,0,1,1.87,24.72Zm0-2.79a.625.625,0,0,1,.63-.62h0a.623.623,0,0,1,.62.62h0a.625.625,0,0,1-.62.63h0A.627.627,0,0,1,1.87,21.93Zm0-2.78a.627.627,0,0,1,.63-.63h0a.625.625,0,0,1,.62.63h0a.623.623,0,0,1-.62.62h0A.625.625,0,0,1,1.87,19.15Zm0-2.79a.625.625,0,0,1,.63-.62h0a.623.623,0,0,1,.62.62h0a.617.617,0,0,1-.62.62h0A.618.618,0,0,1,1.87,16.36Zm0-2.79a.625.625,0,0,1,.63-.62h0a.623.623,0,0,1,.62.62h0a.625.625,0,0,1-.62.63h0A.627.627,0,0,1,1.87,13.57Zm0-2.78a.627.627,0,0,1,.63-.63h0a.625.625,0,0,1,.62.63h0a.623.623,0,0,1-.62.62h0A.625.625,0,0,1,1.87,10.79Z"/>
      <path d="M29.78,8a.625.625,0,0,1,.619-.63h0A.628.628,0,0,1,31.03,8h0a.626.626,0,0,1-.631.62h0A.623.623,0,0,1,29.78,8Zm-3.1,0a.619.619,0,0,1,.62-.63h0a.628.628,0,0,1,.63.63h0a.626.626,0,0,1-.63.62h0A.617.617,0,0,1,26.68,8Zm-3.1,0a.625.625,0,0,1,.62-.63h0a.627.627,0,0,1,.63.63h0a.625.625,0,0,1-.63.62h0A.622.622,0,0,1,23.58,8Zm-3.1,0a.626.626,0,0,1,.621-.63h0a.627.627,0,0,1,.629.63h0a.624.624,0,0,1-.629.62h0A.624.624,0,0,1,20.479,8ZM17.37,8A.627.627,0,0,1,18,7.37h0a.625.625,0,0,1,.62.63h0a.623.623,0,0,1-.62.62h0A.625.625,0,0,1,17.37,8Zm-3.1,0a.627.627,0,0,1,.629-.63h0A.625.625,0,0,1,15.52,8h0a.623.623,0,0,1-.621.62h0A.625.625,0,0,1,14.27,8Zm-3.1,0a.627.627,0,0,1,.63-.63h0a.625.625,0,0,1,.62.63h0a.623.623,0,0,1-.62.62h0A.625.625,0,0,1,11.17,8Zm-3.1,0A.628.628,0,0,1,8.7,7.37h0A.624.624,0,0,1,9.319,8h0a.622.622,0,0,1-.619.62h0A.626.626,0,0,1,8.069,8ZM4.97,8a.627.627,0,0,1,.63-.63h0A.626.626,0,0,1,6.22,8h0a.624.624,0,0,1-.62.62h0A.625.625,0,0,1,4.97,8Z"/>
      <path d="M32.88,24.72a.623.623,0,0,1,.62-.62h0a.625.625,0,0,1,.63.62h0a.627.627,0,0,1-.63.63h0A.625.625,0,0,1,32.88,24.72Zm0-2.78a.625.625,0,0,1,.62-.63h0a.627.627,0,0,1,.63.63h0a.625.625,0,0,1-.63.62h0A.623.623,0,0,1,32.88,21.94Zm0-2.79a.625.625,0,0,1,.62-.63h0a.627.627,0,0,1,.63.63h0a.625.625,0,0,1-.63.62h0A.623.623,0,0,1,32.88,19.15Zm0-2.79a.625.625,0,0,1,.62-.63h0a.627.627,0,0,1,.63.63h0a.619.619,0,0,1-.63.62h0A.617.617,0,0,1,32.88,16.36Zm0-2.79a.623.623,0,0,1,.62-.62h0a.625.625,0,0,1,.63.62h0a.627.627,0,0,1-.63.63h0A.625.625,0,0,1,32.88,13.57Zm0-2.78a.625.625,0,0,1,.62-.63h0a.627.627,0,0,1,.63.63h0a.625.625,0,0,1-.63.62h0A.623.623,0,0,1,32.88,10.79Z"/>
    </g>
    <circle cx="33.505" cy="7.998" r="0.625"/>
    <circle cx="26.995" cy="20.009" r="0.625"/>
  </g>
</svg>
