<svg xmlns="http://www.w3.org/2000/svg" viewBox="0 0 36 36">
  <path d="M26.46 17.79C33.5 14.17 31 3.45 23 3.38A7.65 7.65 0 0 0 15.64 13c-4.8-3.87-12.39-.18-12.26 6-.09 6.6 8.15 10.12 12.83 5.55a.41.41 0 0 0 .19 0 7.61 7.61 0 0 0 7.6 8c8.62-.06 10.49-11.93 2.46-14.76ZM19.17 5.9a6.41 6.41 0 0 1 10.2 5.1c-.14 7.52-10.65 8.73-12.55 1.54a.62.62 0 0 0-.18-1.18 6.32 6.32 0 0 1 2.53-5.46Zm1.37 12.31a7.4 7.4 0 0 0-1.95 1.42 7.25 7.25 0 0 0-.23-2.63 7.51 7.51 0 0 0 2.18 1.21ZM11 25.38a6.37 6.37 0 1 1 2.83-12.08.62.62 0 0 0 .95.58A6.39 6.39 0 0 1 11 25.38Zm13 6c-8.43-.27-8.42-12.49 0-12.75 8.44.29 8.44 12.45 0 12.74Z"/>
  <path d="M19.05 12.12a.63.63 0 0 0 0-1.25.63.63 0 0 0 0 1.25Zm2.24.47a.63.63 0 0 0 .49-1.15.63.63 0 0 0-.49 1.15Zm-8.78 5.96a.63.63 0 0 0 0-1.25.63.63 0 0 0 0 1.25Zm12.54-2.31a.62.62 0 1 0-.23-1.24.62.62 0 0 0 .23 1.24Zm-1.87-2.36a.63.63 0 1 0 .9-.88.63.63 0 0 0-.9.88Zm-2.01 9.58a.62.62 0 0 0 .46 1.16.62.62 0 0 0-.46-1.16ZM25.22 20a.62.62 0 0 0-.5 1.14c.73.36 1.28-.82.5-1.14Zm-6.3 3.87a.63.63 0 0 0 0 1.25.63.63 0 0 0 0-1.25Zm4.17-1.66a.63.63 0 0 0 .87.9c.6-.56-.3-1.47-.87-.9Zm-9.54-2.03a.63.63 0 0 0-1.16.47.63.63 0 0 0 1.16-.47Zm.36 1.91a.63.63 0 0 0 .88.9.63.63 0 0 0-.88-.9Zm-.64-7.22a.63.63 0 0 0-.82.34.62.62 0 0 0 .57.87.63.63 0 0 0 .25-1.21Z"/>
</svg>
