<svg id="e2602626-8adf-47c9-bee8-ebd0ddcb28f1" data-name="Icon" xmlns="http://www.w3.org/2000/svg" viewBox="0 0 36 36">
  <g>
    <path d="M26.46,17.79C33.5,14.17,31,3.45,23,3.38A7.65,7.65,0,0,0,15.64,13c-4.8-3.87-12.39-.18-12.26,6-.09,6.6,8.15,10.12,12.83,5.55a.41.41,0,0,0,.19,0,7.61,7.61,0,0,0,7.6,8C32.62,32.49,34.49,20.62,26.46,17.79ZM19.17,5.9A6.41,6.41,0,0,1,29.37,11c-.14,7.52-10.65,8.73-12.55,1.54a.62.62,0,0,0-.18-1.18A6.32,6.32,0,0,1,19.17,5.9Zm1.37,12.31a7.4,7.4,0,0,0-1.95,1.42A7.25,7.25,0,0,0,18.36,17,7.51,7.51,0,0,0,20.54,18.21ZM11,25.38A6.37,6.37,0,1,1,13.83,13.3a.62.62,0,0,0,.95.58A6.39,6.39,0,0,1,11,25.38Zm13,6c-8.43-.27-8.42-12.49,0-12.75C32.44,18.92,32.44,31.08,24,31.37Z"/>
    <path d="M19.05,12.12a.63.63,0,0,0,0-1.25A.63.63,0,0,0,19.05,12.12Z"/>
    <path d="M21.29,12.59a.63.63,0,0,0,.49-1.15A.63.63,0,0,0,21.29,12.59Z"/>
    <path d="M12.51,18.55a.63.63,0,0,0,0-1.25A.63.63,0,0,0,12.51,18.55Z"/>
    <path d="M25.05,16.24A.62.62,0,1,0,24.82,15,.62.62,0,0,0,25.05,16.24Z"/>
    <path d="M23.18,13.88a.63.63,0,1,0,.9-.88.63.63,0,0,0-.9.88Z"/>
    <path d="M21.17,23.46a.62.62,0,0,0,.46,1.16A.62.62,0,0,0,21.17,23.46Z"/>
    <path d="M25.22,20a.62.62,0,0,0-.5,1.14C25.45,21.5,26,20.32,25.22,20Z"/>
    <path d="M18.92,23.87a.63.63,0,0,0,0,1.25A.63.63,0,0,0,18.92,23.87Z"/>
    <path d="M23.09,22.21a.63.63,0,0,0,.87.9C24.56,22.55,23.66,21.64,23.09,22.21Z"/>
    <path d="M13.55,20.18a.63.63,0,0,0-1.16.47A.63.63,0,0,0,13.55,20.18Z"/>
    <path d="M13.91,22.09a.63.63,0,0,0,.88.9A.63.63,0,0,0,13.91,22.09Z"/>
    <path d="M13.27,14.87a.63.63,0,0,0-.82.34h0a.62.62,0,0,0,.57.87A.63.63,0,0,0,13.27,14.87Z"/>
  </g>
</svg>
