<svg id="bb817978-11ee-4947-88ce-f957eef5bcdc" data-name="Icon" xmlns="http://www.w3.org/2000/svg" viewBox="0 0 36 36">
  <path d="M31.6,22.65a.63.63,0,0,0-.52-.27H18.62V20.62H27a.62.62,0,0,0,.62-.62V14.62H31a.62.62,0,0,0,.44-1.06l-9-9A.62.62,0,0,0,21.38,5V9.38H16.59c-.95-7-11-6.44-11.22.62.19,7.06,10.27,7.58,11.22.62h4.79V14a.62.62,0,0,0,.62.62h4.38v4.76H18.62c-.07-.72.3-2-.62-2H4a.62.62,0,0,0-.62.62,14.63,14.63,0,0,0,28.29,5.22A.64.64,0,0,0,31.6,22.65ZM11,14.38a4.38,4.38,0,0,1,0-8.76A4.38,4.38,0,0,1,11,14.38ZM22.62,6.51l6.87,6.87H22.62ZM18,31.38A13.4,13.4,0,0,1,4.64,18.62H17.38V23a.62.62,0,0,0,.62.62H30.14A13.47,13.47,0,0,1,18,31.38Z"/>
</svg>
