<svg id="bd731d03-98a9-4361-a201-71885c38d93a" data-name="Icon" xmlns="http://www.w3.org/2000/svg" viewBox="0 0 36 36">
  <g>
    <path d="M27,26.38H5a.62.62,0,0,0-.62.62v4a.62.62,0,0,0,.62.62H27a.62.62,0,0,0,.62-.62V27A.62.62,0,0,0,27,26.38Zm-.62,4H5.62V27.62H26.38Z"/>
    <path d="M31,19.38H9a.62.62,0,0,0-.62.62v4a.62.62,0,0,0,.62.62H31a.62.62,0,0,0,.62-.62V20A.62.62,0,0,0,31,19.38Zm-.62,4H9.62V20.62H30.38Z"/>
    <path d="M5,17.62H27a.62.62,0,0,0,.62-.62V13a.62.62,0,0,0-.62-.62H5a.62.62,0,0,0-.62.62v4A.62.62,0,0,0,5,17.62Zm.62-4H26.38v2.76H5.62Z"/>
    <path d="M28,6.38H26.51l.93-.94c.58-.56-.32-1.47-.88-.88l-2,2a.63.63,0,0,0,0,.88l2,2a.62.62,0,0,0,.88-.88l-.93-.94H28A2.39,2.39,0,0,1,30.38,10v7a.62.62,0,0,0,1.24,0V10A3.62,3.62,0,0,0,28,6.38Z"/>
  </g>
</svg>
