<svg id="f47716ee-2049-409a-bfbf-c65b825ab6e5" data-name="Icon" xmlns="http://www.w3.org/2000/svg" viewBox="0 0 36 36">
  <g>
    <path d="M17.38,8v7a.62.62,0,0,0,1.24,0V8A.62.62,0,0,0,17.38,8Z"/>
    <path d="M10.38,8v3a.62.62,0,0,0,1.24,0V8A.62.62,0,0,0,10.38,8Z"/>
    <path d="M24.38,8V19a.62.62,0,0,0,1.24,0V8A.62.62,0,0,0,24.38,8Z"/>
    <path d="M5,11.62A.62.62,0,0,0,5.62,11V5.62H30.38V23a.62.62,0,0,0,1.24,0V5A.62.62,0,0,0,31,4.38H5A.62.62,0,0,0,4.38,5v6A.62.62,0,0,0,5,11.62Z"/>
    <path d="M31,28.38c-.92,0-.55,1.28-.62,2H5.62V17a.62.62,0,0,0-1.24,0V31a.62.62,0,0,0,.62.62H31a.62.62,0,0,0,.62-.62V29A.62.62,0,0,0,31,28.38Z"/>
    <path d="M32,25.38H27.26l-5.82-5.82a.6.6,0,0,0-.44-.18H15.26L9.44,13.56A.6.6,0,0,0,9,13.38H4a.62.62,0,0,0,0,1.24H8.74l5.82,5.82a.6.6,0,0,0,.44.18h5.74l5.82,5.82a.6.6,0,0,0,.44.18h5A.62.62,0,0,0,32,25.38Z"/>
  </g>
</svg>
