<svg id="af6f4e5c-4205-43ce-8998-c06f61e962b3" data-name="Icon" xmlns="http://www.w3.org/2000/svg" viewBox="0 0 36 36">
  <g>
    <path d="M21.69,17.07a6.48,6.48,0,0,0,6.47-6.48c-.27-8.56-12.7-8.54-12.95,0A6.48,6.48,0,0,0,21.69,17.07ZM18.55,6.41a5.23,5.23,0,1,1,3.14,9.41A5.26,5.26,0,0,1,18.55,6.41Z"/>
    <path d="M9.85,12.72A6.5,6.5,0,0,0,3.38,19.2c.3,8.57,12.64,8.57,13,0A6.49,6.49,0,0,0,9.85,12.72Zm0,11.71C2.94,24.2,3,14.18,9.85,14,16.76,14.19,16.76,24.21,9.85,24.43Z"/>
    <path d="M23.21,18.67a6.5,6.5,0,0,0-6.47,6.48c.3,8.57,12.64,8.57,13,0A6.49,6.49,0,0,0,23.21,18.67Zm0,11.71c-6.91-.23-6.9-10.25,0-10.46C30.12,20.14,30.12,30.16,23.21,30.38Z"/>
    <path d="M31.1,14.63A2.58,2.58,0,0,0,29,19.34,2.58,2.58,0,0,0,31.1,14.63Zm.16,2.9a1.33,1.33,0,0,1-2.42-1.08A1.33,1.33,0,0,1,31.26,17.53Z"/>
    <path d="M10.29,11a2.58,2.58,0,0,0,2.1-4.71A2.58,2.58,0,0,0,10.29,11Zm-.16-2.89A1.33,1.33,0,0,1,12.55,9.2,1.33,1.33,0,0,1,10.13,8.12Z"/>
    <path d="M14.6,26.5a2.58,2.58,0,0,0-2.09,4.71A2.58,2.58,0,0,0,14.6,26.5Zm.17,2.9a1.33,1.33,0,0,1-2.42-1.08A1.33,1.33,0,0,1,14.77,29.4Z"/>
  </g>
</svg>
