<svg id="bca109ba-c232-48f3-b521-098277ecfc59" data-name="Icon" xmlns="http://www.w3.org/2000/svg" viewBox="0 0 36 36">
  <g>
    <path d="M27,12.38c-7.43.23-7.43,11,0,11.25C34.43,23.39,34.43,12.61,27,12.38Zm0,10a4.38,4.38,0,0,1,0-8.76A4.38,4.38,0,0,1,27,22.38Z"/>
    <path d="M6,14.38a2.62,2.62,0,0,0,0,5.24A2.62,2.62,0,0,0,6,14.38Zm0,4a1.38,1.38,0,0,1,0-2.75A1.38,1.38,0,0,1,6,18.38Z"/>
    <path d="M12,17.62a2.62,2.62,0,0,0,0-5.24A2.62,2.62,0,0,0,12,17.62Zm0-4a1.38,1.38,0,0,1,0,2.75A1.38,1.38,0,0,1,12,13.62Z"/>
    <path d="M13.62,21a2.62,2.62,0,0,0-5.24,0A2.62,2.62,0,0,0,13.62,21Zm-4,0a1.38,1.38,0,0,1,2.75,0A1.38,1.38,0,0,1,9.62,21Z"/>
    <path d="M15.24,17.42A.63.63,0,1,0,15,18.63.63.63,0,0,0,15.24,17.42Z"/>
    <path d="M7.76,13.58a.63.63,0,0,0,.48-1.16A.63.63,0,0,0,7.76,13.58Z"/>
    <path d="M5.56,21.56c-.6.56.32,1.46.88.88S6.13,21,5.56,21.56Z"/>
    <path d="M10.45,10.88a10.43,10.43,0,0,1,15.1,0c.54.6,1.47-.28.9-.86a11.67,11.67,0,0,0-16.9,0C9,10.6,9.9,11.48,10.45,10.88Z"/>
    <path d="M25.55,25.12a10.43,10.43,0,0,1-15.1,0c-.54-.6-1.47.28-.9.86a11.67,11.67,0,0,0,16.9,0C27,25.4,26.1,24.52,25.55,25.12Z"/>
  </g>
</svg>
