<svg id="a689354d-396e-4f94-bc3a-e14d60e6d1fb" data-name="Icon" xmlns="http://www.w3.org/2000/svg" viewBox="0 0 36 36">
  <g>
    <path d="M10.62,18A6.59,6.59,0,0,0,5.1,11.47a.62.62,0,0,0-.2,1.23c5.92,1,5.91,9.58,0,10.6A.62.62,0,0,0,5,24.54,6.57,6.57,0,0,0,10.62,18Z"/>
    <path d="M14.62,18A10.62,10.62,0,0,0,8.25,8.26a.62.62,0,0,0-.5,1.14c7.44,3.18,7.44,14,0,17.2a.62.62,0,0,0,.5,1.14A10.62,10.62,0,0,0,14.62,18Z"/>
    <path d="M31.1,23.3c-5.92-1-5.91-9.58,0-10.6a.64.64,0,0,0,.52-.72.63.63,0,0,0-.72-.51c-7.3,1.26-7.3,11.8,0,13.06A.62.62,0,0,0,31.1,23.3Z"/>
    <path d="M28.25,26.6c-7.44-3.18-7.44-14,0-17.2a.62.62,0,0,0-.5-1.14c-8.43,3.59-8.43,15.89,0,19.48A.62.62,0,0,0,28.25,26.6Z"/>
    <path d="M25.31,29.59c-8.85-5-8.84-18.19,0-23.18a.62.62,0,0,0-.62-1.08A14.68,14.68,0,0,0,18,13.81a14.68,14.68,0,0,0-6.69-8.48.62.62,0,0,0-.62,1.08c8.85,5,8.84,18.19,0,23.18a.62.62,0,0,0,.62,1.08A14.68,14.68,0,0,0,18,22.19a14.68,14.68,0,0,0,6.69,8.48A.62.62,0,0,0,25.31,29.59Z"/>
  </g>
</svg>
