<svg xmlns="http://www.w3.org/2000/svg" viewBox="0 0 36 36">
  <path d="M15 9.67h4.05a.62.62 0 0 0 .62-.62V5a.61.61 0 0 0-.62-.62H15a.61.61 0 0 0-.62.62v4.05a.62.62 0 0 0 .62.62Zm.62-4h2.8v2.8h-2.8Zm6.13 4h4.05a.62.62 0 0 0 .62-.62V5a.61.61 0 0 0-.62-.62h-4.05a.62.62 0 0 0-.63.62v4.05a.63.63 0 0 0 .63.62Zm.63-4h2.79v2.8h-2.79ZM25 19.62c3.24 0 3.25-5.22 0-5.24h-9.4c-3.24 0-3.25 5.22 0 5.24ZM14.38 17.2a1.26 1.26 0 0 1 1.17-1.57H25c1.59 0 1.6 2.77 0 2.75h-9.4a1.17 1.17 0 0 1-1.22-1.18Zm4.06 7.71a.63.63 0 0 0-.88 0l-2.83 2.82a.64.64 0 0 0 0 .89l2.83 2.82a.61.61 0 0 0 .88 0l2.83-2.82a.64.64 0 0 0 0-.89ZM18 30.12l-1.94-1.94L18 26.23l1.94 1.95Z"/>
  <path d="M31 16.38h-2a.62.62 0 0 0 0 1.24h1.38v9.76h-7.26a.62.62 0 0 0 0 1.24H31a.62.62 0 0 0 .62-.62V17a.62.62 0 0 0-.62-.62ZM10.62 14.5a3.12 3.12 0 0 0-6.24 0 3.12 3.12 0 0 0 6.24 0Zm-5 0a1.88 1.88 0 0 1 3.75 0 1.88 1.88 0 0 1-3.75 0Zm7.13 12.88H8.12V19a.62.62 0 0 0-1.24 0v9a.62.62 0 0 0 .62.62h5.25a.62.62 0 0 0 0-1.24ZM16.4 11v2a.63.63 0 0 0 1.25 0v-2a.63.63 0 0 0-1.25 0Zm6.75 0v2a.63.63 0 0 0 1.25 0v-2a.63.63 0 0 0-1.25 0Zm-5.77 10v2a.62.62 0 0 0 1.24 0v-2a.62.62 0 0 0-1.24 0Z"/>
</svg>
