<svg id="edb479b5-9a2d-4953-91f9-975f48bbded0" data-name="Icon" xmlns="http://www.w3.org/2000/svg" viewBox="0 0 36 36">
  <g>
    <path d="M17.38,8V18a.62.62,0,0,0,1.24,0V8A.62.62,0,0,0,17.38,8Z"/>
    <path d="M10.38,8v7a.62.62,0,0,0,1.24,0V8A.62.62,0,0,0,10.38,8Z"/>
    <path d="M24.38,8V20a.62.62,0,0,0,1.24,0V8A.62.62,0,0,0,24.38,8Z"/>
    <path d="M31,26.83a.62.62,0,0,0-.62.62v2.93H5.62V18.51a.62.62,0,0,0-1.24,0V31a.62.62,0,0,0,.62.62H31a.62.62,0,0,0,.62-.62V27.45A.62.62,0,0,0,31,26.83Z"/>
    <path d="M5,9.62A.62.62,0,0,0,5.62,9V5.62H30.38V20.36a.62.62,0,0,0,1.24,0V5A.62.62,0,0,0,31,4.38H5A.62.62,0,0,0,4.38,5V9A.62.62,0,0,0,5,9.62Z"/>
    <path d="M32,23.27C14.5,22.93,7.27,16,4.52,11.93a.62.62,0,0,0-1,.69C6.36,16.91,13.93,24.18,32,24.52A.63.63,0,0,0,32,23.27Z"/>
  </g>
</svg>
