<svg id="a747bff1-cecd-4e5c-8739-59e717af58c2" data-name="Icon" xmlns="http://www.w3.org/2000/svg" viewBox="0 0 36 36">
  <g>
    <path d="M20,16.62H31.86a.62.62,0,0,0,.58-.42c-.55-6.47-6-11.76-12.35-12.68a.73.73,0,0,0-.49.15.73.73,0,0,0-.23.47V16A.63.63,0,0,0,20,16.62Zm11.11-1.24H20.62V4.89A13.42,13.42,0,0,1,31.11,15.38Z"/>
    <path d="M32.59,19a.65.65,0,0,0-.63-.62H17.62V4a.64.64,0,0,0-.25-.5c-7.65-.22-14,6.9-14,14.46C4.07,36.78,30.62,37.66,32.59,19ZM18,31.38C1.25,30.81-.12,7.3,16.37,4.74V19a.63.63,0,0,0,.63.62H31.26A13.42,13.42,0,0,1,18,31.38Z"/>
  </g>
</svg>
