<svg id="b6055e7f-33cb-4e30-9e57-19f8bff990fc" data-name="Icon" xmlns="http://www.w3.org/2000/svg" viewBox="0 0 36 36">
  <g>
    <path d="M17.37,8V18a.63.63,0,0,0,1.25,0V8A.63.63,0,0,0,17.37,8Z"/>
    <path d="M24.37,8v7a.63.63,0,0,0,1.25,0V8A.63.63,0,0,0,24.37,8Z"/>
    <path d="M10.37,8V20a.63.63,0,0,0,1.25,0V8A.63.63,0,0,0,10.37,8Z"/>
    <path d="M31,17.89a.63.63,0,0,0-.63.62V30.38H5.62V27.45a.63.63,0,0,0-1.25,0V31a.63.63,0,0,0,.63.62H31a.62.62,0,0,0,.62-.62V18.51A.62.62,0,0,0,31,17.89Z"/>
    <path d="M5,21a.63.63,0,0,0,.62-.63V5.62H30.37V9a.63.63,0,0,0,1.25,0V5A.62.62,0,0,0,31,4.38H5A.63.63,0,0,0,4.37,5V20.36A.63.63,0,0,0,5,21Z"/>
    <path d="M32.35,11.76a.62.62,0,0,0-.87.17C28.73,16,21.5,22.93,4,23.27a.63.63,0,0,0,0,1.25c18.07-.34,25.64-7.61,28.52-11.9A.62.62,0,0,0,32.35,11.76Z"/>
  </g>
</svg>
