<svg id="adf2bbe2-a38f-42b8-8be7-2ed7785a56ff" data-name="Icon" xmlns="http://www.w3.org/2000/svg" viewBox="0 0 36 36">
  <g>
    <path d="M32.61,19.78a.62.62,0,0,0-.74-.49l-28,5.86A.62.62,0,0,0,4,26.38c.06,0,28-5.86,28.13-5.87A.62.62,0,0,0,32.61,19.78Z"/>
    <path d="M5,23a.63.63,0,0,0,.63-.62V5.62H30.33v11.2a.62.62,0,0,0,.62.62.63.63,0,0,0,.63-.62V5A.63.63,0,0,0,31,4.38H5A.62.62,0,0,0,4.33,5V22.41A.62.62,0,0,0,5,23Z"/>
    <path d="M17.38,8V18a.62.62,0,0,0,1.24,0V8A.62.62,0,0,0,17.38,8Z"/>
    <path d="M24.38,8v8a.62.62,0,0,0,1.24,0V8A.62.62,0,0,0,24.38,8Z"/>
    <path d="M10.38,8V20a.62.62,0,0,0,1.24,0V8A.62.62,0,0,0,10.38,8Z"/>
    <path d="M31,23.28a.63.63,0,0,0-.62.63v6.47H5.58V28.64a.63.63,0,0,0-1.25,0V31a.62.62,0,0,0,.62.62H31a.63.63,0,0,0,.63-.62V23.91A.63.63,0,0,0,31,23.28Z"/>
  </g>
</svg>
