<svg id="ab8d0cfc-c2c8-4fd1-ab33-da95bcd2898c" data-name="Icon" xmlns="http://www.w3.org/2000/svg" viewBox="0 0 36 36">
  <path d="M28.62,24.44V18a.62.62,0,0,0-.62-.62H18.62V11.56a3.62,3.62,0,1,0-1.24,0v5.82H8a.62.62,0,0,0-.62.62v6.44a3.62,3.62,0,1,0,1.24,0V18.62h8.76v5.82a3.62,3.62,0,1,0,1.24,0V18.62h8.76v5.82a3.62,3.62,0,1,0,1.24,0ZM15.62,8a2.38,2.38,0,0,1,4.75,0A2.38,2.38,0,0,1,15.62,8ZM10.38,28a2.38,2.38,0,0,1-4.75,0A2.38,2.38,0,0,1,10.38,28Zm10,0a2.38,2.38,0,0,1-4.75,0A2.38,2.38,0,0,1,20.38,28ZM28,30.38a2.38,2.38,0,0,1,0-4.75A2.38,2.38,0,0,1,28,30.38Z"/>
</svg>
