<svg id="aaadc0c7-ff41-4ba8-9776-6f9d96e59bd4" data-name="Icon" xmlns="http://www.w3.org/2000/svg" viewBox="0 0 36 36">
  <g>
    <path d="M10,11.38H5a.62.62,0,0,0-.62.62v5a.62.62,0,0,0,.62.62h5a.62.62,0,0,0,.62-.62V12A.62.62,0,0,0,10,11.38Zm-.62,5H5.62V12.62H9.38Z"/>
    <path d="M20.5,11.38h-5a.62.62,0,0,0-.62.62v5a.62.62,0,0,0,.62.62h5a.62.62,0,0,0,.62-.62V12A.62.62,0,0,0,20.5,11.38Zm-.62,5H16.12V12.62h3.76Z"/>
    <path d="M20.5,19.38h-5a.62.62,0,0,0-.62.62v5a.62.62,0,0,0,.62.62h5a.62.62,0,0,0,.62-.62V20A.62.62,0,0,0,20.5,19.38Zm-.62,5H16.12V20.62h3.76Z"/>
    <path d="M31,11.38H26a.62.62,0,0,0-.62.62v5a.62.62,0,0,0,.62.62h5a.62.62,0,0,0,.62-.62V12A.62.62,0,0,0,31,11.38Zm-.62,5H26.62V12.62h3.76Z"/>
    <path d="M32,8.38H23.62V5a.62.62,0,0,0-1.24,0V8.38H13.62V5a.62.62,0,1,0-1.24,0V8.38H4A.62.62,0,1,0,4,9.62h8.38V31a.62.62,0,0,0,1.24,0V9.62h8.76V31a.62.62,0,0,0,1.24,0V9.62H32A.62.62,0,0,0,32,8.38Z"/>
  </g>
</svg>
