<svg xmlns="http://www.w3.org/2000/svg" viewBox="0 0 36 36">
  <path d="M24.19 17.55c-1.13-1.3-2.81-1.61-4.3-1.88l-.83-.16-.44-.09V7.65a12.24 12.24 0 0 1 2.43.3 9.59 9.59 0 0 1 2.75 1.28.63.63 0 0 0 .7-1 11.15 11.15 0 0 0-3.15-1.46h-.07a12.77 12.77 0 0 0-2.69-.33V5a.62.62 0 0 0-1.24 0v1.42a14.34 14.34 0 0 0-2.17.3 5 5 0 0 0-3.7 3.28 4.65 4.65 0 0 0 1 4.59 6.07 6.07 0 0 0 3.42 1.58l1.47.31v7.89a12 12 0 0 1-1.83-.24 9.81 9.81 0 0 1-3.84-2.15.62.62 0 0 0-.88.05.63.63 0 0 0 0 .88 11.22 11.22 0 0 0 4.37 2.43 13.94 13.94 0 0 0 2.14.29v3.91l-.94-.93c-.56-.58-1.46.32-.88.88l2 2h.05c.05 0 .09.07.15.1a.66.66 0 0 0 .48 0c.06 0 .1-.07.15-.1s0 0 .05 0l2-2c.58-.56-.32-1.46-.88-.88l-.94.93V25.6a12.88 12.88 0 0 0 2.76-.35A5 5 0 0 0 25.1 22a4.58 4.58 0 0 0-.91-4.45Zm-8-2.65a4.83 4.83 0 0 1-2.76-1.21 3.37 3.37 0 0 1-.74-3.34 3.82 3.82 0 0 1 2.84-2.42 13 13 0 0 1 1.87-.26v7.48Zm7.75 6.73A3.82 3.82 0 0 1 21.06 24a12.34 12.34 0 0 1-2.44.31v-7.62h.18l.86.17c1.35.25 2.75.51 3.59 1.47a3.37 3.37 0 0 1 .67 3.3Z"/>
</svg>
