<svg xmlns="http://www.w3.org/2000/svg" viewBox="0 0 36 36">
  <path d="M24 18.62a.62.62 0 0 0 0-1.24h-5.38v-2.76H24a.62.62 0 0 0 0-1.24h-5.38V8.65a6.08 6.08 0 0 1 1.48.07c.14 0 .28.06.41.09s.46.11.68.18l.45.17a6.09 6.09 0 0 1 .63.3c.13.07.26.13.39.21a8.5 8.5 0 0 1 .94.67.56.56 0 0 0 .2.11h.22a.47.47 0 0 0 .17 0h.08a.65.65 0 0 0 .21-.16.63.63 0 0 0-.07-.88 8.83 8.83 0 0 0-.87-.64l-.21-.13a7.37 7.37 0 0 0-.87-.48L22.2 8a7.47 7.47 0 0 0-.79-.29l-.22-.07a8.41 8.41 0 0 0-1-.21h-.14a6 6 0 0 0-1.41 0V5a.62.62 0 0 0-1.24 0v2.54a7.65 7.65 0 0 0-1.6.46h-.1c-.33.15-.65.32-1 .5l-.35.23-.58.43c-.2.16-.39.32-.57.49l-.42.43q-.2.21-.39.45l-.32.43c-.16.24-.32.48-.47.73l-.3.56-.21.46c-.08.19-.15.39-.22.6H9a.62.62 0 0 0 0 1.24h1.56c0 .11 0 .22-.05.33s0 .22 0 .33a9.22 9.22 0 0 0 0 2.1H9a.62.62 0 0 0 0 1.24h1.62c0 .14.06.28.1.42l.09.31c.1.3.2.59.32.87l.21.46.3.56c.15.25.31.5.47.73l.32.43q.2.24.39.45t.42.42a6.8 6.8 0 0 0 .57.5l.57.43.36.23c.31.18.63.35.95.5h.11a8.29 8.29 0 0 0 1.58.49v4l-.94-.93c-.56-.58-1.46.32-.88.88l2 2h.05c.05 0 .09.07.15.1a.66.66 0 0 0 .48 0c.06 0 .1-.07.15-.1s0 0 .05 0l2-2c.58-.56-.32-1.46-.88-.88l-.94.93V25.6a6.26 6.26 0 0 0 1.37 0h.23a8 8 0 0 0 1-.21l.22-.07c.27-.08.53-.18.79-.28l.26-.12a7.23 7.23 0 0 0 .87-.46l.22-.15a9.93 9.93 0 0 0 .86-.63.64.64 0 0 0 .07-.88.62.62 0 0 0-.88-.07 7.76 7.76 0 0 1-1 .67 2.64 2.64 0 0 1-.37.2 5.38 5.38 0 0 1-.64.31l-.45.17c-.22.07-.45.13-.68.18s-.27.07-.41.09a6.08 6.08 0 0 1-1.48.07v-5.8Zm-6.62-1.24h-5.69a6.93 6.93 0 0 1 0-1.93 2.89 2.89 0 0 1 0-.29c0-.18.07-.36.11-.54h5.53Zm0-4h-5.14v-.09c.06-.14.12-.28.19-.41s.16-.31.25-.47.27-.44.42-.66l.26-.34a4.23 4.23 0 0 1 .34-.4 4.17 4.17 0 0 1 .36-.37l.49-.43c.16-.12.32-.25.49-.36l.3-.2a8 8 0 0 1 .82-.43 6.94 6.94 0 0 1 1.19-.4Zm0 10.8a6.94 6.94 0 0 1-1.19-.4 8 8 0 0 1-.82-.43l-.3-.2c-.17-.11-.33-.24-.49-.36l-.49-.43a4.17 4.17 0 0 1-.36-.37 4.23 4.23 0 0 1-.34-.4c-.09-.11-.18-.23-.26-.35a7.22 7.22 0 0 1-.42-.65 4.23 4.23 0 0 1-.25-.47c-.07-.13-.13-.27-.19-.41A5.59 5.59 0 0 1 12 19l-.09-.29v-.08h5.47Z"/>
</svg>
