<svg xmlns="http://www.w3.org/2000/svg" viewBox="0 0 36 36">
  <path d="M25 24.38h-6.38v-7.76H24a.62.62 0 1 0 0-1.24h-5.38v-7a18.1 18.1 0 0 1 5.44 1.87.63.63 0 0 0 .52-1.14 18.45 18.45 0 0 0-6-2V5a.62.62 0 0 0-1.24 0v2.05c-4.42.2-6.59 4.24-4.45 8.33H9a.62.62 0 0 0 0 1.24h4.36a6.06 6.06 0 0 1-4.53 7.78.63.63 0 0 0-.45.69.62.62 0 0 0 .62.53h8.38v3.87l-.94-.93c-.56-.58-1.46.32-.88.88l2 2a.63.63 0 0 0 .88 0l2-2c.58-.56-.32-1.47-.88-.88l-.94.93v-3.87H25a.62.62 0 0 0 0-1.24Zm-11-9.6c-1.7-3.23-.11-6.29 3.35-6.48v7.08h-3.09c-.08-.2-.13-.38-.26-.6Zm2 9.6h-4.15c2.88-2.19 3.35-4.76 2.79-7.76h2.74v7.76Z"/>
</svg>
