<svg id="f25dc462-b9c3-4300-b480-3ad6fa7d7648" data-name="Icon" xmlns="http://www.w3.org/2000/svg" viewBox="0 0 36 36">
  <path d="M25,24.38H18.62V16.62H24a.62.62,0,1,0,0-1.24H18.62v-7a18.1,18.1,0,0,1,5.44,1.87.63.63,0,0,0,.52-1.14,18.45,18.45,0,0,0-6-2V5a.62.62,0,0,0-1.24,0V7.05c-4.42.2-6.59,4.24-4.45,8.33H9a.62.62,0,0,0,0,1.24h4.36A6.06,6.06,0,0,1,8.83,24.4a.63.63,0,0,0-.45.69.62.62,0,0,0,.62.53h8.38v3.87l-.94-.93c-.56-.58-1.46.32-.88.88l2,2a.63.63,0,0,0,.88,0l2-2c.58-.56-.32-1.47-.88-.88l-.94.93V25.62H25A.62.62,0,0,0,25,24.38Zm-11-9.6c-1.7-3.23-.11-6.29,3.35-6.48v7.08H14.26C14.18,15.18,14.13,15,14,14.78Zm2,9.6H11.85c2.88-2.19,3.35-4.76,2.79-7.76h2.74v7.76Z"/>
</svg>
