<svg xmlns="http://www.w3.org/2000/svg" viewBox="0 0 36 36">
  <g fill="#231f20">
    <path d="M31.21 19.21 27 16l.84-2.58a.63.63 0 0 0-.23-.7l-11-8a.62.62 0 0 0-.73 0l-11 8a.63.63 0 0 0-.23.7l4.22 13a.62.62 0 0 0 .59.43h4L14.92 31a.64.64 0 0 0 .6.42h11.69a.63.63 0 0 0 .6-.43l3.61-11.09a.62.62 0 0 0-.21-.69ZM9.84 25.55 5.91 13.43 16.21 6l10.31 7.48-3.94 12.07Zm16.92 4.65H16l-1.3-3.4H23a.62.62 0 0 0 .59-.43l3-9.14 3.5 2.7Z"/>
    <path d="M23.94 15.3a.63.63 0 0 0 .35-1.15.62.62 0 1 0-.35 1.15ZM22 12.59a.63.63 0 0 0-.68 1 .63.63 0 1 0 .68-1Zm-8.23 5.57a.63.63 0 0 0 .73 1 .63.63 0 0 0-.73-1Zm1.89-1.37a.63.63 0 0 0 .74 1 .63.63 0 0 0-.74-1Zm1.89-1.38a.63.63 0 0 0 .74 1 .63.63 0 0 0-.74-1Zm1.9-1.41a.62.62 0 0 0 .73 1 .62.62 0 0 0-.73-1Zm-6.63 6.28a.62.62 0 0 0-1.15-.47.62.62 0 0 0 1.15.47Zm.52 3.25a.62.62 0 0 0 .37 1.19.62.62 0 0 0-.37-1.19Zm.14-1.63a.62.62 0 0 0-1.19.37.62.62 0 0 0 1.19-.37Z"/>
  </g>
</svg>
