<svg xmlns="http://www.w3.org/2000/svg" viewBox="0 0 36 36"><defs><style>.cls-1{fill:#231f20;}</style></defs><g id="Layer_4" data-name="Layer 4"><path class="cls-1" d="M31.21,19.21,27,16l.84-2.58a.63.63,0,0,0-.23-.7l-11-8a.62.62,0,0,0-.73,0l-11,8a.63.63,0,0,0-.23.7l4.22,13a.62.62,0,0,0,.59.43h4L14.92,31a.64.64,0,0,0,.6.42H27.21a.63.63,0,0,0,.6-.43L31.42,19.9A.62.62,0,0,0,31.21,19.21ZM9.84,25.55,5.91,13.43,16.21,6l10.31,7.48L22.58,25.55ZM26.76,30.2H16L14.7,26.8H23a.62.62,0,0,0,.59-.43l3-9.14,3.5,2.7Z"/><path class="cls-1" d="M23.94,15.3a.63.63,0,0,0,.35-1.15A.62.62,0,1,0,23.94,15.3Z"/><path class="cls-1" d="M22,12.59a.63.63,0,0,0-.68,1A.63.63,0,1,0,22,12.59Z"/><path class="cls-1" d="M13.77,18.16a.63.63,0,0,0,.73,1A.63.63,0,0,0,13.77,18.16Z"/><path class="cls-1" d="M15.66,16.79a.63.63,0,0,0,.74,1A.63.63,0,0,0,15.66,16.79Z"/><path class="cls-1" d="M17.55,15.41a.63.63,0,0,0,.74,1A.63.63,0,0,0,17.55,15.41Z"/><path class="cls-1" d="M19.45,14a.62.62,0,0,0,.73,1A.62.62,0,0,0,19.45,14Z"/><path class="cls-1" d="M12.82,20.28a.62.62,0,0,0-1.15-.47A.62.62,0,0,0,12.82,20.28Z"/><path class="cls-1" d="M13.34,23.53a.62.62,0,0,0,.37,1.19A.62.62,0,0,0,13.34,23.53Z"/><path class="cls-1" d="M13.48,21.9a.62.62,0,0,0-1.19.37A.62.62,0,0,0,13.48,21.9Z"/></g></svg>