<svg xmlns="http://www.w3.org/2000/svg" viewBox="0 0 36 36">
  <path d="M10.3 22.94c2.19 0 3.79-1.32 5.06-2.62 1.83-1.85 3.8-3.86 5.63-5.7 1.37-1.38 2.48-2.36 4.25-2.36 2.6 0 4.71 2.11 4.71 4.71s-2.05 4.63-4.58 4.7c-.52-.03-1.03-.19-1.4-.59-1.09-1.05-.37-3.07 1.15-3.16l-.77 1.12c-.46.67.56 1.38 1.03.71l1.57-2.27c.18-.28.12-.68-.16-.87l-2.29-1.56c-.67-.46-1.38.57-.71 1.03l.93.63c-1.76.3-2.97 2.26-2.38 3.96-.38-.27-1.96-1.91-2.33-2.27-.58-.58-1.46.3-.88.88l1.79 1.79c3.63 3.9 10.35 1.21 10.29-4.1 0-3.29-2.67-5.96-5.96-5.96-2.26 0-3.61 1.18-5.14 2.73-1.29 1.3-2.57 2.6-3.86 3.91l-1.77 1.79c-1.1 1.11-2.45 2.25-4.17 2.25-2.6 0-4.71-2.11-4.71-4.71-.03-4.11 5.12-6.36 8.08-3.23l.79.79h-1.26c-.82 0-.82 1.25 0 1.25h2.76c.35 0 .61-.31.62-.64v-2.73c0-.82-1.25-.82-1.25 0v1.22c-1.33-1.34-2.52-2.56-5.03-2.63-3.29 0-5.96 2.67-5.96 5.96s2.67 5.96 5.96 5.96Zm20.74 1.46H4.97c-.81 0-.82 1.25 0 1.25h26.07c.81 0 .82-1.25 0-1.25Z"/>
</svg>
