<svg id="b338c540-e003-4c24-9ef5-3040873b4f03" data-name="Icon" xmlns="http://www.w3.org/2000/svg" viewBox="0 0 36 36">
  <g>
    <path d="M18.44,17.56l-13-13a.62.62,0,0,0-.88.88L17.12,18,4.56,30.56a.61.61,0,0,0,0,.88.63.63,0,0,0,.88,0l13-13A.61.61,0,0,0,18.44,17.56Z"/>
    <path d="M25.44,17.56l-13-13a.62.62,0,0,0-.88.88L24.12,18,11.56,30.56a.61.61,0,0,0,0,.88.63.63,0,0,0,.88,0l13-13A.61.61,0,0,0,25.44,17.56Z"/>
    <path d="M32.44,17.56l-13-13a.62.62,0,0,0-.88.88L31.12,18,18.56,30.56a.61.61,0,0,0,0,.88.63.63,0,0,0,.88,0l13-13A.61.61,0,0,0,32.44,17.56Z"/>
  </g>
</svg>
