<svg id="e83c941d-ef92-43df-a1fe-10dbac690fad" data-name="Icon" xmlns="http://www.w3.org/2000/svg" viewBox="0 0 36 36">
  <g>
    <path d="M31,23.38a.62.62,0,0,0-.62.62v5.49L16.62,15.74V5A.62.62,0,0,0,16,4.38H5A.62.62,0,0,0,4.38,5V16a.62.62,0,0,0,.62.62H15.74L29.49,30.38H24a.62.62,0,0,0,0,1.24h7a.62.62,0,0,0,.41-.16.65.65,0,0,0,.22-.46V24A.62.62,0,0,0,31,23.38Zm-15.62-8H5.62V5.62h9.76Z"/>
    <path d="M20,30.38H6.62V19a.62.62,0,0,0-1.24,0V31a.62.62,0,0,0,.62.62H20A.62.62,0,0,0,20,30.38Z"/>
    <path d="M31,5.38H19a.62.62,0,0,0,0,1.24H30.38V20a.62.62,0,0,0,1.24,0V6A.62.62,0,0,0,31,5.38Z"/>
  </g>
</svg>
