<svg id="b8e661e4-ea82-4b0f-b466-3da9f27988a4" data-name="Icon" xmlns="http://www.w3.org/2000/svg" viewBox="0 0 36 36">
  <path d="M31,10.62a.62.62,0,0,0,.62-.62V5a.69.69,0,0,0-.2-.46A.6.6,0,0,0,31,4.38H26a.62.62,0,0,0,0,1.24h3.49L20.08,15a3.64,3.64,0,0,0-4.16,0L6.51,5.62H10a.62.62,0,0,0,0-1.24H5A.63.63,0,0,0,4.37,5v5a.62.62,0,0,0,1.24,0V6.51L15,15.92a3.64,3.64,0,0,0,0,4.16L5.62,29.49V26a.62.62,0,0,0-1.24,0v5a.69.69,0,0,0,.2.46.6.6,0,0,0,.42.16h5a.62.62,0,0,0,0-1.24H6.51L15.92,21a3.64,3.64,0,0,0,4.16,0l9.41,9.42H26a.62.62,0,0,0,0,1.24h5a.63.63,0,0,0,.63-.62V26a.62.62,0,0,0-1.24,0v3.49L21,20.08a3.64,3.64,0,0,0,0-4.16l9.42-9.41V10A.62.62,0,0,0,31,10.62ZM15.62,18a2.38,2.38,0,0,1,4.75,0A2.38,2.38,0,0,1,15.62,18Z"/>
</svg>
