<svg id="a91d7819-96be-414c-88f5-61305e87413b" data-name="Icon" xmlns="http://www.w3.org/2000/svg" viewBox="0 0 36 36">
  <g>
    <path d="M31.58,4.78a.62.62,0,0,0-.58-.4H24a.62.62,0,0,0,0,1.24h5.49L15.74,19.38H5a.62.62,0,0,0-.62.62V31a.62.62,0,0,0,.62.62H16a.62.62,0,0,0,.62-.62V20.26L30.38,6.51V12a.62.62,0,0,0,1.24,0V5A.54.54,0,0,0,31.58,4.78Zm-16.2,25.6H5.62V20.62h9.76Z"/>
    <path d="M31,15.38a.62.62,0,0,0-.62.62V29.38H19a.62.62,0,0,0,0,1.24H31a.62.62,0,0,0,.62-.62V16A.62.62,0,0,0,31,15.38Z"/>
    <path d="M6,17.62A.62.62,0,0,0,6.62,17V5.62H20a.62.62,0,1,0,0-1.24H6A.62.62,0,0,0,5.38,5V17A.62.62,0,0,0,6,17.62Z"/>
  </g>
</svg>
