<svg id="e20d533f-c9e1-47f4-b249-1444ae8e5f6e" data-name="Icon" xmlns="http://www.w3.org/2000/svg" viewBox="0 0 36 36">
  <path d="M31.62,18a.55.55,0,0,0-.18-.44l-3-3c-.56-.58-1.47.32-.88.88l1.93,1.94H23a7.36,7.36,0,0,1-6.93-4.93,3.61,3.61,0,1,0-1.29.15,8.62,8.62,0,0,0,3.76,4.78h-7a3.62,3.62,0,1,0,0,1.25h7a8.59,8.59,0,0,0-3.76,4.77,3.61,3.61,0,1,0,1.29.15A7.34,7.34,0,0,1,23,18.63h6.5l-1.93,1.93a.62.62,0,0,0,.88.88l3-3A.69.69,0,0,0,31.62,18Zm-19-9a2.38,2.38,0,0,1,4.75,0A2.38,2.38,0,0,1,12.62,9Zm4.76,18a2.38,2.38,0,0,1-4.75,0A2.38,2.38,0,0,1,17.38,27ZM8,20.38a2.38,2.38,0,0,1,0-4.75A2.38,2.38,0,0,1,8,20.38Z"/>
</svg>
