<svg id="a88662b4-150c-43c5-9cdc-65e87985cc30" data-name="Icon" xmlns="http://www.w3.org/2000/svg" viewBox="0 0 36 36">
  <g>
    <path d="M23.38,8.76A9.13,9.13,0,0,0,18,10.51C12.1,6.09,3.27,10.58,3.38,18,3.27,25.42,12.1,29.91,18,25.49c5.94,4.43,14.72-.08,14.62-7.49A9.25,9.25,0,0,0,23.38,8.76ZM4.62,18a8,8,0,0,1,8-8c10.58.4,10.58,15.58,0,16A8,8,0,0,1,4.62,18Zm18.76,8A7.94,7.94,0,0,1,19,24.67c3.76-3.29,3.76-10.05,0-13.34,5.13-3.54,12.5.44,12.38,6.67A8,8,0,0,1,23.38,26Z"/>
    <path d="M15.39,18a.63.63,0,0,0-1.25,0A.63.63,0,0,0,15.39,18Z"/>
    <path d="M15,16.06a.62.62,0,0,0,.36-1.19A.62.62,0,0,0,15,16.06Z"/>
    <path d="M16.61,12.65a.61.61,0,0,0-.86.16h0a.64.64,0,0,0,.52,1A.63.63,0,0,0,16.61,12.65Z"/>
    <path d="M15.9,22.32a.63.63,0,0,0,.71,1A.63.63,0,0,0,15.9,22.32Z"/>
    <path d="M15.75,20.35h0a.62.62,0,0,0-1.19.36A.62.62,0,0,0,15.74,20.35Z"/>
  </g>
</svg>
