<svg id="fb544976-3ecd-489f-8613-0c46853489e6" data-name="Icon" xmlns="http://www.w3.org/2000/svg" viewBox="0 0 36 36">
  <g>
    <path d="M31,16.38H20.62v-.76H25a.61.61,0,0,0,.62-.62V5A.61.61,0,0,0,25,4.38H11a.61.61,0,0,0-.62.62V15a.61.61,0,0,0,.62.62h4.38v.76H5a.62.62,0,1,0,0,1.24h.38V31a.62.62,0,0,0,1.24,0V17.62H19.38V28a.61.61,0,0,0,.62.62h9.38V31a.62.62,0,0,0,1.24,0V17.62H31a.62.62,0,0,0,0-1.24Zm-11.62,0H16.62v-.76h2.76Zm-3.38-2H11.62V5.62H24.38v8.76H16Zm13.38,13H20.62V17.62h8.76Z"/>
    <path d="M23,22.62h4a.62.62,0,0,0,0-1.24H23a.62.62,0,0,0,0,1.24Z"/>
  </g>
</svg>
