<svg id="a88aca53-9598-49fb-b495-f3bd6352f6a8" data-name="Icon" xmlns="http://www.w3.org/2000/svg" viewBox="0 0 36 36">
  <g>
    <path d="M29,30.38a.63.63,0,0,0-.62.63.63.63,0,0,0,1.25,0A.63.63,0,0,0,29,30.38Z"/>
    <path d="M13,30.38a.63.63,0,0,0-.62.63.63.63,0,0,0,1.25,0A.63.63,0,0,0,13,30.38Z"/>
    <path d="M31,27.38H11.62V8A3.62,3.62,0,1,0,4.38,8,.62.62,0,0,0,5.62,8a2.38,2.38,0,0,1,4.76,0V28a.61.61,0,0,0,.62.62H31a.62.62,0,0,0,0-1.24Z"/>
    <path d="M14,25.62H30a.61.61,0,0,0,.62-.62V9A.61.61,0,0,0,30,8.38H14a.61.61,0,0,0-.62.62V25A.61.61,0,0,0,14,25.62Zm6.62-16h2.76v4.76H20.62Zm-6,0h4.76V15a.61.61,0,0,0,.62.62h4a.61.61,0,0,0,.62-.62V9.62h4.76V24.38H14.62Z"/>
  </g>
</svg>
