<svg id="b1a9cd7b-f561-43ff-9d31-d37c2185b9c5" data-name="Layer 1" xmlns="http://www.w3.org/2000/svg" viewBox="0 0 36 36">
  <g>
    <path d="M30,4.375H6A1.627,1.627,0,0,0,4.375,6V31A.625.625,0,0,0,5,31.625H31A.625.625,0,0,0,31.625,31V6A1.627,1.627,0,0,0,30,4.375ZM6,5.625H30A.375.375,0,0,1,30.375,6V8.35H5.625V6A.375.375,0,0,1,6,5.625Zm-.375,24.75V9.625h24.75v20.75Z"/>
    <path d="M21.552,18.671l2.482.664a.623.623,0,0,0,.766-.441.625.625,0,0,0-.442-.766l-2.129-.57L22.8,15.43a.625.625,0,0,0-1.207-.324l-.666,2.482-2.3,1.329V16.259l1.817-1.817a.625.625,0,0,0-.884-.884L18,15.116l-1.558-1.558a.625.625,0,0,0-.884.884l1.817,1.817v2.658l-2.3-1.329-.666-2.482a.618.618,0,0,0-.765-.441.624.624,0,0,0-.442.765l.571,2.128-2.129.57a.625.625,0,0,0,.162,1.229.619.619,0,0,0,.162-.022l2.482-.664L16.75,20l-2.3,1.329-2.482-.664a.625.625,0,1,0-.324,1.207l2.129.57L13.2,24.57a.624.624,0,0,0,.442.765.608.608,0,0,0,.162.022.624.624,0,0,0,.6-.463l.666-2.482,2.3-1.329v2.658l-1.817,1.817a.625.625,0,0,0,.884.884L18,24.884l1.558,1.558a.625.625,0,0,0,.884-.884l-1.817-1.817V21.083l2.3,1.329.666,2.482a.624.624,0,0,0,.6.463.608.608,0,0,0,.162-.022.624.624,0,0,0,.442-.765l-.571-2.128,2.129-.57a.625.625,0,0,0,.442-.766.619.619,0,0,0-.766-.441l-2.482.664L19.25,20Z"/>
  </g>
</svg>
