<svg id="ed74debe-ff7b-4f5b-a5f5-ca0de9f408e9" data-name="Icon" xmlns="http://www.w3.org/2000/svg" viewBox="0 0 36 36">
  <g>
    <path d="M24,30.38a.63.63,0,0,0-.62.63.63.63,0,0,0,1.25,0A.63.63,0,0,0,24,30.38Z"/>
    <path d="M18,30.38a.63.63,0,0,0-.62.63.63.63,0,0,0,1.25,0A.63.63,0,0,0,18,30.38Z"/>
    <path d="M12,30.38a.63.63,0,0,0-.62.63.63.63,0,0,0,1.25,0A.63.63,0,0,0,12,30.38Z"/>
    <path d="M24,19.38h-.33l.95-12.33a.57.57,0,0,0-.16-.47.63.63,0,0,0-.46-.2H12a.63.63,0,0,0-.46.2.57.57,0,0,0-.16.47l.95,12.33H12A2.62,2.62,0,0,0,9.38,22v2a.61.61,0,0,0,.62.62h7.38v3.76H11a.62.62,0,1,0,0,1.24H25a.62.62,0,0,0,0-1.24H18.62V24.62H26a.61.61,0,0,0,.62-.62V22A2.62,2.62,0,0,0,24,19.38ZM23.33,7.62l-.91,11.76H13.58L12.67,7.62Zm2.05,15.76H10.62V22A1.38,1.38,0,0,1,12,20.62H24A1.38,1.38,0,0,1,25.38,22Z"/>
    <path d="M15,5.62h6a.62.62,0,1,0,0-1.24H15a.62.62,0,1,0,0,1.24Z"/>
    <path d="M10.62,17a.61.61,0,0,0-.62-.62H8a.62.62,0,1,0,0,1.24h2A.61.61,0,0,0,10.62,17Z"/>
    <path d="M28,16.38H26a.62.62,0,0,0,0,1.24h2a.62.62,0,0,0,0-1.24Z"/>
  </g>
</svg>
