<svg id="e199483d-cc89-4886-8c1c-7311d867a164" data-name="Icon" xmlns="http://www.w3.org/2000/svg" viewBox="0 0 36 36">
  <g>
    <path d="M23,14.63a.62.62,0,0,0,.63-.62.63.63,0,1,0-1.25,0A.62.62,0,0,0,23,14.63Z"/>
    <path d="M25,14.63a.62.62,0,0,0,.63-.62.63.63,0,1,0-1.25,0A.62.62,0,0,0,25,14.63Z"/>
    <path d="M27,14.63a.62.62,0,0,0,.63-.62.63.63,0,1,0-1.25,0A.62.62,0,0,0,27,14.63Z"/>
    <path d="M30,30.38a.63.63,0,0,0-.62.63.63.63,0,0,0,1.25,0A.63.63,0,0,0,30,30.38Z"/>
    <path d="M12,30.38a.63.63,0,0,0-.62.63.63.63,0,0,0,1.25,0A.63.63,0,0,0,12,30.38Z"/>
    <path d="M30,10.38H12a.61.61,0,0,0-.62.62v4.49L6.44,10.56a.62.62,0,0,0-.88.88l5.82,5.82V29a.61.61,0,0,0,.62.62H30a.61.61,0,0,0,.62-.62V11A.61.61,0,0,0,30,10.38Zm-.62,6H18a.62.62,0,0,0,0,1.24H29.38v2.76H18a.62.62,0,0,0,0,1.24H29.38v2.76H18a.62.62,0,0,0,0,1.24H29.38v2.76H12.62V11.62H29.38Z"/>
    <path d="M30,4.38H18a.61.61,0,0,0-.62.62V9a.61.61,0,0,0,.62.62H30A.61.61,0,0,0,30.62,9V5A.61.61,0,0,0,30,4.38Zm-.62,4H18.62V5.62H29.38Z"/>
  </g>
</svg>
