<svg id="b89478e5-f411-4dc6-8f50-305f9946ad88" data-name="Icon" xmlns="http://www.w3.org/2000/svg" viewBox="0 0 36 36">
  <g>
    <path d="M31.38,14.5l-3.76-2.88V9a.62.62,0,0,0-1.24,0v1.65l-8-6.15a.63.63,0,0,0-.76,0l-13,10a.63.63,0,0,0-.12.88.64.64,0,0,0,.88.12V31a.62.62,0,0,0,1.24,0V14.54L18,5.79l11.38,8.75V31a.62.62,0,0,0,1.24,0V15.5a.68.68,0,0,0,.38.12.62.62,0,0,0,.38-1.12Z"/>
    <path d="M12.38,22v7a.61.61,0,0,0,.62.62H23a.61.61,0,0,0,.62-.62V22a.61.61,0,0,0-.62-.62H13A.61.61,0,0,0,12.38,22Zm1.24.62h8.76v5.76H13.62Z"/>
    <path d="M25,30.38H11a.62.62,0,1,0,0,1.24H25a.62.62,0,0,0,0-1.24Z"/>
    <path d="M16.14,18.14A.63.63,0,0,0,17,19,1.4,1.4,0,0,1,19,19a.62.62,0,0,0,.44.18.66.66,0,0,0,.45-.18.64.64,0,0,0,0-.89A2.7,2.7,0,0,0,16.14,18.14Z"/>
    <path d="M21.4,17.22a.62.62,0,0,0,.44-.18.61.61,0,0,0,0-.88,5.43,5.43,0,0,0-7.68,0,.61.61,0,0,0,0,.88A.63.63,0,0,0,15,17,4.19,4.19,0,0,1,21,17,.62.62,0,0,0,21.4,17.22Z"/>
    <path d="M23.78,14.22a8.16,8.16,0,0,0-11.56,0,.62.62,0,0,0,.88.88,6.93,6.93,0,0,1,9.8,0,.63.63,0,0,0,.88,0A.61.61,0,0,0,23.78,14.22Z"/>
  </g>
</svg>
