<svg id="a4bf5208-1808-4a87-9a59-a8027c7f862d" data-name="Icon" xmlns="http://www.w3.org/2000/svg" viewBox="0 0 36 36">
  <g>
    <path d="M11.24,13.37a.63.63,0,0,0-.62.63.63.63,0,0,0,1.25,0A.63.63,0,0,0,11.24,13.37Z"/>
    <path d="M31.5,13.62a.64.64,0,0,0-.5-.24H26.94l.66-2.2a.63.63,0,0,0-.41-.78l-16-5a.64.64,0,0,0-.79.42l-3,10a.63.63,0,0,0,.41.78l3.59,1.12A4.53,4.53,0,0,0,13.69,22a8.91,8.91,0,0,1-4.25,3.79A4.63,4.63,0,0,0,5,22.38a.61.61,0,0,0-.62.62v8a.61.61,0,0,0,.62.62A4.62,4.62,0,0,0,9.62,27a10.14,10.14,0,0,0,5.23-4.57A4.58,4.58,0,0,0,20,20.39l3.86,1.21a.62.62,0,0,0,.48-.05.63.63,0,0,0,.31-.37l.66-2.2,3.36,2.52a.63.63,0,0,0,1-.33l2-7A.64.64,0,0,0,31.5,13.62ZM5.62,30.32V23.68A3.38,3.38,0,0,1,5.62,30.32ZM16,21.38a3.36,3.36,0,0,1-3.36-3.28L18.7,20A3.37,3.37,0,0,1,16,21.38Zm7.58-1.17L8.78,15.59l2.64-8.8,14.8,4.62ZM28.65,20l-2.94-2.21c.18-.79.61-2.36.86-3.13h3.6Z"/>
    <path d="M17.35,15.24l-3.73-1.16a.62.62,0,0,0-.37,1.19l3.63,1.14a.67.67,0,0,0,.88-.38A.62.62,0,0,0,17.35,15.24Z"/>
  </g>
</svg>
