<svg id="a399a94f-6590-464d-bd56-f4db5e27a454" data-name="Icon" xmlns="http://www.w3.org/2000/svg" viewBox="0 0 36 36">
  <g>
    <path d="M31,8.38H24.52l-.75-3.51a.62.62,0,0,0-.61-.49H12.84a.62.62,0,0,0-.61.49l-.75,3.51H5A.62.62,0,0,0,4.38,9V29a.62.62,0,0,0,.62.62H31a.62.62,0,0,0,.62-.62V9A.62.62,0,0,0,31,8.38ZM13.35,5.62h9.3l.59,2.76H12.76Zm17,4v4.76H5.62V9.62ZM5.62,28.38V15.62H30.38V28.38Z"/>
    <circle cx="27" cy="31" r="0.62"/>
    <path d="M24,12.62h3a.62.62,0,0,0,0-1.24H24A.62.62,0,0,0,24,12.62Z"/>
    <circle cx="15" cy="12" r="0.62"/>
    <circle cx="12" cy="12" r="0.62"/>
    <circle cx="9" cy="12" r="0.62"/>
    <circle cx="9" cy="31" r="0.62"/>
  </g>
</svg>
