<svg xmlns="http://www.w3.org/2000/svg" viewBox="0 0 36 36">
  <path d="M19.88 7.5c-.06-2.47-3.69-2.47-3.75 0 .06 2.47 3.69 2.47 3.75 0Z" fill="none"/>
  <path d="m28.96 22.5-1.39-2.77s-.04-.05-.06-.07c-.29-.46-1.06-.28-1.11.26 0 4.44-3.39 8.13-7.78 8.45V13.62H24c.35 0 .62-.28.62-.62s-.28-.62-.62-.62h-5.38v-1.81c3.63-.79 3.13-6.13-.63-6.19-3.75.06-4.25 5.4-.62 6.19v1.81h-5.38c-.35 0-.62.28-.62.62s.28.62.62.62h5.38v14.73c-4.34-.32-7.77-3.94-7.77-8.36a.671.671 0 0 0-.36-.56c-.31-.14-.66 0-.82.28l-1.39 2.77c-.36.73.75 1.29 1.12.56l.45-.91a9.642 9.642 0 0 0 8.77 7.46v1.39c0 .34.28.62.62.62s.62-.28.62-.62v-1.39c4.3-.28 7.83-3.37 8.77-7.46l.45.91c.37.73 1.48.17 1.12-.56Zm-12.84-15c.06-2.47 3.69-2.47 3.75 0-.06 2.47-3.69 2.47-3.75 0Z" fill="#231f20"/>
</svg>
