<svg id="b63f06e1-c37b-4332-9ce2-b5df3c7e3a63" data-name="Icon" xmlns="http://www.w3.org/2000/svg" viewBox="0 0 36 36">
  <g>
    <path d="M18,19.52c6.11-.19,6.11-9,0-9.25C11.89,10.47,11.89,19.33,18,19.52Zm0-8a3.38,3.38,0,0,1,0,6.75A3.38,3.38,0,0,1,18,11.52Z"/>
    <path d="M28.44,26.56l-4-4c.5,0,1.2.07,1.21-.62V18.06l2.72-2.72a.61.61,0,0,0,0-.88l-2.72-2.72V7.9A.62.62,0,0,0,25,7.27H21.16L18.44,4.56a.61.61,0,0,0-.88,0L14.84,7.27H11a.62.62,0,0,0-.62.63v3.84L7.66,14.46a.61.61,0,0,0,0,.88l2.72,2.72V21.9c0,.69.71.64,1.21.62l-4,4A.62.62,0,0,0,8,27.62h3.38V31a.62.62,0,0,0,1.06.44L18,25.88l5.56,5.56A.62.62,0,0,0,24.62,31V27.62H28A.62.62,0,0,0,28.44,26.56ZM9,14.9l2.46-2.46a.59.59,0,0,0,.18-.44V8.52H15.1a.59.59,0,0,0,.44-.18L18,5.88l2.46,2.46a.59.59,0,0,0,.44.18h3.48V12a.59.59,0,0,0,.18.44L27,14.9l-2.46,2.46a.59.59,0,0,0-.18.44v3.47H20.9a.6.6,0,0,0-.44.19L18,23.92l-2.46-2.46a.6.6,0,0,0-.44-.19H11.62V17.8a.59.59,0,0,0-.18-.44Zm3,11.48H9.51l3.85-3.86h1.48l2.38,2.38-4.6,4.59V27A.62.62,0,0,0,12,26.38Zm12,0a.62.62,0,0,0-.62.62v2.49l-4.6-4.59,2.38-2.38h1.48l3.85,3.86Z"/>
  </g>
</svg>
