<svg id="ac1e0299-5f17-43b4-ab94-a9f01399ae73" data-name="Icon" xmlns="http://www.w3.org/2000/svg" viewBox="0 0 36 36"><path d="M31.62,10.72A6.35,6.35,0,0,0,20.79,6.23L17.56,9.47h0L9.47,17.56h0L6.23,20.79a6.37,6.37,0,0,0,0,9h0a6.37,6.37,0,0,0,9,0l3.23-3.24h0l8.09-8.09h0l3.24-3.23A6.31,6.31,0,0,0,31.62,10.72ZM18,10.79,25.21,18,18,25.21,10.79,18ZM14.32,28.88a5.07,5.07,0,0,1-7.2,0h0a5.07,5.07,0,0,1,0-7.2l2.79-2.8,7.21,7.21ZM26.09,17.12,18.88,9.91l2.8-2.79a5.09,5.09,0,1,1,7.2,7.2Z"/><path d="M17.56,18.44a.61.61,0,0,0,.44.19.6.6,0,0,0,.44-.19.66.66,0,0,0,.14-.2.69.69,0,0,0,.05-.24.61.61,0,0,0-.19-.44.63.63,0,0,0-.88,0,.6.6,0,0,0-.18.44.67.67,0,0,0,0,.24A.66.66,0,0,0,17.56,18.44Z"/><path d="M18.44,21.44a.66.66,0,0,0,.14-.2.69.69,0,0,0,.05-.24.61.61,0,0,0-.19-.44.64.64,0,0,0-.88,0,.6.6,0,0,0-.18.44.67.67,0,0,0,0,.24.56.56,0,0,0,.14.2.6.6,0,0,0,.88,0Z"/><path d="M17.56,15.44a.61.61,0,0,0,.44.19.6.6,0,0,0,.44-.19.66.66,0,0,0,.14-.2.74.74,0,0,0,0-.48.56.56,0,0,0-.14-.2.63.63,0,0,0-.88,0,.56.56,0,0,0-.14.2.74.74,0,0,0,0,.48A.66.66,0,0,0,17.56,15.44Z"/><path d="M14.56,17.56a.61.61,0,0,0-.19.44.69.69,0,0,0,.05.24.66.66,0,0,0,.14.2.6.6,0,0,0,.88,0,.66.66,0,0,0,.14-.2.67.67,0,0,0,0-.24.6.6,0,0,0-.18-.44A.63.63,0,0,0,14.56,17.56Z"/><path d="M20.56,18.44a.6.6,0,0,0,.44.19.69.69,0,0,0,.24-.05.7.7,0,0,0,.34-.34.69.69,0,0,0,.05-.24.63.63,0,0,0-1.07-.44.61.61,0,0,0-.19.44.69.69,0,0,0,.05.24A.66.66,0,0,0,20.56,18.44Z"/></svg>