<svg id="b5266856-b09f-40fc-a7f2-d1b856a7a846" data-name="Icon" xmlns="http://www.w3.org/2000/svg" viewBox="0 0 36 36">
  <g>
    <path d="M31,4.38H5A.62.62,0,0,0,4.38,5V31a.62.62,0,0,0,.62.62H31a.62.62,0,0,0,.62-.62V5A.62.62,0,0,0,31,4.38Zm-.62,26H5.62V5.62H30.38Z"/>
    <path d="M9,10.62A.62.62,0,0,0,9.62,10V9.62H26.38V26.38H9.62V26a.62.62,0,0,0-1.24,0v1a.62.62,0,0,0,.62.62H27a.62.62,0,0,0,.62-.62V9A.62.62,0,0,0,27,8.38H9A.62.62,0,0,0,8.38,9v1A.62.62,0,0,0,9,10.62Z"/>
    <path d="M8,16.62h2a.62.62,0,0,0,.62-.62V12a.62.62,0,0,0-.62-.62H8a.62.62,0,0,0-.62.62v4A.62.62,0,0,0,8,16.62Zm.62-4h.76v2.76H8.62Z"/>
    <path d="M8,24.62h2a.62.62,0,0,0,.62-.62V20a.62.62,0,0,0-.62-.62H8a.62.62,0,0,0-.62.62v4A.62.62,0,0,0,8,24.62Zm.62-4h.76v2.76H8.62Z"/>
    <path d="M15.56,22.44a.61.61,0,0,0,.88,0L17.92,21a3.64,3.64,0,0,0,4.16,0l1.48,1.48a.62.62,0,0,0,.88-.88L23,20.08a3.64,3.64,0,0,0,0-4.16l1.48-1.48c.58-.56-.32-1.46-.88-.88L22.08,15a3.64,3.64,0,0,0-4.16,0l-1.48-1.48c-.56-.58-1.46.32-.88.88L17,15.92a3.64,3.64,0,0,0,0,4.16l-1.48,1.48A.61.61,0,0,0,15.56,22.44ZM22.38,18a2.38,2.38,0,0,1-4.75,0A2.38,2.38,0,0,1,22.38,18Z"/>
    <circle cx="20" cy="18" r="0.62"/>
  </g>
</svg>
