<svg id="aa3329ac-c6b1-4d00-99cc-4423eda42f5c" data-name="Icon" xmlns="http://www.w3.org/2000/svg" viewBox="0 0 36 36">
  <g>
    <path d="M24,6.38H21.62V5A.62.62,0,0,0,21,4.38H15a.62.62,0,0,0-.62.62V6.38H12a.62.62,0,0,0-.62.62V31a.62.62,0,0,0,.62.62H24a.62.62,0,0,0,.62-.62V7A.62.62,0,0,0,24,6.38Zm-8.38-.76h4.76v.76H15.62Zm7.76,24.76H12.62V7.62H23.38Z"/>
    <path d="M20,26.38H16a.62.62,0,1,0,0,1.24h4a.62.62,0,0,0,0-1.24Z"/>
    <path d="M20,12.38H18.62V11a.62.62,0,1,0-1.24,0v1.38H16a.62.62,0,0,0,0,1.24h1.38V15a.62.62,0,1,0,1.24,0V13.62H20a.62.62,0,1,0,0-1.24Z"/>
  </g>
</svg>
