<svg id="f4de47a5-adf0-47b4-a408-2f7b4d815975" data-name="Icon" xmlns="http://www.w3.org/2000/svg" viewBox="0 0 36 36">
  <g>
    <path d="M31,9.38H24.26L21.44,6.56A.6.6,0,0,0,21,6.38H15a.6.6,0,0,0-.44.18L11.74,9.38H5a.62.62,0,0,0-.62.62V29a.62.62,0,0,0,.62.62H31a.62.62,0,0,0,.62-.62V10A.62.62,0,0,0,31,9.38ZM12,10.62a.6.6,0,0,0,.44-.18l2.82-2.82h5.48l2.82,2.82a.6.6,0,0,0,.44.18h6.38v4.76H22.73a6.59,6.59,0,0,0-9.46,0H5.62V10.62Zm6,4A5.38,5.38,0,1,1,12.62,20,5.39,5.39,0,0,1,18,14.62ZM5.62,28.38V16.62h6.69a6.62,6.62,0,1,0,11.38,0h6.69V28.38Z"/>
    <path d="M8,8.62h2a.62.62,0,0,0,0-1.24H8A.62.62,0,1,0,8,8.62Z"/>
    <path d="M26,13.62h2a.62.62,0,1,0,0-1.24H26a.62.62,0,0,0,0,1.24Z"/>
    <path d="M15,20.62a.62.62,0,0,0,.62-.62A2.39,2.39,0,0,1,18,17.62a.62.62,0,0,0,0-1.24A3.62,3.62,0,0,0,14.38,20,.62.62,0,0,0,15,20.62Z"/>
  </g>
</svg>
