<svg id="bf058842-65a6-4420-b8ca-9b3c1622c268" data-name="Icon" xmlns="http://www.w3.org/2000/svg" viewBox="0 0 36 36">
  <g>
    <path d="M24,12.62a.62.62,0,0,0,.44-.18l7-7c.58-.56-.31-1.47-.88-.88l-7,7A.62.62,0,0,0,24,12.62Z"/>
    <path d="M29,15.38H24a.62.62,0,0,0,0,1.24h5A.62.62,0,0,0,29,15.38Z"/>
    <path d="M32.58,15.76a.63.63,0,0,0-1.16.48A.63.63,0,0,0,32.58,15.76Z"/>
    <path d="M20,12.62a.62.62,0,0,0,.62-.62V7a.62.62,0,0,0-1.24,0v5A.62.62,0,0,0,20,12.62Z"/>
    <path d="M19.56,4.44a.62.62,0,0,0,.88-.88C19.86,3,19,3.86,19.56,4.44Z"/>
    <path d="M14.44,10.56a.64.64,0,0,0-1,.18l-9,20a.63.63,0,0,0,.83.83l20-9a.63.63,0,0,0,.18-1Zm-1.06,16L9.62,28.23v-6l3.76-8.34Zm1.24-14,3.76,3.75v8L14.62,26ZM8.38,25V28.8l-2.13.95Zm11.24-1.29V17.51l4.3,4.29Z"/>
  </g>
</svg>
