<svg id="b40fe8b5-3168-4201-99e1-075e9c1a0de7" data-name="Icon" xmlns="http://www.w3.org/2000/svg" viewBox="0 0 36 36">
  <g>
    <path d="M32,17.38a.62.62,0,0,0-.62.62,13.38,13.38,0,1,1-14-13.34V14.94A3.12,3.12,0,0,0,18,21.12a3.09,3.09,0,0,0,1.75-.53l1.8,1.85a.63.63,0,1,0,.9-.88L20.62,19.7a3.08,3.08,0,0,0,.5-1.7,3.12,3.12,0,0,0-2.5-3.06V4A.62.62,0,0,0,18,3.38,14.62,14.62,0,1,0,32.62,18,.62.62,0,0,0,32,17.38ZM19.88,18A1.88,1.88,0,1,1,18,16.12,1.89,1.89,0,0,1,19.88,18Z"/>
    <circle cx="26" cy="10" r="0.62"/>
    <circle cx="29" cy="18" r="0.62"/>
    <circle cx="26" cy="26" r="0.62"/>
    <circle cx="18" cy="29" r="0.62"/>
    <circle cx="10" cy="26.01" r="0.62"/>
    <circle cx="7" cy="18.09" r="0.62"/>
    <circle cx="10" cy="10" r="0.62"/>
  </g>
</svg>
