<svg id="a1d9e491-5dbf-4c74-aaab-36ce213e1d46" data-name="Icon" xmlns="http://www.w3.org/2000/svg" viewBox="0 0 36 36">
  <g>
    <path d="M18,3.38A14.62,14.62,0,1,0,32.62,18,14.64,14.64,0,0,0,18,3.38Zm.62,28V29.85a.62.62,0,1,0-1.24,0v1.49A13.37,13.37,0,0,1,4.66,18.62H6.15a.62.62,0,1,0,0-1.24H4.66A13.37,13.37,0,0,1,17.38,4.66V6.15a.62.62,0,1,0,1.24,0V4.66A13.37,13.37,0,0,1,31.34,17.38H29.85a.62.62,0,1,0,0,1.24h1.49A13.37,13.37,0,0,1,18.62,31.34Z"/>
    <path d="M26.44,9.56a.62.62,0,0,0-.78-.08L16,15.78a.52.52,0,0,0-.18.18l-6.3,9.7a.62.62,0,0,0,.86.86l9.7-6.3a.52.52,0,0,0,.18-.18l6.3-9.7A.62.62,0,0,0,26.44,9.56Zm-7.19,9.69-7.12,4.62,4.62-7.12,7.12-4.62Z"/>
    <path d="M18,18.75a.62.62,0,0,0,.62-.62.63.63,0,0,0-1.25,0A.63.63,0,0,0,18,18.75Z"/>
    <circle cx="10" cy="10" r="0.62"/>
    <path d="M26,25.38a.62.62,0,1,0,.62.62A.62.62,0,0,0,26,25.38Z"/>
  </g>
</svg>
