<svg id="a2acd8fc-99da-4d9d-9333-50849948b41d" data-name="Icon" xmlns="http://www.w3.org/2000/svg" viewBox="0 0 36 36">
  <g>
    <path d="M31,8.38H5A.62.62,0,0,0,4.38,9V27a.62.62,0,0,0,.62.62H31a.62.62,0,0,0,.62-.62V9A.62.62,0,0,0,31,8.38ZM5.62,9.62h4.76V26.38H5.62ZM30.38,26.38H11.62V9.62H30.38Z"/>
    <path d="M15,14.62h.38V24a.62.62,0,0,0,1.24,0V14.62H17a.62.62,0,0,0,0-1.24h-.38V12a.62.62,0,1,0-1.24,0v1.38H15a.62.62,0,0,0,0,1.24Z"/>
    <path d="M20,21.62h.38V24a.62.62,0,0,0,1.24,0V21.62H22a.62.62,0,0,0,0-1.24h-.38V12a.62.62,0,0,0-1.24,0v8.38H20a.62.62,0,0,0,0,1.24Z"/>
    <path d="M25,18.62h.38V24a.62.62,0,0,0,1.24,0V18.62H27a.62.62,0,0,0,0-1.24h-.38V12a.62.62,0,0,0-1.24,0v5.38H25a.62.62,0,0,0,0,1.24Z"/>
    <circle cx="8" cy="12" r="0.62"/>
    <circle cx="8" cy="24" r="0.62"/>
    <circle cx="8" cy="21" r="0.62"/>
    <circle cx="8" cy="18" r="0.62"/>
    <circle cx="8" cy="15" r="0.62"/>
  </g>
</svg>
