<svg xmlns="http://www.w3.org/2000/svg" viewBox="0 0 36 36">
  <path d="M31 9.38H5a.62.62 0 0 0-.62.62v16a.62.62 0 0 0 .62.62h26a.62.62 0 0 0 .62-.62V10a.62.62 0 0 0-.62-.62Zm-.62 16H5.62V10.62h24.76Z"/>
  <path d="M8 18.62h5a.62.62 0 0 0 .62-.62v-5a.62.62 0 0 0-.62-.62H8a.62.62 0 0 0-.62.62v5a.62.62 0 0 0 .62.62Zm.62-5h3.76v3.76H8.62Zm13.38 0h6a.62.62 0 1 0 0-1.24h-6a.62.62 0 0 0 0 1.24Zm-14 10h2a.62.62 0 0 0 0-1.24H8a.62.62 0 1 0 0 1.24Zm4.38-.62a.62.62 0 0 0 .62.62h2a.62.62 0 0 0 0-1.24h-2a.62.62 0 0 0-.62.62Zm5.62.62h2a.62.62 0 0 0 0-1.24h-2a.62.62 0 0 0 0 1.24Zm7-1.24h-2a.62.62 0 0 0 0 1.24h2a.62.62 0 0 0 0-1.24Z"/>
</svg>
