<svg id="a9389e46-8ead-4052-bc6b-26791d580afb" data-name="Icon" xmlns="http://www.w3.org/2000/svg" viewBox="0 0 36 36">
  <g>
    <path d="M31,9.38H5a.62.62,0,0,0-.62.62V26a.62.62,0,0,0,.62.62H31a.62.62,0,0,0,.62-.62V10A.62.62,0,0,0,31,9.38Zm-.62,16H5.62V10.62H30.38Z"/>
    <path d="M8,18.62h5a.62.62,0,0,0,.62-.62V13a.62.62,0,0,0-.62-.62H8a.62.62,0,0,0-.62.62v5A.62.62,0,0,0,8,18.62Zm.62-5h3.76v3.76H8.62Z"/>
    <path d="M22,13.62h6a.62.62,0,1,0,0-1.24H22a.62.62,0,0,0,0,1.24Z"/>
    <path d="M8,23.62h2a.62.62,0,0,0,0-1.24H8a.62.62,0,1,0,0,1.24Z"/>
    <path d="M12.38,23a.62.62,0,0,0,.62.62h2a.62.62,0,0,0,0-1.24H13A.62.62,0,0,0,12.38,23Z"/>
    <path d="M18,23.62h2a.62.62,0,0,0,0-1.24H18a.62.62,0,0,0,0,1.24Z"/>
    <path d="M25,22.38H23a.62.62,0,0,0,0,1.24h2a.62.62,0,0,0,0-1.24Z"/>
  </g>
</svg>
