<svg id="ea41e4cc-84aa-44ef-99c3-be6773012297" data-name="Icon" xmlns="http://www.w3.org/2000/svg" viewBox="0 0 36 36">
  <path d="M25.5,4.38a6.12,6.12,0,0,0-6.12,6.12v15a4.88,4.88,0,0,1-9.76,0V21.56a4.61,4.61,0,0,0,4-4.56V13a.62.62,0,0,0-.62-.62H11.62V9a.62.62,0,0,0-1.24,0v3.38H7.62V9A.62.62,0,0,0,6.38,9v3.38H5a.62.62,0,0,0-.62.62v4a4.61,4.61,0,0,0,4,4.56V25.5a6.12,6.12,0,0,0,12.24,0v-15a4.88,4.88,0,1,1,9.76,0V27a.62.62,0,0,0,1.24,0V10.5A6.12,6.12,0,0,0,25.5,4.38ZM5.62,17V13.62h6.76V17a3.38,3.38,0,0,1-6.76,0Z"/>
</svg>
