<svg id="f375cd2b-e6f3-4bc7-98f2-a51b347295b2" data-name="Icon" xmlns="http://www.w3.org/2000/svg" viewBox="0 0 36 36">
  <g>
    <path d="M32.36,15.29a.62.62,0,0,0-.61-.51H28.41A10.58,10.58,0,0,0,27.67,13L30,10.6a.62.62,0,0,0,.08-.79A14.72,14.72,0,0,0,26.3,6a.62.62,0,0,0-.8.08L23.15,8.39a11,11,0,0,0-1.84-.77V4.26a.62.62,0,0,0-.51-.61,14.25,14.25,0,0,0-5.41,0,.62.62,0,0,0-.52.62V7.56a10.8,10.8,0,0,0-1.9.77L10.6,6a.63.63,0,0,0-.79-.08A14.72,14.72,0,0,0,6,9.7a.62.62,0,0,0,.08.8l2.35,2.35a10.48,10.48,0,0,0-.8,1.93H4.25a.62.62,0,0,0-.61.51,14.25,14.25,0,0,0,0,5.42.62.62,0,0,0,.61.51H7.59a10.48,10.48,0,0,0,.8,1.93L6,25.5a.62.62,0,0,0-.08.8,14.72,14.72,0,0,0,3.85,3.82A.62.62,0,0,0,10.6,30L13,27.67a10.8,10.8,0,0,0,1.9.77v3.32a.62.62,0,0,0,.52.62,14.49,14.49,0,0,0,5.41,0,.62.62,0,0,0,.51-.61V28.38a11,11,0,0,0,1.84-.77L25.5,30a.62.62,0,0,0,.8.08,14.72,14.72,0,0,0,3.82-3.85A.62.62,0,0,0,30,25.4L27.67,23a10.58,10.58,0,0,0,.74-1.81h3.34a.62.62,0,0,0,.61-.51,14.25,14.25,0,0,0,0-5.42ZM31.22,20H27.94a.62.62,0,0,0-.6.47,9.78,9.78,0,0,1-1,2.39.62.62,0,0,0,.1.75l2.33,2.33A13.13,13.13,0,0,1,26,28.7L23.7,26.39a.64.64,0,0,0-.77-.1,9.49,9.49,0,0,1-2.41,1,.63.63,0,0,0-.46.61v3.29a12.69,12.69,0,0,1-3.94,0V28a.62.62,0,0,0-.47-.6,9.92,9.92,0,0,1-2.48-1,.62.62,0,0,0-.75.1l-2.33,2.33A13.13,13.13,0,0,1,7.3,26l2.31-2.32a.62.62,0,0,0,.1-.76,9.27,9.27,0,0,1-1.05-2.49.62.62,0,0,0-.6-.47H4.78a12.21,12.21,0,0,1,0-3.94H8.06a.62.62,0,0,0,.6-.47,9.27,9.27,0,0,1,1.05-2.49.64.64,0,0,0-.1-.77L7.3,10a13.13,13.13,0,0,1,2.79-2.78l2.33,2.33a.62.62,0,0,0,.75.1,9.92,9.92,0,0,1,2.48-1,.62.62,0,0,0,.47-.6V4.77a12.69,12.69,0,0,1,3.94,0V8.08a.63.63,0,0,0,.46.61,9.49,9.49,0,0,1,2.41,1,.64.64,0,0,0,.77-.1L26,7.3a13.13,13.13,0,0,1,2.78,2.79l-2.33,2.33a.62.62,0,0,0-.1.75,9.78,9.78,0,0,1,1,2.39.62.62,0,0,0,.6.47h3.28a12.21,12.21,0,0,1,0,3.94Z"/>
    <path d="M18,13.38A4.62,4.62,0,1,0,22.62,18,4.62,4.62,0,0,0,18,13.38Zm0,8A3.38,3.38,0,1,1,21.38,18,3.39,3.39,0,0,1,18,21.38Z"/>
  </g>
</svg>
