<svg id="abe1b2b3-b1b7-4d12-af09-c6af346e75ba" data-name="Icon" xmlns="http://www.w3.org/2000/svg" viewBox="0 0 36 36">
  <path d="M31,12.38H21.85L24,11.65a3.73,3.73,0,1,0-4.67-4.71L18,11l-1-2.9A.42.42,0,0,0,17,8a3.11,3.11,0,1,0-3.89,4l1.05.36H5a.62.62,0,0,0-.62.62v5a.62.62,0,0,0,.62.62H6.38V31a.62.62,0,0,0,.62.62H29a.62.62,0,0,0,.62-.62V18.62H31a.62.62,0,0,0,.62-.62V13A.62.62,0,0,0,31,12.38ZM20.51,7.44a2.48,2.48,0,1,1,3,3.06L19,12Zm-7,3.39a1.86,1.86,0,1,1,2.39-2.22L17,12l-3.42-1.14ZM5.62,13.62h8.76v3.76H5.62Zm2,5h6.76V30.38H7.62Zm8,11.76V13.62h4.76V30.38Zm12.76,0H21.62V18.62h6.76Zm2-13H21.62V13.62h8.76Z"/>
</svg>
