<svg id="e0ab1ebc-278a-4aef-b1c1-b9574de80eef" data-name="Icon" xmlns="http://www.w3.org/2000/svg" viewBox="0 0 36 36">
  <g>
    <path d="M31.3,14.68l-13-7.23a.64.64,0,0,0-.6,0l-13,7.23a.62.62,0,0,0,0,1.09l3.68,2V23a.62.62,0,0,0,.32.55l9,5a.68.68,0,0,0,.6,0l9-5a.62.62,0,0,0,.32-.55V17.81l3.68-2a.62.62,0,0,0,0-1.09Zm-4.92,8L18,27.29,9.62,22.63V18.51L17.7,23a.6.6,0,0,0,.6,0l8.08-4.48ZM18,21.73,6.29,15.22,18,8.71l5.05,2.81-5.35,3a.62.62,0,1,0,.6,1.09l6-3.35,5.37,3Z"/>
    <path d="M30,19.38a.62.62,0,0,0-.62.62v6a.62.62,0,0,0,1.24,0V20A.62.62,0,0,0,30,19.38Z"/>
    <circle cx="30" cy="18" r="0.62"/>
  </g>
</svg>
