<svg id="a9adbff0-922a-4b91-b7aa-67fc62824713" data-name="Icon" xmlns="http://www.w3.org/2000/svg" viewBox="0 0 36 36">
  <g>
    <path d="M21,13.38H15A3.62,3.62,0,0,0,11.38,17V28A3.62,3.62,0,0,0,15,31.62h6A3.62,3.62,0,0,0,24.62,28V17A3.62,3.62,0,0,0,21,13.38ZM23.38,28A2.39,2.39,0,0,1,21,30.38H15A2.39,2.39,0,0,1,12.62,28V17A2.39,2.39,0,0,1,15,14.62h6A2.39,2.39,0,0,1,23.38,17Z"/>
    <path d="M12,6.26h.13l2.94-.63h2.31V8.38H15a.62.62,0,0,0-.62.62v3a.62.62,0,0,0,.62.62h6a.62.62,0,0,0,.62-.62V9A.62.62,0,0,0,21,8.38H18.62V5.62H21a.62.62,0,1,0,0-1.24H14.87l-3,.64A.62.62,0,0,0,12,6.26Zm8.38,5.12H15.62V9.62h4.76Z"/>
    <path d="M20,21.38H18.62V20a.62.62,0,0,0-1.24,0v1.38H16a.62.62,0,1,0,0,1.24h1.38V24a.62.62,0,0,0,1.24,0V22.62H20a.62.62,0,0,0,0-1.24Z"/>
  </g>
</svg>
