<svg id="a77c115e-6b98-4ea5-9bd5-2b3c2b7c61e2" data-name="Icon" xmlns="http://www.w3.org/2000/svg" viewBox="0 0 36 36">
  <g>
    <path d="M31.36,17.67a.88.88,0,0,0-.41-.12H23.36a9.83,9.83,0,0,0-12-6c-5.59,1.48-9,8.9-5.73,14a.57.57,0,0,0,.42.07l12.69-2.7a11.45,11.45,0,0,0,12.77-4.37A.62.62,0,0,0,31.36,17.67ZM22.19,18l-3,3a13.85,13.85,0,0,0-5.83-8.53A8.52,8.52,0,0,1,22.19,18ZM11.12,23.26c-2-5.63-.13-9.21.63-10.3,1.28.62,5.08,2.95,6.36,8.81ZM10,13.53c-.9,1.9-1.76,5.31-.11,10l-3.59.76A8.57,8.57,0,0,1,10,13.53ZM20,22l3.15-3.16h6.53A10.19,10.19,0,0,1,20,22Z"/>
    <path d="M11.62,10a.63.63,0,0,1-1.25,0A.63.63,0,0,1,11.62,10Z"/>
  </g>
</svg>
