<svg id="eff5e73e-4b0c-4c95-ada1-a9128321f9d5" data-name="Icon" xmlns="http://www.w3.org/2000/svg" viewBox="0 0 36 36">
  <g>
    <path d="M9,20.38H8A2.62,2.62,0,0,0,5.38,23v6A2.62,2.62,0,0,0,8,31.62H9A2.62,2.62,0,0,0,11.62,29V23A2.62,2.62,0,0,0,9,20.38ZM10.38,29A1.38,1.38,0,0,1,9,30.38H8A1.38,1.38,0,0,1,6.62,29V23A1.38,1.38,0,0,1,8,21.62H9A1.38,1.38,0,0,1,10.38,23Z"/>
    <path d="M28,20.38H27A2.62,2.62,0,0,0,24.38,23v6A2.62,2.62,0,0,0,27,31.62h1A2.62,2.62,0,0,0,30.62,29V23A2.62,2.62,0,0,0,28,20.38ZM29.38,29A1.38,1.38,0,0,1,28,30.38H27A1.38,1.38,0,0,1,25.62,29V23A1.38,1.38,0,0,1,27,21.62h1A1.38,1.38,0,0,1,29.38,23Z"/>
    <path d="M18,3.38A14.64,14.64,0,0,0,3.38,18v8a.62.62,0,0,0,1.24,0V18a13.38,13.38,0,0,1,26.76,0v8a.62.62,0,1,0,1.24,0V18A14.64,14.64,0,0,0,18,3.38Z"/>
  </g>
</svg>
