<svg id="e0793ac5-a3c2-489f-b683-1086656c3c80" data-name="Icon" xmlns="http://www.w3.org/2000/svg" viewBox="0 0 36 36">
  <g>
    <path d="M27,30.38H25.62V26.24a3.62,3.62,0,0,0-1.06-2.56L18.88,18l5.68-5.68a3.62,3.62,0,0,0,1.06-2.56V5.62H27a.62.62,0,1,0,0-1.24H9A.62.62,0,0,0,9,5.62h1.38v4.3a3.63,3.63,0,0,0,1.06,2.4L17.12,18l-5.68,5.68a3.62,3.62,0,0,0-1.06,2.56v4.14H9a.62.62,0,1,0,0,1.24H27a.62.62,0,0,0,0-1.24ZM24.38,5.62V8.38H11.62V5.62ZM12.32,11.44a2.41,2.41,0,0,1-.7-1.68V9.62H24.38v.14s0,.05,0,.08a2.41,2.41,0,0,1-.69,1.6L18,17.12Zm-.7,14.8a2.41,2.41,0,0,1,.7-1.68L18,18.88l5.68,5.68a2.41,2.41,0,0,1,.7,1.68v4.14H11.62Z"/>
    <path d="M18,22.38a.63.63,0,1,0,.62.62A.62.62,0,0,0,18,22.38Z"/>
  </g>
</svg>
