<svg id="b21fd269-bbc5-44da-a6d6-d8fad76ec872" data-name="Icon" xmlns="http://www.w3.org/2000/svg" viewBox="0 0 36 36">
  <g>
    <path d="M21,27.38H15a.61.61,0,0,0-.11,1.22,3.11,3.11,0,0,0,6.22,0A.61.61,0,0,0,21,27.38Zm-3,3a1.87,1.87,0,0,1-1.86-1.76h3.72A1.87,1.87,0,0,1,18,30.38Z"/>
    <path d="M26.9,13.28a8.9,8.9,0,1,0-15.47,6l1.64,4.89a2.11,2.11,0,0,0,2,1.45h5.84a2.11,2.11,0,0,0,2-1.45l1.64-4.89A8.89,8.89,0,0,0,26.9,13.28ZM18,5.62a7.66,7.66,0,0,1,5.7,12.76H12.3A7.66,7.66,0,0,1,18,5.62Zm3.75,18.16a.88.88,0,0,1-.83.6H15.08a.88.88,0,0,1-.83-.6l-1.38-4.16H23.13Z"/>
  </g>
</svg>
