<svg id="e87a91d8-a956-43be-9459-6f6f52b5d4de" data-name="Icon" xmlns="http://www.w3.org/2000/svg" viewBox="0 0 36 36"><path d="M24,10.38H21.62V5A.62.62,0,0,0,21,4.38H15a.62.62,0,0,0-.62.62v5.38H12A1.61,1.61,0,0,0,10.38,12V28A1.61,1.61,0,0,0,12,29.62H24A1.61,1.61,0,0,0,25.62,28V12A1.61,1.61,0,0,0,24,10.38ZM15.62,5.62h4.76v4.76H15.62ZM24.38,28a.38.38,0,0,1-.38.38H12a.38.38,0,0,1-.38-.38V12a.38.38,0,0,1,.38-.38H24a.38.38,0,0,1,.38.38Z"/><path d="M15,13.38a.62.62,0,0,0-.62.62V26a.62.62,0,0,0,1.24,0V14A.62.62,0,0,0,15,13.38Z"/><path d="M18,13.38a.62.62,0,0,0-.62.62V26a.62.62,0,0,0,1.24,0V14A.62.62,0,0,0,18,13.38Z"/><path d="M21,13.38a.62.62,0,0,0-.62.62V26a.62.62,0,0,0,1.24,0V14A.62.62,0,0,0,21,13.38Z"/><path d="M22.44,30.56a.63.63,0,0,0-.68-.14.7.7,0,0,0-.34.34.6.6,0,0,0,0,.48.56.56,0,0,0,.14.2.66.66,0,0,0,.2.14.6.6,0,0,0,.48,0,.66.66,0,0,0,.2-.14.56.56,0,0,0,.14-.2.74.74,0,0,0,0-.48A.56.56,0,0,0,22.44,30.56Z"/><path d="M14.44,30.56a.56.56,0,0,0-.2-.14.66.66,0,0,0-.48,0,.7.7,0,0,0-.34.34.74.74,0,0,0,0,.48.56.56,0,0,0,.14.2.66.66,0,0,0,.2.14.6.6,0,0,0,.48,0,.66.66,0,0,0,.2-.14.56.56,0,0,0,.14-.2.74.74,0,0,0,0-.48A.66.66,0,0,0,14.44,30.56Z"/></svg>