<svg id="f128468b-5725-45a8-9a66-cfa1b713250f" data-name="Icon" xmlns="http://www.w3.org/2000/svg" viewBox="0 0 36 36">
  <g>
    <path d="M21.62,16A3.62,3.62,0,1,0,18,19.62,3.62,3.62,0,0,0,21.62,16ZM18,18.38A2.38,2.38,0,1,1,20.38,16,2.39,2.39,0,0,1,18,18.38Z"/>
    <path d="M28.5,18.38a4.12,4.12,0,1,0,4.12,4.12A4.13,4.13,0,0,0,28.5,18.38Zm0,7a2.88,2.88,0,1,1,2.88-2.88A2.89,2.89,0,0,1,28.5,25.38Z"/>
    <path d="M21,22.38A2.62,2.62,0,1,0,23.62,25,2.62,2.62,0,0,0,21,22.38Zm0,4A1.38,1.38,0,1,1,22.38,25,1.38,1.38,0,0,1,21,26.38Z"/>
    <path d="M17,22.38H9.61a4.1,4.1,0,0,0-4-4V13.61a4.1,4.1,0,0,0,4-4H26.39a4.1,4.1,0,0,0,4,4V17a.62.62,0,0,0,1.24,0V9A.62.62,0,0,0,31,8.38H5A.62.62,0,0,0,4.38,9V23a.62.62,0,0,0,.62.62H17a.62.62,0,0,0,0-1.24Zm13.38-10a2.85,2.85,0,0,1-2.74-2.74h2.74Zm-22-2.74a2.85,2.85,0,0,1-2.74,2.74V9.62Zm-2.74,10a2.85,2.85,0,0,1,2.74,2.74H5.62Z"/>
    <path d="M10.38,16a.63.63,0,1,0,.62-.62A.63.63,0,0,0,10.38,16Z"/>
    <path d="M24.38,16a.62.62,0,1,0,.62-.63A.62.62,0,0,0,24.38,16Z"/>
  </g>
</svg>
