<svg id="ffa03dba-154c-403c-905f-d3b09e13d564" data-name="Icon" xmlns="http://www.w3.org/2000/svg" viewBox="0 0 36 36">
  <g>
    <path d="M31,9.38H11a.62.62,0,0,0-.62.62V20a.62.62,0,0,0,.62.62H31a.62.62,0,0,0,.62-.62V10A.62.62,0,0,0,31,9.38Zm-.62,10H11.62V10.62H30.38Z"/>
    <path d="M28,22.38H8.62V13a.62.62,0,0,0-1.24,0V23a.62.62,0,0,0,.62.62H28a.62.62,0,0,0,0-1.24Z"/>
    <path d="M25,25.38H5.62V16a.62.62,0,0,0-1.24,0V26a.62.62,0,0,0,.62.62H25a.62.62,0,0,0,0-1.24Z"/>
    <path d="M21,17.62A2.62,2.62,0,1,0,18.38,15,2.62,2.62,0,0,0,21,17.62Zm0-4A1.38,1.38,0,1,1,19.62,15,1.38,1.38,0,0,1,21,13.62Z"/>
    <circle cx="26" cy="15" r="0.62"/>
    <path d="M16,15.63a.63.63,0,1,0-.62-.63A.63.63,0,0,0,16,15.63Z"/>
  </g>
</svg>
