<svg id="ac8c995b-406c-4c18-8d96-c3246ce19e35" data-name="Icon" xmlns="http://www.w3.org/2000/svg" viewBox="0 0 36 36"><path d="M30,7.38H27.62V7A2.62,2.62,0,0,0,25,4.38H7A2.62,2.62,0,0,0,4.38,7V9A2.62,2.62,0,0,0,7,11.62H25A2.62,2.62,0,0,0,27.62,9V8.62h1.76v7.76H16a.62.62,0,0,0-.62.62v3a.62.62,0,0,0,1.24,0V17.62H30a.62.62,0,0,0,.62-.62V8A.62.62,0,0,0,30,7.38ZM26.38,9A1.38,1.38,0,0,1,25,10.38H7A1.38,1.38,0,0,1,5.62,9V7A1.38,1.38,0,0,1,7,5.62H25A1.38,1.38,0,0,1,26.38,7Z"/><path d="M17,21.38H15a.62.62,0,0,0-.62.62v9a.62.62,0,0,0,.62.62h2a.62.62,0,0,0,.62-.62V22A.62.62,0,0,0,17,21.38Zm-.62,9h-.76V22.62h.76Z"/></svg>