<svg id="f43ba1d4-c49b-4c3f-adb3-70968206a4f8" data-name="Icon" xmlns="http://www.w3.org/2000/svg" viewBox="0 0 36 36">
  <g>
    <path d="M29.44,9.56l-3-3a.61.61,0,0,0-.88,0L7.07,24.91C7,25,7,25,6.94,25.1L4.43,30.75a.62.62,0,0,0,.82.82l5.65-2.51c.36-.16,15.82-16,16.11-16.17L28.12,14l-7.38,7.38H20a.62.62,0,0,0,0,1.24h1a.59.59,0,0,0,.44-.18l8-8a.61.61,0,0,0,0-.88L27.89,12l1.55-1.57A.61.61,0,0,0,29.44,9.56Zm-2.84,2L10.28,28l-4,1.81L8,25.72,26,7.88,28.12,10Z"/>
    <path d="M31.44,7.56l-3-3c-.56-.58-1.46.32-.88.88l3,3A.62.62,0,0,0,31.44,7.56Z"/>
  </g>
</svg>
