<svg id="e3dfd173-f9ea-401d-be3a-9b782cfc008f" data-name="Icon" xmlns="http://www.w3.org/2000/svg" viewBox="0 0 36 36">
  <path d="M27,14.38a3.65,3.65,0,0,0-1.38.27V9A.62.62,0,0,0,25,8.38H19.35a3.62,3.62,0,1,0-6.7,0H7A.62.62,0,0,0,6.38,9v6.78a.62.62,0,0,0,1,.46A2.35,2.35,0,0,1,9,15.62a2.38,2.38,0,1,1,0,4.76,2.35,2.35,0,0,1-1.58-.62.62.62,0,0,0-1,.46V27a.62.62,0,0,0,.62.62h5.65a3.62,3.62,0,1,0,6.7,0H25a.62.62,0,0,0,.62-.62V21.35a3.62,3.62,0,1,0,1.38-7Zm0,6a2.35,2.35,0,0,1-1.58-.62.62.62,0,0,0-1,.46v6.16H18.22a.62.62,0,0,0-.46,1A2.35,2.35,0,0,1,18.38,29a2.38,2.38,0,1,1-4.76,0,2.35,2.35,0,0,1,.62-1.58.62.62,0,0,0-.46-1H7.62v-5a3.62,3.62,0,1,0,0-6.7v-5h6.16a.62.62,0,0,0,.46-1A2.35,2.35,0,0,1,13.62,7a2.38,2.38,0,1,1,4.76,0,2.35,2.35,0,0,1-.62,1.58.62.62,0,0,0,.46,1h6.16v6.16a.62.62,0,0,0,1,.46A2.35,2.35,0,0,1,27,15.62a2.38,2.38,0,0,1,0,4.76Z"/>
</svg>
