<svg id="e101a90b-663c-4c86-9ced-6067b68652e1" data-name="Icon" xmlns="http://www.w3.org/2000/svg" viewBox="0 0 36 36">
  <g>
    <path d="M30.37,22.86c-.56-.58-1.46.32-.88.88a3,3,0,0,1,.35,3.84,4.22,4.22,0,0,0-5,0l-2.43-2.43c2.92-3.88-2.08-8.87-6-6l-5-5L18.77,7a1.2,1.2,0,0,1,2,.84c.06.61-.63,1.11-1,1.5-3.88,4.09,1.95,9.92,6,6l1.93-1.94c.58-.56-.31-1.46-.88-.88L25,14.47a3.1,3.1,0,0,1-4.28,0,3,3,0,0,1,0-4.28l.65-.64a2.45,2.45,0,0,0-3.47-3.47l-7.74,7.74a.63.63,0,0,0,0,.88L26.27,30.84a1.55,1.55,0,0,0,2.17,0l1.93-1.94A4.27,4.27,0,0,0,30.37,22.86Zm-9.26-2.34a3,3,0,0,1,.39,3.78l-4.17-4.17A3.11,3.11,0,0,1,21.11,20.52ZM27.56,30a.3.3,0,0,1-.41,0l-1.44-1.44a3.12,3.12,0,0,1,3.28,0Z"/>
    <path d="M26.91,20.28a.62.62,0,0,0,.88.88l1.29-1.29a.61.61,0,0,0,0-.88.62.62,0,0,0-.88,0Z"/>
    <path d="M25.62,17.7a.62.62,0,0,0,.88.88l1.94-1.93a.63.63,0,0,0-.89-.89Z"/>
    <path d="M9,7.62h3a.62.62,0,0,0,0-1.24H9A.62.62,0,0,0,9,7.62Z"/>
    <path d="M8,11.62h2a.62.62,0,0,0,0-1.24H8A.62.62,0,0,0,8,11.62Z"/>
    <path d="M15,27.38H11a.62.62,0,0,0,0,1.24h4A.62.62,0,0,0,15,27.38Z"/>
    <path d="M15,23.38H7a.62.62,0,0,0,0,1.24h8A.62.62,0,0,0,15,23.38Z"/>
    <path d="M5,23.38a.63.63,0,0,0,0,1.25A.63.63,0,0,0,5,23.38Z"/>
    <path d="M18,27.38a.63.63,0,0,0,0,1.25A.63.63,0,0,0,18,27.38Z"/>
  </g>
</svg>
