<svg id="e7c38cdf-7f88-447a-8e0b-638d4bb8cd31" data-name="Icon" xmlns="http://www.w3.org/2000/svg" viewBox="0 0 36 36">
  <path d="M31,30.38H18.62V9.51l6-1.28L22.39,18.87s0,0,0,.07,0,0,0,.06,0,.07,0,.11h0a4.61,4.61,0,0,0,9.22,0h0s0-.07,0-.11,0,0,0-.06,0-.05,0-.07L29.13,7.21a.62.62,0,0,0-.5-1.11l-3.28.7h0L18.62,8.23V5a.62.62,0,0,0-1.24,0V8.49l-10,2.13h0l-.27.06a.62.62,0,0,0-.48.74.51.51,0,0,0,.14.26L4.39,22.87s0,0,0,.07,0,0,0,.06,0,.07,0,.11h0a4.61,4.61,0,0,0,9.22,0h0s0-.07,0-.11,0,0,0-.06,0-.05,0-.07L11.11,11.1l6.27-1.33V30.38H5a.62.62,0,1,0,0,1.24H31a.62.62,0,0,0,0-1.24ZM27.92,7.53l2.31,10.85H23.77L26,7.94ZM27,22.38a3.39,3.39,0,0,1-3.32-2.76h6.64A3.39,3.39,0,0,1,27,22.38Zm-18,4a3.39,3.39,0,0,1-3.32-2.76h6.64A3.39,3.39,0,0,1,9,26.38Zm3.23-4H5.77L8,11.76l1.86-.4Z"/>
</svg>
