<svg id="e5c65d92-b229-40f5-88c5-f9ab79da7196" data-name="Icon" xmlns="http://www.w3.org/2000/svg" viewBox="0 0 36 36">
  <path d="M31,30.38H18.62V9.62h6.16L22.39,20.87s0,0,0,.07,0,0,0,.06,0,.07,0,.11h0a4.61,4.61,0,0,0,9.22,0h0s0-.07,0-.11,0,0,0-.06,0-.05,0-.07L29.21,9.58A.62.62,0,0,0,29,8.38H18.62V5a.62.62,0,0,0-1.24,0V8.38H7a.62.62,0,0,0-.21,1.2L4.39,20.87s0,0,0,.07,0,0,0,.06,0,.07,0,.11h0a4.61,4.61,0,0,0,9.22,0h0s0-.07,0-.11,0,0,0-.06,0-.05,0-.07L11.22,9.62h6.16V30.38H5a.62.62,0,1,0,0,1.24H31a.62.62,0,0,0,0-1.24ZM27.94,9.62l2.29,10.76H23.77L26.06,9.62ZM27,24.38a3.39,3.39,0,0,1-3.32-2.76h6.64A3.39,3.39,0,0,1,27,24.38Zm-18,0a3.39,3.39,0,0,1-3.32-2.76h6.64A3.39,3.39,0,0,1,9,24.38Zm3.23-4H5.77L8.06,9.62H9.94Z"/>
</svg>
