<svg id="f4730acb-e945-4d4b-86b8-91f5dbeae9e4" data-name="Icon" xmlns="http://www.w3.org/2000/svg" viewBox="0 0 36 36">
  <g>
    <path d="M29.44,8.56l-4-4A.59.59,0,0,0,25,4.38H16a.63.63,0,0,0-.63.62V9a.63.63,0,0,0,.63.62h2.24l-.48,2.25a.62.62,0,0,0,1.22.26l.54-2.51H29A.62.62,0,0,0,29.44,8.56ZM16.62,8.38V5.62h8.12l2.75,2.76Z"/>
    <path d="M27.61,20.58l-1-4.65V11a.62.62,0,0,0-.62-.62H22a.63.63,0,0,0-.63.62v4.74l-5.81,5.82a.6.6,0,0,0-.19.44v9a.63.63,0,0,0,.63.62H27a.62.62,0,0,0,.62-.62V20.71A.62.62,0,0,1,27.61,20.58Zm-11,9.8V22.26l5.82-5.82a.59.59,0,0,0,.18-.44V11.62h2.75V16s0,0,0,.06,1,4.62,1,4.71v9.61Z"/>
    <path d="M9.62,7A.62.62,0,0,0,9,6.38H7A.62.62,0,1,0,7,7.62H9A.62.62,0,0,0,9.62,7Z"/>
    <path d="M13.13,5.18,9.24,4.35A.62.62,0,0,0,9,5.57l3.89.83H13A.62.62,0,0,0,13.13,5.18Z"/>
    <path d="M12.87,7.59l-3.95.84a.63.63,0,0,0,.13,1.24l.13,0,4-.84A.62.62,0,0,0,12.87,7.59Z"/>
  </g>
</svg>
