<svg id="b511b1a5-a130-4847-b6fa-bb018e675d5e" data-name="Icon" xmlns="http://www.w3.org/2000/svg" viewBox="0 0 36 36">
  <g>
    <path d="M20.74,32.35C31,30.4,35.2,17.42,28.06,9.83l.55-.55,1,1a.62.62,0,0,0,.88-.88L27.63,6.54c-.56-.58-1.46.32-.88.88l1,1-.55.55a13.35,13.35,0,0,0-8.55-3.53V4.62H20a.62.62,0,0,0,0-1.24H16a.62.62,0,0,0,0,1.24h1.37v.79c-7.06.12-13.11,6.53-13,13.59C4.22,27.42,12.54,34.21,20.74,32.35Zm-.25-1.23A12.42,12.42,0,0,1,6.15,15.44c3.81-12.2,21.22-11.47,24,1A12.44,12.44,0,0,1,20.49,31.12Z"/>
    <path d="M11,11.38a.63.63,0,1,0,.63.62A.62.62,0,0,0,11,11.38Z"/>
    <path d="M8,18.45a.63.63,0,1,0,.63.63A.63.63,0,0,0,8,18.45Z"/>
    <path d="M11,25.37a.63.63,0,1,0,.63.63A.63.63,0,0,0,11,25.37Z"/>
    <path d="M18,28.38a.63.63,0,1,0,.63.63A.63.63,0,0,0,18,28.38Z"/>
    <path d="M25,25.38a.63.63,0,1,0,.63.62A.62.62,0,0,0,25,25.38Z"/>
    <path d="M28,19.63a.63.63,0,1,0-.62-.63A.63.63,0,0,0,28,19.63Z"/>
    <path d="M25,11.37a.63.63,0,1,0,.63.63A.63.63,0,0,0,25,11.37Z"/>
    <path d="M20.49,20.57A3,3,0,0,0,21,19a3,3,0,0,0-2.33-2.88V9A.62.62,0,0,0,18,8.38a.63.63,0,0,0-.63.62v7.12A2.95,2.95,0,0,0,18,22a2.86,2.86,0,0,0,1.61-.49l1.66,1.69a.62.62,0,0,0,.89-.87ZM16.3,19A1.7,1.7,0,1,1,18,20.7,1.7,1.7,0,0,1,16.3,19Z"/>
  </g>
</svg>
