<svg id="a022f88a-6fea-4535-bb88-4ff214810725" data-name="Icon" xmlns="http://www.w3.org/2000/svg" viewBox="0 0 36 36">
  <g>
    <path d="M21,19.38H15a.62.62,0,0,0,0,1.24h6A.62.62,0,0,0,21,19.38Z"/>
    <path d="M31.62,13a.59.59,0,0,0-.18-.44l-3-3A.6.6,0,0,0,28,9.38H24.52l-.75-3.51a.62.62,0,0,0-.61-.49H12.84a.62.62,0,0,0-.61.49l-.75,3.51H8a.6.6,0,0,0-.44.18l-3,3a.59.59,0,0,0-.18.44V30a.62.62,0,0,0,.62.62H31a.62.62,0,0,0,.62-.62ZM13.35,6.62h9.3l.59,2.76H12.76Zm17,22.76H5.62V20.62H9a.62.62,0,1,0,0-1.24H5.62V13.26l2.64-2.64H27.74l2.64,2.64v6.12H27a.62.62,0,0,0,0,1.24h3.38v8.76Z"/>
    <path d="M13,17.38H11a.62.62,0,0,0-.62.62v4a.62.62,0,0,0,.62.62h2a.62.62,0,0,0,.62-.62V18A.62.62,0,0,0,13,17.38Zm-.62,4h-.76V18.62h.76Z"/>
    <path d="M25,17.38H23a.62.62,0,0,0-.62.62v4a.62.62,0,0,0,.62.62h2a.62.62,0,0,0,.62-.62V18A.62.62,0,0,0,25,17.38Zm-.62,4h-.76V18.62h.76Z"/>
  </g>
</svg>
