<svg id="f8397aa5-418e-44ab-8aff-7c062cd66d72" data-name="Icon" xmlns="http://www.w3.org/2000/svg" viewBox="0 0 36 36">
  <g>
    <path d="M25.91,14.55a.62.62,0,0,0-.62.62V30.38H10.71V15.17a.63.63,0,0,0-1.25,0V31a.63.63,0,0,0,.63.62H25.91a.63.63,0,0,0,.63-.62V15.17A.63.63,0,0,0,25.91,14.55Z"/>
    <path d="M32.17,16.13,29.91,8.22a.64.64,0,0,0-.33-.39s-6.78-3.4-6.8-3.39l-.26-.07h-9a1.4,1.4,0,0,0-.28.06L6.42,7.83a.64.64,0,0,0-.33.39L3.83,16.13a.65.65,0,0,0,.26.7l3.39,2.26A.63.63,0,0,0,8.17,18l-3-2L7.22,8.83,13,6a5.15,5.15,0,0,0,10.1,0l5.73,2.87L30.84,16l-3,2a.63.63,0,0,0,.69,1.05l3.39-2.26A.65.65,0,0,0,32.17,16.13ZM18,8.9a3.9,3.9,0,0,1-3.85-3.28h7.7A3.9,3.9,0,0,1,18,8.9Z"/>
  </g>
</svg>
