<svg id="f74ca743-b441-4856-b43c-b086a0abe6e6" data-name="Icon" xmlns="http://www.w3.org/2000/svg" viewBox="0 0 36 36">
  <path d="M18,4.38A13.64,13.64,0,0,0,4.38,18a.62.62,0,0,0,.62.62H17.38V28a2.38,2.38,0,1,1-4.76,0,.62.62,0,1,0-1.24,0,3.62,3.62,0,0,0,7.24,0V18.62H31a.62.62,0,0,0,.62-.62A13.64,13.64,0,0,0,18,4.38Zm5.36,13H12.64C12.79,11,15.18,5.62,18,5.62S23.21,11,23.36,17.38ZM14.76,6.07c-1.95,2.2-3.27,6.38-3.37,11.31H5.64A12.39,12.39,0,0,1,14.76,6.07Zm9.85,11.31c-.1-4.93-1.42-9.11-3.37-11.31a12.39,12.39,0,0,1,9.12,11.31Z"/>
</svg>
