<svg id="b13d639c-e66b-4067-ac74-13e27ecb4519" data-name="Icon" xmlns="http://www.w3.org/2000/svg" viewBox="0 0 36 36">
  <g>
    <path d="M28.41,17.75A.62.62,0,0,0,28.16,19a3,3,0,0,1,2.38,3,4.25,4.25,0,0,0-4.19,2.76L23,24.05a4.26,4.26,0,0,0-8.24-1.75L7.89,20.84,10,10.75a1.2,1.2,0,0,1,2.35.5c-2,6,6.48,8.68,8.17,2.66l.56-2.67A.62.62,0,0,0,19.89,11l-.57,2.67a3,3,0,1,1-5.91-1.25l.19-.89a2.45,2.45,0,0,0-4.79-1L6.53,21.19a.63.63,0,0,0,.48.74l15.17,3.23,7.13,1.51a1.55,1.55,0,0,0,1.83-1.18l.57-2.68A4.27,4.27,0,0,0,28.41,17.75Zm-9,3.08a3,3,0,0,1,2.39,3L16,22.56A3,3,0,0,1,19.37,20.83Zm10.2,4.62-2-.42a3,3,0,0,1,2.77-1.8l-.43,2A.29.29,0,0,1,29.57,25.45Z"/>
    <path d="M24.59,18.21a.63.63,0,0,0,.74-.48l.38-1.79a.62.62,0,1,0-1.22-.26l-.38,1.79A.62.62,0,0,0,24.59,18.21Z"/>
    <path d="M22.1,16.75a.63.63,0,0,0,.74-.48l.57-2.68a.62.62,0,1,0-1.22-.26L21.62,16A.62.62,0,0,0,22.1,16.75Z"/>
    <path d="M15,25.38H7a.62.62,0,0,0,0,1.24h8A.62.62,0,0,0,15,25.38Z"/>
    <path d="M5,10.62H7A.62.62,0,0,0,7,9.38H5A.62.62,0,0,0,5,10.62Z"/>
    <path d="M5,12.37a.63.63,0,0,0,0,1.25A.63.63,0,0,0,5,12.37Z"/>
    <path d="M18,25.37a.63.63,0,0,0,0,1.25A.63.63,0,0,0,18,25.37Z"/>
  </g>
</svg>
