<?xml version="1.0" encoding="UTF-8"?><svg id="Icon" xmlns="http://www.w3.org/2000/svg" viewBox="0 0 36 36"><path d="M24.62,15v-2c0-2.55-2.07-4.62-4.62-4.62h-4c-2.55,0-4.62,2.08-4.62,4.62v2c0,1.23,.85,2.26,2,2.54v1.92c-1.15,.28-2,1.31-2,2.54v7c0,1.45,1.18,2.62,2.62,2.62h8c1.45,0,2.62-1.18,2.62-2.62v-7c0-1.23-.85-2.26-2-2.54v-1.92c1.15-.28,2-1.31,2-2.54Zm-12,0v-2c0-1.86,1.51-3.38,3.38-3.38h4c1.86,0,3.38,1.51,3.38,3.38v2c0,.76-.62,1.38-1.38,1.38H14c-.76,0-1.38-.62-1.38-1.38Zm2,4.38v-1.75h6.75v1.75h-6.75Zm8.75,2.62v7c0,.76-.62,1.38-1.38,1.38H14c-.76,0-1.38-.62-1.38-1.38v-7c0-.76,.62-1.38,1.38-1.38h8c.76,0,1.38,.62,1.38,1.38Z"/><path d="M15,7.62h6c.35,0,.62-.28,.62-.62v-2c0-.34-.28-.62-.62-.62h-6c-.35,0-.62,.28-.62,.62v2c0,.34,.28,.62,.62,.62Zm.62-2h4.75v.75h-4.75v-.75Z"/><path d="M21,23.38h-6c-.82,0-.82,1.25,0,1.25h6c.82,0,.82-1.25,0-1.25Z"/><path d="M21,26.38h-6c-.82,0-.82,1.25,0,1.25h6c.82,0,.82-1.25,0-1.25Z"/></svg>