<svg id="bce2d553-c7ae-461c-913d-b59b3bee0a62" data-name="Icon" xmlns="http://www.w3.org/2000/svg" viewBox="0 0 36 36">
  <g>
    <path d="M19.5,11a5,5,0,0,0-3.7,2.27L4.48,30.66a.62.62,0,0,0,.86.86L22.78,20.2C27.19,17.39,24.71,10.37,19.5,11Zm2.6,8.2-4.89,3.18-1.77-1.77c-.56-.58-1.46.32-.88.88L16.14,23l-9,5.85,8.6-13.25,1.83,1.82a.62.62,0,0,0,.88-.88l-2-2C19.75,8.62,27.28,15.06,22.1,19.15Z"/>
    <path d="M29.44,7.44c.58-.56-.32-1.47-.88-.88l-3,3a.62.62,0,0,0,.88.88Z"/>
    <path d="M31.27,11.54a4.41,4.41,0,0,0-5,.86.61.61,0,0,0,0,.88.62.62,0,0,0,.88,0,3.14,3.14,0,0,1,3.58-.62A.63.63,0,0,0,31.27,11.54Z"/>
    <path d="M23.16,9.92c1.74-.7,2.12-3.64,1.3-5.19a.63.63,0,0,0-1.13.54,3.14,3.14,0,0,1-.62,3.58A.64.64,0,0,0,23.16,9.92Z"/>
  </g>
</svg>
