<svg id="e9dbf6d7-fa00-4376-9b38-cd6c0c723074" data-name="Icon" xmlns="http://www.w3.org/2000/svg" viewBox="0 0 36 36">
  <g>
    <path d="M31,21.38c-2-.11-2-2.06-4.33-2s-2.37,1.89-4.33,2c-2-.11-2-2.06-4.33-2s-2.37,1.89-4.34,2a2.3,2.3,0,0,1-1.74-.84,3.5,3.5,0,0,0-5.19,0A2.28,2.28,0,0,1,5,21.38a.62.62,0,0,0,0,1.24c2.34.06,2.37-1.89,4.34-2a2.28,2.28,0,0,1,1.74.84,3.5,3.5,0,0,0,5.19,0,2.25,2.25,0,0,1,3.48,0,3.48,3.48,0,0,0,5.18,0,2.28,2.28,0,0,1,1.74-.84c2,.11,2,2.06,4.33,2A.62.62,0,0,0,31,21.38Z"/>
    <path d="M29,24.38H7a.62.62,0,0,0-.62.62v5a.62.62,0,0,0,.62.62H29a.62.62,0,0,0,.62-.62V25A.62.62,0,0,0,29,24.38Zm-.62,5H7.62V25.62H28.38Z"/>
    <path d="M7,17.62H29a.62.62,0,0,0,.62-.62C29,1.58,7,1.58,6.37,17A.63.63,0,0,0,7,17.62Zm11-11a10.4,10.4,0,0,1,10.36,9.76H7.64A10.4,10.4,0,0,1,18,6.62Z"/>
  </g>
</svg>
