<svg id="b6edd0b6-9eb3-490e-b3a4-a78725675744" data-name="Icon" xmlns="http://www.w3.org/2000/svg" viewBox="0 0 36 36">
  <g>
    <path d="M32,26.38H4a.62.62,0,0,0,0,1.24H32A.62.62,0,0,0,32,26.38Z"/>
    <path d="M5,24.62A.62.62,0,0,0,5.62,24C6.31,7.58,29.7,7.59,30.38,24a.62.62,0,0,0,1.24,0C30.88,5.92,5.12,5.93,4.37,24A.63.63,0,0,0,5,24.62Z"/>
    <path d="M17.56,9.44c.57.59,1.47-.32.88-.88S17,8.86,17.56,9.44Z"/>
    <path d="M7.38,24a.62.62,0,0,0,1.24,0A9.39,9.39,0,0,1,18,14.62a.62.62,0,0,0,0-1.24A10.63,10.63,0,0,0,7.38,24Z"/>
  </g>
</svg>
