<svg id="b3f14473-8d03-44d1-a73c-8e70d947dba2" data-name="Icon" xmlns="http://www.w3.org/2000/svg" viewBox="0 0 36 36">
  <g>
    <path d="M32,21.38a.62.62,0,0,0-.62.62v4A2.18,2.18,0,0,1,27,26a3.43,3.43,0,1,0-6.85,0,2.17,2.17,0,0,1-4.34,0A3.43,3.43,0,1,0,9,26a2.18,2.18,0,0,1-4.35,0V18C5.36.26,30.64.26,31.38,18a.62.62,0,0,0,1.24,0C31.82-1.4,4.18-1.4,3.37,18v8a3.42,3.42,0,0,0,5,3,14.66,14.66,0,0,0,19.26,0,3.42,3.42,0,0,0,5-3V22A.62.62,0,0,0,32,21.38ZM9.37,28.2A3.35,3.35,0,0,0,10.23,26a2.18,2.18,0,0,1,4.35,0,3.42,3.42,0,0,0,6.84,0,2.18,2.18,0,0,1,4.35,0,3.35,3.35,0,0,0,.86,2.23A13.4,13.4,0,0,1,9.37,28.2Z"/>
    <path d="M13.38,18c.19,6.11,9,6.11,9.25,0C22.43,11.89,13.57,11.89,13.38,18ZM18,14.62a3.38,3.38,0,0,1,0,6.75A3.38,3.38,0,0,1,18,14.62Z"/>
    <path d="M7.68,18v2.15a.63.63,0,1,0,1.25,0V18A.63.63,0,0,0,7.68,18Z"/>
    <path d="M10.78,11.51,9.26,13A.63.63,0,0,0,9.7,14.1c.36.1,1.48-1.3,2-1.71C12.25,11.83,11.35,10.92,10.78,11.51Z"/>
    <path d="M27.38,15.4l-1.52,1.53A.62.62,0,0,0,26.3,18c.36.11,1.48-1.29,2-1.7A.63.63,0,0,0,27.38,15.4Z"/>
    <path d="M17,10.53a.62.62,0,0,0,.61-.75l-.45-2.11a.61.61,0,0,0-.74-.48.62.62,0,0,0-.48.74L16.42,10A.62.62,0,0,0,17,10.53Z"/>
    <path d="M22.9,12.13a.64.64,0,0,0,.74-.49l.44-2.1a.62.62,0,0,0-1.22-.26l-.45,2.1A.64.64,0,0,0,22.9,12.13Z"/>
  </g>
</svg>
