<svg id="ffbd3b9e-902a-4102-8cfe-4a3fc2744134" data-name="Icon" xmlns="http://www.w3.org/2000/svg" viewBox="0 0 36 36">
  <g>
    <path d="M27.92,4.59c-.23-.37-1.49-.16-1.92-.22a.63.63,0,0,0-.62.63V31a.62.62,0,0,0,1.24,0V21.62H31a.62.62,0,0,0,.62-.62V14.45A14.88,14.88,0,0,0,27.92,4.59Zm2.46,15.79H26.62V5.62h.55a13.7,13.7,0,0,1,3.21,8.83Z"/>
    <path d="M12,4.38a.62.62,0,0,0-.62.62v7a2.38,2.38,0,0,1-4.76,0V5A.62.62,0,0,0,5.38,5v7a3.62,3.62,0,0,0,3,3.56V31a.62.62,0,0,0,1.24,0V15.56a3.62,3.62,0,0,0,3-3.56V5A.62.62,0,0,0,12,4.38Z"/>
    <path d="M8,12.62A.62.62,0,0,0,8.62,12V6A.62.62,0,0,0,7.38,6v6A.62.62,0,0,0,8,12.62Z"/>
    <path d="M10,12.62a.62.62,0,0,0,.62-.62V6A.62.62,0,0,0,9.38,6v6A.62.62,0,0,0,10,12.62Z"/>
    <path d="M19,4.38c-4.54.11-4.81,10.1-.62,11.16V31a.62.62,0,0,0,1.24,0V15.54C23.81,14.48,23.54,4.49,19,4.38Zm0,10c-3.12-.2-3.12-8.56,0-8.76C22.12,5.82,22.12,14.18,19,14.38Z"/>
  </g>
</svg>
