<svg xmlns="http://www.w3.org/2000/svg" viewBox="0 0 36 36">
  <path d="M22.625 24.458V22a.621.621 0 0 0-.183-.442l-2.2-2.2A2.6 2.6 0 0 0 20.625 18 2.625 2.625 0 1 0 18 20.625a2.6 2.6 0 0 0 1.354-.388l2.021 2.022v2.2a2.625 2.625 0 1 0 1.25 0ZM18 19.375A1.375 1.375 0 1 1 19.375 18 1.377 1.377 0 0 1 18 19.375Zm4 9A1.375 1.375 0 1 1 23.375 27 1.377 1.377 0 0 1 22 28.375Z"/>
  <path d="M32.625 18a7.616 7.616 0 0 0-4.149-6.789A5.18 5.18 0 0 0 28.625 10 5.621 5.621 0 0 0 18 7.435 5.621 5.621 0 0 0 7.375 10a5.18 5.18 0 0 0 .149 1.211 7.621 7.621 0 0 0 2.112 14.283A4.443 4.443 0 0 0 9.375 27 4.61 4.61 0 0 0 18 29.279 4.61 4.61 0 0 0 26.625 27a4.462 4.462 0 0 0-.261-1.5 7.633 7.633 0 0 0 6.261-7.5ZM25.4 24.354a.626.626 0 0 0-.514.331.62.62 0 0 0 .014.61 3.332 3.332 0 0 1 .479 1.7 3.375 3.375 0 0 1-6.75 0A4.631 4.631 0 0 0 14 22.375a.625.625 0 0 0 0 1.25A3.375 3.375 0 1 1 10.625 27a3.315 3.315 0 0 1 .479-1.7.625.625 0 0 0-.5-.942 6.348 6.348 0 0 1-4.12-1.872 4.007 4.007 0 0 0 1.016.143 4.13 4.13 0 0 0 4.125-4.129.625.625 0 0 0-1.25 0A2.879 2.879 0 0 1 7.5 21.375c-1.735 0-2.875-1.092-2.875-3.375a6.368 6.368 0 0 1 3.89-5.873.546.546 0 0 0 .059-.039A6.736 6.736 0 0 1 11 11.625a6.325 6.325 0 0 1 2.731.613.625.625 0 0 0 .538-1.129A7.562 7.562 0 0 0 11 10.375a7.141 7.141 0 0 0-2.292.371A3.864 3.864 0 0 1 8.625 10a4.375 4.375 0 0 1 8.75 0v2a.625.625 0 0 0 1.25 0v-2a4.375 4.375 0 0 1 8.75 0 4.333 4.333 0 0 1-.239 1.357.624.624 0 0 0 .349.77A6.371 6.371 0 0 1 25.4 24.354Z"/>
  <path d="M26 15.375a2.6 2.6 0 0 0-1.354.388l-1.021-1.022v-2.2a2.625 2.625 0 1 0-1.25 0V15a.621.621 0 0 0 .183.442l1.2 1.2A2.6 2.6 0 0 0 23.375 18 2.625 2.625 0 1 0 26 15.375ZM21.625 10A1.375 1.375 0 1 1 23 11.375 1.377 1.377 0 0 1 21.625 10ZM26 19.375A1.375 1.375 0 1 1 27.375 18 1.377 1.377 0 0 1 26 19.375Z"/>
</svg>
