<svg id="b6f7fc87-ce0b-40a4-bd6c-59b5e67ab67a" data-name="Icon" xmlns="http://www.w3.org/2000/svg" viewBox="0 0 36 36">
  <g>
    <g>
      <path d="M31,4.38H5A.61.61,0,0,0,4.38,5V31a.61.61,0,0,0,.62.62H31a.61.61,0,0,0,.62-.62V5A.61.61,0,0,0,31,4.38Zm-.62,26H5.62V5.62H30.38Z"/>
      <path d="M14,27.62a5.64,5.64,0,0,0,5.51-4.5.62.62,0,0,0-1.22-.24,4.41,4.41,0,1,1-.8-3.5H16a.62.62,0,1,0,0,1.24h3a.61.61,0,0,0,.62-.62V17a.62.62,0,0,0-1.24,0v1.48A5.62,5.62,0,1,0,14,27.62Z"/>
    </g>
    <path d="M25,8.37a.63.63,0,0,0-.62.63.63.63,0,0,0,1.25,0A.63.63,0,0,0,25,8.37Z"/>
    <path d="M27,8.37a.63.63,0,0,0-.62.63.63.63,0,0,0,1.25,0A.63.63,0,0,0,27,8.37Z"/>
  </g>
</svg>
