<svg id="e6435ad9-bd8e-42df-8b17-deb8151ffea2" data-name="Icon" xmlns="http://www.w3.org/2000/svg" viewBox="0 0 36 36">
  <g>
    <g>
      <path d="M22,30.38H5.62V5.62H30.38V21a.62.62,0,0,0,1.24,0V5A.61.61,0,0,0,31,4.38H5A.61.61,0,0,0,4.38,5V31a.61.61,0,0,0,.62.62H22a.62.62,0,0,0,0-1.24Z"/>
      <path d="M24.38,28.05a3.61,3.61,0,0,0,4.9,3.38l-4.9-4.9Z"/>
      <path d="M31.72,30.33l-.56-.55a3.53,3.53,0,0,0,.47-1.73V24.59a.63.63,0,0,0-.5-.61l-3-.64a.57.57,0,0,0-.26,0l-2.59.55-.38-.38a.63.63,0,1,0-.89.89l.37.36h0l6,6h0l.45.45a.59.59,0,0,0,.44.19.63.63,0,0,0,.45-1.07Z"/>
    </g>
    <path d="M25,8.37a.63.63,0,0,0-.62.63.63.63,0,0,0,1.25,0A.63.63,0,0,0,25,8.37Z"/>
    <path d="M27,8.37a.63.63,0,0,0-.62.63.63.63,0,0,0,1.25,0A.63.63,0,0,0,27,8.37Z"/>
  </g>
</svg>
