<svg id="b85341d4-6978-4bb5-9133-a621c78bad94" data-name="Icon" xmlns="http://www.w3.org/2000/svg" viewBox="0 0 36 36">
  <g>
    <path d="M15,7.38a.62.62,0,0,0-.61.63.61.61,0,0,0,.61.62A.62.62,0,0,0,15.62,8,.63.63,0,0,0,15,7.38Z"/>
    <path d="M25,13.38a.63.63,0,0,0-.62.63.63.63,0,0,0,1.25,0A.63.63,0,0,0,25,13.38Z"/>
    <path d="M23,13.38a.62.62,0,0,0-.61.63.61.61,0,0,0,.61.62.62.62,0,0,0,.63-.62A.63.63,0,0,0,23,13.38Z"/>
    <g>
      <path d="M22,26.38a.62.62,0,0,0-.62.62v3.38H8.62V5.62H21.38V8a.62.62,0,0,0,1.24,0V5A.62.62,0,0,0,22,4.38H8A.62.62,0,0,0,7.38,5V31a.62.62,0,0,0,.62.62H22a.62.62,0,0,0,.62-.62V27A.62.62,0,0,0,22,26.38Z"/>
      <path d="M12.38,28a.62.62,0,0,0,.62.62h4a.62.62,0,0,0,0-1.24H13A.62.62,0,0,0,12.38,28Z"/>
      <path d="M28,10.38H18a.62.62,0,0,0-.62.62V21a.62.62,0,0,0,.62.62H28a.62.62,0,0,0,.62-.62V11A.62.62,0,0,0,28,10.38Zm-.62,10H18.62V11.62h8.76Z"/>
      <path d="M25,23.38H15.62V14a.62.62,0,0,0-1.24,0V24a.62.62,0,0,0,.62.62H25a.62.62,0,0,0,0-1.24Z"/>
    </g>
  </g>
</svg>
