<svg id="fa78262c-b038-4be5-ad05-45590268c81b" data-name="Icon" xmlns="http://www.w3.org/2000/svg" viewBox="0 0 36 36">
  <g>
    <path d="M27,23.37a.63.63,0,0,0-.62.63.63.63,0,0,0,1.25,0A.63.63,0,0,0,27,23.37Z"/>
    <path d="M18,9.38a.63.63,0,0,0-.62.63.63.63,0,0,0,1.25,0A.63.63,0,0,0,18,9.38Z"/>
    <path d="M20,9.38a.63.63,0,0,0-.62.63.63.63,0,0,0,1.25,0A.63.63,0,0,0,20,9.38Z"/>
    <g>
      <path d="M31,18.38H5a.62.62,0,0,0-.62.62V29a.62.62,0,0,0,.62.62H31a.62.62,0,0,0,.62-.62V19A.62.62,0,0,0,31,18.38Zm-.62,10H5.62V19.62H30.38Z"/>
      <path d="M9,24.62h6a.62.62,0,0,0,0-1.24H9a.62.62,0,0,0,0,1.24Z"/>
      <path d="M13,17.62H23a.62.62,0,0,0,.62-.62V7A.62.62,0,0,0,23,6.38H13a.62.62,0,0,0-.62.62V17A.62.62,0,0,0,13,17.62Zm.62-10h8.76v8.76H13.62Z"/>
    </g>
  </g>
</svg>
