<svg id="af7431bc-493d-4f46-8ce1-8ea8e7a38a44" data-name="Icon" xmlns="http://www.w3.org/2000/svg" viewBox="0 0 36 36">
  <g>
    <g>
      <path d="M31,4.38H5A.61.61,0,0,0,4.38,5V31a.61.61,0,0,0,.62.62H22a.62.62,0,0,0,0-1.24H5.62V5.62H30.38V21a.62.62,0,0,0,1.24,0V5A.61.61,0,0,0,31,4.38Z"/>
      <path d="M31.13,24l-3-.64a.57.57,0,0,0-.26,0l-3,.64a.62.62,0,0,0-.49.61v3.46a3.62,3.62,0,0,0,7.24,0V24.59A.62.62,0,0,0,31.13,24Z"/>
    </g>
    <path d="M25,8.37a.63.63,0,0,0-.62.63.63.63,0,0,0,1.25,0A.63.63,0,0,0,25,8.37Z"/>
    <path d="M27,8.37a.63.63,0,0,0-.62.63.63.63,0,0,0,1.25,0A.63.63,0,0,0,27,8.37Z"/>
  </g>
</svg>
