<svg id="fc3a1e81-cc87-447e-a848-e35eadb30395" data-name="Icon" xmlns="http://www.w3.org/2000/svg" viewBox="0 0 36 36">
  <g>
    <path d="M26,7.38a.63.63,0,0,0-.62.63.63.63,0,0,0,1.25,0A.63.63,0,0,0,26,7.38Z"/>
    <path d="M28,7.38a.63.63,0,0,0-.62.63.63.63,0,0,0,1.25,0A.63.63,0,0,0,28,7.38Z"/>
    <g>
      <path d="M31,4.38H11a.61.61,0,0,0-.62.62V25a.61.61,0,0,0,.62.62H31a.61.61,0,0,0,.62-.62V5A.61.61,0,0,0,31,4.38Zm-.62,20H11.62V5.62H30.38Z"/>
      <path d="M28,27.38H8.62V8A.62.62,0,0,0,7.38,8V28a.61.61,0,0,0,.62.62H28a.62.62,0,0,0,0-1.24Z"/>
      <path d="M25,30.38H5.62V11a.62.62,0,0,0-1.24,0V31a.61.61,0,0,0,.62.62H25a.62.62,0,0,0,0-1.24Z"/>
    </g>
  </g>
</svg>
