<svg id="e275c7de-ee2f-4328-884c-5680692241f8" data-name="Icon" xmlns="http://www.w3.org/2000/svg" viewBox="0 0 36 36">
  <g>
    <g>
      <path d="M11,25.62H23a.62.62,0,0,0,0-1.24H11.62V5.62H30.38V21a.62.62,0,0,0,1.24,0V5A.62.62,0,0,0,31,4.38H11a.62.62,0,0,0-.62.62V25A.62.62,0,0,0,11,25.62Z"/>
      <path d="M8,28.62H23a.62.62,0,0,0,0-1.24H8.62V8A.62.62,0,0,0,7.38,8V28A.62.62,0,0,0,8,28.62Z"/>
      <path d="M24,30.38H5.62V11a.62.62,0,0,0-1.24,0V31a.62.62,0,0,0,.62.62H24a.62.62,0,0,0,0-1.24Z"/>
      <path d="M25.37,28.05A3.63,3.63,0,0,0,29,31.67a3.54,3.54,0,0,0,1.27-.24l-4.9-4.9Z"/>
      <path d="M32.71,30.33l-.55-.55a3.63,3.63,0,0,0,.46-1.73V24.59a.63.63,0,0,0-.49-.61l-3-.64a.57.57,0,0,0-.26,0l-2.6.55-.38-.38a.63.63,0,0,0-.88.89l.36.36h0l6,6h0l.46.45a.6.6,0,0,0,.88,0A.63.63,0,0,0,32.71,30.33Z"/>
    </g>
    <path d="M26,7.38a.63.63,0,0,0-.62.63.63.63,0,0,0,1.25,0A.63.63,0,0,0,26,7.38Z"/>
    <path d="M28,7.38a.63.63,0,0,0-.62.63.63.63,0,0,0,1.25,0A.63.63,0,0,0,28,7.38Z"/>
  </g>
</svg>
