<svg id="b5835841-a0f0-487a-9c7d-c658850776c1" data-name="Icon" xmlns="http://www.w3.org/2000/svg" viewBox="0 0 36 36">
  <g>
    <g>
      <path d="M11,25.62H23a.62.62,0,0,0,0-1.24H11.62V5.62H30.38V21a.62.62,0,0,0,1.24,0V5A.61.61,0,0,0,31,4.38H11a.61.61,0,0,0-.62.62V25A.61.61,0,0,0,11,25.62Z"/>
      <path d="M8,28.62H23a.62.62,0,0,0,0-1.24H8.62V8A.62.62,0,0,0,7.38,8V28A.61.61,0,0,0,8,28.62Z"/>
      <path d="M24,30.38H5.62V11a.62.62,0,0,0-1.24,0V31a.61.61,0,0,0,.62.62H24a.62.62,0,0,0,0-1.24Z"/>
      <path d="M32.13,24l-3-.64a.57.57,0,0,0-.26,0l-3,.64a.62.62,0,0,0-.49.61v3.46a3.62,3.62,0,0,0,7.24,0V24.59A.62.62,0,0,0,32.13,24Z"/>
    </g>
    <path d="M26,7.38a.63.63,0,0,0-.62.63.63.63,0,0,0,1.25,0A.63.63,0,0,0,26,7.38Z"/>
    <path d="M28,7.38a.63.63,0,0,0-.62.63.63.63,0,0,0,1.25,0A.63.63,0,0,0,28,7.38Z"/>
  </g>
</svg>
