<svg id="ac351ed7-78e6-466e-9dfd-e76101a8004f" data-name="Icon" xmlns="http://www.w3.org/2000/svg" viewBox="0 0 36 36">
  <g>
    <g>
      <path d="M14.75,4.38h-6A.63.63,0,0,0,8.12,5v6a.63.63,0,0,0,.63.62h6a.63.63,0,0,0,.63-.62V5A.63.63,0,0,0,14.75,4.38Zm-.63,6H9.38V5.62h4.74Z"/>
      <path d="M14.75,14.38h-6a.63.63,0,0,0-.63.62v6a.63.63,0,0,0,.63.62h6a.63.63,0,0,0,.63-.62V15A.63.63,0,0,0,14.75,14.38Zm-.63,6H9.38V15.62h4.74Z"/>
      <rect x="8.13" y="24.38" width="7.25" height="7.25" rx="0.63"/>
      <path d="M24.25,23.38a.63.63,0,0,0-.63.62v1a2.38,2.38,0,0,1-2.37,2.38H19.76l.93-.94a.62.62,0,0,0-.88-.88l-2,2a.57.57,0,0,0-.19.41.7.7,0,0,0,.19.47l2,2a.63.63,0,0,0,.88,0,.61.61,0,0,0,0-.88l-.93-.94h1.49A3.63,3.63,0,0,0,24.88,25V24A.63.63,0,0,0,24.25,23.38Z"/>
      <path d="M18.25,8.62h3A2.38,2.38,0,0,1,23.62,11v1a.63.63,0,0,0,1.26,0V11a3.63,3.63,0,0,0-3.63-3.62h-3a.62.62,0,1,0,0,1.24Z"/>
    </g>
    <path d="M21.25,18.62h.46a2.49,2.49,0,0,0,.3.73l-.32.33a.62.62,0,0,0,.88.88l.33-.32a2.55,2.55,0,0,0,.72.3V21a.63.63,0,0,0,1.25,0v-.46a2.49,2.49,0,0,0,.73-.3l.33.32a.62.62,0,0,0,.88-.88l-.32-.33a2.49,2.49,0,0,0,.3-.73h.46a.63.63,0,0,0,0-1.25h-.46a2.55,2.55,0,0,0-.3-.72l.32-.33c.58-.56-.32-1.46-.88-.88l-.33.32a2.49,2.49,0,0,0-.73-.3V15a.63.63,0,0,0-1.25,0v.46a2.55,2.55,0,0,0-.72.3l-.33-.32c-.56-.58-1.46.32-.88.88l.32.33a2.55,2.55,0,0,0-.3.72h-.46A.63.63,0,0,0,21.25,18.62Zm3-2a1.38,1.38,0,0,1,0,2.75A1.38,1.38,0,0,1,24.25,16.62Z"/>
  </g>
</svg>
