<svg id="bea2370b-83e4-418f-9f45-1b1d9a276a53" data-name="Layer 1" xmlns="http://www.w3.org/2000/svg" viewBox="0 0 36 36">
  <g>
    <path d="M31.62,19a.59.59,0,0,0,0-.13.22.22,0,0,0,0-.08s0,0,0,0l-.07-.11-.07-.09a.27.27,0,0,0-.08-.07l-.12-.07,0,0-19-7h-.1l-.12,0-.13,0h-.09l0,0a.33.33,0,0,0-.1.06l-.1.07-.06.09a.26.26,0,0,0-.07.11l0,0s0,.06,0,.09a.43.43,0,0,0,0,.26s0,.06,0,.09l7,19s0,0,0,0a.43.43,0,0,1,0,.07l.09.12.05,0a.42.42,0,0,0,.17.1h0a.58.58,0,0,0,.19,0,.64.64,0,0,0,.2,0h0l0,0a.46.46,0,0,0,.15-.09s0,0,.05,0a.38.38,0,0,0,.09-.12l0-.07s0,0,0,0l2.9-8.71,8.71-2.9h0a.42.42,0,0,0,.17-.1l.05,0,.09-.12a.43.43,0,0,1,0-.07s0,0,0,0,0-.06,0-.09A.5.5,0,0,0,31.62,19Zm-9.82,2.4,0,0a.37.37,0,0,0-.12.07l-.09.06a.86.86,0,0,0-.07.1.39.39,0,0,0-.06.11s0,0,0,0L19,29.11,13.06,13.05l16,5.92Z"/>
    <path d="M9.43,10.33a.63.63,0,0,0,.88,0,.63.63,0,0,0,0-.88L7.48,6.62a.62.62,0,0,0-.88.88Z"/>
    <path d="M12,9.62A.62.62,0,0,0,12.62,9V5a.62.62,0,1,0-1.24,0V9A.62.62,0,0,0,12,9.62Z"/>
    <path d="M9.62,12A.62.62,0,0,0,9,11.38H5a.62.62,0,0,0,0,1.24H9A.62.62,0,0,0,9.62,12Z"/>
    <path d="M9.58,13.81,6.75,16.64a.63.63,0,0,0,0,.88.59.59,0,0,0,.44.19.63.63,0,0,0,.45-.19l2.83-2.83a.63.63,0,0,0,0-.88A.64.64,0,0,0,9.58,13.81Z"/>
    <path d="M14.25,10.65a.64.64,0,0,0,.45-.19l2.83-2.83a.63.63,0,1,0-.89-.88L13.81,9.58a.63.63,0,0,0,.44,1.07Z"/>
  </g>
</svg>
