<svg id="f9599837-dd47-403b-b1f3-a8888143fa9f" data-name="Icon" xmlns="http://www.w3.org/2000/svg" viewBox="0 0 36 36">
  <g>
    <path d="M28.62,15.52v0a9.12,9.12,0,0,0-17.28-4.07,7.12,7.12,0,1,0-.84,14.19H12a.62.62,0,0,0,0-1.24H10.5a5.88,5.88,0,1,1,1.09-11.65.63.63,0,0,0,.69-.36,7.87,7.87,0,0,1,15.1,3.13c0,.13,0,.26,0,.39V16a.63.63,0,0,0,.56.66,3.87,3.87,0,0,1-.41,7.71H26a.62.62,0,0,0,0,1.24h1.5a5.11,5.11,0,0,0,1.12-10.1Z"/>
    <path d="M24,18.38a.61.61,0,0,0-.62.62v1.48a5.62,5.62,0,1,0,1.13,4.64.62.62,0,0,0-1.22-.24,4.41,4.41,0,1,1-.8-3.5H21a.62.62,0,0,0,0,1.24h3a.61.61,0,0,0,.62-.62V19A.61.61,0,0,0,24,18.38Z"/>
  </g>
</svg>
