<svg id="b8eaeec4-dcbf-4b4c-ba0f-11a4e80d5426" data-name="Icon" xmlns="http://www.w3.org/2000/svg" viewBox="0 0 36 36">
  <g>
    <path d="M30.67,22.51a5.1,5.1,0,0,0-2.05-9v0A9.12,9.12,0,0,0,11.34,9.43,7.1,7.1,0,0,0,4.62,20.48,7.12,7.12,0,0,0,10.5,31.62H28a.69.69,0,0,0,.29-.07,5.09,5.09,0,0,0,2.38-9ZM27.5,30.38h-17a5.88,5.88,0,1,1,1.09-11.65.64.64,0,0,0,.69-.36,7.86,7.86,0,0,1,4-4.05.63.63,0,0,0-.52-1.14,9.09,9.09,0,0,0-4.4,4.25,7,7,0,0,0-5.89,2,5.73,5.73,0,0,1-.83-3,5.84,5.84,0,0,1,7-5.77.63.63,0,0,0,.69-.36,7.87,7.87,0,0,1,15.1,3.13c0,.13,0,.26,0,.39V14a.63.63,0,0,0,.56.66,3.85,3.85,0,0,1,1.59,7.14,5,5,0,0,0-.88-.29v0a9.07,9.07,0,0,0-4.29-7.74.61.61,0,0,0-.86.2.63.63,0,0,0,.2.86,7.84,7.84,0,0,1,3.71,6.68c0,.13,0,.26,0,.39V22a.63.63,0,0,0,.56.66,3.87,3.87,0,0,1-.41,7.71Z"/>
    <path d="M20.44,8.56a.63.63,0,0,0-.88,0l-2,2c-.58.56.32,1.46.88.88l.94-.93V18a.62.62,0,0,0,1.24,0V10.51l.94.93a.62.62,0,0,0,.88-.88Z"/>
  </g>
</svg>
