<svg id="be24fca5-3d21-44f0-a1e2-c5b2ea709503" data-name="Layer 1" xmlns="http://www.w3.org/2000/svg" viewBox="0 0 36 36">
  <defs>
    <style>
      .a9d0d644-eb4a-41f7-8cf6-1555fda1693f {
        fill: #e00;
      }
    </style>
  </defs>
  <g>
    <path d="M27.5,25.625h-17a7.124,7.124,0,1,1,.836-14.2A9.124,9.124,0,0,1,28.625,15.5v.022a5.113,5.113,0,0,1-1.125,10.1Zm-17-13a5.875,5.875,0,0,0,0,11.75h17a3.863,3.863,0,0,0,.407-7.706.624.624,0,0,1-.558-.661l.007-.112c.009-.132.019-.263.019-.4a7.874,7.874,0,0,0-15.1-3.135.624.624,0,0,1-.689.365A5.959,5.959,0,0,0,10.5,12.625Z"/>
    <path class="a9d0d644-eb4a-41f7-8cf6-1555fda1693f" d="M31,29.625H5a.625.625,0,0,1,0-1.25H31a.625.625,0,0,1,0,1.25Z"/>
  </g>
</svg>
