<svg id="bd00a31e-87a4-4ac7-b200-1b5a739cfc5c" data-name="Icon" xmlns="http://www.w3.org/2000/svg" viewBox="0 0 36 36">
  <g>
    <path d="M23,25.38H10.5a5.88,5.88,0,1,1,1.09-11.65.63.63,0,0,0,.69-.36,7.87,7.87,0,0,1,15.1,3.13c0,.13,0,.26,0,.39V17a.63.63,0,0,0,.56.66,3.89,3.89,0,0,1,3.24,2.54.63.63,0,0,0,.8.38.62.62,0,0,0,.38-.8,5.17,5.17,0,0,0-3.71-3.27v0a9.12,9.12,0,0,0-17.28-4.07,7.12,7.12,0,1,0-.84,14.19H23a.62.62,0,0,0,0-1.24Z"/>
    <path d="M25.37,26.09A3.64,3.64,0,0,0,29,29.72a3.54,3.54,0,0,0,1.27-.24l-4.9-4.91Z"/>
    <path d="M32.71,28.38l-.55-.55a3.67,3.67,0,0,0,.46-1.74V22.64a.62.62,0,0,0-.49-.61l-3-.64a.57.57,0,0,0-.26,0l-2.6.55-.38-.38a.62.62,0,0,0-.88.88l.36.36h0l6,6h0l.46.45a.63.63,0,0,0,.88,0A.63.63,0,0,0,32.71,28.38Z"/>
  </g>
</svg>
