<svg id="bf62d48e-87aa-48cb-874b-ebfe0514be29" data-name="Icon" xmlns="http://www.w3.org/2000/svg" viewBox="0 0 36 36">
  <g>
    <path d="M28.62,14.52v0a9.12,9.12,0,0,0-17.28-4.07,7.12,7.12,0,1,0-.84,14.19H12a.62.62,0,0,0,0-1.24H10.5a5.88,5.88,0,1,1,1.09-11.65.63.63,0,0,0,.69-.36,7.87,7.87,0,0,1,15.1,3.13c0,.13,0,.26,0,.39V15a.63.63,0,0,0,.56.66,3.87,3.87,0,0,1-.41,7.71H26a.62.62,0,0,0,0,1.24h1.5a5.11,5.11,0,0,0,1.12-10.1Z"/>
    <path d="M23.39,26.51a5.62,5.62,0,1,0-.88.88l3,3.05a.62.62,0,0,0,.88-.88ZM14.62,23a4.38,4.38,0,0,1,8.76,0A4.38,4.38,0,0,1,14.62,23Z"/>
  </g>
</svg>
