<svg id="f857ed94-123a-4516-8566-22e9c12e6077" data-name="Icon" xmlns="http://www.w3.org/2000/svg" viewBox="0 0 36 36">
  <g>
    <path d="M11.44,25.44l7-7a.61.61,0,0,0,0-.88l-7-7a.63.63,0,1,0-.88.88L17.12,18l-6.56,6.56A.63.63,0,1,0,11.44,25.44Z"/>
    <path d="M18.38,24.92a.63.63,0,0,0,.62.63h7a.63.63,0,0,0,0-1.25H19A.62.62,0,0,0,18.38,24.92Z"/>
    <path d="M31,4.38H5A.62.62,0,0,0,4.38,5V31a.62.62,0,0,0,.62.62H31a.62.62,0,0,0,.62-.62V5A.62.62,0,0,0,31,4.38Zm-.62,26H5.62V5.62H30.38Z"/>
  </g>
</svg>
