<svg id="e61aec96-6e16-42e8-a0d0-7bb0f0131165" data-name="Icon" xmlns="http://www.w3.org/2000/svg" viewBox="0 0 36 36">
  <g>
    <path d="M21.69,29.15,18,31.28,6.5,24.64V11.36L18,4.72l11.5,6.64V22a.63.63,0,0,0,1.25,0V11a.63.63,0,0,0-.31-.54l-12.13-7a.62.62,0,0,0-.62,0l-12.13,7a.63.63,0,0,0-.31.54V25a.63.63,0,0,0,.31.54l12.13,7a.64.64,0,0,0,.62,0l4-2.31a.62.62,0,0,0-.62-1.08Z"/>
    <path d="M24.38,29.09A3.64,3.64,0,0,0,28,32.72a3.54,3.54,0,0,0,1.27-.24l-4.9-4.91Z"/>
    <path d="M31.72,31.38l-.55-.55a3.67,3.67,0,0,0,.46-1.74V25.64a.62.62,0,0,0-.49-.61l-3-.64a.57.57,0,0,0-.26,0l-2.6.55-.38-.38a.62.62,0,0,0-.88.88l.36.36h0l6,6h0l.46.45a.63.63,0,0,0,.88,0A.63.63,0,0,0,31.72,31.38Z"/>
  </g>
</svg>
