<svg id="a156f7ce-fe45-4645-b3ad-ae2b12110a56" data-name="Icon" xmlns="http://www.w3.org/2000/svg" viewBox="0 0 36 36">
  <g>
    <path d="M22.85,16.39a.63.63,0,0,0,.31-.54V10.62a.62.62,0,0,0-.31-.54L18.31,7.46a.62.62,0,0,0-.62,0l-4.54,2.62a.62.62,0,0,0-.31.54v5.23a.63.63,0,0,0,.31.54L17.69,19a.64.64,0,0,0,.62,0Zm-8.76-.9V11L18,8.72,21.91,11v4.51L18,17.75Z"/>
    <path d="M23.78,28.54l4.54-2.62a.62.62,0,0,0,.31-.54V20.15a.63.63,0,0,0-.31-.54L23.78,17a.62.62,0,0,0-.62,0l-4.54,2.62a.63.63,0,0,0-.31.54v5.23a.62.62,0,0,0,.31.54l4.54,2.62a.64.64,0,0,0,.62,0ZM19.56,25V20.51l3.91-2.26,3.91,2.26V25l-3.91,2.26Z"/>
    <path d="M12.84,17a.62.62,0,0,0-.62,0L7.68,19.61a.63.63,0,0,0-.31.54v5.23a.62.62,0,0,0,.31.54l4.54,2.62a.64.64,0,0,0,.62,0l4.54-2.62a.62.62,0,0,0,.31-.54V20.15a.63.63,0,0,0-.31-.54Zm3.6,8-3.91,2.26L8.62,25V20.51l3.91-2.26,3.91,2.26Z"/>
    <path d="M12,30.38H5.62V5.62H12a.62.62,0,0,0,0-1.24H5A.61.61,0,0,0,4.38,5V31a.61.61,0,0,0,.62.62h7a.62.62,0,0,0,0-1.24Z"/>
    <path d="M31,4.38H24a.62.62,0,0,0,0,1.24h6.38V30.38H24a.62.62,0,0,0,0,1.24h7a.61.61,0,0,0,.62-.62V5A.61.61,0,0,0,31,4.38Z"/>
  </g>
</svg>
