<svg id="b879a985-db31-41b5-86d3-295c5144b69c" data-name="Icon" xmlns="http://www.w3.org/2000/svg" viewBox="0 0 36 36">
  <g>
    <path d="M26.42,11.86a.63.63,0,0,0-.62.63.63.63,0,0,0,1.25,0A.63.63,0,0,0,26.42,11.86Z"/>
    <path d="M28.25,11.86a.63.63,0,0,0-.62.63.63.63,0,0,0,1.25,0A.63.63,0,0,0,28.25,11.86Z"/>
    <path d="M31,9.5H15.29a.63.63,0,0,0-.62.63v2.94H11.52V11.76a.65.65,0,0,0-.31-.55l-3-1.7a.64.64,0,0,0-.63,0l-2.95,1.7a.65.65,0,0,0-.31.55v3.4a.63.63,0,0,0,.31.54l3,1.71a.71.71,0,0,0,.31.08.72.72,0,0,0,.32-.08l3-1.71a.63.63,0,0,0,.31-.54v-.84h3.15v7.33H11.52v-.81a.63.63,0,0,0-.31-.54l-3-1.71a.64.64,0,0,0-.63,0L4.68,20.3a.63.63,0,0,0-.31.54v3.4a.65.65,0,0,0,.31.55l3,1.7a.71.71,0,0,0,.31.08.72.72,0,0,0,.32-.08l3-1.7a.65.65,0,0,0,.31-.55V22.9h3.15v2.94a.63.63,0,0,0,.62.63H31a.63.63,0,0,0,.63-.63V10.13A.63.63,0,0,0,31,9.5ZM10.27,14.8,7.94,16.14,5.62,14.8V12.12l2.32-1.34,2.33,1.34Zm0,9.08L7.94,25.22,5.62,23.88V21.2l2.32-1.34,2.33,1.34Zm20.11,1.34H15.92V10.75H30.38Z"/>
  </g>
</svg>
