<svg id="afc60f65-f481-4220-86f5-1942912b01bd" data-name="Icon" xmlns="http://www.w3.org/2000/svg" viewBox="0 0 36 36">
  <g>
    <path d="M30.44,10.46l-12.13-7a.62.62,0,0,0-.62,0l-12.13,7a.63.63,0,0,0-.31.54V25a.63.63,0,0,0,.31.54l12.13,7a.64.64,0,0,0,.62,0l12.13-7a.63.63,0,0,0,.31-.54V11A.63.63,0,0,0,30.44,10.46ZM29.5,24.64,18,31.28,6.5,24.64V11.36L18,4.72l11.5,6.64Z"/>
    <path d="M16.76,20.79a.62.62,0,0,0,1.22.26l1.24-5.84A.62.62,0,0,0,18,15Z"/>
    <path d="M21,21a.63.63,0,0,0,.88,0l2.56-2.56a.63.63,0,0,0,.18-.45.62.62,0,0,0-.18-.44L21.88,15c-.57-.58-1.47.32-.88.88L23.12,18,21,20.11A.62.62,0,0,0,21,21Z"/>
    <path d="M15,15a.61.61,0,0,0-.88,0l-2.56,2.56a.62.62,0,0,0-.18.44.63.63,0,0,0,.18.45L14.12,21a.63.63,0,0,0,.88-.89L12.88,18,15,15.87A.61.61,0,0,0,15,15Z"/>
  </g>
</svg>
