<svg id="bb120e8b-c39b-498f-957f-bcf50f781912" data-name="Icon" xmlns="http://www.w3.org/2000/svg" viewBox="0 0 36 36">
  <g>
    <path d="M16.62,12.5a4.12,4.12,0,1,0-4.12,4.12A4.13,4.13,0,0,0,16.62,12.5ZM12.5,15.38a2.88,2.88,0,1,1,2.88-2.88A2.88,2.88,0,0,1,12.5,15.38Z"/>
    <path d="M17.5,19.38a4.12,4.12,0,1,0,4.12,4.12A4.13,4.13,0,0,0,17.5,19.38Zm0,7a2.88,2.88,0,1,1,2.88-2.88A2.88,2.88,0,0,1,17.5,26.38Z"/>
    <path d="M31.62,12.5a4.12,4.12,0,1,0-4.12,4.12A4.13,4.13,0,0,0,31.62,12.5ZM27.5,15.38a2.88,2.88,0,1,1,2.88-2.88A2.88,2.88,0,0,1,27.5,15.38Z"/>
    <path d="M5,8.38A.61.61,0,0,0,4.38,9v7a.62.62,0,0,0,1.24,0V9A.61.61,0,0,0,5,8.38Z"/>
    <path d="M5,19.38a.61.61,0,0,0-.62.62v7a.62.62,0,0,0,1.24,0V20A.61.61,0,0,0,5,19.38Z"/>
    <path d="M10,19.38a.61.61,0,0,0-.62.62v7a.62.62,0,0,0,1.24,0V20A.61.61,0,0,0,10,19.38Z"/>
    <path d="M25,19.38a.61.61,0,0,0-.62.62v7a.62.62,0,0,0,1.24,0V20A.61.61,0,0,0,25,19.38Z"/>
    <path d="M30,19.38a.61.61,0,0,0-.62.62v7a.62.62,0,0,0,1.24,0V20A.61.61,0,0,0,30,19.38Z"/>
    <path d="M20,16.62a.61.61,0,0,0,.62-.62V9a.62.62,0,0,0-1.24,0v7A.61.61,0,0,0,20,16.62Z"/>
  </g>
</svg>
