<svg xmlns="http://www.w3.org/2000/svg" viewBox="0 0 36 36">
  <g id="b70fb6a7-28f0-4906-998a-89128ee06abb" data-name="Guidelines">
    <g>
      <path d="M28.5,5.625A1.875,1.875,0,1,1,26.625,7.5,1.877,1.877,0,0,1,28.5,5.625Zm0,5A3.125,3.125,0,1,0,25.375,7.5,3.129,3.129,0,0,0,28.5,10.625Z"/>
      <path d="M25.5,30.375A4.875,4.875,0,1,1,30.375,25.5,4.881,4.881,0,0,1,25.5,30.375Zm0-11A6.125,6.125,0,1,0,31.625,25.5,6.132,6.132,0,0,0,25.5,19.375Z"/>
      <path d="M8.375,7.625v.04a.456.456,0,0,0-.061-.04Zm8.536,17.65a10.014,10.014,0,0,1-1.411.1A9.87,9.87,0,0,1,8.375,8.669V10a.625.625,0,0,0,1.25,0V7A.625.625,0,0,0,9,6.375H6a.625.625,0,0,0,0,1.25H7.685a.582.582,0,0,0-.131.089A11.125,11.125,0,0,0,15.5,26.625a11.2,11.2,0,0,0,1.589-.113.625.625,0,1,0-.178-1.237Z"/>
      <path d="M11.994,4.977a.631.631,0,0,0-.619.63.625.625,0,0,0,1.25,0,.634.634,0,0,0-.631-.63Z"/>
      <path d="M14.329,4.438a.632.632,0,0,0-.62.63.625.625,0,0,0,1.25,0,.634.634,0,0,0-.63-.63Z"/>
      <path d="M16.714,4.438a.631.631,0,0,0-.619.63.625.625,0,0,0,1.25,0,.635.635,0,0,0-.631-.63Z"/>
      <path d="M19.044,4.99a.632.632,0,0,0-.619.631.625.625,0,0,0,1.25,0,.634.634,0,0,0-.631-.631Z"/>
      <path d="M21.186,6.05a.632.632,0,0,0-.62.63.625.625,0,0,0,1.25,0,.634.634,0,0,0-.63-.63Z"/>
      <path d="M23.034,7.568a.632.632,0,0,0-.62.63.625.625,0,0,0,1.25,0,.634.634,0,0,0-.63-.63Z"/>
      <path d="M24.491,9.458a.633.633,0,0,0-.62.631.625.625,0,0,0,1.25,0,.635.635,0,0,0-.63-.631Z"/>
      <path d="M25.484,11.63a.632.632,0,0,0-.619.631.625.625,0,0,0,1.25,0,.634.634,0,0,0-.631-.631Z"/>
      <path d="M25.955,13.974a.632.632,0,0,0-.62.63.625.625,0,0,0,1.25,0,.634.634,0,0,0-.63-.63Z"/>
      <path d="M25.89,16.378a.633.633,0,0,0-.62.631.625.625,0,0,0,1.25,0,.635.635,0,0,0-.63-.631Z"/>
    </g>
    <path d="M11,14.625A.625.625,0,0,1,10.375,14V11a.625.625,0,0,1,1.25,0v3A.625.625,0,0,1,11,14.625Z"/>
    <path d="M20,14.625A.625.625,0,0,1,19.375,14V11a.625.625,0,0,1,1.25,0v3A.625.625,0,0,1,20,14.625Z"/>
    <path d="M16,20.625A.625.625,0,0,1,15.375,20V17a.625.625,0,0,1,1.25,0v3A.625.625,0,0,1,16,20.625Z"/>
    <path d="M20,20.625A.625.625,0,0,1,19.375,20V17a.625.625,0,0,1,1.25,0v3A.625.625,0,0,1,20,20.625Z"/>
    <path d="M15.5,14.625A2.125,2.125,0,1,1,17.625,12.5,2.127,2.127,0,0,1,15.5,14.625Zm0-3a.875.875,0,1,0,.875.875A.877.877,0,0,0,15.5,11.625Z"/>
    <path d="M11.5,20.625A2.125,2.125,0,1,1,13.625,18.5,2.127,2.127,0,0,1,11.5,20.625Zm0-3a.875.875,0,1,0,.875.875A.877.877,0,0,0,11.5,17.625Z"/>
  </g>
</svg>
