<svg xmlns="http://www.w3.org/2000/svg" viewBox="0 0 36 36">
  <path d="M23.62 22a4.88 4.88 0 0 0-9.13-2.14h-.24a3.87 3.87 0 0 0 0 7.74H23a.71.71 0 0 0 .21 0 2.87 2.87 0 0 0 .41-5.6Zm-.87 4.36h-8.5a2.63 2.63 0 1 1 .49-5.21.62.62 0 0 0 .69-.36 3.62 3.62 0 0 1 7 1.44v.23a.64.64 0 0 0 .56.67 1.61 1.61 0 0 1 1.46 1.6 1.63 1.63 0 0 1-1.7 1.65ZM4 23.38a.63.63 0 0 0-.62.63.63.63 0 0 0 1.25 0 .63.63 0 0 0-.63-.63Zm.84-4.8a.63.63 0 0 0-.62.63.63.63 0 0 0 1.25 0 .63.63 0 0 0-.63-.63Zm2.43-4.2a.63.63 0 0 0-.62.63A.63.63 0 0 0 7.9 15a.63.63 0 0 0-.63-.62ZM11 11.25a.63.63 0 0 0-.62.63.63.63 0 0 0 1.25 0 .63.63 0 0 0-.63-.63Zm4.56-1.66a.63.63 0 0 0-.62.63.63.63 0 0 0 1.25 0 .63.63 0 0 0-.63-.63Zm4.86 0a.63.63 0 0 0-.62.63.63.63 0 0 0 1.25 0 .63.63 0 0 0-.63-.63ZM25 11.24a.63.63 0 0 0-.62.63.63.63 0 0 0 1.25 0 .63.63 0 0 0-.63-.63Zm3.71 3.12a.63.63 0 0 0-.62.63.63.63 0 0 0 1.25 0 .63.63 0 0 0-.63-.63Zm2.44 4.21a.63.63 0 0 0-.62.63.63.63 0 0 0 1.25 0 .63.63 0 0 0-.63-.63Zm.85 4.81a.63.63 0 0 0-.62.63.63.63 0 0 0 1.25 0 .63.63 0 0 0-.63-.63Z"/>
</svg>
