<svg xmlns="http://www.w3.org/2000/svg" viewBox="0 0 36 36">
  <path fill="#e00" d="M31 29.625H5a.625.625 0 0 1 0-1.25h26a.625.625 0 0 1 0 1.25Z"/>
  <path d="M23.671 24.541h-9.924a4.31 4.31 0 1 1 .318-8.609 5.445 5.445 0 0 1 10.227 2.4 3.17 3.17 0 0 1-.4 6.17.623.623 0 0 1-.221.039Zm-9.924-7.372a3.061 3.061 0 0 0 0 6.122h9.64a1.92 1.92 0 0 0 .2-3.83.627.627 0 0 1-.559-.663c.009-.128.015-.2.015-.269A4.195 4.195 0 0 0 15 16.859a.622.622 0 0 1-.689.365 3.028 3.028 0 0 0-.564-.055Z"/>
  <path fill="#e00" d="M4.63 16.8a.623.623 0 0 1-.38-.8.63.63 0 0 1 .81-.38.626.626 0 0 1 .37.8.612.612 0 0 1-.59.41.761.761 0 0 1-.21-.03Zm25.939-.39a.612.612 0 0 1 .37-.8.627.627 0 0 1 .8.37.628.628 0 0 1-.37.8.572.572 0 0 1-.221.04.624.624 0 0 1-.579-.41ZM6.87 12.48a.619.619 0 0 1-.07-.88.621.621 0 0 1 .88-.08.631.631 0 0 1 .07.88.616.616 0 0 1-.48.23.623.623 0 0 1-.4-.15Zm21.37-.09a.621.621 0 0 1 .07-.88.62.62 0 0 1 .879.08.629.629 0 0 1-.069.88.621.621 0 0 1-.41.14.6.6 0 0 1-.47-.22Zm-17.79-3.2a.621.621 0 0 1 .23-.85.624.624 0 0 1 .86.22.636.636 0 0 1-.23.86.714.714 0 0 1-.31.08.636.636 0 0 1-.55-.31Zm14.23.22a.626.626 0 0 1-.23-.85.6.6 0 0 1 .85-.23.621.621 0 0 1 .23.85.621.621 0 0 1-.54.31.575.575 0 0 1-.31-.08Zm-9.73-2.09a.615.615 0 0 1 .5-.72.626.626 0 0 1 .73.51.628.628 0 0 1-.51.72c-.04 0-.07.01-.11.01a.622.622 0 0 1-.61-.52Zm5.36.5a.616.616 0 0 1-.5-.72.623.623 0 0 1 .72-.51.633.633 0 0 1 .51.73.632.632 0 0 1-.62.51.448.448 0 0 1-.11-.01Z"/>
  <circle fill="#e00" cx="3.995" cy="21" r=".625"/>
  <circle fill="#e00" cx="32" cy="21.002" r=".625"/>
</svg>
