<svg id="e83b7fcf-8d99-4ff8-9b66-a982d3b36066" data-name="Layer 1" xmlns="http://www.w3.org/2000/svg" viewBox="0 0 36 36">
  <defs>
    <style>
      .f8586fdb-e5fb-464d-859c-c7e71b9d1e0f {
        fill: #e00;
      }
    </style>
  </defs>
  <g>
    <path class="f8586fdb-e5fb-464d-859c-c7e71b9d1e0f" d="M31,29.625H5a.625.625,0,0,1,0-1.25H31a.625.625,0,0,1,0,1.25Z"/>
    <path d="M23.671,24.541H13.747a4.31,4.31,0,1,1,.318-8.609,5.445,5.445,0,0,1,10.227,2.4,3.17,3.17,0,0,1-.4,6.17A.623.623,0,0,1,23.671,24.541Zm-9.924-7.372a3.061,3.061,0,0,0,0,6.122h9.64a1.92,1.92,0,0,0,.2-3.83.627.627,0,0,1-.559-.663c.009-.128.015-.2.015-.269A4.195,4.195,0,0,0,15,16.859a.622.622,0,0,1-.689.365A3.028,3.028,0,0,0,13.747,17.169Z"/>
    <path class="f8586fdb-e5fb-464d-859c-c7e71b9d1e0f" d="M4.63,16.8a.623.623,0,0,1-.38-.8h0a.63.63,0,0,1,.81-.38h0a.626.626,0,0,1,.37.8h0a.612.612,0,0,1-.59.41h0A.761.761,0,0,1,4.63,16.8Zm25.939-.39a.612.612,0,0,1,.37-.8h0a.627.627,0,0,1,.8.37h0a.628.628,0,0,1-.37.8h0a.572.572,0,0,1-.221.04h0A.624.624,0,0,1,30.569,16.41ZM6.87,12.48a.619.619,0,0,1-.07-.88h0a.621.621,0,0,1,.88-.08h0a.631.631,0,0,1,.07.88h0a.616.616,0,0,1-.48.23h0A.623.623,0,0,1,6.87,12.48Zm21.37-.09a.621.621,0,0,1,.07-.88h0a.62.62,0,0,1,.879.08h0a.629.629,0,0,1-.069.88h0a.621.621,0,0,1-.41.14h0A.6.6,0,0,1,28.24,12.39ZM10.45,9.19a.621.621,0,0,1,.23-.85h0a.624.624,0,0,1,.86.22h0a.636.636,0,0,1-.23.86h0A.714.714,0,0,1,11,9.5h0A.636.636,0,0,1,10.45,9.19Zm14.23.22a.626.626,0,0,1-.23-.85h0a.6.6,0,0,1,.85-.23h0a.621.621,0,0,1,.23.85h0a.621.621,0,0,1-.54.31h0A.575.575,0,0,1,24.68,9.41ZM14.95,7.32a.615.615,0,0,1,.5-.72h0a.626.626,0,0,1,.73.51h0a.628.628,0,0,1-.51.72h0c-.04,0-.07.01-.11.01h0A.622.622,0,0,1,14.95,7.32Zm5.36.5a.616.616,0,0,1-.5-.72h0a.623.623,0,0,1,.72-.51h0a.633.633,0,0,1,.51.73h0a.632.632,0,0,1-.62.51h0A.448.448,0,0,1,20.31,7.82Z"/>
    <circle class="f8586fdb-e5fb-464d-859c-c7e71b9d1e0f" cx="3.995" cy="21" r="0.625"/>
    <circle class="f8586fdb-e5fb-464d-859c-c7e71b9d1e0f" cx="32" cy="21.002" r="0.625"/>
  </g>
</svg>
