<svg id="b7b516b3-8774-4898-9a56-b2894584b7cf" data-name="Icon" xmlns="http://www.w3.org/2000/svg" viewBox="0 0 36 36">
  <g>
    <path d="M28.62,17.52v0a9.12,9.12,0,0,0-17.28-4.07,7.12,7.12,0,1,0-.84,14.19H28a.75.75,0,0,0,.26-.05,5.11,5.11,0,0,0,.36-10ZM27.5,26.38h-17a5.88,5.88,0,1,1,1.09-11.65.64.64,0,0,0,.69-.36,7.87,7.87,0,0,1,15.1,3.13c0,.13,0,.26,0,.4V18a.63.63,0,0,0,.56.66,3.87,3.87,0,0,1-.41,7.71Z"/>
    <path d="M18.74,16.39a.62.62,0,0,0-.74.48l-1.25,5.85a.63.63,0,0,0,.49.74h.13A.62.62,0,0,0,18,23l1.24-5.85A.62.62,0,0,0,18.74,16.39Z"/>
    <path d="M21.88,16.91a.63.63,0,1,0-.88.89l2.12,2.12L21,22a.61.61,0,0,0,0,.88.6.6,0,0,0,.88,0l2.56-2.56a.61.61,0,0,0,0-.88Z"/>
    <path d="M12.88,19.92,15,17.8a.63.63,0,0,0-.88-.89l-2.56,2.57a.61.61,0,0,0,0,.88l2.56,2.56a.6.6,0,0,0,.88,0A.61.61,0,0,0,15,22Z"/>
  </g>
</svg>
