<svg xmlns="http://www.w3.org/2000/svg" viewBox="0 0 36 36">
  <g id="f869bd9d-d188-4b06-8491-cc37b3b243cd" data-name="Guidelines">
    <g>
      <path d="M31.13,17.39l-5.5-1.17a.57.57,0,0,0-.26,0l-5.5,1.17a.62.62,0,0,0-.49.61v6.5c.28,8.1,12,8.11,12.25,0V18A.62.62,0,0,0,31.13,17.39Zm-.75,7.11c-.21,6.44-9.55,6.44-9.76,0v-6l4.88-1,4.88,1Z"/>
      <path d="M24.17,23.15a.63.63,0,0,0-.88.89l1.06,1.06a.63.63,0,0,0,.88,0l2.48-2.48a.63.63,0,0,0-.88-.89l-2,2Z"/>
      <path d="M31,5.38H5A.61.61,0,0,0,4.38,6V30a.62.62,0,0,0,.62.62H19a.62.62,0,0,0,0-1.24H12.62V24.62H17a.62.62,0,0,0,0-1.24H5.62V18.62H17a.62.62,0,0,0,0-1.24H12.62V12.62H30.38V15a.62.62,0,0,0,1.24,0V6A.61.61,0,0,0,31,5.38Zm-25.38,6V6.62H19.38v4.76Zm5.76,13.24v4.76H5.62V24.62Zm0-7.24H5.62V12.62h5.76Zm9.24-6V6.62h9.76v4.76Z"/>
    </g>
  </g>
</svg>
