<svg id="abcf907c-f81a-4649-bcdb-35751a48f203" data-name="Icon" xmlns="http://www.w3.org/2000/svg" viewBox="0 0 36 36">
  <g>
    <path d="M10.5,25.62H28a.75.75,0,0,0,.26-.05,5.11,5.11,0,0,0,.36-10v0a9.12,9.12,0,0,0-17.28-4.07,7.12,7.12,0,1,0-.84,14.19Zm0-13a5.93,5.93,0,0,1,1.09.11.64.64,0,0,0,.69-.36,7.87,7.87,0,0,1,15.1,3.13c0,.13,0,.26,0,.4V16a.63.63,0,0,0,.56.66,3.87,3.87,0,0,1-.41,7.71h-17a5.88,5.88,0,0,1,0-11.76Z"/>
    <path d="M31,28.38H5a.62.62,0,1,0,0,1.24H31a.62.62,0,0,0,0-1.24Z"/>
  </g>
</svg>
