<svg id="ac95a6c0-3fcf-4f27-a0f0-0e6d148d5e98" data-name="Icon" xmlns="http://www.w3.org/2000/svg" viewBox="0 0 36 36">
  <g>
    <path d="M24.31,14l-6-3.47a.62.62,0,0,0-.62,0l-6,3.47a.6.6,0,0,0-.31.54v6.92a.6.6,0,0,0,.31.54l6,3.47a.64.64,0,0,0,.62,0l6-3.47a.6.6,0,0,0,.31-.54V14.54A.6.6,0,0,0,24.31,14Zm-.93,7.1L18,24.21,12.62,21.1V14.9L18,11.79l5.38,3.11Z"/>
    <path d="M18,3.38A14.62,14.62,0,1,0,32.62,18,14.64,14.64,0,0,0,18,3.38Zm0,28A13.38,13.38,0,1,1,31.38,18,13.39,13.39,0,0,1,18,31.38Z"/>
  </g>
</svg>
