<svg id="b2232653-4c49-434c-af45-9705838f8bb2" data-name="Icon" xmlns="http://www.w3.org/2000/svg" viewBox="0 0 36 36">
  <g>
    <path d="M25,17.38H23.23a5.27,5.27,0,0,0-1.09-2.64l1.25-1.25a.62.62,0,1,0-.88-.88l-1.25,1.25a5.27,5.27,0,0,0-2.64-1.09V11a.62.62,0,1,0-1.24,0v1.77a5.27,5.27,0,0,0-2.64,1.09l-1.25-1.25a.62.62,0,0,0-.88.88l1.25,1.25a5.27,5.27,0,0,0-1.09,2.64H11a.62.62,0,0,0,0,1.24h1.77a5.27,5.27,0,0,0,1.09,2.64l-1.25,1.25a.61.61,0,0,0,0,.88.63.63,0,0,0,.88,0l1.25-1.25a5.27,5.27,0,0,0,2.64,1.09V25a.62.62,0,0,0,1.24,0V23.23a5.27,5.27,0,0,0,2.64-1.09l1.25,1.25a.63.63,0,0,0,.88,0,.61.61,0,0,0,0-.88l-1.25-1.25a5.27,5.27,0,0,0,1.09-2.64H25a.62.62,0,0,0,0-1.24Zm-7,4.68A4.06,4.06,0,1,1,22.06,18,4.06,4.06,0,0,1,18,22.06Z"/>
    <path d="M27.9,28.52a.62.62,0,0,1-.44-.18.61.61,0,0,1,0-.88,13.42,13.42,0,0,0,2.63-15.19.61.61,0,0,1,.3-.83.62.62,0,0,1,.83.29,14.67,14.67,0,0,1-2.88,16.61A.62.62,0,0,1,27.9,28.52Z"/>
    <path d="M27.9,8.73a.63.63,0,0,1-.44-.19A13.4,13.4,0,0,0,12.27,5.91a.61.61,0,0,1-.83-.3.62.62,0,0,1,.29-.83A14.67,14.67,0,0,1,28.34,7.66a.63.63,0,0,1-.44,1.07Z"/>
    <path d="M5.35,24.62a.63.63,0,0,1-.57-.35A14.67,14.67,0,0,1,7.66,7.66a.62.62,0,0,1,.88.88A13.42,13.42,0,0,0,5.91,23.73a.61.61,0,0,1-.3.83A.48.48,0,0,1,5.35,24.62Z"/>
    <path d="M18,32.62A14.64,14.64,0,0,1,7.66,28.34a.63.63,0,0,1,0-.88.61.61,0,0,1,.88,0,13.42,13.42,0,0,0,15.19,2.63.61.61,0,0,1,.83.3.62.62,0,0,1-.29.83A14.67,14.67,0,0,1,18,32.62Z"/>
    <path d="M30,29.62H27a.62.62,0,0,1-.62-.62V26a.62.62,0,0,1,1.24,0v2.38H30a.62.62,0,0,1,0,1.24Z"/>
    <path d="M7,30.62A.62.62,0,0,1,6.38,30V27A.62.62,0,0,1,7,26.38h3a.62.62,0,0,1,0,1.24H7.62V30A.62.62,0,0,1,7,30.62Z"/>
    <path d="M29,9.62H26a.62.62,0,0,1,0-1.24h2.38V6a.62.62,0,0,1,1.24,0V9A.62.62,0,0,1,29,9.62Z"/>
    <path d="M9,10.62A.62.62,0,0,1,8.38,10V7.62H6A.62.62,0,0,1,6,6.38H9A.62.62,0,0,1,9.62,7v3A.62.62,0,0,1,9,10.62Z"/>
  </g>
</svg>
