<svg id="af27d7cd-0cec-48a8-afb1-973862026367" data-name="Icon" xmlns="http://www.w3.org/2000/svg" viewBox="0 0 36 36">
  <g>
    <path d="M21,26.38a.61.61,0,0,0-.62.62v3.38H8.62V18.62H18a.62.62,0,0,0,0-1.24H8a.61.61,0,0,0-.62.62V31a.61.61,0,0,0,.62.62H21a.61.61,0,0,0,.62-.62V27A.61.61,0,0,0,21,26.38Z"/>
    <path d="M28,4.38H15a.61.61,0,0,0-.62.62V15a.62.62,0,0,0,1.24,0V5.62H27.38V17.38H24a.62.62,0,0,0,0,1.24h4a.61.61,0,0,0,.62-.62V5A.61.61,0,0,0,28,4.38Z"/>
    <path d="M23.56,15.44a.62.62,0,0,0,.88-.88l-3-3a.66.66,0,0,0-.88,0l-3,3c-.58.56.32,1.46.88.88l1.94-1.93V24a.62.62,0,0,0,1.24,0V13.51Z"/>
  </g>
</svg>
