<svg id="f146640f-8e5c-45bb-9aa4-af3899cdc9db" data-name="Icon" xmlns="http://www.w3.org/2000/svg" viewBox="0 0 36 36">
  <g>
    <path d="M19.71,30a.63.63,0,0,0,.89.88A.63.63,0,0,0,19.71,30Z"/>
    <path d="M27.26,29.76a.63.63,0,0,0,0,1.25A.63.63,0,0,0,27.26,29.76Z"/>
    <path d="M24.89,29.76a.63.63,0,0,0,0,1.25A.63.63,0,0,0,24.89,29.76Z"/>
    <path d="M22.52,29.76a.63.63,0,0,0,0,1.25A.63.63,0,0,0,22.52,29.76Z"/>
    <path d="M29.63,29.76a.63.63,0,0,0,0,1.25A.63.63,0,0,0,29.63,29.76Z"/>
    <path d="M32.44,30a.62.62,0,0,0-.88.88C32.11,31.43,33,30.5,32.44,30Z"/>
    <path d="M22.78,14.07a.63.63,0,0,0,.62,1.09A.63.63,0,0,0,22.78,14.07Z"/>
    <path d="M22.36,12.06a.63.63,0,0,0-1.09.62A.63.63,0,0,0,22.36,12.06Z"/>
    <path d="M20.24,9.57a.62.62,0,0,0,.61,1.09A.62.62,0,0,0,20.24,9.57Z"/>
    <path d="M19.82,7.56a.62.62,0,0,0-1.09.61A.62.62,0,0,0,19.82,7.56Z"/>
    <path d="M29.45,26.51a.62.62,0,1,0-.3-1.17A.63.63,0,0,0,29.45,26.51Z"/>
    <path d="M24.67,17.42a.62.62,0,0,0-.61-1.09A.62.62,0,0,0,24.67,17.42Z"/>
    <path d="M27.87,23.08a.63.63,0,0,0,.62,1.1A.63.63,0,0,0,27.87,23.08Z"/>
    <path d="M30.42,27.59A.62.62,0,0,0,31,28.68.62.62,0,0,0,30.42,27.59Z"/>
    <path d="M27.22,21.92a.63.63,0,0,0-.62-1.09A.63.63,0,0,0,27.22,21.92Z"/>
    <path d="M25.33,18.58a.62.62,0,0,0,.61,1.09A.62.62,0,0,0,25.33,18.58Z"/>
    <path d="M18.44,5.17c-.59-.56-1.46.31-.88.88A.62.62,0,0,0,18.44,5.17Z"/>
    <path d="M16.54,8.2a.62.62,0,0,0,.61-1.09A.62.62,0,0,0,16.54,8.2Z"/>
    <path d="M14.22,12.3a.63.63,0,0,0,.62-1.09A.63.63,0,0,0,14.22,12.3Z"/>
    <path d="M15.38,10.25A.63.63,0,0,0,16,9.16.63.63,0,0,0,15.38,10.25Z"/>
    <path d="M13.06,14.34a.62.62,0,0,0,.62-1.08A.62.62,0,0,0,13.06,14.34Z"/>
    <path d="M11.77,16.29a.63.63,0,0,0,.89-.89A.63.63,0,0,0,11.77,16.29Z"/>
    <path d="M11.54,17.69a.64.64,0,0,0-1.08,0l-7,12.39a.62.62,0,0,0,0,.62A.61.61,0,0,0,4,31H18a.62.62,0,0,0,.54-.93ZM5.07,29.76,11,19.27l5.93,10.49Z"/>
  </g>
</svg>
