<svg id="b28fd8a4-ef64-462a-b19b-3e4d1a1ff0a5" data-name="Icon" xmlns="http://www.w3.org/2000/svg" viewBox="0 0 36 36">
  <path d="M30.67,22.51a5.1,5.1,0,0,0-2.05-9v0A9.12,9.12,0,0,0,11.34,9.43,7.1,7.1,0,0,0,4.62,20.48,7.12,7.12,0,0,0,10.5,31.62H28a.75.75,0,0,0,.26-.05,5.1,5.1,0,0,0,2.41-9.06Zm-26-6a5.84,5.84,0,0,1,7-5.77.64.64,0,0,0,.69-.36,7.87,7.87,0,0,1,15.1,3.13c0,.13,0,.26,0,.39V14a.63.63,0,0,0,.56.66,3.85,3.85,0,0,1,1.59,7.14,5,5,0,0,0-.88-.29v0a9.12,9.12,0,0,0-17.28-4.07,7,7,0,0,0-5.89,2A5.73,5.73,0,0,1,4.62,16.5ZM27.5,30.38h-17a5.88,5.88,0,1,1,1.09-11.65.63.63,0,0,0,.69-.36,7.87,7.87,0,0,1,15.1,3.13c0,.13,0,.26,0,.39V22a.63.63,0,0,0,.56.66,3.87,3.87,0,0,1-.41,7.71Z"/>
</svg>
