<svg id="f56b5939-0ee8-4563-8a43-dbb21ec43f20" data-name="Layer 1" xmlns="http://www.w3.org/2000/svg" viewBox="0 0 36 36">
  <g>
    <path d="M30.437,10.459l-12.125-7a.626.626,0,0,0-.624,0l-12.125,7A.626.626,0,0,0,5.251,11V25a.623.623,0,0,0,.312.541l12.125,7a.686.686,0,0,0,.624,0l12.125-7A.623.623,0,0,0,30.749,25V11A.626.626,0,0,0,30.437,10.459ZM29.5,24.64,18,31.279,6.5,24.64V11.361L18,4.722l11.5,6.639Z"/>
    <path d="M13.423,15.24a.625.625,0,0,0,.577.385h4.49l-3.932,3.933A.625.625,0,0,0,15,20.625h4.49l-3.932,3.933a.625.625,0,1,0,.884.885l5-5A.606.606,0,0,0,21,19.375H16.509l3.933-3.932A.622.622,0,0,0,20,14.375H15.509l3.933-3.932a.625.625,0,1,0-.884-.885l-5,5A.625.625,0,0,0,13.423,15.24Z"/>
  </g>
</svg>
