<svg xmlns="http://www.w3.org/2000/svg" viewBox="0 0 36 36">
  <g id="ab4fe1ee-4e74-457f-bf21-0702cfe3e2e0" data-name="Guidelines">
    <g>
      <path d="M31,18.38H5a.62.62,0,0,0-.62.62v8a.62.62,0,0,0,.62.62H31a.62.62,0,0,0,.62-.62V19A.62.62,0,0,0,31,18.38Zm-.62,8H5.62V19.62H30.38Z"/>
      <path d="M14,13.62a2.62,2.62,0,0,0,2.54-2h2.84V13a.62.62,0,1,0,1.24,0V11.62h.76V13a.62.62,0,1,0,1.24,0V11.62h.76V12a.62.62,0,0,0,1.24,0c0-.54.23-1.6-.62-1.62H16.54A2.62,2.62,0,1,0,14,13.62Zm0-4a1.38,1.38,0,0,1,0,2.75A1.38,1.38,0,0,1,14,9.62Z"/>
      <path d="M8.56,23.44c.57.59,1.45-.31.88-.88S8,22.87,8.56,23.44Z"/>
      <path d="M11.56,23.44a.62.62,0,0,0,.88-.88C11.87,22,11,22.87,11.56,23.44Z"/>
      <path d="M14.56,23.44a.62.62,0,0,0,.88-.88A.62.62,0,0,0,14.56,23.44Z"/>
      <path d="M17.56,23.44c.57.59,1.45-.31.88-.88A.62.62,0,0,0,17.56,23.44Z"/>
      <path d="M20.56,23.44c.57.59,1.45-.31.88-.88S20,22.87,20.56,23.44Z"/>
      <path d="M23.56,23.44a.62.62,0,0,0,.88-.88C23.87,22,23,22.87,23.56,23.44Z"/>
      <path d="M26.56,23.44a.62.62,0,0,0,.88-.88A.62.62,0,0,0,26.56,23.44Z"/>
    </g>
  </g>
</svg>
