<svg id="bcffe1a8-6e5e-4e83-91b2-e8371d994a54" data-name="Icon" xmlns="http://www.w3.org/2000/svg" viewBox="0 0 36 36">
  <g>
    <path d="M13.16,22.84a1.27,1.27,0,0,0,.94.36c1.09,0,2.59-.95,3.9-2,1.31,1.06,2.81,2,3.9,2a1.27,1.27,0,0,0,.94-.36c1-1-.22-3.08-1.64-4.84,1.42-1.76,2.62-3.86,1.64-4.84s-3.08.22-4.84,1.64c-1.76-1.42-3.86-2.62-4.84-1.64s.22,3.08,1.64,4.84C13.38,19.76,12.18,21.86,13.16,22.84Zm8.82-.9c-.3.11-1.47-.36-3-1.57l.73-.68c.21-.22.45-.47.68-.73C21.58,20.5,22.07,21.67,22,21.94ZM17.2,18.8c-.28-.27-.52-.54-.76-.8.24-.26.48-.53.76-.8s.54-.53.8-.76c.26.23.53.49.8.76s.52.54.76.8c-.24.26-.48.53-.76.8s-.54.52-.8.76C17.74,19.32,17.47,19.08,17.2,18.8ZM21.86,14h.08c.12.3-.36,1.47-1.57,3-.23-.26-.47-.51-.68-.73L19,15.63A7.13,7.13,0,0,1,21.86,14ZM14,14.06l.12,0A6.89,6.89,0,0,1,17,15.63c-.26.23-.5.47-.72.68s-.45.47-.68.73C14.42,15.5,13.93,14.33,14,14.06ZM15.63,19c.23.26.47.51.68.73s.47.45.73.68c-1.54,1.21-2.71,1.7-3,1.61C13.94,21.68,14.42,20.51,15.63,19Z"/>
    <path d="M26,9.38H10a.61.61,0,0,0-.62.62V26a.61.61,0,0,0,.62.62H26a.61.61,0,0,0,.62-.62V10A.61.61,0,0,0,26,9.38Zm-.62,16H10.62V10.62H25.38Z"/>
    <path d="M29,10.62h2a.62.62,0,1,0,0-1.24H29a.62.62,0,0,0,0,1.24Z"/>
    <path d="M31,17.38H29a.62.62,0,0,0,0,1.24h2a.62.62,0,0,0,0-1.24Z"/>
    <path d="M31,13.38H29a.62.62,0,0,0,0,1.24h2a.62.62,0,1,0,0-1.24Z"/>
    <path d="M31,25.38H29a.62.62,0,0,0,0,1.24h2a.62.62,0,0,0,0-1.24Z"/>
    <path d="M31,21.38H29a.62.62,0,0,0,0,1.24h2a.62.62,0,0,0,0-1.24Z"/>
    <path d="M7,9.38H5a.62.62,0,1,0,0,1.24H7A.62.62,0,1,0,7,9.38Z"/>
    <path d="M7,17.38H5a.62.62,0,1,0,0,1.24H7a.62.62,0,0,0,0-1.24Z"/>
    <path d="M7,13.38H5a.62.62,0,1,0,0,1.24H7a.62.62,0,1,0,0-1.24Z"/>
    <path d="M7,25.38H5a.62.62,0,1,0,0,1.24H7a.62.62,0,0,0,0-1.24Z"/>
    <path d="M7,21.38H5a.62.62,0,1,0,0,1.24H7a.62.62,0,0,0,0-1.24Z"/>
    <path d="M26,28.38a.61.61,0,0,0-.62.62v2a.62.62,0,0,0,1.24,0V29A.61.61,0,0,0,26,28.38Z"/>
    <path d="M18,28.38a.61.61,0,0,0-.62.62v2a.62.62,0,0,0,1.24,0V29A.61.61,0,0,0,18,28.38Z"/>
    <path d="M22,28.38a.61.61,0,0,0-.62.62v2a.62.62,0,0,0,1.24,0V29A.61.61,0,0,0,22,28.38Z"/>
    <path d="M10,28.38a.61.61,0,0,0-.62.62v2a.62.62,0,0,0,1.24,0V29A.61.61,0,0,0,10,28.38Z"/>
    <path d="M14,28.38a.61.61,0,0,0-.62.62v2a.62.62,0,0,0,1.24,0V29A.61.61,0,0,0,14,28.38Z"/>
    <path d="M26,4.38a.61.61,0,0,0-.62.62V7a.62.62,0,0,0,1.24,0V5A.61.61,0,0,0,26,4.38Z"/>
    <path d="M18,7.62A.61.61,0,0,0,18.62,7V5a.62.62,0,0,0-1.24,0V7A.61.61,0,0,0,18,7.62Z"/>
    <path d="M22,7.62A.61.61,0,0,0,22.62,7V5a.62.62,0,0,0-1.24,0V7A.61.61,0,0,0,22,7.62Z"/>
    <path d="M10,7.62A.61.61,0,0,0,10.62,7V5A.62.62,0,0,0,9.38,5V7A.61.61,0,0,0,10,7.62Z"/>
    <path d="M14,7.62A.61.61,0,0,0,14.62,7V5a.62.62,0,1,0-1.24,0V7A.61.61,0,0,0,14,7.62Z"/>
  </g>
</svg>
