<svg id="bc99bd2d-f128-4b89-baa4-197e4a5acbc8" data-name="Layer 1" xmlns="http://www.w3.org/2000/svg" viewBox="0 0 36 36">
  <defs>
    <style>
      .a0e29a61-ab5b-493f-8a74-b61402522456 {
        fill: #e00;
      }
    </style>
  </defs>
  <g>
    <path d="M23,25.625H10.5a7.124,7.124,0,1,1,.836-14.2A9.124,9.124,0,0,1,28.625,15.5v.022a5.1,5.1,0,0,1,4,4.978.625.625,0,0,1-1.25,0,3.855,3.855,0,0,0-3.468-3.831.624.624,0,0,1-.558-.661l.007-.112c.009-.132.019-.263.019-.4a7.874,7.874,0,0,0-15.1-3.135.623.623,0,0,1-.689.365,5.959,5.959,0,0,0-1.088-.105,5.875,5.875,0,0,0,0,11.75H23a.625.625,0,0,1,0,1.25Z"/>
    <path class="a0e29a61-ab5b-493f-8a74-b61402522456" d="M24,29.625H5a.625.625,0,0,1,0-1.25H24a.625.625,0,0,1,0,1.25Z"/>
    <path d="M32.13,21.936l-3-.638a.6.6,0,0,0-.26,0l-3,.638a.624.624,0,0,0-.5.611V26a3.625,3.625,0,0,0,7.25,0V22.547A.624.624,0,0,0,32.13,21.936Z"/>
  </g>
</svg>
