<svg id="ac93f9a9-e86c-441f-87c8-7244ad70501d" data-name="Layer 1" xmlns="http://www.w3.org/2000/svg" viewBox="0 0 36 36">
  <g>
    <path d="M28.625,13.541v-.022A9.124,9.124,0,0,0,11.336,9.446a7.1,7.1,0,0,0-7.961,7.073c0,4.45,2.85,7.106,7.625,7.106a.625.625,0,0,0,0-1.25c-4.052,0-6.375-2.134-6.375-5.856a5.86,5.86,0,0,1,6.964-5.77.621.621,0,0,0,.689-.365,7.874,7.874,0,0,1,15.1,3.135c0,.133-.01.265-.019.4l-.008.111a.626.626,0,0,0,.559.662,3.863,3.863,0,0,1-.407,7.706H25a.625.625,0,0,0,0,1.25h3a.6.6,0,0,0,.288-.08,5.1,5.1,0,0,0,.337-10.023Z"/>
    <path d="M15.625,27V17a.625.625,0,0,0-1.25,0v9.375H12.541a2.625,2.625,0,1,0,0,1.25H15A.626.626,0,0,0,15.625,27ZM10,28.375A1.375,1.375,0,1,1,11.375,27,1.377,1.377,0,0,1,10,28.375Z"/>
    <path d="M18.625,27.458V17a.625.625,0,0,0-1.25,0V27.458a2.625,2.625,0,1,0,1.25,0ZM18,31.375A1.375,1.375,0,1,1,19.375,30,1.377,1.377,0,0,1,18,31.375Z"/>
    <path d="M26,24.375a2.624,2.624,0,0,0-2.542,2H21.625V17a.625.625,0,0,0-1.25,0V27a.625.625,0,0,0,.625.625h2.458A2.622,2.622,0,1,0,26,24.375Zm0,4A1.375,1.375,0,1,1,27.375,27,1.377,1.377,0,0,1,26,28.375Z"/>
  </g>
</svg>
