<svg id="ba8fb066-8683-470a-b0fc-f70ace476bdf" data-name="Icon" xmlns="http://www.w3.org/2000/svg" viewBox="0 0 36 36">
  <g>
    <path d="M31,29.38H23.54a2.62,2.62,0,1,0,0,1.24h2.84V32a.62.62,0,0,0,1.24,0V30.62h.76V32a.62.62,0,0,0,1.24,0V30.62h.76V31a.62.62,0,0,0,1.24,0V30A.62.62,0,0,0,31,29.38Z"/>
    <path d="M18,18.62a12.35,12.35,0,0,1,11.78,8.57.62.62,0,0,0,.79.4.62.62,0,0,0,.4-.78,13.58,13.58,0,0,0-9.63-9,7.12,7.12,0,1,0-6.66,0A13.63,13.63,0,0,0,4.38,31a.62.62,0,0,0,.62.62H16a.62.62,0,0,0,0-1.24H5.64A12.4,12.4,0,0,1,18,18.62ZM12.12,11.5A5.88,5.88,0,1,1,18,17.38,5.89,5.89,0,0,1,12.12,11.5Z"/>
  </g>
</svg>
