<svg id="eaa54418-f537-4ff4-aa4a-a844ee89e65f" data-name="Icon" xmlns="http://www.w3.org/2000/svg" viewBox="0 0 36 36">
  <g>
    <path d="M31,9.52H15.29a.63.63,0,0,0-.63.62v2.95H10.77V11.14a.63.63,0,0,0-.63-.62H5a.62.62,0,0,0-.62.62v5.15a.62.62,0,0,0,.62.62h5.14a.63.63,0,0,0,.63-.62V14.34h3.89v7H10.77V19.43a.63.63,0,0,0-.63-.63H5a.63.63,0,0,0-.62.63v5.14A.63.63,0,0,0,5,25.2h5.14a.63.63,0,0,0,.63-.63V22.62h3.89v3.24a.63.63,0,0,0,.63.62H31a.62.62,0,0,0,.62-.62V10.14A.62.62,0,0,0,31,9.52ZM9.52,15.66H5.62V11.77h3.9Zm0,8.29H5.62v-3.9h3.9Zm20.86,1.28H15.91V10.77H30.38Z"/>
    <path d="M27.81,12.94a.48.48,0,0,0,.2.14.74.74,0,0,0,.48,0,.7.7,0,0,0,.34-.34.69.69,0,0,0,.05-.24.6.6,0,0,0-.19-.44.72.72,0,0,0-.2-.14.66.66,0,0,0-.48,0,.48.48,0,0,0-.2.14.66.66,0,0,0-.14.2.6.6,0,0,0,0,.48A.66.66,0,0,0,27.81,12.94Z"/>
    <path d="M26,12.94a.6.6,0,0,0,.21.14.6.6,0,0,0,.24.05.69.69,0,0,0,.24-.05.66.66,0,0,0,.2-.14A.62.62,0,0,0,27,12.5a.52.52,0,0,0-.05-.24.63.63,0,0,0-.13-.2.64.64,0,0,0-.68-.14.6.6,0,0,0-.21.14.63.63,0,0,0-.18.44.66.66,0,0,0,.18.44Z"/>
  </g>
</svg>
